<?xml version="1.0" encoding="utf-8"?>
<!-- Generator: Adobe Illustrator 16.0.2, SVG Export Plug-In . SVG Version: 6.00 Build 0)  -->
<!DOCTYPE svg PUBLIC "-//W3C//DTD SVG 1.1 Tiny//EN" "http://www.w3.org/Graphics/SVG/1.1/DTD/svg11-tiny.dtd">
<svg version="1.1" baseProfile="tiny" id="Layer_1" xmlns="http://www.w3.org/2000/svg" xmlns:xlink="http://www.w3.org/1999/xlink"
	 x="0px" y="0px" width="1127.762px" height="849.122px" viewBox="0 0 1127.762 849.122" xml:space="preserve">
<g>
	<path fill-rule="evenodd" fill="#FFFFFF" d="M1128.455,850.055c-376.01,0-751.992,0-1127.948,0c0-283.209,0-566.392,0-849.548
		c376.01,0,751.993,0,1127.948,0C1128.455,283.717,1128.455,566.899,1128.455,850.055z M109.324,677.505
		c-0.541-2.832-1.091-5.718-1.643-8.604c-0.828-4.326-1.269-8.683-1.025-13.091c0.251-4.534,0.582-9.063,0.769-13.601
		c0.297-7.204-3.052-13.122-7.132-18.6c-3.304-4.436-7.755-7.798-12.02-11.294c-2.783-2.28-5.994-3.856-9.458-4.361
		c-6.711-0.978-13.491-1.601-20.178,0.406c-0.456,0.137-0.942,0.167-1.401,0.295c-3.068,0.851-6.135,1.709-9.198,2.58
		c-0.528,0.15-1.038,0.531-1.555,0.53c-2.69-0.009-4.732,1.197-6.444,3.163c-0.682,0.782-1.413,1.537-2.208,2.201
		c-1.403,1.17-2.056,2.64-1.898,4.429c0.245,2.771-0.427,5.363-1.26,7.967c-0.482,1.508-0.706,3.103-0.995,4.668
		c-0.318,1.723-0.501,3.474-0.878,5.182c-1.695,7.664-2.656,15.41-2.445,23.26c0.108,4.058,0.493,8.111,0.86,12.156
		c0.135,1.487,0.599,2.943,0.878,4.42c0.236,1.247,0.414,2.505,0.63,3.756c0.366,2.109,0.677,4.23,1.13,6.321
		c0.504,2.328,1.313,4.602,1.675,6.946c0.431,2.795,1.157,5.465,2.418,7.975c2.373,4.723,4.313,9.609,5.677,14.714
		c0.779,2.916,2.151,5.479,4.127,7.744c0.997,1.142,1.94,2.331,2.93,3.479c3.653,4.24,7.431,8.332,12.099,11.532
		c3.423,2.346,6.754,4.83,9.578,7.934c0.901,0.99,2.068,1.748,3.154,2.559c2.488,1.856,5.031,3.642,7.479,5.549
		c0.477,0.371,0.813,1.138,0.891,1.763c0.159,1.265,0.019,2.462-0.842,3.606c-1.64,2.179-2.245,4.714-2.01,7.453
		c0.082,0.953,0.083,1.925-0.004,2.877c-0.118,1.287,0.293,2.328,1.134,3.272c3.031,3.403,6.056,6.823,9.823,9.446
		c3.404,2.369,6.891,4.618,10.334,6.932c1.92,1.29,3.676,2.971,5.772,3.818c3.066,1.241,6.328,2.141,9.59,2.712
		c2.322,0.407,4.781,0.01,7.179,0.022c1.105,0.006,2.211,0.115,3.313,0.217c0.869,0.08,1.73,0.299,2.598,0.318
		c2.154,0.047,4.317,0.124,6.463-0.022c1.484-0.102,3.029-0.342,4.397-0.893c3.642-1.465,6.997-3.482,10.125-5.867
		c1.832-1.396,3.682-2.769,5.58-4.194c0.89,0.867,1.733,1.688,2.538,2.473c-1.39,3.055-1.39,3.055-1.39,6.746
		c0,0.8-0.005,1.6,0.001,2.399c0.02,2.643,3.019,6.737,5.643,6.871c3.436,0.177,6.983,0.978,10.363-0.604
		c0.515-0.24,1.209-0.097,1.815-0.131c0.111,0.391,0.265,0.633,0.225,0.838c-0.524,2.722,0.815,4.576,2.801,6.146
		c0.187,0.148,0.355,0.325,0.509,0.508c0.995,1.184,2.226,1.712,3.8,1.606c1.433-0.097,2.885-0.107,4.317,0.002
		c1.667,0.127,2.924-0.524,4.033-1.671c0.926-0.958,1.892-1.879,2.926-2.9c1.296,1.464,2.774,1.549,4.329,1.475
		c1.357-0.064,2.72,0.015,4.079-0.028c0.629-0.021,1.433,0.033,1.853-0.314c2.416-2.006,5.227-3.749,5.003-7.577
		c-0.241-4.119-0.314-8.248-0.465-12.505c0.002-0.001,0.229-0.206,0.419-0.176c3.258,0.522,5.457-1.152,7.358-3.485
		c0.301-0.37,0.636-0.73,1.015-1.018c0.788-0.598,0.969-1.38,0.944-2.319c-0.046-1.759,0.108-3.531-0.06-5.274
		c-0.102-1.057-0.408-2.268-1.049-3.066c-2.187-2.724-4.725-5.009-8.564-4.967c-0.097,0.001-0.197-0.208-0.331-0.358
		c0.444-1.322,1.147-2.644,1.295-4.023c0.288-2.688,0.32-5.411,0.331-8.119c0.002-0.641-0.368-1.396-0.797-1.902
		c-0.927-1.095-1.952-2.125-3.043-3.056c-0.51-0.435-1.28-0.837-1.913-0.808c-2.969,0.134-6.069-0.836-9.114,1.321
		c0.273-0.607,0.307-0.86,0.45-0.974c2.472-1.944,2.997-4.72,3.497-7.608c0.415-2.392,1.246-4.711,1.849-6.906
		c3.188,0.068,6.049,0.221,8.905,0.152c1.493-0.036,3.038-0.279,4.449-0.755c2.032-0.686,3.935-1.744,5.945-2.508
		c3.567-1.354,7.08-2.918,11.053-2.773c1.082,0.039,2.193-0.367,3.271-0.649c4.009-1.052,7.999-2.178,12.017-3.195
		c2.645-0.669,5.187-1.492,7.521-2.979c4.836-3.083,9.013-6.938,12.619-11.315c3.536-4.293,6.02-9.206,6.398-14.945
		c0.051-0.768,0.333-1.521,0.566-2.531c7.172-1.301,14.268-2.921,21.455-3.798c6.988-0.853,13.56-2.884,20.054-5.382
		c4.479-1.724,7.916-4.781,10.557-8.688c0.737-1.089,1.487-2.009,2.536-2.761c3.281-2.354,6.957-3.864,10.745-5.156
		c8.988-3.066,17.966-6.158,26.958-9.213c5.89-2.001,11.749-4.113,17.708-5.888c7.569-2.254,15.208-4.284,22.85-6.281
		c5.554-1.45,11.129-2.861,16.756-3.986c9.072-1.813,18.255-3.104,27.278-5.122c8.843-1.978,17.806-2.671,26.764-3.592
		c6.104-0.627,12.228-1.131,18.302-1.979c4.851-0.678,9.333-2.724,13.819-4.607c2.638-1.107,5.108-2.633,7.778-3.638
		c8.581-3.228,17.327-6.051,25.062-11.181c0.613-0.406,1.492-0.645,2.226-0.6c8.276,0.504,16.547,1.112,24.823,1.625
		c6.05,0.375,12.104,0.687,18.16,0.961c7.892,0.358,15.785,0.68,23.68,0.966c5.744,0.207,11.495,0.269,17.237,0.513
		c4.221,0.18,8.433,0.562,12.65,0.832c6.765,0.434,13.531,0.833,20.296,1.279c3.101,0.205,6.192,0.544,9.295,0.709
		c1.392,0.073,2.164,0.67,2.688,1.924c0.988,2.374,2.382,4.449,4.248,6.298c1.427,1.414,3.039,2.063,4.856,2.052
		c2.307-0.015,4.16,0.929,5.963,2.131c3.349,2.232,6.857,4.047,10.886,4.763c1.797,0.319,3.621,0.742,5.298,1.44
		c5.598,2.334,11.167,4.741,16.687,7.253c8.429,3.835,16.762,7.883,25.218,11.654c10.277,4.583,20.616,9.03,30.976,13.428
		c7.929,3.365,15.832,6.829,23.923,9.762c9.813,3.558,19.173,7.946,27.859,13.696c8.19,5.423,16.23,11.072,24.34,16.619
		c1.499,1.025,3.01,2.035,4.543,3.072c-0.501,6.024,0.311,11.786,1.435,17.518c0.674,3.438,1.608,6.821,1.581,10.381
		c-0.008,0.962,0.45,2.059,1.015,2.871c2.793,4.021,6.06,7.646,9.911,10.671c1.002,0.787,2.398,1.304,3.676,1.472
		c8.084,1.063,16.213,1.511,24.367,1.258c2.149-0.066,4.299-0.27,6.438-0.498c4.054-0.432,7.947-1.53,11.864-3.188
		c1.08,1.126,2.137,2.212,3.174,3.315c1.627,1.729,3.615,2.556,5.992,2.521c2.239-0.033,4.481-0.056,6.719,0.011
		c1.357,0.041,2.477-0.344,3.531-1.195c1.089-0.88,2.287-1.626,3.551-2.51c1.077,1.256,1.976,2.304,3.164,3.69
		c-1.882,0-3.304-0.047-4.719,0.021c-0.598,0.028-1.347,0.12-1.748,0.487c-2.53,2.319-5.177,4.59-5.461,8.394
		c-0.137,1.841-1.063,3.242-2.409,4.5c-1.445,1.351-3.213,2.557-3.737,4.587c-0.357,1.385-1.169,1.538-2.294,1.483
		c-0.479-0.023-0.966,0.047-1.438-0.011c-3.436-0.412-6,1.025-8.072,3.655c-0.625,0.794-1.003,1.57-0.968,2.602
		c0.059,1.679-0.044,3.363,0.041,5.039c0.048,0.942-0.019,1.755-0.855,2.316c-2.803,1.878-3.403,4.604-3.019,7.729
		c0.058,0.474-0.046,0.967,0.02,1.438c0.139,1.004,0.019,2.266,0.581,2.941c1.252,1.504,2.658,3.14,4.367,3.943
		c2.653,1.246,5.61,1.801,8.637,1.564c0.996-0.077,2.01,0.075,3.241,0.133c0,2.067-0.097,3.9,0.041,5.715
		c0.068,0.898,0.351,1.957,0.92,2.605c1.254,1.43,2.742,2.653,4.161,3.932c0.142,0.127,0.466,0.073,0.704,0.066
		c3.148-0.089,6.348,0.427,9.387-0.904c1.654,1.887,3.646,2.623,6.054,2.373c1.107-0.115,2.237-0.025,3.357-0.021
		c1.599,0.007,2.839-0.633,4.055-1.714c2.036-1.809,3.399-3.789,3.041-6.637c-0.012-0.095,0.171-0.214-0.004-0.009
		c2.135,0.147,4.019,0.368,5.903,0.39c4.665,0.055,4.646-0.001,7.802-3.322c0.771-0.813,1.156-1.659,1.112-2.779
		c-0.058-1.486-0.014-2.977-0.014-4.593c2.019,0.163,3.004-1.033,4.192-1.979c2.109-1.68,3.097-3.665,2.73-6.419
		c-0.227-1.71-0.042-3.474-0.042-5.306c1.709,0.079,3.133,0.188,4.557,0.2c3.44,0.027,6.881-0.034,10.319,0.039
		c0.915,0.02,2.022,0.136,2.7,0.654c5.162,3.951,11.006,5.328,17.364,4.779c3.549-0.307,6.752-1.203,9.339-4.124
		c2.902-3.276,6.308-6.107,9.489-9.136c3.767-3.586,7.433-7.25,9.964-11.883c0.857-1.567,1.572-3.093,1.416-4.968
		c-0.139-1.669,0.043-3.362-0.061-5.035c-0.051-0.843-0.268-1.752-0.681-2.477c-0.779-1.371-1.754-2.631-2.727-4.052
		c0.455-0.497,0.914-1.037,1.413-1.537c3.947-3.96,7.934-7.882,11.848-11.875c4.988-5.089,9.485-10.509,12.945-16.839
		c3.468-6.342,6.513-12.765,8.18-19.835c1.353-5.737,2.987-11.408,4.478-17.113c1.394-5.335,2.473-10.724,2.499-16.268
		c0.02-4.154-0.058-8.31,0.01-12.462c0.112-6.947,0.323-13.893,0.458-20.839c0.088-4.556,0.076-9.113,0.184-13.668
		c0.065-2.768-0.556-5.359-1.433-7.964c-1.675-4.979-3.199-10.008-4.748-15.027c-0.722-2.343-0.957-4.89-3.093-6.578
		c-0.277-0.22-0.398-0.679-0.521-1.051c-1.813-5.493-5.375-9.765-9.589-13.536c-3.215-2.878-6.703-5.209-11.383-4.529
		c-0.94,0.137-1.932,0.126-2.874-0.002c-2.133-0.289-3.718,0.568-5.037,2.135c-2.98,3.539-5.965,7.075-8.953,10.607
		c-0.461,0.545-0.857,1.231-1.446,1.568c-4.097,2.346-7.167,5.851-10.414,9.142c-6.536,6.625-12.096,14.025-16.887,21.986
		c-2.596,4.313-4.033,9.003-3.814,14.133c0.116,2.716-0.073,5.444,0.054,8.158c0.085,1.814,0.374,3.64,0.767,5.417
		c0.808,3.659,2.947,6.687,4.85,9.827c0.903,1.493,1.647,3.084,2.42,4.652c1.336,2.711,0.965,5.61,0.893,8.478
		c-0.111,4.411-1.201,8.519-3.783,12.149c-2.036,2.864-4.003,5.79-6.236,8.493c-0.916,1.108-2.364,1.956-3.74,2.439
		c-0.795,0.278-1.932-0.393-2.906-0.663c-0.75-0.207-1.487-0.457-2.378-0.735c0-2.214-0.025-4.447,0.005-6.68
		c0.071-5.276-0.13-10.55-1.146-15.725c-0.896-4.559-1.766-9.085-1.44-13.761c0.038-0.537-0.128-1.108-0.289-1.637
		c-1.007-3.318-2.461-6.416-4.798-9.017c-6.213-6.916-12.928-13.251-20.772-18.347c-6.653-4.321-13.635-7.597-21.66-8.372
		c-2.997-0.289-5.964-0.962-8.92-1.572c-3.518-0.728-6.979-1.774-10.52-2.328c-6.46-1.009-12.963-1.736-19.44-2.632
		c-1.084-0.149-2.288-0.309-3.172-0.875c-6.595-4.23-13.501-7.896-20.356-11.675c-12.023-6.627-23.928-13.475-35.8-20.372
		c-13.832-8.035-28.141-15.085-42.916-21.196c-5.978-2.472-12.04-4.744-17.963-7.336c-14.327-6.271-28.521-12.813-43.688-16.983
		c-10.765-2.96-21.351-6.568-32.026-9.852c-5.338-1.642-10.699-3.202-16.05-4.801c-3.744-1.118-7.51-2.171-11.225-3.378
		c-3.029-0.984-6.011-2.026-8.416-4.365c-2.224-2.162-4.666-4.121-7.145-5.993c-2.302-1.738-4.807-3.14-7.865-3.11
		c-0.584,0.006-1.355-0.191-1.727-0.589c-1.733-1.853-3.73-2.97-6.464-2.484c-0.909-7.273-4.593-13.253-7.499-19.828
		c2.48-0.248,4.688-0.423,6.884-0.696c10.382-1.289,20.826-1.629,31.264-2.1c4.54-0.204,9.069-0.688,13.61-0.839
		c3.45-0.114,6.028-1.542,8.302-4.072c2.42-2.693,4.415-5.393,3.738-9.296c-0.175-1.01,0.013-2.078-0.045-3.115
		c-0.029-0.54-0.048-1.288-0.384-1.568c-1.123-0.937-1.01-2.263-1.405-3.445c-1.514-4.535-2.882-9.141-4.747-13.532
		c-4.586-10.797-9.426-21.486-14.146-32.227c-2.985-6.794-5.951-13.596-8.901-20.406c-1.71-3.948-3.373-7.916-5.254-12.337
		c0.759-0.594,1.647-1.165,2.38-1.893c1.356-1.348,2.918-2.616,3.846-4.233c1.099-1.912,2.477-3.486,3.984-5.022
		c1.687-1.718,2.991-3.652,3.89-5.948c1.24-3.172,1.251-6.433,1.028-9.68c-0.271-3.948,1.676-6.954,3.966-9.658
		c1.719-2.031,4.016-3.635,6.238-5.165c4.014-2.762,8.156-5.336,12.259-7.968c5.647-3.623,11.141-7.529,17.006-10.76
		c6.912-3.806,14.061-7.219,21.263-10.455c26.337-11.834,53.479-21.425,81.471-28.528c12.475-3.166,25.165-5.125,38.043-5.826
		c1.677-0.091,2.591,0.38,3.599,1.582c2.365,2.819,4.858,5.609,8.25,7.192c3.092,1.443,6.359,2.504,9.532,3.777
		c0.94,0.378,1.993,0.724,2.702,1.394c3.883,3.676,7.65,7.473,11.507,11.178c2.652,2.548,5.386,5.01,8.933,6.31
		c0.19,0.07,0.313,0.326,0.461,0.49c-3.099,3.958-3.099,3.958-3.098,9.065c0,0.8-0.042,1.603,0.009,2.399
		c0.146,2.286,0.7,4.393,2.543,5.983c0.906,0.782,1.745,1.651,2.548,2.541c1.296,1.436,2.894,2.127,4.795,2.429
		c5.415,0.858,10.856,0.291,16.282,0.421c1.346,0.032,2.44-0.674,3.377-1.601c1.364-1.352,2.667-2.768,4.087-4.058
		c2.418-2.198,3.356-4.944,3.323-8.132c-0.032-3.092-0.007-6.186-0.007-9.55c2.996-0.819,6.133-1.699,9.28-2.532
		c4.623-1.224,9.269-2.362,13.877-3.638c2.84-0.786,5.592-1.901,8.446-2.62c5.966-1.501,11.871-3.158,17.559-5.531
		c0.803-0.335,1.672-0.532,2.525-0.721c7.341-1.625,14.494-3.836,21.416-6.783c4.913-2.092,9.824-4.135,15.237-4.69
		c1.602-0.165,2.667,0.103,3.802,1.244c1.274,1.283,2.698,2.945,4.299,3.276c4.215,0.872,8.627,2.014,12.673-0.826
		c0.191-0.134,0.429-0.257,0.655-0.279c3.314-0.316,5.639-2.45,8.115-4.337c0.803-0.612,1.713-1.263,2.666-1.468
		c5.242-1.127,8.544-4.742,11.555-8.759c1.196-1.596,1.689-3.392,1.516-5.408c-0.109-1.271-0.021-2.558-0.021-3.838
		c-0.001-2.091-0.811-3.851-2.115-5.452c-0.647-0.794-1.271-1.651-1.693-2.577c-1.789-3.919-3.531-7.862-5.23-11.822
		c-1.599-3.725-3.728-7.042-6.852-9.692c-1.445-1.226-2.911-2.157-4.93-1.953c-2.489,0.251-5.108-0.569-7.445,0.94
		c-0.116,0.075-0.314,0.014-0.473,0.036c-3.235,0.454-6.482,0.837-9.702,1.38c-7.076,1.193-13.947,3.421-21.129,4.129
		c-2.268,0.224-4.491,0.893-6.892,1.39c-0.735-1.922-1.469-3.849-2.211-5.773c-1.29-3.34-3.974-5.545-6.456-7.914
		c-1.968-0.137-3.936-0.28-5.904-0.406c-0.478-0.031-0.969-0.065-1.438,0.008c-1.014,0.16-2.247,0.091-2.975,0.654
		c-1.438,1.112-3.097,1.207-4.698,1.625c-2.462,0.644-4.925,1.289-7.395,1.902c-5.256,1.306-10.517,2.595-15.776,3.886
		c-0.989,0.243-1.753,0.129-2.509-0.79c-1.266-1.538-2.795-2.855-4.159-4.315c-2.715-2.905-6.023-4.763-9.925-5.396
		c-3.215-0.522-6.472-0.781-9.926-1.182c-0.361-1.835-0.678-3.795-1.141-5.719c-0.71-2.946-1.622-5.846-2.258-8.806
		c-0.502-2.331-1.388-4.438-2.966-6.187c-2.14-2.371-4.376-4.656-6.603-6.947c-2.715-2.792-5.542-5.392-9.803-4.748
		c-0.574-1.07-0.949-2.068-1.571-2.876c-3.456-4.491-6.896-9.004-11.181-12.769c-1.934-1.699-4.023-3.149-6.652-3.572
		c-6.069-0.975-12.112-1.543-18.247-0.24c-3.613,0.768-7.142,1.662-10.534,3.132c-2.484,1.076-5.004,2.085-7.552,2.998
		c-3.77,1.351-6.461,4.045-8.942,6.996c-0.548,0.651-1.038,1.518-1.144,2.339c-0.275,2.133-1.493,3.663-2.909,5.073
		c-0.906,0.902-1.405,1.94-1.442,3.168c-0.181,5.914,0.102,11.813,1.256,17.619c0.439,2.21,1.438,4.309,2.26,6.686
		c-2.634-0.066-5.242,0.027-7.661,1.179c-0.263,0.125-0.632,0.039-0.952,0.034c-5.472-0.083-10.817,0.787-16.074,2.218
		c-7.773,2.115-15.542,4.25-23.293,6.444c-10.363,2.933-20.765,5.747-31.045,8.948c-11.191,3.485-22.281,7.302-33.381,11.078
		c-7.392,2.515-14.726,5.199-22.075,7.835c-1.124,0.404-2.195,0.957-3.286,1.453c-3.989,1.812-7.942,3.706-11.974,5.419
		c-3.223,1.37-6.504,2.619-9.818,3.749c-4.227,1.44-8.561,2.58-12.374,5.033c-0.278,0.178-0.691,0.147-1.206,0.244
		c0-2.104-0.076-4.022,0.027-5.931c0.067-1.241-0.406-2.071-1.236-2.933c-1.723-1.788-3.731-3.16-5.709-4.625
		c-1.396-1.035-2.632-1.533-4.311-1.524c-2.146,0.011-4.36,0.061-6.424-0.424c-4.232-0.997-8.51-1.264-12.814-1.469
		c-2.258-0.108-4.512-0.302-7.326-0.495c1.599-1.604,2.73-2.818,3.945-3.945c5.282-4.902,8.199-11.116,8.746-18.115
		c0.452-5.778-0.102-11.647-0.421-17.464c-0.062-1.135-0.931-2.353-1.718-3.288c-1.02-1.211-2.331-2.176-3.667-3.384
		c2.536-2.681,2.348-5.743,2.271-8.783c-0.018-0.719-0.043-1.442,0.006-2.159c0.102-1.521-0.454-2.757-1.348-3.974
		c-2.559-3.487-5.291-6.812-8.45-9.776c-0.58-0.545-1.097-1.16-1.983-2.104c8.999,1.59,17.446,2.668,26.034,2.506
		c3.573-0.068,7.16,0.403,10.736,0.681c5.976,0.464,11.963,0.843,17.932,0.164c2.835-0.322,5.637-1.052,8.41-1.768
		c2.923-0.754,5.77-1.808,8.695-2.552c2.776-0.707,5.655-0.986,8.199-2.518c0.614-0.37,1.543-0.254,2.331-0.292
		c2.471-0.12,4.955-0.079,7.411-0.33c7.411-0.756,14.241-3.431,20.895-6.605c4.422-2.11,7.96-5.297,10.8-9.257
		c0.545-0.759,1.073-1.675,1.185-2.572c0.294-2.355,0.308-4.745,0.519-7.112c0.194-2.186-0.703-3.835-2.217-5.306
		c-2.409-2.341-4.688-4.821-7.169-7.083c-1.211-1.105-2.641-2.143-4.159-2.713c-10.966-4.119-21.69-8.852-32.962-12.206
		c-7.395-2.2-14.509-5.332-21.77-7.989c-1.08-0.395-1.469-0.976-1.516-2.091c-0.266-6.229-1.25-12.373-2.831-18.382
		c-2.333-8.866-4.577-17.764-7.7-26.403c-2.077-5.747-6.224-9.849-11.074-13.174c-2.801-1.92-6.084-3.147-9.174-4.635
		c-3.62-1.742-7.523-1.991-11.45-2.034c-8.872-0.099-17.744-0.202-26.616-0.25c-1.052-0.006-1.758-0.351-2.489-1.08
		c-1.752-1.746-3.474-3.575-5.464-5.019c-2.471-1.793-4.787-3.696-6.748-6.036c-2.397-2.86-5.689-4.618-8.532-6.928
		c-2.596-2.109-5.512-3.491-8.622-4.548c-4.775-1.624-9.723-1.637-14.693-1.616c-3.102,0.014-6.136,0.401-8.776,1.951
		c-7.431,4.361-14.78,8.862-22.097,13.413c-3.902,2.427-6.922,5.902-10.096,9.161c-1.008,1.035-1.965,1.323-3.361,1.083
		c-4.402-0.757-8.819-1.433-13.243-2.054c-3.632-0.51-7.338-0.627-10.91-1.394c-6.686-1.433-13.363-1.995-20.203-1.548
		c-7.325,0.478-14.679,0.513-22.019,0.758c-0.792,0.026-1.605,0.075-2.368,0.27c-4.252,1.087-8.531,2.096-12.722,3.389
		c-2.646,0.816-5.271,1.866-7.7,3.188c-5.264,2.867-9.452,7.076-13.222,11.653c-1.182,1.435-2.287,3.279-2.542,5.063
		c-0.628,4.397-1.465,8.774-1.333,13.295c0.104,3.59,0.597,6.968,2.136,10.201c3.225,6.776,7.854,12.171,14.854,15.285
		c0.708,0.315,1.416,0.771,1.942,1.331c5.08,5.41,11.19,9.559,17.326,13.553c8.309,5.409,17.325,9.571,26.466,13.416
		c0.462,0.194,0.891,0.465,1.87,0.983c-1.153,0.939-2.153,1.534-2.856,2.375c-1.182,1.415-2.555,1.859-4.376,1.818
		c-5.106-0.116-10.141,0.018-15.185,1.45c-7.625,2.167-14.069,5.884-19.162,11.984c-1.326,1.589-2.235,3.31-2.564,5.309
		c-0.271,1.646-0.439,3.318-0.504,4.984c-0.084,2.152-0.021,4.311-0.021,6.538c-0.845,0.437-1.594,0.896-2.397,1.228
		c-6.147,2.538-10.929,6.823-15.14,11.827c-0.97,1.153-1.944,2.345-2.663,3.658c-1.566,2.861-2.006,6.021-2.041,9.247
		c-0.041,3.734,0.136,7.444-0.906,11.147c-1.139,4.044-0.548,8.272-0.428,12.413c0.052,1.785,0.535,3.635,1.862,5.082
		c3.269,3.567,6.809,6.756,11.449,8.468c0.207,0.076,0.362,0.292,0.553,0.453c0.153,2.838,0.305,5.659,0.45,8.342
		c-1.729-0.643-3.322-1.235-5.142-1.912c0-0.525-0.084-1.243,0.016-1.934c0.271-1.861-0.531-3.159-1.849-4.396
		c-1.146-1.076-1.979-2.479-3.066-3.629c-1.256-1.328-2.464-2.832-3.999-3.741c-4.4-2.606-9.019-2.816-13.627-0.403
		c-1.462,0.766-2.723,1.918-4.479,2.106c-0.415,0.044-0.807,0.483-1.17,0.787c-2.331,1.948-4.104,4.208-4.24,7.427
		c-0.043,1.029-0.202,2.06-0.401,3.072c-0.117,0.592-0.255,1.343-0.666,1.686c-1.32,1.101-1.979,2.431-1.81,4.283
		c-0.73,0.114-1.337,0.247-1.951,0.298c-4.378,0.366-7.186,3.145-9.727,6.325c-0.241,0.302-0.494,0.722-0.482,1.078
		c0.117,3.618-1.232,7.621,2.588,10.315c0.059,0.042,0.007,0.24,0.007,0.557c-0.726-0.337-1.371-0.599-1.981-0.926
		c-6.406-3.427-12.84-6.803-19.2-10.311c-12.516-6.904-24.82-14.168-36.754-22.045c-7.664-5.059-15.326-10.121-22.985-15.186
		c-6.865-4.541-13.711-9.111-20.601-13.614c-1.201-0.785-1.753-1.676-1.651-3.13c0.116-1.672-0.019-3.359,0.036-5.038
		c0.114-3.5-0.631-6.809-2.095-9.971c-1.543-3.332-3.055-6.677-4.656-9.981c-0.735-1.517-0.92-2.805-0.061-4.459
		c1.132-2.177,1.88-4.577,2.606-6.938c2.628-8.542,3.649-17.287,3.434-26.227c-0.175-7.275-0.809-14.487-2.139-21.631
		c-0.237-1.275-0.821-2.6-1.601-3.633c-1.05-1.39-2.422-2.544-3.699-3.755c-1.317-1.248-2.8-2.025-4.739-1.832
		c-1.505,0.15-3.045,0.13-4.555,0.011c-3.792-0.3-7.093,0.937-10.083,3.114c-1.662,1.211-3.208,2.58-4.849,3.911
		c-0.791-1.833-1.422-3.737-2.392-5.45c-1.686-2.981-3.721-5.769-5.355-8.776c-2.828-5.205-6.688-9.521-10.954-13.546
		c-2.73-2.576-5.843-4.407-9.483-5.352c-1.156-0.3-2.278-0.725-3.432-1.032c-2.15-0.573-4.288-1.376-6.478-1.58
		c-2.935-0.272-5.914-0.084-8.874-0.061c-1.798,0.015-3.506,0.392-4.876,1.658c-2.05,1.895-4.146,3.751-6.057,5.779
		c-0.573,0.608-0.775,1.724-0.833,2.627c-0.123,1.912,0.071,3.845-0.062,5.756c-0.244,3.5,0.925,6.606,2.437,9.634
		c0.677,1.356,1.478,2.65,2.192,3.988c0.959,1.795,1.889,3.605,3.091,5.906c-2.819-1.587-5.227-2.603-7.899-2.705
		c-3.35-0.128-6.704-0.276-10.054-0.246c-1.737,0.016-3.782-0.104-5.135,0.731c-2.178,1.346-4.457,3.067-5.112,5.776
		c-0.498,2.059-0.382,4.259-0.627,6.387c-0.412,3.575,0.997,6.55,2.932,9.379c0.464,0.678,0.881,1.389,1.311,2.07
		c-0.265,0.185-0.323,0.255-0.391,0.268c-0.235,0.042-0.475,0.103-0.709,0.089c-5.116-0.291-8.566,2.498-11.461,6.25
		c-0.41,0.532-0.706,1.275-0.754,1.942c-0.229,3.181-0.341,6.37-0.519,9.554c-0.143,2.559,0.603,4.859,1.826,7.078
		c3.925,7.115,9.236,13.035,15.74,17.822c6.121,4.506,11.862,9.448,17.54,14.474c1.939,1.716,3.519,3.711,3.823,6.444
		c0.448,4.036,1.018,8.061,1.35,12.105c0.151,1.842,0.648,3.549,1.797,4.847c3.275,3.698,6.48,7.495,10.693,10.235
		c0.562,0.366,1.1,0.948,1.371,1.555c3.279,7.353,8.892,12.573,15.385,17.011c1.317,0.9,2.634,1.814,3.866,2.826
		c2.515,2.067,5.371,3.362,8.484,4.271c5.133,1.5,10.229,3.132,15.308,4.81c1.103,0.365,2.203,1.002,3.067,1.779
		c6.411,5.763,12.75,11.605,19.133,17.4c10.115,9.183,20.899,17.539,31.885,25.639c4.753,3.504,9.631,6.822,13.895,10.97
		c5.987,5.823,12.806,10.501,20.167,14.483c4.832,2.613,9.369,5.774,14.015,8.727c2.964,1.884,5.771,4.048,8.849,5.716
		c8.71,4.721,17.255,9.703,25.631,14.995c5.539,3.499,11.27,6.625,17.634,8.508c3.361,0.995,6.366,2.89,9.268,4.826
		c0.042,2.57,1.352,4.47,2.823,6.31c-0.227,0.692-0.408,1.388-0.677,2.047c-5.646,13.813-10.782,27.82-15.308,42.034
		c-5.468,17.175-10.295,34.542-14.483,52.075c-1.63,6.826-2.819,13.754-2.513,20.837c0.024,0.557-0.153,1.305,0.138,1.637
		c1.586,1.813,2.816,4.214,5.744,4.154c2.633-0.053,5.265-0.258,7.896-0.243c5.822,0.033,11.646,0.092,17.466,0.269
		c7.734,0.235,15.464,0.564,23.143,1.629c5.772,0.801,11.53,1.643,17.007,3.759c0.626,0.241,1.215,0.578,2.05,0.98
		c-2.046,3.027-1.983,6.193-1.958,9.392c0.014,1.822,0.32,3.522,1.282,5.032c0.937,1.469,1.96,2.907,3.113,4.211
		c1.814,2.052,3.77,3.979,5.806,6.105c-3.59,0.287-6.285,2.285-8.999,4.25c-0.712,0.516-1.511,0.937-2.14,1.536
		c-2.691,2.565-5.918,3.628-9.554,4.301c-5.719,1.058-11.34,2.659-16.979,4.121c-10.905,2.828-21.979,4.814-33.054,6.823
		c-10.393,1.885-20.427,5.18-30.495,8.279c-6.25,1.924-12.311,4.458-18.532,6.488c-17.298,5.645-34.637,11.16-51.955,16.743
		c-10.45,3.368-20.447,7.745-29.782,13.563c-13.149,8.194-26.298,16.391-39.418,24.631c-2.743,1.723-5.723,2.741-8.981,3.671
		c-1.351-2.222-2.618-4.428-4.003-6.558c-2.367-3.638-4.946-7.064-9.334-8.52c-0.501-0.166-0.938-0.596-1.344-0.969
		c-2.448-2.239-5.362-3.37-8.628-3.673c-2.378-0.22-4.852-0.081-7.118-0.703c-4-1.097-8.02-1.184-12.1-1.254
		c-3.945-0.068-7.418,1.27-10.516,3.422c-4.094,2.845-7.394,6.502-10.03,10.799c-3.656,5.959-6.921,12.043-7.96,19.078
		c-0.044,0.298-0.228,0.575-0.424,1.05c-1.932,0.241-3.901,0.428-5.85,0.745c-2.85,0.462-5.705,1.079-7.922,3.069
		c-2.549,2.29-5.159,4.573-7.343,7.191c-2.018,2.42-3.951,5.105-3.403,8.652c0.058,0.376-0.01,0.811-0.143,1.174
		c-2.45,6.679-3.292,13.604-3.196,20.673c0.023,1.677-0.013,3.367,0.195,5.023c0.154,1.228,0.493,2.496,1.051,3.593
		c0.748,1.469,1.787,2.79,2.865,4.423c-0.586,0.476-1.102,0.992-1.708,1.36c-0.653,0.396-1.383,0.519-1.847-0.329
		c-0.996-1.816-1.965-3.647-2.952-5.468c-2.296-4.235-4.997-7.875-10.629-7.176C110.114,677.757,109.955,677.667,109.324,677.505z"
		/>
	<path fill-rule="evenodd" d="M109.324,677.505c0.631,0.162,0.79,0.252,0.936,0.234c5.633-0.699,8.333,2.94,10.629,7.176
		c0.987,1.82,1.957,3.651,2.952,5.468c0.464,0.848,1.194,0.726,1.847,0.329c0.606-0.368,1.122-0.885,1.708-1.36
		c-1.078-1.633-2.117-2.954-2.865-4.423c-0.558-1.097-0.897-2.365-1.051-3.593c-0.208-1.656-0.172-3.347-0.195-5.023
		c-0.096-7.068,0.746-13.994,3.196-20.673c0.133-0.363,0.201-0.798,0.143-1.174c-0.548-3.547,1.385-6.232,3.403-8.652
		c2.184-2.618,4.793-4.901,7.343-7.191c2.217-1.99,5.072-2.607,7.922-3.069c1.949-0.317,3.918-0.504,5.85-0.745
		c0.197-0.475,0.38-0.752,0.424-1.05c1.039-7.035,4.304-13.119,7.96-19.078c2.636-4.297,5.936-7.954,10.03-10.799
		c3.098-2.152,6.571-3.49,10.516-3.422c4.08,0.07,8.1,0.157,12.1,1.254c2.266,0.622,4.739,0.483,7.118,0.703
		c3.266,0.303,6.18,1.434,8.628,3.673c0.407,0.373,0.843,0.803,1.344,0.969c4.388,1.455,6.967,4.882,9.334,8.52
		c1.385,2.13,2.652,4.336,4.003,6.558c3.259-0.93,6.239-1.948,8.981-3.671c13.121-8.24,26.27-16.437,39.418-24.631
		c9.334-5.818,19.332-10.195,29.782-13.563c17.318-5.583,34.657-11.099,51.955-16.743c6.221-2.03,12.282-4.564,18.532-6.488
		c10.068-3.1,20.102-6.395,30.495-8.279c11.075-2.009,22.148-3.995,33.054-6.823c5.639-1.462,11.261-3.063,16.979-4.121
		c3.636-0.673,6.863-1.735,9.554-4.301c0.629-0.6,1.428-1.021,2.14-1.536c2.713-1.965,5.409-3.963,8.999-4.25
		c-2.037-2.127-3.992-4.054-5.806-6.105c-1.153-1.304-2.176-2.742-3.113-4.211c-0.962-1.51-1.268-3.21-1.282-5.032
		c-0.024-3.198-0.087-6.364,1.958-9.392c-0.834-0.402-1.424-0.739-2.05-0.98c-5.477-2.116-11.235-2.958-17.007-3.759
		c-7.679-1.064-15.409-1.394-23.143-1.629c-5.819-0.177-11.644-0.235-17.466-0.269c-2.631-0.015-5.263,0.19-7.896,0.243
		c-2.928,0.06-4.158-2.341-5.744-4.154c-0.291-0.332-0.114-1.08-0.138-1.637c-0.306-7.083,0.883-14.011,2.513-20.837
		c4.188-17.532,9.016-34.899,14.483-52.075c4.525-14.214,9.662-28.22,15.308-42.034c0.27-0.659,0.45-1.355,0.677-2.047
		c-1.471-1.839-2.78-3.74-2.823-6.31c-2.902-1.936-5.907-3.831-9.268-4.826c-6.364-1.883-12.095-5.009-17.634-8.508
		c-8.375-5.292-16.921-10.274-25.631-14.995c-3.078-1.668-5.884-3.833-8.849-5.716c-4.646-2.953-9.183-6.113-14.015-8.727
		c-7.362-3.982-14.181-8.66-20.167-14.483c-4.264-4.147-9.142-7.465-13.895-10.97c-10.986-8.1-21.771-16.456-31.885-25.639
		c-6.383-5.795-12.723-11.637-19.133-17.4c-0.864-0.777-1.964-1.415-3.067-1.779c-5.078-1.678-10.174-3.31-15.308-4.81
		c-3.114-0.91-5.969-2.204-8.484-4.271c-1.231-1.012-2.548-1.925-3.866-2.826c-6.493-4.438-12.105-9.658-15.385-17.011
		c-0.271-0.606-0.809-1.189-1.371-1.555c-4.212-2.74-7.417-6.538-10.693-10.235c-1.149-1.297-1.646-3.005-1.797-4.847
		c-0.332-4.045-0.901-8.07-1.35-12.105c-0.304-2.732-1.883-4.728-3.823-6.444c-5.678-5.026-11.419-9.968-17.54-14.474
		c-6.504-4.788-11.815-10.707-15.74-17.822c-1.224-2.219-1.969-4.52-1.826-7.078c0.178-3.185,0.291-6.373,0.519-9.554
		c0.048-0.667,0.344-1.411,0.754-1.942c2.895-3.752,6.345-6.541,11.461-6.25c0.234,0.013,0.475-0.047,0.709-0.089
		c0.068-0.012,0.126-0.083,0.391-0.268c-0.43-0.682-0.847-1.392-1.311-2.07c-1.935-2.829-3.344-5.804-2.932-9.379
		c0.246-2.127,0.13-4.328,0.627-6.387c0.655-2.708,2.934-4.43,5.112-5.776c1.353-0.836,3.398-0.715,5.135-0.731
		c3.35-0.031,6.704,0.118,10.054,0.246c2.672,0.102,5.08,1.118,7.899,2.705c-1.202-2.301-2.132-4.111-3.091-5.906
		c-0.714-1.338-1.515-2.632-2.192-3.988c-1.512-3.027-2.681-6.134-2.437-9.634c0.133-1.911-0.061-3.844,0.062-5.756
		c0.058-0.904,0.26-2.019,0.833-2.627c1.911-2.028,4.007-3.884,6.057-5.779c1.37-1.267,3.078-1.644,4.876-1.658
		c2.96-0.024,5.939-0.212,8.874,0.061c2.189,0.204,4.327,1.007,6.478,1.58c1.154,0.307,2.276,0.732,3.432,1.032
		c3.64,0.944,6.753,2.775,9.483,5.352c4.266,4.025,8.126,8.341,10.954,13.546c1.634,3.007,3.669,5.794,5.355,8.776
		c0.969,1.713,1.601,3.618,2.392,5.45c1.64-1.331,3.187-2.7,4.849-3.911c2.989-2.178,6.291-3.414,10.083-3.114
		c1.51,0.119,3.05,0.14,4.555-0.011c1.939-0.193,3.421,0.583,4.739,1.832c1.277,1.21,2.649,2.365,3.699,3.755
		c0.78,1.033,1.363,2.358,1.601,3.633c1.331,7.144,1.964,14.356,2.139,21.631c0.215,8.94-0.806,17.685-3.434,26.227
		c-0.726,2.361-1.474,4.761-2.606,6.938c-0.859,1.654-0.674,2.942,0.061,4.459c1.601,3.304,3.113,6.649,4.656,9.981
		c1.464,3.162,2.209,6.471,2.095,9.971c-0.055,1.678,0.08,3.366-0.036,5.038c-0.102,1.455,0.451,2.346,1.651,3.13
		c6.89,4.503,13.736,9.073,20.601,13.614c7.659,5.065,15.321,10.127,22.985,15.186c11.934,7.877,24.238,15.141,36.754,22.045
		c6.36,3.508,12.794,6.884,19.2,10.311c0.61,0.327,1.255,0.589,1.981,0.926c0-0.317,0.051-0.516-0.007-0.557
		c-3.821-2.694-2.471-6.697-2.588-10.315c-0.012-0.356,0.241-0.776,0.482-1.078c2.541-3.18,5.349-5.959,9.727-6.325
		c0.614-0.051,1.221-0.184,1.951-0.298c-0.17-1.853,0.489-3.182,1.81-4.283c0.41-0.343,0.549-1.093,0.666-1.686
		c0.199-1.012,0.358-2.043,0.401-3.072c0.136-3.219,1.909-5.479,4.24-7.427c0.364-0.304,0.756-0.743,1.17-0.787
		c1.756-0.188,3.017-1.34,4.479-2.106c4.608-2.413,9.227-2.203,13.627,0.403c1.535,0.909,2.743,2.413,3.999,3.741
		c1.087,1.149,1.92,2.553,3.066,3.629c1.317,1.237,2.119,2.534,1.849,4.396c-0.1,0.691-0.016,1.409-0.016,1.934
		c1.819,0.676,3.413,1.269,5.142,1.912c-0.145-2.683-0.296-5.504-0.45-8.342c-0.191-0.161-0.347-0.376-0.553-0.453
		c-4.64-1.712-8.18-4.901-11.449-8.468c-1.327-1.447-1.81-3.297-1.862-5.082c-0.121-4.141-0.711-8.369,0.428-12.413
		c1.042-3.703,0.866-7.413,0.906-11.147c0.035-3.226,0.475-6.385,2.041-9.247c0.719-1.313,1.692-2.505,2.663-3.658
		c4.21-5.004,8.993-9.289,15.14-11.827c0.803-0.332,1.552-0.791,2.397-1.228c0-2.227-0.063-4.385,0.021-6.538
		c0.065-1.667,0.233-3.339,0.504-4.984c0.33-1.999,1.238-3.719,2.564-5.309c5.092-6.1,11.536-9.817,19.162-11.984
		c5.044-1.433,10.079-1.566,15.185-1.45c1.821,0.042,3.194-0.403,4.376-1.818c0.703-0.842,1.703-1.436,2.856-2.375
		c-0.979-0.519-1.408-0.79-1.87-0.983c-9.142-3.845-18.158-8.007-26.466-13.416c-6.136-3.995-12.247-8.143-17.326-13.553
		c-0.526-0.561-1.234-1.016-1.942-1.331c-7-3.114-11.629-8.509-14.854-15.285c-1.539-3.233-2.031-6.611-2.136-10.201
		c-0.131-4.521,0.705-8.898,1.333-13.295c0.254-1.784,1.36-3.628,2.542-5.063c3.771-4.577,7.958-8.786,13.222-11.653
		c2.429-1.323,5.054-2.372,7.7-3.188c4.19-1.292,8.469-2.301,12.722-3.389c0.763-0.195,1.576-0.244,2.368-0.27
		c7.34-0.246,14.694-0.28,22.019-0.758c6.84-0.447,13.517,0.115,20.203,1.548c3.572,0.766,7.278,0.884,10.91,1.394
		c4.423,0.621,8.841,1.296,13.243,2.054c1.396,0.24,2.353-0.048,3.361-1.083c3.174-3.259,6.194-6.734,10.096-9.161
		c7.316-4.551,14.666-9.052,22.097-13.413c2.641-1.55,5.675-1.938,8.776-1.951c4.971-0.021,9.918-0.007,14.693,1.616
		c3.11,1.057,6.026,2.438,8.622,4.548c2.843,2.31,6.135,4.067,8.532,6.928c1.961,2.34,4.277,4.242,6.748,6.036
		c1.99,1.444,3.712,3.272,5.464,5.019c0.731,0.729,1.438,1.074,2.489,1.08c8.872,0.049,17.744,0.151,26.616,0.25
		c3.927,0.043,7.83,0.292,11.45,2.034c3.09,1.488,6.373,2.714,9.174,4.635c4.851,3.325,8.997,7.427,11.074,13.174
		c3.123,8.639,5.367,17.537,7.7,26.403c1.581,6.01,2.565,12.153,2.831,18.382c0.047,1.115,0.436,1.696,1.516,2.091
		c7.261,2.657,14.375,5.789,21.77,7.989c11.271,3.354,21.996,8.087,32.962,12.206c1.519,0.57,2.948,1.608,4.159,2.713
		c2.48,2.262,4.76,4.742,7.169,7.083c1.514,1.47,2.411,3.12,2.217,5.306c-0.211,2.368-0.225,4.757-0.519,7.112
		c-0.111,0.896-0.64,1.813-1.185,2.572c-2.84,3.96-6.378,7.147-10.8,9.257c-6.653,3.174-13.483,5.85-20.895,6.605
		c-2.456,0.25-4.94,0.21-7.411,0.33c-0.788,0.038-1.717-0.078-2.331,0.292c-2.544,1.531-5.423,1.811-8.199,2.518
		c-2.926,0.744-5.772,1.798-8.695,2.552c-2.773,0.716-5.575,1.446-8.41,1.768c-5.969,0.679-11.956,0.3-17.932-0.164
		c-3.576-0.278-7.163-0.75-10.736-0.681c-8.588,0.163-17.035-0.916-26.034-2.506c0.887,0.944,1.403,1.559,1.983,2.104
		c3.159,2.965,5.892,6.289,8.45,9.776c0.894,1.217,1.449,2.453,1.348,3.974c-0.049,0.717-0.023,1.44-0.006,2.159
		c0.077,3.041,0.266,6.102-2.271,8.783c1.336,1.208,2.647,2.173,3.667,3.384c0.787,0.935,1.656,2.153,1.718,3.288
		c0.319,5.817,0.873,11.686,0.421,17.464c-0.547,7-3.464,13.213-8.746,18.115c-1.215,1.127-2.347,2.341-3.945,3.945
		c2.814,0.193,5.068,0.387,7.326,0.495c4.305,0.206,8.582,0.473,12.814,1.469c2.063,0.485,4.278,0.436,6.424,0.424
		c1.679-0.008,2.915,0.49,4.311,1.524c1.978,1.466,3.986,2.837,5.709,4.625c0.83,0.862,1.304,1.691,1.236,2.933
		c-0.104,1.908-0.027,3.826-0.027,5.931c0.515-0.097,0.928-0.065,1.206-0.244c3.813-2.453,8.147-3.593,12.374-5.033
		c3.314-1.13,6.596-2.378,9.818-3.749c4.031-1.713,7.984-3.607,11.974-5.419c1.091-0.496,2.162-1.049,3.286-1.453
		c7.35-2.637,14.684-5.321,22.075-7.835c11.1-3.775,22.189-7.592,33.381-11.078c10.28-3.202,20.682-6.016,31.045-8.948
		c7.751-2.193,15.52-4.329,23.293-6.444c5.257-1.431,10.603-2.301,16.074-2.218c0.32,0.004,0.689,0.091,0.952-0.034
		c2.419-1.152,5.027-1.245,7.661-1.179c-0.822-2.377-1.82-4.476-2.26-6.686c-1.154-5.806-1.437-11.705-1.256-17.619
		c0.037-1.228,0.536-2.266,1.442-3.168c1.416-1.41,2.634-2.94,2.909-5.073c0.105-0.821,0.596-1.688,1.144-2.339
		c2.481-2.951,5.173-5.645,8.942-6.996c2.548-0.913,5.067-1.922,7.552-2.998c3.393-1.47,6.921-2.364,10.534-3.132
		c6.135-1.303,12.178-0.735,18.247,0.24c2.629,0.422,4.719,1.873,6.652,3.572c4.284,3.764,7.725,8.278,11.181,12.769
		c0.622,0.808,0.997,1.806,1.571,2.876c4.261-0.644,7.088,1.956,9.803,4.748c2.227,2.291,4.463,4.576,6.603,6.947
		c1.578,1.749,2.464,3.855,2.966,6.187c0.636,2.96,1.548,5.86,2.258,8.806c0.463,1.924,0.779,3.884,1.141,5.719
		c3.454,0.401,6.711,0.66,9.926,1.182c3.901,0.633,7.21,2.491,9.925,5.396c1.364,1.46,2.894,2.777,4.159,4.315
		c0.756,0.919,1.52,1.033,2.509,0.79c5.26-1.291,10.521-2.58,15.776-3.886c2.47-0.614,4.933-1.259,7.395-1.902
		c1.602-0.419,3.261-0.514,4.698-1.625c0.728-0.563,1.961-0.494,2.975-0.654c0.469-0.074,0.96-0.039,1.438-0.008
		c1.969,0.125,3.937,0.269,5.904,0.406c2.482,2.369,5.166,4.574,6.456,7.914c0.742,1.924,1.476,3.852,2.211,5.773
		c2.4-0.498,4.624-1.167,6.892-1.39c7.182-0.708,14.053-2.936,21.129-4.129c3.22-0.542,6.467-0.926,9.702-1.38
		c0.158-0.022,0.356,0.04,0.473-0.036c2.337-1.509,4.956-0.688,7.445-0.94c2.019-0.204,3.484,0.727,4.93,1.953
		c3.124,2.65,5.253,5.967,6.852,9.692c1.699,3.96,3.441,7.903,5.23,11.822c0.423,0.926,1.046,1.783,1.693,2.577
		c1.305,1.601,2.114,3.361,2.115,5.452c0.001,1.28-0.088,2.567,0.021,3.838c0.174,2.016-0.319,3.812-1.516,5.408
		c-3.011,4.018-6.313,7.632-11.555,8.759c-0.953,0.205-1.863,0.856-2.666,1.468c-2.477,1.887-4.801,4.021-8.115,4.337
		c-0.227,0.021-0.464,0.145-0.655,0.279c-4.046,2.839-8.458,1.697-12.673,0.826c-1.601-0.331-3.024-1.993-4.299-3.276
		c-1.135-1.141-2.2-1.408-3.802-1.244c-5.413,0.555-10.324,2.598-15.237,4.69c-6.922,2.947-14.075,5.158-21.416,6.783
		c-0.854,0.189-1.723,0.386-2.525,0.721c-5.688,2.373-11.593,4.03-17.559,5.531c-2.854,0.719-5.606,1.834-8.446,2.62
		c-4.608,1.276-9.254,2.414-13.877,3.638c-3.147,0.833-6.284,1.713-9.28,2.532c0,3.365-0.025,6.458,0.007,9.55
		c0.033,3.188-0.905,5.934-3.323,8.132c-1.42,1.29-2.723,2.707-4.087,4.058c-0.937,0.927-2.031,1.633-3.377,1.601
		c-5.426-0.13-10.867,0.437-16.282-0.421c-1.901-0.301-3.499-0.993-4.795-2.429c-0.803-0.889-1.642-1.759-2.548-2.541
		c-1.843-1.591-2.397-3.697-2.543-5.983c-0.051-0.797-0.009-1.6-0.009-2.399c-0.001-5.107-0.001-5.107,3.098-9.065
		c-0.148-0.164-0.271-0.42-0.461-0.49c-3.547-1.3-6.28-3.762-8.933-6.31c-3.856-3.705-7.624-7.502-11.507-11.178
		c-0.709-0.67-1.762-1.016-2.702-1.394c-3.173-1.273-6.44-2.333-9.532-3.777c-3.392-1.583-5.885-4.374-8.25-7.192
		c-1.008-1.201-1.922-1.673-3.599-1.582c-12.878,0.701-25.568,2.661-38.043,5.826c-27.991,7.103-55.134,16.694-81.471,28.528
		c-7.202,3.236-14.351,6.649-21.263,10.455c-5.865,3.23-11.358,7.137-17.006,10.76c-4.103,2.631-8.245,5.206-12.259,7.968
		c-2.223,1.529-4.52,3.134-6.238,5.165c-2.29,2.704-4.237,5.71-3.966,9.658c0.223,3.247,0.212,6.507-1.028,9.68
		c-0.898,2.296-2.203,4.23-3.89,5.948c-1.508,1.537-2.886,3.11-3.984,5.022c-0.928,1.617-2.489,2.885-3.846,4.233
		c-0.732,0.728-1.621,1.299-2.38,1.893c1.881,4.421,3.544,8.389,5.254,12.337c2.95,6.81,5.916,13.612,8.901,20.406
		c4.72,10.741,9.56,21.43,14.146,32.227c1.865,4.392,3.233,8.997,4.747,13.532c0.396,1.183,0.282,2.509,1.405,3.445
		c0.336,0.28,0.354,1.028,0.384,1.568c0.058,1.037-0.13,2.105,0.045,3.115c0.677,3.903-1.318,6.603-3.738,9.296
		c-2.273,2.53-4.852,3.958-8.302,4.072c-4.541,0.151-9.07,0.635-13.61,0.839c-10.438,0.471-20.882,0.811-31.264,2.1
		c-2.195,0.273-4.403,0.448-6.884,0.696c2.906,6.575,6.59,12.555,7.499,19.828c2.733-0.485,4.73,0.632,6.464,2.484
		c0.371,0.397,1.143,0.595,1.727,0.589c3.059-0.029,5.563,1.372,7.865,3.11c2.479,1.872,4.921,3.831,7.145,5.993
		c2.405,2.339,5.387,3.381,8.416,4.365c3.715,1.207,7.48,2.26,11.225,3.378c5.351,1.599,10.712,3.159,16.05,4.801
		c10.676,3.283,21.262,6.892,32.026,9.852c15.168,4.171,29.361,10.712,43.688,16.983c5.923,2.592,11.985,4.864,17.963,7.336
		c14.775,6.111,29.084,13.161,42.916,21.196c11.872,6.897,23.776,13.745,35.8,20.372c6.855,3.778,13.762,7.444,20.356,11.675
		c0.884,0.566,2.088,0.726,3.172,0.875c6.478,0.896,12.98,1.623,19.44,2.632c3.541,0.554,7.002,1.601,10.52,2.328
		c2.956,0.61,5.923,1.283,8.92,1.572c8.025,0.775,15.007,4.051,21.66,8.372c7.845,5.096,14.56,11.431,20.772,18.347
		c2.337,2.601,3.791,5.698,4.798,9.017c0.161,0.528,0.327,1.1,0.289,1.637c-0.325,4.676,0.545,9.202,1.44,13.761
		c1.017,5.175,1.218,10.448,1.146,15.725c-0.03,2.232-0.005,4.466-0.005,6.68c0.891,0.278,1.628,0.528,2.378,0.735
		c0.975,0.271,2.111,0.941,2.906,0.663c1.376-0.483,2.824-1.331,3.74-2.439c2.233-2.703,4.2-5.629,6.236-8.493
		c2.582-3.631,3.672-7.738,3.783-12.149c0.072-2.867,0.443-5.767-0.893-8.478c-0.772-1.568-1.517-3.159-2.42-4.652
		c-1.902-3.141-4.042-6.168-4.85-9.827c-0.393-1.777-0.682-3.603-0.767-5.417c-0.127-2.714,0.063-5.442-0.054-8.158
		c-0.219-5.13,1.219-9.82,3.814-14.133c4.791-7.961,10.351-15.361,16.887-21.986c3.247-3.291,6.317-6.796,10.414-9.142
		c0.589-0.337,0.985-1.023,1.446-1.568c2.988-3.532,5.973-7.068,8.953-10.607c1.319-1.566,2.904-2.424,5.037-2.135
		c0.942,0.128,1.934,0.139,2.874,0.002c4.68-0.68,8.168,1.651,11.383,4.529c4.214,3.771,7.776,8.043,9.589,13.536
		c0.123,0.372,0.244,0.831,0.521,1.051c2.136,1.688,2.371,4.235,3.093,6.578c1.549,5.02,3.073,10.049,4.748,15.027
		c0.877,2.604,1.498,5.196,1.433,7.964c-0.107,4.555-0.096,9.112-0.184,13.668c-0.135,6.946-0.346,13.892-0.458,20.839
		c-0.067,4.152,0.01,8.308-0.01,12.462c-0.026,5.544-1.105,10.933-2.499,16.268c-1.49,5.705-3.125,11.376-4.478,17.113
		c-1.667,7.07-4.712,13.493-8.18,19.835c-3.46,6.33-7.957,11.75-12.945,16.839c-3.914,3.993-7.9,7.915-11.848,11.875
		c-0.499,0.5-0.958,1.04-1.413,1.537c0.973,1.421,1.947,2.681,2.727,4.052c0.413,0.725,0.63,1.634,0.681,2.477
		c0.104,1.673-0.078,3.366,0.061,5.035c0.156,1.875-0.559,3.4-1.416,4.968c-2.531,4.633-6.197,8.297-9.964,11.883
		c-3.182,3.028-6.587,5.859-9.489,9.136c-2.587,2.921-5.79,3.817-9.339,4.124c-6.358,0.549-12.202-0.828-17.364-4.779
		c-0.678-0.519-1.785-0.635-2.7-0.654c-3.438-0.073-6.879-0.012-10.319-0.039c-1.424-0.012-2.848-0.121-4.557-0.2
		c0,1.832-0.185,3.596,0.042,5.306c0.366,2.754-0.621,4.739-2.73,6.419c-1.188,0.946-2.174,2.143-4.192,1.979
		c0,1.616-0.044,3.106,0.014,4.593c0.044,1.12-0.341,1.967-1.112,2.779c-3.155,3.321-3.137,3.377-7.802,3.322
		c-1.885-0.021-3.769-0.242-5.903-0.39c0.175-0.205-0.008-0.086,0.004,0.009c0.358,2.848-1.005,4.828-3.041,6.637
		c-1.216,1.081-2.456,1.721-4.055,1.714c-1.12-0.005-2.25-0.095-3.357,0.021c-2.407,0.25-4.399-0.486-6.054-2.373
		c-3.039,1.331-6.238,0.815-9.387,0.904c-0.238,0.007-0.563,0.061-0.704-0.066c-1.419-1.278-2.907-2.502-4.161-3.932
		c-0.569-0.648-0.852-1.707-0.92-2.605c-0.138-1.814-0.041-3.647-0.041-5.715c-1.231-0.058-2.245-0.21-3.241-0.133
		c-3.026,0.236-5.983-0.318-8.637-1.564c-1.709-0.804-3.115-2.439-4.367-3.943c-0.563-0.676-0.442-1.938-0.581-2.941
		c-0.065-0.471,0.038-0.964-0.02-1.438c-0.385-3.124,0.216-5.851,3.019-7.729c0.837-0.562,0.903-1.374,0.855-2.316
		c-0.085-1.676,0.018-3.36-0.041-5.039c-0.035-1.031,0.343-1.808,0.968-2.602c2.072-2.63,4.637-4.067,8.072-3.655
		c0.473,0.058,0.96-0.013,1.438,0.011c1.125,0.055,1.937-0.099,2.294-1.483c0.524-2.03,2.292-3.236,3.737-4.587
		c1.346-1.258,2.272-2.659,2.409-4.5c0.284-3.804,2.931-6.074,5.461-8.394c0.401-0.367,1.15-0.459,1.748-0.487
		c1.415-0.068,2.837-0.021,4.719-0.021c-1.188-1.387-2.087-2.435-3.164-3.69c-1.264,0.884-2.462,1.63-3.551,2.51
		c-1.055,0.852-2.174,1.236-3.531,1.195c-2.237-0.066-4.479-0.044-6.719-0.011c-2.377,0.035-4.365-0.791-5.992-2.521
		c-1.037-1.104-2.094-2.189-3.174-3.315c-3.917,1.658-7.811,2.757-11.864,3.188c-2.14,0.229-4.289,0.432-6.438,0.498
		c-8.154,0.253-16.283-0.195-24.367-1.258c-1.277-0.168-2.674-0.685-3.676-1.472c-3.852-3.025-7.118-6.65-9.911-10.671
		c-0.564-0.813-1.022-1.909-1.015-2.871c0.027-3.56-0.907-6.943-1.581-10.381c-1.124-5.731-1.936-11.493-1.435-17.518
		c-1.533-1.037-3.044-2.047-4.543-3.072c-8.109-5.547-16.149-11.196-24.34-16.619c-8.687-5.75-18.047-10.139-27.859-13.696
		c-8.091-2.933-15.994-6.396-23.923-9.762c-10.359-4.397-20.698-8.845-30.976-13.428c-8.456-3.771-16.789-7.819-25.218-11.654
		c-5.52-2.512-11.089-4.919-16.687-7.253c-1.677-0.698-3.501-1.121-5.298-1.44c-4.028-0.716-7.537-2.53-10.886-4.763
		c-1.803-1.202-3.656-2.146-5.963-2.131c-1.817,0.011-3.43-0.638-4.856-2.052c-1.866-1.849-3.26-3.924-4.248-6.298
		c-0.523-1.254-1.296-1.851-2.688-1.924c-3.103-0.165-6.194-0.504-9.295-0.709c-6.765-0.446-13.531-0.846-20.296-1.279
		c-4.218-0.271-8.43-0.652-12.65-0.832c-5.742-0.244-11.493-0.306-17.237-0.513c-7.895-0.286-15.788-0.607-23.68-0.966
		c-6.056-0.274-12.11-0.586-18.16-0.961c-8.276-0.513-16.546-1.121-24.823-1.625c-0.733-0.045-1.613,0.193-2.226,0.6
		c-7.735,5.13-16.481,7.953-25.062,11.181c-2.67,1.005-5.141,2.53-7.778,3.638c-4.487,1.884-8.969,3.93-13.819,4.607
		c-6.075,0.849-12.198,1.353-18.302,1.979c-8.958,0.921-17.921,1.614-26.764,3.592c-9.023,2.018-18.206,3.309-27.278,5.122
		c-5.626,1.125-11.202,2.536-16.756,3.986c-7.642,1.997-15.281,4.027-22.85,6.281c-5.959,1.774-11.818,3.887-17.708,5.888
		c-8.992,3.055-17.97,6.146-26.958,9.213c-3.788,1.292-7.464,2.803-10.745,5.156c-1.049,0.752-1.799,1.672-2.536,2.761
		c-2.641,3.906-6.079,6.964-10.557,8.688c-6.494,2.498-13.065,4.529-20.054,5.382c-7.187,0.877-14.283,2.497-21.455,3.798
		c-0.233,1.011-0.516,1.764-0.566,2.531c-0.378,5.739-2.862,10.652-6.398,14.945c-3.606,4.377-7.783,8.232-12.619,11.315
		c-2.333,1.487-4.876,2.311-7.521,2.979c-4.018,1.018-8.007,2.144-12.017,3.195c-1.077,0.282-2.189,0.688-3.271,0.649
		c-3.973-0.145-7.485,1.419-11.053,2.773c-2.01,0.764-3.913,1.822-5.945,2.508c-1.411,0.476-2.956,0.719-4.449,0.755
		c-2.855,0.068-5.717-0.084-8.905-0.152c-0.604,2.195-1.435,4.515-1.849,6.906c-0.5,2.889-1.025,5.664-3.497,7.608
		c-0.144,0.113-0.177,0.366-0.45,0.974c3.045-2.157,6.146-1.188,9.114-1.321c0.632-0.029,1.403,0.373,1.913,0.808
		c1.091,0.931,2.116,1.961,3.043,3.056c0.429,0.507,0.799,1.262,0.797,1.902c-0.011,2.708-0.042,5.431-0.331,8.119
		c-0.148,1.38-0.851,2.701-1.295,4.023c0.134,0.15,0.234,0.359,0.331,0.358c3.839-0.042,6.377,2.243,8.564,4.967
		c0.641,0.799,0.947,2.01,1.049,3.066c0.168,1.743,0.014,3.516,0.06,5.274c0.024,0.939-0.157,1.722-0.944,2.319
		c-0.378,0.287-0.713,0.647-1.015,1.018c-1.901,2.333-4.1,4.008-7.358,3.485c-0.189-0.03-0.417,0.175-0.419,0.176
		c0.151,4.257,0.224,8.386,0.465,12.505c0.224,3.828-2.588,5.571-5.003,7.577c-0.419,0.348-1.223,0.294-1.853,0.314
		c-1.359,0.043-2.722-0.036-4.079,0.028c-1.555,0.074-3.033-0.011-4.329-1.475c-1.034,1.021-2,1.942-2.926,2.9
		c-1.109,1.146-2.365,1.798-4.033,1.671c-1.432-0.109-2.884-0.099-4.317-0.002c-1.574,0.105-2.806-0.423-3.8-1.606
		c-0.154-0.183-0.322-0.359-0.509-0.508c-1.986-1.57-3.326-3.425-2.801-6.146c0.04-0.205-0.114-0.447-0.225-0.838
		c-0.606,0.034-1.301-0.109-1.815,0.131c-3.38,1.582-6.928,0.781-10.363,0.604c-2.624-0.134-5.623-4.229-5.643-6.871
		c-0.006-0.8-0.001-1.6-0.001-2.399c0-3.691,0-3.691,1.39-6.746c-0.805-0.784-1.648-1.605-2.538-2.473
		c-1.898,1.426-3.748,2.798-5.58,4.194c-3.128,2.385-6.483,4.402-10.125,5.867c-1.368,0.551-2.914,0.791-4.397,0.893
		c-2.146,0.146-4.309,0.069-6.463,0.022c-0.868-0.02-1.729-0.238-2.598-0.318c-1.102-0.102-2.208-0.211-3.313-0.217
		c-2.398-0.013-4.856,0.385-7.179-0.022c-3.262-0.571-6.523-1.471-9.59-2.712c-2.096-0.848-3.853-2.528-5.772-3.818
		c-3.443-2.313-6.93-4.563-10.334-6.932c-3.767-2.623-6.792-6.043-9.823-9.446c-0.841-0.944-1.252-1.985-1.134-3.272
		c0.087-0.952,0.086-1.924,0.004-2.877c-0.235-2.739,0.37-5.274,2.01-7.453c0.861-1.145,1.001-2.342,0.842-3.606
		c-0.079-0.625-0.414-1.392-0.891-1.763c-2.448-1.907-4.991-3.692-7.479-5.549c-1.086-0.811-2.253-1.568-3.154-2.559
		c-2.824-3.104-6.155-5.588-9.578-7.934c-4.668-3.2-8.446-7.292-12.099-11.532c-0.99-1.148-1.933-2.338-2.93-3.479
		c-1.976-2.266-3.349-4.828-4.127-7.744c-1.364-5.104-3.304-9.991-5.677-14.714c-1.261-2.51-1.987-5.18-2.418-7.975
		c-0.362-2.345-1.171-4.618-1.675-6.946c-0.453-2.091-0.764-4.212-1.13-6.321c-0.217-1.251-0.395-2.509-0.63-3.756
		c-0.279-1.477-0.743-2.933-0.878-4.42c-0.367-4.045-0.751-8.099-0.86-12.156c-0.211-7.85,0.75-15.596,2.445-23.26
		c0.377-1.708,0.56-3.459,0.878-5.182c0.29-1.565,0.513-3.16,0.995-4.668c0.833-2.604,1.505-5.196,1.26-7.967
		c-0.158-1.789,0.495-3.259,1.898-4.429c0.795-0.664,1.526-1.419,2.208-2.201c1.712-1.966,3.754-3.172,6.444-3.163
		c0.517,0.001,1.027-0.38,1.555-0.53c3.063-0.871,6.129-1.729,9.198-2.58c0.459-0.128,0.946-0.158,1.401-0.295
		c6.687-2.007,13.466-1.384,20.178-0.406c3.464,0.505,6.675,2.081,9.458,4.361c4.265,3.496,8.716,6.858,12.02,11.294
		c4.08,5.478,7.429,11.396,7.132,18.6c-0.187,4.537-0.518,9.066-0.769,13.601c-0.244,4.408,0.197,8.765,1.025,13.091
		C108.233,671.787,108.783,674.673,109.324,677.505z M438.485,254.858c-1.678,1.836-3.197,3.498-4.708,5.151
		c2.694,2.736,13.7,8.793,16.361,8.993C445.9,264.502,440.96,260.705,438.485,254.858z M413.14,276.855
		c7.071,4.139,14.481,7.161,21.937,10.092c-0.089-0.329-0.235-0.536-0.434-0.64c-5.308-2.771-10.374-5.908-14.929-9.824
		c-0.284-0.244-0.707-0.537-1.024-0.496C416.833,276.225,414.988,276.556,413.14,276.855z"/>
	<path fill-rule="evenodd" fill="#FFFFFF" d="M438.485,254.858c2.475,5.847,7.415,9.644,11.654,14.145
		c-2.661-0.2-13.667-6.257-16.361-8.993C435.288,258.356,436.807,256.694,438.485,254.858z"/>
	<path fill-rule="evenodd" fill="#FFFFFF" d="M413.14,276.855c1.849-0.299,3.693-0.63,5.549-0.868
		c0.318-0.041,0.74,0.252,1.024,0.496c4.556,3.916,9.621,7.052,14.929,9.824c0.199,0.104,0.345,0.311,0.434,0.64
		C427.621,284.016,420.211,280.994,413.14,276.855z"/>
</g>
</svg>
