<?xml version="1.0" encoding="utf-8"?>
<!-- Generator: Adobe Illustrator 16.0.2, SVG Export Plug-In . SVG Version: 6.00 Build 0)  -->
<!DOCTYPE svg PUBLIC "-//W3C//DTD SVG 1.1//EN" "http://www.w3.org/Graphics/SVG/1.1/DTD/svg11.dtd">
<svg version="1.1" id="Layer_1" xmlns="http://www.w3.org/2000/svg" xmlns:xlink="http://www.w3.org/1999/xlink" x="0px" y="0px"
	 width="3701.537px" height="3953.506px" viewBox="0 0 3701.537 3953.506" enable-background="new 0 0 3701.537 3953.506"
	 xml:space="preserve">
<g>
	<path fill-rule="evenodd" clip-rule="evenodd" fill="#FFFFFF" d="M3705.424,3957.392c-1234.55,0-2468.987,0-3703.312,0
		c0-1318.539,0-2636.965,0-3955.279c1234.55,0,2468.987,0,3703.312,0C3705.424,1320.652,3705.424,2639.078,3705.424,3957.392z
		 M1935.135,3876.871c5.663,2.803,11.56,5.818,17.537,8.661c12.829,6.103,26.576,4.989,40.215,5.299
		c7.824,0.178,14.231-1.782,19.928-7.215c16.369-15.61,32.861-31.095,49.449-46.472c12.454-11.546,20.243-25.285,22.023-42.423
		c0.338-3.251,2.407-6.88,4.759-9.267c10.278-10.426,21.354-20.083,31.388-30.729c12.569-13.334,24.051-27.528,29.578-45.599
		c4.813-15.736,13.46-29.532,22.388-43.224c5.555-8.52,12.19-15.67,20.515-21.446c19.451-13.498,38.115-27.998,53.764-45.899
		c9.395-10.748,18.738-21.64,27.013-33.246c18.821-26.4,28.515-56.957,37.397-87.636c3.019-10.422,4.271-21.576,4.737-32.464
		c0.713-16.626,0.208-33.315-0.166-49.969c-0.082-3.675,0.316-6.693,3.321-8.762c8.49-5.843,10.136-14.129,9.127-23.659
		c-0.418-3.954-0.301-8.008-0.022-11.986c0.627-8.939-1.51-17.182-5.813-24.915c-5.976-10.735-12.089-21.392-18.03-32.145
		c-2.229-4.033-4.825-8.046-6.07-12.405c-4.457-15.599-11.988-29.889-22.167-41.988c-35.942-42.724-72.838-84.647-109.303-126.934
		c-40.805-47.32-81.433-94.792-122.324-142.036c-41.125-47.516-82.004-95.108-116.995-147.59
		c-36.359-54.534-74.504-107.877-111.777-161.802c-3.46-5.007-6.269-10.465-8.979-15.034c6.168-3.922,11.783-6.432,16.032-10.402
		c11.196-10.459,21.883-21.471,32.603-32.427c5.831-5.96,8.852-13.054,8.256-21.696c-0.458-6.634-0.54-13.361,0.012-19.98
		c0.874-10.493-2.662-18.688-10.51-25.616c-5.623-4.964-10.57-10.691-16.166-16.436c74.966-30.791,146.02-66.233,210.765-113.089
		c5.506,13.647,10.097,26.837,16.033,39.392c16.546,34.987,34.414,69.127,64.208,95.324c10.638,9.354,22.446,15.518,36.505,16.544
		c8.951,0.653,17.987,0.176,26.985,0.105c8.226-0.063,15.708-2.305,22.189-7.622c8.966-7.358,18.035-14.592,27.834-22.503
		c21.807,16.457,43.604,33.328,65.877,49.546c11.785,8.582,23.564,17.974,36.787,23.627c40.406,17.276,76.573,41.416,112.815,65.663
		c25.439,17.018,50.314,35.243,77.198,49.65c37.154,19.91,75.611,37.522,114.165,54.647c35.227,15.647,71.47,28.992,106.972,44.045
		c16.474,6.983,32.922,14.503,48.183,23.757c21.873,13.265,42.626,28.373,63.902,42.629c22.781,15.266,43.127,33.212,61.022,54.039
		c6.712,7.813,10.773,16.686,13.47,26.366c5.133,18.431,13.251,35.468,23.65,51.472c12.896,19.842,24.191,40.517,32.834,62.599
		c7.757,19.82,15.504,39.646,23.559,59.345c5.056,12.367,12.101,23.584,20.218,34.269c16.809,22.123,36.825,41.101,57.091,59.879
		c17.573,16.283,37.036,28.984,60.859,34.504c20.143,4.666,40.341,3.522,60.569,2.169c5.853-0.392,12.237-1.458,17.251-4.244
		c20.219-11.229,36.319-26.758,46.073-48.154c4.95-10.858,9.607-21.854,14.736-32.626c4.657-9.784,7.532-19.759,6.739-30.77
		c-0.516-7.163-0.098-14.392-0.098-22.599c4.032,1.604,6.747,2.706,9.478,3.765c14.318,5.543,28.81,10.322,44.393,10.622
		c14.633,0.28,29.262,0.893,43.895,0.955c20.959,0.092,40.494-3.624,53.781-22.25c0.19-0.268,0.455-0.488,0.703-0.71
		c7.766-6.951,11.68-15.987,13.987-25.884c3.652-15.662,4.159-31.565,3.758-47.559c-0.388-15.398-3.857-29.45-15.238-40.856
		c-4.862-4.872-8.75-10.717-12.776-15.74c7.123-7.011,13.591-13.688,20.401-19.995c7.955-7.368,11.479-16.869,14.165-26.957
		c2.21-8.303,4.9-16.477,7.118-24.776c2.903-10.854,6.843-21.646,7.978-32.706c1.388-13.521,0.486-27.296,0.281-40.957
		c-0.163-10.896-2.898-21.052-10.471-29.344c-8.523-9.332-17.487-18.282-25.646-27.919c-10.553-12.466-23.798-18.59-39.898-19.42
		c-29.972-1.548-59.835-2.087-89.404,4.734c-15.826,3.65-31.632,4.862-45.679-6.141c-1.534-1.202-3.553-1.799-5.371-2.622
		c-17.29-7.826-17.387-7.809-20.24-26.458c-0.648-4.242-0.326-8.627-0.559-12.941c-0.195-3.646-0.029-7.415-0.909-10.905
		c-6.079-24.107-16.453-46.234-30.862-66.532c-13.782-19.413-30.941-35.695-47.864-52.18c-8.96-8.727-19.396-15.247-32.126-16.977
		c-6.572-0.894-13.215-1.845-19.821-1.809c-24.569,0.131-49.136,0.608-73.701,1.085c-4.976,0.096-10.1,0.106-14.877,1.282
		c-12.457,3.064-23.899-0.485-34.342-6.065c-14.045-7.505-27.79-15.845-40.67-25.196c-27.168-19.728-53.844-40.145-80.442-60.641
		c-44.269-34.11-88.335-68.481-132.439-102.804c-6.553-5.099-13.434-9.963-19.151-15.907c-19.362-20.134-37.932-41.035-57.46-61.002
		c-16.053-16.414-32.805-32.171-49.67-47.763c-23.915-22.11-48.338-43.674-72.3-65.736c-9.716-8.945-18.789-18.588-28.018-27.779
		c7.735-9.649,15.184-18.176,21.747-27.335c6.995-9.761,13.726-20.251,14.448-32.466c0.902-15.246,0.442-30.631-0.459-45.895
		c-0.313-5.297-2.88-10.949-5.871-15.48c-4.165-6.307-9.481-11.915-14.728-17.421c-2.955-3.1-4.682-6.135-4.446-10.528
		c0.303-5.648,0.027-11.328,0.073-16.993c0.128-15.862-2.834-30.386-17.091-40.127c-0.81-0.555-1.454-1.369-2.129-2.105
		c-5.83-6.367-13.17-9.636-21.467-11.853c-16.409-4.385-33.084-2.609-49.666-3.384c-26.147-1.223-49.946,5.865-72.247,18.944
		c-8.782,5.15-17.502,10.411-26.912,16.016c-24.941-46.374-64.697-78.042-103.311-111.56c5.771-8.09,11.292-15.906,16.896-23.664
		c11.623-16.094,21.063-33.191,23.264-53.323c1.622-14.846,3.752-29.748,3.791-44.631c0.078-30.556,1.051-61.082-2.662-91.677
		c-2.792-23.006-9.571-44.164-20.577-64.024c-15.636-28.215-31.735-56.201-48.568-83.714c-9.171-14.988-20.095-28.926-30.549-43.101
		c-7.879-10.685-16.277-20.986-24.421-31.476c-1.613-2.08-3.121-4.244-5.142-7.001c15.552-6.67,26.011-18.926,37.128-30.312
		c17.518-17.942,30.773-38.773,36.413-63.258c5.313-23.063,6.189-46.696,3.55-70.388c-0.759-6.809-0.116-13.774-0.116-21.043
		c13.814-1.225,27.35-2.423,40.883-3.624c9.254-0.821,18.97-0.534,26.229-7.661c19.941-19.583,39.943-39.131,52.954-64.45
		c10.804-21.026,22.079-41.973,25.591-65.684c4.729-31.943,3.579-63.611-7.268-94.48c-7.639-21.742-16.642-42.798-30.895-61.127
		c-7.334-9.432-15.328-18.35-23.177-27.683c1.031-1.539,1.847-3.48,3.264-4.747c7.024-6.286,9.292-14.723,9.427-23.411
		c0.505-32.537,1.4-65.205-13.064-96.795c13.061-1.885,19.935-11.793,28.43-19.622c8.25-7.604,15.105-15.851,16.983-27.375
		c0.667-4.091,3.018-6.957,8.031-8.169c1.819,18.869,11.42,32.812,25.127,44.341c0.509,0.427,1.007,0.892,1.41,1.415
		c8.428,10.924,20.258,14.729,33.311,15.427c12.947,0.693,25.922,1.048,38.888,1.167c15.412,0.142,30.566-1.147,43.168-11.52
		c12.853,5.332,25.997,2.87,38.89,3.655c8.753,0.533,16.507-0.95,22.755-7.613c4.373-4.662,9.808-6.336,16.19-5.668
		c3.626,0.38,7.358,0.382,10.984,0.002c10.717-1.12,21.099-3.788,29.557-10.738c21.054-17.299,36.388-38.427,43.97-65.083
		c4.753-16.713,3.864-33.598,4.22-50.539c0.271-12.949-3.577-24.618-12.1-33.939c-12.109-13.243-25.064-25.74-38.077-38.117
		c-5.678-5.399-12.961-7.827-21.089-7.547c-8.322,0.286-16.663,0.166-24.993,0.042c-19.333-0.286-35.775,6.393-49.273,20.233
		c-7.395,7.583-14.713,15.24-21.324,22.092c-7.128-2.963-13.758-5.937-20.545-8.497c-18.218-6.872-37.291-5.593-56.248-5.934
		c-12.144-0.219-21.937,3.688-30.196,12.548c-9.862,10.58-20.119,20.791-30.203,31.157c-0.679-0.568-1.353-0.888-1.654-1.419
		c-10.731-18.922-26.733-32.977-43.181-46.578c-2.77-2.29-6.135-3.959-9.415-5.512c-22.381-10.592-46.541-15.641-70.158-22.388
		c-3.34-0.954-6.607-2.159-10.414-3.415c1.655-2.919,2.606-4.653,3.609-6.358c9.952-16.921,19.978-33.799,29.807-50.792
		c1.611-2.786,3.124-6.008,3.374-9.132c0.975-12.212,1.632-24.458,2.021-36.704c0.552-17.303-5.025-33.01-15.197-46.584
		c-22.763-30.381-46.504-59.699-78.939-81.031c-24.934-16.399-46.507-37.746-73.945-50.622c-4.756-2.232-8.822-5.924-13.225-8.916
		c-12.938-8.797-25.468-18.285-38.909-26.232c-35.788-21.161-71.88-41.813-108.021-62.371
		c-40.484-23.029-82.312-43.41-124.665-62.769c-28.117-12.852-55.782-26.697-83.931-39.478
		c-20.865-9.473-41.897-18.726-63.39-26.622c-17.431-6.403-35.572-10.962-53.554-15.759c-20.229-5.396-40.999-3.679-61.609-3.475
		c-3.936,0.039-25.225,11.605-28.734,14.543c-7.314,6.12-11.96,14.094-16.616,22.21c-19.701,34.344-39.616,68.565-59.401,102.861
		c-7.596,13.164-15.056,26.406-22.853,40.094c-2.99-2.121-5.413-3.358-7.217-5.203c-7.576-7.748-16.794-12.904-26.295-17.854
		c-16.796-8.753-33.602-17.418-51.368-24.104c-12.741-4.795-25.147-10.642-38.146-14.539c-11.693-3.505-23.926-6.511-36.037-7.034
		c-20.245-0.873-40.682-0.734-60.855,1.054c-28.56,2.533-55.925,9.213-75.129,33.479c-1.644,2.077-3.846,3.702-5.602,5.7
		c-6.275,7.143-11.594,15.413-12.054,24.72c-0.801,16.223-0.107,32.56,0.754,48.807c0.392,7.363,2.687,14.626,4.327,23.009
		c-5.937,0-10.554-0.096-15.168,0.017c-19.952,0.483-39.965,0.222-59.84,1.743c-28.385,2.173-55.168,11.41-82.086,20.231
		c-33.89,11.105-58.342,34.303-79.549,61.084c-10.826,13.672-18.288,30.039-27.006,45.337c-4.699,8.244-6.761,17.181-6.272,26.837
		c0.471,9.308,0.327,18.665,0.031,27.987c-0.24,7.57,1.811,14.325,5.004,21.103c8.277,17.567,21.821,30.803,35.121,44.356
		c14.358,14.632,31.586,24.15,51.026,30.028c3.69,1.116,7.376,2.245,13.333,4.059c-6.243,3.442-10.399,5.881-14.683,8.072
		c-20.143,10.306-40.668,20.092-58.572,34.073c-13.076,10.211-25.625,21.223-37.538,32.775
		c-20.784,20.153-41.651,40.314-61.082,61.742c-19.786,21.818-33.357,47.984-46.539,74.187c-9.236,18.36-15.6,37.221-14.252,58.376
		c0.612,9.604,1.136,18.518,8.173,25.787c0.322,0.333,0.042,1.247,0.042,1.668c-14.611,12.319-29.602,23.973-43.43,36.871
		c-17.255,16.097-34.723,32.225-49.979,50.143c-20.939,24.595-32.067,54.223-36.384,86.18c-3.837,28.407-3.799,57.029-3.411,85.628
		c0.139,10.252,2.951,19.64,10.254,27.356c6.855,7.242,13.355,14.825,20.282,21.998c5.433,5.623,12.129,9.048,19.91,10.684
		c9.113,1.915,18.21,4.082,27.112,6.799c23.314,7.119,47.051,8.161,71.095,5.762c7.183-0.718,14.356-1.545,22.602-2.438
		c0,4.062-0.068,7.333,0.012,10.597c0.451,18.374,2.69,36.485,9.019,53.842c9.04,24.791,27.284,42.318,47.626,57.656
		c4.851,3.658,12.383,4.309,18.836,5.135c6.558,0.839,13.309,0.093,19.972,0.216c6.915,0.128,13.079-1.746,18.615-5.956
		c1.762-1.339,3.865-2.789,5.952-3.043c10.84-1.327,21.727-2.284,33.512-3.46c1.718,10.629,3.476,21.513,5.242,32.438
		c-9.925,0-18.87-0.123-27.811,0.028c-14.13,0.24-28.191,2.277-40.566,9.018c-7.854,4.279-15.477,5.234-23.822,4.965
		c-2.997-0.096-6.05-0.369-8.989,0.056c-11.833,1.711-23.906,3.039-34.073,10.097c-36.023,25.011-66.765,54.437-84.944,95.678
		c-11.417,25.903-23.303,51.477-27.363,79.728c-3.302,22.972-6.958,46.005-8.177,69.13c-1.188,22.532,0.514,45.217,0.955,67.834
		c0.438,22.409,4.631,44.255,10.125,65.872c3.272,12.872,8.218,25.421,10.372,38.452c5.14,31.099,9.555,62.338,13.345,93.632
		c3.31,27.334,7.665,54.604,6.933,82.334c-0.495,18.778,0.024,18.678,12.69,32.28c2.818,3.024,5.153,6.888,6.552,10.78
		c5.725,15.926,10.47,32.216,16.542,48.001c18.213,47.34,42.157,90.674,80.11,126.025c24.707,23.015,53.806,33.004,85.384,36.254
		c21.623,2.227,43.786,1.138,65.797-0.942c16.738-1.581,30.65-7.541,43.938-16.87c24.332-17.085,43.137-39.356,60.367-63.199
		c7.891-10.919,16.048-21.646,25.373-34.191c0.65,3.521,0.926,4.666,1.067,5.826c3.813,31.298,6.479,62.786,11.678,93.851
		c7.872,47.043,14.678,94.544,36.7,138.474c-16.61,21.897-22.923,48.035-28.464,74.475c-2.313,11.036-4.87,22.02-7.159,33.061
		c-5.737,27.677-9.685,55.675-10.473,83.879c-0.724,25.912-0.335,51.944,1.354,77.808c1.619,24.798,5.451,49.455,8.471,74.155
		c2.538,20.747,12.247,37.695,27.792,51.487c2.986,2.65,5.795,5.523,8.486,8.477c9.122,10.01,20.625,14.222,33.915,14.228
		c7.333,0.003,14.685-0.345,21.993,0.074c16.088,0.924,29.186-4.78,40.009-16.556c4.906-5.338,10.329-10.202,15.017-14.792
		c16.354,18.049,32.261,35.408,47.932,52.976c8.661,9.71,18.608,16.937,31.643,19.583c4.188,0.851,8.096,3.001,12.216,4.289
		c5.043,1.577,8.025,4.756,10.742,9.432c16.039,27.609,32.159,55.188,49.059,82.275c12.66,20.289,26.454,39.874,39.907,59.663
		c5.227,7.688,9.963,16.054,16.577,22.383c13.054,12.493,21.258,28.008,30.042,43.263c18.774,32.604,37.585,65.218,60.745,94.975
		c39.005,50.117,78.305,100.006,117.623,149.876c12.341,15.654,24.979,31.084,37.769,46.375
		c22.812,27.271,46.057,54.179,68.721,81.568c23.774,28.729,47.733,57.259,74.76,83.048c1.421,1.356,2.63,2.934,4.117,4.611
		c-4.801,14.566-9.537,28.938-14.122,42.846c-11.068-2.336-21.036-4.885-31.157-6.419c-6.863-1.04-14.068,0.099-20.899-1.053
		c-17.491-2.948-35.058-3.164-52.715-3.527c-27.015-0.556-50.174,8.55-70.371,25.849c-7.318,6.267-13.97,13.308-21,19.918
		c-12.937,12.162-22.011,26.641-26.074,44c-1.735,7.418-3.456,14.928-4.136,22.489c-2.822,31.33-2.739,62.306,9.063,92.391
		c7.982,20.346,22.323,35.164,38.324,48.915c2.241,1.927,4.88,3.615,7.619,4.697c11.43,4.518,16.357,12.574,16.423,25.002
		c0.132,25.211,7.505,47.792,26.929,65.223c1.734,1.556,3.429,3.185,4.942,4.951c16.616,19.403,38.524,28.828,62.955,33.588
		c26.53,5.168,53.289,8.123,80.315,6.89c7.811-0.356,15.974-1.881,23.158-4.847
		C1917.661,3887.908,1925.896,3882.136,1935.135,3876.871z M775.764,2307.477c-1.809-1.259-4.564-3.079-7.213-5.041
		c-10.356-7.67-21.909-13.341-34.63-14.249c-17.557-1.254-35.243-0.749-52.873-0.867c-2.97-0.02-5.961,0.51-8.912,0.973
		c-11.67,1.83-20.831,7.999-29.034,16.238c-14.283,14.345-27.179,29.699-30.786,50.231c-3.706,21.087-3.062,42.357,1.055,63.438
		c5.911,30.267,21.221,54.919,44.683,74.695c7.202,6.07,15.666,8.795,24.911,8.775c11.976-0.024,23.951-0.61,35.929-0.735
		c9.603-0.101,18.188-3.457,26.554-7.668c2.349-1.183,4.604-2.555,7.162-3.985c13.057,9.927,28.401,13.181,43.949,14.973
		c10.199,1.176,20.628,0.197,30.93,0.691c11.084,0.531,20.195-3.605,28.042-10.887c8.781-8.146,17.316-16.558,25.937-24.876
		c6.11-5.894,10.714-12.818,12.867-21.041c2.079-7.938,3.565-16.032,5.574-25.263c7.113,0,14.697-0.147,22.274,0.035
		c10.909,0.263,20.165-3.254,27.772-11.17c4.848-5.043,9.533-10.331,14.903-14.767c10.694-8.835,15.335-20.362,17.312-33.676
		c3.4-22.892,3.053-45.91,0.991-68.724c-1.548-17.144-5.774-34.028-18.215-47.595c-12.819-13.978-26.236-27.086-46.215-28.859
		c-13.536-1.202-27.236-0.85-40.857-0.695c-13.512,0.152-25.76,5.328-35.639,13.891c-15.553,13.481-30.748,27.575-44.52,42.832
		C788.988,2283.821,783.119,2296.069,775.764,2307.477z M668.932,690.686c21.133-6.86,33.866-22.107,47.244-36.437
		c13.906-14.895,21.774-32.31,21.611-53.117c-0.152-19.642,0.796-39.306,0.188-58.927c-0.31-9.971-3.428-19.852-10.521-27.458
		c-11.813-12.668-24.063-24.942-38.875-34.221c-10.897-6.827-22.705-11.12-35.683-11.35c-11.326-0.201-22.657,0.015-33.986-0.062
		c-7.558-0.052-14.698,1.517-20.539,6.397c-8.397,7.015-16.704,14.181-24.563,21.786c-8.736,8.454-15.459,18.462-17.703,30.627
		c-1.979,10.732-3.423,21.6-4.403,32.471c-1.1,12.195-1.413,24.462-2.044,36.233c-4.426,4.076-7.95,2.254-11.726-0.54
		c-13.893-10.284-29.539-14.84-46.829-14.159c-7.984,0.314-16.014-0.328-23.984,0.134c-17.077,0.989-32.544,6.478-45.322,18.201
		c-5.887,5.402-11.371,11.245-16.997,16.928c-4.076,4.118-7.135,8.691-7.26,14.836c-0.297,14.613-1.642,29.268-0.903,43.821
		c0.776,15.298,6.532,29.404,17.654,40.25c11.882,11.588,24.582,22.348,37.11,33.257c6.721,5.853,14.898,9.312,23.689,9.525
		c15.924,0.388,31.907,0.384,47.791-0.635c6.054-0.388,11.087-0.109,15.79,3.601c4.627,3.651,9.923,5.185,15.765,5.286
		c12.643,0.22,25.293,0.346,37.922,0.897c6.915,0.303,13.182-1.363,19.135-4.544c14.812-7.917,26.798-19.354,38.879-30.79
		C662.337,721.372,673.215,709.89,668.932,690.686z M2368.802,1290.914c-10.409-8.672-20.939-16.302-30.073-25.342
		c-12.024-11.898-26.052-16.071-42.488-15.79c-25.855,0.441-25.712,0.242-42.897,20.069c-4.521,5.216-8.515,10.512-8.585,17.432
		c-0.144,14.236-1.688,28.862,0.943,42.639c6.333,33.137,20.032,63.964,34.35,94.346c6.8,14.431,18.215,25.736,31.165,34.378
		c7.793,5.2,15.38,10.318,21.354,17.314c8.5,9.956,19.397,13.423,31.806,13.875c2.661,0.097,5.329,0.057,7.991,0.021
		c29.103-0.383,22.569,3.826,45.74-19.395c10.134-10.154,17.33-22.117,18.64-36.527c0.607-6.684,3.552-10.944,8.018-15.172
		c11.363-10.762,21.586-22.383,30.407-35.503c20.332-30.241,23.133-63.764,20.582-98.572c-0.119-1.631-0.758-3.219-1.119-4.836
		c-2.74-12.284-10.534-21.153-19.37-29.508c-4.079-3.857-8.329-6.495-13.982-6.608c-11.636-0.234-23.277-0.31-34.905-0.756
		c-7.834-0.302-14.589,2.401-20.007,7.545c-8.678,8.238-16.879,16.99-25.078,25.715
		C2377.01,1280.798,2373.158,1285.763,2368.802,1290.914z"/>
	<path fill-rule="evenodd" clip-rule="evenodd" d="M1935.135,3876.871c-9.239,5.265-17.474,11.037-26.544,14.785
		c-7.185,2.966-15.348,4.49-23.158,4.847c-27.026,1.233-53.786-1.722-80.315-6.89c-24.431-4.76-46.339-14.185-62.955-33.588
		c-1.513-1.767-3.208-3.396-4.942-4.951c-19.424-17.431-26.797-40.012-26.929-65.223c-0.065-12.428-4.993-20.484-16.423-25.002
		c-2.739-1.082-5.378-2.771-7.619-4.697c-16.001-13.751-30.342-28.569-38.324-48.915c-11.801-30.085-11.884-61.061-9.063-92.391
		c0.681-7.562,2.401-15.071,4.136-22.489c4.063-17.359,13.137-31.838,26.074-44c7.03-6.61,13.681-13.651,21-19.918
		c20.197-17.299,43.356-26.404,70.371-25.849c17.657,0.363,35.224,0.579,52.715,3.527c6.831,1.151,14.036,0.013,20.899,1.053
		c10.121,1.534,20.089,4.083,31.157,6.419c4.585-13.908,9.321-28.279,14.122-42.846c-1.487-1.678-2.696-3.255-4.117-4.611
		c-27.027-25.789-50.986-54.318-74.76-83.048c-22.664-27.39-45.909-54.298-68.721-81.568c-12.79-15.291-25.427-30.721-37.769-46.375
		c-39.318-49.87-78.618-99.759-117.623-149.876c-23.16-29.757-41.971-62.37-60.745-94.975c-8.783-15.255-16.987-30.77-30.042-43.263
		c-6.613-6.329-11.35-14.694-16.577-22.383c-13.454-19.789-27.248-39.374-39.907-59.663c-16.9-27.087-33.021-54.666-49.059-82.275
		c-2.717-4.676-5.699-7.854-10.742-9.432c-4.121-1.288-8.028-3.438-12.216-4.289c-13.034-2.646-22.981-9.873-31.643-19.583
		c-15.671-17.567-31.579-34.927-47.932-52.976c-4.688,4.59-10.11,9.454-15.017,14.792c-10.823,11.775-23.921,17.479-40.009,16.556
		c-7.308-0.419-14.66-0.071-21.993-0.074c-13.29-0.006-24.792-4.218-33.915-14.228c-2.691-2.953-5.5-5.826-8.486-8.477
		c-15.545-13.792-25.253-30.74-27.792-51.487c-3.02-24.7-6.853-49.357-8.471-74.155c-1.688-25.863-2.077-51.896-1.354-77.808
		c0.788-28.204,4.736-56.202,10.473-83.879c2.289-11.041,4.846-22.024,7.159-33.061c5.542-26.439,11.854-52.577,28.464-74.475
		c-22.022-43.93-28.828-91.431-36.7-138.474c-5.199-31.064-7.865-62.553-11.678-93.851c-0.142-1.16-0.417-2.305-1.067-5.826
		c-9.325,12.546-17.482,23.272-25.373,34.191c-17.23,23.843-36.035,46.114-60.367,63.199c-13.288,9.329-27.2,15.289-43.938,16.87
		c-22.012,2.08-44.174,3.169-65.797,0.942c-31.578-3.25-60.677-13.239-85.384-36.254c-37.953-35.352-61.897-78.686-80.11-126.025
		c-6.072-15.785-10.818-32.075-16.542-48.001c-1.399-3.893-3.734-7.756-6.552-10.78c-12.666-13.602-13.186-13.502-12.69-32.28
		c0.732-27.73-3.623-55-6.933-82.334c-3.79-31.294-8.205-62.533-13.345-93.632c-2.154-13.031-7.1-25.58-10.372-38.452
		c-5.494-21.616-9.688-43.463-10.125-65.872c-0.441-22.617-2.143-45.302-0.955-67.834c1.219-23.125,4.875-46.159,8.177-69.13
		c4.06-28.251,15.945-53.825,27.363-79.728c18.179-41.241,48.921-70.667,84.944-95.678c10.167-7.059,22.24-8.386,34.073-10.097
		c2.939-0.425,5.992-0.151,8.989-0.056c8.346,0.269,15.969-0.687,23.822-4.965c12.375-6.741,26.436-8.778,40.566-9.018
		c8.941-0.151,17.886-0.028,27.811-0.028c-1.766-10.925-3.524-21.808-5.242-32.438c-11.786,1.177-22.672,2.133-33.512,3.46
		c-2.087,0.255-4.19,1.705-5.952,3.043c-5.536,4.209-11.7,6.083-18.615,5.956c-6.663-0.123-13.415,0.624-19.972-0.216
		c-6.453-0.826-13.985-1.478-18.836-5.135c-20.342-15.338-38.586-32.865-47.626-57.656c-6.328-17.357-8.567-35.468-9.019-53.842
		c-0.08-3.265-0.012-6.535-0.012-10.597c-8.246,0.893-15.419,1.72-22.602,2.438c-24.044,2.399-47.78,1.357-71.095-5.762
		c-8.902-2.717-17.999-4.884-27.112-6.799c-7.78-1.636-14.477-5.061-19.91-10.684c-6.927-7.172-13.427-14.755-20.282-21.998
		c-7.303-7.716-10.115-17.104-10.254-27.356c-0.389-28.599-0.427-57.221,3.411-85.628c4.317-31.957,15.445-61.585,36.384-86.18
		c15.256-17.918,32.724-34.046,49.979-50.143c13.829-12.898,28.819-24.552,43.43-36.871c0-0.421,0.28-1.335-0.042-1.668
		c-7.037-7.27-7.561-16.184-8.173-25.787c-1.347-21.155,5.016-40.016,14.252-58.376c13.182-26.202,26.753-52.369,46.539-74.187
		c19.431-21.428,40.298-41.589,61.082-61.742c11.914-11.552,24.462-22.563,37.538-32.775c17.903-13.981,38.429-23.767,58.572-34.073
		c4.284-2.191,8.44-4.63,14.683-8.072c-5.958-1.813-9.644-2.942-13.333-4.059c-19.44-5.878-36.667-15.396-51.026-30.028
		c-13.3-13.554-26.843-26.79-35.121-44.356c-3.194-6.778-5.245-13.533-5.004-21.103c0.296-9.322,0.439-18.679-0.031-27.987
		c-0.489-9.657,1.573-18.593,6.272-26.837c8.718-15.298,16.181-31.665,27.006-45.337c21.207-26.782,45.659-49.979,79.549-61.084
		c26.917-8.821,53.701-18.058,82.086-20.231c19.875-1.521,39.889-1.26,59.84-1.743c4.614-0.112,9.231-0.017,15.168-0.017
		c-1.64-8.383-3.935-15.646-4.327-23.009c-0.862-16.247-1.555-32.584-0.754-48.807c0.459-9.307,5.778-17.577,12.054-24.72
		c1.756-1.999,3.958-3.623,5.602-5.7c19.205-24.266,46.569-30.945,75.129-33.479c20.173-1.789,40.611-1.927,60.855-1.054
		c12.111,0.523,24.344,3.529,36.037,7.034c13,3.897,25.406,9.744,38.146,14.539c17.766,6.686,34.572,15.351,51.368,24.104
		c9.501,4.95,18.719,10.106,26.295,17.854c1.804,1.845,4.227,3.082,7.217,5.203c7.797-13.688,15.257-26.93,22.853-40.094
		c19.786-34.296,39.701-68.517,59.401-102.861c4.656-8.116,9.302-16.09,16.616-22.21c3.509-2.938,24.798-14.504,28.734-14.543
		c20.61-0.204,41.38-1.921,61.609,3.475c17.982,4.797,36.123,9.355,53.554,15.759c21.493,7.896,42.525,17.149,63.39,26.622
		c28.149,12.78,55.813,26.625,83.931,39.478c42.354,19.358,84.181,39.739,124.665,62.769c36.141,20.558,72.232,41.21,108.021,62.371
		c13.441,7.947,25.972,17.435,38.909,26.232c4.402,2.992,8.469,6.684,13.225,8.916c27.438,12.876,49.012,34.223,73.945,50.622
		c32.436,21.332,56.177,50.649,78.939,81.031c10.172,13.574,15.749,29.281,15.197,46.584c-0.39,12.246-1.047,24.492-2.021,36.704
		c-0.25,3.125-1.763,6.347-3.374,9.132c-9.829,16.993-19.854,33.872-29.807,50.792c-1.003,1.705-1.954,3.439-3.609,6.358
		c3.807,1.256,7.074,2.461,10.414,3.415c23.617,6.747,47.777,11.796,70.158,22.388c3.28,1.553,6.646,3.222,9.415,5.512
		c16.447,13.601,32.449,27.656,43.181,46.578c0.302,0.531,0.976,0.851,1.654,1.419c10.084-10.367,20.341-20.577,30.203-31.157
		c8.26-8.859,18.053-12.767,30.196-12.548c18.957,0.34,38.03-0.938,56.248,5.934c6.787,2.56,13.417,5.534,20.545,8.497
		c6.611-6.853,13.93-14.51,21.324-22.092c13.498-13.84,29.94-20.519,49.273-20.233c8.33,0.124,16.671,0.244,24.993-0.042
		c8.128-0.28,15.411,2.147,21.089,7.547c13.013,12.377,25.968,24.874,38.077,38.117c8.522,9.321,12.371,20.99,12.1,33.939
		c-0.355,16.94,0.533,33.825-4.22,50.539c-7.582,26.657-22.916,47.784-43.97,65.083c-8.458,6.951-18.84,9.618-29.557,10.738
		c-3.626,0.38-7.358,0.378-10.984-0.002c-6.383-0.668-11.817,1.006-16.19,5.668c-6.248,6.663-14.002,8.146-22.755,7.613
		c-12.893-0.785-26.037,1.677-38.89-3.655c-12.602,10.373-27.756,11.662-43.168,11.52c-12.966-0.119-25.94-0.475-38.888-1.167
		c-13.053-0.698-24.883-4.503-33.311-15.427c-0.403-0.523-0.901-0.988-1.41-1.415c-13.707-11.53-23.308-25.472-25.127-44.341
		c-5.014,1.212-7.364,4.078-8.031,8.169c-1.878,11.524-8.733,19.771-16.983,27.375c-8.495,7.828-15.369,17.736-28.43,19.622
		c14.465,31.59,13.569,64.258,13.064,96.795c-0.135,8.688-2.402,17.125-9.427,23.411c-1.417,1.267-2.232,3.208-3.264,4.747
		c7.849,9.333,15.843,18.251,23.177,27.683c14.253,18.33,23.256,39.386,30.895,61.127c10.847,30.869,11.997,62.537,7.268,94.48
		c-3.512,23.711-14.787,44.658-25.591,65.684c-13.011,25.319-33.013,44.867-52.954,64.45c-7.259,7.127-16.975,6.84-26.229,7.661
		c-13.533,1.2-27.068,2.399-40.883,3.624c0,7.27-0.643,14.235,0.116,21.043c2.64,23.691,1.763,47.324-3.55,70.388
		c-5.64,24.485-18.896,45.316-36.413,63.258c-11.117,11.386-21.576,23.642-37.128,30.312c2.021,2.757,3.528,4.921,5.142,7.001
		c8.144,10.49,16.542,20.791,24.421,31.476c10.454,14.175,21.378,28.113,30.549,43.101c16.833,27.513,32.933,55.499,48.568,83.714
		c11.006,19.861,17.785,41.019,20.577,64.024c3.713,30.595,2.74,61.121,2.662,91.677c-0.039,14.883-2.169,29.786-3.791,44.631
		c-2.2,20.132-11.641,37.229-23.264,53.323c-5.604,7.758-11.124,15.574-16.896,23.664c38.613,33.518,78.369,65.186,103.311,111.56
		c9.41-5.605,18.13-10.865,26.912-16.016c22.301-13.079,46.1-20.167,72.247-18.944c16.582,0.775,33.257-1.001,49.666,3.384
		c8.297,2.217,15.637,5.486,21.467,11.853c0.675,0.736,1.319,1.55,2.129,2.105c14.257,9.741,17.219,24.265,17.091,40.127
		c-0.046,5.665,0.229,11.345-0.073,16.993c-0.235,4.394,1.491,7.429,4.446,10.528c5.246,5.506,10.563,11.114,14.728,17.421
		c2.991,4.531,5.559,10.184,5.871,15.48c0.901,15.264,1.361,30.648,0.459,45.895c-0.723,12.215-7.453,22.705-14.448,32.466
		c-6.563,9.159-14.012,17.686-21.747,27.335c9.229,9.191,18.302,18.834,28.018,27.779c23.962,22.063,48.385,43.626,72.3,65.736
		c16.865,15.592,33.617,31.349,49.67,47.763c19.528,19.967,38.098,40.868,57.46,61.002c5.718,5.944,12.599,10.809,19.151,15.907
		c44.104,34.322,88.171,68.693,132.439,102.804c26.599,20.496,53.274,40.913,80.442,60.641c12.88,9.352,26.625,17.691,40.67,25.196
		c10.442,5.58,21.885,9.13,34.342,6.065c4.777-1.176,9.901-1.187,14.877-1.282c24.565-0.477,49.132-0.954,73.701-1.085
		c6.606-0.036,13.249,0.915,19.821,1.809c12.73,1.729,23.166,8.25,32.126,16.977c16.923,16.484,34.082,32.767,47.864,52.18
		c14.409,20.298,24.783,42.425,30.862,66.532c0.88,3.49,0.714,7.259,0.909,10.905c0.232,4.314-0.09,8.699,0.559,12.941
		c2.854,18.649,2.95,18.632,20.24,26.458c1.818,0.823,3.837,1.42,5.371,2.622c14.047,11.003,29.853,9.791,45.679,6.141
		c29.569-6.821,59.433-6.282,89.404-4.734c16.101,0.83,29.346,6.954,39.898,19.42c8.158,9.637,17.122,18.587,25.646,27.919
		c7.572,8.292,10.308,18.447,10.471,29.344c0.205,13.661,1.106,27.436-0.281,40.957c-1.135,11.061-5.074,21.852-7.978,32.706
		c-2.218,8.3-4.908,16.474-7.118,24.776c-2.686,10.088-6.21,19.589-14.165,26.957c-6.811,6.307-13.278,12.984-20.401,19.995
		c4.026,5.023,7.914,10.868,12.776,15.74c11.381,11.406,14.851,25.458,15.238,40.856c0.401,15.993-0.105,31.896-3.758,47.559
		c-2.308,9.896-6.222,18.933-13.987,25.884c-0.248,0.222-0.513,0.442-0.703,0.71c-13.287,18.626-32.822,22.342-53.781,22.25
		c-14.633-0.063-29.262-0.675-43.895-0.955c-15.583-0.3-30.074-5.079-44.393-10.622c-2.73-1.059-5.445-2.161-9.478-3.765
		c0,8.207-0.418,15.436,0.098,22.599c0.793,11.011-2.082,20.985-6.739,30.77c-5.129,10.771-9.786,21.768-14.736,32.626
		c-9.754,21.396-25.854,36.926-46.073,48.154c-5.014,2.786-11.398,3.853-17.251,4.244c-20.229,1.354-40.427,2.497-60.569-2.169
		c-23.823-5.52-43.286-18.221-60.859-34.504c-20.266-18.778-40.282-37.756-57.091-59.879c-8.117-10.685-15.162-21.901-20.218-34.269
		c-8.055-19.698-15.802-39.524-23.559-59.345c-8.643-22.082-19.938-42.757-32.834-62.599c-10.399-16.004-18.518-33.041-23.65-51.472
		c-2.696-9.681-6.758-18.553-13.47-26.366c-17.896-20.827-38.241-38.773-61.022-54.039c-21.276-14.256-42.029-29.364-63.902-42.629
		c-15.261-9.254-31.709-16.773-48.183-23.757c-35.502-15.053-71.745-28.397-106.972-44.045
		c-38.554-17.125-77.011-34.737-114.165-54.647c-26.884-14.407-51.759-32.633-77.198-49.65
		c-36.242-24.247-72.409-48.387-112.815-65.663c-13.223-5.653-25.002-15.045-36.787-23.627
		c-22.272-16.218-44.07-33.089-65.877-49.546c-9.799,7.911-18.868,15.145-27.834,22.503c-6.481,5.317-13.964,7.559-22.189,7.622
		c-8.998,0.07-18.034,0.548-26.985-0.105c-14.059-1.026-25.867-7.19-36.505-16.544c-29.794-26.197-47.662-60.337-64.208-95.324
		c-5.937-12.555-10.527-25.744-16.033-39.392c-64.745,46.855-135.799,82.298-210.765,113.089
		c5.596,5.744,10.543,11.472,16.166,16.436c7.848,6.929,11.384,15.123,10.51,25.616c-0.552,6.619-0.47,13.347-0.012,19.98
		c0.596,8.643-2.425,15.736-8.256,21.696c-10.72,10.956-21.407,21.968-32.603,32.427c-4.25,3.971-9.864,6.48-16.032,10.402
		c2.71,4.569,5.518,10.027,8.979,15.034c37.273,53.925,75.417,107.268,111.777,161.802c34.991,52.481,75.87,100.074,116.995,147.59
		c40.892,47.244,81.52,94.716,122.324,142.036c36.465,42.286,73.36,84.21,109.303,126.934c10.179,12.1,17.71,26.39,22.167,41.988
		c1.245,4.359,3.842,8.372,6.07,12.405c5.941,10.753,12.055,21.409,18.03,32.145c4.304,7.733,6.44,15.976,5.813,24.915
		c-0.278,3.979-0.396,8.032,0.022,11.986c1.009,9.53-0.637,17.816-9.127,23.659c-3.005,2.068-3.403,5.087-3.321,8.762
		c0.374,16.653,0.879,33.343,0.166,49.969c-0.466,10.888-1.719,22.042-4.737,32.464c-8.883,30.679-18.576,61.235-37.397,87.636
		c-8.274,11.606-17.618,22.498-27.013,33.246c-15.648,17.901-34.313,32.401-53.764,45.899c-8.324,5.776-14.96,12.927-20.515,21.446
		c-8.928,13.691-17.575,27.487-22.388,43.224c-5.527,18.07-17.009,32.265-29.578,45.599c-10.033,10.646-21.109,20.303-31.388,30.729
		c-2.352,2.387-4.421,6.016-4.759,9.267c-1.78,17.138-9.569,30.877-22.023,42.423c-16.588,15.377-33.08,30.861-49.449,46.472
		c-5.696,5.433-12.104,7.393-19.928,7.215c-13.639-0.31-27.386,0.804-40.215-5.299
		C1946.694,3882.689,1940.798,3879.674,1935.135,3876.871z"/>
	<path fill-rule="evenodd" clip-rule="evenodd" d="M775.764,2307.477c7.354-11.407,13.224-23.655,21.951-33.324
		c13.771-15.257,28.967-29.351,44.52-42.832c9.879-8.563,22.127-13.738,35.639-13.891c13.622-0.154,27.322-0.507,40.857,0.695
		c19.979,1.773,33.396,14.882,46.215,28.859c12.441,13.566,16.667,30.451,18.215,47.595c2.062,22.813,2.409,45.832-0.991,68.724
		c-1.977,13.313-6.618,24.841-17.312,33.676c-5.371,4.436-10.055,9.724-14.903,14.767c-7.607,7.916-16.863,11.433-27.772,11.17
		c-7.577-0.183-15.161-0.035-22.274-0.035c-2.009,9.23-3.495,17.324-5.574,25.263c-2.153,8.223-6.757,15.147-12.867,21.041
		c-8.621,8.318-17.156,16.73-25.937,24.876c-7.848,7.281-16.958,11.418-28.042,10.887c-10.301-0.494-20.731,0.484-30.93-0.691
		c-15.548-1.792-30.892-5.046-43.949-14.973c-2.558,1.431-4.813,2.803-7.162,3.985c-8.366,4.211-16.951,7.567-26.554,7.668
		c-11.978,0.125-23.953,0.711-35.929,0.735c-9.245,0.02-17.708-2.705-24.911-8.775c-23.462-19.776-38.772-44.429-44.683-74.695
		c-4.117-21.081-4.76-42.352-1.055-63.438c3.607-20.532,16.503-35.887,30.786-50.231c8.203-8.239,17.363-14.408,29.034-16.238
		c2.951-0.463,5.942-0.992,8.912-0.973c17.63,0.118,35.316-0.387,52.873,0.867c12.721,0.908,24.274,6.579,34.63,14.249
		C771.2,2304.397,773.955,2306.218,775.764,2307.477z"/>
	<path fill-rule="evenodd" clip-rule="evenodd" d="M668.932,690.686c4.283,19.204-6.595,30.686-18.559,42.009
		c-12.081,11.436-24.067,22.873-38.879,30.79c-5.953,3.182-12.22,4.847-19.135,4.544c-12.629-0.551-25.279-0.677-37.922-0.897
		c-5.842-0.101-11.137-1.635-15.765-5.286c-4.703-3.71-9.736-3.989-15.79-3.601c-15.884,1.019-31.867,1.022-47.791,0.635
		c-8.791-0.214-16.968-3.673-23.689-9.525c-12.528-10.909-25.228-21.669-37.11-33.257c-11.123-10.846-16.878-24.953-17.654-40.25
		c-0.738-14.553,0.606-29.208,0.903-43.821c0.125-6.145,3.184-10.718,7.26-14.836c5.626-5.683,11.11-11.526,16.997-16.928
		c12.778-11.723,28.246-17.211,45.322-18.201c7.971-0.462,16,0.181,23.984-0.134c17.29-0.681,32.937,3.875,46.829,14.159
		c3.776,2.794,7.3,4.616,11.726,0.54c0.631-11.771,0.944-24.038,2.044-36.233c0.98-10.872,2.423-21.739,4.403-32.471
		c2.244-12.166,8.966-22.173,17.703-30.627c7.858-7.605,16.165-14.771,24.563-21.786c5.841-4.881,12.98-6.449,20.539-6.397
		c11.329,0.076,22.66-0.14,33.986,0.062c12.978,0.23,24.786,4.523,35.683,11.35c14.812,9.279,27.062,21.553,38.875,34.221
		c7.093,7.606,10.211,17.487,10.521,27.458c0.607,19.622-0.341,39.285-0.188,58.927c0.163,20.807-7.705,38.223-21.611,53.117
		C702.798,668.579,690.065,683.826,668.932,690.686z"/>
	<path fill-rule="evenodd" clip-rule="evenodd" d="M2368.802,1290.914c4.356-5.15,8.208-10.116,12.49-14.675
		c8.199-8.726,16.4-17.477,25.078-25.715c5.418-5.144,12.173-7.847,20.007-7.545c11.628,0.446,23.27,0.521,34.905,0.756
		c5.653,0.113,9.903,2.751,13.982,6.608c8.836,8.354,16.63,17.224,19.37,29.508c0.361,1.617,1,3.206,1.119,4.836
		c2.551,34.808-0.25,68.331-20.582,98.572c-8.821,13.12-19.044,24.742-30.407,35.503c-4.466,4.228-7.41,8.488-8.018,15.172
		c-1.31,14.41-8.506,26.374-18.64,36.527c-23.171,23.221-16.638,19.012-45.74,19.395c-2.662,0.035-5.33,0.075-7.991-0.021
		c-12.408-0.452-23.306-3.919-31.806-13.875c-5.975-6.996-13.562-12.115-21.354-17.314c-12.95-8.642-24.365-19.947-31.165-34.378
		c-14.317-30.382-28.017-61.209-34.35-94.346c-2.632-13.777-1.087-28.403-0.943-42.639c0.07-6.92,4.063-12.216,8.585-17.432
		c17.186-19.827,17.042-19.627,42.897-20.069c16.437-0.281,30.464,3.892,42.488,15.79
		C2347.862,1274.611,2358.393,1282.241,2368.802,1290.914z"/>
</g>
</svg>
