<?xml version="1.0" encoding="utf-8"?>
<!-- Generator: Adobe Illustrator 16.0.2, SVG Export Plug-In . SVG Version: 6.00 Build 0)  -->
<!DOCTYPE svg PUBLIC "-//W3C//DTD SVG 1.1//EN" "http://www.w3.org/Graphics/SVG/1.1/DTD/svg11.dtd">
<svg version="1.1" id="Layer_1" xmlns="http://www.w3.org/2000/svg" xmlns:xlink="http://www.w3.org/1999/xlink" x="0px" y="0px"
	 width="4675.415px" height="2725.659px" viewBox="0 0 4675.415 2725.659" enable-background="new 0 0 4675.415 2725.659"
	 xml:space="preserve">
<g>
	<path fill-rule="evenodd" clip-rule="evenodd" fill="#FFFFFF" d="M2,2729.658C2,1820.439,2,911.219,2,2
		c1559.138,0,3118.276,0,4677.414,0c0,909.219,0,1818.439,0,2727.658C3120.276,2729.658,1561.138,2729.658,2,2729.658z
		 M1772.116,2473.964c6.252-6.774,12.397-13.29,18.383-19.951c11.074-12.32,17.554-26.555,17.593-43.366
		c0.026-11.664,0.389-23.346-0.102-34.99c-0.545-12.975-1.129-26.368-8.723-37.457c-11.189-16.337-24.495-30.734-43.501-38.37
		c-3.99-1.604-8.122-3.332-12.329-3.838c-36.165-4.35-72.279-6.142-107.965,3.746c-1.925,0.533-3.866,1.011-5.787,1.559
		c-4.47,1.276-8.377,0.602-11.996-2.604c-13.437-11.898-27.707-22.959-40.294-35.688c-12.342-12.479-22.984-26.635-34.431-40.005
		c-27.242-31.821-54.493-63.634-81.785-95.411c-20.812-24.232-41.416-48.628-64.346-70.978
		c-9.248-9.012-17.414-19.182-25.651-29.172c-14.594-17.702-28.544-35.941-43.353-53.459
		c-19.741-23.352-40.126-46.157-60.078-69.334c-14.746-17.131-29.295-34.434-43.83-51.746c-8.75-10.422-17.102-21.183-26.01-31.465
		c-6.448-7.442-10.879-15.001-6.508-25.123c0.486-1.129-0.002-2.646,0.118-3.971c1.635-18.106-1.617-35.854-4.954-53.423
		c-2.397-12.621-5.113-26.232-13.463-36.009c-12.234-14.324-26.285-27.243-40.501-39.685
		c-14.647-12.819-33.105-19.652-50.148-28.625c-4.605-2.424-10.069-4.434-15.164-4.497c-20.249-0.252-40.544-0.283-60.753,0.846
		c-13.154,0.735-26.188,3.615-39.747,5.604c-0.146-1.224-0.571-2.825-0.492-4.402c0.58-11.604,0.954-23.231,2.001-34.797
		c0.924-10.205,2.15-20.436,4.129-30.48c2.05-10.411,4.919-20.685,7.903-30.88c2.042-6.974,4.536-13.868,7.469-20.516
		c4.422-10.026,9.431-19.793,14.145-29.691c9.599-20.163,19.226-40.221,37.481-54.52c16.504-12.929,32.317-26.911,52.279-34.45
		c11.488-4.338,23.279-7.87,34.929-11.777c20.789-6.97,41.686-13.631,62.325-21.018c19.766-7.074,40.363-7.399,60.872-9.093
		c15.95-1.317,31.558-1.444,47.463,1.941c24.253,5.162,46.978,14.436,69.977,23.107c1.536,0.579,2.958,1.532,4.334,2.457
		c11.96,8.032,25.079,13.61,38.474,18.741c4.847,1.857,9.116,5.185,13.738,7.676c2.223,1.199,4.663,2.891,6.984,2.859
		c10.917-0.148,21.826-0.89,32.743-1.229c1.825-0.058,3.827,0.518,5.484,1.334c2.67,1.314,5.06,3.183,7.673,4.623
		c10.424,5.751,20.352,13.188,32.543,14.276c18.406,1.644,36.626,0.659,53.166-9.248c1.4-0.839,3.058-1.251,4.598-1.853
		c18.36-7.17,37.583-10.843,56.814-14.803c34.52-7.106,68.836-15.204,103.244-22.855c43.478-9.67,86.992-19.175,129.402-33.053
		c18.166-5.943,24.03-3.959,35.606,11.107c0.608,0.792,1.193,1.604,1.783,2.41c10.21,13.978,19.943,28.338,30.77,41.821
		c9.765,12.16,20.99,23.138,31.111,35.029c22.398,26.318,44.731,52.701,66.6,79.459c6.681,8.174,12.949,17.106,17.358,26.64
		c15.604,33.741,37.979,62.431,64.057,88.421c19.311,19.246,38.806,38.342,58.944,56.708c8.74,7.971,18.541,15.73,29.259,20.306
		c10.079,4.301,21.935,5.132,33.124,6c29.312,2.272,57.597-3.927,85.447-12.291c7.921-2.378,16.115-4.688,23.257-8.685
		c44.983-25.183,89.986-50.357,134.424-76.486c32.689-19.221,64.561-39.838,96.733-59.936
		c28.787-17.982,57.271-36.459,86.299-54.038c19.114-11.574,37.649-23.774,54.56-38.436c7.274-6.309,15.151-11.921,22.693-17.925
		c21.583-17.182,43.479-33.992,64.594-51.732c17.542-14.738,34.106-30.636,51.197-45.914c5.164-4.617,10.64-8.882,16.028-13.355
		c11.088,2.347,21.92,4.17,32.497,6.964c41.173,10.878,81.344,24.912,121.534,38.906c19.094,6.647,37.309,16.163,57.848,18.323
		c1.576,0.165,3.004,1.434,4.59,1.859c5.041,1.355,10.065,3.169,15.206,3.661c6.605,0.631,13.316,0.206,19.981,0.14
		c6.86-0.069,13.993,1.272,19.612-4.672c1.17-1.238,3.737-1.126,5.639-1.707c19.699-6.02,39.357-12.18,59.104-18.037
		c13.377-3.969,26.687-8.562,40.358-11.043c32.698-5.934,65.609-10.691,98.403-16.109c17.644-2.917,34.969-4.575,50.99,6.181
		c1.987,1.333,5.101,1.02,7.703,1.397c10.803,1.567,22.352,1.204,32.251,5.071c17.884,6.985,35.101,15.909,52.021,25.086
		c24.009,13.022,46.726,28.187,67.674,45.771c6.291,5.282,12.641,11.132,16.974,17.979c10.126,16.001,19.163,32.699,28.411,49.243
		c5.679,10.159,10.646,20.638,11.916,32.477c2.018,18.81,3.587,37.695,6.464,56.376c1.725,11.196-1.413,20.744-5.8,31.109
		c-15.431,0-30.724-0.068-46.015,0.044c-4.308,0.032-8.984-0.386-12.851,1.087c-14.441,5.498-29.38,4.932-44.348,4.893
		c-14.686-0.038-27.289,5.091-37.646,15.609c-5.378,5.461-11.037,10.662-16.18,16.334c-3.314,3.655-6.646,7.612-8.719,12.021
		c-7.339,15.608-15.858,30.803-18.726,48.175c-0.262,1.584-1.1,3.1-1.815,4.576c-7.29,15.039-16.895,28.233-29.696,39.201
		c-8.579,7.351-16.327,15.663-24.593,23.39c-11.177,10.448-22.701,20.53-33.7,31.16c-16.029,15.495-32.23,30.865-47.418,47.165
		c-15.166,16.276-28.887,33.891-43.757,50.455c-24.652,27.462-50.228,54.111-74.471,81.923
		c-25.771,29.567-50.958,59.683-75.473,90.303c-29.312,36.613-58.513,73.24-91.599,106.617
		c-15.018,15.15-27.55,32.364-38.658,50.641c-6.149,10.115-13.204,19.682-20.197,30.009c-3.441-2.847-6.015-4.874-8.478-7.026
		c-7.832-6.846-16.635-10.427-27.318-9.903c-10.972,0.538-22.048-0.595-32.975,0.292c-15.698,1.273-30.925,4.378-42.068,17.385
		c-4.757,5.551-10.334,10.395-15.473,15.623c-8.823,8.975-14.717,19.536-17.903,31.779c-5.473,21.032-8.743,42.206-7.844,64.083
		c0.374,9.118,2.316,16.8,8.386,23.714c9.83,11.196,19.25,22.751,28.837,34.148c-3.716,10.463-8.013,20.936-11.146,31.745
		c-5.513,19.008-5.873,38.635-5.964,58.292c-0.055,11.776-0.278,23.334,7.75,33.135c0.815,0.996,1.384,2.339,1.659,3.609
		c2.951,13.625,10.808,24.059,21.041,33.071c3.745,3.297,7.343,6.827,10.588,10.61c5.883,6.858,13.479,9.501,22.14,9.671
		c7.995,0.156,16.078,0.768,23.979-0.114c18.764-2.094,36.264-8.07,50.938-20.407c7.864-6.61,15.129-13.934,23.582-21.788
		c5.855,4.243,11.898,8.22,17.498,12.745c28.384,22.938,60.367,33.098,96.801,27.614c7.189-1.082,14.529-1.937,21.415-4.11
		c13.835-4.37,23.656-14.658,33.076-25c3.416-3.751,6.422-8.689,7.527-13.562c2.193-9.664,3.022-19.647,4.262-29.52
		c3.365-26.829,0.047-53.013-8.633-78.457c-1.8-5.273-0.932-8.687,2.247-12.642c7.288-9.068,14.3-18.358,21.437-27.548
		c7.951-10.242,15.512-20.822,23.959-30.64c19.291-22.423,39.097-44.402,58.542-66.694c11.79-13.518,22.56-28.009,35.099-40.775
		c21.199-21.581,41.756-43.85,65.396-62.99c11.026-8.928,20.69-19.533,31.021-29.426c0.976,0.276,2.04,0.356,2.864,0.844
		c21.458,12.686,44.966,20.221,69.042,25.338c26.616,5.655,53.641,9.397,80.491,13.951c0.976,0.166,1.993,0.108,2.992,0.127
		c20.297,0.384,40.591,0.938,60.888,1.046c6.608,0.035,13.368-0.419,19.813-1.8c33.749-7.232,65.334-20.168,95.383-37.028
		c10.951-6.146,22.013-12.097,33.609-18.458c7.134,4.521,14.805,8.616,21.591,13.857c11.563,8.934,22.664,18.478,33.783,27.971
		c9.364,7.995,20.559,12.661,32.063,15.45c22.214,5.385,44.478,11.699,67.835,8.98c0.657-0.076,1.34,0.059,1.997-0.02
		c3.955-0.466,6.521,1.245,9.448,4.061c9.084,8.738,18.041,17.952,28.45,24.865c9.362,6.218,18.604,12.526,27.806,18.992
		c13.021,9.151,26.896,17.161,40.787,24.979c10.755,6.053,22.285,10.104,35.081,9.176c5.967-0.435,11.997,0.074,17.989-0.14
		c2.923-0.104,6.183-0.195,8.67-1.487c9.396-4.875,19.449-9.101,27.616-15.623c33.277-26.577,64.902-55.062,95.375-84.853
		c10.665-10.427,22.182-20.136,34.159-29.031c19.899-14.777,37.807-31.412,53.123-50.906c3.233-4.114,5.259-8.29,5.263-13.583
		c0.006-8.989-0.484-18.077,0.643-26.944c1.835-14.444-4.105-26.241-12.124-36.842c-12.631-16.698-25.945-32.945-42.107-46.537
		c-15.73-13.228-28.137-29.027-37.633-47.314c-3.323-6.401-7.971-12.279-12.789-17.711c-11.469-12.934-23.187-25.666-35.259-38.037
		c-4.318-4.426-5.056-8.517-3.567-14.256c8.963-34.521,12.75-69.851,14.449-105.325c1.257-26.264,0.735-52.616,0.783-78.931
		c0.011-5.953-0.816-11.918-1.4-17.862c-1.459-14.857-2.641-29.756-4.605-44.548c-2.18-16.411-4.561-32.833-7.845-49.05
		c-3.884-19.175-9.78-38.06-9.885-57.766c-0.085-15.866-2.861-31.168-7.596-46.061c-8.757-27.548-17.813-55.019-27.613-82.209
		c-5.392-14.963-11.278-30.024-19.199-43.737c-13.467-23.313-28.803-45.541-43.186-68.33c-9.05-14.338-19.161-28.218-26.401-43.443
		c-17.813-37.452-42.518-69.792-70.827-99.538c-36.512-38.365-75.228-74.466-116.089-108.161
		c-26.143-21.559-53.502-41.647-79.586-63.276c-20.974-17.393-44.387-30.488-68.765-41.945
		c-21.956-10.32-44.662-19.031-66.768-29.047c-38.561-17.472-79.229-25.022-121.186-25.21c-41.269-0.186-82.575,0.428-123.804,2.153
		c-17.797,0.745-35.67,4.203-53.063,8.317c-9.098,2.152-18.031,3.882-27.283,4.488c-5.967,0.391-11.963,0.638-17.882,1.431
		c-27.981,3.751-56.053,7.001-83.874,11.718c-26.546,4.501-52.896,10.259-79.192,16.091c-20.453,4.536-40.702,9.99-61.022,15.117
		c-22.224,5.608-44.417,11.341-66.642,16.948c-5.238,1.321-10.551,2.353-15.829,3.518c0.843-1.789,1.947-2.478,3.136-2.957
		c37.603-15.159,75.286-30.116,112.793-45.507c23.038-9.454,46.434-18.34,68.546-29.674c31.795-16.297,61.227-36.368,85.428-63.239
		c8.148-9.048,15.352-18.583,15.756-31.328c0.676-21.278,0.729-42.576,1.52-63.848c0.361-9.712-2.225-18.388-6.955-26.55
		c-11.542-19.919-26.984-36.091-46.71-48.118c-2.52-1.536-5.012-3.395-6.917-5.618c-14.59-17.022-31.412-31.399-49.489-44.672
		c-20.291-14.898-41.997-26.811-65.119-36.517c-7.569-3.179-14.948-7.095-21.835-11.567c-30.369-19.72-60.351-40.041-90.818-59.603
		c-21.268-13.655-43.127-26.389-64.67-39.621c-19.26-11.831-38.258-24.104-57.779-35.483c-6.001-3.498-9.115-7.947-11.436-14.085
		c-4.103-10.86-8.019-21.937-13.57-32.069c-7.817-14.268-17.738-27.385-25.547-41.658c-18.232-33.327-42.237-62.065-68.932-88.693
		c-19.771-19.723-40.028-38.964-60.223-58.26c-6.566-6.275-14.297-11.241-23.288-12.816c-11.075-1.939-22.323-3.197-33.551-3.906
		c-29.929-1.889-59.983-2.542-89.686,1.698c-21.914,3.128-42.71,0.423-62.055-8.885c-19.77-9.513-38.068-21.971-53.769-37.624
		c-14.384-14.338-28.546-28.903-42.573-43.588c-8.175-8.559-17.488-15.276-28.255-20.149c-8.485-3.841-16.638-8.473-25.277-11.897
		c-5.751-2.279-12.054-4.006-18.191-4.3c-13.3-0.638-26.686-0.803-39.975-0.067c-25.429,1.408-50.303,5.856-72.542,19.196
		c-34.763,20.848-69.366,41.968-103.796,63.36c-5.555,3.452-10.604,4.126-16.878,3.513c-21.807-2.132-43.653-4.587-65.528-5.132
		c-42.592-1.061-85.183-0.146-127.238,7.906c-17.939,3.434-36.276,5.929-53.535,11.589
		c-63.924,20.965-119.095,56.812-167.746,102.834c-16.195,15.321-31.87,31.281-46.785,47.847
		c-20.028,22.246-38.936,45.44-53.557,71.83c-5.467,9.868-11.486,19.526-18.167,28.608c-22.339,30.367-40.871,63.016-59.126,95.895
		c-15.492,27.902-26.986,57.772-43.929,85.031c-12.229,19.676-21.113,41.41-31.936,61.99c-6.338,12.051-13.918,23.447-20.293,35.48
		c-11.506,21.719-22.402,43.761-33.802,65.538c-6.767,12.926-10.871,26.24-9.833,41.094c0.672,9.618,0.165,19.321,0.117,28.986
		c-0.065,13.31,4.737,24.657,13.835,34.219c4.593,4.827,9.523,9.335,14.089,14.188c7.912,8.407,17.282,14.5,28.033,18.629
		c3.792,1.456,7.416,3.349,12.25,5.562c-2.299,0.838-3.173,1.463-4.006,1.414c-15.579-0.925-31.141-2.301-46.731-2.844
		c-34.577-1.207-69.163-2.218-103.753-2.89c-21.655-0.42-43.337-0.555-64.981,0.082c-15.579,0.459-31.324,1.212-46.627,3.916
		c-41.252,7.287-82.335,15.549-123.427,23.719c-15.314,3.044-30.773,5.922-45.637,10.57
		c-53.771,16.813-103.406,42.233-149.321,74.763c-62.57,44.33-116.867,97.609-166.291,155.963
		c-29.487,34.815-54.843,72.71-80.503,110.353c-28.691,42.088-55.098,85.594-77.751,131.196
		c-12.986,26.139-24.755,53.011-35.083,80.306c-9.498,25.104-17.32,50.961-24.025,76.963c-5.452,21.145-8.735,42.911-11.907,64.559
		c-2.787,19.021-5.185,38.225-5.825,57.412c-1.688,50.564,0.158,101.091,7.268,151.222c4.985,35.142,11.311,70.099,17.541,105.049
		c1.008,5.651,0.001,9.096-3.761,13.271c-13.122,14.561-26.359,29.099-38.334,44.587c-13.425,17.364-25.586,35.663-41.91,50.664
		c-3.276,3.011-5.129,7.657-7.339,11.713c-1.58,2.901-2.667,6.071-3.958,9.128c-4.498,10.642-9.225,21.195-13.356,31.976
		c-1.512,3.946-2.118,8.42-2.248,12.68c-0.313,10.321-0.756,20.71,0.045,30.979c1.339,17.181,5.466,33.294,19.278,45.571
		c10.171,9.042,18.768,19.872,31.154,26.32c1.71,0.89,3.038,2.559,4.46,3.95c13.808,13.501,27.446,27.181,41.426,40.5
		c23.597,22.479,47.891,44.174,74.911,62.539c4.306,2.927,9.363,5.391,14.41,6.433c7.358,1.52,15.012,1.865,22.559,2.105
		c4.257,0.135,7.493,1.159,10.581,4.247c2.453,2.454,5.806,5.37,8.913,5.562c10.621,0.65,21.337,0.631,31.958-0.059
		c4.446-0.288,9.407-1.987,12.984-4.614c12.307-9.036,24.249-18.592,36.041-28.301c6.149-5.064,11.079-11.802,17.657-16.104
		c9.326-6.102,17.332-13.44,24.878-21.42c2.499-2.643,4.433-5.821,5.92-7.813c7.693,1.909,13.109,4.302,18.577,4.425
		c21.593,0.485,43.345,1.783,64.243-5.771c4.996-1.806,9.965-3.686,14.976-5.446c11.853-4.165,23.724-8.28,33.889-11.822
		c11.415,6.201,21.137,11.968,31.267,16.898c31.853,15.503,66.001,22.652,100.982,25.289c40.241,3.035,80.493,1.63,120.435-4.532
		c12.733-1.965,25.612-4.237,37.782-8.293c17.623-5.872,34.784-13.206,51.909-20.466c12.539-5.315,25.12-10.784,36.907-17.536
		c10.224-5.855,19.359-13.61,29.306-20.764c1.366,1.283,3.458,2.957,5.206,4.936c21.783,24.659,43.305,49.553,65.322,74
		c23.136,25.69,46.735,50.962,70.123,76.425c2.25,2.448,4.558,4.856,6.637,7.447c22.943,28.591,47.495,55.671,74.877,80.115
		c2.644,2.361,4.887,5.17,7.367,7.823c-4.185,5.914-7.941,10.97-11.424,16.209c-3.521,5.299-6.482,10.916-6.406,17.529
		c0.134,11.654,0.03,23.327,0.678,34.955c1.012,18.112,4.263,35.676,16.628,50.027c5.206,6.042,10.732,11.825,16.339,17.503
		c18.315,18.544,39.597,29.982,66.645,27.695c5.294-0.448,10.662-0.171,15.991-0.045c15,0.354,28.945-3.694,42.389-9.938
		c3.252-1.511,6.521-2.991,11.242-5.155c2.794,3.39,5.173,7.151,8.367,10.001c17.679,15.769,36.931,28.415,61.73,29.194
		c11.631,0.366,23.263,0.75,34.896,0.987c11.286,0.229,21.416-3.021,31.054-9.119c16.575-10.486,29.398-24.907,42.616-38.941
		c9.18-9.744,13.461-21.725,15.918-34.799c3.053-16.247,1.716-32.54,2.022-48.817
		C1784.464,2514.256,1779.976,2494.262,1772.116,2473.964z"/>
	<path fill-rule="evenodd" clip-rule="evenodd" d="M1772.116,2473.964c7.859,20.298,12.348,40.292,11.954,61.187
		c-0.307,16.277,1.031,32.57-2.022,48.817c-2.457,13.074-6.738,25.055-15.918,34.799c-13.218,14.034-26.041,28.455-42.616,38.941
		c-9.638,6.099-19.768,9.349-31.054,9.119c-11.633-0.237-23.265-0.621-34.896-0.987c-24.8-0.779-44.051-13.426-61.73-29.194
		c-3.194-2.85-5.573-6.611-8.367-10.001c-4.721,2.164-7.989,3.645-11.242,5.155c-13.444,6.243-27.389,10.292-42.389,9.938
		c-5.33-0.126-10.697-0.403-15.991,0.045c-27.048,2.287-48.33-9.151-66.645-27.695c-5.607-5.678-11.133-11.461-16.339-17.503
		c-12.365-14.352-15.616-31.915-16.628-50.027c-0.648-11.628-0.544-23.301-0.678-34.955c-0.076-6.613,2.885-12.23,6.406-17.529
		c3.483-5.239,7.239-10.295,11.424-16.209c-2.48-2.653-4.723-5.462-7.367-7.823c-27.382-24.444-51.934-51.524-74.877-80.115
		c-2.079-2.591-4.387-4.999-6.637-7.447c-23.388-25.463-46.987-50.734-70.123-76.425c-22.017-24.447-43.539-49.341-65.322-74
		c-1.748-1.979-3.84-3.652-5.206-4.936c-9.947,7.153-19.083,14.908-29.306,20.764c-11.788,6.752-24.369,12.221-36.907,17.536
		c-17.125,7.26-34.286,14.594-51.909,20.466c-12.17,4.056-25.049,6.328-37.782,8.293c-39.942,6.162-80.194,7.567-120.435,4.532
		c-34.981-2.637-69.13-9.786-100.982-25.289c-10.13-4.931-19.852-10.697-31.267-16.898c-10.165,3.542-22.036,7.657-33.889,11.822
		c-5.011,1.761-9.98,3.641-14.976,5.446c-20.898,7.555-42.65,6.257-64.243,5.771c-5.468-0.123-10.884-2.516-18.577-4.425
		c-1.487,1.991-3.421,5.17-5.92,7.813c-7.546,7.979-15.552,15.318-24.878,21.42c-6.578,4.302-11.507,11.039-17.657,16.104
		c-11.792,9.709-23.733,19.265-36.041,28.301c-3.577,2.627-8.538,4.326-12.984,4.614c-10.621,0.689-21.337,0.709-31.958,0.059
		c-3.107-0.191-6.46-3.107-8.913-5.562c-3.087-3.088-6.324-4.112-10.581-4.247c-7.547-0.24-15.201-0.586-22.559-2.105
		c-5.047-1.042-10.104-3.506-14.41-6.433c-27.02-18.365-51.314-40.06-74.911-62.539c-13.98-13.319-27.619-26.999-41.426-40.5
		c-1.423-1.392-2.75-3.061-4.46-3.95c-12.386-6.448-20.983-17.278-31.154-26.32c-13.812-12.277-17.938-28.391-19.278-45.571
		c-0.801-10.27-0.357-20.658-0.045-30.979c0.13-4.26,0.735-8.733,2.248-12.68c4.131-10.78,8.858-21.334,13.356-31.976
		c1.292-3.057,2.378-6.227,3.958-9.128c2.209-4.056,4.063-8.702,7.339-11.713c16.323-15.001,28.485-33.3,41.91-50.664
		c11.975-15.488,25.213-30.026,38.334-44.587c3.762-4.175,4.769-7.619,3.761-13.271c-6.229-34.95-12.556-69.907-17.541-105.049
		c-7.109-50.131-8.956-100.657-7.268-151.222c0.641-19.188,3.039-38.391,5.825-57.412c3.171-21.647,6.455-43.414,11.907-64.559
		c6.705-26.002,14.527-51.859,24.025-76.963c10.327-27.295,22.097-54.167,35.083-80.306c22.653-45.602,49.06-89.107,77.751-131.196
		c25.66-37.642,51.016-75.538,80.503-110.353c49.424-58.354,103.721-111.633,166.291-155.963
		c45.915-32.53,95.55-57.951,149.321-74.763c14.863-4.648,30.322-7.525,45.637-10.57c41.091-8.17,82.174-16.432,123.427-23.719
		c15.303-2.704,31.048-3.457,46.627-3.916c21.644-0.637,43.327-0.502,64.981-0.082c34.59,0.672,69.177,1.684,103.753,2.89
		c15.591,0.543,31.152,1.919,46.731,2.844c0.833,0.05,1.707-0.576,4.006-1.414c-4.834-2.213-8.459-4.106-12.25-5.562
		c-10.75-4.129-20.121-10.222-28.033-18.629c-4.565-4.852-9.496-9.36-14.089-14.188c-9.098-9.563-13.9-20.91-13.835-34.219
		c0.048-9.665,0.555-19.368-0.117-28.986c-1.038-14.854,3.066-28.167,9.833-41.094c11.4-21.776,22.296-43.818,33.802-65.538
		c6.375-12.033,13.956-23.429,20.293-35.48c10.823-20.581,19.707-42.314,31.936-61.99c16.943-27.259,28.437-57.129,43.929-85.031
		c18.255-32.879,36.787-65.528,59.126-95.895c6.681-9.082,12.699-18.74,18.167-28.608c14.621-26.39,33.529-49.584,53.557-71.83
		c14.915-16.566,30.59-32.526,46.785-47.847c48.65-46.022,103.821-81.869,167.746-102.834c17.259-5.66,35.595-8.155,53.535-11.589
		c42.055-8.052,84.646-8.967,127.238-7.906c21.875,0.545,43.721,3,65.528,5.132c6.273,0.613,11.323-0.061,16.878-3.513
		c34.43-21.392,69.033-42.512,103.796-63.36c22.239-13.339,47.113-17.788,72.542-19.196c13.289-0.735,26.675-0.57,39.975,0.067
		c6.137,0.294,12.44,2.021,18.191,4.3c8.639,3.425,16.792,8.057,25.277,11.897c10.767,4.873,20.081,11.591,28.255,20.149
		c14.027,14.686,28.189,29.25,42.573,43.588c15.7,15.652,33.999,28.111,53.769,37.624c19.345,9.308,40.141,12.014,62.055,8.885
		c29.702-4.24,59.757-3.586,89.686-1.698c11.228,0.709,22.476,1.966,33.551,3.906c8.991,1.575,16.722,6.541,23.288,12.816
		c20.194,19.296,40.451,38.537,60.223,58.26c26.694,26.628,50.699,55.366,68.932,88.693c7.809,14.272,17.729,27.39,25.547,41.658
		c5.552,10.132,9.468,21.209,13.57,32.069c2.32,6.138,5.435,10.587,11.436,14.085c19.521,11.378,38.52,23.652,57.779,35.483
		c21.543,13.232,43.402,25.966,64.67,39.621c30.468,19.562,60.449,39.883,90.818,59.603c6.887,4.472,14.266,8.388,21.835,11.567
		c23.122,9.706,44.828,21.618,65.119,36.517c18.077,13.273,34.899,27.65,49.489,44.672c1.905,2.223,4.397,4.082,6.917,5.618
		c19.726,12.026,35.168,28.198,46.71,48.118c4.73,8.162,7.316,16.838,6.955,26.55c-0.791,21.272-0.844,42.57-1.52,63.848
		c-0.404,12.745-7.607,22.28-15.756,31.328c-24.201,26.872-53.633,46.942-85.428,63.239c-22.112,11.333-45.508,20.22-68.546,29.674
		c-37.507,15.391-75.19,30.348-112.793,45.507c-1.188,0.479-2.293,1.168-3.136,2.957c5.278-1.165,10.591-2.197,15.829-3.518
		c22.225-5.607,44.418-11.34,66.642-16.948c20.32-5.127,40.569-10.582,61.022-15.117c26.297-5.832,52.646-11.589,79.192-16.091
		c27.821-4.717,55.893-7.967,83.874-11.718c5.919-0.793,11.915-1.04,17.882-1.431c9.252-0.606,18.186-2.336,27.283-4.488
		c17.393-4.114,35.266-7.573,53.063-8.317c41.229-1.726,82.535-2.339,123.804-2.153c41.956,0.188,82.625,7.738,121.186,25.21
		c22.105,10.016,44.812,18.727,66.768,29.047c24.378,11.458,47.791,24.553,68.765,41.945c26.084,21.629,53.443,41.717,79.586,63.276
		c40.861,33.694,79.577,69.796,116.089,108.161c28.31,29.746,53.015,62.086,70.827,99.538c7.24,15.225,17.352,29.105,26.401,43.443
		c14.383,22.789,29.719,45.017,43.186,68.33c7.921,13.713,13.808,28.774,19.199,43.737c9.8,27.19,18.856,54.661,27.613,82.209
		c4.734,14.893,7.511,30.194,7.596,46.061c0.104,19.706,6.001,38.591,9.885,57.766c3.284,16.217,5.665,32.639,7.845,49.05
		c1.965,14.792,3.146,29.69,4.605,44.548c0.584,5.944,1.411,11.909,1.4,17.862c-0.048,26.314,0.474,52.667-0.783,78.931
		c-1.699,35.475-5.486,70.804-14.449,105.325c-1.488,5.739-0.751,9.83,3.567,14.256c12.072,12.371,23.79,25.104,35.259,38.037
		c4.818,5.432,9.466,11.31,12.789,17.711c9.496,18.287,21.902,34.087,37.633,47.314c16.162,13.592,29.477,29.839,42.107,46.537
		c8.019,10.601,13.959,22.397,12.124,36.842c-1.127,8.867-0.637,17.955-0.643,26.944c-0.004,5.293-2.029,9.469-5.263,13.583
		c-15.316,19.494-33.224,36.129-53.123,50.906c-11.978,8.896-23.494,18.604-34.159,29.031
		c-30.473,29.791-62.098,58.275-95.375,84.853c-8.167,6.522-18.221,10.748-27.616,15.623c-2.487,1.292-5.747,1.383-8.67,1.487
		c-5.992,0.214-12.022-0.295-17.989,0.14c-12.796,0.929-24.326-3.123-35.081-9.176c-13.892-7.818-27.766-15.828-40.787-24.979
		c-9.202-6.466-18.443-12.774-27.806-18.992c-10.409-6.913-19.366-16.127-28.45-24.865c-2.927-2.815-5.493-4.526-9.448-4.061
		c-0.657,0.078-1.34-0.057-1.997,0.02c-23.357,2.719-45.621-3.596-67.835-8.98c-11.505-2.789-22.699-7.455-32.063-15.45
		c-11.119-9.493-22.22-19.037-33.783-27.971c-6.786-5.241-14.457-9.336-21.591-13.857c-11.597,6.361-22.658,12.313-33.609,18.458
		c-30.049,16.86-61.634,29.796-95.383,37.028c-6.444,1.381-13.204,1.835-19.813,1.8c-20.297-0.108-40.591-0.662-60.888-1.046
		c-0.999-0.019-2.017,0.039-2.992-0.127c-26.851-4.554-53.875-8.296-80.491-13.951c-24.076-5.117-47.584-12.652-69.042-25.338
		c-0.824-0.487-1.889-0.567-2.864-0.844c-10.331,9.893-19.995,20.498-31.021,29.426c-23.64,19.141-44.196,41.409-65.396,62.99
		c-12.539,12.767-23.309,27.258-35.099,40.775c-19.445,22.292-39.251,44.271-58.542,66.694c-8.447,9.817-16.008,20.397-23.959,30.64
		c-7.137,9.189-14.148,18.479-21.437,27.548c-3.179,3.955-4.047,7.368-2.247,12.642c8.68,25.444,11.998,51.628,8.633,78.457
		c-1.239,9.872-2.068,19.855-4.262,29.52c-1.105,4.872-4.111,9.811-7.527,13.562c-9.42,10.342-19.241,20.63-33.076,25
		c-6.886,2.174-14.226,3.028-21.415,4.11c-36.434,5.483-68.417-4.676-96.801-27.614c-5.6-4.525-11.643-8.502-17.498-12.745
		c-8.453,7.854-15.718,15.178-23.582,21.788c-14.675,12.337-32.175,18.313-50.938,20.407c-7.9,0.882-15.983,0.271-23.979,0.114
		c-8.66-0.17-16.257-2.813-22.14-9.671c-3.245-3.783-6.843-7.313-10.588-10.61c-10.233-9.013-18.09-19.446-21.041-33.071
		c-0.275-1.271-0.844-2.613-1.659-3.609c-8.028-9.801-7.805-21.358-7.75-33.135c0.091-19.657,0.451-39.284,5.964-58.292
		c3.134-10.81,7.431-21.282,11.146-31.745c-9.587-11.397-19.007-22.952-28.837-34.148c-6.069-6.914-8.012-14.596-8.386-23.714
		c-0.899-21.877,2.371-43.051,7.844-64.083c3.187-12.243,9.08-22.805,17.903-31.779c5.139-5.229,10.716-10.072,15.473-15.623
		c11.144-13.007,26.37-16.111,42.068-17.385c10.927-0.887,22.003,0.246,32.975-0.292c10.684-0.523,19.486,3.058,27.318,9.903
		c2.463,2.152,5.036,4.18,8.478,7.026c6.993-10.327,14.048-19.894,20.197-30.009c11.108-18.276,23.641-35.49,38.658-50.641
		c33.086-33.377,62.287-70.004,91.599-106.617c24.515-30.62,49.701-60.735,75.473-90.303c24.243-27.812,49.818-54.461,74.471-81.923
		c14.87-16.564,28.591-34.179,43.757-50.455c15.188-16.3,31.389-31.67,47.418-47.165c10.999-10.63,22.523-20.712,33.7-31.16
		c8.266-7.727,16.014-16.039,24.593-23.39c12.802-10.968,22.406-24.162,29.696-39.201c0.716-1.477,1.554-2.992,1.815-4.576
		c2.867-17.372,11.387-32.566,18.726-48.175c2.073-4.408,5.404-8.365,8.719-12.021c5.143-5.672,10.802-10.873,16.18-16.334
		c10.357-10.519,22.961-15.647,37.646-15.609c14.968,0.039,29.906,0.605,44.348-4.893c3.866-1.473,8.543-1.055,12.851-1.087
		c15.291-0.112,30.584-0.044,46.015-0.044c4.387-10.365,7.524-19.913,5.8-31.109c-2.877-18.681-4.446-37.566-6.464-56.376
		c-1.271-11.839-6.237-22.317-11.916-32.477c-9.248-16.544-18.285-33.242-28.411-49.243c-4.333-6.848-10.683-12.697-16.974-17.979
		c-20.948-17.585-43.665-32.749-67.674-45.771c-16.92-9.177-34.137-18.101-52.021-25.086c-9.899-3.867-21.448-3.504-32.251-5.071
		c-2.603-0.377-5.716-0.063-7.703-1.397c-16.021-10.756-33.347-9.098-50.99-6.181c-32.794,5.418-65.705,10.176-98.403,16.109
		c-13.672,2.481-26.981,7.074-40.358,11.043c-19.747,5.857-39.405,12.018-59.104,18.037c-1.901,0.581-4.469,0.469-5.639,1.707
		c-5.619,5.944-12.752,4.603-19.612,4.672c-6.665,0.066-13.376,0.491-19.981-0.14c-5.141-0.492-10.165-2.306-15.206-3.661
		c-1.586-0.426-3.014-1.694-4.59-1.859c-20.539-2.16-38.754-11.676-57.848-18.323c-40.19-13.994-80.361-28.027-121.534-38.906
		c-10.577-2.793-21.409-4.617-32.497-6.964c-5.389,4.473-10.864,8.738-16.028,13.355c-17.091,15.278-33.655,31.176-51.197,45.914
		c-21.114,17.74-43.011,34.551-64.594,51.732c-7.542,6.004-15.419,11.616-22.693,17.925c-16.91,14.661-35.445,26.861-54.56,38.436
		c-29.028,17.579-57.512,36.056-86.299,54.038c-32.173,20.098-64.044,40.715-96.733,59.936
		c-44.438,26.129-89.44,51.304-134.424,76.486c-7.142,3.997-15.336,6.307-23.257,8.685c-27.85,8.364-56.136,14.563-85.447,12.291
		c-11.189-0.868-23.045-1.699-33.124-6c-10.718-4.575-20.519-12.335-29.259-20.306c-20.138-18.366-39.633-37.462-58.944-56.708
		c-26.078-25.99-48.452-54.68-64.057-88.421c-4.409-9.533-10.677-18.466-17.358-26.64c-21.869-26.758-44.202-53.141-66.6-79.459
		c-10.121-11.892-21.346-22.869-31.111-35.029c-10.827-13.482-20.56-27.843-30.77-41.821c-0.589-0.807-1.174-1.618-1.783-2.41
		c-11.576-15.066-17.44-17.05-35.606-11.107c-42.41,13.877-85.924,23.383-129.402,33.053
		c-34.408,7.651-68.724,15.749-103.244,22.855c-19.232,3.96-38.454,7.633-56.814,14.803c-1.541,0.602-3.198,1.014-4.598,1.853
		c-16.54,9.907-34.76,10.892-53.166,9.248c-12.191-1.089-22.119-8.525-32.543-14.276c-2.613-1.44-5.003-3.309-7.673-4.623
		c-1.658-0.816-3.66-1.392-5.484-1.334c-10.917,0.34-21.826,1.081-32.743,1.229c-2.322,0.031-4.761-1.66-6.984-2.859
		c-4.622-2.491-8.891-5.818-13.738-7.676c-13.395-5.131-26.513-10.709-38.474-18.741c-1.376-0.925-2.798-1.878-4.334-2.457
		c-23-8.672-45.724-17.946-69.977-23.107c-15.906-3.385-31.513-3.258-47.463-1.941c-20.508,1.694-41.105,2.019-60.872,9.093
		c-20.639,7.387-41.537,14.048-62.325,21.018c-11.65,3.907-23.441,7.439-34.929,11.777c-19.962,7.539-35.775,21.521-52.279,34.45
		c-18.255,14.299-27.882,34.356-37.481,54.52c-4.713,9.898-9.722,19.665-14.145,29.691c-2.933,6.647-5.427,13.542-7.469,20.516
		c-2.984,10.195-5.853,20.469-7.903,30.88c-1.979,10.045-3.206,20.275-4.129,30.48c-1.047,11.565-1.421,23.192-2.001,34.797
		c-0.079,1.577,0.346,3.179,0.492,4.402c13.559-1.988,26.593-4.868,39.747-5.604c20.208-1.129,40.504-1.098,60.753-0.846
		c5.095,0.063,10.559,2.073,15.164,4.497c17.043,8.973,35.501,15.806,50.148,28.625c14.217,12.441,28.268,25.36,40.501,39.685
		c8.351,9.776,11.066,23.388,13.463,36.009c3.337,17.568,6.589,35.316,4.954,53.423c-0.12,1.324,0.368,2.842-0.118,3.971
		c-4.371,10.122,0.061,17.681,6.508,25.123c8.908,10.282,17.26,21.043,26.01,31.465c14.534,17.313,29.083,34.615,43.83,51.746
		c19.952,23.177,40.337,45.982,60.078,69.334c14.809,17.518,28.759,35.757,43.353,53.459c8.237,9.99,16.403,20.16,25.651,29.172
		c22.931,22.35,43.535,46.745,64.346,70.978c27.292,31.777,54.543,63.59,81.785,95.411c11.446,13.37,22.088,27.525,34.431,40.005
		c12.588,12.729,26.858,23.789,40.294,35.688c3.619,3.205,7.525,3.88,11.996,2.604c1.921-0.548,3.862-1.025,5.787-1.559
		c35.686-9.888,71.8-8.096,107.965-3.746c4.207,0.506,8.339,2.234,12.329,3.838c19.006,7.636,32.313,22.033,43.501,38.37
		c7.594,11.089,8.178,24.482,8.723,37.457c0.49,11.645,0.128,23.326,0.102,34.99c-0.039,16.812-6.52,31.046-17.593,43.366
		C1784.514,2460.674,1778.368,2467.189,1772.116,2473.964z"/>
</g>
</svg>
