<?xml version="1.0" encoding="utf-8"?>
<!-- Generator: Adobe Illustrator 16.0.2, SVG Export Plug-In . SVG Version: 6.00 Build 0)  -->
<!DOCTYPE svg PUBLIC "-//W3C//DTD SVG 1.1//EN" "http://www.w3.org/Graphics/SVG/1.1/DTD/svg11.dtd">
<svg version="1.1" id="Layer_1" xmlns="http://www.w3.org/2000/svg" xmlns:xlink="http://www.w3.org/1999/xlink" x="0px" y="0px"
	 width="4727.408px" height="2725.659px" viewBox="0 0 4727.408 2725.659" enable-background="new 0 0 4727.408 2725.659"
	 xml:space="preserve">
<g>
	<path fill-rule="evenodd" clip-rule="evenodd" fill="#FFFFFF" d="M2,2729.658C2,1820.439,2,911.219,2,2
		c1576.47,0,3152.938,0,4729.408,0c0,909.219,0,1818.439,0,2727.658C3154.938,2729.658,1578.47,2729.658,2,2729.658z
		 M1852.961,2466.744c1.813-1.27,4.22-2.557,6.138-4.363c13.112-12.362,25.645-25.229,34.381-41.248
		c1.426-2.616,4.042-5.197,4.099-7.838c0.272-12.625,2.12-25.832-0.861-37.765c-4.333-17.339-12.165-33.786-26.297-46.202
		c-6.246-5.488-11.75-11.813-17.756-17.585c-13.529-13.002-29.251-21.383-48.103-24.234c-16.495-2.494-32.945-4.07-49.638-3.854
		c-8.459,0.109-16.416,0.956-24.108,4.938c-3.71,1.921-8.301,2.933-12.497,2.942c-7.189,0.02-14.688,5.313-21.242,1.035
		c-6.009-3.922-10.864-9.818-15.688-15.319c-42.993-49.023-83.186-100.315-122.56-152.251
		c-20.686-27.286-40.879-54.945-61.389-82.366c-13.735-18.361-27.567-36.652-41.488-54.876
		c-10.098-13.219-19.507-27.118-30.819-39.225c-22.506-24.084-45.877-47.38-69.33-70.559
		c-22.686-22.418-43.655-46.673-68.628-64.455c-1.296-15.029-2.807-28.571-3.531-42.153c-0.607-11.395-4.208-21.466-11.243-30.269
		c-8.505-10.643-17.178-21.154-25.96-31.57c-13.666-16.207-30.785-27.054-51.056-33.384c-8.175-2.552-15.979-6.436-23.731-10.171
		c-20.906-10.074-42.275-17.542-66.083-16.266c-14.481,0.776-29.037,0.143-44.109,0.143c0.2-4.091,0.397-7.379,0.517-10.67
		c0.525-14.614,2.154-29.31,1.127-43.815c-0.641-9.047,1.18-16.765,3.75-25.043c2.634-8.485,4.489-17.415,5.153-26.266
		c1.212-16.119,4.175-31.289,13.043-45.325c5.982-9.469,9.937-20.207,15.001-30.275c1.466-2.915,3.176-5.988,5.556-8.114
		c15.375-13.728,30.714-27.517,46.565-40.682c12.834-10.659,26.853-19.58,42.936-24.871c31.556-10.378,63.05-20.942,94.585-31.383
		c25.365-8.397,51.536-9.095,77.843-7.605c23.374,1.323,46.024,6.919,68.344,13.527c11.421,3.381,22.914,7.467,33.291,13.197
		c12.856,7.102,25.749,13.812,39.556,18.817c3.706,1.342,8.057,2.646,10.485,5.402c5.033,5.711,10.957,6.852,17.878,6.298
		c2.649-0.213,5.358,0.217,7.99-0.082c7.54-0.856,13.434,1.487,18.404,7.448c5.661,6.792,13.281,10.73,21.937,12.721
		c1.834,0.423,3.861,1.344,5.115,2.678c2.865,3.047,6.327,3.275,10.073,3.216c5.332-0.085,10.667-0.142,15.996,0.008
		c10.691,0.301,21.214,0.23,30.961-5.379c2.435-1.4,5.777-1.226,8.701-1.782c3.9-0.743,7.965-1.026,11.664-2.338
		c8.139-2.887,16.119-6.229,24.117-9.501c21.842-8.936,43.076-19.406,66.306-24.746c7.405-1.701,14.507-4.886,21.604-7.747
		c22.828-9.204,45.453-18.886,69.406-25.047c11.896-3.059,23.615-6.9,35.242-10.891c16.338-5.607,32.524-11.658,48.754-17.58
		c3.103-1.131,6.202-2.353,9.132-3.864c5.396-2.781,10.665-5.808,15.926-8.698c2.803,7.542,4.496,14.448,7.834,20.438
		c3.515,6.305,8.607,11.73,13.003,17.545c1.002,1.323,1.986,2.66,2.966,3.999c12.565,17.164,25.34,34.179,37.606,51.554
		c6.689,9.477,13.224,19.194,18.569,29.459c8.826,16.946,18.315,33.19,32.82,46.055c3.703,3.284,6.901,7.238,9.87,11.229
		c7.535,10.127,14.151,21.014,22.331,30.573c15.342,17.928,31.492,35.164,47.38,52.621c5.6,6.152,11.215,12.315,17.173,18.116
		c16.933,16.486,33.601,33.288,51.239,48.994c12.865,11.458,26.767,21.849,40.852,31.801c8.363,5.911,17.709,10.65,27.085,14.862
		c19.799,8.893,40.014,16.489,62.406,15.205c7.973-0.458,16.007,0.219,23.989-0.141c13.048-0.589,25.798-2.799,37.182-9.746
		c10.404-6.349,21.668-10.186,33.666-11.759c18.11-2.373,34.444-9.45,50.564-17.635c11.487-5.834,23.606-10.427,35.485-15.476
		c7.336-3.118,15.27-5.184,22.025-9.237c18.244-10.945,36.179-22.433,53.903-34.206c20.482-13.603,40.523-27.868,60.934-41.581
		c8.26-5.548,17.321-9.926,25.443-15.651c22.012-15.518,43.701-31.492,65.547-47.244c11.86-8.551,23.775-17.03,35.678-25.523
		c21.386-15.26,43.094-30.095,64.056-45.917c12.173-9.188,23.197-19.907,34.668-30.019c14.96-13.186,30.184-26.098,44.655-39.802
		c10.367-9.818,19.9-20.555,29.378-31.261c4.229-4.778,8.417-6.597,14.772-4.971c9.648,2.469,19.579,3.825,29.247,6.226
		c30.612,7.602,61.397,14.435,90.383,27.687c16.557,7.57,34.159,12.834,51.17,19.444c4.831,1.878,9.151,5.027,13.866,7.256
		c5.649,2.671,11.432,6.965,17.224,7.077c17.547,0.339,35.129,1.726,52.718-1.566c41.788-7.822,83.659-15.249,125.611-22.143
		c19.967-3.281,40.189-5.027,60.307-7.383c42.338-4.961,84.304-3.958,125.675,7.6c10.979,3.067,21.449,6.908,30.638,13.87
		c11.659,8.836,23.288,17.729,35.236,26.162c12.126,8.559,22.366,18.688,30.009,31.496c3.223,5.401,7.009,10.498,10.87,15.476
		c19.098,24.618,36.192,50.272,42.313,81.578c1.393,7.132,2.872,14.392,2.943,21.606c0.142,14.315,0.44,28.546,3.383,42.628
		c0.517,2.473,0.073,5.146,0.073,8.363c-5.383-1.427-10.161-2.742-14.967-3.952c-4.508-1.135-9.036-3.039-13.57-3.082
		c-25.173-0.236-50.351-2.364-74.442,9.245c-13.963,6.729-26.792,14.261-38.336,24.575c-17.394,15.541-31.871,33.053-40.133,55.068
		c-3.962,10.56-7.408,21.338-10.537,32.178c-3.02,10.469-8.099,18.796-16.644,26.228c-25.09,21.819-49.218,44.746-73.715,67.246
		c-15.678,14.399-31.44,28.71-46.992,43.246c-18.474,17.266-37.561,33.975-54.915,52.314c-18.938,20.014-36.443,41.41-54.13,62.575
		c-31.114,37.236-62.517,74.259-92.625,112.3c-27.847,35.183-54.137,71.594-81.146,107.439
		c-18.379,24.392-39.605,46.613-55.562,72.852c-1.194,1.965-2.314,3.973-2.719,4.669c-7.465-3.625-12.771-6.242-18.112-8.784
		c-5.341-2.541-10.514-6.439-16.118-7.246c-21.039-3.029-41.921-1.26-61.925,6.213c-5.405,2.021-10.242,5.972-14.824,9.675
		c-4.383,3.541-8.29,7.737-12.065,11.951c-12.903,14.409-22.509,31.051-25.49,50.017c-2.614,16.625-2.178,33.771-2.512,50.7
		c-0.385,19.477,8.619,35.073,21.527,48.85c5.425,5.791,10.694,11.729,16.048,17.615c-11.731,26.749-17.086,54.132-15.439,82.987
		c0.873,15.303,5.261,28.575,16.388,39.366c5.502,5.337,11.018,10.675,16.232,16.286c4.524,4.868,9.865,7.388,16.42,8.502
		c29.188,4.963,58.394,3.032,87.541,0.195c5.65-0.55,11.391-3.621,16.38-6.686c6.737-4.14,12.787-9.397,19.957-14.797
		c4.535,3.559,9.575,6.789,13.704,10.928c5.786,5.798,12.559,9.479,19.949,12.78c15.726,7.02,32.228,6.656,48.895,7.454
		c17.161,0.823,30.616-6.447,42.399-16.768c15.762-13.805,30.209-29.112,45.196-43.799c4.673-4.58,8.025-10.303,8.129-16.65
		c0.257-15.582,1.337-31.199-2.536-46.685c-4.256-17.011-14.165-31.227-22.228-48.517c2.189-1.765,5.3-3.794,7.822-6.393
		c8.11-8.354,16.196-16.747,23.945-25.434c25.007-28.034,45.39-59.804,71.623-86.955c25.89-26.796,50.968-54.306,80.183-77.651
		c7.78-6.218,14.769-13.415,22.346-19.899c14.336-12.266,28.836-24.339,42.82-36.115c13.564,7.006,26.302,14.129,39.487,20.294
		c37.17,17.379,75.479,31.729,116.788,34.521c25.501,1.723,51.223,1.648,76.782,0.688c27.732-1.041,54.489-7.994,80.483-17.786
		c12.763-4.807,25.769-9.008,37.162-16.805c6.772-4.635,13.515-9.312,22.028-15.183c1.935,2.584,3.653,6.105,6.411,8.348
		c12.629,10.271,24.728,21.524,38.521,29.967c38.34,23.469,80.121,30.987,125.233,22.867c7.472,7.514,15.106,15.405,22.99,23.04
		c4.532,4.389,9.115,8.88,14.289,12.429c16.25,11.147,31.214,23.697,45.053,37.743c5.828,5.914,13.024,10.644,21.955,10.417
		c19.165-0.485,38.035,0.424,57.273-5.135c21.607-6.243,39.698-17.294,55.997-31.314c13.533-11.644,24.722-26.006,37.007-39.108
		c2.264-2.414,4.842-4.531,7.221-6.841c8.588-8.337,17.105-16.747,25.756-25.019c2.575-2.462,5.242-5.015,8.31-6.742
		c11.886-6.697,21.864-16.208,28.813-27.173c9.897-15.62,18.322-32.619,24.422-50.063c5.132-14.677,2.963-30.841,0.614-46.351
		c-0.145-0.957-0.551-1.957-1.098-2.759c-11.785-17.256-22.208-35.687-35.741-51.446c-21.644-25.203-45.506-48.49-68.116-72.879
		c-8.575-9.252-16.429-19.193-24.255-29.104c-1.624-2.056-2.646-5.501-2.277-8.067c1.979-13.781,4.409-27.499,6.821-41.216
		c3.569-20.313,6.153-40.723,6.192-61.381c0.042-22.928-0.56-45.761-2.826-68.674c-1.749-17.678-3.274-35.588-1.39-53.643
		c2.566-24.586-2.394-49.048-3.474-73.597c-0.642-14.58-1.052-29.275-3.268-43.657c-4.885-31.702-15.967-61.674-27.515-91.46
		c-10.203-26.316-20.021-52.779-30.212-79.099c-4.551-11.755-8.846-23.698-14.548-34.899
		c-26.91-52.854-58.506-102.799-93.169-150.949c-28.662-39.816-60.47-76.749-95.245-111.241c-4.486-4.45-8.602-9.274-13.069-13.744
		c-12.479-12.485-24.773-25.172-37.657-37.228c-17.05-15.953-36.437-28.865-56.029-41.467c-23.49-15.109-45.738-32.25-71.208-44.122
		c-20.79-9.691-41.519-19.599-62.762-28.206c-13.487-5.464-27.665-9.668-41.9-12.736c-19.149-4.126-38.679-6.465-57.999-9.833
		c-38.77-6.759-77.753-10.757-117.157-9.44c-10.622,0.354-21.228,1.67-31.841,1.679c-22.628,0.019-45.257-0.737-67.885-0.731
		c-7.602,0.002-15.234,1.101-22.793,2.136c-12.498,1.711-24.888,4.449-37.431,5.557c-25.495,2.251-50.856,4.578-76.041,9.892
		c-30.188,6.37-60.891,10.258-91.275,15.747c-21.574,3.897-43.094,8.215-64.442,13.18c-18.108,4.211-35.926,9.664-53.905,14.442
		c-2.347,0.624-4.894,0.496-6.61,0.65c-2.337-13.029,5.373-17.27,15.233-19.758c2.901-0.732,5.697-1.878,8.597-2.621
		c20.298-5.199,40.539-10.641,60.933-15.441c38.354-9.028,75.443-21.469,110.24-40.141c7.284-3.909,14.647-8.187,20.772-13.643
		c16.638-14.819,32.691-30.3,48.855-45.646c8.929-8.477,13.104-19.377,12.992-31.366c-0.206-21.938-1.165-43.872-2.113-65.794
		c-0.184-4.243-1.297-8.591-2.753-12.61c-10.921-30.13-29.817-53.811-57.393-70.435c-2.518-1.518-4.905-3.55-6.753-5.831
		c-16.973-20.939-38.322-36.824-60.162-52.089c-25.077-17.525-53.082-28.894-82.005-38.287c-5.97-1.938-12.131-3.974-17.406-7.25
		c-25.999-16.148-51.889-32.485-77.517-49.216c-35.669-23.286-70.495-47.887-108.045-68.207c-2.688-1.454-5.059-4.251-6.587-6.979
		c-17.08-30.479-35.233-60.187-56.831-87.797c-13.11-16.761-24.442-34.787-31.846-55.083c-2.929-8.031-6.676-16.213-11.907-22.866
		c-11.889-15.118-24.867-29.384-37.521-43.892c-7.313-8.383-16.256-14.652-26.109-19.79c-3.479-1.814-6.791-4.279-9.564-7.06
		c-12.942-12.98-28.503-18.863-46.75-18.752c-32.949,0.198-65.903-0.205-98.851,0.128c-33.278,0.337-66.563,0.929-99.815,2.155
		c-8.628,0.318-15.609-1.996-22.085-6.876c-5.563-4.193-10.828-8.786-16.185-13.25c-12.255-10.212-24.396-20.563-36.76-30.641
		c-6.697-5.458-13.858-10.345-20.639-15.707c-34.137-26.996-72.616-39.77-116.213-35.066c-9.164,0.988-18.164,3.609-27.203,5.639
		c-20.457,4.597-40.456,10.625-59.608,19.285c-1.791,0.81-3.814,1.187-5.769,1.538c-9.057,1.633-16.833,5.789-24.233,11.178
		c-5.048,3.678-10.545,7.16-16.369,9.271c-11.922,4.32-21.642,11.492-30.411,20.344c-9,9.087-9.055,9.042-21.499,7.988
		c-1.321-0.111-2.62-0.488-3.941-0.6c-21.182-1.786-42.338-4.497-63.555-5.093c-30.971-0.872-61.992-0.619-92.978-0.082
		c-20.868,0.361-41.097,4.82-59.144,15.796c-21.038,12.796-42.317,25.386-62.197,39.845c-18.766,13.649-36.423,28.985-53.54,44.699
		c-23.27,21.359-47.023,42.486-67.943,66.045c-34.227,38.543-65.848,79.34-94.089,122.6c-13.091,20.054-25.718,40.423-39.222,60.194
		c-15.222,22.288-29.252,45.153-41.002,69.517c-6.879,14.261-12.564,29.412-23.982,41.133c-4.876,5.004-9.689,10.089-14.24,15.386
		c-15.827,18.422-31.718,36.795-42.807,58.702c-11.103,21.933-22.29,43.824-33.692,65.601c-6.771,12.929-10.848,26.249-9.813,41.098
		c0.671,9.619,0.25,19.324,0.092,28.987c-0.158,9.639,2.004,18.848,7.951,26.215c5.907,7.319,8.868,15.201,9.659,24.3
		c0.754,8.674,4.63,15.631,11.53,21.111c3.523,2.799,6.435,6.366,10.829,10.802c-3.373,0.308-4.901,0.667-6.392,0.55
		c-13.58-1.071-27.142-3.019-40.73-3.203c-35.958-0.485-71.926-0.351-107.888-0.159c-9.282,0.049-18.594,0.896-27.831,1.934
		c-26.742,3.001-53.474,6.109-80.167,9.507c-30.666,3.903-60.945,9.538-90.508,19.02c-33.935,10.884-66.405,25.442-99.609,38.146
		c-38.681,14.8-73.263,36.275-104.893,62.562c-13.532,11.245-25.369,24.5-38.42,36.354c-34.713,31.53-71.062,61.307-102.361,96.468
		c-15.041,16.896-30.962,33.062-45.225,50.583c-12.991,15.959-24.435,33.192-36.278,50.064c-15.663,22.317-32.663,43.9-46.24,67.44
		c-35.111,60.875-66.749,123.493-87.045,191.221c-6.105,20.375-14.15,40.205-19.556,60.745
		c-7.686,29.206-13.874,58.812-20.478,88.297c-5.93,26.471-4.622,53.575-5.915,80.386c-1.779,36.885-1.611,73.862-2.283,110.8
		c-0.515,28.332,2.903,56.349,6.961,84.292c0.838,5.774-0.401,9.894-4.701,14.047c-32.391,31.281-59.919,66.794-88.034,101.796
		c-3.537,4.403-5.027,9.176-4.925,14.746c0.162,8.996-0.105,17.999,0.08,26.994c0.253,12.285,0.576,24.524,6.389,35.931
		c2.373,4.656,4.058,9.821,5.138,14.948c2.272,10.776,7.024,19.895,15.141,27.45c27.478,25.577,52.715,53.5,82.653,76.522
		c16.299,12.535,30.926,27.224,46.636,40.553c6.307,5.353,13.92,9.17,20.186,14.561c9.275,7.98,19.775,11.709,31.796,11.857
		c4.995,0.063,10.31-0.896,14.918,0.485c12.144,3.642,24.454,2.693,36.71,2.521c10.892-0.151,21.551-0.719,30.26-9.652
		c7.591-7.787,17.043-13.723,25.2-21.005c11.138-9.944,22.108-20.116,32.574-30.758c4.148-4.217,8.154-6.217,13.944-5.556
		c27.224,3.108,54.552,3.852,81.547-1.103c23.269-4.271,46.421-9.819,63.192-28.826c0.625-0.707,1.629-1.079,2.408-1.576
		c18.674,13.327,34.671,22.108,52.136,26.568c12.848,3.281,26.062,5.197,39.169,7.384c38.101,6.355,76.362,11.007,115.075,7.466
		c29.111-2.664,58.191-5.719,87.239-8.999c30.19-3.409,57.608-15.681,84.845-28.05c12.943-5.877,25.171-13.327,38.252-20.35
		c7.952,9.667,16.059,19.726,24.38,29.602c33.433,39.684,66.281,79.898,104.1,115.639c3.389,3.203,6.725,6.481,9.878,9.915
		c18.247,19.872,37.57,38.581,57.852,56.414c9.85,8.662,17.744,19.552,25.96,28.799c-7.678,18.016-14.485,34.801-13.818,53.616
		c0.342,9.653,0.153,19.33,0.035,28.994c-0.108,8.854,2.403,16.944,6.07,24.913c5.632,12.235,15.949,20.232,25.425,28.979
		c11.813,10.901,25.506,15.864,41.959,14.722c24.158-1.679,48.455-1.479,72.579-3.468c7.965-0.655,12.84,1.657,18.533,6.268
		c12.416,10.052,25.5,19.444,41.759,22.285c18.725,3.271,37.639,4.457,56.662,3.884c7.981-0.24,14.867-2.636,20.659-8.374
		c13.722-13.591,27.514-27.114,41.474-40.46c6.593-6.303,10.249-13.918,11.319-22.76c0.957-7.895,1.722-15.843,1.966-23.786
		c0.664-21.629,1.07-43.297-6.408-64.1C1860.431,2484.989,1856.924,2476.763,1852.961,2466.744z"/>
	<path fill-rule="evenodd" clip-rule="evenodd" d="M1852.961,2466.744c3.962,10.019,7.47,18.245,10.49,26.647
		c7.479,20.803,7.072,42.471,6.408,64.1c-0.244,7.943-1.01,15.892-1.966,23.786c-1.07,8.842-4.726,16.457-11.319,22.76
		c-13.96,13.346-27.752,26.869-41.474,40.46c-5.792,5.738-12.677,8.134-20.659,8.374c-19.023,0.573-37.937-0.613-56.662-3.884
		c-16.259-2.841-29.343-12.233-41.759-22.285c-5.693-4.61-10.568-6.923-18.533-6.268c-24.124,1.988-48.42,1.789-72.579,3.468
		c-16.453,1.143-30.146-3.82-41.959-14.722c-9.476-8.746-19.792-16.743-25.425-28.979c-3.667-7.969-6.179-16.06-6.07-24.913
		c0.118-9.664,0.307-19.341-0.035-28.994c-0.667-18.815,6.141-35.601,13.818-53.616c-8.217-9.247-16.11-20.137-25.96-28.799
		c-20.282-17.833-39.605-36.542-57.852-56.414c-3.153-3.434-6.489-6.712-9.878-9.915c-37.819-35.74-70.667-75.955-104.1-115.639
		c-8.321-9.876-16.428-19.935-24.38-29.602c-13.081,7.022-25.309,14.473-38.252,20.35c-27.237,12.369-54.654,24.641-84.845,28.05
		c-29.048,3.28-58.128,6.335-87.239,8.999c-38.713,3.541-76.974-1.11-115.075-7.466c-13.107-2.187-26.321-4.103-39.169-7.384
		c-17.464-4.46-33.461-13.241-52.136-26.568c-0.779,0.497-1.783,0.869-2.408,1.576c-16.771,19.007-39.923,24.556-63.192,28.826
		c-26.996,4.954-54.324,4.211-81.547,1.103c-5.79-0.661-9.796,1.339-13.944,5.556c-10.465,10.642-21.436,20.813-32.574,30.758
		c-8.157,7.282-17.609,13.218-25.2,21.005c-8.709,8.934-19.368,9.501-30.26,9.652c-12.256,0.172-24.566,1.12-36.71-2.521
		c-4.608-1.382-9.923-0.423-14.918-0.485c-12.021-0.148-22.521-3.877-31.796-11.857c-6.266-5.391-13.879-9.208-20.186-14.561
		c-15.71-13.329-30.337-28.018-46.636-40.553c-29.938-23.022-55.175-50.945-82.653-76.522c-8.117-7.556-12.869-16.674-15.141-27.45
		c-1.081-5.127-2.765-10.292-5.138-14.948c-5.813-11.406-6.136-23.646-6.389-35.931c-0.186-8.995,0.082-17.998-0.08-26.994
		c-0.102-5.57,1.389-10.343,4.925-14.746c28.115-35.002,55.643-70.515,88.034-101.796c4.299-4.153,5.539-8.272,4.701-14.047
		c-4.058-27.943-7.476-55.96-6.961-84.292c0.672-36.938,0.504-73.915,2.283-110.8c1.293-26.811-0.016-53.915,5.915-80.386
		c6.604-29.485,12.792-59.091,20.478-88.297c5.405-20.54,13.45-40.37,19.556-60.745c20.296-67.729,51.934-130.347,87.045-191.221
		c13.578-23.54,30.577-45.123,46.24-67.44c11.843-16.872,23.287-34.105,36.278-50.064c14.263-17.521,30.184-33.688,45.225-50.583
		c31.299-35.161,67.647-64.938,102.361-96.468c13.051-11.854,24.889-25.11,38.42-36.354c31.63-26.286,66.212-47.762,104.893-62.562
		c33.205-12.705,65.674-27.262,99.609-38.146c29.563-9.481,59.842-15.117,90.508-19.02c26.694-3.398,53.426-6.506,80.167-9.507
		c9.236-1.037,18.549-1.885,27.831-1.934c35.962-0.191,71.931-0.326,107.888,0.159c13.588,0.184,27.15,2.132,40.73,3.203
		c1.491,0.117,3.02-0.242,6.392-0.55c-4.394-4.437-7.306-8.003-10.829-10.802c-6.899-5.48-10.776-12.437-11.53-21.111
		c-0.791-9.099-3.751-16.98-9.659-24.3c-5.947-7.367-8.109-16.576-7.951-26.215c0.158-9.663,0.579-19.368-0.092-28.987
		c-1.035-14.85,3.042-28.169,9.813-41.098c11.403-21.777,22.59-43.667,33.692-65.601c11.089-21.907,26.98-40.28,42.807-58.702
		c4.551-5.297,9.364-10.382,14.24-15.386c11.418-11.721,17.104-26.873,23.982-41.133c11.75-24.363,25.781-47.229,41.002-69.517
		c13.503-19.771,26.131-40.14,39.222-60.194c28.241-43.26,59.862-84.057,94.089-122.6c20.919-23.559,44.673-44.686,67.943-66.045
		c17.117-15.714,34.774-31.05,53.54-44.699c19.88-14.458,41.159-27.048,62.197-39.845c18.047-10.976,38.276-15.435,59.144-15.796
		c30.985-0.537,62.007-0.79,92.978,0.082c21.216,0.597,42.373,3.307,63.555,5.093c1.321,0.111,2.62,0.488,3.941,0.6
		c12.444,1.054,12.499,1.099,21.499-7.988c8.769-8.853,18.488-16.024,30.411-20.344c5.824-2.111,11.321-5.592,16.369-9.271
		c7.4-5.39,15.176-9.545,24.233-11.178c1.955-0.352,3.978-0.729,5.769-1.538c19.152-8.66,39.151-14.688,59.608-19.285
		c9.039-2.03,18.039-4.651,27.203-5.639c43.597-4.704,82.076,8.07,116.213,35.066c6.78,5.362,13.941,10.249,20.639,15.707
		c12.364,10.078,24.505,20.428,36.76,30.641c5.356,4.464,10.621,9.058,16.185,13.25c6.476,4.88,13.457,7.194,22.085,6.876
		c33.253-1.226,66.537-1.818,99.815-2.155c32.947-0.333,65.901,0.07,98.851-0.128c18.247-0.11,33.808,5.772,46.75,18.752
		c2.773,2.781,6.085,5.245,9.564,7.06c9.854,5.137,18.797,11.407,26.109,19.79c12.654,14.508,25.633,28.773,37.521,43.892
		c5.231,6.653,8.979,14.834,11.907,22.866c7.403,20.296,18.735,38.322,31.846,55.083c21.598,27.611,39.751,57.319,56.831,87.797
		c1.528,2.728,3.899,5.525,6.587,6.979c37.55,20.32,72.376,44.92,108.045,68.207c25.628,16.731,51.518,33.068,77.517,49.216
		c5.275,3.276,11.437,5.312,17.406,7.25c28.923,9.394,56.928,20.762,82.005,38.287c21.84,15.265,43.189,31.15,60.162,52.089
		c1.848,2.28,4.235,4.313,6.753,5.831c27.575,16.624,46.472,40.305,57.393,70.435c1.456,4.019,2.569,8.367,2.753,12.61
		c0.948,21.922,1.907,43.856,2.113,65.794c0.112,11.989-4.063,22.89-12.992,31.366c-16.164,15.346-32.218,30.826-48.855,45.646
		c-6.125,5.456-13.488,9.734-20.772,13.643c-34.797,18.672-71.886,31.112-110.24,40.141c-20.394,4.8-40.635,10.242-60.933,15.441
		c-2.899,0.743-5.695,1.889-8.597,2.621c-9.86,2.488-17.57,6.729-15.233,19.758c1.717-0.154,4.264-0.026,6.61-0.65
		c17.979-4.778,35.797-10.23,53.905-14.442c21.349-4.965,42.868-9.283,64.442-13.18c30.385-5.489,61.088-9.377,91.275-15.747
		c25.185-5.314,50.546-7.641,76.041-9.892c12.543-1.107,24.933-3.845,37.431-5.557c7.559-1.035,15.191-2.134,22.793-2.136
		c22.628-0.006,45.257,0.75,67.885,0.731c10.613-0.009,21.219-1.324,31.841-1.679c39.404-1.317,78.388,2.682,117.157,9.44
		c19.32,3.368,38.85,5.707,57.999,9.833c14.235,3.068,28.413,7.272,41.9,12.736c21.243,8.606,41.972,18.515,62.762,28.206
		c25.47,11.872,47.718,29.012,71.208,44.122c19.593,12.603,38.979,25.514,56.029,41.467c12.884,12.056,25.178,24.743,37.657,37.228
		c4.468,4.47,8.583,9.294,13.069,13.744c34.775,34.493,66.583,71.425,95.245,111.241c34.663,48.15,66.259,98.096,93.169,150.949
		c5.702,11.201,9.997,23.145,14.548,34.899c10.191,26.319,20.009,52.782,30.212,79.099c11.548,29.786,22.63,59.758,27.515,91.46
		c2.216,14.382,2.626,29.077,3.268,43.657c1.08,24.549,6.04,49.011,3.474,73.597c-1.885,18.055-0.359,35.965,1.39,53.643
		c2.267,22.913,2.868,45.746,2.826,68.674c-0.039,20.658-2.623,41.068-6.192,61.381c-2.412,13.717-4.843,27.435-6.821,41.216
		c-0.368,2.566,0.653,6.012,2.277,8.067c7.826,9.91,15.68,19.852,24.255,29.104c22.61,24.389,46.473,47.676,68.116,72.879
		c13.533,15.76,23.956,34.19,35.741,51.446c0.547,0.802,0.953,1.802,1.098,2.759c2.349,15.51,4.518,31.674-0.614,46.351
		c-6.1,17.443-14.524,34.442-24.422,50.063c-6.948,10.965-16.927,20.476-28.813,27.173c-3.067,1.728-5.734,4.28-8.31,6.742
		c-8.65,8.271-17.168,16.682-25.756,25.019c-2.379,2.31-4.957,4.427-7.221,6.841c-12.285,13.103-23.474,27.465-37.007,39.108
		c-16.299,14.021-34.39,25.071-55.997,31.314c-19.238,5.559-38.108,4.649-57.273,5.135c-8.931,0.227-16.127-4.503-21.955-10.417
		c-13.839-14.046-28.803-26.596-45.053-37.743c-5.174-3.549-9.757-8.04-14.289-12.429c-7.884-7.635-15.519-15.526-22.99-23.04
		c-45.112,8.12-86.894,0.602-125.233-22.867c-13.793-8.442-25.892-19.696-38.521-29.967c-2.758-2.242-4.477-5.764-6.411-8.348
		c-8.514,5.871-15.256,10.548-22.028,15.183c-11.394,7.797-24.399,11.998-37.162,16.805c-25.994,9.792-52.751,16.745-80.483,17.786
		c-25.56,0.961-51.281,1.035-76.782-0.688c-41.309-2.791-79.618-17.142-116.788-34.521c-13.186-6.165-25.923-13.288-39.487-20.294
		c-13.984,11.776-28.484,23.85-42.82,36.115c-7.577,6.484-14.565,13.682-22.346,19.899c-29.215,23.346-54.293,50.855-80.183,77.651
		c-26.233,27.151-46.616,58.921-71.623,86.955c-7.749,8.687-15.835,17.079-23.945,25.434c-2.522,2.599-5.633,4.628-7.822,6.393
		c8.063,17.29,17.972,31.506,22.228,48.517c3.873,15.485,2.793,31.103,2.536,46.685c-0.104,6.348-3.456,12.07-8.129,16.65
		c-14.987,14.687-29.435,29.994-45.196,43.799c-11.783,10.32-25.238,17.591-42.399,16.768c-16.667-0.798-33.169-0.435-48.895-7.454
		c-7.391-3.301-14.163-6.982-19.949-12.78c-4.129-4.139-9.169-7.369-13.704-10.928c-7.17,5.399-13.22,10.657-19.957,14.797
		c-4.989,3.064-10.729,6.136-16.38,6.686c-29.147,2.837-58.354,4.768-87.541-0.195c-6.555-1.114-11.896-3.634-16.42-8.502
		c-5.215-5.611-10.73-10.949-16.232-16.286c-11.127-10.791-15.515-24.063-16.388-39.366c-1.646-28.855,3.708-56.238,15.439-82.987
		c-5.354-5.886-10.623-11.824-16.048-17.615c-12.908-13.776-21.912-29.373-21.527-48.85c0.334-16.929-0.103-34.075,2.512-50.7
		c2.981-18.966,12.587-35.607,25.49-50.017c3.775-4.214,7.683-8.41,12.065-11.951c4.582-3.703,9.419-7.654,14.824-9.675
		c20.004-7.473,40.886-9.242,61.925-6.213c5.604,0.807,10.777,4.705,16.118,7.246c5.342,2.542,10.647,5.159,18.112,8.784
		c0.404-0.696,1.524-2.704,2.719-4.669c15.956-26.238,37.183-48.46,55.562-72.852c27.01-35.846,53.3-72.257,81.146-107.439
		c30.108-38.041,61.511-75.063,92.625-112.3c17.687-21.165,35.192-42.562,54.13-62.575c17.354-18.34,36.441-35.049,54.915-52.314
		c15.552-14.536,31.314-28.847,46.992-43.246c24.497-22.5,48.625-45.427,73.715-67.246c8.545-7.432,13.624-15.759,16.644-26.228
		c3.129-10.84,6.575-21.618,10.537-32.178c8.262-22.016,22.739-39.527,40.133-55.068c11.544-10.314,24.373-17.847,38.336-24.575
		c24.092-11.609,49.27-9.481,74.442-9.245c4.534,0.043,9.063,1.947,13.57,3.082c4.806,1.21,9.584,2.525,14.967,3.952
		c0-3.217,0.443-5.891-0.073-8.363c-2.942-14.082-3.241-28.313-3.383-42.628c-0.071-7.215-1.551-14.475-2.943-21.606
		c-6.121-31.306-23.216-56.96-42.313-81.578c-3.861-4.978-7.647-10.074-10.87-15.476c-7.643-12.809-17.883-22.938-30.009-31.496
		c-11.948-8.434-23.577-17.326-35.236-26.162c-9.188-6.962-19.659-10.803-30.638-13.87c-41.371-11.558-83.337-12.561-125.675-7.6
		c-20.117,2.355-40.34,4.102-60.307,7.383c-41.952,6.894-83.823,14.32-125.611,22.143c-17.589,3.292-35.171,1.905-52.718,1.566
		c-5.792-0.112-11.574-4.406-17.224-7.077c-4.715-2.229-9.035-5.378-13.866-7.256c-17.011-6.61-34.613-11.874-51.17-19.444
		c-28.985-13.252-59.771-20.085-90.383-27.687c-9.668-2.401-19.599-3.757-29.247-6.226c-6.355-1.625-10.543,0.193-14.772,4.971
		c-9.478,10.707-19.011,21.443-29.378,31.261c-14.472,13.704-29.695,26.616-44.655,39.802
		c-11.471,10.111-22.495,20.83-34.668,30.019c-20.962,15.822-42.67,30.657-64.056,45.917c-11.902,8.493-23.817,16.973-35.678,25.523
		c-21.846,15.752-43.535,31.727-65.547,47.244c-8.122,5.726-17.184,10.104-25.443,15.651c-20.41,13.713-40.451,27.979-60.934,41.581
		c-17.725,11.773-35.659,23.261-53.903,34.206c-6.756,4.054-14.689,6.119-22.025,9.237c-11.879,5.049-23.998,9.642-35.485,15.476
		c-16.12,8.185-32.454,15.262-50.564,17.635c-11.998,1.573-23.262,5.41-33.666,11.759c-11.384,6.947-24.134,9.157-37.182,9.746
		c-7.982,0.359-16.017-0.317-23.989,0.141c-22.393,1.284-42.607-6.313-62.406-15.205c-9.376-4.212-18.722-8.951-27.085-14.862
		c-14.085-9.952-27.987-20.343-40.852-31.801c-17.638-15.706-34.306-32.508-51.239-48.994c-5.958-5.801-11.573-11.964-17.173-18.116
		c-15.888-17.457-32.038-34.693-47.38-52.621c-8.18-9.56-14.796-20.446-22.331-30.573c-2.969-3.991-6.167-7.945-9.87-11.229
		c-14.505-12.864-23.994-29.108-32.82-46.055c-5.345-10.265-11.879-19.982-18.569-29.459c-12.266-17.375-25.041-34.39-37.606-51.554
		c-0.98-1.339-1.964-2.676-2.966-3.999c-4.396-5.815-9.488-11.24-13.003-17.545c-3.338-5.989-5.031-12.896-7.834-20.438
		c-5.261,2.89-10.53,5.917-15.926,8.698c-2.93,1.511-6.029,2.732-9.132,3.864c-16.229,5.922-32.416,11.973-48.754,17.58
		c-11.626,3.991-23.346,7.832-35.242,10.891c-23.953,6.162-46.578,15.843-69.406,25.047c-7.097,2.861-14.198,6.046-21.604,7.747
		c-23.23,5.34-44.464,15.811-66.306,24.746c-7.998,3.272-15.979,6.614-24.117,9.501c-3.699,1.312-7.764,1.595-11.664,2.338
		c-2.924,0.557-6.266,0.382-8.701,1.782c-9.747,5.609-20.27,5.68-30.961,5.379c-5.329-0.149-10.665-0.093-15.996-0.008
		c-3.746,0.06-7.208-0.169-10.073-3.216c-1.254-1.334-3.28-2.255-5.115-2.678c-8.655-1.99-16.275-5.929-21.937-12.721
		c-4.97-5.961-10.864-8.305-18.404-7.448c-2.632,0.299-5.341-0.131-7.99,0.082c-6.922,0.554-12.846-0.587-17.878-6.298
		c-2.428-2.756-6.779-4.061-10.485-5.402c-13.807-5.006-26.699-11.716-39.556-18.817c-10.377-5.73-21.87-9.816-33.291-13.197
		c-22.319-6.608-44.97-12.204-68.344-13.527c-26.307-1.49-52.478-0.792-77.843,7.605c-31.535,10.44-63.029,21.005-94.585,31.383
		c-16.083,5.291-30.102,14.212-42.936,24.871c-15.852,13.165-31.19,26.954-46.565,40.682c-2.38,2.126-4.09,5.199-5.556,8.114
		c-5.064,10.068-9.019,20.807-15.001,30.275c-8.868,14.036-11.832,29.206-13.043,45.325c-0.665,8.851-2.519,17.78-5.153,26.266
		c-2.569,8.278-4.39,15.996-3.75,25.043c1.027,14.506-0.602,29.201-1.127,43.815c-0.119,3.291-0.316,6.579-0.517,10.67
		c15.072,0,29.628,0.634,44.109-0.143c23.808-1.276,45.177,6.191,66.083,16.266c7.752,3.735,15.557,7.619,23.731,10.171
		c20.271,6.33,37.391,17.177,51.056,33.384c8.783,10.416,17.456,20.928,25.96,31.57c7.034,8.803,10.635,18.874,11.243,30.269
		c0.724,13.582,2.234,27.124,3.531,42.153c24.974,17.782,45.942,42.037,68.628,64.455c23.453,23.179,46.824,46.475,69.33,70.559
		c11.312,12.106,20.721,26.006,30.819,39.225c13.92,18.224,27.752,36.515,41.488,54.876c20.51,27.421,40.703,55.08,61.389,82.366
		c39.374,51.936,79.567,103.228,122.56,152.251c4.824,5.501,9.679,11.397,15.688,15.319c6.554,4.278,14.052-1.016,21.242-1.035
		c4.196-0.01,8.786-1.021,12.497-2.942c7.692-3.982,15.648-4.829,24.108-4.938c16.692-0.216,33.143,1.36,49.638,3.854
		c18.852,2.852,34.574,11.232,48.103,24.234c6.006,5.771,11.51,12.097,17.756,17.585c14.133,12.416,21.965,28.863,26.297,46.202
		c2.981,11.933,1.134,25.14,0.861,37.765c-0.057,2.641-2.673,5.222-4.099,7.838c-8.736,16.019-21.269,28.886-34.381,41.248
		C1857.182,2464.188,1854.775,2465.475,1852.961,2466.744z"/>
</g>
</svg>
