<?xml version="1.0" encoding="utf-8"?>
<!-- Generator: Adobe Illustrator 16.0.2, SVG Export Plug-In . SVG Version: 6.00 Build 0)  -->
<!DOCTYPE svg PUBLIC "-//W3C//DTD SVG 1.1//EN" "http://www.w3.org/Graphics/SVG/1.1/DTD/svg11.dtd">
<svg version="1.1" id="Layer_1" xmlns="http://www.w3.org/2000/svg" xmlns:xlink="http://www.w3.org/1999/xlink" x="0px" y="0px"
	 width="4960.38px" height="3505.562px" viewBox="0 0 4960.38 3505.562" enable-background="new 0 0 4960.38 3505.562"
	 xml:space="preserve">
<g>
	<path fill-rule="evenodd" clip-rule="evenodd" fill="#FFFFFF" d="M4967.379,3511.547
		c-1654.259,0.005-3308.518,0.005-4963.078,0.005c0-1168.839,0-2337.688,0-3507.044c1654.159,0,3308.618,0,4963.078,0
		C4967.379,1173.446,4967.379,2342.495,4967.379,3511.547z M2757.827,3214.969c18.34,0,34.324-0.061,50.308,0.032
		c6.121,0.035,12.373,0.072,16.316-5.425c4.187-5.836,10.021-5.88,16.086-5.896c6.664-0.017,13.332-0.122,19.994-0.009
		c5.54,0.094,10.889-0.506,14.285-5.43c4.447-6.448,10.811-7.017,17.667-6.568c8.323,0.545,15.729-0.552,21.034-8.34
		c1.554-2.278,5.521-4.063,8.386-4.066c6.686-0.006,11.219-3.016,15.629-7.505c2.14-2.179,5.483-4.408,8.307-4.438
		c6.657-0.073,11.19-3.123,15.737-7.402c2.221-2.09,5.771-4.079,8.62-3.949c8.724,0.398,12.567-5.771,18.043-10.665
		c5.701-5.095,16.254-0.1,21.35-8.662c1.255-2.109,3.947-4.83,5.936-4.795c10.3,0.185,17.696-4.39,23.649-12.286
		c0.67-0.889,2.42-1.446,3.62-1.372c9.376,0.571,13.983-6.382,19.768-11.845c4.755-4.491,10.293-8.153,15.485-12.182
		c12.055,1.713,17.603-7.167,24.246-14.59c5.76-6.436,11.972-12.475,18.15-18.519c1.798-1.759,4.225-4.245,6.262-4.153
		c8.916,0.404,14.96-3.754,20.641-10.031c1.805-1.994,6.074-2.427,9.211-2.412c7.862,0.037,11.13-6.307,16.274-10.282
		c5.223-4.035,13.487,0.224,18.607-5.499c1.33-1.486,2.387-3.35,3.981-4.436c2.58-1.758,5.469-4.173,8.285-4.253
		c6.68-0.189,10.806-3.628,15.338-7.946c5.278-5.031,11.75-8.812,17.705-13.134c9.297-0.101,15.974-8.225,23.092-15.306
		c8.909-8.866,17.631-17.922,26.558-26.771c14.144-14.021,28.339-27.992,42.656-41.834c1.791-1.732,4.557-3.758,6.71-3.59
		c9.51,0.739,14.258-5.304,19.612-11.586c5.141-6.032,12.279-10.43,17.065-16.674c6.983-9.109,19.774-14.483,19.29-28.752
		c-0.055-1.61,1.739-3.499,3.053-4.909c11.72-12.585,23.037-25.606,35.521-37.388c5.684-5.364,9.927-10.083,10.043-18.274
		c0.039-2.694,2.79-5.715,4.953-7.957c10.563-10.946,21.301-21.729,32.067-32.479c15.962-15.939,32.072-31.73,47.982-47.722
		c10.552-10.605,23.639-19.391,25.874-36.137c0.287-2.151,3.247-3.977,5.036-5.89c4.521-4.829,9.376-9.386,13.512-14.521
		c2.371-2.945,4.909-6.753,5.063-10.272c0.29-6.656,2.743-11.085,8.045-14.949c2.371-1.729,4.422-5.439,4.571-8.356
		c0.331-6.482,2.702-11.252,7.436-15.61c2.199-2.027,3.848-5.691,3.992-8.697c0.306-6.376,1.711-11.597,7.276-15.487
		c2.002-1.399,4.24-4.279,4.208-6.452c-0.128-8.745,3.535-14.998,10.244-20.243c1.786-1.396,3.067-4.706,2.937-7.046
		c-0.379-6.781,2.7-11.359,7.722-15.204c5.604-4.289,3.001-11.359,5.431-16.44c2.734-5.714,7.633-10.393,11.591-15.521
		c-1.579-13.559,15.121-20.39,12.621-34.287c7.156-6.379,12.29-13.66,11.828-23.928c-0.064-1.437,1.994-3.386,3.53-4.404
		c6.1-4.05,8.738-9.463,8.802-16.847c0.024-2.856,2.051-6.343,4.239-8.397c4.616-4.338,7.504-8.893,7.842-15.503
		c0.139-2.728,2.681-6.024,5.067-7.811c6.627-4.962,8.668-11.375,8.149-19.234c-0.305-4.618-0.056-9.274-0.056-14.197
		c5.712-6.526,11.04-12.402,13.076-21.721c1.963-8.979,11.142-16.017,10.69-26.822c-0.055-1.29,2.531-2.899,4.136-4.013
		c6.791-4.711,8.618-11.338,8.144-19.188c-0.49-8.081,1.387-14.65,7.086-21.679c6.67-8.228,7.174-20.839,16.585-28.043
		c0.433-0.331,0.656-1.231,0.614-1.842c-0.599-8.688,3.054-15.085,9.646-20.647c2.072-1.748,2.608-6.023,2.751-9.19
		c0.225-5.023,1.672-9.007,5.872-11.944c6.312-4.415,4.896-11.763,7.064-17.781c2.096-5.815,8.003-10.148,11.217-15.721
		c1.474-2.554,0.606-6.517,0.631-9.841c0.06-7.973,0.02-15.946,0.02-24.36c9.743-7.045,12.59-16.669,11.433-28.027
		c-0.536-5.272-0.267-10.672,0.146-15.975c0.196-2.509,0.841-6.091,2.559-7.19c10.362-6.634,9.215-16.804,9.213-26.816
		c-0.028-135.299-0.144-270.599,0.196-405.896c0.029-12.03-1.456-22.354-12.212-29.238c0-7.406,0-14.051,0-20.696
		c-0.001-21.328-0.094-42.657,0.044-63.984c0.049-7.499-0.414-14.332-6.694-19.967c-2.579-2.314-3.813-6.775-4.428-10.464
		c-0.756-4.544-0.226-9.302-0.252-13.967c-0.101-17.537-0.101-17.537-11.719-29.599c-0.266-1.292-0.723-2.577-0.768-3.875
		c-0.377-11.109,2.029-22.973-9.882-30.575c-1.643-1.047-2.194-4.843-2.124-7.336c0.186-6.662-2.851-11.304-7.654-15.46
		c-1.859-1.611-4.193-4.411-3.97-6.407c1.238-11.032-7.731-16.113-13.479-23.066c0-5.697-0.043-11.014,0.013-16.33
		c0.051-4.875-0.974-9.434-4.96-12.529c-5.164-4.011-6.939-9.094-7.459-15.513c-0.288-3.553-2.663-7.659-5.364-10.135
		c-4.589-4.208-6.591-8.801-8.552-14.784c-3.17-9.677-11.092-17.642-11.5-28.707c-0.041-1.089-1.289-2.465-2.342-3.131
		c-8.107-5.121-8.276-13.153-7.72-21.266c0.551-8.033-2.15-14.188-8.694-18.968c-1.981-1.447-4.473-4.094-4.408-6.117
		c0.283-8.859-3.371-15.212-10.063-20.639c-1.676-1.358-2.295-4.811-2.291-7.299c0.014-7.424-3.328-12.236-9.415-16.362
		c-5.413-3.668-9.853-8.773-14.625-13.156c-1.779-7.146,0.511-15.508-6.787-20.321c-8.092-5.338-2.958-15.381-8.037-21.685
		c-1.241-1.54-2.814-2.821-4.28-4.17c-4.877-4.484-10.604-8.332-14.475-13.557c-6.407-8.648-17.878-14.189-17.207-27.622
		c0.122-2.442-3.646-5.262-5.922-7.611c-15.246-15.739-30.381-31.595-45.999-46.957c-4.439-4.367-8.199-8.141-8.271-14.939
		c-0.031-2.943-2.036-6.431-4.179-8.695c-16.384-17.32-32.741-34.683-49.647-51.488c-25.356-25.206-51.333-49.789-76.654-75.03
		c-7.336-7.313-14.378-13.915-21.459-12.785c-9.369-8.014-16.447-14.081-23.54-20.131c-6.039-5.152-12.095-10.283-18.143-15.424
		c-10.076,1.049-14.969-6.943-21.535-12.135c-1.399-1.107-3.886-1.56-5.713-1.28c-7.985,1.221-11.379-5.506-16.862-8.772
		c-5.403-3.217-12.229-4.037-18.404-5.991c-0.531-0.168-0.94-0.917-1.276-1.474c-3.798-6.291-9.295-8.849-16.676-8.947
		c-2.878-0.037-6.126-2.213-8.492-4.244c-4.52-3.877-8.398-8.491-12.799-12.52c-2.389-2.188-5.297-5.375-7.984-5.387
		c-8.78-0.041-15.166-3.311-20.042-10.483c-0.963-1.416-3.539-2.688-5.21-2.511c-9.019,0.959-13.882-6.413-20.676-9.333
		c-9.596-4.125-18.906-7.756-26.535-15.111c-1.193-1.152-3.895-0.579-5.719-1.275c-3.571-1.363-7.782-2.277-10.347-4.788
		c-4.549-4.451-9.273-6.939-15.703-7.492c-3.628-0.313-7.85-2.186-10.396-4.753c-4.737-4.775-10.107-5.944-16.316-5.765
		c-4.642,0.135-9.292,0.027-12.734,0.027c-13.214-10.375-20.992-26.281-39.496-26.454c-1.452-0.014-3.227-2.217-4.265-3.789
		c-5.099-7.719-12.594-8.905-21.004-8.459c-6.701,0.356-13.239,0.385-17.737-6.458c-3.741-5.692-10.151-5.517-16.255-5.498
		c-7.926,0.024-15.524,0.559-22.085-6.45c-2.981-3.186-9.722-3.682-14.819-3.893c-12.589-0.519-25.215-0.17-36.735-0.17
		c-12.745-14.033-12.745-14.035-29.87-14.154c-4.666-0.032-9.373,0.322-13.981-0.206c-3.138-0.36-7.225-1.035-9.001-3.151
		c-6.404-7.631-14.564-8.426-23.502-8.006c-6.726,0.315-13.204,0.32-17.354-6.957c-2.9-5.086-8.508-5.833-14.104-5.68
		c-5.327,0.145-10.68-0.271-15.989,0.063c-7.737,0.485-14.267-0.967-19.189-7.771c-3.548-4.905-9.402-4.264-14.735-4.267
		c-24.66-0.015-49.321,0.028-73.981-0.059c-5.26-0.018-10.517-0.489-16.352-0.78c-5.163-9.536-13.455-12.45-23.599-11.213
		c-1.97,0.24-3.995,0.031-5.994,0.031c-121.303,0-242.605,0-363.907,0.003c-3.999,0.001-7.999,0.121-11.997,0.042
		c-4.961-0.098-9.359,1.307-12.281,5.395c-4.5,6.299-10.837,6.661-17.712,6.614c-23.327-0.157-46.668,0.401-69.977-0.244
		c-11.959-0.331-22.518,0.962-29.41,12.189c-7.905,0-15.257,0.466-22.525-0.107c-11.421-0.901-21.116,1.483-26.422,11.746
		c-3.17,0.435-5.129,0.95-7.082,0.931c-10.03-0.095-19.853-0.598-27.411,8.489c-1.981,2.382-7.243,2.637-11.042,2.791
		c-9.287,0.377-18.599,0.123-28.921,0.123c-3.921,4.417-7.847,8.837-12.599,14.188c-11.8,0-24.448-0.256-37.076,0.138
		c-4.494,0.14-10.618,0.369-13.081,3.146c-6.833,7.698-15.146,7.496-23.816,7.208c-6.939-0.23-13.419,0.59-17.823,6.697
		c-3.63,5.036-8.757,5.456-14.249,5.344c-5.299-0.107-10.603-0.023-14.705-0.023c-8.654,5.836-13.251,15.441-24.41,14.324
		c-2.026-0.203-4.667,2.377-6.499,4.201c-6.531,6.497-12.835,13.222-19.088,19.717c-3.128,0.143-5.787,0.442-8.433,0.354
		c-8.781-0.294-17.201-0.301-23.695,7.483c-1.778,2.132-5.923,2.326-9.01,3.325c-3.716,1.201-8.76,1.184-10.935,3.686
		c-5.266,6.057-11.541,7.523-18.924,9.268c-5.713,1.348-9.8,8.543-15.502,11.271c-5.666,2.71-13.55-0.103-18.038,6.523
		c-3.268,4.826-7.736,6.744-13.594,6.715c-6.996-0.034-9.021,7.413-13.901,10.199c-5.475,3.127-12.691,3.172-18.238,6.221
		c-5.083,2.794-9.138,7.618-13.301,11.883c-4.292,4.397-8.443,8.05-15.351,7.72c-7.799-0.373-9.876,8.335-15.595,11.208
		c-5.705,2.868-13.74-0.386-18.211,6.249c-3.759,5.578-8.99,7.242-15.422,7.237c-2.444-0.002-5.801,0.973-7.174,2.728
		c-5.223,6.683-11.253,10.408-20.131,10.599c-3.153,0.067-6.487,4.133-9.267,6.856c-8.523,8.354-16.739,17.021-25.264,25.373
		c-1.788,1.752-4.404,3.835-6.605,3.798c-13.207-0.226-20.647,9.77-27.672,17.632c-18.606,20.827-38.6,40.068-59.35,58.643
		c-4.943,4.424-9.84,9.033-14.009,14.164c-13.407,16.502-28.838,30.989-44.352,45.398c-4.051,3.762-7.709,7.439-7.27,13.443
		c0.381,5.191-2.463,8.315-6.002,11.778c-16.097,15.746-31.745,31.949-47.733,47.808c-3.381,3.354-7.322,6.417-6.907,11.525
		c0.568,6.991-3.536,10.89-7.941,15.153c-5.233,5.063-9.754,10.857-14.948,15.965c-7.466,7.342-17.287,13.05-15.599,25.986
		c0.203,1.557-1.334,4.031-2.785,4.996c-7.966,5.294-6.262,14.147-7.693,20.134c-7.366,6.943-13.734,12.751-19.84,18.823
		c-1.823,1.813-4.103,4.347-4.13,6.576c-0.106,8.598-3.491,15.064-9.8,20.79c-2.084,1.892-2.815,6.043-2.902,9.197
		c-0.145,5.211-2.333,8.739-6.364,11.659c-5.328,3.859-7.071,9.286-6.729,15.731c0.28,5.269,0.058,10.563,0.058,14.843
		c-6.624,6.735-13.257,11.545-12.413,21.122c0.229,2.594-2.3,6.187-4.587,8.091c-4.93,4.1-7.536,8.65-8.083,15.226
		c-0.288,3.466-2.971,7.365-5.685,9.858c-5.101,4.687-3.882,10.974-5.842,16.356c-2.15,5.902-7.433,10.595-10.692,16.199
		c-1.198,2.06-0.628,5.214-0.668,7.871c-0.08,5.279-0.023,10.56-0.023,14.715c-11.049,10.623-11.887,10.561-12.329,16.6
		c-0.477,6.527-2.534,11.314-7.855,15.146c-5.699,4.105-2.902,11.375-5.333,16.464c-2.726,5.708-7.962,10.167-11.41,15.61
		c-1.242,1.961-0.552,5.2-0.591,7.859c-0.068,4.638-0.02,9.277-0.02,12.958c-11.892,14.152-12.054,14.153-11.947,33.105
		c0.058,10.07,0.671,19.888-8.458,27.305c-2.039,1.657-2.278,6.025-2.571,9.216c-0.425,4.627-0.162,9.321-0.163,13.986
		c-0.006,25.301-0.003,50.601-0.003,75.025c-12.758,12.914-12.758,12.914-12.865,30.279c-0.004,0.667-0.001,1.333-0.001,2
		c-0.001,134.631-0.014,269.264,0.045,403.897c0.003,5.96-0.66,12.434,1.395,17.735c2.012,5.186,7.106,9.176,11.439,14.404
		c0,8.009,0.13,16.656-0.044,25.298c-0.124,6.239,0.705,12.017,5.964,16.149c4.767,3.748,5.315,8.868,5.201,14.378
		c-0.125,5.995,0.133,12-0.019,17.993c-0.16,6.289,0.773,12.322,6.383,15.908c7.038,4.5,3.878,12.331,6.774,17.897
		c2.928,5.628,7.675,10.294,11.409,15.534c0.656,0.922,0.426,2.617,0.306,3.927c-0.735,8.011,6.695,10.89,9.869,16.348
		c3.158,5.435,3.701,12.34,5.855,18.436c0.58,1.644,3.036,2.535,4.293,4.052c1.64,1.975,4.366,4.381,4.156,6.337
		c-1.102,10.23,6.697,15.329,12.496,22.152c0,3.2,0.197,6.522-0.037,9.815c-0.638,8.97,0.413,17.05,8.087,23.388
		c2.113,1.744,3.091,5.907,3.088,8.957c-0.008,6.694,2.899,11.298,7.901,15.278c1.922,1.529,4.542,4.168,4.349,6.045
		c-1.06,10.315,7.469,14.995,12.599,21.362c0,3.266,0.012,5.912-0.002,8.559c-0.053,9.991-1.29,20.271,9.737,26.407
		c1.769,0.983,2.877,4.551,2.933,6.956c0.175,7.605,6.3,11.235,9.739,16.696c3.347,5.314,2.825,13.16,6.382,18.223
		c3.919,5.579,7.815,10.313,7.443,17.603c-0.262,5.127,3.211,8.641,7.209,11.284c4.092,2.708,7.306,5.697,7.054,11.124
		c-0.232,5.021,2.499,8.581,5.569,12.33c2.353,2.873,4.296,6.846,4.59,10.476c0.538,6.652,3.549,11.297,8.674,14.936
		c3.557,2.526,4.942,5.866,5.229,10.177c0.213,3.209,0.522,7.229,2.468,9.347c5.483,5.978,10.542,11.549,10.319,20.577
		c-0.064,2.602,3.04,6.179,5.635,7.776c7.279,4.482,4.601,12.009,6.369,18.104c1.96,6.755,11.282,7.629,11.767,15.345
		c0.084,1.329,0.144,2.66,0.245,3.987c0.871,11.465,14.104,17.706,12.791,30.184c-0.101,0.958,1.472,2.113,2.315,3.139
		c0.421,0.511,0.867,1.121,1.439,1.37c6.331,2.75,8.01,7.726,8.368,14.344c0.554,10.263,10.376,14.896,15.665,22.284
		c3.503,4.895,7.521,8.541,7.864,15.275c0.171,3.385,3.301,7.079,5.951,9.798c10.602,10.877,21.571,21.393,32.348,32.101
		c18.843,18.723,37.91,37.233,56.327,56.368c7.021,7.293,17.162,12.915,16.596,25.653c-0.119,2.701,2.748,5.912,4.912,8.27
		c7.597,8.279,15.4,16.374,23.29,24.376c8.705,8.829,19.399,16.219,20.241,30.372c0.101,1.698,1.825,3.514,3.185,4.891
		c12.528,12.682,25.093,25.327,37.786,37.844c1.829,1.803,4.567,4.269,6.588,4.02c9.665-1.188,14.436,5.905,19.97,11.245
		c14.299,13.797,28.12,28.088,42.292,42.018c9.458,9.297,18.979,18.557,28.944,27.295c2.71,2.378,7.041,3.328,10.793,3.98
		c4,0.696,7.281,1.444,10.448,4.641c9.056,9.143,15.783,22.015,31.66,21.36c1.342-0.056,3.056,2.355,4.147,3.932
		c3.729,5.387,8.686,7.841,15.271,7.745c2.524-0.037,6.159,0.398,7.412,2.045c5.227,6.871,11.574,10.507,20.322,10.733
		c2.028,0.052,4.263,2.882,5.909,4.848c3.705,4.427,8.265,6.141,13.977,6.417c2.978,0.144,6.434,1.485,8.691,3.428
		c8.03,6.91,16.431,13.649,23.168,21.724c5.851,7.013,11.197,12.728,21.166,12.587c2.696-0.039,5.769,2.854,8.087,5.024
		c3.874,3.625,7.329,7.705,10.866,11.679c3.195,3.589,6.739,6.833,11.813,6.519c6.89-0.428,10.75,3.624,15.06,8.061
		c2.541,2.615,6.715,4.871,10.253,5.026c6.606,0.292,11.39,2.497,15.276,7.76c4.15,5.622,11.366,3.021,16.467,5.464
		c5.708,2.736,9.906,9.726,15.636,11.032c6.848,1.563,11.582,5.788,17.316,8.173c10.753,4.47,21.602,8.245,30.946,15.492
		c1.309,1.016,4.065-0.063,5.845,0.622c2.925,1.127,6.489,2.236,8.21,4.531c4.998,6.667,11.396,8.503,19.246,8.053
		c4.583-0.263,9.219,0.384,13.089,0.584c13.637,13.059,9.58,10.904,26.84,11.31c5.996,0.14,12.029-0.282,17.979,0.267
		c3.096,0.285,7.163,1.25,8.865,3.42c6.34,8.075,14.818,7.664,23.593,7.717c15.22,0.091,30.496-0.827,46.347,0.702
		c4.019,11.006,12.309,13.549,22.566,12.671c5.292-0.453,10.66,0.039,15.988-0.094c6.193-0.151,11.863,0.516,15.991,6.064
		c4.113,5.525,10.342,5.276,16.397,5.267c16.633-0.027,33.266-0.01,50.268-0.01c6.272,10.878,15.741,12.927,27.225,12.884
		c91.976-0.344,183.954-0.391,275.928,0.055c11.703,0.055,20.56-3.063,26.895-12.93c15.249,0,29.927-0.602,44.528,0.192
		c11.42,0.621,20.959-1.867,28.16-11.509c8.287,0,16.297-0.437,24.239,0.107C2744.108,3229.193,2753.261,3227.278,2757.827,3214.969
		z"/>
	<path fill-rule="evenodd" clip-rule="evenodd" d="M2757.827,3214.969c-4.566,12.31-13.719,14.225-24.534,13.482
		c-7.942-0.544-15.952-0.107-24.239-0.107c-7.201,9.642-16.74,12.13-28.16,11.509c-14.602-0.794-29.279-0.192-44.528-0.192
		c-6.335,9.866-15.191,12.984-26.895,12.93c-91.974-0.445-183.952-0.398-275.928-0.055c-11.484,0.043-20.953-2.006-27.225-12.884
		c-17.002,0-33.635-0.018-50.268,0.01c-6.056,0.01-12.285,0.259-16.397-5.267c-4.128-5.549-9.798-6.216-15.991-6.064
		c-5.328,0.133-10.696-0.359-15.988,0.094c-10.257,0.878-18.547-1.665-22.566-12.671c-15.851-1.529-31.127-0.611-46.347-0.702
		c-8.774-0.053-17.252,0.358-23.593-7.717c-1.703-2.17-5.77-3.135-8.865-3.42c-5.95-0.549-11.983-0.127-17.979-0.267
		c-17.26-0.405-13.204,1.749-26.84-11.31c-3.871-0.2-8.506-0.847-13.089-0.584c-7.85,0.45-14.248-1.386-19.246-8.053
		c-1.721-2.295-5.285-3.404-8.21-4.531c-1.78-0.685-4.536,0.394-5.845-0.622c-9.345-7.247-20.193-11.022-30.946-15.492
		c-5.735-2.385-10.469-6.609-17.316-8.173c-5.729-1.307-9.927-8.296-15.636-11.032c-5.101-2.443-12.317,0.158-16.467-5.464
		c-3.886-5.263-8.67-7.468-15.276-7.76c-3.539-0.155-7.713-2.411-10.253-5.026c-4.309-4.437-8.17-8.488-15.06-8.061
		c-5.074,0.314-8.618-2.93-11.813-6.519c-3.537-3.974-6.992-8.054-10.866-11.679c-2.318-2.17-5.391-5.063-8.087-5.024
		c-9.969,0.141-15.314-5.574-21.166-12.587c-6.737-8.074-15.138-14.813-23.168-21.724c-2.257-1.942-5.714-3.284-8.691-3.428
		c-5.712-0.276-10.272-1.99-13.977-6.417c-1.646-1.966-3.88-4.796-5.909-4.848c-8.749-0.227-15.096-3.862-20.322-10.733
		c-1.253-1.646-4.887-2.082-7.412-2.045c-6.585,0.096-11.542-2.358-15.271-7.745c-1.091-1.576-2.805-3.987-4.147-3.932
		c-15.877,0.654-22.604-12.218-31.66-21.36c-3.167-3.196-6.449-3.944-10.448-4.641c-3.752-0.652-8.083-1.603-10.793-3.98
		c-9.964-8.738-19.486-17.998-28.944-27.295c-14.172-13.93-27.992-28.221-42.292-42.018c-5.534-5.34-10.305-12.433-19.97-11.245
		c-2.021,0.249-4.759-2.217-6.588-4.02c-12.693-12.517-25.258-25.162-37.786-37.844c-1.36-1.377-3.084-3.192-3.185-4.891
		c-0.842-14.153-11.536-21.543-20.241-30.372c-7.89-8.002-15.693-16.097-23.29-24.376c-2.164-2.357-5.031-5.568-4.912-8.27
		c0.566-12.738-9.575-18.36-16.596-25.653c-18.417-19.135-37.483-37.646-56.327-56.368c-10.776-10.708-21.746-21.224-32.348-32.101
		c-2.65-2.719-5.78-6.413-5.951-9.798c-0.343-6.734-4.361-10.381-7.864-15.275c-5.289-7.389-15.111-12.021-15.665-22.284
		c-0.358-6.618-2.037-11.594-8.368-14.344c-0.572-0.249-1.019-0.859-1.439-1.37c-0.843-1.025-2.416-2.181-2.315-3.139
		c1.313-12.478-11.919-18.719-12.791-30.184c-0.102-1.327-0.161-2.658-0.245-3.987c-0.485-7.716-9.807-8.59-11.767-15.345
		c-1.769-6.095,0.91-13.621-6.369-18.104c-2.596-1.598-5.7-5.175-5.635-7.776c0.223-9.028-4.835-14.6-10.319-20.577
		c-1.945-2.118-2.255-6.138-2.468-9.347c-0.286-4.311-1.671-7.65-5.229-10.177c-5.125-3.639-8.136-8.283-8.674-14.936
		c-0.294-3.63-2.237-7.603-4.59-10.476c-3.071-3.749-5.802-7.309-5.569-12.33c0.251-5.427-2.962-8.416-7.054-11.124
		c-3.998-2.644-7.471-6.157-7.209-11.284c0.372-7.29-3.524-12.023-7.443-17.603c-3.557-5.063-3.035-12.908-6.382-18.223
		c-3.439-5.461-9.564-9.091-9.739-16.696c-0.056-2.405-1.165-5.973-2.933-6.956c-11.027-6.137-9.79-16.416-9.737-26.407
		c0.014-2.646,0.002-5.293,0.002-8.559c-5.13-6.367-13.658-11.047-12.599-21.362c0.192-1.877-2.427-4.516-4.349-6.045
		c-5.002-3.98-7.909-8.584-7.901-15.278c0.003-3.05-0.976-7.213-3.088-8.957c-7.674-6.338-8.725-14.418-8.087-23.388
		c0.234-3.293,0.037-6.615,0.037-9.815c-5.798-6.823-13.597-11.922-12.496-22.152c0.21-1.956-2.516-4.362-4.156-6.337
		c-1.258-1.517-3.713-2.408-4.293-4.052c-2.154-6.096-2.697-13.001-5.855-18.436c-3.173-5.458-10.604-8.337-9.869-16.348
		c0.12-1.31,0.351-3.005-0.306-3.927c-3.734-5.24-8.48-9.906-11.409-15.534c-2.896-5.566,0.264-13.397-6.774-17.897
		c-5.61-3.586-6.543-9.619-6.383-15.908c0.152-5.993-0.105-11.998,0.019-17.993c0.114-5.51-0.434-10.63-5.201-14.378
		c-5.259-4.133-6.088-9.91-5.964-16.149c0.174-8.642,0.044-17.289,0.044-25.298c-4.333-5.229-9.427-9.219-11.439-14.404
		c-2.055-5.302-1.392-11.775-1.395-17.735c-0.059-134.633-0.046-269.266-0.045-403.897c0-0.667-0.003-1.333,0.001-2
		c0.107-17.365,0.107-17.365,12.865-30.279c0-24.424-0.003-49.724,0.003-75.025c0.001-4.665-0.262-9.358,0.163-13.986
		c0.293-3.191,0.532-7.56,2.571-9.216c9.128-7.417,8.515-17.235,8.458-27.305c-0.107-18.952,0.055-18.953,11.947-33.105
		c0-3.681-0.049-8.32,0.02-12.958c0.039-2.659-0.651-5.898,0.591-7.859c3.448-5.444,8.684-9.902,11.41-15.61
		c2.431-5.088-0.366-12.359,5.333-16.464c5.321-3.832,7.379-8.618,7.855-15.146c0.441-6.039,1.279-5.977,12.329-16.6
		c0-4.155-0.057-9.436,0.023-14.715c0.04-2.657-0.529-5.811,0.668-7.871c3.26-5.604,8.542-10.297,10.692-16.199
		c1.959-5.382,0.741-11.669,5.842-16.356c2.714-2.494,5.397-6.393,5.685-9.858c0.547-6.575,3.153-11.125,8.083-15.226
		c2.288-1.904,4.816-5.497,4.587-8.091c-0.844-9.577,5.789-14.387,12.413-21.122c0-4.28,0.223-9.574-0.058-14.843
		c-0.342-6.446,1.401-11.873,6.729-15.731c4.031-2.92,6.22-6.448,6.364-11.659c0.087-3.154,0.817-7.305,2.902-9.197
		c6.309-5.725,9.693-12.192,9.8-20.79c0.027-2.229,2.307-4.764,4.13-6.576c6.106-6.071,12.474-11.879,19.84-18.823
		c1.431-5.987-0.272-14.84,7.693-20.134c1.451-0.965,2.988-3.439,2.785-4.996c-1.688-12.936,8.133-18.644,15.599-25.986
		c5.194-5.108,9.715-10.902,14.948-15.965c4.406-4.263,8.51-8.162,7.941-15.153c-0.415-5.108,3.526-8.171,6.907-11.525
		c15.988-15.858,31.637-32.062,47.733-47.808c3.54-3.462,6.383-6.587,6.002-11.778c-0.439-6.004,3.218-9.681,7.27-13.443
		c15.514-14.409,30.944-28.896,44.352-45.398c4.169-5.131,9.066-9.74,14.009-14.164c20.75-18.575,40.744-37.816,59.35-58.643
		c7.024-7.862,14.465-17.857,27.672-17.632c2.201,0.037,4.817-2.046,6.605-3.798c8.525-8.352,16.741-17.019,25.264-25.373
		c2.779-2.724,6.114-6.789,9.267-6.856c8.878-0.19,14.908-3.916,20.131-10.599c1.373-1.755,4.73-2.73,7.174-2.728
		c6.432,0.005,11.663-1.66,15.422-7.237c4.471-6.634,12.506-3.38,18.211-6.249c5.718-2.874,7.796-11.581,15.595-11.208
		c6.908,0.33,11.059-3.323,15.351-7.72c4.164-4.265,8.218-9.089,13.301-11.883c5.546-3.048,12.763-3.093,18.238-6.221
		c4.88-2.787,6.905-10.233,13.901-10.199c5.857,0.029,10.326-1.889,13.594-6.715c4.488-6.626,12.373-3.813,18.038-6.523
		c5.702-2.728,9.789-9.923,15.502-11.271c7.384-1.744,13.658-3.21,18.924-9.268c2.175-2.502,7.219-2.485,10.935-3.686
		c3.086-0.999,7.231-1.192,9.01-3.325c6.494-7.784,14.914-7.777,23.695-7.483c2.646,0.089,5.305-0.211,8.433-0.354
		c6.252-6.495,12.557-13.22,19.088-19.717c1.833-1.823,4.473-4.404,6.499-4.201c11.159,1.117,15.756-8.488,24.41-14.324
		c4.102,0,9.406-0.084,14.705,0.023c5.492,0.111,10.619-0.309,14.249-5.344c4.404-6.107,10.884-6.928,17.823-6.697
		c8.67,0.288,16.984,0.49,23.816-7.208c2.463-2.776,8.587-3.006,13.081-3.146c12.627-0.394,25.275-0.138,37.076-0.138
		c4.752-5.352,8.678-9.772,12.599-14.188c10.322,0,19.634,0.254,28.921-0.123c3.798-0.153,9.061-0.408,11.042-2.791
		c7.558-9.087,17.381-8.584,27.411-8.489c1.953,0.019,3.912-0.496,7.082-0.931c5.306-10.263,15-12.647,26.422-11.746
		c7.269,0.573,14.62,0.107,22.525,0.107c6.893-11.227,17.451-12.521,29.41-12.189c23.309,0.645,46.649,0.087,69.977,0.244
		c6.875,0.047,13.211-0.314,17.712-6.614c2.921-4.088,7.319-5.493,12.281-5.395c3.998,0.079,7.998-0.041,11.997-0.042
		c121.302-0.003,242.604-0.003,363.907-0.003c1.999,0,4.024,0.209,5.994-0.031c10.144-1.237,18.436,1.677,23.599,11.213
		c5.835,0.291,11.092,0.763,16.352,0.78c24.66,0.087,49.321,0.044,73.981,0.059c5.333,0.003,11.188-0.639,14.735,4.267
		c4.923,6.805,11.452,8.257,19.189,7.771c5.31-0.333,10.662,0.082,15.989-0.063c5.597-0.152,11.204,0.594,14.104,5.68
		c4.15,7.277,10.629,7.272,17.354,6.957c8.938-0.42,17.098,0.375,23.502,8.006c1.776,2.116,5.863,2.791,9.001,3.151
		c4.608,0.528,9.315,0.174,13.981,0.206c17.125,0.119,17.125,0.121,29.87,14.154c11.521,0,24.146-0.349,36.735,0.17
		c5.098,0.211,11.838,0.707,14.819,3.893c6.561,7.009,14.159,6.475,22.085,6.45c6.104-0.019,12.514-0.194,16.255,5.498
		c4.498,6.843,11.036,6.815,17.737,6.458c8.41-0.446,15.905,0.74,21.004,8.459c1.038,1.572,2.813,3.775,4.265,3.789
		c18.504,0.173,26.282,16.078,39.496,26.454c3.442,0,8.093,0.107,12.734-0.027c6.209-0.179,11.579,0.99,16.316,5.765
		c2.547,2.567,6.769,4.44,10.396,4.753c6.43,0.553,11.154,3.041,15.703,7.492c2.564,2.511,6.775,3.425,10.347,4.788
		c1.824,0.696,4.525,0.123,5.719,1.275c7.629,7.355,16.939,10.986,26.535,15.111c6.794,2.92,11.657,10.292,20.676,9.333
		c1.671-0.178,4.247,1.095,5.21,2.511c4.876,7.172,11.262,10.442,20.042,10.483c2.688,0.013,5.596,3.199,7.984,5.387
		c4.4,4.029,8.279,8.643,12.799,12.52c2.366,2.031,5.614,4.207,8.492,4.244c7.381,0.098,12.878,2.656,16.676,8.947
		c0.336,0.557,0.745,1.306,1.276,1.474c6.175,1.955,13.001,2.774,18.404,5.991c5.483,3.266,8.877,9.993,16.862,8.772
		c1.827-0.279,4.313,0.173,5.713,1.28c6.566,5.192,11.459,13.185,21.535,12.135c6.048,5.141,12.104,10.272,18.143,15.424
		c7.093,6.05,14.171,12.117,23.54,20.131c7.081-1.13,14.123,5.472,21.459,12.785c25.321,25.241,51.298,49.824,76.654,75.03
		c16.906,16.805,33.264,34.167,49.647,51.488c2.143,2.264,4.147,5.752,4.179,8.695c0.072,6.798,3.832,10.572,8.271,14.939
		c15.618,15.362,30.753,31.218,45.999,46.957c2.276,2.349,6.044,5.169,5.922,7.611c-0.671,13.433,10.8,18.973,17.207,27.622
		c3.87,5.225,9.598,9.072,14.475,13.557c1.466,1.35,3.039,2.631,4.28,4.17c5.079,6.304-0.055,16.347,8.037,21.685
		c7.298,4.813,5.008,13.175,6.787,20.321c4.772,4.382,9.212,9.487,14.625,13.156c6.087,4.126,9.429,8.938,9.415,16.362
		c-0.004,2.488,0.615,5.94,2.291,7.299c6.691,5.427,10.346,11.78,10.063,20.639c-0.064,2.023,2.427,4.67,4.408,6.117
		c6.544,4.78,9.245,10.935,8.694,18.968c-0.557,8.113-0.388,16.146,7.72,21.266c1.053,0.666,2.301,2.042,2.342,3.131
		c0.408,11.065,8.33,19.03,11.5,28.707c1.961,5.983,3.963,10.577,8.552,14.784c2.701,2.476,5.076,6.582,5.364,10.135
		c0.52,6.418,2.295,11.501,7.459,15.513c3.986,3.095,5.011,7.654,4.96,12.529c-0.056,5.316-0.013,10.633-0.013,16.33
		c5.748,6.953,14.718,12.035,13.479,23.066c-0.224,1.996,2.11,4.796,3.97,6.407c4.804,4.156,7.84,8.798,7.654,15.46
		c-0.07,2.493,0.481,6.289,2.124,7.336c11.911,7.602,9.505,19.466,9.882,30.575c0.045,1.298,0.502,2.583,0.768,3.875
		c11.618,12.063,11.618,12.063,11.719,29.6c0.026,4.666-0.504,9.423,0.252,13.967c0.614,3.689,1.849,8.15,4.428,10.464
		c6.28,5.636,6.743,12.468,6.694,19.967c-0.138,21.327-0.045,42.656-0.044,63.984c0,6.645,0,13.29,0,20.696
		c10.756,6.884,12.241,17.208,12.212,29.238c-0.34,135.298-0.225,270.598-0.196,405.896c0.002,10.013,1.149,20.183-9.213,26.816
		c-1.718,1.1-2.362,4.682-2.559,7.19c-0.413,5.303-0.683,10.702-0.146,15.975c1.157,11.358-1.689,20.982-11.433,28.027
		c0,8.414,0.04,16.388-0.02,24.36c-0.024,3.324,0.843,7.287-0.631,9.841c-3.214,5.572-9.121,9.905-11.217,15.721
		c-2.168,6.019-0.753,13.366-7.064,17.781c-4.2,2.938-5.647,6.921-5.872,11.944c-0.143,3.167-0.679,7.442-2.751,9.19
		c-6.592,5.563-10.244,11.96-9.646,20.647c0.042,0.61-0.182,1.511-0.614,1.842c-9.411,7.204-9.915,19.815-16.585,28.043
		c-5.699,7.028-7.576,13.598-7.086,21.679c0.475,7.85-1.353,14.477-8.144,19.188c-1.604,1.113-4.19,2.723-4.136,4.013
		c0.451,10.806-8.728,17.844-10.69,26.822c-2.036,9.318-7.364,15.194-13.076,21.721c0,4.923-0.249,9.579,0.056,14.197
		c0.519,7.859-1.522,14.272-8.149,19.234c-2.387,1.786-4.929,5.083-5.067,7.811c-0.338,6.61-3.226,11.165-7.842,15.503
		c-2.188,2.055-4.215,5.541-4.239,8.397c-0.063,7.384-2.702,12.797-8.802,16.847c-1.536,1.019-3.595,2.968-3.53,4.404
		c0.462,10.268-4.672,17.549-11.828,23.928c2.5,13.897-14.2,20.729-12.621,34.287c-3.958,5.129-8.856,9.808-11.591,15.521
		c-2.43,5.081,0.174,12.151-5.431,16.44c-5.021,3.845-8.101,8.423-7.722,15.204c0.131,2.34-1.15,5.649-2.937,7.046
		c-6.709,5.245-10.372,11.498-10.244,20.243c0.032,2.173-2.206,5.053-4.208,6.452c-5.565,3.891-6.971,9.111-7.276,15.487
		c-0.145,3.006-1.793,6.67-3.992,8.697c-4.733,4.358-7.104,9.128-7.436,15.61c-0.149,2.917-2.2,6.628-4.571,8.356
		c-5.302,3.864-7.755,8.293-8.045,14.949c-0.153,3.52-2.691,7.327-5.063,10.272c-4.136,5.136-8.99,9.692-13.512,14.521
		c-1.789,1.913-4.749,3.738-5.036,5.89c-2.235,16.746-15.322,25.531-25.874,36.137c-15.91,15.991-32.021,31.782-47.982,47.722
		c-10.767,10.75-21.504,21.532-32.067,32.479c-2.163,2.242-4.914,5.263-4.953,7.957c-0.116,8.191-4.359,12.91-10.043,18.274
		c-12.484,11.781-23.802,24.803-35.521,37.388c-1.313,1.41-3.107,3.299-3.053,4.909c0.484,14.269-12.307,19.643-19.29,28.752
		c-4.786,6.244-11.925,10.642-17.065,16.674c-5.354,6.282-10.103,12.325-19.612,11.586c-2.153-0.168-4.919,1.857-6.71,3.59
		c-14.317,13.842-28.513,27.813-42.656,41.834c-8.927,8.85-17.648,17.905-26.558,26.771c-7.118,7.081-13.795,15.205-23.092,15.306
		c-5.955,4.322-12.427,8.103-17.705,13.134c-4.532,4.318-8.658,7.757-15.338,7.946c-2.816,0.08-5.705,2.495-8.285,4.253
		c-1.595,1.086-2.651,2.949-3.981,4.436c-5.12,5.723-13.385,1.464-18.607,5.499c-5.145,3.976-8.412,10.319-16.274,10.282
		c-3.137-0.015-7.406,0.418-9.211,2.412c-5.681,6.277-11.725,10.436-20.641,10.031c-2.037-0.092-4.464,2.395-6.262,4.153
		c-6.179,6.044-12.391,12.083-18.15,18.519c-6.644,7.423-12.191,16.303-24.246,14.59c-5.192,4.028-10.73,7.69-15.485,12.182
		c-5.784,5.463-10.392,12.416-19.768,11.845c-1.2-0.074-2.95,0.483-3.62,1.372c-5.953,7.896-13.35,12.471-23.649,12.286
		c-1.988-0.035-4.681,2.686-5.936,4.795c-5.096,8.563-15.648,3.567-21.35,8.662c-5.476,4.894-9.319,11.063-18.043,10.665
		c-2.85-0.13-6.399,1.859-8.62,3.949c-4.547,4.279-9.08,7.329-15.737,7.402c-2.823,0.03-6.167,2.26-8.307,4.438
		c-4.41,4.489-8.943,7.499-15.629,7.505c-2.864,0.003-6.832,1.788-8.386,4.066c-5.305,7.788-12.711,8.885-21.034,8.34
		c-6.856-0.448-13.22,0.12-17.667,6.568c-3.396,4.924-8.745,5.523-14.285,5.43c-6.662-0.113-13.33-0.008-19.994,0.009
		c-6.065,0.016-11.899,0.06-16.086,5.896c-3.943,5.497-10.195,5.46-16.316,5.425
		C2792.151,3214.908,2776.167,3214.969,2757.827,3214.969z"/>
</g>
</svg>
