<?xml version="1.0" encoding="utf-8"?>
<!-- Generator: Adobe Illustrator 16.0.2, SVG Export Plug-In . SVG Version: 6.00 Build 0)  -->
<!DOCTYPE svg PUBLIC "-//W3C//DTD SVG 1.1//EN" "http://www.w3.org/Graphics/SVG/1.1/DTD/svg11.dtd">
<svg version="1.1" id="Layer_1" xmlns="http://www.w3.org/2000/svg" xmlns:xlink="http://www.w3.org/1999/xlink" x="0px" y="0px"
	 width="888.481px" height="948.962px" viewBox="0 0 888.481 948.962" enable-background="new 0 0 888.481 948.962"
	 xml:space="preserve">
<g>
	<path fill-rule="evenodd" clip-rule="evenodd" fill="#FFFFFF" d="M888.935,949.895c-296.17,0-592.312,0-888.428,0
		c0-316.489,0-632.952,0-949.388c296.17,0,592.313,0,888.428,0C888.935,316.997,888.935,633.459,888.935,949.895z M580.944,909.843
		c0.744,0.71,1.253,1.107,1.654,1.594c2.228,2.698,5.188,4.264,8.455,5.177c3.834,1.071,7.724,1.961,11.619,2.787
		c7.274,1.544,14.64,2.435,22.073,2.686c6.226,0.21,12.438,0.492,18.567,1.74c6.024,1.227,12.069,2.244,18.245,2.444
		c4.673,0.152,9.148,1.566,13.443,3.243c5.046,1.971,9.888,4.463,14.827,6.711c4.538,2.065,9.295,3.699,14.253,3.806
		c7.332,0.157,14.688,0.522,22.017-0.623c8.099-1.267,15.973-2.905,22.936-7.677c4.86-3.331,9.315-7.1,13.026-11.59
		c3.747-4.534,5.917-10.014,7.362-15.707c0.505-1.988,0.724-4.087,0.782-6.144c0.101-3.507,0.403-7.091-0.154-10.517
		c-1.015-6.239-4.598-11.335-8.573-16.076c-4.631-5.523-10.677-9.345-16.625-13.235c-2.771-1.813-5.904-2.956-9.226-3.047
		c-7.031-0.192-14.068-0.193-21.104-0.228c-0.945-0.005-1.931,0.129-2.83,0.411c-3.346,1.053-6.765,1.96-9.962,3.364
		c-3.342,1.468-6.702,2.531-10.346,2.677c-0.237,0.009-0.471,0.098-0.709,0.115c-2.539,0.183-5.105,0.665-7.613,0.456
		c-2.922-0.244-5.82-0.99-8.68-1.711c-2.605-0.657-5.01-1.836-6.854-3.236c0.702-1.945,1.591-3.597,1.854-5.343
		c0.318-2.113,0.138-4.308,0.1-6.466c-0.008-0.428-0.256-0.939-0.557-1.258c-1.265-1.335-2.531-2.682-3.925-3.875
		c-0.545-0.466-1.441-0.773-2.155-0.736c-1.384,0.073-2.188-0.506-2.958-1.571c-2.336-3.232-4.856-6.333-7.138-9.602
		c-4.384-6.283-8.814-12.545-12.927-19.005c-4.802-7.542-9.254-15.307-13.914-22.939c-5.371-8.798-10.646-17.657-15.124-26.943
		c-4.299-8.915-8.396-17.931-12.412-26.979c-4.888-11.012-9.813-22.019-13.033-33.682c-2.185-7.917-4.763-15.731-6.17-23.849
		c-0.105-0.607-0.318-1.331-0.101-1.838c0.868-2.021,1.887-3.978,2.938-6.138c3.89,2.534,7.747,4.688,11.196,7.369
		c7.005,5.446,14.807,9.4,22.825,13.025c5.486,2.479,10.548,5.619,15.186,9.499c2.988,2.501,6.235,4.694,9.401,6.978
		c3.56,2.567,7.173,5.061,10.731,7.628c1.36,0.98,2.674,2.034,3.943,3.129c5.084,4.388,11.136,7.124,17.017,10.184
		c2.921,1.519,5.846,2.174,9.145,2.254c3.366,0.081,6.11-0.895,8.57-2.967c1.28-1.078,2.479-2.268,3.599-3.511
		c0.445-0.494,0.796-1.267,0.813-1.922c0.085-3.427,0.311-6.889-0.617-10.241c-1.957-7.067-3.943-14.128-6.017-21.162
		c-2.007-6.81-4.256-13.55-6.186-20.38c-2.992-10.595-5.728-21.257-9.444-31.642c-2.633-7.355-5.065-14.79-7.335-22.266
		c-5.584-18.396-10.763-36.919-16.617-55.227c-3.374-10.55-7.704-20.798-11.683-31.151c-4.267-11.102-8.627-22.166-12.938-33.251
		c-0.229-0.587-0.616-1.251-0.517-1.805c0.633-3.547,0.747-7.041-0.608-10.201c3.4-1.011,6.677-1.981,9.953-2.959
		c2.671-0.797,5.304-1.765,8.018-2.366c5.12-1.137,9.968-2.815,14.289-5.879c2.734-1.939,5.466-3.909,8.354-5.599
		c4.322-2.528,8.088-5.663,11.564-9.247c6.868-7.082,11.366-15.375,13.113-25.088c1.212-6.738,2.396-13.488,3.312-20.271
		c0.596-4.411,0.948-8.889,0.955-13.338c0.021-13.817,0.474-27.647-0.751-41.444c-0.269-3.018-0.356-6.058-0.753-9.058
		c-0.812-6.156-1.655-12.313-2.707-18.431c-1.42-8.261-3.291-16.445-6.069-24.354c-2.297-6.54-5.104-12.901-7.682-19.343
		c-2.849-7.121-6.996-13.423-12.036-19.169c-0.449-0.513-0.832-1.085-1.22-1.597c2.132-2.143,4.212-4.033,6.043-6.138
		c1.45-1.666,2.762-3.504,3.841-5.43c2.056-3.664,2.445-7.721,2.164-11.837c-0.182-2.654,0.231-5.029,2.12-7.074
		c0.742-0.803,1.218-1.873,1.73-2.864c2.171-4.191,4.326-8.433,4.624-13.232c0.236-3.818,0.244-7.672,0.024-11.491
		c-0.146-2.518-0.664-5.062-2.017-7.31c-2.306-3.834-5.697-6.652-8.99-9.554c-0.398-0.351-0.985-0.534-1.517-0.678
		c-3.514-0.956-7.036-1.88-10.837-2.889c0-0.309,0.005-0.935-0.002-1.56c-0.007-0.639,0.051-1.292-0.052-1.916
		c-1.492-9.073-6.798-15.107-15.157-18.475c-5.352-2.156-11.042-2.362-16.756-2.207c-4.311,0.117-8.358,1.092-12.139,3.174
		c-3.762,2.072-6.695,5.126-9.788,8.027c-6.401,6.003-9.568,13.651-11.337,21.973c-0.624,2.936-0.651,6.009-0.824,9.026
		c-0.111,1.948-0.381,3.762-1.942,5.193c-1.875-1.625-2.909-3.467-2.606-6.031c0.186-1.568,0.142-3.218-0.126-4.775
		c-0.89-5.185-3.437-9.748-5.684-14.414c-0.235-0.489-0.749-0.837-1.024-1.313c-0.549-0.945-1.261-1.883-1.482-2.915
		c-0.832-3.876-1.493-7.789-2.268-11.948c0.206-0.225,0.627-0.699,1.063-1.159c2.063-2.171,3.377-4.613,3.023-7.748
		c-0.124-1.106-0.032-2.238-0.018-3.358c0.06-4.486-0.157-8.935-1.675-13.222c-0.103-0.29-0.14-0.62-0.129-0.929
		c0.111-3.03,0.198-6.061,0.373-9.087c0.176-3.034-0.727-5.705-2.658-7.991c-2.83-3.352-5.58-6.798-8.687-9.878
		c-1.961-1.944-3.364-3.684-2.289-6.544c0.217-0.576,0.16-1.265,0.176-1.902c0.116-4.629,0.251-9.258,0.316-13.888
		c0.054-3.84-0.444-7.614-1.328-11.363c-2.427-10.292-8.172-18.109-17.418-23.194c-3.765-2.07-7.689-3.969-11.739-5.375
		c-8.611-2.989-17.372-5.49-26.672-4.859c-0.797,0.054-1.608-0.071-2.398,0.02c-4.354,0.5-8.743,0.833-13.046,1.628
		c-4.102,0.757-7.646,3.125-11.473,4.698c-2.346,0.964-4.249,2.475-5.94,4.322c-0.746,0.815-1.568,1.56-2.436,2.415
		c-0.624-0.445-1.143-0.792-1.636-1.17c-1.835-1.408-3.599-2.919-5.506-4.222c-3.243-2.214-6.636-4.064-10.641-4.691
		c-4.844-0.758-9.701-0.967-14.57-0.754c-2.668,0.117-5.159,0.93-7.001,3.147c-0.958,1.153-2.131,2.127-3.19,3.167
		c-0.795-0.372-1.453-0.662-2.095-0.982c-5.705-2.852-11.683-4.806-18.081-5.143c-5.34-0.281-10.692-0.354-16.039-0.505
		c-7.747-0.22-14.866,2.125-21.466,5.865c-9.368,5.308-16.126,13.195-20.947,22.753c-1.619,3.21-3.039,6.548-3.29,10.192
		c-0.235,3.42-0.232,6.856-0.36,10.285c-0.17,4.545,1.154,8.651,3.583,12.444c0.72,1.124,1.438,2.249,2.149,3.363
		c-1.034,1.113-2.024,2.053-2.871,3.108c-6.608,8.24-10.352,17.527-10.221,28.215c0.02,1.6,0.053,3.202-0.009,4.799
		c-0.082,2.108,0.581,3.897,1.95,5.497c3.943,4.608,7.604,9.467,12.128,13.554c2.843,2.568,5.91,4.638,9.966,4.558
		c0.225-0.004,0.452,0.127,0.928,0.271c0,0.813-0.035,1.678,0.006,2.539c0.209,4.381,0.197,8.792,0.744,13.132
		c0.374,2.965-0.064,5.402-1.711,7.896c-2.431,3.679-4.21,7.719-4.923,12.113c-0.341,2.107-0.346,4.269-0.498,6.332
		c-0.106,0.132-0.143,0.223-0.208,0.251c-0.364,0.161-0.733,0.309-1.103,0.457c-4.912,1.973-9.729,4.172-13.608,7.863
		c-3.349,3.186-6.467,6.615-9.689,9.934c-3.535,3.643-5.833,7.952-6.95,12.896c-0.248,1.097-0.85,1.691-1.971,2.093
		c-8.44,3.02-16.417,7.037-24.292,11.297c-21.391,11.572-40.02,26.645-56.056,44.832c-12.006,13.616-22.604,28.318-31.36,44.275
		c-1.227,2.236-2.398,4.521-3.359,6.879c-2.08,5.098-4.061,10.239-5.981,15.399c-2.179,5.854-3.716,11.876-4,18.144
		c-0.262,5.807-0.765,11.649,1.434,17.297c-1.812,1.203-2.091,2.842-1.935,4.701c0.107,1.271-0.018,2.56,0.041,3.837
		c0.024,0.529,0.099,1.192,0.422,1.549c1.692,1.865,3.235,4.03,6.327,3.391c3.216-0.665,5.665,0.582,7.632,3.138
		c0.547,0.711,1.443,1.374,2.297,1.588c3.088,0.771,6.206,1.46,9.348,1.963c6.787,1.086,13.526,0.375,20.249-0.747
		c3.825-0.638,7.673-1.139,11.659-1.723c0.143,2.997-0.076,5.666-0.606,8.332c-0.653,3.283-1.185,6.59-1.815,9.877
		c-0.916,4.771-1.772,9.558-2.851,14.293c-0.596,2.618-2.047,4.96-4.259,6.478c-4.541,3.115-9.101,6.28-14.315,8.192
		c-2.372,0.869-4.17,2.347-5.713,4.187c-0.882,1.052-2.069,2.007-2.008,3.65c0.062,1.678-0.167,3.385,0.072,5.03
		c0.186,1.279,0.595,2.758,1.429,3.665c1.827,1.985,3.829,3.898,6.047,5.419c3.881,2.661,8.029,4.929,11.977,7.498
		c6.226,4.052,12.389,8.2,18.556,12.341c3.639,2.443,7.235,4.949,10.73,7.345c0,5.55-0.089,10.904,0.037,16.253
		c0.065,2.778,0.231,5.611,0.837,8.311c1.763,7.854,3.761,15.655,5.686,23.473c1.529,6.21,3.371,12.32,5.98,18.173
		c3.445,7.729,6.958,15.426,10.379,23.164c2.877,6.508,5.81,12.991,10.036,18.757c1.69,2.305,3.682,4.405,5.671,6.468
		c1.058,1.097,2.477,1.636,4.098,1.632c3.267-0.006,6.566,0.287,9.57-1.897c0.093,3.082,2.179,4.556,4.139,5.722
		c1.009,0.601,1.755,1.193,2.373,2.094c9.665,14.089,19.234,28.245,29.023,42.247c8.694,12.437,17.642,24.695,26.46,37.045
		c5.012,7.019,10.215,13.913,14.937,21.122c12.428,18.975,24.637,38.091,36.936,57.15c3.421,5.301,6.873,10.583,10.27,15.899
		c5.859,9.174,10.676,18.918,15.554,28.626c0.925,1.84,1.688,3.761,2.552,5.705c-1.24,1.26-2.327,2.414-3.468,3.513
		c-2.412,2.324-4.845,4.627-7.286,6.921c-0.573,0.539-1.195,1.032-1.827,1.504c-1.205,0.897-2.421,1.78-3.655,2.637
		c-0.639,0.442-1.28,1.037-1.997,1.182c-4.138,0.834-8.251,0.922-12.196-0.921c-3.905-1.824-7.834-3.6-11.695-5.511
		c-3.438-1.702-7.031-2.554-10.856-2.529c-3.44,0.022-6.882-0.071-10.319,0.022c-5.413,0.147-10.408,1.818-14.682,5.084
		c-3.351,2.561-6.37,5.561-9.489,8.418c-3.497,3.204-5.194,7.377-6.26,11.885c-1.098,4.646-0.7,9.366-0.829,14.064
		c-0.06,2.196,0.056,4.41,0.958,6.347c2.253,4.839,4.765,9.557,7.181,14.319c0.107,0.21,0.28,0.39,0.438,0.569
		c4.145,4.703,8.747,8.676,14.501,11.51c9.901,4.876,20.338,6.93,31.215,7.229c5.756,0.158,11.52,0.052,17.279,0.013
		c1.511-0.011,3.057-0.047,4.524-0.36c7.199-1.538,14.493-2.369,21.814-2.905c7.636-0.561,15.291-0.857,22.935-1.322
		c3.898-0.237,7.806-0.464,11.682-0.923c4.354-0.517,8.665-1.391,13.018-1.93c5.936-0.734,11.896-1.262,17.838-1.949
		c3.483-0.403,6.938-1.154,10.43-1.377c5.284-0.337,10.482-1.104,15.574-2.483c3.342-0.903,6.323-2.553,8.859-5.016
		c1.859-1.805,3.398-3.801,4.661-6.044C579.748,911.617,580.3,910.845,580.944,909.843z M646.094,126.065
		c1.019,0.94,2.112,2.39,4.006,2.675c0.266,0.04,0.548,0.334,0.718,0.583c2.063,3.026,4.444,5.867,5.658,9.397
		c1.038,3.018,1.98,6.068,3.041,9.077c1.301,3.69,5.238,6.489,9.104,6.565c0.399,0.008,0.81-0.056,1.198,0.011
		c3.318,0.572,5.678-0.8,7.909-3.223c1.588-1.725,2.328-3.464,2.359-5.699c0.101-7.018,1.788-13.728,4.026-20.324
		c0.52-1.53,1.313-2.875,2.552-3.984c0.552-0.493,1.144-1.275,1.18-1.955c0.197-3.738,0.188-7.486-0.496-11.189
		c-0.096-0.517-0.402-1.082-0.781-1.446c-2.23-2.142-3.545-4.909-5.109-7.487c-3.004-4.95-5.022-10.297-6.18-15.988
		c-0.259-1.271-0.762-2.798-1.685-3.565c-2.283-1.897-3.042-4.134-2.646-6.944c0.077-0.549-0.064-1.13,0.024-1.676
		c0.317-1.933-0.479-3.425-1.864-4.622c-2.716-2.343-5.369-4.785-8.267-6.885c-2.634-1.908-4.854-4.049-6.568-6.835
		c-3.026-4.921-5.297-10.194-7.554-15.477c-2.559-5.989-4.435-12.157-3.887-18.777c0.177-2.135-0.707-3.514-2.097-5.001
		c-1.612-1.725-3.319-2.578-5.649-2.258c-0.707,0.097-1.445,0.083-2.155,0c-1.49-0.172-2.887,0.14-3.994,1.079
		c-1.681,1.423-3.715,2.667-4.339,4.938c-2.454,8.925-4.821,17.872-9.173,26.129c-3.049,5.786-5.878,11.736-11.763,15.35
		c-0.337,0.207-0.639,0.477-0.942,0.734c-5.061,4.28-5.06,4.28-5.038,10.954c0.001,0.32-0.009,0.64,0.003,0.959
		c0.066,1.806,0.586,3.333,1.989,4.658c2.268,2.139,4.481,4.304,7.073,6.079c2.236,1.532,4.261,3.331,5.733,5.686
		c2.389,3.821,5.451,7.076,8.695,10.179c0.857,0.82,1.627,1.759,2.311,2.732c3.751,5.336,5.041,11.551,5.681,17.816
		c0.39,3.82,2.662,5.997,5.107,8.264c0.391,0.363,1.189,0.377,1.804,0.392c1.918,0.047,3.845,0.119,5.754-0.018
		C643.108,126.877,644.358,126.448,646.094,126.065z M282.958,239.049c1.522,0,2.484,0.038,3.441-0.007
		c3.306-0.155,7.218-3.476,7.806-6.721c0.268-1.48,0.47-3.012,0.401-4.506c-0.204-4.432,0.431-8.771,1.441-13.038
		c2.681-11.313,7.047-22.008,12.33-32.33c1.262-2.465,2.679-4.945,4.484-7.017c3.095-3.551,2.709-2.267,2.958-7.353
		c0.154-3.148-0.778-5.474-3.119-7.575c-6.119-5.494-10.728-12.204-14.922-19.217c-4.201-7.024-7.229-14.575-9.906-22.271
		c-0.431-1.237-0.405-2.668-0.412-4.01c-0.011-2.198-0.848-3.897-2.285-5.582c-1.947-2.283-4.15-3.319-7.108-2.868
		c-0.781,0.119-1.602,0.078-2.395,0.005c-1.486-0.136-2.636,0.402-3.585,1.52c-0.464,0.547-0.973,1.07-1.526,1.525
		c-1.215,0.999-1.701,2.388-1.639,3.815c0.177,4.049-0.683,7.921-1.624,11.805c-1.031,4.256-1.748,8.603-3.014,12.786
		c-2.005,6.622-5.524,12.537-9.401,18.225c-1.609,2.362-3.87,4.133-6.414,5.238c-2.928,1.271-4.914,3.483-7.015,5.658
		c-1.291,1.335-1.811,2.974-1.845,4.783c-0.032,1.679-0.125,3.37,0.041,5.032c0.088,0.879,0.545,1.798,1.066,2.537
		c0.59,0.837,1.445,1.484,2.171,2.228c1.062,1.089,2.196,1.909,3.721,2.44c2.965,1.034,5.399,2.825,7.197,5.61
		c5.079,7.868,9.527,16.062,13.418,24.569c2.458,5.375,4.782,10.812,6.163,16.572c0.472,1.97,1.458,3.47,2.727,4.935
		C278.086,238.117,280.172,240.005,282.958,239.049z"/>
	<path fill-rule="evenodd" clip-rule="evenodd" d="M580.944,909.843c-0.645,1.002-1.196,1.774-1.659,2.598
		c-1.263,2.243-2.802,4.239-4.661,6.044c-2.536,2.463-5.518,4.112-8.859,5.016c-5.092,1.379-10.29,2.146-15.574,2.483
		c-3.491,0.223-6.946,0.974-10.43,1.377c-5.941,0.688-11.902,1.215-17.838,1.949c-4.353,0.539-8.664,1.413-13.018,1.93
		c-3.876,0.459-7.783,0.686-11.682,0.923c-7.644,0.465-15.299,0.762-22.935,1.322c-7.321,0.536-14.615,1.367-21.814,2.905
		c-1.468,0.313-3.014,0.35-4.524,0.36c-5.759,0.039-11.523,0.146-17.279-0.013c-10.876-0.299-21.314-2.353-31.215-7.229
		c-5.754-2.834-10.357-6.807-14.501-11.51c-0.159-0.18-0.332-0.359-0.438-0.569c-2.416-4.763-4.928-9.48-7.181-14.319
		c-0.902-1.937-1.018-4.15-0.958-6.347c0.129-4.698-0.269-9.418,0.829-14.064c1.065-4.508,2.763-8.681,6.26-11.885
		c3.119-2.857,6.138-5.857,9.489-8.418c4.274-3.266,9.269-4.937,14.682-5.084c3.438-0.094,6.879,0,10.319-0.022
		c3.825-0.024,7.418,0.827,10.856,2.529c3.861,1.911,7.791,3.687,11.695,5.511c3.945,1.843,8.059,1.755,12.196,0.921
		c0.717-0.145,1.358-0.739,1.997-1.182c1.234-0.856,2.45-1.739,3.655-2.637c0.632-0.472,1.254-0.965,1.827-1.504
		c2.441-2.294,4.874-4.597,7.286-6.921c1.141-1.099,2.228-2.253,3.468-3.513c-0.864-1.944-1.627-3.865-2.552-5.705
		c-4.878-9.708-9.694-19.452-15.554-28.626c-3.396-5.316-6.849-10.599-10.27-15.899c-12.299-19.06-24.508-38.176-36.936-57.15
		c-4.722-7.209-9.925-14.104-14.937-21.122c-8.818-12.35-17.766-24.608-26.46-37.045c-9.789-14.002-19.358-28.158-29.023-42.247
		c-0.618-0.9-1.364-1.493-2.373-2.094c-1.959-1.166-4.046-2.64-4.139-5.722c-3.004,2.185-6.304,1.892-9.57,1.897
		c-1.621,0.004-3.041-0.535-4.098-1.632c-1.989-2.063-3.981-4.163-5.671-6.468c-4.227-5.766-7.159-12.249-10.036-18.757
		c-3.421-7.738-6.934-15.436-10.379-23.164c-2.609-5.853-4.452-11.963-5.98-18.173c-1.924-7.817-3.922-15.619-5.686-23.473
		c-0.606-2.699-0.771-5.532-0.837-8.311c-0.126-5.349-0.037-10.703-0.037-16.253c-3.495-2.396-7.091-4.901-10.73-7.345
		c-6.167-4.141-12.33-8.289-18.556-12.341c-3.947-2.569-8.095-4.837-11.977-7.498c-2.219-1.521-4.22-3.434-6.047-5.419
		c-0.834-0.907-1.244-2.386-1.429-3.665c-0.239-1.646-0.01-3.353-0.072-5.03c-0.061-1.644,1.126-2.599,2.008-3.65
		c1.542-1.839,3.341-3.317,5.713-4.187c5.215-1.912,9.775-5.078,14.315-8.192c2.212-1.517,3.663-3.859,4.259-6.478
		c1.078-4.735,1.935-9.522,2.851-14.293c0.63-3.288,1.162-6.594,1.815-9.877c0.53-2.666,0.749-5.335,0.606-8.332
		c-3.986,0.584-7.833,1.084-11.659,1.723c-6.723,1.122-13.462,1.833-20.249,0.747c-3.142-0.503-6.26-1.192-9.348-1.963
		c-0.854-0.214-1.75-0.877-2.297-1.588c-1.967-2.556-4.417-3.803-7.632-3.138c-3.092,0.64-4.635-1.525-6.327-3.391
		c-0.323-0.356-0.398-1.02-0.422-1.549c-0.059-1.277,0.066-2.566-0.041-3.837c-0.156-1.858,0.124-3.498,1.935-4.701
		c-2.199-5.648-1.696-11.49-1.434-17.297c0.283-6.268,1.821-12.291,4-18.144c1.92-5.161,3.901-10.301,5.981-15.399
		c0.961-2.358,2.132-4.643,3.359-6.879c8.756-15.957,19.354-30.659,31.36-44.275c16.036-18.187,34.665-33.26,56.056-44.832
		c7.875-4.26,15.852-8.277,24.292-11.297c1.122-0.401,1.724-0.996,1.971-2.093c1.117-4.944,3.416-9.253,6.95-12.896
		c3.222-3.319,6.34-6.748,9.689-9.934c3.879-3.691,8.696-5.89,13.608-7.863c0.369-0.148,0.739-0.296,1.103-0.457
		c0.064-0.028,0.102-0.12,0.208-0.251c0.152-2.063,0.157-4.225,0.498-6.332c0.712-4.394,2.492-8.434,4.923-12.113
		c1.647-2.494,2.085-4.931,1.711-7.896c-0.547-4.34-0.535-8.751-0.744-13.132c-0.041-0.861-0.006-1.726-0.006-2.539
		c-0.476-0.144-0.703-0.275-0.928-0.271c-4.057,0.08-7.124-1.989-9.966-4.558c-4.524-4.087-8.186-8.946-12.128-13.554
		c-1.369-1.599-2.031-3.388-1.95-5.497c0.062-1.597,0.029-3.199,0.009-4.799c-0.131-10.688,3.613-19.975,10.221-28.215
		c0.847-1.055,1.837-1.995,2.871-3.108c-0.711-1.114-1.43-2.239-2.149-3.363c-2.428-3.793-3.753-7.899-3.583-12.444
		c0.128-3.429,0.125-6.865,0.36-10.285c0.251-3.644,1.67-6.982,3.29-10.192c4.821-9.559,11.579-17.445,20.947-22.753
		c6.6-3.74,13.719-6.085,21.466-5.865c5.347,0.152,10.699,0.225,16.039,0.505c6.398,0.337,12.376,2.291,18.081,5.143
		c0.642,0.321,1.3,0.61,2.095,0.982c1.059-1.039,2.231-2.014,3.19-3.167c1.843-2.217,4.333-3.03,7.001-3.147
		c4.869-0.213,9.726-0.004,14.57,0.754c4.005,0.627,7.397,2.477,10.641,4.691c1.907,1.302,3.671,2.813,5.506,4.222
		c0.493,0.379,1.012,0.726,1.636,1.17c0.867-0.855,1.689-1.6,2.436-2.415c1.691-1.847,3.595-3.358,5.94-4.322
		c3.826-1.573,7.371-3.941,11.473-4.698c4.303-0.794,8.691-1.128,13.046-1.628c0.79-0.091,1.602,0.034,2.398-0.02
		c9.3-0.631,18.061,1.87,26.672,4.859c4.05,1.406,7.975,3.304,11.739,5.375c9.246,5.085,14.991,12.902,17.418,23.194
		c0.884,3.749,1.382,7.523,1.328,11.363c-0.065,4.63-0.2,9.259-0.316,13.888c-0.016,0.638,0.041,1.327-0.176,1.902
		c-1.075,2.861,0.328,4.601,2.289,6.544c3.106,3.08,5.856,6.526,8.687,9.878c1.932,2.286,2.834,4.958,2.658,7.991
		c-0.175,3.026-0.262,6.058-0.373,9.087c-0.011,0.309,0.026,0.639,0.129,0.929c1.518,4.287,1.734,8.736,1.675,13.222
		c-0.015,1.12-0.106,2.252,0.018,3.358c0.354,3.135-0.961,5.577-3.023,7.748c-0.437,0.459-0.857,0.934-1.063,1.159
		c0.774,4.159,1.436,8.072,2.268,11.948c0.222,1.032,0.934,1.969,1.482,2.915c0.275,0.476,0.789,0.824,1.024,1.313
		c2.247,4.666,4.794,9.229,5.684,14.414c0.268,1.557,0.312,3.208,0.126,4.775c-0.303,2.564,0.731,4.406,2.606,6.031
		c1.562-1.431,1.831-3.246,1.942-5.193c0.173-3.018,0.2-6.091,0.824-9.026c1.769-8.322,4.936-15.969,11.337-21.973
		c3.093-2.9,6.026-5.955,9.788-8.027c3.78-2.082,7.828-3.057,12.139-3.174c5.714-0.155,11.404,0.051,16.756,2.207
		c8.359,3.368,13.665,9.402,15.157,18.475c0.103,0.625,0.045,1.277,0.052,1.916c0.007,0.625,0.002,1.251,0.002,1.56
		c3.801,1.009,7.323,1.933,10.837,2.889c0.531,0.144,1.118,0.328,1.517,0.678c3.293,2.902,6.685,5.72,8.99,9.554
		c1.353,2.248,1.871,4.792,2.017,7.31c0.22,3.819,0.212,7.673-0.024,11.491c-0.298,4.799-2.453,9.041-4.624,13.232
		c-0.513,0.991-0.988,2.061-1.73,2.864c-1.889,2.045-2.302,4.419-2.12,7.074c0.281,4.116-0.108,8.173-2.164,11.837
		c-1.079,1.926-2.391,3.764-3.841,5.43c-1.831,2.105-3.911,3.995-6.043,6.138c0.388,0.511,0.771,1.083,1.22,1.597
		c5.04,5.746,9.188,12.048,12.036,19.169c2.577,6.442,5.385,12.803,7.682,19.343c2.778,7.908,4.649,16.093,6.069,24.354
		c1.052,6.118,1.896,12.274,2.707,18.431c0.396,3,0.484,6.04,0.753,9.058c1.225,13.797,0.772,27.627,0.751,41.444
		c-0.007,4.449-0.359,8.927-0.955,13.338c-0.916,6.782-2.1,13.532-3.312,20.271c-1.747,9.714-6.245,18.007-13.113,25.088
		c-3.477,3.583-7.242,6.718-11.564,9.247c-2.888,1.69-5.619,3.66-8.354,5.599c-4.321,3.063-9.169,4.742-14.289,5.879
		c-2.714,0.602-5.347,1.569-8.018,2.366c-3.276,0.978-6.553,1.948-9.953,2.959c1.355,3.16,1.241,6.654,0.608,10.201
		c-0.1,0.554,0.288,1.218,0.517,1.805c4.311,11.085,8.671,22.149,12.938,33.251c3.979,10.354,8.309,20.602,11.683,31.151
		c5.854,18.308,11.033,36.831,16.617,55.227c2.27,7.476,4.702,14.91,7.335,22.266c3.717,10.385,6.452,21.047,9.444,31.642
		c1.93,6.83,4.179,13.57,6.186,20.38c2.073,7.034,4.06,14.095,6.017,21.162c0.928,3.353,0.702,6.814,0.617,10.241
		c-0.017,0.655-0.367,1.428-0.813,1.922c-1.119,1.243-2.318,2.433-3.599,3.511c-2.46,2.072-5.204,3.048-8.57,2.967
		c-3.299-0.08-6.224-0.735-9.145-2.254c-5.881-3.06-11.933-5.796-17.017-10.184c-1.27-1.095-2.583-2.148-3.943-3.129
		c-3.559-2.567-7.172-5.061-10.731-7.628c-3.166-2.283-6.413-4.477-9.401-6.978c-4.638-3.88-9.699-7.02-15.186-9.499
		c-8.019-3.625-15.82-7.579-22.825-13.025c-3.449-2.681-7.307-4.835-11.196-7.369c-1.051,2.16-2.069,4.116-2.938,6.138
		c-0.218,0.507-0.005,1.23,0.101,1.838c1.407,8.117,3.985,15.932,6.17,23.849c3.22,11.663,8.146,22.67,13.033,33.682
		c4.016,9.048,8.113,18.063,12.412,26.979c4.478,9.286,9.753,18.146,15.124,26.943c4.66,7.633,9.112,15.397,13.914,22.939
		c4.112,6.46,8.543,12.722,12.927,19.005c2.281,3.269,4.802,6.369,7.138,9.602c0.771,1.065,1.574,1.645,2.958,1.571
		c0.714-0.037,1.61,0.271,2.155,0.736c1.394,1.193,2.66,2.54,3.925,3.875c0.301,0.318,0.549,0.83,0.557,1.258
		c0.038,2.158,0.219,4.353-0.1,6.466c-0.264,1.746-1.152,3.397-1.854,5.343c1.844,1.4,4.248,2.579,6.854,3.236
		c2.859,0.721,5.758,1.467,8.68,1.711c2.508,0.209,5.074-0.273,7.613-0.456c0.238-0.018,0.472-0.106,0.709-0.115
		c3.644-0.146,7.004-1.209,10.346-2.677c3.197-1.404,6.616-2.312,9.962-3.364c0.899-0.282,1.885-0.416,2.83-0.411
		c7.035,0.034,14.072,0.035,21.104,0.228c3.321,0.091,6.454,1.233,9.226,3.047c5.948,3.891,11.994,7.712,16.625,13.235
		c3.976,4.741,7.559,9.837,8.573,16.076c0.558,3.426,0.255,7.01,0.154,10.517c-0.059,2.057-0.277,4.155-0.782,6.144
		c-1.445,5.693-3.615,11.173-7.362,15.707c-3.711,4.49-8.166,8.259-13.026,11.59c-6.963,4.771-14.837,6.41-22.936,7.677
		c-7.328,1.146-14.685,0.78-22.017,0.623c-4.958-0.106-9.715-1.74-14.253-3.806c-4.939-2.248-9.781-4.74-14.827-6.711
		c-4.295-1.677-8.771-3.091-13.443-3.243c-6.176-0.2-12.221-1.218-18.245-2.444c-6.129-1.248-12.342-1.53-18.567-1.74
		c-7.434-0.251-14.799-1.142-22.073-2.686c-3.896-0.826-7.785-1.716-11.619-2.787c-3.267-0.913-6.228-2.479-8.455-5.177
		C582.197,910.95,581.688,910.553,580.944,909.843z"/>
	<path fill-rule="evenodd" clip-rule="evenodd" d="M646.094,126.065c-1.735,0.383-2.985,0.813-4.261,0.904
		c-1.909,0.136-3.836,0.064-5.754,0.018c-0.614-0.015-1.413-0.029-1.804-0.392c-2.445-2.268-4.718-4.444-5.107-8.264
		c-0.64-6.265-1.93-12.48-5.681-17.816c-0.684-0.973-1.453-1.912-2.311-2.732c-3.244-3.103-6.307-6.357-8.695-10.179
		c-1.473-2.354-3.497-4.153-5.733-5.686c-2.592-1.775-4.806-3.94-7.073-6.079c-1.403-1.324-1.923-2.852-1.989-4.658
		c-0.012-0.32-0.002-0.64-0.003-0.959c-0.021-6.673-0.022-6.674,5.038-10.954c0.304-0.257,0.605-0.527,0.942-0.734
		c5.885-3.613,8.714-9.563,11.763-15.35c4.352-8.258,6.719-17.205,9.173-26.129c0.624-2.271,2.658-3.514,4.339-4.938
		c1.107-0.938,2.504-1.25,3.994-1.079c0.71,0.082,1.448,0.096,2.155,0c2.33-0.32,4.037,0.533,5.649,2.258
		c1.39,1.487,2.273,2.866,2.097,5.001c-0.548,6.62,1.328,12.788,3.887,18.777c2.257,5.283,4.527,10.556,7.554,15.477
		c1.715,2.787,3.935,4.927,6.568,6.835c2.897,2.1,5.551,4.542,8.267,6.885c1.386,1.196,2.182,2.688,1.864,4.622
		c-0.089,0.545,0.053,1.127-0.024,1.676c-0.396,2.811,0.363,5.047,2.646,6.944c0.923,0.767,1.426,2.294,1.685,3.565
		c1.157,5.691,3.176,11.039,6.18,15.988c1.564,2.578,2.879,5.345,5.109,7.487c0.379,0.365,0.686,0.929,0.781,1.446
		c0.685,3.703,0.693,7.451,0.496,11.189c-0.036,0.68-0.628,1.462-1.18,1.955c-1.238,1.108-2.032,2.454-2.552,3.984
		c-2.238,6.596-3.926,13.307-4.026,20.324c-0.031,2.235-0.771,3.974-2.359,5.699c-2.231,2.423-4.591,3.794-7.909,3.223
		c-0.389-0.067-0.799-0.003-1.198-0.011c-3.866-0.076-7.804-2.875-9.104-6.565c-1.061-3.009-2.003-6.06-3.041-9.077
		c-1.214-3.53-3.596-6.371-5.658-9.397c-0.17-0.249-0.452-0.543-0.718-0.583C648.206,128.455,647.112,127.005,646.094,126.065z
		 M654.747,94.065c-0.153-0.053-0.306-0.106-0.458-0.159c-0.841,2.452-1.681,4.904-2.521,7.357
		C653.5,99.122,654.35,96.673,654.747,94.065z"/>
	<path fill-rule="evenodd" clip-rule="evenodd" d="M282.958,239.049c-2.786,0.956-4.872-0.932-6.843-3.209
		c-1.268-1.465-2.254-2.964-2.727-4.935c-1.381-5.76-3.704-11.197-6.163-16.572c-3.892-8.507-8.34-16.701-13.418-24.569
		c-1.798-2.786-4.232-4.576-7.197-5.61c-1.525-0.531-2.659-1.352-3.721-2.44c-0.726-0.744-1.581-1.391-2.171-2.228
		c-0.521-0.739-0.978-1.658-1.066-2.537c-0.167-1.662-0.073-3.354-0.041-5.032c0.034-1.809,0.554-3.448,1.845-4.783
		c2.102-2.175,4.087-4.386,7.015-5.658c2.543-1.104,4.805-2.876,6.414-5.238c3.876-5.688,7.396-11.604,9.401-18.225
		c1.267-4.183,1.983-8.529,3.014-12.786c0.941-3.884,1.801-7.756,1.624-11.805c-0.062-1.427,0.424-2.816,1.639-3.815
		c0.553-0.455,1.062-0.978,1.526-1.525c0.949-1.118,2.099-1.656,3.585-1.52c0.793,0.072,1.614,0.114,2.395-0.005
		c2.958-0.451,5.161,0.585,7.108,2.868c1.437,1.684,2.273,3.383,2.285,5.582c0.007,1.342-0.019,2.772,0.412,4.01
		c2.676,7.696,5.705,15.247,9.906,22.271c4.194,7.013,8.803,13.724,14.922,19.217c2.341,2.102,3.273,4.427,3.119,7.575
		c-0.249,5.086,0.137,3.801-2.958,7.353c-1.805,2.072-3.222,4.552-4.484,7.017c-5.283,10.322-9.649,21.017-12.33,32.33
		c-1.011,4.268-1.645,8.606-1.441,13.038c0.069,1.494-0.133,3.025-0.401,4.506c-0.587,3.245-4.5,6.566-7.806,6.721
		C285.442,239.087,284.48,239.049,282.958,239.049z"/>
	<path fill-rule="evenodd" clip-rule="evenodd" fill="#FFFFFF" d="M654.747,94.065c-0.397,2.607-1.247,5.057-2.979,7.198
		c0.841-2.453,1.681-4.905,2.521-7.357C654.441,93.959,654.594,94.013,654.747,94.065z"/>
</g>
</svg>
