<?xml version="1.0" encoding="utf-8"?>
<!-- Generator: Adobe Illustrator 16.0.2, SVG Export Plug-In . SVG Version: 6.00 Build 0)  -->
<!DOCTYPE svg PUBLIC "-//W3C//DTD SVG 1.1 Tiny//EN" "http://www.w3.org/Graphics/SVG/1.1/DTD/svg11-tiny.dtd">
<svg version="1.1" baseProfile="tiny" id="Layer_1" xmlns="http://www.w3.org/2000/svg" xmlns:xlink="http://www.w3.org/1999/xlink"
	 x="0px" y="0px" width="4173.479px" height="3493.563px" viewBox="0 0 4173.479 3493.563" xml:space="preserve">
<g>
	<path fill-rule="evenodd" fill="#FFFFFF" d="M4177.479,3497.563c-1391.826,0-2783.653,0-4175.479,0C2,2332.376,2,1167.187,2,2
		c1391.826,0,2783.652,0,4175.479,0C4177.479,1167.187,4177.479,2332.376,4177.479,3497.563z M2764.154,1727.858
		c-0.109-0.345-0.22-0.689-0.33-1.034c1.345-0.77,2.62-1.71,4.044-2.284c37.302-15.027,74.636-29.976,111.927-45.029
		c23.404-9.447,47.541-17.167,69.614-29.76c30.746-17.542,60.484-36.377,84.435-63.039c8.362-9.31,15.746-19.015,16.072-32.221
		c0.525-21.283,0.741-42.576,1.448-63.854c0.286-8.613-1.8-16.424-5.83-23.828c-11.373-20.894-27.323-37.455-47.499-50.023
		c-2.51-1.563-5.067-3.331-6.97-5.548c-14.817-17.27-31.865-31.906-50.244-45.33c-20.324-14.844-42.056-26.735-65.227-36.339
		c-7.277-3.018-14.345-6.823-20.953-11.122c-30.354-19.746-60.333-40.072-90.802-59.637c-21.269-13.658-43.147-26.363-64.689-39.599
		c-19.259-11.833-38.24-24.134-57.752-35.532c-5.945-3.473-9.358-7.761-11.634-13.922c-3.564-9.646-6.79-19.576-11.729-28.519
		c-8.512-15.409-18.878-29.799-27.311-45.247c-18.53-33.949-43.092-63.088-70.287-90.162c-19.32-19.234-39.1-38.012-58.808-56.853
		c-6.823-6.523-14.842-11.482-24.178-13.233c-8.109-1.52-16.441-1.846-24.669-2.756c-36.242-4.009-72.505-2.676-108.542,1.511
		c-19.592,2.276-37.264-2.755-53.77-10.961c-22.38-11.126-42.565-25.957-59.783-44.491c-11.101-11.948-22.815-23.321-34.003-35.191
		c-8.357-8.868-17.994-15.703-29.092-20.679c-8.193-3.674-16.04-8.177-24.372-11.473c-5.761-2.279-12.039-4.123-18.168-4.414
		c-13.634-0.649-27.366-0.906-40.974-0.034c-19.581,1.256-39.249,3.435-57.16,12.234c-15.781,7.753-31.391,15.988-46.454,25.046
		c-24.78,14.9-49.04,30.667-73.577,45.977c-2.537,1.583-5.462,2.543-8.208,3.792c-0.551-0.622-1.103-1.243-1.655-1.864
		c12.653-8.828,16.341-22.289,19.888-35.827c4.711-17.979,13.887-33.679,24.743-48.534c6.108-8.357,13.86-14.461,24.081-16.591
		c14.617-3.048,29.255-6.184,44.028-8.249c14.267-1.995,27.164-5.63,36.581-17.618c3.043-3.876,5.211-7.516,5.095-12.508
		c-0.155-6.661-0.48-13.368,0.094-19.985c0.548-6.304-1.706-10.67-6.252-14.784c-4.476-4.05-9.222-8.081-13.24-14.385
		c4.918,0,8.244-0.209,11.534,0.045c5.939,0.458,10.876-0.621,15.105-5.559c1.795-2.094,5.739-2.813,8.831-3.231
		c5.913-0.8,11.944-0.708,17.866-1.456c2.516-0.318,5.413-1.24,7.217-2.892c4.897-4.486,10.084-8.993,13.678-14.464
		c3.539-5.389,7.415-11.967,7.427-18.031c0.064-33.985,4.443-23.741-13.534-53.387c-1.726-2.844-3.343-5.77-5.275-8.469
		c-8.714-12.174-17.169-24.556-26.425-36.308c-5.725-7.268-7.397-14.122-3.971-22.966c3.335-8.612,6.201-17.623,7.58-26.715
		c1.479-9.75,4.708-18.511,9.42-26.977c8.113-14.581,17.242-28.521,29.659-39.728c19.736-17.811,39.963-35.084,60.105-52.442
		c18.867-16.258,18.938-16.176,18.8-41.427c-0.001-0.333-0.043-0.673,0.006-0.999c0.818-5.439-1.896-9.081-5.266-13.159
		c-6.984-8.447-15.23-12.279-26.112-10.716c-2.939,0.423-5.995,0.182-8.989,0.042c-7.769-0.363-14.896,1.61-22.336,3.948
		c-8.682,2.728-18.389,4.582-27.316,3.638c-19.122-2.023-38.058-5.929-56.988-9.491c-2.831-0.533-5.546-3.056-7.764-5.223
		c-7.619-7.445-14.593-15.606-22.631-22.546c-4.09-3.532-9.721-5.714-15.016-7.325c-10.935-3.329-22.644-2.633-33.545-7.395
		c-9.319-4.07-20.668-3.976-29.379-8.841c-13.43-7.499-27.397-15.493-33.654-31.238c-3.676-9.252-7.694-18.375-11.212-27.686
		c-1.005-2.661-1.612-5.96-1.013-8.658c3.912-17.569,11.157-33.901,18.322-49.154c5.55-1.148,11.14-0.689,14.233-3.248
		c9.383-7.766,19.54-15.804,16.042-30.6c-0.149-0.631-0.114-1.345-0.005-1.993c2.874-17.03-3.077-30.086-16.719-40.636
		c-5.343-4.131-10.354-6.788-17.042-6.669c-9.33,0.166-18.681,0.395-27.991-0.072c-7.298-0.367-13.963,1.537-20.142,4.712
		c-10.362,5.324-20.217,11.56-28.393,20.068c-7.814,8.134-15.63,16.267-23.352,24.303c-7.324-0.512-14.536-1.016-21.838-1.525
		c-1.483-5.846-2.75-11.361-4.306-16.794c-1.092-3.82-1.609-8.386-4.05-11.142c-12.219-13.791-24.862-27.263-45.868-25.555
		c-3.973,0.323-8.024,0.355-11.987-0.029c-5.303-0.515-10.083,0.866-14.003,4.048c-6.176,5.013-11.856,10.633-17.819,15.913
		c-5.018,4.443-7.504,10.016-8.062,16.622c-1.2,14.202-2.215,28.428-3.814,42.587c-1.825,16.157-2.82,32.588-6.654,48.296
		c-6.23,25.519-16.001,49.021-42.485,61.469c-21.979,10.332-43.918,20.386-67.692,25.783c-5.157,1.171-10.572,2.611-15.713,2.161
		c-10.9-0.954-21.66-3.422-32.55-4.611c-9.826-1.073-16.276-6.497-21.88-14.019c-7.931-10.646-16.304-20.962-24.421-31.472
		c-2.439-3.158-4.739-6.432-6.951-9.753c-3.413-5.127-7.712-10.055-2.564-16.725c0.992-1.285,0.325-3.889,0.333-5.886
		c0.025-6.666-0.347-13.356,0.113-19.99c0.432-6.228-2.32-10.365-6.128-14.999c-8.486-10.329-18.35-15.898-31.981-13.389
		c-6.102,1.124-10.775-1.143-14.789-5.965c-6.335-7.61-14.441-11.424-24.675-10.081c-3.603,0.474-7.352-0.213-10.979,0.163
		c-3.157,0.328-7.044,0.477-9.184,2.339c-4.956,4.314-9.049,9.618-13.491,14.52c0.744,12.163-2.779,24.623,2.561,36.466
		c5.786,12.833,9.807,25.856,8.733,40.381c-1.878,25.395,5.132,48.566,19.036,69.908c6.159,9.455,11.173,19.654,16.775,29.475
		c2.591,4.541,4.714,9.549,8.129,13.384c16.78,18.843,34.028,37.122,48.399,58.136c17.91,26.187,34.35,52.974,46.367,82.38
		c1.659,4.062,3.375,7.556-0.161,11.906c-7.015,8.631-8.7,18.943-8.859,29.937c-0.214,14.869-1.497,29.724-2.307,44.335
		c-15.415,6.549-30.424,12.722-45.262,19.28c-20.088,8.877-40.496,16.813-61.701,22.636c-5.763,1.582-11.587,3.164-17.077,5.475
		c-33.388,14.056-66.686,28.322-100.013,42.52c-6.368,2.713-12.733,5.438-19.08,8.149c-4.385-5.19-8.064-10.393-12.577-14.729
		c-15.115-14.523-30.415-28.859-45.864-43.027c-11.024-10.109-21.601-20.975-33.777-29.504
		c-29.686-20.795-59.85-40.963-90.534-60.25c-11.389-7.159-24.433-12.182-37.306-16.389c-29.042-9.489-59.083-12.837-89.618-11.448
		c-15.332,0.697-30.437,2.808-44.873,8.272c-5.787,2.19-11.377,4.896-17.327,7.483c-6.067-12.705-15.859-21.271-26.016-29.348
		c-6.504-5.172-13.585-9.953-22.173-10.765c-5.958-0.563-9.496-3.772-12.843-8.22c-14.769-19.617-30.352-38.659-47.877-55.806
		c-14.396-14.086-31.943-23.452-53.937-26.98c-2.38-10.971-5.236-22.809-7.427-34.769c-1.13-6.166-0.833-12.579-1.604-18.829
		c-3.449-27.934-14.747-51.678-37.885-68.692c-3.879-2.853-8.595-5.399-13.248-6.2c-10.115-1.739-20.422-2.526-30.683-3.22
		c-17.229-1.166-34.481-2.628-51.727-2.672c-11.875-0.03-23.825,1.34-35.206,5.839c-14.838,5.868-29.733,11.672-44.886,16.641
		c-20.767,6.812-39.941,16.33-57.345,29.615c-4.666,3.562-10.359,5.782-15.589,8.602c-9.024,4.867-19.125,8.442-26.828,14.885
		c-11.172,9.343-21.162,20.291-30.628,31.427c-8.19,9.635-13.656,20.433-12.839,34.345c0.821,13.981,1.985,27.685,4.843,41.454
		c5.417,26.092,11.735,51.849,21.745,76.596c4.738,11.716,9.373,23.484,14.515,35.025c2.23,5.004,1.821,8.487-2.233,12.342
		c-3.321,3.159-5.84,7.227-8.415,11.09c-8.664,13-17.21,26.08-25.772,39.148c-18.608,28.404-36.574,57.054-47.97,89.44
		c-9.929,28.215-21.217,55.953-31.992,83.868c-3.228,8.36-7.465,16.395-10.005,24.945c-8.8,29.623-17.604,59.267-25.303,89.187
		c-4.206,16.346-6.317,33.241-9.129,49.929c-1.757,10.427-1.667,21.373-4.83,31.315c-10.055,31.61-14.785,64.101-16.172,96.941
		c-1.897,44.9,0.146,89.811,3.849,134.605c2.214,26.781,4.286,53.59,7.372,80.276c3.086,26.699,5.7,53.627,11.483,79.801
		c9.31,42.138,21.05,83.739,31.771,125.565c6.649,25.939,16.905,50.498,30.172,73.631c12.073,21.053,24.854,41.76,38.448,61.859
		c9.091,13.443,19.407,26.244,30.463,38.134c37.52,40.351,80.188,74.907,124.753,107.034c24.821,17.896,50.596,34.53,76.519,50.815
		c23.356,14.672,47.315,28.418,71.357,41.952c16.5,9.288,33.953,16.899,50.354,26.344c33.746,19.429,68.167,37.508,103.074,54.741
		c42.332,20.899,84.381,42.369,126.627,63.444c33.326,16.626,66.55,33.476,100.207,49.406
		c37.556,17.777,74.617,36.796,114.323,49.646c39.52,12.791,78.929,25.953,118.668,38.019c15.497,4.705,32.128,5.69,47.604,10.447
		c24.242,7.451,48.679,13.43,73.904,15.792c16.997,1.592,33.931,1.602,49.79-6.48c18.867-9.613,39.38-13.889,59.899-18.083
		c25.082-5.127,50.288-9.716,75.223-15.477c35.642-8.234,71.005-17.679,106.651-25.899c19.451-4.486,38.806-8.947,57.682-15.641
		c17.85-6.33,23.863-3.891,35.478,11.287c0.405,0.529,0.82,1.052,1.214,1.589c10.405,14.248,20.334,28.879,31.355,42.634
		c9.544,11.912,20.612,22.59,30.507,34.239c22.159,26.086,44.238,52.249,65.85,78.789c7.086,8.701,13.931,18.05,18.645,28.149
		c15.723,33.684,38.048,62.394,64.152,88.366c19.329,19.229,38.803,38.349,58.955,56.702c8.74,7.96,18.59,15.655,29.321,20.196
		c10.094,4.271,21.947,5.057,33.138,5.931c28.976,2.263,56.939-3.924,84.498-12.045c8.249-2.431,16.753-4.899,24.181-9.061
		c45.268-25.363,90.564-50.702,135.247-77.073c36.096-21.306,71.378-43.996,106.951-66.183c26.825-16.73,53.595-33.55,80.278-50.504
		c11.499-7.307,23.188-14.44,33.975-22.717c26.905-20.643,53.508-41.688,79.915-62.963c24.062-19.385,47.95-39,69.875-60.869
		c4.931-4.919,10.69-9.007,15.632-13.918c2.757-2.738,5.495-3.176,8.934-2.453c9.107,1.914,18.446,3.052,27.305,5.763
		c29.533,9.035,59.683,16.021,88.472,27.566c16.657,6.68,33.85,12.048,50.87,17.799c16.922,5.718,33.904,11.257,50.926,16.67
		c2.791,0.889,5.909,0.939,8.886,1.008c6.329,0.144,12.664,0.1,18.996,0.03c7.502-0.083,15.349,1.516,21.56-4.825
		c0.998-1.018,3.133-0.889,4.717-1.371c20.021-6.115,40.002-12.36,60.065-18.329c12.734-3.789,25.406-8.184,38.427-10.54
		c33.686-6.096,67.553-11.181,101.338-16.732c16.973-2.788,33.676-4.287,49.101,6.086c2.245,1.509,5.7,1.296,8.618,1.713
		c10.488,1.498,21.746,1.003,31.316,4.79c18.17,7.186,35.666,16.268,52.91,25.548c24.063,12.95,46.596,28.376,67.687,45.767
		c5.837,4.812,11.927,10.077,15.75,16.431c12.166,20.213,23.406,40.987,34.816,61.65c4.226,7.65,5.793,16.114,6.665,24.781
		c1.531,15.193,2.941,30.425,5.25,45.51c2.003,13.087,2.367,25.675-5.143,38.646c-14.167,0-29.106-0.064-44.046,0.039
		c-4.644,0.031-9.692-0.565-13.854,0.995c-14.785,5.542-30.034,5.039-45.345,5.007c-14.297-0.029-26.667,4.953-36.831,15.144
		c-5.414,5.427-11.092,10.618-16.176,16.338c-3.715,4.179-7.463,8.673-9.79,13.68c-7.127,15.331-15.491,30.236-18.207,47.313
		c-0.346,2.178-1.914,4.177-2.985,6.22c-2.62,4.991-5.207,10.001-7.959,14.917c-1.261,2.252-2.57,4.619-4.386,6.395
		c-13.804,13.499-27.651,26.954-41.661,40.24c-10.617,10.072-21.634,19.726-32.219,29.832
		c-15.412,14.713-31.217,29.086-45.716,44.663c-18.104,19.451-34.873,40.139-52.547,60.001
		c-24.087,27.073-48.941,53.474-72.624,80.892c-25.641,29.685-50.736,59.866-75.29,90.457
		c-24.98,31.122-49.673,62.474-77.595,91.036c-18.221,18.638-34.828,38.385-48.318,60.763c-5.975,9.91-12.898,19.246-19.913,29.613
		c-3.352-2.74-6.138-4.943-8.844-7.242c-7.626-6.477-16.069-10.148-26.429-9.629c-10.638,0.533-21.352-0.365-31.983,0.229
		c-16.904,0.944-32.864,4.555-44.651,18.44c-4.514,5.318-9.88,9.907-14.765,14.919c-8.537,8.759-14.238,19.075-17.508,30.906
		c-6.161,22.307-9.013,44.911-7.854,68.074c0.313,6.251,1.562,11.896,5.512,16.658c8.479,10.22,17.137,20.292,25.768,30.383
		c2.121,2.48,4.422,4.806,6.196,6.722c-4.052,11.204-8.373,21.348-11.379,31.865c-5.337,18.677-6.065,37.943-6.069,57.284
		c-0.003,12.383-0.656,24.683,7.864,35.13c1.187,1.456,1.552,3.643,2.107,5.545c3.152,10.794,8.988,19.686,17.175,27.536
		c26.186,25.109,17.15,24.334,59.428,23.17c19.126-0.526,36.984-7.669,51.827-20.505c7.751-6.702,15.085-13.887,22.461-20.719
		c1.469,0.432,2.579,0.482,3.341,1.023c5.151,3.661,10.331,7.293,15.313,11.178c25.277,19.715,53.06,31.313,85.958,28.368
		c14.653-1.312,29.608-1.411,42.109-10.094c8.399-5.833,15.941-13.057,23.164-20.354c3.313-3.348,6.096-8.115,7.092-12.681
		c2.186-10.016,3.223-20.295,4.472-30.499c3.239-26.485,0.061-52.37-8.514-77.5c-1.896-5.562-1.168-9.233,2.339-13.509
		c6.957-8.477,13.399-17.373,20.223-25.963c10.954-13.791,21.699-27.771,33.153-41.138c19.467-22.721,40.378-44.268,58.906-67.713
		c20.95-26.509,45.253-49.646,69.092-73.251c17.203-17.034,35.871-32.587,54.554-49.403c0.057,0.018,1.423,0.178,2.51,0.814
		c21.795,12.778,45.66,20.307,70.055,25.493c26.291,5.589,53.01,9.169,79.546,13.6c0.977,0.163,1.996,0.076,2.995,0.096
		c19.63,0.381,39.275,1.379,58.885,0.901c11.182-0.272,22.456-2.272,33.427-4.684c26.499-5.825,50.966-17.241,75.063-29.29
		c12.163-6.082,23.864-13.149,35.434-20.321c4.067-2.521,6.991-2.349,10.904-0.18c10.254,5.683,19.24,12.929,27.933,20.726
		c20.513,18.4,42.305,34.522,71.137,37.016c16.498,6.938,33.896,5.984,51.201,5.837c0.667-0.005,1.34,0.063,1.999-0.01
		c4.283-0.462,7.114,1.277,10.303,4.409c8.753,8.597,17.437,17.74,27.707,24.182c10.417,6.533,20.044,14.029,30.227,20.772
		c13.562,8.981,27.478,17.556,41.871,25.105c9.274,4.865,19.392,8.458,30.474,7.622c6.629-0.5,13.33,0.066,19.988-0.168
		c2.911-0.102,6.136-0.359,8.628-1.671c9.369-4.93,19.388-9.203,27.556-15.734c33-26.394,64.373-54.66,94.633-84.196
		c10.911-10.648,22.697-20.553,34.928-29.667c19.607-14.611,37.212-31.097,52.433-50.216c3.463-4.351,5.632-8.827,5.595-14.499
		c-0.057-8.989-0.5-18.071,0.574-26.95c1.698-14.06-4.067-25.607-11.832-35.938c-12.578-16.738-25.907-32.988-42.034-46.608
		c-15.168-12.811-27.405-27.892-36.853-45.432c-3.898-7.239-8.897-14.061-14.319-20.266c-11.372-13.017-23.104-25.746-35.224-38.066
		c-4.192-4.263-4.649-8.202-3.309-13.408c9.064-35.195,12.969-71.161,14.581-107.319c1.156-25.938,0.71-51.954,0.736-77.937
		c0.006-5.947-0.945-11.899-1.53-17.842c-1.433-14.53-2.516-29.11-4.469-43.57c-2.307-17.061-4.963-34.098-8.233-50.995
		c-3.654-18.878-9.574-37.425-9.521-56.825c0.042-15.198-2.668-29.881-7.125-44.135c-8.527-27.272-17.741-54.336-27.066-81.351
		c-7.611-22.05-17.08-43.312-29.76-62.985c-10.998-17.066-22.375-33.89-33.328-50.984c-8.967-13.997-18.973-27.564-26.038-42.496
		c-17.882-37.79-42.619-70.519-71.172-100.514c-36.288-38.118-74.71-74.055-115.29-107.564
		c-26.389-21.791-54.004-42.097-80.348-63.936c-20.711-17.171-43.792-30.192-67.813-41.618
		c-21.614-10.281-43.916-19.103-65.78-28.869c-41.411-18.498-84.945-26.438-130.058-26.073
		c-39.277,0.317-78.582,0.542-117.811,2.262c-17.473,0.766-35.036,4.082-52.079,8.217c-9.429,2.289-18.692,3.951-28.271,4.603
		c-5.965,0.406-11.948,0.766-17.868,1.559c-27.653,3.703-55.402,6.882-82.898,11.534c-26.549,4.492-52.907,10.215-79.205,16.038
		c-20.13,4.458-40.046,9.879-60.04,14.936c-22.869,5.783-45.712,11.666-68.584,17.433
		C2774.392,1725.777,2769.256,1726.747,2764.154,1727.858z"/>
	<path fill-rule="evenodd" d="M2764.154,1727.858c5.102-1.111,10.237-2.081,15.297-3.356c22.872-5.767,45.715-11.65,68.584-17.433
		c19.994-5.056,39.91-10.478,60.04-14.936c26.298-5.823,52.656-11.546,79.205-16.038c27.496-4.652,55.245-7.831,82.898-11.534
		c5.92-0.793,11.903-1.152,17.868-1.559c9.578-0.652,18.842-2.314,28.271-4.603c17.043-4.135,34.606-7.451,52.079-8.217
		c39.229-1.72,78.533-1.944,117.811-2.262c45.112-0.364,88.646,7.575,130.058,26.073c21.864,9.766,44.166,18.588,65.78,28.869
		c24.021,11.426,47.102,24.447,67.813,41.618c26.344,21.839,53.959,42.145,80.348,63.936c40.58,33.51,79.002,69.446,115.29,107.564
		c28.553,29.995,53.29,62.724,71.172,100.514c7.065,14.932,17.071,28.499,26.038,42.496c10.953,17.095,22.33,33.918,33.328,50.984
		c12.68,19.674,22.148,40.936,29.76,62.985c9.325,27.015,18.539,54.078,27.066,81.351c4.457,14.254,7.167,28.937,7.125,44.135
		c-0.054,19.4,5.866,37.947,9.521,56.825c3.271,16.897,5.927,33.935,8.233,50.995c1.953,14.46,3.036,29.04,4.469,43.57
		c0.585,5.942,1.536,11.895,1.53,17.842c-0.026,25.982,0.42,51.998-0.736,77.937c-1.612,36.158-5.517,72.124-14.581,107.319
		c-1.341,5.206-0.884,9.146,3.309,13.408c12.119,12.32,23.852,25.05,35.224,38.066c5.422,6.205,10.421,13.026,14.319,20.266
		c9.447,17.54,21.685,32.621,36.853,45.432c16.127,13.62,29.456,29.87,42.034,46.608c7.765,10.33,13.53,21.878,11.832,35.938
		c-1.074,8.879-0.631,17.961-0.574,26.95c0.037,5.672-2.132,10.148-5.595,14.499c-15.221,19.119-32.825,35.604-52.433,50.216
		c-12.23,9.114-24.017,19.019-34.928,29.667c-30.26,29.536-61.633,57.803-94.633,84.196c-8.168,6.531-18.187,10.805-27.556,15.734
		c-2.492,1.312-5.717,1.569-8.628,1.671c-6.658,0.234-13.359-0.332-19.988,0.168c-11.082,0.836-21.199-2.757-30.474-7.622
		c-14.394-7.55-28.31-16.124-41.871-25.105c-10.183-6.743-19.81-14.239-30.227-20.772c-10.271-6.441-18.954-15.585-27.707-24.182
		c-3.188-3.132-6.02-4.871-10.303-4.409c-0.659,0.072-1.332,0.005-1.999,0.01c-17.306,0.147-34.703,1.101-51.201-5.837
		c-28.832-2.493-50.624-18.615-71.137-37.016c-8.692-7.797-17.679-15.043-27.933-20.726c-3.913-2.169-6.837-2.342-10.904,0.18
		c-11.569,7.172-23.271,14.239-35.434,20.321c-24.097,12.049-48.563,23.465-75.063,29.29c-10.971,2.411-22.245,4.411-33.427,4.684
		c-19.609,0.478-39.255-0.521-58.885-0.901c-0.999-0.02-2.019,0.067-2.995-0.096c-26.536-4.431-53.255-8.011-79.546-13.6
		c-24.395-5.187-48.26-12.715-70.055-25.493c-1.087-0.637-2.453-0.797-2.51-0.814c-18.683,16.816-37.351,32.369-54.554,49.403
		c-23.839,23.605-48.142,46.742-69.092,73.251c-18.528,23.445-39.439,44.992-58.906,67.713
		c-11.454,13.367-22.199,27.347-33.153,41.138c-6.823,8.59-13.266,17.486-20.223,25.963c-3.507,4.275-4.235,7.947-2.339,13.509
		c8.574,25.13,11.753,51.015,8.514,77.5c-1.249,10.204-2.286,20.483-4.472,30.499c-0.996,4.565-3.778,9.333-7.092,12.681
		c-7.223,7.297-14.765,14.521-23.164,20.354c-12.501,8.683-27.456,8.782-42.109,10.094c-32.898,2.945-60.681-8.653-85.958-28.368
		c-4.982-3.885-10.162-7.517-15.313-11.178c-0.762-0.541-1.872-0.592-3.341-1.023c-7.376,6.832-14.71,14.017-22.461,20.719
		c-14.843,12.836-32.701,19.979-51.827,20.505c-42.277,1.164-33.242,1.939-59.428-23.17c-8.187-7.851-14.022-16.742-17.175-27.536
		c-0.556-1.902-0.921-4.089-2.107-5.545c-8.521-10.447-7.867-22.747-7.864-35.13c0.004-19.341,0.732-38.607,6.069-57.284
		c3.006-10.518,7.327-20.661,11.379-31.865c-1.774-1.916-4.075-4.241-6.196-6.722c-8.631-10.091-17.289-20.163-25.768-30.383
		c-3.95-4.762-5.199-10.407-5.512-16.658c-1.158-23.163,1.693-45.768,7.854-68.074c3.27-11.831,8.971-22.147,17.508-30.906
		c4.885-5.012,10.251-9.601,14.765-14.919c11.787-13.886,27.747-17.496,44.651-18.44c10.632-0.595,21.346,0.304,31.983-0.229
		c10.359-0.52,18.803,3.152,26.429,9.629c2.706,2.299,5.492,4.502,8.844,7.242c7.015-10.367,13.938-19.703,19.913-29.613
		c13.49-22.378,30.098-42.125,48.318-60.763c27.922-28.563,52.614-59.914,77.595-91.036c24.554-30.591,49.649-60.772,75.29-90.457
		c23.683-27.418,48.537-53.818,72.624-80.892c17.674-19.862,34.442-40.55,52.547-60.001c14.499-15.577,30.304-29.95,45.716-44.663
		c10.585-10.106,21.602-19.76,32.219-29.832c14.01-13.286,27.857-26.741,41.661-40.24c1.815-1.775,3.125-4.143,4.386-6.395
		c2.752-4.916,5.339-9.926,7.959-14.917c1.071-2.043,2.64-4.042,2.985-6.22c2.716-17.076,11.08-31.981,18.207-47.313
		c2.327-5.007,6.075-9.501,9.79-13.68c5.084-5.72,10.762-10.911,16.176-16.338c10.164-10.19,22.534-15.173,36.831-15.144
		c15.311,0.032,30.56,0.535,45.345-5.007c4.162-1.561,9.211-0.964,13.854-0.995c14.939-0.104,29.879-0.039,44.046-0.039
		c7.51-12.972,7.146-25.56,5.143-38.646c-2.309-15.085-3.719-30.316-5.25-45.51c-0.872-8.667-2.439-17.131-6.665-24.781
		c-11.41-20.663-22.65-41.438-34.816-61.65c-3.823-6.354-9.913-11.619-15.75-16.431c-21.091-17.391-43.624-32.816-67.687-45.767
		c-17.244-9.28-34.74-18.362-52.91-25.548c-9.57-3.787-20.828-3.292-31.316-4.79c-2.918-0.417-6.373-0.204-8.618-1.713
		c-15.425-10.373-32.128-8.874-49.101-6.086c-33.785,5.552-67.652,10.637-101.338,16.732c-13.021,2.356-25.692,6.751-38.427,10.54
		c-20.063,5.969-40.045,12.214-60.065,18.329c-1.584,0.482-3.719,0.354-4.717,1.371c-6.211,6.341-14.058,4.742-21.56,4.825
		c-6.332,0.069-12.667,0.113-18.996-0.03c-2.977-0.068-6.095-0.119-8.886-1.008c-17.021-5.413-34.004-10.952-50.926-16.67
		c-17.021-5.751-34.213-11.119-50.87-17.799c-28.789-11.545-58.938-18.531-88.472-27.566c-8.858-2.711-18.197-3.849-27.305-5.763
		c-3.438-0.723-6.177-0.285-8.934,2.453c-4.941,4.911-10.701,8.999-15.632,13.918c-21.925,21.869-45.813,41.484-69.875,60.869
		c-26.407,21.275-53.01,42.32-79.915,62.963c-10.786,8.276-22.476,15.41-33.975,22.717c-26.684,16.954-53.453,33.773-80.278,50.504
		c-35.573,22.187-70.855,44.877-106.951,66.183c-44.683,26.371-89.979,51.71-135.247,77.073c-7.428,4.161-15.932,6.63-24.181,9.061
		c-27.559,8.121-55.522,14.308-84.498,12.045c-11.191-0.874-23.044-1.659-33.138-5.931c-10.731-4.541-20.582-12.236-29.321-20.196
		c-20.152-18.354-39.626-37.473-58.955-56.702c-26.104-25.973-48.43-54.683-64.152-88.366c-4.714-10.1-11.559-19.448-18.645-28.149
		c-21.612-26.54-43.691-52.703-65.85-78.789c-9.895-11.649-20.962-22.327-30.507-34.239c-11.021-13.755-20.951-28.386-31.355-42.634
		c-0.394-0.537-0.809-1.06-1.214-1.589c-11.615-15.178-17.628-17.617-35.478-11.287c-18.876,6.693-38.231,11.154-57.682,15.641
		c-35.646,8.221-71.009,17.665-106.651,25.899c-24.936,5.761-50.141,10.35-75.223,15.477c-20.52,4.194-41.033,8.47-59.899,18.083
		c-15.859,8.082-32.793,8.072-49.79,6.48c-25.225-2.362-49.662-8.341-73.904-15.792c-15.476-4.757-32.106-5.742-47.604-10.447
		c-39.74-12.065-79.149-25.228-118.668-38.019c-39.706-12.851-76.767-31.869-114.323-49.646
		c-33.657-15.931-66.881-32.78-100.207-49.406c-42.246-21.075-84.295-42.545-126.627-63.444
		c-34.907-17.233-69.328-35.313-103.074-54.741c-16.402-9.444-33.855-17.056-50.354-26.344
		c-24.042-13.534-48.001-27.28-71.357-41.952c-25.923-16.285-51.698-32.92-76.519-50.815
		c-44.564-32.127-87.233-66.683-124.753-107.034c-11.056-11.89-21.372-24.691-30.463-38.134
		c-13.594-20.099-26.375-40.806-38.448-61.859c-13.267-23.134-23.523-47.692-30.172-73.631
		c-10.721-41.827-22.461-83.427-31.771-125.565c-5.783-26.173-8.396-53.102-11.483-79.801c-3.086-26.686-5.158-53.495-7.372-80.276
		c-3.702-44.794-5.746-89.705-3.849-134.605c1.387-32.841,6.117-65.331,16.172-96.941c3.163-9.943,3.072-20.889,4.83-31.315
		c2.813-16.688,4.924-33.583,9.129-49.929c7.699-29.92,16.503-59.564,25.303-89.187c2.54-8.551,6.777-16.585,10.005-24.945
		c10.775-27.915,22.063-55.653,31.992-83.868c11.396-32.386,29.361-61.036,47.97-89.44c8.562-13.069,17.108-26.148,25.772-39.148
		c2.575-3.864,5.094-7.932,8.415-11.09c4.055-3.855,4.463-7.338,2.233-12.342c-5.142-11.541-9.776-23.309-14.515-35.025
		c-10.01-24.747-16.328-50.504-21.745-76.596c-2.858-13.769-4.022-27.472-4.843-41.454c-0.817-13.912,4.649-24.71,12.839-34.345
		c9.466-11.137,19.456-22.084,30.628-31.427c7.703-6.443,17.804-10.019,26.828-14.885c5.23-2.82,10.923-5.04,15.589-8.602
		c17.403-13.285,36.578-22.803,57.345-29.615c15.152-4.969,30.048-10.773,44.886-16.641c11.381-4.499,23.331-5.869,35.206-5.839
		c17.246,0.044,34.499,1.507,51.727,2.672c10.261,0.694,20.568,1.481,30.683,3.22c4.653,0.801,9.368,3.347,13.248,6.2
		c23.138,17.014,34.436,40.758,37.885,68.692c0.771,6.25,0.475,12.663,1.604,18.829c2.191,11.96,5.046,23.798,7.427,34.769
		c21.993,3.528,39.54,12.894,53.937,26.98c17.525,17.147,33.108,36.189,47.877,55.806c3.347,4.448,6.885,7.657,12.843,8.22
		c8.587,0.812,15.669,5.592,22.173,10.765c10.157,8.077,19.949,16.643,26.016,29.348c5.95-2.587,11.541-5.293,17.327-7.483
		c14.437-5.465,29.541-7.575,44.873-8.272c30.534-1.39,60.576,1.959,89.618,11.448c12.874,4.207,25.917,9.229,37.306,16.389
		c30.684,19.288,60.848,39.455,90.534,60.25c12.176,8.529,22.753,19.395,33.777,29.504c15.449,14.168,30.749,28.503,45.864,43.027
		c4.512,4.335,8.191,9.539,12.577,14.729c6.347-2.711,12.711-5.436,19.08-8.149c33.327-14.198,66.625-28.464,100.013-42.52
		c5.489-2.311,11.314-3.893,17.077-5.475c21.206-5.823,41.613-13.758,61.701-22.636c14.838-6.558,29.847-12.731,45.262-19.28
		c0.811-14.611,2.093-29.466,2.307-44.335c0.159-10.994,1.845-21.306,8.859-29.937c3.537-4.35,1.82-7.844,0.161-11.906
		c-12.017-29.406-28.458-56.193-46.367-82.38c-14.372-21.014-31.619-39.293-48.399-58.136c-3.415-3.834-5.538-8.843-8.129-13.384
		c-5.602-9.821-10.616-20.02-16.775-29.475c-13.904-21.342-20.915-44.514-19.036-69.908c1.074-14.525-2.947-27.548-8.733-40.381
		c-5.339-11.844-1.816-24.304-2.561-36.466c4.442-4.902,8.535-10.206,13.491-14.52c2.14-1.863,6.027-2.011,9.184-2.339
		c3.627-0.376,7.376,0.311,10.979-0.163c10.234-1.343,18.34,2.471,24.675,10.081c4.013,4.822,8.687,7.089,14.789,5.965
		c13.631-2.509,23.495,3.06,31.981,13.389c3.808,4.634,6.56,8.771,6.128,14.999c-0.46,6.634-0.088,13.324-0.113,19.99
		c-0.008,1.997,0.659,4.601-0.333,5.886c-5.148,6.669-0.849,11.597,2.564,16.725c2.212,3.322,4.512,6.596,6.951,9.753
		c8.117,10.51,16.49,20.826,24.421,31.472c5.604,7.522,12.054,12.946,21.88,14.019c10.89,1.189,21.65,3.657,32.55,4.611
		c5.141,0.45,10.556-0.99,15.713-2.161c23.773-5.396,45.713-15.451,67.692-25.783c26.484-12.449,36.254-35.951,42.485-61.469
		c3.834-15.708,4.83-32.139,6.654-48.296c1.599-14.16,2.614-28.385,3.814-42.587c0.558-6.606,3.044-12.179,8.062-16.622
		c5.963-5.28,11.643-10.9,17.819-15.913c3.92-3.182,8.7-4.563,14.003-4.048c3.962,0.385,8.014,0.353,11.987,0.029
		c21.006-1.708,33.649,11.764,45.868,25.555c2.441,2.756,2.958,7.322,4.05,11.142c1.556,5.433,2.823,10.948,4.306,16.794
		c7.303,0.509,14.514,1.013,21.838,1.525c7.722-8.036,15.537-16.169,23.352-24.303c8.176-8.508,18.031-14.744,28.393-20.068
		c6.179-3.175,12.844-5.079,20.142-4.712c9.31,0.467,18.661,0.238,27.991,0.072c6.688-0.119,11.699,2.538,17.042,6.669
		c13.643,10.549,19.593,23.605,16.719,40.636c-0.109,0.648-0.145,1.362,0.005,1.993c3.498,14.796-6.658,22.834-16.042,30.6
		c-3.093,2.558-8.683,2.099-14.233,3.248c-7.165,15.253-14.41,31.585-18.322,49.154c-0.6,2.698,0.008,5.997,1.013,8.658
		c3.518,9.311,7.536,18.433,11.212,27.686c6.257,15.745,20.224,23.739,33.654,31.238c8.711,4.865,20.06,4.771,29.379,8.841
		c10.902,4.761,22.61,4.066,33.545,7.395c5.294,1.611,10.925,3.793,15.016,7.325c8.038,6.94,15.012,15.102,22.631,22.546
		c2.218,2.167,4.933,4.69,7.764,5.223c18.931,3.562,37.867,7.468,56.988,9.491c8.927,0.944,18.634-0.91,27.316-3.638
		c7.439-2.338,14.567-4.311,22.336-3.948c2.994,0.14,6.05,0.381,8.989-0.042c10.882-1.563,19.128,2.269,26.112,10.716
		c3.37,4.078,6.084,7.72,5.266,13.159c-0.049,0.326-0.007,0.666-0.006,0.999c0.138,25.251,0.067,25.169-18.8,41.427
		c-20.143,17.358-40.369,34.631-60.105,52.442c-12.417,11.207-21.546,25.146-29.659,39.728c-4.711,8.466-7.94,17.228-9.42,26.977
		c-1.379,9.093-4.245,18.104-7.58,26.715c-3.426,8.845-1.754,15.698,3.971,22.966c9.256,11.751,17.711,24.133,26.425,36.308
		c1.932,2.699,3.549,5.625,5.275,8.469c17.977,29.646,13.599,19.402,13.534,53.387c-0.012,6.063-3.888,12.642-7.427,18.031
		c-3.593,5.471-8.781,9.978-13.678,14.464c-1.804,1.652-4.701,2.574-7.217,2.892c-5.922,0.748-11.954,0.656-17.866,1.456
		c-3.092,0.418-7.036,1.137-8.831,3.231c-4.229,4.938-9.167,6.017-15.105,5.559c-3.29-0.254-6.615-0.045-11.534-0.045
		c4.018,6.304,8.764,10.334,13.24,14.385c4.546,4.114,6.8,8.48,6.252,14.784c-0.574,6.617-0.249,13.324-0.094,19.985
		c0.116,4.993-2.051,8.632-5.095,12.508c-9.417,11.988-22.314,15.623-36.581,17.618c-14.772,2.065-29.411,5.201-44.028,8.249
		c-10.221,2.13-17.973,8.234-24.081,16.591c-10.856,14.855-20.031,30.555-24.743,48.534c-3.547,13.538-7.235,26.999-19.888,35.827
		c0.552,0.621,1.104,1.242,1.655,1.864c2.746-1.25,5.671-2.209,8.208-3.792c24.537-15.31,48.797-31.076,73.577-45.977
		c15.063-9.058,30.672-17.293,46.454-25.046c17.911-8.8,37.579-10.978,57.16-12.234c13.608-0.872,27.34-0.615,40.974,0.034
		c6.129,0.292,12.407,2.135,18.168,4.414c8.332,3.296,16.179,7.799,24.372,11.473c11.098,4.976,20.734,11.811,29.092,20.679
		c11.188,11.87,22.902,23.243,34.003,35.191c17.218,18.534,37.403,33.365,59.783,44.491c16.506,8.206,34.178,13.237,53.77,10.961
		c36.037-4.187,72.3-5.52,108.542-1.511c8.228,0.91,16.56,1.236,24.669,2.756c9.336,1.751,17.354,6.709,24.178,13.233
		c19.708,18.841,39.487,37.619,58.808,56.853c27.195,27.074,51.757,56.213,70.287,90.162c8.433,15.448,18.799,29.838,27.311,45.247
		c4.939,8.943,8.165,18.874,11.729,28.519c2.275,6.161,5.688,10.449,11.634,13.922c19.512,11.398,38.493,23.698,57.752,35.532
		c21.542,13.236,43.421,25.941,64.689,39.599c30.469,19.565,60.448,39.892,90.802,59.637c6.608,4.298,13.676,8.104,20.953,11.122
		c23.171,9.604,44.902,21.495,65.227,36.339c18.379,13.423,35.427,28.06,50.244,45.33c1.902,2.217,4.46,3.985,6.97,5.548
		c20.176,12.568,36.126,29.129,47.499,50.023c4.03,7.403,6.116,15.215,5.83,23.828c-0.707,21.278-0.923,42.57-1.448,63.854
		c-0.326,13.206-7.71,22.911-16.072,32.221c-23.95,26.662-53.688,45.497-84.435,63.039c-22.073,12.593-46.21,20.313-69.614,29.76
		c-37.291,15.053-74.625,30.001-111.927,45.029c-1.424,0.573-2.699,1.514-4.044,2.284
		C2763.935,1727.169,2764.045,1727.514,2764.154,1727.858z M656.572,1116.539c-2.674,6.708-5.257,11.749-6.718,17.096
		c-6.467,23.683-13.091,47.341-18.68,71.236c-2.997,12.813-0.914,26.053,3.91,38.093c10.886,27.169,27.688,50.751,47.814,71.805
		c25.373,26.54,55.653,47.424,83.546,71.067c22.183,18.806,47.75,32.633,71.915,48.525c45.654,30.025,94.614,54.292,142.306,80.686
		c38.667,21.399,78.236,41.203,116.399,63.589c7.649,4.487,15.914,7.924,23.981,11.888c-0.296-14.136-0.578-27.32-0.841-40.505
		c-0.046-2.332,0.186-4.683-0.038-6.994c-1.364-14.122,2.75-26.881,9.224-39.189c10.05-19.109,19.877-38.337,29.813-57.507
		c3.515-6.782,6.984-13.59,10.623-20.305c7.75-14.299,15.623-28.531,23.401-42.814c11.916-21.881,24.11-43.619,35.594-65.724
		c10.873-20.928,20.587-42.458,31.522-63.353c15.584-29.776,32.868-58.565,51.94-86.281c9.598-13.946,18.531-28.351,27.701-42.589
		c2.878-4.471,5.361-9.205,8.346-13.601c28.228-41.577,62.686-77.831,99.793-111.205c34.668-31.179,73.479-56.735,116.025-76.853
		c44.452-21.02,91.652-28.927,139.651-33.328c27.102-2.485,54.506-1.662,81.774-2.342c1.808-0.046,3.611-0.215,7.132-0.432
		c-6.237-6.296-9.277-12.326-9.25-19.583c0.085-22.939-0.818-45.915,2.559-68.732c3.453-23.321,12.343-43.984,29.33-60.812
		c5.875-5.82,11.393-11.999,17.75-18.729c-10.474,3.832-20.326,7.535-30.248,11.034c-7.346,2.589-13.458,6.838-19.198,12.085
		c-3.037,2.776-4.369,5.354-4.275,9.344c0.212,8.992-0.181,18,0.12,26.986c0.447,13.379-4.803,25.292-9.142,37.439
		c-0.751,2.103-2.276,4.12-3.915,5.685c-10.1,9.647-20.162,19.347-30.578,28.648c-8.901,7.948-19.571,12.667-31.425,13.977
		c-7.914,0.875-15.938,1.073-23.91,1.042c-30.024-0.115-56.827-9.344-79.8-28.954c-5.266-4.496-10.36-9.192-15.906-14.128
		c-4.718,2.356-9.088,4.712-13.601,6.754c-7.56,3.42-15.011,7.244-22.862,9.82c-15.789,5.179-31.744,9.898-47.768,14.311
		c-15.761,4.339-30.953,9.814-45.317,17.773c-15.123,8.381-30.395,16.563-46.016,23.957c-26.781,12.679-53.485,25.403-77.711,42.701
		c-1.341,0.958-2.866,1.693-4.376,2.375c-13.007,5.879-25.888,12.067-39.078,17.508c-29.494,12.168-58.843,24.785-88.806,35.695
		c-37.103,13.509-74.832,25.29-112.17,38.163c-34.234,11.803-68.261,24.207-102.489,36.028c-8.514,2.941-15.981,5.355-19.543,15.483
		c-4.643,13.2-16.047,21.897-25.963,31.193c-20.655,19.362-44.539,34.05-71.662,41.836c-38.992,11.193-78.728,12.821-118.199,1.985
		c-11.413-3.133-22.275-8.483-33.118-13.418c-13.283-6.046-26.257-12.766-39.407-19.108
		C670.481,1122.845,664.136,1120.027,656.572,1116.539z"/>
	<path fill-rule="evenodd" fill="#FFFFFF" d="M656.572,1116.539c7.563,3.488,13.909,6.306,20.16,9.321
		c13.15,6.342,26.125,13.062,39.407,19.108c10.842,4.935,21.705,10.286,33.118,13.418c39.472,10.835,79.207,9.208,118.199-1.985
		c27.124-7.786,51.007-22.475,71.662-41.836c9.917-9.296,21.32-17.994,25.963-31.193c3.562-10.128,11.03-12.542,19.543-15.483
		c34.228-11.821,68.255-24.225,102.489-36.028c37.339-12.874,75.068-24.654,112.17-38.163c29.963-10.91,59.312-23.526,88.806-35.695
		c13.19-5.441,26.071-11.628,39.078-17.508c1.511-0.682,3.035-1.417,4.376-2.375c24.226-17.298,50.93-30.021,77.711-42.701
		c15.621-7.395,30.893-15.576,46.016-23.957c14.364-7.959,29.557-13.434,45.317-17.773c16.023-4.413,31.979-9.132,47.768-14.311
		c7.852-2.576,15.303-6.399,22.862-9.82c4.512-2.042,8.883-4.398,13.601-6.754c5.546,4.936,10.641,9.632,15.906,14.128
		c22.973,19.61,49.775,28.839,79.8,28.954c7.973,0.03,15.996-0.168,23.91-1.042c11.854-1.311,22.523-6.029,31.425-13.977
		c10.417-9.301,20.478-19.001,30.578-28.648c1.639-1.565,3.164-3.582,3.915-5.685c4.338-12.148,9.589-24.061,9.142-37.439
		c-0.301-8.986,0.092-17.994-0.12-26.986c-0.094-3.989,1.238-6.568,4.275-9.344c5.74-5.248,11.852-9.496,19.198-12.085
		c9.922-3.499,19.774-7.202,30.248-11.034c-6.357,6.73-11.875,12.909-17.75,18.729c-16.987,16.828-25.877,37.491-29.33,60.812
		c-3.377,22.817-2.474,45.793-2.559,68.732c-0.026,7.258,3.013,13.287,9.25,19.583c-3.521,0.217-5.324,0.386-7.132,0.432
		c-27.268,0.68-54.672-0.143-81.774,2.342c-47.999,4.401-95.199,12.308-139.651,33.328c-42.545,20.117-81.357,45.674-116.025,76.853
		c-37.107,33.374-71.565,69.628-99.793,111.205c-2.985,4.396-5.467,9.129-8.346,13.601c-9.17,14.238-18.103,28.643-27.701,42.589
		c-19.073,27.716-36.356,56.505-51.94,86.281c-10.936,20.894-20.65,42.424-31.522,63.353
		c-11.484,22.105-23.679,43.843-35.594,65.724c-7.778,14.283-15.651,28.515-23.401,42.814c-3.639,6.715-7.108,13.523-10.623,20.305
		c-9.935,19.17-19.762,38.398-29.813,57.507c-6.474,12.308-10.587,25.067-9.224,39.189c0.224,2.311-0.008,4.663,0.038,6.994
		c0.263,13.185,0.545,26.369,0.841,40.505c-8.067-3.964-16.332-7.401-23.981-11.888c-38.163-22.386-77.732-42.19-116.399-63.589
		c-47.692-26.394-96.652-50.661-142.306-80.686c-24.165-15.893-49.732-29.72-71.915-48.525
		c-27.893-23.643-58.173-44.527-83.546-71.067c-20.126-21.053-36.928-44.635-47.814-71.805c-4.824-12.04-6.907-25.28-3.91-38.093
		c5.588-23.896,12.212-47.554,18.68-71.236C651.315,1128.288,653.898,1123.248,656.572,1116.539z"/>
</g>
</svg>
