<?xml version="1.0" encoding="utf-8"?>
<!-- Generator: Adobe Illustrator 16.0.2, SVG Export Plug-In . SVG Version: 6.00 Build 0)  -->
<!DOCTYPE svg PUBLIC "-//W3C//DTD SVG 1.1 Tiny//EN" "http://www.w3.org/Graphics/SVG/1.1/DTD/svg11-tiny.dtd">
<svg version="1.1" baseProfile="tiny" id="Layer_1" xmlns="http://www.w3.org/2000/svg" xmlns:xlink="http://www.w3.org/1999/xlink"
	 x="0px" y="0px" width="4333.458px" height="3573.553px" viewBox="0 0 4333.458 3573.553" xml:space="preserve">
<g>
	<path fill-rule="evenodd" fill="#FFFFFF" d="M4337.344,3577.438c-1445.189,0-2890.267,0-4335.231,0
		c0-1191.888,0-2383.663,0-3575.326c1445.19,0,2890.268,0,4335.231,0C4337.344,1194.001,4337.344,2385.776,4337.344,3577.438z
		 M1477.601,3414.865c25.34,15.407,59.712,19.861,87.053,11.757c1.738-0.516,3.995-0.545,5.645,0.113
		c14.44,5.763,29.539,3.929,44.43,3.872c7.87-0.029,14.854-2.904,20.328-9.114c4.179-4.74,8.681-9.252,13.425-13.427
		c9.032-7.944,15.154-17.543,18.3-29.155c0.772-2.854,1.844-5.884,3.64-8.152c4.885-6.171,6.008-13.12,5.744-20.661
		c-0.222-6.325-0.133-12.664-0.03-18.995c0.421-25.948-3.568-51.026-14.94-74.579c-2.199-4.554-1.7-7.563,1.912-11.41
		c9.309-9.917,18.242-20.226,26.729-30.854c2.972-3.723,5.88-8.808,5.94-13.309c0.231-17.246,2.181-34.663-2.244-51.708
		c-3.653-14.075-4.444-29.301-13.95-41.188c-7.451-9.319-16.223-17.569-23.995-26.648c-11.118-12.989-26.249-16.411-41.994-17.556
		c-12.267-0.892-24.65-0.149-36.981-0.188c-6.878-0.022-13.084,1.741-18.509,6.157c-4.284,3.486-8.745,6.756-13.701,10.56
		c-7.46-11.187-14.758-21.493-21.388-32.213c-11.783-19.05-25.918-36.142-41.124-52.529c-18.309-19.731-36.6-39.539-53.796-60.229
		c-26.349-31.703-51.357-64.521-77.709-96.221c-16.361-19.682-34.173-38.158-51.299-57.206
		c-11.335-12.606-22.646-25.236-33.907-37.91c-16.109-18.13-32.676-35.887-48.104-54.582c-16.582-20.092-34.603-38.752-53.36-56.706
		c-25.956-24.845-51.643-50.062-78.921-73.396c-13.602-11.636-19.739-25.006-23.563-41.744
		c-4.46-19.518-13.128-37.427-28.674-51.537c-8.715-7.911-18.36-14.177-27.761-21.007c-10.52-7.644-22.097-10.907-34.514-11.144
		c-8.77-0.167-17.007-1.775-25.415-3.909c-7.315-1.857-15.003-2.794-22.561-3.032c-14.571-0.457-29.166-0.133-43.993-0.133
		c-2.691-8.007-5.524-15.127-7.417-22.489c-1.478-5.741-2.904-11.877-2.418-17.674c1.843-21.933,5.634-43.695,15.419-63.553
		c10.566-21.441,22.548-42.192,34.124-63.129c4.899-8.861,12.273-15.412,20.169-21.798c25.996-21.021,54.217-38.548,83.741-53.909
		c24.17-12.574,48.856-24.237,76.412-27.853c13.184-1.73,26.251-3.861,39.647-1.541c12.435,2.152,25.054,3.247,37.491,5.396
		c15.326,2.648,30.492,5.153,44.627,13.054c24.38,13.627,49.671,25.611,74.445,38.543c15.229,7.948,31.235,7.061,46.507,2.424
		c23.143-7.025,22.884-7.898,46.342-2.068c5.784,1.438,11.497,4.019,17.319,4.268c13.871,0.594,28.001,1.61,41.634-0.322
		c17.018-2.412,33.593-7.824,50.442-11.563c39.607-8.786,79.314-17.13,118.882-26.091c21.726-4.921,43.257-10.705,64.864-16.149
		c10.631-2.68,21.245-5.435,31.849-8.22c9.919-2.607,19.827-5.266,29.721-7.968c5.302-1.447,9.64-0.564,13.237,4.035
		c6.757,8.644,13.997,16.913,20.667,25.622c10.106,13.197,19.931,26.611,29.8,39.989c3.531,4.787,7.229,9.516,10.176,14.657
		c7.094,12.38,12.873,25.53,24.35,34.957c8.986,7.38,17.452,15.396,26.114,23.168c19.717,17.691,36.841,37.447,48.035,61.734
		c14.132,30.664,34.894,56.552,58.374,80.306c20.335,20.573,41.114,40.748,62.461,60.264c8.708,7.962,18.676,15.575,29.451,19.948
		c10.463,4.248,22.635,4.916,34.161,5.796c28.657,2.187,56.247-4.189,83.459-12.261c8.241-2.445,16.64-5.071,24.153-9.123
		c22.244-11.992,44.018-24.853,66.097-37.155c24.104-13.434,47.871-27.597,72.664-39.627c21.691-10.525,42.555-22.195,61.531-36.85
		c22.438-17.326,46.206-32.578,70.067-47.724c19.38-12.301,38.934-24.343,58.685-36.035c25.059-14.833,46.242-34.727,69.076-52.429
		c29.402-22.795,58.02-46.621,86.596-70.457c11.733-9.786,22.751-20.484,33.559-31.304c5.215-5.221,10.718-5.696,17.032-3.99
		c28.217,7.622,56.617,14.654,84.56,23.186c29.237,8.926,58.021,19.334,87.013,29.066c17.924,6.018,35.861,11.995,53.806,17.954
		c2.18,0.725,4.405,1.475,6.668,1.771c15.271,2.002,30.6,2.27,45.646-1.181c26.562-6.095,52.83-13.206,78.531-22.473
		c29.73-10.72,60.497-18.882,89.496-31.243c47.368-20.192,94.059-42.089,140.329-64.71c68.984-33.727,137.543-68.34,205.913-103.298
		c39.644-20.269,78.299-42.467,117.885-62.854c44.205-22.766,85.208-50.627,126.858-77.491
		c36.977-23.851,71.117-51.441,104.378-80.128c23.212-20.02,45.983-40.757,64.19-65.474c16.534-22.444,31.311-46.226,46.157-69.859
		c11.512-18.323,21.717-37.584,27.837-58.388c12.09-41.089,24.018-82.263,34.447-123.795c12.4-49.383,17.154-100.038,21.532-150.65
		c2.316-26.781,4.914-53.583,5.843-80.429c1.402-40.57,2.891-81.232-1.688-121.718c-2.576-22.776-6.306-45.395-14.114-67.133
		c-1.209-3.365-1.495-7.096-1.956-10.689c-1.646-12.82-2.203-25.87-4.962-38.439c-5.838-26.603-12.335-53.086-19.465-79.374
		c-5.13-18.917-11.014-37.702-17.826-56.077c-10.505-28.338-22.309-56.193-33.154-84.409c-9.668-25.148-19.337-50.183-34.563-72.736
		c-18.385-27.229-36.181-54.854-54.865-83.27c0.407-1.115,1.285-3.594,2.212-6.056c8.66-23.005,18.064-45.765,25.73-69.096
		c4.952-15.067,6.857-31.108,11.052-46.461c4.292-15.712,3.937-31.6,3.704-47.55c-0.033-2.234-0.802-4.649-1.862-6.645
		c-9.575-18.034-22.87-33.146-40.613-42.903c-17.033-9.366-32.192-21.154-47.937-32.216c-14.247-10.01-29.238-18.294-45.892-23.725
		c-15.471-5.044-30.993-10.195-45.865-16.729c-14.441-6.346-29.416-8.7-44.689-8.319c-23.231,0.579-46.542,1.535-69.601,4.219
		c-14.932,1.738-30.771,3.219-43.416,12.769c-8.43,6.367-15.625,14.364-23.393,21.61c-9.56,8.917-13.806,20.072-13.876,32.962
		c-0.055,9.998,0.139,20-0.101,29.994c-0.077,3.207-1.01,6.437-1.862,9.571c-1.467,5.396-3.468,10.659-4.718,16.099
		c-2.018,8.774-5.388,15.948-14.698,19.52c-9.739,3.736-17.854,10.134-24.921,17.923c-5.789,6.381-11.521,12.605-16.494,19.823
		c-6.158,8.937-14.682,16.273-22.385,24.104c-8.09,8.222-15.396,17.606-27.823,19.867c-1.547,0.282-2.942,1.513-4.36,2.382
		c-14.111,8.651-25.868,19.675-34.349,34.553c-2.456-1.085-4.757-2.395-7.228-3.144c-12.675-3.847-25.195-9.544-38.144-10.829
		c-18.749-1.86-37.949-1.91-56.725-0.184c-32.009,2.944-63.071,10.534-90.551,28.329c-25.683,16.631-51.731,32.842-76.256,51.071
		c-22.356,16.619-43.323,35.211-64.063,53.865c-13.811,12.421-26.151,26.478-39.296,39.954
		c-17.502-7.057-35.771-14.115-53.781-21.781c-15.289-6.508-30.001-14.436-45.474-20.43c-18.253-7.073-37.287-12.126-55.557-19.159
		c-29.346-11.298-58.343-23.505-87.557-35.355c-0.773-15.903-1.649-31.144-2.21-46.396c-0.415-11.274-3.218-21.451-10.377-30.543
		c-5.532-7.023-9.995-14.882-15.103-22.252c-2.1-3.028-2.726-5.842-0.973-9.265c2.878-5.619,4.979-11.703,8.344-16.995
		c9.811-15.43,20.286-30.438,30.059-45.892c3.016-4.771,6.616-7.745,11.784-9.902c29.479-12.298,52.438-32.517,69.327-59.417
		c9.188-14.638,17.604-29.79,25.722-45.055c3.383-6.362,5.37-13.532,7.485-20.487c4.628-15.216,3.543-30.937,3.72-46.554
		c0.145-12.791-4.453-24.472-10.562-34.888c-3.576-6.099-6.323-11.417-5.411-18.175c1.236-9.158-1.773-16.201-9.187-21.566
		c-1.334-0.965-2.218-2.611-3.612-3.42c-2.187-1.27-4.646-3.002-6.967-2.969c-29.307,0.421-24.788-4.501-45.842,16.765
		c-0.703,0.711-1.423,1.406-2.118,2.124c-7.723,7.959-17.434,14.596-18.121,27.242c-0.017,0.309-0.309,0.591-0.406,0.906
		c-3.046,9.824-7.422,19.464-8.829,29.518c-2.546,18.208-8.751,33.934-20.53,48.442c-7.86,9.68-15.723,16.754-28.264,17.994
		c-14.765,1.46-29.223,5.424-44.417,1.71c-28.673-7.01-55.044-19.279-80.742-33.301c-2.264-1.236-4.392-3.136-5.939-5.208
		c-11.671-15.635-21.482-32.412-24.188-51.983c-3.403-24.636-5.629-49.437-8.155-74.189c-0.91-8.908-0.133-18.495-5.744-25.873
		c-5.186-6.817-11.895-12.559-18.37-18.277c-2.904-2.563-6.811-5.388-10.383-5.559c-16.475-0.789-33.548-3.348-47.816,8.337
		c-9.794,8.021-19.431,16.249-21.628,29.929c-0.822,5.112-2.433,10.097-3.717,15.276c-5.826,0-10.853-0.382-15.794,0.101
		c-5.607,0.548-8.978-2.029-12.694-5.861c-9.477-9.769-18.942-19.73-29.571-28.151c-11.833-9.377-25.238-15.994-41.365-14.189
		c-5.925,0.663-12.071,0.757-17.97-0.013c-18.956-2.472-26.1,13.22-36.701,23.476c-1.282,1.241-0.859,4.45-0.882,6.75
		c-0.088,8.998,0.251,18.009-0.146,26.99c-0.242,5.503,1.632,9.481,5.555,13.149c6.957,6.503,12.577,15.318,24.717,11.28
		c5.523,14.596,10.703,28.258,15.861,41.929c2.984,7.907,4.073,15.444-3.455,21.804c-1.411,1.192-2.157,3.362-2.823,5.219
		c-4.791,13.353-13.748,24.192-21.29,35.906c-3.337,5.183-6.927,8.153-13.62,7.883c-4.063-0.165-8.222,2.24-12.354,3.428
		c-2.832,0.814-5.665,2.02-8.549,2.189c-11.369,0.668-22.257,3.056-33.067,6.746c-10.193,3.478-19.929,8.119-31.526,7.808
		c-9.159-0.247-17.918,4.374-24.748,11.316c-4.439,4.515-9.239,8.713-13.346,13.508c-4.191,4.895-7.732,10.348-13.023,17.554
		c-5.538,0.792-13.73,1.936-21.914,3.143c-10.616,1.567-21.843,3.164-31.529-1.184c-13.474-6.048-27.16-5.293-41.083-5.848
		c-7.763-0.309-12.986,2.588-18.387,7.794c-6.177,5.954-10.026,12.024-8.689,20.859c0.493,3.257,0.38,6.687,0.015,9.979
		c-0.685,6.144,1.264,10.737,6.021,14.876c19.559,17.018,38.793,34.407,58.296,51.49c15.82,13.859,30.498,28.708,40.966,47.132
		c4.411,7.765,10.034,15.672,11.428,24.121c2.016,12.222,4.243,24.195,8.996,35.582c3.957,9.478,1.384,16.934-4.633,24.793
		c-10.905,14.246-20.831,29.239-31.248,43.861c-9.93,13.938-15.483,28.75-14.139,46.521c0.863,11.395,4.582,20.614,11.852,28.712
		c5.334,5.944,11.5,11.143,16.824,17.095c4.077,4.557,8.415,6.797,14.732,6.279c15.437-1.266,30.918-1.985,46.716-2.945
		c-1.057,0.761-2.057,1.548-3.12,2.236c-15.139,9.792-27.453,21.122-23.374,41.727c0.444,2.245,0.262,4.675,0.021,6.984
		c-0.64,6.152,2.354,10.281,6.097,14.985c9.214,11.583,21.901,13.988,35.22,16.117c14.742,2.357,29.417,5.208,44.033,8.268
		c10.589,2.216,18.399,8.777,24.729,17.372c11.741,15.942,21.083,33.177,25.528,52.483c3.055,13.265,9.434,23.735,19.514,32.625
		c6.789,5.988,13.926,8.593,23.142,9.546c17.69,1.829,30.663-3.937,41.591-17.599c4.63-5.785,8.143-11.507,8.021-18.641
		c-0.359-20.935-0.762-41.892-2.1-62.779c-0.829-12.937-3.732-25.772-10.056-37.286c-5.437-9.898-11.828-19.272-18.907-30.665
		c12.863,7.2,24.253,13.576,35.199,19.704c0,7.153,0.464,12.859-0.093,18.465c-1.326,13.362,3.089,25.59,6.982,37.899
		c1.068,3.378,3.041,6.861,5.552,9.324c10.446,10.25,20.953,20.481,32.037,30.021c7.611,6.553,16.672,11.004,26.889,12.275
		c20.526,2.553,40.441,2.074,60.987-3.459c22.546-6.071,40.417-17.846,56.702-33.427c1.616-1.547,3.531-2.783,5.24-4.111
		c1.726,0.662,3.038,0.981,4.167,1.625c24.823,14.165,52.088,21.594,79.44,28.737c15.507,4.049,30.365,9.566,44.56,17.124
		c18.782,10,37.886,19.396,56.821,29.106c15.095,7.741,30.639,14.757,45.096,23.553c19.037,11.583,37.955,22.885,58.644,31.676
		c32.15,13.662,64.248,27.383,97.199,38.966c48.253,16.96,96.661,33.482,144.999,50.206c27.916,9.658,55.822,19.346,83.722,29.02
		c1.682,3.588,3.265,7.227,5.063,10.754c8.088,15.853,21.2,27.457,34.697,38.131c23.926,18.922,50.191,33.322,80.963,38.754
		c19.166,3.383,38.276,4.726,57.613,4.183c19.773-0.556,39.289-3.658,57.433-11.354c19.838-8.416,38.86-18.751,58.269-28.187
		c4.985-2.423,10.085-4.607,14.66-6.686c1.454,1.356,2.134,1.711,2.385,2.263c11.969,26.355,23.16,53.027,27.74,81.828
		c2.16,13.588,1.604,27.568-3.767,40.255c-13.676,32.303-33.853,60.345-60.188,83.494c-21.723,19.093-44.443,37.05-66.648,55.599
		c-30.801,25.731-65.472,45.726-99.704,66.191c-36.805,22.003-74.545,42.459-112.132,63.128
		c-18.051,9.926-36.903,18.386-55.016,28.208c-42.972,23.303-85.713,47.031-128.572,70.545c-2.593,1.422-5.394,2.464-8.098,3.683
		c7.82-10.404,16.688-18.954,25.237-27.811c8.459-8.763,15.26-18.593,15.635-31.354c0.614-20.948,0.67-41.914,1.508-62.85
		c0.418-10.428-2.354-19.724-7.591-28.389c-11.702-19.356-26.781-35.444-46.344-47.134c-2.528-1.51-4.97-3.446-6.871-5.678
		c-14.546-17.075-31.443-31.379-49.515-44.644c-20.292-14.895-42.016-26.796-65.17-36.433c-7.277-3.029-14.391-6.747-20.997-11.043
		c-30.354-19.744-60.319-40.087-90.784-59.657c-21.267-13.662-43.15-26.359-64.69-39.599c-19.257-11.835-38.218-24.169-57.74-35.546
		c-6.269-3.654-10.004-8.082-12.048-14.746c-4.903-15.984-12.06-30.937-21.039-45.054c-9.101-14.309-17.678-28.959-27.056-43.082
		c-8.629-12.994-17.522-25.876-27.172-38.12c-22.017-27.939-50.003-50.28-73.297-77.102c-7.061-8.13-16.105-14.753-24.988-21.004
		c-5.842-4.111-12.763-7.323-19.672-9.111c-7.604-1.969-15.756-1.774-23.656-2.646c-36.244-3.993-72.504-2.666-108.541,1.521
		c-19.591,2.275-37.263-2.763-53.768-10.971c-22.379-11.127-42.56-25.961-59.778-44.494c-11.101-11.948-22.815-23.321-34.002-35.191
		c-8.358-8.868-17.997-15.699-29.095-20.675c-8.193-3.674-16.021-8.236-24.377-11.456c-6.076-2.344-12.698-4.093-19.165-4.43
		c-12.963-0.673-26.017-0.778-38.978-0.077c-25.777,1.394-50.919,5.978-73.449,19.555c-34.719,20.923-69.334,42.025-103.792,63.375
		c-5.253,3.254-10.082,3.701-15.981,3.172c-23.479-2.104-46.987-4.545-70.529-5.163c-40.933-1.074-81.848,0.127-122.244,7.887
		c-18.264,3.508-36.954,6.003-54.502,11.822c-64.164,21.276-119.582,57.338-168.292,103.831
		c-15.89,15.166-31.42,30.798-46.06,47.161c-19.955,22.307-38.857,45.51-53.422,71.938c-5.443,9.876-11.558,19.475-18.232,28.564
		c-22.116,30.118-40.48,62.484-58.563,95.077c-15.643,28.198-27.785,58.105-44.313,85.956
		c-16.241,27.371-29.768,56.417-43.388,85.246c-5.169,10.942-7.462,23.278-10.682,35.084c-1.162,4.263-2.546,7.768-6.112,10.84
		c-6.295,5.424-12.038,11.516-17.776,17.553c-8.114,8.535-12.718,18.514-12.273,30.614c0.169,4.611,0.226,9.473-1.019,13.834
		c-2.502,8.777-3.123,17.595-2.944,26.613c0.179,8.995,0.409,18.014-0.033,26.992c-1.094,22.155,7.446,40.168,22.998,55.295
		c7.754,7.542,15.658,14.928,24.534,23.373c-22.928-3.363-44.783-2.385-66.06-9.278c-16.996-5.505-35.184-6.815-53.245-6.724
		c-12.995,0.066-26.038,0.616-38.979-0.246c-33.921-2.261-67.852-3.004-101.734-0.426c-30.662,2.333-60.572,8.84-89.089,20.622
		c-20.276,8.376-40.329,17.307-60.379,26.221c-24.331,10.817-48.386,22.321-69.78,38.346
		c-23.931,17.924-47.961,35.822-70.733,55.161c-33.95,28.834-67.191,58.533-100.029,88.633
		c-16.913,15.503-32.829,32.192-48.246,49.205c-18.306,20.199-35.583,41.334-48.396,65.658
		c-5.738,10.895-10.693,22.275-17.246,32.65c-15.101,23.908-31.338,47.1-46.376,71.046c-9.177,14.614-17.864,29.672-25.227,45.261
		c-16.791,35.554-26.873,73.61-39.26,110.774c-6.813,20.442-10.542,41.902-17.135,62.431
		c-21.423,66.725-31.284,135.09-30.729,205.041c0.22,27.613,0.287,55.248,1.481,82.827c0.944,21.821,0.979,43.884,8.051,64.994
		c-9.854,13.62-19.777,26.946-29.266,40.576c-7.62,10.944-15.719,21.378-25.715,30.302c-6.701,5.982-12.887,12.547-19.656,18.446
		c-5.492,4.786-11.061,9.785-17.385,13.25c-13.412,7.348-23.998,17.826-34.324,28.682c-9.072,9.537-13.953,20.769-13.279,34.259
		c0.398,7.979,0.368,16.008-0.002,23.988c-0.466,10.066,2.652,19.016,7.591,27.468c3.525,6.033,7.585,11.757,11.038,17.829
		c9.007,15.836,21.37,28.783,34.654,40.973c5.631,5.167,11.934,9.777,16.764,15.607c19.551,23.601,39.621,46.658,62.406,67.265
		c3.024,2.734,5.62,6.752,6.707,10.65c2.323,8.334,6.595,15.048,12.892,20.806c4.669,4.269,9.168,8.754,13.425,13.434
		c4.899,5.388,10.896,8.782,17.891,10.039c18.779,3.374,37.589,3.482,56.337-0.443c8.683-1.819,17.297-4.638,26.061-5.219
		c10.956-0.727,20.941-4.01,30.132-9.208c18.471-10.45,37.85-19.66,53.023-35.146c0.883-0.901,2.164-1.491,3.356-2.002
		c14.044-6.005,26.207-14.939,35.712-26.603c6.506-7.984,13.649-9.957,23.234-9.492c11.579,0.562,23.299,1.178,34.714-2.371
		c6.336-1.969,12.786-3.723,19.305-4.924c16.038-2.955,30.355-9.304,42.913-19.815c6.309-5.282,13.117-9.966,20.402-15.448
		c6.187,5.036,11.855,10.108,17.998,14.52c5.623,4.036,11.352,9.014,17.769,10.595c9.078,2.237,15.266,7.36,21.368,13.618
		c9.868,10.116,22.207,16.507,36.023,17.693c17.526,1.504,35.268,1.79,52.845,0.996c13.521-0.609,27.083-2.814,39.442-9.575
		c3.968-2.17,8.79-3.522,13.311-3.803c13.269-0.823,26.636-1.866,39.867-1.108c30.991,1.776,59.215-7.688,86.122-21.079
		c14.738-7.336,30.479-10.723,45.092-16.777c13.732,13.217,27.006,25.823,40.092,38.62c34.527,33.761,69.019,67.558,103.438,101.43
		c29.68,29.207,59.235,58.542,88.866,87.799c1.891,1.866,4.032,3.479,5.933,5.335c5.209,5.086,10.354,10.239,15.064,14.911
		c-7.584,10.801-14.206,21.549-22.15,31.21c-9.992,12.153-14.246,25.841-14.356,41.181c-0.071,9.998-0.649,20.048,0.152,29.982
		c0.935,11.572,2.868,23.264,10.743,32.537c7.526,8.863,15.768,17.117,23.521,25.793c19.645,21.984,44.665,24.18,71.396,19.104
		c4.97-0.944,9.576-4.176,14.163-6.693c6.938-3.806,13.292-9.95,20.642-11.455
		C1450.674,3426.775,1464.216,3421.895,1477.601,3414.865z M1729.291,925.933c10.44,3.187,19.402-2.616,26.764-12.229
		c0.2-0.262,0.557-0.433,0.684-0.716c0.915-2.037,2.345-4.028,2.589-6.15c2.6-22.61,0.243-28.815-16.247-43.473
		c-1.44-1.281-3.21-3.128-4.828-3.128c-14.827-0.004-31.028-4.516-41.37,11.594c-0.525,0.818-1.626,1.308-2.036,2.154
		c-1.238,2.553-3.074,5.163-3.225,7.834c-0.433,7.61-0.311,15.267-0.035,22.893c0.076,2.11,0.971,4.568,2.307,6.194
		c8.013,9.747,16.873,18.021,31.103,15.045C1725.633,925.817,1726.321,925.933,1729.291,925.933z M2735.328,1200.263
		c0,2.323,0.284,4.688-0.054,6.96c-1.028,6.94,2.316,11.477,6.784,16.494c6.939,7.794,14.503,11.977,25.028,10.241
		c2.585-0.427,5.338-0.353,7.946-0.006c6.162,0.819,10.957-1.09,14.741-6.071c2.961-3.895,8.689-7.369,8.963-11.323
		c1.023-14.803,4.438-30.922-11.596-41.159c-1.094-0.698-1.768-2.081-2.882-2.715c-1.926-1.096-4.016-2.551-6.085-2.631
		c-7.952-0.307-15.926-0.24-23.885-0.045c-1.817,0.045-3.984,0.712-5.349,1.856c-8.491,7.113-16.464,14.608-13.622,27.403
		C2735.39,1199.585,2735.328,1199.931,2735.328,1200.263z"/>
	<path fill-rule="evenodd" d="M1477.601,3414.865c-13.385,7.029-26.927,11.91-41.458,14.887c-7.35,1.505-13.705,7.649-20.642,11.455
		c-4.587,2.518-9.193,5.749-14.163,6.693c-26.732,5.076-51.751,2.881-71.396-19.104c-7.754-8.676-15.995-16.93-23.521-25.793
		c-7.875-9.273-9.808-20.965-10.743-32.537c-0.802-9.935-0.224-19.984-0.152-29.982c0.11-15.34,4.365-29.027,14.356-41.181
		c7.944-9.661,14.566-20.409,22.15-31.21c-4.711-4.672-9.855-9.825-15.064-14.911c-1.901-1.856-4.042-3.469-5.933-5.335
		c-29.631-29.257-59.186-58.592-88.866-87.799c-34.419-33.872-68.912-67.669-103.438-101.43
		c-13.086-12.797-26.36-25.403-40.092-38.62c-14.613,6.055-30.354,9.441-45.092,16.777c-26.907,13.392-55.131,22.855-86.122,21.079
		c-13.231-0.758-26.598,0.285-39.867,1.108c-4.521,0.28-9.342,1.633-13.311,3.803c-12.36,6.761-25.922,8.966-39.442,9.575
		c-17.577,0.794-35.319,0.508-52.845-0.996c-13.816-1.187-26.156-7.577-36.023-17.693c-6.102-6.258-12.29-11.381-21.368-13.618
		c-6.417-1.581-12.146-6.559-17.769-10.595c-6.143-4.411-11.811-9.483-17.998-14.52c-7.285,5.482-14.094,10.166-20.402,15.448
		c-12.558,10.512-26.875,16.86-42.913,19.815c-6.519,1.201-12.969,2.955-19.305,4.924c-11.415,3.549-23.135,2.933-34.714,2.371
		c-9.585-0.465-16.728,1.508-23.234,9.492c-9.505,11.663-21.668,20.598-35.712,26.603c-1.192,0.511-2.474,1.101-3.356,2.002
		c-15.174,15.486-34.552,24.696-53.023,35.146c-9.19,5.198-19.176,8.481-30.132,9.208c-8.764,0.581-17.378,3.399-26.061,5.219
		c-18.749,3.926-37.559,3.817-56.337,0.443c-6.995-1.257-12.992-4.651-17.891-10.039c-4.256-4.68-8.755-9.165-13.425-13.434
		c-6.297-5.758-10.569-12.472-12.892-20.806c-1.087-3.898-3.683-7.916-6.707-10.65c-22.785-20.606-42.855-43.664-62.406-67.265
		c-4.83-5.83-11.133-10.44-16.764-15.607c-13.285-12.189-25.647-25.137-34.654-40.973c-3.453-6.072-7.513-11.796-11.038-17.829
		c-4.939-8.452-8.058-17.401-7.591-27.468c0.37-7.98,0.4-16.009,0.002-23.988c-0.673-13.49,4.208-24.722,13.279-34.259
		c10.326-10.855,20.912-21.334,34.324-28.682c6.324-3.465,11.894-8.464,17.385-13.25c6.769-5.899,12.955-12.464,19.656-18.446
		c9.996-8.924,18.095-19.357,25.715-30.302c9.488-13.63,19.411-26.956,29.266-40.576c-7.072-21.11-7.106-43.173-8.051-64.994
		c-1.194-27.579-1.262-55.214-1.481-82.827c-0.555-69.951,9.307-138.316,30.729-205.041c6.592-20.528,10.321-41.988,17.135-62.431
		c12.387-37.164,22.469-75.221,39.26-110.774c7.362-15.589,16.05-30.646,25.227-45.261c15.038-23.946,31.275-47.138,46.376-71.046
		c6.553-10.375,11.507-21.756,17.246-32.65c12.814-24.324,30.09-45.459,48.396-65.658c15.417-17.013,31.333-33.702,48.246-49.205
		c32.838-30.1,66.079-59.799,100.029-88.633c22.772-19.339,46.803-37.237,70.733-55.161c21.395-16.025,45.449-27.529,69.78-38.346
		c20.05-8.914,40.103-17.845,60.379-26.221c28.517-11.781,58.427-18.289,89.089-20.622c33.883-2.578,67.813-1.835,101.734,0.426
		c12.942,0.862,25.984,0.313,38.979,0.246c18.061-0.092,36.249,1.218,53.245,6.724c21.277,6.893,43.132,5.915,66.06,9.278
		c-8.876-8.445-16.78-15.831-24.534-23.373c-15.552-15.127-24.092-33.14-22.998-55.295c0.442-8.978,0.212-17.997,0.033-26.992
		c-0.179-9.019,0.441-17.836,2.944-26.613c1.244-4.361,1.188-9.223,1.019-13.834c-0.445-12.1,4.159-22.079,12.273-30.614
		c5.738-6.037,11.481-12.128,17.776-17.553c3.566-3.073,4.95-6.577,6.112-10.84c3.22-11.806,5.513-24.143,10.682-35.084
		c13.621-28.829,27.147-57.875,43.388-85.246c16.527-27.851,28.669-57.758,44.313-85.956c18.083-32.593,36.448-64.959,58.563-95.077
		c6.674-9.089,12.789-18.688,18.232-28.564c14.564-26.429,33.467-49.632,53.422-71.938c14.64-16.363,30.17-31.995,46.06-47.161
		c48.71-46.492,104.128-82.555,168.292-103.831c17.548-5.819,36.238-8.313,54.502-11.822c40.396-7.76,81.311-8.961,122.244-7.887
		c23.542,0.618,47.05,3.059,70.529,5.163c5.899,0.529,10.728,0.082,15.981-3.172c34.458-21.35,69.072-42.452,103.792-63.375
		c22.529-13.578,47.672-18.161,73.449-19.555c12.96-0.701,26.015-0.597,38.978,0.077c6.466,0.337,13.088,2.086,19.165,4.43
		c8.355,3.22,16.184,7.782,24.377,11.456c11.098,4.976,20.736,11.808,29.095,20.675c11.187,11.87,22.901,23.243,34.002,35.191
		c17.219,18.532,37.399,33.366,59.778,44.494c16.505,8.208,34.177,13.247,53.768,10.971c36.037-4.186,72.297-5.514,108.541-1.521
		c7.9,0.871,16.052,0.677,23.656,2.646c6.909,1.789,13.83,5,19.672,9.111c8.883,6.251,17.928,12.874,24.988,21.004
		c23.294,26.822,51.28,49.162,73.297,77.102c9.649,12.244,18.543,25.126,27.172,38.12c9.378,14.123,17.955,28.773,27.056,43.082
		c8.979,14.118,16.136,29.07,21.039,45.054c2.044,6.664,5.779,11.092,12.048,14.746c19.522,11.377,38.483,23.711,57.74,35.546
		c21.54,13.24,43.424,25.937,64.69,39.599c30.465,19.57,60.431,39.913,90.784,59.657c6.606,4.297,13.72,8.015,20.997,11.043
		c23.154,9.636,44.878,21.538,65.17,36.433c18.071,13.265,34.969,27.569,49.515,44.644c1.901,2.232,4.343,4.167,6.871,5.678
		c19.563,11.689,34.642,27.778,46.344,47.134c5.237,8.665,8.009,17.961,7.591,28.389c-0.838,20.936-0.894,41.902-1.508,62.85
		c-0.375,12.761-7.176,22.592-15.635,31.354c-8.549,8.857-17.417,17.407-25.237,27.811c2.704-1.219,5.505-2.261,8.098-3.683
		c42.859-23.514,85.601-47.242,128.572-70.545c18.112-9.821,36.965-18.282,55.016-28.208
		c37.587-20.668,75.327-41.125,112.132-63.128c34.232-20.465,68.903-40.459,99.704-66.191
		c22.205-18.549,44.926-36.506,66.648-55.599c26.336-23.149,46.513-51.191,60.188-83.494c5.371-12.687,5.927-26.667,3.767-40.255
		c-4.58-28.801-15.771-55.473-27.74-81.828c-0.251-0.552-0.931-0.907-2.385-2.263c-4.575,2.079-9.675,4.262-14.66,6.686
		c-19.408,9.436-38.431,19.771-58.269,28.187c-18.144,7.696-37.659,10.798-57.433,11.354c-19.337,0.543-38.447-0.8-57.613-4.183
		c-30.771-5.432-57.037-19.832-80.963-38.754c-13.497-10.674-26.609-22.278-34.697-38.131c-1.799-3.527-3.382-7.166-5.058-10.753
		c-27.905-9.674-55.812-19.362-83.728-29.021c-48.338-16.724-96.746-33.245-144.999-50.206
		c-32.951-11.583-65.049-25.304-97.199-38.966c-20.688-8.791-39.606-20.092-58.644-31.676
		c-14.457-8.796-30.001-15.812-45.096-23.553c-18.936-9.71-38.039-19.106-56.821-29.106c-14.194-7.558-29.053-13.074-44.56-17.124
		c-27.353-7.143-54.617-14.572-79.44-28.737c-1.129-0.644-2.441-0.963-4.167-1.625c-1.709,1.328-3.624,2.564-5.24,4.111
		c-16.285,15.581-34.156,27.356-56.702,33.427c-20.546,5.534-40.461,6.012-60.987,3.459c-10.217-1.271-19.277-5.722-26.889-12.275
		c-11.084-9.541-21.591-19.772-32.037-30.021c-2.511-2.463-4.483-5.946-5.552-9.324c-3.894-12.309-8.309-24.538-6.982-37.899
		c0.557-5.606,0.093-11.312,0.093-18.465c-10.946-6.127-22.336-12.503-35.199-19.704c7.079,11.393,13.471,20.767,18.907,30.665
		c6.323,11.514,9.227,24.35,10.056,37.286c1.338,20.887,1.74,41.844,2.1,62.779c0.122,7.134-3.391,12.856-8.021,18.641
		c-10.928,13.662-23.9,19.428-41.591,17.599c-9.216-0.953-16.353-3.558-23.142-9.546c-10.08-8.889-16.459-19.36-19.514-32.625
		c-4.445-19.306-13.787-36.541-25.528-52.483c-6.329-8.595-14.14-15.155-24.729-17.372c-14.616-3.059-29.291-5.911-44.033-8.268
		c-13.318-2.129-26.006-4.535-35.22-16.117c-3.743-4.705-6.736-8.833-6.097-14.985c0.24-2.309,0.423-4.739-0.021-6.984
		c-4.079-20.605,8.235-31.935,23.374-41.727c1.063-0.688,2.063-1.475,3.12-2.236c-15.798,0.96-31.279,1.679-46.716,2.945
		c-6.317,0.518-10.655-1.722-14.732-6.279c-5.324-5.952-11.49-11.151-16.824-17.095c-7.271-8.099-10.989-17.318-11.852-28.712
		c-1.344-17.771,4.209-32.583,14.139-46.521c10.417-14.622,20.343-29.615,31.248-43.861c6.017-7.859,8.59-15.315,4.633-24.793
		c-4.753-11.386-6.98-23.359-8.996-35.582c-1.394-8.449-7.017-16.356-11.428-24.121c-10.468-18.424-25.146-33.273-40.966-47.132
		c-19.503-17.083-38.737-34.472-58.296-51.49c-4.757-4.139-6.706-8.732-6.021-14.876c0.365-3.292,0.479-6.722-0.015-9.979
		c-1.337-8.835,2.512-14.905,8.689-20.859c5.401-5.206,10.624-8.103,18.387-7.794c13.924,0.555,27.61-0.2,41.083,5.848
		c9.686,4.348,20.913,2.751,31.529,1.184c8.184-1.208,16.376-2.351,21.914-3.143c5.291-7.206,8.832-12.66,13.023-17.554
		c4.106-4.795,8.906-8.993,13.346-13.508c6.83-6.942,15.589-11.563,24.748-11.316c11.598,0.312,21.333-4.33,31.526-7.808
		c10.811-3.69,21.698-6.078,33.067-6.746c2.884-0.17,5.717-1.375,8.549-2.189c4.133-1.188,8.291-3.593,12.354-3.428
		c6.693,0.271,10.283-2.7,13.62-7.883c7.542-11.713,16.499-22.553,21.29-35.906c0.666-1.857,1.412-4.026,2.823-5.219
		c7.528-6.359,6.439-13.896,3.455-21.804c-5.158-13.67-10.338-27.333-15.861-41.929c-12.14,4.039-17.76-4.776-24.717-11.28
		c-3.923-3.667-5.797-7.646-5.555-13.149c0.396-8.981,0.058-17.993,0.146-26.99c0.022-2.301-0.4-5.509,0.882-6.75
		c10.602-10.255,17.745-25.948,36.701-23.476c5.898,0.77,12.045,0.676,17.97,0.013c16.127-1.805,29.532,4.812,41.365,14.189
		c10.629,8.421,20.095,18.382,29.571,28.151c3.717,3.832,7.087,6.409,12.694,5.861c4.941-0.482,9.968-0.101,15.794-0.101
		c1.284-5.179,2.895-10.165,3.717-15.276c2.197-13.68,11.834-21.909,21.628-29.929c14.269-11.685,31.342-9.126,47.816-8.337
		c3.572,0.171,7.479,2.996,10.383,5.559c6.476,5.718,13.185,11.459,18.37,18.277c5.611,7.378,4.834,16.965,5.744,25.873
		c2.526,24.752,4.752,49.553,8.155,74.189c2.705,19.571,12.517,36.348,24.188,51.983c1.548,2.072,3.676,3.972,5.939,5.208
		c25.698,14.021,52.069,26.291,80.742,33.301c15.194,3.714,29.652-0.25,44.417-1.71c12.541-1.239,20.403-8.313,28.264-17.994
		c11.779-14.508,17.984-30.235,20.53-48.442c1.407-10.054,5.783-19.694,8.829-29.518c0.098-0.315,0.39-0.597,0.406-0.906
		c0.688-12.646,10.398-19.283,18.121-27.242c0.695-0.718,1.415-1.413,2.118-2.124c21.054-21.267,16.535-16.344,45.842-16.765
		c2.321-0.033,4.78,1.7,6.967,2.969c1.395,0.81,2.278,2.456,3.612,3.42c7.413,5.365,10.423,12.408,9.187,21.566
		c-0.912,6.758,1.835,12.076,5.411,18.175c6.108,10.417,10.706,22.098,10.562,34.888c-0.177,15.617,0.908,31.338-3.72,46.554
		c-2.115,6.955-4.103,14.125-7.485,20.487c-8.117,15.265-16.534,30.417-25.722,45.055c-16.889,26.9-39.848,47.118-69.327,59.417
		c-5.168,2.157-8.769,5.132-11.784,9.902c-9.772,15.453-20.248,30.462-30.059,45.892c-3.365,5.292-5.466,11.375-8.344,16.995
		c-1.753,3.422-1.127,6.237,0.973,9.265c5.107,7.37,9.57,15.229,15.103,22.252c7.159,9.092,9.962,19.269,10.377,30.543
		c0.561,15.252,1.437,30.493,2.21,46.396c29.214,11.851,58.211,24.057,87.557,35.355c18.27,7.033,37.304,12.086,55.557,19.159
		c15.473,5.994,30.185,13.922,45.474,20.43c18.011,7.666,36.279,14.724,53.781,21.781c13.145-13.476,25.485-27.533,39.296-39.954
		c20.74-18.654,41.707-37.247,64.063-53.865c24.524-18.229,50.573-34.44,76.256-51.071c27.479-17.795,58.542-25.385,90.551-28.329
		c18.775-1.726,37.976-1.676,56.725,0.184c12.948,1.284,25.469,6.981,38.144,10.829c2.471,0.749,4.771,2.059,7.228,3.144
		c8.48-14.877,20.237-25.901,34.349-34.553c1.418-0.869,2.813-2.1,4.36-2.382c12.427-2.26,19.733-11.645,27.823-19.867
		c7.703-7.83,16.227-15.167,22.385-24.104c4.974-7.218,10.705-13.441,16.494-19.823c7.067-7.789,15.182-14.188,24.921-17.923
		c9.311-3.572,12.681-10.746,14.698-19.52c1.25-5.44,3.251-10.703,4.718-16.099c0.853-3.134,1.785-6.364,1.862-9.571
		c0.239-9.993,0.046-19.996,0.101-29.994c0.07-12.89,4.316-24.046,13.876-32.962c7.768-7.246,14.963-15.243,23.393-21.61
		c12.645-9.55,28.484-11.031,43.416-12.769c23.059-2.684,46.369-3.64,69.601-4.219c15.273-0.381,30.248,1.973,44.689,8.319
		c14.872,6.535,30.395,11.685,45.865,16.729c16.653,5.43,31.645,13.714,45.892,23.725c15.744,11.062,30.903,22.85,47.937,32.216
		c17.743,9.756,31.038,24.869,40.613,42.903c1.061,1.996,1.829,4.41,1.862,6.645c0.232,15.95,0.588,31.838-3.704,47.55
		c-4.194,15.353-6.1,31.394-11.052,46.461c-7.666,23.331-17.07,46.091-25.73,69.096c-0.927,2.462-1.805,4.941-2.212,6.056
		c18.685,28.416,36.48,56.041,54.865,83.27c15.227,22.553,24.896,47.588,34.563,72.736c10.846,28.216,22.649,56.071,33.154,84.409
		c6.813,18.375,12.696,37.16,17.826,56.077c7.13,26.288,13.627,52.771,19.465,79.374c2.759,12.57,3.316,25.619,4.962,38.439
		c0.461,3.594,0.747,7.324,1.956,10.689c7.809,21.738,11.538,44.356,14.114,67.133c4.579,40.486,3.091,81.148,1.688,121.718
		c-0.929,26.845-3.526,53.648-5.843,80.429c-4.378,50.612-9.132,101.267-21.532,150.65c-10.43,41.532-22.357,82.706-34.447,123.795
		c-6.12,20.804-16.325,40.065-27.837,58.388c-14.847,23.634-29.623,47.415-46.157,69.859c-18.207,24.717-40.979,45.454-64.19,65.474
		c-33.261,28.687-67.401,56.278-104.378,80.128c-41.65,26.864-82.653,54.726-126.858,77.491
		c-39.586,20.387-78.241,42.585-117.885,62.854c-68.37,34.958-136.929,69.571-205.913,103.298
		c-46.271,22.621-92.961,44.518-140.329,64.71c-28.999,12.361-59.766,20.523-89.496,31.243
		c-25.701,9.267-51.97,16.378-78.531,22.473c-15.047,3.45-30.376,3.183-45.646,1.181c-2.263-0.296-4.488-1.046-6.668-1.771
		c-17.944-5.959-35.882-11.937-53.806-17.954c-28.992-9.732-57.775-20.141-87.013-29.066c-27.942-8.531-56.343-15.563-84.56-23.186
		c-6.314-1.706-11.817-1.23-17.032,3.99c-10.808,10.819-21.825,21.518-33.559,31.304c-28.576,23.836-57.193,47.662-86.596,70.457
		c-22.834,17.702-44.018,37.596-69.076,52.429c-19.751,11.692-39.305,23.734-58.685,36.035
		c-23.861,15.146-47.63,30.397-70.067,47.724c-18.977,14.654-39.84,26.324-61.531,36.85c-24.793,12.03-48.56,26.193-72.664,39.627
		c-22.079,12.303-43.853,25.163-66.097,37.155c-7.514,4.052-15.912,6.678-24.153,9.123c-27.212,8.071-54.802,14.447-83.459,12.261
		c-11.526-0.88-23.697-1.548-34.161-5.796c-10.774-4.373-20.743-11.986-29.451-19.948c-21.347-19.516-42.125-39.69-62.461-60.264
		c-23.479-23.754-44.241-49.642-58.374-80.306c-11.194-24.287-28.318-44.043-48.035-61.734
		c-8.662-7.772-17.127-15.788-26.114-23.168c-11.477-9.427-17.255-22.577-24.35-34.957c-2.947-5.142-6.646-9.87-10.176-14.657
		c-9.869-13.378-19.694-26.792-29.8-39.989c-6.669-8.709-13.91-16.979-20.667-25.622c-3.597-4.6-7.935-5.482-13.237-4.035
		c-9.894,2.702-19.801,5.36-29.721,7.968c-10.604,2.785-21.217,5.54-31.849,8.22c-21.606,5.444-43.138,11.229-64.864,16.149
		c-39.567,8.961-79.274,17.305-118.882,26.091c-16.849,3.739-33.424,9.151-50.442,11.563c-13.633,1.933-27.763,0.916-41.634,0.322
		c-5.823-0.249-11.536-2.83-17.319-4.268c-23.458-5.83-23.199-4.957-46.342,2.068c-15.271,4.637-31.278,5.524-46.507-2.424
		c-24.773-12.932-50.065-24.916-74.445-38.543c-14.135-7.9-29.301-10.405-44.627-13.054c-12.437-2.149-25.056-3.244-37.491-5.396
		c-13.396-2.32-26.463-0.189-39.647,1.541c-27.556,3.615-52.242,15.278-76.412,27.853c-29.524,15.361-57.746,32.889-83.741,53.909
		c-7.896,6.386-15.27,12.937-20.169,21.798c-11.576,20.937-23.558,41.688-34.124,63.129c-9.785,19.857-13.576,41.62-15.419,63.553
		c-0.486,5.797,0.94,11.933,2.418,17.674c1.893,7.362,4.726,14.482,7.417,22.489c14.827,0,29.422-0.324,43.993,0.133
		c7.558,0.238,15.245,1.175,22.561,3.032c8.407,2.134,16.645,3.742,25.415,3.909c12.417,0.236,23.994,3.5,34.514,11.144
		c9.401,6.83,19.046,13.096,27.761,21.007c15.546,14.11,24.214,32.02,28.674,51.537c3.825,16.738,9.961,30.108,23.563,41.744
		c27.278,23.334,52.965,48.551,78.921,73.396c18.757,17.954,36.778,36.614,53.36,56.706c15.429,18.695,31.995,36.452,48.104,54.582
		c11.261,12.674,22.571,25.304,33.907,37.91c17.126,19.048,34.938,37.524,51.299,57.206c26.352,31.7,51.36,64.518,77.709,96.221
		c17.196,20.69,35.487,40.498,53.796,60.229c15.206,16.388,29.341,33.479,41.124,52.529c6.63,10.72,13.928,21.026,21.388,32.213
		c4.956-3.804,9.417-7.073,13.701-10.56c5.425-4.416,11.631-6.18,18.509-6.157c12.332,0.039,24.714-0.703,36.981,0.188
		c15.745,1.145,30.876,4.566,41.994,17.556c7.771,9.079,16.543,17.329,23.995,26.648c9.506,11.887,10.297,27.112,13.95,41.188
		c4.424,17.045,2.475,34.462,2.244,51.708c-0.061,4.501-2.968,9.586-5.94,13.309c-8.487,10.628-17.42,20.937-26.729,30.854
		c-3.612,3.848-4.111,6.856-1.912,11.41c11.373,23.553,15.361,48.631,14.94,74.579c-0.103,6.331-0.191,12.67,0.03,18.995
		c0.264,7.541-0.859,14.49-5.744,20.661c-1.796,2.269-2.868,5.299-3.64,8.152c-3.146,11.612-9.268,21.211-18.3,29.155
		c-4.744,4.175-9.246,8.687-13.425,13.427c-5.474,6.21-12.458,9.085-20.328,9.114c-14.892,0.057-29.99,1.891-44.43-3.872
		c-1.65-0.658-3.907-0.629-5.645-0.113C1537.313,3434.727,1502.941,3430.272,1477.601,3414.865z"/>
	<path fill-rule="evenodd" d="M1729.291,925.933c-2.97,0-3.658-0.116-4.294,0.017c-14.23,2.977-23.09-5.298-31.103-15.045
		c-1.336-1.626-2.23-4.084-2.307-6.194c-0.275-7.626-0.397-15.282,0.035-22.893c0.151-2.671,1.987-5.281,3.225-7.834
		c0.41-0.847,1.511-1.336,2.036-2.154c10.341-16.109,26.542-11.598,41.37-11.594c1.617,0,3.387,1.847,4.828,3.128
		c16.49,14.658,18.847,20.863,16.247,43.473c-0.244,2.123-1.675,4.113-2.589,6.15c-0.127,0.283-0.483,0.454-0.684,0.716
		C1748.692,923.317,1739.73,929.119,1729.291,925.933z"/>
	<path fill-rule="evenodd" d="M2735.328,1200.263c0-0.332,0.062-0.678-0.009-0.994c-2.842-12.795,5.131-20.29,13.622-27.403
		c1.364-1.145,3.531-1.812,5.349-1.856c7.959-0.195,15.933-0.262,23.885,0.045c2.069,0.08,4.159,1.535,6.085,2.631
		c1.114,0.634,1.788,2.017,2.882,2.715c16.033,10.237,12.619,26.356,11.596,41.159c-0.273,3.954-6.002,7.428-8.963,11.323
		c-3.784,4.981-8.579,6.89-14.741,6.071c-2.608-0.347-5.361-0.421-7.946,0.006c-10.525,1.736-18.089-2.447-25.028-10.241
		c-4.468-5.018-7.813-9.554-6.784-16.494C2735.612,1204.951,2735.328,1202.586,2735.328,1200.263z"/>
</g>
</svg>
