<?xml version="1.0" encoding="utf-8"?>
<!-- Generator: Adobe Illustrator 16.0.2, SVG Export Plug-In . SVG Version: 6.00 Build 0)  -->
<!DOCTYPE svg PUBLIC "-//W3C//DTD SVG 1.1 Tiny//EN" "http://www.w3.org/Graphics/SVG/1.1/DTD/svg11-tiny.dtd">
<svg version="1.1" baseProfile="tiny" id="Layer_1" xmlns="http://www.w3.org/2000/svg" xmlns:xlink="http://www.w3.org/1999/xlink"
	 x="0px" y="0px" width="4043.494px" height="3501.563px" viewBox="0 0 4043.494 3501.563" xml:space="preserve">
<g>
	<path fill-rule="evenodd" fill="#FFFFFF" d="M2,2c1348.498,0,2696.995,0,4045.493,0c0,1167.854,0,2335.707,0,3503.562
		c-1348.498,0-2696.995,0-4045.493,0C2,2337.707,2,1169.854,2,2z M1162.242,1681.631c-0.205,0.724-0.409,1.448-0.614,2.171
		c-8.904,0-17.816,0.244-26.71-0.043c-31.57-1.019-63.088-3.042-94.734-0.958c-30.843,2.031-61.813,2.183-92.641,4.389
		c-23.483,1.68-46.997,4.3-70.191,8.282c-28.507,4.892-56.676,11.737-85.029,17.553c-36.463,7.479-72.421,16.396-107.14,30.326
		c-43.628,17.505-86.095,36.881-124.582,64.332c-27.375,19.526-54.88,38.907-78.843,62.585
		c-24.132,23.846-49.191,46.851-70.1,73.811c-14.262,18.39-29.467,36.062-43.387,54.7c-27.777,37.192-47.622,79.117-69.956,119.542
		c-15.474,28.008-25.428,58.465-38.525,87.529c-4.095,9.087-8.54,18.078-11.779,27.474c-4.971,14.416-8.927,29.18-13.517,43.731
		c-5.3,16.804-11.369,33.384-16.128,50.335c-9.319,33.188-8.925,67.637-11.919,101.62c-1.516,17.202-1.671,34.524-2.461,51.791
		c-1.214,26.538-2.695,53.066-3.542,79.616c-0.328,10.262,1,20.565,1.157,30.857c0.402,26.318,2.046,52.474,9.604,77.884
		c1.186,3.986,0.691,6.358-2.687,9.403c-13.589,12.244-26.992,24.729-39.873,37.715c-10.759,10.844-20.075,23.156-31.124,33.668
		c-21.689,20.634-38.291,45.106-54.177,70.055c-5.978,9.388-10.762,20.136-13.335,30.921c-2.573,10.781-1.67,22.388-2.352,33.628
		c-1.228,20.262,6.288,36.504,20.626,50.88c11.942,11.973,26.434,21.227,36.603,35.054c3.331,4.53,7.258,8.751,11.481,12.468
		c10.227,8.997,20.985,17.395,31.167,26.44c12.927,11.485,25.581,23.279,38.196,35.107c13.648,12.797,27.973,24.477,45.297,32.199
		c5.034,2.243,9.508,6.115,13.671,9.87c10.977,9.902,23.484,16.31,38.328,17.142c12.944,0.726,25.951,0.387,38.887,1.191
		c12.452,0.774,23.427-3.299,34.573-8.014c10.892-4.607,18.239-13.193,26.361-21.006c17.965-17.278,36.061-34.429,53.751-51.984
		c9.164-9.094,17.579-18.943,25.078-27.089c21.057,0,40.685,0.083,60.312-0.035c9.689-0.058,18.885-1.698,27.718-6.507
		c9.278-5.053,19.332-8.68,29.154-12.978c4.85,3.97,8.936,7.912,13.586,11.004c12.703,8.446,25.379,16.994,38.588,24.595
		c8.263,4.755,17.135,9.599,26.319,11.381c22.808,4.427,45.864,8.981,68.982,10.078c35.503,1.687,71.198,2.128,106.207-6.993
		c28.332-7.381,56.892-13.733,83.268-27.219c12.406-6.343,25.536-11.257,38.221-17.072c4.572-2.095,7.923-1.71,11.45,2.132
		c6.53,7.113,13.58,13.744,20.249,20.732c16.313,17.092,32.312,34.488,48.855,51.353c14.897,15.185,30.563,29.614,45.513,44.747
		c28.803,29.157,59.483,56.179,91.402,81.842c9.211,7.405,18.153,15.145,27.414,22.894c-4.142,5.236-7.423,9.826-11.151,14.018
		c-13.021,14.643-18.914,31.514-17.678,51.196c0.997,15.869-0.113,31.705,2.77,47.682c1.626,9.011,4.775,16.006,9.506,23.344
		c11.851,18.384,27.114,33.644,42.599,48.779c8.557,8.362,18.332,14.812,30.434,15.765c15.558,1.225,31.192,1.561,46.802,1.986
		c3.93,0.107,7.947-0.627,11.829-1.437c22.303-4.65,42.22-13.983,58.55-30.88c5.496,4.167,10.656,8.274,16.033,12.075
		c2.676,1.894,5.603,3.621,8.664,4.749c20.245,7.459,41.216,7.177,62.046,4.169c20.089-2.899,37.637-12.883,54.948-22.916
		c3.119-1.807,5.996-4.199,8.579-6.736c10.938-10.742,21.71-21.651,32.565-32.477c10.468-10.438,14.83-23.831,15.753-37.83
		c0.914-13.854-0.523-27.871-1.057-41.813c-0.494-12.922-5.766-23.668-15.076-32.578c-2.823-2.701-5.295-5.768-7.935-8.674
		c1.534-2.747,2.733-4.723,3.772-6.78c5.752-11.387,9.953-23.455,10.393-36.133c0.678-19.561,1.647-39.286-4.357-58.424
		c-0.584-1.861-0.787-3.931-0.725-5.889c0.161-5.073-2.087-8.972-5.507-12.393c-9.426-9.427-18.625-19.097-28.366-28.185
		c-6.804-6.346-14.24-12.398-24.28-12.408c-17.646-0.018-35.374-0.652-52.911,0.83c-16.764,1.418-33.328,5.203-50.535,8.038
		c-22.121-17.857-42.582-38.688-61.568-61.034c-12.696-14.942-25.406-29.888-38.596-44.389
		c-30.204-33.205-60.949-65.92-91.027-99.238c-38.988-43.188-78.015-86.36-116.101-130.34
		c-22.834-26.368-43.938-54.238-65.744-81.493c-5.404-6.753-10.398-13.833-15.783-20.601c-14.909-18.741-29.905-37.414-44.92-56.072
		c-2.24-2.783-3.118-5.419-1.925-9.117c5.885-18.263,7.698-37.113,6.516-56.159c-0.819-13.201-1.308-26.534-7.206-38.921
		c-10.9-22.892-26.19-42.197-45.775-58.276c-8.351-6.856-17.439-12.051-27.585-15.683c-11.227-4.019-22.658-7.71-33.392-12.819
		c-28.416-13.528-58.191-12.453-88.076-8.737c-12.754,1.587-25.206,5.606-38.711,8.733c-0.787-13.665-6.488-26.162-3.497-40.252
		c2.883-13.583,3.716-27.63,5.004-41.516c1.507-16.25,3.428-32.274,11.508-46.942c6.095-11.064,11.378-22.581,17.609-33.563
		c3.424-6.037,7.356-12.111,12.29-16.901c11.933-11.588,24.667-22.134,40.413-28.678c15.641-6.501,30.354-15.563,46.361-20.772
		c25.277-8.224,51.277-14.245,77.021-21.003c4.791-1.257,9.803-2.058,14.747-2.271c19.602-0.844,39.218-1.413,58.83-2.005
		c35.714-1.077,70.12,5.917,103.689,17.423c17.298,5.931,34.352,12.58,51.482,18.993c20.527,7.686,40.961,15.626,61.566,23.094
		c5.249,1.903,10.956,3.156,16.519,3.454c13.622,0.729,27.292,0.482,40.923,1.094c11.708,0.524,22.346-2.695,32.635-7.776
		c4.175-2.061,8.271-4.356,12.611-5.997c12.107-4.575,24.507-8.421,36.457-13.363c21.208-8.772,42.063-18.358,64.514-23.831
		c7.073-1.724,13.9-4.634,20.651-7.453c25.187-10.523,50.547-20.468,77.096-27.169c9.329-2.354,18.467-5.554,27.561-8.739
		c16.304-5.709,32.518-11.676,48.747-17.596c3.103-1.133,6.2-2.359,9.13-3.871c5.391-2.779,10.656-5.803,15.909-8.689
		c2.81,7.558,4.503,14.464,7.844,20.453c3.516,6.304,8.608,11.728,13.006,17.541c1.001,1.324,1.984,2.662,2.964,4.001
		c12.565,17.164,25.341,34.177,37.606,51.552c6.689,9.477,13.22,19.196,18.566,29.46c8.825,16.947,18.319,33.188,32.823,46.053
		c3.702,3.283,6.898,7.24,9.866,11.229c7.537,10.128,14.154,21.013,22.334,30.572c15.341,17.928,31.491,35.164,47.379,52.619
		c5.6,6.153,11.215,12.316,17.173,18.116c16.933,16.486,33.6,33.288,51.238,48.994c12.864,11.457,26.768,21.846,40.853,31.799
		c8.363,5.909,17.707,10.649,27.083,14.861c19.8,8.892,40.015,16.486,62.407,15.199c7.973-0.457,16.007,0.222,23.989-0.141
		c13.046-0.592,25.797-2.798,37.18-9.747c10.403-6.351,21.667-10.184,33.666-11.757c18.11-2.374,34.442-9.451,50.563-17.637
		c11.486-5.832,23.606-10.426,35.485-15.475c7.335-3.118,15.369-5.064,22.015-9.246c24.763-15.58,49.421-31.377,73.448-48.059
		c16.383-11.373,33.038-22.215,49.837-32.951c24.901-15.918,48.762-33.471,72.988-50.438c18.513-12.965,37.053-25.902,55.321-39.207
		c29.012-21.13,58.373-41.656,84.996-66.078c23.511-21.566,48.207-41.82,69.775-65.455c3.363-3.687,6.792-7.317,10.073-11.077
		c2.432-2.786,5.293-4.11,8.843-2.767c6.779,2.565,13.624,5.027,20.188,8.077c5.704,2.648,10.862,6.49,16.602,9.04
		c19.101,8.487,38.406,16.517,57.525,24.966c6.672,2.949,12.981,6.709,19.542,9.924c12.527,6.139,24.761,13.123,37.795,17.905
		c10.237,3.756,19.695,7.692,26.538,16.453c3.612,4.625,8.526,5.343,14.148,5.793c19.128,1.533,37.756-2.38,56.29-5.436
		c23.616-3.895,46.271-11.803,68.655-20.507c32.521-12.646,65.648-23.75,98.063-36.652c21.563-8.584,42.852-18.189,63.313-29.115
		c20.479-10.936,39.36-24.842,59.72-36.031c18.032-9.911,36.806-18.678,55.848-26.498c24.109-9.901,46.922-22.069,69.096-35.578
		c12.206-7.438,23.779-16.053,36.442-22.575c24.815-12.78,50.315-24.221,75.304-36.673c27.385-13.646,54.606-27.626,81.721-41.803
		c24.129-12.616,48.197-25.372,71.959-38.662c29.512-16.506,55.764-37.587,79.562-61.394c26.817-26.826,52.573-54.718,78.568-82.354
		c19.202-20.415,36.081-42.618,49.436-67.347c7.27-13.465,14.256-27.083,21.441-40.593c13.433-25.261,27.205-50.346,40.289-75.786
		c10.651-20.708,19.813-42.13,26.192-64.587c10.083-35.493,19.857-71.073,29.787-106.61
		c16.723-59.844,25.354-121.002,25.668-182.963c0.277-54.806,3.96-109.795-4.17-164.447c-2.05-13.778-2.151-27.88-4.728-41.536
		c-7.632-40.442-15.774-80.794-24.255-121.067c-6.121-29.069-17.412-56.521-28.082-84.117c-9.35-24.186-19.921-47.931-28.426-72.401
		c-7.815-22.484-17.615-43.828-30.484-63.722c-12.744-19.701-22.936-41.352-41.8-56.559c-0.74-0.597-1.169-1.579-1.884-2.579
		c8.613-22.985,17.188-46.038,25.896-69.039c5.994-15.829,13.102-31.428,14.373-48.511c1.233-16.554,2.364-33.266,1.432-49.791
		c-0.93-16.465-5.989-32.049-19.88-43.077c-2.335-1.852-4.482-4.034-6.36-6.353c-11.852-14.64-28.198-21.834-45.438-27.473
		c-17.063-5.582-34.215-10.882-51.301-16.394c-3.161-1.019-6.251-2.317-9.267-3.72c-21.393-9.957-42.649-20.217-64.174-29.877
		c-12.206-5.478-25.073-8.57-38.702-8.212c-5.905,0.155-11.854-0.979-17.771-1.629c-6.239-0.686-12.447-1.846-18.7-2.157
		c-7.646-0.38-15.35-0.448-22.983,0.046c-4.508,0.292-9.207,1.292-13.339,3.082c-15.313,6.633-27.518,17.332-37.389,30.639
		c-3.736,5.039-7.879,10.239-9.86,16.041c-11.249,32.931-21.898,66.066-32.506,98.379c-15.602,5.887-30.832,11.603-46.037,17.381
		c-11.4,4.332-20.997,11.398-29.584,19.908c-9.941,9.854-20.127,19.487-29.631,29.75c-15.586,16.833-31.048,33.835-40.318,55.328
		c-1.404,3.258-3.388,6.268-4.999,9.204c-5.497-1.34-10.28-2.713-15.145-3.662c-32.026-6.238-64.162-4.591-96.405-1.786
		c-29.585,2.575-55.819,14.158-81.492,27.891c-24.749,13.238-47.409,29.711-69.614,46.569
		c-19.351,14.689-36.208,32.394-47.614,54.46c-2.29,4.429-4.617,8.892-7.455,12.972c-3.726,5.357-7.974,10.348-11.854,15.313
		c-5.325-1.853-9.444-3.159-13.473-4.707c-40.656-15.628-81.163-31.659-121.991-46.822c-26.193-9.728-52.92-17.698-80.651-22.385
		c-19.622-3.318-39.077-8.117-57.521-16.028c-2.286-0.981-4.961-2.592-6.017-4.65c-5.435-10.599-11.513-21.073-9.954-33.828
		c0.397-3.264,0.363-6.758-0.349-9.951c-2.803-12.561-0.263-24.921,4.49-35.931c11.173-25.882,21.761-52.109,38.426-75.371
		c17.42-24.313,33.17-49.865,55.517-70.249c9.432-8.604,13.877-19.642,17.449-31.686c10.857-36.615,22.222-73.089,33.971-109.431
		c4.884-15.105,11.959-29.355,10.204-46.147c-0.77-7.361-2.295-12.915-7.592-18.377c-5.814-5.998-11.708-9.352-20.083-8.09
		c-2.607,0.393-5.359,0.345-7.982,0.01c-9.115-1.164-15.907,2.816-22.234,8.88c-11.835,11.337-22.742,23.294-28.938,39.167
		c-5.086,0-9.756-0.303-14.362,0.098c-3.558,0.31-7.866,0.46-10.404,2.484c-9.276,7.398-19.022,14.84-18.067,28.856
		c0.385,5.648-1.853,10.541-5.906,14.328c-7.753,7.243-15.749,14.227-23.621,21.343c-12.137,10.972-27.221,14.476-42.593,13.678
		c-20.851-1.081-41.682-3.802-62.338-7.004c-17.74-2.751-33.962-9.402-45.538-24.357c-2.631-3.399-6.188-6.063-9.104-9.261
		c-10.731-11.759-21.479-23.241-27.742-38.554c-4.211-10.297-10.526-20.199-17.773-28.679c-9.747-11.404-14.959-24.96-21.585-37.891
		c-1.187-2.316-2.287-5.042-2.229-7.55c0.099-4.21-2.048-6.809-4.736-9.393c-2.642-2.54-5.428-4.977-7.761-7.783
		c-6.669-8.022-14.872-10.72-25.411-10.536c-27.6,0.482-25.707-1.163-46.888,20.148c-4.41,4.436-7.414,9.206-7.476,15.723
		c-0.023,2.545-1.282,5.08-1.987,7.654c-8.492-9.445-16.212-18.091-24-26.675c-7.362-8.112-17.144-11.97-27.53-12.35
		c-14.594-0.533-29.271,0.286-43.872,1.183c-13.241,0.814-23.375,9.506-27.865,20.047c-4.917,11.537-5.333,26.421,0.468,37.804
		c5.112,10.036,13.992,19.986,28.52,17.826c4.403-0.654,8.128,0.879,10.183,4.71c7.131,13.296,13.17,27.437,12.484,42.546
		c-0.807,17.824-3.771,35.605-8.766,52.229c-5.934,2.066-11.199,4.008-16.542,5.71c-2.479,0.791-5.09,1.433-7.675,1.595
		c-11.02,0.694-21.682,2.759-32.074,6.648c-7.685,2.877-15.602,6.75-23.524,7.023c-15.292,0.527-27.756,5.444-37.814,16.846
		c-2.199,2.495-4.522,4.935-7.078,7.052c-7.628,6.32-12.343,13.812-10.93,24.211c0.155,1.143-0.697,2.422-1.205,4.021
		c-17.778,3.333-35.382,6.883-53.081,9.858c-10.856,1.825-21.229,1.051-32.093-3.117c-17.61-6.758-35.866-11.744-55.38-10.679
		c-19.671,1.074-17.037-2.9-34.532,15.082c-2.773,2.85-5.202,6.049-7.624,9.215c-1.198,1.565-2.891,3.432-2.869,5.142
		c0.178,13.507-2.98,27.334,3.25,40.32c1.137,2.368,2.647,4.625,4.324,6.653c10.288,12.436,22.88,20.961,39.122,23.909
		c6.471,1.174,13.167,2.911,18.912,5.978c33.415,17.841,61.88,41.006,80.813,74.804c8.532,15.23,11.994,30.301,7.863,47.584
		c-5.03,21.043-14.647,39.806-25.518,58.183c-4.66,7.879-10.06,14.964-18.025,19.587c-10.252,5.951-18.189,14.478-26.463,22.687
		c-6.675,6.623-11.13,13.92-9.424,23.901c0.554,3.238,0.08,6.65,0.089,9.983c0.063,23.507,14.884,38.722,38.119,39.087
		c4.998,0.078,9.999-0.033,14.997,0.02c26.876,0.284,50.277-7.934,69.145-27.741c2.151-2.258,5.323-4.453,8.281-4.883
		c16.438-2.383,32.942-4.327,49.455-6.135c3.577-0.392,7.392-0.094,10.912,0.705c23.297,5.282,46.83,9.806,69.724,16.507
		c20.686,6.055,40.656,14.554,60.933,22.003c4,1.47,6.565,3.56,6.524,8.681c-0.102,12.583,0.516,25.17,0.851,38.013
		c-6.774-15.317-17.535-27.722-29.642-39.243c-16.33-15.54-36.593-23.806-56.89-32.153c-30.137-3.591-60.282-7.389-88.96,7.201
		c-2.354,1.197-4.829,2.423-7.387,2.913c-14.272,2.729-22.189,14.007-31.618,23.239c-0.868,0.849-1.604,2.277-1.644,3.461
		c-0.557,16.75-3.512,34.308,14.32,45.25c0.277,0.171,0.447,0.551,0.734,0.666c2.964,1.186,5.928,3.293,8.918,3.338
		c16.627,0.25,33.365,1.294,49.707-2.905c4.835-1.243,8.983-0.283,13.541,1.206c12.252,4.003,22.012,12.264,33.032,18.339
		c8.847,4.876,14.284,11.553,15.667,21.568c0.27,1.955,1.055,3.833,1.518,5.768c3.336,13.949,3.813,27.537-4.223,40.389
		c-1.283,2.052-1.227,5.102-1.319,7.708c-0.189,5.325,0.235,10.683-0.133,15.99c-0.453,6.505,1.782,11.544,6.453,15.98
		c3.139,2.983,6.939,5.638,8.996,10.272c-1.949,0.463-2.879,0.854-3.819,0.881c-24.607,0.718-49.247,0.874-73.808,2.346
		c-9.868,0.592-17.434-2.817-24.679-8.237c-5.047-3.775-9.65-8.136-14.49-12.188c-11.976-10.026-23.873-20.149-36.005-29.985
		c-5.938-4.815-12.6-8.748-18.464-13.643c-30.521-25.473-65.136-39.583-105.307-38.104c-10.262,0.378-21.147-0.06-30.588,3.216
		c-20.067,6.961-41.912,8.144-60.736,19.136c-4.471,2.611-10.005,3.645-15.192,4.739c-8.662,1.829-16.159,5.691-23.355,10.764
		c-5.648,3.981-11.809,7.428-18.143,10.193c-7.995,3.491-15.75,7.052-22.048,13.324c-5.176,5.156-10.66,10.003-16.304,15.263
		c-5.371-0.489-10.975-1.05-16.589-1.502c-21.852-1.761-43.679-4.365-65.565-5.014c-29.302-0.869-58.653-0.457-87.979-0.136
		c-21.934,0.24-43.13,4.537-62.082,16.07c-21.033,12.8-42.13,25.621-62.193,39.853c-15.672,11.116-30.015,24.16-44.577,36.776
		c-26.665,23.1-53.368,46.289-76.373,73.111c-32.923,38.384-64.401,77.96-92.325,120.215
		c-15.771,23.864-31.713,47.627-46.948,71.831c-10.964,17.419-20.877,35.5-31.281,53.273c-9.025,15.42-13.954,33.159-26.417,46.647
		c-0.856,0.927-1.436,2.312-1.679,3.574c-3.022,15.735-11.374,28.868-20.334,41.68c-11.452,16.375-22.594,32.905-30.369,51.466
		c-1.079,2.574-3.288,4.827-5.379,6.799c-9.187,8.665-18.899,16.807-27.692,25.848c-7.651,7.867-11.625,17.633-11.266,28.985
		c0.156,4.936-0.523,9.916-1.043,14.852c-0.863,8.208-2.342,16.375-2.756,24.6c-0.486,9.641,0.247,19.34-0.187,28.986
		c-0.98,21.786,7.795,39.189,22.586,54.521C1132.409,1663.057,1145.759,1674.33,1162.242,1681.631z"/>
	<path fill-rule="evenodd" d="M1162.242,1681.631c-16.483-7.302-29.833-18.575-42.196-31.391
		c-14.791-15.332-23.566-32.735-22.586-54.521c0.433-9.646-0.3-19.345,0.187-28.986c0.415-8.226,1.893-16.393,2.756-24.6
		c0.52-4.936,1.199-9.916,1.043-14.852c-0.359-11.352,3.615-21.118,11.266-28.985c8.792-9.041,18.505-17.183,27.692-25.848
		c2.091-1.972,4.3-4.225,5.379-6.799c7.775-18.561,18.917-35.091,30.369-51.466c8.961-12.813,17.313-25.945,20.334-41.68
		c0.243-1.262,0.822-2.647,1.679-3.574c12.463-13.489,17.392-31.228,26.417-46.647c10.404-17.773,20.317-35.854,31.281-53.273
		c15.235-24.204,31.178-47.967,46.948-71.831c27.924-42.255,59.402-81.832,92.325-120.215
		c23.005-26.822,49.708-50.011,76.373-73.111c14.563-12.616,28.905-25.66,44.577-36.776c20.063-14.231,41.16-27.052,62.193-39.853
		c18.952-11.534,40.148-15.83,62.082-16.07c29.326-0.321,58.676-0.733,87.979,0.136c21.886,0.649,43.713,3.253,65.565,5.014
		c5.614,0.452,11.218,1.013,16.589,1.502c5.644-5.26,11.127-10.107,16.304-15.263c6.298-6.272,14.053-9.833,22.048-13.324
		c6.334-2.765,12.495-6.212,18.143-10.193c7.197-5.073,14.694-8.936,23.355-10.764c5.187-1.095,10.722-2.128,15.192-4.739
		c18.824-10.992,40.669-12.175,60.736-19.136c9.441-3.275,20.326-2.838,30.588-3.216c40.171-1.479,74.785,12.63,105.307,38.104
		c5.864,4.895,12.525,8.828,18.464,13.643c12.132,9.835,24.029,19.958,36.005,29.985c4.84,4.053,9.443,8.414,14.49,12.188
		c7.245,5.42,14.811,8.829,24.679,8.237c24.561-1.473,49.2-1.628,73.808-2.346c0.94-0.027,1.87-0.418,3.819-0.881
		c-2.057-4.634-5.857-7.289-8.996-10.272c-4.671-4.436-6.906-9.476-6.453-15.98c0.368-5.307-0.057-10.665,0.133-15.99
		c0.093-2.606,0.036-5.656,1.319-7.708c8.036-12.852,7.559-26.439,4.223-40.389c-0.463-1.934-1.248-3.813-1.518-5.768
		c-1.383-10.015-6.82-16.691-15.667-21.568c-11.021-6.075-20.78-14.336-33.032-18.339c-4.558-1.489-8.706-2.449-13.541-1.206
		c-16.342,4.2-33.08,3.156-49.707,2.905c-2.99-0.045-5.954-2.152-8.918-3.338c-0.287-0.115-0.457-0.495-0.734-0.666
		c-17.832-10.942-14.877-28.5-14.32-45.25c0.039-1.185,0.775-2.613,1.644-3.461c9.429-9.232,17.346-20.51,31.618-23.239
		c2.558-0.489,5.033-1.716,7.387-2.913c28.678-14.59,58.823-10.792,88.96-7.201c20.297,8.347,40.56,16.613,56.89,32.153
		c12.106,11.521,22.867,23.926,29.642,39.243c-0.335-12.842-0.952-25.43-0.851-38.013c0.041-5.121-2.524-7.211-6.524-8.681
		c-20.276-7.449-40.247-15.948-60.933-22.003c-22.894-6.701-46.427-11.225-69.724-16.507c-3.521-0.799-7.335-1.097-10.912-0.705
		c-16.513,1.809-33.018,3.752-49.455,6.135c-2.958,0.43-6.13,2.625-8.281,4.883c-18.867,19.807-42.269,28.025-69.145,27.741
		c-4.998-0.053-9.999,0.059-14.997-0.02c-23.235-0.365-38.057-15.58-38.119-39.087c-0.009-3.333,0.465-6.745-0.089-9.983
		c-1.706-9.981,2.749-17.278,9.424-23.901c8.273-8.209,16.211-16.735,26.463-22.687c7.966-4.624,13.365-11.708,18.025-19.587
		c10.87-18.377,20.487-37.14,25.518-58.183c4.131-17.283,0.669-32.354-7.863-47.584c-18.934-33.798-47.398-56.963-80.813-74.804
		c-5.745-3.067-12.441-4.803-18.912-5.978c-16.242-2.948-28.834-11.473-39.122-23.909c-1.676-2.027-3.187-4.285-4.324-6.653
		c-6.23-12.985-3.073-26.813-3.25-40.32c-0.022-1.71,1.671-3.577,2.869-5.142c2.422-3.166,4.851-6.365,7.624-9.215
		c17.495-17.982,14.861-14.008,34.532-15.082c19.514-1.065,37.77,3.92,55.38,10.679c10.863,4.168,21.236,4.941,32.093,3.117
		c17.699-2.975,35.303-6.526,53.081-9.858c0.508-1.599,1.36-2.878,1.205-4.021c-1.413-10.399,3.302-17.891,10.93-24.211
		c2.556-2.117,4.879-4.557,7.078-7.052c10.059-11.402,22.522-16.319,37.814-16.846c7.923-0.273,15.84-4.146,23.524-7.023
		c10.393-3.89,21.055-5.954,32.074-6.648c2.585-0.162,5.195-0.805,7.675-1.595c5.343-1.702,10.608-3.644,16.542-5.71
		c4.994-16.624,7.959-34.406,8.766-52.229c0.686-15.109-5.354-29.25-12.484-42.546c-2.055-3.831-5.779-5.364-10.183-4.71
		c-14.527,2.16-23.407-7.79-28.52-17.826c-5.801-11.382-5.385-26.267-0.468-37.804c4.49-10.541,14.624-19.233,27.865-20.047
		c14.602-0.897,29.278-1.716,43.872-1.183c10.387,0.379,20.168,4.237,27.53,12.35c7.788,8.584,15.508,17.23,24,26.675
		c0.705-2.575,1.964-5.109,1.987-7.654c0.062-6.517,3.065-11.287,7.476-15.723c21.181-21.311,19.288-19.666,46.888-20.148
		c10.539-0.184,18.742,2.514,25.411,10.536c2.333,2.806,5.119,5.243,7.761,7.783c2.688,2.584,4.835,5.183,4.736,9.393
		c-0.059,2.509,1.042,5.234,2.229,7.55c6.626,12.931,11.838,26.487,21.585,37.891c7.247,8.479,13.563,18.381,17.773,28.679
		c6.264,15.313,17.011,26.795,27.742,38.554c2.917,3.197,6.474,5.862,9.104,9.261c11.576,14.955,27.798,21.606,45.538,24.357
		c20.656,3.202,41.487,5.923,62.338,7.004c15.372,0.798,30.456-2.706,42.593-13.678c7.872-7.116,15.868-14.1,23.621-21.343
		c4.054-3.788,6.291-8.68,5.906-14.328c-0.955-14.016,8.791-21.458,18.067-28.856c2.538-2.023,6.847-2.174,10.404-2.484
		c4.606-0.4,9.276-0.098,14.362-0.098c6.195-15.873,17.103-27.83,28.938-39.167c6.327-6.064,13.119-10.043,22.234-8.88
		c2.623,0.335,5.375,0.383,7.982-0.01c8.375-1.262,14.269,2.092,20.083,8.09c5.297,5.462,6.822,11.016,7.592,18.377
		c1.755,16.792-5.32,31.042-10.204,46.147c-11.749,36.341-23.113,72.815-33.971,109.431c-3.572,12.043-8.018,23.082-17.449,31.686
		c-22.347,20.384-38.097,45.936-55.517,70.249c-16.665,23.262-27.253,49.488-38.426,75.371c-4.753,11.01-7.293,23.37-4.49,35.931
		c0.712,3.193,0.746,6.687,0.349,9.951c-1.559,12.754,4.52,23.229,9.954,33.828c1.056,2.058,3.73,3.669,6.017,4.65
		c18.443,7.911,37.898,12.71,57.521,16.028c27.731,4.687,54.458,12.658,80.651,22.385c40.828,15.163,81.335,31.194,121.991,46.822
		c4.028,1.548,8.147,2.854,13.473,4.707c3.881-4.965,8.129-9.956,11.854-15.313c2.838-4.08,5.165-8.543,7.455-12.972
		c11.406-22.066,28.264-39.771,47.614-54.46c22.205-16.858,44.865-33.331,69.614-46.569c25.673-13.733,51.907-25.315,81.492-27.891
		c32.243-2.805,64.379-4.452,96.405,1.786c4.864,0.948,9.647,2.321,15.145,3.662c1.611-2.936,3.595-5.945,4.999-9.204
		c9.271-21.493,24.732-38.495,40.318-55.328c9.504-10.264,19.689-19.897,29.631-29.75c8.587-8.509,18.184-15.576,29.584-19.908
		c15.205-5.778,30.436-11.494,46.037-17.381c10.607-32.313,21.257-65.449,32.506-98.379c1.981-5.802,6.124-11.002,9.86-16.041
		c9.871-13.307,22.075-24.006,37.389-30.639c4.132-1.79,8.831-2.79,13.339-3.082c7.634-0.494,15.337-0.426,22.983-0.046
		c6.253,0.311,12.461,1.471,18.7,2.157c5.918,0.65,11.866,1.784,17.771,1.629c13.629-0.358,26.496,2.734,38.702,8.212
		c21.524,9.66,42.781,19.92,64.174,29.877c3.016,1.403,6.105,2.701,9.267,3.72c17.086,5.511,34.238,10.812,51.301,16.394
		c17.239,5.639,33.586,12.833,45.438,27.473c1.878,2.319,4.025,4.5,6.36,6.353c13.891,11.027,18.95,26.611,19.88,43.077
		c0.933,16.524-0.198,33.236-1.432,49.791c-1.271,17.083-8.379,32.682-14.373,48.511c-8.709,23.001-17.283,46.054-25.896,69.039
		c0.715,1,1.144,1.982,1.884,2.579c18.864,15.207,29.056,36.858,41.8,56.559c12.869,19.894,22.669,41.237,30.484,63.722
		c8.505,24.47,19.076,48.215,28.426,72.401c10.67,27.595,21.961,55.048,28.082,84.117c8.48,40.273,16.623,80.625,24.255,121.067
		c2.576,13.655,2.678,27.758,4.728,41.536c8.13,54.652,4.447,109.642,4.17,164.447c-0.314,61.961-8.945,123.119-25.668,182.963
		c-9.93,35.537-19.704,71.117-29.787,106.61c-6.379,22.457-15.541,43.879-26.192,64.587c-13.084,25.439-26.856,50.525-40.289,75.786
		c-7.186,13.511-14.172,27.128-21.441,40.593c-13.354,24.729-30.233,46.933-49.436,67.347
		c-25.995,27.636-51.751,55.528-78.568,82.354c-23.798,23.807-50.05,44.888-79.562,61.394c-23.762,13.29-47.83,26.046-71.959,38.662
		c-27.114,14.177-54.336,28.156-81.721,41.803c-24.988,12.452-50.488,23.893-75.304,36.673
		c-12.663,6.522-24.236,15.138-36.442,22.575c-22.174,13.509-44.986,25.677-69.096,35.578c-19.042,7.82-37.815,16.587-55.848,26.498
		c-20.359,11.189-39.24,25.096-59.72,36.031c-20.461,10.926-41.749,20.531-63.313,29.115
		c-32.415,12.902-65.542,24.007-98.063,36.652c-22.385,8.704-45.039,16.612-68.655,20.507c-18.534,3.056-37.162,6.969-56.29,5.436
		c-5.622-0.45-10.536-1.168-14.148-5.793c-6.843-8.761-16.301-12.697-26.538-16.453c-13.034-4.782-25.268-11.767-37.795-17.905
		c-6.561-3.215-12.87-6.975-19.542-9.924c-19.119-8.449-38.425-16.479-57.525-24.966c-5.739-2.55-10.897-6.392-16.602-9.04
		c-6.563-3.05-13.408-5.512-20.188-8.077c-3.55-1.344-6.411-0.02-8.843,2.767c-3.281,3.76-6.71,7.391-10.073,11.077
		c-21.568,23.635-46.265,43.889-69.775,65.455c-26.623,24.422-55.984,44.948-84.996,66.078
		c-18.269,13.305-36.809,26.242-55.321,39.207c-24.227,16.967-48.087,34.52-72.988,50.438
		c-16.799,10.736-33.454,21.578-49.837,32.951c-24.027,16.682-48.686,32.479-73.448,48.059c-6.646,4.182-14.68,6.128-22.015,9.246
		c-11.879,5.049-23.999,9.643-35.485,15.475c-16.12,8.186-32.452,15.263-50.563,17.637c-11.999,1.573-23.263,5.406-33.666,11.757
		c-11.383,6.949-24.134,9.155-37.18,9.747c-7.982,0.362-16.017-0.316-23.989,0.141c-22.393,1.287-42.607-6.308-62.407-15.199
		c-9.376-4.212-18.72-8.952-27.083-14.861c-14.085-9.953-27.989-20.342-40.853-31.799c-17.638-15.706-34.305-32.508-51.238-48.994
		c-5.958-5.8-11.573-11.963-17.173-18.116c-15.888-17.455-32.038-34.691-47.379-52.619c-8.18-9.56-14.797-20.444-22.334-30.572
		c-2.968-3.989-6.164-7.946-9.866-11.229c-14.504-12.865-23.998-29.105-32.823-46.053c-5.346-10.264-11.876-19.983-18.566-29.46
		c-12.265-17.375-25.041-34.388-37.606-51.552c-0.98-1.339-1.963-2.677-2.964-4.001c-4.398-5.813-9.49-11.237-13.006-17.541
		c-3.34-5.989-5.034-12.896-7.844-20.453c-5.253,2.887-10.518,5.91-15.909,8.689c-2.93,1.512-6.027,2.738-9.13,3.871
		c-16.229,5.92-32.443,11.887-48.747,17.596c-9.094,3.186-18.232,6.385-27.561,8.739c-26.548,6.701-51.909,16.646-77.096,27.169
		c-6.751,2.819-13.578,5.729-20.651,7.453c-22.451,5.473-43.306,15.059-64.514,23.831c-11.95,4.942-24.35,8.788-36.457,13.363
		c-4.34,1.641-8.436,3.937-12.611,5.997c-10.289,5.081-20.927,8.301-32.635,7.776c-13.63-0.611-27.301-0.364-40.923-1.094
		c-5.563-0.298-11.27-1.551-16.519-3.454c-20.605-7.468-41.039-15.408-61.566-23.094c-17.13-6.413-34.184-13.063-51.482-18.993
		c-33.569-11.506-67.975-18.5-103.689-17.423c-19.612,0.592-39.228,1.161-58.83,2.005c-4.944,0.213-9.957,1.014-14.747,2.271
		c-25.745,6.758-51.745,12.779-77.021,21.003c-16.008,5.209-30.721,14.271-46.361,20.772c-15.746,6.544-28.48,17.09-40.413,28.678
		c-4.933,4.79-8.865,10.864-12.29,16.901c-6.23,10.982-11.514,22.499-17.609,33.563c-8.08,14.668-10.001,30.692-11.508,46.942
		c-1.288,13.886-2.121,27.933-5.004,41.516c-2.992,14.09,2.709,26.587,3.497,40.252c13.505-3.127,25.957-7.146,38.711-8.733
		c29.885-3.716,59.661-4.791,88.076,8.737c10.734,5.109,22.165,8.801,33.392,12.819c10.146,3.632,19.235,8.826,27.585,15.683
		c19.585,16.079,34.875,35.385,45.775,58.276c5.898,12.387,6.387,25.72,7.206,38.921c1.183,19.046-0.63,37.896-6.516,56.159
		c-1.192,3.698-0.314,6.334,1.925,9.117c15.015,18.658,30.011,37.331,44.92,56.072c5.385,6.768,10.379,13.848,15.783,20.601
		c21.806,27.255,42.91,55.125,65.744,81.493c38.086,43.979,77.112,87.151,116.101,130.34c30.078,33.318,60.823,66.033,91.027,99.238
		c13.19,14.501,25.9,29.446,38.596,44.389c18.987,22.347,39.447,43.177,61.568,61.034c17.207-2.835,33.771-6.62,50.535-8.038
		c17.537-1.482,35.265-0.848,52.911-0.83c10.041,0.01,17.476,6.063,24.28,12.408c9.742,9.088,18.94,18.758,28.366,28.185
		c3.42,3.421,5.668,7.319,5.507,12.393c-0.063,1.958,0.141,4.027,0.725,5.889c6.004,19.138,5.035,38.863,4.357,58.424
		c-0.439,12.678-4.64,24.746-10.393,36.133c-1.039,2.058-2.238,4.033-3.772,6.78c2.64,2.906,5.112,5.973,7.935,8.674
		c9.311,8.91,14.582,19.656,15.076,32.578c0.533,13.941,1.971,27.958,1.057,41.813c-0.923,13.999-5.285,27.392-15.753,37.83
		c-10.855,10.825-21.627,21.734-32.565,32.477c-2.583,2.537-5.46,4.93-8.579,6.736c-17.312,10.033-34.859,20.017-54.948,22.916
		c-20.83,3.008-41.801,3.29-62.046-4.169c-3.062-1.128-5.988-2.855-8.664-4.749c-5.377-3.801-10.538-7.908-16.033-12.075
		c-16.33,16.896-36.248,26.229-58.55,30.88c-3.881,0.81-7.898,1.544-11.829,1.437c-15.609-0.426-31.244-0.762-46.802-1.986
		c-12.102-0.953-21.877-7.402-30.434-15.765c-15.485-15.136-30.748-30.396-42.599-48.779c-4.731-7.338-7.88-14.333-9.506-23.344
		c-2.883-15.977-1.773-31.813-2.77-47.682c-1.235-19.683,4.658-36.554,17.678-51.196c3.728-4.191,7.009-8.781,11.151-14.018
		c-9.261-7.749-18.203-15.488-27.414-22.894c-31.919-25.663-62.599-52.685-91.402-81.842c-14.95-15.133-30.615-29.563-45.513-44.747
		c-16.544-16.864-32.542-34.261-48.855-51.353c-6.669-6.988-13.719-13.619-20.249-20.732c-3.527-3.842-6.878-4.227-11.45-2.132
		c-12.685,5.815-25.815,10.729-38.221,17.072c-26.376,13.485-54.937,19.838-83.268,27.219c-35.009,9.121-70.704,8.68-106.207,6.993
		c-23.118-1.097-46.174-5.651-68.982-10.078c-9.184-1.782-18.056-6.626-26.319-11.381c-13.208-7.601-25.885-16.148-38.588-24.595
		c-4.651-3.092-8.736-7.034-13.586-11.004c-9.823,4.298-19.876,7.925-29.154,12.978c-8.833,4.809-18.029,6.449-27.718,6.507
		c-19.627,0.118-39.255,0.035-60.312,0.035c-7.499,8.146-15.914,17.995-25.078,27.089c-17.69,17.556-35.786,34.706-53.751,51.984
		c-8.122,7.813-15.469,16.398-26.361,21.006c-11.146,4.715-22.122,8.788-34.573,8.014c-12.937-0.805-25.943-0.466-38.887-1.191
		c-14.844-0.832-27.351-7.239-38.328-17.142c-4.163-3.755-8.638-7.627-13.671-9.87c-17.324-7.723-31.648-19.402-45.297-32.199
		c-12.615-11.828-25.269-23.622-38.196-35.107c-10.182-9.046-20.939-17.443-31.167-26.44c-4.223-3.717-8.151-7.938-11.481-12.468
		c-10.168-13.827-24.661-23.081-36.603-35.054c-14.338-14.376-21.854-30.618-20.626-50.88c0.681-11.24-0.222-22.847,2.352-33.628
		c2.574-10.785,7.358-21.533,13.335-30.921c15.886-24.948,32.488-49.421,54.177-70.055c11.049-10.512,20.365-22.824,31.124-33.668
		c12.881-12.985,26.284-25.471,39.873-37.715c3.378-3.045,3.873-5.417,2.687-9.403c-7.559-25.41-9.202-51.565-9.604-77.884
		c-0.157-10.292-1.485-20.596-1.157-30.857c0.848-26.55,2.328-53.078,3.542-79.616c0.79-17.267,0.945-34.589,2.461-51.791
		c2.995-33.983,2.6-68.433,11.919-101.62c4.76-16.951,10.828-33.531,16.128-50.335c4.59-14.552,8.546-29.315,13.517-43.731
		c3.239-9.396,7.685-18.387,11.779-27.474c13.098-29.064,23.052-59.521,38.525-87.529c22.334-40.425,42.179-82.35,69.956-119.542
		c13.92-18.639,29.125-36.311,43.387-54.7c20.909-26.96,45.967-49.965,70.1-73.811c23.963-23.678,51.467-43.059,78.843-62.585
		c38.487-27.45,80.954-46.826,124.582-64.332c34.719-13.93,70.677-22.848,107.14-30.326c28.353-5.816,56.522-12.661,85.029-17.553
		c23.194-3.982,46.708-6.603,70.191-8.282c30.827-2.206,61.798-2.358,92.641-4.389c31.646-2.084,63.164-0.062,94.734,0.958
		c8.895,0.287,17.806,0.043,26.71,0.043C1161.833,1683.079,1162.037,1682.355,1162.242,1681.631z M3009.268,1615.331
		c0.78,0.702,1.561,1.403,2.34,2.105c3.254-1.567,6.565-3.025,9.751-4.72c30.797-16.393,61.463-33.037,92.383-49.195
		c39.421-20.599,78.997-40.9,118.587-61.174c48.24-24.704,95.353-51.15,138.404-84.439c25.003-19.333,50.935-37.451,72.199-61.189
		c3.291-3.673,7.523-6.529,11.436-9.616c8.75-6.902,15.46-15.548,21.055-25.032c4.729-8.015,9.677-16.032,13.21-24.593
		c7.603-18.428,14.952-37.071,13.27-57.704c-1.57-19.272-5.087-38.11-11.998-56.261c-3.427-8.999-6.595-18.105-9.581-27.26
		c-5.675-17.396-12.779-34.123-22.22-50.321c-1.48,0.725-2.656,1.212-3.747,1.848c-26.559,15.456-54.869,27.019-83.807,37.024
		c-9.349,3.232-19.172,5.644-28.973,6.899c-20.881,2.674-41.8,1.539-62.585-1.812c-27.143-4.374-53.444-11.733-76.935-26.235
		c-20.037-12.37-36.605-27.946-36.967-54.28c-0.107-7.858-1.247-15.703-1.947-23.941c-11.722-2.235-23.193-4.081-34.503-6.647
		c-26.243-5.958-52.446-12.102-78.588-18.488c-17.43-4.257-35.122-7.931-52.003-13.844c-41.397-14.499-82.498-29.866-123.521-45.399
		c-52.231-19.775-104.217-40.197-156.415-60.058c-23.618-8.986-47.536-17.18-71.242-25.938
		c-24.022-8.875-47.964-17.969-71.916-27.031c-12.69-4.802-25.329-9.744-38.678-14.888c-13.855,16.269-30.97,28.883-48.963,40.31
		c-4.614,2.931-10.076,5.832-15.334,6.218c-20.706,1.521-41.336,0.592-60.682-8.197c-6.898-3.133-13.662-6.751-20.004-10.89
		c-15.88-10.367-29.233-23.514-41.259-40.098c0,12.574-0.277,23.749,0.077,34.903c0.364,11.449-1.1,22.584-4.532,33.439
		c-2.203,6.969-5.646,13.613-7.223,20.694c-1.906,8.563-6.112,15.294-12.314,21.152c-3.256,3.074-6.292,6.381-11.075,11.264
		c7.037,0,11.589,0.049,16.139-0.008c21.639-0.271,43.277-0.596,64.916-0.846c11.227-0.129,21.826,2.413,31.283,8.553
		c6.071,3.942,11.732,8.509,17.633,12.721c12.42,8.867,25.687,16.634,35.728,28.526c4.288,5.078,9.063,9.742,13.565,14.642
		c12.883,14.019,24.891,28.74,31.269,46.964c7.141,20.401,18.39,38.497,31.498,55.241c21.813,27.863,40.155,57.831,57.446,88.565
		c1.664,2.957,4.56,5.602,7.493,7.396c12.195,7.459,24.924,14.076,36.913,21.839c35.484,22.978,70.638,46.461,106.061,69.533
		c23.659,15.409,47.112,31.308,75.031,38.471c2.57,0.66,5.041,1.717,7.54,2.636c38.034,14.008,70.985,36.119,100.703,63.336
		c11.679,10.695,20.7,24.406,35.723,31.307c1.169,0.537,2.142,1.587,3.082,2.521c6.855,6.811,14.214,13.205,20.404,20.577
		c13.684,16.297,23.874,34.676,25.674,56.213c1.632,19.518,1.622,39.178,2.187,58.779c0.434,15.073-4.397,28.08-15.902,38.21
		C3016.099,1609.972,3012.636,1612.597,3009.268,1615.331z"/>
	<path fill-rule="evenodd" fill="#FFFFFF" d="M3009.268,1615.331c3.368-2.734,6.831-5.359,10.085-8.223
		c11.505-10.13,16.336-23.137,15.902-38.21c-0.564-19.601-0.555-39.261-2.187-58.779c-1.8-21.537-11.99-39.916-25.674-56.213
		c-6.19-7.372-13.549-13.766-20.404-20.577c-0.94-0.934-1.913-1.984-3.082-2.521c-15.022-6.9-24.044-20.612-35.723-31.307
		c-29.718-27.217-62.669-49.328-100.703-63.336c-2.499-0.919-4.97-1.976-7.54-2.636c-27.919-7.163-51.372-23.062-75.031-38.471
		c-35.423-23.072-70.576-46.556-106.061-69.533c-11.989-7.764-24.718-14.38-36.913-21.839c-2.934-1.793-5.829-4.439-7.493-7.396
		c-17.291-30.734-35.633-60.702-57.446-88.565c-13.108-16.744-24.357-34.84-31.498-55.241
		c-6.378-18.224-18.386-32.945-31.269-46.964c-4.502-4.899-9.277-9.564-13.565-14.642c-10.041-11.892-23.308-19.659-35.728-28.526
		c-5.9-4.212-11.562-8.779-17.633-12.721c-9.457-6.141-20.057-8.682-31.283-8.553c-21.639,0.25-43.277,0.576-64.916,0.846
		c-4.55,0.057-9.102,0.008-16.139,0.008c4.783-4.883,7.819-8.189,11.075-11.264c6.202-5.858,10.408-12.589,12.314-21.152
		c1.576-7.081,5.02-13.725,7.223-20.694c3.433-10.855,4.896-21.99,4.532-33.439c-0.354-11.154-0.077-22.329-0.077-34.903
		c12.025,16.584,25.379,29.731,41.259,40.098c6.342,4.139,13.105,7.757,20.004,10.89c19.346,8.789,39.976,9.719,60.682,8.197
		c5.258-0.386,10.72-3.287,15.334-6.218c17.993-11.426,35.107-24.041,48.963-40.31c13.349,5.144,25.987,10.086,38.678,14.888
		c23.952,9.063,47.894,18.156,71.916,27.031c23.706,8.758,47.624,16.952,71.242,25.938c52.198,19.861,104.184,40.283,156.415,60.058
		c41.023,15.533,82.124,30.9,123.521,45.399c16.881,5.913,34.573,9.587,52.003,13.844c26.142,6.386,52.345,12.53,78.588,18.488
		c11.31,2.567,22.781,4.412,34.503,6.647c0.7,8.238,1.84,16.083,1.947,23.941c0.361,26.334,16.93,41.911,36.967,54.28
		c23.49,14.502,49.792,21.861,76.935,26.235c20.785,3.35,41.704,4.486,62.585,1.812c9.801-1.255,19.624-3.667,28.973-6.899
		c28.938-10.005,57.248-21.568,83.807-37.024c1.091-0.636,2.267-1.123,3.747-1.848c9.44,16.198,16.545,32.926,22.22,50.321
		c2.986,9.155,6.154,18.261,9.581,27.26c6.911,18.151,10.428,36.989,11.998,56.261c1.683,20.632-5.667,39.275-13.27,57.704
		c-3.533,8.561-8.48,16.578-13.21,24.593c-5.595,9.484-12.305,18.13-21.055,25.032c-3.912,3.086-8.145,5.942-11.436,9.616
		c-21.265,23.738-47.196,41.857-72.199,61.189c-43.052,33.289-90.164,59.735-138.404,84.439
		c-39.59,20.274-79.166,40.575-118.587,61.174c-30.92,16.158-61.586,32.802-92.383,49.195c-3.186,1.695-6.497,3.153-9.751,4.72
		C3010.828,1616.734,3010.048,1616.033,3009.268,1615.331z M2677.93,1177.893c5.736,0,9.74,0.25,13.692-0.101
		c2.148-0.189,4.651-0.881,6.231-2.236c8.38-7.187,16.623-14.577,13.518-27.511c-0.375-1.569-0.271-3.342-0.014-4.959
		c1.337-8.406-2.559-14.115-8.213-20.047c-6.445-6.764-13.051-10.727-22.521-9.186c-2.585,0.421-5.348,0.392-7.944,0.001
		c-7.285-1.094-12.166,2.143-17.37,7.042c-6.104,5.745-9.029,11.69-8.072,20.001c0.566,4.912-0.067,9.952,0.191,14.916
		c0.113,2.179,0.446,4.948,1.808,6.364C2657.553,1170.822,2664.545,1182.384,2677.93,1177.893z"/>
	<path fill-rule="evenodd" d="M2677.93,1177.893c-13.385,4.492-20.377-7.07-28.694-15.716c-1.361-1.416-1.694-4.185-1.808-6.364
		c-0.259-4.964,0.375-10.004-0.191-14.916c-0.957-8.312,1.969-14.256,8.072-20.001c5.204-4.899,10.085-8.136,17.37-7.042
		c2.597,0.391,5.359,0.42,7.944-0.001c9.471-1.542,16.076,2.422,22.521,9.186c5.654,5.933,9.55,11.641,8.213,20.047
		c-0.258,1.618-0.361,3.39,0.014,4.959c3.105,12.935-5.138,20.324-13.518,27.511c-1.58,1.355-4.083,2.046-6.231,2.236
		C2687.67,1178.143,2683.666,1177.893,2677.93,1177.893z"/>
</g>
</svg>
