<?xml version="1.0" encoding="utf-8"?>
<!-- Generator: Adobe Illustrator 16.0.2, SVG Export Plug-In . SVG Version: 6.00 Build 0)  -->
<!DOCTYPE svg PUBLIC "-//W3C//DTD SVG 1.1 Tiny//EN" "http://www.w3.org/Graphics/SVG/1.1/DTD/svg11-tiny.dtd">
<svg version="1.1" baseProfile="tiny" id="Layer_1" xmlns="http://www.w3.org/2000/svg" xmlns:xlink="http://www.w3.org/1999/xlink"
	 x="0px" y="0px" width="4174.479px" height="3493.563px" viewBox="0 0 4174.479 3493.563" xml:space="preserve">
<g>
	<path fill-rule="evenodd" fill="#FFFFFF" d="M2,3497.563C2,2332.375,2,1167.187,2,2c1391.826,0,2783.651,0,4175.477,0
		c0,1165.187,0,2330.375,0,3495.563C2785.651,3497.563,1393.826,3497.563,2,3497.563z M333.228,561.554
		c-6.051,5.784-12.158,11.415-18,17.308c-2.545,2.568-4.809,5.513-6.733,8.579c-2.98,4.745-5.319,9.898-8.351,14.606
		c-14.606,22.684-28.889,45.499-37.979,71.152c-5.11,14.422-10.684,28.683-16.229,42.945c-9.641,24.797-19.802,49.398-29.031,74.346
		c-8.653,23.389-14.885,47.469-19.408,72.068c-5.523,30.044-12.746,59.779-18.096,89.85c-3.422,19.239-5.005,38.82-7.007,58.291
		c-1.664,16.177-3.61,32.4-3.864,48.626c-0.37,23.606,0.959,47.233,1.041,70.854c0.127,36.917,4.462,73.589,5.909,110.411
		c1.169,29.741,6.529,58.747,13.695,87.41c8.38,33.523,18.246,66.671,26.944,100.118c9.163,35.234,21.792,69.106,38.686,101.319
		c16.841,32.112,34.385,63.856,51.238,95.962c12.889,24.555,27.582,47.817,46.196,68.457c14.48,16.056,29.037,32.042,43.65,47.977
		c23.874,26.032,48.944,50.86,76.153,73.405c30.132,24.969,64.256,43.894,98.481,62.347c30.411,16.399,61.769,31.062,92.854,46.191
		c32.297,15.721,64.928,30.757,97.104,46.719c21.15,10.492,41.458,22.688,62.671,33.045c25.97,12.682,52.548,24.112,78.75,36.327
		c14.773,6.888,28.868,15.457,44.055,21.187c39.188,14.787,76.993,33.126,117.229,45.241c15.909,4.791,31.153,11.91,47.182,16.155
		c14.214,3.763,28.382,6.913,40.822,15.217c1.888,1.26,4.269,1.789,6.429,2.639c18.244,7.171,36.712,13.828,54.67,21.656
		c16.345,7.124,33.225,11.418,50.764,14.058c7.418,1.116,14.692,3.734,21.774,6.364c5.738,2.132,11.074,5.34,16.63,7.979
		c0.862,0.41,1.965,0.538,2.933,0.47c16.704-1.18,34.07,3.886,49.946-5.302c1.399-0.81,3.169-1.437,4.752-1.403
		c14.235,0.301,26.22-6.896,38.818-11.777c22.305-8.643,43.65-19.729,67.244-25.059c7.717-1.744,15.105-5.119,22.49-8.128
		c24.332-9.916,48.562-20.01,74.272-26.102c9.981-2.364,19.666-6.062,29.376-9.466c16.326-5.724,32.576-11.668,48.834-17.589
		c3.414-1.243,6.818-2.59,10.049-4.238c5.117-2.611,10.083-5.517,15.57-8.55c0.805,2.129,1.412,3.287,1.681,4.519
		c2.474,11.304,7.279,21.334,15.533,29.64c2.322,2.338,4.191,5.138,6.165,7.803c13.636,18.42,27.451,36.715,40.764,55.366
		c5.78,8.097,11.172,16.615,15.577,25.517c8.485,17.15,18.211,33.217,32.604,46.163c3.682,3.312,6.892,7.242,9.871,11.224
		c7.762,10.371,14.636,21.473,23.025,31.292c15.111,17.687,30.747,34.956,46.768,51.826c15.58,16.407,31.849,32.166,47.938,48.085
		c24.901,24.637,50.625,48.303,83.102,62.835c12.699,5.683,25.634,11.115,38.926,15.118c19.467,5.863,39.741,3.429,59.609,2.561
		c10.758-0.47,21.758-3.217,31.197-9.502c10.503-6.994,22.399-10.018,34.629-11.819c14.98-2.207,28.857-7.345,42.355-14.087
		c12.749-6.37,25.829-12.1,38.9-17.796c8.205-3.578,17.269-5.547,24.886-10.038c18.033-10.632,35.602-22.082,53.044-33.674
		c21.031-13.977,41.662-28.557,62.628-42.634c7.423-4.983,15.604-8.852,22.942-13.944c15.567-10.804,30.841-22.035,46.177-33.17
		c15.34-11.139,30.313-22.812,45.971-33.479c36.837-25.095,73.54-50.151,106.535-80.506c22.251-20.471,45.999-39.303,66.3-61.875
		c4.004-4.452,8.209-8.727,12.152-13.231c3.05-3.482,6.12-5.319,11.211-4.063c29.688,7.324,59.919,12.828,89.07,21.846
		c30.697,9.496,60.404,22.202,90.487,33.656c2.37,0.901,4.139,3.291,6.454,4.458c5.86,2.953,11.811,7.788,17.838,7.962
		c17.538,0.505,35.138,1.809,52.727-1.473c41.461-7.732,82.994-15.123,124.615-21.944c20.96-3.437,42.144-5.591,63.276-7.87
		c41.318-4.453,82.33-3.802,122.742,7.59c11.632,3.279,22.741,7.113,32.455,14.56c11.614,8.904,23.368,17.636,35.245,26.187
		c11.455,8.245,21.514,17.62,28.694,30.016c3.813,6.585,8.776,12.497,13.121,18.783c8.128,11.756,16.57,23.32,24.178,35.407
		c11.173,17.754,16.791,37.872,19.661,58.213c2.663,18.865,1.909,38.214,2.689,58.098c-5.813-1.597-12.018-4.095-18.437-4.924
		c-25.488-3.289-50.9-4.999-75.828,4.225c-17.694,6.547-33.933,15.203-47.443,28.548c-12.313,12.16-24.443,24.271-32.439,40.146
		c-7.69,15.268-13.205,31.164-17.608,47.539c-2.569,9.558-7.408,17.04-15.051,23.792c-25.674,22.679-50.613,46.187-75.839,69.373
		c-15.184,13.958-30.531,27.742-45.526,41.899c-19.584,18.49-39.609,36.594-58.123,56.118
		c-18.732,19.753-35.863,41.028-53.674,61.654c-12.383,14.342-24.961,28.524-37.027,43.128
		c-12.695,15.366-24.929,31.117-37.29,46.759c-10.928,13.829-21.921,27.609-32.592,41.635
		c-25.964,34.124-51.246,68.778-77.827,102.411c-13.606,17.218-27.701,33.99-39.59,52.487c-1.916,2.98-4.421,5.581-6.154,7.736
		c-8.704-4.101-16.847-7.09-24.044-11.592c-6.028-3.772-12.173-4.897-18.872-4.954c-4.665-0.04-9.338-0.181-13.996,0.019
		c-23.833,1.021-46.449,5.059-62.254,25.638c-1.006,1.311-2.416,2.303-3.501,3.563c-13.522,15.68-23.014,33.554-26.074,54.032
		c-1.954,13.076-1.99,26.492-2.188,39.767c-0.33,21.996,7.226,40.932,23.098,56.479c5.197,5.091,9.813,10.773,14.417,15.876
		c-3.448,11.285-6.497,22.125-10.075,32.79c-6.656,19.838-3.72,40.221-3.827,60.432c-0.008,1.598,0.902,3.18,1.211,4.802
		c2.65,13.954,12.149,23.275,21.802,32.554c17.468,16.793,10.858,15.299,38.591,19.298c3.276,0.473,6.623,0.714,9.931,0.657
		c16.967-0.292,33.93-1.011,50.895-1.008c15.053,0.003,27.987-4.864,39.197-14.755c3.167-2.796,6.5-5.402,10.222-8.48
		c4.979,3.938,9.814,6.983,13.656,10.984c6.186,6.441,13.694,10.253,21.732,13.685c15.17,6.475,31.076,5.951,47.07,6.77
		c17.11,0.875,30.678-6.214,42.479-16.551c15.763-13.803,30.438-28.889,45.05-43.939c3.742-3.854,7.487-9.531,7.771-14.565
		c0.781-13.891,0.425-27.941-0.758-41.819c-1.718-20.132-14.175-36.067-22.815-54.424c3.816-3.836,8.217-7.861,12.162-12.295
		c12.593-14.154,25.872-27.808,37.335-42.837c26.85-35.204,53.758-70.253,86.688-100.175c9.361-8.506,17.907-17.93,27.459-26.2
		c28.123-24.349,56.563-48.331,84.477-72.112c13.509,6.955,26.552,14.175,40.015,20.506c37.451,17.614,76.159,31.823,117.771,34.687
		c25.173,1.732,50.588,1.438,75.821,0.363c27.729-1.179,54.429-8.285,80.521-17.855c20.432-7.494,40.245-15.811,56.748-31.595
		c2.735,2.67,5.17,5.368,7.926,7.687c18.56,15.612,37.062,31.176,59.607,41.19c33.58,14.918,68.336,18.147,104.884,12.109
		c7.51,7.589,15.107,15.52,22.998,23.148c4.774,4.616,9.631,9.313,15.097,13.019c15.769,10.694,30.099,22.963,43.487,36.498
		c7.195,7.272,15.926,11.746,26.814,10.999c7.298-0.501,14.662-0.252,21.989-0.063c17.395,0.447,33.644-4.899,49.042-11.691
		c17.037-7.515,32.59-18.022,45.46-31.879c9.958-10.723,19.782-21.569,29.682-32.345c1.574-1.715,3.157-3.437,4.871-5.006
		c6.616-6.066,13.475-11.879,19.887-18.15c7.061-6.904,12.911-15.112,22.497-19.119c2.028-0.848,3.475-3.038,5.262-4.522
		c13.066-10.853,21.706-24.892,29.543-39.714c9.645-18.24,15.389-36.827,14.542-58.051c-0.521-13.069-4.081-24.131-10.923-34.326
		c-21.013-31.313-45.894-59.392-72.59-85.991c-14.117-14.063-27.034-29.322-40.707-43.841c-7.63-8.1-11.033-16.79-7.371-27.968
		c1.625-4.957,1.001-10.607,2.225-15.745c9.971-41.896,10.585-84.444,7.961-127.027c-1.574-25.523-3.341-50.947-3.425-76.578
		c-0.102-30.863-2.495-61.728-4.226-92.572c-0.5-8.909-1.661-17.845-3.336-26.612c-6.522-34.159-18.812-66.474-31.991-98.501
		c-6.576-15.98-14.019-31.762-18.806-48.289c-9.063-31.294-23.426-59.997-39.479-88.012c-23.498-41.005-49.199-80.543-76.96-118.854
		c-27.029-37.301-57.072-71.811-89.487-104.396c-5.633-5.662-10.897-11.689-16.542-17.338
		c-12.245-12.253-24.356-24.66-37.021-36.471c-16.831-15.696-35.828-28.594-55.253-40.843
		c-22.783-14.366-44.909-29.976-68.61-42.628c-24.3-12.973-49.952-23.522-75.436-34.116c-10.637-4.421-22.244-6.844-33.627-9.059
		c-18.915-3.68-38.02-6.378-57.018-9.637c-37.776-6.478-75.738-10.683-114.143-9.402c-11.614,0.386-23.213,1.682-34.821,1.7
		c-22.633,0.033-45.266-0.754-67.898-0.746c-7.603,0.002-15.224,1.233-22.803,2.17c-17.789,2.196-35.547,4.641-53.338,6.816
		c-12.849,1.57-25.84,2.233-38.579,4.409c-36.34,6.205-72.462,13.773-108.897,19.302c-37.582,5.702-74.346,14.439-110.722,25.183
		c-5.918,1.747-11.972,3.029-18.208,4.589c-1.057-11.149,2.63-17.351,12.844-19.876c18.709-4.626,37.178-10.225,55.903-14.779
		c40.776-9.916,81.183-20.716,118.755-40.172c11.572-5.992,23.096-11.942,32.69-20.828c14.649-13.569,29.01-27.45,43.456-41.237
		c9.688-9.244,14.285-20.548,14.038-33.995c-0.232-12.662,0.529-25.363-0.211-37.985c-0.754-12.884-0.861-26.302-4.665-38.415
		c-9.62-30.625-29.407-53.943-56.805-70.778c-2.784-1.712-5.442-3.924-7.525-6.431c-19.825-23.859-44.5-41.864-70.354-58.415
		c-22.316-14.286-46.906-23.499-71.932-31.723c-5.662-1.861-11.543-3.716-16.542-6.827c-26.271-16.35-52.479-32.816-78.352-49.786
		c-34.791-22.817-68.881-46.735-105.479-66.668c-4.307-2.345-7.187-5.178-9.565-9.483c-16.406-29.701-34.101-58.557-55.032-85.397
		c-13.513-17.329-25.345-35.757-32.988-56.687c-2.931-8.024-6.935-16-12.029-22.815c-8.925-11.94-19.028-23.004-28.716-34.369
		c-9.998-11.728-20.923-22.309-35.052-29.167c-3.503-1.701-6.685-4.39-9.485-7.157c-12.751-12.596-28.001-18.497-45.875-18.417
		c-33.617,0.148-67.238-0.217-100.853,0.117c-32.279,0.321-64.569,0.804-96.814,2.172c-11.277,0.479-19.887-3.369-27.917-10.211
		c-13.66-11.642-27.101-23.552-40.999-34.901c-9.517-7.772-19.823-14.57-29.484-22.175c-33.96-26.731-72.251-38.767-115.413-34.316
		c-6.908,0.712-13.81,1.948-20.567,3.557c-9.371,2.232-18.646,4.906-27.882,7.655c-6.983,2.079-13.862,4.513-20.749,6.898
		c-8.767,3.035-17.565,5.995-26.214,9.34c-5.827,2.254-12.201,4.133-16.955,7.91c-10.938,8.691-23.846,12.875-36.057,18.368
		c-1.654-3.272-3.68-6.038-4.486-9.123c-1.903-7.289-4.729-14.795-4.403-22.09c0.407-9.133,3.207-18.255,5.775-27.151
		c1.028-3.563,3.54-7.396,6.503-9.569c8.576-6.289,17.335-12.559,26.769-17.376c7.746-3.957,15.671-9.731,25.177-7.479
		c16.765,3.972,33.736,3.349,50.703,3.218c2.54-0.02,5.745-0.255,7.482-1.744c5.549-4.757,10.552-10.151,15.767-15.299
		c0.047-11.814,0.094-23.628,0.142-35.442c-7.659-6.85-14.502-15.089-23.19-20.181c-9.903-5.803-21.344-9.111-32.329-12.881
		c-5.274-1.81-11.021-2.925-16.586-3.074c-15.309-0.409-30.636-0.142-47.973-0.142c13.885-3.291,25.841-6.587,37.989-8.852
		c9.099-1.696,18.464-2.981,27.675-2.778c10.578,0.233,21.092,2.567,31.678,3.486c6.335,0.55,11.056,3.057,15.421,7.682
		c11.912,12.624,26.244,21.336,43.449,24.868c15.143,3.108,30.469,2.966,45.763,2.078c14.938-0.869,23.655-10.436,29.541-23.063
		c5.463-11.714,2.511-24.246,2.761-36.438c0.034-1.652-1.75-3.456-2.938-5c-8.161-10.603-17.403-20.04-28.403-27.831
		c-6.177-4.375-12.896-8.879-17.165-14.89c-13.335-18.781-23.87-39.147-29.91-61.583c-4.388-16.297-4.332-32.114,4.335-47.284
		c14.38-25.172,32.059-47.292,56.765-63.189c15.389-9.902,30.305-20.625,49.169-23.288c4.228-0.597,8.554-1.966,12.345-3.926
		c12.993-6.715,23.935-15.796,28.866-30.116c4.105-11.926,3.593-24.897,0.895-36.449c-2.526-10.82-13.337-17.821-21.813-25.321
		c-0.966-0.854-2.311-1.313-3.533-1.828c-1.211-0.51-2.494-1.236-3.737-1.221c-12.298,0.15-24.838-0.987-36.829,1.058
		c-13.651,2.328-26.779,7.657-40.21,11.407c-4.4,1.229-9.141,2.6-13.552,2.163c-11.553-1.144-23.042-3.063-34.494-5.037
		c-7.748-1.336-15.389-3.29-24.021-5.173c4.337-15.688-5.208-24.344-14.646-33.071c-1.956-1.81-3.831-3.713-5.661-5.65
		c-8.923-9.439-19.924-13.667-32.843-13.984c-4.482-0.109-8.988-1.636-13.372-2.901c-10.821-3.123-21.429-7.155-32.405-9.511
		c-9.315-2.001-19.087-1.67-27.975-6.034c-2.274-1.116-5.23-1.561-7.763-1.291c-6.422,0.686-9.162-2.786-10.415-8.235
		c-1.189-5.173-2.447-10.354-3.211-15.598c-1.628-11.161-5.121-22.621-3.837-33.485c1.487-12.6,7.011-24.786,11.334-36.955
		c1.63-4.592,5.496-7.426,10.996-6.708c9.468,1.236,16.806-2.315,22.504-9.859c2.385-3.156,7.192-5.82,7.461-8.999
		c1.005-11.895,0.602-23.909,0.669-35.878c0.004-0.596-0.406-1.302-0.827-1.775c-8.187-9.213-16.079-18.939-29.91-19.409
		c-13.296-0.45-26.601-1.236-39.891-1.05c-10.13,0.142-19.961,2.822-27.37,10.258c-7.245,7.272-13.788,15.245-20.648,22.902
		c-1.662,1.855-3.359,3.68-5.677,6.217c-0.858-2.19-1.738-3.358-1.691-4.488c0.371-9.129-3.898-15.87-10.493-21.637
		c-3.253-2.846-5.841-6.531-9.31-9.036c-4.243-3.064-8.901-6.991-13.718-7.53c-10.857-1.215-21.922-0.654-32.901-0.588
		c-1.491,0.009-3.25,1.027-4.417,2.092c-9.11,8.311-20.849,14.549-22.648,28.711c-0.284,2.235-1.515,4.387-2.496,6.491
		c-16.616,35.627-34.682,70.301-62.435,98.953c-15.784,16.296-30.733,33.549-55.144,36.875c-4.608,0.628-9.122,1.995-13.735,2.512
		c-16.501,1.85-33.013,4.608-49.546,4.796c-11.042,0.127-23.288-1.219-32.895-6.067c-11.904-6.007-21.922-15.987-32.203-24.889
		c-6.742-5.836-10.349-13.593-9.909-23.006c0.146-3.128-0.26-7.272-2.165-9.336c-8.441-9.146-15.798-20.76-31.875-16.947
		c-5.328-12.872-13.365-23.199-22.35-33.167c-10.398-11.536-21.867-17.202-37.627-15.557c-7.234,0.755-12.897,1.852-18.438,7.282
		c-6.034,5.913-8.875,11.864-7.984,20.15c0.532,4.942-0.165,10.007,0.188,14.981c0.253,3.568,0.772,7.309,2.126,10.578
		c17.71,42.807,28.796,87.728,42.216,131.899c2.713,8.932,5.641,17.219,12.399,24.431c13.603,14.512,26.981,29.396,38.881,45.301
		c12.92,17.269,25.012,35.328,35.679,54.061c9.349,16.42,16.354,34.192,24.112,51.494c2.328,5.192,2.724,10.678,0.763,16.439
		c-4.314,12.682-6.239,25.709-5.817,39.24c0.244,7.819-1.51,15.702-2.342,23.349c-10.786,3.95-20.631,8.072-30.795,11.139
		c-10.8,3.258-21.879,5.615-32.877,8.186c-16.822,3.931-33.915,6.9-50.48,11.7c-50.249,14.564-98.166,35.556-146.877,54.351
		c-8.324,3.212-16.729,6.211-26.271,9.743c-5.558-8.38-11.595-15.948-15.974-24.378c-12.066-23.235-29.007-42.5-49.455-58.116
		c-22.694-17.332-45.678-34.614-71.318-47.561c-15.39-7.771-31.018-15.508-47.311-20.95c-21.22-7.086-43.744-7.984-66-9.006
		c-26.647-1.223-53.077,0.62-79.229,7.959c-1.824-3.607-3.61-6.774-5.068-10.086c-5.544-12.596-12.796-24.16-22.116-34.212
		c-16.737-18.055-33.383-36.249-51.091-53.323c-7.221-6.963-16.634-12.215-25.892-16.373c-15.086-6.777-30.862-12.018-45.871-17.726
		c-2.585-8.244-5.001-16.503-7.759-24.647c-7.572-22.361-15.838-44.508-22.705-67.082c-3.228-10.609-8.963-19.218-15.741-27.39
		c-4.238-5.109-8.768-10.328-14.169-14.036c-8.171-5.609-16.755-12.576-26-14.198c-13.558-2.382-28.106-2.148-41.754-0.001
		c-10.555,1.661-20.926,3.073-31.569,3.147c-3.278,0.022-6.579,0.68-9.821,1.297c-21.538,4.097-40.778,14.303-60.012,23.938
		c-26.821,13.438-55.215,22.786-82.86,34.047c-15.281,6.225-29.767,12.943-40.867,25.751c-9.138,10.545-19.221,20.272-28.378,30.802
		c-2.654,3.051-4.761,7.532-5.056,11.51c-1.103,14.886-1.709,29.834-1.751,44.761c-0.018,6.563,1.004,13.359,2.888,19.652
		c4.469,14.936,9.454,29.735,14.743,44.405C316.17,516.424,324.598,538.438,333.228,561.554z"/>
	<path fill-rule="evenodd" d="M333.228,561.554c-8.629-23.116-17.057-45.13-25.049-67.299c-5.289-14.67-10.274-29.47-14.743-44.405
		c-1.883-6.292-2.905-13.089-2.888-19.652c0.042-14.927,0.649-29.875,1.751-44.761c0.294-3.978,2.402-8.459,5.056-11.51
		c9.158-10.53,19.24-20.256,28.378-30.802c11.101-12.808,25.586-19.527,40.867-25.751c27.645-11.261,56.039-20.609,82.86-34.047
		c19.234-9.635,38.475-19.841,60.012-23.938c3.242-0.617,6.543-1.274,9.821-1.297c10.643-0.074,21.014-1.486,31.569-3.147
		c13.648-2.147,28.197-2.381,41.754,0.001c9.245,1.623,17.829,8.589,26,14.198c5.401,3.708,9.931,8.927,14.169,14.036
		c6.778,8.171,12.514,16.781,15.741,27.39c6.867,22.573,15.133,44.72,22.705,67.082c2.757,8.145,5.174,16.403,7.759,24.647
		c15.009,5.708,30.785,10.949,45.871,17.726c9.258,4.158,18.67,9.41,25.892,16.373c17.708,17.074,34.354,35.268,51.091,53.323
		c9.319,10.052,16.571,21.616,22.116,34.212c1.458,3.312,3.244,6.479,5.068,10.086c26.152-7.339,52.582-9.182,79.229-7.959
		c22.257,1.021,44.781,1.92,66,9.006c16.293,5.442,31.921,13.178,47.311,20.95c25.641,12.947,48.624,30.229,71.318,47.561
		c20.448,15.616,37.389,34.88,49.455,58.116c4.378,8.43,10.416,15.998,15.974,24.378c9.542-3.532,17.947-6.531,26.271-9.743
		c48.712-18.795,96.629-39.787,146.877-54.351c16.565-4.8,33.658-7.77,50.48-11.7c10.999-2.57,22.077-4.927,32.877-8.186
		c10.164-3.066,20.009-7.188,30.795-11.139c0.832-7.646,2.586-15.529,2.342-23.349c-0.422-13.531,1.503-26.558,5.817-39.24
		c1.961-5.761,1.564-11.247-0.763-16.439c-7.758-17.302-14.763-35.074-24.112-51.494c-10.667-18.733-22.759-36.792-35.679-54.061
		c-11.9-15.905-25.278-30.789-38.881-45.301c-6.758-7.211-9.686-15.499-12.399-24.431c-13.42-44.171-24.506-89.093-42.216-131.899
		c-1.354-3.27-1.873-7.01-2.126-10.578c-0.353-4.975,0.345-10.04-0.188-14.981c-0.891-8.286,1.95-14.237,7.984-20.15
		c5.542-5.43,11.205-6.527,18.438-7.282c15.76-1.645,27.229,4.021,37.627,15.557c8.984,9.968,17.021,20.295,22.35,33.167
		c16.077-3.813,23.434,7.802,31.875,16.947c1.904,2.063,2.311,6.208,2.165,9.336c-0.44,9.413,3.167,17.17,9.909,23.006
		c10.281,8.901,20.299,18.881,32.203,24.889c9.607,4.849,21.854,6.194,32.895,6.067c16.533-0.188,33.045-2.947,49.546-4.796
		c4.613-0.517,9.127-1.884,13.735-2.512c24.41-3.326,39.359-20.579,55.144-36.875c27.752-28.652,45.818-63.326,62.435-98.953
		c0.98-2.104,2.211-4.255,2.496-6.491c1.8-14.162,13.539-20.4,22.648-28.711c1.167-1.064,2.926-2.083,4.417-2.092
		c10.979-0.066,22.044-0.627,32.901,0.588c4.817,0.539,9.475,4.466,13.718,7.53c3.468,2.505,6.056,6.19,9.31,9.036
		c6.595,5.767,10.864,12.507,10.493,21.637c-0.047,1.13,0.833,2.298,1.691,4.488c2.318-2.537,4.015-4.362,5.677-6.217
		c6.86-7.657,13.403-15.63,20.648-22.902c7.408-7.436,17.239-10.116,27.37-10.258c13.29-0.187,26.594,0.6,39.891,1.05
		c13.831,0.47,21.724,10.196,29.91,19.409c0.421,0.474,0.831,1.18,0.827,1.775c-0.067,11.969,0.336,23.983-0.669,35.878
		c-0.269,3.179-5.076,5.843-7.461,8.999c-5.698,7.544-13.036,11.095-22.504,9.859c-5.5-0.718-9.365,2.116-10.996,6.708
		c-4.324,12.169-9.848,24.355-11.334,36.955c-1.283,10.864,2.209,22.325,3.837,33.485c0.764,5.244,2.022,10.424,3.211,15.598
		c1.252,5.449,3.993,8.921,10.415,8.235c2.533-0.271,5.489,0.175,7.763,1.291c8.888,4.364,18.66,4.033,27.975,6.034
		c10.976,2.356,21.584,6.389,32.405,9.511c4.384,1.265,8.89,2.792,13.372,2.901c12.918,0.317,23.92,4.545,32.843,13.984
		c1.831,1.937,3.706,3.84,5.661,5.65c9.438,8.727,18.983,17.382,14.646,33.071c8.632,1.883,16.273,3.837,24.021,5.173
		c11.452,1.974,22.941,3.893,34.494,5.037c4.411,0.438,9.152-0.934,13.552-2.163c13.431-3.75,26.559-9.079,40.21-11.407
		c11.991-2.045,24.531-0.907,36.829-1.058c1.243-0.016,2.526,0.711,3.737,1.221c1.223,0.516,2.567,0.975,3.533,1.828
		c8.476,7.5,19.286,14.501,21.813,25.321c2.698,11.551,3.211,24.522-0.895,36.449c-4.932,14.32-15.873,23.401-28.866,30.116
		c-3.791,1.96-8.117,3.33-12.345,3.926c-18.864,2.663-33.78,13.386-49.169,23.288c-24.707,15.897-42.385,38.018-56.765,63.189
		c-8.667,15.17-8.724,30.986-4.335,47.284c6.04,22.436,16.575,42.803,29.91,61.583c4.269,6.011,10.988,10.514,17.165,14.89
		c11,7.791,20.242,17.228,28.403,27.831c1.188,1.544,2.973,3.348,2.938,5c-0.25,12.192,2.702,24.724-2.761,36.438
		c-5.886,12.626-14.604,22.194-29.541,23.063c-15.294,0.889-30.62,1.03-45.763-2.078c-17.205-3.532-31.537-12.245-43.449-24.868
		c-4.365-4.625-9.086-7.132-15.421-7.682c-10.585-0.919-21.1-3.252-31.678-3.486c-9.211-0.203-18.577,1.082-27.675,2.778
		c-12.148,2.265-24.104,5.561-37.989,8.852c17.336,0,32.664-0.268,47.973,0.142c5.565,0.148,11.312,1.264,16.586,3.074
		c10.985,3.77,22.426,7.079,32.329,12.881c8.688,5.092,15.531,13.331,23.19,20.181c-0.048,11.814-0.095,23.628-0.142,35.442
		c-5.214,5.147-10.217,10.542-15.767,15.299c-1.738,1.488-4.943,1.724-7.482,1.744c-16.967,0.131-33.938,0.754-50.703-3.218
		c-9.506-2.251-17.431,3.523-25.177,7.479c-9.434,4.817-18.192,11.087-26.769,17.376c-2.963,2.173-5.475,6.006-6.503,9.569
		c-2.569,8.896-5.369,18.018-5.775,27.151c-0.326,7.295,2.5,14.802,4.403,22.09c0.806,3.084,2.832,5.851,4.486,9.123
		c12.211-5.493,25.119-9.676,36.057-18.368c4.754-3.777,11.128-5.656,16.955-7.91c8.649-3.345,17.448-6.306,26.214-9.34
		c6.887-2.385,13.766-4.819,20.749-6.898c9.237-2.75,18.511-5.423,27.882-7.655c6.758-1.609,13.659-2.845,20.567-3.557
		c43.162-4.451,81.453,7.585,115.413,34.316c9.661,7.605,19.968,14.403,29.484,22.175c13.898,11.349,27.339,23.259,40.999,34.901
		c8.03,6.843,16.64,10.69,27.917,10.211c32.245-1.368,64.535-1.852,96.814-2.172c33.614-0.334,67.235,0.031,100.853-0.117
		c17.874-0.079,33.124,5.821,45.875,18.417c2.801,2.767,5.982,5.456,9.485,7.157c14.129,6.858,25.054,17.439,35.052,29.167
		c9.688,11.365,19.791,22.429,28.716,34.369c5.095,6.815,9.099,14.791,12.029,22.815c7.644,20.929,19.476,39.357,32.988,56.687
		c20.932,26.84,38.626,55.697,55.032,85.397c2.379,4.305,5.259,7.138,9.565,9.483c36.599,19.933,70.688,43.851,105.479,66.668
		c25.873,16.97,52.081,33.436,78.352,49.786c4.999,3.111,10.88,4.965,16.542,6.827c25.025,8.224,49.615,17.437,71.932,31.723
		c25.854,16.551,50.528,34.555,70.354,58.415c2.083,2.507,4.741,4.719,7.525,6.431c27.397,16.835,47.185,40.153,56.805,70.778
		c3.804,12.113,3.911,25.531,4.665,38.415c0.74,12.623-0.021,25.324,0.211,37.985c0.247,13.447-4.351,24.751-14.038,33.995
		c-14.446,13.788-28.807,27.668-43.456,41.237c-9.595,8.886-21.118,14.836-32.69,20.828
		c-37.572,19.456-77.979,30.256-118.755,40.172c-18.726,4.554-37.194,10.153-55.903,14.779c-10.214,2.525-13.9,8.727-12.844,19.876
		c6.236-1.56,12.29-2.842,18.208-4.589c36.376-10.744,73.14-19.481,110.722-25.183c36.436-5.529,72.558-13.097,108.897-19.302
		c12.739-2.176,25.73-2.838,38.579-4.409c17.791-2.175,35.549-4.621,53.338-6.816c7.579-0.937,15.2-2.168,22.803-2.17
		c22.633-0.008,45.266,0.779,67.898,0.746c11.608-0.018,23.207-1.313,34.821-1.7c38.404-1.281,76.366,2.924,114.143,9.402
		c18.998,3.258,38.103,5.957,57.018,9.637c11.383,2.215,22.99,4.638,33.627,9.059c25.483,10.594,51.136,21.143,75.436,34.116
		c23.701,12.652,45.827,28.262,68.61,42.628c19.425,12.249,38.422,25.146,55.253,40.843c12.664,11.811,24.775,24.218,37.021,36.471
		c5.645,5.648,10.909,11.676,16.542,17.338c32.415,32.585,62.458,67.095,89.487,104.396c27.761,38.311,53.462,77.849,76.96,118.854
		c16.053,28.015,30.416,56.718,39.479,88.012c4.787,16.527,12.229,32.309,18.806,48.289c13.18,32.027,25.469,64.342,31.991,98.501
		c1.675,8.768,2.836,17.703,3.336,26.612c1.73,30.845,4.124,61.709,4.226,92.572c0.084,25.631,1.851,51.055,3.425,76.578
		c2.624,42.583,2.01,85.132-7.961,127.027c-1.224,5.138-0.6,10.788-2.225,15.745c-3.662,11.178-0.259,19.868,7.371,27.968
		c13.673,14.519,26.59,29.777,40.707,43.841c26.696,26.6,51.577,54.678,72.59,85.991c6.842,10.195,10.401,21.257,10.923,34.326
		c0.847,21.224-4.897,39.811-14.542,58.051c-7.837,14.822-16.477,28.861-29.543,39.714c-1.787,1.484-3.233,3.675-5.262,4.522
		c-9.586,4.007-15.437,12.215-22.497,19.119c-6.412,6.271-13.271,12.084-19.887,18.15c-1.714,1.569-3.297,3.291-4.871,5.006
		c-9.899,10.775-19.724,21.622-29.682,32.345c-12.87,13.856-28.423,24.364-45.46,31.879c-15.398,6.792-31.647,12.139-49.042,11.691
		c-7.327-0.188-14.691-0.438-21.989,0.063c-10.889,0.747-19.619-3.727-26.814-10.999c-13.389-13.535-27.719-25.804-43.487-36.498
		c-5.466-3.706-10.322-8.402-15.097-13.019c-7.891-7.629-15.488-15.56-22.998-23.148c-36.548,6.038-71.304,2.809-104.884-12.109
		c-22.546-10.015-41.048-25.578-59.607-41.19c-2.756-2.318-5.19-5.017-7.926-7.687c-16.503,15.784-36.316,24.101-56.748,31.595
		c-26.092,9.57-52.792,16.677-80.521,17.855c-25.233,1.074-50.648,1.369-75.821-0.363c-41.611-2.863-80.319-17.072-117.771-34.687
		c-13.463-6.331-26.506-13.551-40.015-20.506c-27.914,23.781-56.354,47.764-84.477,72.112c-9.552,8.271-18.098,17.694-27.459,26.2
		c-32.931,29.922-59.839,64.971-86.688,100.175c-11.463,15.029-24.742,28.683-37.335,42.837c-3.945,4.434-8.346,8.459-12.162,12.295
		c8.641,18.356,21.098,34.292,22.815,54.424c1.183,13.878,1.539,27.929,0.758,41.819c-0.283,5.034-4.028,10.712-7.771,14.565
		c-14.612,15.051-29.287,30.137-45.05,43.939c-11.802,10.337-25.369,17.426-42.479,16.551c-15.994-0.818-31.9-0.295-47.07-6.77
		c-8.038-3.432-15.547-7.243-21.732-13.685c-3.842-4.001-8.678-7.046-13.656-10.984c-3.722,3.078-7.055,5.685-10.222,8.48
		c-11.21,9.891-24.145,14.758-39.197,14.755c-16.965-0.003-33.928,0.716-50.895,1.008c-3.308,0.057-6.654-0.185-9.931-0.657
		c-27.732-3.999-21.123-2.505-38.591-19.298c-9.652-9.278-19.151-18.6-21.802-32.554c-0.309-1.622-1.219-3.204-1.211-4.802
		c0.107-20.211-2.829-40.594,3.827-60.432c3.578-10.665,6.627-21.505,10.075-32.79c-4.604-5.103-9.22-10.785-14.417-15.876
		c-15.872-15.547-23.428-34.482-23.098-56.479c0.198-13.274,0.234-26.69,2.188-39.767c3.061-20.479,12.552-38.353,26.074-54.032
		c1.085-1.26,2.495-2.252,3.501-3.563c15.805-20.579,38.421-24.616,62.254-25.638c4.658-0.199,9.331-0.059,13.996-0.019
		c6.699,0.057,12.844,1.182,18.872,4.954c7.197,4.502,15.34,7.491,24.044,11.592c1.733-2.155,4.238-4.756,6.154-7.736
		c11.889-18.497,25.983-35.27,39.59-52.487c26.581-33.633,51.863-68.287,77.827-102.411c10.671-14.025,21.664-27.806,32.592-41.635
		c12.361-15.642,24.595-31.393,37.29-46.759c12.066-14.604,24.645-28.786,37.027-43.128c17.811-20.626,34.941-41.901,53.674-61.654
		c18.514-19.524,38.539-37.628,58.123-56.118c14.995-14.157,30.343-27.941,45.526-41.899c25.226-23.187,50.165-46.694,75.839-69.373
		c7.643-6.752,12.481-14.234,15.051-23.792c4.403-16.375,9.918-32.271,17.608-47.539c7.996-15.875,20.126-27.986,32.439-40.146
		c13.511-13.345,29.749-22.001,47.443-28.548c24.928-9.224,50.34-7.514,75.828-4.225c6.419,0.829,12.623,3.327,18.437,4.924
		c-0.78-19.884-0.026-39.232-2.689-58.098c-2.87-20.341-8.488-40.459-19.661-58.213c-7.607-12.087-16.05-23.651-24.178-35.407
		c-4.345-6.286-9.308-12.198-13.121-18.783c-7.181-12.396-17.239-21.771-28.694-30.016c-11.877-8.551-23.631-17.282-35.245-26.187
		c-9.714-7.446-20.823-11.28-32.455-14.56c-40.412-11.392-81.424-12.043-122.742-7.59c-21.133,2.279-42.316,4.434-63.276,7.87
		c-41.621,6.821-83.154,14.212-124.615,21.944c-17.589,3.281-35.188,1.978-52.727,1.473c-6.027-0.174-11.978-5.009-17.838-7.962
		c-2.315-1.167-4.084-3.557-6.454-4.458c-30.083-11.454-59.79-24.16-90.487-33.656c-29.151-9.018-59.383-14.521-89.07-21.846
		c-5.091-1.256-8.161,0.581-11.211,4.063c-3.943,4.505-8.148,8.779-12.152,13.231c-20.301,22.572-44.049,41.404-66.3,61.875
		c-32.995,30.354-69.698,55.411-106.535,80.506c-15.658,10.667-30.631,22.34-45.971,33.479
		c-15.336,11.135-30.609,22.366-46.177,33.17c-7.338,5.093-15.52,8.961-22.942,13.944c-20.966,14.077-41.597,28.657-62.628,42.634
		c-17.442,11.592-35.011,23.042-53.044,33.674c-7.617,4.491-16.681,6.46-24.886,10.038c-13.071,5.696-26.151,11.426-38.9,17.796
		c-13.498,6.742-27.375,11.88-42.355,14.087c-12.229,1.802-24.126,4.825-34.629,11.819c-9.439,6.285-20.439,9.032-31.197,9.502
		c-19.868,0.868-40.142,3.303-59.609-2.561c-13.292-4.003-26.227-9.436-38.926-15.118c-32.478-14.532-58.201-38.198-83.102-62.835
		c-16.089-15.919-32.358-31.678-47.938-48.085c-16.021-16.87-31.656-34.14-46.768-51.826c-8.39-9.819-15.264-20.921-23.025-31.292
		c-2.979-3.981-6.189-7.912-9.871-11.224c-14.394-12.946-24.119-29.013-32.604-46.163c-4.405-8.901-9.797-17.42-15.577-25.517
		c-13.313-18.651-27.128-36.946-40.764-55.366c-1.974-2.665-3.843-5.465-6.165-7.803c-8.254-8.306-13.059-18.336-15.533-29.64
		c-0.269-1.231-0.876-2.39-1.681-4.519c-5.488,3.033-10.454,5.938-15.57,8.55c-3.231,1.648-6.636,2.995-10.049,4.238
		c-16.258,5.921-32.508,11.865-48.834,17.589c-9.71,3.404-19.395,7.102-29.376,9.466c-25.71,6.092-49.94,16.186-74.272,26.102
		c-7.384,3.009-14.773,6.384-22.49,8.128c-23.594,5.329-44.939,16.416-67.244,25.059c-12.598,4.881-24.583,12.078-38.818,11.777
		c-1.583-0.033-3.354,0.594-4.752,1.403c-15.876,9.188-33.242,4.122-49.946,5.302c-0.968,0.068-2.07-0.06-2.933-0.47
		c-5.557-2.64-10.892-5.848-16.63-7.979c-7.082-2.63-14.356-5.248-21.774-6.364c-17.54-2.64-34.419-6.934-50.764-14.058
		c-17.958-7.828-36.426-14.485-54.67-21.656c-2.16-0.85-4.541-1.379-6.429-2.639c-12.44-8.304-26.608-11.454-40.822-15.217
		c-16.028-4.245-31.272-11.364-47.182-16.155c-40.236-12.115-78.041-30.454-117.229-45.241
		c-15.187-5.729-29.282-14.299-44.055-21.187c-26.202-12.215-52.78-23.646-78.75-36.327c-21.212-10.357-41.521-22.553-62.671-33.045
		c-32.176-15.962-64.807-30.998-97.104-46.719c-31.085-15.13-62.442-29.792-92.854-46.191
		c-34.225-18.453-68.349-37.378-98.481-62.347c-27.208-22.545-52.279-47.373-76.153-73.405
		c-14.613-15.935-29.17-31.921-43.65-47.977c-18.614-20.639-33.308-43.902-46.196-68.457c-16.853-32.106-34.397-63.85-51.238-95.962
		c-16.894-32.213-29.523-66.085-38.686-101.319c-8.699-33.447-18.564-66.595-26.944-100.118
		c-7.166-28.664-12.526-57.669-13.695-87.41c-1.447-36.822-5.782-73.495-5.909-110.411c-0.082-23.62-1.411-47.247-1.041-70.854
		c0.254-16.227,2.2-32.45,3.864-48.626c2.002-19.47,3.585-39.052,7.007-58.291c5.35-30.071,12.573-59.806,18.096-89.85
		c4.523-24.6,10.755-48.68,19.408-72.068c9.229-24.948,19.391-49.549,29.031-74.346c5.545-14.263,11.119-28.523,16.229-42.945
		c9.09-25.653,23.373-48.469,37.979-71.152c3.032-4.708,5.371-9.861,8.351-14.606c1.924-3.066,4.188-6.011,6.733-8.579
		C321.069,572.968,327.177,567.338,333.228,561.554z M654.398,1113.739c-1.521,2.708-2.775,4.648-3.748,6.72
		c-17.393,37.077-31.916,75.129-39.083,115.661c-2.288,12.935-2.289,25.784,1.648,38.451c2.47,7.946,4.281,16.189,7.623,23.753
		c10.111,22.886,21.083,45.302,42.089,60.734c3.465,2.544,6.809,5.412,9.649,8.625c26.281,29.72,59.933,50.564,90.756,74.722
		c16.11,12.626,34.512,22.489,52.443,32.6c29.803,16.802,59.811,33.279,90.187,49.015c41.87,21.691,84.318,42.26,126.213,63.904
		c24.796,12.81,48.939,26.878,73.504,40.146c9.132,4.932,18.629,9.19,28.428,13.985c0.364-10.236-1.521-17.926-7.729-25.073
		c-6.658-7.666-9.276-17.4-8.928-27.865c0.353-10.651,0.62-21.358-0.059-31.977c-0.861-13.489,2.792-25.576,8.926-37.285
		c10.181-19.432,20.161-38.97,30.276-58.437c3.679-7.08,7.132-14.315,11.331-21.081c12.678-20.43,28.414-38.497,44.686-56.072
		c7.936-8.572,14.934-17.455,19.975-28.239c8.155-17.442,16.696-34.838,26.74-51.233c17.544-28.64,36.255-56.567,54.656-84.677
		c20.415-31.188,41.545-61.881,65.602-90.418c18.413-21.843,36.086-44.44,55.95-64.893c20.584-21.195,43.156-40.499,65.352-60.07
		c13.443-11.853,27.379-23.257,41.909-33.732c14.282-10.296,29.763-18.91,44.412-28.719c21.571-14.442,45.193-22.792,71.086-23.045
		c34.292-0.336,68.596,0.41,102.894,0.682c4.143,0.033,8.287,0.005,15.206,0.005c-16.36-29.926-15.144-60.325-13.759-92.18
		c-3.675,5.052-6.025,9.029-9.085,12.354c-10.385,11.285-21.442,21.934-34.346,30.31c-15.9,10.32-33.655,15.727-52.431,17.409
		c-7.933,0.711-16.019,0.574-23.966-0.054c-4.797-0.38-10.209-1.34-14.055-3.944c-15.657-10.602-32.075-20.314-44.844-34.699
		c-2.592-2.92-5.552-5.515-8.313-8.232c-9.295,3.942-17.709,7.905-26.398,11.132c-42.063,15.62-84.255,30.896-126.295,46.577
		c-39.864,14.871-79.607,30.071-119.387,45.167c-49.4,18.747-98.84,37.388-148.152,56.361
		c-27.993,10.771-56.261,20.525-85.608,26.944c-19.47,4.258-38.89,8.742-58.36,12.999c-18.498,4.045-37.038,7.901-55.543,11.915
		c-2.493,0.54-4.892,1.511-7.216,2.244c-0.387,8.611-0.362,16.619-1.192,24.537c-1.221,11.649-3.854,22.732-12.187,31.955
		c-13.945,15.436-30.717,26.064-50.169,33.29c-23.87,8.867-48.262,14.322-73.68,16.271c-25.564,1.961-50.365-0.104-74.5-9.079
		C708.833,1140.762,681.172,1129.441,654.398,1113.739z M1841.955,733.032c-19.92,4.158-57.215,18.985-70.518,27.25
		c0,5.787,0.22,12.084-0.063,18.361c-0.271,6.006-1.063,11.99-1.627,17.983C1786.622,766.673,1811.14,746.282,1841.955,733.032z"/>
	<path fill-rule="evenodd" fill="#FFFFFF" d="M654.398,1113.739c26.774,15.702,54.435,27.022,82.507,37.462
		c24.136,8.974,48.936,11.04,74.5,9.079c25.418-1.949,49.81-7.404,73.68-16.271c19.453-7.226,36.224-17.854,50.169-33.29
		c8.333-9.222,10.966-20.305,12.187-31.955c0.83-7.918,0.806-15.926,1.192-24.537c2.324-0.733,4.723-1.704,7.216-2.244
		c18.505-4.013,37.045-7.869,55.543-11.915c19.47-4.257,38.89-8.741,58.36-12.999c29.348-6.418,57.616-16.173,85.608-26.944
		c49.312-18.974,98.752-37.615,148.152-56.361c39.78-15.096,79.523-30.296,119.387-45.167
		c42.04-15.682,84.232-30.957,126.295-46.577c8.688-3.227,17.103-7.189,26.398-11.132c2.761,2.718,5.721,5.312,8.313,8.232
		c12.769,14.385,29.187,24.098,44.844,34.699c3.846,2.604,9.258,3.564,14.055,3.944c7.947,0.628,16.033,0.765,23.966,0.054
		c18.776-1.682,36.53-7.089,52.431-17.409c12.904-8.376,23.961-19.025,34.346-30.31c3.06-3.324,5.41-7.302,9.085-12.354
		c-1.385,31.854-2.601,62.254,13.759,92.18c-6.918,0-11.063,0.028-15.206-0.005c-34.298-0.271-68.602-1.018-102.894-0.682
		c-25.893,0.253-49.515,8.603-71.086,23.045c-14.648,9.81-30.13,18.423-44.412,28.719c-14.529,10.475-28.466,21.879-41.909,33.732
		c-22.196,19.571-44.768,38.875-65.352,60.07c-19.864,20.453-37.537,43.05-55.95,64.893c-24.057,28.538-45.188,59.231-65.602,90.418
		c-18.401,28.11-37.112,56.037-54.656,84.677c-10.043,16.395-18.584,33.792-26.74,51.233c-5.042,10.784-12.04,19.667-19.975,28.239
		c-16.271,17.575-32.008,35.642-44.686,56.072c-4.199,6.766-7.652,14.001-11.331,21.081c-10.115,19.467-20.095,39.005-30.276,58.437
		c-6.134,11.708-9.788,23.796-8.926,37.285c0.678,10.619,0.412,21.325,0.059,31.977c-0.348,10.464,2.27,20.199,8.928,27.865
		c6.208,7.146,8.093,14.837,7.729,25.073c-9.799-4.795-19.296-9.054-28.428-13.985c-24.565-13.267-48.708-27.335-73.504-40.146
		c-41.895-21.644-84.344-42.213-126.213-63.904c-30.376-15.736-60.384-32.213-90.187-49.015
		c-17.931-10.11-36.333-19.973-52.443-32.6c-30.823-24.158-64.475-45.002-90.756-74.722c-2.841-3.212-6.184-6.08-9.649-8.625
		c-21.007-15.432-31.979-37.848-42.089-60.734c-3.342-7.563-5.153-15.807-7.623-23.753c-3.937-12.667-3.936-25.516-1.648-38.451
		c7.167-40.532,21.69-78.584,39.083-115.661C651.624,1118.387,652.878,1116.447,654.398,1113.739z"/>
	<path fill-rule="evenodd" fill="#FFFFFF" d="M1841.955,733.032c-30.815,13.25-55.333,33.641-72.208,63.595
		c0.563-5.994,1.356-11.977,1.627-17.983c0.283-6.276,0.063-12.574,0.063-18.361C1784.74,752.017,1822.035,737.19,1841.955,733.032z
		"/>
</g>
</svg>
