<?xml version="1.0" encoding="utf-8"?>
<!-- Generator: Adobe Illustrator 16.0.2, SVG Export Plug-In . SVG Version: 6.00 Build 0)  -->
<!DOCTYPE svg PUBLIC "-//W3C//DTD SVG 1.1//EN" "http://www.w3.org/Graphics/SVG/1.1/DTD/svg11.dtd">
<svg version="1.1" id="Layer_1" xmlns="http://www.w3.org/2000/svg" xmlns:xlink="http://www.w3.org/1999/xlink" x="0px" y="0px"
	 width="2386.701px" height="3879.515px" viewBox="0 0 2386.701 3879.515" enable-background="new 0 0 2386.701 3879.515"
	 xml:space="preserve">
<g>
	<path fill-rule="evenodd" clip-rule="evenodd" fill="#FFFFFF" d="M2389.596,3883.409c-795.936,0-1591.766,0-2387.492,0
		c0-1293.872,0-2587.641,0-3881.306c795.935,0,1591.766,0,2387.492,0C2389.596,1295.976,2389.596,2589.744,2389.596,3883.409z
		 M570.707,3244.516c-0.866,15.311-1.96,29.204-2.352,43.117c-0.394,13.987-0.424,28.006,0.038,41.988
		c0.283,8.573,0.923,17.314,2.913,25.617c5.883,24.543,12.383,48.94,18.889,73.33c8.992,33.712,17.736,67.548,31.61,99.675
		c9.49,21.976,20.223,43.41,29.954,65.285c9.26,20.82,20.334,40.515,35.637,57.437c18.735,20.718,37.666,41.294,57.336,61.115
		c8.568,8.634,18.436,16.576,29.021,22.491c24.938,13.936,50.814,26.179,76.029,39.634c33.239,17.736,69.103,18.105,105.157,16.134
		c28.076-1.536,53.501-12.556,78.145-25.271c7.91-4.082,15.472-8.839,23.295-13.346c2.38,1.857,4.853,3.548,7.047,5.543
		c8.018,7.289,17.301,10.673,28.202,10.387c12.324-0.324,24.663-0.201,36.992-0.04c11.975,0.154,21.977-3.633,30.139-12.764
		c10.195-11.404,21.13-22.151,31.29-33.588c8.515-9.583,14.352-20.533,15.938-33.7c1.441-11.974,4.019-23.808,6.186-36.224
		c1.324,1.108,2.053,1.427,2.272,1.957c0.627,1.513,1.013,3.122,1.554,4.673c7.582,21.703,14.854,43.882,29.049,62.107
		c11.998,15.406,26.647,28.772,40.444,42.723c2.411,2.438,6.295,3.636,9.7,4.836c17.687,6.238,35.675,10.22,54.714,9.283
		c9.444-0.465,18.403-0.878,26.885-5.817c5.642-3.287,12.032-5.285,17.379-7.56c9.998,6.746,18.91,13.904,28.813,19.212
		c22.852,12.245,46.088,23.791,69.355,35.235c15.648,7.696,31.884,13.353,49.875,11.677c6.278-0.585,12.695-0.536,18.98,0.011
		c9.203,0.802,17.021-1.992,24.177-7.453c3.437-2.622,7.317-4.76,10.396-7.737c6.933-6.705,15.171-10.767,24.397-12.812
		c16.189-3.587,29.42-12.024,40.564-24.017c16.745-18.016,33.021-36.494,50.312-53.968c9.522-9.622,15.777-20.3,18.607-33.392
		c3.821-17.674,10.803-34.073,19.936-49.72c9.904-16.969,18.528-34.552,22.878-53.989c2.461-11.005,5.714-21.845,8.928-32.666
		c8.024-27.002,11.513-54.475,10.874-82.696c-0.692-30.624-0.158-61.274-0.156-91.912c0-9.3-0.152-18.604,0.056-27.899
		c0.275-12.29,1.312-24.581,1.175-36.86c-0.281-25.251,1.627-50.546-1.603-75.532c11.846-8.888,21.816-18.809,27.692-32.423
		c6.277-14.546,10.716-29.913,19.477-43.383c1.754-2.696,2.467-6.182,3.195-9.409c2.706-11.982,6.357-23.899,7.535-36.046
		c1.761-18.167,1.756-36.506,2.456-54.775c0.487-12.703,0.286-25.309-5.53-37.098c-0.546-1.107-0.393-2.561-0.623-4.301
		c2.54-0.278,4.797-0.685,7.063-0.748c15.298-0.429,30.6-1.145,45.897-1.087c30.648,0.115,61.191-1.444,91.459-6.175
		c38.601-6.032,77.567-9.951,114.279-25.453c18.465-7.796,33.145-19.365,46.206-33.782c1.706-1.882,2.6-4.563,3.64-6.973
		c4.687-10.848,2.747-22.324,2.726-33.547c-0.008-4.41-1.436-9.108-3.308-13.172c-5.561-12.065-11.421-24.009-17.643-35.747
		c-4.021-7.586-8.563-14.945-13.42-22.03c-17.265-25.184-35.551-49.702-51.958-75.425c-17.399-27.28-28.523-57.731-40.094-87.823
		c-2.364-6.149-4.53-12.665-5.095-19.159c-1.148-13.222-1.337-26.539-1.57-39.822c-0.392-22.312,0.143-44.658-0.906-66.934
		c-1.311-27.851-3.816-55.646-5.836-83.463c-0.424-5.845-0.978-11.68-1.331-15.858c6.483-3.197,11.607-5.197,16.18-8.075
		c14.984-9.431,30.243-17.149,48.298-20.06c24.226-3.905,46.796-13.272,65.505-29.799c14.941-13.2,29.427-26.936,43.758-40.801
		c28.148-27.235,48.805-59.536,64.117-95.48c8.988-21.098,18.124-42.165,28.161-62.772c9.489-19.482,18.043-39.257,24.781-59.847
		c13.044-39.861,24.735-80.035,26.402-122.308c1.049-26.592,1.629-53.206,2.059-79.816c0.344-21.391-3.177-42.348-8.362-63.042
		c-4.675-18.663-10.443-37.133-8.975-56.789c0.331-4.434-1.024-8.482-4.291-11.83c-7.667-7.856-15.052-16-22.942-23.621
		c-1.914-1.848-5.319-2.911-8.079-2.992c-10.653-0.313-21.333-0.369-31.984,0.014c-15.183,0.546-25.499,9.403-31.725,22.126
		c-4.155,8.492-6.422,18.122-5.608,28.079c1.076,13.164-2.203,25.791-5.845,38.238c-8.524,29.139-21.606,56.458-34.141,83.982
		c-1.016,2.23-2.612,4.195-4.229,6.739c-18.79-39.104-48.146-67.558-82.382-92.775c0.938-2.81,1.715-6.022,3.047-8.985
		c6.537-14.54,13.045-29.099,19.886-43.497c27.176-57.191,49.811-116.03,66.59-177.169c10.032-36.556,19.643-73.163,25.337-110.659
		c6.188-40.76,8.394-81.918,9.56-123.041c1.547-54.577,1.661-109.197,2.138-163.801c0.11-12.616-0.944-25.237-1.217-37.861
		c-0.428-19.766-2.926-39.38-10.561-57.532c-10.776-25.618-15.371-52.903-23.381-79.246c-9.188-30.222-17.177-60.885-30.918-89.37
		c-17.761-36.817-36.353-73.27-55.744-109.254c-20.666-38.348-42.715-75.95-64.102-113.911
		c-11.167-19.821-24.283-37.988-40.882-53.827c-11.259-10.745-20.952-23.136-31.278-34.851
		c-9.447-10.717-18.369-21.934-28.297-32.18c-15.161-15.649-28.559-32.549-38.381-51.975c-9.116-18.029-20.503-34.097-35.204-48.042
		c-7.807-7.405-15.16-14.718-26.26-17.091c-2.696-0.576-5.578-3.542-7.007-6.157c-3.815-6.987-7.099-14.292-10.22-21.629
		c-14.192-33.348-28.3-66.73-42.291-100.162c-1.244-2.975-2.411-6.543-1.932-9.57c1.386-8.748-2.606-14.587-8.818-19.721
		c-1.79-1.479-3.4-3.203-4.946-4.945c-3.327-3.747-7.388-5.245-12.419-5.131c-9.661,0.221-19.335-0.126-28.993,0.12
		c-9.894,0.253-19.254,2.768-26.645,9.675c-15.061,14.077-30.518,27.808-41.759,45.439c-11.264,17.667-17.847,37.3-22.379,57.396
		c-6.993,31.012-15.468,61.86-13.732,94.293c0.674,12.592,3.286,23.282,13.339,31.854c7.987,6.811,12.343,16.057,15.095,26.375
		c7.238,27.131,18.129,52.637,33.845,76.175c11.62,17.404,22.287,35.508,32.306,53.886c3.843,7.051,6.829,15.816,6.493,23.641
		c-0.737,17.16-2.844,34.443-9.504,50.621c-13.815,33.559-29.216,66.371-46.978,98.042c-0.991,1.769-2.446,3.277-3.378,4.502
		c-2.395-18.354-4.216-36.469-7.215-54.387c-5-29.869-12.042-59.221-23.507-87.43c-15.217-37.44-34.643-72.604-55.899-106.874
		c-19.347-31.188-40.086-61.163-66.853-86.685c-9.089-8.668-17.521-18.389-24.556-28.78c-19.572-28.91-38.836-58.066-57.132-87.794
		c-20.316-33.012-33.772-69.294-47.358-105.432c-23.913-63.61-39.72-129.661-58.606-194.784
		c-7.026-24.231-11.677-49.165-22.482-72.246c-6.291-13.438-13.928-25.857-25.643-35.142c-3.707-2.939-8.552-5.669-13.097-6.086
		c-11.902-1.09-23.931-0.73-35.9-1.189c-7.496-0.287-13.427,2.537-18.787,7.596c-24.527,23.152-39.541,51.628-46.118,84.386
		c-6.207,30.921-11.84,61.982-16.71,93.142c-4.507,28.83-7.961,57.838-11.295,86.835c-1.554,13.51-1.323,27.216-2.613,40.766
		c-2.834,29.761-7.204,59.253-15.411,88.131c-6.532,22.988-11.92,46.301-18.281,69.341c-2.735,9.907-6.596,19.507-10.032,29.217
		c-6.76,19.104-12.918,38.456-20.568,57.199c-7.184,17.598-16.717,33.95-30.499,47.616c-19.847,19.68-39.226,39.833-58.787,59.801
		c-1.712,1.747-3.292,3.625-5.447,6.011c-1.535-3.641-2.762-6.35-3.831-9.12c-11.49-29.772-22.288-59.834-34.607-89.259
		c-12.963-30.964-26.978-61.508-41.285-91.881c-10.34-21.948-21.349-43.563-34.89-63.884c-9.556-14.342-17.974-29.553-25.683-44.985
		c-7.351-14.715-18.55-25.813-30.146-36.805c-9.889-0.413-19.788-0.663-29.662-1.306c-5.03-0.328-9.283,0.66-12.199,4.959
		c-5.486,8.086-13.2,10.355-22.476,9.158c-2.622-0.338-5.354-0.273-7.982,0.043c-1.873,0.226-3.997,0.751-5.427,1.88
		c-10.307,8.137-17.604,17.662-16.062,32.035c0.813,7.578,0.209,15.316,0.109,22.98c-0.038,2.983,0.094,6.131-0.777,8.915
		c-6.351,20.311-12.237,40.899-22.969,59.434c-19.669,33.972-39.893,67.623-59.853,101.426
		c-12.681,21.476-24.195,43.741-38.194,64.317c-26.373,38.762-53.326,77.191-81.585,114.59
		c-32.06,42.431-65.733,83.645-98.851,125.271c-47.768,60.04-89.054,124.302-125.251,191.875c-2.466,4.602-3.709,9.936-5.029,15.058
		c-2.315,8.992-4.089,18.123-6.384,27.121c-2.704,10.599-5.922,21.069-8.562,31.684c-7.264,29.216-10.822,58.833-9.153,88.986
		c0.225,4.067,0.031,8.156,0.031,13.378c-4.199-2.762-7.155-4.812-10.213-6.698c-28.851-17.805-58.8-33.911-84.742-56.179
		c-3.478-2.985-9.006-4.424-13.754-4.899c-7.92-0.791-15.997-0.554-23.964-0.058c-2.997,0.187-6.463,1.635-8.713,3.635
		c-18.032,16.037-17.959,16.12-17.924,40.752c0.001,1.333,0.084,2.672-0.012,3.999c-0.392,5.363,1.647,9.545,5.531,13.25
		c5.051,4.819,10.218,9.647,14.474,15.139c10.175,13.134,19.752,26.73,29.741,40.012c21.99,29.237,44.603,58.078,61.908,90.473
		c10.331,19.338,20.96,38.665,29.291,58.888c12.181,29.568,17.147,61.357,24.566,92.328c5.092,21.253,8.166,43.027,11.372,64.682
		c2.083,14.074,4.597,28.467,3.701,42.513c-1.602,25.101-5.218,50.105-8.76,75.041c-4.013,28.245-8.236,56.49-13.527,84.517
		c-6.407,33.94-12.959,67.845-14.183,102.43c-1.176,33.249-1.993,66.51,1.07,99.766c3.56,38.655,12.9,75.959,25.698,112.394
		c10.72,30.521,26.138,58.973,41.134,87.556c10.201,19.442,20.095,39.063,30.872,58.183c12.384,21.978,30.255,39.571,47.952,57.208
		c9.586,9.553,18.431,20.465,34.713,17.884c-5.962,20.983-11.449,40.823-17.247,60.572c-7.729,26.324-10.959,53.372-12.152,80.594
		c-1.078,24.61-1.052,49.295-0.673,73.934c0.192,12.558,1.65,25.178,3.585,37.606c2.246,14.426,5.052,28.826,8.745,42.943
		c2.468,9.431,0.685,16.011-7.721,20.949c-1.949,1.146-3.408,3.163-5.01,4.856c-17.37,18.365-34.729,36.742-52.078,55.126
		c-8.675,9.194-17.25,18.48-25.998,27.604c-13.117,13.681-26.128,27.474-39.587,40.813c-13.455,13.334-27.394,26.181-41.15,39.211
		c-2.992,2.833-5.024,5.811-5.06,10.322c-0.071,8.953-0.398,17.94-1.316,26.842c-0.95,9.203,3.109,15.7,9.141,21.998
		c19.732,20.601,43.419,36.163,66.375,52.64c20.171,14.477,43.368,23.054,65.849,33.035c18.574,8.247,37.224,16.099,57.177,20.515
		c13.288,2.94,26.759,5.501,39.634,9.779c38.57,12.817,77.978,19.441,118.636,18.52c1.563-0.036,3.139,0.523,4.89,0.838
		c0,2.386,0.059,4.353-0.009,6.315c-0.757,21.924-1.558,43.847-2.286,65.771c-0.154,4.662,0.443,9.398-0.174,13.985
		c-2.891,21.476-3.371,43.037-3.257,64.664C560.243,3228.024,561.758,3237.874,570.707,3244.516z"/>
	<path fill-rule="evenodd" clip-rule="evenodd" d="M570.707,3244.516c-8.949-6.642-10.464-16.491-10.52-27.217
		c-0.113-21.627,0.366-43.188,3.257-64.664c0.617-4.587,0.02-9.323,0.174-13.985c0.729-21.925,1.529-43.848,2.286-65.771
		c0.067-1.963,0.009-3.93,0.009-6.315c-1.751-0.314-3.327-0.874-4.89-0.838c-40.658,0.922-80.066-5.702-118.636-18.52
		c-12.875-4.278-26.346-6.839-39.634-9.779c-19.953-4.416-38.603-12.268-57.177-20.515c-22.48-9.981-45.678-18.559-65.849-33.035
		c-22.957-16.477-46.643-32.039-66.375-52.64c-6.032-6.298-10.091-12.795-9.141-21.998c0.918-8.901,1.245-17.889,1.316-26.842
		c0.036-4.512,2.068-7.489,5.06-10.322c13.757-13.03,27.695-25.877,41.15-39.211c13.459-13.339,26.471-27.132,39.587-40.813
		c8.747-9.124,17.323-18.41,25.998-27.604c17.349-18.384,34.708-36.761,52.078-55.126c1.603-1.693,3.061-3.711,5.01-4.856
		c8.405-4.938,10.189-11.519,7.721-20.949c-3.693-14.117-6.499-28.518-8.745-42.943c-1.935-12.429-3.393-25.049-3.585-37.606
		c-0.379-24.639-0.405-49.323,0.673-73.934c1.192-27.222,4.422-54.27,12.152-80.594c5.798-19.749,11.285-39.589,17.247-60.572
		c-16.283,2.581-25.127-8.331-34.713-17.884c-17.697-17.637-35.568-35.23-47.952-57.208c-10.776-19.12-20.67-38.74-30.872-58.183
		c-14.996-28.583-30.414-57.035-41.134-87.556c-12.798-36.435-22.138-73.738-25.698-112.394c-3.063-33.256-2.247-66.517-1.07-99.766
		c1.224-34.585,7.776-68.49,14.183-102.43c5.291-28.027,9.514-56.272,13.527-84.517c3.542-24.936,7.158-49.94,8.76-75.041
		c0.896-14.045-1.618-28.439-3.701-42.513c-3.206-21.655-6.28-43.429-11.372-64.682c-7.419-30.971-12.385-62.76-24.566-92.328
		c-8.331-20.223-18.96-39.55-29.291-58.888c-17.305-32.396-39.918-61.236-61.908-90.473c-9.989-13.282-19.566-26.877-29.741-40.012
		c-4.255-5.491-9.423-10.32-14.474-15.139c-3.884-3.705-5.923-7.887-5.531-13.25c0.097-1.326,0.014-2.666,0.012-3.999
		c-0.035-24.632-0.108-24.715,17.924-40.752c2.25-2,5.716-3.449,8.713-3.635c7.968-0.496,16.044-0.733,23.964,0.058
		c4.748,0.475,10.276,1.914,13.754,4.899c25.942,22.268,55.892,38.374,84.742,56.179c3.058,1.886,6.014,3.937,10.213,6.698
		c0-5.222,0.194-9.312-0.031-13.378c-1.669-30.153,1.889-59.77,9.153-88.986c2.639-10.615,5.858-21.084,8.562-31.684
		c2.295-8.998,4.068-18.128,6.384-27.121c1.319-5.122,2.563-10.456,5.029-15.058c36.198-67.574,77.483-131.836,125.251-191.875
		c33.118-41.625,66.792-82.84,98.851-125.271c28.259-37.398,55.213-75.828,81.585-114.59c14-20.577,25.514-42.841,38.194-64.317
		c19.96-33.803,40.184-67.454,59.853-101.426c10.732-18.535,16.618-39.123,22.969-59.434c0.871-2.784,0.739-5.932,0.777-8.915
		c0.1-7.664,0.704-15.402-0.109-22.98c-1.543-14.374,5.755-23.898,16.062-32.035c1.43-1.129,3.554-1.654,5.427-1.88
		c2.629-0.316,5.361-0.381,7.982-0.043c9.276,1.197,16.99-1.072,22.476-9.158c2.917-4.299,7.169-5.288,12.199-4.959
		c9.874,0.643,19.773,0.893,29.662,1.306c11.596,10.992,22.796,22.09,30.146,36.805c7.709,15.432,16.127,30.643,25.683,44.985
		c13.541,20.322,24.55,41.936,34.89,63.884c14.307,30.373,28.321,60.917,41.285,91.881c12.319,29.425,23.117,59.487,34.607,89.259
		c1.068,2.77,2.295,5.479,3.831,9.12c2.155-2.387,3.735-4.265,5.447-6.011c19.561-19.968,38.939-40.121,58.787-59.801
		c13.782-13.666,23.315-30.019,30.499-47.616c7.649-18.743,13.808-38.095,20.568-57.199c3.436-9.709,7.297-19.31,10.032-29.217
		c6.36-23.04,11.749-46.353,18.281-69.341c8.207-28.878,12.577-58.37,15.411-88.131c1.29-13.55,1.06-27.256,2.613-40.766
		c3.334-28.997,6.788-58.005,11.295-86.835c4.87-31.159,10.503-62.221,16.71-93.142c6.577-32.758,21.59-61.233,46.118-84.386
		c5.36-5.059,11.291-7.883,18.787-7.596c11.97,0.459,23.998,0.099,35.9,1.189c4.545,0.417,9.39,3.147,13.097,6.086
		c11.715,9.285,19.352,21.703,25.643,35.142c10.806,23.081,15.456,48.015,22.482,72.246
		c18.887,65.123,34.693,131.174,58.606,194.784c13.586,36.138,27.042,72.42,47.358,105.432
		c18.296,29.729,37.56,58.884,57.132,87.794c7.035,10.391,15.467,20.112,24.556,28.78c26.767,25.522,47.506,55.496,66.853,86.685
		c21.257,34.27,40.683,69.434,55.899,106.874c11.465,28.208,18.507,57.561,23.507,87.43c2.999,17.917,4.82,36.033,7.215,54.387
		c0.932-1.226,2.387-2.734,3.378-4.502c17.762-31.671,33.162-64.483,46.978-98.042c6.66-16.177,8.767-33.46,9.504-50.621
		c0.336-7.824-2.65-16.59-6.493-23.641c-10.019-18.377-20.686-36.481-32.306-53.886c-15.716-23.538-26.606-49.043-33.845-76.175
		c-2.752-10.318-7.107-19.564-15.095-26.375c-10.053-8.572-12.665-19.262-13.339-31.854c-1.735-32.433,6.739-63.281,13.732-94.293
		c4.532-20.096,11.115-39.729,22.379-57.396c11.241-17.631,26.698-31.362,41.759-45.439c7.391-6.907,16.751-9.422,26.645-9.675
		c9.658-0.246,19.332,0.101,28.993-0.12c5.031-0.114,9.092,1.384,12.419,5.131c1.546,1.742,3.156,3.466,4.946,4.945
		c6.212,5.134,10.204,10.973,8.818,19.721c-0.479,3.027,0.688,6.596,1.932,9.57c13.991,33.432,28.099,66.814,42.291,100.162
		c3.121,7.337,6.404,14.642,10.22,21.629c1.429,2.615,4.311,5.581,7.007,6.157c11.1,2.374,18.453,9.686,26.26,17.091
		c14.701,13.945,26.088,30.013,35.204,48.042c9.822,19.426,23.22,36.326,38.381,51.975c9.928,10.247,18.85,21.463,28.297,32.18
		c10.326,11.715,20.02,24.105,31.278,34.851c16.599,15.839,29.715,34.006,40.882,53.827c21.387,37.961,43.436,75.563,64.102,113.911
		c19.392,35.984,37.983,72.437,55.744,109.254c13.741,28.485,21.729,59.148,30.918,89.37c8.01,26.342,12.604,53.628,23.381,79.246
		c7.635,18.152,10.133,37.766,10.561,57.532c0.272,12.624,1.327,25.245,1.217,37.861c-0.477,54.604-0.591,109.224-2.138,163.801
		c-1.166,41.123-3.371,82.281-9.56,123.041c-5.694,37.497-15.305,74.103-25.337,110.659
		c-16.779,61.139-39.414,119.978-66.59,177.169c-6.841,14.398-13.349,28.957-19.886,43.497c-1.332,2.963-2.109,6.176-3.047,8.985
		c34.236,25.217,63.592,53.671,82.382,92.775c1.616-2.544,3.213-4.509,4.229-6.739c12.534-27.524,25.616-54.843,34.141-83.982
		c3.642-12.448,6.921-25.075,5.845-38.238c-0.813-9.957,1.453-19.586,5.608-28.079c6.226-12.723,16.542-21.58,31.725-22.126
		c10.651-0.383,21.331-0.327,31.984-0.014c2.76,0.081,6.165,1.144,8.079,2.992c7.891,7.621,15.275,15.765,22.942,23.621
		c3.267,3.347,4.622,7.396,4.291,11.83c-1.469,19.656,4.3,38.126,8.975,56.789c5.186,20.694,8.706,41.652,8.362,63.042
		c-0.43,26.61-1.01,53.224-2.059,79.816c-1.667,42.272-13.358,82.446-26.402,122.308c-6.738,20.59-15.292,40.364-24.781,59.847
		c-10.037,20.607-19.173,41.675-28.161,62.772c-15.313,35.944-35.969,68.245-64.117,95.48
		c-14.331,13.865-28.816,27.601-43.758,40.801c-18.709,16.526-41.279,25.894-65.505,29.799c-18.055,2.91-33.313,10.629-48.298,20.06
		c-4.572,2.878-9.696,4.878-16.18,8.075c0.354,4.179,0.907,10.014,1.331,15.858c2.02,27.816,4.525,55.612,5.836,83.463
		c1.049,22.275,0.515,44.622,0.906,66.934c0.233,13.283,0.422,26.601,1.57,39.822c0.564,6.494,2.73,13.01,5.095,19.159
		c11.57,30.092,22.694,60.543,40.094,87.823c16.407,25.723,34.693,50.241,51.958,75.425c4.856,7.085,9.399,14.444,13.42,22.03
		c6.222,11.738,12.082,23.682,17.643,35.747c1.872,4.063,3.3,8.762,3.308,13.172c0.021,11.223,1.961,22.699-2.726,33.547
		c-1.04,2.41-1.934,5.091-3.64,6.973c-13.062,14.417-27.741,25.986-46.206,33.782c-36.712,15.502-75.679,19.421-114.279,25.453
		c-30.268,4.73-60.811,6.29-91.459,6.175c-15.298-0.058-30.6,0.658-45.897,1.087c-2.267,0.063-4.523,0.47-7.063,0.748
		c0.23,1.74,0.077,3.193,0.623,4.301c5.816,11.789,6.018,24.395,5.53,37.098c-0.7,18.27-0.695,36.608-2.456,54.775
		c-1.178,12.146-4.829,24.063-7.535,36.046c-0.729,3.228-1.441,6.713-3.195,9.409c-8.761,13.47-13.199,28.837-19.477,43.383
		c-5.876,13.614-15.847,23.535-27.692,32.423c3.229,24.986,1.321,50.281,1.603,75.532c0.137,12.279-0.899,24.57-1.175,36.86
		c-0.208,9.296-0.056,18.6-0.056,27.899c-0.002,30.638-0.536,61.288,0.156,91.912c0.639,28.222-2.85,55.694-10.874,82.696
		c-3.214,10.821-6.467,21.661-8.928,32.666c-4.35,19.438-12.974,37.021-22.878,53.989c-9.133,15.646-16.114,32.046-19.936,49.72
		c-2.83,13.092-9.085,23.77-18.607,33.392c-17.291,17.474-33.566,35.952-50.312,53.968c-11.145,11.992-24.375,20.43-40.564,24.017
		c-9.227,2.045-17.465,6.106-24.397,12.812c-3.078,2.978-6.959,5.115-10.396,7.737c-7.155,5.461-14.974,8.255-24.177,7.453
		c-6.285-0.547-12.702-0.596-18.98-0.011c-17.991,1.676-34.227-3.98-49.875-11.677c-23.268-11.444-46.504-22.99-69.355-35.235
		c-9.903-5.308-18.815-12.466-28.813-19.212c-5.347,2.274-11.737,4.272-17.379,7.56c-8.481,4.939-17.44,5.353-26.885,5.817
		c-19.039,0.937-37.027-3.045-54.714-9.283c-3.405-1.2-7.289-2.397-9.7-4.836c-13.797-13.95-28.446-27.316-40.444-42.723
		c-14.194-18.226-21.467-40.404-29.049-62.107c-0.541-1.551-0.927-3.16-1.554-4.673c-0.22-0.53-0.948-0.849-2.272-1.957
		c-2.167,12.416-4.744,24.25-6.186,36.224c-1.586,13.167-7.423,24.117-15.938,33.7c-10.16,11.437-21.095,22.184-31.29,33.588
		c-8.162,9.131-18.164,12.918-30.139,12.764c-12.329-0.161-24.668-0.284-36.992,0.04c-10.901,0.286-20.184-3.098-28.202-10.387
		c-2.194-1.995-4.667-3.686-7.047-5.543c-7.823,4.507-15.385,9.264-23.295,13.346c-24.644,12.716-50.069,23.735-78.145,25.271
		c-36.054,1.972-71.918,1.603-105.157-16.134c-25.215-13.455-51.091-25.698-76.029-39.634
		c-10.585-5.915-20.453-13.857-29.021-22.491c-19.67-19.821-38.602-40.397-57.336-61.115
		c-15.303-16.922-26.377-36.616-35.637-57.437c-9.73-21.875-20.463-43.31-29.954-65.285c-13.874-32.127-22.618-65.963-31.61-99.675
		c-6.505-24.39-13.005-48.787-18.889-73.33c-1.99-8.303-2.629-17.044-2.913-25.617c-0.462-13.982-0.432-28.001-0.038-41.988
		C568.747,3273.72,569.841,3259.826,570.707,3244.516z M1276.924,3249.335c-0.991-6.934-2.027-13.086-2.725-19.276
		c-2.185-19.416-3.669-38.932-6.589-58.232c-1.467-9.701-6.479-17.704-17.535-20.557c-8.968-2.314-17.413-6.6-26.335-9.154
		c-10.193-2.92-20.562-5.519-31.028-7.125c-14.152-2.173-25.882,4.444-36.739,12.527c-25.545,19.022-40.435,45.301-50.236,74.895
		c-1.836,5.547-2.896,11.351-4.365,17.239c10.929,0,20.816-0.058,30.702,0.013c14.781,0.107,27.366,4.03,37.983,15.79
		c16.093,17.826,25.909,38.326,31.483,61.269c2.199,9.049,4.287,18.125,6.426,27.188c2.42-2.3,3.426-4.397,3.9-6.609
		c2.886-13.476,8.784-25.717,15.068-37.843c11.221-21.656,25.145-40.539,49.241-49.313
		C1276.451,3250.047,1276.625,3249.669,1276.924,3249.335z"/>
	<path fill-rule="evenodd" clip-rule="evenodd" fill="#FFFFFF" d="M1276.924,3249.335c-0.299,0.334-0.473,0.712-0.747,0.812
		c-24.097,8.773-38.021,27.656-49.241,49.313c-6.284,12.126-12.183,24.367-15.068,37.843c-0.475,2.212-1.48,4.31-3.9,6.609
		c-2.139-9.063-4.227-18.14-6.426-27.188c-5.574-22.942-15.391-43.442-31.483-61.269c-10.617-11.76-23.202-15.683-37.983-15.79
		c-9.886-0.07-19.773-0.013-30.702-0.013c1.469-5.889,2.528-11.692,4.365-17.239c9.801-29.594,24.69-55.872,50.236-74.895
		c10.856-8.083,22.586-14.7,36.739-12.527c10.467,1.606,20.835,4.205,31.028,7.125c8.922,2.555,17.367,6.84,26.335,9.154
		c11.056,2.853,16.068,10.855,17.535,20.557c2.92,19.301,4.404,38.816,6.589,58.232
		C1274.896,3236.249,1275.933,3242.401,1276.924,3249.335z"/>
</g>
</svg>
