<?xml version="1.0" encoding="utf-8"?>
<!-- Generator: Adobe Illustrator 16.0.2, SVG Export Plug-In . SVG Version: 6.00 Build 0)  -->
<!DOCTYPE svg PUBLIC "-//W3C//DTD SVG 1.1//EN" "http://www.w3.org/Graphics/SVG/1.1/DTD/svg11.dtd">
<svg version="1.1" id="Layer_1" xmlns="http://www.w3.org/2000/svg" xmlns:xlink="http://www.w3.org/1999/xlink" x="0px" y="0px"
	 width="2303.711px" height="3807.523px" viewBox="0 0 2303.711 3807.523" enable-background="new 0 0 2303.711 3807.523"
	 xml:space="preserve">
<g>
	<path fill-rule="evenodd" clip-rule="evenodd" fill="#FFFFFF" d="M2,2c768.569,0,1537.141,0,2305.711,0
		c0,1269.841,0,2539.681,0,3809.521c-768.569,0.001-1537.14,0.001-2305.71,0.001C2.001,2541.682,2.001,1271.841,2,2z
		 M1795.107,2985.429c17.946-0.599,35.201-1.671,52.456-1.64c30.992,0.055,61.874-1.543,92.479-6.25
		c39.604-6.09,79.604-10.285,117.018-26.687c17.69-7.756,31.345-19.808,43.844-33.771c1.456-1.628,1.991-4.127,2.799-6.281
		c4.114-10.976,2.132-22.417,2.176-33.65c0.017-4.413-1.431-9.119-3.29-13.199c-5.782-12.687-11.938-25.21-18.242-37.646
		c-2.849-5.618-6.027-11.145-9.686-16.263c-12.742-17.83-25.938-35.337-38.633-53.199c-24.653-34.689-41.441-73.354-56.106-113.006
		c-2.737-7.4-5-15.29-5.597-23.098c-1.063-13.918-0.62-27.946-0.929-41.927c-0.365-16.614-0.447-33.25-1.388-49.835
		c-1.674-29.507-4.01-58.976-5.822-88.476c-0.484-7.894-0.072-15.842-0.072-22.572c5.515-2.739,10.653-4.721,15.186-7.643
		c15.193-9.795,30.732-18.484,49.289-19.986c3.276-0.265,6.522-1.271,9.713-2.178c24.708-7.013,47.192-18.205,65.535-36.494
		c19.082-19.027,38.697-37.648,56.324-57.969c17.736-20.445,30.119-44.617,40.793-69.517c7.077-16.51,13.322-33.449,21.499-49.397
		c15.546-30.32,27.921-61.73,38.193-94.211c12.42-39.273,19.401-79.294,20.65-120.346c0.648-21.306,0.451-42.636,0.769-63.952
		c0.29-19.428-2.912-38.412-7.384-57.186c-4.614-19.375-10.966-38.402-9.415-58.793c0.388-5.086-1.67-9.662-5.408-13.444
		c-7.249-7.337-14.089-15.102-21.647-22.097c-2.391-2.213-6.483-3.401-9.87-3.564c-9.644-0.465-19.356-0.65-28.977,0.009
		c-6.797,0.465-13.979,0.952-19.642,5.733c-8.806,7.435-16.024,15.913-17.561,27.934c-0.711,5.562-1.533,11.115-2.057,16.694
		c-0.65,6.931-0.36,14.018-1.668,20.807c-5.45,28.314-16.797,54.593-28.743,80.627c-4.159,9.062-8.339,18.114-13.146,28.552
		c-9.557-20.543-21.058-37.575-35.627-52.388c-14.646-14.891-28.863-30.308-47.484-40.857c0.769-2.364,1.134-3.959,1.787-5.428
		c7.024-15.782,13.78-31.695,21.212-47.284c21.646-45.407,40.743-91.816,55.569-139.91c14.097-45.724,27.347-91.691,35.081-139.01
		c7.193-44.004,9.826-88.433,10.876-132.936c0.903-38.272,1.102-76.564,1.387-114.849c0.205-27.637,0.234-55.279-0.019-82.916
		c-0.198-21.755-3.12-43.342-11.661-63.35c-10.263-24.043-14.235-49.758-21.869-74.482c-9.515-30.816-17.362-62.236-31.432-91.325
		c-18.076-37.375-37.007-74.371-56.688-110.927c-20.181-37.485-41.835-74.175-62.604-111.348
		c-11.439-20.477-24.905-39.183-41.989-55.489c-11.019-10.516-20.489-22.659-30.595-34.125
		c-9.666-10.969-18.834-22.41-28.976-32.914c-14.901-15.433-28.165-32.048-37.717-51.224c-9.639-19.352-22.317-36.086-37.972-50.924
		c-6.665-6.316-13.2-12.003-22.421-13.941c-3.63-0.764-6.705-2.364-8.367-6.285c-2.854-6.733-6.418-13.164-9.285-19.89
		c-14.59-34.248-29.123-68.521-43.452-102.878c-1.485-3.561-2.32-7.807-2.005-11.614c0.555-6.709-1.878-11.505-6.852-15.561
		c-2.057-1.676-3.962-3.6-5.654-5.646c-3.963-4.79-8.966-6.319-15.063-6.075c-8.319,0.335-16.662,0.15-24.994,0.068
		c-12.97-0.128-24.1,4.213-33.293,13.415c-6.125,6.13-12.228,12.281-18.389,18.375c-14.914,14.753-26.237,31.797-32.34,51.959
		c-4.799,15.856-9.67,31.735-13.398,47.86c-5.922,25.614-10.667,51.407-9.012,78.021c0.672,10.799,2.832,20.109,11.45,27.492
		c9.097,7.793,14.051,18.052,17.163,29.694c6.994,26.172,17.605,50.758,32.708,73.503c11.759,17.71,22.371,36.204,32.993,54.638
		c4.49,7.794,7.347,16.443,6.478,25.755c-1.672,17.892-3.813,35.73-10.98,52.442c-5.504,12.835-11.106,25.646-17.223,38.196
		c-9.323,19.131-19.094,38.046-28.789,56.995c-0.909,1.776-2.637,3.133-5.436,6.356c2.27-24.131-2.332-45.332-6.319-66.524
		c-5.042-26.789-11.692-53.154-22.063-78.522c-15.287-37.398-34.763-72.531-55.98-106.805
		c-19.14-30.919-39.979-60.356-66.213-85.927c-14.724-14.352-27.696-30.527-38.87-47.963c-9.694-15.126-19.309-30.306-29.142-45.341
		c-16.995-25.986-31.311-53.413-43.082-82.081c-17.424-42.436-33.201-85.474-45.366-129.784
		c-10.646-38.772-21.837-77.395-32.683-116.112c-6.445-23.015-11.273-46.489-21.585-68.334
		c-6.346-13.444-13.997-25.79-25.673-35.079c-3.686-2.933-8.602-5.472-13.175-5.914c-11.234-1.083-22.606-0.64-33.905-1.199
		c-8.573-0.425-15.277,2.627-21.43,8.525c-23.331,22.37-37.999,49.601-44.531,80.946c-6.166,29.579-11.308,59.383-16.351,89.181
		c-7.536,44.528-13.101,89.293-15.239,134.457c-0.501,10.586-2.244,21.114-3.443,31.665c-3.165,27.833-11.56,54.545-17.727,81.728
		c-3.233,14.253-7.487,28.292-11.697,42.301c-2.867,9.538-6.402,18.878-9.733,28.273c-7.215,20.353-13.774,40.979-21.96,60.935
		c-7.079,17.259-16.661,33.214-30.244,46.608c-19.666,19.39-38.774,39.344-58.102,59.075c-1.776,1.813-3.417,3.759-5.744,6.331
		c-1.426-3.241-2.574-5.547-3.477-7.946c-8.548-22.716-16.321-45.757-25.742-68.105c-14.984-35.546-30.659-70.817-46.825-105.843
		c-9.469-20.517-19.068-41.213-31.131-60.229c-13.202-20.811-24.597-42.638-37.65-63.381
		c-16.002-25.425-20.555-34.708-51.234-31.637c-0.66,0.066-1.342,0.08-1.998-0.003c-6.398-0.807-11.771,0.802-15.695,6.282
		c-4.698,6.561-11.066,9.1-19.065,7.746c-9.704-1.644-16.678,2.374-23.498,9.333c-5.454,5.568-7.563,11.285-7.512,18.523
		c0.059,8.332,0.373,16.687-0.11,24.99c-0.381,6.562-0.924,13.345-2.916,19.541c-7.334,22.802-15.53,45.273-28.008,65.95
		c-19.94,33.043-39.621,66.243-59.45,99.354c-13.833,23.102-26.352,47.142-41.871,69.053
		c-37.655,53.169-75.584,106.118-116.916,156.655c-44.62,54.557-88.741,109.682-126.032,169.76
		c-12.103,19.499-24.698,38.757-35.585,58.926c-10.953,20.292-23.292,39.981-26.205,64.045c-1.856,15.335-7.858,30.141-11.611,45.28
		c-6.674,26.924-10.06,54.234-8.555,82.03c0.263,4.864,0.621,9.723,0.986,15.359c-2.114-1.053-3.614-1.663-4.974-2.5
		c-10.479-6.447-21.016-12.808-31.373-19.449c-15.115-9.692-31.138-18.333-44.899-29.694
		c-23.189-19.141-20.647-15.639-49.965-16.145c-0.666-0.012-1.406-0.184-1.987,0.041c-2.968,1.145-6.479,1.732-8.743,3.719
		c-17.788,15.623-17.713,15.707-17.703,39.871c0,1.666,0.148,3.348-0.025,4.996c-0.609,5.816,1.731,10.137,5.999,14.008
		c14.401,13.066,25.985,28.47,36.494,44.744c2.162,3.346,4.619,6.507,7.018,9.694c21.803,28.958,43.755,57.781,61.554,89.527
		c14.67,26.167,29.123,52.409,36.967,81.582c5.948,22.118,11.653,44.33,16.487,66.712c4.479,20.739,8.298,41.671,11.223,62.684
		c2.647,19.026,6.123,38.201,4.041,57.498c-2.774,25.71-6.129,51.373-9.892,76.959c-4.007,27.25-7.751,54.605-13.48,81.516
		c-7.283,34.213-11.715,68.793-13.3,103.528c-1.543,33.817-1.956,67.851,2.858,101.62c5.934,41.619,15.067,82.534,32.572,120.836
		c15.615,34.166,33.337,67.376,50.396,100.871c9.507,18.667,19.127,37.354,33.556,52.903c10.188,10.979,20.543,21.809,30.98,32.554
		c8.414,8.663,16.922,17.371,31.886,14.621c-3.009,10.461-5.348,19.738-8.34,28.798c-16.858,51.048-23.51,103.521-22.376,157.12
		c0.12,5.663-0.273,11.349,0.072,16.994c0.932,15.226,1.363,30.541,3.44,45.622c2.215,16.078,5.788,31.995,9.36,47.849
		c1.862,8.26,1.473,14.957-6.607,19.673c-2.239,1.307-3.992,3.513-5.822,5.443c-17.615,18.594-35.21,37.207-52.787,55.837
		c-8.674,9.193-17.158,18.57-25.971,27.627c-20.657,21.227-41.377,42.393-62.256,63.4c-5.834,5.87-12.31,11.102-18.492,16.625
		c-3.397,3.035-5.127,6.594-5.043,11.385c0.146,8.315,0.156,16.688-0.652,24.95c-0.932,9.522,2.94,16.336,9.328,22.933
		c19.606,20.249,42.982,35.646,65.676,51.915c19.623,14.065,42.146,22.459,63.965,32.308c21.621,9.759,43.49,18.334,66.812,23.067
		c10.41,2.114,20.893,4.339,30.93,7.733c38.805,13.124,78.531,19.881,119.532,18.927c1.827-0.042,3.671,0.68,4.439,0.833
		c-0.658,28.641-1.294,56.519-1.951,84.397c-0.039,1.657-0.319,3.309-0.377,4.967c-0.769,21.929-1.56,43.857-2.245,65.79
		c-0.214,6.813,0.492,13.797,6.002,18.374c4.738,3.936,4.583,8.479,3.928,13.454c-3.797,28.861-1.254,57.857-1.86,86.784
		c-0.068,3.268,0.648,6.626,1.457,9.826c6.842,27.049,13.6,54.12,20.755,81.087c8.61,32.451,17.156,64.977,30.418,95.92
		c8.508,19.852,18.69,38.99,27.083,58.887c11.236,26.633,25.585,51.175,45.251,72.396c17.188,18.543,34.39,37.102,52.322,54.914
		c7.934,7.882,17.311,14.493,26.677,20.711c23.921,15.881,50.193,27.418,76.087,39.551c18.082,8.474,36.635,16.017,57.05,16.678
		c10.981,0.355,21.995-0.076,32.961,0.485c29.144,1.49,55.77-7.646,81.643-19.387c12.339-5.598,23.966-12.77,36.372-19.476
		c2.564,2.129,5.599,4.695,8.681,7.203c6.102,4.964,13.172,8.099,20.93,8.324c14.652,0.427,29.326,0.137,43.99,0.11
		c10.852-0.021,20.027-3.64,27.498-11.866c10.735-11.82,22.019-23.144,32.723-34.991c6.751-7.473,11.904-16.145,14.099-26.072
		c1.786-8.074,2.558-16.367,3.983-24.527c1.049-6.009,2.43-11.959,3.663-17.938c2.691,3.218,3.579,6.355,4.745,9.387
		c7.988,20.776,14.94,42.256,28.839,59.943c9.825,12.504,21.943,23.183,32.666,35.013c6.073,6.7,13.278,10.899,21.938,12.975
		c2.906,0.697,5.8,1.516,8.614,2.52c17.411,6.205,35.476,4.794,53.413,4.476c2.836-0.049,5.727-1.579,8.448-2.758
		c7.882-3.414,15.69-6.996,23.105-10.324c9.774,6.664,18.623,13.898,28.509,19.198c23.429,12.558,47.218,24.468,71.118,36.111
		c15.051,7.332,30.773,12.563,48.045,10.956c5.947-0.554,12.039-0.582,17.979,0.02c10.672,1.082,19.591-2.475,27.736-8.891
		c2.876-2.265,6.095-4.155,8.701-6.687c6.668-6.479,14.668-10.447,23.561-12.349c16.602-3.55,29.999-12.277,41.37-24.487
		c16.989-18.241,33.604-36.846,50.981-54.708c8.674-8.914,14.448-18.794,17.129-30.878c4.055-18.282,10.928-35.437,20.605-51.599
		c5.784-9.66,11.347-19.771,14.889-30.387c6.826-20.459,11.98-41.472,18.143-62.16c6.698-22.489,9.972-45.415,9.522-68.85
		c-0.229-11.958-1.2-23.908-1.195-35.861c0.005-12.287,1.021-24.571,1.177-36.861c0.219-17.218-0.241-34.447,0.108-51.66
		c0.783-38.57,1.341-77.133-0.392-115.887c18.357-11.818,28.476-29.682,34.568-50.336c0.838-2.84,1.312-6.071,3.014-8.32
		c9.111-12.037,13.052-25.964,15.91-40.44c7.648-38.732,12.275-77.443,0.412-116.234
		C1794.916,2986.79,1795.039,2986.427,1795.107,2985.429z"/>
	<path fill-rule="evenodd" clip-rule="evenodd" d="M1795.107,2985.429c-0.068,0.998-0.191,1.361-0.101,1.658
		c11.863,38.791,7.236,77.502-0.412,116.234c-2.858,14.477-6.799,28.403-15.91,40.44c-1.702,2.249-2.176,5.48-3.014,8.32
		c-6.093,20.654-16.211,38.518-34.568,50.336c1.732,38.754,1.175,77.316,0.392,115.887c-0.35,17.213,0.11,34.442-0.108,51.66
		c-0.155,12.29-1.172,24.574-1.177,36.861c-0.005,11.953,0.966,23.903,1.195,35.861c0.449,23.435-2.824,46.36-9.522,68.85
		c-6.162,20.688-11.316,41.701-18.143,62.16c-3.542,10.615-9.104,20.727-14.889,30.387c-9.678,16.162-16.551,33.316-20.605,51.599
		c-2.681,12.084-8.455,21.964-17.129,30.878c-17.378,17.862-33.992,36.467-50.981,54.708c-11.371,12.21-24.769,20.938-41.37,24.487
		c-8.893,1.901-16.893,5.869-23.561,12.349c-2.606,2.531-5.825,4.422-8.701,6.687c-8.146,6.416-17.064,9.973-27.736,8.891
		c-5.939-0.602-12.031-0.573-17.979-0.02c-17.271,1.607-32.994-3.624-48.045-10.956c-23.9-11.644-47.689-23.554-71.118-36.111
		c-9.886-5.3-18.734-12.534-28.509-19.198c-7.415,3.328-15.224,6.91-23.105,10.324c-2.722,1.179-5.612,2.709-8.448,2.758
		c-17.938,0.318-36.002,1.729-53.413-4.476c-2.814-1.004-5.708-1.822-8.614-2.52c-8.66-2.075-15.865-6.274-21.938-12.975
		c-10.723-11.83-22.841-22.509-32.666-35.013c-13.898-17.688-20.851-39.167-28.839-59.943c-1.166-3.031-2.054-6.169-4.745-9.387
		c-1.233,5.979-2.614,11.929-3.663,17.938c-1.426,8.16-2.197,16.453-3.983,24.527c-2.195,9.928-7.348,18.6-14.099,26.072
		c-10.704,11.848-21.988,23.171-32.723,34.991c-7.471,8.227-16.646,11.846-27.498,11.866c-14.664,0.026-29.338,0.316-43.99-0.11
		c-7.758-0.226-14.829-3.36-20.93-8.324c-3.082-2.508-6.117-5.074-8.681-7.203c-12.406,6.706-24.032,13.878-36.372,19.476
		c-25.874,11.74-52.499,20.877-81.643,19.387c-10.966-0.562-21.98-0.13-32.961-0.485c-20.415-0.661-38.968-8.204-57.05-16.678
		c-25.894-12.133-52.166-23.67-76.087-39.551c-9.366-6.218-18.744-12.829-26.677-20.711c-17.932-17.813-35.134-36.371-52.322-54.914
		c-19.666-21.221-34.015-45.763-45.251-72.396c-8.393-19.896-18.575-39.035-27.083-58.887
		c-13.262-30.943-21.808-63.469-30.418-95.92c-7.156-26.967-13.914-54.038-20.755-81.087c-0.809-3.2-1.525-6.559-1.457-9.826
		c0.606-28.927-1.937-57.923,1.86-86.784c0.654-4.976,0.81-9.519-3.928-13.454c-5.51-4.577-6.216-11.561-6.002-18.374
		c0.686-21.933,1.477-43.861,2.245-65.79c0.058-1.658,0.338-3.31,0.377-4.967c0.657-27.879,1.292-55.757,1.951-84.397
		c-0.768-0.153-2.612-0.875-4.439-0.833c-41,0.954-80.727-5.803-119.532-18.927c-10.037-3.395-20.52-5.619-30.93-7.733
		c-23.321-4.733-45.19-13.309-66.812-23.067c-21.82-9.849-44.342-18.242-63.965-32.308c-22.694-16.269-46.07-31.666-65.676-51.915
		c-6.387-6.597-10.26-13.41-9.328-22.933c0.808-8.263,0.798-16.635,0.652-24.95c-0.084-4.791,1.646-8.35,5.043-11.385
		c6.183-5.523,12.658-10.755,18.492-16.625c20.878-21.008,41.599-42.174,62.256-63.4c8.813-9.057,17.297-18.434,25.971-27.627
		c17.577-18.63,35.172-37.243,52.787-55.837c1.83-1.931,3.583-4.137,5.822-5.443c8.08-4.716,8.47-11.413,6.607-19.673
		c-3.572-15.854-7.145-31.771-9.36-47.849c-2.077-15.081-2.509-30.396-3.44-45.622c-0.346-5.646,0.048-11.331-0.072-16.994
		c-1.133-53.6,5.518-106.072,22.376-157.12c2.993-9.06,5.331-18.337,8.34-28.798c-14.964,2.75-23.473-5.958-31.886-14.621
		c-10.437-10.745-20.792-21.574-30.98-32.554c-14.428-15.55-24.048-34.236-33.556-52.903
		c-17.06-33.495-34.781-66.705-50.396-100.871c-17.505-38.302-26.639-79.217-32.572-120.836c-4.813-33.77-4.401-67.803-2.858-101.62
		c1.585-34.735,6.017-69.315,13.3-103.528c5.729-26.911,9.473-54.267,13.48-81.516c3.763-25.586,7.118-51.249,9.892-76.959
		c2.082-19.296-1.394-38.472-4.041-57.498c-2.924-21.012-6.743-41.944-11.223-62.684c-4.834-22.382-10.54-44.594-16.487-66.712
		c-7.844-29.172-22.297-55.415-36.967-81.582c-17.798-31.746-39.751-60.569-61.554-89.527c-2.399-3.187-4.856-6.348-7.018-9.694
		c-10.509-16.273-22.093-31.678-36.494-44.744c-4.267-3.871-6.607-8.192-5.999-14.008c0.173-1.648,0.025-3.331,0.025-4.996
		c-0.01-24.164-0.085-24.248,17.703-39.871c2.263-1.987,5.775-2.574,8.743-3.719c0.581-0.225,1.321-0.053,1.987-0.041
		c29.318,0.506,26.776-2.996,49.965,16.145c13.761,11.36,29.784,20.001,44.899,29.694c10.357,6.641,20.894,13.001,31.373,19.449
		c1.36,0.837,2.859,1.446,4.974,2.5c-0.365-5.637-0.723-10.496-0.986-15.359c-1.505-27.795,1.881-55.105,8.555-82.03
		c3.753-15.14,9.755-29.945,11.611-45.28c2.913-24.063,15.252-43.753,26.205-64.045c10.887-20.169,23.482-39.428,35.585-58.926
		c37.291-60.078,81.413-115.203,126.032-169.76c41.332-50.538,79.261-103.486,116.916-156.655
		c15.519-21.911,28.038-45.951,41.871-69.053c19.829-33.111,39.51-66.311,59.45-99.354c12.478-20.677,20.674-43.148,28.008-65.95
		c1.992-6.195,2.535-12.979,2.916-19.541c0.483-8.304,0.169-16.658,0.11-24.99c-0.051-7.238,2.058-12.955,7.512-18.523
		c6.82-6.96,13.794-10.977,23.498-9.333c7.999,1.354,14.367-1.186,19.065-7.746c3.924-5.48,9.297-7.089,15.695-6.282
		c0.656,0.083,1.338,0.069,1.998,0.003c30.679-3.072,35.232,6.211,51.234,31.637c13.054,20.743,24.449,42.57,37.65,63.381
		c12.063,19.016,21.662,39.712,31.131,60.229c16.166,35.025,31.841,70.297,46.825,105.843c9.42,22.348,17.194,45.389,25.742,68.105
		c0.903,2.399,2.051,4.706,3.477,7.946c2.326-2.572,3.967-4.517,5.744-6.331c19.328-19.731,38.437-39.685,58.102-59.075
		c13.583-13.394,23.165-29.349,30.244-46.608c8.187-19.957,14.745-40.582,21.96-60.935c3.331-9.395,6.866-18.735,9.733-28.273
		c4.209-14.01,8.464-28.048,11.697-42.301c6.167-27.183,14.562-53.895,17.727-81.728c1.199-10.551,2.942-21.079,3.443-31.665
		c2.138-45.163,7.703-89.929,15.239-134.457c5.043-29.798,10.185-59.602,16.351-89.181c6.532-31.346,21.2-58.576,44.531-80.946
		c6.153-5.898,12.857-8.95,21.43-8.525c11.299,0.56,22.671,0.116,33.905,1.199c4.573,0.441,9.489,2.98,13.175,5.914
		c11.676,9.289,19.327,21.634,25.673,35.079c10.312,21.845,15.14,45.319,21.585,68.334c10.846,38.718,22.037,77.34,32.683,116.112
		c12.165,44.31,27.942,87.348,45.366,129.784c11.771,28.667,26.087,56.095,43.082,82.081c9.833,15.035,19.447,30.215,29.142,45.341
		c11.174,17.436,24.146,33.611,38.87,47.963c26.233,25.57,47.073,55.008,66.213,85.927c21.218,34.274,40.693,69.407,55.98,106.805
		c10.37,25.369,17.021,51.734,22.063,78.522c3.987,21.192,8.589,42.393,6.319,66.524c2.799-3.223,4.526-4.58,5.436-6.356
		c9.695-18.949,19.466-37.863,28.789-56.995c6.116-12.55,11.719-25.361,17.223-38.196c7.167-16.712,9.309-34.55,10.98-52.442
		c0.869-9.312-1.987-17.961-6.478-25.755c-10.622-18.434-21.234-36.927-32.993-54.638c-15.103-22.745-25.714-47.331-32.708-73.503
		c-3.112-11.642-8.066-21.901-17.163-29.694c-8.618-7.383-10.778-16.692-11.45-27.492c-1.655-26.614,3.09-52.406,9.012-78.021
		c3.729-16.125,8.6-32.003,13.398-47.86c6.103-20.163,17.426-37.207,32.34-51.959c6.161-6.094,12.264-12.246,18.389-18.375
		c9.193-9.201,20.323-13.542,33.293-13.415c8.332,0.082,16.675,0.267,24.994-0.068c6.098-0.244,11.101,1.285,15.063,6.075
		c1.692,2.045,3.598,3.97,5.654,5.646c4.974,4.055,7.406,8.852,6.852,15.561c-0.315,3.807,0.52,8.053,2.005,11.614
		c14.329,34.357,28.862,68.63,43.452,102.878c2.867,6.727,6.431,13.157,9.285,19.89c1.662,3.921,4.737,5.521,8.367,6.285
		c9.221,1.938,15.756,7.625,22.421,13.941c15.654,14.838,28.333,31.572,37.972,50.924c9.552,19.176,22.815,35.792,37.717,51.224
		c10.142,10.504,19.31,21.945,28.976,32.914c10.105,11.466,19.576,23.609,30.595,34.125c17.084,16.307,30.55,35.012,41.989,55.489
		c20.769,37.173,42.423,73.863,62.604,111.348c19.682,36.556,38.612,73.552,56.688,110.927
		c14.069,29.089,21.917,60.509,31.432,91.325c7.634,24.724,11.606,50.438,21.869,74.482c8.541,20.007,11.463,41.595,11.661,63.35
		c0.253,27.636,0.224,55.278,0.019,82.916c-0.285,38.284-0.483,76.576-1.387,114.849c-1.05,44.502-3.683,88.932-10.876,132.936
		c-7.734,47.319-20.984,93.286-35.081,139.01c-14.826,48.094-33.923,94.503-55.569,139.91
		c-7.432,15.589-14.188,31.502-21.212,47.284c-0.653,1.468-1.019,3.064-1.787,5.428c18.621,10.55,32.838,25.967,47.484,40.857
		c14.569,14.813,26.07,31.845,35.627,52.388c4.807-10.438,8.986-19.49,13.146-28.552c11.946-26.034,23.293-52.313,28.743-80.627
		c1.308-6.789,1.018-13.876,1.668-20.807c0.523-5.58,1.346-11.132,2.057-16.694c1.536-12.021,8.755-20.5,17.561-27.934
		c5.663-4.782,12.845-5.269,19.642-5.733c9.62-0.659,19.333-0.474,28.977-0.009c3.387,0.163,7.479,1.351,9.87,3.564
		c7.559,6.995,14.398,14.76,21.647,22.097c3.738,3.782,5.796,8.357,5.408,13.444c-1.551,20.391,4.801,39.418,9.415,58.793
		c4.472,18.773,7.674,37.757,7.384,57.186c-0.317,21.316-0.12,42.646-0.769,63.952c-1.249,41.052-8.23,81.072-20.65,120.346
		c-10.272,32.48-22.647,63.891-38.193,94.211c-8.177,15.948-14.422,32.888-21.499,49.397
		c-10.674,24.899-23.057,49.071-40.793,69.517c-17.627,20.32-37.242,38.941-56.324,57.969
		c-18.343,18.289-40.827,29.481-65.535,36.494c-3.19,0.906-6.437,1.913-9.713,2.178c-18.557,1.502-34.096,10.191-49.289,19.986
		c-4.532,2.922-9.671,4.903-15.186,7.643c0,6.73-0.412,14.679,0.072,22.572c1.813,29.5,4.148,58.969,5.822,88.476
		c0.94,16.585,1.022,33.221,1.388,49.835c0.309,13.98-0.134,28.009,0.929,41.927c0.597,7.808,2.859,15.697,5.597,23.098
		c14.665,39.651,31.453,78.316,56.106,113.006c12.695,17.862,25.891,35.369,38.633,53.199c3.658,5.118,6.837,10.645,9.686,16.263
		c6.305,12.437,12.46,24.96,18.242,37.646c1.859,4.08,3.307,8.786,3.29,13.199c-0.044,11.233,1.938,22.675-2.176,33.65
		c-0.808,2.154-1.343,4.653-2.799,6.281c-12.499,13.964-26.153,26.016-43.844,33.771c-37.413,16.401-77.413,20.597-117.018,26.687
		c-30.604,4.707-61.486,6.305-92.479,6.25C1830.309,2983.758,1813.054,2984.83,1795.107,2985.429z M1225.907,3213.305
		c-0.805-5.917-1.729-11.748-2.371-17.611c-2.123-19.421-3.866-38.89-6.402-58.255c-0.616-4.71-3.741-9.081-5.655-13.631
		c-1.688-4.009-4.794-6.044-8.883-7.241c-18.121-5.309-35.339-13.379-54.172-16.633c-12.408-2.145-23.538-0.647-34.472,5.623
		c-26.115,14.979-41.456,38.835-53.518,65.102c-4.763,10.371-7.209,21.806-10.789,32.998c11.323,0,21.222-0.187,31.111,0.045
		c13.847,0.325,26.242,2.915,36.694,14.109c16.641,17.819,27.058,38.35,32.719,61.695c2.283,9.413,4.557,18.83,6.835,28.246
		c0.718-0.004,1.436-0.008,2.152-0.012c3.917-19.092,11.886-36.467,21.716-53.009c10.316-17.359,22.494-32.805,42.711-39.539
		C1224.442,3214.906,1225.09,3213.988,1225.907,3213.305z"/>
	<path fill-rule="evenodd" clip-rule="evenodd" fill="#FFFFFF" d="M1225.907,3213.305c-0.817,0.684-1.465,1.602-2.322,1.888
		c-20.217,6.734-32.395,22.18-42.711,39.539c-9.83,16.542-17.799,33.917-21.716,53.009c-0.717,0.004-1.435,0.008-2.152,0.012
		c-2.278-9.416-4.553-18.833-6.835-28.246c-5.661-23.346-16.078-43.876-32.719-61.695c-10.452-11.194-22.847-13.784-36.694-14.109
		c-9.89-0.231-19.789-0.045-31.111-0.045c3.58-11.192,6.025-22.627,10.789-32.998c12.062-26.267,27.403-50.123,53.518-65.102
		c10.934-6.271,22.064-7.768,34.472-5.623c18.833,3.254,36.051,11.324,54.172,16.633c4.089,1.197,7.195,3.232,8.883,7.241
		c1.914,4.55,5.039,8.921,5.655,13.631c2.536,19.365,4.279,38.834,6.402,58.255
		C1224.178,3201.557,1225.103,3207.388,1225.907,3213.305z"/>
</g>
</svg>
