<?xml version="1.0" encoding="utf-8"?>
<!-- Generator: Adobe Illustrator 16.0.2, SVG Export Plug-In . SVG Version: 6.00 Build 0)  -->
<!DOCTYPE svg PUBLIC "-//W3C//DTD SVG 1.1//EN" "http://www.w3.org/Graphics/SVG/1.1/DTD/svg11.dtd">
<svg version="1.1" id="Layer_1" xmlns="http://www.w3.org/2000/svg" xmlns:xlink="http://www.w3.org/1999/xlink" x="0px" y="0px"
	 width="4960.38px" height="3505.562px" viewBox="0 0 4960.38 3505.562" enable-background="new 0 0 4960.38 3505.562"
	 xml:space="preserve">
<g>
	<path fill-rule="evenodd" clip-rule="evenodd" fill="#FFFFFF" d="M2387.701,3511.561c-794.566,0-1589.134,0-2383.701,0
		C4,2342.374,4,1173.188,4,4C1658.458,4,3312.918,4,4967.377,4c0.001,1169.186,0.001,2338.372,0.002,3507.559
		c-847.895,0.002-1695.788,0.002-2543.682,0.002c0.896-6.479,2.217-12.935,2.578-19.443c0.417-7.533-3.619-13.502-9.552-15.653
		c-6.129-2.222-13.339-0.271-18.017,4.362C2390.092,3489.359,2389.373,3500.605,2387.701,3511.561z M3235.304,2999.112
		c-0.063-0.791-0.128-1.581-0.191-2.372c5.552-1.808,12.193-2.264,16.44-5.69c10.279-8.294,20.137-17.357,28.896-27.235
		c13.248-14.939,26.99-29.286,42.023-42.41c5.876-5.129,10.344-12.286,20.107-11.09c2.502,0.307,5.843-2.795,8.154-5.006
		c8.148-7.795,16.755-15.289,23.779-24.03c6.772-8.426,18.33-14.146,17.514-27.631c-0.09-1.479,2.045-3.237,3.389-4.637
		c12.818-13.344,25.605-26.721,38.6-39.894c3.435-3.48,6.166-6.991,5.848-12.098c-0.318-5.117,2.312-8.33,5.873-11.834
		c27.4-26.952,54.602-54.111,81.674-81.393c7.429-7.487,14.219-15.609,21.303-23.44c-0.348-13.027,10.496-19.352,17.519-27.513
		c4.988-5.798,9.404-10.604,9.389-18.765c-0.005-2.626,3.114-5.344,5.013-7.861c1.977-2.62,5.785-4.905,6.032-7.59
		c0.771-8.408,3.7-15.149,10.047-20.801c1.67-1.485,2.504-4.946,2.263-7.354c-0.787-7.863,5.483-11.382,8.872-16.824
		c3.3-5.301,3.931-12.21,6.205-18.234c0.613-1.624,3.129-2.434,4.433-3.915c1.732-1.967,4.435-4.216,4.451-6.361
		c0.069-8.655,3.691-15.029,10.063-20.555c1.717-1.49,2.758-4.804,2.619-7.193c-0.391-6.782,2.413-11.306,7.825-15.031
		c2.022-1.393,4.286-4.137,4.369-6.344c0.323-8.521,5.701-14.198,9.278-21.131c4.364-8.459,5.183-18.697,13.371-25.432
		c1.194-0.982,1.314-3.749,1.264-5.672c-0.15-5.723,1.377-10.196,6.673-13.379c4.994-3.001,6.465-8.128,6.407-13.818
		c-0.114-11.212,15.657-15.197,12.824-27.898c-0.258-1.161,1.994-3.402,3.559-4.364c8.716-5.354,9.831-13.652,9.109-22.671
		c-0.616-7.707,0.746-14.407,7.447-19.442c1.938-1.456,3.995-4.504,3.855-6.686c-0.816-12.746,14.824-19.284,12.072-32.72
		c-0.24-1.175,2.053-3.33,3.615-4.335c8.514-5.476,9.665-13.713,9.045-22.76c-0.473-6.896,0.417-13.193,6.696-17.707
		c5.542-3.984,3.844-11.041,6.261-16.195c2.425-5.171,7.5-9.048,10.991-13.801c1.031-1.404,1.09-3.93,0.809-5.824
		c-1.353-9.094,7.981-11.646,10.783-18.084c2.778-6.387-0.482-14.851,7.562-19.598c5.878-3.469,4.38-10.561,6.391-15.936
		c2.172-5.802,7.707-10.267,11.119-15.726c1.257-2.007,0.801-5.182,0.852-7.829c0.113-5.997,0.27-12.006,0.01-17.992
		c-0.275-6.337,0.99-11.824,6.275-15.925c4.756-3.689,5.159-8.973,5.103-14.462c-0.098-9.303-0.027-18.606-0.027-28.148
		c10.316-6.88,13.567-16.404,12.043-27.844c-0.175-1.31-0.023-2.663-0.023-3.996c0.001-133.298,0.001-266.597-0.003-399.895
		c0-4.666,0.454-9.404-0.224-13.973c-0.558-3.75-1.415-8.994-4.002-10.625c-8.556-5.4-7.74-13.358-7.754-21.336
		c-0.037-23.327-0.025-46.654-0.013-69.981c0.005-8.035,0.426-15.854-7.2-21.783c-2.563-1.993-3.39-6.905-3.929-10.64
		c-0.661-4.573-0.085-9.312-0.23-13.973c-0.166-5.308,0.785-11.171-1.17-15.763c-2.207-5.186-7.108-9.223-11.635-14.729
		c0-6.993,0-14.937,0-22.598c-3.277-3.424-6.998-5.85-8.54-9.262c-2.371-5.243-2.485-11.53-4.968-16.694
		c-2.488-5.172-9.461-9.432-9.6-14.231c-0.298-10.281-7.096-15.19-13.011-20.929c-0.211-3.819-0.661-7.144-0.525-10.444
		c0.365-8.918-0.275-17.138-8.375-23.253c-2.19-1.653-3.37-5.781-3.475-8.826c-0.227-6.594-2.87-11.53-7.991-15.301
		c-3.355-2.471-6.002-5.158-5.822-9.764c0.195-5.009-2.402-8.671-5.687-12.277c-2.101-2.306-4.525-5.784-4.273-8.504
		c0.942-10.186-6.376-15.558-12.424-22.188c0-3.361-0.189-6.671,0.036-9.953c0.627-9.121-0.831-17.292-9.365-22.586
		c-0.559-0.347-1.311-0.777-1.467-1.315c-1.629-5.593-2.648-11.424-4.847-16.773c-2.203-5.359-10.13-7.29-9.747-14.344
		c0.506-9.286-4.501-14.441-11.722-19.173c-4.858-3.185-8.484-8.248-12.952-12.763c2.316-15.464-14.425-24.502-13.74-39.87
		c0.078-1.76-3.535-3.667-5.41-5.534c-8.917-8.875-17.867-17.716-26.688-26.684c-1.31-1.332-3.003-3.406-2.808-4.917
		c1.347-10.442-6.267-15.358-12.344-21.444c-12.194-12.209-24.395-24.434-36.094-37.109c-6.035-6.539-14.582-11.691-13.912-22.837
		c0.15-2.522-3.287-5.556-5.557-7.883c-18.944-19.425-37.854-38.89-57.064-58.049c-22.982-22.921-46.333-45.472-69.336-68.371
		c-5.269-5.246-9.909-10.563-18.416-10.307c-2.741,0.083-5.85-2.333-8.286-4.248c-3.114-2.447-5.606-5.663-8.559-8.337
		c-11.034-10-18.922-24.429-36.288-25.651c-1.488-0.105-3.121-2.417-4.152-4.044c-4.604-7.272-12.088-6.847-19.291-8.234
		c-7.063-1.36-9.295-11.645-17.997-11.191c-0.662,0.035-1.348-0.159-1.994-0.063c-8.445,1.26-10.603-6.862-15.745-10.52
		c-5.962-4.242-14.805,0.17-20.024-7.136c-3.04-4.252-8.112-7.059-11.121-11.326c-5.04-7.148-12.691-5.895-19.507-7.956
		c-6.654-2.012-8.507-12.403-17.422-11.615c-6.71,0.593-10.992-2.737-15.395-7.314c-2.472-2.57-6.836-3.436-10.468-4.735
		c-2.45-0.877-6.548-0.334-7.438-1.864c-5.357-9.214-14.017-11.48-23.489-12.74c-1.104-0.147-2.244-1.429-3.016-2.45
		c-8.537-11.311-25.454-6.741-34.195-18.028c-1.12-1.447-5.063-0.88-7.705-0.941c-5.285-0.124-10.577-0.037-13.913-0.037
		c-6.516-5.837-11.842-9.897-16.279-14.767c-5.557-6.095-11.005-11.242-20.165-11.024c-2.592,0.063-5.973-2.73-7.768-5.13
		c-5.016-6.705-11.601-8.314-19.373-7.768c-3.962,0.278-7.959,0.049-11.115,0.049c-13.242-11.321-13.237-11.463-28.877-11.947
		c-6.166-0.191-11.771-0.641-16.164-5.937c-3.713-4.478-9.309-4.659-14.732-4.65c-12.651,0.019-25.302,0.006-37.749,0.006
		c-4.061-4.285-7.157-8.937-11.466-11.695c-3.969-2.542-9.241-3.05-14.735-4.691c22.652-39.238,45.727-76.504,71.027-112.328
		c10.337-14.638,22.257-28.147,33.006-42.507c8.353-11.159,16.947-22.307,23.8-34.386c24.965-44.007,49.557-88.205,80.202-128.666
		c2.378-3.139,4.547-6.677,5.82-10.372c4.123-11.961-2.388-21.332-15.019-22.087c-27.979-1.673-55.879-1.299-83.593,3.426
		c-15.736,2.683-31.47,5.384-47.178,8.223c-39.943,7.219-80.012,13.829-119.764,21.981c-39.709,8.143-79.186,17.48-118.595,26.996
		c-38.134,9.208-76.133,19.007-114.033,29.14c-20.556,5.495-40.818,12.109-61.148,18.428c-26.672,8.288-53.557,16.006-79.849,25.374
		c-38.179,13.603-76.084,28.026-113.772,42.942c-24.063,9.524-47.563,20.484-71.242,30.965
		c-17.003,7.527-33.648,15.914-50.872,22.883c-34.526,13.969-69.168,27.542-102.734,43.84
		c-29.979,14.556-59.201,30.342-87.344,48.115c-18.007,11.373-35.627,23.357-53.445,35.029c-8.391,5.497-16.714,10.758-27.647,9.637
		c-3.611-0.37-8.99,0.687-10.973,3.164c-6.595,8.232-15.274,7.056-23.837,7.086c-6.105,0.022-12.286-0.044-16.321,5.47
		c-4.566,6.238-10.855,6.821-17.75,6.619c-4.628-0.137-9.275,0.359-13.588,0.558c-7.505,5.722-12.494,14.479-23.512,13.83
		c-2.497-0.147-5.468,3.422-7.804,5.708c-6.103,5.971-11.973,12.178-17.947,18.302c-11.953,0.615-24.547-2.414-33.543,8.972
		c-1.548,1.959-6.273,1.246-9.42,2.152c-3.12,0.899-7.214,1.416-8.93,3.62c-5.019,6.449-11.334,8.402-19.05,8.945
		c-2.846,0.2-6.47,2.724-8.025,5.246c-3.679,5.967-8.724,7.312-15.158,7.554c-2.967,0.112-6.497,1.934-8.629,4.103
		c-4.325,4.399-8.256,8.171-15.23,7.881c-7.755-0.322-9.691,8.389-15.433,11.443c-1.118,0.595-2.592,0.843-3.87,0.763
		c-7.323-0.46-12.214,3.081-17.134,8.284c-5.368,5.678-12.177,9.994-18.358,14.905c-10.309-1.622-15.227,6.363-21.545,11.949
		c-0.86,0.762-2.54,0.936-3.802,0.846c-7.344-0.52-12.883,2.54-17.111,8.317c-4.323,5.908-11.208,2.791-16.671,4.762
		c-6.404,2.313-7.65,11.698-15.446,11.528c-8.169-0.178-13.095,4.055-18.599,9.551c-11.849,11.828-21.063,27.551-40.177,29.979
		c-2.2,0.279-3.909,3.471-6.102,4.925c-11.841,7.855-19.069,20.198-29.147,29.763c-17.3,16.42-34.739,32.701-51.726,49.439
		c-16.958,16.711-33.372,33.974-50.174,50.843c-3.492,3.506-5.748,7.187-5.601,12.24c0.121,4.151-1.44,7.255-4.614,10.398
		c-15.539,15.391-30.299,31.583-46.144,46.642c-5.584,5.307-10.525,9.749-10.407,18.071c0.033,2.283-1.673,4.986-3.328,6.827
		c-6.202,6.907-12.469,13.794-19.173,20.208c-7.632,7.3-16.962,13.283-15.479,26.056c0.179,1.548-1.431,3.972-2.901,4.931
		c-8.091,5.277-5.816,14.338-7.423,19.599c-8.149,7.874-15.527,13.775-21.217,21.006c-2.955,3.755-2.876,9.873-4.278,14.892
		c-0.347,1.242-0.821,2.727-1.743,3.486c-6.509,5.361-10.609,11.652-10.296,20.592c0.071,2.039-2.363,4.758-4.35,6.169
		c-6.812,4.836-8.552,11.422-7.975,19.24c0.292,3.955,0.052,7.949,0.052,11.172c-4.223,5.47-9.985,9.742-10.943,14.906
		c-1.523,8.209-3.016,15.172-10.39,20.287c-2.145,1.487-2.336,5.863-3.301,8.951c-0.777,2.486-0.591,5.811-2.188,7.407
		c-5.877,5.873-10.268,11.963-9.663,20.917c0.142,2.087-2.093,5.031-4.053,6.441c-6.905,4.965-7.708,11.839-7.535,19.484
		c0.179,7.93,1.116,16.017-8.247,20.826c-2.568,1.319-3.531,6.759-4.208,10.494c-0.73,4.029-1.085,7.792-4.938,10.289
		c-6.343,4.108-6.006,11.014-7.918,17.336c-1.749,5.783-7.629,10.218-11.057,15.646c-1.274,2.019-0.949,5.165-1.018,7.804
		c-0.136,5.298-0.04,10.602-0.04,16.641c-11.295,6.847-13.354,17.496-12.063,29.425c0.213,1.977-0.01,3.997,0.033,5.995
		c0.177,8.092,0.002,15.731-7.212,21.772c-2.519,2.11-3.408,7.019-3.701,10.753c-0.573,7.287-0.215,14.649-0.217,21.981
		c-0.008,22.624-0.003,45.248-0.003,69.466c-12.961,4.072-13.448,14.723-12.869,25.84c0.035,0.664,0.004,1.332,0.004,1.999
		c0,135.299-0.016,270.596,0.048,405.894c0.003,5.955-0.603,12.431,1.479,17.718c2.037,5.172,7.151,9.131,11.381,14.181
		c0,8.911,0.066,18.226-0.027,27.538c-0.05,4.87,0.809,9.4,4.758,12.587c5.871,4.734,6.652,11.038,6.396,17.941
		c-0.222,5.99,0.043,11.995,0.018,17.993c-0.02,4.871,0.921,9.531,5.049,12.463c6.234,4.428,5.653,11.248,7.703,17.405
		c1.926,5.784,7.627,10.28,11.463,15.492c0.686,0.931,0.585,2.602,0.501,3.908c-0.428,6.608,2.533,11.368,7.509,15.45
		c1.888,1.548,4.074,4.246,4.026,6.373c-0.197,8.775,2.919,15.383,10.237,20.288c1.415,0.949,2.806,3.482,2.589,5.061
		c-1.418,10.287,6.998,15.134,11.535,20.968c0.354,2.377,0.552,3.689,0.744,5.002c1.214,8.308-3.519,18.614,4.553,24.502
		c8.69,6.339,4.705,16.243,9.271,23.292c1.408,2.174,3.849,3.651,5.562,5.664c1.64,1.928,4.37,4.288,4.167,6.199
		c-1.094,10.341,7.854,14.792,12.547,21.428c0,3.197,0.041,5.849-0.007,8.498c-0.179,10.069-0.974,20.277,9.95,26.275
		c1.407,0.771,2.578,3.356,2.565,5.092c-0.057,7.404,4.777,11.77,8.665,17.238c3.573,5.025,2.681,13.401,6.504,18.032
		c5.377,6.514,8.641,12.713,9.166,21.188c0.199,3.222,3.927,6.788,6.887,9.138c3.862,3.067,7.013,5.994,6.779,11.327
		c-0.223,5.067,2.725,8.51,5.729,12.259c2.32,2.895,4.038,6.877,4.453,10.552c0.648,5.736,2.698,10.27,7.294,13.561
		c4.024,2.882,6.969,6.299,6.441,11.552c-0.792,7.885,5.09,11.707,9.476,16.658c4.894,5.524,0.421,15.007,7.729,19.722
		c6.499,4.193,5.58,11.24,7.648,17.354c1.958,5.784,7.634,10.279,11.471,15.49c0.685,0.93,0.591,2.605,0.491,3.908
		c-0.51,6.649,3.74,10.707,7.197,15.696c3.562,5.142,4.512,12.043,6.996,18.011c0.699,1.679,2.549,3.315,4.265,4.052
		c5.159,2.212,5.874,6.355,6.493,11.265c0.47,3.726,1.852,7.843,4.148,10.738c8.04,10.135,19.731,17.856,20.384,32.651
		c0.049,1.097,1.373,2.227,2.273,3.182c5.416,5.744,10.788,11.536,16.348,17.138c18.71,18.849,37.445,37.67,56.268,56.405
		c8.925,8.884,17.911,17.721,27.185,26.234c4.59,4.215,7.838,8.375,8.08,15.129c0.125,3.482,2.759,7.372,5.265,10.18
		c7.478,8.381,15.421,16.349,23.241,24.419c8.605,8.881,19.581,16.115,20.162,30.421c0.068,1.662,1.932,3.416,3.271,4.836
		c7.708,8.168,14.584,17.525,23.534,24.003c9.242,6.688,14.133,20.487,28.889,19.034c1.502-0.147,3.429,1.76,4.817,3.075
		c8.653,8.208,17.356,16.373,25.762,24.83c12.158,12.229,23.593,25.219,36.261,36.88c8.943,8.232,16.29,19.833,31.146,19.107
		c2.01-0.099,4.397,2.53,6.205,4.309c4.722,4.648,9.047,9.71,13.881,14.232c2.327,2.177,5.356,4.77,8.222,4.973
		c7.104,0.503,12.795,2.433,16.639,8.835c0.938,1.563,3.147,3.436,4.706,3.378c10.174-0.371,17.447,4.517,24.102,11.527
		c1.475,1.553,5.072,0.97,7.608,1.673c2.499,0.693,6.148,1.064,7.121,2.796c5.502,9.793,15.685,8.575,21.261,9.826
		c10.243,9.101,18.843,15.514,25.864,23.344c6.359,7.093,11.601,14.485,22.608,13.824c2.159-0.13,4.847,2.007,6.647,3.761
		c4.283,4.17,8.031,8.887,12.292,13.081c2.314,2.277,5.149,5.438,7.901,5.598c8.579,0.499,15.141,3.568,20.31,10.5
		c1.381,1.852,4.529,3.221,6.929,3.322c6.981,0.296,12.87,1.822,17.229,7.99c4.028,5.698,11.417,2.846,16.505,5.346
		c5.69,2.798,9.865,9.273,15.658,11.092c5.735,1.799,11.522,2.111,15.561,7.402c4.228,5.539,11.298,3.115,16.504,5.393
		c5.839,2.556,10.638,7.405,16.149,10.842c1.488,0.928,4.107-0.13,5.867,0.574c2.908,1.163,5.749,2.744,8.234,4.649
		c3.086,2.366,5.783,5.241,8.624,7.874c7.941,0,15.231,0,21.748,0c13.84,11.863,13.84,11.865,30.782,11.953
		c4.665,0.023,9.331,0.082,13.995,0.031c4.867-0.055,9.258,0.91,12.393,5.067c4.614,6.118,11.219,6.305,18.051,6.251
		c15.969-0.124,31.939-0.039,48.615-0.039c5.798,12.43,16.158,14.757,28.295,13.455c4.611-0.494,9.324,0.025,13.987-0.066
		c4.847-0.094,9.237,0.709,12.464,4.822c4.604,5.87,10.99,6.62,17.925,6.533c16.637-0.208,33.276-0.067,48.772-0.067
		c6.295,4.794,8.862,12.435,16.624,12.497c9.385,0.076,12.099,6.771,14.811,13.758c8.901,22.941,17.772,45.895,26.775,68.797
		c1.687,4.291,3.679,8.508,5.959,12.515c7.293,12.818,26.032,12.407,32.404-0.972c2.566-5.388,4.704-10.99,6.84-16.569
		c9.711-25.357,19.351-50.74,29.239-76.693c7.412-0.23,14.003-0.604,20.595-0.612c48.654-0.049,97.309-0.023,145.962-0.031
		c4.665,0,9.33-0.096,13.995-0.074c4.972,0.021,9.19-1.622,12.108-5.73c1.911-2.689,3.465-5.633,4.222-6.882
		c19.138,0,35.121-0.09,51.103,0.042c6.82,0.057,13.423-0.095,18.058-6.171c3.683-4.827,8.851-5.328,14.345-5.185
		c4.662,0.121,9.331,0.041,13.996,0c16.058-0.141,16.058-0.149,28.031-13.357c4.915,0,10.862,0.003,16.811,0
		c10.664-0.005,21.332-0.202,31.99,0.052c6.31,0.15,12.04-0.802,16.141-5.981c3.754-4.739,8.742-5.485,14.263-5.4
		c7.33,0.113,14.667-0.183,21.993,0.031c5.723,0.168,10.308-1.664,14.176-5.9c2.162-2.37,4.817-4.29,6.997-6.19
		c6.124,0,11.484,0.359,16.765-0.136c3.133-0.294,7.285-1.017,8.993-3.141c5.391-6.705,11.724-9.974,20.365-10.269
		c2.718-0.093,5.358-3.53,7.962-5.533c2.083-1.603,4.051-4.78,6.075-4.784c8.679-0.016,15.34-3.345,20.947-9.745
		c1.134-1.292,3.579-2.053,5.399-2.017c7.221,0.145,12.68-2.504,17.215-8.245c1.799-2.278,5.412-4.459,8.152-4.403
		c7.563,0.154,12.595-3.357,16.963-8.83c4.424-5.543,11.357-2.364,16.798-4.65c6.25-2.627,7.779-11.531,15.456-11.753
		c7.456-0.216,11.716-4.865,16.796-9.401c7.628-6.813,13.799-16.498,26.427-15.672c2.617,0.172,5.921-2.807,8.138-5.083
		c9.708-9.974,19.135-20.224,29.197-30.94c8.123-0.413,16.813-1.003,22.207-9.43c0.93-1.453,3.361-2.887,5.001-2.783
		c8.817,0.557,15.291-2.961,20.688-9.764c1.346-1.695,4.77-2.561,7.173-2.444c7.557,0.364,11.65-4.24,16.896-8.702
		c5.067-4.313,13.304-4.676,19.129-8.377C3222.477,3010.892,3228.664,3004.646,3235.304,2999.112z"/>
	<path fill-rule="evenodd" clip-rule="evenodd" d="M2387.701,3511.561c1.672-10.955,2.391-22.201,11.005-30.734
		c4.678-4.634,11.888-6.584,18.017-4.362c5.933,2.151,9.969,8.12,9.552,15.653c-0.361,6.509-1.682,12.964-2.578,19.443
		C2411.698,3511.561,2399.7,3511.561,2387.701,3511.561z"/>
	<path fill-rule="evenodd" clip-rule="evenodd" d="M3235.304,2999.112c-6.64,5.533-12.827,11.779-20.062,16.378
		c-5.825,3.701-14.062,4.064-19.129,8.377c-5.246,4.462-9.34,9.066-16.896,8.702c-2.403-0.116-5.827,0.749-7.173,2.444
		c-5.397,6.803-11.871,10.32-20.688,9.764c-1.64-0.104-4.071,1.33-5.001,2.783c-5.394,8.427-14.084,9.017-22.207,9.43
		c-10.063,10.717-19.489,20.967-29.197,30.94c-2.217,2.276-5.521,5.255-8.138,5.083c-12.628-0.826-18.799,8.858-26.427,15.672
		c-5.08,4.536-9.34,9.186-16.796,9.401c-7.677,0.222-9.206,9.126-15.456,11.753c-5.44,2.286-12.374-0.893-16.798,4.65
		c-4.368,5.473-9.4,8.984-16.963,8.83c-2.74-0.056-6.354,2.125-8.152,4.403c-4.535,5.741-9.994,8.39-17.215,8.245
		c-1.82-0.036-4.266,0.725-5.399,2.017c-5.607,6.4-12.269,9.729-20.947,9.745c-2.024,0.004-3.992,3.182-6.075,4.784
		c-2.604,2.003-5.244,5.44-7.962,5.533c-8.642,0.295-14.975,3.563-20.365,10.269c-1.708,2.124-5.86,2.847-8.993,3.141
		c-5.28,0.495-10.641,0.136-16.765,0.136c-2.18,1.9-4.835,3.82-6.997,6.19c-3.868,4.236-8.453,6.068-14.176,5.9
		c-7.326-0.214-14.663,0.082-21.993-0.031c-5.521-0.085-10.509,0.661-14.263,5.4c-4.101,5.18-9.831,6.132-16.141,5.981
		c-10.658-0.254-21.326-0.057-31.99-0.052c-5.948,0.003-11.896,0-16.811,0c-11.974,13.208-11.974,13.217-28.031,13.357
		c-4.665,0.041-9.334,0.121-13.996,0c-5.494-0.144-10.662,0.357-14.345,5.185c-4.635,6.076-11.237,6.228-18.058,6.171
		c-15.981-0.132-31.965-0.042-51.103-0.042c-0.757,1.249-2.311,4.192-4.222,6.882c-2.918,4.108-7.137,5.752-12.108,5.73
		c-4.665-0.021-9.33,0.074-13.995,0.074c-48.653,0.008-97.308-0.018-145.962,0.031c-6.592,0.008-13.183,0.382-20.595,0.612
		c-9.888,25.953-19.528,51.336-29.239,76.693c-2.136,5.579-4.274,11.182-6.84,16.569c-6.373,13.379-25.111,13.79-32.404,0.972
		c-2.28-4.007-4.272-8.224-5.959-12.515c-9.003-22.902-17.874-45.855-26.775-68.797c-2.712-6.987-5.426-13.682-14.811-13.758
		c-7.762-0.063-10.329-7.703-16.624-12.497c-15.496,0-32.136-0.141-48.772,0.067c-6.936,0.087-13.321-0.663-17.925-6.533
		c-3.227-4.113-7.617-4.916-12.464-4.822c-4.663,0.092-9.376-0.428-13.987,0.066c-12.137,1.302-22.497-1.025-28.295-13.455
		c-16.676,0-32.646-0.085-48.615,0.039c-6.832,0.054-13.438-0.133-18.051-6.251c-3.135-4.157-7.526-5.122-12.393-5.067
		c-4.665,0.051-9.33-0.008-13.995-0.031c-16.941-0.088-16.941-0.09-30.782-11.953c-6.517,0-13.807,0-21.748,0
		c-2.841-2.633-5.538-5.508-8.624-7.874c-2.486-1.905-5.326-3.486-8.234-4.649c-1.76-0.704-4.379,0.354-5.867-0.574
		c-5.511-3.437-10.311-8.286-16.149-10.842c-5.206-2.277-12.276,0.146-16.504-5.393c-4.039-5.291-9.826-5.604-15.561-7.402
		c-5.793-1.818-9.968-8.294-15.658-11.092c-5.088-2.5-12.477,0.353-16.505-5.346c-4.359-6.168-10.248-7.694-17.229-7.99
		c-2.399-0.102-5.547-1.471-6.929-3.322c-5.169-6.932-11.731-10.001-20.31-10.5c-2.752-0.159-5.587-3.32-7.901-5.598
		c-4.261-4.194-8.01-8.911-12.292-13.081c-1.801-1.754-4.489-3.891-6.647-3.761c-11.007,0.661-16.249-6.731-22.608-13.824
		c-7.021-7.83-15.621-14.243-25.864-23.344c-5.577-1.251-15.759-0.033-21.261-9.826c-0.973-1.731-4.622-2.103-7.121-2.796
		c-2.537-0.703-6.134-0.12-7.608-1.673c-6.654-7.011-13.928-11.898-24.102-11.527c-1.559,0.058-3.768-1.814-4.706-3.378
		c-3.843-6.402-9.535-8.332-16.639-8.835c-2.866-0.203-5.895-2.796-8.222-4.973c-4.833-4.522-9.159-9.584-13.881-14.232
		c-1.808-1.778-4.195-4.407-6.205-4.309c-14.856,0.726-22.203-10.875-31.146-19.107c-12.668-11.661-24.104-24.651-36.261-36.88
		c-8.406-8.457-17.109-16.622-25.762-24.83c-1.388-1.315-3.315-3.223-4.817-3.075c-14.756,1.453-19.647-12.347-28.889-19.034
		c-8.95-6.478-15.826-15.835-23.534-24.003c-1.34-1.42-3.203-3.174-3.271-4.836c-0.582-14.306-11.557-21.54-20.162-30.421
		c-7.82-8.07-15.764-16.038-23.241-24.419c-2.506-2.808-5.14-6.697-5.265-10.18c-0.242-6.754-3.49-10.914-8.08-15.129
		c-9.274-8.514-18.26-17.351-27.185-26.234c-18.823-18.735-37.558-37.557-56.268-56.405c-5.561-5.602-10.932-11.394-16.348-17.138
		c-0.9-0.955-2.225-2.085-2.273-3.182c-0.653-14.795-12.344-22.517-20.384-32.651c-2.296-2.896-3.678-7.013-4.148-10.738
		c-0.619-4.909-1.334-9.053-6.493-11.265c-1.716-0.736-3.566-2.373-4.265-4.052c-2.484-5.968-3.434-12.869-6.996-18.011
		c-3.458-4.989-7.707-9.047-7.197-15.696c0.1-1.303,0.193-2.979-0.491-3.908c-3.837-5.211-9.514-9.706-11.471-15.49
		c-2.069-6.113-1.149-13.16-7.648-17.354c-7.309-4.715-2.835-14.197-7.729-19.722c-4.385-4.951-10.268-8.773-9.476-16.658
		c0.527-5.253-2.417-8.67-6.441-11.552c-4.596-3.291-6.646-7.824-7.294-13.561c-0.415-3.675-2.133-7.657-4.453-10.552
		c-3.004-3.749-5.952-7.191-5.729-12.259c0.234-5.333-2.917-8.26-6.779-11.327c-2.959-2.35-6.688-5.916-6.887-9.138
		c-0.525-8.476-3.789-14.675-9.166-21.188c-3.823-4.631-2.931-13.007-6.504-18.032c-3.888-5.469-8.722-9.834-8.665-17.238
		c0.013-1.735-1.158-4.32-2.565-5.092c-10.924-5.998-10.129-16.206-9.95-26.275c0.048-2.649,0.007-5.301,0.007-8.498
		c-4.692-6.636-13.641-11.087-12.547-21.428c0.203-1.911-2.526-4.271-4.167-6.199c-1.713-2.013-4.154-3.49-5.562-5.664
		c-4.566-7.049-0.58-16.953-9.271-23.292c-8.071-5.888-3.338-16.194-4.553-24.502c-0.192-1.313-0.391-2.625-0.744-5.002
		c-4.537-5.834-12.953-10.681-11.535-20.968c0.217-1.578-1.175-4.111-2.589-5.061c-7.318-4.905-10.435-11.513-10.237-20.288
		c0.048-2.127-2.138-4.825-4.026-6.373c-4.976-4.082-7.937-8.842-7.509-15.45c0.084-1.307,0.185-2.978-0.501-3.908
		c-3.836-5.212-9.538-9.708-11.463-15.492c-2.05-6.157-1.469-12.978-7.703-17.405c-4.128-2.932-5.069-7.592-5.049-12.463
		c0.025-5.998-0.24-12.003-0.018-17.993c0.257-6.903-0.525-13.207-6.396-17.941c-3.95-3.187-4.808-7.717-4.758-12.587
		c0.094-9.313,0.027-18.627,0.027-27.538c-4.23-5.05-9.345-9.009-11.381-14.181c-2.082-5.287-1.476-11.763-1.479-17.718
		c-0.063-135.298-0.048-270.595-0.048-405.894c0-0.667,0.031-1.335-0.004-1.999c-0.579-11.118-0.092-21.769,12.869-25.84
		c0-24.218-0.005-46.842,0.003-69.466c0.002-7.332-0.356-14.694,0.217-21.981c0.293-3.735,1.182-8.644,3.701-10.753
		c7.214-6.042,7.389-13.68,7.212-21.772c-0.042-1.998,0.181-4.018-0.033-5.995c-1.291-11.929,0.768-22.578,12.063-29.425
		c0-6.039-0.096-11.342,0.04-16.641c0.068-2.639-0.257-5.785,1.018-7.804c3.428-5.427,9.309-9.862,11.057-15.646
		c1.912-6.322,1.575-13.228,7.918-17.336c3.853-2.497,4.208-6.26,4.938-10.289c0.678-3.735,1.641-9.175,4.208-10.494
		c9.363-4.809,8.426-12.896,8.247-20.826c-0.173-7.645,0.63-14.519,7.535-19.484c1.96-1.41,4.195-4.354,4.053-6.441
		c-0.605-8.954,3.786-15.045,9.663-20.917c1.597-1.597,1.41-4.921,2.188-7.407c0.965-3.088,1.157-7.464,3.301-8.951
		c7.374-5.115,8.867-12.078,10.39-20.287c0.958-5.164,6.72-9.436,10.943-14.906c0-3.223,0.24-7.218-0.052-11.172
		c-0.577-7.817,1.163-14.403,7.975-19.24c1.987-1.411,4.421-4.13,4.35-6.169c-0.313-8.94,3.787-15.231,10.296-20.592
		c0.921-0.759,1.396-2.244,1.743-3.486c1.401-5.019,1.323-11.136,4.278-14.892c5.69-7.231,13.068-13.132,21.217-21.006
		c1.607-5.261-0.668-14.322,7.423-19.599c1.47-0.959,3.08-3.383,2.901-4.931c-1.482-12.773,7.848-18.756,15.479-26.056
		c6.704-6.413,12.971-13.3,19.173-20.208c1.654-1.841,3.361-4.544,3.328-6.827c-0.118-8.322,4.823-12.764,10.407-18.071
		c15.844-15.058,30.604-31.251,46.144-46.642c3.173-3.144,4.735-6.248,4.614-10.398c-0.147-5.053,2.109-8.733,5.601-12.24
		c16.803-16.87,33.216-34.132,50.174-50.843c16.987-16.738,34.426-33.019,51.726-49.439c10.078-9.565,17.306-21.908,29.147-29.763
		c2.193-1.454,3.902-4.646,6.102-4.925c19.114-2.428,28.328-18.15,40.177-29.979c5.504-5.496,10.43-9.729,18.599-9.551
		c7.796,0.17,9.042-9.215,15.446-11.528c5.462-1.972,12.348,1.146,16.671-4.762c4.228-5.777,9.767-8.837,17.111-8.317
		c1.263,0.09,2.942-0.084,3.802-0.846c6.319-5.586,11.236-13.571,21.545-11.949c6.181-4.911,12.99-9.227,18.358-14.905
		c4.919-5.203,9.811-8.744,17.134-8.284c1.278,0.08,2.751-0.168,3.87-0.763c5.741-3.055,7.678-11.765,15.433-11.443
		c6.975,0.29,10.906-3.481,15.23-7.881c2.132-2.168,5.662-3.99,8.629-4.103c6.435-0.242,11.479-1.587,15.158-7.554
		c1.555-2.521,5.179-5.045,8.025-5.246c7.716-0.543,14.031-2.497,19.05-8.945c1.716-2.204,5.81-2.72,8.93-3.62
		c3.147-0.906,7.872-0.192,9.42-2.152c8.996-11.385,21.59-8.356,33.543-8.972c5.974-6.125,11.844-12.332,17.947-18.302
		c2.335-2.286,5.307-5.856,7.804-5.708c11.018,0.649,16.007-8.108,23.512-13.83c4.313-0.198,8.96-0.694,13.588-0.558
		c6.895,0.202,13.184-0.381,17.75-6.619c4.036-5.514,10.216-5.447,16.321-5.47c8.563-0.03,17.242,1.146,23.837-7.086
		c1.983-2.478,7.362-3.534,10.973-3.164c10.933,1.121,19.256-4.141,27.647-9.637c17.818-11.671,35.438-23.656,53.445-35.029
		c28.143-17.773,57.365-33.56,87.344-48.115c33.566-16.298,68.208-29.871,102.734-43.84c17.224-6.969,33.868-15.355,50.872-22.883
		c23.679-10.481,47.179-21.441,71.242-30.965c37.688-14.916,75.593-29.339,113.772-42.942c26.292-9.368,53.177-17.085,79.849-25.374
		c20.33-6.319,40.593-12.933,61.148-18.428c37.9-10.133,75.899-19.932,114.033-29.14c39.409-9.515,78.886-18.853,118.595-26.996
		c39.752-8.152,79.82-14.763,119.764-21.981c15.708-2.839,31.441-5.54,47.178-8.223c27.714-4.725,55.614-5.099,83.593-3.426
		c12.631,0.756,19.142,10.126,15.019,22.087c-1.273,3.695-3.442,7.232-5.82,10.372c-30.646,40.461-55.237,84.658-80.202,128.666
		c-6.853,12.08-15.447,23.228-23.8,34.386c-10.749,14.36-22.669,27.869-33.006,42.507c-25.301,35.823-48.375,73.089-71.027,112.328
		c5.494,1.641,10.767,2.149,14.735,4.691c4.309,2.758,7.405,7.41,11.466,11.695c12.447,0,25.098,0.013,37.749-0.006
		c5.424-0.009,11.02,0.173,14.732,4.65c4.393,5.296,9.998,5.745,16.164,5.937c15.64,0.483,15.635,0.626,28.877,11.947
		c3.156,0,7.153,0.229,11.115-0.049c7.772-0.547,14.357,1.063,19.373,7.768c1.795,2.4,5.176,5.193,7.768,5.13
		c9.16-0.218,14.608,4.929,20.165,11.024c4.438,4.87,9.764,8.929,16.279,14.767c3.336,0,8.628-0.087,13.913,0.037
		c2.643,0.062,6.585-0.506,7.705,0.941c8.741,11.287,25.658,6.717,34.195,18.028c0.771,1.021,1.911,2.303,3.016,2.45
		c9.473,1.26,18.132,3.526,23.489,12.74c0.89,1.53,4.987,0.987,7.438,1.864c3.632,1.299,7.996,2.166,10.468,4.735
		c4.402,4.578,8.685,7.907,15.395,7.314c8.915-0.788,10.768,9.604,17.422,11.615c6.815,2.061,14.467,0.808,19.507,7.956
		c3.009,4.267,8.081,7.073,11.121,11.326c5.22,7.306,14.063,2.894,20.024,7.136c5.143,3.658,7.3,11.78,15.745,10.52
		c0.646-0.097,1.332,0.098,1.994,0.063c8.702-0.454,10.935,9.831,17.997,11.191c7.203,1.388,14.687,0.962,19.291,8.234
		c1.031,1.627,2.664,3.939,4.152,4.044c17.366,1.223,25.254,15.651,36.288,25.651c2.952,2.674,5.444,5.89,8.559,8.337
		c2.437,1.915,5.545,4.331,8.286,4.248c8.507-0.257,13.147,5.061,18.416,10.307c23.003,22.899,46.354,45.45,69.336,68.371
		c19.211,19.16,38.12,38.624,57.064,58.049c2.27,2.327,5.707,5.361,5.557,7.883c-0.67,11.146,7.877,16.299,13.912,22.837
		c11.699,12.676,23.899,24.9,36.094,37.109c6.077,6.086,13.69,11.002,12.344,21.444c-0.195,1.511,1.498,3.585,2.808,4.917
		c8.821,8.968,17.771,17.81,26.688,26.684c1.875,1.866,5.488,3.773,5.41,5.534c-0.685,15.368,16.057,24.406,13.74,39.87
		c4.468,4.515,8.094,9.579,12.952,12.763c7.221,4.731,12.228,9.887,11.722,19.173c-0.383,7.054,7.544,8.985,9.747,14.344
		c2.198,5.349,3.218,11.18,4.847,16.773c0.156,0.538,0.908,0.968,1.467,1.315c8.534,5.294,9.992,13.465,9.365,22.586
		c-0.226,3.282-0.036,6.592-0.036,9.953c6.048,6.631,13.366,12.002,12.424,22.188c-0.252,2.72,2.173,6.198,4.273,8.504
		c3.284,3.606,5.882,7.268,5.687,12.277c-0.18,4.606,2.467,7.293,5.822,9.764c5.121,3.771,7.765,8.707,7.991,15.301
		c0.104,3.045,1.284,7.173,3.475,8.826c8.1,6.115,8.74,14.335,8.375,23.253c-0.136,3.3,0.314,6.625,0.525,10.444
		c5.915,5.738,12.713,10.648,13.011,20.929c0.139,4.799,7.111,9.059,9.6,14.231c2.482,5.164,2.597,11.451,4.968,16.694
		c1.542,3.412,5.263,5.837,8.54,9.262c0,7.661,0,15.604,0,22.598c4.526,5.506,9.428,9.544,11.635,14.729
		c1.955,4.591,1.004,10.455,1.17,15.763c0.146,4.662-0.431,9.4,0.23,13.973c0.539,3.735,1.365,8.647,3.929,10.64
		c7.626,5.93,7.205,13.748,7.2,21.783c-0.013,23.327-0.024,46.654,0.013,69.981c0.014,7.979-0.802,15.937,7.754,21.336
		c2.587,1.632,3.444,6.875,4.002,10.625c0.678,4.569,0.224,9.308,0.224,13.973c0.004,133.298,0.004,266.597,0.003,399.895
		c0,1.333-0.151,2.687,0.023,3.996c1.524,11.439-1.727,20.964-12.043,27.844c0,9.542-0.07,18.846,0.027,28.148
		c0.057,5.489-0.347,10.772-5.103,14.462c-5.285,4.101-6.551,9.588-6.275,15.925c0.26,5.986,0.104,11.995-0.01,17.992
		c-0.051,2.647,0.405,5.822-0.852,7.829c-3.412,5.459-8.947,9.924-11.119,15.726c-2.011,5.375-0.513,12.467-6.391,15.936
		c-8.044,4.747-4.783,13.211-7.562,19.598c-2.802,6.438-12.136,8.99-10.783,18.084c0.281,1.895,0.223,4.42-0.809,5.824
		c-3.491,4.753-8.566,8.63-10.991,13.801c-2.417,5.154-0.719,12.211-6.261,16.195c-6.279,4.514-7.169,10.812-6.696,17.707
		c0.62,9.047-0.531,17.284-9.045,22.76c-1.563,1.005-3.855,3.16-3.615,4.335c2.752,13.436-12.889,19.974-12.072,32.72
		c0.14,2.182-1.917,5.229-3.855,6.686c-6.701,5.035-8.063,11.735-7.447,19.442c0.722,9.019-0.394,17.317-9.109,22.671
		c-1.564,0.962-3.816,3.203-3.559,4.364c2.833,12.701-12.938,16.687-12.824,27.898c0.058,5.69-1.413,10.817-6.407,13.818
		c-5.296,3.183-6.823,7.656-6.673,13.379c0.051,1.923-0.069,4.689-1.264,5.672c-8.188,6.734-9.007,16.973-13.371,25.432
		c-3.577,6.933-8.955,12.61-9.278,21.131c-0.083,2.207-2.347,4.951-4.369,6.344c-5.412,3.726-8.216,8.249-7.825,15.031
		c0.139,2.39-0.902,5.703-2.619,7.193c-6.371,5.525-9.993,11.899-10.063,20.555c-0.017,2.146-2.719,4.395-4.451,6.361
		c-1.304,1.481-3.819,2.291-4.433,3.915c-2.274,6.024-2.905,12.934-6.205,18.234c-3.389,5.442-9.659,8.961-8.872,16.824
		c0.241,2.407-0.593,5.868-2.263,7.354c-6.347,5.651-9.275,12.393-10.047,20.801c-0.247,2.685-4.056,4.97-6.032,7.59
		c-1.898,2.518-5.018,5.235-5.013,7.861c0.016,8.16-4.4,12.967-9.389,18.765c-7.022,8.161-17.866,14.485-17.519,27.513
		c-7.084,7.831-13.874,15.953-21.303,23.44c-27.072,27.281-54.273,54.44-81.674,81.393c-3.562,3.504-6.191,6.717-5.873,11.834
		c0.318,5.106-2.413,8.617-5.848,12.098c-12.994,13.173-25.781,26.55-38.6,39.894c-1.344,1.399-3.479,3.158-3.389,4.637
		c0.816,13.484-10.741,19.205-17.514,27.631c-7.024,8.741-15.631,16.235-23.779,24.03c-2.312,2.211-5.652,5.313-8.154,5.006
		c-9.764-1.196-14.231,5.961-20.107,11.09c-15.033,13.124-28.775,27.471-42.023,42.41c-8.76,9.878-18.617,18.941-28.896,27.235
		c-4.247,3.427-10.889,3.883-16.44,5.69C3235.176,2997.531,3235.24,2998.321,3235.304,2999.112z"/>
</g>
</svg>
