<?xml version="1.0" encoding="utf-8"?>
<!-- Generator: Adobe Illustrator 16.0.2, SVG Export Plug-In . SVG Version: 6.00 Build 0)  -->
<!DOCTYPE svg PUBLIC "-//W3C//DTD SVG 1.1 Tiny//EN" "http://www.w3.org/Graphics/SVG/1.1/DTD/svg11-tiny.dtd">
<svg version="1.1" baseProfile="tiny" id="Layer_1" xmlns="http://www.w3.org/2000/svg" xmlns:xlink="http://www.w3.org/1999/xlink"
	 x="0px" y="0px" width="3692.538px" height="3729.533px" viewBox="0 0 3692.538 3729.533" xml:space="preserve">
<g>
	<path fill-rule="evenodd" fill="#FFFFFF" d="M3695.424,3733.419c-1231.216,0-2462.32,0-3693.312,0c0-1243.881,0-2487.65,0-3731.307
		c1231.217,0,2462.321,0,3693.312,0C3695.424,1245.994,3695.424,2489.764,3695.424,3733.419z M2912.935,544.521
		c-10.494,9.884-20.835,19.267-30.765,29.064c-12.301,12.137-24.257,24.622-36.376,36.943c-0.925,0.94-1.909,1.837-2.947,2.649
		c-9.121,7.117-18.476,13.954-27.348,21.367c-15.038,12.567-30.747,24.541-44.424,38.482c-22.81,23.249-44.454,47.662-66.069,72.044
		c-4.459,5.03-8.619,7.284-15.19,6.986c-25.055-1.138-49.878,0.274-74.166,7.393c-11.831,3.467-24.14,6.116-33.931,13.875
		c-7.527,5.965-14.188,13.191-20.443,20.531c-3.81,4.471-7.713,9.898-8.841,15.451c-7.28,35.87-11.941,59.849,19.404,84.84
		c0.259,0.207,0.476,0.467,0.712,0.701c7.218,7.14,15.697,10.7,26.052,10.313c10.935-0.409,21.896-0.092,33.111-0.092
		c5.382,17.802,13.986,33.255,26.873,46.493c-1.993,2.183-3.662,3.78-5.064,5.583c-6.95,8.938-13.494,18.037-15.729,29.579
		c-0.862,4.453-2.334,9.025-4.588,12.932c-15.457,26.8-15.857,55.83-12.78,85.29c1.568,15.009,6.754,28.97,15.516,41.221
		c-2.312,2.683-4.01,4.725-5.782,6.704c-13.27,14.808-25.394,30.741-42.293,41.931c-4.116,2.726-7.972,5.999-11.453,9.51
		c-12.768,12.874-27.838,22.651-43.203,31.896c-9.924,5.97-20.71,10.491-30.912,16.025c-7.854,4.261-15.576,8.825-23.02,13.762
		c-4.704,3.12-8.719,2.344-12.849-0.443c-6.608-4.458-13.738-8.376-19.584-13.692c-19.895-18.09-40.958-34.969-58.28-55.802
		c-2.978-3.581-3.245-7.041-3.176-10.993c0.163-9.318-0.018-18.669,0.735-27.944c1.464-18.019-6.319-32.362-17.591-45.15
		c-7.257-8.234-15.173-15.951-23.3-23.344c-13.905-12.652-29.609-23.125-47.476-28.668c-9.011-2.797-14.903-8-21.014-13.974
		c-1.907-1.864-3.838-3.708-5.649-5.663c-4.739-5.111-10.558-7.81-17.487-8.575c-4.541-0.501-9.018-1.6-11.725-2.099
		c-8.175-15.313-15.502-29.036-22.758-42.625c0-13.13,0-26.649,0-40.259c3.441-3.134,6.266-5.994,9.41-8.442
		c1.412-1.098,3.471-1.94,5.229-1.928c12.308,0.082,24.615,0.358,36.92,0.688c15.087,0.404,28.701-4.143,41.729-11.46
		c12.435-6.985,21.793-17.376,31.805-27.112c7.274-7.076,12.86-15.265,16.51-24.665c3.729-9.605,7.674-19.205,10.363-29.121
		c6.358-23.445,12.299-47.022,10.305-71.724c-0.927-11.475-1.509-22.979-2.261-34.664c13.648-6.465,27.552-13.326,41.687-19.672
		c16.031-7.199,31.424-15.405,45.956-25.351c12.338-8.443,25.64-15.531,37.655-24.384c17.659-13.011,34.38-27.289,51.818-40.608
		c20.451-15.62,39.899-32.153,54.743-53.488c1.672-2.402,4.102-4.28,6.204-6.375c22.868-22.786,45.771-45.472,63.884-72.523
		c11.633-17.372,19.198-35.305,17.214-56.886c-0.777-8.457-1.164-16.547-6.403-23.427c-8.116-10.656-16.714-21.068-31.455-22.101
		c-20.21-1.416-40.453-3.3-60.683-3.321c-44.276-0.044-88.538-0.436-132.84,1.425c-41.92,1.759-83.973,0.372-125.965,0.346
		c-1.31-0.001-2.619-0.263-4.105-0.422c-0.972-1.797-2.098-3.444-2.81-5.255c-10.753-27.381-21.542-54.751-32.123-82.199
		c-4.753-12.327-8.667-24.986-13.68-37.198c-5.908-14.389-13.078-28.143-24.688-39.01c-5.804-5.433-11.668-10.812-17.282-16.437
		c-6.578-6.592-12.682-13.668-19.421-20.083c-6.657-6.336-15.061-10.486-23.909-11.698c-22.87-3.132-46.034-3.48-68.338,2.976
		c-28.987,8.391-58.295,16.268-84.784,31.588c-1.907,1.103-5.185,1.376-7.179,0.523c-9.149-3.912-18.578-7.549-26.952-12.806
		c-13.068-8.203-27.549-11.32-42.214-14.227c-8.141-1.614-16.49-2.316-24.517-4.337c-17.482-4.403-35.239-6.495-53.166-7.299
		c-17.323-0.776-34.515,1.941-51.729,2.632c-22.741,0.913-41.418,8.802-56.724,24.938c-16.241,17.122-32.082,34.633-47.777,52.261
		c-6.394,7.181-12.092,15.003-17.831,22.738c-4.751,6.404-8.729,13.404-13.692,19.628c-14.107,17.688-28.249,35.313-37.696,56.119
		c-0.41,0.901-1.154,1.654-1.542,2.563c-2.29,5.354-6.658,6.884-12.068,7.059c-30.247,0.982-60.498,1.914-90.734,3.175
		c-16.931,0.707-33.883,1.543-50.742,3.176c-20.863,2.02-41.659,4.51-62.684,3.672c-5.657-0.226-11.416-0.628-16.981,0.127
		c-36.517,4.957-73.445,6.963-109.427,15.819c-19.05,4.689-35.257,13.576-47.867,28.688c-3.946,4.727-6.193,10.171-6.118,16.474
		c0.076,6.331,0.197,12.671-0.047,18.994c-0.179,4.619,1.047,8.418,4.321,11.742c7.242,7.352,14.513,14.688,21.473,22.303
		c20.953,22.921,44.28,43.12,69.47,61.22c6.079,4.368,12.131,8.771,18.145,13.122c-2.606,3.406-6.183,5.952-6.322,8.671
		c-0.372,7.328-5.109,11.375-9.887,15.123c-8.891,6.975-13.12,15.469-11.293,26.767c0.097,0.598-0.296,1.275-0.002,0.132
		c-6.48,5.954-11.668,11.022-17.189,15.696c-4.188,3.544-5.565,7.687-5.429,13.109c0.476,18.975,0.621,37.958,0.719,56.938
		c0.026,4.965,1.299,9.162,5.115,12.465c1.005,0.87,2.027,1.775,2.818,2.832c6.993,9.34,16.082,12.986,27.817,11.859
		c8.888-0.854,17.923-0.169,26.477-0.169c1.103,2.158,1.62,3.82,2.642,5.065c9.854,12.002,20.74,21.112,38.171,18.333
		c8.422-1.344,17.339,0.509,24.604-5.812c1.133-0.986,3.035-1.361,4.627-1.503c11.833-1.058,23.667-2.208,35.527-2.842
		c4.617-0.247,8.355-1.339,11.54-4.776c3.572-3.857,7.436-7.443,11.309-11.282c5.131,2.741,9.514,5.077,13.893,7.423
		c15.515,8.31,30.855,16.974,46.645,24.725c4.843,2.377,7.156,5.814,8.581,10.16c4.417,13.469,8.474,27.055,12.643,40.507
		c-5.504,0-11.05,0.071-16.592-0.016c-9.316-0.146-18.63-0.588-27.945-0.561c-25.208,0.074-50.607-1.887-75.102,6.486
		c-4.384,1.499-8.718,3.178-13.177,4.406c-2.441,0.672-5.162,1.073-7.641,0.739c-15.146-2.037-30.25-4.388-45.385-6.507
		c-31.656-4.429-63.54-5.9-95.439-6.409c-21.621-0.345-43.262,0.904-64.895,0.924c-33.326,0.029-66.372,3.435-99.373,7.49
		c-61.848,7.598-122.092,22.085-181.532,40.719c-25.682,8.052-50.225,19.073-76.345,26.044
		c-46.167,12.319-89.504,32.104-131.269,55.164c-75.11,41.473-139.402,96.501-196.795,159.721
		c-29.071,32.022-55.569,66.257-77.897,103.432c-11.968,19.928-23.092,40.369-34.333,60.725c-5.289,9.577-9.99,19.48-14.881,29.274
		c-2.19,4.385-4.864,8.676-6.163,13.333c-5.534,19.839-3.954,40.241-4.184,60.5c-0.194,17.012,5.086,32.021,15.938,45.065
		c7.412,8.91,14.93,17.73,21.942,26.046c-2.034,8.166-4.916,15.749-5.617,23.527c-0.952,10.58-1.05,21.392,0.032,31.946
		c0.793,7.742,2.139,16.745,6.656,22.507c8.529,10.881,18.083,21.519,30.56,28.375c11.065,6.08,22.342,11.842,33.853,17.016
		c5.664,2.546,12.002,4.486,18.153,4.879c14.604,0.936,29.282,0.637,43.92,1.116c14.399,0.473,28.61-0.281,42.439-4.751
		c0.492-0.159,1.19,0.32,1.822,0.511c7.312,18.311,19.384,30.71,40.356,31.063c17.458,0.294,35.398,3.254,51.207-7.886
		c2.364-1.667,5.467-2.399,8.325-3.231c13.149-3.83,24.105-11.014,33.215-21.176c4.443-4.955,9.478-9.438,13.487-14.711
		c8.711-11.455,16.174-23.785,18.001-38.366c2.31-18.429,4.531-36.918,5.495-55.449c1.055-20.276,0.521-40.63,0.886-60.945
		c0.342-19.085-2.298-37.832-6.795-56.26c-2.016-8.255-4.202-17.355-9.222-23.806c-10.574-13.583-21.989-26.458-30.133-42.938
		c3.829-4.82,7.475-10.987,12.582-15.5c9.934-8.776,20.046-17.651,31.236-24.642c23.393-14.613,47.604-27.907,71.343-41.973
		c19.027-11.276,39.343-19.125,60.576-25.19c16.913-4.83,33.916-9.976,49.95-17.081c16.229-7.19,33.083-11.562,50.005-16.203
		c16.315-4.475,32.904-8.408,48.603-14.547c15.57-6.088,31.202-11.522,47.617-14.272c16.578-2.778,33.194-6.059,49.965,0.209
		c8.653,3.234,17.979,3.496,27.32,3.291c11.289-0.247,22.706-0.412,33.881,0.932c47.921,5.764,94.831,17.114,142.074,26.609
		c8.911,1.792,17.685,4.267,27.176,6.585c-14.511,35.338-27.815,69.779-42.695,103.524
		c-26.181,59.371-49.311,119.932-69.919,181.365c-16.695,49.772-30.071,100.649-45.767,150.77
		c-8.024,25.626-9.565,51.375-6.546,77.739c0.59,5.153,1.881,9.673,6.099,13.145c2.816,2.319,4.99,5.447,7.896,7.617
		c2.217,1.654,5.068,3.134,7.753,3.371c11.249,0.989,22.543,1.451,33.817,2.165c9.176,0.581,18.347,1.246,28.187,1.92
		c0,14.103,0,27.504,0,41.352c-7.225-1.165-13.758-2.302-20.317-3.262c-34.535-5.052-69.039-10.332-103.625-15.007
		c-34.565-4.673-69.143-9.45-103.846-12.835c-31.068-3.031-62.295-4.595-93.486-6.137c-35.2-1.74-70.43-3.526-105.661-3.869
		c-58.915-0.573-117.823-0.367-176.729,2.641c-35.316,1.805-70.095,6.34-104.843,12.415
		c-57.674,10.084-108.808,33.998-154.348,70.517c-24.194,19.402-47.068,40.188-67.551,63.479
		c-13.838,15.733-26.352,32.466-37.33,50.409c-16.79,27.44-27.733,57.49-39.235,87.212c-7.297,18.856-12.552,38.556-17.896,58.104
		c-12.844,46.985-20.65,94.732-20.116,143.627c0.139,12.663,0.002,25.329,0.025,37.993c0.042,22.658,2.656,45.039,6.888,67.283
		c7.568,39.782,20.617,77.735,38.012,114.208c2.421,5.078,2.399,9.056,0.023,13.974c-3.604,7.461-6.801,15.165-9.538,22.988
		c-4.61,13.182-8.892,26.484-12.959,39.843c-1.536,5.045-2.831,10.368-2.958,15.596c-0.385,15.654-0.377,31.329-0.067,46.987
		c0.272,13.805,4.756,26.293,14.892,35.915c8.65,8.214,17.879,15.855,27.205,23.309c6.984,5.58,11.218,11.835,9.212,21.193
		c-0.619,2.889-0.752,5.94-0.679,8.907c0.371,14.955,0.735,29.912,1.382,44.856c0.881,20.395,5.006,40.115,12.22,59.269
		c4.528,12.022,10.544,22.635,20.242,31.471c15.735,14.335,34.592,21.474,55.027,23.097c15.453,1.227,31.182-1.029,46.788-1.712
		c1.862-0.082,3.731-0.012,7.169-0.012c-3.086,6.737-0.933,13.736-7.83,18.286c-21.937,14.472-43.267,29.884-65.483,43.9
		c-20.572,12.979-42.238,23.953-66.909,27.28c-4.922,0.664-9.742,2.066-14.62,3.077c-22.789,4.721-45.481,9.565-69.064,8.891
		c-14.242-0.408-28.598,0.58-42.803,1.966c-36.032,3.515-68.449,16.156-95.735,40.429c-8.201,7.296-16.047,15.085-23.331,23.291
		c-5.913,6.663-12.486,13.597-15.671,21.636c-5.84,14.743-10.486,30.169-13.65,45.713c-4.657,22.877-4.123,46.288-3.704,69.56
		c0.415,22.99,2.54,45.796,10.076,67.703c1.45,4.214,4.373,7.992,6.973,11.723c3.957,5.676,9.316,10.643,12.096,16.806
		c3.867,8.57,10.427,14.456,16.531,20.974c2.702,2.885,5.756,3.958,9.715,4.023c32.609,0.54,65.219,1.146,97.821,1.981
		c17.615,0.451,35.247,0.974,52.82,2.197c29.917,2.084,59.84,2.577,89.729,0.47c39.223-2.768,77.951-8.896,115.309-21.537
		c21.708-7.345,43.442-14.947,64.328-24.301c23.13-10.359,44.182-24.411,62.066-42.799c10.9-11.206,22.219-21.916,30.626-35.367
		c10.541-16.868,26.933-28.265,40.209-42.409c9.479,6.582,9.497,6.162,21.705,6.693c13.899,0.605,26.973-1.33,39.591-7.636
		c14.262-7.127,28.962-13.379,43.477-19.998c3.22-1.468,6.466-2.879,9.551-4.252c1.635,7.379,1.468,15.176,4.966,20.617
		c7.096,11.037,16.509,20.017,31.669,18.38c5.173-0.56,10.458-0.089,16.604-0.089c-1.386,7.528-2.418,13.675-3.657,19.777
		c-5.815,28.663-11.131,57.402-12.458,86.703c-0.767,16.935-1.215,33.885-1.911,50.824c-1.313,31.945-1.195,63.841,3.585,95.545
		c2.327,15.424,4.525,30.893,7.633,46.168c4.632,22.781,15.067,43.408,26.575,63.263c22.018,37.989,44.771,75.557,67.544,113.103
		c17.189,28.341,38.592,53.354,62.333,76.394c5.716,5.546,11.937,10.575,17.591,16.18c15.114,14.982,29.081,31.308,45.366,44.863
		c12.345,10.273,27.553,17.109,41.487,25.475c11.581,0.422,23.16,0.857,34.742,1.227c0.593,0.019,1.292-0.424,1.792-0.834
		c4.874-4.008,11.126-6.011,15.982-9.51c12.588-9.07,25.516-18.446,33.382-32.279c4.231-7.442,9.903-13.218,15.688-19.13
		c6.106-6.24,11.111-13.144,13.686-21.652c0.653-2.159,1.923-4.183,3.168-6.101c4.893-7.536,10.243-14.8,14.728-22.567
		c3.121-5.405,6.156-11.247,7.406-17.272c4.157-20.036,2.844-40.399,2.073-60.669c-0.188-4.934-0.693-10.073-2.279-14.698
		c-6.348-18.519-12.183-37.222-22.159-54.348c-8.192-14.064-16.625-28.209-22.75-43.216
		c-16.222-39.741-34.419-78.588-51.658-117.866c-8.15-18.57-16.57-37.053-23.839-55.971c-3.639-9.469-4.972-19.824-7.381-29.914
		c3.277-1.728,5.539-2.918,8.438-4.447c2.535,12.42,6.729,23.456,14.235,33.136c8.349,10.769,16.04,22.048,24.438,32.774
		c6.951,8.878,14.114,17.657,21.879,25.816c20.956,22.017,46.585,37.45,73.757,50.398c5.902,2.812,12.613,5.007,19.071,5.374
		c18.259,1.038,36.616,1.87,54.869,1.154c31.04-1.218,61.271-7.695,90.975-16.732c14.73-4.481,28.688-10.458,41.451-19.162
		c2.435-1.661,5.217-2.951,8.008-3.933c18.509-6.509,37.173-12.643,53.464-24.079c0.803-0.563,1.838-0.784,2.707-1.271
		c13.912-7.78,28.233-14.934,41.589-23.578c10.698-6.923,21.305-10.922,34.339-10.282c41.873,2.054,83.024-3.92,123.318-14.705
		c36.208-9.69,72.05-20.8,107.884-31.831c44.242-13.619,87.3-30.624,129.155-50.209c43.397-20.307,87.263-39.388,131.628-57.411
		c22.15-8.998,44.621-17.406,66.095-27.834c45.583-22.14,31.998-12.988,66.478-47.955c29.081-29.491,51.463-63.558,64.171-103.336
		c6.535-20.455,12.177-41.195,18.533-61.71c6.136-19.807,8.873-40.191,9.865-60.729c0.979-20.282,1.021-40.638,0.669-60.946
		c-0.355-20.594-1.239-41.204-2.737-61.744c-1.349-18.479-3.386-36.939-5.949-55.29c-3.204-22.94-6.949-45.818-11.048-68.617
		c-2.87-15.959-6.479-31.799-10.207-47.586c-3.271-13.858-7.149-27.574-10.803-41.342c-0.936-3.524-2.343-6.945-3.013-10.513
		c-3.618-19.255-7.326-38.5-10.538-57.824c-9.984-60.104-23.592-119.262-44.04-176.775c-14.632-41.155-31.497-81.347-53.229-119.199
		c-9.704-16.899-22.629-31.958-34.179-47.789c-21.919-30.043-47.385-56.529-79.054-78.333c1.954-20.441-2.986-41.842,3.979-62.743
		c1.447-4.344,2.136-9.126,2.191-13.719c0.323-26.926,1.051-53.893-4.541-80.499c-0.594-2.823-0.663-5.756-1.057-9.383
		c3.129,0.814,5.411,1.15,7.488,1.989c18.491,7.47,37.328,14.222,55.32,22.751c26.803,12.704,53.995,24.25,82.313,33.053
		c26.965,8.383,54.187,12.56,82.254,5.165c15.446-4.07,28.799-18.192,30.212-34.235c1.166-13.224,1.965-26.527,2-39.798
		c0.19-70.988,0.083-141.978,0.109-212.967c0.001-3.49,0.29-6.98,0.487-11.434c2.226,1.277,3.345,1.836,4.376,2.524
		c15.52,10.358,31.405,20.057,48.677,27.298c9.203,3.858,17.906,8.36,25.875,14.682c6.688,5.305,14.66,8.171,23.993,7.596
		c13.612-0.839,27.326-0.554,40.978-0.122c13.763,0.436,27.222-1.138,40.547-4.29c5.496-1.301,10.883-3.086,16.402-4.25
		c17.149-3.612,33.108-10.254,47.526-20.014c32.605-22.067,62.25-47.456,89.546-76.072c32.771-34.357,62.443-70.81,87.351-111.19
		c12.919-20.944,26.399-41.511,42.24-60.414c1.416-1.69,3.266-3.017,3.717-3.426c10.429,2.408,19.341,5.396,28.464,6.328
		c10.559,1.079,21.328-0.124,31.958,0.491c32.598,1.888,58.197-13.396,81.856-33.132c7.901-6.591,15.389-13.946,21.847-21.938
		c9.396-11.628,17.943-24.044,18.231-39.99c0.204-11.321,0.213-22.647,0.53-33.965c0.307-10.911-1.982-21.247-7.191-30.725
		c-2.39-4.348-1.972-7.646-0.104-12.004c3.523-8.224,7.191-16.645,8.849-25.355c3.791-19.925,4.671-40.051,2.689-60.411
		c-2.315-23.79-3.129-47.722-5.056-71.555c-0.8-9.889-1.976-19.903-4.555-29.434c-1.545-5.708-1.154-9.889,1.468-14.965
		c7.173-13.883,13.353-28.122,16.028-43.795c3.825-22.411,3.497-44.886,2.63-67.446c22.727-14.841,45.459-29.686,67.347-43.978
		c11.638,11.659,22.653,22.271,33.139,33.382c4.952,5.247,10.174,8.18,17.505,7.36c3.882-0.435,7.851-0.077,12.201-0.077
		c1.86,6.24,3.437,11.61,5.063,16.965c3.78,12.449,7.73,24.921,16.293,35.037c5.581,6.593,12.365,12.164,17.998,18.719
		c9.256,10.776,21.284,16.28,34.832,17.499c11.523,1.037,23.246,0.057,34.869-0.357c3.597-0.128,7.23-1.068,10.718-2.082
		c11.229-3.263,18.19-12.348,24.87-20.725c3.084-3.866,1.859-11.285,2.281-17.115c0.287-3.978,0.255-8.011-0.039-11.989
		c-0.189-2.585-0.314-5.801-1.83-7.559c-7.853-9.101-14.459-20.736-29.632-17.511c-6.182,1.314-10.247-1.86-13.174-6.575
		c-4.422-7.124-7.48-14.865-7.842-23.365c-0.299-7.027,0.69-9.054,7.545-11.001c17.375-4.938,34.654-8.801,52.359,0.104
		c14.549,7.318,30.641,4.612,46.211,4.673c6.667-5.897,13.337-11.79,19.991-17.702c0.745-0.661,1.561-1.333,2.055-2.17
		c0.829-1.408,2.031-2.955,2.027-4.44c-0.031-12.923,2.821-26.205-1.903-38.64c-4.441-11.691-1.282-23.146-2.445-35.417
		c9.233,10.366,17.174,20.051,25.918,28.946c23.59,24,23.906,23.815,57.797,23.675c7.473-0.03,12.959-2.519,18.616-7.57
		c8.175-7.298,12.184-15.27,10.439-26.14c-0.416-2.599-0.368-5.365-0.007-7.981c1.377-9.961-2.066-18.241-8.446-25.597
		c-1.739-2.005-3.448-4.036-5.203-6.027c-10.224-11.599-18.621-24.171-22.11-39.578c-1.316-5.812-0.586-10.769,2.208-16.204
		c2.778-5.401,4.756-11.65,5.269-17.681c0.846-9.927-0.021-19.986,0.32-29.973c0.203-5.905,0.602-11.991,2.225-17.616
		c2.667-9.235,5.945-18.361,9.796-27.169c5.385-12.314,12.658-23.538,24.186-31.052c13.353-8.704,26.949-17.042,40.586-25.298
		c14.768-8.94,29.882-17.317,44.477-26.525c5.835-3.682,10.601-8.817,17.853-10.352c3.026-0.641,5.853-3.125,8.344-5.266
		c19.802-17.022,19.771-17.059,19.757-43.062c-0.001-2,0.459-4.142-0.104-5.969c-1.123-3.65-2.423-7.359-4.384-10.601
		c-1.506-2.489-4.384-4.104-6.215-6.449c-4.298-5.497-9.761-7.374-16.618-6.867c-11.571,0.854-23.237,2.297-34.748,1.592
		c-12.875-0.789-25.929-2.554-38.36-5.907c-29.104-7.852-55.722-21.51-80.711-38.234c-3.708-2.482-7.294-6.258-9.102-10.264
		c-5.457-12.096-11.044-24.308-14.625-37.026c-3.521-12.508-3.552-25.581,2.582-37.867c4.014-8.039,8.297-15.991,11.619-24.317
		c5.084-12.74,3.021-25.974,1.303-39.073c-0.079-0.61-0.558-1.219-0.973-1.727c-8.045-9.819-15.658-18.087-30.984-17.719
		c-15.065,0.362-27.093,2.811-36.359,15.318c-2.633,3.554-7.007,6.036-10.965,8.354c-18.938,11.09-38.324,21.446-56.931,33.056
		c-15.572,9.718-31.361,18.751-48.285,25.92c-4.421,1.872-8.267,2-12.48,0.814c-11.309-3.18-19.723-14.281-18.252-27.561
		c1.869-16.869,5.646-33.823,14.998-48.206c4.376-6.729,5.93-12.917,5.667-20.317c-0.143-3.994-0.454-8.054,0.063-11.985
		c1.152-8.775-2.673-14.749-8.51-21.063c-6.979-7.549-14.348-11.049-24.494-9.799c-5.254,0.647-10.668-0.127-15.976,0.243
		c-2.473,0.172-5.506,0.87-7.181,2.478c-8.377,8.036-16.773,15.924-22.379,26.563c-7.819,14.84-12.422,30.665-16.586,47.163
		c-4.774,0-9.292,0-13.646,0c-0.704-1.655-1.31-2.852-1.731-4.108c-4.81-14.337-13.943-25.608-25.278-35.215
		c-2.181-1.848-5.104-3.785-7.775-3.924c-11.95-0.621-23.934-0.605-35.905-0.819c-6.342,5.807-12.685,11.613-19.024,17.421
		c-0.245,0.225-0.472,0.471-0.705,0.709c-3.384,3.469-5.017,7.38-4.993,12.468c0.039,8.945-0.897,17.889-1.153,26.842
		c-0.83,29.034-6.079,57.414-12.53,85.615c-0.493,2.155-1.586,4.171-2.795,7.266c-1.313-3.934-2.55-6.688-3.146-9.575
		c-3.946-19.125-7.728-38.283-11.647-57.413c-0.381-1.858-0.949-3.902-2.085-5.344c-7.964-10.12-17.527-17.069-31.383-15.462
		c-3.618,0.419-7.419,0.591-10.975-0.033c-11.9-2.093-19.848,3.455-27.739,11.672c-8.427,8.774-12.779,18.36-12.416,30.356
		c0.313,10.313,0.54,20.629,0.661,30.945c0.367,31.377,8.814,60.963,20.158,89.842c2.739,6.977,6.778,13.443,10.792,21.256
		c-4.842,0-8.424-0.001-12.006,0.001c-20.277,0.008-20.3-0.012-33.144,15.009c-1.701,1.989-3.024,4.301-5.094,7.291
		c-13.231-4.424-20.197,5.423-27.773,13.681c-1.825,1.991-3.38,5.115-3.409,7.735c-0.304,26.895-0.543,53.821,9.953,79.386
		c2.374,5.78,4.065,11.875,6.809,17.463C2883.068,518.563,2897.272,531.956,2912.935,544.521z M1218.559,1653.841
		c3.329,0,6.692-0.302,9.98,0.067c5.764,0.647,9.637-1.868,14.067-5.451c10.167-8.221,14.391-17.776,13.246-31.031
		c-0.696-8.051-2.149-14.188-8.163-20.158c-6.2-6.155-12.417-9.491-21.031-8.314c-1.635,0.224-3.352,0.224-4.986,0.002
		c-14.302-1.938-25.099,3.757-33.807,14.813c-4.331,5.499-5.548,31.648-1.104,36.985c7.22,8.671,15.019,16.16,27.812,13.126
		C1215.833,1653.582,1217.227,1653.842,1218.559,1653.841z"/>
	<path fill-rule="evenodd" d="M2912.935,544.521c-15.662-12.565-29.866-25.958-38.696-43.945
		c-2.743-5.588-4.435-11.683-6.809-17.463c-10.496-25.565-10.257-52.491-9.953-79.386c0.029-2.621,1.584-5.744,3.409-7.735
		c7.576-8.258,14.542-18.105,27.773-13.681c2.069-2.99,3.393-5.302,5.094-7.291c12.844-15.021,12.866-15.001,33.144-15.009
		c3.582-0.002,7.164-0.001,12.006-0.001c-4.014-7.813-8.053-14.28-10.792-21.256c-11.344-28.879-19.791-58.465-20.158-89.842
		c-0.121-10.316-0.349-20.633-0.661-30.945c-0.363-11.997,3.989-21.582,12.416-30.356c7.892-8.218,15.839-13.766,27.739-11.672
		c3.556,0.625,7.356,0.452,10.975,0.033c13.855-1.607,23.419,5.342,31.383,15.462c1.136,1.442,1.704,3.486,2.085,5.344
		c3.92,19.129,7.701,38.288,11.647,57.413c0.596,2.886,1.832,5.641,3.146,9.575c1.209-3.094,2.302-5.11,2.795-7.266
		c6.451-28.201,11.7-56.581,12.53-85.615c0.256-8.953,1.192-17.897,1.153-26.842c-0.023-5.088,1.609-9,4.993-12.468
		c0.233-0.238,0.46-0.484,0.705-0.709c6.34-5.809,12.683-11.614,19.024-17.421c11.972,0.214,23.955,0.198,35.905,0.819
		c2.671,0.139,5.595,2.076,7.775,3.924c11.335,9.607,20.469,20.878,25.278,35.215c0.422,1.257,1.027,2.453,1.731,4.108
		c4.354,0,8.871,0,13.646,0c4.164-16.498,8.767-32.323,16.586-47.163c5.605-10.639,14.002-18.526,22.379-26.563
		c1.675-1.608,4.708-2.306,7.181-2.478c5.308-0.37,10.722,0.404,15.976-0.243c10.146-1.25,17.515,2.25,24.494,9.799
		c5.837,6.314,9.662,12.287,8.51,21.063c-0.517,3.932-0.205,7.991-0.063,11.985c0.263,7.399-1.291,13.588-5.667,20.317
		c-9.353,14.382-13.129,31.337-14.998,48.206c-1.471,13.279,6.943,24.381,18.252,27.561c4.214,1.185,8.06,1.057,12.48-0.814
		c16.924-7.169,32.713-16.202,48.285-25.92c18.606-11.61,37.993-21.966,56.931-33.056c3.958-2.318,8.332-4.799,10.965-8.354
		c9.267-12.507,21.294-14.956,36.359-15.318c15.326-0.368,22.939,7.9,30.984,17.719c0.415,0.508,0.894,1.116,0.973,1.727
		c1.718,13.1,3.781,26.333-1.303,39.073c-3.322,8.326-7.605,16.278-11.619,24.317c-6.134,12.286-6.104,25.359-2.582,37.867
		c3.581,12.718,9.168,24.931,14.625,37.026c1.808,4.006,5.394,7.781,9.102,10.264c24.989,16.725,51.606,30.383,80.711,38.234
		c12.432,3.353,25.485,5.119,38.36,5.907c11.511,0.705,23.177-0.738,34.748-1.592c6.857-0.507,12.32,1.37,16.618,6.867
		c1.831,2.345,4.709,3.959,6.215,6.449c1.961,3.242,3.261,6.951,4.384,10.601c0.563,1.827,0.103,3.969,0.104,5.969
		c0.014,26.003,0.045,26.04-19.757,43.062c-2.491,2.142-5.317,4.625-8.344,5.266c-7.252,1.535-12.018,6.67-17.853,10.352
		c-14.595,9.208-29.709,17.585-44.477,26.525c-13.637,8.256-27.233,16.594-40.586,25.298c-11.527,7.514-18.801,18.738-24.186,31.052
		c-3.851,8.809-7.129,17.934-9.796,27.169c-1.623,5.625-2.021,11.711-2.225,17.616c-0.342,9.987,0.525,20.046-0.32,29.973
		c-0.513,6.031-2.49,12.28-5.269,17.681c-2.794,5.435-3.524,10.393-2.208,16.204c3.489,15.407,11.887,27.979,22.11,39.578
		c1.755,1.991,3.464,4.022,5.203,6.027c6.38,7.356,9.823,15.636,8.446,25.597c-0.361,2.617-0.409,5.382,0.007,7.981
		c1.744,10.871-2.265,18.842-10.439,26.14c-5.657,5.051-11.144,7.54-18.616,7.57c-33.891,0.141-34.207,0.325-57.797-23.675
		c-8.744-8.896-16.685-18.581-25.918-28.946c1.163,12.271-1.996,23.727,2.445,35.417c4.725,12.435,1.872,25.716,1.903,38.64
		c0.004,1.485-1.198,3.032-2.027,4.44c-0.494,0.838-1.31,1.509-2.055,2.17c-6.654,5.912-13.324,11.804-19.991,17.702
		c-15.57-0.061-31.662,2.646-46.211-4.673c-17.705-8.905-34.984-5.042-52.359-0.104c-6.854,1.948-7.844,3.974-7.545,11.001
		c0.361,8.5,3.42,16.241,7.842,23.365c2.927,4.715,6.992,7.89,13.174,6.575c15.173-3.225,21.779,8.41,29.632,17.511
		c1.516,1.757,1.641,4.973,1.83,7.559c0.294,3.978,0.326,8.011,0.039,11.989c-0.422,5.83,0.803,13.249-2.281,17.115
		c-6.68,8.376-13.641,17.461-24.87,20.725c-3.487,1.014-7.121,1.954-10.718,2.082c-11.623,0.414-23.346,1.394-34.869,0.357
		c-13.548-1.219-25.576-6.723-34.832-17.499c-5.633-6.556-12.417-12.126-17.998-18.719c-8.563-10.115-12.513-22.587-16.293-35.037
		c-1.627-5.355-3.203-10.725-5.063-16.965c-4.351,0-8.319-0.357-12.201,0.077c-7.331,0.819-12.553-2.113-17.505-7.36
		c-10.485-11.111-21.501-21.723-33.139-33.382c-21.888,14.292-44.62,29.137-67.347,43.978c0.867,22.56,1.195,45.035-2.63,67.446
		c-2.676,15.674-8.855,29.912-16.028,43.795c-2.622,5.076-3.013,9.256-1.468,14.965c2.579,9.531,3.755,19.544,4.555,29.434
		c1.927,23.833,2.74,47.765,5.056,71.555c1.981,20.36,1.102,40.486-2.689,60.411c-1.657,8.71-5.325,17.131-8.849,25.355
		c-1.867,4.359-2.285,7.656,0.104,12.004c5.209,9.478,7.498,19.814,7.191,30.725c-0.317,11.318-0.326,22.645-0.53,33.965
		c-0.288,15.946-8.836,28.362-18.231,39.99c-6.458,7.991-13.945,15.347-21.847,21.938c-23.659,19.736-49.259,35.02-81.856,33.132
		c-10.63-0.615-21.399,0.588-31.958-0.491c-9.123-0.933-18.035-3.92-28.464-6.328c-0.451,0.409-2.301,1.736-3.717,3.426
		c-15.841,18.903-29.321,39.47-42.24,60.414c-24.907,40.381-54.58,76.833-87.351,111.19c-27.296,28.616-56.94,54.005-89.546,76.072
		c-14.418,9.76-30.377,16.402-47.526,20.014c-5.52,1.163-10.906,2.949-16.402,4.25c-13.325,3.152-26.784,4.725-40.547,4.29
		c-13.651-0.432-27.365-0.717-40.978,0.122c-9.333,0.575-17.305-2.291-23.993-7.596c-7.969-6.322-16.672-10.824-25.875-14.682
		c-17.271-7.242-33.157-16.94-48.677-27.298c-1.031-0.688-2.15-1.247-4.376-2.524c-0.197,4.454-0.486,7.944-0.487,11.434
		c-0.026,70.989,0.081,141.979-0.109,212.967c-0.035,13.271-0.834,26.574-2,39.798c-1.413,16.042-14.766,30.165-30.212,34.235
		c-28.067,7.396-55.289,3.218-82.254-5.165c-28.317-8.803-55.51-20.349-82.313-33.053c-17.992-8.529-36.829-15.281-55.32-22.751
		c-2.077-0.838-4.359-1.174-7.488-1.989c0.394,3.626,0.463,6.56,1.057,9.383c5.592,26.606,4.864,53.572,4.541,80.499
		c-0.056,4.592-0.744,9.375-2.191,13.719c-6.966,20.901-2.025,42.301-3.979,62.743c31.669,21.804,57.135,48.29,79.054,78.333
		c11.55,15.831,24.475,30.89,34.179,47.789c21.732,37.853,38.598,78.044,53.229,119.199c20.448,57.514,34.056,116.672,44.04,176.775
		c3.212,19.324,6.92,38.569,10.538,57.824c0.67,3.567,2.077,6.988,3.013,10.513c3.653,13.768,7.531,27.483,10.803,41.342
		c3.728,15.787,7.337,31.627,10.207,47.586c4.099,22.799,7.844,45.677,11.048,68.617c2.563,18.351,4.601,36.811,5.949,55.29
		c1.498,20.54,2.382,41.15,2.737,61.744c0.352,20.309,0.311,40.664-0.669,60.946c-0.992,20.538-3.729,40.923-9.865,60.729
		c-6.356,20.515-11.998,41.255-18.533,61.71c-12.708,39.778-35.09,73.845-64.171,103.336
		c-34.479,34.967-20.895,25.815-66.478,47.955c-21.474,10.428-43.944,18.836-66.095,27.834
		c-44.365,18.023-88.23,37.104-131.628,57.411c-41.855,19.585-84.913,36.59-129.155,50.209
		c-35.834,11.031-71.676,22.141-107.884,31.831c-40.294,10.785-81.446,16.759-123.318,14.705
		c-13.035-0.64-23.642,3.359-34.339,10.282c-13.356,8.645-27.677,15.798-41.589,23.578c-0.869,0.486-1.904,0.707-2.707,1.271
		c-16.291,11.437-34.955,17.57-53.464,24.079c-2.791,0.981-5.573,2.271-8.008,3.933c-12.763,8.704-26.72,14.681-41.451,19.162
		c-29.704,9.037-59.935,15.515-90.975,16.732c-18.253,0.716-36.61-0.116-54.869-1.154c-6.458-0.367-13.168-2.563-19.071-5.374
		c-27.172-12.948-52.801-28.382-73.757-50.398c-7.766-8.159-14.929-16.938-21.879-25.816c-8.398-10.727-16.089-22.006-24.438-32.774
		c-7.506-9.68-11.7-20.716-14.235-33.136c-2.9,1.529-5.161,2.72-8.438,4.447c2.409,10.09,3.742,20.445,7.381,29.914
		c7.27,18.918,15.689,37.4,23.839,55.971c17.238,39.278,35.436,78.125,51.658,117.866c6.125,15.007,14.558,29.151,22.75,43.216
		c9.976,17.126,15.811,35.829,22.159,54.348c1.585,4.625,2.09,9.765,2.279,14.698c0.771,20.27,2.084,40.633-2.073,60.669
		c-1.25,6.025-4.286,11.867-7.406,17.272c-4.485,7.768-9.835,15.031-14.728,22.567c-1.246,1.918-2.515,3.941-3.168,6.101
		c-2.575,8.509-7.579,15.412-13.686,21.652c-5.786,5.912-11.458,11.688-15.688,19.13c-7.866,13.833-20.793,23.209-33.382,32.279
		c-4.856,3.499-11.109,5.502-15.982,9.51c-0.499,0.41-1.199,0.853-1.792,0.834c-11.582-0.369-23.161-0.805-34.742-1.227
		c-13.934-8.365-29.142-15.201-41.487-25.475c-16.286-13.556-30.252-29.881-45.366-44.863c-5.654-5.604-11.875-10.634-17.591-16.18
		c-23.741-23.039-45.144-48.053-62.333-76.394c-22.773-37.546-45.526-75.113-67.544-113.103
		c-11.507-19.854-21.942-40.481-26.575-63.263c-3.107-15.275-5.306-30.744-7.633-46.168c-4.781-31.704-4.899-63.6-3.585-95.545
		c0.696-16.939,1.144-33.89,1.911-50.824c1.327-29.301,6.644-58.04,12.458-86.703c1.238-6.103,2.271-12.249,3.657-19.777
		c-6.146,0-11.43-0.471-16.604,0.089c-15.16,1.637-24.573-7.343-31.669-18.38c-3.499-5.441-3.332-13.238-4.966-20.617
		c-3.085,1.373-6.331,2.784-9.551,4.252c-14.515,6.619-29.215,12.871-43.477,19.998c-12.618,6.306-25.692,8.241-39.591,7.636
		c-12.208-0.531-12.226-0.111-21.705-6.693c-13.276,14.145-29.668,25.541-40.209,42.409c-8.407,13.451-19.726,24.161-30.626,35.367
		c-17.884,18.388-38.937,32.439-62.066,42.799c-20.886,9.354-42.62,16.956-64.328,24.301
		c-37.357,12.642-76.086,18.77-115.309,21.537c-29.889,2.107-59.812,1.614-89.729-0.47c-17.573-1.224-35.205-1.746-52.82-2.197
		c-32.603-0.835-65.212-1.441-97.821-1.981c-3.959-0.065-7.013-1.139-9.715-4.023c-6.104-6.518-12.664-12.403-16.531-20.974
		c-2.78-6.163-8.139-11.13-12.096-16.806c-2.6-3.73-5.523-7.509-6.973-11.723c-7.536-21.907-9.662-44.713-10.076-67.703
		c-0.419-23.271-0.954-46.683,3.704-69.56c3.164-15.544,7.81-30.97,13.65-45.713c3.185-8.039,9.758-14.973,15.671-21.636
		c7.284-8.206,15.129-15.995,23.331-23.291c27.286-24.272,59.703-36.914,95.735-40.429c14.205-1.386,28.561-2.374,42.803-1.966
		c23.583,0.675,46.275-4.17,69.064-8.891c4.878-1.011,9.698-2.413,14.62-3.077c24.671-3.327,46.337-14.302,66.909-27.28
		c22.216-14.017,43.546-29.429,65.483-43.9c6.897-4.55,4.744-11.549,7.83-18.286c-3.438,0-5.307-0.07-7.169,0.012
		c-15.606,0.683-31.335,2.938-46.788,1.712c-20.436-1.623-39.292-8.762-55.027-23.097c-9.698-8.836-15.714-19.448-20.242-31.471
		c-7.214-19.153-11.339-38.874-12.22-59.269c-0.646-14.944-1.011-29.901-1.382-44.856c-0.073-2.967,0.06-6.019,0.679-8.907
		c2.006-9.358-2.228-15.613-9.212-21.193c-9.326-7.453-18.554-15.095-27.205-23.309c-10.135-9.622-14.619-22.11-14.892-35.915
		c-0.31-15.658-0.317-31.333,0.067-46.987c0.128-5.228,1.423-10.551,2.958-15.596c4.068-13.358,8.35-26.661,12.959-39.843
		c2.737-7.823,5.934-15.527,9.538-22.988c2.375-4.918,2.398-8.896-0.023-13.974c-17.396-36.473-30.444-74.426-38.012-114.208
		c-4.232-22.244-6.847-44.625-6.888-67.283c-0.023-12.664,0.114-25.33-0.025-37.993c-0.534-48.895,7.271-96.642,20.116-143.627
		c5.344-19.548,10.599-39.247,17.896-58.104c11.502-29.723,22.446-59.772,39.235-87.212c10.978-17.942,23.491-34.675,37.33-50.409
		c20.482-23.291,43.356-44.077,67.551-63.479c45.541-36.519,96.674-60.433,154.348-70.517c34.749-6.074,69.527-10.61,104.843-12.415
		c58.907-3.008,117.814-3.214,176.729-2.641c35.231,0.343,70.461,2.128,105.661,3.869c31.191,1.542,62.418,3.106,93.486,6.137
		c34.704,3.385,69.281,8.162,103.846,12.835c34.585,4.675,69.09,9.955,103.625,15.007c6.559,0.96,13.092,2.098,20.317,3.262
		c0-13.848,0-27.25,0-41.352c-9.84-0.674-19.011-1.339-28.187-1.92c-11.274-0.713-22.568-1.175-33.817-2.165
		c-2.685-0.236-5.536-1.716-7.753-3.371c-2.907-2.17-5.081-5.298-7.896-7.617c-4.217-3.472-5.508-7.992-6.099-13.145
		c-3.02-26.364-1.479-52.113,6.546-77.739c15.695-50.121,29.071-100.998,45.767-150.77c20.608-61.434,43.738-121.995,69.919-181.365
		c14.88-33.745,28.184-68.186,42.695-103.524c-9.492-2.319-18.265-4.793-27.176-6.585c-47.243-9.495-94.152-20.845-142.074-26.609
		c-11.175-1.344-22.592-1.179-33.881-0.932c-9.341,0.205-18.667-0.057-27.32-3.291c-16.771-6.268-33.387-2.987-49.965-0.209
		c-16.415,2.75-32.047,8.184-47.617,14.272c-15.699,6.139-32.288,10.072-48.603,14.547c-16.922,4.641-33.777,9.013-50.005,16.203
		c-16.034,7.104-33.037,12.25-49.95,17.081c-21.233,6.066-41.549,13.915-60.576,25.19c-23.738,14.066-47.95,27.36-71.343,41.973
		c-11.19,6.991-21.303,15.865-31.236,24.642c-5.107,4.513-8.753,10.68-12.582,15.5c8.144,16.479,19.559,29.355,30.133,42.938
		c5.02,6.45,7.206,15.551,9.222,23.806c4.497,18.428,7.137,37.175,6.795,56.26c-0.365,20.315,0.169,40.669-0.886,60.945
		c-0.964,18.531-3.185,37.021-5.495,55.449c-1.828,14.581-9.291,26.912-18.001,38.366c-4.009,5.272-9.044,9.756-13.487,14.711
		c-9.11,10.162-20.066,17.347-33.215,21.176c-2.858,0.832-5.961,1.564-8.325,3.231c-15.809,11.14-33.749,8.18-51.207,7.886
		c-20.972-0.353-33.044-12.751-40.356-31.063c-0.632-0.19-1.33-0.67-1.822-0.511c-13.829,4.47-28.04,5.224-42.439,4.751
		c-14.639-0.479-29.317-0.181-43.92-1.116c-6.15-0.394-12.489-2.333-18.153-4.879c-11.511-5.174-22.788-10.936-33.853-17.016
		c-12.477-6.856-22.031-17.493-30.56-28.375c-4.517-5.762-5.863-14.765-6.656-22.507c-1.082-10.555-0.984-21.367-0.032-31.946
		c0.701-7.778,3.583-15.361,5.617-23.527c-7.012-8.315-14.53-17.136-21.942-26.046c-10.852-13.045-16.133-28.054-15.938-45.065
		c0.23-20.259-1.35-40.661,4.184-60.5c1.299-4.657,3.972-8.947,6.163-13.333c4.891-9.793,9.592-19.697,14.881-29.274
		c11.241-20.355,22.364-40.796,34.333-60.725c22.328-37.175,48.826-71.409,77.897-103.432
		c57.393-63.219,121.685-118.248,196.795-159.721c41.764-23.061,85.102-42.845,131.269-55.164
		c26.12-6.971,50.663-17.992,76.345-26.044c59.44-18.634,119.685-33.122,181.532-40.719c33.001-4.055,66.047-7.461,99.373-7.49
		c21.632-0.02,43.274-1.269,64.895-0.924c31.899,0.509,63.783,1.98,95.439,6.409c15.135,2.119,30.239,4.47,45.385,6.507
		c2.479,0.334,5.199-0.067,7.641-0.739c4.458-1.228,8.792-2.907,13.177-4.406c24.495-8.373,49.894-6.412,75.102-6.486
		c9.314-0.027,18.628,0.415,27.945,0.561c5.542,0.087,11.087,0.016,16.592,0.016c-4.169-13.452-8.227-27.038-12.643-40.507
		c-1.425-4.345-3.738-7.782-8.581-10.16c-15.789-7.751-31.13-16.415-46.645-24.725c-4.378-2.346-8.762-4.682-13.893-7.423
		c-3.873,3.838-7.736,7.425-11.309,11.282c-3.184,3.437-6.923,4.529-11.54,4.776c-11.86,0.635-23.694,1.785-35.527,2.842
		c-1.593,0.143-3.494,0.518-4.627,1.503c-7.266,6.321-16.183,4.468-24.604,5.812c-17.431,2.78-28.317-6.33-38.171-18.333
		c-1.022-1.245-1.539-2.907-2.642-5.065c-8.554,0-17.589-0.685-26.477,0.169c-11.735,1.127-20.824-2.519-27.817-11.859
		c-0.791-1.057-1.813-1.962-2.818-2.832c-3.816-3.303-5.088-7.5-5.115-12.465c-0.099-18.98-0.244-37.964-0.719-56.938
		c-0.137-5.423,1.241-9.565,5.429-13.109c5.521-4.674,10.709-9.742,17.189-15.696c-0.294,1.144,0.099,0.466,0.002-0.132
		c-1.826-11.298,2.403-19.792,11.293-26.767c4.778-3.749,9.515-7.795,9.887-15.123c0.139-2.719,3.715-5.265,6.322-8.671
		c-6.013-4.35-12.066-8.754-18.145-13.122c-25.19-18.1-48.517-38.299-69.47-61.22c-6.96-7.615-14.23-14.951-21.473-22.303
		c-3.274-3.323-4.5-7.123-4.321-11.742c0.244-6.323,0.123-12.663,0.047-18.994c-0.075-6.302,2.172-11.747,6.118-16.474
		c12.61-15.112,28.817-23.999,47.867-28.688c35.982-8.856,72.91-10.863,109.427-15.819c5.566-0.755,11.325-0.353,16.981-0.127
		c21.024,0.838,41.821-1.653,62.684-3.672c16.859-1.633,33.811-2.469,50.742-3.176c30.236-1.262,60.487-2.193,90.734-3.175
		c5.41-0.175,9.778-1.705,12.068-7.059c0.388-0.908,1.132-1.661,1.542-2.563c9.448-20.806,23.589-38.431,37.696-56.119
		c4.963-6.224,8.94-13.224,13.692-19.628c5.738-7.735,11.437-15.558,17.831-22.738c15.695-17.628,31.536-35.14,47.777-52.261
		c15.306-16.136,33.983-24.025,56.724-24.938c17.214-0.69,34.406-3.408,51.729-2.632c17.927,0.804,35.684,2.896,53.166,7.299
		c8.026,2.021,16.376,2.724,24.517,4.337c14.665,2.907,29.146,6.024,42.214,14.227c8.374,5.257,17.803,8.894,26.952,12.806
		c1.994,0.853,5.271,0.579,7.179-0.523c26.489-15.32,55.797-23.197,84.784-31.588c22.304-6.456,45.468-6.108,68.338-2.976
		c8.849,1.212,17.252,5.362,23.909,11.698c6.739,6.415,12.843,13.491,19.421,20.083c5.614,5.625,11.479,11.004,17.282,16.437
		c11.61,10.867,18.78,24.621,24.688,39.01c5.013,12.212,8.927,24.872,13.68,37.198c10.581,27.448,21.37,54.817,32.123,82.199
		c0.712,1.812,1.838,3.458,2.81,5.255c1.486,0.159,2.796,0.421,4.105,0.422c41.992,0.026,84.045,1.414,125.965-0.346
		c44.302-1.86,88.563-1.469,132.84-1.425c20.229,0.021,40.473,1.905,60.683,3.321c14.741,1.032,23.339,11.445,31.455,22.101
		c5.239,6.879,5.626,14.97,6.403,23.427c1.984,21.581-5.581,39.514-17.214,56.886c-18.113,27.051-41.016,49.738-63.884,72.523
		c-2.103,2.095-4.532,3.973-6.204,6.375c-14.844,21.335-34.292,37.868-54.743,53.488c-17.438,13.319-34.159,27.597-51.818,40.608
		c-12.016,8.853-25.317,15.94-37.655,24.384c-14.532,9.946-29.925,18.152-45.956,25.351c-14.135,6.347-28.038,13.208-41.687,19.672
		c0.752,11.685,1.334,23.188,2.261,34.664c1.994,24.702-3.946,48.279-10.305,71.724c-2.689,9.916-6.634,19.516-10.363,29.121
		c-3.649,9.4-9.235,17.589-16.51,24.665c-10.012,9.736-19.37,20.126-31.805,27.112c-13.027,7.317-26.642,11.865-41.729,11.46
		c-12.305-0.329-24.612-0.605-36.92-0.688c-1.758-0.012-3.816,0.83-5.229,1.928c-3.145,2.448-5.969,5.308-9.41,8.442
		c0,13.61,0,27.129,0,40.259c7.256,13.589,14.583,27.312,22.758,42.625c2.707,0.499,7.184,1.598,11.725,2.099
		c6.93,0.766,12.748,3.464,17.487,8.575c1.812,1.954,3.742,3.799,5.649,5.663c6.11,5.974,12.003,11.177,21.014,13.974
		c17.866,5.543,33.57,16.016,47.476,28.668c8.127,7.393,16.043,15.109,23.3,23.344c11.271,12.789,19.055,27.131,17.591,45.15
		c-0.753,9.274-0.572,18.626-0.735,27.944c-0.069,3.952,0.198,7.412,3.176,10.993c17.322,20.833,38.386,37.711,58.28,55.802
		c5.846,5.316,12.976,9.233,19.584,13.692c4.13,2.787,8.145,3.563,12.849,0.443c7.443-4.937,15.165-9.5,23.02-13.762
		c10.202-5.534,20.988-10.055,30.912-16.025c15.365-9.244,30.436-19.022,43.203-31.896c3.481-3.511,7.337-6.784,11.453-9.51
		c16.899-11.19,29.023-27.124,42.293-41.931c1.772-1.979,3.471-4.021,5.782-6.704c-8.762-12.251-13.947-26.212-15.516-41.221
		c-3.077-29.46-2.677-58.49,12.78-85.29c2.254-3.907,3.726-8.479,4.588-12.932c2.235-11.542,8.779-20.64,15.729-29.579
		c1.402-1.803,3.071-3.4,5.064-5.583c-12.887-13.238-21.491-28.691-26.873-46.493c-11.215,0-22.177-0.317-33.111,0.092
		c-10.354,0.387-18.834-3.173-26.052-10.313c-0.236-0.234-0.453-0.494-0.712-0.701c-31.346-24.991-26.685-48.971-19.404-84.84
		c1.128-5.553,5.031-10.98,8.841-15.451c6.255-7.34,12.916-14.566,20.443-20.531c9.791-7.76,22.1-10.408,33.931-13.875
		c24.288-7.118,49.111-8.531,74.166-7.393c6.571,0.298,10.731-1.957,15.19-6.986c21.615-24.383,43.26-48.795,66.069-72.044
		c13.677-13.941,29.386-25.915,44.424-38.482c8.872-7.413,18.227-14.25,27.348-21.367c1.038-0.812,2.022-1.709,2.947-2.649
		c12.119-12.321,24.075-24.806,36.376-36.943C2892.1,563.788,2902.44,554.405,2912.935,544.521z M1554.543,2794.76
		c4.178-2.542,7.504-4.677,10.933-6.634c18.644-10.646,38.471-19.311,59.777-20.844c27.49-1.978,55.24-1.983,81.767,8.454
		c10.19,4.01,21.136,6.129,31.258,10.279c12.57,5.152,25.423,10.31,36.754,17.63c19.231,12.425,37.401,26.496,55.944,39.978
		c7.589,5.516,8.119,5.515,14.976-1.03c16.586-15.834,27.775-35.562,39.758-54.731c15.384-24.608,27.5-50.888,39.578-77.181
		c7.217-15.711,14.306-31.483,21.188-47.343c1.389-3.199,2.868-7.221,2.119-10.339c-3.951-16.457-7.099-33.345-13.319-48.971
		c-13.611-34.188-28.376-67.947-43.672-101.426c-13.097-28.663-26.983-57.007-41.626-84.913
		c-15.425-29.395-29.883-59.45-50.139-86.043c-17.673-23.201-35.56-46.241-53.416-69.303c-6.067-7.837-12.105-15.718-18.581-23.211
		c-4.071-4.711-8.192-10.537-13.572-12.751c-18.566-7.646-37.697-13.915-56.606-20.729c-17.945-6.468-35.894-12.927-53.815-19.459
		c-7.424-2.706-14.811-5.52-22.165-8.411c-24.236-9.533-48.401-19.252-72.7-28.623c-8.217-3.168-16.624-6.048-25.176-8.086
		c-8.313-1.98-17.048-2.167-25.377-4.095c-26.693-6.177-53.243-12.975-79.928-19.184c-19.62-4.566-39.429-8.319-59.03-12.954
		c-10.568-2.498-20.858-6.159-31.311-9.167c-15.176-4.367-30.387-8.619-46.922-13.299c-1.828,4.094-3.757,8.512-5.773,12.89
		c-0.938,2.04-1.687,4.321-3.14,5.938c-3.558,3.958-7.187,7.965-11.353,11.23c-2.724,2.136-6.372,4.03-9.723,4.248
		c-8.623,0.563-17.356,0.693-25.964-0.002c-32.255-2.607-63.769-9.39-94.773-18.403c-54.9-15.96-109.604-32.564-165.776-43.765
		c-47.104-9.394-94.644-13.866-142.598-14.81c-5.058-0.099-8.673,1.351-12.272,4.951c-10.35,10.354-21.059,20.354-31.772,30.337
		c-1.654,1.542-4.07,2.266-6.133,3.367c2.137,3.603,2.468,5.247,3.167,6.717c8.064,16.953,11.835,35.162,16.066,53.288
		c3.011,12.899,6.861,25.619,10.717,38.304c4.054,13.335,8.64,26.509,12.824,39.806c1.344,4.269,3.445,7.458,7.216,10.247
		c7.003,5.179,14.299,9.452,22.32,12.924c6.297,2.725,12.677,6.314,17.573,11.024c16.521,15.896,32.703,32.176,48.342,48.938
		c5.08,5.444,9.546,12.371,11.708,19.413c3.283,10.698,5.123,22.019,6.117,33.203c1.883,21.153,2.833,42.393,3.98,63.606
		c1.462,27.03,0.781,53.842-8.953,79.639c-2.233,5.919-4.432,11.712-9.624,15.92c-2.229,1.807-3.747,4.489-5.737,6.962
		c14.198,12.567,27.51,25.072,33.612,41.886c18.165-7.308,35.161-6.267,53.391,1.088c0.314-4.182,0.772-7.972,0.848-11.769
		c0.172-8.633,2.618-15.729,9.251-22.146c6.235-6.031,12.315-9.484,21.057-8.646c5.944,0.57,11.998-0.101,17.979,0.227
		c2.491,0.136,5.541,0.741,7.263,2.312c5.85,5.337,11.22,11.199,16.917,17.01c6.788-3.439,6.873-2.494,20.343-3.707
		c13.573-1.221,23.516,2.897,32.065,13.36c4.477,5.479,7.487,10.621,7.188,17.779c-0.315,7.541-0.07,15.104-0.07,21.989
		c7.314,0,13.359,0.616,19.229-0.132c11.234-1.431,20.226,1.709,27.013,10.882c0.349,0.471,1.127,0.623,0.086,0.082
		c8.158-0.319,14.722-0.828,21.282-0.786c20.509,0.131,15.021-2.167,30.363,12.45c4.474,4.264,6.556,8.599,6.147,14.819
		c-0.444,6.756,0.153,13.58,0.285,19.823c13.385,0,25.364-0.182,37.332,0.123c3.127,0.08,6.894,0.853,9.187,2.74
		c5.113,4.208,9.949,8.962,13.968,14.207c2.221,2.9,3.329,7.188,3.592,10.943c0.536,7.626,0.56,15.348-0.03,22.966
		c-0.256,3.309-1.882,7.02-4.033,9.584c-9.121,10.872-19.732,19.729-34.117,22.997c-2.803,0.638-5.365,2.331-8.318,3.663
		c0,2.674,0.016,4.988-0.003,7.303c-0.158,19.552-0.127,19.59-14.758,32.36c-2.381,2.077-5.208,3.644-8.583,5.966
		c2.877,1.302,5.094,2.814,7.519,3.311c9.163,1.876,16.406,6.596,22.93,13.222c3.641,3.697,8.442,6.392,13.033,8.987
		c6.355,3.595,12.974,6.735,19.538,9.952c7.108,3.484,14.283,6.833,21.01,10.04c1.306-0.876,1.995-1.135,2.378-1.631
		c1.829-2.362,3.661-4.732,5.336-7.204c25.505-37.608,57.491-68.796,94.531-94.862c4.742-3.336,10.481-6.464,16.074-7.164
		c21.174-2.646,42.603-3.235,63.618,0.69c27.118,5.066,48.001,20.693,63.973,42.697
		C1527.002,2770.774,1542.783,2780.531,1554.543,2794.76z M945.638,2785.698c0,3.362-0.086,5.35,0.039,7.323
		c0.059,0.932,0.524,1.836,0.781,2.673c15.561,2.66,36.594-5.065,48.336-17.622c-6.092-1.104-11.443-0.611-16.287,4.44
		c-2.12,2.211-6.525,2.842-9.962,3.051C961.283,2786.006,953.976,2785.698,945.638,2785.698z"/>
	<path fill-rule="evenodd" d="M1218.559,1653.842c-1.332,0-2.726-0.26-3.986,0.04c-12.793,3.034-20.592-4.456-27.812-13.126
		c-4.444-5.337-3.227-31.486,1.104-36.985c8.708-11.056,19.504-16.751,33.807-14.813c1.634,0.222,3.351,0.222,4.986-0.002
		c8.614-1.177,14.831,2.159,21.031,8.314c6.014,5.969,7.467,12.107,8.163,20.158c1.146,13.255-3.079,22.81-13.246,31.031
		c-4.431,3.583-8.303,6.098-14.067,5.451C1225.251,1653.539,1221.887,1653.841,1218.559,1653.842z"/>
	<path fill-rule="evenodd" fill="#FFFFFF" d="M1554.543,2794.76c-11.76-14.229-27.541-23.985-38.438-38.999
		c-15.972-22.004-36.855-37.631-63.973-42.697c-21.015-3.926-42.444-3.336-63.618-0.69c-5.593,0.7-11.333,3.828-16.074,7.164
		c-37.04,26.066-69.026,57.254-94.531,94.862c-1.675,2.472-3.507,4.842-5.336,7.204c-0.383,0.496-1.072,0.755-2.378,1.631
		c-6.727-3.207-13.901-6.556-21.01-10.04c-6.564-3.217-13.182-6.357-19.538-9.952c-4.59-2.596-9.392-5.29-13.033-8.987
		c-6.523-6.626-13.767-11.346-22.93-13.222c-2.424-0.496-4.641-2.009-7.519-3.311c3.375-2.322,6.202-3.889,8.583-5.966
		c14.631-12.771,14.6-12.809,14.758-32.36c0.019-2.314,0.003-4.629,0.003-7.303c2.954-1.332,5.516-3.025,8.318-3.663
		c14.385-3.268,24.996-12.125,34.117-22.997c2.151-2.564,3.777-6.275,4.033-9.584c0.59-7.618,0.566-15.34,0.03-22.966
		c-0.264-3.756-1.371-8.043-3.592-10.943c-4.019-5.245-8.855-9.999-13.968-14.207c-2.293-1.888-6.06-2.66-9.187-2.74
		c-11.967-0.305-23.946-0.123-37.332-0.123c-0.132-6.243-0.729-13.067-0.285-19.823c0.408-6.221-1.673-10.556-6.147-14.819
		c-15.342-14.617-9.854-12.319-30.363-12.45c-6.56-0.042-13.124,0.467-21.282,0.786c1.041,0.541,0.263,0.389-0.086-0.082
		c-6.787-9.173-15.779-12.313-27.013-10.882c-5.87,0.748-11.915,0.132-19.229,0.132c0-6.885-0.245-14.448,0.07-21.989
		c0.3-7.158-2.71-12.3-7.188-17.779c-8.55-10.463-18.493-14.581-32.065-13.36c-13.471,1.213-13.556,0.268-20.343,3.707
		c-5.697-5.811-11.068-11.673-16.917-17.01c-1.722-1.57-4.772-2.176-7.263-2.312c-5.981-0.327-12.035,0.344-17.979-0.227
		c-8.742-0.838-14.821,2.615-21.057,8.646c-6.633,6.417-9.079,13.513-9.251,22.146c-0.075,3.797-0.533,7.587-0.848,11.769
		c-18.23-7.354-35.226-8.396-53.391-1.088c-6.102-16.813-19.414-29.318-33.612-41.886c1.991-2.473,3.508-5.155,5.737-6.962
		c5.192-4.208,7.391-10.001,9.624-15.92c9.734-25.797,10.415-52.608,8.953-79.639c-1.147-21.214-2.097-42.453-3.98-63.606
		c-0.995-11.185-2.834-22.505-6.117-33.203c-2.161-7.042-6.628-13.969-11.708-19.413c-15.639-16.762-31.821-33.042-48.342-48.938
		c-4.896-4.71-11.276-8.3-17.573-11.024c-8.021-3.472-15.317-7.745-22.32-12.924c-3.771-2.789-5.873-5.979-7.216-10.247
		c-4.184-13.297-8.77-26.471-12.824-39.806c-3.856-12.685-7.706-25.404-10.717-38.304c-4.231-18.126-8.001-36.335-16.066-53.288
		c-0.699-1.47-1.03-3.114-3.167-6.717c2.063-1.102,4.479-1.825,6.133-3.367c10.713-9.983,21.423-19.982,31.772-30.337
		c3.599-3.601,7.214-5.05,12.272-4.951c47.955,0.943,95.495,5.416,142.598,14.81c56.172,11.2,110.875,27.805,165.776,43.765
		c31.005,9.014,62.519,15.796,94.773,18.403c8.608,0.695,17.342,0.564,25.964,0.002c3.351-0.218,6.999-2.112,9.723-4.248
		c4.167-3.266,7.795-7.272,11.353-11.23c1.453-1.617,2.202-3.898,3.14-5.938c2.016-4.378,3.945-8.796,5.773-12.89
		c16.535,4.68,31.746,8.932,46.922,13.299c10.453,3.008,20.742,6.669,31.311,9.167c19.601,4.635,39.41,8.388,59.03,12.954
		c26.685,6.209,53.235,13.007,79.928,19.184c8.329,1.928,17.064,2.114,25.377,4.095c8.552,2.038,16.959,4.918,25.176,8.086
		c24.299,9.371,48.464,19.09,72.7,28.623c7.354,2.892,14.741,5.705,22.165,8.411c17.921,6.532,35.871,12.991,53.815,19.459
		c18.909,6.813,38.04,13.083,56.606,20.729c5.379,2.214,9.501,8.04,13.572,12.751c6.476,7.493,12.513,15.374,18.581,23.211
		c17.855,23.062,35.743,46.102,53.416,69.303c20.256,26.593,34.714,56.648,50.139,86.043c14.643,27.906,28.529,56.25,41.626,84.913
		c15.296,33.479,30.061,67.238,43.672,101.426c6.221,15.626,9.368,32.514,13.319,48.971c0.749,3.118-0.73,7.14-2.119,10.339
		c-6.883,15.859-13.972,31.632-21.188,47.343c-12.078,26.293-24.194,52.572-39.578,77.181
		c-11.983,19.17-23.172,38.897-39.758,54.731c-6.857,6.545-7.387,6.546-14.976,1.03c-18.543-13.481-36.713-27.553-55.944-39.978
		c-11.332-7.32-24.185-12.478-36.754-17.63c-10.122-4.15-21.067-6.27-31.258-10.279c-26.527-10.438-54.277-10.432-81.767-8.454
		c-21.307,1.533-41.133,10.197-59.777,20.844C1562.048,2790.083,1558.722,2792.218,1554.543,2794.76z"/>
	<path fill-rule="evenodd" fill="#FFFFFF" d="M945.638,2785.698c8.338,0,15.646,0.308,22.906-0.135
		c3.437-0.209,7.843-0.84,9.962-3.051c4.844-5.052,10.195-5.545,16.287-4.44c-11.742,12.557-32.775,20.282-48.336,17.622
		c-0.257-0.837-0.722-1.741-0.781-2.673C945.552,2791.048,945.638,2789.061,945.638,2785.698z"/>
</g>
</svg>
