<?xml version="1.0" encoding="utf-8"?>
<!-- Generator: Adobe Illustrator 16.0.2, SVG Export Plug-In . SVG Version: 6.00 Build 0)  -->
<!DOCTYPE svg PUBLIC "-//W3C//DTD SVG 1.1 Tiny//EN" "http://www.w3.org/Graphics/SVG/1.1/DTD/svg11-tiny.dtd">
<svg version="1.1" baseProfile="tiny" id="Layer_1" xmlns="http://www.w3.org/2000/svg" xmlns:xlink="http://www.w3.org/1999/xlink"
	 x="0px" y="0px" width="4262.467px" height="4424.446px" viewBox="0 0 4262.467 4424.446" xml:space="preserve">
<g>
	<path fill-rule="evenodd" fill="#FFFFFF" d="M4267.28,4431.26c-1421.218,0-2842.249,0-4263.095,0c0-1475.877,0-2951.569,0-4427.075
		c1421.218,0,2842.249,0,4263.095,0C4267.28,1480.062,4267.28,2955.754,4267.28,4431.26z M3313.983,4151.107
		c8.86-4.738,17.562-9.523,26.382-14.078c21.886-11.304,44.045-22.098,65.679-33.859c19.96-10.851,40.409-20.378,61.973-27.529
		c37.905-12.57,75.673-25.57,113.742-37.618c18.245-5.773,36.818-11.186,55.651-14.284c34.698-5.708,66.475-18.17,97.104-35.063
		c25.599-14.12,46.4-33.277,65.223-55.134c8.526-9.901,13.324-21.369,15.788-34.019c5.662-29.069,4.006-58.397,2.771-87.661
		c-0.511-12.149-5.056-23.192-11.912-33.453c-9.979-14.932-19.26-30.33-28.894-45.494c-15.257-24.016-35.083-43.503-59.159-58.538
		c-4.951-3.093-10.868-6.153-16.469-6.409c-16.613-0.759-33.32-0.621-49.932,0.271c-5.672,0.305-11.413,3.4-16.701,6.059
		c-16.658,8.37-33.176,17.03-49.617,25.82c-4.673,2.499-9.324,5.354-13.264,8.859c-16.422,14.604-32.643,29.438-48.764,44.374
		c-3.884,3.599-7.446,7.666-10.566,11.946c-10.2,13.99-20.496,27.934-30.088,42.338c-23.693,35.579-54.764,63.175-90.446,86.22
		c-24.239,15.654-50.69,26.503-77.094,37.522c-5.913,2.468-12.089,5.908-20.255,3.307c-0.964-2.346-2.484-5.207-3.338-8.253
		c-9.515-33.968-18.998-67.943-28.349-101.955c-19.78-71.941-41.256-143.29-70.105-212.266
		c-20.297-48.527-39.469-97.523-59.436-146.189c-5.303-12.926-11.49-25.502-17.606-38.075
		c-12.816-26.345-25.95-52.536-38.775-78.875c-13.411-27.539-25.928-55.534-40.062-82.692
		c-22.442-43.12-44.908-86.284-72.538-126.456c-1.463-2.127-2.496-4.55-3.031-5.542c7.588-13.794,14.414-26.642,21.652-39.255
		c10.517-18.327,14.689-38.41,17.126-59.045c3.537-29.944-0.163-59.839-0.8-89.746c-0.139-6.498-1.814-13.305-4.314-19.334
		c-4.289-10.35-4.264-20.298-2.044-31.145c3.218-15.72,3.514-31.823-0.804-47.479c-6.019-21.826-11.951-43.773-26.549-61.992
		c-1.101-1.374-1.224-3.531-1.917-5.683c6.373-5.892,14.65-6.705,22.1-8.996c20.44-6.288,40.272-13.903,58.851-24.562
		c27.73-15.91,55.576-31.628,83.026-48.01c9.073-5.415,18.064-11.671,25.367-19.214c18.043-18.637,35.088-38.24,51.863-56.716
		c2.092-31.669,1.049-35.835-13.714-62.008c-5.558-9.854-11.674-19.575-15.754-30.049c-18.435-47.331-42.797-91.685-67.25-135.997
		c-35.741-64.768-76.482-126.505-115.178-189.482c-4.114-6.696-8.259-13.374-12.483-20.213c2.702-1.966,4.132-3.782,5.869-4.15
		c16.259-3.449,32.46-7.42,48.889-9.769c38.235-5.465,76.576-10.214,114.904-15.006c7.881-0.985,15.94-1.628,23.844-1.166
		c38.836,2.271,77.171-1.626,115.104-9.398c76.916-15.757,153.741-31.967,230.587-48.066c28.667-6.005,57.33-12.044,85.911-18.442
		c10.058-2.25,19.449-1.678,29.153,1.85c6.14,2.232,12.897,3.379,19.45,3.756c32.272,1.861,63.767-1.372,93.805-14.602
		c13.463-5.93,27.791-8.631,42.599-9.442c17.222-0.944,34.166-4.548,51.396-6.109c19.116-1.731,37.888-7.024,56.898-10.241
		c15.705-2.658,28.964-9.827,40.281-20.605c13.988-13.321,27.966-26.68,36.462-44.615c2.834-5.98,6.65-11.566,10.523-16.97
		c12.933-18.042,17.973-38.339,17.96-60.212c-0.006-8.554,0.216-17.108,0.329-25.208c11.006-6.138,21.038-11.273,30.61-17.155
		c35.429-21.771,66.047-49.525,95.558-78.477c8.486-8.325,15.58-18.225,22.455-28.006c19.688-28.011,18.839-58.995,10.329-90.021
		c-6.263-22.833-19.15-42.234-36.863-58.408c-10.422-9.514-21.333-17.953-35.507-22.624c3.365-6.069,6.36-11.215,9.117-16.485
		c11.659-22.285,25.274-43.217,32.18-68.281c6.303-22.876,10.032-45.313,9.362-68.783c-0.516-18.061-7.001-33.279-19.069-46.912
		c-13.081-14.772-29.33-22.38-48.141-26.159c-20.421-4.102-41.068-3.79-61.715-4.177c-5.697-0.107-11.947,1.833-16.408-2.364
		c0.449-21.237,0.713-41.836,1.395-62.422c0.344-10.366-1.459-20.593-7.381-28.575c-11.504-15.504-24.299-30.49-43.067-37.459
		c-6.582-2.445-12.042-5.37-16.467-10.425c-6.689-7.645-15.202-10.323-25.029-10.062c-5.328,0.142-10.679,0.275-15.992-0.041
		c-7.813-0.465-14.23,2.151-19.968,7.353c-17.311,15.694-34.167,31.738-46.631,51.82c-17.217,27.74-33.93,55.689-48.052,85.236
		c-21.848,45.712-42.919,91.68-58.677,139.929c-5.995,18.357-11.716,36.862-18.925,54.751
		c-18.959,47.051-34.064,95.295-46.874,144.319c-1.648,6.307-3.943,12.445-5.9,18.54c-20.19,1.623-39.306,3.701-58.477,4.584
		c-36.647,1.69-72.791,7.033-108.938,12.925c-58.492,9.535-116.163,22.438-173.256,38.372
		c-47.438,13.239-95.155,25.569-143.057,37.015c-53.076,12.682-106.486,23.982-159.8,35.656c-6.802,1.489-13.757,3.476-21.606,3.143
		c-0.394-4.562-1.161-7.85-0.865-11.039c1.086-11.727-4.253-20.174-12.278-28.117c-13.847-13.702-30.924-20.423-49.295-24.748
		c-38.217-8.997-76.502-17.704-114.671-26.896c-20.767-5-41.699-8.723-62.944-10.794c-3.216-0.313-6.399-0.94-10.53-1.563
		c0.962-5.346,1.272-9.944,2.641-14.201c7.554-23.491,14.299-47.025,9.748-72.163c-0.462-2.55,0.364-5.307,0.339-7.966
		c-0.269-27.959-0.267-55.942-5.996-83.51c-1.241-5.975-0.871-11.603,1.107-17.603c7.473-22.663,4.894-46.104,4.235-69.342
		c-0.093-3.239-1.487-6.479-2.507-9.646c-7.185-22.314-21.061-39.964-39.104-54.352c-9.007-7.183-19.398-11.335-31.497-10.4
		c-6.454,0.5-13.014-0.361-18.944-0.585c-14.018-26.671-27.334-52.003-40.646-77.339c-8.744-16.64-18.786-32.474-33.956-43.906
		c-4.693-3.536-6.776-7.297-8.841-12.339c-6.596-16.119-15.652-31.013-27.147-44.027c-11.895-13.468-24.777-26.084-37.546-38.755
		c-11.535-11.447-24.954-19.844-41.085-23.472c-3.812-0.857-7.428-2.579-11.884-4.169c1.78-22.06-9.891-37.888-23.762-52.843
		c-15.021-16.196-31.586-30.574-49.515-43.41c-14.722-10.54-30.727-18.464-47.884-24.373c-30.513-10.508-61.826-7.726-93.06-6.335
		c-6.881,0.307-12.353,4.352-17.324,9.09c-5.279,5.03-10.953,9.645-18.159,15.926c-7.885-1.396-18.313-3.243-28.742-5.087
		c-27.097-4.793-54.463-3.352-81.764-3.647c-28.227-0.307-55.577,4.813-82.779,11.854c-16.209,4.196-28.85,13.02-39.818,25.211
		c-3.839,4.267-5.716,8.596-5.749,14.282c-0.037,6.423,1.261,13.131-2.097,20.316c-8.939,0.125-17.541,0.794-26.068,0.262
		c-25.115-1.566-44.98,8.64-62.598,25.634c-15.015,14.485-26.217,31.857-38.874,48.142c-12.509,16.093-21.075,34.53-24.843,54.057
		c-3.098,16.062-1.363,33.098-1.25,49.698c0.021,3.028,2.43,6.101,3.952,9.041c1.828,3.527,3.886,6.933,5.967,10.606
		c-5.318,11.624-10.784,22.999-15.774,34.577c-19.013,44.124-32.248,90.272-47.439,135.739
		c-8.706,26.058-13.52,52.757-16.242,80.061c-3.505,35.152-5.884,70.345-6.513,105.642c-0.321,17.979-1.376,36.197,0.924,53.913
		c4.541,34.982,11.257,69.678,16.915,104.519c1.684,10.37,5.428,20.534,4.001,32.201c-11.115,9.124-22.445,18.334-33.672,27.668
		c-9.403,7.817-19.137,9.539-31.357,5.888c-26.767-7.998-53.938-14.686-81.065-21.428c-26.485-6.583-53.174-12.347-79.677-18.865
		c-47.845-11.766-95.642-23.54-144.507-30.658c-46.116-6.717-92.01-14.953-138.072-22.055
		c-37.519-5.784-75.048-11.694-112.744-16.09c-56.278-6.562-112.071-15.921-167.612-26.839
		c-44.416-8.73-88.607-18.604-133.009-27.413c-20.831-4.132-41.923-6.947-62.862-10.354c-1.663-2.692-3.251-4.827-4.392-7.179
		c-11.934-24.586-22.105-49.862-31.208-75.66c-12.627-35.78-27.28-70.858-39.502-106.769
		c-25.203-74.045-57.225-144.912-96.271-212.619c-17.426-30.217-39.777-56.595-64.847-80.74
		c-7.501-7.224-16.572-11.547-26.726-12.241c-19.977-1.365-40.008-1.063-59.528,4.121c-5.673,1.508-11.696,3.839-16.116,7.524
		c-12.833,10.699-23.983,22.714-30.191,38.998c-12.417,32.575-14.49,66.083-11.342,100.31c0.337,3.659,0.046,7.376,0.046,12.033
		c-10.971-2.857-20.417-6.615-30.145-7.615c-32.739-3.364-65.177-1.125-96.973,8.024c-17.57,5.055-30.273,16.733-40.286,31.146
		c-5.618,8.088-9.642,17.473-10.303,27.775c-1.91,29.738,0.52,58.702,16.198,85.005c6.462,10.84,13.413,21.429,20.747,31.7
		c8.407,11.774,17.96,22.732,26.485,35.346c-3.95,3.319-6.78,6.069-9.966,8.313c-16.958,11.943-31.522,26.588-46.887,40.391
		c-29.253,26.278-30.187,77.502-17.824,103.961c11.473,24.556,27.573,45.564,47.622,63.534
		c19.835,17.779,40.025,35.167,60.247,52.508c12.125,10.397,24.447,20.58,36.965,30.498c17.222,13.645,34.639,27.047,52.122,40.356
		c8.994,6.846,17.47,15.887,27.709,19.18c11.506,3.702,18.16,10.495,23.098,19.921c4.746,9.058,11.016,16.633,18.435,23.389
		c16.237,14.79,32.355,29.726,48.981,44.07c10.098,8.713,21.651,15.205,34.153,20.319c34.699,14.198,70.906,22.98,107.44,30.42
		c54.87,11.175,110.521,17.214,166.071,23.777c31.745,3.75,63.497,7.498,95.312,10.574c25.843,2.498,51.783,4,77.683,5.926
		c7.97,0.592,15.953,1.028,23.916,1.693c54.52,4.551,108.008,16.066,161.99,24.229c36.847,5.571,73.48,12.561,110.188,19.034
		c3.543,0.625,8.042-0.076,9.996,5.816c-3.037,2.884-6.245,6.141-9.672,9.148c-21.038,18.453-42.251,36.708-63.161,55.301
		c-24.416,21.715-48.271,44.076-67.897,70.353c-23.12,30.956-45.374,62.559-68.478,93.527
		c-18.31,24.544-37.065,48.771-56.218,72.664c-5.291,6.6-8.869,13.089-8.841,21.518c0.044,13.304,0.012,26.606,0.012,39.29
		c5.376,7.55,11.149,14.16,15.211,21.695c6.729,12.479,15.297,23.384,25.205,33.318c9.407,9.434,18.901,18.798,28.67,27.854
		c30.317,28.101,61.503,55.052,96.322,77.691c46.585,30.289,96.137,54.394,147.989,74.031c3.022,1.145,5.93,2.588,9.339,4.09
		c0.225,4.47,0.649,8.389,0.583,12.299c-0.746,44.617-1.718,89.234-2.281,133.854c-0.186,14.632,0.4,29.286,1.046,43.912
		c1.53,34.676,7.027,68.87,13.138,102.965c1.269,7.085-0.282,12.708-4.777,18.448c-9.024,11.523-18.295,23.047-25.713,35.604
		c-27.441,46.448-55.087,92.815-80.914,140.165c-27.103,49.689-52.954,100.103-77.985,150.874
		c-27.969,56.731-55.708,113.652-75.732,173.885c-6.513,19.585-12.822,39.242-19.627,58.726
		c-25.014,71.633-52.806,142.348-71.131,216.181c-0.479,1.931-1.126,3.856-1.979,5.649c-1.613,3.392-3.432,6.686-4.955,9.614
		c-17.623-1.431-31.967-8.703-46.597-14.904c-3.458-1.465-7.297-4.326-8.86-7.562c-5.427-11.224-15.489-18.16-23.334-27.122
		c-8.313-9.498-19.184-14.049-31.025-16.955c-9.647-2.367-19.249-4.954-28.958-7.031c-6.472-1.384-13.096-2.062-19.658-3.019
		c-3.853-0.562-7.716-1.051-11.94-1.622c-5.4-11.262-10.037-22.147-12.38-34.021c-1.412-7.153-3.443-14.217-5.657-21.173
		c-12.859-40.388-36.02-73.951-67.5-102.103c-18.785-16.799-40.171-29.122-64.75-33.874c-36.957-7.146-74.282-5.482-111.431-0.284
		c-8.739,1.224-16.561,5.091-23.478,10.489c-10.499,8.196-21.326,16.08-31.065,25.118c-22.688,21.058-41.71,44.207-48.652,76.022
		c-2.723,12.477-5.225,24.551-4.973,37.23c0.358,18.087,6.715,34.318,18.823,47.18c18.254,19.388,37.558,37.837,57.063,55.989
		c35.825,33.342,77.705,58.254,119.113,83.724c6.737,4.143,14.254,7.354,21.803,9.771c13.403,4.288,25.975,10.189,38.342,16.786
		c18.212,9.715,36.55,19.205,54.975,28.515c24.956,12.607,50.547,24.051,74.953,37.632c33.737,18.773,67.029,38.223,101.687,55.413
		c20.752,10.293,40.292,23.063,63.11,30.172c7.267,19.86,18.554,37.126,30.891,53.698c5.142,6.907,11.164,13.174,16.962,19.573
		c4.582,5.055,9.841,9.05,17.235,8.59c13.795-0.859,29.206,4.366,41.015-3.877c17.034-11.889,30.277-27.887,35.589-49.055
		c1.93-7.691,4.144-15.395,7.153-22.711c3.787-9.206,8.74-17.924,12.798-27.027c6.507-14.598,12.962-29.032,23.4-41.58
		c6.751-8.114,12.079-17.595,17.015-27.003c13.612-25.939,27.725-51.694,39.731-78.381c19.752-43.906,44.126-84.945,70.743-124.96
		c52.005-78.185,103.037-157.016,154.543-235.532c4.738-7.222,9.726-14.313,15.054-21.107
		c17.242-21.983,33.551-44.801,55.092-63.041c1.508-1.277,2.657-2.981,3.96-4.498c40.37-46.957,80.519-94.107,121.202-140.791
		c19.676-22.577,39.808-44.815,60.729-66.232c23.717-24.279,48.103-47.949,72.998-71.021
		c41.521-38.483,83.645-76.317,125.621-114.309c3.903-3.531,8.337-6.631,12.923-9.226c16.866-9.543,34.651-16.93,53.268-22.432
		c14.275-4.219,28.542-5.099,43.351-3.423c32.421,3.668,64.958,6.313,97.391,9.895c33.077,3.651,66.33,6.552,99.042,12.384
		c23.918,4.265,49.171,4.981,70.81,18.566c1.078,0.678,2.555,0.694,3.81,1.125c27.056,9.29,54.165,18.43,81.112,28.025
		c6.182,2.201,12.164,5.441,17.619,9.121c25.478,17.186,49.986,35.487,68.867,60.312c5.218,6.861,11.711,12.746,17.543,19.149
		c13.461,14.773,27.515,29.065,40.16,44.508c19.504,23.82,40.967,45.52,64.425,65.408c10.656,9.033,21.037,18.521,30.611,28.682
		c30.632,32.511,60.331,65.828,85.047,103.249c4.399,6.66,9.771,12.669,14.352,19.218c8.394,12.002,17.261,23.757,24.635,36.37
		c19.497,33.35,39.732,66.384,57.065,100.855c30.88,61.412,66.845,119.794,102.361,178.479
		c21.36,35.293,43.982,69.871,59.023,108.595c0.709,1.825,2.096,3.383,3.122,5.092c4.778,7.956,10.022,15.677,14.217,23.932
		c11.158,21.965,22.269,43.972,32.648,66.312c14.312,30.803,28.864,61.548,41.635,92.999c19.021,46.844,37.103,94.093,54.43,141.589
		c5.06,13.87,13.885,23.923,23.514,34.037c6.292,6.606,14.15,10.104,22.953,10.905c7.936,0.723,15.978,0.454,23.968,0.307
		c2.586-0.049,5.811-0.307,7.625-1.814c13.141-10.919,28.967-20.001,30.55-39.726c1.155-14.381,5.693-27.146,15.506-38.046
		c6.985-7.759,9.945-17.102,9.055-27.694c-0.254-3.021,0.801-6.153,1.155-8.557c12.61,0,23.816-0.102,35.021,0.039
		c6.364,0.078,10.996-2.717,16.072-6.498C3312.025,4171.554,3312.601,4161.65,3313.983,4151.107z M2913.371,499.242
		c-2.999-12.719-4.504-23.379-8.059-33.307c-8.072-22.545-16.563-44.983-25.984-66.993c-10.248-23.94-22.568-46.785-42.17-64.795
		c-5.392-4.954-10.693-10.068-15.515-15.566c-7.399-8.439-16.766-12.543-27.495-14.897c-19.151-4.203-38.321-4.522-57.564-1.403
		c-45.981,7.454-91.958,14.941-137.892,22.682c-26.784,4.514-54.486,5.068-77.982,18.184c-17.333-5.269-32.975-11.307-49.172-14.652
		c-25.385-5.245-51.092-9.028-76.76-12.765c-26.323-3.833-52.691-7.669-79.173-10.006c-23.791-2.101-47.839-4.079-71.473,2.093
		c-6.085,1.588-11.688,1.262-17.427-1.447c-18.643-8.798-37.41-17.329-56.087-26.054c-9.681-4.521-19.396-8.52-30.279-9.554
		c-7.237-0.687-14.301-3.056-21.49-4.423c-19.932-3.792-39.881-3.222-59.3,2.305c-11.381,3.239-20.667,11.621-22.844,23.081
		c-2.83,14.905-4.087,30.917,0.828,45.508c12.531,37.203,26.028,74.101,44.665,108.862c28.095,52.405,61.472,101.425,97.979,148.132
		c39.375,50.38,82.177,97.938,127.408,143.203c45.188,45.221,89.304,91.6,139.629,131.365c5.421,4.282,8.169,9.265,9.2,16.679
		c4.121,29.656,23.126,48.766,48.583,61.427c11.966,5.951,23.784,11.891,34.486,19.776c17.15,12.634,33.926,25.776,50.93,38.608
		c14.877,11.228,29.824,22.361,44.79,33.47c12.678,9.41,26.635,14.651,42.75,13.619c7.953-0.51,15.966-0.089,23.851-0.089
		c3.961,3.123,7.751,5.833,11.23,8.896c26.047,22.93,53.679,43.593,84.222,60.273c17.504,9.56,34.511,20.035,52.084,29.458
		c13.451,7.213,27.021,14.556,41.286,19.821c23.076,8.517,46.736,15.461,70.217,22.856c4.393,1.384,9.13,2.619,13.656,2.458
		c18.085-0.642,35.53,2.819,53.277,5.665c15.947,2.556,30.97,6.813,45.991,12.212c11.218,4.033,22.57,8.276,34.903,7.407
		c6.224-0.438,11.669,1.383,16.941,4.736c6.141,3.905,12.801,6.985,19.034,10.756c28.43,17.2,58.649,12.984,88.983,7.634
		c0.64-0.113,1.268-0.438,1.838-0.771c5.869-3.445,12.095-5.188,19.003-4.983c7.018,0.208,12.979-2.671,17.702-7.859
		c5.82-6.393,11.77-12.693,17.168-19.43c2.423-3.022,5.044-6.956,5.178-10.564c0.709-19.148,3.388-38.413-6.434-56.687
		c-6.906-12.851-11.728-26.804-17.906-40.067c-5.889-12.639-11.64-25.425-18.688-37.421c-11.142-18.961-22.161-37.85-30.213-58.454
		c-3.585-9.175-9.045-17.826-14.816-25.883c-6.96-9.716-15.168-18.54-22.813-27.768c-21.665-26.15-43.898-51.84-62.563-80.35
		c-8.747-13.363-18.15-26.3-27.34-39.371c-11.458-16.3-23.002-32.541-34.795-49.214c4.726-14.311,9.235-28.192,13.894-42.023
		c11.575-34.36,19.374-69.282,15.085-105.853c-1.002-8.547-2.32-17.244-5.017-25.368c-5.257-15.845-16.729-27.936-30.734-35.324
		c-10.53-5.553-20.864-11.372-31.117-17.407c-18.35-10.8-36.688-21.629-55.254-32.047
		C2948.402,517.845,2930.707,508.595,2913.371,499.242z"/>
	<path fill-rule="evenodd" d="M3313.983,4151.107c-1.383,10.543-1.958,20.446-11.197,27.328c-5.076,3.781-9.708,6.576-16.072,6.498
		c-11.205-0.141-22.411-0.039-35.021-0.039c-0.354,2.403-1.409,5.535-1.155,8.557c0.891,10.593-2.069,19.936-9.055,27.694
		c-9.813,10.899-14.351,23.665-15.506,38.046c-1.583,19.725-17.409,28.807-30.55,39.726c-1.814,1.508-5.039,1.766-7.625,1.814
		c-7.99,0.147-16.032,0.416-23.968-0.307c-8.803-0.801-16.661-4.299-22.953-10.905c-9.629-10.114-18.454-20.167-23.514-34.037
		c-17.327-47.496-35.408-94.745-54.43-141.589c-12.771-31.451-27.323-62.196-41.635-92.999c-10.38-22.34-21.49-44.347-32.648-66.312
		c-4.194-8.255-9.438-15.976-14.217-23.932c-1.026-1.709-2.413-3.267-3.122-5.092c-15.041-38.724-37.663-73.302-59.023-108.595
		c-35.517-58.685-71.481-117.066-102.361-178.479c-17.333-34.472-37.568-67.506-57.065-100.855
		c-7.374-12.613-16.241-24.368-24.635-36.37c-4.58-6.549-9.952-12.558-14.352-19.218c-24.716-37.421-54.415-70.738-85.047-103.249
		c-9.574-10.16-19.955-19.648-30.611-28.682c-23.458-19.889-44.921-41.588-64.425-65.408c-12.646-15.442-26.699-29.734-40.16-44.508
		c-5.832-6.403-12.325-12.288-17.543-19.149c-18.881-24.824-43.39-43.126-68.867-60.312c-5.455-3.68-11.438-6.92-17.619-9.121
		c-26.947-9.596-54.057-18.735-81.112-28.025c-1.255-0.431-2.731-0.447-3.81-1.125c-21.639-13.585-46.892-14.302-70.81-18.566
		c-32.712-5.832-65.965-8.732-99.042-12.384c-32.432-3.582-64.969-6.227-97.391-9.895c-14.809-1.676-29.076-0.796-43.351,3.423
		c-18.617,5.502-36.402,12.889-53.268,22.432c-4.586,2.595-9.02,5.694-12.923,9.226c-41.977,37.991-84.1,75.825-125.621,114.309
		c-24.895,23.072-49.281,46.742-72.998,71.021c-20.921,21.417-41.053,43.655-60.729,66.232
		c-40.683,46.684-80.832,93.834-121.202,140.791c-1.303,1.517-2.453,3.221-3.96,4.498c-21.541,18.24-37.85,41.058-55.092,63.041
		c-5.328,6.794-10.316,13.886-15.054,21.107c-51.506,78.517-102.538,157.348-154.543,235.532
		c-26.617,40.015-50.991,81.054-70.743,124.96c-12.006,26.687-26.12,52.441-39.731,78.381c-4.937,9.408-10.264,18.889-17.015,27.003
		c-10.438,12.548-16.894,26.982-23.4,41.58c-4.058,9.104-9.012,17.821-12.798,27.027c-3.009,7.316-5.223,15.02-7.153,22.711
		c-5.312,21.168-18.556,37.166-35.589,49.055c-11.809,8.243-27.219,3.018-41.015,3.877c-7.394,0.46-12.653-3.535-17.235-8.59
		c-5.798-6.399-11.82-12.666-16.962-19.573c-12.336-16.572-23.624-33.838-30.891-53.698c-22.818-7.108-42.358-19.879-63.11-30.172
		c-34.658-17.19-67.949-36.64-101.687-55.413c-24.406-13.581-49.998-25.024-74.953-37.632c-18.425-9.31-36.762-18.8-54.975-28.515
		c-12.367-6.597-24.938-12.498-38.342-16.786c-7.549-2.416-15.066-5.628-21.803-9.771c-41.408-25.47-83.288-50.382-119.113-83.724
		c-19.506-18.152-38.81-36.602-57.063-55.989c-12.108-12.861-18.464-29.093-18.823-47.18c-0.252-12.68,2.25-24.754,4.973-37.23
		c6.941-31.815,25.964-54.965,48.652-76.022c9.739-9.038,20.567-16.922,31.065-25.118c6.917-5.398,14.739-9.266,23.478-10.489
		c37.149-5.198,74.474-6.861,111.431,0.284c24.58,4.752,45.966,17.075,64.75,33.874c31.479,28.151,54.641,61.715,67.5,102.103
		c2.214,6.956,4.246,14.02,5.657,21.173c2.344,11.873,6.98,22.759,12.38,34.021c4.224,0.571,8.087,1.061,11.94,1.622
		c6.562,0.957,13.186,1.635,19.658,3.019c9.71,2.077,19.311,4.664,28.958,7.031c11.841,2.906,22.712,7.457,31.025,16.955
		c7.845,8.962,17.907,15.898,23.334,27.122c1.563,3.235,5.401,6.097,8.86,7.562c14.629,6.201,28.974,13.474,46.597,14.904
		c1.522-2.929,3.342-6.223,4.955-9.614c0.853-1.793,1.5-3.719,1.979-5.649c18.326-73.833,46.117-144.548,71.131-216.181
		c6.805-19.483,13.114-39.141,19.627-58.726c20.024-60.232,47.763-117.153,75.732-173.885
		c25.031-50.771,50.882-101.185,77.985-150.874c25.827-47.35,53.473-93.717,80.914-140.165c7.418-12.557,16.688-24.08,25.713-35.604
		c4.495-5.74,6.046-11.363,4.777-18.448c-6.111-34.095-11.608-68.289-13.138-102.965c-0.646-14.626-1.231-29.28-1.046-43.912
		c0.563-44.62,1.535-89.237,2.281-133.854c0.066-3.91-0.358-7.829-0.583-12.299c-3.409-1.502-6.317-2.945-9.339-4.09
		c-51.852-19.638-101.404-43.742-147.989-74.031c-34.819-22.64-66.004-49.591-96.322-77.691c-9.77-9.056-19.263-18.42-28.67-27.854
		c-9.908-9.935-18.476-20.839-25.205-33.318c-4.062-7.535-9.835-14.146-15.211-21.695c0-12.684,0.032-25.986-0.012-39.29
		c-0.028-8.429,3.55-14.918,8.841-21.518c19.153-23.893,37.908-48.12,56.218-72.664c23.104-30.969,45.357-62.571,68.478-93.527
		c19.625-26.276,43.481-48.638,67.897-70.353c20.91-18.594,42.124-36.849,63.161-55.301c3.427-3.007,6.636-6.265,9.672-9.148
		c-1.954-5.893-6.452-5.191-9.996-5.816c-36.708-6.473-73.342-13.462-110.188-19.034c-53.982-8.162-107.471-19.677-161.99-24.229
		c-7.963-0.665-15.946-1.102-23.916-1.693c-25.899-1.925-51.839-3.428-77.683-5.926c-31.814-3.076-63.566-6.823-95.312-10.574
		c-55.551-6.563-111.201-12.602-166.071-23.777c-36.534-7.44-72.742-16.223-107.44-30.42c-12.501-5.114-24.055-11.606-34.153-20.319
		c-16.626-14.344-32.744-29.28-48.981-44.07c-7.418-6.756-13.689-14.331-18.435-23.389c-4.938-9.427-11.591-16.22-23.098-19.921
		c-10.24-3.293-18.715-12.334-27.709-19.18c-17.483-13.309-34.9-26.711-52.122-40.356c-12.519-9.918-24.84-20.101-36.965-30.498
		c-20.221-17.341-40.412-34.729-60.247-52.508c-20.049-17.97-36.149-38.979-47.622-63.534
		c-12.362-26.459-11.429-77.684,17.824-103.961c15.365-13.802,29.929-28.448,46.887-40.391c3.186-2.244,6.016-4.995,9.966-8.313
		c-8.525-12.614-18.079-23.572-26.485-35.346c-7.334-10.271-14.285-20.86-20.747-31.7c-15.678-26.303-18.108-55.267-16.198-85.005
		c0.662-10.302,4.685-19.687,10.303-27.775c10.013-14.412,22.715-26.09,40.286-31.146c31.795-9.149,64.233-11.388,96.973-8.024
		c9.728,1,19.173,4.758,30.145,7.615c0-4.656,0.291-8.374-0.046-12.033c-3.148-34.227-1.075-67.734,11.342-100.31
		c6.208-16.284,17.358-28.299,30.191-38.998c4.42-3.685,10.443-6.017,16.116-7.524c19.52-5.184,39.551-5.486,59.528-4.121
		c10.154,0.693,19.225,5.017,26.726,12.241c25.069,24.145,47.421,50.523,64.847,80.74c39.046,67.708,71.068,138.574,96.271,212.619
		c12.222,35.91,26.875,70.988,39.502,106.769c9.103,25.798,19.274,51.074,31.208,75.66c1.141,2.352,2.729,4.487,4.392,7.179
		c20.939,3.407,42.032,6.222,62.862,10.354c44.401,8.809,88.593,18.683,133.009,27.413c55.542,10.918,111.334,20.278,167.612,26.839
		c37.696,4.396,75.225,10.306,112.744,16.09c46.063,7.102,91.956,15.338,138.072,22.055c48.865,7.118,96.663,18.892,144.507,30.658
		c26.502,6.518,53.192,12.282,79.677,18.865c27.126,6.742,54.298,13.43,81.065,21.428c12.22,3.651,21.954,1.929,31.357-5.888
		c11.227-9.334,22.558-18.544,33.672-27.668c1.427-11.667-2.318-21.831-4.001-32.201c-5.657-34.841-12.374-69.537-16.915-104.519
		c-2.3-17.716-1.245-35.935-0.924-53.913c0.629-35.297,3.007-70.49,6.513-105.642c2.723-27.304,7.536-54.003,16.242-80.061
		c15.191-45.467,28.426-91.616,47.439-135.739c4.991-11.578,10.457-22.953,15.774-34.577c-2.081-3.673-4.139-7.079-5.967-10.606
		c-1.522-2.94-3.93-6.013-3.952-9.041c-0.113-16.6-1.848-33.636,1.25-49.698c3.768-19.527,12.333-37.964,24.843-54.057
		c12.657-16.284,23.859-33.657,38.874-48.142c17.618-16.995,37.482-27.201,62.598-25.634c8.527,0.532,17.128-0.137,26.068-0.262
		c3.358-7.185,2.06-13.893,2.097-20.316c0.033-5.686,1.91-10.015,5.749-14.282c10.968-12.191,23.609-21.015,39.818-25.211
		c27.202-7.041,54.552-12.161,82.779-11.854c27.301,0.296,54.667-1.146,81.764,3.647c10.429,1.844,20.857,3.691,28.742,5.087
		c7.206-6.281,12.88-10.896,18.159-15.926c4.972-4.738,10.443-8.783,17.324-9.09c31.233-1.39,62.547-4.173,93.06,6.335
		c17.157,5.909,33.162,13.833,47.884,24.373c17.929,12.836,34.493,27.213,49.515,43.41c13.871,14.955,25.542,30.783,23.762,52.843
		c4.456,1.591,8.072,3.312,11.884,4.169c16.131,3.627,29.55,12.025,41.085,23.472c12.769,12.67,25.651,25.287,37.546,38.755
		c11.495,13.014,20.552,27.908,27.147,44.027c2.064,5.042,4.147,8.803,8.841,12.339c15.17,11.432,25.212,27.266,33.956,43.906
		c13.313,25.336,26.629,50.668,40.646,77.339c5.931,0.224,12.49,1.085,18.944,0.585c12.099-0.935,22.49,3.217,31.497,10.4
		c18.043,14.388,31.919,32.038,39.104,54.352c1.02,3.167,2.414,6.407,2.507,9.646c0.658,23.238,3.237,46.679-4.235,69.342
		c-1.979,6-2.349,11.628-1.107,17.603c5.729,27.568,5.728,55.551,5.996,83.51c0.025,2.659-0.801,5.416-0.339,7.966
		c4.551,25.138-2.194,48.672-9.748,72.163c-1.368,4.257-1.679,8.855-2.641,14.201c4.131,0.622,7.314,1.25,10.53,1.563
		c21.245,2.072,42.178,5.794,62.944,10.794c38.169,9.192,76.454,17.899,114.671,26.896c18.371,4.325,35.448,11.046,49.295,24.748
		c8.025,7.942,13.364,16.39,12.278,28.117c-0.296,3.189,0.472,6.477,0.865,11.039c7.85,0.333,14.805-1.654,21.606-3.143
		c53.313-11.673,106.724-22.974,159.8-35.656c47.901-11.446,95.619-23.776,143.057-37.015
		c57.093-15.935,114.764-28.837,173.256-38.372c36.146-5.893,72.29-11.235,108.938-12.925c19.171-0.883,38.286-2.961,58.477-4.584
		c1.957-6.095,4.252-12.233,5.9-18.54c12.81-49.024,27.915-97.268,46.874-144.319c7.209-17.889,12.93-36.395,18.925-54.751
		c15.758-48.249,36.829-94.217,58.677-139.929c14.122-29.547,30.835-57.497,48.052-85.236c12.464-20.082,29.32-36.125,46.631-51.82
		c5.737-5.201,12.155-7.817,19.968-7.353c5.313,0.316,10.664,0.183,15.992,0.041c9.827-0.262,18.34,2.417,25.029,10.062
		c4.425,5.056,9.885,7.98,16.467,10.425c18.769,6.97,31.563,21.956,43.067,37.459c5.922,7.982,7.725,18.209,7.381,28.575
		c-0.682,20.585-0.945,41.185-1.395,62.422c4.461,4.197,10.711,2.257,16.408,2.364c20.646,0.387,41.294,0.075,61.715,4.177
		c18.811,3.779,35.06,11.387,48.141,26.159c12.068,13.633,18.554,28.852,19.069,46.912c0.67,23.471-3.06,45.907-9.362,68.783
		c-6.905,25.064-20.521,45.996-32.18,68.281c-2.757,5.27-5.752,10.416-9.117,16.485c14.174,4.671,25.085,13.11,35.507,22.624
		c17.713,16.174,30.601,35.575,36.863,58.408c8.51,31.026,9.358,62.011-10.329,90.021c-6.875,9.781-13.969,19.681-22.455,28.006
		c-29.511,28.952-60.129,56.706-95.558,78.477c-9.572,5.882-19.604,11.017-30.61,17.155c-0.113,8.101-0.335,16.655-0.329,25.208
		c0.013,21.874-5.027,42.17-17.96,60.212c-3.873,5.404-7.689,10.99-10.523,16.97c-8.496,17.935-22.474,31.294-36.462,44.615
		c-11.317,10.778-24.576,17.947-40.281,20.605c-19.011,3.216-37.782,8.51-56.898,10.241c-17.23,1.561-34.175,5.165-51.396,6.109
		c-14.808,0.811-29.136,3.512-42.599,9.442c-30.038,13.23-61.532,16.463-93.805,14.602c-6.553-0.377-13.311-1.524-19.45-3.756
		c-9.704-3.528-19.096-4.101-29.153-1.85c-28.581,6.397-57.244,12.437-85.911,18.442c-76.846,16.1-153.671,32.31-230.587,48.066
		c-37.934,7.771-76.269,11.669-115.104,9.398c-7.903-0.462-15.963,0.181-23.844,1.166c-38.328,4.792-76.669,9.541-114.904,15.006
		c-16.429,2.349-32.63,6.32-48.889,9.769c-1.737,0.368-3.167,2.184-5.869,4.15c4.225,6.839,8.369,13.517,12.483,20.213
		c38.695,62.978,79.437,124.715,115.178,189.482c24.453,44.313,48.815,88.666,67.25,135.997
		c4.08,10.474,10.196,20.194,15.754,30.049c14.763,26.173,15.806,30.339,13.714,62.008c-16.775,18.476-33.82,38.079-51.863,56.716
		c-7.303,7.543-16.294,13.799-25.367,19.214c-27.45,16.382-55.296,32.1-83.026,48.01c-18.578,10.658-38.41,18.273-58.851,24.562
		c-7.449,2.291-15.727,3.104-22.1,8.996c0.693,2.151,0.816,4.309,1.917,5.683c14.598,18.219,20.53,40.166,26.549,61.992
		c4.317,15.655,4.021,31.759,0.804,47.479c-2.22,10.847-2.245,20.795,2.044,31.145c2.5,6.029,4.176,12.836,4.314,19.334
		c0.637,29.907,4.337,59.802,0.8,89.746c-2.437,20.635-6.609,40.718-17.126,59.045c-7.238,12.613-14.064,25.461-21.652,39.255
		c0.535,0.992,1.568,3.415,3.031,5.542c27.63,40.172,50.096,83.336,72.538,126.456c14.134,27.158,26.65,55.153,40.062,82.692
		c12.825,26.339,25.959,52.53,38.775,78.875c6.116,12.573,12.304,25.149,17.606,38.075c19.967,48.666,39.139,97.662,59.436,146.189
		c28.85,68.976,50.325,140.324,70.105,212.266c9.351,34.012,18.834,67.987,28.349,101.955c0.854,3.046,2.374,5.907,3.338,8.253
		c8.166,2.602,14.342-0.839,20.255-3.307c26.403-11.02,52.854-21.868,77.094-37.522c35.683-23.045,66.753-50.641,90.446-86.22
		c9.592-14.404,19.888-28.348,30.088-42.338c3.12-4.28,6.683-8.348,10.566-11.946c16.121-14.937,32.342-29.771,48.764-44.374
		c3.939-3.505,8.591-6.36,13.264-8.859c16.441-8.79,32.959-17.45,49.617-25.82c5.288-2.658,11.029-5.754,16.701-6.059
		c16.611-0.893,33.318-1.03,49.932-0.271c5.601,0.256,11.518,3.316,16.469,6.409c24.076,15.035,43.902,34.522,59.159,58.538
		c9.634,15.164,18.914,30.563,28.894,45.494c6.856,10.261,11.401,21.304,11.912,33.453c1.234,29.264,2.891,58.592-2.771,87.661
		c-2.464,12.649-7.262,24.117-15.788,34.019c-18.822,21.856-39.624,41.014-65.223,55.134c-30.63,16.894-62.406,29.355-97.104,35.063
		c-18.833,3.099-37.406,8.511-55.651,14.284c-38.069,12.048-75.837,25.048-113.742,37.618
		c-21.563,7.151-42.013,16.679-61.973,27.529c-21.634,11.762-43.793,22.556-65.679,33.859
		C3331.545,4141.584,3322.844,4146.369,3313.983,4151.107z"/>
	<path fill-rule="evenodd" d="M2913.371,499.242c17.336,9.353,35.031,18.603,52.437,28.37
		c18.566,10.418,36.904,21.247,55.254,32.047c10.253,6.036,20.587,11.854,31.117,17.407c14.006,7.388,25.478,19.479,30.734,35.324
		c2.696,8.124,4.015,16.82,5.017,25.368c4.289,36.571-3.51,71.493-15.085,105.853c-4.658,13.831-9.168,27.712-13.894,42.023
		c11.793,16.673,23.337,32.914,34.795,49.214c9.189,13.071,18.593,26.008,27.34,39.371c18.664,28.51,40.897,54.2,62.563,80.35
		c7.646,9.229,15.854,18.052,22.813,27.768c5.771,8.057,11.231,16.708,14.816,25.883c8.052,20.604,19.071,39.493,30.213,58.454
		c7.049,11.996,12.8,24.782,18.688,37.421c6.179,13.263,11,27.216,17.906,40.067c9.821,18.274,7.143,37.539,6.434,56.687
		c-0.134,3.609-2.755,7.542-5.178,10.564c-5.398,6.736-11.348,13.037-17.168,19.43c-4.723,5.188-10.685,8.067-17.702,7.859
		c-6.908-0.205-13.134,1.538-19.003,4.983c-0.57,0.334-1.198,0.658-1.838,0.771c-30.334,5.35-60.554,9.566-88.983-7.634
		c-6.233-3.771-12.894-6.852-19.034-10.756c-5.272-3.353-10.718-5.174-16.941-4.736c-12.333,0.869-23.686-3.375-34.903-7.407
		c-15.021-5.399-30.044-9.656-45.991-12.212c-17.747-2.845-35.192-6.307-53.277-5.665c-4.526,0.16-9.264-1.075-13.656-2.458
		c-23.48-7.396-47.141-14.34-70.217-22.856c-14.265-5.265-27.835-12.608-41.286-19.821c-17.573-9.423-34.58-19.898-52.084-29.458
		c-30.543-16.68-58.175-37.344-84.222-60.273c-3.479-3.063-7.27-5.773-11.23-8.896c-7.885,0-15.897-0.421-23.851,0.089
		c-16.115,1.032-30.072-4.209-42.75-13.619c-14.966-11.108-29.913-22.242-44.79-33.47c-17.004-12.832-33.779-25.974-50.93-38.608
		c-10.702-7.885-22.521-13.825-34.486-19.776c-25.457-12.661-44.462-31.771-48.583-61.427c-1.031-7.414-3.779-12.397-9.2-16.679
		c-50.325-39.765-94.441-86.145-139.629-131.365c-45.231-45.265-88.033-92.822-127.408-143.203
		c-36.507-46.707-69.883-95.727-97.979-148.132c-18.637-34.762-32.134-71.659-44.665-108.862
		c-4.916-14.592-3.658-30.604-0.828-45.508c2.176-11.46,11.462-19.842,22.844-23.081c19.419-5.527,39.368-6.097,59.3-2.305
		c7.188,1.367,14.252,3.736,21.49,4.423c10.883,1.034,20.599,5.032,30.279,9.554c18.677,8.725,37.444,17.256,56.087,26.054
		c5.739,2.708,11.342,3.035,17.427,1.447c23.634-6.172,47.682-4.194,71.473-2.093c26.481,2.337,52.85,6.174,79.173,10.006
		c25.668,3.737,51.375,7.521,76.76,12.765c16.197,3.345,31.839,9.384,49.172,14.652c23.496-13.115,51.198-13.67,77.982-18.184
		c45.934-7.74,91.91-15.228,137.892-22.682c19.243-3.119,38.413-2.799,57.564,1.403c10.729,2.354,20.096,6.458,27.495,14.897
		c4.821,5.499,10.123,10.612,15.515,15.566c19.602,18.01,31.922,40.854,42.17,64.795c9.422,22.01,17.912,44.448,25.984,66.993
		C2908.867,475.863,2910.372,486.523,2913.371,499.242z"/>
</g>
</svg>
