<?xml version="1.0" encoding="utf-8"?>
<!-- Generator: Adobe Illustrator 16.0.2, SVG Export Plug-In . SVG Version: 6.00 Build 0)  -->
<!DOCTYPE svg PUBLIC "-//W3C//DTD SVG 1.1 Tiny//EN" "http://www.w3.org/Graphics/SVG/1.1/DTD/svg11-tiny.dtd">
<svg version="1.1" baseProfile="tiny" id="Layer_1" xmlns="http://www.w3.org/2000/svg" xmlns:xlink="http://www.w3.org/1999/xlink"
	 x="0px" y="0px" width="3373.578px" height="3584.552px" viewBox="0 0 3373.578 3584.552" xml:space="preserve">
<g>
	<path fill-rule="evenodd" fill="#FFFFFF" d="M3377.473,3587.447c-1125.227,0-2250.35,0-3375.369,0
		c0-1195.219,0-2390.333,0-3585.344c1125.227,0,2250.352,0,3375.369,0C3377.473,1197.321,3377.473,2392.437,3377.473,3587.447z
		 M1591.657,1967.776c2.814,0.238,4.489,0.17,6.057,0.545c22.927,5.479,46.184,9.895,68.687,16.771
		c48.059,14.686,97.136,25.19,145.867,37.105c14.46,3.536,29.415,5.097,44.18,7.313c4.098,0.614,6.313,2.35,7.865,6.299
		c6.689,17.014,13.223,34.121,20.761,50.765c26.526,58.563,40.287,120.153,44.242,184.074c1.231,19.902,1.331,39.871,2.132,59.803
		c1.238,30.879,2.821,61.744,3.913,92.627c1.128,31.912,1.995,63.836,2.693,95.761c0.654,29.944,0.933,59.896,1.397,89.843
		c0.025,1.66,0.278,3.316,0.371,4.976c1.204,21.55,2.355,43.104,3.614,64.65c0.871,14.926,1.906,29.842,2.835,44.765
		c1.73,27.83,4.085,55.641,4.97,83.499c0.854,26.94,0.185,53.931,0.185,80.898c0,58.656-0.007,117.313,0.018,175.969
		c0.002,3.657,0.204,7.316,0.391,10.972c1.857,36.49,3.716,72.981,5.605,109.47c0.842,16.261,1.304,32.558,2.781,48.762
		c1.205,13.22,3.111,26.568,10.507,38.087c6.805,10.6,13.932,21.02,21.404,31.159c18.219,24.724,38.792,47.365,61.979,67.519
		c13.549,11.776,27.611,22.963,41.396,34.471c23.191,19.363,45.194,40.041,71.403,55.777c32.733,19.652,64.414,41.055,96.584,61.647
		c28.898,18.5,58.366,35.36,91.768,45.308c32.33,9.629,64.15,20.175,98.51,17.229c5.931-0.509,12.209-0.524,17.648-2.572
		c22.037-8.297,45.101-10.875,68.183-13.843c38.785-4.984,68.296-24.548,88.548-57.953c1.839-3.032,3.54-6.712,3.647-10.144
		c0.776-24.629,1.89-49.441-9.369-72.447c-4.057-8.292-8.363-16.774-14.191-23.815c-8.89-10.738-19.3-20.208-28.887-30.384
		c-14.688-15.587-31.446-28.044-49.817-39.377c-26.212-16.17-54.837-23.405-84.067-29.894c-4.18-0.928-8.542-1.054-12.825-1.482
		c-11.557-1.158-23.128-2.188-34.672-3.448c-7.493-0.817-14.952-1.949-21.056-2.759c-13.578-18.354-20.26-38.233-27.52-57.806
		c-3.325-8.966-5.922-18.204-8.729-27.355c-4.261-13.888-9.011-27.668-12.364-41.775c-1.608-6.766-4.29-12.321-8.454-17.657
		c-9.779-12.526-19.495-25.116-28.793-38.001c-5.316-7.365-8.791-15.147-4.332-24.872c2.418-5.272,1.729-12.133,7.029-16.025
		c8.423-6.188,11.071-14.332,9.685-24.346c-0.407-2.943-0.08-5.991-0.06-8.99c0.061-8.888-0.985-17.757,2.143-26.53
		c2.896-8.121,4.43-16.72,7.125-24.924c15.911-48.448,25.318-98.442,35.295-148.291c4.889-24.417,8.531-49.088,13.661-73.45
		c5.61-26.649,12.193-53.081,14.596-80.316c1.166-13.22,2.717-26.411,4.348-39.583c3.06-24.705,6.257-49.395,9.482-74.078
		c2.795-21.396,5.745-42.771,8.557-64.163c3.849-29.28,7.813-58.547,11.37-87.862c2.038-16.792,3.573-33.653,4.967-50.513
		c2.515-30.44,5.707-60.869,6.804-91.366c0.858-23.881-0.729-47.874-1.779-71.793c-0.801-18.224-2.61-36.404-3.577-54.625
		c-0.137-2.568,1.276-5.969,3.144-7.768c9.816-9.457,19.963-18.576,30.089-27.707c6.416-5.786,13.189-11.186,19.469-17.111
		c16.704-15.764,33.219-31.725,49.845-47.569c0.668-0.637,1.702-0.888,2.746-1.409c7.206,3.404,14.272,7.122,21.63,10.131
		c12.302,5.032,24.905,9.332,37.17,14.446c19.815,8.262,40.552,13.278,61.744,14.691c23.229,1.551,46.615,0.626,69.93,1.012
		c13.483,0.223,26.281-2.776,39.11-6.555c22.487-6.622,42.892-17.922,64.097-27.44c2.842-1.277,6.438-2.484,9.281-1.866
		c10.677,2.32,21.682,4.24,31.646,8.473c16.997,7.219,34.337,9.979,52.55,8.702c1.99-0.139,4.002-0.099,5.998-0.006
		c13.127,0.615,25.919-0.402,37.658-8.244c3.242,3.916,6.142,7.502,9.134,11.011c6.038,7.085,11.693,14.563,18.274,21.107
		c20.06,19.951,41.191,38.647,64.983,54.2c5.214,3.407,10.381,5.751,16.522,5.884c12.317,0.266,24.639,0.406,36.956,0.696
		c6.985,0.165,12.872-2.095,18.266-6.623c18.353-15.408,37.34-29.932,57.556-42.923c9.709-6.238,18.395-14.204,27.013-21.976
		c16.392-14.78,29.512-32.465,43.028-49.784c6.25-8.01,10.419-16.854,13.171-26.622c1.69-6.001,3.599-12.461,7.3-17.257
		c5.85-7.58,8.155-16.179,9.001-24.966c2.99-31.075-3.727-60.004-19.905-86.961c-7.857-13.091-18.745-23.33-28.927-34.21
		c-11.589-12.386-24.06-23.967-36.469-35.553c-5.243-4.894-6.612-9.643-4.472-16.716c3.361-11.102,6.496-22.483,7.748-33.963
		c1.726-15.818,1.614-31.839,2.277-47.772c0.643-15.437-2.213-30.398-5.487-45.405c-2.896-13.264-4.793-26.757-6.854-40.19
		c-2.715-17.702-4.637-35.543-7.912-53.137c-2.074-11.147-3.642-22.153-4.076-33.524c-0.293-7.685-3.1-15.482-5.884-22.81
		c-3.496-9.197-9.29-17.619-12.058-26.977c-15.099-51.042-30.055-102.171-53.55-150.122
		c-17.399-35.514-35.864-70.539-54.868-105.227c-20.16-36.802-46.262-69.357-77.894-96.838
		c-30.548-26.539-65.221-47.257-102.719-62.455c-19.324-7.832-39.835-12.757-59.84-18.892
		c-44.332-13.594-89.731-21.536-135.86-25.717c-14.193-1.286-28.354-3.019-42.488-4.863c-27.319-3.565-54.565-7.726-81.927-10.917
		c-17.789-2.075-35.744-2.689-53.596-4.282c-28.23-2.521-56.376-3.674-84.454,1.827c-7.213,1.414-14.672,1.575-24.388,2.548
		c5.065-7.821,8.651-13.718,12.594-19.367c6.463-9.263,13.917-17.918,19.617-27.617c19.728-33.565,39.241-67.183,62.98-98.236
		c5.994-7.841,9.229-18.344,11.712-28.134c1.825-7.204,0.589-15.249,0.305-22.904c-0.379-10.149-2.209-19.732-11.484-26.155
		c-2.696-1.867-4.826-4.582-7.112-7.004c-7.716-8.175-17.046-12.181-28.401-12.293c-4.055-0.04-8.16-1.926-12.121-3.317
		c-10.602-3.721-20.922-8.459-31.751-11.262c-14.741-3.816-29.836-6.286-44.809-9.176c-4.88-0.941-9.845-1.88-14.786-1.973
		c-22.313-0.417-44.635-0.397-66.947-0.816c-9.018-0.169-17.031,2.291-24.502,7.136c-4.094,2.655-8.322,5.1-12.244,7.489
		c-9.195-11.669-17.777-22.563-26.632-33.799c3.445-1.966,6.672-4.375,10.288-5.777c19.289-7.487,37.362-16.949,52.826-30.949
		c1.438-1.302,3.326-2.193,5.13-2.994c33.735-14.98,67.245-30.508,101.313-44.696c32.57-13.566,64.953-27.419,96.126-43.985
		c27.945-14.851,55.682-30.164,79.973-50.621c16.014-13.487,30.787-28.438,46.252-42.585c10.498-9.604,17.996-21.27,23.497-34.179
		c2.164-5.081,3.582-10.772,3.924-16.273c0.62-9.96,0.373-19.992,0.062-29.981c-0.099-3.152-0.841-6.725-2.513-9.315
		c-9.453-14.643-20.304-28.417-35.086-37.797c-21.003-13.327-42.385-25.998-67.123-32.026c-19.34-4.712-37.992-12.397-57.42-16.571
		c-21.15-4.543-42.224-8.876-62.643-16.217c-9.037-3.25-18.421-6.024-27.884-7.507c-17.819-2.791-35.165-6.903-51.847-13.806
		c-3.052-1.263-6.338-1.989-9.55-2.829c-24.414-6.379-48.744-13.108-73.287-18.943c-16.091-3.825-31.777-10.236-48.713-9.595
		c-16.4,0.621-32.364-1.614-48.481-4.591c-10.026-1.853-18.387-4.618-24.799-12.676c-1.606-2.02-3.968-3.658-6.301-4.843
		c-10.013-5.082-17.51-13.105-25.282-20.875c-13.606-13.602-31.325-21.028-47.271-31.119c-0.827-0.524-1.835-0.782-2.78-1.098
		c-31.137-10.407-62.762-17.816-95.939-14.802c-20.449,1.858-41.436,1.301-60.643,9.897c-10.948,4.9-20.826,5.232-31.043-1.223
		c-3.04-1.921-6.764-2.748-10.14-4.156c-18.698-7.805-37.773-14.833-55.981-23.652c-24.004-11.628-49.161-18.626-75.496-20.546
		c-24.192-1.763-48.518-1.802-72.791-2.246c-6.597-0.121-13.235,0.884-19.822,1.649c-13.563,1.573-25.128,8.397-36.923,14.503
		c-26.225,13.575-50.898,29.446-68.839,53.422c-10.702,14.302-24.071,25.463-37.083,37.313
		c-11.721,10.673-24.5,20.787-31.418,35.807c-1.509,3.278-4.166,3.625-7.346,3.913c-9.902,0.894-19.776,2.106-29.655,3.241
		c-17.468,2.005-34.909,4.289-52.407,5.99c-13.55,1.318-27.293,1.074-40.729,3.039c-23.747,3.473-47.558,4.622-71.497,5.157
		c-13.909,0.312-27.797,2.072-41.668,3.441c-20.471,2.02-40.917,4.301-61.378,6.414c-21.78,2.248-43.634,3.914-65.326,6.811
		c-15.434,2.062-30.595,6.095-45.98,8.613c-19.929,3.26-38.728,9.278-55.809,20.254c-1.938,1.245-4.215,1.95-6.295,2.987
		c-13.083,6.524-26.859,11.999-39.002,19.961c-9.239,6.059-18.495,14.051-24.01,23.389c-9.158,15.504-6.03,33.537-4.265,50.705
		c0.735,7.146,3.303,14.099,4.095,21.244c0.79,7.125,2.74,14.154,7.142,19.141c9.884,11.199,20.478,21.919,31.845,31.586
		c4.534,3.856,5.702,7.262,5.797,12.468c0.272,14.822,4.745,27.993,16.125,38.203c5.198,4.664,10.392,9.335,15.441,14.156
		c1.88,1.794,4.099,3.777,4.86,6.101c2.595,7.919,8.354,13.495,13.621,19.38c10.674,11.934,22.102,22.908,37.31,29.225
		c15.585,6.473,30.981,13.404,46.414,20.24c7.813,3.461,15.635,6.931,23.248,10.802c7.627,3.876,14.616,9.33,22.572,12.166
		c12.11,4.318,24.696,7.519,37.29,10.214c19.097,4.086,38.277,8.032,57.603,10.747c21.01,2.951,38.257,14.234,57.174,22.489
		c-0.491,3.947-0.917,7.215-1.3,10.487c-1.498,12.814-3.819,25.598-4.288,38.45c-0.862,23.626-0.845,47.292-0.762,70.94
		c0.04,11.481-1.489,22.633-5.668,33.213c-6.219,15.746-12.127,31.729-19.858,46.74c-16.96,32.933-19.29,68.094-17.707,103.955
		c0.391,8.85,1.413,17.888,5.846,26.039c1.161,2.133,1.59,4.665,2.414,7.19c-8.661,1.423-16.456,3.287-24.346,3.876
		c-15.58,1.164-29.845,6.026-43.549,13.237c-5.548,2.919-11.508,5.076-17.338,7.437c-8.265,3.347-16.699,6.299-24.85,9.898
		c-11.879,5.247-23.22,10.932-37.155,6.499c-9.079-2.888-18.931-3.375-28.451-4.851c-38.748-6.012-77.788-9.425-116.902-11.217
		c-35.582-1.632-71.101,0.085-106.355,6.247c-34.665,6.06-69.396,11.84-104.235,16.783c-32.34,4.587-64.269,10.713-95.22,21.195
		c-22.042,7.464-43.707,16.048-65.79,23.382c-25.716,8.54-50.297,19.258-72.993,34.162c-8.069,5.299-16.297,10.354-24.467,15.499
		c-28.26,17.793-55.097,37.252-77.784,62.147c-13.23,14.518-28.399,27.29-41.381,42.006c-12.046,13.658-24.337,27.766-32.996,43.603
		c-16.886,30.889-32.247,62.707-46.548,94.893c-24.989,56.236-43.5,114.782-57.595,174.647c-3.166,13.448-3.681,27.557-4.949,41.405
		c-0.968,10.572-0.976,21.23-1.815,31.818c-0.967,12.196-3.066,24.335-3.44,36.537c-0.592,19.312-1.018,38.706,0.108,57.969
		c0.941,16.107,3.849,32.139,6.555,48.09c2.25,13.258,5.474,26.35,8.436,40.309c-15.022,12.051-30.138,23.993-45.044,36.192
		c-11.815,9.669-23.474,19.537-34.994,29.557c-4.324,3.761-7.477,8.526-7.986,14.542c-1.31,15.492-2.948,30.969-3.773,46.488
		c-0.601,11.299-0.2,22.657-0.089,33.987c0.096,9.845,2.716,19.416,8.394,27.101c12.498,16.917,27.386,31.424,47.435,39.556
		c2.404,0.976,4.802,2.524,6.579,4.397c9.845,10.375,19.337,21.086,29.263,31.381c8.315,8.625,16.517,17.492,25.717,25.105
		c24.668,20.415,53.494,19.722,82.498,13.639c10.56-2.214,20.872-7.076,30.429-12.313c22.124-12.123,43.657-25.322,65.575-37.829
		c4.808-2.743,10.148-6.01,15.375-6.258c10.875-0.516,21.856,0.601,32.761,1.462c14.661,1.157,27.247-3.841,39.357-11.539
		c6.968-4.43,14.812-7.46,22.089-11.434c4.198-2.292,7.377-1.367,10.885,1.43c18.795,14.982,41.666,21.905,63.288,31.111
		c16.414,6.989,34.507,6.484,52.005,7.526c17.933,1.066,35.958,0.731,53.942,0.82c21.042,0.104,41.92-2.885,62.071-8.095
		c19.858-5.133,39.029-13.146,58.16-20.758c8.477-3.372,16.11-8.863,24.884-13.819c1.014,0.889,3.047,2.548,4.941,4.354
		c14.938,14.237,29.817,28.536,44.781,42.747c10.857,10.31,22.521,19.869,32.592,30.89c25.03,27.392,52.295,52.163,82.449,73.755
		c6.438,4.61,13.103,8.904,18.416,12.5c0,17.366-0.249,33.34,0.15,49.298c0.122,4.861,1.576,9.837,3.202,14.486
		c5.704,16.318,17.58,27.991,30.653,38.377c4.658,3.699,6.945,7.238,6.727,13.237c-0.846,23.297,0.498,46.517,3.317,69.658
		c2.936,24.095,6.22,48.139,13.55,71.374c11.802,37.408,23.669,74.797,35.835,112.087c9.287,28.466,20.637,56.106,33.653,83.107
		c7.645,15.859,14.152,32.271,21.079,48.473c7.71,18.033,14.672,36.419,23.11,54.103c13.891,29.11,28.398,57.938,43.25,86.573
		c8.721,16.813,18.449,33.114,28.019,49.474c10.075,17.223,20.5,34.239,30.775,51.344c4.623,7.693,8.887,15.634,13.957,23.021
		c11.849,17.269,24.264,34.148,36.124,51.41c16.001,23.29,31.703,46.785,47.489,70.222c0.456,0.677,0.406,1.693,0.69,3.002
		c-3-0.479-5.58-0.92-8.166-1.3c-21.023-3.087-42.151-5.545-62.443-12.433c-16.755-5.688-33.923-9.394-51.751-9.438
		c-24.32-0.06-48.65-0.686-72.952-0.086c-7.756,0.191-15.719,2.753-23.095,5.534c-21.67,8.167-41.128,20.494-58.851,35.156
		c-12.018,9.941-22.639,21.584-33.785,32.565c-14.978,14.756-28.217,30.984-40.197,48.238c-6.4,9.22-9.475,19.271-9.916,30.761
		c-1.071,27.836,4.12,54.906,8.097,82.179c2.468,16.915,14.318,27.289,26.967,35.269c8.788,5.545,20.806,6.052,31.442,8.545
		c5.752,1.349,11.813,1.571,17.419,3.313c9.757,3.032,19.337,6.646,29.716,6.72c13.664,0.097,27.34,0.357,40.987-0.128
		c6.198-0.221,12.698-1.133,18.438-3.346c18.902-7.284,38.188-13.335,58.077-16.771c18.289-3.158,36.996-3.886,55.299-6.983
		c21.25-3.595,42.309-8.387,63.363-13.054c34.369-7.618,69.285-12.442,103.331-21.877c21.052-5.834,42.949-8.586,64.421-12.943
		c28.753-5.832,56.684-14.396,83.311-26.776c12.547-5.833,24.523-11.146,39.167-11.84c27.773-1.315,47.773-18.535,64.898-38.733
		c4.968-5.86,8.964-13.424,10.837-20.854c4.321-17.147,5.46-34.854,2.534-52.403c-2.177-13.063-5.165-26.036-8.589-38.835
		c-9.616-35.971-20.407-71.61-33.812-106.359c-13.403-34.742-27.646-69.16-41.427-103.757c-12.18-30.579-24.409-61.141-36.27-91.844
		c-6.944-17.976-14.128-35.944-19.584-54.395c-10.745-36.326-20.255-73.016-30.471-109.501
		c-13.811-49.324-26.267-98.985-31.756-149.998c-4.259-39.592-6.681-79.378-10.359-119.037c-1.931-20.816-4.72-41.553-7.273-62.307
		c-3.325-27.026-7.371-53.93-7.435-81.313c-0.099-42.61,1.845-85.062,6.681-127.396c3.016-26.411,5.821-52.878,13.31-78.484
		c6.25-21.373,13.186-42.546,19.902-63.78C1585.823,1984.937,1588.658,1976.78,1591.657,1967.776z"/>
	<path fill-rule="evenodd" d="M1591.657,1967.776c-3,9.004-5.834,17.16-8.438,25.39c-6.717,21.234-13.652,42.407-19.902,63.78
		c-7.489,25.606-10.294,52.073-13.31,78.484c-4.835,42.334-6.779,84.785-6.681,127.396c0.063,27.383,4.11,54.286,7.435,81.313
		c2.553,20.754,5.343,41.49,7.273,62.307c3.678,39.659,6.1,79.445,10.359,119.037c5.489,51.013,17.945,100.674,31.756,149.998
		c10.216,36.485,19.726,73.175,30.471,109.501c5.457,18.45,12.64,36.419,19.584,54.395c11.861,30.703,24.09,61.265,36.27,91.844
		c13.78,34.597,28.023,69.015,41.427,103.757c13.404,34.749,24.195,70.389,33.812,106.359c3.424,12.799,6.412,25.771,8.589,38.835
		c2.926,17.55,1.787,35.256-2.534,52.403c-1.873,7.43-5.869,14.993-10.837,20.854c-17.125,20.198-37.125,37.418-64.898,38.733
		c-14.644,0.694-26.62,6.007-39.167,11.84c-26.627,12.38-54.558,20.944-83.311,26.776c-21.472,4.357-43.369,7.109-64.421,12.943
		c-34.045,9.435-68.962,14.259-103.331,21.877c-21.054,4.667-42.114,9.459-63.363,13.054c-18.303,3.098-37.01,3.825-55.299,6.983
		c-19.889,3.436-39.175,9.486-58.077,16.771c-5.74,2.213-12.24,3.125-18.438,3.346c-13.647,0.485-27.324,0.225-40.987,0.128
		c-10.378-0.074-19.959-3.688-29.716-6.72c-5.607-1.742-11.667-1.965-17.419-3.313c-10.637-2.493-22.655-3-31.442-8.545
		c-12.649-7.979-24.499-18.354-26.967-35.269c-3.978-27.272-9.168-54.343-8.097-82.179c0.441-11.489,3.515-21.541,9.916-30.761
		c11.98-17.254,25.22-33.482,40.197-48.238c11.146-10.981,21.767-22.624,33.785-32.565c17.723-14.662,37.181-26.989,58.851-35.156
		c7.376-2.781,15.339-5.343,23.095-5.534c24.302-0.6,48.632,0.026,72.952,0.086c17.828,0.045,34.997,3.75,51.751,9.438
		c20.292,6.888,41.42,9.346,62.443,12.433c2.586,0.38,5.166,0.821,8.166,1.3c-0.284-1.309-0.234-2.325-0.69-3.002
		c-15.786-23.437-31.488-46.932-47.489-70.222c-11.86-17.262-24.275-34.142-36.124-51.41c-5.07-7.388-9.334-15.328-13.957-23.021
		c-10.276-17.104-20.7-34.121-30.775-51.344c-9.57-16.359-19.298-32.661-28.019-49.474c-14.853-28.635-29.359-57.463-43.25-86.573
		c-8.438-17.684-15.4-36.069-23.11-54.103c-6.927-16.202-13.435-32.613-21.079-48.473c-13.016-27.001-24.366-54.642-33.653-83.107
		c-12.167-37.29-24.033-74.679-35.835-112.087c-7.33-23.235-10.614-47.279-13.55-71.374c-2.819-23.142-4.163-46.361-3.317-69.658
		c0.218-5.999-2.069-9.538-6.727-13.237c-13.073-10.386-24.95-22.059-30.653-38.377c-1.625-4.649-3.08-9.625-3.202-14.486
		c-0.399-15.958-0.15-31.932-0.15-49.298c-5.313-3.596-11.977-7.89-18.416-12.5c-30.153-21.592-57.418-46.363-82.449-73.755
		c-10.071-11.021-21.734-20.58-32.592-30.89c-14.964-14.211-29.843-28.51-44.781-42.747c-1.894-1.806-3.927-3.465-4.941-4.354
		c-8.773,4.956-16.407,10.447-24.884,13.819c-19.13,7.611-38.302,15.625-58.16,20.758c-20.151,5.21-41.029,8.198-62.071,8.095
		c-17.985-0.089-36.009,0.246-53.942-0.82c-17.499-1.042-35.591-0.537-52.005-7.526c-21.622-9.206-44.492-16.129-63.288-31.111
		c-3.508-2.797-6.687-3.722-10.885-1.43c-7.278,3.974-15.122,7.004-22.089,11.434c-12.111,7.698-24.696,12.696-39.357,11.539
		c-10.905-0.861-21.886-1.978-32.761-1.462c-5.227,0.248-10.567,3.515-15.375,6.258c-21.918,12.507-43.452,25.706-65.575,37.829
		c-9.557,5.237-19.869,10.1-30.429,12.313c-29.004,6.083-57.83,6.776-82.498-13.639c-9.2-7.613-17.401-16.48-25.717-25.105
		c-9.926-10.295-19.418-21.006-29.263-31.381c-1.777-1.873-4.175-3.422-6.579-4.397c-20.048-8.132-34.937-22.639-47.435-39.556
		c-5.678-7.685-8.298-17.256-8.394-27.101c-0.111-11.33-0.511-22.688,0.089-33.987c0.825-15.52,2.463-30.996,3.773-46.488
		c0.509-6.016,3.662-10.781,7.986-14.542c11.52-10.02,23.178-19.888,34.994-29.557c14.906-12.199,30.022-24.142,45.044-36.192
		c-2.961-13.959-6.186-27.051-8.436-40.309c-2.707-15.951-5.614-31.983-6.555-48.09c-1.126-19.263-0.7-38.657-0.108-57.969
		c0.374-12.202,2.473-24.341,3.44-36.537c0.839-10.588,0.847-21.246,1.815-31.818c1.268-13.848,1.783-27.957,4.949-41.405
		c14.094-59.865,32.606-118.411,57.595-174.647c14.301-32.186,29.662-64.004,46.548-94.893c8.659-15.837,20.95-29.945,32.996-43.603
		c12.982-14.717,28.151-27.489,41.381-42.006c22.687-24.896,49.524-44.354,77.784-62.147c8.17-5.145,16.397-10.2,24.467-15.499
		c22.695-14.904,47.276-25.622,72.993-34.162c22.083-7.333,43.748-15.918,65.79-23.382c30.951-10.481,62.88-16.607,95.22-21.195
		c34.838-4.943,69.57-10.723,104.235-16.783c35.254-6.162,70.773-7.879,106.355-6.247c39.114,1.792,78.154,5.206,116.902,11.217
		c9.52,1.477,19.372,1.963,28.451,4.851c13.936,4.433,25.276-1.252,37.155-6.499c8.15-3.599,16.585-6.551,24.85-9.898
		c5.83-2.361,11.79-4.517,17.338-7.437c13.704-7.211,27.969-12.073,43.549-13.237c7.89-0.59,15.685-2.454,24.346-3.876
		c-0.823-2.526-1.252-5.057-2.414-7.19c-4.433-8.15-5.456-17.189-5.846-26.039c-1.583-35.861,0.747-71.022,17.707-103.955
		c7.73-15.012,13.639-30.994,19.858-46.74c4.179-10.581,5.708-21.732,5.668-33.213c-0.083-23.648-0.101-47.314,0.762-70.94
		c0.469-12.852,2.79-25.636,4.288-38.45c0.383-3.272,0.809-6.54,1.3-10.487c-18.917-8.255-36.164-19.538-57.174-22.489
		c-19.326-2.714-38.506-6.66-57.603-10.747c-12.594-2.695-25.18-5.896-37.29-10.214c-7.956-2.836-14.945-8.29-22.572-12.166
		c-7.613-3.871-15.436-7.341-23.248-10.802c-15.433-6.836-30.829-13.768-46.414-20.24c-15.208-6.317-26.635-17.291-37.31-29.225
		c-5.266-5.886-11.026-11.461-13.621-19.38c-0.761-2.324-2.98-4.306-4.86-6.101c-5.049-4.821-10.243-9.492-15.441-14.156
		c-11.379-10.21-15.852-23.381-16.125-38.203c-0.096-5.207-1.264-8.612-5.797-12.468c-11.367-9.667-21.961-20.387-31.845-31.586
		c-4.402-4.987-6.352-12.017-7.142-19.141c-0.792-7.146-3.36-14.099-4.095-21.244c-1.765-17.168-4.893-35.201,4.265-50.705
		c5.515-9.338,14.771-17.33,24.01-23.389c12.143-7.963,25.918-13.437,39.002-19.961c2.08-1.037,4.357-1.742,6.295-2.987
		c17.081-10.977,35.879-16.994,55.809-20.254c15.386-2.518,30.547-6.551,45.98-8.613c21.692-2.897,43.546-4.563,65.326-6.811
		c20.461-2.112,40.907-4.394,61.378-6.414c13.871-1.369,27.759-3.129,41.668-3.441c23.939-0.535,47.75-1.684,71.497-5.157
		c13.436-1.964,27.179-1.72,40.729-3.039c17.498-1.702,34.939-3.985,52.407-5.99c9.879-1.135,19.753-2.347,29.655-3.241
		c3.18-0.287,5.836-0.635,7.346-3.913c6.917-15.02,19.697-25.134,31.418-35.807c13.012-11.849,26.382-23.011,37.083-37.313
		c17.941-23.977,42.614-39.848,68.839-53.422c11.795-6.106,23.36-12.93,36.923-14.503c6.587-0.765,13.225-1.77,19.822-1.649
		c24.273,0.444,48.599,0.483,72.791,2.246c26.335,1.92,51.492,8.918,75.496,20.546c18.208,8.82,37.283,15.848,55.981,23.652
		c3.376,1.409,7.1,2.235,10.14,4.156c10.217,6.455,20.095,6.123,31.043,1.223c19.207-8.597,40.193-8.039,60.643-9.897
		c33.178-3.014,64.803,4.396,95.939,14.802c0.945,0.316,1.953,0.574,2.78,1.098c15.945,10.091,33.664,17.518,47.271,31.119
		c7.772,7.771,15.27,15.794,25.282,20.875c2.333,1.186,4.694,2.824,6.301,4.843c6.412,8.059,14.772,10.824,24.799,12.676
		c16.117,2.977,32.081,5.212,48.481,4.591c16.936-0.641,32.622,5.771,48.713,9.595c24.543,5.834,48.873,12.564,73.287,18.943
		c3.212,0.84,6.498,1.566,9.55,2.829c16.682,6.902,34.027,11.015,51.847,13.806c9.463,1.482,18.847,4.256,27.884,7.507
		c20.419,7.341,41.492,11.673,62.643,16.217c19.428,4.174,38.08,11.859,57.42,16.571c24.738,6.028,46.12,18.7,67.123,32.026
		c14.782,9.38,25.633,23.154,35.086,37.797c1.672,2.59,2.414,6.163,2.513,9.315c0.312,9.989,0.559,20.021-0.062,29.981
		c-0.342,5.501-1.76,11.193-3.924,16.273c-5.501,12.909-12.999,24.576-23.497,34.179c-15.465,14.147-30.238,29.099-46.252,42.585
		c-24.291,20.457-52.027,35.77-79.973,50.621c-31.173,16.566-63.556,30.419-96.126,43.985
		c-34.068,14.188-67.578,29.716-101.313,44.696c-1.804,0.801-3.691,1.691-5.13,2.994c-15.464,14-33.537,23.462-52.826,30.949
		c-3.616,1.403-6.843,3.812-10.288,5.777c8.854,11.237,17.437,22.13,26.632,33.799c3.922-2.389,8.15-4.834,12.244-7.489
		c7.471-4.845,15.484-7.305,24.502-7.136c22.313,0.419,44.635,0.399,66.947,0.816c4.941,0.093,9.906,1.032,14.786,1.973
		c14.973,2.89,30.067,5.36,44.809,9.176c10.829,2.803,21.149,7.541,31.751,11.262c3.961,1.391,8.066,3.277,12.121,3.317
		c11.355,0.112,20.686,4.119,28.401,12.293c2.286,2.422,4.416,5.137,7.112,7.004c9.275,6.422,11.105,16.006,11.484,26.155
		c0.284,7.655,1.521,15.7-0.305,22.904c-2.482,9.791-5.718,20.293-11.712,28.134c-23.739,31.054-43.253,64.671-62.98,98.236
		c-5.7,9.698-13.154,18.354-19.617,27.617c-3.942,5.649-7.528,11.545-12.594,19.367c9.716-0.974,17.175-1.134,24.388-2.548
		c28.078-5.5,56.224-4.347,84.454-1.827c17.852,1.593,35.807,2.208,53.596,4.282c27.361,3.191,54.607,7.352,81.927,10.917
		c14.135,1.844,28.295,3.578,42.488,4.863c46.129,4.181,91.528,12.123,135.86,25.717c20.005,6.135,40.516,11.06,59.84,18.892
		c37.498,15.198,72.171,35.917,102.719,62.455c31.632,27.481,57.733,60.037,77.894,96.838
		c19.004,34.688,37.469,69.713,54.868,105.227c23.495,47.951,38.451,99.08,53.55,150.122c2.768,9.358,8.562,17.78,12.058,26.977
		c2.784,7.327,5.591,15.125,5.884,22.81c0.435,11.371,2.002,22.377,4.076,33.524c3.275,17.594,5.197,35.435,7.912,53.137
		c2.062,13.434,3.959,26.926,6.854,40.19c3.274,15.007,6.13,29.969,5.487,45.405c-0.663,15.934-0.552,31.954-2.277,47.772
		c-1.252,11.48-4.387,22.861-7.748,33.963c-2.141,7.073-0.771,11.822,4.472,16.716c12.409,11.586,24.88,23.167,36.469,35.553
		c10.182,10.88,21.069,21.119,28.927,34.21c16.179,26.957,22.896,55.886,19.905,86.961c-0.846,8.787-3.151,17.386-9.001,24.966
		c-3.701,4.796-5.609,11.256-7.3,17.257c-2.752,9.768-6.921,18.612-13.171,26.622c-13.517,17.319-26.637,35.004-43.028,49.784
		c-8.618,7.771-17.304,15.737-27.013,21.976c-20.216,12.991-39.203,27.515-57.556,42.923c-5.394,4.528-11.28,6.788-18.266,6.623
		c-12.317-0.29-24.639-0.431-36.956-0.696c-6.142-0.133-11.309-2.477-16.522-5.884c-23.792-15.553-44.924-34.249-64.983-54.2
		c-6.581-6.545-12.236-14.022-18.274-21.107c-2.992-3.509-5.892-7.095-9.134-11.011c-11.739,7.842-24.531,8.859-37.658,8.244
		c-1.996-0.093-4.008-0.133-5.998,0.006c-18.213,1.276-35.553-1.483-52.55-8.702c-9.964-4.232-20.969-6.152-31.646-8.473
		c-2.843-0.618-6.439,0.589-9.281,1.866c-21.205,9.519-41.609,20.818-64.097,27.44c-12.829,3.778-25.627,6.777-39.11,6.555
		c-23.314-0.386-46.701,0.539-69.93-1.012c-21.192-1.413-41.929-6.43-61.744-14.691c-12.265-5.114-24.868-9.414-37.17-14.446
		c-7.357-3.009-14.424-6.727-21.63-10.131c-1.044,0.521-2.078,0.772-2.746,1.409c-16.626,15.845-33.141,31.806-49.845,47.569
		c-6.279,5.926-13.053,11.325-19.469,17.111c-10.126,9.131-20.272,18.25-30.089,27.707c-1.867,1.799-3.28,5.199-3.144,7.768
		c0.967,18.221,2.776,36.401,3.577,54.625c1.051,23.919,2.638,47.912,1.779,71.793c-1.097,30.497-4.289,60.926-6.804,91.366
		c-1.394,16.859-2.929,33.721-4.967,50.513c-3.557,29.315-7.521,58.582-11.37,87.862c-2.812,21.393-5.762,42.768-8.557,64.163
		c-3.226,24.684-6.423,49.373-9.482,74.078c-1.631,13.172-3.182,26.363-4.348,39.583c-2.402,27.235-8.985,53.667-14.596,80.316
		c-5.13,24.362-8.772,49.033-13.661,73.45c-9.977,49.849-19.384,99.843-35.295,148.291c-2.695,8.204-4.229,16.803-7.125,24.924
		c-3.128,8.773-2.082,17.643-2.143,26.53c-0.021,2.999-0.348,6.047,0.06,8.99c1.387,10.014-1.262,18.157-9.685,24.346
		c-5.3,3.893-4.611,10.753-7.029,16.025c-4.459,9.725-0.984,17.507,4.332,24.872c9.298,12.885,19.014,25.475,28.793,38.001
		c4.164,5.336,6.846,10.892,8.454,17.657c3.354,14.107,8.104,27.888,12.364,41.775c2.808,9.151,5.404,18.39,8.729,27.355
		c7.26,19.572,13.941,39.452,27.52,57.806c6.104,0.81,13.563,1.941,21.056,2.759c11.544,1.26,23.115,2.29,34.672,3.448
		c4.283,0.429,8.646,0.555,12.825,1.482c29.23,6.488,57.855,13.724,84.067,29.894c18.371,11.333,35.129,23.79,49.817,39.377
		c9.587,10.176,19.997,19.646,28.887,30.384c5.828,7.041,10.135,15.523,14.191,23.815c11.259,23.006,10.146,47.818,9.369,72.447
		c-0.107,3.432-1.809,7.111-3.647,10.144c-20.252,33.405-49.763,52.969-88.548,57.953c-23.082,2.968-46.146,5.546-68.183,13.843
		c-5.439,2.048-11.718,2.063-17.648,2.572c-34.359,2.945-66.18-7.601-98.51-17.229c-33.401-9.947-62.869-26.808-91.768-45.308
		c-32.17-20.593-63.851-41.995-96.584-61.647c-26.209-15.736-48.212-36.414-71.403-55.777
		c-13.785-11.508-27.848-22.694-41.396-34.471c-23.187-20.153-43.76-42.795-61.979-67.519c-7.473-10.14-14.6-20.56-21.404-31.159
		c-7.396-11.519-9.302-24.867-10.507-38.087c-1.478-16.204-1.939-32.501-2.781-48.762c-1.89-36.488-3.748-72.979-5.605-109.47
		c-0.187-3.655-0.389-7.314-0.391-10.972c-0.024-58.656-0.018-117.313-0.018-175.969c0-26.968,0.67-53.958-0.185-80.898
		c-0.885-27.858-3.239-55.669-4.97-83.499c-0.929-14.923-1.964-29.839-2.835-44.765c-1.259-21.546-2.41-43.101-3.614-64.65
		c-0.093-1.659-0.346-3.315-0.371-4.976c-0.465-29.947-0.743-59.898-1.397-89.843c-0.698-31.925-1.565-63.849-2.693-95.761
		c-1.092-30.883-2.675-61.748-3.913-92.627c-0.801-19.932-0.9-39.9-2.132-59.803c-3.955-63.921-17.716-125.511-44.242-184.074
		c-7.538-16.644-14.071-33.751-20.761-50.765c-1.553-3.949-3.768-5.685-7.865-6.299c-14.765-2.217-29.72-3.777-44.18-7.313
		c-48.73-11.915-97.808-22.42-145.867-37.105c-22.503-6.876-45.76-11.292-68.687-16.771
		C1596.146,1967.946,1594.472,1968.015,1591.657,1967.776z"/>
</g>
</svg>
