<?xml version="1.0" encoding="utf-8"?>
<!-- Generator: Adobe Illustrator 16.0.2, SVG Export Plug-In . SVG Version: 6.00 Build 0)  -->
<!DOCTYPE svg PUBLIC "-//W3C//DTD SVG 1.1 Tiny//EN" "http://www.w3.org/Graphics/SVG/1.1/DTD/svg11-tiny.dtd">
<svg version="1.1" baseProfile="tiny" id="Layer_1" xmlns="http://www.w3.org/2000/svg" xmlns:xlink="http://www.w3.org/1999/xlink"
	 x="0px" y="0px" width="4389.451px" height="4184.477px" viewBox="0 0 4389.451 4184.477" xml:space="preserve">
<g>
	<path fill-rule="evenodd" fill="#FFFFFF" d="M4395.264,4191.29c-1463.878,0-2927.571,0-4391.079,0
		c0-1395.887,0-2791.589,0-4187.105c1463.878,0,2927.572,0,4391.079,0C4395.264,1400.072,4395.264,2795.774,4395.264,4191.29z
		 M999.46,3701.465c-21.335-8.969-40.36-16.807-59.221-25.021c-4.19-1.825-8.504-4.337-11.54-7.65
		c-8.074-8.815-18.489-13.228-29.487-15.762c-25.245-5.82-46.792-18.39-66.95-34.049c-15.762-12.245-31.715-24.253-47.768-36.116
		c-4.419-3.267-7.446-6.963-9.846-12.046c-4.228-8.954-9.372-17.557-14.897-25.792c-4.494-6.7-9.158-13.137-10.256-21.352
		c-1.029-7.697-5.61-13.084-10.595-18.693c-11.519-12.965-27.143-18.933-42.055-26.219c-15.832-7.735-32.538-11.572-50.181-11.368
		c-21.323,0.248-42.647,0.425-63.972,0.608c-10.961,0.096-20.703,3.485-30.047,9.334c-19.538,12.229-33.966,29.76-49.689,46.02
		c-13.583,14.048-20.888,30.659-22.118,50.048c-0.465,7.313-1.07,14.629-1.161,21.949c-0.184,14.661,0.576,29.362-0.243,43.982
		c-0.764,13.606,3.924,24.659,12.178,34.878c25.393,31.435,55.684,57.206,90.113,78.199c17.627,10.749,35.315,21.402,53.052,31.97
		c25.744,15.336,51.221,31.269,79.409,41.891c44.22,16.663,88.542,33.058,132.92,49.298c25.053,9.168,49.494,19.583,72.957,32.342
		c32.169,17.493,64.529,34.635,96.772,51.991c3.991,2.148,7.766,4.7,11.966,7.264c-0.962,10.997,2.544,20.06,8.933,28.23
		c2.443,3.123,4.436,6.677,6.181,10.254c7.994,16.395,19.319,30.238,32.259,42.906c17.469,17.103,18.202,17.428,42.239,16.366
		c21.477-0.948,36.788-13.647,42.861-34.882c6.58-23.003,12.552-46.253,20.609-68.744c16.837-47.009,34.991-93.545,52.294-140.389
		c2.859-7.739,7.108-14.022,12.716-19.953c5.439-5.752,10.99-11.943,14.419-18.955c12.933-26.442,29.518-50.544,45.777-74.923
		c46.563-69.814,92.886-139.79,139.177-209.786c11.383-17.213,22.916-34.378,33.256-52.217
		c14.456-24.942,34.246-45.826,50.807-69.14c1.144-1.61,2.688-2.963,4.162-4.309c30.617-27.958,56.329-60.331,82.385-92.324
		c37.888-46.521,78.155-90.951,119.64-134.171c34.565-36.012,71.002-70.293,107.622-104.247
		c37.593-34.855,76.427-68.373,114.694-102.503c21.191-18.899,21.171-19.052,49.439-18.879c17.317,0.106,34.683-0.036,51.933,1.229
		c19.858,1.456,39.587,4.597,59.417,6.536c20.524,2.007,41.146,3.072,61.65,5.25c19.167,2.036,38.285,4.665,57.329,7.649
		c13.146,2.061,26.097,5.349,39.194,7.755c12.425,2.283,24.977,3.815,35.881,11.149c2.674,1.797,6.208,2.342,9.375,3.37
		c15.793,5.13,31.456,10.721,47.425,15.227c27.713,7.818,49.948,24.135,71.302,42.688c60.002,52.135,114.187,109.931,166.11,169.885
		c19.609,22.644,36.9,47.279,56.039,70.352c45.17,54.452,84.865,112.908,125.389,170.736c24.849,35.458,48.059,72.06,72.265,107.971
		c23.46,34.805,47.398,69.284,67.202,106.402c11.6,21.742,22.654,43.846,35.543,64.809c13.173,21.426,20.128,46.285,36.996,65.617
		c2.525,2.894,3.493,7.137,5.22,10.736c13.279,27.673,27.922,54.611,45.77,79.607c9.728,13.626,17.767,27.993,25.097,43.016
		c30.483,62.462,52.494,127.941,70.572,194.856c5.437,20.119,22.395,34.104,43.239,34.928c3.327,0.131,6.694-0.262,9.992,0.082
		c9.216,0.962,16.599-2.093,23.422-8.401c12.287-11.357,24.616-22.98,32.712-37.492c9.517-17.057,24.81-31.723,23.612-53.078
		c5.007-2.773,9.041-5.08,13.142-7.266c29.38-15.656,58.614-31.596,88.215-46.823c20.693-10.644,41.377-21.605,62.972-30.126
		c43.328-17.097,87.205-32.815,130.995-48.716c26.382-9.58,51.761-21.101,75.754-35.696c22.191-13.5,44.309-27.142,66.827-40.079
		c20.893-12.005,40.681-25.642,58.512-41.636c14.813-13.287,27.987-28.456,41.372-43.259c7.287-8.06,11.587-17.802,11.537-29.079
		c-0.114-25.97,0.867-51.952-2.656-77.834c-1.758-12.92-5.842-24.722-14.603-34.375c-12.978-14.298-25.79-28.842-39.826-42.057
		c-15.483-14.577-33.646-23.424-56.12-21.116c-9.165,0.94-18.617-0.321-27.89-1.143c-36.41-3.224-70.329,4.626-101.252,23.82
		c-13.535,8.401-26.191,18.135-29.011,36.121c-0.962,6.134-5.758,11.736-9.094,17.409c-4.369,7.435-10.298,14.231-13.224,22.163
		c-3.264,8.843-8.902,14.251-16.318,19.218c-9.938,6.655-19.521,13.905-28.81,21.449c-16.566,13.455-33.106,26.675-52.819,35.648
		c-23.626,10.752-46.512,23.129-70.134,33.891c-20.495,9.338-41.57,17.404-62.572,26.108c-2.598-2.779-5-4.377-6.04-6.609
		c-12.963-27.816-24.202-56.208-28.066-86.978c-2.488-19.813-4.327-39.765-10.521-58.897
		c-14.558-44.958-28.151-90.268-44.167-134.702c-19.413-53.856-41.509-106.74-61.35-160.449
		c-19.146-51.824-37.143-104.078-55.17-156.308c-10.259-29.725-23.064-58.156-39.443-84.988
		c-23.255-38.094-46.52-76.18-69.699-114.319c-2.318-3.817-4.071-7.979-6.899-13.593c5.366-4.639,10.855-8.581,15.365-13.435
		c13.145-14.141,20.443-30.315,20.275-50.427c-0.229-27.408-2.637-54.393-6.709-81.505c-3.2-21.297-10.996-42.899-2.406-64.808
		c0.688-28.027,1.182-55.916-10.334-82.545c-12.155-28.11-23.531-56.559-35.175-84.889c-1.435-3.488-4.527-6.765-1.573-12.028
		c2.899-1.038,6.545-2.477,10.272-3.659c53.339-16.915,105.992-35.661,156.812-59.227c16.909-7.841,33.687-15.984,50.365-24.308
		c17.502-8.733,28.171-21.348,25.143-42.727c-1.057-7.464-2.859-14.223-6.331-20.744c-14.398-27.041-28.563-54.209-43.177-81.133
		c-15.247-28.09-30.746-56.047-46.464-83.875c-8.84-15.651-18.661-30.748-27.488-46.405c-20.626-36.585-42.162-72.543-66.79-106.65
		c-12.464-17.261-23.446-35.6-34.888-53.583c-2.346-3.685-3.761-7.964-6.409-13.719c13.817-3.267,26.281-4.789,38.622-6.124
		c55.623-6.016,111.328-11.271,166.938-17.399c23.803-2.624,47.771-5.238,71.094-10.422c54.575-12.13,108.74-26.092,163.198-38.767
		c38.895-9.053,77.608-19.015,117.531-23.137c29.141-3.008,58.149-7.292,87.227-10.935c12.521-1.569,25.032-3.504,37.608-4.261
		c11.283-0.679,22.652-0.142,33.977,0.167c18.251,0.498,35.693-3.539,52.889-9.032c15.841-5.062,31.429-11.048,47.487-15.258
		c30.818-8.078,61.295-17.613,93.928-17.013c15.989,0.295,31.812-4.584,44.779-14.889c18.615-14.791,33.773-32.107,38.213-56.677
		c1.774-9.816,4.527-19.451,6.619-29.213c2.93-13.672,5.639-27.391,8.478-41.083c2.45-11.814,8.194-20.765,20.239-25.108
		c5.567-2.007,10.762-5.218,15.867-8.311c19.351-11.72,38.701-23.449,57.823-35.535c6.71-4.241,13.294-8.964,19.021-14.426
		c18.79-17.917,36.905-36.546,55.784-54.369c12.614-11.912,19.796-26.384,24.117-42.845c4.96-18.888,5.834-38.06,5.893-57.453
		c0.032-10.775-3.316-19.522-10.911-26.848c-8.149-7.862-16.391-15.628-24.519-23.514c-9.607-9.322-19.585-17.947-32.582-22.512
		c-4.194-1.474-7.768-4.715-12.857-7.925c4.283-7.538,8.068-14.462,12.101-21.24c6.469-10.875,13.199-21.594,19.628-32.491
		c4.783-8.106,7.767-16.892,8.86-26.281c1.307-11.226,3.134-22.418,3.829-33.68c1.23-19.932,1.865-39.904,2.571-59.866
		c0.349-9.859-3.322-18.167-10.554-24.936c-6.811-6.373-13.748-12.631-20.219-19.335c-6.835-7.081-15.178-10.765-24.644-12.002
		c-8.569-1.12-17.198-1.976-25.829-2.383c-19.773-0.934-39.397,0.848-60.21,5.703c0.241-4.873,0.032-8.117,0.616-11.213
		c3.731-19.819,2.422-39.838,2.549-59.796c0.097-15.362-4.777-28.724-16.404-39.247c-7.491-6.779-13.706-14.161-15.925-24.652
		c-0.891-4.208-4.446-8.176-7.574-11.519c-5.906-6.315-12.543-11.943-18.571-18.153c-5.445-5.608-12.171-7.83-19.605-8.786
		c-29.316-3.772-55.715,3.199-78.19,22.508c-24.913,21.402-47.15,45.411-62.936,74.421c-17.516,32.192-32.564,65.55-44.537,100.307
		c-19.302,56.026-38.619,112.061-59.134,167.648c-14.363,38.922-24.744,78.717-32.081,119.436c-1.268,7.04-3.174,13.965-4.753,20.8
		c-48.055,7.191-94.859,13.594-141.978,17.188c-52.522,4.007-104.74,10.301-156.069,22.122
		c-44.73,10.303-89.297,21.486-133.515,33.798c-35.956,10.011-72.357,17.823-108.668,26.219
		c-43.452,10.047-86.668,21.12-130.001,31.682c-3.124,0.762-6.376,0.987-10.474,1.596c-6.071-21.039-21.143-32.027-40.78-37.168
		c-18.655-4.885-37.537-8.925-56.37-13.105c-3.86-0.857-7.951-0.998-11.93-0.95c-20.8,0.249-39.168-5.728-55.161-19.501
		c-11.874-10.227-25.896-16.1-41.805-17.158c-5.219-0.348-10.706-0.898-14.098-5.757c-0.104-1.473-0.502-2.827-0.241-4.037
		c9.665-45,6.735-90.13,1.019-135.209c-1.074-8.476-3.341-17.23-7.145-24.811c-3.879-7.733-4.492-14.86-3.013-23.012
		c3.724-20.51,2.659-41.073,0.141-61.666c-1.26-10.293-5.244-18.982-11.616-27.088c-14.565-18.528-30.345-35.45-52.85-43.815
		c-1.423-2.898-2.786-5.201-3.73-7.666c-15.908-41.532-39.541-78.325-68.119-112.198c-8.571-10.16-17.828-17.784-32.12-16.188
		c-1.002,0.111-2.175-1.315-3.764-2.35c-1.269-8.722-0.699-18.286-6.184-26.469c-14.457-21.573-27.949-43.848-43.4-64.676
		c-12.396-16.708-27.559-30.98-50.137-33.208c-1.11-0.109-2.104-1.39-3.569-2.416c-1.418-6.759-3.34-13.823-4.312-21.017
		c-1.776-13.129-8.156-23.858-16.607-33.521c-16.807-19.215-35.869-35.439-59.093-46.817
		c-29.455-14.429-60.384-24.247-91.729-33.542c-26.626-7.896-53.341-10.982-80.829-9.784c-18.166,0.791-30.175,12.789-31.511,31.401
		c-0.266,3.699-1.105,7.358-1.829,11.989c-7.907,0-14.515-0.01-21.122,0.002c-14.664,0.024-29.36-0.557-43.985,0.21
		c-37.884,1.987-71.303,14.16-98.344,42.314c-10.326,10.751-17.167,21.687-16.135,36.825c0.069,1.006-1.202,2.103-2.296,3.882
		c-2.107,0.11-4.699,0.377-7.288,0.362c-18.659-0.11-37.321-0.541-55.975-0.296c-7.244,0.096-14.879,0.487-21.621,2.815
		c-17.098,5.906-32.522,14.858-46.144,27.171c-25.228,22.802-36.411,53.693-49.131,83.65c-2.489,5.862-2.215,13.117-2.297,19.742
		c-0.244,19.846-2.079,39.906,6.828,58.334c-3.166,4.71-5.866,8.494-8.325,12.427c-14.128,22.586-28.383,45.096-42.224,67.857
		c-9.051,14.885-15.502,31-19.438,47.966c-8.274,35.664-16.374,71.369-24.23,107.126c-4.725,21.503-7.485,43.286-7.884,65.354
		c-0.711,39.398,1.271,78.561,8.675,117.374c5.357,28.084,8.192,56.646,19.233,83.529c3.951,9.619,4.858,20.488,7.24,31.173
		c-13.632,9.236-14.303,23.87-17.661,37.643c-3.417-0.188-6.011-0.119-8.537-0.499c-25.755-3.875-50.702-10.737-75.357-19.154
		c-19.505-6.659-39.447-12.136-59.399-17.365c-15.44-4.046-31.231-6.733-46.802-10.306c-40.863-9.378-81.549-19.583-122.573-28.181
		c-37.13-7.781-74.653-13.676-111.933-20.764c-44.463-8.454-88.877-17.18-133.271-25.997
		c-45.059-8.948-90.497-16.445-135.001-27.632c-70.072-17.613-141.07-27.577-212.975-32.329c-17.94-1.185-35.885-2.309-53.818-3.602
		c-4.525-0.326-9.01-1.192-13.312-1.783c-1.748-3.158-3.139-5.395-4.269-7.757c-13.501-28.231-25.987-57.001-40.695-84.587
		c-16.524-30.993-26.124-64.263-33.459-97.991c-4.354-20.019-11.737-37.871-21.621-55.327
		c-6.216-10.976-12.251-22.199-16.887-33.898c-13.22-33.369-28.966-65.788-38.472-100.582c-0.698-2.558-1.93-4.966-2.733-7.501
		c-3.293-10.387-9.085-19.106-16.765-26.827c-5.617-5.646-12.023-11.206-15.519-18.101c-5.626-11.098-14.537-18.904-22.689-27.617
		c-11.869-12.684-26.34-20.425-43.564-22.17c-11.879-1.203-23.893-1.729-35.823-1.479c-5.042,0.104-10.59,2.056-14.948,4.734
		c-37.847,23.252-58.877,56.899-60.682,101.611c-0.644,15.959,0.284,31.979,0.293,47.97c0.002,3.627-0.837,7.254-1.399,11.762
		c-5.953-1.489-10.454-2.419-14.836-3.743c-24.518-7.402-49.585-9.345-75.077-8.49c-15.435,0.519-28.72,5.339-39.329,16.597
		c-9.592,10.179-18.945,20.587-28.233,31.046c-4.501,5.069-7.798,10.937-7.9,17.924c-0.253,17.298-0.953,34.556,4.124,51.554
		c4.411,14.767,9.871,28.978,17.501,42.34c9.909,17.351,19.986,34.606,29.828,51.995c1.813,3.205,2.847,6.85,4.138,10.036
		c-7.987,4.565-15.821,7.45-21.595,12.631c-20.907,18.758-39.438,39.7-54.008,63.9c-4.524,7.515-7.793,15.443-8.08,24.375
		c-0.517,16.063,0.606,31.742,5.804,47.285c6.461,19.32,16.772,36.124,29.279,51.889c19.535,24.624,42.022,46.438,64.856,67.877
		c10.162,9.542,20.625,19.038,32.132,26.804c14.986,10.115,29.097,20.961,42.026,33.63c7.03,6.89,15.152,13.182,23.843,17.707
		c7.745,4.032,15.146,8.147,21.797,13.777c3.531,2.99,7.124,6.809,11.311,7.931c8.772,2.35,12.833,8.893,17.128,15.628
		c8.59,13.474,17.334,26.673,28.558,38.366c20.278,21.122,45.827,34.111,70.833,47.92c6.158,3.4,13.949,4.759,21.114,5.258
		c28.657,1.992,56.587,8.19,84.504,14.204c55.291,11.911,110.054,26.287,165.875,35.721c35.454,5.994,70.949,11.477,106.931,13.773
		c41.196,2.628,82.433,5.47,123.43,10.159c46.946,5.37,93.604,13.208,140.472,19.328c32.336,4.223,64.787,7.661,97.246,10.849
		c18.541,1.82,37.201,2.399,55.801,3.651c1.743,0.117,3.432,1.049,6.015,1.883c-2.751,6.54-8.382,9.015-12.836,12.496
		c-53.061,41.462-105.039,84.14-151.93,132.683c-16.196,16.767-32.552,33.417-49.51,49.403
		c-20.575,19.395-37.329,41.616-51.619,65.831c-5.417,9.18-10.957,18.328-15.665,27.873c-9.368,18.994-8.997,38.59-0.57,57.627
		c13.393,30.258,32.089,56.727,58.522,77.232c2.625,2.035,4.935,4.472,7.423,6.688c39.374,35.071,80.27,68.126,126.204,94.414
		c37.601,21.518,76.2,41.059,115.974,58.271c4.088,1.77,7.877,4.235,11.372,6.14c0,2.553,0.206,3.921-0.03,5.207
		c-8.209,44.645-11.125,89.887-14.333,135.034c-1.601,22.525-0.955,45.304,0.112,67.899c1.443,30.584,4.007,61.124,6.678,91.633
		c0.698,7.978-1.512,14.279-5.982,20.382c-11.024,15.052-22.395,29.873-32.844,45.316c-13.424,19.842-27.087,39.633-38.873,60.451
		c-28.874,51.007-56.787,102.56-84.958,153.963c-7.358,13.427-14.896,26.816-21.246,40.728
		c-40.65,89.052-80.868,178.303-121.485,267.371c-21.567,47.294-41.322,95.288-57.342,144.756
		c-4.301,13.279-7.656,26.87-11.302,40.356C1003.901,3682.995,1002.13,3690.698,999.46,3701.465z M2174.312,117.014
		c-8.454-0.468-16.764,0.394-24.306-1.621c-15.176-4.053-30.456-3.186-45.688-2.798c-20.053,0.51-37.97,6.798-50.726,23.467
		c-1.94,2.535-4.131,5.72-4.238,8.676c-0.553,15.27-1.894,30.707,3.816,45.455c13.934,35.99,27.914,71.96,41.926,107.919
		c1.448,3.717,3.155,7.341,4.869,10.947c17.174,36.16,36.791,70.924,59.493,103.918c22.278,32.377,44.633,64.701,66.867,97.107
		c13.991,20.393,29.786,39.256,47.411,56.59c50.874,50.035,105.341,95.963,160.941,140.589c7.791,6.253,15.91,12.097,23.748,18.293
		c6.756,5.341,12.256,11.195,16.467,19.383c8.968,17.44,22.72,31.509,40.921,39.458c19.774,8.637,37.097,20.733,54.052,33.671
		c25.402,19.385,50.899,38.647,76.319,58.012c9.689,7.381,20.334,13.1,32.421,14.391c7.649,0.817,13.911,3.828,20.418,7.197
		c52.007,26.928,102.233,57.036,152.972,86.2c23.833,13.698,48.354,25.07,74.584,33.006c10.809,3.27,21.526,6.834,32.292,10.248
		c12.664,4.017,25.157,8.309,38.843,8.156c5.778-0.064,11.673,2.417,17.373,4.197c33.04,10.322,66.354,19.292,100.467,25.669
		c18.791,3.513,37.682,7.582,55.248,16.56c14.525,7.424,57.511,7.245,72.745,1.738c2.49-0.899,4.752-2.417,7.215-3.41
		c14.716-5.931,24.676-17.795,35.746-28.327c6.179-5.877,9.308-12.522,8.829-21.255c-0.693-12.627-1.036-25.299-0.855-37.941
		c0.261-18.22-5.258-34.091-18.162-46.989c-5.434-5.431-8.522-11.743-10.324-18.984c-1.607-6.457-3.959-12.778-5.004-19.315
		c-5.081-31.808-19.934-59.02-38.731-84.523c-12.251-16.622-23.761-33.804-36.36-50.151c-12.585-16.326-25.877-32.127-39.279-47.799
		c-26.334-30.791-52.96-61.333-79.868-92.445c4.94-12.507,9.444-24.253,14.207-35.892c9.354-22.857,17.016-46.066,20.224-70.795
		c4.107-31.676-2.037-61.038-17.647-88.436c-8.026-14.088-19.531-24.86-34.426-32.261c-17.252-8.572-34.521-17.394-50.661-27.838
		c-14.623-9.462-29.551-17.912-45.576-24.606c-10.361-4.328-20.77-8.67-29.06-15.185c-2.751-10.034-4.627-19.202-7.772-27.913
		c-9.254-25.632-18.886-51.131-28.641-76.578c-3.331-8.688-7.137-17.236-11.351-25.531c-2.682-5.284-5.775-10.745-9.965-14.804
		c-12.422-12.032-25.345-23.562-38.341-34.979c-6.631-5.826-14.718-8.536-23.471-10.23c-19.212-3.72-38.383-3.774-57.658-1.234
		c-24.4,3.215-48.713,7.977-73.212,9.301c-20.638,1.116-39.441,5.429-56.486,16.933c-14.116,9.526-30.466,13.129-46.425,17.659
		c-3.573,1.014-7.949,0.492-11.656-0.471c-22.552-5.854-44.981-12.022-64.848-25.006c-25.213-16.478-53.409-24.328-83.14-25.035
		c-37.921-0.9-75.928-1.891-113.697,3.793c-15.137,2.276-30.449,3.372-45.609,5.509c-6.937,0.979-12.773-0.209-19.032-3.501
		c-9.379-4.933-19.135-9.877-29.328-12.335C2191.727,130.103,2181.969,125.538,2174.312,117.014z"/>
	<path fill-rule="evenodd" d="M999.46,3701.465c2.67-10.767,4.441-18.47,6.502-26.094c3.646-13.486,7.001-27.077,11.302-40.356
		c16.021-49.468,35.775-97.462,57.342-144.756c40.617-89.068,80.835-178.319,121.485-267.371
		c6.35-13.911,13.887-27.301,21.246-40.728c28.171-51.403,56.084-102.956,84.958-153.963c11.786-20.818,25.449-40.609,38.873-60.451
		c10.449-15.443,21.819-30.265,32.844-45.316c4.47-6.103,6.681-12.404,5.982-20.382c-2.67-30.509-5.234-61.049-6.678-91.633
		c-1.067-22.596-1.713-45.374-0.112-67.899c3.208-45.147,6.124-90.39,14.333-135.034c0.236-1.286,0.03-2.654,0.03-5.207
		c-3.495-1.904-7.283-4.37-11.372-6.14c-39.773-17.212-78.373-36.753-115.974-58.271c-45.935-26.288-86.83-59.343-126.204-94.414
		c-2.488-2.217-4.798-4.653-7.423-6.688c-26.433-20.506-45.129-46.975-58.522-77.232c-8.427-19.037-8.798-38.633,0.57-57.627
		c4.708-9.545,10.249-18.693,15.665-27.873c14.29-24.215,31.044-46.437,51.619-65.831c16.958-15.986,33.314-32.637,49.51-49.403
		c46.892-48.543,98.87-91.221,151.93-132.683c4.455-3.48,10.085-5.956,12.836-12.496c-2.583-0.834-4.272-1.766-6.015-1.883
		c-18.6-1.251-37.261-1.831-55.801-3.651c-32.459-3.188-64.909-6.626-97.246-10.849c-46.867-6.12-93.525-13.958-140.472-19.328
		c-40.997-4.689-82.234-7.53-123.43-10.159c-35.981-2.296-71.477-7.779-106.931-13.773c-55.821-9.434-110.584-23.811-165.875-35.721
		c-27.917-6.014-55.847-12.212-84.504-14.204c-7.165-0.499-14.956-1.858-21.114-5.258c-25.006-13.81-50.555-26.798-70.833-47.92
		c-11.224-11.692-19.968-24.892-28.558-38.366c-4.294-6.735-8.355-13.278-17.128-15.628c-4.187-1.122-7.78-4.94-11.311-7.931
		c-6.651-5.63-14.052-9.746-21.797-13.777c-8.69-4.525-16.813-10.817-23.843-17.707c-12.929-12.669-27.041-23.515-42.026-33.63
		c-11.507-7.767-21.97-17.263-32.132-26.804c-22.834-21.439-45.321-43.253-64.856-67.877
		c-12.507-15.765-22.818-32.569-29.279-51.889c-5.198-15.543-6.32-31.223-5.804-47.285c0.287-8.932,3.556-16.86,8.08-24.375
		c14.569-24.2,33.101-45.143,54.008-63.9c5.774-5.181,13.608-8.065,21.595-12.631c-1.291-3.187-2.325-6.832-4.138-10.036
		c-9.841-17.389-19.919-34.644-29.828-51.995c-7.631-13.362-13.09-27.573-17.501-42.34c-5.077-16.998-4.377-34.255-4.124-51.554
		c0.102-6.987,3.399-12.855,7.9-17.924c9.288-10.458,18.641-20.867,28.233-31.046c10.609-11.257,23.894-16.078,39.329-16.597
		c25.491-0.854,50.559,1.088,75.077,8.49c4.383,1.323,8.884,2.254,14.836,3.743c0.562-4.508,1.401-8.135,1.399-11.762
		c-0.009-15.991-0.937-32.011-0.293-47.97c1.805-44.712,22.835-78.359,60.682-101.611c4.358-2.678,9.906-4.629,14.948-4.734
		c11.93-0.249,23.943,0.276,35.823,1.479c17.224,1.745,31.695,9.486,43.564,22.17c8.152,8.713,17.063,16.519,22.689,27.617
		c3.496,6.896,9.902,12.456,15.519,18.101c7.68,7.721,13.471,16.439,16.765,26.827c0.803,2.535,2.035,4.943,2.733,7.501
		c9.506,34.793,25.252,67.212,38.472,100.582c4.635,11.699,10.671,22.922,16.887,33.898c9.884,17.456,17.267,35.308,21.621,55.327
		c7.335,33.729,16.935,66.998,33.459,97.991c14.708,27.586,27.194,56.356,40.695,84.587c1.13,2.362,2.521,4.599,4.269,7.757
		c4.302,0.591,8.787,1.457,13.312,1.783c17.933,1.293,35.878,2.417,53.818,3.602c71.905,4.752,142.903,14.716,212.975,32.329
		c44.504,11.187,89.942,18.684,135.001,27.632c44.394,8.816,88.807,17.542,133.271,25.997c37.28,7.088,74.803,12.983,111.933,20.764
		c41.024,8.598,81.71,18.803,122.573,28.181c15.57,3.573,31.361,6.26,46.802,10.306c19.952,5.229,39.894,10.707,59.399,17.365
		c24.655,8.417,49.602,15.279,75.357,19.154c2.526,0.38,5.12,0.312,8.537,0.499c3.358-13.773,4.029-28.407,17.661-37.643
		c-2.382-10.685-3.29-21.554-7.24-31.173c-11.041-26.883-13.876-55.445-19.233-83.529c-7.403-38.813-9.386-77.976-8.675-117.374
		c0.398-22.068,3.159-43.851,7.884-65.354c7.856-35.757,15.956-71.463,24.23-107.126c3.936-16.965,10.387-33.081,19.438-47.966
		c13.841-22.762,28.096-45.271,42.224-67.857c2.459-3.933,5.16-7.717,8.325-12.427c-8.907-18.428-7.072-38.488-6.828-58.334
		c0.082-6.625-0.191-13.879,2.297-19.742c12.72-29.957,23.903-60.849,49.131-83.65c13.621-12.313,29.046-21.265,46.144-27.171
		c6.742-2.328,14.377-2.719,21.621-2.815c18.654-0.245,37.316,0.186,55.975,0.296c2.589,0.015,5.181-0.252,7.288-0.362
		c1.095-1.78,2.366-2.876,2.296-3.882c-1.032-15.139,5.809-26.074,16.135-36.825c27.042-28.155,60.46-40.327,98.344-42.314
		c14.625-0.767,29.321-0.186,43.985-0.21c6.607-0.012,13.215-0.002,21.122-0.002c0.724-4.631,1.563-8.29,1.829-11.989
		c1.336-18.612,13.346-30.61,31.511-31.401c27.488-1.198,54.203,1.887,80.829,9.784c31.345,9.296,62.273,19.114,91.729,33.542
		c23.224,11.378,42.286,27.603,59.093,46.817c8.451,9.662,14.831,20.391,16.607,33.521c0.972,7.193,2.894,14.258,4.312,21.017
		c1.465,1.026,2.459,2.307,3.569,2.416c22.578,2.227,37.741,16.499,50.137,33.208c15.451,20.828,28.943,43.103,43.4,64.676
		c5.484,8.184,4.915,17.748,6.184,26.469c1.589,1.034,2.762,2.46,3.764,2.35c14.292-1.596,23.549,6.028,32.12,16.188
		c28.578,33.873,52.211,70.666,68.119,112.198c0.944,2.465,2.308,4.768,3.73,7.666c22.505,8.365,38.284,25.287,52.85,43.815
		c6.372,8.106,10.356,16.795,11.616,27.088c2.519,20.593,3.583,41.156-0.141,61.666c-1.479,8.151-0.866,15.278,3.013,23.012
		c3.804,7.581,6.07,16.335,7.145,24.811c5.717,45.079,8.646,90.209-1.019,135.209c-0.261,1.21,0.137,2.564,0.241,4.037
		c3.392,4.859,8.879,5.41,14.098,5.757c15.908,1.059,29.931,6.932,41.805,17.158c15.993,13.773,34.361,19.75,55.161,19.501
		c3.979-0.048,8.069,0.093,11.93,0.95c18.833,4.181,37.715,8.22,56.37,13.105c19.638,5.141,34.709,16.129,40.78,37.168
		c4.098-0.609,7.35-0.834,10.474-1.596c43.333-10.562,86.549-21.634,130.001-31.682c36.311-8.396,72.712-16.208,108.668-26.219
		c44.218-12.312,88.784-23.495,133.515-33.798c51.329-11.821,103.547-18.115,156.069-22.122
		c47.118-3.594,93.923-9.998,141.978-17.188c1.579-6.835,3.485-13.76,4.753-20.8c7.337-40.719,17.718-80.514,32.081-119.436
		c20.515-55.587,39.832-111.623,59.134-167.648c11.973-34.757,27.021-68.115,44.537-100.307
		c15.785-29.011,38.022-53.02,62.936-74.421c22.476-19.309,48.874-26.28,78.19-22.508c7.435,0.956,14.16,3.178,19.605,8.786
		c6.028,6.21,12.665,11.837,18.571,18.153c3.128,3.343,6.684,7.311,7.574,11.519c2.219,10.491,8.434,17.873,15.925,24.652
		c11.627,10.523,16.501,23.885,16.404,39.247c-0.127,19.958,1.183,39.977-2.549,59.796c-0.584,3.096-0.375,6.34-0.616,11.213
		c20.813-4.855,40.437-6.636,60.21-5.703c8.631,0.407,17.26,1.264,25.829,2.383c9.466,1.237,17.809,4.921,24.644,12.002
		c6.471,6.705,13.408,12.962,20.219,19.335c7.231,6.768,10.902,15.076,10.554,24.936c-0.706,19.961-1.341,39.934-2.571,59.866
		c-0.695,11.262-2.522,22.454-3.829,33.68c-1.094,9.389-4.077,18.175-8.86,26.281c-6.429,10.897-13.159,21.617-19.628,32.491
		c-4.032,6.777-7.817,13.702-12.101,21.24c5.09,3.209,8.663,6.451,12.857,7.925c12.997,4.564,22.975,13.189,32.582,22.512
		c8.128,7.886,16.369,15.651,24.519,23.514c7.595,7.326,10.943,16.073,10.911,26.848c-0.059,19.393-0.933,38.564-5.893,57.453
		c-4.321,16.461-11.503,30.934-24.117,42.845c-18.879,17.823-36.994,36.452-55.784,54.369c-5.728,5.462-12.312,10.185-19.021,14.426
		c-19.122,12.086-38.473,23.815-57.823,35.535c-5.105,3.093-10.3,6.303-15.867,8.311c-12.045,4.343-17.789,13.294-20.239,25.108
		c-2.839,13.691-5.548,27.411-8.478,41.083c-2.092,9.763-4.845,19.397-6.619,29.213c-4.439,24.57-19.598,41.886-38.213,56.677
		c-12.968,10.305-28.79,15.184-44.779,14.889c-32.633-0.6-63.109,8.935-93.928,17.013c-16.059,4.209-31.646,10.196-47.487,15.258
		c-17.195,5.494-34.638,9.53-52.889,9.032c-11.324-0.309-22.693-0.846-33.977-0.167c-12.576,0.757-25.088,2.692-37.608,4.261
		c-29.077,3.643-58.086,7.927-87.227,10.935c-39.923,4.122-78.637,14.084-117.531,23.137
		c-54.458,12.674-108.623,26.636-163.198,38.767c-23.323,5.184-47.291,7.799-71.094,10.422
		c-55.61,6.128-111.315,11.384-166.938,17.399c-12.341,1.335-24.805,2.857-38.622,6.124c2.648,5.755,4.063,10.034,6.409,13.719
		c11.441,17.984,22.424,36.323,34.888,53.583c24.628,34.107,46.164,70.065,66.79,106.65c8.827,15.657,18.648,30.754,27.488,46.405
		c15.718,27.828,31.217,55.785,46.464,83.875c14.614,26.924,28.778,54.092,43.177,81.133c3.472,6.521,5.274,13.28,6.331,20.744
		c3.028,21.379-7.641,33.993-25.143,42.727c-16.679,8.323-33.456,16.467-50.365,24.308
		c-50.819,23.565-103.473,42.312-156.812,59.227c-3.728,1.183-7.373,2.621-10.272,3.659c-2.954,5.264,0.139,8.54,1.573,12.028
		c11.644,28.33,23.02,56.778,35.175,84.889c11.516,26.629,11.021,54.518,10.334,82.545c-8.59,21.908-0.794,43.511,2.406,64.808
		c4.072,27.112,6.48,54.097,6.709,81.505c0.168,20.111-7.131,36.286-20.275,50.427c-4.51,4.854-9.999,8.796-15.365,13.435
		c2.828,5.614,4.581,9.775,6.899,13.593c23.18,38.14,46.444,76.226,69.699,114.319c16.379,26.832,29.185,55.264,39.443,84.988
		c18.027,52.229,36.024,104.483,55.17,156.308c19.841,53.709,41.937,106.593,61.35,160.449
		c16.016,44.435,29.609,89.744,44.167,134.702c6.194,19.133,8.033,39.085,10.521,58.897c3.864,30.77,15.104,59.161,28.066,86.978
		c1.04,2.232,3.442,3.83,6.04,6.609c21.002-8.704,42.077-16.771,62.572-26.108c23.622-10.762,46.508-23.139,70.134-33.891
		c19.713-8.974,36.253-22.193,52.819-35.648c9.289-7.544,18.872-14.794,28.81-21.449c7.416-4.967,13.055-10.375,16.318-19.218
		c2.926-7.932,8.854-14.729,13.224-22.163c3.336-5.673,8.132-11.275,9.094-17.409c2.819-17.986,15.476-27.72,29.011-36.121
		c30.923-19.194,64.842-27.044,101.252-23.82c9.272,0.821,18.725,2.083,27.89,1.143c22.474-2.308,40.637,6.539,56.12,21.116
		c14.036,13.215,26.849,27.759,39.826,42.057c8.761,9.653,12.845,21.455,14.603,34.375c3.523,25.882,2.542,51.864,2.656,77.834
		c0.05,11.277-4.25,21.02-11.537,29.079c-13.385,14.803-26.56,29.972-41.372,43.259c-17.831,15.994-37.619,29.631-58.512,41.636
		c-22.519,12.938-44.636,26.579-66.827,40.079c-23.993,14.596-49.372,26.116-75.754,35.696
		c-43.79,15.9-87.667,31.619-130.995,48.716c-21.595,8.521-42.278,19.482-62.972,30.126c-29.601,15.228-58.835,31.167-88.215,46.823
		c-4.101,2.186-8.135,4.492-13.142,7.266c1.197,21.355-14.096,36.021-23.612,53.078c-8.096,14.512-20.425,26.135-32.712,37.492
		c-6.823,6.309-14.206,9.363-23.422,8.401c-3.298-0.344-6.665,0.049-9.992-0.082c-20.845-0.823-37.803-14.809-43.239-34.928
		c-18.078-66.915-40.089-132.395-70.572-194.856c-7.33-15.022-15.369-29.39-25.097-43.016c-17.848-24.996-32.49-51.935-45.77-79.607
		c-1.727-3.6-2.694-7.843-5.22-10.736c-16.868-19.332-23.823-44.191-36.996-65.617c-12.889-20.963-23.943-43.066-35.543-64.809
		c-19.804-37.118-43.742-71.598-67.202-106.402c-24.206-35.911-47.416-72.513-72.265-107.971
		c-40.523-57.828-80.219-116.284-125.389-170.736c-19.139-23.072-36.43-47.708-56.039-70.352
		c-51.924-59.954-106.108-117.75-166.11-169.885c-21.354-18.554-43.589-34.87-71.302-42.688
		c-15.969-4.506-31.632-10.097-47.425-15.227c-3.167-1.028-6.701-1.573-9.375-3.37c-10.904-7.334-23.456-8.866-35.881-11.149
		c-13.098-2.406-26.048-5.694-39.194-7.755c-19.044-2.984-38.162-5.613-57.329-7.649c-20.504-2.178-41.126-3.243-61.65-5.25
		c-19.831-1.939-39.56-5.08-59.417-6.536c-17.25-1.265-34.616-1.122-51.933-1.229c-28.268-0.173-28.248-0.021-49.439,18.879
		c-38.267,34.13-77.101,67.647-114.694,102.503c-36.62,33.954-73.057,68.235-107.622,104.247
		c-41.484,43.22-81.751,87.65-119.64,134.171c-26.056,31.993-51.768,64.366-82.385,92.324c-1.474,1.346-3.018,2.698-4.162,4.309
		c-16.562,23.313-36.351,44.197-50.807,69.14c-10.34,17.839-21.873,35.004-33.256,52.217
		c-46.291,69.996-92.613,139.972-139.177,209.786c-16.26,24.379-32.845,48.48-45.777,74.923c-3.429,7.012-8.98,13.203-14.419,18.955
		c-5.607,5.931-9.857,12.214-12.716,19.953c-17.304,46.844-35.458,93.38-52.294,140.389c-8.057,22.491-14.029,45.741-20.609,68.744
		c-6.073,21.234-21.384,33.934-42.861,34.882c-24.037,1.062-24.77,0.736-42.239-16.366c-12.94-12.668-24.265-26.512-32.259-42.906
		c-1.745-3.577-3.738-7.131-6.181-10.254c-6.389-8.171-9.895-17.233-8.933-28.23c-4.201-2.563-7.976-5.115-11.966-7.264
		c-32.243-17.356-64.603-34.498-96.772-51.991c-23.463-12.759-47.903-23.174-72.957-32.342c-44.377-16.24-88.7-32.635-132.92-49.298
		c-28.188-10.622-53.665-26.555-79.409-41.891c-17.737-10.567-35.424-21.221-53.052-31.97
		c-34.429-20.993-64.72-46.765-90.113-78.199c-8.254-10.219-12.942-21.271-12.178-34.878c0.819-14.62,0.06-29.321,0.243-43.982
		c0.091-7.32,0.696-14.637,1.161-21.949c1.23-19.389,8.535-36,22.118-50.048c15.723-16.26,30.151-33.791,49.689-46.02
		c9.344-5.849,19.086-9.238,30.047-9.334c21.325-0.184,42.648-0.36,63.972-0.608c17.644-0.204,34.35,3.633,50.181,11.368
		c14.913,7.286,30.537,13.254,42.055,26.219c4.985,5.609,9.565,10.996,10.595,18.693c1.099,8.215,5.763,14.651,10.256,21.352
		c5.525,8.235,10.669,16.838,14.897,25.792c2.4,5.083,5.427,8.779,9.846,12.046c16.053,11.863,32.006,23.871,47.768,36.116
		c20.158,15.659,41.705,28.229,66.95,34.049c10.999,2.534,21.413,6.946,29.487,15.762c3.036,3.313,7.35,5.825,11.54,7.65
		C959.1,3684.658,978.125,3692.496,999.46,3701.465z"/>
	<path fill-rule="evenodd" d="M2174.312,117.014c7.657,8.524,17.415,13.089,28.87,15.852c10.193,2.458,19.949,7.402,29.328,12.335
		c6.259,3.292,12.096,4.48,19.032,3.501c15.16-2.137,30.473-3.232,45.609-5.509c37.77-5.684,75.776-4.693,113.697-3.793
		c29.73,0.707,57.927,8.558,83.14,25.035c19.866,12.983,42.296,19.152,64.848,25.006c3.707,0.962,8.083,1.485,11.656,0.471
		c15.959-4.53,32.309-8.133,46.425-17.659c17.045-11.503,35.849-15.816,56.486-16.933c24.499-1.324,48.812-6.086,73.212-9.301
		c19.275-2.54,38.446-2.486,57.658,1.234c8.753,1.694,16.84,4.405,23.471,10.23c12.996,11.418,25.919,22.947,38.341,34.979
		c4.189,4.06,7.283,9.521,9.965,14.804c4.214,8.294,8.02,16.842,11.351,25.531c9.755,25.447,19.387,50.946,28.641,76.578
		c3.146,8.711,5.021,17.879,7.772,27.913c8.29,6.515,18.698,10.856,29.06,15.185c16.025,6.694,30.953,15.145,45.576,24.606
		c16.141,10.444,33.409,19.266,50.661,27.838c14.895,7.4,26.399,18.173,34.426,32.261c15.61,27.398,21.755,56.76,17.647,88.436
		c-3.208,24.729-10.869,47.938-20.224,70.795c-4.763,11.639-9.267,23.385-14.207,35.892c26.908,31.112,53.534,61.654,79.868,92.445
		c13.402,15.672,26.694,31.473,39.279,47.799c12.6,16.347,24.109,33.529,36.36,50.151c18.798,25.503,33.65,52.715,38.731,84.523
		c1.045,6.537,3.396,12.858,5.004,19.315c1.802,7.241,4.891,13.553,10.324,18.984c12.904,12.898,18.423,28.77,18.162,46.989
		c-0.181,12.643,0.162,25.314,0.855,37.941c0.479,8.732-2.65,15.378-8.829,21.255c-11.07,10.531-21.03,22.396-35.746,28.327
		c-2.463,0.993-4.725,2.51-7.215,3.41c-15.234,5.507-58.22,5.686-72.745-1.738c-17.566-8.978-36.457-13.046-55.248-16.56
		c-34.112-6.377-67.427-15.348-100.467-25.669c-5.7-1.78-11.595-4.262-17.373-4.197c-13.686,0.153-26.179-4.139-38.843-8.156
		c-10.766-3.414-21.483-6.978-32.292-10.248c-26.229-7.937-50.751-19.308-74.584-33.006c-50.738-29.165-100.965-59.272-152.972-86.2
		c-6.507-3.37-12.769-6.38-20.418-7.197c-12.087-1.291-22.731-7.01-32.421-14.391c-25.42-19.364-50.917-38.626-76.319-58.012
		c-16.955-12.938-34.277-25.035-54.052-33.671c-18.201-7.949-31.953-22.018-40.921-39.458c-4.211-8.188-9.711-14.042-16.467-19.383
		c-7.838-6.196-15.957-12.041-23.748-18.293c-55.601-44.625-110.067-90.554-160.941-140.589
		c-17.625-17.334-33.42-36.197-47.411-56.59c-22.234-32.406-44.589-64.73-66.867-97.107
		c-22.702-32.994-42.319-67.759-59.493-103.918c-1.714-3.606-3.421-7.23-4.869-10.947c-14.012-35.959-27.993-71.93-41.926-107.919
		c-5.709-14.748-4.369-30.186-3.816-45.455c0.106-2.956,2.297-6.141,4.238-8.676c12.756-16.668,30.673-22.957,50.726-23.467
		c15.232-0.388,30.512-1.254,45.688,2.798C2157.548,117.407,2165.858,116.546,2174.312,117.014z"/>
</g>
</svg>
