<?xml version="1.0" encoding="utf-8"?>
<!-- Generator: Adobe Illustrator 16.0.2, SVG Export Plug-In . SVG Version: 6.00 Build 0)  -->
<!DOCTYPE svg PUBLIC "-//W3C//DTD SVG 1.1//EN" "http://www.w3.org/Graphics/SVG/1.1/DTD/svg11.dtd">
<svg version="1.1" id="Layer_1" xmlns="http://www.w3.org/2000/svg" xmlns:xlink="http://www.w3.org/1999/xlink" x="0px" y="0px"
	 width="3469.566px" height="4215.473px" viewBox="0 0 3469.566 4215.473" enable-background="new 0 0 3469.566 4215.473"
	 xml:space="preserve">
<g>
	<path fill-rule="evenodd" clip-rule="evenodd" fill="#FFFFFF" d="M3473.452,4219.358c-1157.226,0-2314.339,0-3471.34,0
		c0-1405.861,0-2811.61,0-4217.246c1157.226,0,2314.34,0,3471.34,0C3473.452,1407.974,3473.452,2813.723,3473.452,4219.358z
		 M1634.705,3626.075c-12.724,1.328-23.443,4.555-34.318,1.322c-17.46-5.188-35.291-5.6-53.329-6.021
		c-23.192-0.541-45.029,4.235-65.747,13.93c-39.166,18.328-78.336,36.688-116.97,56.1c-26.267,13.198-49.279,31.491-71.214,50.992
		c-15.854,14.096-28.446,30.754-37.52,49.962c-1.681,3.56-3.428,7.468-3.62,11.29c-1.062,21.277-1.847,42.617,5.498,63.153
		c1.429,3.995,3.158,8.163,5.797,11.395c9.228,11.295,18.82,22.298,28.454,33.255c9.676,11.006,22.667,14.93,36.626,15.094
		c18.292,0.215,36.602-1.086,54.892-0.826c12.632,0.18,24.421-2.208,35.863-7.223c6.729-2.949,13.546-5.063,21.143-5.222
		c5.492-0.115,11.089-1.881,16.375-3.687c8.133-2.778,16.034-6.238,24.046-9.377c10.772-4.218,21.637-8.21,32.316-12.652
		c14.978-6.23,29.617-13.317,44.772-19.066c18.334-6.954,37.182-12.549,55.577-19.354c27.417-10.143,54.61-20.891,81.944-31.264
		c20.5-7.78,41.333-14.747,61.557-23.183c45.687-19.062,91.793-36.982,138.298-53.939c6.974-2.542,13.893-6.883,19.18-12.078
		c12.317-12.11,23.032-25.876,35.556-37.745c8.026-7.607,11.805-15.528,10.252-26.279c-0.33-2.284-0.161-4.665-0.03-6.99
		c0.748-13.242-1.941-25.847-7.301-37.867c-6.905-15.487-14.218-30.793-21.067-46.305c-10.875-24.631-22.132-49.119-32.079-74.125
		c-10.438-26.242-19.25-53.128-29.276-79.54c-10.027-26.416-22.019-52.157-30.779-78.969
		c-18.885-57.802-37.04-115.87-54.034-174.255c-19.978-68.635-34.786-138.453-44.343-209.386
		c-7.939-58.929-13.354-118.092-16.772-177.398c-1.486-25.788-2.375-51.662-1.502-77.678c1.417-42.202,1.298-84.465,4.568-126.6
		c1.54-19.838,3.288-39.688,5.914-59.404c3.108-23.36,7.378-46.563,10.924-69.869c1.896-12.459,3.217-25.005,5.071-37.472
		c0.355-2.391,1.429-5.196,3.13-6.778c8.754-8.132,17.821-15.926,27.111-24.131c2.196,0.828,4.696,1.65,7.102,2.696
		c34.471,14.986,69.304,28.938,105.284,40.03c29.883,9.211,59.7,18.461,90.602,23.726c17.041,2.902,33.979,6.455,51.079,8.931
		c7.113,1.029,10.276,4.4,11.954,10.902c1.825,7.076,4.307,13.993,6.713,20.906c7.966,22.896,15.344,45.887,20.053,69.783
		c5.071,25.726,11.125,51.295,17.829,76.646c4.833,18.277,11.854,35.966,17.16,54.132c11.094,37.981,19.573,76.587,25.853,115.653
		c3.845,23.921,7.653,47.861,10.722,71.889c1.888,14.775,2.414,29.729,3.432,44.61c1.379,20.161,3.014,40.317,3.831,60.504
		c0.605,14.972,0.211,29.99,0.037,44.985c-0.308,26.619-1.903,53.278-0.901,79.841c1.176,31.149,4.986,62.189,6.826,93.325
		c1.393,23.56,1.313,47.202,2.22,70.796c0.623,16.219,1.433,32.449,2.839,48.615c2.036,23.406,5.047,46.729,6.985,70.143
		c2.407,29.092,3.832,58.266,6.273,87.354c1.804,21.492,4.524,42.907,6.886,64.352c3.633,32.968,7.679,65.895,10.839,98.907
		c2.182,22.785,3.104,45.689,4.698,68.533c1.038,14.889,3.154,29.763,3.19,44.646c0.046,18.676,3.497,36.521,10.878,53.38
		c5.02,11.468,11.752,22.248,18.376,32.926c3.648,5.881,8.656,10.916,13.052,16.331c5.643,6.952,10.695,14.509,17.066,20.714
		c9.51,9.26,20.401,17.104,29.892,26.382c16.838,16.46,35.728,29.807,56.84,40.07c7.565,3.679,14.179,8.411,20.075,14.494
		c11.578,11.948,23.658,23.359,37.562,32.707c17.103,11.499,33.985,23.32,51.015,34.929c10.988,7.49,22.284,14.55,33.054,22.341
		c14.551,10.526,28.527,21.85,43.15,32.271c6.987,4.979,14.784,8.871,22.413,12.879c7.314,3.841,15.243,6.608,22.258,10.9
		c10.272,6.285,21.075,9.21,33.072,9.542c19.72,0.544,39.175-1.755,58.65-4.122c2.924-0.355,5.813-1.187,8.653-2.022
		c14.125-4.157,25.454-12.376,35.134-23.395c4.52-5.142,8.304-10.458,9.585-17.143c2.188-11.414,5.479-22.874,5.678-34.36
		c0.39-22.58-0.166-45.262-2.03-67.76c-1.035-12.488-5.011-25.344-13.312-35.054c-13.392-15.666-27.903-30.428-42.621-44.878
		c-5.071-4.979-11.982-8.246-18.396-11.645c-7.888-4.18-16.185-7.579-24.214-11.502c-6.564-3.206-13.143-6.433-19.458-10.094
		c-13.487-7.82-27.184-15.376-40.047-24.138c-7.024-4.784-12.827-11.531-18.646-17.882c-11.989-13.087-22.152-27.465-27.507-44.628
		c-7.32-23.464-14.505-46.974-21.408-70.563c-8.437-28.833-10.099-57.989-4.672-87.72c2.971-16.267,4.596-32.827,5.97-49.327
		c1.9-22.822,2.773-45.729,4.492-68.568c1.595-21.18,3.991-42.299,5.54-63.481c1.793-24.501,3.102-49.038,4.518-73.566
		c1.263-21.876,2.174-43.775,3.636-65.637c1.396-20.852,3.02-41.696,5.046-62.496c3.412-35,7.564-69.932,10.761-104.95
		c2.655-29.088,3.921-58.302,6.657-87.379c2.455-26.083,6.149-52.048,9.16-78.08c3.545-30.662,7.139-61.32,10.332-92.021
		c2.024-19.464,2.56-39.105,5.169-58.479c4.917-36.521,9.032-73.099,10.715-109.908c1.062-23.254,1.491-46.539,2.06-69.813
		c0.366-14.978,0.614-29.96,0.607-44.94c-0.003-4.893,0.886-8.763,4.624-12.436c11.604-11.406,22.521-23.516,34.195-34.847
		c23.643-22.944,47.604-45.559,71.465-68.276c0.406-0.386,1.213-0.351,1.021-0.301c6.715,4.584,12.426,10.309,19.313,12.853
		c23.418,8.656,47.492,14.878,72.708,15.797c41.296,1.505,81.768-2.872,120.89-16.674c13.383-4.72,26.435-10.378,40.426-15.921
		c4.755,3.324,10.051,8.107,16.209,11.145c26.478,13.057,53.91,23.33,84.108,21.239c12.67-0.877,21.682,3.067,30.458,12.363
		c16.663,17.649,34.798,33.904,52.204,50.861c20.664,20.131,46.508,18.658,72.282,17.572c0.938-0.04,1.934-0.528,2.768-1.032
		c11.064-6.696,22.281-13.163,33.089-20.254c7.192-4.719,13.891-10.216,20.622-15.602c4.403-3.523,8.428-7.517,12.692-11.219
		c9.279-8.054,17.923-17.099,28.117-23.759c8.589-5.611,16.658-11.949,25.187-17.39c15.822-10.092,27.206-24.354,39.969-37.359
		c9.185-9.36,17.131-19.924,19.668-32.989c1.816-9.345,1.415-19.123,1.961-28.711c0.949-16.692-5.72-30.616-16.619-42.491
		c-14.621-15.93-29.678-31.469-44.817-46.912c-16.798-17.133-33.905-33.964-50.861-50.942c-2.564-2.568-5.037-5.226-7.62-7.913
		c2.466-4.912,4.745-9.329,6.915-13.799c3.607-7.437,7.802-14.676,10.537-22.426c3.086-8.737,4.866-17.938,7.152-26.953
		c4.992-19.678,8.962-39.506,9.359-59.917c0.29-14.951,0.643-29.906,1.369-44.838c2.744-56.339-0.623-112.215-10.796-167.77
		c-8.23-44.941-21.48-88.399-36.929-131.224c-23.813-66.014-57.147-127.37-93.695-187.009
		c-23.298-38.018-53.627-70.355-86.116-100.513c-27.717-25.727-62.365-39.839-97.804-50.122
		c-45.865-13.308-92.186-25.745-140.597-26.95c-24.909-0.62-49.676-4.415-74.706-3.581c-29.599,0.987-59.22,1.305-88.824,2.118
		c-15.618,0.429-31.225,1.272-46.834,1.98c-6.637,0.302-13.269,0.718-19.902,1.109c-13.598,0.803-27.195,1.612-40.792,2.449
		c-4.676,0.288-9.345,0.669-14.019,1.007c-0.272-0.733-0.545-1.466-0.817-2.199c11.045-10.018,22.057-20.074,33.144-30.047
		c15.074-13.559,30.254-27.002,45.29-40.604c5.128-4.637,8.203-10.127,7.535-17.582c-0.592-6.612,0.315-13.36-0.287-19.97
		c-0.377-4.118-1.204-9.115-3.778-11.944c-8.924-9.807-17.755-19.958-30.483-25.331c-12.258-5.174-24.39-10.646-36.658-15.794
		c-38.361-16.099-77.82-27.185-119.943-26.018c-2.557,0.071-5.131-0.529-7.742-0.822c-1.66-21.522-3.344-42.36-4.855-63.21
		c-1.707-23.524-13.197-43.601-22.492-64.457c-0.398-0.895-1.16-1.622-1.719-2.45c-4.416-6.536-8.822-13.078-13.644-20.23
		c3.107-1.49,5.656-2.913,8.349-3.972c50.487-19.878,96.461-47.686,140.189-79.494c22.607-16.443,45.021-33.199,68.217-48.779
		c27.965-18.784,54.423-39.262,78.516-62.826c2.422-2.369,6.121-3.783,9.482-4.775c10.841-3.2,22.152-5.595,30.793-13.344
		c8.659-7.763,16.695-16.247,24.702-24.702c7.196-7.601,9.994-16.983,9.909-27.379c-0.109-13.329,0.032-26.662-0.053-39.992
		c-0.048-7.403-2.067-14.152-5.513-20.876c-5.333-10.406-14.222-17.445-21.813-25.75c-7.602-8.317-17.212-13.356-27.397-17.563
		c-12.298-5.078-25.312-5.387-38.263-5.155c-13.4,0.241-26.566,0.147-38.84-6.336c-2.309-1.219-5.049-1.666-7.627-2.32
		c-19.644-4.983-39.3-9.905-58.942-14.89c-39.327-9.98-78.614-20.114-117.981-29.937c-24.172-6.032-48.413-11.804-72.709-17.312
		c-16.854-3.822-33.825-7.142-50.806-10.36c-4.729-0.896-7.421-3.525-10.136-7.158c-5.943-7.952-11.837-16.063-18.722-23.169
		c-20.152-20.799-41.447-40.31-65.051-57.308c-11.965-8.617-24.513-15.888-37.936-21.695c-4.474-1.935-9.536-3.252-14.385-3.449
		c-18.283-0.739-36.59-1.146-54.888-1.156c-7.265-0.005-14.635,0.806-21.772,2.191c-15.648,3.038-31.216,6.529-46.732,10.19
		c-3.485,0.822-6.209,0.758-9.403-0.958c-23.428-12.584-46.719-25.459-70.539-37.261c-14.229-7.05-28.908-13.905-44.146-18.053
		c-27.591-7.51-55.733-12.298-84.707-11.282c-23.413,0.821-43.729,8.627-60.676,24.24c-9.97,9.188-18.4,20.051-27.453,30.224
		c-3.537,3.975-6.776,8.216-10.328,12.176c-9.768,10.893-19.655,21.679-29.451,32.547c-18.156,20.143-32.149,43.06-43.979,67.3
		c-3.691,7.563-8.318,12.602-17.107,12.867c-3.64,0.109-7.274,0.495-10.905,0.818c-8.597,0.766-17.214,1.371-25.78,2.397
		c-22.743,2.722-45.452,5.727-68.196,8.439c-16.491,1.967-33.203,2.64-49.485,5.667c-31.706,5.896-63.176,13.053-94.753,19.643
		c-3.468,0.724-6.999,1.149-10.152,1.658c-2.977-4.53-2.279-8.211-0.056-11.916c2.045-3.408,3.921-6.917,5.906-10.362
		c11.083-19.247,11.156-19.03,32.926-26.064c6.526-2.108,13.511-4.635,18.618-8.946c15.032-12.687,14.704-13.074,14.702-33.014
		c-0.001-2.666,0.069-5.335-0.034-7.997c-0.064-1.641,0.208-3.824-0.703-4.819c-7.494-8.188-13.559-18.556-27.06-17.857
		c-11.201,0.581-22.422,0.758-33.634,1.113c10.614-6.002,21.732-9.991,34.372-9.072c10.271,0.746,20.637,1.506,30.883,0.916
		c11.849-0.683,24.041-1.667,33.606-10.164c4.976-4.419,9.759-9.121,14.109-14.146c1.754-2.026,2.882-5.228,2.981-7.942
		c0.352-9.652,0.227-19.326,0.069-28.989c-0.036-2.217-0.197-5.086-1.526-6.523c-8.996-9.734-17.684-19.805-32.746-20.343
		c-6.133-0.219-12.253-2.513-18.258-4.281c-27.321-8.042-46.801-25.388-59.412-50.692c-3.62-7.262-5.873-14.877-4.014-23.076
		c1.676-7.395,3.352-14.809,5.507-22.072c6.943-23.393,16.613-45.341,34.401-62.824c4.753-4.672,9.211-9.674,14.215-14.055
		c4.114-3.601,5.903-7.838,5.895-13.104c-0.016-9.665,0.057-19.331-0.026-28.995c-0.045-5.228-1.952-9.685-5.9-13.277
		c-2.709-2.464-5.349-5.036-7.764-7.785c-4.244-4.83-9.752-6.809-15.877-7.315c-3.643-0.301-7.412,0.377-10.976-0.242
		c-15.42-2.679-26.621,3.987-36.784,14.814c-12.322,13.131-26.289,24.218-44.016,29.509c-7.271,2.17-14.975,3.574-21.612,7.006
		c-7.608,3.934-12.347,1.837-17.112-4.039c-5.114-6.307-12.435-9.462-20.062-10.029c-10.583-0.785-21.369-0.72-31.91,0.429
		c-7.411,0.807-14.465,5.372-21.844,5.884c-14.347,0.997-28.069,4.205-41.99,8.753c-13.561-18.625-28.341-36.288-28.999-60.466
		c4.428-4.521,8.47-8.962,12.86-13.03c3.609-3.343,6.221-6.824,5.416-12.088c-1.512-9.88,3.697-20.813-4.562-29.625
		c-2.959-3.158-5.953-6.326-9.248-9.115c-1.929-1.632-4.456-3.507-6.768-3.582c-10.981-0.351-22.033-0.742-32.951,0.17
		c-5.407,0.452-11.575,2.487-15.677,5.883c-12.902,10.682-27.57,20.409-29.624,39.429c-0.194,1.805-1.368,3.503-2.317,5.809
		c-8.297-7.488-18.139-9.305-28.667-8.768c-2.327,0.118-4.708,0.311-6.99-0.03c-16.069-2.4-25.19,7.394-33.243,18.917
		c-1.667,2.386-3.627,5.26-3.691,7.95c-0.241,10.303,0.217,20.623,0.458,30.935c0.053,2.242,0.839,4.609,0.352,6.698
		c-3.49,14.954-4.279,30.138-4.431,45.408c-0.033,3.311-0.092,6.764-1.003,9.9c-4.349,14.973-9.418,29.746-13.394,44.813
		c-2.881,10.918-10.766,17.632-19.198,22.919c-16.787,10.526-34.35,19.856-51.865,29.165c-11.907,6.327-37.119,2.915-45.455-7.651
		c-10.708-13.573-23.621-18.215-40.007-15.942c-2.291,0.317-4.718-0.257-6.98,0.147c-3.907,0.698-6.868-0.771-10.148-2.686
		c-7.361-4.294-14.346-9.682-23.623-9.442c-7.66,0.197-15.34-0.19-22.989,0.15c-2.781,0.124-6.045,0.921-8.152,2.592
		c-8.51,6.743-15.906,14.282-13.157,26.725c0.352,1.588,0.232,3.346,0.017,4.985c-0.987,7.518,1.486,13.251,7.346,18.333
		c10.045,8.711,19.902,17.715,29.128,27.281c20.786,21.548,41.072,43.577,61.753,65.226c2.403,2.517,5.834,4.285,9.09,5.709
		c14.823,6.486,30.102,12.031,44.552,19.245c15.073,7.525,29.709,16.067,43.92,25.131c9.725,6.204,18.387,14.069,27.534,21.178
		c8.846,6.875,14.382,16.424,19.388,25.984c4.414,8.431,7.091,17.794,10.263,26.842c1.269,3.616,0.729,7.009-2.569,9.852
		c-7.046,6.077-13.671,12.649-20.803,18.619c-9.917,8.303-20.789,15.563-30.089,24.481c-16.79,16.1-32.98,32.851-48.933,49.789
		c-16.18,17.18-31.781,34.902-47.606,52.415c-3.553,3.932-6.98,7.978-11.04,12.628c-7.806-4.415-14.294-8.121-20.816-11.768
		c-9.199-5.144-18.28-10.526-27.668-15.299c-13.927-7.08-29.672-6.544-44.535-8.777c-25.26-3.795-50.902-4.833-76.586-4.729
		c-18.601,0.074-36.404,3.538-53.717,9.231c-22.542,7.413-42.94,18.995-59.909,36.006c-1.558,1.562-3.587,2.652-5.34,3.918
		c-7.515-5.285-14.06-11.195-21.668-14.957c-13.857-6.854-28.196-12.815-42.628-18.388c-7.641-2.95-15.833-5.697-23.893-6.08
		c-17.882-0.85-35.858-0.639-53.748,0.183c-6.345,0.291-10.44-1.179-14.8-5.567c-17.832-17.951-35.971-35.598-54.124-53.228
		c-8.354-8.113-18.238-13.381-30.13-13.64c-11.659-0.254-23.328-0.109-34.993-0.042c-6.209,0.036-11.427,2.356-16.296,6.362
		c-4.818,3.963-10.343,7.069-15.567,10.537c-4.696,3.117-9.923,5.651-14.013,9.421c-14.699,13.551-27.875,28.519-40.415,44.117
		c-10.402,12.94-21.502,25.337-32.671,37.633c-7.163,7.885-15.108,15.052-22.528,22.711c-10.258,10.587-19.889,21.985-21.555,37.148
		c-1.299,11.823-0.728,23.916-0.211,35.856c0.494,11.444,3.994,22.556,11.256,31.245c11.491,13.75,23.912,26.792,36.663,39.401
		c13.201,13.054,27.266,25.235,39.885,36.819c-2.07,17.796-4.456,33.87-5.714,50.032c-2.748,35.282,0.052,70.374,4.439,105.407
		c2.266,18.093,3.416,36.325,5.521,54.44c1.681,14.467,3.042,29.084,6.312,43.227c6.708,29.017,13.712,58.026,22.27,86.536
		c7.875,26.236,16.729,52.327,27.396,77.532c10.281,24.291,22.885,47.665,35.484,70.891c11.659,21.49,23.525,43.037,37.389,63.115
		c14.304,20.716,30.261,40.467,47.05,59.25c26.145,29.253,53.301,57.628,80.671,85.75c9.677,9.941,20.782,18.674,32.03,26.866
		c23.818,17.345,48.557,33.442,72.169,51.054c20.358,15.186,42.112,27.376,65.676,36.659c27.089,10.67,54.215,21.091,82.058,29.801
		c24.592,7.693,49.719,11.431,75.091,13.768c18.845,1.735,37.861,1.808,56.809,2.163c27.922,0.523,55.853,0.771,83.779,0.872
		c13.307,0.048,26.637-1.119,39.92-0.67c27.565,0.93,55.094,3.152,82.662,3.743c23.568,0.506,47.17-0.531,70.758-0.864
		c4.138-0.059,8.278-0.009,13.294-0.009c-3.403,8.667-6.591,15.961-9.161,23.467c-14.957,43.7-29.776,87.446-44.628,131.181
		c-9.118,26.852-14.923,54.414-17.962,82.602c-1.35,12.514-2.781,25.05-4.949,37.44c-5.727,32.739-9.754,65.566-10.483,98.887
		c-0.839,38.332,2.505,76.436,4.323,114.624c0.113,2.384,1.372,5.192,3.016,6.939c6.393,6.788,13.25,13.137,19.756,19.822
		c6.685,6.867,14.445,9.252,24.171,9.072c18.252-0.337,36.551-1.258,54.809,1.644c12.102,1.923,24.446,2.447,36.707,3.197
		c11.921,0.729,23.874,0.949,36.543,1.421c5.235,15.712,10.881,31.302,15.609,47.165c6.747,22.641,13.658,45.182,23.989,66.512
		c3.075,6.347,4.872,12.814,4.746,20.108c-0.167,9.596,0.696,19.233,1.528,28.816c1.492,17.195,3.426,34.353,4.92,51.549
		c1.292,14.867,2.064,29.78,3.356,44.647c3.55,40.837,11.87,80.765,23.043,120.156c2.428,8.56,5.921,16.942,5.144,26.232
		c-0.17,2.037,1.254,4.327,2.29,6.321c2.416,4.657,5.537,9.006,7.487,13.838c5.228,12.94,9.255,26.41,15.119,39.038
		c7.659,16.493,11.688,33.863,15.385,51.446c9.854,46.861,20.262,93.576,36.244,138.848c15.182,43.008,27.014,86.979,37.845,131.257
		c7.343,30.019,15.241,59.935,27.839,88.298c7.021,15.808,14.997,31.195,21.855,47.07c18.202,42.136,35.423,84.706,54.342,126.512
		c6.445,14.24,12,27.856,10.108,43.659c-0.154,1.29,0.164,2.649,0.347,3.965c2.133,15.373,10.795,24.732,25.763,28.817
		c2.807,0.766,5.936,3.204,7.335,5.742c4.491,8.147,8.137,16.758,12.301,25.094c10.096,20.208,19.869,40.595,30.629,60.446
		C1618.722,3603.141,1626.553,3613.578,1634.705,3626.075z M983.547,2498.354c0.138,20.915-0.891,16.197,7.828,26.128
		c5.771,6.575,12.208,9.447,20.853,8.483c4.92-0.549,9.979,0.2,14.923-0.231c2.817-0.245,6.177-0.954,8.176-2.718
		c8.405-7.423,17.811-14.583,14.257-28.198c-0.406-1.555-0.277-3.343-0.017-4.961c1.229-7.647-2.708-12.571-7.41-18.224
		c-8.634-10.375-18.518-14.331-31.937-13.225c-7.695,0.635-13.512,2.054-19.182,7.756c-5.648,5.68-8.675,11.324-7.533,19.218
		C983.787,2494.334,983.547,2496.361,983.547,2498.354z"/>
	<path fill-rule="evenodd" clip-rule="evenodd" d="M1634.705,3626.075c-8.151-12.497-15.982-22.935-22.133-34.28
		c-10.761-19.852-20.534-40.238-30.629-60.446c-4.164-8.336-7.81-16.946-12.301-25.094c-1.399-2.538-4.529-4.977-7.335-5.742
		c-14.968-4.085-23.63-13.444-25.763-28.817c-0.183-1.315-0.501-2.675-0.347-3.965c1.893-15.803-3.663-29.419-10.108-43.659
		c-18.918-41.806-36.14-84.376-54.342-126.512c-6.858-15.875-14.834-31.263-21.855-47.07
		c-12.599-28.363-20.496-58.279-27.839-88.298c-10.831-44.278-22.663-88.249-37.845-131.257
		c-15.981-45.271-26.39-91.986-36.244-138.848c-3.697-17.583-7.726-34.953-15.385-51.446c-5.864-12.628-9.891-26.098-15.119-39.038
		c-1.951-4.832-5.071-9.181-7.487-13.838c-1.035-1.994-2.459-4.284-2.29-6.321c0.777-9.29-2.716-17.673-5.144-26.232
		c-11.173-39.392-19.493-79.319-23.043-120.156c-1.292-14.867-2.064-29.78-3.356-44.647c-1.494-17.196-3.428-34.354-4.92-51.549
		c-0.832-9.583-1.695-19.221-1.528-28.816c0.126-7.294-1.671-13.762-4.746-20.108c-10.331-21.33-17.242-43.871-23.989-66.512
		c-4.728-15.863-10.374-31.453-15.609-47.165c-12.669-0.472-24.622-0.691-36.543-1.421c-12.261-0.75-24.605-1.274-36.707-3.197
		c-18.258-2.901-36.556-1.98-54.809-1.644c-9.726,0.18-17.486-2.205-24.171-9.072c-6.506-6.686-13.364-13.034-19.756-19.822
		c-1.645-1.747-2.903-4.556-3.016-6.939c-1.817-38.188-5.162-76.292-4.323-114.624c0.729-33.32,4.756-66.147,10.483-98.887
		c2.168-12.391,3.599-24.926,4.949-37.44c3.04-28.188,8.845-55.75,17.962-82.602c14.853-43.735,29.671-87.481,44.628-131.181
		c2.57-7.506,5.758-14.8,9.161-23.467c-5.016,0-9.156-0.05-13.294,0.009c-23.588,0.333-47.189,1.37-70.758,0.864
		c-27.568-0.591-55.097-2.813-82.662-3.743c-13.283-0.448-26.613,0.718-39.92,0.67c-27.927-0.101-55.857-0.349-83.779-0.872
		c-18.948-0.355-37.964-0.428-56.809-2.163c-25.372-2.336-50.499-6.074-75.091-13.768c-27.843-8.71-54.969-19.131-82.058-29.801
		c-23.564-9.283-45.318-21.474-65.676-36.659c-23.612-17.612-48.351-33.709-72.169-51.054c-11.249-8.191-22.354-16.925-32.03-26.866
		c-27.371-28.122-54.526-56.497-80.671-85.75c-16.789-18.783-32.746-38.535-47.05-59.25c-13.864-20.079-25.73-41.625-37.389-63.115
		c-12.6-23.226-25.204-46.6-35.484-70.891c-10.667-25.205-19.521-51.296-27.396-77.532c-8.557-28.51-15.561-57.519-22.27-86.536
		c-3.27-14.143-4.631-28.76-6.312-43.227c-2.105-18.116-3.255-36.347-5.521-54.44c-4.387-35.033-7.187-70.125-4.439-105.407
		c1.258-16.162,3.644-32.235,5.714-50.032c-12.62-11.583-26.684-23.765-39.885-36.819c-12.751-12.609-25.172-25.651-36.663-39.401
		c-7.262-8.689-10.762-19.801-11.256-31.245c-0.516-11.94-1.088-24.033,0.211-35.856c1.666-15.163,11.297-26.561,21.555-37.148
		c7.42-7.66,15.366-14.827,22.528-22.711c11.169-12.295,22.27-24.693,32.671-37.633c12.54-15.598,25.716-30.565,40.415-44.117
		c4.09-3.77,9.317-6.304,14.013-9.421c5.225-3.468,10.75-6.573,15.567-10.537c4.869-4.006,10.087-6.326,16.296-6.362
		c11.665-0.067,23.333-0.212,34.993,0.042c11.892,0.259,21.775,5.527,30.13,13.64c18.153,17.629,36.292,35.276,54.124,53.228
		c4.36,4.388,8.455,5.858,14.8,5.567c17.89-0.821,35.866-1.032,53.748-0.183c8.06,0.383,16.252,3.13,23.893,6.08
		c14.433,5.573,28.771,11.535,42.628,18.388c7.608,3.762,14.153,9.672,21.668,14.957c1.753-1.267,3.783-2.357,5.34-3.918
		c16.969-17.011,37.367-28.593,59.909-36.006c17.313-5.693,35.117-9.157,53.717-9.231c25.684-0.104,51.326,0.934,76.586,4.729
		c14.862,2.233,30.607,1.698,44.535,8.777c9.388,4.772,18.469,10.155,27.668,15.299c6.522,3.646,13.01,7.353,20.816,11.768
		c4.059-4.65,7.486-8.696,11.04-12.628c15.825-17.513,31.427-35.235,47.606-52.415c15.952-16.938,32.143-33.689,48.933-49.789
		c9.3-8.919,20.172-16.179,30.089-24.481c7.132-5.97,13.757-12.542,20.803-18.619c3.298-2.843,3.838-6.236,2.569-9.852
		c-3.171-9.048-5.849-18.411-10.263-26.842c-5.006-9.56-10.542-19.109-19.388-25.984c-9.147-7.109-17.809-14.975-27.534-21.178
		c-14.211-9.064-28.847-17.606-43.92-25.131c-14.45-7.214-29.729-12.758-44.552-19.245c-3.256-1.425-6.688-3.193-9.09-5.709
		c-20.681-21.649-40.968-43.678-61.753-65.226c-9.226-9.565-19.083-18.57-29.128-27.281c-5.86-5.082-8.333-10.815-7.346-18.333
		c0.216-1.639,0.335-3.396-0.017-4.985c-2.749-12.443,4.647-19.982,13.157-26.725c2.107-1.671,5.372-2.468,8.152-2.592
		c7.649-0.341,15.329,0.047,22.989-0.15c9.277-0.239,16.262,5.148,23.623,9.442c3.281,1.914,6.242,3.384,10.148,2.686
		c2.262-0.404,4.69,0.17,6.98-0.147c16.386-2.272,29.299,2.37,40.007,15.942c8.336,10.566,33.548,13.979,45.455,7.651
		c17.515-9.309,35.078-18.639,51.865-29.165c8.432-5.287,16.316-12,19.198-22.919c3.975-15.067,9.044-29.84,13.394-44.813
		c0.911-3.136,0.97-6.589,1.003-9.9c0.152-15.27,0.941-30.454,4.431-45.408c0.487-2.089-0.299-4.456-0.352-6.698
		c-0.241-10.312-0.699-20.632-0.458-30.935c0.063-2.69,2.023-5.564,3.691-7.95c8.053-11.524,17.174-21.317,33.243-18.917
		c2.282,0.341,4.664,0.148,6.99,0.03c10.529-0.537,20.371,1.28,28.667,8.768c0.949-2.306,2.123-4.004,2.317-5.809
		c2.054-19.02,16.722-28.747,29.624-39.429c4.102-3.396,10.27-5.431,15.677-5.883c10.918-0.912,21.97-0.521,32.951-0.17
		c2.312,0.074,4.838,1.949,6.768,3.582c3.295,2.789,6.289,5.957,9.248,9.115c8.259,8.813,3.05,19.745,4.562,29.625
		c0.805,5.264-1.807,8.745-5.416,12.088c-4.39,4.068-8.432,8.51-12.86,13.03c0.657,24.179,15.438,41.841,28.999,60.466
		c13.921-4.548,27.643-7.757,41.99-8.753c7.379-0.513,14.433-5.077,21.844-5.884c10.541-1.148,21.327-1.214,31.91-0.429
		c7.627,0.566,14.948,3.722,20.062,10.029c4.765,5.876,9.504,7.973,17.112,4.039c6.638-3.433,14.341-4.836,21.612-7.006
		c17.728-5.292,31.694-16.378,44.016-29.509c10.163-10.827,21.363-17.494,36.784-14.814c3.564,0.619,7.333-0.059,10.976,0.242
		c6.125,0.507,11.633,2.485,15.877,7.315c2.415,2.749,5.055,5.321,7.764,7.785c3.949,3.592,5.855,8.049,5.9,13.277
		c0.083,9.664,0.011,19.33,0.026,28.995c0.009,5.267-1.781,9.504-5.895,13.104c-5.004,4.381-9.462,9.383-14.215,14.055
		c-17.788,17.483-27.458,39.431-34.401,62.824c-2.155,7.263-3.831,14.677-5.507,22.072c-1.859,8.199,0.394,15.814,4.014,23.076
		c12.611,25.304,32.091,42.65,59.412,50.692c6.004,1.768,12.125,4.062,18.258,4.281c15.062,0.538,23.75,10.609,32.746,20.343
		c1.329,1.438,1.49,4.306,1.526,6.523c0.157,9.663,0.282,19.336-0.069,28.989c-0.099,2.714-1.227,5.916-2.981,7.942
		c-4.35,5.024-9.133,9.726-14.109,14.146c-9.565,8.496-21.757,9.481-33.606,10.164c-10.246,0.591-20.612-0.17-30.883-0.916
		c-12.639-0.919-23.758,3.07-34.372,9.072c11.212-0.355,22.434-0.532,33.634-1.113c13.501-0.699,19.566,9.669,27.06,17.857
		c0.911,0.995,0.639,3.178,0.703,4.819c0.104,2.662,0.033,5.332,0.034,7.997c0.002,19.94,0.33,20.328-14.702,33.014
		c-5.107,4.311-12.092,6.838-18.618,8.946c-21.771,7.034-21.843,6.817-32.926,26.064c-1.984,3.445-3.861,6.955-5.906,10.362
		c-2.223,3.705-2.921,7.386,0.056,11.916c3.154-0.509,6.684-0.935,10.152-1.658c31.577-6.59,63.047-13.747,94.753-19.643
		c16.282-3.027,32.994-3.7,49.485-5.667c22.744-2.712,45.453-5.717,68.196-8.439c8.566-1.026,17.184-1.632,25.78-2.397
		c3.63-0.323,7.265-0.708,10.905-0.818c8.789-0.265,13.416-5.304,17.107-12.867c11.83-24.24,25.823-47.157,43.979-67.3
		c9.796-10.868,19.684-21.654,29.451-32.547c3.552-3.96,6.791-8.201,10.328-12.176c9.053-10.173,17.483-21.037,27.453-30.224
		c16.946-15.613,37.263-23.418,60.676-24.24c28.974-1.016,57.116,3.772,84.707,11.282c15.238,4.147,29.917,11.003,44.146,18.053
		c23.82,11.801,47.111,24.677,70.539,37.261c3.194,1.716,5.918,1.78,9.403,0.958c15.517-3.661,31.084-7.152,46.732-10.19
		c7.138-1.386,14.508-2.196,21.772-2.191c18.298,0.011,36.604,0.417,54.888,1.156c4.849,0.196,9.911,1.514,14.385,3.449
		c13.423,5.807,25.971,13.079,37.936,21.695c23.604,16.998,44.898,36.508,65.051,57.308c6.885,7.105,12.778,15.217,18.722,23.169
		c2.715,3.633,5.406,6.262,10.136,7.158c16.98,3.218,33.952,6.538,50.806,10.36c24.296,5.508,48.537,11.28,72.709,17.312
		c39.367,9.823,78.654,19.957,117.981,29.937c19.643,4.985,39.299,9.907,58.942,14.89c2.578,0.654,5.318,1.101,7.627,2.32
		c12.273,6.483,25.439,6.577,38.84,6.336c12.951-0.232,25.965,0.077,38.263,5.155c10.186,4.207,19.796,9.245,27.397,17.563
		c7.592,8.304,16.48,15.344,21.813,25.75c3.445,6.725,5.465,13.473,5.513,20.876c0.085,13.33-0.057,26.663,0.053,39.992
		c0.085,10.396-2.713,19.779-9.909,27.379c-8.007,8.455-16.043,16.939-24.702,24.702c-8.641,7.749-19.952,10.144-30.793,13.344
		c-3.361,0.992-7.061,2.406-9.482,4.775c-24.093,23.564-50.551,44.042-78.516,62.826c-23.195,15.58-45.609,32.336-68.217,48.779
		c-43.729,31.808-89.702,59.615-140.189,79.494c-2.692,1.06-5.241,2.482-8.349,3.972c4.821,7.152,9.228,13.694,13.644,20.23
		c0.559,0.828,1.32,1.556,1.719,2.45c9.295,20.855,20.785,40.932,22.492,64.457c1.512,20.85,3.195,41.688,4.855,63.21
		c2.611,0.293,5.186,0.893,7.742,0.822c42.123-1.167,81.582,9.919,119.943,26.018c12.269,5.147,24.4,10.62,36.658,15.794
		c12.729,5.373,21.56,15.523,30.483,25.331c2.574,2.829,3.401,7.826,3.778,11.944c0.603,6.61-0.305,13.358,0.287,19.97
		c0.668,7.454-2.407,12.945-7.535,17.582c-15.036,13.602-30.216,27.046-45.29,40.604c-11.087,9.973-22.099,20.029-33.144,30.047
		c0.272,0.733,0.545,1.466,0.817,2.199c4.674-0.338,9.343-0.719,14.019-1.007c13.597-0.837,27.194-1.646,40.792-2.449
		c6.634-0.392,13.266-0.808,19.902-1.109c15.609-0.708,31.216-1.551,46.834-1.98c29.604-0.813,59.226-1.131,88.824-2.118
		c25.03-0.834,49.797,2.961,74.706,3.581c48.411,1.205,94.731,13.642,140.597,26.95c35.438,10.283,70.087,24.396,97.804,50.122
		c32.489,30.157,62.818,62.495,86.116,100.513c36.548,59.639,69.882,120.995,93.695,187.009
		c15.448,42.825,28.698,86.282,36.929,131.224c10.173,55.555,13.54,111.431,10.796,167.77c-0.727,14.933-1.079,29.888-1.369,44.838
		c-0.397,20.411-4.367,40.239-9.359,59.917c-2.286,9.015-4.066,18.216-7.152,26.953c-2.735,7.75-6.93,14.989-10.537,22.426
		c-2.17,4.47-4.449,8.887-6.915,13.799c2.583,2.688,5.056,5.345,7.62,7.913c16.956,16.979,34.063,33.81,50.861,50.942
		c15.14,15.443,30.196,30.982,44.817,46.912c10.899,11.875,17.568,25.799,16.619,42.491c-0.546,9.588-0.145,19.366-1.961,28.711
		c-2.537,13.065-10.483,23.629-19.668,32.989c-12.763,13.006-24.146,27.268-39.969,37.359c-8.528,5.44-16.598,11.778-25.187,17.39
		c-10.194,6.66-18.838,15.705-28.117,23.759c-4.265,3.702-8.289,7.695-12.692,11.219c-6.731,5.386-13.43,10.883-20.622,15.602
		c-10.808,7.091-22.024,13.558-33.089,20.254c-0.834,0.504-1.829,0.992-2.768,1.032c-25.774,1.086-51.618,2.559-72.282-17.572
		c-17.406-16.957-35.541-33.212-52.204-50.861c-8.776-9.296-17.788-13.24-30.458-12.363c-30.198,2.091-57.631-8.183-84.108-21.239
		c-6.158-3.037-11.454-7.82-16.209-11.145c-13.991,5.543-27.043,11.201-40.426,15.921c-39.122,13.802-79.594,18.179-120.89,16.674
		c-25.216-0.919-49.29-7.141-72.708-15.797c-6.888-2.544-12.599-8.269-19.313-12.853c0.191-0.05-0.615-0.085-1.021,0.301
		c-23.861,22.718-47.822,45.332-71.465,68.276c-11.675,11.331-22.592,23.44-34.195,34.847c-3.738,3.673-4.627,7.543-4.624,12.436
		c0.007,14.98-0.241,29.963-0.607,44.94c-0.568,23.274-0.998,46.56-2.06,69.813c-1.683,36.81-5.798,73.387-10.715,109.908
		c-2.609,19.374-3.145,39.016-5.169,58.479c-3.193,30.7-6.787,61.358-10.332,92.021c-3.011,26.032-6.705,51.997-9.16,78.08
		c-2.736,29.077-4.002,58.291-6.657,87.379c-3.196,35.019-7.349,69.95-10.761,104.95c-2.026,20.8-3.65,41.645-5.046,62.496
		c-1.462,21.861-2.373,43.761-3.636,65.637c-1.416,24.528-2.725,49.065-4.518,73.566c-1.549,21.183-3.945,42.302-5.54,63.481
		c-1.719,22.84-2.592,45.746-4.492,68.568c-1.374,16.5-2.999,33.061-5.97,49.327c-5.427,29.73-3.765,58.887,4.672,87.72
		c6.903,23.59,14.088,47.1,21.408,70.563c5.354,17.163,15.518,31.541,27.507,44.628c5.819,6.351,11.622,13.098,18.646,17.882
		c12.863,8.762,26.56,16.317,40.047,24.138c6.315,3.661,12.894,6.888,19.458,10.094c8.029,3.923,16.326,7.322,24.214,11.502
		c6.414,3.398,13.325,6.666,18.396,11.645c14.718,14.45,29.229,29.212,42.621,44.878c8.301,9.71,12.276,22.565,13.312,35.054
		c1.864,22.498,2.42,45.18,2.03,67.76c-0.198,11.486-3.49,22.946-5.678,34.36c-1.281,6.685-5.065,12.001-9.585,17.143
		c-9.68,11.019-21.009,19.237-35.134,23.395c-2.84,0.836-5.729,1.667-8.653,2.022c-19.476,2.367-38.931,4.666-58.65,4.122
		c-11.997-0.332-22.8-3.257-33.072-9.542c-7.015-4.292-14.943-7.06-22.258-10.9c-7.629-4.008-15.426-7.899-22.413-12.879
		c-14.623-10.421-28.6-21.744-43.15-32.271c-10.77-7.791-22.065-14.851-33.054-22.341c-17.029-11.608-33.912-23.43-51.015-34.929
		c-13.903-9.348-25.983-20.759-37.562-32.707c-5.896-6.083-12.51-10.815-20.075-14.494c-21.112-10.264-40.002-23.61-56.84-40.07
		c-9.49-9.278-20.382-17.122-29.892-26.382c-6.371-6.205-11.424-13.762-17.066-20.714c-4.396-5.415-9.403-10.45-13.052-16.331
		c-6.624-10.678-13.356-21.458-18.376-32.926c-7.381-16.858-10.832-34.704-10.878-53.38c-0.036-14.884-2.152-29.758-3.19-44.646
		c-1.594-22.844-2.517-45.748-4.698-68.533c-3.16-33.013-7.206-65.939-10.839-98.907c-2.361-21.444-5.082-42.859-6.886-64.352
		c-2.441-29.088-3.866-58.262-6.273-87.354c-1.938-23.413-4.949-46.736-6.985-70.143c-1.406-16.166-2.216-32.396-2.839-48.615
		c-0.906-23.594-0.827-47.236-2.22-70.796c-1.84-31.136-5.65-62.176-6.826-93.325c-1.002-26.563,0.594-53.222,0.901-79.841
		c0.174-14.995,0.568-30.014-0.037-44.985c-0.817-20.187-2.452-40.343-3.831-60.504c-1.018-14.882-1.544-29.835-3.432-44.61
		c-3.068-24.027-6.877-47.968-10.722-71.889c-6.279-39.066-14.759-77.672-25.853-115.653c-5.307-18.166-12.327-35.854-17.16-54.132
		c-6.704-25.351-12.758-50.92-17.829-76.646c-4.709-23.896-12.087-46.888-20.053-69.783c-2.406-6.913-4.888-13.83-6.713-20.906
		c-1.678-6.502-4.841-9.873-11.954-10.902c-17.1-2.476-34.038-6.028-51.079-8.931c-30.901-5.265-60.719-14.515-90.602-23.726
		c-35.98-11.092-70.813-25.044-105.284-40.03c-2.405-1.046-4.905-1.868-7.102-2.696c-9.29,8.205-18.357,15.999-27.111,24.131
		c-1.701,1.582-2.774,4.388-3.13,6.778c-1.854,12.467-3.175,25.013-5.071,37.472c-3.546,23.306-7.815,46.509-10.924,69.869
		c-2.626,19.716-4.374,39.566-5.914,59.404c-3.27,42.135-3.151,84.397-4.568,126.6c-0.873,26.016,0.016,51.89,1.502,77.678
		c3.418,59.307,8.833,118.47,16.772,177.398c9.557,70.933,24.365,140.751,44.343,209.386
		c16.994,58.385,35.149,116.453,54.034,174.255c8.761,26.812,20.752,52.553,30.779,78.969c10.026,26.412,18.839,53.298,29.276,79.54
		c9.947,25.006,21.204,49.494,32.079,74.125c6.85,15.512,14.162,30.817,21.067,46.305c5.359,12.021,8.049,24.625,7.301,37.867
		c-0.131,2.325-0.3,4.706,0.03,6.99c1.553,10.751-2.226,18.672-10.252,26.279c-12.523,11.869-23.238,25.635-35.556,37.745
		c-5.287,5.195-12.206,9.536-19.18,12.078c-46.505,16.957-92.611,34.878-138.298,53.939c-20.224,8.436-41.057,15.402-61.557,23.183
		c-27.333,10.373-54.526,21.121-81.944,31.264c-18.395,6.806-37.242,12.4-55.577,19.354c-15.155,5.749-29.794,12.836-44.772,19.066
		c-10.679,4.442-21.544,8.435-32.316,12.652c-8.013,3.139-15.913,6.599-24.046,9.377c-5.286,1.806-10.883,3.571-16.375,3.687
		c-7.597,0.159-14.415,2.272-21.143,5.222c-11.442,5.015-23.23,7.402-35.863,7.223c-18.29-0.26-36.6,1.041-54.892,0.826
		c-13.959-0.164-26.95-4.088-36.626-15.094c-9.634-10.957-19.226-21.96-28.454-33.255c-2.639-3.231-4.368-7.399-5.797-11.395
		c-7.345-20.536-6.559-41.876-5.498-63.153c0.191-3.822,1.938-7.73,3.62-11.29c9.073-19.208,21.666-35.866,37.52-49.962
		c21.935-19.501,44.947-37.794,71.214-50.992c38.634-19.412,77.804-37.771,116.97-56.1c20.717-9.694,42.554-14.471,65.747-13.93
		c18.038,0.421,35.869,0.832,53.329,6.021C1611.261,3630.63,1621.98,3627.403,1634.705,3626.075z M634.086,1272.41
		c-0.182,3.01-0.693,5.622-0.435,8.155c1.576,15.511,2.761,31.092,5.156,46.481c3.336,21.429,10.016,41.894,21.254,60.607
		c3.553,5.915,6.925,12.419,11.956,16.874c15.544,13.766,33.285,23.959,53.618,29.253c10.231,2.664,20.368,5.698,30.52,8.659
		c8.229,2.4,16.308,5.434,24.651,7.29c9.286,2.066,18.968,2.439,28.176,4.75c19.387,4.867,38.87,8.493,58.898,9.352
		c14.264,0.611,28.482,2.866,42.735,3.013c34.277,0.355,68.464,1.899,102.585,5.12c33.492,3.162,67.025,4.351,100.624,1.93
		c33.78-2.434,67.764-2.276,101.281-8.035c14.708-2.527,29.527-4.516,44.106-7.632c15.237-3.257,30.17-7.923,45.383-11.315
		c11.616-2.589,23.422-4.418,35.211-6.11c19.668-2.82,39.198-6.983,59.295-5.883c7.504,0.411,14.201,2.549,20.871,5.857
		c4.296,2.132,9.282,4.005,13.968,4.026c19.628,0.091,39.261-0.531,58.889-0.986c1.937-0.045,4.039-0.352,5.756-1.176
		c8.393-4.028,16.622-8.396,25.028-12.39c4.562-2.167,5.224-5.729,4.172-9.931c-0.641-2.557-1.943-4.944-2.895-7.427
		c-8.319-21.702-17.715-43.069-21.725-66.162c-2.155-12.409-4.104-24.871-5.559-37.377c-1.391-11.962-3.2-23.312-11.778-32.927
		c-10.8-12.105-17.11-26.994-21.607-42.356c-10.356-35.378-11.875-71.298-4.795-107.536c4.076-20.859,14.078-38.551,28.642-53.8
		c5.678-5.946,11.519-11.738,17.729-18.049c-18.797-5.214-36.882-10.543-55.133-15.223c-31.637-8.114-62.764-17.849-92.873-30.434
		c-14.977-6.261-28.761-15.363-43.714-21.69c-18.022-7.626-34.413-17.8-49.124-30.239c-19.536-16.516-38.122-34.19-56.625-51.881
		c-8.659-8.278-15.911-17.988-20.445-29.286c-7.935-19.778-22.07-35.439-34.392-52.298c-3.993-5.463-8.486-10.559-12.653-15.703
		c-17.676,18.728-34.876,36.777-51.874,55.014c-14.279,15.319-28.302,30.876-42.472,46.296
		c-15.977,17.386-31.907,34.816-48.011,52.084c-21.102,22.628-42.118,45.344-63.631,67.576
		c-12.468,12.884-25.375,25.43-38.912,37.173c-20.305,17.613-41.229,34.521-62.152,51.404c-4.131,3.333-5.306,7.09-3.669,11.292
		c4,10.271,2.371,21.014,3.672,31.472c2.013,16.165-5.183,29.133-14.715,39.842c-14.112,15.853-30.026,30.234-46.111,44.16
		c-15.321,13.262-33.454,21.641-53.928,23.496c-16.538,1.498-33.141,2.329-49.726,3.251
		C657.755,1271.636,646.183,1271.937,634.086,1272.41z M1311.624,620.477c0-3.098,0-6.197,0-9.86
		C1305.178,614.066,1310.737,617.51,1311.624,620.477z"/>
	<path fill-rule="evenodd" clip-rule="evenodd" d="M983.547,2498.354c0-1.992,0.24-4.02-0.042-5.972
		c-1.142-7.894,1.885-13.538,7.533-19.218c5.67-5.702,11.487-7.121,19.182-7.756c13.418-1.106,23.303,2.85,31.937,13.225
		c4.703,5.652,8.64,10.576,7.41,18.224c-0.261,1.618-0.39,3.406,0.017,4.961c3.554,13.615-5.852,20.775-14.257,28.198
		c-1.999,1.764-5.359,2.473-8.176,2.718c-4.945,0.432-10.003-0.317-14.923,0.231c-8.645,0.964-15.081-1.908-20.853-8.483
		C982.656,2514.551,983.685,2519.269,983.547,2498.354z"/>
	<path fill-rule="evenodd" clip-rule="evenodd" fill="#FFFFFF" d="M634.086,1272.41c12.096-0.474,23.669-0.774,35.223-1.418
		c16.585-0.923,33.188-1.754,49.726-3.251c20.474-1.855,38.606-10.234,53.928-23.496c16.085-13.925,31.999-28.307,46.111-44.16
		c9.532-10.708,16.728-23.677,14.715-39.842c-1.301-10.458,0.328-21.2-3.672-31.472c-1.636-4.202-0.462-7.958,3.669-11.292
		c20.923-16.883,41.848-33.791,62.152-51.404c13.538-11.744,26.444-24.289,38.912-37.173c21.513-22.232,42.529-44.948,63.631-67.576
		c16.104-17.269,32.034-34.698,48.011-52.084c14.17-15.42,28.193-30.977,42.472-46.296c16.998-18.237,34.198-36.286,51.874-55.014
		c4.167,5.144,8.661,10.24,12.653,15.703c12.322,16.859,26.457,32.52,34.392,52.298c4.534,11.298,11.786,21.008,20.445,29.286
		c18.503,17.69,37.089,35.365,56.625,51.881c14.711,12.438,31.102,22.613,49.124,30.239c14.953,6.327,28.738,15.43,43.714,21.69
		c30.109,12.585,61.236,22.32,92.873,30.434c18.25,4.68,36.335,10.008,55.133,15.223c-6.21,6.312-12.05,12.104-17.729,18.049
		c-14.563,15.249-24.566,32.941-28.642,53.8c-7.08,36.238-5.561,72.157,4.795,107.536c4.497,15.362,10.807,30.251,21.607,42.356
		c8.578,9.616,10.387,20.965,11.778,32.927c1.455,12.506,3.404,24.969,5.559,37.377c4.009,23.093,13.405,44.46,21.725,66.162
		c0.952,2.483,2.254,4.87,2.895,7.427c1.052,4.203,0.39,7.764-4.172,9.931c-8.406,3.995-16.635,8.362-25.028,12.39
		c-1.718,0.824-3.82,1.131-5.756,1.176c-19.628,0.455-39.261,1.077-58.889,0.986c-4.686-0.021-9.671-1.895-13.968-4.026
		c-6.67-3.309-13.367-5.446-20.871-5.857c-20.097-1.101-39.627,3.063-59.295,5.883c-11.789,1.691-23.595,3.521-35.211,6.11
		c-15.213,3.392-30.146,8.058-45.383,11.315c-14.579,3.116-29.398,5.105-44.106,7.632c-33.517,5.759-67.501,5.601-101.281,8.035
		c-33.599,2.421-67.132,1.232-100.624-1.93c-34.121-3.221-68.308-4.765-102.585-5.12c-14.253-0.147-28.472-2.402-42.735-3.013
		c-20.028-0.858-39.511-4.485-58.898-9.352c-9.208-2.31-18.891-2.683-28.176-4.75c-8.344-1.856-16.422-4.89-24.651-7.29
		c-10.152-2.961-20.289-5.995-30.52-8.659c-20.333-5.294-38.074-15.487-53.618-29.253c-5.031-4.455-8.402-10.959-11.956-16.874
		c-11.239-18.713-17.918-39.179-21.254-60.607c-2.395-15.39-3.581-30.971-5.156-46.481
		C633.394,1278.032,633.904,1275.42,634.086,1272.41z"/>
	<path fill-rule="evenodd" clip-rule="evenodd" fill="#FFFFFF" d="M1311.624,620.477c-0.887-2.967-6.446-6.411,0-9.86
		C1311.624,614.28,1311.624,617.379,1311.624,620.477z"/>
</g>
</svg>
