<?xml version="1.0" encoding="utf-8"?>
<!-- Generator: Adobe Illustrator 16.0.2, SVG Export Plug-In . SVG Version: 6.00 Build 0)  -->
<!DOCTYPE svg PUBLIC "-//W3C//DTD SVG 1.1 Tiny//EN" "http://www.w3.org/Graphics/SVG/1.1/DTD/svg11-tiny.dtd">
<svg version="1.1" baseProfile="tiny" id="Layer_1" xmlns="http://www.w3.org/2000/svg" xmlns:xlink="http://www.w3.org/1999/xlink"
	 x="0px" y="0px" width="3509.561px" height="4247.469px" viewBox="0 0 3509.561 4247.469" xml:space="preserve">
<g>
	<path fill-rule="evenodd" fill="#FFFFFF" d="M2,4251.469C2,2834.979,2,1418.49,2,2c1170.521,0,2341.04,0,3511.561,0
		c0,1416.49,0,2832.979,0,4249.469C2343.04,4251.469,1172.521,4251.469,2,4251.469z M1641.753,3673.096
		c-11.521,3.54-24.415,4.882-33.063,2.326c-17.806-5.261-35.969-5.617-54.331-6.037c-22.852-0.521-44.372,4.266-64.771,13.796
		c-39.178,18.303-78.332,36.697-116.974,56.093c-26.579,13.341-49.839,31.835-71.989,51.604
		c-15.585,13.909-27.903,30.354-36.888,49.206c-1.832,3.845-3.644,8.108-3.836,12.255c-0.958,20.614-1.653,41.313,5.083,61.27
		c1.562,4.627,3.707,9.371,6.739,13.128c8.968,11.111,18.447,21.814,27.854,32.565c9.657,11.039,22.65,15,36.571,15.221
		c18.288,0.291,36.601-1.058,54.891-0.81c12.618,0.17,24.454-2.061,35.878-7.14c7.044-3.133,14.227-5.13,22.119-5.378
		c5.493-0.173,11.06-2.021,16.346-3.844c7.813-2.692,15.391-6.063,23.095-9.076c10.777-4.214,21.665-8.154,32.347-12.594
		c14.978-6.225,29.607-13.334,44.755-19.091c18.33-6.965,37.179-12.555,55.568-19.372c41.744-15.477,83.523-30.885,124.958-47.162
		c52.855-20.764,105.108-43.05,158.723-61.898c6.931-2.437,13.491-7.452,18.783-12.72c12.243-12.193,23.088-25.81,35.525-37.783
		c6.928-6.669,10.219-13.465,9-22.792c-0.343-2.621-0.182-5.333-0.03-7.99c0.79-13.912-1.887-27.157-7.616-39.803
		c-6.862-15.142-13.958-30.18-20.673-45.386c-10.879-24.63-22.156-49.111-32.104-74.116c-10.439-26.242-19.237-53.132-29.261-79.545
		c-10.024-26.418-22.02-52.157-30.782-78.97c-18.889-57.8-36.408-116.051-54.201-174.205c-12.155-39.732-20.1-80.489-29.185-120.988
		c-12.173-54.263-17.813-109.395-24.027-164.464c-2.382-21.107-3.552-42.366-4.827-63.582c-1.974-32.822-3.756-65.66-5.19-98.509
		c-0.39-8.917,0.902-17.897,1.176-26.856c0.742-24.265,1.072-48.546,2.094-72.798c0.992-23.552,2.284-47.104,4.125-70.604
		c1.216-15.532,3.388-31.005,5.561-46.443c4.161-29.582,8.57-59.13,13.04-88.668c0.576-3.807,1.009-8.601,3.431-10.989
		c8.932-8.81,18.67-16.8,28.272-25.244c36.818,15.807,73.45,31.628,111.883,42.644c24.273,6.957,48.427,14.483,72.988,20.239
		c22.949,5.379,46.323,9.024,69.607,12.839c6.236,1.022,9.282,3.702,10.908,9.494c2.154,7.68,4.823,15.219,7.382,22.781
		c7.663,22.639,15.06,45.284,19.693,68.861c5.056,25.727,11.131,51.292,17.836,76.644c4.835,18.277,11.87,35.96,17.143,54.135
		c11.117,38.316,19.777,77.221,25.988,116.641c3.771,23.934,7.465,47.884,10.732,71.89c1.384,10.164,1.489,20.497,2.34,30.74
		c1.59,19.13,4.241,38.229,4.717,57.384c0.579,23.259-1.121,46.565-0.957,69.846c0.242,34.605,0.789,69.225,2.116,103.803
		c0.789,20.532,3.864,40.968,4.937,61.497c1.267,24.237,1.309,48.536,2.219,72.796c0.46,12.226,1.492,24.437,2.572,36.627
		c2.337,26.385,5.13,52.731,7.258,79.13c2.319,28.767,3.724,57.607,6.229,86.354c1.987,22.8,5.118,45.499,7.589,68.259
		c3.51,32.322,7.208,64.628,10.197,96.999c2.104,22.795,3.106,45.69,4.708,68.533c1.021,14.557,3.135,29.099,3.146,43.649
		c0.016,18.671,3.393,36.526,10.788,53.396c5.028,11.47,11.648,22.309,18.261,32.994c3.815,6.163,9.025,11.463,13.617,17.146
		c5.211,6.45,9.854,13.49,15.78,19.201c9.799,9.446,20.875,17.574,30.608,27.082c17.082,16.688,36.175,30.302,57.682,40.581
		c7.287,3.483,13.552,8.177,19.229,13.987c11.624,11.895,23.62,23.396,37.529,32.743c17.105,11.494,33.98,23.33,51.011,34.936
		c10.991,7.489,22.309,14.52,33.077,22.31c14.55,10.527,28.521,21.859,43.131,32.299c6.983,4.989,14.747,8.946,22.377,12.951
		c7.313,3.841,15.294,6.52,22.295,10.825c10.255,6.304,21.011,9.374,33.02,9.708c19.715,0.547,39.179-1.67,58.649-4.091
		c3.25-0.403,6.438-1.405,9.613-2.278c14.324-3.935,25.647-12.451,34.76-23.835c3.654-4.565,7.451-9.758,8.828-15.256
		c2.978-11.887,5.935-24.126,6.189-36.276c0.467-22.242-0.152-44.6-2.046-66.762c-1.095-12.824-5.158-25.912-13.766-35.907
		c-13.02-15.114-27.002-29.452-41.269-43.411c-5.326-5.213-12.373-8.854-19.045-12.455c-8.143-4.396-16.756-7.91-25.087-11.969
		c-6.271-3.055-12.558-6.119-18.586-9.613c-13.488-7.815-27.218-15.32-40.063-24.102c-7.29-4.983-13.379-11.918-19.389-18.539
		c-11.697-12.883-21.636-27.048-26.938-43.836c-6.904-21.857-13.284-43.88-20.035-65.786c-9.354-30.356-11.937-61.014-6.159-92.485
		c2.986-16.264,4.62-32.824,5.996-49.324c1.931-23.154,2.852-46.391,4.582-69.563c1.582-21.181,3.926-42.304,5.46-63.486
		c1.729-23.84,2.873-47.721,4.374-71.577c1.146-18.217,2.563-36.416,3.655-54.635c0.935-15.578,1.017-31.228,2.477-46.751
		c2.793-29.719,6.581-59.345,9.41-89.061c2.075-21.812,3.082-43.722,4.922-65.559c2.423-28.765,4.896-57.529,7.91-86.235
		c2.459-23.426,5.881-46.747,8.627-70.145c3.056-26.038,6.042-52.087,8.658-78.17c1.985-19.805,2.478-39.791,5.168-59.487
		c4.99-36.515,9.022-73.098,10.774-109.899c1.106-23.252,1.505-46.538,2.069-69.813c0.371-15.31,0.619-30.627,0.602-45.94
		c-0.006-4.607,1.052-8.141,4.435-11.505c11.773-11.713,22.983-23.996,34.885-35.573c23.142-22.508,46.602-44.688,69.954-66.978
		c0.673-0.645,1.623-1,2.091-1.279c6.191,4.397,11.53,10.227,18.09,12.445c16.296,5.516,32.943,10.479,49.829,13.646
		c22.98,4.31,46.653,4.733,69.687,2.074c39.656-4.576,79.008-11.756,114.207-32.883c1.381,0.856,2.586,1.415,3.568,2.239
		c17.301,14.515,38.288,20.967,59.381,27.171c15.895,4.676,32.241,4.49,48.549,4.011c5.814-0.17,10.016,1.664,14.012,5.853
		c9.891,10.365,20.015,20.522,30.372,30.423c10.816,10.337,21.894,20.41,33.081,30.346c8.69,7.718,19.237,12.511,30.539,13.762
		c11.854,1.313,23.954,0.547,35.942,0.399c2.181-0.026,4.557-1.099,6.481-2.277c12.993-7.95,27.529-13.611,37.869-25.542
		c1.486-1.714,3.597-3.002,5.626-4.11c9.188-5.022,16.612-12.117,23.831-19.551c10.229-10.533,21.226-20.047,34.901-26.088
		c3.235-1.429,5.865-4.276,8.685-6.58c2.569-2.101,4.722-4.906,7.575-6.427c9.005-4.801,16.107-11.784,22.91-19.106
		c8.594-9.251,17.538-18.269,25.248-28.226c10.662-13.77,12.551-29.973,12.583-47.18c0.039-20.084-7.002-36.12-20.875-49.937
		c-8.724-8.688-17.043-17.778-25.664-26.567c-21.458-21.875-42.933-43.733-64.544-65.454c-3.031-3.048-6.869-5.29-10.15-7.766
		c3.5-6.821,5.956-11.481,8.294-16.2c3.38-6.822,7.37-13.447,9.825-20.594c3.12-9.083,5.021-18.59,7.353-27.937
		c4.503-18.063,8.627-36.194,9.223-54.915c0.528-16.608,0.781-33.229,1.609-49.824c2.788-56.01-0.533-111.59-10.477-166.817
		c-8.093-44.951-21.336-88.448-36.754-131.281c-23.879-66.337-57.315-128.022-94.035-187.948
		c-23.473-38.306-53.992-70.906-86.813-101.214c-27.531-25.423-62.241-38.072-96.924-49.832
		c-17.545-5.948-36.005-9.236-54.109-13.482c-21.999-5.161-43.874-11.052-66.639-12.047c-11.621-0.509-23.299-0.629-34.836-1.937
		c-32.521-3.689-65.058-3.615-97.658-1.725c-37.523,2.177-75.196-0.551-112.683,3.863c-15.809,1.862-31.82,1.999-47.74,2.908
		c-4.087,0.233-8.175,0.421-12.263,0.63c-0.318-0.671-0.637-1.343-0.955-2.015c10.981-9.993,21.92-20.035,32.959-29.967
		c15.072-13.561,30.261-26.994,45.318-40.572c5.427-4.893,8.424-10.751,7.739-18.499c-0.585-6.614,0.277-13.354-0.283-19.973
		c-0.322-3.801-1.165-8.431-3.567-11.026c-8.779-9.484-17.189-19.604-29.554-24.925c-12.526-5.392-24.975-10.97-37.539-16.268
		c-38.335-16.163-77.777-27.301-119.905-26.159c-2.57,0.069-5.157-0.476-8.321-0.794c-0.772-12.717-1.083-24.979-2.362-37.139
		c-1.699-16.136-2.992-32.464-6.668-48.194c-2.759-11.808-8.797-22.893-13.786-34.116c-2.003-4.506-5.07-8.544-7.721-12.755
		c-3.803-6.041-7.668-12.044-11.717-18.394c2.791-1.384,4.784-2.584,6.923-3.404c51.343-19.666,97.726-48.069,141.983-80.282
		c22.603-16.452,45.017-33.212,68.249-48.736c28.022-18.726,54.324-39.389,78.447-62.911c2.396-2.337,6.276-3.396,9.654-4.443
		c10.463-3.241,21.523-5.445,29.871-13.016c8.858-8.033,17.08-16.787,25.334-25.46c7.003-7.357,9.526-16.508,9.5-26.5
		c-0.034-13.332,0.053-26.663-0.033-39.993c-0.048-7.391-1.955-14.145-5.387-20.904c-5.3-10.44-14.124-17.519-21.73-25.807
		c-8.086-8.809-18.285-14.106-29.209-18.347c-12.072-4.688-24.76-4.731-37.362-4.586c-13.052,0.149-25.901,0.122-37.867-6.207
		c-2.309-1.222-5.034-1.705-7.611-2.36c-19.64-4.989-39.297-9.917-58.938-14.903c-39.326-9.983-78.615-20.117-117.981-29.939
		c-24.172-6.033-48.414-11.802-72.709-17.315c-16.853-3.825-33.812-7.22-50.805-10.358c-5.189-0.959-7.947-3.908-10.8-7.822
		c-5.261-7.22-10.513-14.578-16.72-20.953c-20.898-21.462-42.775-41.801-67.264-59.316c-12.001-8.584-24.595-15.743-37.986-21.601
		c-4.166-1.822-8.918-2.989-13.451-3.163c-18.285-0.699-36.591-1.132-54.889-1.153c-7.267-0.009-14.642,0.753-21.779,2.133
		c-15.65,3.027-31.203,6.578-46.743,10.142c-3.354,0.77-6.094,1.143-9.443-0.668c-23.685-12.808-47.292-25.796-71.397-37.773
		c-13.925-6.919-28.307-13.638-43.234-17.666c-27.93-7.536-56.394-12.469-85.703-11.316c-23.406,0.922-43.627,8.96-60.484,24.695
		c-9.674,9.03-17.935,19.581-26.756,29.514c-3.532,3.978-6.757,8.232-10.305,12.195c-9.537,10.652-19.144,21.243-28.777,31.809
		c-18.736,20.551-32.999,44.071-45.153,68.89c-3.583,7.316-8.243,11.808-16.527,12.16c-3.305,0.141-6.599,0.571-9.896,0.881
		c-9.582,0.901-19.184,1.623-28.74,2.75c-22.09,2.603-44.146,5.496-66.237,8.092c-16.494,1.938-33.197,2.628-49.496,5.589
		c-30.424,5.528-60.624,12.293-90.912,18.569c-4.803,0.995-9.58,2.117-15.388,3.408c0-4.191-1.102-7.909,0.191-10.367
		c5.381-10.229,10.083-21.398,17.819-29.595c5.051-5.352,14.895-6.17,22.581-9.049c3.431-1.285,6.937-2.432,10.219-4.03
		c2.927-1.426,5.955-2.997,8.316-5.177c14.136-13.051,13.503-13.14,14.31-32.371c0.419-9.965-2.599-17.063-10.071-23.338
		c-4.19-3.519-8.118-7.37-13.663-7.396c-10.617-0.049-21.236,0.654-31.856,1.019c-1.996,0.068-3.996,0.01-5.994,0.01
		c11.362-6.33,22.835-10.364,35.972-9.026c10.55,1.074,21.277,1.008,31.898,0.639c16.312-0.567,30.395-6.346,40.712-19.661
		c1.013-1.306,2.24-2.492,3.532-3.528c3.151-2.524,4.042-5.747,3.958-9.692c-0.197-9.328,0.017-18.664-0.124-27.994
		c-0.033-2.241-0.034-5.173-1.345-6.593c-8.98-9.729-17.637-19.443-32.62-20.666c-9.707-0.792-19.711-3.43-28.617-7.406
		c-18.817-8.4-34.237-21.347-45.183-39.187c-8.427-13.734-11.517-28.038-5.695-43.645c1.5-4.02,2.028-8.396,3.452-12.451
		c7.825-22.281,16.762-43.949,34.432-60.672c4.597-4.351,8.742-9.202,13.517-13.336c4.417-3.826,6.16-8.41,6.131-14.016
		c-0.049-9.331,0.026-18.663-0.034-27.995c-0.034-5.216-1.767-9.734-5.706-13.36c-2.695-2.481-5.355-5.032-7.758-7.789
		c-4.475-5.132-10.285-7.167-16.787-7.591c-3.651-0.237-7.422,0.448-10.978-0.185c-15.136-2.693-25.966,4.108-35.86,14.62
		c-12.583,13.372-26.854,24.562-44.859,30.036c-7.895,2.401-15.97,4.449-23.499,7.723c-5.371,2.334-8.866,1.285-12.233-2.783
		c-6.026-7.282-13.881-11.92-23.128-12.399c-10.918-0.565-21.945,0.021-32.873,0.814c-11.849,0.861-22.604,6.765-34.712,7.565
		c-9.357,0.619-18.533,3.995-27.707,6.125c-22.011-29.241-26.668-37.734-28.768-60.321c4.548-4.476,9.35-9.074,13.986-13.833
		c1.583-1.627,3.874-3.627,3.922-5.507c0.253-9.621,0.022-19.264-0.407-28.882c-0.078-1.737-1.674-3.567-2.917-5.066
		c-7.663-9.236-16.081-16.59-29.591-14.144c-5.163,0.935-10.649-0.056-15.965,0.24c-3.268,0.182-6.795,0.493-9.688,1.85
		c-19.211,9.014-35.217,21.092-39.749,43.587c-0.382,1.897-1.341,3.678-2.245,6.08c-8.868-7.746-19.425-9.344-30.574-8.754
		c-1.662,0.088-3.364,0.225-4.994-0.021c-16.482-2.483-25.783,7.57-33.885,19.506c-1.62,2.385-3.362,5.339-3.383,8.044
		c-0.085,10.629,0.495,21.263,0.832,31.896c0.051,1.591,0.489,3.271,0.13,4.761c-3.755,15.589-4.36,31.459-4.563,47.387
		c-0.037,2.97-0.343,6.041-1.17,8.876c-4.186,14.327-9.022,28.478-12.77,42.914c-2.903,11.182-10.476,18.533-19.363,24.014
		c-16.868,10.408-34.37,19.827-51.886,29.132c-12.12,6.438-37.066,3.287-45.515-7.265c-10.991-13.728-24.085-18.784-40.899-16.151
		c-1.301,0.204-2.682-0.118-3.992,0.058c-5.119,0.689-9.48-0.478-13.878-3.523c-9.196-6.366-19.352-10.021-30.889-8.571
		c-3.281,0.413-6.71,0.443-9.979-0.014c-7.368-1.03-12.275,2.302-17.49,7.19c-6.102,5.721-9.389,11.646-8.146,20.03
		c0.436,2.935,0.38,6.028,0.007,8.98c-0.83,6.556,1.598,11.333,6.483,15.687c10.179,9.074,20.375,18.193,29.835,27.998
		c20.787,21.545,41.042,43.603,61.739,65.237c2.616,2.735,6.406,4.582,9.958,6.146c14.502,6.391,29.465,11.829,43.607,18.917
		c15.063,7.549,29.729,16.036,43.924,25.12c9.993,6.395,18.92,14.455,28.3,21.802c8.818,6.906,14.278,16.492,19.239,26.093
		c4.219,8.168,6.829,17.192,9.857,25.94c1.386,4.001,0.699,7.572-2.994,10.653c-7.143,5.957-13.674,12.653-20.882,18.521
		c-14.418,11.74-29.446,22.708-42.234,36.386c-12.022,12.859-24.69,25.112-36.739,37.949
		c-13.194,14.059-25.966,28.514-38.998,42.727c-6.458,7.045-13.085,13.936-20.221,21.517c-7.565-4.482-14.253-8.592-21.081-12.454
		c-8.604-4.867-17.163-9.852-26.023-14.21c-14.285-7.025-30.308-6.624-45.516-8.922c-25.94-3.921-52.251-4.816-78.594-4.615
		c-17.929,0.137-34.99,4.004-51.674,9.427c-22.616,7.351-42.8,19.267-59.748,36.258c-1.34,1.344-3.075,2.292-4.22,3.128
		c-9.821-6.133-18.816-12.275-28.308-17.518c-8.067-4.455-16.476-8.53-25.152-11.585c-11.467-4.038-23.177-8.812-35.081-9.853
		c-18.106-1.585-36.482-0.587-54.715,0.079c-5.502,0.2-9.3-0.817-13.192-4.715c-18.115-18.141-36.47-36.041-54.817-53.948
		c-8.614-8.408-18.775-13.689-31.052-13.872c-11.329-0.168-22.662-0.067-33.993-0.021c-5.454,0.021-10.327,1.674-14.845,4.885
		c-6.445,4.581-13.181,8.75-19.729,13.189c-4.124,2.795-8.727,5.197-12.087,8.747c-13.253,14.002-26.409,28.122-39.006,42.712
		c-11.727,13.582-22.027,28.37-35.38,40.576c-7.372,6.739-14.29,13.988-21.24,21.173c-10.27,10.616-19.629,22.214-21.273,37.317
		c-1.288,11.827-0.506,23.938,0.036,35.891c0.505,11.131,4.088,21.902,11.036,30.315c11.41,13.816,23.838,26.869,36.596,39.474
		c13.214,13.057,27.331,25.201,40.106,36.878c-2.05,18.283-4.379,35.017-5.716,51.832c-2.753,34.622,0.184,69.045,4.401,103.417
		c2.221,18.1,3.478,36.316,5.585,54.431c1.683,14.467,3.596,28.932,6.168,43.261c1.692,9.427,4.83,18.588,7.155,27.909
		c3.922,15.725,7.025,31.69,11.716,47.178c7.564,24.979,15.815,49.764,24.451,74.395c3.267,9.318,8.347,18.01,12.705,26.936
		c9.852,20.183,19.083,40.71,29.843,60.399c11.567,21.166,23.536,42.269,37.275,62.049c14.176,20.41,29.817,39.977,46.385,58.511
		c26.147,29.251,53.302,57.626,80.668,85.752c9.675,9.944,20.756,18.705,32.003,26.897c23.817,17.348,48.62,33.363,72.162,51.063
		c21.136,15.893,43.915,28.271,68.41,37.871c26.178,10.259,52.426,20.185,79.296,28.651c24.586,7.746,49.708,11.476,75.068,13.867
		c18.838,1.776,37.859,1.793,56.807,2.177c25.59,0.518,51.186,0.728,76.78,0.898c20.95,0.139,41.914-0.429,62.849,0.149
		c23.246,0.643,46.458,2.502,69.704,3.308c14.953,0.52,29.942,0.295,44.909,0.035c11.831-0.205,23.651-0.973,36.514-1.538
		c-3.373,8.613-6.546,15.901-9.11,23.396c-14.949,43.703-29.872,87.415-44.566,131.203c-7.619,22.709-13.793,45.781-16.163,69.756
		c-1.369,13.853-2.603,27.789-5.212,41.436c-8.077,42.212-13.277,84.63-12.031,127.702c0.298,10.323-0.046,20.663,0.09,30.993
		c0.053,3.966,0.627,7.924,0.951,11.887c1.001,12.25,3.491,24.608,2.61,36.723c-1.048,14.399,3.959,24.175,14.339,33.677
		c18.195,16.654,17.665,17.197,42.826,17.25c11.656,0.024,23.523-1.139,34.925,0.625c23.424,3.624,46.909,4.989,70.522,5.35
		c4.244,0.064,8.488,0.01,12.37,0.01c5.11,14.277,10.648,27.191,14.338,40.613c7.154,26.022,15.394,51.564,26.732,76.11
		c2.278,4.93,3.01,10.767,3.533,16.274c1.034,10.894,1.231,21.866,2.115,32.777c2.572,31.75,5.159,63.5,8.028,95.225
		c3.059,33.808,9.79,66.971,17.851,99.913c3.689,15.077,10.53,29.462,10.283,45.466c-0.028,1.799,1.202,3.688,2.08,5.417
		c2.669,5.254,5.865,10.28,8.104,15.705c4.947,11.981,8.818,24.439,14.255,36.181c7.909,17.082,12.188,35.081,16.003,53.333
		c9.796,46.875,20.29,93.574,36.294,138.837c15.092,42.688,26.762,86.357,37.572,130.294c7.699,31.299,16.006,62.449,29.415,91.963
		c12.798,28.167,25.626,56.325,37.983,84.687c11.291,25.914,21.571,52.272,33.062,78.093c7.402,16.631,17.241,32.347,13.805,51.799
		c-0.272,1.536,0.523,3.249,0.754,4.89c2.079,14.821,10.999,23.379,25.086,26.833c4.001,0.981,6.383,3.143,8.025,6.627
		c4.116,8.728,8.389,17.382,12.372,26.169c12.092,26.682,24.89,52.962,41.838,77.012
		C1635.7,3662.755,1638.548,3667.92,1641.753,3673.096z M991.546,2546.478c-1.315,11.063,0.285,20.625,9.937,28.365
		c5.034,4.038,9.476,6.622,15.878,6.086c4.288-0.358,8.677-0.476,12.936,0.021c7.705,0.9,12.901-2.515,18.378-7.606
		c6.61-6.143,10.426-12.547,8.891-21.661c-0.271-1.614-0.228-3.339-0.007-4.97c1.159-8.54-2.496-14.459-8.132-20.95
		c-8.73-10.058-18.508-13.136-31.33-12.349c-7.787,0.479-13.581,2.08-19.127,7.866c-5.175,5.398-8.617,10.585-7.476,18.231
		C991.833,2541.785,991.546,2544.152,991.546,2546.478z"/>
	<path fill-rule="evenodd" d="M1641.753,3673.096c-3.205-5.176-6.053-10.341-9.43-15.133c-16.948-24.05-29.746-50.33-41.838-77.012
		c-3.983-8.787-8.256-17.441-12.372-26.169c-1.643-3.484-4.024-5.646-8.025-6.627c-14.087-3.454-23.007-12.012-25.086-26.833
		c-0.23-1.641-1.026-3.354-0.754-4.89c3.437-19.452-6.402-35.168-13.805-51.799c-11.491-25.82-21.771-52.179-33.062-78.093
		c-12.357-28.361-25.185-56.52-37.983-84.687c-13.409-29.514-21.716-60.664-29.415-91.963
		c-10.81-43.937-22.48-87.606-37.572-130.294c-16.004-45.263-26.498-91.962-36.294-138.837
		c-3.815-18.252-8.094-36.251-16.003-53.333c-5.437-11.741-9.309-24.199-14.255-36.181c-2.239-5.425-5.435-10.451-8.104-15.705
		c-0.877-1.729-2.108-3.618-2.08-5.417c0.247-16.004-6.594-30.389-10.283-45.466c-8.061-32.942-14.792-66.105-17.851-99.913
		c-2.87-31.725-5.456-63.475-8.028-95.225c-0.884-10.911-1.081-21.884-2.115-32.777c-0.522-5.508-1.255-11.345-3.533-16.274
		c-11.338-24.546-19.578-50.088-26.732-76.11c-3.69-13.422-9.229-26.336-14.338-40.613c-3.881,0-8.126,0.055-12.37-0.01
		c-23.613-0.36-47.098-1.726-70.522-5.35c-11.402-1.764-23.27-0.601-34.925-0.625c-25.161-0.053-24.63-0.596-42.826-17.25
		c-10.379-9.502-15.387-19.277-14.339-33.677c0.881-12.114-1.608-24.473-2.61-36.723c-0.324-3.963-0.898-7.921-0.951-11.887
		c-0.136-10.33,0.208-20.67-0.09-30.993c-1.246-43.072,3.954-85.49,12.031-127.702c2.61-13.646,3.843-27.583,5.212-41.436
		c2.37-23.976,8.543-47.047,16.163-69.756c14.694-43.788,29.617-87.5,44.566-131.203c2.564-7.495,5.738-14.783,9.11-23.396
		c-12.863,0.564-24.684,1.333-36.514,1.538c-14.967,0.26-29.956,0.484-44.909-0.035c-23.246-0.806-46.458-2.666-69.704-3.308
		c-20.935-0.578-41.899-0.01-62.849-0.149c-25.594-0.171-51.19-0.381-76.78-0.898c-18.948-0.384-37.969-0.4-56.807-2.177
		c-25.36-2.391-50.482-6.121-75.068-13.867c-26.87-8.466-53.118-18.392-79.296-28.651c-24.495-9.6-47.274-21.979-68.41-37.871
		c-23.542-17.7-48.345-33.715-72.162-51.063c-11.247-8.192-22.328-16.953-32.003-26.897c-27.366-28.125-54.521-56.501-80.668-85.752
		c-16.567-18.535-32.209-38.101-46.385-58.511c-13.739-19.78-25.708-40.883-37.275-62.049
		c-10.76-19.689-19.991-40.216-29.843-60.399c-4.357-8.926-9.438-17.618-12.705-26.936c-8.636-24.631-16.886-49.417-24.451-74.395
		c-4.69-15.487-7.794-31.453-11.716-47.178c-2.325-9.321-5.462-18.482-7.155-27.909c-2.572-14.329-4.485-28.794-6.168-43.261
		c-2.108-18.115-3.365-36.331-5.585-54.431c-4.217-34.373-7.154-68.796-4.401-103.417c1.337-16.814,3.667-33.549,5.716-51.832
		c-12.775-11.677-26.892-23.821-40.106-36.878c-12.758-12.605-25.186-25.658-36.596-39.474
		c-6.948-8.413-10.531-19.184-11.036-30.315c-0.542-11.953-1.324-24.063-0.036-35.891c1.644-15.103,11.003-26.701,21.273-37.317
		c6.951-7.186,13.868-14.435,21.24-21.173c13.353-12.206,23.653-26.994,35.38-40.576c12.597-14.591,25.753-28.71,39.006-42.712
		c3.36-3.55,7.963-5.952,12.087-8.747c6.549-4.439,13.284-8.608,19.729-13.189c4.518-3.211,9.391-4.864,14.845-4.885
		c11.331-0.047,22.664-0.147,33.993,0.021c12.277,0.183,22.438,5.464,31.052,13.872c18.347,17.907,36.703,35.807,54.817,53.948
		c3.892,3.897,7.689,4.915,13.192,4.715c18.233-0.666,36.608-1.664,54.715-0.079c11.904,1.041,23.613,5.815,35.081,9.853
		c8.676,3.055,17.084,7.131,25.152,11.585c9.492,5.243,18.487,11.385,28.308,17.518c1.146-0.836,2.88-1.785,4.22-3.128
		c16.947-16.992,37.132-28.908,59.748-36.258c16.684-5.423,33.745-9.291,51.674-9.427c26.343-0.201,52.654,0.694,78.594,4.615
		c15.208,2.298,31.231,1.897,45.516,8.922c8.86,4.359,17.419,9.344,26.023,14.21c6.827,3.862,13.515,7.972,21.081,12.454
		c7.136-7.581,13.763-14.472,20.221-21.517c13.032-14.213,25.804-28.668,38.998-42.727c12.048-12.836,24.717-25.09,36.739-37.949
		c12.788-13.678,27.816-24.646,42.234-36.386c7.208-5.868,13.74-12.564,20.882-18.521c3.693-3.081,4.379-6.652,2.994-10.653
		c-3.028-8.748-5.638-17.772-9.857-25.94c-4.96-9.602-10.421-19.187-19.239-26.093c-9.38-7.347-18.308-15.407-28.3-21.802
		c-14.195-9.083-28.861-17.571-43.924-25.12c-14.142-7.088-29.104-12.527-43.607-18.917c-3.551-1.564-7.342-3.411-9.958-6.146
		c-20.698-21.634-40.952-43.692-61.739-65.237c-9.46-9.805-19.656-18.924-29.835-27.998c-4.885-4.353-7.313-9.13-6.483-15.687
		c0.373-2.952,0.429-6.045-0.007-8.98c-1.242-8.385,2.044-14.309,8.146-20.03c5.215-4.889,10.122-8.221,17.49-7.19
		c3.269,0.457,6.698,0.427,9.979,0.014c11.537-1.45,21.692,2.205,30.889,8.571c4.398,3.045,8.759,4.212,13.878,3.523
		c1.31-0.176,2.69,0.146,3.992-0.058c16.814-2.633,29.909,2.423,40.899,16.151c8.448,10.552,33.395,13.703,45.515,7.265
		c17.517-9.305,35.018-18.724,51.886-29.132c8.887-5.481,16.46-12.832,19.363-24.014c3.748-14.436,8.584-28.586,12.77-42.914
		c0.828-2.835,1.133-5.906,1.17-8.876c0.203-15.928,0.808-31.798,4.563-47.387c0.359-1.49-0.079-3.169-0.13-4.761
		c-0.337-10.633-0.917-21.266-0.832-31.896c0.021-2.705,1.763-5.659,3.383-8.044c8.102-11.936,17.403-21.989,33.885-19.506
		c1.629,0.245,3.332,0.108,4.994,0.021c11.149-0.59,21.706,1.008,30.574,8.754c0.904-2.402,1.863-4.183,2.245-6.08
		c4.532-22.495,20.538-34.574,39.749-43.587c2.893-1.357,6.42-1.668,9.688-1.85c5.316-0.296,10.802,0.694,15.965-0.24
		c13.51-2.446,21.928,4.907,29.591,14.144c1.244,1.499,2.839,3.329,2.917,5.066c0.43,9.619,0.66,19.261,0.407,28.882
		c-0.049,1.879-2.339,3.88-3.922,5.507c-4.636,4.759-9.438,9.357-13.986,13.833c2.1,22.587,6.757,31.08,28.768,60.321
		c9.174-2.13,18.349-5.506,27.707-6.125c12.109-0.8,22.863-6.704,34.712-7.565c10.928-0.793,21.955-1.379,32.873-0.814
		c9.247,0.479,17.102,5.117,23.128,12.399c3.367,4.067,6.862,5.117,12.233,2.783c7.529-3.274,15.604-5.322,23.499-7.723
		c18.005-5.474,32.276-16.664,44.859-30.036c9.894-10.512,20.724-17.313,35.86-14.62c3.556,0.633,7.327-0.053,10.978,0.185
		c6.502,0.424,12.312,2.459,16.787,7.591c2.403,2.757,5.063,5.308,7.758,7.789c3.939,3.626,5.672,8.144,5.706,13.36
		c0.061,9.332-0.015,18.664,0.034,27.995c0.029,5.605-1.713,10.19-6.131,14.016c-4.775,4.134-8.92,8.985-13.517,13.336
		c-17.67,16.724-26.607,38.391-34.432,60.672c-1.423,4.055-1.952,8.431-3.452,12.451c-5.822,15.607-2.732,29.911,5.695,43.645
		c10.946,17.839,26.366,30.786,45.183,39.187c8.905,3.976,18.91,6.614,28.617,7.406c14.982,1.222,23.64,10.937,32.62,20.666
		c1.311,1.419,1.312,4.352,1.345,6.593c0.141,9.33-0.073,18.666,0.124,27.994c0.084,3.945-0.807,7.168-3.958,9.692
		c-1.292,1.036-2.519,2.222-3.532,3.528c-10.317,13.315-24.4,19.093-40.712,19.661c-10.621,0.369-21.348,0.436-31.898-0.639
		c-13.137-1.337-24.61,2.696-35.972,9.026c1.999,0,3.999,0.059,5.994-0.01c10.62-0.364,21.24-1.067,31.856-1.019
		c5.544,0.025,9.473,3.877,13.663,7.396c7.472,6.275,10.49,13.373,10.071,23.338c-0.807,19.231-0.174,19.32-14.31,32.371
		c-2.361,2.181-5.389,3.751-8.316,5.177c-3.282,1.598-6.788,2.745-10.219,4.03c-7.687,2.878-17.53,3.697-22.581,9.049
		c-7.736,8.196-12.438,19.366-17.819,29.595c-1.293,2.458-0.191,6.176-0.191,10.367c5.808-1.291,10.584-2.413,15.388-3.408
		c30.288-6.275,60.487-13.041,90.912-18.569c16.298-2.961,33.001-3.651,49.496-5.589c22.091-2.596,44.147-5.489,66.237-8.092
		c9.556-1.126,19.158-1.848,28.74-2.75c3.297-0.31,6.591-0.74,9.896-0.881c8.284-0.352,12.944-4.843,16.527-12.16
		c12.155-24.819,26.417-48.338,45.153-68.89c9.633-10.566,19.24-21.156,28.777-31.809c3.548-3.963,6.773-8.218,10.305-12.195
		c8.821-9.934,17.082-20.484,26.756-29.514c16.857-15.735,37.078-23.773,60.484-24.695c29.31-1.153,57.773,3.78,85.703,11.316
		c14.928,4.028,29.31,10.747,43.234,17.666c24.105,11.977,47.713,24.966,71.397,37.773c3.35,1.811,6.089,1.438,9.443,0.668
		c15.54-3.564,31.093-7.114,46.743-10.142c7.138-1.38,14.513-2.142,21.779-2.133c18.298,0.021,36.604,0.454,54.889,1.153
		c4.533,0.174,9.285,1.34,13.451,3.163c13.392,5.857,25.985,13.016,37.986,21.601c24.488,17.515,46.365,37.854,67.264,59.316
		c6.207,6.375,11.459,13.733,16.72,20.953c2.853,3.915,5.61,6.863,10.8,7.822c16.993,3.138,33.952,6.533,50.805,10.358
		c24.295,5.513,48.537,11.283,72.709,17.315c39.366,9.823,78.655,19.957,117.981,29.939c19.641,4.986,39.298,9.914,58.938,14.903
		c2.577,0.655,5.303,1.139,7.611,2.36c11.966,6.329,24.815,6.356,37.867,6.207c12.603-0.145,25.29-0.102,37.362,4.586
		c10.924,4.241,21.123,9.538,29.209,18.347c7.606,8.288,16.431,15.366,21.73,25.807c3.432,6.76,5.339,13.514,5.387,20.904
		c0.086,13.331-0.001,26.662,0.033,39.993c0.026,9.993-2.497,19.143-9.5,26.5c-8.254,8.673-16.476,17.427-25.334,25.46
		c-8.348,7.57-19.408,9.775-29.871,13.016c-3.378,1.047-7.258,2.105-9.654,4.443c-24.123,23.522-50.425,44.185-78.447,62.911
		c-23.232,15.524-45.646,32.284-68.249,48.736c-44.258,32.212-90.641,60.616-141.983,80.282c-2.139,0.819-4.132,2.02-6.923,3.404
		c4.049,6.35,7.914,12.353,11.717,18.394c2.65,4.211,5.718,8.249,7.721,12.755c4.989,11.223,11.027,22.308,13.786,34.116
		c3.676,15.73,4.969,32.059,6.668,48.194c1.279,12.16,1.59,24.422,2.362,37.139c3.164,0.318,5.751,0.864,8.321,0.794
		c42.128-1.142,81.57,9.996,119.905,26.159c12.564,5.298,25.013,10.875,37.539,16.268c12.364,5.321,20.774,15.441,29.554,24.925
		c2.402,2.595,3.245,7.225,3.567,11.026c0.561,6.619-0.302,13.359,0.283,19.973c0.685,7.747-2.313,13.606-7.739,18.499
		c-15.058,13.579-30.246,27.012-45.318,40.572c-11.039,9.932-21.978,19.974-32.959,29.967c0.318,0.672,0.637,1.344,0.955,2.015
		c4.088-0.209,8.176-0.396,12.263-0.63c15.92-0.909,31.932-1.046,47.74-2.908c37.486-4.414,75.159-1.686,112.683-3.863
		c32.601-1.891,65.137-1.965,97.658,1.725c11.537,1.308,23.215,1.428,34.836,1.937c22.765,0.995,44.64,6.887,66.639,12.047
		c18.104,4.247,36.564,7.534,54.109,13.482c34.683,11.76,69.393,24.409,96.924,49.832c32.82,30.308,63.34,62.908,86.813,101.214
		c36.72,59.926,70.156,121.611,94.035,187.948c15.418,42.833,28.661,86.33,36.754,131.281
		c9.943,55.227,13.265,110.807,10.477,166.817c-0.828,16.594-1.081,33.215-1.609,49.824c-0.596,18.721-4.72,36.853-9.223,54.915
		c-2.331,9.347-4.232,18.854-7.353,27.937c-2.455,7.146-6.445,13.771-9.825,20.594c-2.338,4.719-4.794,9.379-8.294,16.2
		c3.281,2.476,7.119,4.718,10.15,7.766c21.611,21.721,43.086,43.579,64.544,65.454c8.621,8.789,16.94,17.88,25.664,26.567
		c13.873,13.816,20.914,29.853,20.875,49.937c-0.032,17.207-1.921,33.41-12.583,47.18c-7.71,9.957-16.654,18.975-25.248,28.226
		c-6.803,7.322-13.905,14.306-22.91,19.106c-2.854,1.521-5.006,4.326-7.575,6.427c-2.819,2.304-5.449,5.151-8.685,6.58
		c-13.676,6.041-24.673,15.555-34.901,26.088c-7.219,7.434-14.644,14.528-23.831,19.551c-2.029,1.108-4.14,2.396-5.626,4.11
		c-10.34,11.931-24.876,17.592-37.869,25.542c-1.925,1.179-4.301,2.251-6.481,2.277c-11.988,0.147-24.089,0.913-35.942-0.399
		c-11.302-1.251-21.849-6.044-30.539-13.762c-11.188-9.936-22.265-20.009-33.081-30.346c-10.357-9.9-20.481-20.058-30.372-30.423
		c-3.996-4.188-8.197-6.022-14.012-5.853c-16.308,0.479-32.654,0.665-48.549-4.011c-21.093-6.204-42.08-12.656-59.381-27.171
		c-0.982-0.824-2.188-1.383-3.568-2.239c-35.199,21.127-74.551,28.307-114.207,32.883c-23.033,2.659-46.706,2.235-69.687-2.074
		c-16.886-3.167-33.533-8.13-49.829-13.646c-6.56-2.219-11.898-8.048-18.09-12.445c-0.468,0.279-1.418,0.635-2.091,1.279
		c-23.353,22.29-46.813,44.47-69.954,66.978c-11.901,11.577-23.111,23.86-34.885,35.573c-3.383,3.364-4.44,6.897-4.435,11.505
		c0.018,15.313-0.23,30.631-0.602,45.94c-0.564,23.275-0.963,46.562-2.069,69.813c-1.752,36.802-5.784,73.385-10.774,109.899
		c-2.69,19.696-3.183,39.683-5.168,59.487c-2.616,26.083-5.603,52.132-8.658,78.17c-2.746,23.397-6.168,46.719-8.627,70.145
		c-3.015,28.706-5.487,57.471-7.91,86.235c-1.84,21.837-2.847,43.747-4.922,65.559c-2.829,29.716-6.617,59.342-9.41,89.061
		c-1.46,15.523-1.542,31.173-2.477,46.751c-1.093,18.219-2.509,36.418-3.655,54.635c-1.501,23.856-2.646,47.737-4.374,71.577
		c-1.534,21.183-3.878,42.306-5.46,63.486c-1.73,23.173-2.651,46.409-4.582,69.563c-1.376,16.5-3.01,33.061-5.996,49.324
		c-5.777,31.472-3.195,62.129,6.159,92.485c6.751,21.906,13.131,43.929,20.035,65.786c5.303,16.788,15.241,30.953,26.938,43.836
		c6.01,6.621,12.099,13.556,19.389,18.539c12.846,8.781,26.575,16.286,40.063,24.102c6.028,3.494,12.315,6.559,18.586,9.613
		c8.331,4.059,16.944,7.573,25.087,11.969c6.672,3.602,13.719,7.242,19.045,12.455c14.267,13.959,28.249,28.297,41.269,43.411
		c8.607,9.995,12.671,23.083,13.766,35.907c1.894,22.162,2.513,44.52,2.046,66.762c-0.255,12.15-3.212,24.39-6.189,36.276
		c-1.377,5.498-5.174,10.69-8.828,15.256c-9.112,11.384-20.436,19.9-34.76,23.835c-3.176,0.873-6.363,1.875-9.613,2.278
		c-19.471,2.421-38.935,4.638-58.649,4.091c-12.009-0.334-22.765-3.404-33.02-9.708c-7.001-4.306-14.981-6.984-22.295-10.825
		c-7.63-4.005-15.394-7.962-22.377-12.951c-14.609-10.439-28.581-21.771-43.131-32.299c-10.769-7.79-22.086-14.82-33.077-22.31
		c-17.03-11.605-33.905-23.441-51.011-34.936c-13.909-9.347-25.905-20.849-37.529-32.743c-5.678-5.811-11.942-10.504-19.229-13.987
		c-21.507-10.279-40.6-23.894-57.682-40.581c-9.733-9.508-20.81-17.636-30.608-27.082c-5.926-5.711-10.569-12.751-15.78-19.201
		c-4.592-5.683-9.802-10.982-13.617-17.146c-6.612-10.686-13.232-21.524-18.261-32.994c-7.396-16.869-10.772-34.725-10.788-53.396
		c-0.012-14.551-2.126-29.093-3.146-43.649c-1.602-22.843-2.604-45.738-4.708-68.533c-2.989-32.371-6.688-64.677-10.197-96.999
		c-2.471-22.76-5.602-45.459-7.589-68.259c-2.505-28.747-3.909-57.588-6.229-86.354c-2.128-26.398-4.921-52.745-7.258-79.13
		c-1.08-12.19-2.112-24.401-2.572-36.627c-0.91-24.26-0.952-48.559-2.219-72.796c-1.072-20.529-4.147-40.965-4.937-61.497
		c-1.327-34.578-1.874-69.197-2.116-103.803c-0.164-23.28,1.536-46.587,0.957-69.846c-0.476-19.155-3.127-38.254-4.717-57.384
		c-0.851-10.243-0.956-20.576-2.34-30.74c-3.268-24.006-6.962-47.956-10.732-71.89c-6.211-39.42-14.871-78.324-25.988-116.641
		c-5.272-18.175-12.308-35.857-17.143-54.135c-6.705-25.352-12.78-50.917-17.836-76.644c-4.634-23.577-12.03-46.223-19.693-68.861
		c-2.559-7.563-5.228-15.102-7.382-22.781c-1.626-5.792-4.672-8.472-10.908-9.494c-23.284-3.814-46.658-7.46-69.607-12.839
		c-24.562-5.756-48.715-13.282-72.988-20.239c-38.433-11.016-75.064-26.837-111.883-42.644
		c-9.603,8.444-19.341,16.435-28.272,25.244c-2.422,2.389-2.854,7.183-3.431,10.989c-4.47,29.538-8.879,59.086-13.04,88.668
		c-2.173,15.438-4.345,30.911-5.561,46.443c-1.841,23.499-3.132,47.052-4.125,70.604c-1.021,24.252-1.352,48.533-2.094,72.798
		c-0.274,8.959-1.566,17.939-1.176,26.856c1.434,32.849,3.216,65.687,5.19,98.509c1.275,21.216,2.445,42.475,4.827,63.582
		c6.214,55.069,11.854,110.201,24.027,164.464c9.085,40.499,17.029,81.256,29.185,120.988
		c17.793,58.154,35.313,116.405,54.201,174.205c8.763,26.813,20.758,52.552,30.782,78.97c10.023,26.413,18.821,53.303,29.261,79.545
		c9.947,25.005,21.225,49.486,32.104,74.116c6.715,15.206,13.811,30.244,20.673,45.386c5.729,12.646,8.406,25.891,7.616,39.803
		c-0.151,2.657-0.313,5.369,0.03,7.99c1.219,9.327-2.072,16.123-9,22.792c-12.438,11.974-23.282,25.59-35.525,37.783
		c-5.292,5.268-11.853,10.283-18.783,12.72c-53.615,18.849-105.868,41.135-158.723,61.898
		c-41.435,16.277-83.214,31.686-124.958,47.162c-18.39,6.817-37.239,12.407-55.568,19.372
		c-15.148,5.757-29.777,12.866-44.755,19.091c-10.682,4.439-21.57,8.38-32.347,12.594c-7.704,3.013-15.281,6.384-23.095,9.076
		c-5.286,1.822-10.853,3.671-16.346,3.844c-7.893,0.248-15.075,2.245-22.119,5.378c-11.425,5.079-23.26,7.31-35.878,7.14
		c-18.29-0.248-36.603,1.101-54.891,0.81c-13.92-0.221-26.914-4.182-36.571-15.221c-9.407-10.751-18.886-21.454-27.854-32.565
		c-3.033-3.757-5.178-8.501-6.739-13.128c-6.735-19.957-6.04-40.655-5.083-61.27c0.192-4.146,2.005-8.41,3.836-12.255
		c8.985-18.852,21.303-35.297,36.888-49.206c22.149-19.769,45.41-38.263,71.989-51.604c38.642-19.396,77.796-37.79,116.974-56.093
		c20.4-9.53,41.92-14.317,64.771-13.796c18.362,0.42,36.525,0.776,54.331,6.037
		C1617.338,3677.978,1630.232,3676.636,1641.753,3673.096z M1320.17,658.148c-6.915,4.061-1.512,7.399-0.665,10.621
		C1319.704,665.589,1319.903,662.409,1320.17,658.148z"/>
	<path fill-rule="evenodd" d="M991.546,2546.478c0-2.325,0.287-4.692-0.052-6.966c-1.142-7.646,2.3-12.833,7.476-18.231
		c5.546-5.786,11.34-7.388,19.127-7.866c12.822-0.787,22.6,2.291,31.33,12.349c5.636,6.491,9.291,12.41,8.132,20.95
		c-0.221,1.631-0.265,3.355,0.007,4.97c1.535,9.114-2.281,15.519-8.891,21.661c-5.478,5.092-10.673,8.507-18.378,7.606
		c-4.259-0.497-8.648-0.38-12.936-0.021c-6.402,0.536-10.844-2.048-15.878-6.086C991.831,2567.103,990.23,2557.541,991.546,2546.478
		z"/>
	<path fill-rule="evenodd" fill="#FFFFFF" d="M1320.17,658.148c-0.267,4.261-0.466,7.44-0.665,10.621
		C1318.658,665.548,1313.255,662.209,1320.17,658.148z"/>
</g>
</svg>
