<?xml version="1.0" encoding="utf-8"?>
<!-- Generator: Adobe Illustrator 16.0.2, SVG Export Plug-In . SVG Version: 6.00 Build 0)  -->
<!DOCTYPE svg PUBLIC "-//W3C//DTD SVG 1.1 Tiny//EN" "http://www.w3.org/Graphics/SVG/1.1/DTD/svg11-tiny.dtd">
<svg version="1.1" baseProfile="tiny" id="Layer_1" xmlns="http://www.w3.org/2000/svg" xmlns:xlink="http://www.w3.org/1999/xlink"
	 x="0px" y="0px" width="3661.542px" height="4263.467px" viewBox="0 0 3661.542 4263.467" xml:space="preserve">
<g>
	<path fill-rule="evenodd" fill="#FFFFFF" d="M3665.428,4267.354c-1221.217,0-2442.323,0-3663.315,0
		c0-1421.859,0-2843.607,0-4265.241c1221.218,0,2442.324,0,3663.315,0C3665.428,1423.972,3665.428,2845.72,3665.428,4267.354z
		 M1278.688,3610.338c-3.098,0.137-6.028,0.373-8.959,0.379c-17.289,0.035-34.579-0.092-51.866,0.046
		c-21.642,0.173-43.318-0.127-64.911,1.034c-20.859,1.12-41.936,2.268-62.37,6.225c-30.578,5.922-59.567,16.896-83.547,37.861
		c-14.017,12.253-27.948,24.677-41.07,37.867c-28.357,28.507-42.522,63.66-46.456,103.305c-0.358,3.617-0.619,7.455-2.015,10.724
		c-6.846,16.023-7.808,32.776-7.38,49.868c0.165,6.615,1.43,12.627,5.82,17.522c9.098,10.146,18.26,20.253,27.845,29.93
		c2.349,2.371,6.363,4.052,9.73,4.28c12.234,0.83,24.545,1.58,36.776,1.104c15.837-0.617,31.281-1.635,47.311,1.521
		c14.751,2.903,30.479,1.124,45.768,0.846c4.499-0.083,9.081-1.745,13.42-3.266c11.554-4.049,23.18-7.983,34.446-12.745
		c23.25-9.829,46.803-18.633,71.272-25.004c8.981-2.339,17.796-5.549,26.397-9.072c52.89-21.666,105.182-44.769,159.498-62.916
		c27.707-9.257,54.634-20.833,81.984-31.174c15.836-5.987,31.889-11.354,46.712-19.798c5.164-2.941,11.043-4.615,16.568-6.935
		c5.814-2.44,11.807-4.563,17.34-7.537c8.445-4.54,16.141-10.706,24.913-14.36c15.248-6.354,27.445-16.402,37.743-28.729
		c3.849-4.604,6.793-11.069,7.495-17.001c2.492-21.034-2.042-40.609-12.701-59.315c-11.846-20.789-23.141-42.05-32.644-63.985
		c-16.782-38.734-32.301-78.025-47.818-117.293c-11.241-28.447-22.138-57.054-32.269-85.913
		c-15.516-44.196-30.139-88.706-45.332-133.019c-13.915-40.588-27.565-81.261-37.499-123.047
		c-7.604-31.988-14.619-64.115-22.12-96.129c-12.459-53.169-19.943-107.033-22.537-161.556c-1.09-22.915-1.612-45.863-2.019-68.803
		c-0.461-25.976-0.859-51.961-0.631-77.937c0.249-28.276,0.987-56.556,2.048-84.813c0.435-11.575,1.777-23.176,3.576-34.629
		c4.018-25.584,8.816-51.044,12.865-76.623c4.878-30.819,9.28-61.713,13.957-92.563c1.065-7.022,3.369-8.64,10.113-6.768
		c6.401,1.774,12.732,3.866,18.961,6.176c28.378,10.518,56.763,20.875,86.262,28.089c17.091,4.181,33.511,11.093,50.59,15.327
		c36.449,9.036,73.07,17.492,110.458,21.802c5.517,0.634,8.555,2.665,9.555,8.05c0.359,1.939,1.223,3.785,1.851,5.675
		c12.809,38.511,25.019,77.235,38.608,115.468c11.696,32.9,23.104,65.828,30.204,100.056c6.131,29.563,11.58,59.267,17.608,88.85
		c5.957,29.228,9.192,58.8,11.952,88.446c1.747,18.777,3.678,37.539,5.175,56.335c1.577,19.814,3.419,39.644,3.935,59.499
		c1.123,43.258,1.293,86.541,2.218,129.806c0.482,22.561-1.048,45.093,1.586,67.717c2.26,19.417,1.868,39.162,2.284,58.771
		c0.471,22.229-0.467,44.463,2.584,66.641c2.841,20.646,4.037,41.521,7.007,62.144c2.776,19.266,7.079,38.306,10.444,57.492
		c4.117,23.472,2.027,47.183,1.708,70.755c-0.336,24.885-2.932,49.732-3.543,74.62c-0.655,26.647-0.078,53.323-0.17,79.985
		c-0.073,20.972,0.659,41.839,4.592,62.542c3.467,18.253,6.561,36.587,9.298,54.964c3.221,21.619,14.729,38.078,30.892,51.855
		c1.214,1.034,2.767,1.668,4.154,2.501c2.749,1.649,5.926,2.86,8.172,5.03c29.249,28.264,60.335,54.428,93.767,77.471
		c48.547,33.46,94.47,70.324,140.942,106.461c29.509,22.945,60.059,44.273,92.242,63.067
		c30.834,18.005,64.968,22.527,100.271,19.779c10.313-0.803,20.456-1.733,30.258-5.551c4.566-1.777,9.696-2.446,14.634-2.859
		c8.936-0.749,17.916-1.149,26.884-1.292c11.039-0.178,20.609-2.468,28.216-11.766c9.876-12.07,21.845-22.511,31.036-35.029
		c6.105-8.314,11.053-18.692,12.689-28.77c2.107-12.972,0.701-26.579,0.151-39.887c-0.215-5.177-1.846-10.4-3.47-15.396
		c-10.577-32.538-32.723-56.729-57.554-78.875c-5.188-4.627-10.508-9.365-16.482-12.81c-35.057-20.211-72.102-33.973-113.331-33.543
		c-4.604,0.047-9.45,0.004-13.783-1.313c-12.079-3.676-24.257-7.324-35.829-12.298c-19.496-8.38-34.753-21.925-42.198-42.226
		c-7.039-19.19-12.822-38.847-18.993-58.35c-2.787-8.813-5.411-17.694-7.657-26.658c-1.347-5.378-3.235-11.19-2.432-16.434
		c2.795-18.223,6.616-36.291,10.135-54.4c2.404-12.374,4.525-24.826,7.558-37.049c3.352-13.503,8.712-26.579,11.212-40.207
		c4.369-23.829,7.11-47.953,10.738-71.922c3.875-25.604,8.013-51.169,11.99-76.759c4.636-29.822,10.262-59.539,13.542-89.511
		c3.32-30.324,4.283-60.905,6.309-91.373c1.54-23.191,3.06-46.385,4.726-69.567c0.808-11.249,1.733-22.498,2.946-33.71
		c3.032-28.06,7.418-55.976,6.469-84.38c-0.5-14.962,0.104-29.977,0.645-44.951c0.889-24.564,2.401-49.107,3.13-73.676
		c0.493-16.65,0.008-33.327,0.123-49.99c0.08-11.653,0.282-23.312,0.698-34.957c1.007-28.215,2.421-56.417,3.183-84.638
		c0.482-17.883-0.047-35.792,0.137-53.688c0.133-12.974,0.896-25.941,1.011-38.915c0.17-19.254-0.487-38.528,0.167-57.761
		c0.462-13.625-5.813-27.501,1.327-40.897c0.283-0.531,0.098-1.314,0.121-1.981c0.443-12.272,0.713-24.557,1.402-36.815
		c0.318-5.683-0.744-10.337-5.368-14.141c-1.921-1.58-3.826-4.107-4.222-6.458c-2.197-13.077-4.459-26.183-5.667-39.372
		c-1.12-12.231-0.909-24.583-1.354-36.879c-0.213-5.899-0.588-11.791-0.894-17.755c3.801-1.106,6.627-2.082,9.523-2.749
		c50.738-11.694,100.098-27.343,146.911-50.502c47.383-23.441,91.576-51.367,129.719-88.474
		c9.212-8.962,11.516-20.122,12.809-31.057c1.985-16.797,0.643-33.841-3.64-50.511c-1.971-7.674-2.666-15.673-4.011-23.512
		c-1.503-8.763-1.646-17.876-7.989-25.249c-1.825-2.121-2.358-5.425-3.258-8.259c-9.55-30.098-18.731-60.319-28.705-90.276
		c-5.127-15.401-10.044-31-19.912-44.442c-3.669-4.998-6.664-10.812-8.607-16.701c-13.327-40.395-26.317-80.9-39.354-121.389
		c-2.269-7.047-4.241-14.19-6.688-22.422c8.599,0.951,15.494,1.664,22.378,2.486c15.169,1.812,30.285,4.462,45.506,5.351
		c26.878,1.569,53.851,1.538,80.722,3.181c27.509,1.683,54.938,4.643,82.413,6.903c13.903,1.145,27.824,2.086,41.749,2.926
		c13.935,0.843,27.876,1.613,41.826,2.116c21.272,0.766,42.557,1.843,63.829,1.728c19.611-0.105,39.06-2.797,58.189-7.372
		c17.432-4.169,35.016-7.791,52.267-12.607c29.728-8.299,59.662-16.339,86.745-31.783c27.41-15.629,54.493-31.829,81.779-47.679
		c19.036-11.057,37.402-23.169,53.789-37.844c33.47-29.973,66.323-60.609,97.927-92.587c31.494-31.867,57.981-67.593,81.88-105.244
		c17.05-26.86,34.358-53.662,46.675-83.244c6.247-15.006,13.617-29.563,19.443-44.721c8.467-22.026,15.702-44.521,24.008-66.611
		c8.101-21.549,13.64-43.671,17.512-66.328c3.854-22.565,7.665-45.18,12.776-67.478c5.456-23.8,8.341-47.665,7.828-72.069
		c-0.432-20.583-0.089-41.18-0.089-62.424c9.671-7.505,19.763-15.653,30.185-23.353c17.158-12.673,33.446-26.259,48.095-41.842
		c13.83-14.713,21.848-31.514,21.066-52.04c-0.178-4.66,0.036-9.333-0.039-13.998c-0.22-13.689-3.915-26.34-12.521-37.083
		c-10.154-12.674-21.361-24.539-31.053-37.543c-12.484-16.752-24.195-34.104-35.72-51.539
		c-10.229-15.476-23.433-28.002-37.372-39.89c-5.539-4.724-11.48-8.974-17.128-13.574c-5.248-4.273-10.66-7.7-17.853-7.761
		c-10.3-0.086-20.593-0.92-30.893-0.996c-13.079-0.097-24.777,3.703-34.563,12.897c-5.566,5.231-11.633,9.934-17.532,14.803
		c-12.556,10.365-25.462,20.334-37.558,31.208c-4.363,3.921-8.041,4.636-13.303,3.412c-21.348-4.964-43.155-4.655-64.589-2.359
		c-22.769,2.439-44.659,9.671-65.417,19.612c-5.887,2.819-11.227,6.775-18.082,10.988c-2.887-3.428-5.506-6.904-8.496-10.025
		c-12.744-13.302-26.804-24.831-43.667-32.714c-15.682-7.33-31.264-15.168-48.813-16.54c-16.561-1.294-33.208-2.14-49.813-2.071
		c-23.942,0.101-47.886,1.119-71.82,1.969c-3.914,0.14-7.816,1.298-11.671,2.21c-12.764,3.021-24.107,9.211-35.228,15.913
		c-11.548,6.958-14.8,6.331-22.874-4.318c-16.659-21.965-33.211-44.012-49.93-65.931c-16.564-21.717-34.523-42.244-54.568-60.802
		c-11.255-10.42-22.045-21.099-31.478-33.269c-3.271-4.219-3.568-7.215-1.51-11.558c3.975-8.383,7.009-17.286,11.685-25.238
		c3.989-6.79,8.695-13.969,14.898-18.488c16.344-11.91,32.745-23.856,51.601-31.969c23.447-10.087,46.292-21.569,71.456-27.224
		c5.696-1.28,11.861-3.343,16.271-6.937c11.581-9.439,22.184-20.069,33.418-29.95c14.971-13.167,30.198-26.042,45.258-39.109
		c8.02-6.958,16.049-13.917,23.772-21.195c1.707-1.608,2.891-4.529,3.017-6.915c0.387-7.313,0.211-14.658,0.089-21.988
		c-0.025-1.567-0.26-3.583-1.227-4.61c-7.145-7.579-13.113-17.378-26.108-14.744c-1.921,0.39-3.995,0.159-5.987,0.037
		c-11.521-0.708-22.568,0.598-32.625,6.929c-1.56,0.981-3.695,1.583-5.527,1.506c-8.245-0.348-16.505-0.741-24.705-1.62
		c-8.659-0.929-15.548,1.45-20.964,8.521c-2.171,2.835-4.979,5.654-8.126,7.195c-19.739,9.663-33.568,9.086-52.302-3.14
		c-15.288-9.979-30.237-20.547-44.693-31.689c-5.05-3.893-10.081-9.714-11.841-15.629c-6.226-20.931-12.696-41.95-11.866-64.295
		c0.42-11.316,0.078-22.661,0.067-33.993c-0.004-3.921-1.051-8.17,0.105-11.705c3.958-12.097,2.607-24.452,2.284-36.669
		c-0.121-4.559-2.779-9.39-5.326-13.44c-2.249-3.576-6.172-6.054-8.955-9.355c-3.046-3.615-7.037-5.42-11.345-5.365
		c-15.349,0.196-31.239-3.711-45.479,6.107c-2.87-26.669-2.932-24.455-19.952-42.281c-3.608-3.78-7.989-6.907-12.313-9.903
		c-10.878-7.538-23.412-5.9-35.673-6.431c-8.33-0.36-14.212,2.251-20.274,8.04c-6.901,6.591-10.224,13.422-9.128,22.827
		c0.536,4.603-0.351,9.38,0.258,13.966c0.401,3.028,1.751,6.317,3.676,8.672c3.54,4.33,7.818,8.057,11.326,11.572
		c-3.224,25.147-18.198,42.323-33.458,59.148c-7.791-3.018-14.75-6.246-22.029-8.385c-7.286-2.141-14.909-3.122-22.347-4.781
		c-1.542-0.345-3.005-1.31-4.352-2.216c-7.154-4.814-15.179-6.54-23.621-6.655c-7.998-0.108-16.005-0.236-23.995,0.035
		c-8.477,0.287-16.623,2.208-22.606,8.73c-3.364,3.666-6.726,3.606-10.746,1.954c-7.07-2.908-14.492-5.158-21.165-8.789
		c-10.134-5.516-20.452-11.104-29.392-18.281c-8.754-7.027-16.366-15.678-23.581-24.363c-6.871-8.27-14.914-10.667-25.388-10.386
		c-24.397,0.654-24.338,0.273-40.747,17.646c-3.445,3.648-5.146,7.536-5.067,12.5c0.137,8.664,0.354,17.346-0.074,25.991
		c-0.304,6.116,1.647,10.687,5.771,15.168c7.16,7.781,14.849,15.447,20.236,24.411c10.126,16.849,16.133,35.47,21.059,54.602
		c5.741,22.308,1.54,41.958-14.056,58.057c-19.733,20.371-43.55,33.675-72.878,34.725c-4.253,0.152-8.698,0.276-12.684,1.563
		c-16.32,5.271-25.327,17.946-25.332,34.814c0,2,0.304,4.055-0.049,5.99c-2.271,12.451,3.253,20.95,12.063,29.43
		c12.073,11.619,25.854,16.99,42.12,17.249c7.997,0.127,15.999,0.146,23.995-0.005c12.133-0.229,21.814,5.801,31.034,11.039
		c-11.147-0.328-22.766-0.425-34.351-1.099c-7.238-0.422-12.36,2.299-17.689,7.145c-7.007,6.375-10.501,13.179-9.234,22.667
		c0.612,4.584-0.298,9.367,0.253,13.967c0.365,3.055,1.411,6.53,3.343,8.808c7.6,8.961,16.276,16.576,27.96,20.073
		c4.419,1.322,8.463,3.878,12.868,5.276c4.575,1.452,7.216,4.54,9.116,8.581c3.808,8.104,7.37,16.333,11.434,24.306
		c1.999,3.922,1.935,7.332,0.325,11.307c-5.461,13.487-13.45,25.037-24.299,34.833c-3.929,3.548-6.548,8.549-10.46,13.827
		c-2.149-0.685-5.575-1.825-9.029-2.867c-9.872-2.977-19.638-6.412-29.654-8.781c-40.45-9.563-80.913-19.089-121.499-28.051
		c-32.436-7.162-64.214-17.445-97.484-20.776c-2.668-0.268-5.621-2.156-7.598-4.134c-16.453-16.467-32.531-33.312-49.086-49.673
		c-11.19-11.062-25.323-16.975-40.622-19.251c-5.56-0.828-9.829-2.762-14.46-5.542c-15.079-9.049-29.96-19.07-48.238-20.3
		c-10.949-0.736-22.024-1.046-32.951-0.261c-11.192,0.804-22.473,2.375-33.341,5.101c-9.926,2.489-19.454,6.729-28.953,10.684
		c-4.332,1.804-7.831,1.924-12.165-0.203c-15.515-7.611-31.199-14.887-46.933-22.04c-8.154-3.707-16.515-6.969-24.837-10.293
		c-16.654-6.655-33.332-13.25-50.028-19.798c-12.69-4.977-25.418-9.937-39.259-10.576c-10.625-0.49-21.272-0.532-31.891-1.104
		c-19.705-1.061-36.478,6.312-51.527,18.071c-21.31,16.651-40.67,35.563-56.945,57.047c-21.274,28.082-41.104,57.265-61.25,86.187
		c-3.4,4.881-6.875,6.918-12.918,6.881c-16.631-0.1-33.268,0.531-49.898,1.01c-6.311,0.18-12.636,0.498-18.913,1.162
		c-27.086,2.867-54.18,5.695-81.228,8.904c-25.728,3.054-51.578,5.565-77.06,10.09c-48.129,8.55-96.214,17.445-144.873,22.187
		c-46.165,4.5-91.594,11.889-135.601,26.943c-15.625,5.346-30.325,12.108-40.958,25.316c-2.381,2.958-4.798,6.703-5.182,10.299
		c-1.158,10.866-1.192,21.845-1.922,32.763c-0.54,8.082,2.472,14.673,6.808,21.305c5.425,8.296,9.819,17.266,14.715,25.914
		c2.61,4.612,4.575,9.891,8.145,13.605c16.832,17.518,30.144,38.197,48.747,54.106c1.749,1.496,3.527,3.237,4.562,5.24
		c6.069,11.747,15.18,20.876,24.694,29.75c2.103,1.96,3.868,4.604,4.966,7.271c9.456,22.95,26.819,38.747,47.683,50.505
		c17.878,10.075,36.849,18.206,55.305,27.263c2.375,1.166,4.747,2.497,6.795,4.153c13.706,11.079,29.598,17.811,46.416,21.935
		c26.701,6.546,53.676,11.961,80.451,18.217c12.088,2.825,23.974,6.519,37.334,10.199c-4.78,4.664-8.272,8.199-11.902,11.588
		c-10.677,9.967-18.387,21.941-23.243,35.61c-5.003,14.088-9.056,28.516-14.164,42.564c-7.163,19.702-7.149,40.31-4.706,60.219
		c3.747,30.528,12.97,59.737,32.443,84.7c2.508,3.214,4.191,7.608,4.803,11.675c3.139,20.829,9.166,40.778,16.683,60.397
		c7.831,20.439,15.147,41.078,22.705,61.669c-4.664,2.832-9.352,5.324-13.631,8.387c-3.596,2.573-6.793,2.555-11.095,1.624
		c-16.524-3.576-33.179-6.596-49.847-9.449c-6.854-1.173-13.871-1.388-20.811-2.053c-18.503-1.774-36.975-4.506-55.516-5.11
		c-26.968-0.878-53.985-0.219-80.982-0.233c-2.996-0.001-6.016,0.115-8.985-0.2c-29.481-3.135-59.038-3.937-88.679-3.951
		c-23.76-0.013-47.078,2.771-70.307,7.303c-47.296,9.229-94.561,18.632-141.949,27.354c-27.494,5.061-54.896,10.207-81.541,18.902
		c-17.061,5.567-34.161,11.141-51.516,15.664c-25.045,6.526-46.598,18.898-66.294,35.428
		c-33.944,28.485-65.535,59.466-97.137,90.432c-32.292,31.642-59.067,67.758-81.627,106.727
		c-13.475,23.275-24.395,48.058-35.963,72.4c-23.933,50.363-41.465,102.999-53.714,157.326
		c-6.498,28.822-11.033,58.083-17.359,86.946c-9.56,43.626-13.133,87.979-15.771,132.322c-1.634,27.467-0.268,55.194,1.146,82.732
		c1.19,23.165,4.124,46.259,6.946,69.304c0.53,4.328-0.263,6.857-3.095,9.55c-8.925,8.484-17.985,16.843-26.589,25.645
		c-15.636,15.994-25.833,34.53-25.514,57.672c0.027,1.963-0.553,3.931-0.785,5.903c-0.847,7.196-1.994,14.378-2.404,21.601
		c-0.415,7.309-0.124,14.659-0.084,21.991c0.062,11.19,2.663,21.829,9.137,30.941c8.785,12.366,15.081,26.541,26.578,36.951
		c0.492,0.445,0.952,0.942,1.346,1.475c16.236,21.97,35.925,39.92,60.515,52.223c2.062,1.031,3.979,2.47,5.726,3.99
		c12.93,11.248,29.245,15.417,44.764,21.006c12.974,4.671,26.775,4.14,40.448,4.326c26.197,0.356,47.467-10.383,66.5-27.358
		c21.489-19.165,44.644-35.571,73.23-42.822c12.55-3.184,24.815-6.57,38.002-7.416c10.273-0.658,20.347-5.44,30.341-8.878
		c3.614-1.243,6.417-1.69,10.333-0.395c17.679,5.851,35.458,11.485,53.442,16.293c11.197,2.993,22.762,5.606,34.274,6.199
		c19.547,1.006,39.188-0.006,58.78,0.354c26.846,0.494,52.892-5.337,79.091-9.718c8.357-1.396,16.637-4.702,24.298-8.466
		c10.369-5.095,20.107-11.473,31.237-17.953c14.066,14.756,28.926,29.98,43.375,45.586c23.042,24.889,45.775,50.063,68.708,75.054
		c13.045,14.216,26.351,28.195,39.228,42.56c2.212,2.467,4.013,6.32,4.048,9.556c0.237,21.319-0.105,42.646-0.149,63.971
		c-0.01,4.984-0.254,10.115,0.805,14.917c1.185,5.373,2.701,11.208,5.885,15.499c7.757,10.448,17.108,19.172,29.243,25.041
		c11.242,5.439,18.027,14.156,18.319,28.089c0.375,17.883,1.976,35.854,4.634,53.55c7.553,50.297,19.129,99.817,30.902,149.249
		c16.364,68.703,40.225,134.997,67.252,200.118c15.419,37.15,31.826,73.918,48.812,110.381
		c12.058,25.887,25.342,51.239,38.972,76.346c13.319,24.538,27.956,48.358,41.671,72.686c12.898,22.876,24.756,46.356,38.175,68.915
		C1252.128,3571.144,1265.517,3590.192,1278.688,3610.338z"/>
	<path fill-rule="evenodd" d="M1278.688,3610.338c-13.172-20.146-26.56-39.194-38.428-59.147
		c-13.419-22.559-25.277-46.039-38.175-68.915c-13.716-24.327-28.352-48.147-41.671-72.686
		c-13.629-25.106-26.914-50.459-38.972-76.346c-16.985-36.463-33.393-73.23-48.812-110.381
		c-27.028-65.121-50.888-131.415-67.252-200.118c-11.773-49.432-23.35-98.952-30.902-149.249
		c-2.658-17.695-4.259-35.667-4.634-53.55c-0.292-13.933-7.078-22.649-18.319-28.089c-12.135-5.869-21.486-14.593-29.243-25.041
		c-3.184-4.291-4.701-10.126-5.885-15.499c-1.059-4.802-0.815-9.933-0.805-14.917c0.044-21.325,0.386-42.651,0.149-63.971
		c-0.035-3.235-1.836-7.089-4.048-9.556c-12.877-14.364-26.182-28.344-39.228-42.56c-22.933-24.99-45.666-50.165-68.708-75.054
		c-14.448-15.605-29.309-30.83-43.375-45.586c-11.13,6.48-20.868,12.858-31.237,17.953c-7.661,3.764-15.941,7.07-24.298,8.466
		c-26.199,4.381-52.245,10.212-79.091,9.718c-19.592-0.36-39.232,0.651-58.78-0.354c-11.512-0.593-23.077-3.206-34.274-6.199
		c-17.984-4.808-35.763-10.442-53.442-16.293c-3.917-1.296-6.72-0.849-10.333,0.395c-9.994,3.438-20.068,8.22-30.341,8.878
		c-13.187,0.846-25.452,4.232-38.002,7.416c-28.586,7.251-51.742,23.657-73.23,42.822c-19.033,16.976-40.303,27.715-66.5,27.358
		c-13.673-0.187-27.475,0.345-40.448-4.326c-15.52-5.589-31.834-9.758-44.764-21.006c-1.748-1.521-3.665-2.959-5.726-3.99
		c-24.59-12.303-44.279-30.253-60.515-52.223c-0.394-0.532-0.854-1.029-1.346-1.475c-11.498-10.41-17.793-24.585-26.578-36.951
		c-6.474-9.112-9.075-19.751-9.137-30.941c-0.04-7.332-0.331-14.683,0.084-21.991c0.41-7.223,1.557-14.404,2.404-21.601
		c0.232-1.973,0.812-3.94,0.785-5.903c-0.319-23.142,9.877-41.678,25.514-57.672c8.604-8.802,17.664-17.16,26.589-25.645
		c2.833-2.692,3.625-5.222,3.095-9.55c-2.822-23.045-5.756-46.139-6.946-69.304c-1.414-27.538-2.779-55.266-1.146-82.732
		c2.637-44.343,6.21-88.696,15.771-132.322c6.326-28.864,10.861-58.125,17.359-86.946c12.25-54.327,29.782-106.963,53.714-157.326
		c11.568-24.343,22.488-49.125,35.963-72.4c22.56-38.969,49.335-75.085,81.627-106.727c31.603-30.966,63.193-61.946,97.137-90.432
		c19.697-16.53,41.249-28.902,66.294-35.428c17.355-4.523,34.455-10.097,51.516-15.664c26.645-8.695,54.047-13.841,81.541-18.902
		c47.389-8.722,94.653-18.125,141.949-27.354c23.229-4.531,46.547-7.315,70.307-7.303c29.642,0.015,59.198,0.816,88.679,3.951
		c2.969,0.315,5.99,0.199,8.985,0.2c26.997,0.014,54.014-0.646,80.982,0.233c18.541,0.604,37.012,3.335,55.516,5.11
		c6.94,0.665,13.957,0.88,20.811,2.053c16.668,2.853,33.323,5.873,49.847,9.449c4.302,0.932,7.499,0.949,11.095-1.624
		c4.28-3.063,8.968-5.555,13.631-8.387c-7.557-20.591-14.874-41.229-22.705-61.669c-7.518-19.619-13.544-39.568-16.683-60.397
		c-0.612-4.067-2.295-8.461-4.803-11.675c-19.473-24.963-28.697-54.172-32.443-84.7c-2.444-19.91-2.458-40.518,4.706-60.219
		c5.108-14.048,9.161-28.476,14.164-42.564c4.856-13.669,12.566-25.643,23.243-35.61c3.629-3.389,7.122-6.925,11.902-11.588
		c-13.36-3.68-25.246-7.374-37.334-10.199c-26.775-6.256-53.75-11.671-80.451-18.217c-16.818-4.124-32.71-10.856-46.416-21.935
		c-2.048-1.656-4.419-2.987-6.795-4.153c-18.456-9.058-37.427-17.188-55.305-27.263c-20.864-11.758-38.228-27.555-47.683-50.505
		c-1.099-2.668-2.863-5.311-4.966-7.271c-9.515-8.874-18.625-18.004-24.694-29.75c-1.035-2.003-2.813-3.745-4.562-5.24
		c-18.603-15.909-31.915-36.588-48.747-54.106c-3.57-3.715-5.535-8.994-8.145-13.605c-4.896-8.647-9.29-17.617-14.715-25.914
		c-4.336-6.632-7.348-13.223-6.808-21.305c0.729-10.917,0.764-21.896,1.922-32.763c0.384-3.597,2.8-7.341,5.182-10.299
		c10.633-13.208,25.333-19.97,40.958-25.316c44.007-15.055,89.436-22.443,135.601-26.943c48.658-4.741,96.744-13.637,144.873-22.187
		c25.481-4.525,51.332-7.036,77.06-10.09c27.048-3.209,54.141-6.038,81.228-8.904c6.276-0.664,12.602-0.981,18.913-1.162
		c16.63-0.479,33.267-1.109,49.898-1.01c6.043,0.037,9.519-2,12.918-6.881c20.146-28.921,39.976-58.104,61.25-86.187
		c16.274-21.484,35.635-40.396,56.945-57.047c15.049-11.759,31.822-19.132,51.527-18.071c10.619,0.572,21.266,0.614,31.891,1.104
		c13.841,0.64,26.569,5.599,39.259,10.576c16.696,6.549,33.374,13.144,50.028,19.798c8.322,3.325,16.683,6.587,24.837,10.293
		c15.733,7.153,31.418,14.429,46.933,22.04c4.333,2.127,7.833,2.007,12.165,0.203c9.5-3.956,19.027-8.195,28.953-10.684
		c10.868-2.726,22.149-4.297,33.341-5.101c10.926-0.785,22.002-0.476,32.951,0.261c18.278,1.23,33.159,11.251,48.238,20.3
		c4.631,2.78,8.9,4.713,14.46,5.542c15.299,2.277,29.432,8.189,40.622,19.251c16.555,16.362,32.633,33.207,49.086,49.673
		c1.977,1.979,4.93,3.867,7.598,4.134c33.271,3.331,65.049,13.614,97.484,20.776c40.586,8.962,81.049,18.488,121.499,28.051
		c10.017,2.369,19.782,5.804,29.654,8.781c3.454,1.042,6.88,2.183,9.029,2.867c3.912-5.278,6.531-10.278,10.46-13.827
		c10.849-9.796,18.838-21.346,24.299-34.833c1.609-3.975,1.674-7.385-0.325-11.307c-4.063-7.973-7.626-16.201-11.434-24.306
		c-1.9-4.042-4.541-7.129-9.116-8.581c-4.405-1.398-8.449-3.955-12.868-5.276c-11.684-3.497-20.36-11.112-27.96-20.073
		c-1.932-2.277-2.978-5.752-3.343-8.808c-0.551-4.6,0.359-9.383-0.253-13.967c-1.267-9.488,2.228-16.292,9.234-22.667
		c5.329-4.846,10.451-7.567,17.689-7.145c11.585,0.674,23.203,0.771,34.351,1.099c-9.22-5.238-18.901-11.267-31.034-11.039
		c-7.996,0.151-15.998,0.132-23.995,0.005c-16.266-0.259-30.047-5.63-42.12-17.249c-8.81-8.479-14.334-16.979-12.063-29.43
		c0.353-1.936,0.049-3.991,0.049-5.99c0.005-16.868,9.012-29.543,25.332-34.814c3.985-1.287,8.431-1.411,12.684-1.563
		c29.328-1.049,53.145-14.354,72.878-34.725c15.596-16.099,19.797-35.749,14.056-58.057c-4.926-19.132-10.933-37.753-21.059-54.602
		c-5.388-8.964-13.076-16.63-20.236-24.411c-4.124-4.481-6.075-9.052-5.771-15.168c0.429-8.645,0.211-17.327,0.074-25.991
		c-0.078-4.963,1.622-8.851,5.067-12.5c16.409-17.373,16.35-16.992,40.747-17.646c10.474-0.28,18.517,2.117,25.388,10.386
		c7.215,8.686,14.827,17.336,23.581,24.363c8.939,7.178,19.258,12.766,29.392,18.281c6.673,3.631,14.095,5.881,21.165,8.789
		c4.021,1.653,7.382,1.712,10.746-1.954c5.983-6.522,14.13-8.443,22.606-8.73c7.99-0.271,15.997-0.144,23.995-0.035
		c8.442,0.115,16.467,1.841,23.621,6.655c1.347,0.906,2.81,1.871,4.352,2.216c7.438,1.66,15.061,2.64,22.347,4.781
		c7.279,2.139,14.238,5.367,22.029,8.385c15.26-16.825,30.234-34.001,33.458-59.148c-3.508-3.516-7.786-7.243-11.326-11.572
		c-1.925-2.355-3.274-5.644-3.676-8.672c-0.608-4.586,0.278-9.363-0.258-13.966c-1.096-9.405,2.227-16.236,9.128-22.827
		c6.063-5.789,11.944-8.4,20.274-8.04c12.261,0.53,24.795-1.107,35.673,6.431c4.324,2.996,8.705,6.123,12.313,9.903
		c17.021,17.826,17.082,15.611,19.952,42.281c14.239-9.818,30.13-5.911,45.479-6.107c4.308-0.056,8.299,1.75,11.345,5.365
		c2.783,3.301,6.706,5.779,8.955,9.355c2.547,4.051,5.205,8.882,5.326,13.44c0.323,12.217,1.674,24.572-2.284,36.669
		c-1.156,3.535-0.109,7.783-0.105,11.705c0.011,11.332,0.353,22.677-0.067,33.993c-0.83,22.345,5.641,43.364,11.866,64.295
		c1.76,5.915,6.791,11.736,11.841,15.629c14.456,11.142,29.405,21.711,44.693,31.689c18.733,12.227,32.563,12.803,52.302,3.14
		c3.146-1.541,5.955-4.36,8.126-7.195c5.416-7.071,12.305-9.45,20.964-8.521c8.2,0.878,16.46,1.272,24.705,1.62
		c1.832,0.077,3.968-0.525,5.527-1.506c10.057-6.332,21.104-7.637,32.625-6.929c1.992,0.122,4.066,0.353,5.987-0.037
		c12.995-2.635,18.964,7.165,26.108,14.744c0.967,1.027,1.201,3.042,1.227,4.61c0.122,7.33,0.298,14.676-0.089,21.988
		c-0.126,2.386-1.31,5.307-3.017,6.915c-7.724,7.278-15.753,14.237-23.772,21.195c-15.06,13.067-30.287,25.942-45.258,39.109
		c-11.234,9.881-21.837,20.511-33.418,29.95c-4.409,3.593-10.574,5.657-16.271,6.937c-25.164,5.655-48.009,17.137-71.456,27.224
		c-18.855,8.112-35.257,20.059-51.601,31.969c-6.203,4.519-10.909,11.699-14.898,18.488c-4.676,7.952-7.71,16.855-11.685,25.238
		c-2.059,4.343-1.761,7.339,1.51,11.558c9.433,12.169,20.223,22.849,31.478,33.269c20.045,18.558,38.004,39.085,54.568,60.802
		c16.719,21.919,33.271,43.966,49.93,65.931c8.074,10.649,11.326,11.276,22.874,4.318c11.12-6.702,22.464-12.892,35.228-15.913
		c3.854-0.912,7.757-2.07,11.671-2.21c23.935-0.85,47.878-1.869,71.82-1.969c16.604-0.069,33.252,0.776,49.813,2.071
		c17.549,1.372,33.131,9.21,48.813,16.54c16.863,7.883,30.923,19.412,43.667,32.714c2.99,3.121,5.609,6.597,8.496,10.025
		c6.855-4.212,12.195-8.168,18.082-10.988c20.758-9.941,42.648-17.173,65.417-19.612c21.434-2.296,43.241-2.605,64.589,2.359
		c5.262,1.224,8.939,0.509,13.303-3.412c12.096-10.874,25.002-20.843,37.558-31.208c5.899-4.87,11.966-9.572,17.532-14.803
		c9.785-9.194,21.483-12.994,34.563-12.897c10.3,0.076,20.593,0.91,30.893,0.996c7.192,0.061,12.604,3.487,17.853,7.761
		c5.647,4.6,11.589,8.85,17.128,13.574c13.939,11.888,27.143,24.415,37.372,39.89c11.524,17.436,23.235,34.787,35.72,51.539
		c9.691,13.004,20.898,24.869,31.053,37.543c8.606,10.743,12.302,23.394,12.521,37.083c0.075,4.665-0.139,9.338,0.039,13.998
		c0.781,20.526-7.236,37.326-21.066,52.04c-14.648,15.583-30.937,29.169-48.095,41.842c-10.422,7.699-20.514,15.847-30.185,23.353
		c0,21.244-0.343,41.841,0.089,62.424c0.513,24.404-2.372,48.269-7.828,72.069c-5.111,22.298-8.922,44.913-12.776,67.478
		c-3.872,22.656-9.411,44.779-17.512,66.328c-8.306,22.09-15.541,44.585-24.008,66.611c-5.826,15.158-13.196,29.715-19.443,44.721
		c-12.316,29.582-29.625,56.384-46.675,83.244c-23.898,37.65-50.386,73.376-81.88,105.244
		c-31.604,31.979-64.457,62.614-97.927,92.587c-16.387,14.675-34.753,26.787-53.789,37.844
		c-27.286,15.85-54.369,32.05-81.779,47.679c-27.083,15.443-57.018,23.483-86.745,31.783c-17.251,4.816-34.835,8.438-52.267,12.607
		c-19.13,4.575-38.578,7.267-58.189,7.372c-21.272,0.115-42.557-0.962-63.829-1.728c-13.95-0.503-27.892-1.273-41.826-2.116
		c-13.925-0.84-27.846-1.782-41.749-2.926c-27.476-2.26-54.904-5.22-82.413-6.903c-26.871-1.644-53.844-1.612-80.722-3.181
		c-15.221-0.889-30.337-3.54-45.506-5.351c-6.884-0.822-13.779-1.535-22.378-2.486c2.447,8.232,4.42,15.375,6.688,22.422
		c13.036,40.489,26.026,80.995,39.354,121.389c1.943,5.89,4.938,11.704,8.607,16.701c9.868,13.442,14.785,29.041,19.912,44.442
		c9.974,29.957,19.155,60.178,28.705,90.276c0.899,2.833,1.433,6.138,3.258,8.259c6.344,7.372,6.486,16.486,7.989,25.249
		c1.345,7.839,2.04,15.838,4.011,23.512c4.282,16.67,5.625,33.714,3.64,50.511c-1.293,10.935-3.597,22.095-12.809,31.057
		c-38.143,37.106-82.336,65.032-129.719,88.474c-46.813,23.159-96.173,38.808-146.911,50.502c-2.896,0.667-5.723,1.643-9.523,2.749
		c0.306,5.964,0.681,11.855,0.894,17.755c0.445,12.296,0.234,24.647,1.354,36.879c1.208,13.189,3.47,26.295,5.667,39.372
		c0.396,2.351,2.301,4.878,4.222,6.458c4.624,3.804,5.687,8.458,5.368,14.141c-0.689,12.259-0.959,24.543-1.402,36.815
		c-0.023,0.667,0.162,1.45-0.121,1.981c-7.14,13.396-0.865,27.272-1.327,40.897c-0.654,19.232,0.003,38.507-0.167,57.761
		c-0.114,12.974-0.878,25.941-1.011,38.915c-0.184,17.896,0.346,35.805-0.137,53.688c-0.762,28.221-2.176,56.423-3.183,84.638
		c-0.416,11.646-0.618,23.304-0.698,34.957c-0.115,16.663,0.37,33.34-0.123,49.99c-0.729,24.568-2.241,49.111-3.13,73.676
		c-0.541,14.975-1.145,29.989-0.645,44.951c0.949,28.404-3.437,56.32-6.469,84.38c-1.213,11.212-2.139,22.461-2.946,33.71
		c-1.666,23.183-3.186,46.376-4.726,69.567c-2.025,30.468-2.988,61.049-6.309,91.373c-3.28,29.972-8.906,59.688-13.542,89.511
		c-3.978,25.59-8.115,51.155-11.99,76.759c-3.628,23.969-6.369,48.093-10.738,71.922c-2.5,13.628-7.86,26.704-11.212,40.207
		c-3.032,12.223-5.153,24.675-7.558,37.049c-3.519,18.109-7.34,36.178-10.135,54.4c-0.804,5.243,1.085,11.056,2.432,16.434
		c2.246,8.964,4.87,17.845,7.657,26.658c6.171,19.503,11.954,39.159,18.993,58.35c7.445,20.301,22.702,33.846,42.198,42.226
		c11.572,4.974,23.75,8.622,35.829,12.298c4.333,1.317,9.179,1.36,13.783,1.313c41.229-0.43,78.274,13.332,113.331,33.543
		c5.975,3.444,11.294,8.183,16.482,12.81c24.831,22.146,46.977,46.337,57.554,78.875c1.624,4.996,3.255,10.22,3.47,15.396
		c0.55,13.308,1.956,26.915-0.151,39.887c-1.637,10.077-6.584,20.455-12.689,28.77c-9.191,12.519-21.16,22.959-31.036,35.029
		c-7.606,9.298-17.177,11.588-28.216,11.766c-8.968,0.143-17.948,0.543-26.884,1.292c-4.938,0.413-10.067,1.082-14.634,2.859
		c-9.802,3.817-19.945,4.748-30.258,5.551c-35.303,2.748-69.437-1.774-100.271-19.779c-32.184-18.794-62.733-40.122-92.242-63.067
		c-46.473-36.137-92.396-73.001-140.942-106.461c-33.432-23.043-64.518-49.207-93.767-77.471c-2.246-2.17-5.423-3.381-8.172-5.03
		c-1.388-0.833-2.94-1.467-4.154-2.501c-16.162-13.777-27.671-30.236-30.892-51.855c-2.737-18.377-5.831-36.711-9.298-54.964
		c-3.933-20.703-4.666-41.57-4.592-62.542c0.092-26.662-0.485-53.338,0.17-79.985c0.611-24.888,3.207-49.735,3.543-74.62
		c0.319-23.572,2.409-47.283-1.708-70.755c-3.365-19.187-7.668-38.227-10.444-57.492c-2.971-20.623-4.167-41.498-7.007-62.144
		c-3.051-22.178-2.114-44.412-2.584-66.641c-0.416-19.608-0.023-39.354-2.284-58.771c-2.634-22.624-1.104-45.156-1.586-67.717
		c-0.925-43.265-1.096-86.548-2.218-129.806c-0.516-19.855-2.358-39.685-3.935-59.499c-1.497-18.796-3.428-37.558-5.175-56.335
		c-2.759-29.646-5.995-59.219-11.952-88.446c-6.028-29.583-11.477-59.287-17.608-88.85c-7.099-34.228-18.508-67.155-30.204-100.056
		c-13.59-38.232-25.799-76.957-38.608-115.468c-0.628-1.89-1.492-3.735-1.851-5.675c-1-5.385-4.038-7.416-9.555-8.05
		c-37.388-4.31-74.009-12.766-110.458-21.802c-17.08-4.234-33.5-11.146-50.59-15.327c-29.499-7.214-57.883-17.571-86.262-28.089
		c-6.229-2.31-12.561-4.401-18.961-6.176c-6.744-1.872-9.047-0.255-10.113,6.768c-4.677,30.851-9.079,61.744-13.957,92.563
		c-4.048,25.579-8.847,51.039-12.865,76.623c-1.799,11.453-3.141,23.054-3.576,34.629c-1.061,28.258-1.799,56.537-2.048,84.813
		c-0.229,25.976,0.17,51.961,0.631,77.937c0.406,22.939,0.929,45.888,2.019,68.803c2.594,54.522,10.078,108.387,22.537,161.556
		c7.501,32.014,14.517,64.141,22.12,96.129c9.934,41.786,23.584,82.459,37.499,123.047c15.193,44.313,29.816,88.822,45.332,133.019
		c10.13,28.859,21.028,57.466,32.269,85.913c15.517,39.268,31.036,78.559,47.818,117.293c9.503,21.936,20.797,43.196,32.644,63.985
		c10.659,18.706,15.192,38.281,12.701,59.315c-0.702,5.932-3.646,12.396-7.495,17.001c-10.298,12.327-22.495,22.376-37.743,28.729
		c-8.772,3.654-16.467,9.82-24.913,14.36c-5.533,2.974-11.526,5.097-17.34,7.537c-5.525,2.319-11.405,3.993-16.568,6.935
		c-14.823,8.444-30.876,13.811-46.712,19.798c-27.35,10.341-54.277,21.917-81.984,31.174
		c-54.315,18.147-106.607,41.25-159.498,62.916c-8.601,3.523-17.416,6.733-26.397,9.072c-24.47,6.371-48.022,15.175-71.272,25.004
		c-11.266,4.762-22.892,8.696-34.446,12.745c-4.339,1.521-8.922,3.183-13.42,3.266c-15.288,0.278-31.017,2.058-45.768-0.846
		c-16.029-3.156-31.474-2.139-47.311-1.521c-12.231,0.477-24.542-0.273-36.776-1.104c-3.368-0.229-7.382-1.909-9.73-4.28
		c-9.585-9.677-18.748-19.784-27.845-29.93c-4.39-4.896-5.655-10.907-5.82-17.522c-0.428-17.092,0.534-33.845,7.38-49.868
		c1.396-3.269,1.657-7.106,2.015-10.724c3.934-39.645,18.099-74.798,46.456-103.305c13.122-13.19,27.053-25.614,41.07-37.867
		c23.98-20.965,52.97-31.939,83.547-37.861c20.435-3.957,41.511-5.104,62.37-6.225c21.593-1.161,43.269-0.861,64.911-1.034
		c17.287-0.138,34.577-0.011,51.866-0.046C1272.66,3610.711,1275.59,3610.475,1278.688,3610.338z M2274.996,1406.003
		c-1.441-9.019,4.177-13.852,9.495-18.856c0.485-0.457,1.01-0.893,1.406-1.419c3.496-4.638,8.027-6.185,13.868-5.941
		c21.911,0.914,43.838,1.414,65.755,2.159c2.3,0.079,4.593,0.687,6.862,1.172c15.273,3.265,30.482,6.877,45.83,9.74
		c10.364,1.935,21.068,13.28,21.138,23.671c0.026,3.864,0.005,7.727,0.005,11.804c2.97,0.313,4.598,0.668,6.216,0.627
		c23.69-0.6,46.893,4.365,70.37,6.159c1.981,0.151,3.997,0.443,5.891,1.021c12.98,3.956,25.902,8.109,38.909,11.977
		c6.281,1.868,12.625,4.091,19.079,4.708c21.484,2.054,43.027,3.515,64.556,5.081c15.57,1.133,31.145,2.281,46.735,3.05
		c25.006,1.232,49.845-1.152,74.633-4.114c11.855-1.416,23.759-2.633,35.513-4.679c13.39-2.331,26.55-6.019,39.962-8.163
		c22.93-3.666,42.998-13.521,61.332-27.17c12.119-9.021,18.3-22.692,24.689-35.685c14.268-29.008,17.784-60.927,24.094-92.389
		c-2.063-0.373-3.354-0.838-4.63-0.805c-27.179,0.715-53.544-5.212-80.064-9.806c-16.131-2.793-30.231-10.103-42.424-20.812
		c-17.519-15.386-34.363-31.561-48.245-50.364c-8.523-11.544-14.485-24.173-14.229-39.484c0.247-14.765,0.492-29.208,7.442-42.676
		c0.426-0.826,0.353-1.91,0.357-1.943c-8.271-8.626-15.991-16.859-23.915-24.893c-10.977-11.131-22.157-22.062-33.155-33.172
		c-10.288-10.391-21.291-20.219-30.513-31.494c-25.229-30.846-49.884-62.167-74.395-93.59
		c-27.361-35.079-54.234-70.538-81.465-105.719c-26.826-34.659-53.874-69.146-80.703-103.801c-2.735-3.533-5.471-4.892-10.107-4.465
		c-12.235,1.124-24.539,1.523-36.813,2.239c-2.107,0.123-4.207,0.388-7.826,0.729c7.095,9.552,11.43,18.698,11.386,29.38
		c-0.057,13.997,0.053,27.996-0.037,41.992c-0.059,9.256-2.534,17.824-8.996,24.659c-8.452,8.94-16.884,17.961-26.046,26.139
		c-4.325,3.859-10.117,6.388-15.631,8.515c-6.149,2.371-12.71,3.718-19.143,5.303c-14.652,3.611-28.064,9.231-39.735,19.403
		c-19.294,16.817-38.902,33.33-59.105,49.035c-41.088,31.938-83.934,61.146-133.036,79.77c-6.389,2.424-11.776,5.875-16.432,10.861
		c-10.698,11.457-22.081,22.128-35.894,29.896c-4.241,2.385-8.241,5.196-12.38,7.83c4.337,5.797,8.503,10.548,11.756,15.858
		c14.13,23.067,22.763,48.115,23.89,75.184c0.866,20.816,0.173,41.696,0.173,63.021c3.507,0.495,7.077,1.075,10.665,1.494
		c11.547,1.348,23.149,2.296,34.64,4.015c27.89,4.177,53.573,15.586,79.842,25.026c10.319,3.709,20.471,7.892,30.688,11.886
		c9.417,3.682,15.112,11.81,21.767,18.695c1.614,1.669,2.164,4.891,2.241,7.429c0.267,8.657,0.37,17.34-0.038,25.986
		c-0.148,3.147-1.215,6.72-3.043,9.245c-12.279,16.966-24.782,33.773-37.426,50.469c-4.077,5.383-8.799,10.279-14.338,16.683
		C2223.562,1393.22,2248.851,1399.505,2274.996,1406.003z M2318.219,654.674c-8.955,9.321-18.813,19.584-29.107,30.301
		c14.18,6.673,28.358,3.153,42.875,5.062C2326.991,677.206,2322.519,665.716,2318.219,654.674z M2332.353,582.65
		c2.254-2.542,3.703-4.178,5.441-6.139c-1.75-2.04-3.335-3.888-6.452-7.521C2331.762,574.667,2332.009,578.008,2332.353,582.65z"/>
	<path fill-rule="evenodd" fill="#FFFFFF" d="M2274.996,1406.003c-26.146-6.498-51.435-12.783-78.58-19.53
		c5.539-6.404,10.261-11.299,14.338-16.683c12.644-16.696,25.146-33.503,37.426-50.469c1.828-2.525,2.895-6.098,3.043-9.245
		c0.408-8.646,0.305-17.329,0.038-25.986c-0.077-2.538-0.627-5.759-2.241-7.429c-6.654-6.885-12.35-15.013-21.767-18.695
		c-10.217-3.995-20.368-8.177-30.688-11.886c-26.269-9.44-51.952-20.849-79.842-25.026c-11.49-1.719-23.093-2.667-34.64-4.015
		c-3.588-0.419-7.158-0.999-10.665-1.494c0-21.326,0.693-42.206-0.173-63.021c-1.127-27.069-9.76-52.117-23.89-75.184
		c-3.253-5.311-7.419-10.061-11.756-15.858c4.139-2.634,8.139-5.445,12.38-7.83c13.813-7.768,25.195-18.439,35.894-29.896
		c4.655-4.986,10.043-8.438,16.432-10.861c49.103-18.625,91.948-47.832,133.036-79.77c20.203-15.705,39.812-32.218,59.105-49.035
		c11.671-10.172,25.083-15.792,39.735-19.403c6.433-1.584,12.993-2.932,19.143-5.303c5.514-2.127,11.306-4.656,15.631-8.515
		c9.162-8.178,17.594-17.199,26.046-26.139c6.462-6.835,8.938-15.403,8.996-24.659c0.09-13.996-0.02-27.995,0.037-41.992
		c0.044-10.683-4.291-19.829-11.386-29.38c3.619-0.341,5.719-0.606,7.826-0.729c12.274-0.716,24.578-1.115,36.813-2.239
		c4.637-0.427,7.372,0.933,10.107,4.465c26.829,34.656,53.877,69.143,80.703,103.801c27.23,35.181,54.104,70.641,81.465,105.719
		c24.511,31.423,49.166,62.744,74.395,93.59c9.222,11.275,20.225,21.103,30.513,31.494c10.998,11.11,22.179,22.041,33.155,33.172
		c7.924,8.034,15.644,16.267,23.915,24.893c-0.005,0.033,0.068,1.117-0.357,1.943c-6.95,13.469-7.195,27.912-7.442,42.676
		c-0.257,15.312,5.705,27.94,14.229,39.484c13.882,18.803,30.727,34.978,48.245,50.364c12.192,10.708,26.293,18.018,42.424,20.812
		c26.521,4.594,52.886,10.521,80.064,9.806c1.276-0.033,2.566,0.432,4.63,0.805c-6.31,31.462-9.826,63.381-24.094,92.389
		c-6.39,12.993-12.57,26.664-24.689,35.685c-18.334,13.649-38.402,23.505-61.332,27.17c-13.412,2.145-26.572,5.833-39.962,8.163
		c-11.754,2.046-23.657,3.263-35.513,4.679c-24.788,2.961-49.627,5.346-74.633,4.114c-15.591-0.769-31.165-1.917-46.735-3.05
		c-21.528-1.566-43.071-3.027-64.556-5.081c-6.454-0.616-12.798-2.84-19.079-4.708c-13.007-3.868-25.929-8.021-38.909-11.977
		c-1.894-0.577-3.909-0.869-5.891-1.021c-23.478-1.794-46.68-6.759-70.37-6.159c-1.618,0.041-3.246-0.314-6.216-0.627
		c0-4.078,0.021-7.94-0.005-11.804c-0.069-10.391-10.773-21.736-21.138-23.671c-15.348-2.863-30.557-6.475-45.83-9.74
		c-2.27-0.485-4.563-1.093-6.862-1.172c-21.917-0.745-43.844-1.245-65.755-2.159c-5.841-0.244-10.372,1.303-13.868,5.941
		c-0.396,0.526-0.921,0.962-1.406,1.419C2279.173,1392.151,2273.555,1396.984,2274.996,1406.003z"/>
	<path fill-rule="evenodd" fill="#FFFFFF" d="M2318.219,654.674c4.3,11.042,8.772,22.532,13.768,35.363
		c-14.517-1.909-28.695,1.611-42.875-5.062C2299.406,674.258,2309.264,663.995,2318.219,654.674z"/>
	<path fill-rule="evenodd" fill="#FFFFFF" d="M2332.353,582.65c-0.344-4.642-0.591-7.983-1.011-13.661
		c3.117,3.633,4.702,5.482,6.452,7.521C2336.056,578.472,2334.606,580.107,2332.353,582.65z"/>
</g>
</svg>
