<?xml version="1.0" encoding="utf-8"?>
<!-- Generator: Adobe Illustrator 16.0.2, SVG Export Plug-In . SVG Version: 6.00 Build 0)  -->
<!DOCTYPE svg PUBLIC "-//W3C//DTD SVG 1.1//EN" "http://www.w3.org/Graphics/SVG/1.1/DTD/svg11.dtd">
<svg version="1.1" id="Layer_1" xmlns="http://www.w3.org/2000/svg" xmlns:xlink="http://www.w3.org/1999/xlink" x="0px" y="0px"
	 width="1137.362px" height="1141.882px" viewBox="0 0 1137.362 1141.882" enable-background="new 0 0 1137.362 1141.882"
	 xml:space="preserve">
<g>
	<path fill-rule="evenodd" clip-rule="evenodd" fill="#FFFFFF" d="M968.642,11.96c56.64,0,113.28,0,169.92,0
		c0,376.961,0,753.921,0,1130.882c-379.2,0-758.401,0-1137.602,0c0-376.961,0-753.921,0-1130.882c312,0,624.001,0,936.002,0
		c-0.386,0.509-0.722,1.065-1.163,1.52c-9.28,9.526-13.745,21.37-16.381,34.081c-0.481,2.322-0.768,4.684-1.168,7.183
		c-3.02,1.276-5.931,2.507-9.01,3.809c-1.812-2.253-4.124-2.436-6.592-2.375c-6.163,0.152-4.768-0.569-8.714,3.592
		c-1.328,1.4-2.744,2.09-4.709,1.77c-2.035-3.777-4.743-6.829-9.165-7.691c-1.855-0.362-3.782-0.354-5.676-0.528
		c-2.244-0.207-4.098,0.64-5.58,2.234c-1.955,2.102-3.945,4.193-5.687,6.467c-3.431,4.484-7.229,8.515-12.159,11.394
		c-8.503,4.965-17.584,8.4-27.229,10.314c-1.54,0.306-3.204,0.3-4.767,0.098c-2.688-0.348-5.342-0.971-8.012-1.463
		c-1.606-0.297-2.963-1.035-4.299-1.983c-2.737-1.939-5.496-3.884-8.417-5.52c-8.7-4.871-10.597-5.299-19.066-5.008
		c-0.159,0.005-0.32,0.012-0.479,0.004c-4.003-0.211-6.584,1.927-8.495,5.157c-1.94,3.28-1.028,6.837-0.938,10.306
		c0.011,0.419,0.369,0.902,0.694,1.23c2.354,2.377,4.56,4.95,7.161,7.023c4.121,3.283,8.56,6.164,12.772,9.336
		c1.773,1.335,3.455,2.854,4.929,4.512c2.634,2.963,4.971,6.19,7.621,9.136c6.624,7.364,11.398,15.745,14.475,25.15
		c2.3,7.029,3.498,14.242,4.396,21.565c0.962,7.837-0.836,15.189-2.698,22.557c-0.61,0-0.974,0.111-1.202-0.017
		c-3.77-2.106-7.766-0.957-11.686-0.831c-0.297,0.009-0.627,0.183-0.873,0.371c-3.257,2.481-6.044,5.293-6.183,9.731
		c-0.08,2.557,0.012,5.12-0.019,7.679c-0.028,2.353,0.717,4.414,2.296,6.135c2.485,2.709,4.967,5.426,7.551,8.039
		c1.992,2.013,4.515,2.938,7.351,3.054c4.811,0.196,9.587-0.195,14.353-0.783c2.445-0.302,4.65-1.247,6.486-2.87
		c4.211-3.726,8.1-7.68,10.304-13.051c1.45-3.531,3.343-6.878,4.969-10.34c0.4-0.853,0.578-1.821,0.78-2.752
		c1.356-6.249,2.005-12.579,1.992-20.178c0.771,1.879,1.147,2.671,1.389,3.589c0.931,3.551,1.849,7.108,2.923,10.618
		c0.982,3.205,2.18,6.344,3.246,9.524c1.83,5.454,3.672,10.904,5.426,16.383c0.851,2.654,2.219,4.931,4.179,6.898
		c0.97,0.974,1.832,2.055,2.928,3.297c-2.67,1.18-5.19,1.874-7.197,3.294c-2.182,1.544-4.157,3.568-5.72,5.744
		c-1.45,2.018-2.237,4.512-3.373,6.915c-4.216,0.701-7.438,3.249-10.418,6.235c-2.398,2.403-4.986,4.926-5.571,8.238
		c-1.136,6.44-1.618,12.997,0.736,19.368c0.11,0.297,0.305,0.563,0.431,0.856c0.87,2.029,2.395,3.799,2.281,6.227
		c-0.024,0.531,0.52,1.132,0.897,1.629c0.773,1.018,1.606,1.99,2.424,2.973c4.016,4.829,8.361,9.222,14.238,11.867
		c1.816,0.817,3.728,1.73,5.141,3.375c-1.493,2.318-3.161,4.321-4.157,6.616c-1,2.305-1.231,4.931-1.98,7.36
		c-0.906,2.947-1.334,5.938-1.112,8.993c0.22,3.025,0.624,6.036,0.924,9.056c0.25,2.52,0.465,5.043,0.674,7.333
		c-0.679,0.771-1.111,1.238-1.518,1.727c-2.658,3.198-5.344,6.373-7.957,9.606c-6.494,8.036-11.384,16.971-14.923,26.671
		c-0.65,1.784-1.574,3.477-2.465,5.163c-0.698,1.321-1.803,2.161-3.319,2.52c-4.198,0.995-8.338,2.304-12.577,3.054
		c-8.813,1.559-17.672,2.872-26.521,4.223c-12.724,1.943-25.005,5.315-36.562,11.09c-11.305,5.649-22.52,11.475-32.984,18.591
		c-2.831,1.926-5.488,2.271-8.521,0.962c-1.762-0.761-3.531-1.505-5.316-2.206c-2.23-0.876-4.452-1.79-6.729-2.53
		c-9.846-3.204-19.711-6.35-29.782-9.586c-0.231-2.525-0.457-5.216-0.729-7.902c-0.603-5.938-2.769-11.094-7.333-15.156
		c-2.047-1.822-4.092-3.631-6.625-4.678c-2.279-0.942-3.412-2.61-4.263-4.826c-1.544-4.022-3.007-8.137-5.112-11.87
		c-4.949-8.773-10.258-17.344-17.286-24.686c-0.198-0.207-0.255-0.548-0.445-0.979c0.33-0.436,0.633-1.023,1.098-1.422
		c3.029-2.6,3.902-5.933,4.059-9.829c0.245-6.102-1.868-11.625-3.502-17.286c-0.171-0.595-0.5-1.207-0.921-1.657
		c-2.505-2.686-5.012-5.279-8.507-6.862c-3.66-1.657-7.395-1.804-11.25-1.739c-3.51,0.059-7.021,0.013-10.629,0.013
		c-0.38-0.449-0.834-0.899-1.188-1.418c-5.638-8.246-12.336-15.469-20.202-21.67c-3.423-2.699-7.112-4.2-11.38-4.473
		c-8.474-0.542-16.953-0.478-25.412,0.141c-6.363,0.465-12.328,2.501-17.091,6.795c-5.335,4.81-10.571,9.79-14.685,15.772
		c-1.169,1.701-2.322,3.414-3.54,5.205c-1.314,0.07-2.583,0.256-3.84,0.187c-5.684-0.315-11.137,0.799-16.472,2.603
		c-1.022,0.346-2.123,0.871-2.84,1.639c-2.503,2.682-4.949,5.433-7.231,8.304c-1.517,1.909-2.254,4.235-2.264,6.709
		c-0.016,3.831-0.243,7.666,0.739,11.451c0.869,3.351,1.546,6.752,2.313,10.151c-1.763,1.995-3.876,3.831-5.277,6.105
		c-1.947,3.162-4.28,5.974-6.653,8.774c-2.326,2.745-3.776,5.857-4.694,9.332c-0.727,2.75-1.875,5.387-2.903,8.263
		c-2.793-0.007-4.711,1.518-6.467,3.117c-3.662,3.336-7.437,6.614-10.654,10.354c-3.033,3.525-5.042,7.671-4.885,12.668
		c0.146,4.639,0.161,9.271,0.89,13.867c0.168,1.064,0.279,2.137,0.448,3.449c-2.298,0.407-4.31,0.688-6.374,0.779
		c-3.993,0.178-8.001,0.286-11.967,0.739c-12.081,1.38-24.076,3.35-35.869,6.332c-6.654,1.683-13.319,3.463-19.77,5.782
		c-9.086,3.267-17.308,8.276-24.861,14.273c-3.873,3.075-7.582,6.397-11.087,9.886c-6.018,5.989-12.247,11.712-18.97,16.906
		c-3.416,2.64-6.766,5.376-10.012,8.222c-5.543,4.858-10.772,10.045-14.989,16.131c-4.369,6.309-8.611,12.705-12.911,19.062
		c-2.257,3.337-3.956,6.948-5.122,10.795c-1.627,5.371-3.773,10.528-6.195,15.582c-2.499,5.214-4.209,10.701-5.532,16.317
		c-1.649,7-3.009,14.084-5.028,20.975c-3.184,10.867-4.583,21.879-3.993,33.162c0.142,2.713,0.172,5.456,0.612,8.125
		c2.711,16.451,7.015,32.481,12.925,48.079c2.565,6.77,5.895,13.113,10.18,18.956c0.641,0.872,1.128,1.856,1.621,2.679
		c-0.296,0.689-0.445,1.146-0.676,1.559c-3.685,6.57-5.623,13.554-5.119,21.144c0.106,1.594-0.349,3.094-0.756,4.657
		c-1.014,3.901-1.192,7.979,0.552,11.731c2.159,4.642,4.82,8.987,8.694,12.5c2.251,2.041,4.74,3.178,7.785,3.133
		c5.586-0.082,11.174-0.128,16.753,0.22c3.632,0.227,7.009-0.273,9.839-3.286c3.951,2.605,7.778,5.128,11.611,7.656
		c-0.146,0.923-0.089,1.624-0.368,2.146c-2.514,4.702-2.486,9.8-2.701,14.939c-0.186,4.429,1.129,8.154,3.687,11.601
		c0.474,0.638,0.912,1.302,1.383,1.979c-1.104,4.396-1.731,8.8-1.53,13.296c0.154,3.417,0.695,6.812,3.087,9.372
		c2.718,2.909,5.498,5.913,8.76,8.125c5.676,3.848,11.703,7.186,17.655,10.613c6.162,3.549,12.857,3.465,19.567,2.293
		c4.999-0.873,9.299-3.263,12.857-6.949c0.723-0.748,1.668-1.28,2.688-2.045c0.366,1.107,0.623,1.859,0.863,2.616
		c3.624,11.411,8.848,21.915,17.204,30.684c0.724,0.76,1.175,1.861,1.515,2.884c0.452,1.358,0.709,2.787,0.981,4.199
		c1.664,8.632,3.158,17.3,4.999,25.893c2.077,9.697,4.018,19.405,5.322,29.242c0.692,5.227,1.497,10.45,2.545,15.615
		c1.881,9.271,2.9,18.631,3.497,28.056c0.354,5.584,0.648,11.179,1.244,16.739c0.873,8.149,0.779,16.289,0.182,24.431
		c-0.89,12.158-0.801,24.312,0.762,36.386c0.527,4.07-0.473,7.813-0.461,11.8c-3.793,0-7.278-0.036-10.762,0.012
		c-2.49,0.034-4.668,0.919-6.526,2.614c-3.568,3.258-6.626,6.933-9.119,11.069c-1.594,2.645-2.715,5.413-2.384,8.619
		c0.111,1.075-0.112,2.186-0.146,2.71c-2.492,2.338-4.656,4.229-6.656,6.279c-3.009,3.088-4.987,6.628-4.336,11.182
		c0.134,0.941-0.07,1.934,0.075,2.873c0.438,2.839,0.767,5.812,2.693,8.07c2.708,3.176,5.773,5.894,9.904,7.307
		c6.179,2.114,12.283,4.455,18.372,6.821c4.463,1.734,8.887,3.585,13.26,5.538c2.802,1.25,5.691,2.094,8.685,2.663
		c4.257,0.811,8.55,1.132,12.883,1.118c4.317-0.014,8.636,0.073,12.952,0.168c9.29,0.203,18.558-0.154,27.753-1.48
		c2.648-0.382,5.227-1.404,7.77-2.321c2.853-1.027,5.621-2.286,8.438-3.414c9.548-3.82,18.678-8.346,26.479-15.227
		c2.274-2.006,4.718-3.834,7.18-5.61c3.269-2.358,6.038-5.212,8.77-8.145c2.055-2.206,3.188-4.775,3.652-7.664
		c0.406-2.524,0.803-5.07,0.904-7.618c0.241-6.062,0.654-12.138-1.244-18.081c-0.67-2.1-0.917-4.334-1.376-6.604
		c1.807-1.093,3.41-2.063,5.088-3.078c0.621,0.476,1.216,0.776,1.598,1.248c2.852,3.535,6.662,4.767,11.037,4.741
		c1.599-0.009,3.197,0.088,4.796,0.104c1.884,0.019,3.769,0.004,5.726,0.004c0.441,4.489,3.13,7.401,6.027,10.245
		c2.412,2.368,5.235,3.689,8.566,3.737c5.088,0.072,10.258,0.686,15.037-1.919c1.088,0.617,2.207,0.996,2.98,1.735
		c2.755,2.633,6.107,3.317,9.725,3.316c1.28-0.001,2.566-0.079,3.838,0.021c3.093,0.245,5.614-0.882,7.798-2.984
		c1.013-0.975,2.086-1.887,3.23-2.917c1.257,1.152,2.294,2.135,3.363,3.081c2.911,2.575,6.172,4.616,9.911,5.681
		c9.551,2.717,19.22,4.649,29.197,5.22c14.73,0.841,28.556-2.553,42.042-7.98c0.887-0.356,1.717-0.854,2.573-1.285
		c0.962-0.485,1.925-0.97,2.798-1.409c0.607,0.47,1.016,0.731,1.358,1.06c4.034,3.854,8.847,5.534,14.405,5.394
		c2.226-0.057,4.468,0.196,6.692,0.413c6.266,0.61,12.433,0.591,18.378-1.969c2.045-0.881,4.216-1.572,6.397-2.013
		c4.117-0.831,7.946-2.358,11.723-4.133c6.968-3.274,14.191-5.788,21.767-7.311c6.423-1.291,12.805-2.783,19.189-4.254
		c1.546-0.356,3.22-0.693,4.498-1.544c2.009-1.337,4.093-1.63,6.368-1.522c1.117,0.054,2.239,0.019,3.359-0.003
		c2.496-0.046,4.729-0.813,6.499-2.619c3.244-3.308,6.602-6.521,9.618-10.028c2.297-2.669,3.932-5.815,4.212-9.48
		c0.048-0.623,0.084-1.36,0.423-1.831c2.2-3.06,2.668-6.844,4.313-10.106c1.569-3.113,2.12-6.309,1.983-9.733
		c-0.096-2.399-0.231-4.728-0.97-7.077c-1.171-3.727-1.238-7.433,0.689-11.134c1.083-2.079,1.775-4.519,1.995-6.857
		c0.478-5.08,0.664-10.198,0.733-15.305c0.065-4.773-4.232-9.009-9.054-9.323c-2.707-0.178-5.42-0.375-8.107-0.734
		c-7.1-0.95-13.609,0.064-19.435,4.692c-3.493,2.775-7.383,5.048-10.504,8.307c-0.188,0.195-0.591,0.184-1.069,0.318
		c-2.094-1.802-4.289-3.645-6.43-5.548c-1.685-1.496-2.935-3.237-3.817-5.404c-2.118-5.198-4.851-10.072-8.64-14.304
		c-1.272-1.422-2.556-2.946-3.373-4.645c-3.74-7.776-8.732-14.911-11.748-23.061c-0.717-1.938-1.683-3.809-2.737-5.589
		c-3.991-6.738-7.891-13.542-12.155-20.104c-5.287-8.136-8.95-16.948-11.565-26.207c-1.431-5.067-2.319-10.288-3.476-15.435
		c-2.242-9.98-4.419-19.977-6.778-29.929c-2.213-9.33-4.64-18.609-6.935-27.919c-0.264-1.066-0.64-2.293-0.358-3.271
		c1-3.475,0.624-6.996,0.644-10.497c0.012-2.198,0.608-3.981,2.147-5.62c3.867-4.118,6.713-8.965,9.138-14.018
		c3.285-6.85,5.181-14.091,5.216-21.743c0.022-4.96,0.065-9.921-0.029-14.879c-0.033-1.736-0.184-3.558-0.745-5.179
		c-1.496-4.327-2.164-8.991-5.224-12.599c0.46-0.804,0.753-1.366,1.093-1.899c9.055-14.198,16.305-29.324,22.968-44.749
		c0.821-1.9,1.438-3.896,2.053-5.878c2.606-8.391,5.151-16.8,7.77-25.186c1.339-4.287,2.271-8.649,2.834-13.101
		c0.259-2.045,0.586-4.082,0.819-5.688c1.724-1.829,3.496-2.473,5.364-3.021c7.84-2.299,15.43-5.277,22.804-8.774
		c9.678-4.589,19.374-9.153,28.896-14.051c7.111-3.657,13.851-7.979,20.002-13.161c6.141-5.172,11.659-10.932,16.734-17.14
		c7.591-9.286,15.185-18.57,22.856-27.789c5.524-6.638,11.005-13.325,16.81-19.712c12.055-13.264,24.075-26.537,33.937-41.584
		c0.437-0.667,0.984-1.261,1.452-1.909c6.129-8.494,10.953-17.611,13.823-27.759c1.244-4.397,2.295-8.904,4.51-12.991
		c-0.783,5.717-0.907,11.439,0.173,17.139c0.236,1.243,0.391,2.664,1.097,3.626c2.561,3.492,5.501,6.592,9.56,8.487
		c3.203,1.495,6.542,1.278,9.883,1.25c8.003-0.069,14.989-2.364,20.496-8.633c2.253-2.564,3.609-5.205,3.679-8.539
		c0.054-2.557,0.038-5.115,0.02-7.673c-0.063-8.36-4.627-14.5-12.542-17.343c-4.214-1.514-8.531-0.883-12.799-1.272
		c-3.642-0.333-6.161,2.536-9.546,2.774c-0.714,0.05-1.385,0.736-2.072,1.136c-0.138,0.08-0.267,0.179-0.386,0.285
		c-2.382,2.135-4.764,4.26-6.263,7.181c-0.339,0.661-0.97,1.172-1.466,1.752c0.5-2.989,1.112-5.964,1.469-8.97
		c0.371-3.129,0.494-6.287,0.745-9.693c4.528,1.347,8.836,1.16,13.13,1.165c2.561,0.002,5.121,0.037,7.68-0.013
		c1.917-0.037,3.851-0.057,5.743-0.326c1.556-0.221,3.179-0.515,4.354-1.785c2.821-3.05,5.748-6.01,8.438-9.172
		c2.02-2.374,3.05-5.205,2.79-8.435c-0.128-1.589-0.104-3.203-0.006-4.797c0.293-4.794-1.703-8.707-4.652-12.238
		c-1.022-1.223-2.249-2.273-3.351-3.433c-2.043-2.151-4.46-3.582-7.409-4.133c-0.86-0.161-1.667-0.618-2.39-0.897
		c0.328-2.065,0.788-3.772,0.835-5.491c0.113-4.156,0.058-8.318,0.024-12.478c-0.032-3.916-0.974-7.629-2.987-10.984
		c-2.53-4.216-5.623-7.776-11.012-8.255c-0.752-0.066-1.479-0.4-2.33-0.643c0.513-2.707,1.648-4.416,4.272-5.384
		c5.041-1.86,9.37-5.016,12.652-9.223c2.531-3.245,4.946-6.794,6.427-10.592c1.845-4.736,2.232-9.872,2.333-15.062
		c0.146-7.55-2.087-13.805-7.792-18.769c-1.27-1.104-2.001-2.416-2.099-4.13c-0.153-2.709-0.437-5.411-0.604-8.12
		c-0.078-1.275,0.028-2.561-0.024-3.839c-0.06-1.431-0.043-2.896-0.36-4.277c-0.256-1.114-0.959-2.125-1.741-3.763
		c2.482,0.646,4.281,1.218,6.121,1.577c11.149,2.176,22.204,3.054,32.706-2.698c0.417-0.228,0.881-0.555,1.313-0.54
		c3.811,0.13,6.407-3.639,10.324-3.189c0.384,0.044,0.864-0.376,1.236-0.663c2.738-2.109,5.107-4.409,4.399-8.358
		c-0.14-0.776-0.061-1.598-0.023-2.396c0.081-1.71-0.585-3.134-1.707-4.342c-1.849-1.99-3.753-3.871-6.268-5.118
		c-5.379-2.667-9.931-6.407-13.521-11.249c-2.285-3.081-4.458-6.246-6.761-9.314c-4.355-5.803-6.431-12.458-7.341-19.531
		c-0.817-6.348,0.991-12.29,2.745-18.247c2.474-0.508,4.672-0.887,6.834-1.417c5.651-1.385,11.045-3.311,15.18-7.701
		c1.534-1.629,3.227-3.14,4.571-4.914c4.191-5.531,7.831-11.164,6.995-18.77c-0.419-3.812-1.401-7.279-3.41-10.314
		c-2.139-3.23-4.954-5.695-9.475-5.382c-4.133,0.286-8.31-0.057-12.467-0.113c-3.709-0.05-6.857,1.303-9.532,3.833
		c-3.378,3.194-6.558,6.567-9.224,10.39c-1.28,1.836-2.578,3.669-3.7,5.602c-0.803,1.382-1.838,2.143-3.412,2.244
		c-5.266,0.337-10.513,0.748-15.774-0.275c-13.293-2.584-25.116-8.321-35.872-16.425c-3.82-2.877-6.473-6.655-8.143-11.052
		c-1.758-4.627-3.242-9.36-4.765-14.074c-0.582-1.804-0.938-3.682-1.55-6.142c0.616-0.385,1.427-0.691,1.962-1.257
		c3.953-4.18,7.991-8.292,11.733-12.658c4.803-5.604,8.679-11.839,11.992-18.458C972.247,30.878,972.953,17.849,968.642,11.96z
		 M974.029,508.01c-7.04-1.16-13.442-0.77-19.827-0.705c-3.854,0.039-7.628,0.766-11.198,2.337
		c-9.883,4.349-18.922,10.149-27.062,17.132c-6.414,5.503-12.167,11.778-17.616,18.3c-8.727,10.444-12.868,22.667-14.362,35.957
		c-0.681,6.051-0.46,12.111-0.116,18.188c0.497,8.781,2.566,17.09,7.088,24.639c3.447,5.753,7.001,11.478,10.964,16.88
		c7.766,10.586,16.511,20.358,25.854,29.59c3.696,3.653,7.918,6.485,12.817,8.216c4.518,1.595,9.076,3.08,13.64,4.543
		c9.048,2.9,18.272,4.707,27.831,4.021c4.297-0.309,8.583-0.808,12.866-1.282c9.75-1.081,18.492-4.789,26.59-10.209
		c8.9-5.959,17.851-11.845,26.758-17.794c2.126-1.419,4.363-2.752,6.218-4.48c12.499-11.65,19.521-25.909,20.033-43.135
		c0.133-4.475,0.101-8.958-0.003-13.435c-0.114-4.954-0.095-9.979-1.557-14.747c-2.2-7.175-4.745-14.245-7.133-21.364
		c-0.979-2.918-2.674-5.421-4.381-7.947c-2.144-3.17-4.098-6.468-6.15-9.699c-1.282-2.018-2.373-4.213-3.938-5.987
		c-6.486-7.36-14.501-12.405-23.871-15.357c-2.728-0.859-5.391-1.972-7.996-3.158c-2.627-1.195-5.22-2.414-8.1-2.881
		c-0.628-0.102-1.252-0.279-1.85-0.499c-0.661-0.242-1.664,0.093-1.912-1.18c0.306-0.437,0.632-0.971,1.023-1.451
		c2.331-2.855,3.294-6.159,3.276-9.798c-0.011-2.399-0.115-4.806,0.031-7.196c0.16-2.608-0.781-4.637-2.607-6.404
		c-1.115-1.08-2.112-2.282-3.303-3.581c1.267-1.106,2.365-2.013,3.403-2.983c2.569-2.4,5.154-4.787,7.646-7.268
		c1.244-1.239,2.361-2.64,2.465-4.535c0.218-3.987,0.486-7.973,0.607-11.963c0.069-2.277-0.347-4.568-2.067-6.196
		c-2.431-2.299-4.976-4.495-7.621-6.541c-1.652-1.277-3.67-1.949-5.814-1.982c-3.837-0.058-7.674-0.112-11.511-0.119
		c-1.81-0.003-3.51,0.477-4.844,1.764c-3.335,3.217-6.682,6.425-9.926,9.732c-1.986,2.025-2.822,4.629-2.897,7.427
		c-0.078,2.877-0.132,5.764,0.022,8.635c0.184,3.442,1.232,6.54,3.981,8.934c0.998,0.869,2.44,1.62,2.339,3.456
		c-0.708,0.581-1.439,1.196-2.187,1.792c-4.286,3.418-6.656,7.66-5.927,13.333c0.183,1.417,0.004,2.877,0.048,4.315
		C973.798,504.717,973.914,506.108,974.029,508.01z"/>
	<path fill-rule="evenodd" clip-rule="evenodd" d="M968.642,11.96c4.312,5.889,3.605,18.918,0.575,24.97
		c-3.313,6.618-7.189,12.854-11.992,18.458c-3.742,4.365-7.78,8.478-11.733,12.658c-0.535,0.566-1.346,0.872-1.962,1.257
		c0.612,2.46,0.968,4.338,1.55,6.142c1.522,4.714,3.007,9.447,4.765,14.074c1.67,4.396,4.322,8.174,8.143,11.052
		c10.756,8.104,22.579,13.84,35.872,16.425c5.262,1.023,10.509,0.612,15.774,0.275c1.574-0.101,2.609-0.861,3.412-2.244
		c1.122-1.933,2.42-3.766,3.7-5.602c2.666-3.823,5.846-7.196,9.224-10.39c2.675-2.53,5.823-3.883,9.532-3.833
		c4.157,0.056,8.334,0.399,12.467,0.113c4.521-0.313,7.336,2.152,9.475,5.382c2.009,3.035,2.991,6.502,3.41,10.314
		c0.836,7.605-2.804,13.238-6.995,18.77c-1.345,1.774-3.037,3.285-4.571,4.914c-4.135,4.391-9.528,6.316-15.18,7.701
		c-2.162,0.529-4.36,0.909-6.834,1.417c-1.754,5.957-3.563,11.898-2.745,18.247c0.91,7.074,2.985,13.729,7.341,19.531
		c2.303,3.068,4.476,6.233,6.761,9.314c3.59,4.841,8.142,8.581,13.521,11.249c2.515,1.248,4.419,3.128,6.268,5.118
		c1.122,1.208,1.788,2.632,1.707,4.342c-0.037,0.798-0.116,1.62,0.023,2.396c0.708,3.95-1.661,6.249-4.399,8.358
		c-0.372,0.287-0.853,0.707-1.236,0.663c-3.917-0.449-6.514,3.319-10.324,3.189c-0.433-0.015-0.896,0.312-1.313,0.54
		c-10.502,5.752-21.557,4.875-32.706,2.698c-1.84-0.359-3.639-0.931-6.121-1.577c0.782,1.638,1.485,2.649,1.741,3.763
		c0.317,1.381,0.301,2.846,0.36,4.277c0.053,1.278-0.054,2.563,0.024,3.839c0.167,2.708,0.45,5.411,0.604,8.12
		c0.098,1.714,0.829,3.026,2.099,4.13c5.705,4.963,7.938,11.219,7.792,18.769c-0.101,5.19-0.488,10.326-2.333,15.062
		c-1.48,3.798-3.896,7.347-6.427,10.592c-3.282,4.207-7.611,7.362-12.652,9.223c-2.624,0.968-3.76,2.677-4.272,5.384
		c0.851,0.242,1.578,0.576,2.33,0.643c5.389,0.479,8.481,4.04,11.012,8.255c2.014,3.355,2.955,7.068,2.987,10.984
		c0.033,4.16,0.089,8.322-0.024,12.478c-0.047,1.719-0.507,3.426-0.835,5.491c0.723,0.279,1.529,0.736,2.39,0.897
		c2.949,0.551,5.366,1.981,7.409,4.133c1.102,1.16,2.328,2.21,3.351,3.433c2.949,3.531,4.945,7.444,4.652,12.238
		c-0.098,1.594-0.122,3.208,0.006,4.797c0.26,3.229-0.771,6.061-2.79,8.435c-2.689,3.162-5.616,6.122-8.438,9.172
		c-1.175,1.27-2.798,1.563-4.354,1.785c-1.893,0.269-3.826,0.289-5.743,0.326c-2.559,0.05-5.119,0.016-7.68,0.013
		c-4.294-0.005-8.602,0.182-13.13-1.165c-0.251,3.406-0.374,6.564-0.745,9.693c-0.356,3.006-0.969,5.981-1.469,8.97l0.162-0.164
		c-2.21,4.081-3.261,8.588-4.505,12.985c-2.87,10.148-7.694,19.265-13.823,27.759c-0.468,0.648-1.016,1.242-1.452,1.909
		c-9.861,15.047-21.882,28.32-33.937,41.584c-5.805,6.388-11.285,13.075-16.81,19.712c-7.672,9.218-15.266,18.502-22.856,27.789
		c-5.075,6.208-10.594,11.968-16.734,17.14c-6.151,5.181-12.891,9.503-20.002,13.161c-9.522,4.897-19.219,9.462-28.896,14.051
		c-7.374,3.497-14.964,6.476-22.804,8.774c-1.868,0.548-3.641,1.191-5.364,3.021c-0.233,1.605-0.561,3.643-0.819,5.688
		c-0.563,4.451-1.495,8.813-2.834,13.101c-2.618,8.386-5.163,16.795-7.77,25.186c-0.615,1.981-1.231,3.978-2.053,5.878
		c-6.663,15.425-13.913,30.551-22.968,44.749c-0.34,0.533-0.633,1.096-1.093,1.899c3.06,3.607,3.728,8.271,5.224,12.599
		c0.562,1.621,0.712,3.442,0.745,5.179c0.095,4.958,0.052,9.919,0.029,14.879c-0.035,7.652-1.931,14.894-5.216,21.743
		c-2.425,5.053-5.271,9.899-9.138,14.018c-1.539,1.639-2.136,3.422-2.147,5.62c-0.02,3.501,0.356,7.022-0.644,10.497
		c-0.281,0.979,0.095,2.205,0.358,3.271c2.295,9.31,4.722,18.589,6.935,27.919c2.359,9.952,4.536,19.948,6.778,29.929
		c1.156,5.146,2.045,10.367,3.476,15.435c2.615,9.259,6.278,18.071,11.565,26.207c4.265,6.563,8.164,13.366,12.155,20.104
		c1.055,1.78,2.021,3.651,2.737,5.589c3.016,8.149,8.008,15.284,11.748,23.061c0.817,1.698,2.101,3.223,3.373,4.645
		c3.789,4.231,6.521,9.105,8.64,14.304c0.883,2.167,2.133,3.908,3.817,5.404c2.141,1.903,4.336,3.746,6.43,5.548
		c0.479-0.135,0.882-0.123,1.069-0.318c3.121-3.259,7.011-5.531,10.504-8.307c5.825-4.628,12.335-5.643,19.435-4.692
		c2.688,0.359,5.4,0.557,8.107,0.734c4.821,0.314,9.119,4.55,9.054,9.323c-0.069,5.106-0.256,10.225-0.733,15.305
		c-0.22,2.339-0.912,4.778-1.995,6.857c-1.928,3.701-1.86,7.407-0.689,11.134c0.738,2.35,0.874,4.678,0.97,7.077
		c0.137,3.425-0.414,6.62-1.983,9.733c-1.646,3.263-2.113,7.047-4.313,10.106c-0.339,0.471-0.375,1.208-0.423,1.831
		c-0.28,3.665-1.915,6.812-4.212,9.48c-3.017,3.507-6.374,6.721-9.618,10.028c-1.771,1.806-4.003,2.573-6.499,2.619
		c-1.12,0.021-2.242,0.057-3.359,0.003c-2.275-0.107-4.359,0.186-6.368,1.522c-1.278,0.851-2.952,1.188-4.498,1.544
		c-6.385,1.471-12.767,2.963-19.189,4.254c-7.575,1.522-14.799,4.036-21.767,7.311c-3.776,1.774-7.605,3.302-11.723,4.133
		c-2.182,0.44-4.353,1.132-6.397,2.013c-5.945,2.56-12.112,2.579-18.378,1.969c-2.225-0.217-4.467-0.47-6.692-0.413
		c-5.559,0.141-10.371-1.539-14.405-5.394c-0.343-0.328-0.751-0.59-1.358-1.06c-0.873,0.439-1.836,0.924-2.798,1.409
		c-0.856,0.431-1.687,0.929-2.573,1.285c-13.486,5.428-27.312,8.821-42.042,7.98c-9.978-0.57-19.646-2.503-29.197-5.22
		c-3.739-1.064-7-3.105-9.911-5.681c-1.069-0.946-2.106-1.929-3.363-3.081c-1.145,1.03-2.218,1.942-3.23,2.917
		c-2.184,2.103-4.705,3.229-7.798,2.984c-1.271-0.101-2.558-0.022-3.838-0.021c-3.617,0.001-6.97-0.684-9.725-3.316
		c-0.773-0.739-1.893-1.118-2.98-1.735c-4.779,2.604-9.949,1.991-15.037,1.919c-3.331-0.048-6.154-1.369-8.566-3.737
		c-2.897-2.844-5.586-5.756-6.027-10.245c-1.957,0-3.842,0.015-5.726-0.004c-1.599-0.017-3.197-0.113-4.796-0.104
		c-4.375,0.025-8.186-1.206-11.037-4.741c-0.382-0.472-0.977-0.772-1.598-1.248c-1.679,1.016-3.282,1.985-5.088,3.078
		c0.46,2.271,0.706,4.505,1.376,6.604c1.897,5.943,1.485,12.02,1.244,18.081c-0.101,2.548-0.499,5.094-0.904,7.618
		c-0.464,2.889-1.597,5.458-3.652,7.664c-2.732,2.933-5.501,5.786-8.77,8.145c-2.462,1.776-4.906,3.604-7.18,5.61
		c-7.8,6.881-16.93,11.406-26.479,15.227c-2.817,1.128-5.586,2.387-8.438,3.414c-2.543,0.917-5.121,1.939-7.77,2.321
		c-9.195,1.326-18.463,1.684-27.753,1.48c-4.316-0.095-8.635-0.182-12.952-0.168c-4.333,0.014-8.626-0.308-12.883-1.118
		c-2.994-0.569-5.883-1.413-8.685-2.663c-4.373-1.953-8.796-3.804-13.26-5.538c-6.089-2.366-12.193-4.707-18.372-6.821
		c-4.131-1.413-7.196-4.131-9.904-7.307c-1.926-2.259-2.255-5.231-2.693-8.07c-0.145-0.939,0.059-1.932-0.075-2.873
		c-0.651-4.554,1.327-8.094,4.336-11.182c2-2.051,4.164-3.941,6.656-6.279c0.034-0.524,0.257-1.635,0.146-2.71
		c-0.331-3.206,0.791-5.975,2.384-8.619c2.493-4.137,5.55-7.812,9.119-11.069c1.857-1.695,4.036-2.58,6.526-2.614
		c3.484-0.048,6.969-0.012,10.762-0.012c-0.011-3.987,0.988-7.729,0.461-11.8c-1.563-12.074-1.652-24.228-0.762-36.386
		c0.597-8.142,0.691-16.281-0.182-24.431c-0.596-5.561-0.89-11.155-1.244-16.739c-0.597-9.425-1.616-18.785-3.497-28.056
		c-1.048-5.165-1.853-10.389-2.545-15.615c-1.304-9.837-3.245-19.545-5.322-29.242c-1.841-8.593-3.335-17.261-4.999-25.893
		c-0.272-1.412-0.53-2.841-0.981-4.199c-0.34-1.022-0.791-2.124-1.515-2.884c-8.356-8.769-13.58-19.272-17.204-30.684
		c-0.24-0.757-0.497-1.509-0.863-2.616c-1.019,0.765-1.965,1.297-2.688,2.045c-3.558,3.687-7.858,6.076-12.857,6.949
		c-6.71,1.172-13.405,1.256-19.567-2.293c-5.952-3.428-11.979-6.766-17.655-10.613c-3.262-2.212-6.042-5.216-8.76-8.125
		c-2.393-2.561-2.934-5.955-3.087-9.372c-0.202-4.496,0.425-8.9,1.53-13.296c-0.471-0.677-0.909-1.341-1.383-1.979
		c-2.558-3.446-3.873-7.172-3.687-11.601c0.215-5.14,0.188-10.237,2.701-14.939c0.279-0.521,0.221-1.223,0.368-2.146
		c-3.833-2.528-7.66-5.051-11.611-7.656c-2.83,3.013-6.207,3.513-9.839,3.286c-5.579-0.348-11.167-0.302-16.753-0.22
		c-3.045,0.045-5.534-1.092-7.785-3.133c-3.874-3.513-6.535-7.858-8.694-12.5c-1.745-3.752-1.566-7.83-0.552-11.731
		c0.407-1.563,0.862-3.063,0.756-4.657c-0.504-7.59,1.434-14.573,5.119-21.144c0.23-0.412,0.38-0.869,0.676-1.559
		c-0.492-0.822-0.98-1.807-1.621-2.679c-4.285-5.843-7.615-12.187-10.18-18.956c-5.91-15.598-10.214-31.628-12.925-48.079
		c-0.44-2.669-0.47-5.412-0.612-8.125c-0.59-11.283,0.81-22.295,3.993-33.162c2.019-6.891,3.379-13.976,5.028-20.975
		c1.323-5.616,3.033-11.103,5.532-16.317c2.422-5.054,4.568-10.211,6.195-15.582c1.166-3.847,2.865-7.458,5.122-10.795
		c4.299-6.357,8.542-12.753,12.911-19.062c4.216-6.086,9.445-11.273,14.989-16.131c3.246-2.845,6.596-5.582,10.012-8.222
		c6.723-5.194,12.952-10.917,18.97-16.906c3.505-3.489,7.214-6.811,11.087-9.886c7.553-5.998,15.774-11.006,24.861-14.273
		c6.451-2.319,13.115-4.1,19.77-5.782c11.793-2.981,23.788-4.951,35.869-6.332c3.965-0.453,7.974-0.562,11.967-0.739
		c2.064-0.092,4.076-0.372,6.374-0.779c-0.168-1.312-0.279-2.385-0.448-3.449c-0.729-4.597-0.745-9.229-0.89-13.867
		c-0.157-4.997,1.852-9.143,4.885-12.668c3.218-3.74,6.992-7.018,10.654-10.354c1.756-1.599,3.674-3.124,6.467-3.117
		c1.028-2.876,2.176-5.514,2.903-8.263c0.918-3.474,2.369-6.587,4.694-9.332c2.374-2.8,4.707-5.612,6.653-8.774
		c1.401-2.274,3.514-4.11,5.277-6.105c-0.767-3.399-1.444-6.8-2.313-10.151c-0.982-3.785-0.755-7.62-0.739-11.451
		c0.01-2.474,0.747-4.8,2.264-6.709c2.283-2.872,4.728-5.622,7.231-8.304c0.717-0.768,1.817-1.293,2.84-1.639
		c5.335-1.803,10.789-2.917,16.472-2.603c1.256,0.069,2.526-0.116,3.84-0.187c1.218-1.792,2.37-3.504,3.54-5.205
		c4.113-5.982,9.35-10.962,14.685-15.772c4.763-4.294,10.729-6.33,17.091-6.795c8.459-0.619,16.938-0.683,25.412-0.141
		c4.268,0.272,7.957,1.774,11.38,4.473c7.866,6.201,14.564,13.424,20.202,21.67c0.354,0.519,0.809,0.969,1.188,1.418
		c3.607,0,7.119,0.046,10.629-0.013c3.855-0.065,7.59,0.083,11.25,1.739c3.495,1.583,6.002,4.176,8.507,6.862
		c0.421,0.45,0.75,1.062,0.921,1.657c1.634,5.662,3.747,11.185,3.502,17.286c-0.156,3.896-1.029,7.229-4.059,9.829
		c-0.465,0.399-0.768,0.986-1.098,1.422c0.19,0.431,0.247,0.772,0.445,0.979c7.028,7.342,12.337,15.913,17.286,24.686
		c2.105,3.732,3.568,7.848,5.112,11.87c0.851,2.216,1.983,3.884,4.263,4.826c2.533,1.047,4.578,2.856,6.625,4.678
		c4.564,4.062,6.73,9.218,7.333,15.156c0.272,2.686,0.498,5.376,0.729,7.902c10.071,3.236,19.937,6.382,29.782,9.586
		c2.277,0.741,4.499,1.654,6.729,2.53c1.785,0.701,3.555,1.445,5.316,2.206c3.032,1.31,5.689,0.964,8.521-0.962
		c10.465-7.117,21.68-12.942,32.984-18.591c11.557-5.774,23.838-9.147,36.562-11.09c8.849-1.352,17.707-2.664,26.521-4.223
		c4.239-0.75,8.379-2.059,12.577-3.054c1.517-0.359,2.621-1.198,3.319-2.52c0.891-1.686,1.814-3.378,2.465-5.163
		c3.539-9.7,8.429-18.635,14.923-26.671c2.613-3.233,5.299-6.409,7.957-9.606c0.406-0.489,0.839-0.956,1.518-1.727
		c-0.209-2.29-0.424-4.813-0.674-7.333c-0.3-3.02-0.704-6.031-0.924-9.056c-0.222-3.055,0.206-6.045,1.112-8.993
		c0.749-2.43,0.98-5.055,1.98-7.36c0.996-2.295,2.664-4.298,4.157-6.616c-1.413-1.645-3.324-2.557-5.141-3.375
		c-5.877-2.645-10.223-7.038-14.238-11.867c-0.817-0.983-1.65-1.956-2.424-2.973c-0.378-0.497-0.922-1.098-0.897-1.629
		c0.113-2.427-1.411-4.197-2.281-6.227c-0.126-0.293-0.32-0.559-0.431-0.856c-2.354-6.371-1.872-12.928-0.736-19.368
		c0.585-3.313,3.173-5.835,5.571-8.238c2.98-2.987,6.202-5.534,10.418-6.235c1.136-2.403,1.923-4.897,3.373-6.915
		c1.563-2.175,3.538-4.2,5.72-5.744c2.007-1.42,4.527-2.114,7.197-3.294c-1.096-1.242-1.958-2.323-2.928-3.297
		c-1.96-1.967-3.328-4.244-4.179-6.898c-1.754-5.479-3.596-10.929-5.426-16.383c-1.066-3.18-2.264-6.319-3.246-9.524
		c-1.074-3.509-1.992-7.066-2.923-10.618c-0.241-0.918-0.617-1.71-1.389-3.589c0.013,7.599-0.636,13.929-1.992,20.178
		c-0.202,0.932-0.38,1.9-0.78,2.752c-1.626,3.462-3.519,6.809-4.969,10.34c-2.204,5.371-6.093,9.326-10.304,13.051
		c-1.836,1.624-4.041,2.568-6.486,2.87c-4.766,0.587-9.542,0.979-14.353,0.783c-2.836-0.116-5.358-1.041-7.351-3.054
		c-2.584-2.613-5.065-5.33-7.551-8.039c-1.579-1.721-2.324-3.782-2.296-6.135c0.03-2.56-0.062-5.122,0.019-7.679
		c0.139-4.438,2.926-7.25,6.183-9.731c0.246-0.188,0.576-0.361,0.873-0.371c3.92-0.126,7.916-1.276,11.686,0.831
		c0.229,0.128,0.592,0.017,1.202,0.017c1.862-7.368,3.66-14.72,2.698-22.557c-0.898-7.323-2.097-14.536-4.396-21.565
		c-3.076-9.406-7.851-17.787-14.475-25.15c-2.65-2.946-4.987-6.173-7.621-9.136c-1.474-1.658-3.155-3.177-4.929-4.512
		c-4.213-3.172-8.651-6.054-12.772-9.336c-2.602-2.073-4.807-4.646-7.161-7.023c-0.325-0.328-0.684-0.811-0.694-1.23
		c-0.09-3.468-1.002-7.025,0.938-10.306c1.911-3.23,4.492-5.368,8.495-5.157c0.159,0.008,0.32,0.001,0.479-0.004
		c8.47-0.291,10.366,0.137,19.066,5.008c2.921,1.636,5.68,3.58,8.417,5.52c1.336,0.948,2.692,1.686,4.299,1.983
		c2.67,0.493,5.323,1.115,8.012,1.463c1.563,0.202,3.227,0.208,4.767-0.098c9.645-1.914,18.726-5.349,27.229-10.314
		c4.931-2.879,8.729-6.91,12.159-11.394c1.741-2.274,3.731-4.366,5.687-6.467c1.482-1.594,3.336-2.441,5.58-2.234
		c1.894,0.174,3.82,0.166,5.676,0.528c4.422,0.862,7.13,3.914,9.165,7.691c1.965,0.32,3.381-0.37,4.709-1.77
		c3.946-4.161,2.551-3.44,8.714-3.592c2.468-0.061,4.78,0.122,6.592,2.375c3.079-1.302,5.99-2.532,9.01-3.809
		c0.4-2.499,0.687-4.861,1.168-7.183c2.636-12.711,7.101-24.555,16.381-34.081c0.441-0.454,0.777-1.011,1.163-1.52
		C947.521,11.96,958.082,11.96,968.642,11.96z M931.973,140.813c0.834-3.641-1.255-6.156-3.316-8.68
		c0.095,3.28,1.871,5.887,3.427,8.583c1.718,11.009,4.602,21.717,8.353,32.409c1.791,0.142,3.446,1.294,5.754,1.088
		c-0.505-1.281-0.901-2.272-1.286-3.269c-2.978-7.707-7.009-14.975-9.343-22.965C934.824,145.458,933.188,143.201,931.973,140.813z
		 M594.854,1019.679c2.104,0,4.495,0.041,6.883-0.011c3.009-0.064,5.66,0.904,8.01,2.706c1.264,0.969,2.405,2.095,3.636,3.109
		c0.381,0.313,0.874,0.491,1.854,1.023c-2.291-7.439-2.454-14.43-2.506-21.468c-0.066-8.972,2.652-16.968,7.823-24.173
		c3.26-4.541,6.656-8.985,10.801-12.794c0.664-0.61,1.131-1.435,1.731-2.216c-1.672-2.596-3.216-5.016-4.784-7.42
		c-3.229-4.951-6.384-9.938-8.854-15.334c-4.451-9.725-9.114-19.355-13.387-29.157c-1.582-3.628-3.884-6.82-5.136-10.693
		c-2.795-8.647-6.287-17.069-9.535-25.567c-0.321-0.843-0.92-1.579-1.226-2.091c-6.108,1.729-11.907,3.37-18.007,5.097
		c0.341,1.349,0.615,2.727,1.037,4.06c3.387,10.717,5.213,21.701,6.012,32.903c0.442,6.206,1.152,12.41,2.102,18.559
		c2.497,16.168,3.277,32.415,2.258,48.717c-0.471,7.531-2.278,14.826-6.443,21.33c-0.127,0.198,0.03,0.58,0.065,0.989
		c0.609,0.055,1.24,0.178,1.866,0.155c3.259-0.115,5.878,1.096,8.009,3.568C589.449,1013.741,591.935,1016.425,594.854,1019.679z
		 M964.197,204.415c0.998,4.8-0.018,9.286,1.154,13.774c5.503,0.461,10.809,0.355,16.072-0.153c0.041-0.473,0.117-0.695,0.056-0.744
		c-5.229-4.147-10.465-8.284-15.715-12.404C965.549,204.718,965.206,204.71,964.197,204.415z"/>
	<path fill-rule="evenodd" clip-rule="evenodd" d="M974.029,508.01c-0.115-1.901-0.231-3.292-0.274-4.686
		c-0.044-1.438,0.135-2.898-0.048-4.315c-0.729-5.674,1.641-9.916,5.927-13.333c0.747-0.596,1.479-1.211,2.187-1.792
		c0.102-1.836-1.341-2.587-2.339-3.456c-2.749-2.394-3.798-5.492-3.981-8.934c-0.154-2.871-0.101-5.758-0.022-8.635
		c0.075-2.798,0.911-5.401,2.897-7.427c3.244-3.308,6.591-6.516,9.926-9.732c1.334-1.287,3.034-1.767,4.844-1.764
		c3.837,0.006,7.674,0.061,11.511,0.119c2.145,0.033,4.162,0.705,5.814,1.982c2.646,2.045,5.19,4.242,7.621,6.541
		c1.721,1.628,2.137,3.919,2.067,6.196c-0.121,3.99-0.39,7.976-0.607,11.963c-0.104,1.895-1.221,3.296-2.465,4.535
		c-2.491,2.48-5.076,4.867-7.646,7.268c-1.038,0.971-2.137,1.877-3.403,2.983c1.19,1.299,2.188,2.501,3.303,3.581
		c1.826,1.768,2.768,3.796,2.607,6.404c-0.146,2.391-0.042,4.797-0.031,7.196c0.018,3.639-0.945,6.943-3.276,9.798
		c-0.392,0.479-0.718,1.014-1.023,1.451c0.248,1.273,1.251,0.938,1.912,1.18c0.598,0.22,1.222,0.396,1.85,0.499
		c2.88,0.467,5.473,1.686,8.1,2.881c2.605,1.186,5.269,2.298,7.996,3.158c9.37,2.953,17.385,7.997,23.871,15.357
		c1.564,1.774,2.655,3.969,3.938,5.987c2.053,3.231,4.007,6.529,6.15,9.699c1.707,2.525,3.402,5.028,4.381,7.947
		c2.388,7.119,4.933,14.188,7.133,21.364c1.462,4.768,1.442,9.793,1.557,14.747c0.104,4.477,0.136,8.96,0.003,13.435
		c-0.512,17.226-7.534,31.484-20.033,43.135c-1.854,1.729-4.092,3.062-6.218,4.48c-8.907,5.949-17.857,11.835-26.758,17.794
		c-8.098,5.42-16.84,9.128-26.59,10.209c-4.283,0.475-8.569,0.974-12.866,1.282c-9.559,0.687-18.783-1.12-27.831-4.021
		c-4.563-1.463-9.122-2.948-13.64-4.543c-4.899-1.73-9.121-4.563-12.817-8.216c-9.343-9.231-18.088-19.004-25.854-29.59
		c-3.963-5.402-7.517-11.127-10.964-16.88c-4.521-7.549-6.591-15.857-7.088-24.639c-0.344-6.076-0.564-12.137,0.116-18.188
		c1.494-13.29,5.636-25.513,14.362-35.957c5.449-6.522,11.202-12.797,17.616-18.3c8.14-6.983,17.179-12.784,27.062-17.132
		c3.57-1.571,7.344-2.298,11.198-2.337C960.587,507.24,966.989,506.85,974.029,508.01z"/>
	<path fill-rule="evenodd" clip-rule="evenodd" d="M979.912,411.618c0.496-0.58,1.127-1.092,1.466-1.752
		c1.499-2.92,3.881-5.045,6.263-7.181c0.119-0.106,0.248-0.205,0.386-0.285c0.688-0.399,1.358-1.085,2.072-1.136
		c3.385-0.238,5.904-3.107,9.546-2.774c4.268,0.389,8.585-0.241,12.799,1.272c7.915,2.843,12.479,8.983,12.542,17.343
		c0.019,2.558,0.034,5.116-0.02,7.673c-0.069,3.333-1.426,5.974-3.679,8.539c-5.507,6.269-12.493,8.564-20.496,8.633
		c-3.341,0.029-6.68,0.246-9.883-1.25c-4.059-1.895-6.999-4.995-9.56-8.487c-0.706-0.962-0.86-2.383-1.097-3.626
		c-1.08-5.7-0.956-11.421-0.173-17.139C980.074,411.454,979.912,411.618,979.912,411.618z"/>
	<path fill-rule="evenodd" clip-rule="evenodd" fill="#FFFFFF" d="M594.854,1019.679c-2.92-3.254-5.405-5.938-7.792-8.707
		c-2.131-2.473-4.75-3.684-8.009-3.568c-0.626,0.022-1.257-0.101-1.866-0.155c-0.035-0.409-0.192-0.791-0.065-0.989
		c4.165-6.504,5.973-13.799,6.443-21.33c1.02-16.302,0.239-32.549-2.258-48.717c-0.949-6.148-1.659-12.353-2.102-18.559
		c-0.799-11.202-2.625-22.187-6.012-32.903c-0.422-1.333-0.696-2.711-1.037-4.06c6.1-1.727,11.898-3.367,18.007-5.097
		c0.306,0.512,0.904,1.248,1.226,2.091c3.248,8.498,6.74,16.92,9.535,25.567c1.252,3.873,3.554,7.065,5.136,10.693
		c4.272,9.802,8.936,19.433,13.387,29.157c2.471,5.396,5.625,10.383,8.854,15.334c1.568,2.404,3.112,4.824,4.784,7.42
		c-0.601,0.781-1.067,1.605-1.731,2.216c-4.145,3.809-7.541,8.253-10.801,12.794c-5.171,7.205-7.89,15.201-7.823,24.173
		c0.052,7.038,0.215,14.028,2.506,21.468c-0.979-0.532-1.473-0.71-1.854-1.023c-1.23-1.015-2.372-2.141-3.636-3.109
		c-2.35-1.802-5.001-2.771-8.01-2.706C599.35,1019.72,596.959,1019.679,594.854,1019.679z"/>
	<path fill-rule="evenodd" clip-rule="evenodd" fill="#FFFFFF" d="M964.197,204.415c1.009,0.295,1.352,0.303,1.567,0.473
		c5.25,4.12,10.486,8.257,15.715,12.404c0.062,0.049-0.015,0.271-0.056,0.744c-5.264,0.508-10.569,0.615-16.072,0.153
		C964.18,213.701,965.195,209.215,964.197,204.415z"/>
	<path fill-rule="evenodd" clip-rule="evenodd" fill="#FFFFFF" d="M931.963,140.822c1.225,2.378,2.861,4.636,3.598,7.157
		c2.334,7.99,6.365,15.258,9.343,22.965c0.385,0.997,0.781,1.988,1.286,3.269c-2.308,0.206-3.963-0.946-5.754-1.088
		c-3.751-10.692-6.635-21.4-8.353-32.409L931.963,140.822z"/>
	<path fill-rule="evenodd" clip-rule="evenodd" fill="#FFFFFF" d="M932.083,140.716c-1.556-2.696-3.332-5.303-3.427-8.583
		c2.062,2.524,4.15,5.04,3.312,8.685C931.963,140.822,932.083,140.716,932.083,140.716z"/>
</g>
</svg>
