<?xml version="1.0" encoding="utf-8"?>
<!-- Generator: Adobe Illustrator 16.0.2, SVG Export Plug-In . SVG Version: 6.00 Build 0)  -->
<!DOCTYPE svg PUBLIC "-//W3C//DTD SVG 1.1//EN" "http://www.w3.org/Graphics/SVG/1.1/DTD/svg11.dtd">
<svg version="1.1" id="Layer_1" xmlns="http://www.w3.org/2000/svg" xmlns:xlink="http://www.w3.org/1999/xlink" x="0px" y="0px"
	 width="3635.545px" height="3953.506px" viewBox="0 0 3635.545 3953.506" enable-background="new 0 0 3635.545 3953.506"
	 xml:space="preserve">
<g>
	<path fill-rule="evenodd" clip-rule="evenodd" fill="#FFFFFF" d="M3639.545,3957.505c-1212.516,0-2425.03,0-3637.545,0
		C2,2639.003,2,1320.502,2,2c1212.515,0,2425.029,0,3637.545,0C3639.545,1320.502,3639.545,2639.003,3639.545,3957.505z
		 M2422.135,3153.772c1.944-2.111,3.179-3.659,4.619-4.982c38.681-35.535,80.365-67.623,118.279-104.085
		c34.878-33.543,68.655-67.789,94.151-109.357c19.897-32.441,37.366-65.938,48.827-102.421c7.162-22.8,16.046-45.077,22.689-68.015
		c4.971-17.158,8.989-34.846,10.896-52.571c2.092-19.435,1.176-39.188,1.744-58.795c0.934-32.14-3.74-63.456-11.426-94.663
		c-8.917-36.207-28.654-64.971-57.133-87.836c-22.161-17.792-48.474-27.261-76.063-33.275c-5.5-1.198-11.084-2.294-16.356-4.194
		c-15.121-5.448-30.409-9.677-46.695-8.975c-0.876,0.037-1.787-0.721-3.118-1.297c-0.14-9.489-5.35-16.661-11.623-23.283
		c-5.721-6.042-11.637-11.914-17.108-18.174c-9.484-10.854-20.869-18.363-35.796-20.914c0-5.964,0.229-11.607-0.05-17.228
		c-0.508-10.272-1.153-20.544-2.033-30.79c-1.729-20.146-14.479-33.047-30.007-43.56c-3.804-2.576-9.392-3.176-14.227-3.433
		c-9.638-0.511-19.33,0.11-28.984-0.223c-10.671-0.368-19.46,4.16-26.676,11.015c-12.299,11.685-24.409,23.689-35.429,36.562
		c-8.804,10.284-15.918,22.023-23.674,33.191c-2.315,3.334-4.267,6.921-6.167,10.036c-6.772-13.044-13.273-25.564-20.25-39.002
		c30.269-23.885,39.945-57.182,36.527-94.821c2.299-1.427,3.645-2.425,5.121-3.155c30.874-15.261,58.424-35.643,86.572-55.226
		c33.041-22.989,67.256-44.282,100.501-66.985c28.855-19.705,56.979-40.481,85.588-60.554
		c44.123-30.957,89.236-60.565,129.475-96.729c35.598-31.992,71.368-63.792,106.925-95.829
		c12.109-10.911,23.521-22.604,35.738-33.386c26.024-22.968,49.87-48.028,70.593-75.778c10.308-13.801,22.515-25.204,35.545-36.01
		c2.704-2.244,6.218-4.53,9.542-4.841c17.606-1.648,34.872-4.56,50.632-11.675c6.306,4.82,11.884,9.002,17.369,13.304
		c5.454,4.277,11.426,6.351,18.501,6.112c10.653-0.361,21.329,0.035,31.99-0.162c3.948-0.072,7.981-0.512,11.804-1.473
		c15.344-3.856,28.982-10.09,40.121-22.404c11.098-12.266,18.029-25.062,16.971-41.953c-0.867-13.839-0.802-27.736-1.148-41.57
		c0.91-0.593,1.709-1.214,2.593-1.671c41.124-21.29,78.507-47.606,109.514-82.3c13.556-15.168,23.45-32.392,24.796-53.232
		c0.665-10.289,0.323-20.662,0.003-30.984c-0.109-3.532-0.674-7.579-2.51-10.442c-10.462-16.317-22.542-31.196-40.339-41.077
		c8.047-11.785,15.977-23.605,24.122-35.276c11.403-16.338,19.604-34.287,22.921-53.755c2.266-13.296,1.836-27.17,1.4-40.747
		c-0.158-4.947-3.059-10.315-6.042-14.551c-5.716-8.117-12.293-15.643-18.686-23.268c-9.466-11.292-21.901-15.437-36.347-15.217
		c-20.127,0.306-40.316-1.014-60.721,3.886c0-2.662,0.01-4.277-0.002-5.892c-0.106-14.312,0.404-28.668-0.608-42.917
		c-0.45-6.325-2.515-13.65-6.437-18.367c-6.717-8.075-15.195-14.798-23.45-21.448c-7.789-6.273-17.144-8.343-27.174-8.131
		c-13.257,0.28-26.524,0.069-38.445,0.069c-6.52-16.655-12.762-32.728-19.108-48.758c-3.54-8.945-7.399-17.633-6.607-27.779
		c0.529-6.78-2.508-12.801-7.365-17.864c-2.954-3.08-5.955-6.389-7.872-10.138c-5.133-10.046-10.424-20.118-14.313-30.672
		c-6.114-16.593-17.694-28.736-30.15-40.381c-5.579-5.216-12.036-7.978-19.917-7.596c-7.646,0.371-15.328-0.026-22.992,0.104
		c-13.046,0.223-24.729,3.24-33.751,13.958c-4.737,5.626-9.711,10.839-12.677,17.715c-1.295,3.004-2.906,6.267-5.304,8.335
		c-11.112,9.588-14.044,22.013-13.449,35.878c0.684,15.927,1.816,31.854,1.861,47.783c0.041,14.727,1.86,29.09,5.238,43.361
		c0.479,2.028,0.027,4.638-0.87,6.572c-6.851,14.772-13.998,29.406-20.864,44.172c-1.772,3.81-4.163,5.547-8.471,5.367
		c-6.654-0.279-13.329-0.041-19.995-0.062c-10.736-0.033-20.329,2.275-27.15,11.669c-2.516,3.462-6.351,5.942-9.042,9.303
		c-5.972,7.459-12.432,14.579-13.437,24.958c-0.579,5.991-2.718,11.83-4.382,18.672c-2.566-2.352-4.411-3.75-5.905-5.455
		c-13.439-15.332-24.753-31.99-33.358-50.603c-6.971-15.075-14.603-29.896-22.807-44.338
		c-12.366-21.767-31.519-37.659-49.235-54.743c-9.178-8.85-20.156-12.342-32.765-11.503c-4.646,0.31-9.329,0.081-13.995,0.049
		c-9.682-0.065-18.348,1.944-24.659,10.299c-2.786,3.687-6.466,6.714-9.823,9.953c-6.962,6.715-11.099,14.964-12.673,24.378
		c-2.653,15.861-3.711,32.1,0.466,47.549c4.202,15.544-3.164,27.735-7.764,40.973c-0.94,2.707-2.563,5.298-2.92,8.065
		c-1.652,12.808-2.218,25.802-4.602,38.46c-2.792,14.823-3.784,29.635-3.498,44.627c0.048,2.503-0.219,5.011-0.412,9.02
		c-26.966-14.952-56.203-16.813-85.149-23.093c2.006-3.759,3.626-6.978,5.405-10.105c12.169-21.382,24.241-42.821,36.656-64.06
		c2.981-5.103,4.69-10.138,4.211-16.018c-0.968-11.861-1.57-23.756-2.765-35.594c-0.963-9.535-1.653-19.245-4.066-28.458
		c-7.616-29.063-22.29-54.797-40.123-78.644c-19.123-25.57-39.868-49.763-61.648-73.218c-27.271-29.364-55.605-57.219-88.22-80.651
		c-29.213-20.989-58.406-41.936-91.239-57.097c-24.754-11.43-49.53-22.81-74.318-34.164
		c-50.644-23.196-102.863-41.914-157.346-53.746c-21.742-4.721-43.858-7.709-65.779-11.62c-7.846-1.4-15.569-4.217-23.438-4.613
		c-19.6-0.986-39.251-1.149-58.883-1.222c-6.603-0.024-13.342,0.612-19.786,2.012c-14.952,3.248-29.747,7.214-44.639,10.755
		c-10.608,2.523-15.753,11.679-22.815,18.501c-0.608,0.588-0.87,1.908-0.751,2.817c1.355,10.36-4.59,18.472-9.011,26.656
		c-25.135,46.544-50.762,92.821-76.245,139.176c-3.656,6.649-7.44,13.228-11.383,20.227c-4.019-3.589-7.156-6.535-10.443-9.302
		c-23.339-19.657-49.655-34.397-77.043-47.606c-44.943-21.675-92.082-32.319-141.991-30.142c-4.611,0.201-9.273,1.025-13.75,2.182
		c-23.81,6.156-44.108,18.984-61.382,35.837c-27.233,26.568-27.579,20.495-27.474,65.01c0.027,11.256,0.004,22.51,0.004,34.361
		c-4.458,0.241-8.396,0.432-12.331,0.674c-3.979,0.244-7.967,0.418-11.929,0.828c-52.295,5.408-102.816,17.655-150.796,39.501
		c-35.864,16.329-70.666,34.164-98.177,63.639c-8.08,8.657-12.131,17.835-12.078,29.327c0.07,14.998-0.57,30.025,0.166,44.986
		c0.928,18.864,5.182,37.1,18.081,51.694c18.022,20.391,38.803,37.348,64.188,48.104c11.181,4.738,22.16,9.952,33.934,15.268
		c-7.899,5.974-15.28,11.077-22.125,16.817c-24.195,20.293-48.517,40.456-72.194,61.341c-19.701,17.377-38.643,35.619-57.764,53.643
		c-8.904,8.394-14.326,18.575-17.384,30.721c-3.816,15.157-2.922,30.354-3.713,45.596c-0.658,12.694,3.642,23.418,10.158,33.7
		c0.652,1.028,1.462,1.956,2.357,3.139c-9.378,7.417-18.78,13.779-26.904,21.489c-20.507,19.463-40.164,39.823-60.668,59.29
		c-28.519,27.077-43.908,61.25-54.577,98.135c-4.894,16.919-2.931,34.324-3.637,51.556c-0.492,11.981,1.985,23.139,6.809,33.881
		c7.218,16.073,15.152,31.843,21.89,48.111c11.233,27.122,28.88,49.205,51.241,67.76c10.366,8.603,21.829,15.91,35.52,16.868
		c15.904,1.112,31.933,1.062,47.886,0.666c11.855-0.294,23.676-1.944,36.497-3.077c-0.232,20.57,4.328,39.713,14.704,57.9
		c10.162,17.81,24.252,31.608,39.362,44.633c15.968,13.764,35.899,17.986,57.762,20.727c-7.012,8.294-12.938,15.353-18.919,22.366
		c-21.35,25.035-42.817,49.972-64.046,75.109c-16.504,19.54-33.096,39.026-48.947,59.091c-13.17,16.671-25.191,34.245-37.984,51.222
		c-4.791,6.356-10.652,11.905-15.46,18.251c-21.688,28.622-43.186,57.347-62.078,87.993c-20.131,32.658-44.977,61.711-70.899,89.952
		c-29,31.594-57.166,63.952-85.561,96.099c-3.102,3.513-6.274,5.271-11.074,5.401c-27.59,0.754-55.212,1.208-82.746,2.971
		c-22.702,1.453-44.895,5.599-63.743,20.182c-3.511,2.716-8.383,3.901-12.809,5.14c-4.458,1.248-9.139,1.704-13.729,2.467
		c-18.297,3.038-35.564,8.235-49.109,22.036c-1.928,1.965-5.156,2.953-7.967,3.696c-10.934,2.894-21.945,5.498-32.925,8.224
		c-11.951,2.969-23.919,4.979-36.368,5.481c-18.68,0.752-36.134,5.79-48.508,21.576c-2.041,2.603-4.77,4.655-7.009,7.12
		c-12.589,13.853-22.853,28.645-20.353,48.864c0.527,4.268,0.171,8.658,0.06,12.987c-0.445,17.332,4.358,32.33,16.539,45.464
		c12.26,13.219,25.723,22.98,44.145,24.6c1.787,0.157,3.499,1.176,5.297,1.813c-0.504,1.181-0.614,1.927-1.041,2.36
		c-20.927,21.285-38.099,45.298-51.406,71.971c-5.905,11.837-12.455,23.718-12.759,37.415c-0.362,16.322-0.271,32.662-0.022,48.989
		c0.182,11.977,2.897,22.994,13.055,31.014c4.157,3.282,7.396,7.702,11.421,11.18c9.485,8.195,19.57,14.703,33.174,13.309
		c7.814-0.801,15.778-0.145,23.656-0.145c0.729,8.496,1.054,15.797,2.086,22.995c0.602,4.184,1.177,9.279,3.783,12.097
		c7.881,8.516,15.599,18.184,25.456,23.678c25.46,14.193,52.208,15.846,78.812,1.758c0.444-0.235,1.19,0.101,1.147,0.096
		c5.841,10.811,10.62,21.89,17.404,31.563c6.414,9.146,14.567,17.198,22.693,24.957c3.705,3.537,9.062,7.028,13.888,7.361
		c11.203,0.775,22.846,1.126,33.751-1.094c18.605-3.785,35.99-11.284,51.476-22.82c19.713-14.683,36.412-31.559,48.177-53.704
		c10.917-20.545,16.106-43.673,29.521-62.96c0.368-0.528,0.438-1.256,0.702-1.866c4.619-10.623,9.245-21.244,13.953-32.055
		c10.049,0,19.71-0.264,29.353,0.068c11.212,0.385,21.792-1.922,32.119-6.04c4.631-1.846,9.426-3.273,14.091-5.04
		c29.507-11.174,50.886-32.064,67.979-57.748c5.324-7.998,9.521-16.785,13.817-25.417c4.718-9.482,10.237-18.805,11.425-29.563
		c1.711-15.491,3.155-31.025,4.126-46.577c0.602-9.627,0.239-19.326,0.058-28.988c-0.081-4.272,1.124-7.245,4.526-10.294
		c18.333-16.42,36.501-33.035,54.354-49.977c10.132-9.614,19.301-20.238,29.35-29.946c13.634-13.174,28.166-25.44,41.475-38.923
		c29.934-30.325,59.376-61.134,88.958-91.806c5.305-5.501,10.304-11.297,15.463-16.941c15.925-17.422,31.702-34.984,47.834-52.214
		c15.691-16.76,31.793-33.135,47.622-49.767c4.469-4.698,8.608-9.712,12.285-13.884c10.639,11.92,19.476,24.414,30.859,33.829
		c10.969,9.074,9.552,18.165,5.698,28.88c-0.673,1.87-1.928,3.548-2.485,5.44c-4.682,15.905-10.202,31.646-13.556,47.831
		c-2.332,11.256-2.256,23.142-2.172,34.737c0.144,19.934,1.047,39.865,1.812,59.789c0.313,8.141,1.095,16.262,1.707,25.018
		c-9.06-2.349-16.926-5.05-25.018-6.354c-20.659-3.33-41.361-6.547-62.149-8.881c-38.333-4.302-76.216-3.519-113.404,9.199
		c-18.041,6.171-34.462,13.743-46.923,28.65c-3.072,3.676-6.038,7.028-6.208,12.069c-0.403,11.936-0.59,23.889-1.39,35.798
		c-0.684,10.185,3.18,18.088,10.413,24.808c6.238,5.794,12.362,11.708,18.809,17.828c-11.47,10.98-21.728,22.634-36.691,29.922
		c-18.151,8.841-30.86,25.126-44.369,39.804c-10.116,10.99-18.858,23.251-29.022,34.193c-38.12,41.041-66.817,87.973-86.383,140.218
		c-15.622,41.715-29.048,84.247-44.064,126.195c-10.868,30.359-22.768,60.349-34.15,90.525c-3.208,8.503-6.214,17.08-10.139,27.899
		c-3.604-8.027-6.796-13.844-8.876-20.033c-4.339-12.906-11.674-23.395-21.174-33.241c-9.437-9.783-19.944-13.406-32.926-13.173
		c-18.259,0.33-36.581,0.943-54.775-0.183c-15.098-0.936-26.479,4.104-35.96,15.303c-3.588,4.239-7.854,7.906-12.127,12.147
		c-11.075-10.306-22.96-18.575-36.88-20.358c-10.571-1.354-20.706-4.549-31.165-5.548c-12.548-1.197-25.241-0.822-37.864-1.316
		c-6.091-0.238-10.943,1.825-15.085,6.27c-9.468,10.158-19.087,20.177-29.56,31.216c-4.061-2.108-9.176-4.339-13.852-7.27
		c-13.957-8.748-28.955-4.574-43.68-3.902c-0.583,0.026-1.159,0.617-1.704,0.993c-14.208,9.801-28.123,19.807-40.047,32.587
		c-12.458,13.35-19.446,28.533-19.121,46.665c0.341,18.937,0.427,37.976,2.503,56.762c3.396,30.741,13.309,59.822,29.058,86.361
		c9.105,15.34,21.157,28.911,31.541,43.521c12.439,17.503,27.376,32.745,43.726,46.352c19.18,15.961,38.207,31.876,55.409,50.096
		c12.84,13.603,17.282,29.858,18.044,47.15c0.952,21.6-0.631,43.297-0.291,64.938c0.408,26.012,5.081,51.244,14.268,75.798
		c7.086,18.941,19.366,33.038,35.276,44.712c21.285,15.617,46.331,23.081,70.334,32.819c0.914,0.369,1.943,0.666,2.914,0.652
		c17.932-0.258,35.952,1.991,53.75-2.104c8.097-1.864,16.376-2.994,24.395-5.128c9.57-2.547,18.94-5.841,28.416-8.753
		c3.151-0.968,6.347-1.8,9.543-2.612c8.335-2.118,16.877-3.62,24.991-6.384c29.037-9.89,52.659-28.245,73.938-49.605
		c21.606-21.689,42.526-44.07,63.486-66.393c11.138-11.861,22.019-23.991,32.501-36.435c24.928-29.596,45.633-62.238,66.699-94.559
		c9.473-14.533,19.257-28.673,31.046-41.389c1.125-1.215,2.557-2.145,4.448-3.703c-0.534,14.76-1.143,28.341-1.477,41.93
		c-0.243,9.897,2.03,18.85,9.499,26.201c9.011,8.87,17.523,18.247,26.272,27.385c9.012,9.415,20.263,13.604,33.083,13.768
		c11.996,0.153,24.002,0.284,35.992-0.021c25.478-0.647,48.677-6.793,65.712-27.745c4.144-5.098,8.826-9.693,15.726-11.536
		c2.648-0.707,4.89-3.363,7.041-5.419c4.815-4.607,9.205-9.686,14.226-14.043c8.43-7.317,12.841-16.786,15.874-27.167
		c1.055-3.612,2.266-7.182,3.879-12.262c6.188,8.228,13.25,8.758,20.798,8.306c5.646-0.339,11.33,0.018,16.993-0.111
		c2.287-0.053,5.194,0.213,6.735-1.021c6.967-5.57,14.418-10.927,19.927-17.78c3.138-3.903,3.789-10.511,3.972-15.953
		c0.505-14.98,0.594-30.004,0.063-44.982c-0.598-16.829-5.116-32.82-13.431-47.502c-9.507-16.787-23.528-29.754-38.18-41.769
		c-11.829-9.699-25.805-14.865-41.631-13.867c-7.304,0.46-14.663-0.05-21.991,0.118c-8.344,0.191-16.915,0.478-24.159,5.002
		c-12.099,7.557-23.953,15.539-35.546,23.851c-4.542,3.258-8.438,7.613-11.977,11.995c-1.908,2.362-3.181,5.775-3.435,8.823
		c-0.519,6.234-0.155,12.543-0.155,20.183c-18.827-3.067-32.681,8.89-49.081,13.464c43.549-80.243,90.498-157.738,153.077-224.618
		c5.462,5.422,11.331,11.324,17.284,17.141c7.375,7.206,15.62,12.105,26.585,11.096c5.948-0.549,12.011-0.422,17.983-0.021
		c8.59,0.575,15.806-2.845,22.011-7.907c5.63-4.595,10.517-10.199,15.27-15.754c19.731-23.06,25.81-51.225,29.405-80.222
		c1.009-8.13,1.473-16.327,2.196-24.612c3.037,0,5.365-0.263,7.618,0.042c15.14,2.043,30.284,4.067,45.387,6.367
		c17.08,2.601,34.556,3.925,51.077,8.581c29.872,8.421,60.262,9.99,90.856,10.466c15.954,0.249,31.924-0.851,47.89-0.983
		c36.685-0.306,73.073-4.373,109.043-10.838c62.775-11.282,123.208-30.403,180.689-58.381c2.661-1.296,5.579-2.106,8.432-2.963
		c17.645-5.291,34.497-12.136,48.968-23.962c3.855-3.149,8.396-5.475,12.174-8.703c4.493-3.839,8.462-3.55,13.574-0.96
		c17.553,8.891,35.819,15.817,55.17,20.038c8.195,1.788,15.914,5.761,24.389,8.944c-1.606,2.764-2.465,4.533-3.584,6.119
		c-6.897,9.778-14.188,19.297-20.731,29.305c-21.688,33.168-41.771,67.271-58.396,103.304
		c-8.506,18.435-17.057,36.975-19.924,57.266c-1.901,13.452-2.533,27.111-3.195,40.704c-1.891,38.807,1.363,76.895,13.787,114.147
		c6.112,18.329,18.77,30.709,33.237,41.122c15.048,10.833,31.804,19.324,47.97,28.563c22.696,12.968,47.789,19.899,72.394,27.956
		c19.943,6.53,40.385,10.93,61.309,13.327c9.827,1.127,19.528,3.725,29.146,6.208c13.557,3.5,23.545,11.3,29.68,24.387
		c7.336,15.65,15.563,30.885,23.458,46.271c10.354,20.176,21.82,39.708,37.035,56.623c10.015,11.136,21.063,21.337,31.565,32.038
		c24.657,25.128,54.725,33.962,89.197,30.059c9.231-1.045,17.386-4.011,24.242-10.397c6.565-6.116,13.239-12.118,19.875-18.159
		c11.074-10.086,15.357-22.959,15.414-37.559c0.029-7.23,0.006-14.461,0.006-22.563c13.16,0,25.117,0.569,37.001-0.127
		c20.104-1.178,40.004-4.222,55.938-17.98c9.284-8.019,17.971-16.884,25.98-26.184c9.817-11.398,14.768-24.813,14.544-40.298
		c-0.252-17.271,0.669-34.563-8.09-50.94c6.073-5.767,11.614-11.045,17.175-16.304c6.419-6.066,9.268-13.64,9.414-22.33
		c0.073-4.331-0.238-8.684,0.063-12.995c1.4-20.042-4.358-37.213-19.024-51.449c-10.054-9.758-19.412-20.495-32.578-25.979
		c-15.619-6.505-31.395-12.972-47.638-17.559c-18.423-5.202-35.904-11.704-51.722-22.668c-19.674-13.638-40.558-25.694-59.286-40.5
		C2476.857,3224.674,2450.057,3189.302,2422.135,3153.772z M628.831,1558.09c7.757,6.365,16.808,7.584,26.352,6.922
		c2.321-0.161,4.694-0.271,6.989,0.017c12.539,1.57,23.941-1.511,33.545-9.459c7.644-6.325,15.268-13.041,21.294-20.827
		c4.244-5.481,6.578-12.854,8.302-19.747c1.423-5.687,1.719-12.086,0.717-17.858c-2.189-12.604,2.711-20.89,13.583-26.318
		c3.136-1.565,6.753-3.982,9.81-3.557c11.264,1.561,19.139-3.091,25.717-11.515c2.036-2.606,4.868-4.582,6.977-7.14
		c6.364-7.721,11.877-15.827,14.258-25.899c4.889-20.682,4.085-41.621,3.505-62.557c-0.294-10.623-4.646-19.736-10.743-28.404
		c-9.853-14.005-21.653-26.232-34.26-37.552c-12.56-11.279-27.413-19.527-44.64-20.032c-21.259-0.622-42.575,0.961-63.856,0.718
		c-39.511-0.452-71.113,38.491-78.968,66.213c-1.203,4.25-1.409,8.782-2.044,12.971c-11.945-2.845-23.114-6.531-34.566-7.97
		c-13.799-1.733-27.832-1.734-41.772-2.16c-14.047-0.429-26.278,4.437-35.727,14.801c-8.937,9.803-17.097,20.313-25.677,30.446
		c-7.932,9.365-13.806,20.028-14.542,32.193c-1.002,16.568-2.337,33.542,0.104,49.794c3.637,24.221,13.609,46.596,29.785,65.484
		c7.997,9.338,16.685,18.14,25.598,26.62c7.496,7.131,16.064,13.085,26.109,16.187c27.94,8.627,56.507,8.217,85.012,4.36
		C598.44,1581.287,613.014,1569.58,628.831,1558.09z M2388.729,476.008c-9.419-9.4-18.05-18.124-26.804-26.722
		c-9.442-9.275-20.711-14.28-34.098-14.162c-6.666,0.058-13.354-0.34-19.994,0.07c-27.859,1.721-53.167,8.143-73.246,30.42
		c-20.906,23.193-31.331,49.765-33.061,80.21c-0.774,13.62,0.013,27.324-0.174,40.986c-0.171,12.506,3.436,24.094,11.244,33.366
		c11.113,13.196,22.617,26.431,35.821,37.404c16.915,14.056,36.993,22.127,59.718,21.546c6.995-0.179,14.031-0.468,20.99,0.058
		c17.392,1.313,28.037-8.915,36.476-21.784c3.224-4.917,6.123-9.031,12.403-11.283c8.185,11.322,20.148,12.658,32.937,11.905
		c5.646-0.332,11.329-0.022,16.994-0.063c15.688-0.11,30.657-3.583,43.049-13.292c6.16-4.829,12.182-5.801,19.256-5.608
		c8.895,0.242,16.894-1.643,23.505-8.547c5.026-5.249,11.157-9.431,16.697-14.205c3.4-2.931,6.971-4.985,11.704-4.363
		c5.42,0.713,9.255-1.969,13.261-5.462c16.352-14.252,27.28-32.458,37.938-50.871c6.255-10.808,9.912-22.508,10.188-35.093
		c0.241-10.985,0.594-21.979,0.413-32.959c-0.414-25.229-7.916-47.632-26.953-65.228c-2.445-2.261-4.661-4.77-7.092-7.046
		c-13.404-12.548-28.807-19.891-47.666-19.368c-15.653,0.435-31.327,0.156-46.991,0.072c-17.176-0.092-31.703,5.651-43.789,18.174
		C2414.082,432.167,2397.434,450.577,2388.729,476.008z M2973.79,1995.068c-17.051-9.844-35.98-6.897-54.499-7.219
		c-1.305-0.022-2.949-0.094-3.869,0.604c-5.883,4.472-12.668,3.273-19.242,3.335c-7.994,0.075-16.023-0.427-23.971,0.185
		c-4.797,0.368-9.865,1.603-14.118,3.793c-12.395,6.381-20.724,17.526-30.151,27.322c-9.054,9.405-14.853,20.241-14.881,33.8
		c-0.025,12.282-0.637,24.565-1.088,36.846c-0.347,9.479,1.779,18.437,5.27,27.164c9.023,22.563,22.09,42.211,40.032,58.858
		c8.931,8.285,18.473,14.225,30.59,15.037c15.243,1.021,30.546,1.138,45.785,2.201c14.45,1.01,25.853-4.516,35.514-14.697
		c7.058-7.435,14.163-14.821,21.189-22.171c0.8,0.115,1.552,0.024,2.074,0.329c15.04,8.766,31.589,6.31,47.773,6.338
		c2.192,0.004,5.001-0.534,6.464-1.932c4.382-4.186,9.597-4.415,14.908-3.891c16.018,1.583,30.998-2.064,45.542-8.356
		c2.744-1.188,5.729-1.845,8.414-3.138c3.863-1.858,8.087-3.477,11.219-6.255c8.954-7.942,18.824-15.723,23.246-27.021
		c4.479-11.447,13.194-18.706,21.153-26.964c2.532-2.626,4.806-5.501,7.266-8.2c5.581-6.126,8.759-13.256,8.894-21.582
		c0.238-14.645,1.294-29.352,0.34-43.924c-1.651-25.269-9.496-48.192-29.637-65.319c-2.276-1.937-4.388-4.104-6.358-6.354
		c-9.681-11.047-22.012-18.271-35.34-23.691c-16.237-6.604-33.388-5.073-50.208-3.385c-7.728,0.774-16.108,2.771-22.601,6.788
		C3014.869,1941.284,2990.894,1963.874,2973.79,1995.068z"/>
	<path fill-rule="evenodd" clip-rule="evenodd" d="M2422.135,3153.772c27.922,35.529,54.723,70.901,89.649,98.512
		c18.729,14.806,39.612,26.862,59.286,40.5c15.817,10.964,33.299,17.466,51.722,22.668c16.243,4.587,32.019,11.054,47.638,17.559
		c13.166,5.484,22.524,16.222,32.578,25.979c14.666,14.236,20.425,31.407,19.024,51.449c-0.301,4.312,0.011,8.664-0.063,12.995
		c-0.146,8.69-2.995,16.264-9.414,22.33c-5.561,5.259-11.102,10.537-17.175,16.304c8.759,16.378,7.838,33.67,8.09,50.94
		c0.224,15.485-4.727,28.899-14.544,40.298c-8.01,9.3-16.696,18.165-25.98,26.184c-15.934,13.759-35.834,16.803-55.938,17.98
		c-11.884,0.696-23.841,0.127-37.001,0.127c0,8.102,0.023,15.332-0.006,22.563c-0.057,14.6-4.34,27.473-15.414,37.559
		c-6.636,6.041-13.31,12.043-19.875,18.159c-6.856,6.387-15.011,9.353-24.242,10.397c-34.473,3.903-64.54-4.931-89.197-30.059
		c-10.502-10.701-21.551-20.902-31.565-32.038c-15.215-16.915-26.682-36.447-37.035-56.623
		c-7.896-15.387-16.122-30.621-23.458-46.271c-6.135-13.087-16.123-20.887-29.68-24.387c-9.617-2.483-19.318-5.081-29.146-6.208
		c-20.924-2.397-41.365-6.797-61.309-13.327c-24.604-8.057-49.697-14.988-72.394-27.956c-16.166-9.238-32.922-17.729-47.97-28.563
		c-14.468-10.413-27.125-22.793-33.237-41.122c-12.424-37.253-15.678-75.341-13.787-114.147c0.662-13.593,1.294-27.252,3.195-40.704
		c2.867-20.291,11.418-38.831,19.924-57.266c16.626-36.033,36.709-70.136,58.396-103.304c6.544-10.008,13.834-19.526,20.731-29.305
		c1.119-1.586,1.978-3.355,3.584-6.119c-8.475-3.184-16.193-7.156-24.389-8.944c-19.351-4.221-37.617-11.147-55.17-20.038
		c-5.112-2.59-9.081-2.879-13.574,0.96c-3.778,3.229-8.318,5.554-12.174,8.703c-14.471,11.826-31.323,18.671-48.968,23.962
		c-2.853,0.856-5.771,1.667-8.432,2.963c-57.481,27.978-117.914,47.099-180.689,58.381c-35.97,6.465-72.358,10.532-109.043,10.838
		c-15.966,0.133-31.936,1.232-47.89,0.983c-30.594-0.476-60.984-2.045-90.856-10.466c-16.521-4.656-33.997-5.98-51.077-8.581
		c-15.103-2.3-30.247-4.324-45.387-6.367c-2.253-0.305-4.582-0.042-7.618-0.042c-0.724,8.285-1.188,16.482-2.196,24.612
		c-3.595,28.997-9.674,57.162-29.405,80.222c-4.752,5.555-9.64,11.159-15.27,15.754c-6.206,5.063-13.421,8.482-22.011,7.907
		c-5.972-0.4-12.035-0.527-17.983,0.021c-10.965,1.01-19.21-3.89-26.585-11.096c-5.954-5.816-11.822-11.719-17.284-17.141
		c-62.579,66.88-109.527,144.375-153.077,224.618c16.4-4.574,30.254-16.531,49.081-13.464c0-7.64-0.363-13.948,0.155-20.183
		c0.254-3.048,1.527-6.461,3.435-8.823c3.539-4.382,7.435-8.737,11.977-11.995c11.593-8.312,23.447-16.294,35.546-23.851
		c7.244-4.524,15.815-4.811,24.159-5.002c7.328-0.168,14.688,0.342,21.991-0.118c15.826-0.998,29.803,4.168,41.631,13.867
		c14.651,12.015,28.672,24.981,38.18,41.769c8.315,14.682,12.833,30.673,13.431,47.502c0.531,14.979,0.442,30.002-0.063,44.982
		c-0.184,5.442-0.834,12.05-3.972,15.953c-5.509,6.854-12.96,12.21-19.927,17.78c-1.542,1.233-4.449,0.968-6.735,1.021
		c-5.664,0.129-11.347-0.228-16.993,0.111c-7.548,0.452-14.61-0.078-20.798-8.306c-1.613,5.08-2.824,8.649-3.879,12.262
		c-3.033,10.381-7.444,19.85-15.874,27.167c-5.021,4.357-9.411,9.436-14.226,14.043c-2.151,2.056-4.393,4.712-7.041,5.419
		c-6.899,1.843-11.582,6.438-15.726,11.536c-17.035,20.952-40.234,27.098-65.712,27.745c-11.99,0.305-23.996,0.174-35.992,0.021
		c-12.821-0.164-24.071-4.353-33.083-13.768c-8.749-9.138-17.262-18.515-26.272-27.385c-7.469-7.352-9.742-16.304-9.499-26.201
		c0.334-13.589,0.943-27.17,1.477-41.93c-1.891,1.559-3.323,2.488-4.448,3.703c-11.789,12.716-21.573,26.855-31.046,41.389
		c-21.066,32.32-41.771,64.963-66.699,94.559c-10.482,12.443-21.363,24.573-32.501,36.435c-20.96,22.322-41.88,44.703-63.486,66.393
		c-21.279,21.36-44.901,39.716-73.938,49.605c-8.113,2.764-16.655,4.266-24.991,6.384c-3.196,0.813-6.392,1.645-9.543,2.612
		c-9.475,2.912-18.845,6.206-28.416,8.753c-8.019,2.134-16.298,3.264-24.395,5.128c-17.799,4.095-35.819,1.846-53.75,2.104
		c-0.97,0.014-2-0.283-2.914-0.652c-24.003-9.738-49.049-17.202-70.334-32.819c-15.91-11.674-28.19-25.771-35.276-44.712
		c-9.187-24.554-13.859-49.786-14.268-75.798c-0.34-21.642,1.243-43.339,0.291-64.938c-0.762-17.292-5.204-33.548-18.044-47.15
		c-17.202-18.22-36.229-34.135-55.409-50.096c-16.35-13.606-31.287-28.849-43.726-46.352c-10.384-14.61-22.436-28.182-31.541-43.521
		c-15.749-26.539-25.661-55.62-29.058-86.361c-2.076-18.786-2.162-37.825-2.503-56.762c-0.325-18.132,6.663-33.315,19.121-46.665
		c11.924-12.78,25.838-22.786,40.047-32.587c0.545-0.376,1.121-0.967,1.704-0.993c14.725-0.672,29.723-4.846,43.68,3.902
		c4.676,2.931,9.791,5.161,13.852,7.27c10.472-11.039,20.092-21.058,29.56-31.216c4.142-4.444,8.994-6.508,15.085-6.27
		c12.624,0.494,25.316,0.119,37.864,1.316c10.459,0.999,20.594,4.193,31.165,5.548c13.92,1.783,25.806,10.053,36.88,20.358
		c4.274-4.241,8.539-7.908,12.127-12.147c9.481-11.198,20.863-16.238,35.96-15.303c18.195,1.126,36.517,0.513,54.775,0.183
		c12.982-0.233,23.489,3.39,32.926,13.173c9.5,9.847,16.835,20.335,21.174,33.241c2.081,6.189,5.272,12.006,8.876,20.033
		c3.925-10.819,6.931-19.396,10.139-27.899c11.382-30.177,23.282-60.166,34.15-90.525c15.016-41.948,28.442-84.48,44.064-126.195
		c19.566-52.245,48.263-99.177,86.383-140.218c10.165-10.942,18.907-23.203,29.022-34.193
		c13.508-14.678,26.218-30.963,44.369-39.804c14.963-7.288,25.221-18.941,36.691-29.922c-6.447-6.12-12.571-12.034-18.809-17.828
		c-7.232-6.72-11.096-14.623-10.413-24.808c0.8-11.909,0.986-23.862,1.39-35.798c0.17-5.041,3.136-8.394,6.208-12.069
		c12.46-14.907,28.882-22.479,46.923-28.65c37.188-12.718,75.071-13.501,113.404-9.199c20.789,2.334,41.491,5.551,62.149,8.881
		c8.092,1.304,15.958,4.005,25.018,6.354c-0.612-8.756-1.395-16.877-1.707-25.018c-0.765-19.924-1.668-39.855-1.812-59.789
		c-0.084-11.596-0.159-23.481,2.172-34.737c3.354-16.186,8.874-31.926,13.556-47.831c0.558-1.893,1.813-3.57,2.485-5.44
		c3.854-10.715,5.271-19.806-5.698-28.88c-11.383-9.415-20.22-21.909-30.859-33.829c-3.676,4.172-7.815,9.186-12.285,13.884
		c-15.828,16.632-31.93,33.007-47.622,49.767c-16.132,17.229-31.909,34.792-47.834,52.214c-5.159,5.645-10.158,11.44-15.463,16.941
		c-29.582,30.672-59.024,61.48-88.958,91.806c-13.309,13.482-27.84,25.749-41.475,38.923c-10.048,9.708-19.217,20.332-29.35,29.946
		c-17.853,16.941-36.021,33.557-54.354,49.977c-3.402,3.049-4.607,6.021-4.526,10.294c0.182,9.662,0.544,19.361-0.058,28.988
		c-0.972,15.552-2.416,31.086-4.126,46.577c-1.188,10.758-6.707,20.08-11.425,29.563c-4.295,8.632-8.493,17.419-13.817,25.417
		c-17.093,25.684-38.473,46.574-67.979,57.748c-4.665,1.767-9.46,3.194-14.091,5.04c-10.327,4.118-20.907,6.425-32.119,6.04
		c-9.643-0.332-19.304-0.068-29.353-0.068c-4.708,10.811-9.334,21.432-13.953,32.055c-0.265,0.61-0.334,1.338-0.702,1.866
		c-13.415,19.287-18.604,42.415-29.521,62.96c-11.766,22.146-28.464,39.021-48.177,53.704
		c-15.486,11.536-32.871,19.035-51.476,22.82c-10.906,2.22-22.549,1.869-33.751,1.094c-4.827-0.333-10.184-3.824-13.888-7.361
		c-8.126-7.759-16.279-15.812-22.693-24.957c-6.784-9.674-11.563-20.753-17.404-31.563c0.043,0.005-0.703-0.331-1.147-0.096
		c-26.604,14.088-53.352,12.436-78.812-1.758c-9.857-5.494-17.575-15.162-25.456-23.678c-2.606-2.817-3.182-7.913-3.783-12.097
		c-1.033-7.198-1.358-14.499-2.086-22.995c-7.878,0-15.842-0.656-23.656,0.145c-13.604,1.395-23.689-5.113-33.174-13.309
		c-4.025-3.478-7.264-7.897-11.421-11.18c-10.158-8.02-12.873-19.037-13.055-31.014c-0.248-16.327-0.34-32.667,0.022-48.989
		c0.305-13.697,6.854-25.578,12.759-37.415c13.307-26.673,30.479-50.686,51.406-71.971c0.427-0.434,0.536-1.18,1.041-2.36
		c-1.798-0.638-3.51-1.656-5.297-1.813c-18.421-1.619-31.884-11.381-44.145-24.6c-12.181-13.134-16.984-28.132-16.539-45.464
		c0.111-4.329,0.468-8.72-0.06-12.987c-2.5-20.22,7.764-35.012,20.353-48.864c2.239-2.465,4.968-4.518,7.009-7.12
		c12.374-15.786,29.828-20.824,48.508-21.576c12.449-0.502,24.417-2.513,36.368-5.481c10.979-2.726,21.991-5.33,32.925-8.224
		c2.811-0.743,6.039-1.731,7.967-3.696c13.544-13.801,30.812-18.998,49.109-22.036c4.59-0.763,9.271-1.219,13.729-2.467
		c4.426-1.238,9.298-2.424,12.809-5.14c18.848-14.583,41.041-18.729,63.743-20.182c27.534-1.763,55.155-2.217,82.746-2.971
		c4.799-0.131,7.972-1.889,11.074-5.401c28.395-32.146,56.561-64.505,85.561-96.099c25.922-28.241,50.768-57.294,70.899-89.952
		c18.892-30.646,40.39-59.371,62.078-87.993c4.808-6.346,10.669-11.895,15.46-18.251c12.793-16.977,24.814-34.551,37.984-51.222
		c15.852-20.064,32.443-39.551,48.947-59.091c21.229-25.138,42.697-50.074,64.046-75.109c5.981-7.014,11.907-14.072,18.919-22.366
		c-21.863-2.74-41.794-6.963-57.762-20.727c-15.11-13.025-29.2-26.823-39.362-44.633c-10.376-18.187-14.937-37.33-14.704-57.9
		c-12.821,1.133-24.642,2.783-36.497,3.077c-15.953,0.396-31.981,0.446-47.886-0.666c-13.691-0.958-25.154-8.266-35.52-16.868
		c-22.36-18.555-40.008-40.639-51.241-67.76c-6.737-16.268-14.672-32.038-21.89-48.111c-4.824-10.742-7.301-21.9-6.809-33.881
		c0.706-17.232-1.257-34.636,3.637-51.556c10.669-36.885,26.059-71.059,54.577-98.135c20.504-19.466,40.161-39.826,60.668-59.29
		c8.124-7.71,17.526-14.072,26.904-21.489c-0.895-1.183-1.705-2.11-2.357-3.139c-6.516-10.282-10.816-21.006-10.158-33.7
		c0.791-15.241-0.103-30.438,3.713-45.596c3.058-12.146,8.479-22.328,17.384-30.721c19.122-18.024,38.063-36.266,57.764-53.643
		c23.678-20.885,47.999-41.047,72.194-61.341c6.845-5.74,14.226-10.843,22.125-16.817c-11.774-5.315-22.753-10.53-33.934-15.268
		c-25.385-10.756-46.166-27.713-64.188-48.104c-12.899-14.595-17.152-32.831-18.081-51.694c-0.736-14.961-0.096-29.988-0.166-44.986
		c-0.054-11.492,3.998-20.67,12.078-29.327c27.511-29.475,62.313-47.31,98.177-63.639c47.979-21.846,98.5-34.093,150.796-39.501
		c3.962-0.41,7.95-0.583,11.929-0.828c3.934-0.242,7.872-0.433,12.331-0.674c0-11.851,0.023-23.105-0.004-34.361
		c-0.104-44.516,0.241-38.442,27.474-65.01c17.274-16.853,37.572-29.682,61.382-35.837c4.477-1.157,9.139-1.981,13.75-2.182
		c49.909-2.177,97.048,8.467,141.991,30.142c27.388,13.209,53.704,27.95,77.043,47.606c3.287,2.767,6.424,5.713,10.443,9.302
		c3.943-6.999,7.727-13.577,11.383-20.227c25.483-46.354,51.11-92.632,76.245-139.176c4.42-8.185,10.366-16.296,9.011-26.656
		c-0.119-0.909,0.143-2.229,0.751-2.817c7.063-6.822,12.207-15.979,22.815-18.501c14.892-3.541,29.687-7.507,44.639-10.755
		c6.444-1.4,13.184-2.037,19.786-2.012c19.632,0.072,39.283,0.235,58.883,1.222c7.868,0.396,15.592,3.212,23.438,4.613
		c21.921,3.911,44.037,6.899,65.779,11.62c54.482,11.832,106.702,30.549,157.346,53.746c24.788,11.354,49.564,22.733,74.318,34.164
		c32.833,15.161,62.026,36.108,91.239,57.097c32.614,23.432,60.949,51.287,88.22,80.651c21.78,23.455,42.525,47.648,61.648,73.218
		c17.833,23.847,32.507,49.581,40.123,78.644c2.413,9.213,3.104,18.923,4.066,28.458c1.194,11.838,1.797,23.733,2.765,35.594
		c0.479,5.879-1.229,10.915-4.211,16.018c-12.415,21.239-24.487,42.677-36.656,64.06c-1.779,3.127-3.399,6.346-5.405,10.105
		c28.946,6.279,58.184,8.141,85.149,23.093c0.193-4.008,0.46-6.517,0.412-9.02c-0.286-14.992,0.706-29.804,3.498-44.627
		c2.384-12.658,2.949-25.652,4.602-38.46c0.356-2.768,1.979-5.359,2.92-8.065c4.6-13.237,11.966-25.429,7.764-40.973
		c-4.177-15.449-3.119-31.688-0.466-47.549c1.574-9.414,5.711-17.663,12.673-24.378c3.357-3.239,7.037-6.266,9.823-9.953
		c6.312-8.354,14.978-10.364,24.659-10.299c4.666,0.032,9.35,0.261,13.995-0.049c12.608-0.839,23.587,2.653,32.765,11.503
		c17.717,17.084,36.869,32.977,49.235,54.743c8.204,14.442,15.836,29.263,22.807,44.338c8.605,18.613,19.919,35.271,33.358,50.603
		c1.494,1.705,3.339,3.103,5.905,5.455c1.664-6.842,3.803-12.681,4.382-18.672c1.005-10.379,7.465-17.499,13.437-24.958
		c2.691-3.361,6.526-5.841,9.042-9.303c6.821-9.394,16.414-11.703,27.15-11.669c6.666,0.021,13.341-0.218,19.995,0.062
		c4.308,0.181,6.698-1.557,8.471-5.367c6.866-14.766,14.014-29.399,20.864-44.172c0.897-1.934,1.35-4.543,0.87-6.572
		c-3.378-14.271-5.197-28.635-5.238-43.361c-0.045-15.93-1.178-31.856-1.861-47.783c-0.595-13.866,2.337-26.29,13.449-35.878
		c2.397-2.068,4.009-5.331,5.304-8.335c2.966-6.876,7.939-12.089,12.677-17.715c9.022-10.719,20.705-13.736,33.751-13.958
		c7.664-0.131,15.346,0.267,22.992-0.104c7.881-0.382,14.338,2.379,19.917,7.596c12.456,11.645,24.036,23.788,30.15,40.381
		c3.889,10.554,9.18,20.625,14.313,30.672c1.917,3.75,4.918,7.059,7.872,10.138c4.857,5.063,7.895,11.084,7.365,17.864
		c-0.792,10.146,3.067,18.833,6.607,27.779c6.347,16.031,12.589,32.103,19.108,48.758c11.921,0,25.188,0.211,38.445-0.069
		c10.03-0.212,19.385,1.857,27.174,8.131c8.255,6.649,16.733,13.373,23.45,21.448c3.922,4.716,5.986,12.042,6.437,18.367
		c1.013,14.248,0.502,28.604,0.608,42.917c0.012,1.615,0.002,3.23,0.002,5.892c20.404-4.9,40.594-3.58,60.721-3.886
		c14.445-0.22,26.881,3.925,36.347,15.217c6.393,7.625,12.97,15.151,18.686,23.268c2.983,4.236,5.884,9.604,6.042,14.551
		c0.436,13.576,0.865,27.451-1.4,40.747c-3.317,19.468-11.518,37.417-22.921,53.755c-8.146,11.671-16.075,23.492-24.122,35.276
		c17.797,9.88,29.877,24.759,40.339,41.077c1.836,2.863,2.4,6.91,2.51,10.442c0.32,10.322,0.662,20.696-0.003,30.984
		c-1.346,20.84-11.24,38.064-24.796,53.232c-31.007,34.694-68.39,61.011-109.514,82.3c-0.884,0.457-1.683,1.079-2.593,1.671
		c0.347,13.834,0.281,27.731,1.148,41.57c1.059,16.891-5.873,29.687-16.971,41.953c-11.139,12.314-24.777,18.548-40.121,22.404
		c-3.822,0.961-7.855,1.4-11.804,1.473c-10.661,0.197-21.337-0.199-31.99,0.162c-7.075,0.239-13.047-1.835-18.501-6.112
		c-5.485-4.301-11.063-8.483-17.369-13.304c-15.76,7.115-33.025,10.027-50.632,11.675c-3.324,0.311-6.838,2.597-9.542,4.841
		c-13.03,10.807-25.237,22.209-35.545,36.01c-20.723,27.75-44.568,52.81-70.593,75.778c-12.218,10.782-23.629,22.476-35.738,33.386
		c-35.557,32.037-71.327,63.837-106.925,95.829c-40.238,36.164-85.352,65.772-129.475,96.729
		c-28.608,20.072-56.732,40.849-85.588,60.554c-33.245,22.703-67.46,43.996-100.501,66.985
		c-28.148,19.583-55.698,39.965-86.572,55.226c-1.477,0.73-2.822,1.729-5.121,3.155c3.418,37.64-6.259,70.937-36.527,94.821
		c6.977,13.438,13.478,25.958,20.25,39.002c1.9-3.115,3.852-6.702,6.167-10.036c7.756-11.168,14.87-22.907,23.674-33.191
		c11.02-12.872,23.13-24.877,35.429-36.562c7.216-6.854,16.005-11.383,26.676-11.015c9.654,0.333,19.347-0.288,28.984,0.223
		c4.835,0.257,10.423,0.856,14.227,3.433c15.528,10.513,28.277,23.414,30.007,43.56c0.88,10.246,1.525,20.518,2.033,30.79
		c0.278,5.62,0.05,11.264,0.05,17.228c14.927,2.551,26.312,10.061,35.796,20.914c5.472,6.26,11.388,12.132,17.108,18.174
		c6.273,6.622,11.483,13.794,11.623,23.283c1.331,0.576,2.242,1.334,3.118,1.297c16.286-0.702,31.574,3.526,46.695,8.975
		c5.272,1.9,10.856,2.996,16.356,4.194c27.589,6.015,53.901,15.483,76.063,33.275c28.479,22.865,48.216,51.629,57.133,87.836
		c7.686,31.207,12.359,62.523,11.426,94.663c-0.568,19.607,0.348,39.36-1.744,58.795c-1.906,17.726-5.925,35.413-10.896,52.571
		c-6.644,22.938-15.527,45.215-22.689,68.015c-11.461,36.483-28.93,69.979-48.827,102.421
		c-25.496,41.568-59.273,75.814-94.151,109.357c-37.914,36.462-79.599,68.55-118.279,104.085
		C2425.313,3150.113,2424.079,3151.661,2422.135,3153.772z M2565.907,1600.918c0.462,0.4,0.924,0.799,1.385,1.2
		c1.162-0.562,2.426-0.975,3.468-1.705c18.788-13.134,37.692-26.108,56.285-39.512c37.205-26.821,73.702-54.572,109.307-83.502
		c4.448-3.613,6.234-7.33,5.654-12.692c-0.715-6.592-1.692-13.18-1.939-19.792c-0.711-18.983-0.077-37.881,4.687-56.438
		c0.497-1.934,0.067-4.105,0.067-6.692c-39.79,13.126-79.107,12.885-119.175,6.003c-0.082,1.372-0.125,3.341-0.329,5.294
		c-1.277,12.137-4.846,22.711-14.198,31.822c-14.595,14.222-29.386,27.967-46.635,38.933c-4.034,2.564-7.686,5.729-11.938,8.938
		c9.86,8.722,15.564,18.701,19.891,29.696c8.58,21.802,10.959,44.407,9.495,67.583c-0.633,10.009-4.409,18.654-11.34,25.915
		C2569.023,1597.611,2567.469,1599.268,2565.907,1600.918z"/>
	<path fill-rule="evenodd" clip-rule="evenodd" d="M628.831,1558.09c-15.816,11.49-30.391,23.197-49.139,25.732
		c-28.505,3.857-57.072,4.267-85.012-4.36c-10.044-3.101-18.613-9.056-26.109-16.187c-8.913-8.479-17.601-17.282-25.598-26.62
		c-16.176-18.888-26.148-41.263-29.785-65.484c-2.441-16.253-1.105-33.227-0.104-49.794c0.736-12.166,6.61-22.828,14.542-32.193
		c8.58-10.133,16.74-20.643,25.677-30.446c9.449-10.364,21.68-15.229,35.727-14.801c13.94,0.425,27.973,0.426,41.772,2.16
		c11.452,1.439,22.621,5.125,34.566,7.97c0.636-4.189,0.842-8.722,2.044-12.971c7.854-27.722,39.457-66.666,78.968-66.213
		c21.282,0.243,42.597-1.339,63.856-0.718c17.227,0.505,32.08,8.753,44.64,20.032c12.607,11.32,24.407,23.547,34.26,37.552
		c6.097,8.668,10.449,17.781,10.743,28.404c0.58,20.936,1.384,41.875-3.505,62.557c-2.381,10.072-7.894,18.179-14.258,25.899
		c-2.109,2.558-4.941,4.534-6.977,7.14c-6.578,8.424-14.453,13.076-25.717,11.515c-3.056-0.425-6.674,1.992-9.81,3.557
		c-10.872,5.428-15.772,13.714-13.583,26.318c1.002,5.772,0.706,12.171-0.717,17.858c-1.724,6.894-4.058,14.266-8.302,19.747
		c-6.026,7.786-13.65,14.501-21.294,20.827c-9.604,7.948-21.006,11.029-33.545,9.459c-2.295-0.287-4.668-0.178-6.989-0.017
		C645.639,1565.674,636.587,1564.455,628.831,1558.09z"/>
	<path fill-rule="evenodd" clip-rule="evenodd" d="M2388.729,476.008c8.704-25.431,25.353-43.84,42.727-61.845
		c12.086-12.523,26.613-18.266,43.789-18.174c15.664,0.084,31.338,0.362,46.991-0.072c18.859-0.523,34.262,6.82,47.666,19.368
		c2.431,2.276,4.646,4.785,7.092,7.046c19.037,17.596,26.539,39.999,26.953,65.228c0.181,10.981-0.172,21.975-0.413,32.959
		c-0.276,12.584-3.934,24.285-10.188,35.093c-10.657,18.413-21.586,36.619-37.938,50.871c-4.006,3.493-7.841,6.175-13.261,5.462
		c-4.733-0.622-8.304,1.432-11.704,4.363c-5.54,4.774-11.671,8.956-16.697,14.205c-6.611,6.904-14.61,8.789-23.505,8.547
		c-7.074-0.193-13.096,0.779-19.256,5.608c-12.392,9.709-27.36,13.182-43.049,13.292c-5.665,0.04-11.349-0.269-16.994,0.063
		c-12.788,0.753-24.752-0.583-32.937-11.905c-6.28,2.252-9.18,6.366-12.403,11.283c-8.438,12.869-19.084,23.097-36.476,21.784
		c-6.959-0.525-13.995-0.236-20.99-0.058c-22.725,0.581-42.803-7.49-59.718-21.546c-13.204-10.973-24.708-24.208-35.821-37.404
		c-7.809-9.272-11.415-20.86-11.244-33.366c0.187-13.663-0.601-27.366,0.174-40.986c1.729-30.445,12.154-57.017,33.061-80.21
		c20.079-22.278,45.387-28.7,73.246-30.42c6.641-0.41,13.328-0.013,19.994-0.07c13.387-0.118,24.655,4.886,34.098,14.162
		C2370.68,457.884,2379.311,466.607,2388.729,476.008z"/>
	<path fill-rule="evenodd" clip-rule="evenodd" d="M2973.79,1995.068c17.104-31.194,41.079-53.784,69.71-71.498
		c6.492-4.017,14.873-6.014,22.601-6.788c16.82-1.688,33.971-3.219,50.208,3.385c13.328,5.42,25.659,12.645,35.34,23.691
		c1.971,2.25,4.082,4.417,6.358,6.354c20.141,17.127,27.985,40.051,29.637,65.319c0.954,14.572-0.102,29.279-0.34,43.924
		c-0.135,8.326-3.313,15.456-8.894,21.582c-2.46,2.699-4.733,5.574-7.266,8.2c-7.959,8.258-16.674,15.517-21.153,26.964
		c-4.422,11.298-14.292,19.078-23.246,27.021c-3.132,2.778-7.355,4.396-11.219,6.255c-2.686,1.293-5.67,1.95-8.414,3.138
		c-14.544,6.292-29.524,9.939-45.542,8.356c-5.312-0.524-10.526-0.295-14.908,3.891c-1.463,1.397-4.271,1.936-6.464,1.932
		c-16.185-0.028-32.733,2.428-47.773-6.338c-0.522-0.305-1.274-0.214-2.074-0.329c-7.026,7.35-14.132,14.736-21.189,22.171
		c-9.661,10.182-21.063,15.707-35.514,14.697c-15.239-1.063-30.542-1.181-45.785-2.201c-12.117-0.813-21.659-6.752-30.59-15.037
		c-17.942-16.647-31.009-36.296-40.032-58.858c-3.49-8.728-5.616-17.686-5.27-27.164c0.451-12.28,1.063-24.563,1.088-36.846
		c0.028-13.559,5.827-24.395,14.881-33.8c9.428-9.796,17.757-20.941,30.151-27.322c4.253-2.19,9.321-3.425,14.118-3.793
		c7.947-0.611,15.977-0.109,23.971-0.185c6.574-0.062,13.359,1.137,19.242-3.335c0.92-0.698,2.564-0.627,3.869-0.604
		C2937.81,1988.171,2956.739,1985.225,2973.79,1995.068z"/>
	<path fill-rule="evenodd" clip-rule="evenodd" fill="#FFFFFF" d="M2565.907,1600.918c1.562-1.65,3.116-3.307,4.685-4.95
		c6.931-7.261,10.707-15.905,11.34-25.915c1.464-23.176-0.915-45.782-9.495-67.583c-4.326-10.995-10.03-20.974-19.891-29.696
		c4.252-3.208,7.903-6.374,11.938-8.938c17.249-10.965,32.04-24.711,46.635-38.933c9.353-9.111,12.921-19.685,14.198-31.822
		c0.204-1.953,0.247-3.922,0.329-5.294c40.067,6.882,79.385,7.123,119.175-6.003c0,2.587,0.43,4.759-0.067,6.692
		c-4.764,18.557-5.397,37.455-4.687,56.438c0.247,6.612,1.225,13.2,1.939,19.792c0.58,5.362-1.206,9.079-5.654,12.692
		c-35.604,28.93-72.102,56.682-109.307,83.502c-18.593,13.403-37.497,26.377-56.285,39.512c-1.042,0.729-2.306,1.143-3.468,1.705
		C2566.831,1601.717,2566.369,1601.318,2565.907,1600.918z"/>
</g>
</svg>
