<?xml version="1.0" encoding="utf-8"?>
<!-- Generator: Adobe Illustrator 16.0.2, SVG Export Plug-In . SVG Version: 6.00 Build 0)  -->
<!DOCTYPE svg PUBLIC "-//W3C//DTD SVG 1.1//EN" "http://www.w3.org/Graphics/SVG/1.1/DTD/svg11.dtd">
<svg version="1.1" id="Layer_1" xmlns="http://www.w3.org/2000/svg" xmlns:xlink="http://www.w3.org/1999/xlink" x="0px" y="0px"
	 width="3701.537px" height="3953.506px" viewBox="0 0 3701.537 3953.506" enable-background="new 0 0 3701.537 3953.506"
	 xml:space="preserve">
<g>
	<path fill-rule="evenodd" clip-rule="evenodd" fill="#FFFFFF" d="M3705.424,3957.392c-1234.55,0-2468.987,0-3703.312,0
		c0-1318.539,0-2636.965,0-3955.279c1234.55,0,2468.987,0,3703.312,0C3705.424,1320.652,3705.424,2639.078,3705.424,3957.392z
		 M2261.017,3215.567c2.286,2.906,4.715,5.637,6.74,8.642c4.818,7.147,9.554,14.354,14.124,21.662
		c7.558,12.087,15.325,24.063,22.34,36.463c10.764,19.025,21.182,38.256,31.346,57.609c11.714,22.309,23.271,44.71,34.383,67.323
		c11.99,24.399,23.211,49.177,35.094,73.632c10.998,22.636,22.363,45.095,33.687,67.572c9.251,18.365,19.405,36.156,32.107,52.462
		c9.34,11.991,18.318,24.301,26.837,36.888c13.833,20.439,29.939,38.975,46.441,57.21c16.063,17.749,31.924,35.694,48.447,53.007
		c10.779,11.293,22.254,21.984,34.031,32.241c9.494,8.27,20.446,14.892,29.745,23.351c7.576,6.893,15.459,12.457,25.295,15.289
		c2.167,0.624,4.55,1.48,6.144,2.969c14.132,13.198,29.534,24.697,45.972,34.826c3.629,2.237,7.312,4.723,11.319,5.95
		c14.235,4.361,28.521,8.644,42.99,12.111c7.64,1.831,15.679,2.274,23.572,2.69c8.31,0.438,16.66,0.169,24.99,0.055
		c2.628-0.036,5.392-0.135,7.852-0.941c15.149-4.967,30.426-9.638,45.279-15.389c16.195-6.269,31.192-14.725,43.184-27.816
		c11.224-12.252,18.809-26.75,24.251-42.043c6.233-17.515,7.807-36.144,8.807-54.701c0.158-2.942,0.457-5.957,1.265-8.772
		c8.114-28.306,18.697-55.938,20.948-85.763c0.802-10.62,4.984-20.43,14.216-27.364c8.996-6.759,17.426-14.272,26.396-21.069
		c12.134-9.193,24.824-17.667,36.76-27.103c11.657-9.217,21.333-20.7,35.526-26.971c7.981-3.525,15.118-9.564,21.715-15.496
		c12.578-11.309,25.239-22.687,36.485-35.271c11.769-13.166,19.532-29.235,27.127-45.125c3.116-6.52,5.439-13.521,7.279-20.526
		c3.653-13.917,3.489-28.228,3.626-42.518c0.154-16.035-4.062-30.785-11.98-44.523c-11.85-20.56-26.979-38.514-43.562-55.441
		c-16.946-17.3-37.413-19.523-59.654-15.887c-6.063,0.991-12.085,2.223-17.571,3.24c-2.391-4.919-3.539-9.456-6.307-12.547
		c-6.79-7.586-13.703-15.337-21.789-21.388c-5.023-3.761-12.328-4.405-18.523-6.681c-19.246-7.069-39.141-8.177-58.816-3.804
		c-18.669,4.15-37.121,9.858-52.132,22.43c-6.306-5.148-12.234-9.955-18.126-14.809c-6.394-5.266-13.506-8.008-21.991-7.69
		c-7.964,0.299-16.298,1.126-23.866-0.733c-12.803-3.146-25.589-3.313-38.5-3.118c-11.388,0.172-21.049,3.922-29.467,12.28
		c-9.867,9.798-17.362,20.736-22.82,33.465c-2.756,6.423-4.916,13.731-12.424,17.911c-2.834-9.694-5.513-18.864-8.197-28.033
		c-1.955-6.678-4.12-13.302-5.835-20.04c-4.415-17.349-8.538-34.772-12.96-52.119c-3.345-13.121-6.857-26.201-10.505-39.242
		c-3.39-12.122-6.876-24.224-10.643-36.233c-5.353-17.065-10.929-34.063-16.545-51.044c-4.37-13.22-8.704-26.46-13.502-39.526
		c-4.45-12.125-9.198-24.161-14.34-36.009c-8.837-20.358-15.911-41.519-28.264-60.288c-11.837-17.985-22.507-36.757-34.735-54.461
		c-17.93-25.96-38.836-48.94-69.511-60.382c-4.515-1.685-6.692-4.694-8.177-9.144c-1.751-5.248-3.996-10.464-6.886-15.164
		c-2.916-4.742-6.885-8.836-9.175-11.694c5.258-6.304,10.043-12.704,15.531-18.432c5.338-5.571,8.632-11.418,8.06-19.456
		c-0.52-7.295-0.503-14.683-0.014-21.981c0.672-10.015-3.041-17.955-9.322-25.47c-13.164-15.746-29.715-27.494-45.765-39.855
		c-1.787-1.376-4.094-2.238-6.293-2.892c-20.854-6.2-42.229-8.835-63.934-9.024c-22.641-0.197-45.197,1.068-67.616,4.304
		c-14.773,2.132-29.782,3.06-43.617,9.718c-4.552,2.19-9.72,3.099-15.271,4.795c0-5.165-0.973-9.438,0.182-13.027
		c3.443-10.702,6.872-21.561,11.886-31.566c6.143-12.258,8.108-25.139,8.975-38.396c1.569-24.031-3.448-47.648-4.751-71.501
		c-0.487-8.932-1.808-18.096-0.436-26.789c2.485-15.736,2.375-31.48-1.809-46.384c-5.085-18.12-9.465-36.715-18.658-53.485
		c-2.318-4.228-1.706-7.927,0.645-12.055c4.082-7.169,8.208-14.426,11.151-22.093c2.2-5.73,2.925-12.121,3.686-18.294
		c2.073-16.818,3.693-33.563,0.426-50.578c-1.844-9.598-1.361-19.642-1.93-29.538c3.375-0.671,5.294-1.128,7.239-1.425
		c15.081-2.298,30.24-4.17,45.231-6.949c15.603-2.892,31.009-6.827,46.564-9.994c33.47-6.816,66.979-13.442,100.476-20.125
		c6.489-1.295,12.986-2.544,19.495-3.733c16.296-2.979,32.669-5.575,48.883-8.943c23.271-4.831,46.543-9.745,69.589-15.524
		c14.725-3.693,29.188-8.606,43.503-13.712c15.601-5.563,30.726-12.476,46.368-17.904c20.327-7.055,40.896-13.432,61.484-19.698
		c11.739-3.573,23.769-6.18,35.576-9.541c6.706-1.91,13.232-4.453,19.829-6.739c4.056-1.406,8.087-2.879,12.137-4.3
		c15.263-5.355,30.681-10.31,45.755-16.149c19.676-7.621,39.125-15.838,58.582-24.01c8.512-3.574,16.625-8.145,25.245-11.397
		c8.512-3.213,16.826-6.98,26.808-4.627c7.962,1.878,16.516,1.28,24.811,1.713c6.602,0.345,13.21,0.586,20.263,0.892
		c2.934,5.891,5.613,11.525,8.543,17.026c1.067,2.005,2.521,3.903,4.148,5.492c7.384,7.207,15.001,14.179,22.327,21.443
		c6.595,6.54,14.916,8.643,23.615,9.037c12.932,0.588,25.812,0.506,38.357-4.052c10.235-3.72,21.264-5.549,29.861-12.887
		c9.525-8.13,20.28-15.337,23.519-28.649c2.327-9.563,4.607-19.137,6.833-28.392c6.052,0.317,12.271,1.044,18.469,0.895
		c19.615-0.475,39.264-0.722,58.819-2.146c13.189-0.961,26.15-3.984,38.474-9.335c13.052-5.666,26.365-10.731,39.453-16.318
		c10.032-4.283,20.136-8.507,29.767-13.593c12.646-6.68,22.008-17.239,29.616-29.075c2.708-4.211,4.13-9.823,4.437-14.897
		c0.942-15.579,1.461-31.213,1.263-46.814c-0.063-4.982-1.703-10.828-4.673-14.708c-6.57-8.586-14.441-16.177-22.27-24.704
		c2.621-1.999,5.684-4.405,8.82-6.711c3.687-2.711,7.623-5.112,11.121-8.042c9.17-7.684,18.274-15.458,27.195-23.431
		c9.649-8.623,19.119-17.451,28.552-26.312c4.721-4.433,7.48-9.801,8.458-16.441c2.057-13.974,0.759-27.778-0.603-41.669
		c-0.611-6.254-2.9-11.423-6.642-16.316c-8.742-11.434-18.275-22.018-31.006-29.124c-14.137-7.892-28.07-16.406-45.157-16.327
		c-3.182,0.015-6.367-0.956-10.942-1.697c2.344-2.98,3.735-5.081,5.449-6.871c8.18-8.542,16.009-18.469,17.292-29.678
		c2.054-17.938,5.953-36.865-9.09-52.837c-12.183-12.935-23.476-26.282-42.172-29.75c-2.756-0.511-5.275-2.296-7.091-3.122
		c1.022-29.134,2.308-57.331,2.877-85.541c0.28-13.932-1.142-27.891-1.109-41.836c0.041-17.286,1.537-34.596,0.951-51.847
		c-0.35-10.292,0.591-21.741-7.449-30.142c-8.031-8.392-16.648-16.244-25.309-23.999c-2.032-1.82-5.267-3.223-7.952-3.232
		c-12.975-0.042-26.013-0.211-38.903,1c-8.447,0.794-17.036,3.07-23.514,9.513c-12.264,12.197-24.579,24.345-36.659,36.72
		c-7.371,7.551-10.98,17.186-13.885,27.131c-1.75,5.989-2.985,12.299-5.802,17.77c-5.097,9.906-9.83,20.485-9.323,31.144
		c0.715,15.041-5.679,23.778-17.313,31.597c-8.713,5.856-15.971,13.876-24.65,21.625c-16.838-13.359-36.675-10.235-55.565-9.45
		c-19.852,0.824-36.236,11.135-50.855,27.256c-3.835-13.315-7.751-24.563-10.237-36.118c-3.266-15.172-5.679-30.545-7.959-45.906
		c-2.82-18.991-5.228-38.045-7.624-57.096c-1.679-13.34-5.021-26.171-14.327-36.196c-7.445-8.021-15.914-15.128-24.262-22.249
		c-2.053-1.753-5.386-2.689-8.17-2.779c-9.987-0.323-19.996-0.285-29.988-0.025c-3.257,0.084-6.866,0.558-9.665,2.061
		c-12.854,6.898-23.767,16.71-30.872,29.076c-6.508,11.327-10.405,24.305-14.279,36.917c-1.567,5.105-3.888,8.909-7.451,12.465
		c-9.435,9.414-19.638,18.228-27.946,28.558c-10.133,12.599-19.374,26.069-27.626,39.978c-6.523,10.995-12.609,22.765-16.008,34.992
		c-7.475,26.885-8.55,54.406-1.356,81.682c2.181,8.271,6.994,15.888,8.846,24.195c2.983,13.396,12.386,21.667,21.465,30.384
		c3.346,3.212,7.055,6.083,10.802,8.833c12.224,8.97,25.606,15.39,40.905,16.61c15.896,1.267,31.841,1.917,47.751,3.017
		c2.955,0.205,5.85,1.265,9.217,2.031c-6.313,9.086-11.973,16.824-17.203,24.844c-11.795,18.085-21.957,36.842-24.645,58.835
		c-1.237,10.128-2.559,10.834-13.266,12.285c-2.955,0.4-5.854,1.199-8.782,1.799c-23.045,4.724-46.144,9.21-69.124,14.23
		c-22.647,4.947-45.231,10.208-67.734,15.774c-11.592,2.867-22.895,6.885-34.42,10.039c-13.4,3.668-26.84,7.245-40.382,10.341
		c-15.462,3.537-30.96,7.107-46.617,9.537c-14.719,2.284-29.664,3.12-44.515,4.541c-1.813,0.174-3.658,0.023-5.176,0.023
		c-0.535-1.421-0.955-2.021-0.959-2.622c-0.082-11.663,0.156-23.335-0.275-34.984c-0.217-5.817,1.187-10.415,5.922-13.84
		c8.021-5.802,11.002-13.633,9.549-23.322c-0.195-1.304-0.22-2.695,0.004-3.99c1.518-8.816-2.071-15.293-8.765-20.741
		c-4.063-3.305-6.99-7.543-13.482-7.063c-6.934,0.513-6.987-0.216-8.062-8.477c25.945-6.984,31.273-9.549,51.309-30.097
		c5.313-5.449,9.783-11.716,14.679-17.575c10.134-12.123,18.955-25.642,22.06-40.799c2.946-14.383,1.498-29.709,1.517-44.621
		c0.005-3.834-1.31-7.845-2.767-11.473c-4.296-10.693-8.965-21.234-13.863-32.711c12.069-3.431,21.732-10.733,30.934-18.992
		c14.422-12.942,28.512-26.09,35.332-44.875c2.806-7.729,5.563-15.646,6.827-23.714c1.278-8.152,0.104-16.663,1.022-24.903
		c2.068-18.582-6.596-32.897-18.014-45.811c-10.573-11.958-21.979-23.198-33.314-34.458c-16.896-16.784-37.533-27.071-60.311-33.166
		c-10.025-2.683-20.274-4.523-31.321-6.943c17.365-25.24,32.697-50.486,52.082-72.917c2.362-2.734,3.908-7.158,3.886-10.787
		c-0.067-11.216-1.098-22.426-1.686-33.641c-0.059-1.104,0.359-2.231,0.794-4.693c13.23,13.155,28.502,15.879,45.009,14.997
		c7.977-0.426,15.998,0.085,23.99-0.155c4.076-0.122,7.494,0.152,11.092,2.877c5.364,4.064,11.784,5.722,18.797,5.302
		c7.306-0.438,14.658-0.122,21.99-0.094c21.356,0.084,41.062-3.871,54.906-22.292c0.396-0.528,0.986-0.908,1.393-1.43
		c2.687-3.457,6.172-4.501,10.516-4.358c8.323,0.274,16.664,0.212,24.992,0.037c7.745-0.161,14.795-2.282,21.691-6.266
		c13.309-7.688,23.632-18.746,32.761-30.377c10.214-13.014,18.03-27.961,18.667-45.348c0.486-13.283,1.683-26.611,1.031-39.845
		c-0.72-14.651-4.108-28.905-12.634-41.417c-8.682-12.741-19.108-23.94-30.615-34.07c-10.264-9.035-22.343-13.805-36.241-14.804
		c-20.35-1.463-40.526-0.208-60.712,1.94c-7.563,0.806-14.059,4.122-19.321,9.493c-7.862,8.023-15.464,16.302-23.415,24.726
		c-1.463-0.979-3.502-2.115-5.276-3.572c-9.747-7.999-20.844-11.324-33.424-10.463c-6.303,0.433-12.664,0.228-18.991,0.048
		c-20.895-0.593-38.387,5.138-52.986,21.733c-16.087,18.285-28.453,37.478-30.154,62.317c-0.056,0.808-0.636,1.579-1.357,3.274
		c-2.688-3.453-5.235-6.049-6.996-9.099c-12.623-21.863-26.479-42.862-42.892-62.097c-13.356-15.652-26.124-31.873-40.313-46.736
		c-25.503-26.719-52.299-52.189-82.079-74.185c-20.54-15.17-41.069-30.535-62.789-43.881
		c-22.567-13.868-46.189-26.185-70.048-37.741c-20.862-10.105-42.444-18.881-64.176-26.99c-17.036-6.355-34.841-10.626-52.21-16.125
		c-25.57-8.092-50.979-16.708-76.607-24.605c-15.188-4.679-30.545-8.983-46.066-12.345c-9.98-2.162-20.398-3.161-30.619-3.164
		c-17.564-0.006-35.204-2.117-52.708,2.191c-11.898,2.929-24.069,5.402-36.251,6.339c-11.014,0.848-15.391,9.55-22.447,15.198
		c-5.127,4.102-3.782,9.719-3.496,14.818c0.4,7.17-1.682,12.732-6.861,17.844c-15.936,15.726-28.47,34.087-39.983,53.185
		c-5.833,9.674-11.266,19.638-17.731,28.876c-13.66,19.518-27.88,38.645-42.148,58.315c-10.219-9.351-20.787-19.382-31.759-28.948
		c-8.495-7.407-16.991-15.008-26.398-21.12c-12.219-7.939-25.232-14.692-38.106-21.58c-15.812-8.461-32.074-16.32-49.47-20.635
		c-32.325-8.018-65.133-13.134-98.653-11.664c-13.9,0.609-27.748,3.673-38.494,11.896c-13.349,10.216-25.737,22.005-35.229,36.465
		c-4.036,6.147-6.63,11.956-5.96,19.306c0.886,9.722-0.503,19.116-4.095,28.301c-1.393,3.561-1.596,7.693-1.784,11.593
		c-0.282,5.839-0.073,11.703-0.073,17.843c-3.756,0.182-6.049,0.504-8.313,0.364c-8.278-0.51-16.539-1.538-24.82-1.717
		c-33.639-0.729-67.176,0.301-100.313,6.939c-11.046,2.213-22.315,3.667-33.083,6.827c-21.801,6.399-41.047,18.484-60.78,29.322
		c-18.257,10.028-33.581,23.852-47.67,39.087c-11.486,12.421-21.232,25.943-22.175,43.467c-0.786,14.6-0.294,29.273-0.154,43.912
		c0.021,2.224,0.872,4.615,1.923,6.623c5.04,9.636,9.434,19.423,17.071,27.775c13.897,15.197,26.363,31.752,42.617,44.643
		c5.918,4.694,12.468,8.69,19.066,12.407c8.503,4.79,17.343,8.978,26.57,13.697c-1.609,1.745-2.555,3.124-3.819,4.085
		c-11.618,8.843-23.139,17.825-34.976,26.368c-30.288,21.86-58.13,46.495-84.291,73.112c-14.953,15.213-29.085,30.79-38.516,50.418
		c-5.336,11.105-10.848,22.061-11.966,34.247c-1.062,11.559-0.232,23.301-0.017,34.958c0.034,1.854,0.986,3.813,1.911,5.508
		c3.434,6.293,7.033,12.496,10.743,19.035c-2.097,1.632-3.544,2.974-5.188,4c-17.723,11.086-35.916,21.487-53.103,33.346
		c-18.662,12.875-35.088,28.459-48.615,46.834c-3.143,4.269-5.972,8.777-8.797,13.269c-8.106,12.885-16.909,25.415-23.964,38.857
		c-6.107,11.638-10.779,24.139-15.013,36.623c-3.932,11.591-8.125,23.514-9.197,35.558c-1.679,18.856-0.908,37.936-0.979,56.921
		c-0.015,3.96,0.162,8.144,1.389,11.847c4.683,14.139,9.766,28.149,14.869,42.144c0.889,2.435,2.4,4.719,3.973,6.81
		c5.978,7.944,12.461,15.531,18.096,23.707c14.13,20.504,31.889,35.398,57.343,39.333c6.2,0.958,12.625,1.683,18.393,3.932
		c8.855,3.451,17.779,5.199,27.209,5.097c10.558-0.113,21.118-0.025,33.079-0.025c0,13.575-0.276,26.161,0.078,38.729
		c0.356,12.655,7.686,23.104,11.574,34.634c4.258,12.627,15.165,19.8,22.893,31.847c-1.974,1.299-4.058,2.433-5.871,3.901
		c-10.772,8.731-21.478,17.546-32.214,26.32c-10.284,8.404-20.439,16.973-30.902,25.146c-12.788,9.984-25.812,19.668-38.78,29.418
		c-13.506,10.152-26.947,20.396-40.638,30.294c-19.027,13.757-38.364,27.086-57.375,40.866
		c-15.302,11.091-30.066,22.936-45.522,33.801c-20.592,14.477-41.593,28.373-62.483,42.423c-6.849,4.606-14.1,8.636-20.816,13.42
		c-18.038,12.847-35.852,26.009-53.833,38.936c-5.574,4.008-11.401,7.664-17.274,11.59c-7.726-6.453-14.806-12.429-21.968-18.303
		c-1.497-1.229-3.173-2.475-4.979-3.054c-13.186-4.232-26.358-8.534-39.673-12.328c-8.292-2.362-17-3.314-25.217-5.875
		c-22.581-7.037-45.809-7.266-69.1-7.95c-12.565-0.37-25.148-1.831-37.61-3.594c-16.221-2.294-32.392-3.042-48.698-1.44
		c-8.235,0.81-16.603,2.388-24.574-1.309c-5.705-2.646-11.271-5.595-16.901-8.401c-12.727-6.347-25.141-14.513-39.712-14.773
		c-26.197-0.468-52.633-2.729-78.335,5.124c-2.522,0.771-5.44,0.772-7.619,2.066c-22.254,13.214-36.293,31.732-36.772,58.611
		c-0.19,10.661,0.146,21.333-0.104,31.992c-0.139,5.948,1.34,11.159,5.06,15.733c8.576,10.548,16.803,21.414,25.905,31.488
		c7.343,8.126,15.76,15.28,24.358,23.494c-2.999,1.64-4.72,2.529-6.394,3.503c-14.931,8.677-30.982,15.91-44.535,26.376
		c-24.962,19.28-48.156,40.757-67.169,66.274c-6.684,8.971-10.938,18.827-11.091,30.109c-0.177,12.995-0.408,26.008,0.04,38.99
		c0.746,21.604,11.513,37.108,30.887,46.092c6.991,3.241,15.014,4.257,22.373,6.237c-0.874,4.549-2.366,9.252-2.568,14.01
		c-0.41,9.648-0.605,19.359,0.065,28.978c0.381,5.468,1.309,11.738,4.305,16.033c10.647,15.263,24.172,26.561,44.407,25.614
		c11.196-0.524,22.387-1.169,34.419-1.803c0,7.779-0.649,16.132,0.176,24.338c0.888,8.835,0.84,19.024,5.317,25.97
		c8.688,13.477,19.09,26.628,36.734,29.729c3.564,0.627,7.273,0.64,10.912,0.601c21.31-0.225,42.625-0.308,63.922-0.951
		c9.19-0.279,18.665-0.364,26.773-5.98c8.113-5.62,16.419-10.984,24.305-16.908c14.563-10.938,27.633-23.826,43.711-32.809
		c6.348-3.546,12.535-7.589,18.153-12.188c10.478-8.578,20.485-17.73,31.646-27.479c5.846,1.019,12.943,3.037,20.116,3.363
		c22.927,1.041,45.879,1.591,68.828,2.012c5.598,0.103,11.402-0.304,16.795-1.698c18.066-4.672,33.342-14.63,46.718-27.271
		c14.019-13.249,27.563-27.019,40.946-40.915c8.097-8.407,14.651-17.925,17.408-29.653c2.961-12.594,6.2-25.123,9.458-37.645
		c0.558-2.142,1.252-4.876,2.836-6.021c9.599-6.938,18.76-15.247,31.77-14.577c5.455,0.28,9.315-1.584,13.221-5.369
		c3.425-3.32,7.835-6.31,12.347-7.7c17.724-5.462,35.671-10.188,53.512-15.271c19.78-5.637,39.552-11.299,59.287-17.089
		c6.091-1.788,12.047-4.033,18.065-6.067c0.409,0.705,0.819,1.409,1.229,2.114c-4.575,4.336-9.414,8.429-13.678,13.053
		c-12.165,13.188-24.354,26.432-32.588,42.596c-5.706,11.204-11.178,22.544-16.261,34.043c-3.055,6.914-7.061,14.187-7.298,21.407
		c-0.488,14.856-2.414,29.93,1.483,44.741c0.527,2.006-0.485,4.464-0.956,6.677c-2.742,12.903-6.906,25.68-8.015,38.72
		c-2.055,24.188-0.074,48.422,1.294,72.689c1.717,30.448,9.43,59.531,16.152,88.887c3.028,13.224,7.219,26.234,11.665,39.07
		c5.857,16.915,11.419,34.069,19.053,50.2c9.469,20.005,20.592,39.17,33.343,57.486c15.771,22.656,32.997,44.031,51.111,64.758
		c12.883,14.74,25.744,29.517,39.135,43.789c12.71,13.547,25.978,26.581,39.225,39.611c11.538,11.35,23.389,22.379,35.098,33.548
		c-6.127,7.927-10.888,15.218-16.794,21.415c-6.155,6.457-13.519,11.744-20.171,17.744c-21.427,19.326-42.408,39.148-66.42,55.414
		c-12.48,8.454-25.793,15.095-39.823,20.36c-11.172,4.193-22.835,7.229-33.686,12.104c-27.625,12.41-56.371,21.691-84.984,31.315
		c-6.863,2.308-12.852,5.433-18.057,10.127c-7.903,7.129-15.859,14.254-23.157,21.982c-5.185,5.492-9.926,11.611-13.807,18.085
		c-9.937,16.576-7.362,34.85-4.253,52.329c1.597,8.983,8.02,17.109,12.616,26.334c-8.612,7.719-9.595,19.126-10.313,30.264
		c-0.727,11.285-0.923,22.718,0.05,33.966c1.019,11.79,3.105,23.4,11.346,33.199c11.199,13.315,23.958,24.854,37.149,36.056
		c16.306,13.844,34.719,21.63,56.404,21.396c10.125-0.11,20.259,0.73,29.827,1.117c-1.675,7.896-4.127,15.183-4.578,22.593
		c-0.646,10.592-1.013,21.459,0.631,31.873c2.744,17.389,24.677,37.51,43.391,38.852c16.902,1.212,33.877,2.165,50.809,2.01
		c16.169-0.147,30.146-6.905,42.155-17.762c6.162-5.57,12.903-10.535,18.777-16.383c12.26-12.2,24.118-24.806,36.141-37.244
		c9.13-21.3,28.654-35.587,38.009-56.919c4.753-10.836,12.38-20.378,17.931-30.914c2.39-4.538,5.333-6.226,9.99-6.556
		c24.928-1.762,49.196-7.099,73.217-13.723c20.21-5.572,40.776-9.268,61.705-10.164c29.458-1.263,58.071-7.002,85.811-16.473
		c22.973-7.842,41.547-22.438,54.781-42.894c8.276-12.794,15.392-26.357,22.725-39.741c6.384-11.653,12.062-23.583,12.264-37.36
		c0.258-17.621,1.187-35.241,1.038-52.854c-0.078-9.224-1.456-18.496-2.922-27.639c-3.208-20.004-7.219-39.877-15.022-58.686
		c-5.56-13.398-11.504-26.653-17.796-39.723c-3.432-7.131-8.077-13.666-11.947-20.598c-15.505-27.776-30.928-55.6-46.366-83.413
		c-5.124-9.229-10.204-18.482-16.063-29.1c9.596-0.899,17.802-1.461,25.948-2.503c5.526-0.707,11.167-1.501,16.4-3.296
		c9.362-3.209,18.418-7.302,27.677-10.831c4.955-1.89,10.625-2.486,14.981-5.237c8.061-5.087,14.215-3.204,20.143,3.059
		c1.144,1.207,2.369,2.35,3.647,3.414c12.777,10.639,25.646,20.929,41.673,26.758c9.868,3.59,19.237,8.613,27.777,15.061
		c3.634,2.743,8.077,4.558,12.364,6.264c12.03,4.794,24.227,9.169,36.255,13.967c22.545,8.993,45.379,16.851,69.299,21.584
		c12.283,2.431,24.356,6.226,36.254,10.213c17.69,5.927,35.595,10.121,54.297,11.258c12.894,0.783,25.751,2.489,38.564,4.23
		c11.444,1.554,22.759,4.946,34.211,5.377c27.614,1.038,55.275,0.816,82.917,1.104c3.998,0.042,7.997,0.037,11.994,0.146
		c21.276,0.589,42.58,2.142,63.821,1.522c17.513-0.512,34.956-3.537,52.42-5.548c7.082-0.815,14.134-1.893,22.242-2.993
		c0,10.153,0.117,19.095-0.035,28.032c-0.136,8.027,0.214,15.858,3.328,23.492c3.107,7.618,5.942,15.399,8.179,23.312
		c6.692,23.695,18.293,44.059,38.731,58.555c2.852,2.022,6.323,4.178,9.626,4.381c12.613,0.779,25.278,1.055,37.917,0.896
		c3.303-0.042,7.241-1.562,9.742-3.726C2245.339,3231.007,2252.566,3223.647,2261.017,3215.567z M986.865,714.999
		c-17.119-0.351-33.723-0.993-50.325-0.932c-12.449,0.047-24.977,1.674-34.655,10.34c-8.904,7.974-17.293,16.675-24.908,25.883
		c-4.774,5.773-8.156,12.863-11.353,19.739c-5.13,11.031-6.721,22.82-6.112,34.992c0.61,12.244-1.647,24.775,2.965,36.604
		c7.278,18.665,16.13,36.123,30.536,50.912c18.749,19.247,39.729,30.691,67.24,27.443c2.958-0.35,6.018-0.291,8.989-0.002
		c9.36,0.91,17-2.219,22.99-9.39c3.814-4.566,8.531-6.792,14.526-7.666c15.439-2.255,24.528-12.443,28.417-26.646
		c2.781-10.157,11.67-13.837,17.832-20.385c0.759-0.807,3.163-0.121,4.799-0.034c7.295,0.388,14.63,0.451,21.872,1.301
		c11.735,1.378,21.538-1.879,29.658-10.521c3.786-4.029,8.473-5.471,14.204-5.885c5-0.361,10.654-2.314,14.532-5.42
		c9.321-7.464,17.975-15.809,26.516-24.187c9.693-9.507,14.39-21.5,14.835-34.928c0.409-12.318,0.215-24.661,0.059-36.99
		c-0.247-19.488-6.458-36.488-21.22-49.862c-3.453-3.129-6.734-6.468-9.9-9.892c-11.776-12.737-26.488-20.699-43.396-22.56
		c-16.113-1.772-32.529-1.467-48.777-0.957c-5.248,0.164-10.81,3.178-15.499,6.07C1018.57,675.672,1000.925,694.011,986.865,714.999
		z M2462.974,2376.367c-19.109-7.285-38.729-6.598-58.337-6.747c-8.58-0.064-15.699,2.629-21.785,8.161
		c-8.12,7.383-15.973,15.064-23.826,22.733c-10.792,10.537-16.181,23.305-15.68,38.505c0.197,5.988,0.079,11.988,0.024,17.981
		c-0.244,26.748,8.042,50.309,26.563,69.843c6.63,6.992,14.019,13.258,20.82,20.093c8.223,8.261,18.207,12.956,29.174,16.514
		c16.927,5.491,34.168,4.561,51.438,3.839c12.871-0.538,23.787-5.376,32.337-15.407c4.091-4.8,9.183-8.746,13.291-13.534
		c7.575-8.833,16.318-15.659,26.576-21.484c7.341-4.17,14.028-6.749,22.184-5.991c6.509,0.605,11.794-1.639,15.678-6.875
		c5.001-6.737,11.446-9.619,19.861-8.333c2.929,0.447,6.05,0.445,8.962-0.053c2.844-0.487,6.083-1.21,8.204-2.969
		c13.638-11.314,24.622-24.438,25.495-43.238c0.692-14.918,2.081-29.941,1.019-44.764c-1.17-16.31-5.679-32.167-16.762-45.073
		c-8.646-10.071-17.39-20.086-26.574-29.66c-10.604-11.053-23.544-17.002-39.272-16.208c-7.64,0.387-15.347-0.37-22.968,0.166
		c-13.695,0.963-28.011,2.577-38.618,11.504c-14.415,12.132-28.623,25.16-34.447,44.333
		C2465.685,2371.825,2464.323,2373.732,2462.974,2376.367z M737.525,2727.401c-14.449-9.371-29.691-5.911-44.488-6.553
		c-0.333-0.015-0.667,0.015-1-0.003c-10.534-0.562-19.838,3.008-27.603,9.697c-10.329,8.896-20.469,18.088-29.945,27.874
		c-12.537,12.947-18.813,28.684-18.271,46.968c0.258,8.658-0.193,17.338,0.112,25.991c0.316,8.968,0.813,18.223,5.91,25.893
		c11.557,17.394,25.772,31.71,45.235,40.853c21.86,10.268,44.638,9.064,67.592,8.312c3.933-0.13,7.937-0.619,11.795-0.106
		c19.513,2.592,38.615,0.14,56.574-7.108c16.383-6.612,28.818-18.652,37.214-34.572c3.708-7.029,7.918-13.645,14.948-18.248
		c6.353-4.161,11.722-9.855,20.314-9.135c1.791,0.15,3.704-1.347,5.583-2.022c7.86-2.826,12.64-9.507,18.681-14.658
		c10.514-8.966,14.235-20.454,14.042-33.736c-0.247-16.98-0.629-33.962-0.615-50.941c0.01-12.363-2.85-24.005-10.209-33.741
		c-7.783-10.297-16.167-20.388-25.645-29.092c-11.577-10.632-25.867-15.992-42.015-15.392c-6.989,0.261-13.996,0.113-20.995,0.029
		c-10.735-0.13-20.042,3.337-28.582,9.902C765.792,2683.27,749.105,2701.891,737.525,2727.401z"/>
	<path fill-rule="evenodd" clip-rule="evenodd" d="M2261.017,3215.567c-8.45,8.08-15.678,15.439-23.455,22.163
		c-2.501,2.164-6.439,3.684-9.742,3.726c-12.639,0.158-25.304-0.117-37.917-0.896c-3.303-0.203-6.774-2.358-9.626-4.381
		c-20.438-14.496-32.039-34.859-38.731-58.555c-2.236-7.912-5.071-15.693-8.179-23.312c-3.114-7.634-3.464-15.465-3.328-23.492
		c0.152-8.938,0.035-17.879,0.035-28.032c-8.108,1.101-15.16,2.178-22.242,2.993c-17.464,2.011-34.907,5.036-52.42,5.548
		c-21.241,0.619-42.545-0.934-63.821-1.522c-3.997-0.109-7.996-0.104-11.994-0.146c-27.642-0.288-55.303-0.066-82.917-1.104
		c-11.452-0.431-22.767-3.823-34.211-5.377c-12.813-1.741-25.67-3.447-38.564-4.23c-18.702-1.137-36.607-5.331-54.297-11.258
		c-11.898-3.987-23.972-7.782-36.254-10.213c-23.92-4.733-46.754-12.591-69.299-21.584c-12.029-4.798-24.226-9.173-36.255-13.967
		c-4.287-1.706-8.729-3.521-12.364-6.264c-8.54-6.447-17.909-11.471-27.777-15.061c-16.027-5.829-28.896-16.119-41.673-26.758
		c-1.278-1.064-2.503-2.207-3.647-3.414c-5.928-6.263-12.083-8.146-20.143-3.059c-4.356,2.751-10.027,3.348-14.981,5.237
		c-9.259,3.529-18.315,7.622-27.677,10.831c-5.234,1.795-10.875,2.589-16.4,3.296c-8.146,1.042-16.352,1.604-25.948,2.503
		c5.858,10.617,10.939,19.87,16.063,29.1c15.438,27.813,30.861,55.637,46.366,83.413c3.87,6.932,8.515,13.467,11.947,20.598
		c6.292,13.069,12.237,26.324,17.796,39.723c7.804,18.809,11.815,38.682,15.022,58.686c1.466,9.143,2.844,18.415,2.922,27.639
		c0.148,17.613-0.78,35.233-1.038,52.854c-0.202,13.777-5.88,25.707-12.264,37.36c-7.333,13.384-14.448,26.947-22.725,39.741
		c-13.234,20.456-31.809,35.052-54.781,42.894c-27.74,9.471-56.353,15.21-85.811,16.473c-20.929,0.896-41.495,4.592-61.705,10.164
		c-24.021,6.624-48.289,11.961-73.217,13.723c-4.658,0.33-7.6,2.018-9.99,6.556c-5.551,10.536-13.178,20.078-17.931,30.914
		c-9.355,21.332-28.879,35.619-38.009,56.919c-12.023,12.438-23.881,25.044-36.141,37.244c-5.875,5.848-12.616,10.813-18.777,16.383
		c-12.009,10.856-25.986,17.614-42.155,17.762c-16.932,0.155-33.907-0.798-50.809-2.01c-18.714-1.342-40.647-21.463-43.391-38.852
		c-1.644-10.414-1.277-21.281-0.631-31.873c0.451-7.41,2.903-14.697,4.578-22.593c-9.568-0.387-19.703-1.228-29.827-1.117
		c-21.686,0.234-40.099-7.552-56.404-21.396c-13.191-11.202-25.951-22.74-37.149-36.056c-8.241-9.799-10.328-21.409-11.346-33.199
		c-0.973-11.248-0.776-22.681-0.05-33.966c0.718-11.138,1.701-22.545,10.313-30.264c-4.596-9.225-11.019-17.351-12.616-26.334
		c-3.109-17.479-5.684-35.753,4.253-52.329c3.881-6.474,8.622-12.593,13.807-18.085c7.298-7.729,15.254-14.854,23.157-21.982
		c5.206-4.694,11.194-7.819,18.057-10.127c28.614-9.624,57.359-18.905,84.984-31.315c10.851-4.874,22.513-7.91,33.686-12.104
		c14.03-5.266,27.343-11.906,39.823-20.36c24.013-16.266,44.993-36.088,66.42-55.414c6.652-6,14.017-11.287,20.171-17.744
		c5.906-6.197,10.667-13.488,16.794-21.415c-11.709-11.169-23.561-22.198-35.098-33.548c-13.247-13.03-26.514-26.064-39.225-39.611
		c-13.391-14.272-26.251-29.049-39.135-43.789c-18.114-20.727-35.339-42.102-51.111-64.758
		c-12.751-18.316-23.875-37.481-33.343-57.486c-7.634-16.131-13.196-33.285-19.053-50.2c-4.446-12.836-8.637-25.847-11.665-39.07
		c-6.723-29.355-14.436-58.438-16.152-88.887c-1.368-24.268-3.349-48.501-1.294-72.689c1.108-13.04,5.273-25.816,8.015-38.72
		c0.471-2.213,1.483-4.671,0.956-6.677c-3.897-14.812-1.972-29.885-1.483-44.741c0.237-7.221,4.243-14.493,7.298-21.407
		c5.083-11.499,10.555-22.839,16.261-34.043c8.233-16.164,20.423-29.408,32.588-42.596c4.264-4.624,9.103-8.717,13.678-13.053
		c-0.41-0.705-0.82-1.409-1.229-2.114c-6.018,2.034-11.974,4.279-18.065,6.067c-19.735,5.79-39.506,11.452-59.287,17.089
		c-17.84,5.083-35.788,9.81-53.512,15.271c-4.512,1.391-8.922,4.38-12.347,7.7c-3.906,3.785-7.766,5.649-13.221,5.369
		c-13.009-0.67-22.17,7.64-31.77,14.577c-1.584,1.145-2.279,3.879-2.836,6.021c-3.258,12.521-6.497,25.051-9.458,37.645
		c-2.757,11.729-9.312,21.246-17.408,29.653c-13.383,13.896-26.927,27.666-40.946,40.915
		c-13.375,12.641-28.652,22.599-46.718,27.271c-5.393,1.395-11.197,1.801-16.795,1.698c-22.949-0.421-45.901-0.971-68.828-2.012
		c-7.173-0.326-14.27-2.345-20.116-3.363c-11.161,9.748-21.168,18.9-31.646,27.479c-5.618,4.6-11.805,8.643-18.153,12.188
		c-16.078,8.982-29.149,21.87-43.711,32.809c-7.886,5.924-16.191,11.288-24.305,16.908c-8.108,5.616-17.583,5.701-26.773,5.98
		c-21.297,0.644-42.613,0.727-63.922,0.951c-3.639,0.039-7.348,0.026-10.912-0.601c-17.644-3.102-28.047-16.253-36.734-29.729
		c-4.477-6.945-4.429-17.135-5.317-25.97c-0.825-8.206-0.176-16.559-0.176-24.338c-12.032,0.634-23.223,1.278-34.419,1.803
		c-20.235,0.946-33.76-10.352-44.407-25.614c-2.996-4.295-3.924-10.565-4.305-16.033c-0.671-9.618-0.476-19.329-0.065-28.978
		c0.202-4.758,1.694-9.461,2.568-14.01c-7.359-1.98-15.382-2.996-22.373-6.237c-19.374-8.983-30.141-24.487-30.887-46.092
		c-0.448-12.982-0.217-25.995-0.04-38.99c0.153-11.282,4.407-21.139,11.091-30.109c19.014-25.518,42.207-46.994,67.169-66.274
		c13.552-10.466,29.604-17.699,44.535-26.376c1.674-0.974,3.395-1.863,6.394-3.503c-8.599-8.214-17.016-15.368-24.358-23.494
		c-9.103-10.074-17.329-20.94-25.905-31.488c-3.719-4.574-5.198-9.785-5.06-15.733c0.25-10.659-0.086-21.331,0.104-31.992
		c0.479-26.879,14.518-45.397,36.772-58.611c2.179-1.294,5.097-1.295,7.619-2.066c25.702-7.853,52.138-5.592,78.335-5.124
		c14.571,0.261,26.985,8.427,39.712,14.773c5.63,2.807,11.196,5.755,16.901,8.401c7.972,3.696,16.339,2.118,24.574,1.309
		c16.307-1.602,32.478-0.854,48.698,1.44c12.462,1.763,25.045,3.224,37.61,3.594c23.291,0.685,46.519,0.913,69.1,7.95
		c8.217,2.561,16.925,3.513,25.217,5.875c13.314,3.794,26.487,8.096,39.673,12.328c1.805,0.579,3.482,1.825,4.979,3.054
		c7.163,5.874,14.243,11.85,21.968,18.303c5.873-3.926,11.7-7.582,17.274-11.59c17.981-12.927,35.795-26.089,53.833-38.936
		c6.717-4.784,13.968-8.813,20.816-13.42c20.89-14.05,41.892-27.946,62.483-42.423c15.456-10.865,30.22-22.71,45.522-33.801
		c19.01-13.78,38.348-27.109,57.375-40.866c13.691-9.898,27.131-20.142,40.638-30.294c12.969-9.75,25.993-19.434,38.78-29.418
		c10.463-8.173,20.618-16.741,30.902-25.146c10.737-8.774,21.442-17.589,32.214-26.32c1.813-1.468,3.896-2.602,5.871-3.901
		c-7.728-12.046-18.634-19.219-22.893-31.847c-3.888-11.531-11.217-21.979-11.574-34.634c-0.354-12.567-0.078-25.154-0.078-38.729
		c-11.961,0-22.521-0.088-33.079,0.025c-9.43,0.103-18.354-1.646-27.209-5.097c-5.769-2.249-12.193-2.974-18.393-3.932
		c-25.454-3.936-43.213-18.83-57.343-39.333c-5.634-8.176-12.118-15.763-18.096-23.707c-1.573-2.091-3.084-4.375-3.973-6.81
		c-5.104-13.995-10.186-28.005-14.869-42.144c-1.227-3.704-1.403-7.887-1.389-11.847c0.07-18.986-0.701-38.065,0.979-56.921
		c1.072-12.044,5.265-23.967,9.197-35.558c4.234-12.484,8.905-24.984,15.013-36.623c7.055-13.442,15.857-25.972,23.964-38.857
		c2.825-4.492,5.654-9,8.797-13.269c13.526-18.375,29.953-33.959,48.615-46.834c17.188-11.859,35.38-22.259,53.103-33.346
		c1.643-1.027,3.09-2.369,5.188-4c-3.709-6.539-7.309-12.741-10.743-19.035c-0.925-1.695-1.876-3.654-1.911-5.508
		c-0.216-11.657-1.045-23.399,0.017-34.958c1.118-12.186,6.63-23.142,11.966-34.247c9.431-19.628,23.563-35.206,38.516-50.418
		c26.161-26.617,54.003-51.251,84.291-73.112c11.837-8.543,23.358-17.524,34.976-26.368c1.264-0.962,2.209-2.341,3.819-4.085
		c-9.227-4.719-18.067-8.907-26.57-13.697c-6.598-3.716-13.148-7.713-19.066-12.407c-16.254-12.891-28.719-29.445-42.617-44.643
		c-7.638-8.352-12.032-18.139-17.071-27.775c-1.051-2.008-1.901-4.399-1.923-6.623c-0.14-14.638-0.631-29.312,0.154-43.912
		c0.943-17.524,10.689-31.046,22.175-43.467c14.089-15.235,29.413-29.059,47.67-39.087c19.733-10.837,38.979-22.923,60.78-29.322
		c10.768-3.16,22.037-4.614,33.083-6.827c33.137-6.639,66.675-7.668,100.313-6.939c8.281,0.179,16.542,1.207,24.82,1.717
		c2.265,0.14,4.557-0.183,8.313-0.364c0-6.14-0.209-12.003,0.073-17.843c0.188-3.9,0.392-8.032,1.784-11.593
		c3.592-9.185,4.981-18.58,4.095-28.301c-0.67-7.35,1.924-13.158,5.96-19.306c9.492-14.46,21.88-26.249,35.229-36.465
		c10.746-8.223,24.594-11.287,38.494-11.896c33.52-1.471,66.328,3.646,98.653,11.664c17.396,4.315,33.658,12.174,49.47,20.635
		c12.874,6.888,25.887,13.641,38.106,21.58c9.407,6.111,17.903,13.713,26.398,21.12c10.972,9.566,21.54,19.597,31.759,28.948
		c14.268-19.67,28.488-38.797,42.148-58.315c6.465-9.238,11.898-19.202,17.731-28.876c11.514-19.098,24.048-37.459,39.983-53.185
		c5.18-5.112,7.262-10.674,6.861-17.844c-0.286-5.099-1.631-10.717,3.496-14.818c7.057-5.648,11.434-14.35,22.447-15.198
		c12.182-0.938,24.353-3.41,36.251-6.339c17.504-4.308,35.144-2.197,52.708-2.191c10.221,0.003,20.639,1.001,30.619,3.164
		c15.521,3.362,30.879,7.666,46.066,12.345c25.629,7.896,51.037,16.513,76.607,24.605c17.369,5.499,35.174,9.77,52.21,16.125
		c21.731,8.108,43.313,16.885,64.176,26.99c23.858,11.556,47.48,23.873,70.048,37.741c21.72,13.347,42.249,28.711,62.789,43.881
		c29.78,21.995,56.576,47.465,82.079,74.185c14.188,14.863,26.956,31.084,40.313,46.736c16.413,19.234,30.269,40.233,42.892,62.097
		c1.761,3.05,4.309,5.646,6.996,9.099c0.722-1.695,1.302-2.466,1.357-3.274c1.701-24.839,14.067-44.033,30.154-62.317
		c14.6-16.595,32.092-22.326,52.986-21.733c6.327,0.18,12.688,0.385,18.991-0.048c12.58-0.861,23.677,2.464,33.424,10.463
		c1.774,1.457,3.813,2.592,5.276,3.572c7.951-8.424,15.553-16.702,23.415-24.726c5.263-5.371,11.758-8.687,19.321-9.493
		c20.186-2.148,40.362-3.403,60.712-1.94c13.898,0.999,25.978,5.769,36.241,14.804c11.507,10.13,21.934,21.33,30.615,34.07
		c8.525,12.513,11.914,26.766,12.634,41.417c0.651,13.234-0.545,26.562-1.031,39.845c-0.637,17.386-8.453,32.333-18.667,45.348
		c-9.129,11.631-19.452,22.69-32.761,30.377c-6.896,3.983-13.946,6.104-21.691,6.266c-8.328,0.175-16.669,0.237-24.992-0.037
		c-4.344-0.144-7.829,0.901-10.516,4.358c-0.406,0.522-0.996,0.902-1.393,1.43c-13.845,18.421-33.55,22.375-54.906,22.292
		c-7.332-0.028-14.685-0.345-21.99,0.094c-7.013,0.419-13.433-1.238-18.797-5.302c-3.598-2.725-7.016-3-11.092-2.877
		c-7.992,0.24-16.014-0.271-23.99,0.155c-16.507,0.882-31.778-1.842-45.009-14.997c-0.435,2.462-0.853,3.59-0.794,4.693
		c0.588,11.215,1.618,22.425,1.686,33.641c0.022,3.628-1.523,8.053-3.886,10.787c-19.385,22.432-34.717,47.678-52.082,72.917
		c11.047,2.42,21.296,4.26,31.321,6.943c22.777,6.095,43.414,16.381,60.311,33.166c11.335,11.259,22.741,22.5,33.314,34.458
		c11.418,12.914,20.082,27.229,18.014,45.811c-0.918,8.24,0.256,16.751-1.022,24.903c-1.264,8.068-4.021,15.985-6.827,23.714
		c-6.82,18.785-20.91,31.933-35.332,44.875c-9.201,8.259-18.864,15.562-30.934,18.992c4.898,11.477,9.567,22.019,13.863,32.711
		c1.457,3.628,2.771,7.639,2.767,11.473c-0.019,14.911,1.43,30.238-1.517,44.621c-3.104,15.157-11.926,28.676-22.06,40.799
		c-4.896,5.859-9.366,12.126-14.679,17.575c-20.035,20.547-25.363,23.112-51.309,30.097c1.074,8.261,1.128,8.989,8.062,8.477
		c6.492-0.48,9.42,3.757,13.482,7.063c6.693,5.448,10.282,11.924,8.765,20.741c-0.224,1.295-0.199,2.686-0.004,3.99
		c1.453,9.689-1.528,17.521-9.549,23.322c-4.735,3.425-6.139,8.022-5.922,13.84c0.432,11.649,0.193,23.321,0.275,34.984
		c0.004,0.601,0.424,1.201,0.959,2.622c1.518,0,3.362,0.15,5.176-0.023c14.851-1.421,29.796-2.257,44.515-4.541
		c15.657-2.43,31.155-6,46.617-9.537c13.542-3.096,26.981-6.673,40.382-10.341c11.525-3.154,22.828-7.172,34.42-10.039
		c22.503-5.566,45.087-10.827,67.734-15.774c22.98-5.02,46.079-9.506,69.124-14.23c2.929-0.6,5.827-1.399,8.782-1.799
		c10.707-1.45,12.028-2.156,13.266-12.285c2.688-21.993,12.85-40.75,24.645-58.835c5.23-8.02,10.891-15.758,17.203-24.844
		c-3.367-0.766-6.262-1.826-9.217-2.031c-15.91-1.1-31.854-1.75-47.751-3.017c-15.299-1.221-28.682-7.641-40.905-16.61
		c-3.747-2.75-7.456-5.621-10.802-8.833c-9.079-8.717-18.481-16.988-21.465-30.384c-1.852-8.308-6.665-15.925-8.846-24.195
		c-7.193-27.276-6.118-54.797,1.356-81.682c3.398-12.227,9.484-23.997,16.008-34.992c8.252-13.908,17.493-27.378,27.626-39.978
		c8.309-10.33,18.512-19.144,27.946-28.558c3.563-3.557,5.884-7.36,7.451-12.465c3.874-12.612,7.771-25.59,14.279-36.917
		c7.105-12.366,18.019-22.178,30.872-29.076c2.799-1.503,6.408-1.977,9.665-2.061c9.992-0.26,20.001-0.298,29.988,0.025
		c2.784,0.09,6.117,1.026,8.17,2.779c8.348,7.121,16.816,14.228,24.262,22.249c9.306,10.025,12.648,22.856,14.327,36.196
		c2.396,19.051,4.804,38.105,7.624,57.096c2.28,15.361,4.693,30.734,7.959,45.906c2.486,11.555,6.402,22.803,10.237,36.118
		c14.619-16.121,31.004-26.432,50.855-27.256c18.891-0.785,38.728-3.909,55.565,9.45c8.68-7.748,15.938-15.769,24.65-21.625
		c11.634-7.818,18.027-16.556,17.313-31.597c-0.507-10.659,4.227-21.238,9.323-31.144c2.816-5.471,4.052-11.781,5.802-17.77
		c2.904-9.945,6.514-19.581,13.885-27.131c12.08-12.375,24.396-24.523,36.659-36.72c6.478-6.442,15.066-8.719,23.514-9.513
		c12.891-1.21,25.929-1.042,38.903-1c2.686,0.009,5.92,1.412,7.952,3.232c8.66,7.755,17.277,15.607,25.309,23.999
		c8.04,8.4,7.1,19.85,7.449,30.142c0.586,17.251-0.91,34.561-0.951,51.847c-0.032,13.945,1.39,27.905,1.109,41.836
		c-0.569,28.21-1.854,56.407-2.877,85.541c1.815,0.825,4.335,2.611,7.091,3.122c18.696,3.467,29.989,16.814,42.172,29.75
		c15.043,15.972,11.144,34.899,9.09,52.837c-1.283,11.208-9.112,21.136-17.292,29.678c-1.714,1.79-3.105,3.891-5.449,6.871
		c4.575,0.741,7.761,1.711,10.942,1.697c17.087-0.079,31.021,8.436,45.157,16.327c12.73,7.105,22.264,17.689,31.006,29.124
		c3.741,4.893,6.03,10.062,6.642,16.316c1.361,13.891,2.659,27.695,0.603,41.669c-0.978,6.641-3.737,12.008-8.458,16.441
		c-9.433,8.861-18.902,17.689-28.552,26.312c-8.921,7.973-18.025,15.747-27.195,23.431c-3.498,2.93-7.435,5.331-11.121,8.042
		c-3.137,2.306-6.199,4.712-8.82,6.711c7.828,8.527,15.699,16.118,22.27,24.704c2.97,3.88,4.609,9.726,4.673,14.708
		c0.198,15.602-0.32,31.235-1.263,46.814c-0.307,5.075-1.729,10.686-4.437,14.897c-7.608,11.835-16.971,22.395-29.616,29.075
		c-9.631,5.086-19.734,9.31-29.767,13.593c-13.088,5.587-26.401,10.652-39.453,16.318c-12.323,5.351-25.284,8.374-38.474,9.335
		c-19.556,1.424-39.204,1.671-58.819,2.146c-6.198,0.149-12.417-0.577-18.469-0.895c-2.226,9.255-4.506,18.828-6.833,28.392
		c-3.238,13.313-13.993,20.52-23.519,28.649c-8.598,7.338-19.626,9.167-29.861,12.887c-12.546,4.558-25.426,4.64-38.357,4.052
		c-8.699-0.395-17.021-2.497-23.615-9.037c-7.326-7.265-14.943-14.236-22.327-21.443c-1.627-1.589-3.081-3.487-4.148-5.492
		c-2.93-5.501-5.609-11.136-8.543-17.026c-7.053-0.306-13.661-0.547-20.263-0.892c-8.295-0.433-16.849,0.165-24.811-1.713
		c-9.981-2.354-18.296,1.414-26.808,4.627c-8.62,3.253-16.733,7.823-25.245,11.397c-19.457,8.172-38.906,16.389-58.582,24.01
		c-15.074,5.84-30.492,10.794-45.755,16.149c-4.05,1.421-8.081,2.894-12.137,4.3c-6.597,2.286-13.123,4.829-19.829,6.739
		c-11.808,3.361-23.837,5.968-35.576,9.541c-20.588,6.267-41.157,12.644-61.484,19.698c-15.643,5.429-30.768,12.341-46.368,17.904
		c-14.315,5.105-28.778,10.019-43.503,13.712c-23.046,5.779-46.318,10.693-69.589,15.524c-16.214,3.368-32.587,5.964-48.883,8.943
		c-6.509,1.189-13.006,2.438-19.495,3.733c-33.497,6.683-67.006,13.309-100.476,20.125c-15.556,3.167-30.962,7.103-46.564,9.994
		c-14.991,2.779-30.15,4.651-45.231,6.949c-1.945,0.297-3.864,0.754-7.239,1.425c0.568,9.896,0.086,19.94,1.93,29.538
		c3.268,17.015,1.647,33.76-0.426,50.578c-0.761,6.173-1.485,12.563-3.686,18.294c-2.943,7.667-7.069,14.924-11.151,22.093
		c-2.351,4.128-2.963,7.827-0.645,12.055c9.193,16.771,13.573,35.365,18.658,53.485c4.184,14.903,4.294,30.647,1.809,46.384
		c-1.372,8.693-0.052,17.857,0.436,26.789c1.303,23.853,6.32,47.47,4.751,71.501c-0.866,13.257-2.832,26.138-8.975,38.396
		c-5.014,10.006-8.442,20.864-11.886,31.566c-1.154,3.59-0.182,7.862-0.182,13.027c5.551-1.696,10.719-2.604,15.271-4.795
		c13.835-6.658,28.844-7.586,43.617-9.718c22.419-3.235,44.976-4.501,67.616-4.304c21.704,0.189,43.079,2.824,63.934,9.024
		c2.199,0.653,4.506,1.516,6.293,2.892c16.05,12.361,32.601,24.109,45.765,39.855c6.281,7.515,9.994,15.455,9.322,25.47
		c-0.489,7.299-0.506,14.687,0.014,21.981c0.572,8.038-2.722,13.885-8.06,19.456c-5.488,5.728-10.273,12.128-15.531,18.432
		c2.29,2.858,6.259,6.952,9.175,11.694c2.89,4.7,5.135,9.916,6.886,15.164c1.484,4.449,3.662,7.459,8.177,9.144
		c30.675,11.441,51.581,34.422,69.511,60.382c12.229,17.704,22.898,36.476,34.735,54.461c12.353,18.77,19.427,39.93,28.264,60.288
		c5.142,11.848,9.89,23.884,14.34,36.009c4.798,13.066,9.132,26.307,13.502,39.526c5.616,16.981,11.192,33.979,16.545,51.044
		c3.767,12.01,7.253,24.111,10.643,36.233c3.647,13.041,7.16,26.121,10.505,39.242c4.422,17.347,8.545,34.771,12.96,52.119
		c1.715,6.738,3.88,13.362,5.835,20.04c2.685,9.169,5.363,18.339,8.197,28.033c7.508-4.18,9.668-11.488,12.424-17.911
		c5.458-12.729,12.953-23.667,22.82-33.465c8.418-8.358,18.079-12.108,29.467-12.28c12.911-0.195,25.697-0.027,38.5,3.118
		c7.568,1.859,15.902,1.032,23.866,0.733c8.485-0.317,15.598,2.425,21.991,7.69c5.892,4.854,11.82,9.66,18.126,14.809
		c15.011-12.571,33.463-18.279,52.132-22.43c19.676-4.373,39.57-3.266,58.816,3.804c6.195,2.275,13.5,2.92,18.523,6.681
		c8.086,6.051,14.999,13.802,21.789,21.388c2.768,3.091,3.916,7.628,6.307,12.547c5.486-1.018,11.509-2.249,17.571-3.24
		c22.241-3.637,42.708-1.413,59.654,15.887c16.583,16.928,31.712,34.882,43.562,55.441c7.919,13.738,12.135,28.488,11.98,44.523
		c-0.137,14.29,0.027,28.601-3.626,42.518c-1.84,7.005-4.163,14.007-7.279,20.526c-7.595,15.89-15.358,31.959-27.127,45.125
		c-11.246,12.585-23.907,23.963-36.485,35.271c-6.597,5.932-13.733,11.971-21.715,15.496c-14.193,6.271-23.869,17.754-35.526,26.971
		c-11.936,9.436-24.626,17.909-36.76,27.103c-8.97,6.797-17.399,14.311-26.396,21.069c-9.231,6.935-13.414,16.744-14.216,27.364
		c-2.251,29.824-12.834,57.457-20.948,85.763c-0.808,2.815-1.106,5.83-1.265,8.772c-1,18.558-2.573,37.187-8.807,54.701
		c-5.442,15.293-13.027,29.791-24.251,42.043c-11.991,13.092-26.988,21.548-43.184,27.816c-14.854,5.751-30.13,10.422-45.279,15.389
		c-2.46,0.807-5.224,0.905-7.852,0.941c-8.33,0.114-16.681,0.384-24.99-0.055c-7.894-0.416-15.933-0.859-23.572-2.69
		c-14.469-3.468-28.755-7.75-42.99-12.111c-4.008-1.228-7.69-3.713-11.319-5.95c-16.438-10.129-31.84-21.628-45.972-34.826
		c-1.594-1.488-3.977-2.345-6.144-2.969c-9.836-2.832-17.719-8.396-25.295-15.289c-9.299-8.459-20.251-15.081-29.745-23.351
		c-11.777-10.257-23.252-20.948-34.031-32.241c-16.523-17.313-32.384-35.258-48.447-53.007
		c-16.502-18.235-32.608-36.771-46.441-57.21c-8.519-12.587-17.497-24.896-26.837-36.888
		c-12.702-16.306-22.856-34.097-32.107-52.462c-11.323-22.478-22.688-44.937-33.687-67.572
		c-11.883-24.455-23.104-49.232-35.094-73.632c-11.111-22.613-22.669-45.015-34.383-67.323
		c-10.164-19.354-20.582-38.584-31.346-57.609c-7.015-12.399-14.782-24.376-22.34-36.463c-4.57-7.308-9.306-14.515-14.124-21.662
		C2265.731,3221.204,2263.303,3218.474,2261.017,3215.567z M1087.272,2381.714c17.347,0.448,27.521-4.027,34.365-14.054
		C1109.577,2372.592,1098.425,2377.153,1087.272,2381.714z"/>
	<path fill-rule="evenodd" clip-rule="evenodd" d="M986.865,714.999c14.06-20.988,31.705-39.326,53.825-52.971
		c4.689-2.892,10.251-5.906,15.499-6.07c16.248-0.51,32.664-0.815,48.777,0.957c16.908,1.861,31.62,9.823,43.396,22.56
		c3.166,3.423,6.447,6.763,9.9,9.892c14.762,13.374,20.973,30.374,21.22,49.862c0.156,12.33,0.351,24.672-0.059,36.99
		c-0.445,13.428-5.142,25.421-14.835,34.928c-8.541,8.378-17.194,16.723-26.516,24.187c-3.878,3.106-9.533,5.059-14.532,5.42
		c-5.731,0.414-10.418,1.856-14.204,5.885c-8.12,8.642-17.923,11.899-29.658,10.521c-7.242-0.85-14.577-0.914-21.872-1.301
		c-1.636-0.087-4.041-0.772-4.799,0.034c-6.161,6.548-15.051,10.228-17.832,20.385c-3.888,14.203-12.977,24.391-28.417,26.646
		c-5.995,0.875-10.712,3.1-14.526,7.666c-5.991,7.171-13.63,10.3-22.99,9.39c-2.972-0.289-6.031-0.348-8.989,0.002
		c-27.51,3.248-48.491-8.196-67.24-27.443c-14.406-14.79-23.258-32.247-30.536-50.912c-4.613-11.829-2.355-24.361-2.965-36.604
		c-0.608-12.171,0.982-23.961,6.112-34.992c3.197-6.875,6.579-13.965,11.353-19.739c7.615-9.208,16.004-17.909,24.908-25.883
		c9.678-8.667,22.206-10.293,34.655-10.34C953.142,714.005,969.746,714.648,986.865,714.999z"/>
	<path fill-rule="evenodd" clip-rule="evenodd" d="M2462.974,2376.367c1.35-2.635,2.711-4.542,3.356-6.665
		c5.824-19.173,20.032-32.201,34.447-44.333c10.607-8.927,24.923-10.541,38.618-11.504c7.621-0.536,15.328,0.221,22.968-0.166
		c15.729-0.794,28.669,5.155,39.272,16.208c9.185,9.574,17.929,19.589,26.574,29.66c11.083,12.906,15.592,28.764,16.762,45.073
		c1.063,14.822-0.326,29.846-1.019,44.764c-0.873,18.8-11.857,31.924-25.495,43.238c-2.121,1.759-5.36,2.481-8.204,2.969
		c-2.912,0.498-6.033,0.5-8.962,0.053c-8.415-1.286-14.86,1.596-19.861,8.333c-3.884,5.236-9.169,7.48-15.678,6.875
		c-8.155-0.758-14.843,1.821-22.184,5.991c-10.258,5.825-19.001,12.651-26.576,21.484c-4.108,4.788-9.2,8.734-13.291,13.534
		c-8.55,10.031-19.466,14.869-32.337,15.407c-17.27,0.722-34.511,1.652-51.438-3.839c-10.967-3.558-20.951-8.253-29.174-16.514
		c-6.802-6.835-14.19-13.101-20.82-20.093c-18.521-19.534-26.808-43.095-26.563-69.843c0.055-5.993,0.173-11.993-0.024-17.981
		c-0.501-15.2,4.888-27.968,15.68-38.505c7.854-7.669,15.706-15.351,23.826-22.733c6.086-5.532,13.205-8.226,21.785-8.161
		C2424.244,2369.77,2443.864,2369.082,2462.974,2376.367z"/>
	<path fill-rule="evenodd" clip-rule="evenodd" d="M737.525,2727.401c11.581-25.511,28.267-44.132,48.635-59.79
		c8.541-6.565,17.847-10.032,28.582-9.902c6.999,0.084,14.005,0.231,20.995-0.029c16.148-0.601,30.438,4.76,42.015,15.392
		c9.478,8.704,17.861,18.795,25.645,29.092c7.359,9.736,10.219,21.378,10.209,33.741c-0.014,16.979,0.368,33.961,0.615,50.941
		c0.192,13.282-3.529,24.771-14.042,33.736c-6.041,5.151-10.821,11.832-18.681,14.658c-1.879,0.676-3.792,2.173-5.583,2.022
		c-8.592-0.721-13.961,4.974-20.314,9.135c-7.03,4.604-11.241,11.219-14.948,18.248c-8.396,15.92-20.832,27.96-37.214,34.572
		c-17.958,7.248-37.061,9.7-56.574,7.108c-3.859-0.513-7.862-0.023-11.795,0.106c-22.954,0.753-45.732,1.956-67.592-8.312
		c-19.463-9.143-33.678-23.459-45.235-40.853c-5.096-7.67-5.593-16.925-5.91-25.893c-0.306-8.653,0.146-17.333-0.112-25.991
		c-0.543-18.284,5.734-34.021,18.271-46.968c9.476-9.786,19.616-18.979,29.945-27.874c7.765-6.689,17.069-10.259,27.603-9.697
		c0.332,0.018,0.667-0.012,1,0.003C707.833,2721.49,723.076,2718.03,737.525,2727.401z"/>
	<path fill-rule="evenodd" clip-rule="evenodd" fill="#FFFFFF" d="M1087.272,2381.714c11.153-4.561,22.305-9.122,34.365-14.054
		C1114.794,2377.687,1104.62,2382.162,1087.272,2381.714z"/>
</g>
</svg>
