<?xml version="1.0" encoding="utf-8"?>
<!-- Generator: Adobe Illustrator 16.0.2, SVG Export Plug-In . SVG Version: 6.00 Build 0)  -->
<!DOCTYPE svg PUBLIC "-//W3C//DTD SVG 1.1//EN" "http://www.w3.org/Graphics/SVG/1.1/DTD/svg11.dtd">
<svg version="1.1" id="Layer_1" xmlns="http://www.w3.org/2000/svg" xmlns:xlink="http://www.w3.org/1999/xlink" x="0px" y="0px"
	 width="4469.441px" height="2646.669px" viewBox="0 0 4469.441 2646.669" enable-background="new 0 0 4469.441 2646.669"
	 xml:space="preserve">
<g>
	<path fill-rule="evenodd" clip-rule="evenodd" fill="#FFFFFF" d="M2,2649.669C2,1767.112,2,884.556,2,2
		c1490.48,0,2980.96,0,4471.44,0c0,882.556,0,1765.112,0,2647.669C2982.96,2649.669,1492.48,2649.669,2,2649.669z M687.893,2147.558
		c23.789,14.254,46.605,26.624,73.553,29.318c17.484,1.748,34.795,5.171,52.262,7.158c16.148,1.838,32.476,2.173,48.588,4.232
		c23.01,2.939,45.832,0.205,68.649-1.369c21.163-1.461,42.256-4.232,63.303-7.007c14.116-1.862,28.465-3.477,42.057-7.441
		c22.91-6.687,45.596-14.373,67.126-24.953c9.78-4.805,19.542-9.648,29.953-14.789c5.255,4.973,11.043,9.985,16.301,15.505
		c22.489,23.614,44.437,47.758,67.337,70.962c17.5,17.732,36.122,34.358,54.267,51.452c10.655,10.037,21.171,20.231,32.089,29.974
		c9.402,8.391,19.22,16.322,28.971,24.314c13.808,11.319,28.653,21.525,38.916,36.918c-1.672,3.099-3.944,6.119-5.013,9.517
		c-3.169,10.072-7.2,20.139-8.402,30.495c-1.45,12.497-0.286,25.29-0.364,37.955c-0.05,8.215,1.815,16.094,6.378,22.727
		c5.03,7.312,10.634,14.454,17.064,20.532c15.697,14.839,33.395,25.336,56.402,22.395c5.246-0.67,10.658,0.049,15.982-0.159
		c2.948-0.115,5.87-0.848,8.811-1.262c4.901-0.688,9.795-1.796,14.715-1.93c15.235-0.417,30.48-0.458,47.154-0.663
		c2.576,1.994,6.371,5.237,10.462,8.051c13.777,9.473,28.277,17.313,45.207,19.618c19.508,2.656,39.096,3.406,58.751,2.855
		c6.588-0.186,12.284-2.731,17.333-6.786c4.653-3.736,9.335-7.457,13.747-11.468c11.56-10.506,23.508-20.668,34.195-32.01
		c4.259-4.519,6.561-11.556,8.033-17.85c1.72-7.354,1.932-15.136,2.149-22.75c0.594-20.959,1.348-41.998-6.368-62.098
		c-2.842-7.4-6.105-14.64-8.895-21.284c10.312-10.772,20.556-21.206,30.491-31.927c9.931-10.715,17.621-22.445,15.064-38.198
		c-0.369-2.273-0.15-4.661-0.035-6.989c0.805-16.207-6.227-29.689-15.245-42.234c-11.163-15.528-25.55-27.921-40.598-39.522
		c-9.936-7.658-21.695-11.948-33.615-14.436c-22.514-4.695-45.478-5.941-68.496-4.959c-2.956,0.127-6.256,0.168-8.762,1.47
		c-11.567,6.01-24.401,5.952-36.737,8.221c-5.774,1.063-10.582-0.066-15.137-4.886c-17.367-18.37-35.697-35.839-52.863-54.387
		c-25.063-27.08-49.663-54.601-74.027-82.314c-17.99-20.465-35.335-41.496-52.867-62.361c-5.331-6.346-10.12-13.152-15.503-19.45
		c-23.53-27.529-47.676-54.548-70.639-82.541c-17.423-21.242-37.924-39.186-57.877-57.75
		c-12.392-11.528-25.718-22.051-38.165-33.524c-21.231-19.571-41.741-39.965-65.894-56.075c-3.973-2.65-5.486-5.79-5.669-10.672
		c-0.447-11.938-1.345-23.895-2.847-35.743c-0.603-4.747-2.775-9.494-5.074-13.793c-8.945-16.726-23.313-28.886-36.126-42.391
		c-14.646-15.437-31.842-25.834-52.867-29.936c-5.155-1.006-10.354-2.835-14.979-5.32c-14.159-7.608-29.127-12.922-44.733-16.342
		c-8.056-1.765-16.341-3.157-24.558-3.366c-19.169-0.486-38.361-0.155-58.123-0.155c-0.114-1.314-0.421-2.911-0.363-4.494
		c0.577-15.933,1.859-31.875,1.544-47.789c-0.145-7.328,0.878-13.939,4.054-20.177c4.177-8.202,5.976-16.796,6.292-25.885
		c0.54-15.526,3.722-30.097,13.735-42.778c4.267-5.405,7.263-11.933,10.191-18.249c3.594-7.751,8.572-14.229,15.247-19.445
		c14.901-11.646,29.777-23.324,44.773-34.846c17.349-13.329,36.816-22.466,57.773-28.499c25.521-7.347,51.179-14.242,76.567-22.021
		c19.449-5.96,38.935-11.064,59.393-11.824c17.892-0.665,35.713-1.261,53.569,1.313c27.364,3.945,54.363,9.586,80.493,18.469
		c13.729,4.667,26.54,11.984,39.919,17.749c8.528,3.675,18.156,5.43,25.792,10.364c7.84,5.064,15.489,6.783,24.304,6.178
		c3.649-0.251,7.474-0.668,10.958,0.131c4,0.917,8.572,2.209,11.363,4.918c5.591,5.427,11.475,9.888,18.843,12.507
		c5.741,2.041,12.209,2.514,16.742,7.384c0.348,0.374,1.283,0.323,1.934,0.279c17.056-1.14,34.663,3.643,51.058-4.859
		c2.31-1.198,5.064-2.121,7.627-2.157c15.381-0.219,29.038-6.563,43.08-11.625c17.173-6.188,34.167-13.027,51.658-18.153
		c24.256-7.11,48.672-13.578,71.818-23.979c2.711-1.218,5.641-1.981,8.514-2.801c30.32-8.649,60.85-16.631,90.907-26.113
		c20.629-6.507,42.239-10.717,61.032-23.574c1.139,2.121,1.877,3.472,2.592,4.834c4.31,8.205,7.822,16.974,13.13,24.471
		c6.105,8.627,13.903,16.043,20.769,24.151c5.783,6.831,11.183,13.987,16.932,20.849c11.302,13.486,24.353,25.766,32.239,41.705
		c10.41,21.037,26.025,37.615,42.811,53.391c1.7,1.598,3.436,3.184,4.931,4.963c4.269,5.081,8.44,10.244,12.616,15.403
		c2.917,3.604,5.447,7.583,8.713,10.827c18.649,18.521,37.27,37.077,56.292,55.213c14.19,13.528,28.784,26.651,43.535,39.571
		c20.735,18.158,41.622,36.162,66.067,49.396c18.472,10.001,37.633,18.46,57.786,24.312c8.863,2.573,18.209,4.095,27.426,4.684
		c12.281,0.784,24.665,0.576,36.977,0.084c11.991-0.479,23.987-2.278,34.658-8.084c11.601-6.311,23.952-9.894,36.794-11.839
		c14.532-2.201,28.605-5.843,42.178-11.416c18.697-7.678,36.516-17.564,56.498-22.015c4.49-1,8.889-2.808,13.041-4.835
		c6.246-3.048,12.241-6.613,18.338-9.969c14.47-7.963,29.155-15.563,43.352-23.986c19.373-11.497,38.225-23.872,57.59-35.383
		c11.386-6.77,23.65-12.076,34.959-18.961c18.99-11.558,37.821-23.425,56.188-35.942c22.219-15.142,44.551-30.026,68.196-42.886
		c4.057-2.206,7.403-5.692,11.411-8.012c23.894-13.827,46.691-29.215,67.945-46.856c3.315-2.753,6.604-5.547,10.044-8.137
		c10.02-7.546,20.669-14.364,30.052-22.626c16.466-14.5,32.396-29.634,48.07-44.993c5.099-4.998,9.889-6.771,16.852-5.215
		c21.399,4.782,42.951,8.88,64.352,13.659c13.901,3.105,27.774,6.488,41.405,10.591c10.15,3.054,19.777,7.802,29.84,11.197
		c18.532,6.252,37.232,12.003,55.807,18.133c2.442,0.807,4.634,2.501,6.802,3.987c7.009,4.806,14.575,7.805,23.208,7.746
		c7.998-0.055,16.006-0.244,23.993,0.047c10.726,0.391,21.183-0.978,31.667-3.14c13.66-2.817,27.396-5.356,41.191-7.419
		c21.958-3.284,44-6.005,65.988-9.098c16.108-2.267,32.144-5.111,48.293-7.008c11.195-1.315,22.664-0.579,33.77-2.306
		c21.175-3.293,42.414-2.945,63.69-3.122c28.465-0.236,56.245,4.251,83.641,11.562c4.482,1.197,9.372,2.043,13.159,4.476
		c22.595,14.51,44.971,29.362,67.282,44.307c3.245,2.174,6.075,5.194,8.542,8.269c11.646,14.511,23.035,29.227,34.639,43.771
		c10.414,13.058,19.131,26.898,24.274,43.052c4.895,15.366,8.385,30.695,7.28,46.955c-0.305,4.501,1.039,9.117,1.644,13.678
		c0.812,6.127,1.641,12.251,2.425,18.097c-1.679,0.62-2.31,1.091-2.867,1.017c-2.286-0.306-4.654-0.479-6.804-1.236
		c-16.636-5.847-33.836-6.652-51.212-5.914c-7.616,0.322-15.408-0.076-22.803,1.421c-24.654,4.996-48.447,12.778-67.395,30.144
		c-11.699,10.722-23.354,22.048-32.425,34.935c-11.056,15.708-18.496,33.68-22.88,52.699c-1.502,6.514-5.271,11.445-11.125,15.656
		c-17.24,12.407-34.189,25.284-50.586,38.787c-23.312,19.2-45.932,39.236-69.031,58.696c-16.982,14.306-34.432,28.06-51.347,42.444
		c-11.117,9.456-22.108,19.148-32.349,29.532c-15.881,16.104-30.401,33.584-46.692,49.239
		c-35.576,34.188-67.085,72.101-100.726,108.051c-5.669,6.06-10.904,12.531-16.229,18.906
		c-10.217,12.234-20.286,24.593-30.548,36.79c-6.416,7.626-13.131,14.999-19.602,22.579c-9.276,10.865-18.337,21.918-27.705,32.702
		c-10.245,11.795-20.91,23.227-31.067,35.096c-8.394,9.808-16.313,20.022-24.034,29.557c-5.955-3.422-10.896-6.602-16.138-9.166
		c-4.41-2.158-9.16-3.626-13.781-5.345c-2.77-1.031-5.521-2.553-8.381-2.832c-21.419-2.092-42.456-0.31-63.074,6.282
		c-7.818,2.5-14.518,6.199-19.761,12.619c-2.518,3.081-5.838,5.502-8.384,8.564c-6.773,8.147-13.812,15.956-18.754,25.641
		c-11.006,21.57-12.494,44.532-11.597,67.949c0.239,6.249,0.583,12.896,2.842,18.582c4.54,11.432,10.425,22.262,19.855,30.775
		c6.109,5.517,11.696,11.611,17.335,17.265c-1.507,3.498-2.598,5.911-3.597,8.363c-6.162,15.126-11.553,30.424-11.265,47.112
		c0.145,8.329,0.078,16.663,0.015,24.995c-0.102,13.021,4.89,24.017,13.69,33.257c5.498,5.773,11.922,10.676,17.299,16.548
		c4.538,4.96,9.989,7.787,16.25,8.994c7.165,1.381,14.462,2.789,21.715,2.859c20.313,0.194,40.645,0.039,60.947-0.621
		c15.97-0.52,30.704-5.085,42.824-16.246c2.393-2.203,5.177-3.982,8.43-6.452c4.995,3.474,10.44,6.238,14.538,10.349
		c6.366,6.386,14.231,9.49,22.199,12.855c17.321,7.316,35.45,8.024,53.881,7.765c8.547-0.12,16.144-1.784,23.872-5.628
		c11.429-5.688,22.322-11.745,30.689-21.633c1.054-1.245,2.584-2.075,3.815-3.186c11.099-10.006,22.347-19.854,33.186-30.132
		c4.726-4.481,6.742-10.513,6.646-17.193c-0.126-8.663,0.495-17.37-0.162-25.985c-0.86-11.273-3.052-22.38-8.781-32.406
		c-5.051-8.84-10.208-17.618-15.47-26.684c6.184-5.802,11.951-10.839,17.286-16.297c10.929-11.183,21.83-22.403,32.366-33.953
		c13.89-15.227,26.936-31.252,41.236-46.071c14.55-15.077,29.862-29.464,45.438-43.491c14.04-12.646,28.577-24.794,43.469-36.428
		c14.618-11.418,30.403-21.35,43.487-34.696c0.926-0.944,1.983-1.786,3.073-2.539c13.086-9.031,26.188-18.037,39.481-27.182
		c10.244,5.034,20.686,10.877,31.667,15.403c17.807,7.339,35.707,14.647,54.055,20.418c17.979,5.653,36.414,10.164,54.927,13.741
		c24.231,4.684,48.92,4.352,73.55,4.619c39.927,0.433,78.908-5.049,116.79-17.485c22.013-7.227,44.551-13.775,62.269-31.484
		c3.007,2.149,5.913,4.147,8.734,6.261c6.356,4.766,12.633,9.638,19.013,14.371c5.33,3.957,10.747,7.795,16.15,11.652
		c2.436,1.738,4.721,3.907,7.43,5.005c19.304,7.82,37.931,17.202,58.973,20.571c21.241,3.401,42.486,4.341,63.604,1.718
		c8.726-1.083,13.921,0.527,20.03,6.411c10.017,9.647,20.631,18.964,32.159,26.676c15.21,10.176,30.387,20.142,43.923,32.615
		c8.899,8.202,19.345,13.525,32.356,13.041c17.885-0.667,35.391-1.344,53.249-5.311c20.875-4.638,38.465-14.65,55.34-25.903
		c13.11-8.743,23.695-21.28,35.351-32.186c3.388-3.169,6.343-6.847,9.937-9.743c12.128-9.776,24.953-18.737,34.617-31.267
		c1.124-1.457,3.231-2.301,5.037-3.063c15.262-6.443,26.415-17.611,35.28-31.168c6.538-10,13.052-20.101,18.454-30.728
		c3.537-6.958,6.149-14.785,7.218-22.494c1.224-8.829,0.233-17.958,0.302-26.956c0.045-5.854-1.735-10.938-5.071-15.809
		c-15.84-23.131-33.765-44.469-53.911-63.963c-8.62-8.341-16.518-17.526-25.732-25.128c-19.039-15.705-36.392-33.063-53.395-50.866
		c-3.476-3.638-4.22-7.169-3.298-11.691c1.979-9.717,3.491-19.541,5.812-29.174c8.349-34.666,9.21-69.997,7.151-105.173
		c-1.664-28.451-4.591-56.731-3.892-85.363c0.502-20.502-2.034-41.086-3.414-61.62c-0.753-11.211-1.543-22.442-2.975-33.581
		c-3.332-25.927-11.85-50.382-22.003-74.32c-3.111-7.335-6.249-14.66-9.495-21.937c-7.844-17.584-15.936-35.062-23.561-52.74
		c-3.021-7.006-4.782-14.547-7.615-21.645c-11.773-29.5-29.123-55.926-46.523-82.214c-14.104-21.309-28.896-42.211-44.316-62.587
		c-13.42-17.732-28.114-34.502-42.303-51.651c-24.864-30.053-52.367-57.515-81.546-83.366
		c-12.944-11.468-25.525-23.352-38.135-35.192c-12.882-12.097-26.808-22.917-41.597-32.455
		c-15.611-10.068-31.94-19.016-47.893-28.561c-20.226-12.103-40.108-24.84-62.056-33.762c-15.959-6.489-32.241-12.259-47.877-19.445
		c-17.645-8.108-35.874-14.598-54.806-17.907c-32.679-5.712-65.615-10.017-98.513-14.396c-18.739-2.495-37.576-4.589-56.438-5.707
		c-15.606-0.923-31.317-0.356-46.975-0.056c-9.613,0.186-19.21,1.581-28.817,1.614c-25.316,0.09-50.635-0.404-75.95-0.344
		c-5.933,0.015-11.871,1.242-17.792,2.025c-14.472,1.911-28.899,5.138-43.411,5.562c-25.001,0.729-49.54,3.659-74.156,8.106
		c-36.222,6.546-72.759,11.38-109.195,16.699c-33.542,4.897-66.625,11.954-99.451,20.304c-9.195,2.338-18.358,4.813-27.726,7.274
		c-0.663-10.982-0.456-11.435,7.666-14.26c18.55-6.449,37.716-10.281,56.884-14.457c36.965-8.055,74.234-15.415,109.579-29.506
		c18.182-7.249,36.893-13.618,53.004-25.17c6.981-5.007,12.88-11.571,20.004-16.328c13.645-9.111,25.116-20.544,36.678-31.961
		c5.396-5.329,8.93-11.629,9.805-19.168c2.929-25.238,1.784-50.419-1.729-75.502c-0.629-4.488-2.122-9.043-4.14-13.109
		c-4.122-8.313-8.298-16.705-13.484-24.364c-10.179-15.032-23.686-26.736-39.026-36.392c-5.309-3.342-10.645-6.742-15.479-10.712
		c-6.905-5.673-13.59-11.661-19.959-17.929c-12.96-12.754-29.045-21.114-44.162-30.545c-25.47-15.892-53.942-25.42-82.589-34.186
		c-8.519-2.606-17.11-5.553-24.935-9.722c-17.868-9.521-35.3-19.862-52.876-29.929c-23.9-13.689-47.775-27.422-71.65-41.154
		c-13.515-7.773-26.905-15.771-40.555-23.298c-7.53-4.152-15.635-7.257-23.189-11.368c-5.147-2.801-10.926-4.678-14.408-10.251
		c-6.689-10.708-14.481-20.762-20.715-31.714c-10.628-18.669-25.518-33.942-38.783-50.493
		c-12.708-15.854-25.065-31.626-32.981-50.771c-5.804-14.036-14.139-26.991-25.343-37.795
		c-10.792-10.409-21.155-21.264-31.919-31.705c-2.787-2.704-6.299-4.695-9.594-6.836c-8.599-5.586-17.396-10.879-25.872-16.646
		c-14.599-9.929-30.071-16.681-48.235-16.136c-23.608,0.708-47.228,1.126-70.845,1.316c-9.28,0.074-18.572-1.243-27.852-1.165
		c-23.284,0.195-46.566,0.75-69.847,1.306c-16.943,0.406-33.882,1.068-50.824,1.535c-1.262,0.035-2.678-0.331-3.787-0.938
		c-6.373-3.478-13.073-6.533-18.924-10.754c-16.377-11.816-32.265-24.308-48.595-36.19c-11.002-8.007-22.363-15.531-33.681-23.095
		c-14.288-9.549-30.819-13.826-46.684-19.727c-24.845-9.241-50.342-8.529-75.813-4.823c-13.054,1.9-25.762,6.194-38.618,9.443
		c-6.427,1.625-12.881,3.168-19.236,5.044c-11.763,3.47-23.532,6.946-35.157,10.847c-5.308,1.781-10.31,4.503-15.392,6.924
		c-9.561,4.555-19.259,8.868-28.562,13.907c-8.127,4.404-17.039,8.444-23.337,14.869c-7.575,7.726-15.449,10.839-25.703,9.583
		c-2.307-0.283-4.652-0.242-6.966-0.479c-32.074-3.293-64.174-6.207-96.47-5.52c-28.601,0.609-57.298-1.956-85.792,2.022
		c-16.468,2.299-32.613,5.728-47.223,14.578c-13.917,8.43-28.301,16.084-42.483,24.074c-6.937,3.907-14.213,7.319-20.747,11.813
		c-12.014,8.262-23.739,16.966-35.318,25.835c-17.922,13.729-36.07,27.216-53.311,41.767c-30.844,26.031-58.13,55.688-84.493,86.159
		c-13.039,15.07-25.628,30.54-38.091,46.094c-10.171,12.697-19.91,25.744-29.738,38.713c-12.442,16.418-24.971,32.775-37.114,49.414
		c-13.52,18.526-26.341,37.504-37.103,57.852c-5.567,10.525-11.208,21.366-18.816,30.376
		c-12.861,15.229-27.072,29.355-41.159,43.502c-14.515,14.575-25.642,31.677-34.185,49.915
		c-7.975,17.023-18.997,31.966-28.203,48.094c-5.922,10.376-10.393,20.596-10.056,32.721c0.287,10.323,0.407,20.676-0.03,30.989
		c-0.537,12.652,2.908,23.707,11.777,32.766c3.973,4.059,5.633,8.539,6.071,14.192c0.73,9.454,3.624,18.105,11.809,24.258
		c2.593,1.949,5.758,4.158,6.349,8.474c-2.894,0-5.211,0.157-7.501-0.025c-14.885-1.185-29.765-3.491-44.645-3.478
		c-41.935,0.036-83.904,0.165-125.791,1.911c-29.808,1.242-59.527,4.949-89.246,7.944c-34.398,3.465-68.334,9.956-101.743,18.6
		c-20.866,5.398-41.192,12.949-61.616,19.958c-13.188,4.526-25.946,10.337-39.195,14.658c-25.356,8.268-49.845,18.285-72.922,31.792
		c-22.97,13.444-45.489,27.425-65.648,44.988c-15.263,13.297-30.786,26.31-46.503,39.067
		c-13.892,11.276-28.849,21.306-42.199,33.166c-22.13,19.66-43.471,40.217-64.914,60.64c-21,20.001-38.813,42.854-57.004,65.318
		c-13.578,16.767-26.196,34.311-39.76,51.089c-17.206,21.285-30.985,44.757-44.643,68.303
		c-8.824,15.212-16.983,30.815-25.209,46.366c-7.131,13.482-14.86,26.754-20.688,40.798c-11.072,26.688-21.325,53.731-31.22,80.883
		c-5.225,14.34-9.226,29.146-13.348,43.863c-9.663,34.504-19.9,68.872-20.829,105.168c-0.561,21.903-2.459,43.771-3.07,65.674
		c-0.669,23.97-0.43,47.964-0.799,71.943c-0.441,28.655,1.458,57.096,7.436,85.163c0.811,3.809-1.151,5.43-3.42,7.462
		c-6.191,5.551-12.655,10.856-18.361,16.875c-25.866,27.283-51.613,54.682-77.089,82.328c-2.939,3.189-5.246,8.087-5.554,12.357
		c-0.764,10.606-1.107,21.411,0.102,31.938c1.042,9.071-0.465,18.688,4.786,27.209c4.704,7.633,7.013,16.27,9.588,24.854
		c1.662,5.541,5.237,10.813,8.997,15.341c4.652,5.603,10.168,10.556,15.693,15.349c10.762,9.34,21.815,18.343,32.697,27.546
		c6.575,5.561,12.85,11.496,19.62,16.805c13.012,10.2,26.332,20.009,39.426,30.109c7.883,6.079,15.283,12.826,23.43,18.514
		c12.508,8.733,25.324,17.053,38.294,25.088c8.881,5.502,18.745,8.241,29.36,7.925c4.989-0.149,10.246-0.852,14.934,0.389
		c13.185,3.489,26.51,2.06,39.768,2.08c6.557,0.01,13.601-0.313,19.55-2.681c7.23-2.878,13.774-7.744,20.187-12.347
		c8.05-5.779,15.913-11.878,23.402-18.361c9.285-8.038,18.377-16.343,27.006-25.073c4.155-4.203,8.417-6.081,14.117-5.393
		c4.603,0.556,9.222,1.144,13.848,1.316c24.278,0.91,48.5,1.574,72.748-1.729c14.593-1.988,28.639-5.342,42.417-10.358
		C670.054,2163.099,679.577,2156.105,687.893,2147.558z"/>
	<path fill-rule="evenodd" clip-rule="evenodd" d="M687.893,2147.558c-8.315,8.548-17.839,15.541-29.3,19.712
		c-13.777,5.017-27.824,8.37-42.417,10.358c-24.247,3.304-48.47,2.64-72.748,1.729c-4.626-0.173-9.245-0.761-13.848-1.316
		c-5.7-0.688-9.962,1.189-14.117,5.393c-8.629,8.73-17.722,17.035-27.006,25.073c-7.489,6.483-15.353,12.582-23.402,18.361
		c-6.413,4.603-12.957,9.469-20.187,12.347c-5.949,2.368-12.993,2.69-19.55,2.681c-13.257-0.021-26.583,1.409-39.768-2.08
		c-4.688-1.24-9.945-0.538-14.934-0.389c-10.615,0.316-20.479-2.423-29.36-7.925c-12.97-8.035-25.786-16.354-38.294-25.088
		c-8.146-5.688-15.547-12.435-23.43-18.514c-13.094-10.101-26.414-19.909-39.426-30.109c-6.771-5.309-13.045-11.244-19.62-16.805
		c-10.881-9.203-21.935-18.206-32.697-27.546c-5.524-4.793-11.041-9.746-15.693-15.349c-3.76-4.527-7.334-9.8-8.997-15.341
		c-2.575-8.585-4.884-17.222-9.588-24.854c-5.251-8.521-3.745-18.138-4.786-27.209c-1.209-10.527-0.866-21.332-0.102-31.938
		c0.308-4.271,2.614-9.168,5.554-12.357c25.476-27.646,51.223-55.045,77.089-82.328c5.706-6.019,12.17-11.324,18.361-16.875
		c2.269-2.032,4.231-3.653,3.42-7.462c-5.977-28.067-7.877-56.508-7.436-85.163c0.369-23.979,0.13-47.974,0.799-71.943
		c0.611-21.903,2.509-43.771,3.07-65.674c0.929-36.296,11.166-70.664,20.829-105.168c4.122-14.717,8.123-29.523,13.348-43.863
		c9.895-27.151,20.147-54.195,31.22-80.883c5.828-14.044,13.557-27.315,20.688-40.798c8.226-15.551,16.385-31.154,25.209-46.366
		c13.657-23.545,27.437-47.018,44.643-68.303c13.564-16.779,26.182-34.323,39.76-51.089c18.192-22.464,36.004-45.316,57.004-65.318
		c21.443-20.422,42.784-40.98,64.914-60.64c13.35-11.86,28.307-21.89,42.199-33.166c15.717-12.757,31.24-25.77,46.503-39.067
		c20.159-17.563,42.678-31.544,65.648-44.988c23.077-13.507,47.566-23.524,72.922-31.792c13.25-4.321,26.007-10.132,39.195-14.658
		c20.423-7.009,40.75-14.56,61.616-19.958c33.409-8.645,67.345-15.135,101.743-18.6c29.719-2.995,59.438-6.703,89.246-7.944
		c41.887-1.746,83.856-1.875,125.791-1.911c14.88-0.013,29.76,2.293,44.645,3.478c2.29,0.183,4.607,0.025,7.501,0.025
		c-0.591-4.316-3.755-6.524-6.349-8.474c-8.186-6.153-11.079-14.805-11.809-24.258c-0.438-5.653-2.098-10.133-6.071-14.192
		c-8.87-9.06-12.314-20.114-11.777-32.766c0.437-10.313,0.317-20.666,0.03-30.989c-0.337-12.125,4.133-22.345,10.056-32.721
		c9.206-16.128,20.228-31.07,28.203-48.094c8.543-18.238,19.67-35.339,34.185-49.915c14.087-14.147,28.297-28.274,41.159-43.502
		c7.608-9.01,13.25-19.851,18.816-30.376c10.761-20.348,23.583-39.326,37.103-57.852c12.143-16.639,24.672-32.996,37.114-49.414
		c9.828-12.969,19.566-26.016,29.738-38.713c12.462-15.554,25.052-31.023,38.091-46.094c26.363-30.471,53.648-60.128,84.493-86.159
		c17.241-14.551,35.389-28.039,53.311-41.767c11.579-8.869,23.304-17.573,35.318-25.835c6.534-4.493,13.811-7.905,20.747-11.813
		c14.182-7.99,28.567-15.645,42.483-24.074c14.61-8.85,30.755-12.279,47.223-14.578c28.494-3.978,57.19-1.413,85.792-2.022
		c32.296-0.688,64.396,2.226,96.47,5.52c2.314,0.237,4.659,0.196,6.966,0.479c10.253,1.256,18.127-1.858,25.703-9.583
		c6.298-6.424,15.209-10.464,23.337-14.869c9.303-5.039,19.001-9.352,28.562-13.907c5.082-2.42,10.084-5.143,15.392-6.924
		c11.625-3.901,23.394-7.377,35.157-10.847c6.355-1.876,12.809-3.419,19.236-5.044c12.856-3.25,25.564-7.543,38.618-9.443
		c25.472-3.707,50.968-4.418,75.813,4.823c15.864,5.901,32.396,10.178,46.684,19.727c11.317,7.563,22.679,15.088,33.681,23.095
		c16.33,11.882,32.218,24.374,48.595,36.19c5.851,4.221,12.551,7.276,18.924,10.754c1.109,0.606,2.525,0.973,3.787,0.938
		c16.942-0.467,33.881-1.129,50.824-1.535c23.28-0.557,46.563-1.111,69.847-1.306c9.279-0.078,18.571,1.239,27.852,1.165
		c23.617-0.189,47.236-0.607,70.845-1.316c18.164-0.545,33.637,6.207,48.235,16.136c8.477,5.766,17.273,11.06,25.872,16.646
		c3.295,2.141,6.807,4.132,9.594,6.836c10.764,10.441,21.127,21.296,31.919,31.705c11.204,10.805,19.539,23.76,25.343,37.795
		c7.916,19.145,20.273,34.917,32.981,50.771c13.266,16.551,28.155,31.823,38.783,50.493c6.233,10.952,14.025,21.005,20.715,31.714
		c3.482,5.573,9.261,7.45,14.408,10.251c7.555,4.111,15.659,7.216,23.189,11.368c13.649,7.526,27.04,15.524,40.555,23.298
		c23.875,13.732,47.75,27.465,71.65,41.154c17.576,10.067,35.008,20.408,52.876,29.929c7.824,4.169,16.416,7.116,24.935,9.722
		c28.646,8.766,57.119,18.294,82.589,34.186c15.117,9.431,31.202,17.791,44.162,30.545c6.369,6.269,13.054,12.256,19.959,17.929
		c4.834,3.97,10.17,7.371,15.479,10.712c15.341,9.656,28.848,21.36,39.026,36.392c5.187,7.659,9.362,16.051,13.484,24.364
		c2.018,4.066,3.511,8.621,4.14,13.109c3.514,25.083,4.658,50.264,1.729,75.502c-0.875,7.539-4.408,13.839-9.805,19.168
		c-11.562,11.417-23.033,22.85-36.678,31.961c-7.124,4.757-13.022,11.321-20.004,16.328c-16.111,11.552-34.822,17.921-53.004,25.17
		c-35.345,14.091-72.614,21.451-109.579,29.506c-19.168,4.176-38.334,8.008-56.884,14.457c-8.122,2.825-8.329,3.278-7.666,14.26
		c9.367-2.462,18.53-4.936,27.726-7.274c32.826-8.351,65.909-15.407,99.451-20.304c36.437-5.319,72.974-10.153,109.195-16.699
		c24.616-4.448,49.155-7.377,74.156-8.106c14.512-0.424,28.939-3.651,43.411-5.562c5.921-0.783,11.859-2.01,17.792-2.025
		c25.315-0.061,50.634,0.434,75.95,0.344c9.607-0.033,19.204-1.429,28.817-1.614c15.657-0.3,31.368-0.868,46.975,0.056
		c18.862,1.117,37.699,3.211,56.438,5.707c32.897,4.379,65.834,8.685,98.513,14.396c18.932,3.309,37.161,9.799,54.806,17.907
		c15.636,7.186,31.918,12.956,47.877,19.445c21.947,8.922,41.83,21.659,62.056,33.762c15.952,9.545,32.281,18.493,47.893,28.561
		c14.789,9.538,28.715,20.358,41.597,32.455c12.609,11.84,25.19,23.724,38.135,35.192c29.179,25.851,56.682,53.313,81.546,83.366
		c14.188,17.148,28.883,33.918,42.303,51.651c15.42,20.375,30.212,41.278,44.316,62.587c17.4,26.289,34.75,52.714,46.523,82.214
		c2.833,7.098,4.594,14.639,7.615,21.645c7.625,17.679,15.717,35.156,23.561,52.74c3.246,7.276,6.384,14.602,9.495,21.937
		c10.153,23.938,18.671,48.394,22.003,74.32c1.432,11.139,2.222,22.37,2.975,33.581c1.38,20.534,3.916,41.118,3.414,61.62
		c-0.699,28.632,2.228,56.912,3.892,85.363c2.059,35.176,1.197,70.507-7.151,105.173c-2.32,9.633-3.832,19.457-5.812,29.174
		c-0.922,4.522-0.178,8.054,3.298,11.691c17.003,17.803,34.355,35.161,53.395,50.866c9.215,7.602,17.112,16.787,25.732,25.128
		c20.146,19.494,38.071,40.832,53.911,63.963c3.336,4.87,5.116,9.954,5.071,15.809c-0.068,8.998,0.922,18.127-0.302,26.956
		c-1.068,7.709-3.681,15.536-7.218,22.494c-5.402,10.627-11.916,20.728-18.454,30.728c-8.865,13.557-20.019,24.725-35.28,31.168
		c-1.806,0.762-3.913,1.605-5.037,3.063c-9.664,12.529-22.489,21.49-34.617,31.267c-3.594,2.896-6.549,6.574-9.937,9.743
		c-11.655,10.905-22.24,23.442-35.351,32.186c-16.875,11.253-34.465,21.266-55.34,25.903c-17.858,3.967-35.364,4.644-53.249,5.311
		c-13.012,0.484-23.457-4.839-32.356-13.041c-13.536-12.474-28.713-22.439-43.923-32.615c-11.528-7.712-22.143-17.028-32.159-26.676
		c-6.109-5.884-11.305-7.494-20.03-6.411c-21.118,2.623-42.363,1.684-63.604-1.718c-21.042-3.369-39.669-12.751-58.973-20.571
		c-2.709-1.098-4.994-3.267-7.43-5.005c-5.403-3.857-10.82-7.695-16.15-11.652c-6.38-4.733-12.656-9.605-19.013-14.371
		c-2.821-2.113-5.728-4.111-8.734-6.261c-17.718,17.709-40.256,24.258-62.269,31.484c-37.882,12.437-76.863,17.918-116.79,17.485
		c-24.63-0.268-49.318,0.064-73.55-4.619c-18.513-3.577-36.948-8.088-54.927-13.741c-18.348-5.771-36.248-13.079-54.055-20.418
		c-10.981-4.526-21.423-10.369-31.667-15.403c-13.293,9.145-26.396,18.15-39.481,27.182c-1.09,0.753-2.147,1.595-3.073,2.539
		c-13.084,13.347-28.869,23.278-43.487,34.696c-14.892,11.634-29.429,23.782-43.469,36.428
		c-15.575,14.027-30.888,28.414-45.438,43.491c-14.301,14.819-27.347,30.845-41.236,46.071
		c-10.536,11.55-21.438,22.771-32.366,33.953c-5.335,5.458-11.103,10.495-17.286,16.297c5.262,9.065,10.419,17.844,15.47,26.684
		c5.729,10.026,7.921,21.133,8.781,32.406c0.657,8.615,0.036,17.322,0.162,25.985c0.097,6.681-1.92,12.712-6.646,17.193
		c-10.839,10.278-22.087,20.126-33.186,30.132c-1.231,1.11-2.762,1.94-3.815,3.186c-8.367,9.888-19.261,15.945-30.689,21.633
		c-7.729,3.844-15.325,5.508-23.872,5.628c-18.431,0.26-36.56-0.448-53.881-7.765c-7.968-3.365-15.833-6.47-22.199-12.855
		c-4.098-4.11-9.543-6.875-14.538-10.349c-3.253,2.47-6.037,4.249-8.43,6.452c-12.12,11.161-26.854,15.727-42.824,16.246
		c-20.303,0.66-40.634,0.815-60.947,0.621c-7.253-0.07-14.55-1.479-21.715-2.859c-6.261-1.207-11.712-4.034-16.25-8.994
		c-5.377-5.872-11.801-10.774-17.299-16.548c-8.801-9.24-13.792-20.236-13.69-33.257c0.063-8.332,0.13-16.666-0.015-24.995
		c-0.288-16.688,5.103-31.986,11.265-47.112c0.999-2.452,2.09-4.865,3.597-8.363c-5.639-5.653-11.226-11.748-17.335-17.265
		c-9.431-8.514-15.315-19.344-19.855-30.775c-2.259-5.686-2.603-12.333-2.842-18.582c-0.897-23.417,0.591-46.379,11.597-67.949
		c4.942-9.685,11.98-17.493,18.754-25.641c2.546-3.063,5.866-5.483,8.384-8.564c5.243-6.42,11.942-10.119,19.761-12.619
		c20.618-6.592,41.655-8.374,63.074-6.282c2.859,0.279,5.611,1.801,8.381,2.832c4.621,1.719,9.371,3.187,13.781,5.345
		c5.242,2.564,10.183,5.744,16.138,9.166c7.722-9.534,15.641-19.749,24.034-29.557c10.157-11.869,20.822-23.301,31.067-35.096
		c9.368-10.784,18.429-21.837,27.705-32.702c6.471-7.58,13.186-14.953,19.602-22.579c10.262-12.197,20.331-24.556,30.548-36.79
		c5.324-6.375,10.56-12.847,16.229-18.906c33.641-35.95,65.149-73.863,100.726-108.051c16.291-15.655,30.812-33.136,46.692-49.239
		c10.24-10.384,21.231-20.076,32.349-29.532c16.915-14.385,34.364-28.139,51.347-42.444c23.1-19.46,45.72-39.496,69.031-58.696
		c16.396-13.503,33.346-26.38,50.586-38.787c5.854-4.211,9.623-9.143,11.125-15.656c4.384-19.02,11.824-36.991,22.88-52.699
		c9.07-12.887,20.726-24.213,32.425-34.935c18.947-17.365,42.74-25.147,67.395-30.144c7.395-1.497,15.187-1.099,22.803-1.421
		c17.376-0.738,34.576,0.067,51.212,5.914c2.149,0.757,4.518,0.931,6.804,1.236c0.558,0.074,1.188-0.396,2.867-1.017
		c-0.784-5.846-1.613-11.97-2.425-18.097c-0.604-4.561-1.948-9.177-1.644-13.678c1.104-16.26-2.386-31.589-7.28-46.955
		c-5.144-16.153-13.86-29.994-24.274-43.052c-11.604-14.545-22.993-29.261-34.639-43.771c-2.467-3.074-5.297-6.095-8.542-8.269
		c-22.312-14.944-44.688-29.797-67.282-44.307c-3.787-2.433-8.677-3.278-13.159-4.476c-27.396-7.311-55.176-11.798-83.641-11.562
		c-21.276,0.177-42.516-0.171-63.69,3.122c-11.105,1.727-22.574,0.991-33.77,2.306c-16.149,1.896-32.185,4.741-48.293,7.008
		c-21.988,3.093-44.03,5.813-65.988,9.098c-13.795,2.063-27.531,4.602-41.191,7.419c-10.484,2.162-20.941,3.53-31.667,3.14
		c-7.987-0.291-15.995-0.102-23.993-0.047c-8.633,0.059-16.199-2.94-23.208-7.746c-2.168-1.486-4.359-3.181-6.802-3.987
		c-18.574-6.13-37.274-11.881-55.807-18.133c-10.063-3.395-19.689-8.143-29.84-11.197c-13.631-4.103-27.504-7.485-41.405-10.591
		c-21.4-4.779-42.952-8.877-64.352-13.659c-6.963-1.556-11.753,0.218-16.852,5.215c-15.675,15.358-31.604,30.492-48.07,44.993
		c-9.383,8.262-20.032,15.08-30.052,22.626c-3.44,2.59-6.729,5.384-10.044,8.137c-21.254,17.642-44.052,33.029-67.945,46.856
		c-4.008,2.319-7.354,5.806-11.411,8.012c-23.646,12.859-45.978,27.744-68.196,42.886c-18.367,12.518-37.198,24.385-56.188,35.942
		c-11.309,6.885-23.573,12.191-34.959,18.961c-19.365,11.511-38.217,23.886-57.59,35.383c-14.196,8.424-28.882,16.023-43.352,23.986
		c-6.097,3.355-12.092,6.921-18.338,9.969c-4.152,2.027-8.551,3.835-13.041,4.835c-19.982,4.45-37.801,14.337-56.498,22.015
		c-13.572,5.573-27.646,9.215-42.178,11.416c-12.842,1.945-25.193,5.528-36.794,11.839c-10.671,5.806-22.667,7.604-34.658,8.084
		c-12.312,0.492-24.696,0.7-36.977-0.084c-9.217-0.589-18.563-2.11-27.426-4.684c-20.153-5.852-39.313-14.311-57.786-24.312
		c-24.445-13.233-45.332-31.237-66.067-49.396c-14.751-12.92-29.344-26.043-43.535-39.571
		c-19.022-18.136-37.643-36.691-56.292-55.213c-3.266-3.244-5.797-7.224-8.713-10.827c-4.175-5.159-8.347-10.322-12.616-15.403
		c-1.495-1.779-3.231-3.365-4.931-4.963c-16.786-15.775-32.401-32.354-42.811-53.391c-7.887-15.939-20.937-28.219-32.239-41.705
		c-5.749-6.861-11.149-14.018-16.932-20.849c-6.866-8.108-14.664-15.524-20.769-24.151c-5.308-7.497-8.82-16.266-13.13-24.471
		c-0.715-1.362-1.454-2.713-2.592-4.834c-18.793,12.857-40.403,17.067-61.032,23.574c-30.057,9.481-60.586,17.464-90.907,26.113
		c-2.873,0.819-5.802,1.583-8.514,2.801c-23.146,10.4-47.562,16.868-71.818,23.979c-17.491,5.126-34.484,11.965-51.658,18.153
		c-14.042,5.062-27.699,11.406-43.08,11.625c-2.563,0.036-5.317,0.959-7.627,2.157c-16.396,8.502-34.002,3.72-51.058,4.859
		c-0.65,0.044-1.586,0.095-1.934-0.279c-4.533-4.87-11-5.343-16.742-7.384c-7.368-2.619-13.251-7.08-18.843-12.507
		c-2.791-2.709-7.363-4.001-11.363-4.918c-3.484-0.799-7.309-0.382-10.958-0.131c-8.814,0.605-16.464-1.113-24.304-6.178
		c-7.637-4.935-17.264-6.689-25.792-10.364c-13.379-5.765-26.19-13.081-39.919-17.749c-26.129-8.883-53.129-14.524-80.493-18.469
		c-17.856-2.575-35.677-1.978-53.569-1.313c-20.458,0.76-39.944,5.864-59.393,11.824c-25.388,7.779-51.045,14.674-76.567,22.021
		c-20.957,6.033-40.424,15.17-57.773,28.499c-14.996,11.521-29.872,23.199-44.773,34.846c-6.675,5.217-11.653,11.694-15.247,19.445
		c-2.928,6.316-5.924,12.844-10.191,18.249c-10.013,12.682-13.196,27.252-13.735,42.778c-0.315,9.089-2.114,17.683-6.292,25.885
		c-3.176,6.237-4.199,12.849-4.054,20.177c0.314,15.914-0.967,31.856-1.544,47.789c-0.058,1.583,0.249,3.18,0.363,4.494
		c19.762,0,38.953-0.331,58.123,0.155c8.217,0.209,16.502,1.602,24.558,3.366c15.605,3.42,30.574,8.733,44.733,16.342
		c4.625,2.485,9.824,4.314,14.979,5.32c21.025,4.102,38.221,14.499,52.867,29.936c12.813,13.505,27.181,25.665,36.126,42.391
		c2.299,4.299,4.471,9.046,5.074,13.793c1.502,11.849,2.4,23.805,2.847,35.743c0.184,4.882,1.696,8.021,5.669,10.672
		c24.153,16.11,44.663,36.504,65.894,56.075c12.447,11.474,25.773,21.996,38.165,33.524c19.954,18.564,40.454,36.508,57.877,57.75
		c22.962,27.993,47.108,55.012,70.639,82.541c5.383,6.298,10.172,13.104,15.503,19.45c17.531,20.865,34.876,41.896,52.867,62.361
		c24.364,27.714,48.963,55.234,74.027,82.314c17.167,18.548,35.497,36.017,52.863,54.387c4.555,4.819,9.362,5.948,15.137,4.886
		c12.335-2.269,25.17-2.211,36.737-8.221c2.505-1.302,5.806-1.343,8.762-1.47c23.019-0.982,45.982,0.264,68.496,4.959
		c11.92,2.487,23.68,6.777,33.615,14.436c15.048,11.602,29.436,23.994,40.598,39.522c9.019,12.545,16.05,26.027,15.245,42.234
		c-0.115,2.328-0.334,4.716,0.035,6.989c2.557,15.753-5.134,27.483-15.064,38.198c-9.935,10.721-20.179,21.154-30.491,31.927
		c2.79,6.645,6.053,13.884,8.895,21.284c7.716,20.1,6.962,41.139,6.368,62.098c-0.217,7.614-0.429,15.396-2.149,22.75
		c-1.473,6.294-3.774,13.331-8.033,17.85c-10.688,11.342-22.635,21.504-34.195,32.01c-4.412,4.011-9.094,7.731-13.747,11.468
		c-5.049,4.055-10.745,6.601-17.333,6.786c-19.656,0.551-39.243-0.199-58.751-2.855c-16.93-2.306-31.43-10.146-45.207-19.618
		c-4.091-2.813-7.887-6.057-10.462-8.051c-16.674,0.205-31.919,0.246-47.154,0.663c-4.919,0.134-9.813,1.241-14.715,1.93
		c-2.94,0.414-5.863,1.146-8.811,1.262c-5.325,0.208-10.736-0.511-15.982,0.159c-23.008,2.941-40.705-7.556-56.402-22.395
		c-6.43-6.078-12.034-13.221-17.064-20.532c-4.563-6.633-6.428-14.512-6.378-22.727c0.078-12.665-1.085-25.458,0.364-37.955
		c1.202-10.356,5.233-20.423,8.402-30.495c1.069-3.397,3.341-6.418,5.013-9.517c-10.263-15.393-25.108-25.599-38.916-36.918
		c-9.751-7.992-19.569-15.924-28.971-24.314c-10.917-9.742-21.434-19.937-32.089-29.974c-18.145-17.094-36.767-33.72-54.267-51.452
		c-22.9-23.204-44.848-47.348-67.337-70.962c-5.257-5.52-11.046-10.532-16.301-15.505c-10.41,5.141-20.172,9.984-29.953,14.789
		c-21.53,10.58-44.216,18.267-67.126,24.953c-13.591,3.965-27.941,5.579-42.057,7.441c-21.047,2.774-42.14,5.546-63.303,7.007
		c-22.817,1.574-45.639,4.309-68.649,1.369c-16.112-2.06-32.44-2.395-48.588-4.232c-17.467-1.987-34.778-5.41-52.262-7.158
		C734.498,2174.182,711.682,2161.812,687.893,2147.558z"/>
</g>
</svg>
