<?xml version="1.0" encoding="utf-8"?>
<!-- Generator: Adobe Illustrator 16.0.2, SVG Export Plug-In . SVG Version: 6.00 Build 0)  -->
<!DOCTYPE svg PUBLIC "-//W3C//DTD SVG 1.1//EN" "http://www.w3.org/Graphics/SVG/1.1/DTD/svg11.dtd">
<svg version="1.1" id="Layer_1" xmlns="http://www.w3.org/2000/svg" xmlns:xlink="http://www.w3.org/1999/xlink" x="0px" y="0px"
	 width="4670.416px" height="2794.65px" viewBox="0 0 4670.416 2794.65" enable-background="new 0 0 4670.416 2794.65"
	 xml:space="preserve">
<g>
	<path fill-rule="evenodd" clip-rule="evenodd" fill="#FFFFFF" d="M4673.302,2797.536c-1557.175,0-3114.239,0-4671.189,0
		c0-931.92,0-1863.728,0-2795.424c1557.176,0,3114.239,0,4671.189,0C4673.302,934.033,4673.302,1865.842,4673.302,2797.536z
		 M1616.813,2259.643c-1.713,7.202-3.995,14.496-5.073,21.966c-1.134,7.851-1.151,15.868-1.595,23.814
		c-1.536,27.489,3.33,54.327,8.491,81.104c3.55,18.418,9.447,36.316,19.108,52.251c14.098,23.252,34.723,40.158,58.723,52.686
		c4.818,2.515,10.733,3.502,16.246,3.976c8.606,0.74,17.304,0.336,25.956,0.631c3.268,0.111,6.846,0.088,9.717,1.381
		c15.805,7.12,32.704,8.349,49.573,9.917c17.192,1.599,34.475,2.57,51.552,4.989c39.519,5.599,79.094,9.909,119.075,9.677
		c51.979-0.303,103.962-0.236,155.938-0.757c38.899-0.39,77.813,1.596,116.687-3.002c27.667-3.271,55.622-4.04,83.418-6.29
		c32.093-2.598,64.19-5.223,96.213-8.543c23.101-2.394,46.237-5.072,69.084-9.155c45.114-8.062,89.966-17.588,135.069-25.719
		c28.088-5.064,56.438-8.672,84.67-12.948c29.213-4.426,58.502-8.412,87.612-13.438c27.873-4.813,55.571-10.063,84.127-8.421
		c5.979,0.344,12.369-2.09,18.177-4.283c6.189-2.338,12.111-5.58,17.805-9.003c17.943-10.786,32.626-25.106,44.015-42.636
		c14.025-21.585,18.133-46.155,20.539-71.146c0.81-8.414,1.385-16.852,2.099-25.654c22.655,7.991,44.635,15.521,66.454,23.487
		c44.869,16.383,91.387,26.306,138.436,32.913c32.799,4.606,66.096,6.17,99.233,7.721c34.225,1.603,68.525,1.632,102.796,2.188
		c31.271,0.508,62.515-0.277,93.66-3.311c33.69-3.282,67.493-5.793,101.013-10.346c51.508-6.996,101.915-18.849,150.309-38.444
		c41.654-16.867,83.08-34.052,121.92-57.035c43.635-25.825,81.491-58.531,116.463-94.871c5.598-5.815,10.001-12.545,11.745-20.535
		c1.047-4.798,1.209-9.79,1.821-15.153c31.038-12.211,56.457-32.763,78.971-56.644c6.68,3.585,5.368,8.803,4.679,13.027
		c-3.37,20.635-6.274,41.415-11.103,61.726c-6.332,26.629-12.055,53.142-10.652,80.747c0.927,18.259,1.702,36.538,1.86,54.814
		c0.079,9.049,3.597,15.565,9.697,21.979c11.222,11.802,26.064,18.407,38.548,28.335c1.62,1.288,4.319,1.501,6.563,1.682
		c16.143,1.301,31.279-1.122,46.32-8.229c23.11-10.921,38.685-27.511,46.08-51.884c0.966-3.181,1.945-6.358,2.914-9.539
		c8.637-28.397,13.672-57.548,17.283-86.91c3.364-27.335,5.904-54.775,8.465-82.202c1.045-11.188,1.188-22.459,1.596-30.745
		c8.353-8.039,14.6-14.351,21.175-20.301c7.423-6.72,3.455-16.877,7.45-25.524c3.123,2.926,5.764,4.954,7.858,7.442
		c7.585,9.004,16.678,12.831,28.853,12.248c20.027-0.96,20.455,0.051,32.88-15.691c4.125-5.225,7.579-12.386,7.966-18.862
		c0.805-13.531,0.301-27.313-1.363-40.782c-2.851-23.063-6.885-45.983-10.639-68.929c-6.448-39.408-13.883-78.631-28.174-116.096
		c-11.147-29.222-22.449-58.477-39.678-84.84c-7.637-11.686-16.525-22.549-24.326-34.135c-9.587-14.232-21.615-22.859-39.74-20.999
		c-7.484,0.769-15.114,0.127-23.184,0.127c0-4.401,0-7.509,0-11.399c3.854,0,7.243,0.519,10.406-0.105
		c7.107-1.401,15.809-1.338,20.795-5.523c10.972-9.216,21.988-18.612,26.686-33.842c4.67-15.134,8.295-30.027,7.745-45.869
		c-0.324-9.315-0.395-18.641-0.699-27.957c-0.139-4.222,0.387-7.406,5-9.636c24.726-11.955,44.355-30.458,62.658-50.409
		c3.663-3.993,7.649-9.503,7.9-14.495c0.968-19.21,1.929-38.57-5.478-57.149c-5.704-14.309-16.008-24.113-28.932-31.548
		c-10.073-5.794-21.2-7.621-32.675-7.336c-13.227,0.328-26.446,0.893-39.23,1.339c-11.244-21.287-27.719-36.61-48.677-47.393
		c-25.854-13.304-53.564-11.547-81.17-9.641c-3.835,0.265-7.933,3.349-11.025,6.117c-4.418,3.955-8.023,8.821-13.319,14.821
		c-28.277-47.846-60.803-89.547-101.914-125.115c11.384-11.296,21.577-21.798,32.225-31.816c5.271-4.96,7.563-10.454,7.436-17.637
		c-0.285-15.961-0.089-31.931-0.089-47.089c10.257-9.48,20.256-18.707,30.235-27.956c4.339-4.021,6.902-8.957,7.052-14.92
		c0.301-11.984,0.717-23.974,0.619-35.957c-0.073-8.912-2.781-16.904-9.727-23.194c-5.428-4.917-10.388-10.346-15.613-15.489
		c-9.599-9.45-20.244-15.585-34.651-14.245c-13.144,1.224-26.438,0.834-40.451,1.174c-0.781-1.043-2.342-2.79-3.526-4.762
		c-8.383-13.957-20.217-24.563-32.82-34.529c-4.219-3.335-8.632-4.511-13.836-4.402c-9.328,0.194-18.684-0.312-27.986,0.213
		c-4.458,0.252-9.121,1.563-13.173,3.485c-12.974,6.158-21.973,17.193-31.246,27.555c-6.005,6.71-9.616,15.023-8.944,24.702
		c0.365,5.279-0.635,10.639-0.488,15.948c0.149,5.459-2.084,7.97-7.579,7.877c-22.438-27.896-47.406-53.237-74.171-76.784
		c-23.24-20.446-47.043-40.267-73.105-57.075c-17.068-11.007-34.5-21.865-55.235-24.329c-10.521-1.249-21.284-0.289-31.897-0.967
		c-10.027-0.64-18.864,1.518-27.355,7.094c-14.939,9.811-26.167,21.391-24.054,41.04c0.212,1.976,0.028,3.995,0.028,5.995
		c0,22.598-0.062,22.669,16.875,37.242c5.548,4.774,11.301,9.386,19.553,8.169c1.825-0.27,4.039,0.385,5.736,1.266
		c9.395,4.876,19.277,9.104,27.899,15.122c27.024,18.861,52.882,39.278,76.946,61.85c8.66,8.122,17.264,16.396,23.958,27.055
		c-9.858,4.227-18.91,8.417-28.186,12.033c-46.89,18.279-92.35,39.499-135.342,65.757c-24.99,15.264-49.771,30.869-74.631,46.349
		c-15.233,9.486-30.651,18.698-45.565,28.662c-8.544,5.708-15.701,13.57-24.435,18.904c-22.694,13.863-42.1,31.479-59.995,50.819
		c-7.389,7.984-15.663,16.335-19.549,26.104c-6.341,15.941-9.395,33.187-13.894,49.867c-0.5,1.855-1.374,3.61-2.739,7.12
		c-0.715-10.816-0.16-19.704-2.14-27.987c-2.523-10.559-7.568-20.49-10.65-30.949c-3.155-10.714-11.952-16.484-19.013-23.811
		c-1.01-1.048-2.949-1.366-4.527-1.675c-17.365-3.396-34.896-4.981-52.565-3.819c-2.969,0.195-6.563,1.668-8.577,3.782
		c-10.784,11.31-21.207,22.965-31.617,34.624c-1.504,1.683-2.604,3.92-3.309,6.091c-4.317,13.269-8.934,26.465-12.568,39.924
		c-6.707,24.835-7.681,50.512-9.428,75.972c-1.605,23.417-5.15,46.227-14.43,67.876c-2.064,4.816-4.166,10.345-7.939,13.569
		c-14.16,12.1-29.007,23.081-47.826,27.644c-21.953,5.324-43.512,12.286-65.48,17.532c-16.382,3.911-30.985,10.12-41.5,23.758
		c-3.574,4.635-7.907,5.265-13.227,4.192c-19.286-3.886-38.841-4.522-58.442-5.478c-12.838-0.626-22.293,2.911-30.203,12.847
		c-4.65,5.844-10.509,10.725-16.354,16.567c-1.029-2.979-2.146-5.06-2.444-7.252c-2.244-16.482-5.598-32.691-10.337-48.663
		c-3.296-11.106-5.472-22.541-8.481-33.738c-5.078-18.9-9.454-38.067-15.881-56.511c-9.705-27.852-20.43-55.379-31.667-82.655
		c-7.178-17.422-14.958-34.788-24.457-51.015c-12.061-20.604-25.79-40.27-39.477-59.869c-7.957-11.394-16.318-22.797-26.159-32.513
		c-12.204-12.047-26.114-22.369-39.316-33.401c-4.078-3.407-8.326-6.613-12.366-10.063c-6.17-5.269-12.226-10.67-19.393-16.946
		c7.647-1.093,13.479-1.702,19.221-2.793c12.412-2.36,21.502-10.043,29.435-19.258c5.208-6.05,1.539-13.479,2.577-20.198
		c0.05-0.326-0.044-0.674,0.014-0.998c2.569-14.413-7.729-21.668-17.491-27.191c-11.172-6.32-23.896-9.96-36.08-14.392
		c-3.331-1.211-7.154-1.557-10.74-1.501c-17.285,0.268-34.565,0.922-51.852,1.221c-17.665,0.307-35.088,2.45-52.426,5.759
		c-3.354,0.641-7.322,0.221-10.544-0.969c-22.085-8.154-44.005-16.758-66.061-24.995c-23.543-8.791-47.912-13.392-73.068-13.819
		c-2.359-0.04-4.704-0.886-8.413-1.631c6.735-5.942,12.489-10.439,17.537-15.624c5.978-6.14,12.559-7.401,20.671-5.383
		c8.937,2.223,18.067,3.694,27.153,5.266c4.89,0.845,10.011,0.648,14.773,1.897c24.771,6.497,50.014,6.747,75.328,6.121
		c3.94-0.097,7.922-0.873,11.774-1.795c12.273-2.939,24.589-5.77,36.699-9.297c6.793-1.978,12.261-1.725,16.575,4.439
		c3.605,5.152,8.661,6.009,14.771,6.254c21.68,0.868,42.496-3.896,62.613-10.603c12.626-4.209,23.242-12.854,23.196-28.705
		c-0.001-0.533,0.702-1.067-0.108,0.087c39.495-11.578,77.429-22.718,115.376-33.813c14.331-4.19,28.695-8.267,43.041-12.412
		c3.792-1.095,7.783-1.789,11.315-3.448c17.109-8.034,34.056-16.414,51.13-24.523c31.852-15.13,63.561-30.586,95.719-45.042
		c15.484-6.96,28.73-16.35,40.433-28.427c5.335-5.506,9.087-11.082,8.086-19.29c-0.681-5.583,0.426-11.391-0.313-16.959
		c-0.585-4.405-1.798-9.34-4.417-12.741c-6.785-8.812-14.621-16.643-27.529-13.648c-0.945,0.219-2.025,0.167-2.985-0.031
		c-7.073-1.459-15.476-1.114-20.854-4.97c-6.778-4.859-13.479-6.674-21.125-6.94c-10.802-0.377-20.942-2.721-30.428-8.126
		c-15.265-8.699-30.938-16.707-45.973-25.78c-12.463-7.521-24.068-16.451-36.412-24.188c-7.306-4.578-10.028-10.333-9.58-18.888
		c0.503-9.609,0.625-19.452-0.87-28.911c-4.245-26.839-11.27-53.08-19.569-78.94c-8.2-25.553-16.859-50.958-25.218-76.461
		c-6.293-19.203-11.618-38.766-18.826-57.614c-10.793-28.217-24.079-55.119-41.918-79.933
		c-13.017-18.107-27.436-34.804-42.168-51.371c-15.785-17.75-35.262-31.413-52.511-47.514
		c-13.537-12.636-28.972-19.528-47.209-21.038c-13.225-1.096-26.396-3.046-39.635-3.699c-11.617-0.572-23.346-0.51-34.935,0.414
		c-19.462,1.551-38.836,4.151-58.275,6.022c-8.579,0.825-17.322,0.303-25.818,1.562c-9.042,1.338-16.333-0.127-21.81-7.904
		c-3.548-5.038-8.393-6.771-14.68-6.391c-8.966,0.541-18.002-0.152-26.982,0.244c-5.407,0.239-9.722-1.328-13.619-4.859
		c-4.433-4.017-8.707-8.284-13.529-11.782c-23.448-17.011-47.885-32.103-74.445-44.205c-37.944-17.29-76.87-29.457-118.709-30.998
		c-7.106-0.262-13.647-1.766-20.34-4.042c-16.445-5.593-32.998-5.579-49.62,0.118c-5.843,2.002-12.203,3.459-18.329,3.468
		c-12.442,0.02-24.541,1.756-36.481,4.862c-13.812,3.592-27.613,7.26-41.292,11.318c-12.71,3.771-25.416,7.668-37.838,12.278
		c-22.476,8.341-42.379,22.013-64.118,31.851c-24.161,10.935-48.368,21.992-73.281,30.985
		c-25.584,9.235-50.148,20.615-75.046,31.344c-22.224,9.577-44.502,19.06-67.017,27.924c-21.913,8.628-44.272,16.123-66.214,24.682
		c-14.196,5.538-27.849,12.462-42.001,18.123c-37.302,14.92-74.683,29.646-112.153,44.136
		c-21.386,8.271-43.394,14.412-66.244,17.229c-11.856,1.462-23.812,2.518-35.5,4.863c-30.271,6.075-60.429,12.716-90.609,19.236
		c-8.856,1.913-17.396,4.973-24.048,11.34c-9.38,8.981-18.289,18.454-27.475,27.64c-5.774,5.775-7.935,12.846-7.932,20.785
		c0.002,7.666,0.052,15.332-0.018,22.997c-0.134,14.849,3.855,28.855,13.349,39.891c12.316,14.316,26.27,27.243,39.768,40.517
		c6.616,6.508,14.016,12.218,20.671,18.689c22.67,22.039,44.793,44.656,67.849,66.282c18.456,17.311,38.985,32.129,60.765,45.1
		c4.805,2.861,10.469,4.547,14.727,8.016c15.976,13.016,31.794,26.252,47.188,39.95c23.628,21.024,48.056,40.968,73.881,59.267
		c30.724,21.771,62.955,41.073,95.696,59.544c40.823,23.032,84.622,38.504,130.039,49.483c33.556,8.113,67.287,15.5,100.873,23.494
		c34.168,8.133,68.214,16.781,102.391,24.881c22.849,5.417,45.738,10.748,68.78,15.236c21.462,4.18,43.144,7.242,64.745,10.699
		c6.409,1.026,12.87,1.72,19.896,2.644c-0.684,2.246-0.988,3.49-1.436,4.679c-6.658,17.696-13.14,35.471-16.239,54.196
		c-0.915,5.53-4.269,7.938-8.681,9.812c-14.435,6.131-28.108,13.504-40.042,23.854c-1.977,1.715-4.444,2.88-6.729,4.223
		c-21.028,12.357-40.785,26.241-56.661,45.132c-19.03,22.645-37.437,45.703-51.188,72.068c-2.748,5.269-5.039,10.778-7.496,16.195
		c-2.034,4.486-3.655,9.196-6.067,13.463c-6.032,10.676-12.938,20.885-18.529,31.777c-9.072,17.676-17.68,35.608-25.899,53.698
		c-6.043,13.298-11.46,26.906-16.603,40.583c-6.179,16.434-11.636,33.137-17.66,49.631c-5.463,14.957-11.397,29.742-16.893,44.688
		c-10.892,29.62-19.328,59.97-26.455,90.693c-3.297,14.215-6.217,28.525-9.904,42.637c-2.594,9.933-6.269,19.579-9.325,29.396
		c-3.551,11.404-7.667,22.695-10.249,34.322c-3.587,16.16-6.407,32.525-8.77,48.916c-3.029,21.016-5.223,42.15-7.877,63.222
		c-1.736,13.78-3.652,27.537-5.554,41.806c-20.649,1.741-35.657,12.902-48.657,27.239c-10.704,11.804-20.733,24.222-31.506,35.96
		c-11.386,12.404-16.02,27.825-17.715,43.555c-2.523,23.405-2.712,47.064-3.837,70.618c-0.164,3.436-0.023,6.883-0.023,12.251
		c-6.047-7.925-10.122-14.333-15.286-19.69c-4.062-4.213-6.228-8.446-5.376-14.139c1.148-7.674-1.55-13.613-7.627-18.328
		c-2.351-1.823-4.496-4.021-6.354-6.352c-5.953-7.464-13.831-9.411-23.001-9.528c-20.699-0.264-40.894,1.637-61.321,6.056
		c-36.642,7.926-73.708,14.143-110.82,19.536c-18.997,2.761-38.476,2.07-58.174-0.065c-1.813-8.372-3.517-16.478-5.327-24.56
		c-2.758-12.311-15.638-24.26-28.044-26.068c-6.569-0.959-13.124-2.098-19.726-2.732c-9.502-0.914-19.042-1.442-28.929-2.161
		c-0.226-1.496-0.632-2.762-0.573-4.007c0.799-16.831-3.309-33.027-6.582-49.291c-3.11-15.46-15.635-26.5-31.168-28.583
		c-5.256-0.705-10.433-2.349-15.693-2.608c-13.945-0.689-27.916-0.858-41.877-1.233c-7.289,6.724-14.58,13.446-21.862,20.177
		c-0.734,0.678-1.407,1.42-2.126,2.115c-11.354,10.989-20.756,22.958-24.257,39.073c-2.734,12.581-7.067,24.815-10.932,38.037
		c-3.539-1.195-6.493-2.193-9.249-3.125c-0.134-2.622-0.343-4.284-0.284-5.936c0.73-20.695-0.763-41.198-5.36-61.417
		c-3.784-16.645-5.015-33.497-3.945-50.482c1.255-19.919-2.001-39.107-8.366-57.896c-0.926-2.735-1.469-5.601-2.577-9.911
		c7.359,4.893,14.289,7.961,19.154,13.015c16.271,16.908,36.554,27.793,56.887,38.244c24.838,12.766,50.387,24.195,75.924,35.533
		c24.625,10.932,49.877,20.224,75.897,27.503c26.655,7.458,53.854,11.659,81.187,15.198c22.045,2.854,44.123,5.61,66.259,7.572
		c23.814,2.11,47.752,2.821,71.568,4.917c25.861,2.274,51.716,3.433,77.675,3.365c9.967-0.025,18.498-3.322,25.641-9.383
		c14.444-12.253,27.853-25.74,42.465-37.775c11.263-9.275,16.755-19.997,14.166-34.519c-1.43-8.028,1.718-13.985,7.86-19.111
		c2.623-2.188,5.675-5.758,5.749-8.768c0.28-11.595-0.105-23.26-1.143-34.816c-0.767-8.55-3.188-16.938-4.399-25.464
		c-1.257-8.854-1.934-17.79-2.892-26.688c-0.354-3.288-0.807-6.566-1.175-9.853c-0.846-7.569-0.917-15.331-2.743-22.654
		c-1.439-5.773-0.217-9.536,4.075-13.003c1.546-1.249,2.708-2.986,4.283-4.187c5.279-4.024,7.228-9.272,6.416-15.769
		c-0.245-1.97-0.016-3.995-0.041-5.995c-0.277-21.578,2.756-17.528-13.983-33.814c-4.757-4.629-7.882-9.514-8.538-16.21
		c-0.793-8.086-3.344-15.419-9.562-21.342c-2.196-2.092-3.275-5.667-4.164-8.765c-2.932-10.221-5.294-20.609-8.407-30.77
		c-1.13-3.689-3.268-7.342-5.805-10.268c-4.574-5.273-9.419-10.452-14.838-14.817c-6.615-5.329-12.864-11.749-22.535-11.505
		c-8.993,0.228-18.227-1.212-26.934,0.382c-9.931,1.819-20.94,4.112-28.713,9.909c-12.976,9.677-24.012,22.063-30.691,37.501
		c-2.469,5.707-5.448,11.194-8.464,17.329c-10.302-3.16-19.97-6.125-29.264-8.977c0-3.509-0.372-5.895,0.059-8.126
		c3.525-18.26,7.174-36.496,10.836-54.729c4.099-20.402,12.764-39.906,10.629-61.556c-0.715-7.24-1.558-13.432-6.852-18.875
		c-4.379-4.502-7.539-10.178-11.838-14.774c-3.985-4.259-3.212-7.763-0.819-12.48c5.256-10.359,10.365-20.864,14.5-31.704
		c6.38-16.729,13.208-33.454,10.892-52.155c-0.545-4.397-0.811-8.463-3.859-11.959c-9.826-11.274-19.604-22.59-29.307-33.97
		c-2.818-3.304-6.168-4.275-10.468-4.521c-17.808-1.019-34.9,1.394-51.82,7.356c-14.136,4.982-23.742,14.553-30.526,26.958
		c-16.916,30.934-33.138,62.246-49.737,93.354c-3.99,7.476-8.367,14.744-12.667,22.286c-6.527-7.764-12.502-14.87-17.194-20.452
		c-0.766-17.068-0.492-32.734-2.471-48.111c-1.525-11.847-6.561-22.817-15.677-31.597c-9.463-9.113-19.446-17.551-27.76-28.065
		c-18.689-23.632-42.421-42.234-66.276-60.301c-13.455-10.191-28.566-18.207-42.999-27.091
		c-29.185-17.964-58.374-35.924-87.653-53.734c-9.605-5.842-19.496-11.215-30.184-17.334c8.984-10.555,17.42-20.305,25.683-30.202
		c22.802-27.313,46.01-54.308,68.076-82.205c10.311-13.034,18.068-27.951,15.424-45.846c-0.146-0.979-0.082-2.001-0.01-2.997
		c1.456-20.11-9.725-33.785-23.6-45.992c-1.328-1.169-3.586-1.688-5.447-1.776c-12.276-0.588-24.573-0.786-36.84-1.497
		c-7.49-0.435-13.607,1.942-19.003,6.982c-19.934,18.625-39.937,37.177-59.903,55.766c-2.646,2.463-5.235,4.985-6.809,6.486
		c-6.279-1.415-11.228-3.21-16.267-3.517c-9.299-0.567-18.741,0.538-27.962-0.496c-15.909-1.785-29.447,3.196-42.037,12.163
		c-0.54,0.386-1.141,0.686-1.707,1.037c-20.11,12.532-38.679,27.067-56.054,43.15c-2.412,2.233-4.629,5.504-8.472,3.799
		c-8.914-3.955-17.673-8.255-27.633-12.953c5.222-5.549,9.434-10.2,13.831-14.669c19.834-20.163,39.231-40.791,59.726-60.263
		c20.961-19.916,42.77-38.968,64.669-57.863c18.869-16.279,38.343-31.86,57.635-47.645c13.418-10.979,26.182-22.19,21.895-42.297
		c-0.136-0.638-0.105-1.344-0.004-1.994c1.646-10.559-3.286-17.969-10.123-25.635c-8.237-9.235-17.096-14.093-29.506-12.042
		c-3.244,0.535-6.655-0.015-9.984,0.101c-10.709,0.368-21.228,1.594-30.437,7.793c-3.309,2.227-6.443,4.714-9.756,6.938
		c-63.174,42.415-117.891,94.192-167.735,151.377c-6.036,6.925-12.242,13.702-18.689,20.903c-7.533-6.135-15.504-5.943-23.538-5.753
		c-7.328,0.174-14.666,0.152-21.994-0.002c-4.506-0.095-8.285,1.03-12.007,3.819c-13.153,9.854-25.149,20.737-33.673,35.002
		c-2.089,3.495-4.003,6.283-9.203,5.865c-13.544-1.09-27.158-1.286-40.733-2.027c-7.381-0.402-13.921,1.642-19.309,6.528
		c-9.606,8.712-19.174,17.494-28.269,26.726c-2.612,2.65-4.23,6.784-5.136,10.521c-3.994,16.47-1.618,33.068,0.101,49.555
		c0.341,3.27,2.903,6.8,5.381,9.264c7.779,7.731,15.667,15.435,24.199,22.294c4.468,3.592,5.942,7.235,5.902,12.674
		c-0.101,13.65,0.393,27.301,0.543,40.954c0.068,6.191,1.348,11.67,6.108,16.228c8.825,8.45,17.486,17.083,25.938,25.906
		c9.881,10.313,20.008,20.095,35.66,22.24c-13.835,18.989-27.13,36.846-39.999,55.005c-13.087,18.465-25.638,37.312-38.643,55.837
		c-12.601,17.95-22.915,37.438-36.27,54.967c-0.78-9.413-0.947-18.408-0.736-27.395c0.25-10.65-3.914-19.375-11.096-26.856
		c-4.616-4.807-9.621-9.253-14.066-14.207c-5.504-6.132-12.23-8.915-20.327-8.892c-9.666,0.025-19.337-0.248-28.995,0.026
		c-42.283,1.2-72.551,21.922-94.502,58.501c-3.157-0.228-7.436-0.379-11.675-0.871c-14.932-1.732-29.967-2.44-44.636,0.917
		c-21.543,4.931-36.25,18.251-44.408,38.945c-6.324,16.041-4.574,32.746-5.082,49.328c-0.23,7.507,1.754,13.848,6.864,19.089
		c14.406,14.773,28.303,30.132,46.029,41.216c3.924,2.454,7.719,5.115,11.887,7.891c0,18.769,0.411,37.429-0.18,56.059
		c-0.279,8.804,2.19,15.428,8.948,20.973c3.821,3.136,7.612,6.703,10.221,10.832c4.31,6.823,7.651,14.257,11.762,22.124
		c-0.373,0.296-1.669,1.242-2.871,2.295c-8.269,7.245-16.792,14.342-22.049,24.24c-9.205,17.327-18.677,34.544-27.055,52.271
		c-16.511,34.936-29.075,71.347-39.315,108.609c-10.053,36.583-17.56,73.66-23.061,111.167c-5.065,34.541-8.58,69.247-8.978,104.163
		c-0.572,50.231-0.448,100.448,5.912,150.436c4.121,32.396,9.97,64.411,20.779,95.268c3.71,10.593,8.429,21.195,14.708,30.417
		c5.718,8.398,14.156,14.949,21.429,22.281c7.614,7.677,16.341,11.165,27.638,10.591c18.499-0.938,18.415-0.37,31.059-13.17
		c3.572-3.618,4.863-7.455,5.125-12.396c1.544-29.176-2.21-57.683-9.499-85.902c-9.938-38.479-14.291-77.79-14.352-117.416
		c-0.04-25.881,0.906-51.901,3.664-77.617c3.819-35.622,9.704-71.026,14.841-106.504c0.793-5.479,2.314-10.854,3.498-16.275
		c1.029,16.256,1.001,32.207,1.037,48.158c0.031,14.233-1.253,28.646,0.56,42.655c2.188,16.897,8.227,32.899,21.438,44.948
		c5.035,4.593,8.5,10.041,11.069,16.349c4.803,11.8,11.093,22.612,21.051,31.089c3.737,3.181,7.396,5.507,12.298,5.735
		c14.935,0.698,29.878,1.26,44.798,2.199c5.78,0.365,10.154-1.258,14.013-5.667c4.275-4.884,9.157-9.235,13.916-13.958
		c23.144,29.272,52.868,48.647,84.651,65.706c-0.773,13.007,3.678,23.874,12.5,32.745c11.974,12.043,23.974,24.089,36.48,35.568
		c30.275,27.783,63.563,51.382,99.795,70.85c26.421,14.195,54.031,25.723,81.535,37.57c59.722,25.725,122.138,40.991,186.457,49.002
		c20.084,2.502,40.243,4.601,60.428,6.055c30.131,2.171,60.298,4.033,90.483,5.176c15.245,0.578,30.563-1.136,45.845-1.078
		c46.923,0.176,93.842-0.105,140.606-4.218c24.45-2.15,49.06-4.311,73.086-9.056c40.074-7.915,80.149-16.325,118.434-31.306
		c24.743-9.682,50.623-16.462,74.033-29.559c4.573-2.559,9.982-3.597,14.94-5.504
		C1605.464,2264.365,1610.876,2262.063,1616.813,2259.643z"/>
	<path fill-rule="evenodd" clip-rule="evenodd" d="M1616.813,2259.643c-5.936,2.42-11.349,4.723-16.835,6.832
		c-4.958,1.907-10.367,2.945-14.94,5.504c-23.41,13.097-49.29,19.877-74.033,29.559c-38.285,14.98-78.359,23.391-118.434,31.306
		c-24.026,4.745-48.636,6.905-73.086,9.056c-46.765,4.112-93.684,4.394-140.606,4.218c-15.282-0.058-30.6,1.656-45.845,1.078
		c-30.185-1.143-60.352-3.005-90.483-5.176c-20.185-1.454-40.344-3.553-60.428-6.055c-64.319-8.011-126.735-23.277-186.457-49.002
		c-27.503-11.848-55.113-23.375-81.535-37.57c-36.232-19.468-69.521-43.066-99.795-70.85c-12.507-11.479-24.506-23.525-36.48-35.568
		c-8.821-8.871-13.273-19.738-12.5-32.745c-31.783-17.059-61.508-36.434-84.651-65.706c-4.758,4.723-9.641,9.074-13.916,13.958
		c-3.859,4.409-8.232,6.032-14.013,5.667c-14.92-0.939-29.863-1.501-44.798-2.199c-4.902-0.229-8.561-2.555-12.298-5.735
		c-9.958-8.477-16.248-19.289-21.051-31.089c-2.568-6.308-6.034-11.756-11.069-16.349c-13.211-12.049-19.25-28.051-21.438-44.948
		c-1.813-14.009-0.528-28.422-0.56-42.655c-0.035-15.951-0.008-31.902-1.037-48.158c-1.184,5.422-2.705,10.797-3.498,16.275
		c-5.137,35.478-11.021,70.882-14.841,106.504c-2.758,25.716-3.704,51.736-3.664,77.617c0.062,39.626,4.415,78.937,14.352,117.416
		c7.288,28.22,11.042,56.727,9.499,85.902c-0.262,4.941-1.553,8.778-5.125,12.396c-12.644,12.8-12.56,12.231-31.059,13.17
		c-11.297,0.574-20.024-2.914-27.638-10.591c-7.272-7.332-15.711-13.883-21.429-22.281c-6.279-9.222-10.998-19.824-14.708-30.417
		c-10.81-30.856-16.658-62.872-20.779-95.268c-6.359-49.987-6.484-100.204-5.912-150.436c0.398-34.916,3.913-69.622,8.978-104.163
		c5.5-37.507,13.007-74.584,23.061-111.167c10.241-37.263,22.804-73.674,39.315-108.609c8.378-17.728,17.85-34.944,27.055-52.271
		c5.257-9.898,13.78-16.995,22.049-24.24c1.201-1.053,2.498-1.999,2.871-2.295c-4.111-7.867-7.452-15.301-11.762-22.124
		c-2.609-4.129-6.4-7.696-10.221-10.832c-6.758-5.545-9.228-12.169-8.948-20.973c0.591-18.63,0.18-37.29,0.18-56.059
		c-4.168-2.775-7.963-5.437-11.887-7.891c-17.726-11.084-31.623-26.442-46.029-41.216c-5.11-5.241-7.094-11.582-6.864-19.089
		c0.508-16.582-1.242-33.287,5.082-49.328c8.159-20.694,22.865-34.014,44.408-38.945c14.669-3.358,29.704-2.65,44.636-0.917
		c4.239,0.492,8.518,0.644,11.675,0.871c21.951-36.58,52.219-57.302,94.502-58.501c9.657-0.274,19.329-0.001,28.995-0.026
		c8.097-0.022,14.822,2.76,20.327,8.892c4.445,4.954,9.451,9.399,14.066,14.207c7.183,7.48,11.346,16.206,11.096,26.856
		c-0.211,8.987-0.044,17.982,0.736,27.395c13.355-17.529,23.669-37.017,36.27-54.967c13.005-18.525,25.555-37.372,38.643-55.837
		c12.869-18.159,26.164-36.016,39.999-55.005c-15.652-2.145-25.779-11.927-35.66-22.24c-8.452-8.822-17.113-17.456-25.938-25.906
		c-4.76-4.557-6.04-10.036-6.108-16.228c-0.15-13.653-0.644-27.304-0.543-40.954c0.04-5.439-1.434-9.083-5.902-12.674
		c-8.532-6.859-16.419-14.563-24.199-22.294c-2.479-2.464-5.041-5.994-5.381-9.264c-1.719-16.486-4.094-33.085-0.101-49.555
		c0.906-3.737,2.524-7.871,5.136-10.521c9.095-9.232,18.663-18.014,28.269-26.726c5.388-4.886,11.928-6.93,19.309-6.528
		c13.576,0.741,27.189,0.938,40.733,2.027c5.2,0.418,7.114-2.371,9.203-5.865c8.524-14.265,20.521-25.147,33.673-35.002
		c3.722-2.789,7.501-3.914,12.007-3.819c7.328,0.154,14.666,0.176,21.994,0.002c8.034-0.19,16.005-0.381,23.538,5.753
		c6.448-7.201,12.654-13.978,18.689-20.903c49.844-57.185,104.561-108.963,167.735-151.377c3.313-2.223,6.447-4.71,9.756-6.938
		c9.209-6.199,19.727-7.425,30.437-7.793c3.329-0.115,6.74,0.435,9.984-0.101c12.41-2.051,21.269,2.807,29.506,12.042
		c6.837,7.666,11.769,15.076,10.123,25.635c-0.102,0.65-0.132,1.356,0.004,1.994c4.287,20.107-8.477,31.318-21.895,42.297
		c-19.292,15.784-38.767,31.365-57.635,47.645c-21.899,18.895-43.708,37.947-64.669,57.863
		c-20.494,19.472-39.891,40.1-59.726,60.263c-4.397,4.469-8.609,9.12-13.831,14.669c9.959,4.698,18.719,8.999,27.633,12.953
		c3.842,1.705,6.06-1.566,8.472-3.799c17.375-16.083,35.944-30.618,56.054-43.15c0.565-0.351,1.167-0.651,1.707-1.037
		c12.589-8.967,26.128-13.948,42.037-12.163c9.221,1.034,18.663-0.071,27.962,0.496c5.039,0.307,9.988,2.102,16.267,3.517
		c1.574-1.501,4.164-4.023,6.809-6.486c19.967-18.589,39.969-37.141,59.903-55.766c5.396-5.041,11.513-7.417,19.003-6.982
		c12.267,0.71,24.564,0.909,36.84,1.497c1.861,0.089,4.12,0.607,5.447,1.776c13.875,12.208,25.056,25.882,23.6,45.992
		c-0.072,0.995-0.136,2.017,0.01,2.997c2.645,17.895-5.113,32.812-15.424,45.846c-22.066,27.897-45.274,54.892-68.076,82.205
		c-8.263,9.896-16.698,19.647-25.683,30.202c10.688,6.119,20.579,11.492,30.184,17.334c29.279,17.81,58.468,35.77,87.653,53.734
		c14.433,8.885,29.544,16.9,42.999,27.091c23.854,18.067,47.587,36.669,66.276,60.301c8.314,10.514,18.297,18.952,27.76,28.065
		c9.116,8.78,14.151,19.75,15.677,31.597c1.979,15.377,1.706,31.043,2.471,48.111c4.692,5.582,10.667,12.688,17.194,20.452
		c4.3-7.542,8.678-14.811,12.667-22.286c16.599-31.107,32.821-62.42,49.737-93.354c6.784-12.405,16.391-21.976,30.526-26.958
		c16.92-5.963,34.012-8.375,51.82-7.356c4.3,0.246,7.65,1.217,10.468,4.521c9.703,11.379,19.481,22.696,29.307,33.97
		c3.048,3.497,3.314,7.563,3.859,11.959c2.316,18.702-4.511,35.427-10.892,52.155c-4.135,10.84-9.244,21.345-14.5,31.704
		c-2.393,4.717-3.166,8.221,0.819,12.48c4.299,4.596,7.459,10.272,11.838,14.774c5.293,5.443,6.137,11.634,6.852,18.875
		c2.135,21.649-6.53,41.153-10.629,61.556c-3.663,18.233-7.312,36.47-10.836,54.729c-0.431,2.231-0.059,4.617-0.059,8.126
		c9.293,2.852,18.961,5.816,29.264,8.977c3.016-6.135,5.995-11.622,8.464-17.329c6.68-15.438,17.715-27.824,30.691-37.501
		c7.773-5.797,18.783-8.09,28.713-9.909c8.707-1.594,17.941-0.154,26.934-0.382c9.671-0.244,15.92,6.176,22.535,11.505
		c5.418,4.365,10.264,9.544,14.838,14.817c2.537,2.926,4.675,6.578,5.805,10.268c3.113,10.16,5.476,20.549,8.407,30.77
		c0.888,3.098,1.967,6.673,4.164,8.765c6.218,5.923,8.769,13.256,9.562,21.342c0.656,6.696,3.781,11.581,8.538,16.21
		c16.739,16.286,13.706,12.236,13.983,33.814c0.025,2-0.204,4.025,0.041,5.995c0.812,6.496-1.137,11.744-6.416,15.769
		c-1.575,1.2-2.737,2.938-4.283,4.187c-4.292,3.467-5.514,7.229-4.075,13.003c1.825,7.323,1.896,15.085,2.743,22.654
		c0.368,3.286,0.821,6.564,1.175,9.853c0.958,8.897,1.635,17.833,2.892,26.688c1.211,8.526,3.632,16.914,4.399,25.464
		c1.037,11.557,1.423,23.222,1.143,34.816c-0.073,3.01-3.125,6.579-5.749,8.768c-6.143,5.126-9.291,11.083-7.86,19.111
		c2.589,14.521-2.903,25.243-14.166,34.519c-14.612,12.035-28.021,25.522-42.465,37.775c-7.144,6.061-15.674,9.357-25.641,9.383
		c-25.959,0.067-51.814-1.091-77.675-3.365c-23.816-2.096-47.753-2.807-71.568-4.917c-22.137-1.962-44.214-4.718-66.259-7.572
		c-27.333-3.539-54.532-7.74-81.187-15.198c-26.02-7.279-51.272-16.571-75.897-27.503c-25.538-11.338-51.086-22.768-75.924-35.533
		c-20.333-10.451-40.616-21.336-56.887-38.244c-4.865-5.054-11.794-8.122-19.154-13.015c1.107,4.311,1.65,7.176,2.577,9.911
		c6.365,18.788,9.621,37.977,8.366,57.896c-1.07,16.985,0.161,33.838,3.945,50.482c4.597,20.219,6.09,40.722,5.36,61.417
		c-0.059,1.651,0.15,3.313,0.284,5.936c2.755,0.932,5.71,1.93,9.249,3.125c3.865-13.222,8.197-25.456,10.932-38.037
		c3.501-16.115,12.903-28.084,24.257-39.073c0.719-0.695,1.392-1.438,2.126-2.115c7.282-6.73,14.573-13.453,21.862-20.177
		c13.961,0.375,27.932,0.544,41.877,1.233c5.26,0.26,10.438,1.903,15.693,2.608c15.533,2.083,28.058,13.123,31.168,28.583
		c3.272,16.264,7.381,32.46,6.582,49.291c-0.059,1.245,0.348,2.511,0.573,4.007c9.887,0.719,19.426,1.247,28.929,2.161
		c6.602,0.635,13.157,1.773,19.726,2.732c12.407,1.809,25.286,13.758,28.044,26.068c1.81,8.082,3.514,16.188,5.327,24.56
		c19.698,2.136,39.178,2.826,58.174,0.065c37.112-5.394,74.178-11.61,110.82-19.536c20.427-4.419,40.622-6.319,61.321-6.056
		c9.17,0.117,17.048,2.064,23.001,9.528c1.859,2.33,4.003,4.528,6.354,6.352c6.077,4.715,8.775,10.654,7.627,18.328
		c-0.852,5.692,1.314,9.926,5.376,14.139c5.164,5.357,9.239,11.766,15.286,19.69c0-5.368-0.141-8.815,0.023-12.251
		c1.125-23.554,1.314-47.213,3.837-70.618c1.696-15.729,6.329-31.15,17.715-43.555c10.773-11.738,20.802-24.156,31.506-35.96
		c13-14.337,28.008-25.498,48.657-27.239c1.902-14.269,3.818-28.025,5.554-41.806c2.654-21.071,4.848-42.206,7.877-63.222
		c2.362-16.391,5.182-32.756,8.77-48.916c2.582-11.627,6.697-22.918,10.249-34.322c3.057-9.817,6.731-19.464,9.325-29.396
		c3.687-14.111,6.606-28.422,9.904-42.637c7.127-30.724,15.563-61.073,26.455-90.693c5.496-14.945,11.43-29.73,16.893-44.688
		c6.024-16.494,11.481-33.197,17.66-49.631c5.143-13.677,10.559-27.285,16.603-40.583c8.219-18.09,16.827-36.022,25.899-53.698
		c5.591-10.892,12.497-21.102,18.529-31.777c2.412-4.267,4.033-8.977,6.067-13.463c2.458-5.417,4.748-10.926,7.496-16.195
		c13.751-26.365,32.158-49.423,51.188-72.068c15.875-18.892,35.633-32.775,56.661-45.132c2.285-1.343,4.751-2.508,6.729-4.223
		c11.934-10.35,25.607-17.723,40.042-23.854c4.412-1.875,7.766-4.282,8.681-9.812c3.099-18.725,9.582-36.5,16.239-54.196
		c0.448-1.189,0.752-2.434,1.436-4.679c-7.026-0.924-13.487-1.618-19.896-2.644c-21.601-3.457-43.283-6.519-64.745-10.699
		c-23.042-4.488-45.932-9.82-68.78-15.236c-34.177-8.101-68.222-16.749-102.391-24.881c-33.586-7.994-67.317-15.381-100.873-23.494
		c-45.417-10.979-89.215-26.452-130.039-49.483c-32.741-18.471-64.972-37.772-95.696-59.544
		c-25.825-18.299-50.253-38.243-73.881-59.267c-15.394-13.698-31.212-26.934-47.188-39.95c-4.258-3.468-9.922-5.154-14.727-8.016
		c-21.779-12.971-42.309-27.789-60.765-45.1c-23.056-21.625-45.179-44.243-67.849-66.282c-6.655-6.471-14.055-12.181-20.671-18.689
		c-13.498-13.274-27.452-26.2-39.768-40.517c-9.494-11.036-13.483-25.042-13.349-39.891c0.069-7.665,0.02-15.331,0.018-22.997
		c-0.003-7.938,2.157-15.01,7.932-20.785c9.187-9.186,18.095-18.659,27.475-27.64c6.651-6.367,15.191-9.427,24.048-11.34
		c30.18-6.52,60.338-13.161,90.609-19.236c11.689-2.345,23.645-3.401,35.5-4.863c22.85-2.817,44.857-8.959,66.244-17.229
		c37.47-14.49,74.851-29.216,112.153-44.136c14.152-5.66,27.805-12.584,42.001-18.123c21.942-8.559,44.301-16.054,66.214-24.682
		c22.515-8.864,44.793-18.347,67.017-27.924c24.898-10.729,49.462-22.109,75.046-31.344c24.913-8.993,49.12-20.05,73.281-30.985
		c21.739-9.838,41.642-23.51,64.118-31.851c12.422-4.61,25.127-8.507,37.838-12.278c13.68-4.058,27.481-7.726,41.292-11.318
		c11.94-3.105,24.039-4.842,36.481-4.862c6.126-0.009,12.486-1.466,18.329-3.468c16.622-5.697,33.175-5.711,49.62-0.118
		c6.692,2.276,13.233,3.78,20.34,4.042c41.839,1.542,80.765,13.708,118.709,30.998c26.56,12.102,50.997,27.194,74.445,44.205
		c4.823,3.498,9.096,7.766,13.529,11.782c3.897,3.531,8.212,5.098,13.619,4.859c8.98-0.396,18.017,0.297,26.982-0.244
		c6.287-0.38,11.132,1.354,14.68,6.391c5.477,7.777,12.768,9.243,21.81,7.904c8.496-1.259,17.239-0.736,25.818-1.562
		c19.439-1.871,38.813-4.471,58.275-6.022c11.589-0.924,23.317-0.986,34.935-0.414c13.239,0.652,26.41,2.603,39.635,3.699
		c18.237,1.51,33.672,8.402,47.209,21.038c17.249,16.101,36.726,29.764,52.511,47.514c14.732,16.566,29.151,33.263,42.168,51.371
		c17.839,24.813,31.125,51.715,41.918,79.933c7.208,18.848,12.533,38.411,18.826,57.614c8.358,25.502,17.018,50.908,25.218,76.461
		c8.3,25.861,15.324,52.101,19.569,78.94c1.495,9.458,1.373,19.301,0.87,28.911c-0.448,8.555,2.274,14.31,9.58,18.888
		c12.344,7.736,23.949,16.666,36.412,24.188c15.035,9.073,30.708,17.081,45.973,25.78c9.485,5.405,19.626,7.749,30.428,8.126
		c7.646,0.267,14.347,2.082,21.125,6.94c5.379,3.856,13.781,3.51,20.854,4.97c0.96,0.198,2.04,0.25,2.985,0.031
		c12.908-2.995,20.744,4.836,27.529,13.648c2.619,3.401,3.832,8.336,4.417,12.741c0.738,5.568-0.368,11.375,0.313,16.959
		c1.001,8.208-2.751,13.784-8.086,19.29c-11.702,12.078-24.948,21.467-40.433,28.427c-32.158,14.456-63.867,29.912-95.719,45.042
		c-17.074,8.109-34.021,16.489-51.13,24.523c-3.532,1.659-7.523,2.353-11.315,3.448c-14.346,4.145-28.71,8.222-43.041,12.412
		c-37.947,11.094-75.881,22.235-115.376,33.813c0.811-1.154,0.107-0.62,0.108-0.087c0.046,15.852-10.57,24.496-23.196,28.705
		c-20.117,6.707-40.934,11.47-62.613,10.603c-6.109-0.245-11.165-1.103-14.771-6.254c-4.314-6.164-9.782-6.417-16.575-4.439
		c-12.11,3.527-24.426,6.358-36.699,9.297c-3.853,0.923-7.834,1.699-11.774,1.795c-25.314,0.626-50.558,0.376-75.328-6.121
		c-4.763-1.249-9.884-1.052-14.773-1.897c-9.086-1.572-18.217-3.043-27.153-5.266c-8.112-2.019-14.693-0.757-20.671,5.383
		c-5.048,5.185-10.801,9.682-17.537,15.624c3.709,0.745,6.054,1.591,8.413,1.631c25.156,0.427,49.525,5.028,73.068,13.819
		c22.056,8.237,43.976,16.84,66.061,24.995c3.222,1.189,7.19,1.609,10.544,0.969c17.338-3.309,34.761-5.453,52.426-5.759
		c17.286-0.299,34.566-0.954,51.852-1.221c3.586-0.056,7.409,0.29,10.74,1.501c12.185,4.432,24.908,8.072,36.08,14.392
		c9.763,5.522,20.061,12.778,17.491,27.191c-0.058,0.323,0.036,0.671-0.014,0.998c-1.038,6.719,2.631,14.148-2.577,20.198
		c-7.933,9.215-17.022,16.898-29.435,19.258c-5.741,1.091-11.573,1.7-19.221,2.793c7.167,6.275,13.223,11.677,19.393,16.946
		c4.04,3.45,8.288,6.656,12.366,10.063c13.202,11.032,27.112,21.354,39.316,33.401c9.841,9.716,18.202,21.119,26.159,32.513
		c13.687,19.599,27.416,39.266,39.477,59.869c9.499,16.228,17.279,33.593,24.457,51.015c11.237,27.276,21.962,54.803,31.667,82.655
		c6.427,18.443,10.803,37.61,15.881,56.511c3.01,11.197,5.186,22.632,8.481,33.738c4.739,15.972,8.093,32.181,10.337,48.663
		c0.299,2.192,1.415,4.273,2.444,7.252c5.845-5.843,11.703-10.724,16.354-16.567c7.91-9.936,17.365-13.473,30.203-12.847
		c19.602,0.955,39.156,1.592,58.442,5.478c5.319,1.072,9.652,0.442,13.227-4.192c10.515-13.638,25.118-19.847,41.5-23.758
		c21.969-5.246,43.527-12.208,65.48-17.532c18.819-4.563,33.666-15.544,47.826-27.644c3.773-3.225,5.875-8.753,7.939-13.569
		c9.279-21.649,12.824-44.459,14.43-67.876c1.747-25.459,2.721-51.137,9.428-75.972c3.635-13.458,8.251-26.655,12.568-39.924
		c0.705-2.17,1.805-4.408,3.309-6.091c10.41-11.659,20.833-23.313,31.617-34.624c2.015-2.113,5.608-3.586,8.577-3.782
		c17.67-1.162,35.2,0.423,52.565,3.819c1.578,0.309,3.518,0.627,4.527,1.675c7.061,7.326,15.857,13.096,19.013,23.811
		c3.082,10.459,8.127,20.39,10.65,30.949c1.979,8.283,1.425,17.171,2.14,27.987c1.365-3.51,2.239-5.265,2.739-7.12
		c4.499-16.68,7.553-33.926,13.894-49.867c3.886-9.77,12.16-18.12,19.549-26.104c17.896-19.34,37.301-36.956,59.995-50.819
		c8.733-5.334,15.891-13.195,24.435-18.904c14.914-9.964,30.332-19.176,45.565-28.662c24.859-15.48,49.641-31.085,74.631-46.349
		c42.992-26.258,88.452-47.478,135.342-65.757c9.275-3.616,18.327-7.806,28.186-12.033c-6.694-10.659-15.298-18.933-23.958-27.055
		c-24.064-22.571-49.922-42.989-76.946-61.85c-8.622-6.018-18.505-10.246-27.899-15.122c-1.697-0.881-3.911-1.535-5.736-1.266
		c-8.252,1.217-14.005-3.395-19.553-8.169c-16.937-14.573-16.875-14.645-16.875-37.242c0-2,0.184-4.019-0.028-5.995
		c-2.113-19.649,9.114-31.229,24.054-41.04c8.491-5.576,17.328-7.733,27.355-7.094c10.613,0.678,21.377-0.282,31.897,0.967
		c20.735,2.463,38.167,13.321,55.235,24.329c26.063,16.809,49.865,36.629,73.105,57.075c26.765,23.547,51.733,48.888,74.171,76.784
		c5.495,0.093,7.729-2.417,7.579-7.877c-0.146-5.309,0.854-10.669,0.488-15.948c-0.672-9.679,2.939-17.992,8.944-24.702
		c9.273-10.362,18.272-21.397,31.246-27.555c4.052-1.922,8.715-3.233,13.173-3.485c9.303-0.525,18.658-0.019,27.986-0.213
		c5.204-0.109,9.617,1.066,13.836,4.402c12.604,9.966,24.438,20.573,32.82,34.529c1.185,1.972,2.745,3.719,3.526,4.762
		c14.013-0.34,27.308,0.05,40.451-1.174c14.407-1.34,25.053,4.794,34.651,14.245c5.226,5.143,10.186,10.573,15.613,15.489
		c6.945,6.29,9.653,14.282,9.727,23.194c0.098,11.983-0.318,23.973-0.619,35.957c-0.149,5.963-2.713,10.899-7.052,14.92
		c-9.979,9.249-19.979,18.475-30.235,27.956c0,15.158-0.196,31.128,0.089,47.089c0.128,7.184-2.165,12.677-7.436,17.637
		c-10.647,10.019-20.841,20.52-32.225,31.816c41.111,35.568,73.637,77.27,101.914,125.115c5.296-6,8.901-10.867,13.319-14.821
		c3.093-2.768,7.19-5.852,11.025-6.117c27.605-1.907,55.315-3.664,81.17,9.641c20.958,10.783,37.433,26.106,48.677,47.393
		c12.784-0.446,26.004-1.011,39.23-1.339c11.475-0.285,22.602,1.542,32.675,7.336c12.924,7.435,23.228,17.239,28.932,31.548
		c7.406,18.579,6.445,37.939,5.478,57.149c-0.251,4.992-4.237,10.502-7.9,14.495c-18.303,19.951-37.933,38.454-62.658,50.409
		c-4.613,2.229-5.139,5.414-5,9.636c0.305,9.316,0.375,18.642,0.699,27.957c0.55,15.842-3.075,30.735-7.745,45.869
		c-4.697,15.229-15.714,24.626-26.686,33.842c-4.986,4.186-13.688,4.122-20.795,5.523c-3.163,0.624-6.552,0.105-10.406,0.105
		c0,3.891,0,6.998,0,11.399c8.069,0,15.699,0.642,23.184-0.127c18.125-1.86,30.153,6.767,39.74,20.999
		c7.801,11.586,16.689,22.449,24.326,34.135c17.229,26.363,28.53,55.618,39.678,84.84c14.291,37.465,21.726,76.688,28.174,116.096
		c3.754,22.945,7.788,45.866,10.639,68.929c1.664,13.469,2.168,27.251,1.363,40.782c-0.387,6.477-3.841,13.638-7.966,18.862
		c-12.425,15.742-12.853,14.731-32.88,15.691c-12.175,0.583-21.268-3.244-28.853-12.248c-2.095-2.488-4.735-4.517-7.858-7.442
		c-3.995,8.647-0.027,18.805-7.45,25.524c-6.575,5.95-12.822,12.262-21.175,20.301c-0.408,8.286-0.551,19.558-1.596,30.745
		c-2.561,27.427-5.101,54.867-8.465,82.202c-3.611,29.362-8.646,58.513-17.283,86.91c-0.969,3.181-1.948,6.358-2.914,9.539
		c-7.396,24.373-22.97,40.963-46.08,51.884c-15.041,7.107-30.178,9.53-46.32,8.229c-2.243-0.181-4.942-0.394-6.563-1.682
		c-12.483-9.928-27.326-16.533-38.548-28.335c-6.101-6.414-9.618-12.931-9.697-21.979c-0.158-18.276-0.934-36.556-1.86-54.814
		c-1.402-27.605,4.32-54.118,10.652-80.747c4.828-20.311,7.732-41.091,11.103-61.726c0.689-4.225,2.001-9.442-4.679-13.027
		c-22.514,23.881-47.933,44.433-78.971,56.644c-0.612,5.363-0.774,10.355-1.821,15.153c-1.744,7.99-6.147,14.72-11.745,20.535
		c-34.972,36.34-72.828,69.046-116.463,94.871c-38.84,22.983-80.266,40.168-121.92,57.035
		c-48.394,19.596-98.801,31.448-150.309,38.444c-33.52,4.553-67.322,7.063-101.013,10.346c-31.146,3.033-62.389,3.818-93.66,3.311
		c-34.271-0.557-68.571-0.586-102.796-2.188c-33.138-1.551-66.435-3.114-99.233-7.721c-47.049-6.607-93.566-16.53-138.436-32.913
		c-21.819-7.967-43.799-15.496-66.454-23.487c-0.714,8.803-1.289,17.24-2.099,25.654c-2.406,24.991-6.514,49.562-20.539,71.146
		c-11.389,17.529-26.071,31.85-44.015,42.636c-5.693,3.423-11.615,6.665-17.805,9.003c-5.808,2.193-12.197,4.627-18.177,4.283
		c-28.556-1.642-56.254,3.608-84.127,8.421c-29.11,5.026-58.399,9.013-87.612,13.438c-28.231,4.276-56.582,7.884-84.67,12.948
		c-45.104,8.131-89.955,17.657-135.069,25.719c-22.847,4.083-45.983,6.762-69.084,9.155c-32.022,3.32-64.12,5.945-96.213,8.543
		c-27.796,2.25-55.752,3.019-83.418,6.29c-38.874,4.598-77.787,2.612-116.687,3.002c-51.976,0.521-103.958,0.454-155.938,0.757
		c-39.981,0.232-79.556-4.078-119.075-9.677c-17.077-2.419-34.36-3.391-51.552-4.989c-16.869-1.568-33.768-2.797-49.573-9.917
		c-2.871-1.293-6.449-1.27-9.717-1.381c-8.651-0.295-17.349,0.109-25.956-0.631c-5.513-0.474-11.428-1.461-16.246-3.976
		c-24-12.527-44.625-29.434-58.723-52.686c-9.661-15.935-15.558-33.833-19.108-52.251c-5.162-26.777-10.027-53.615-8.491-81.104
		c0.443-7.946,0.461-15.964,1.595-23.814C1612.817,2274.139,1615.1,2266.845,1616.813,2259.643z M3507.184,1726.211
		c-6.973,4.559-13.946,7.519-18.739,12.554c-13.8,14.498-30.869,24.045-47.91,33.688c-29.855,16.895-61.412,30.222-92.874,43.745
		c-40.166,17.267-81.55,30.191-125.005,36.01c-10.339,1.383-20.64,3.035-33.278,4.908c17.454,15.122,25.413,33.881,33.792,52.825
		c4.55-3.895,8.18-7.941,12.625-10.648c21.009-12.798,25.759-13.867,50.813-13.193c0.666,0.018,1.357-0.104,1.992,0.038
		c2.572,0.575,5.435,0.688,7.637,1.941c13.854,7.88,28.004,15.426,38.297,28.15c2.42,2.993,4.657,6.134,6.204,8.18
		c12.54-6.616,24.075-13.142,35.983-18.891c22.55-10.886,44.94-12.387,66.971,1.956c6.869,4.472,14.204,10.515,21.696,11.101
		c7.599,0.594,15.595-4.863,23.533-7.29c4.841-1.479,8.042-4.387,10.097-8.833c4.603-9.956,8.732-20.165,13.937-29.796
		c5.984-11.077,5.266-19.944-2.659-30.53c-6.752-9.021-12.472-20.609-13.651-31.597c-1.929-17.967-2.663-36.518,2.548-54.482
		C3501.947,1746.543,3504.327,1736.932,3507.184,1726.211z M3686.473,1232.79c3.198,12.673,5.851,23.556,8.745,34.373
		c0.636,2.373,1.64,5.018,3.324,6.671c6.152,6.042,12.948,11.439,18.978,17.594c9.034,9.227,17.428,19.08,26.449,28.321
		c14.854,15.216,30.561,29.528,42.297,47.643c9.925,15.322,21.161,29.797,31.926,44.569c3.674,5.044,5.602,10.379,5.069,16.733
		c-0.401,4.788-0.079,9.639-0.079,15.753c18.471-7.532,35.221-14.362,52.256-21.309c-5.203-12.846-9.947-24.882-14.946-36.81
		c-6.142-14.657-10.841-29.992-21.476-42.467c-15.508-18.189-30.12-37.17-46.147-54.877c-13.179-14.561-28.186-27.389-46.825-34.852
		c-16.706-6.688-26.689-19.515-34.189-35.733C3703.36,1223.214,3694.479,1228.25,3686.473,1232.79z M3091.115,1936.792
		c1.629-9.906,3.63-18.684,4.359-27.565c0.612-7.457,2.35-14.296,5.645-20.956c3.836-7.749,7.24-15.71,11.511-25.067
		c-7.664,2.356-13.899,4.362-20.188,6.186c-10.186,2.953-20.247,7.132-30.647,8.345c-14.789,1.724-29.836,1.331-44.776,1.584
		c-2.526,0.042-5.664-0.499-7.513-2.005c-7.642-6.228-16.462-6.605-25.5-5.822c-9.925,0.859-18.345-2.783-25.953-8.426
		c-4.241-3.145-7.664-7.373-11.6-10.955c-3.384-3.081-5.34-6.564-5.265-11.329c0.033-2.136-0.491-5.331-1.923-6.263
		c-7.803-5.08-15.968-9.604-25.93-15.446c12.926,42.6,27.986,82.081,28.981,124.848c5.075-1.738,9.568-3.769,14.279-4.76
		c5.15-1.082,10.584-0.806,15.752-1.836c8.696-1.734,18.006,0.137,26.215-4.618c1.626-0.942,3.87-1.14,5.83-1.137
		c19.912,0.026,39.948-1.774,59.451,4.294C3072.584,1938.582,3081.517,1937.584,3091.115,1936.792z M836.361,1286.418
		c0.502,0.453,1.003,0.906,1.505,1.36c2.332-2.116,4.383-4.708,7.042-6.267c14.679-8.613,22.083-22.98,29.866-37.079
		c0.9-1.631,1.64-3.35,2.547-5.219c-1.421-0.64-2.913-1.523-3.054-1.343C861.566,1254,848.967,1270.212,836.361,1286.418z
		 M2925.649,2126.217c0.883-0.181,1.766-0.361,2.648-0.541c-1.131-9.47-2.261-18.939-3.666-30.704
		c-3.269,4.794-5.066,7.433-7.021,10.297C2920.316,2112.318,2922.982,2119.268,2925.649,2126.217z M3970.918,1674.363
		c-0.668,6.276-3.348,13.314,6.281,17.372C3974.75,1684.965,3972.835,1679.664,3970.918,1674.363z M3955.052,1627.683
		c-0.818,0.36-1.637,0.722-2.455,1.082c2.288,5.894,4.576,11.787,6.864,17.68c0.684-0.254,1.366-0.508,2.05-0.763
		C3959.357,1639.683,3957.205,1633.683,3955.052,1627.683z M2827.615,1729.415c3.097,0.681,5.478,1.204,7.859,1.727
		c0.346-0.517,0.693-1.034,1.04-1.552c-2.537-2.56-5.074-5.119-8.899-8.98C2827.615,1724.829,2827.615,1726.706,2827.615,1729.415z"
		/>
	<path fill-rule="evenodd" clip-rule="evenodd" fill="#FFFFFF" d="M3507.184,1726.211c-2.856,10.721-5.236,20.332-7.992,29.835
		c-5.211,17.965-4.477,36.516-2.548,54.482c1.18,10.987,6.899,22.576,13.651,31.597c7.925,10.586,8.644,19.453,2.659,30.53
		c-5.204,9.631-9.334,19.84-13.937,29.796c-2.055,4.446-5.256,7.354-10.097,8.833c-7.938,2.427-15.935,7.884-23.533,7.29
		c-7.492-0.586-14.827-6.629-21.696-11.101c-22.03-14.343-44.421-12.842-66.971-1.956c-11.908,5.749-23.443,12.274-35.983,18.891
		c-1.547-2.046-3.784-5.187-6.204-8.18c-10.293-12.725-24.443-20.271-38.297-28.15c-2.202-1.253-5.064-1.366-7.637-1.941
		c-0.635-0.143-1.326-0.021-1.992-0.038c-25.055-0.674-29.805,0.396-50.813,13.193c-4.445,2.707-8.075,6.754-12.625,10.648
		c-8.379-18.944-16.338-37.703-33.792-52.825c12.639-1.873,22.939-3.525,33.278-4.908c43.455-5.818,84.839-18.743,125.005-36.01
		c31.462-13.523,63.019-26.851,92.874-43.745c17.041-9.643,34.11-19.189,47.91-33.688
		C3493.237,1733.729,3500.211,1730.77,3507.184,1726.211z"/>
	<path fill-rule="evenodd" clip-rule="evenodd" fill="#FFFFFF" d="M3686.473,1232.79c8.007-4.54,16.888-9.576,25.381-14.392
		c7.5,16.219,17.483,29.046,34.189,35.733c18.64,7.463,33.646,20.291,46.825,34.852c16.027,17.708,30.64,36.688,46.147,54.877
		c10.635,12.475,15.334,27.81,21.476,42.467c4.999,11.928,9.743,23.964,14.946,36.81c-17.035,6.946-33.785,13.776-52.256,21.309
		c0-6.114-0.322-10.965,0.079-15.753c0.532-6.354-1.396-11.689-5.069-16.733c-10.765-14.771-22.001-29.247-31.926-44.569
		c-11.736-18.115-27.443-32.427-42.297-47.643c-9.021-9.241-17.415-19.094-26.449-28.321c-6.029-6.155-12.825-11.552-18.978-17.594
		c-1.685-1.653-2.688-4.298-3.324-6.671C3692.323,1256.346,3689.671,1245.463,3686.473,1232.79z"/>
	<path fill-rule="evenodd" clip-rule="evenodd" fill="#FFFFFF" d="M3091.115,1936.792c-9.599,0.792-18.531,1.79-27.271-0.93
		c-19.503-6.068-39.539-4.268-59.451-4.294c-1.96-0.003-4.204,0.194-5.83,1.137c-8.209,4.755-17.519,2.884-26.215,4.618
		c-5.168,1.03-10.602,0.754-15.752,1.836c-4.711,0.991-9.204,3.021-14.279,4.76c-0.995-42.767-16.056-82.248-28.981-124.848
		c9.962,5.843,18.127,10.366,25.93,15.446c1.432,0.932,1.956,4.127,1.923,6.263c-0.075,4.765,1.881,8.248,5.265,11.329
		c3.936,3.582,7.358,7.811,11.6,10.955c7.608,5.643,16.028,9.285,25.953,8.426c9.038-0.783,17.858-0.405,25.5,5.822
		c1.849,1.506,4.986,2.047,7.513,2.005c14.94-0.253,29.987,0.14,44.776-1.584c10.4-1.213,20.462-5.392,30.647-8.345
		c6.288-1.823,12.523-3.829,20.188-6.186c-4.271,9.357-7.675,17.318-11.511,25.067c-3.295,6.66-5.032,13.499-5.645,20.956
		C3094.745,1918.108,3092.744,1926.886,3091.115,1936.792z"/>
	<path fill-rule="evenodd" clip-rule="evenodd" fill="#FFFFFF" d="M836.361,1286.418c12.605-16.206,25.205-32.418,37.906-48.548
		c0.142-0.18,1.633,0.704,3.054,1.343c-0.907,1.869-1.647,3.588-2.547,5.219c-7.783,14.099-15.188,28.466-29.866,37.079
		c-2.658,1.56-4.71,4.151-7.042,6.267C837.365,1287.324,836.863,1286.871,836.361,1286.418z"/>
	<path fill-rule="evenodd" clip-rule="evenodd" fill="#FFFFFF" d="M2925.649,2126.217c-2.667-6.949-5.333-13.898-8.038-20.948
		c1.954-2.864,3.752-5.503,7.021-10.297c1.405,11.765,2.535,21.234,3.666,30.704
		C2927.415,2125.855,2926.532,2126.036,2925.649,2126.217z"/>
	<path fill-rule="evenodd" clip-rule="evenodd" fill="#FFFFFF" d="M3970.918,1674.363c1.917,5.301,3.832,10.602,6.281,17.372
		C3967.57,1687.678,3970.25,1680.64,3970.918,1674.363z"/>
	<path fill-rule="evenodd" clip-rule="evenodd" fill="#FFFFFF" d="M3955.052,1627.683c2.153,6,4.306,12,6.459,17.999
		c-0.684,0.255-1.366,0.509-2.05,0.763c-2.288-5.893-4.576-11.786-6.864-17.68
		C3953.415,1628.404,3954.233,1628.043,3955.052,1627.683z"/>
	<path fill-rule="evenodd" clip-rule="evenodd" fill="#FFFFFF" d="M2827.615,1729.415c0-2.709,0-4.586,0-8.806
		c3.825,3.861,6.362,6.421,8.899,8.98c-0.347,0.518-0.694,1.035-1.04,1.552C2833.093,1730.619,2830.712,1730.096,2827.615,1729.415z
		"/>
</g>
</svg>
