<?xml version="1.0" encoding="utf-8"?>
<!-- Generator: Adobe Illustrator 16.0.2, SVG Export Plug-In . SVG Version: 6.00 Build 0)  -->
<!DOCTYPE svg PUBLIC "-//W3C//DTD SVG 1.1//EN" "http://www.w3.org/Graphics/SVG/1.1/DTD/svg11.dtd">
<svg version="1.1" id="Layer_1" xmlns="http://www.w3.org/2000/svg" xmlns:xlink="http://www.w3.org/1999/xlink" x="0px" y="0px"
	 width="4117.485px" height="3291.588px" viewBox="0 0 4117.485 3291.588" enable-background="new 0 0 4117.485 3291.588"
	 xml:space="preserve">
<g>
	<path fill-rule="evenodd" clip-rule="evenodd" fill="#FFFFFF" d="M2,2c1373.161,0,2746.322,0,4119.483,0
		c0,1097.862,0,2195.725,0,3293.587c-1373.161,0-2746.323,0-4119.483,0C2,2197.725,2,1099.862,2,2z M715.274,2591.021
		c6.16,4.421,12.635,9.72,19.734,13.982c7.043,4.229,14.486,8.009,22.151,10.95c25.292,9.707,52.173,12.744,78.67,16.517
		c20.304,2.892,41.108,3.051,61.686,2.994c14.888-0.04,29.791-2.232,44.646-3.842c8.525-0.924,16.93-2.997,25.459-3.856
		c21.249-2.142,42.196-5.556,61.969-13.989c20.432-8.715,40.226-18.756,59.253-30.226c5.554-3.347,10.633-7.482,16.131-11.399
		c4.127,5.474,7.851,10.147,11.292,15.019c19.088,27.031,37.473,54.587,57.336,81.033c18.528,24.666,38.439,48.305,58.056,72.137
		c13.233,16.076,26.221,32.478,40.765,47.316c14.991,15.296,28.045,31.866,39.8,49.615c1.611,2.435,3.07,4.97,4.333,7.024
		c-9.968,16.184-12.272,33.731-14.118,51.095c-1.331,12.523-0.677,25.319-0.161,37.963c0.779,19.083,5.823,36.589,20.938,49.788
		c4.756,4.153,9.341,8.508,13.908,12.872c8.592,8.209,18.491,12.376,30.654,11.749c25.509-1.314,51.058-1.89,76.557-3.358
		c4.217-0.244,6.636,0.756,9.598,3.273c8.604,7.312,17.302,14.563,26.451,21.163c4.212,3.039,9.365,5.576,14.425,6.489
		c17.267,3.118,34.508,6.154,52.303,5.762c11.496-0.255,20.672-3.398,28.232-11.899c11.706-13.162,23.385-26.354,35.358-39.271
		c5.819-6.277,10.112-13.051,11.188-21.69c2.708-21.753,4.232-43.434,2.587-65.475c-1.579-21.173-5.766-41.369-14.331-60.733
		c-1.047-2.365-1.513-4.987-2.023-6.727c5.193-5.506,9.709-10.868,14.813-15.597c12.762-11.822,18.835-27.974,27.843-42.218
		c0.837-1.322,1.158-3.166,1.185-4.777c0.299-18.26,1.911-36.681-6.462-53.922c-3.901-8.033-6.514-16.962-11.683-24.045
		c-7.797-10.687-16.924-20.504-26.222-29.968c-9.787-9.963-20.635-19.246-34.39-22.952c-22.226-5.988-44.994-8.482-68.07-6.814
		c-2.289,0.165-5.103,0.244-6.705,1.55c-10.116,8.253-22.646,6.54-34.837,9.306c-5.817-7.209-11.842-14.263-17.393-21.671
		c-5.543-7.398-10.516-15.22-15.909-22.734c-13.133-18.304-26.803-36.24-39.444-54.875c-15.426-22.741-30.072-46.011-44.961-69.113
		c-17.243-26.755-34.418-53.554-51.555-80.377c-19.263-30.148-38.756-60.156-57.58-90.577
		c-15.537-25.11-31.488-49.761-51.253-71.918c-16.512-18.509-31.646-38.242-47.567-57.284c-6.611-7.906-14.326-14.954-20.412-23.223
		c-11.354-15.429-25.515-28.051-39.217-41.144c-2.935-2.806-4.041-5.504-4.203-9.45c-0.657-15.931-1.337-31.879-2.775-47.752
		c-0.558-6.147-2.633-12.312-4.913-18.117c-5.512-14.045-14.804-25.859-23.787-37.75c-13.991-18.518-29.988-34.511-52.604-42.764
		c-8.931-3.26-17.141-8.571-25.526-13.225c-17.936-9.953-36.253-18.013-57.553-17.072c-15.256,0.674-30.565,0.131-46.218,0.131
		c0.962-12.081,2.271-23.644,2.694-35.239c0.4-10.968,0.565-22.038-0.507-32.932c-0.672-6.841-0.632-13.175,1.839-19.519
		c6.619-16.995,8.173-34.881,8.656-52.834c0.211-7.848,1.886-15.013,4.972-22.12c6.856-15.796,13.371-31.74,20.203-47.547
		c1.562-3.614,3.263-7.455,5.885-10.273c14.273-15.333,28.529-30.709,43.428-45.426c13.324-13.16,28.651-23.354,46.557-29.903
		c23.053-8.43,45.557-18.352,68.526-27.025c16.091-6.076,31.985-12.589,49.811-13.212c18.651-0.651,37.194-1.73,55.508,2.63
		c12.239,2.914,24.54,5.772,36.48,9.672c10.654,3.48,21.146,7.769,31.166,12.784c9.734,4.874,19.031,10.753,28.06,16.87
		c10.573,7.162,24.626,8.607,32.561,20.267c1.329,1.953,5.354,2.072,8.496,3.163c0.125,2.145,0.475,4.447,0.354,6.726
		c-0.563,10.6-1.756,21.19-1.815,31.79c-0.223,39.325-0.628,78.663,0.13,117.975c0.402,20.874,2.92,41.716,4.833,62.539
		c0.313,3.412,1.738,7.219,3.86,9.878c7.95,9.967,17.204,17.693,31.416,14.668c2.232-0.476,4.66-0.188,6.983-0.045
		c8.447,0.523,16.332-1.018,24.094-4.686c35.609-16.831,73.702-24.766,112.468-28.99c25.396-2.768,51.07-2.995,76.622-4.33
		c4.648-0.243,9.311-0.242,13.957-0.52c30.178-1.806,60.336-4.074,90.538-5.314c15.258-0.627,30.592,0.552,45.89,0.975
		c5.767,0.159,11.163-0.017,15.558-4.909c1.45-1.613,4.753-2.045,7.245-2.15c6.933-0.293,12.884-2.02,17.526-7.744
		c1.675-2.067,4.859-4.143,7.34-4.125c14.616,0.108,29.366-0.253,43.81,1.589c25.707,3.279,51.202,8.176,76.844,12.01
		c5.013,0.75,8.479,2.569,11.659,6.48c7.746,9.526,15.646,18.965,24.028,27.931c27.207,29.099,52.336,60.369,87.456,81.083
		c17.547,10.349,34.88,21.231,55.558,23.141c14.532,1.341,29.324,1.081,43.914,0.166c9.864-0.619,19.365-3.778,28.057-9.401
		c7.158-4.632,15.027-8.412,23.007-11.45c7.077-2.693,14.879-3.426,22.109-5.793c7.505-2.455,14.978-5.31,21.987-8.917
		c13.836-7.12,27.08-15.419,41.063-22.214c12.199-5.928,24.922-10.61,35.813-19.109c13.867-10.819,28.69-20.475,42.042-31.872
		c7.118-6.078,13.93-8.776,23.193-8.939c28.919-0.509,57.831-1.738,86.727-3.082c27.213-1.267,54.404-3.013,81.602-4.603
		c3.652-0.214,7.656,0.604,8.137,4.146c1.172,8.643,8.101,12.593,13.18,18.016c1.66,1.773,4.444,3.491,6.729,3.511
		c11.298,0.093,22.71,0.507,33.877-0.868c20.114-2.478,40.016-6.671,60.124-9.208c36.912-4.659,73.88-8.941,110.886-12.781
		c21.798-2.26,43.699-3.681,65.586-4.887c15.602-0.859,31.26-1.091,46.887-0.94c14.952,0.145,29.894,1.208,44.846,1.696
		c2.197,0.071,5.07-0.08,6.536-1.371c9.755-8.595,18.853-16.946,17.878-32.387c-1.551-24.548-1.277-49.216-1.601-73.834
		c-0.338-25.649-0.324-51.303-0.75-76.949c-0.225-13.543-1.06-27.074-1.64-41.101c15.143-3.338,29.665-6.64,44.24-9.693
		c4.541-0.951,9.293-0.897,13.827-1.869c19.412-4.16,38.662-9.195,58.195-12.644c20.872-3.685,41.924-6.793,63.03-8.578
		c18.861-1.596,37.903-1.147,56.869-1.354c3.598-0.04,7.254,0.881,10.805,1.7c10.664,2.461,21.537,4.362,31.856,7.868
		c9.878,3.356,20.502,5.083,28.841,12.582c12.33,11.089,25.682,21.071,37.708,32.463c8.853,8.386,17.281,17.599,24.095,27.664
		c8.865,13.095,15.273,27.841,23.999,41.045c7.371,11.155,12.455,23.364,18.944,34.877c8.401,14.901,9.337,31.767,13.752,47.698
		c1.571,5.673,1.75,11.789,2.105,17.73c0.831,13.924,1.209,27.876,2.122,41.793c0.468,7.148,1.689,14.247,2.659,22.097
		c-3.917-0.893-7.004-1.071-9.619-2.274c-20.771-9.555-42.465-4.745-63.868-4.297c-1.942,0.041-3.937,0.737-5.788,1.44
		c-23.312,8.851-44.518,21.021-60.617,40.508c-8.413,10.184-17.813,20.196-23.447,31.888c-9.313,19.33-16.694,39.643-20.013,61.236
		c-1.225,7.962-3.378,16.353-9.481,22.58c-8.61,8.786-17.439,17.359-26.044,26.151c-9.782,9.993-19.767,19.82-29.04,30.273
		c-13.164,14.841-25.382,30.527-38.692,45.23c-16.737,18.491-33.958,36.56-51.354,54.438
		c-22.331,22.949-40.848,48.895-59.684,74.601c-10.74,14.658-21.209,29.518-31.867,44.236c-7.579,10.466-15.521,20.68-22.849,31.318
		c-8.043,11.674-15.47,23.771-23.342,35.566c-13.242,19.838-26.834,39.444-39.876,59.41c-9.949,15.232-19.167,30.94-28.914,46.309
		c-7.454,11.751-15.273,23.271-22.844,34.949c-9.196,14.188-17.714,28.86-27.602,42.546c-11.449,15.847-22.58,31.778-31.382,49.297
		c-2.45,4.876-6.146,9.125-9.009,13.282c-7.548-3.826-14.72-6.212-20.278-10.627c-5.752-4.568-11.68-5.845-18.45-5.816
		c-5.666,0.022-11.382-0.483-16.988,0.095c-19.445,2.003-37.545,6.674-52.013,21.666c-10.666,11.052-17.772,23.928-23.814,37.564
		c-3.48,7.852-7.176,16.144-8.02,24.515c-1.764,17.498-2.213,35.179-2.238,52.785c-0.024,16.394,2.097,32.598,12.234,46.411
		c6.448,8.787,12.976,17.546,20.015,25.854c3.169,3.738,4.257,6.854,2.713,11.627c-3.977,12.294-7.569,24.717-11.062,37.16
		c-5.313,18.934-3.308,38.357-3.112,57.597c0.055,5.43,2.404,10.929,4.202,16.227c4.979,14.682,15.854,25.058,26.322,35.801
		c5.862,6.019,12.743,9.455,20.827,10.66c24.858,3.707,49.767,2.35,74.647,0.305c9.183-0.754,17.062-4.784,23.994-10.857
		c4.906-4.3,10.078-8.294,15.758-12.937c4.045,4.387,7.283,8.19,10.823,11.692c22.566,22.327,50.979,23.113,79.999,21.495
		c0.914-0.052,1.818-0.779,2.674-1.281c9.452-5.548,19.207-10.548,26.75-18.937c12.678-14.099,25.859-27.746,38.534-41.848
		c5.634-6.269,9.907-13.838,10.249-22.3c0.807-19.939,0.955-39.918-5.199-59.316c-4.895-15.427-11.87-29.909-19.903-44.185
		c20.148-20.67,36.422-44.077,52.356-67.742c12.754-18.941,25.089-38.181,38.375-56.739c8.658-12.095,19.163-22.855,28.004-34.832
		c16.619-22.517,35.275-43.196,54.681-63.276c11.785-12.198,23.146-24.81,35.063-36.874c9.041-9.151,18.659-17.732,27.938-26.492
		c2.456,1.417,4.361,2.191,5.879,3.44c16.051,13.211,34.547,22.154,53.347,30.512c8.458,3.761,17.152,6.998,25.791,10.34
		c9.265,3.584,18.571,7.056,27.897,10.477c3.393,1.244,6.819,2.618,10.354,3.223c29.7,5.084,59.702,4.763,89.633,3.898
		c12.889-0.371,26.139-1.777,38.463-5.344c28.982-8.385,57.746-17.828,82.506-36.073c4.974-3.665,9.695-7.676,14.295-11.339
		c9.774,8.771,19.705,16.689,28.435,25.765c11.506,11.959,25.178,20.291,39.769,27.694c29.276,14.857,60.048,17.691,92.405,12.542
		c0.695,0.647,1.778,1.439,2.594,2.447c12.15,15.01,24.979,29.304,40.272,41.3c5.985,4.696,11.285,10.315,16.601,15.803
		c7.402,7.643,14.336,15.745,21.826,23.297c6.312,6.364,13.89,9.918,23.297,9.402c8.639-0.473,17.327,0.028,25.989-0.158
		c3.964-0.086,8.137-0.12,11.835-1.333c16.688-5.471,33.888-9.935,47.453-22.185c3.692-3.333,7.831-6.168,11.616-9.404
		c14.738-12.596,28.107-26.654,38.848-42.677c6.135-9.15,12.407-17.863,20.15-25.654c6.731-6.771,14.718-12.576,18.104-22.146
		c0.414-1.169,1.525-2.174,2.5-3.048c8.138-7.297,16.38-14.479,24.441-21.858c1.912-1.751,3.619-3.933,4.803-6.235
		c4.103-7.982,8.407-15.912,11.771-24.212c7.849-19.362,14.835-38.591,14.462-60.439c-0.27-15.795-4.526-29.677-11.995-42.348
		c-11.065-18.771-21.928-37.814-36.135-54.617c-11.787-13.941-23.35-28.092-34.521-42.53
		c-14.396-18.604-29.772-36.502-42.046-56.679c-1.292-2.124-2.938-4.794-2.658-6.986c1.921-15.111,4.412-30.148,6.523-45.237
		c2.205-15.776,5.165-31.53,6.032-47.391c1.179-21.595,0.873-43.281,0.813-64.928c-0.022-8.27-1.367-16.526-1.693-24.805
		c-0.888-22.569-1.686-45.145-2.265-67.725c-0.427-16.646-0.095-33.315-0.761-49.948c-0.583-14.579-3.105-29.132-2.957-43.678
		c0.26-25.468-3.325-50.457-8.915-75.019c-5.215-22.917-12.605-45.37-19.682-67.824c-8.674-27.521-19.047-54.545-26.727-82.324
		c-5.689-20.578-13.096-40.365-21.645-59.737c-8.428-19.102-18.074-37.676-27.456-56.346c-8.19-16.297-16.298-32.665-25.273-48.531
		c-10.603-18.744-22.084-36.993-33.216-55.437c-5.653-9.366-10.832-19.079-17.172-27.958
		c-19.855-27.812-39.057-56.135-62.164-81.491c-6.238-6.846-11.69-14.404-17.657-21.505c-11.108-13.218-22.086-26.559-33.604-39.413
		c-6.197-6.916-13.308-13.032-20.181-19.319c-5.881-5.379-11.817-10.734-18.071-15.666c-13.798-10.884-28.032-21.222-41.68-32.286
		c-17.063-13.834-34.521-26.949-54.384-36.614c-7.712-3.753-15.001-8.37-22.681-12.195c-16.006-7.972-31.713-16.805-48.359-23.134
		c-13.231-5.031-27.652-6.974-41.592-10.074c-7.142-1.588-14.37-2.808-21.588-4.022c-23.825-4.008-47.542-9.229-71.536-11.503
		c-20.438-1.935-41.202-0.477-61.82-0.443c-6.843,0.011-13.686,0.392-20.528,0.379c-22.65-0.042-45.302-0.215-67.953-0.226
		c-1.57-0.001-3.108,1.12-4.718,1.385c-13.425,2.208-26.843,4.478-40.302,6.46c-22.607,3.328-45.293,6.149-67.849,9.789
		c-13.072,2.109-25.938,5.477-38.925,8.145c-13.633,2.799-27.323,5.323-40.943,8.185c-11.686,2.456-23.195,6.021-34.982,7.67
		c-21.871,3.06-42.349,10.83-63.253,17.185c-11.59,3.523-23.064,7.418-36.075,11.625c1.78-9.393,3.291-17.365,5.003-26.4
		c15.592-5.111,30.915-10.388,46.401-15.138c15.546-4.767,31.355-8.686,46.856-13.59c10.735-3.397,21.189-7.715,31.685-11.836
		c16.059-6.305,31.438-13.856,46.356-22.687c12.096-7.161,23.911-14.378,33.705-24.463c12.983-13.367,25.943-26.77,38.454-40.574
		c10.827-11.945,17.104-25.873,16.401-42.523c-0.883-20.926-0.804-41.907-2.171-62.796c-1.96-29.953-14.012-55.731-34.991-77.178
		c-8.781-8.977-18.135-17.39-27.038-26.25c-2.785-2.772-4.656-6.463-7.446-9.23c-11.553-11.462-23.331-22.698-34.967-34.078
		c-26.324-25.745-57.611-43.264-91.813-56.214c-7.976-3.019-15.691-7.192-22.798-11.93c-10.745-7.161-20.927-15.184-31.211-23.019
		c-19.021-14.491-38.395-28.565-56.796-43.811c-25.6-21.208-52.44-40.668-79.592-59.771c-3.066-2.158-5.899-5.285-7.628-8.596
		c-5.525-10.59-10.118-21.673-15.734-32.213c-10.425-19.566-20.455-39.422-32.23-58.166c-15.066-23.98-29.482-48.086-37.838-75.366
		c-1.534-5.011-3.284-10.047-5.677-14.688c-10.527-20.425-23.976-38.908-40.014-55.242c-10.89-11.091-23.536-20.436-34.752-31.233
		c-13.336-12.838-28.488-20.061-47.289-19.554c-15.32,0.414-30.66,0.055-45.99,0.097c-10.273,0.027-20.548,0.191-30.822,0.233
		c-20.313,0.082-40.692-0.86-60.922,0.478c-17.227,1.14-34.39,2.903-51.671,2.331c-2.403-0.08-4.845-1.276-7.126-2.277
		c-8.235-3.615-13.011-11.139-19.216-17.084c-17.29-16.563-34.91-32.782-52.254-49.292c-15.727-14.971-32.475-27.894-52.919-36.508
		c-20.608-8.684-41.71-12.807-63.203-9.23c-19.783,3.292-38.938,10.375-58.349,15.856c-1.577,0.445-3.111,1.262-4.482,2.178
		c-9.752,6.526-20.417,10.77-31.662,14.092c-5.214,1.541-9.938,5.102-14.543,8.248c-4.898,3.346-8.877,8.508-14.161,10.726
		c-14.164,5.944-26.294,14.564-35.658,26.394c-5.479,6.922-11.348,7.396-19.044,6.583c-20.803-2.196-41.641-4.711-62.521-5.375
		c-28.633-0.909-57.32-0.508-85.978-0.138c-21.713,0.28-42,5.602-59.566,19.253c-9.429,7.326-19.014,14.476-28.817,21.29
		c-20.539,14.28-39.921,29.984-57.042,48.184c-22.083,23.473-45.45,45.693-66.231,70.472
		c-10.446,12.455-20.809,24.956-30.224,38.126c-13.65,19.093-26.467,38.795-39.269,58.478c-9.76,15.005-19.367,30.139-28.284,45.652
		c-13.364,23.248-26.033,46.895-39.054,70.34c-9.841,17.719-20.585,34.992-29.443,53.187
		c-10.272,21.103-18.592,43.147-28.427,64.474c-4.133,8.961-9.728,17.295-15.133,25.604c-3.572,5.488-8.052,10.38-12.021,15.619
		c-17.698,23.359-34.299,47.592-43.927,75.397c-7.544,21.789-18.053,42.086-27.531,62.907c-6.188,13.592-9.977,27.327-9.125,42.406
		c0.602,10.631,0.371,21.332,0.048,31.986c-0.347,11.392,1.996,22.279,8.891,31.067c6.024,7.677,7.725,15.815,7.863,24.921
		c0.132,8.628,2.695,15.964,9.818,21.735c6.186,5.011,11.575,11.011,17.261,16.63c1.216,1.201,2.194,2.642,3.863,4.686
		c-2.549,0-3.875,0.121-5.172-0.019c-17.47-1.885-34.947-5.494-52.402-5.393c-47.151,0.271-94.435-3.402-141.394,5.291
		c-28.696,5.313-57.82,8.305-86.727,12.512c-5.559,0.809-11.115,2.063-16.474,3.742c-15.147,4.742-30.297,9.516-45.243,14.85
		c-11.563,4.125-23.021,8.675-34.167,13.813c-18.964,8.742-37.726,17.938-56.421,27.248c-11.839,5.895-23.955,11.498-34.98,18.709
		c-25.34,16.575-49.169,35.213-69.981,57.356c-12.053,12.822-23.387,26.32-35.394,39.188
		c-18.617,19.953-37.766,39.411-56.228,59.502c-10.084,10.974-19.27,22.777-28.762,34.288c-5.891,7.146-11.658,14.396-17.368,21.687
		c-8.98,11.464-18.449,22.605-26.647,34.611c-10.463,15.324-20.036,31.27-29.688,47.132c-11.715,19.253-23.233,38.63-34.604,58.088
		c-7.698,13.172-15.921,26.152-22.276,39.969c-12.745,27.71-24.365,55.938-36.462,83.948c-13.682,31.68-26.152,63.757-34.594,97.334
		c-3.965,15.772-9.678,31.097-13.957,46.8c-7.938,29.135-15.318,58.366-20.713,88.168c-6.327,34.956-15.458,69.438-13.88,105.401
		c0.015,0.332-0.011,0.666-0.024,0.999c-1.096,26.895-2.529,53.779-3.193,80.685c-0.657,26.634-0.665,53.287-0.709,79.934
		c-0.024,14.65-0.101,29.34,0.857,43.945c1.302,19.85,3.509,39.643,5.477,59.444c0.384,3.862,0.064,7.066-3.001,9.949
		c-17.771,16.702-30.667,37.325-45.011,56.751c-11.389,15.424-21.694,31.646-33.016,47.121
		c-8.176,11.174-13.199,22.896-11.435,37.039c0.532,4.266-0.021,8.658,0.103,12.987c0.379,13.243-0.21,26.551,4.524,39.364
		c2.397,6.485,4.236,13.249,5.59,20.034c2.525,12.655,7.248,24.059,16.116,33.666c9.018,9.772,17.783,19.777,26.635,29.701
		c7.515,8.424,14.786,17.077,22.551,25.263c7.544,7.953,15.644,15.377,23.386,23.145c16.415,16.471,32.606,33.169,49.203,49.454
		c6.871,6.74,14.791,12.404,21.771,19.045c4.493,4.273,9.243,7.57,15.377,8.471c14.017,2.06,28.001,4.703,42.098,5.727
		c10.881,0.789,21.92-0.394,32.872-1.004c2.502-0.14,5.418-0.926,7.316-2.447c7.761-6.224,15.698-12.357,22.659-19.422
		c16.525-16.771,32.531-34.052,48.756-51.138c16.347,0.365,33.285,0.561,50.208,1.166c21.731,0.777,41.949-5.56,62.04-12.633
		c1.528-0.538,2.916-1.557,4.271-2.494C696.244,2604.272,705.426,2597.869,715.274,2591.021z"/>
	<path fill-rule="evenodd" clip-rule="evenodd" d="M715.274,2591.021c-9.848,6.849-19.031,13.252-28.239,19.617
		c-1.355,0.938-2.743,1.956-4.271,2.494c-20.091,7.073-40.309,13.41-62.04,12.633c-16.924-0.605-33.862-0.801-50.208-1.166
		c-16.225,17.086-32.23,34.367-48.756,51.138c-6.961,7.064-14.898,13.198-22.659,19.422c-1.898,1.521-4.814,2.308-7.316,2.447
		c-10.952,0.61-21.991,1.793-32.872,1.004c-14.097-1.023-28.081-3.667-42.098-5.727c-6.134-0.9-10.884-4.197-15.377-8.471
		c-6.98-6.641-14.9-12.305-21.771-19.045c-16.596-16.285-32.788-32.983-49.203-49.454c-7.742-7.768-15.842-15.191-23.386-23.145
		c-7.765-8.186-15.037-16.839-22.551-25.263c-8.852-9.924-17.617-19.929-26.635-29.701c-8.868-9.607-13.591-21.011-16.116-33.666
		c-1.354-6.785-3.193-13.549-5.59-20.034c-4.734-12.813-4.146-26.121-4.524-39.364c-0.124-4.329,0.43-8.722-0.103-12.987
		c-1.765-14.143,3.259-25.865,11.435-37.039c11.322-15.476,21.627-31.697,33.016-47.121c14.344-19.426,27.239-40.049,45.011-56.751
		c3.066-2.883,3.385-6.087,3.001-9.949c-1.968-19.802-4.175-39.595-5.477-59.444c-0.958-14.605-0.882-29.295-0.857-43.945
		c0.044-26.646,0.052-53.3,0.709-79.934c0.664-26.905,2.098-53.79,3.193-80.685c0.014-0.333,0.039-0.667,0.024-0.999
		c-1.578-35.964,7.553-70.445,13.88-105.401c5.395-29.802,12.775-59.033,20.713-88.168c4.278-15.703,9.991-31.027,13.957-46.8
		c8.442-33.577,20.913-65.654,34.594-97.334c12.097-28.01,23.718-56.237,36.462-83.948c6.355-13.817,14.578-26.796,22.276-39.969
		c11.371-19.458,22.889-38.835,34.604-58.088c9.652-15.862,19.225-31.808,29.688-47.132c8.198-12.005,17.667-23.146,26.647-34.611
		c5.71-7.291,11.477-14.541,17.368-21.687c9.492-11.511,18.678-23.314,28.762-34.288c18.461-20.091,37.61-39.549,56.228-59.502
		c12.007-12.868,23.341-26.365,35.394-39.188c20.812-22.143,44.641-40.781,69.981-57.356c11.025-7.212,23.141-12.814,34.98-18.709
		c18.695-9.309,37.457-18.505,56.421-27.248c11.147-5.138,22.604-9.688,34.167-13.813c14.945-5.333,30.096-10.107,45.243-14.85
		c5.359-1.679,10.916-2.933,16.474-3.742c28.907-4.208,58.03-7.2,86.727-12.512c46.959-8.692,94.242-5.019,141.394-5.291
		c17.456-0.101,34.932,3.508,52.402,5.393c1.298,0.14,2.623,0.019,5.172,0.019c-1.668-2.044-2.647-3.485-3.863-4.686
		c-5.686-5.619-11.075-11.619-17.261-16.63c-7.123-5.771-9.686-13.107-9.818-21.735c-0.139-9.105-1.839-17.244-7.863-24.921
		c-6.895-8.788-9.237-19.675-8.891-31.067c0.323-10.655,0.554-21.355-0.048-31.986c-0.852-15.079,2.937-28.813,9.125-42.406
		c9.478-20.821,19.987-41.119,27.531-62.907c9.628-27.805,26.229-52.038,43.927-75.397c3.969-5.239,8.449-10.131,12.021-15.619
		c5.405-8.31,11-16.644,15.133-25.604c9.834-21.327,18.155-43.372,28.427-64.474c8.857-18.194,19.602-35.467,29.443-53.187
		c13.021-23.445,25.69-47.092,39.054-70.34c8.917-15.513,18.524-30.646,28.284-45.652c12.802-19.683,25.619-39.385,39.269-58.478
		c9.415-13.17,19.778-25.671,30.224-38.126c20.781-24.778,44.147-46.999,66.231-70.472c17.121-18.2,36.503-33.904,57.042-48.184
		c9.803-6.814,19.388-13.964,28.817-21.29c17.567-13.651,37.854-18.973,59.566-19.253c28.658-0.37,57.345-0.771,85.978,0.138
		c20.879,0.663,41.718,3.178,62.521,5.375c7.696,0.812,13.566,0.339,19.044-6.583c9.363-11.83,21.494-20.45,35.658-26.394
		c5.284-2.218,9.263-7.38,14.161-10.726c4.604-3.146,9.329-6.708,14.543-8.248c11.245-3.323,21.91-7.566,31.662-14.092
		c1.371-0.917,2.905-1.733,4.482-2.178c19.412-5.482,38.566-12.565,58.349-15.856c21.493-3.577,42.595,0.547,63.203,9.23
		c20.444,8.614,37.192,21.537,52.919,36.508c17.344,16.51,34.964,32.729,52.254,49.292c6.205,5.945,10.98,13.47,19.216,17.084
		c2.281,1.001,4.723,2.197,7.126,2.277c17.281,0.572,34.444-1.191,51.671-2.331c20.229-1.337,40.608-0.396,60.922-0.478
		c10.274-0.042,20.549-0.206,30.822-0.233c15.33-0.042,30.67,0.317,45.99-0.097c18.801-0.507,33.953,6.715,47.289,19.554
		c11.216,10.797,23.862,20.143,34.752,31.233c16.038,16.333,29.486,34.816,40.014,55.242c2.393,4.641,4.143,9.677,5.677,14.688
		c8.355,27.28,22.771,51.386,37.838,75.366c11.775,18.743,21.806,38.6,32.23,58.166c5.616,10.54,10.209,21.623,15.734,32.213
		c1.729,3.311,4.562,6.438,7.628,8.596c27.151,19.103,53.992,38.563,79.592,59.771c18.401,15.245,37.775,29.319,56.796,43.811
		c10.284,7.835,20.466,15.857,31.211,23.019c7.106,4.738,14.822,8.911,22.798,11.93c34.202,12.95,65.489,30.469,91.813,56.214
		c11.636,11.379,23.414,22.615,34.967,34.078c2.79,2.767,4.661,6.458,7.446,9.23c8.903,8.86,18.257,17.274,27.038,26.25
		c20.979,21.447,33.031,47.225,34.991,77.178c1.367,20.889,1.288,41.87,2.171,62.796c0.702,16.65-5.574,30.578-16.401,42.523
		c-12.511,13.804-25.471,27.208-38.454,40.574c-9.794,10.084-21.609,17.302-33.705,24.463
		c-14.919,8.831-30.298,16.381-46.356,22.687c-10.495,4.122-20.949,8.439-31.685,11.836c-15.501,4.904-31.311,8.823-46.856,13.59
		c-15.486,4.75-30.81,10.027-46.401,15.138c-1.712,9.035-3.223,17.007-5.003,26.4c13.011-4.206,24.485-8.102,36.075-11.625
		c20.904-6.355,41.382-14.125,63.253-17.185c11.787-1.648,23.297-5.214,34.982-7.67c13.62-2.861,27.311-5.385,40.943-8.185
		c12.986-2.667,25.853-6.035,38.925-8.145c22.556-3.64,45.241-6.461,67.849-9.789c13.459-1.982,26.877-4.252,40.302-6.46
		c1.609-0.265,3.147-1.386,4.718-1.385c22.651,0.011,45.303,0.184,67.953,0.226c6.843,0.013,13.686-0.368,20.528-0.379
		c20.618-0.034,41.383-1.492,61.82,0.443c23.994,2.273,47.711,7.495,71.536,11.503c7.218,1.214,14.446,2.434,21.588,4.022
		c13.939,3.101,28.36,5.043,41.592,10.074c16.646,6.329,32.354,15.162,48.359,23.134c7.68,3.825,14.969,8.441,22.681,12.195
		c19.863,9.666,37.32,22.78,54.384,36.614c13.647,11.064,27.882,21.402,41.68,32.286c6.254,4.932,12.19,10.287,18.071,15.666
		c6.873,6.287,13.983,12.403,20.181,19.319c11.519,12.854,22.496,26.195,33.604,39.413c5.967,7.101,11.419,14.659,17.657,21.505
		c23.107,25.356,42.309,53.679,62.164,81.491c6.34,8.879,11.519,18.592,17.172,27.958c11.132,18.443,22.613,36.693,33.216,55.437
		c8.976,15.866,17.083,32.234,25.273,48.531c9.382,18.67,19.028,37.244,27.456,56.346c8.549,19.372,15.955,39.159,21.645,59.737
		c7.68,27.779,18.053,54.804,26.727,82.324c7.076,22.454,14.467,44.907,19.682,67.824c5.59,24.562,9.175,49.551,8.915,75.019
		c-0.148,14.546,2.374,29.099,2.957,43.678c0.666,16.633,0.334,33.303,0.761,49.948c0.579,22.58,1.377,45.155,2.265,67.725
		c0.326,8.278,1.671,16.535,1.693,24.805c0.061,21.646,0.366,43.333-0.813,64.928c-0.867,15.86-3.827,31.614-6.032,47.391
		c-2.111,15.089-4.603,30.126-6.523,45.237c-0.279,2.192,1.366,4.862,2.658,6.986c12.273,20.177,27.65,38.074,42.046,56.679
		c11.171,14.438,22.733,28.589,34.521,42.53c14.207,16.803,25.069,35.846,36.135,54.617c7.469,12.671,11.726,26.553,11.995,42.348
		c0.373,21.849-6.613,41.077-14.462,60.439c-3.364,8.3-7.669,16.229-11.771,24.212c-1.184,2.303-2.891,4.484-4.803,6.235
		c-8.062,7.38-16.304,14.562-24.441,21.858c-0.975,0.874-2.086,1.879-2.5,3.048c-3.386,9.57-11.372,15.376-18.104,22.146
		c-7.743,7.791-14.016,16.504-20.15,25.654c-10.74,16.022-24.109,30.081-38.848,42.677c-3.785,3.236-7.924,6.071-11.616,9.404
		c-13.565,12.25-30.766,16.714-47.453,22.185c-3.698,1.213-7.871,1.247-11.835,1.333c-8.662,0.187-17.351-0.314-25.989,0.158
		c-9.407,0.516-16.985-3.038-23.297-9.402c-7.49-7.552-14.424-15.654-21.826-23.297c-5.315-5.487-10.615-11.106-16.601-15.803
		c-15.293-11.996-28.122-26.29-40.272-41.3c-0.815-1.008-1.898-1.8-2.594-2.447c-32.357,5.149-63.129,2.315-92.405-12.542
		c-14.591-7.403-28.263-15.735-39.769-27.694c-8.729-9.075-18.66-16.993-28.435-25.765c-4.6,3.663-9.321,7.674-14.295,11.339
		c-24.76,18.245-53.523,27.688-82.506,36.073c-12.324,3.566-25.574,4.973-38.463,5.344c-29.931,0.864-59.933,1.186-89.633-3.898
		c-3.534-0.604-6.961-1.979-10.354-3.223c-9.326-3.421-18.633-6.893-27.897-10.477c-8.639-3.342-17.333-6.579-25.791-10.34
		c-18.8-8.357-37.296-17.301-53.347-30.512c-1.518-1.249-3.423-2.023-5.879-3.44c-9.279,8.76-18.897,17.341-27.938,26.492
		c-11.917,12.064-23.277,24.676-35.063,36.874c-19.405,20.08-38.062,40.76-54.681,63.276c-8.841,11.977-19.346,22.737-28.004,34.832
		c-13.286,18.559-25.621,37.798-38.375,56.739c-15.935,23.665-32.208,47.072-52.356,67.742
		c8.033,14.275,15.009,28.758,19.903,44.185c6.154,19.398,6.006,39.377,5.199,59.316c-0.342,8.462-4.615,16.031-10.249,22.3
		c-12.675,14.102-25.856,27.749-38.534,41.848c-7.543,8.389-17.298,13.389-26.75,18.937c-0.855,0.502-1.76,1.229-2.674,1.281
		c-29.021,1.618-57.433,0.832-79.999-21.495c-3.54-3.502-6.778-7.306-10.823-11.692c-5.68,4.643-10.852,8.637-15.758,12.937
		c-6.933,6.073-14.812,10.104-23.994,10.857c-24.881,2.045-49.789,3.402-74.647-0.305c-8.084-1.205-14.965-4.642-20.827-10.66
		c-10.468-10.743-21.343-21.119-26.322-35.801c-1.798-5.298-4.147-10.797-4.202-16.227c-0.195-19.239-2.201-38.663,3.112-57.597
		c3.492-12.443,7.085-24.866,11.062-37.16c1.544-4.772,0.456-7.889-2.713-11.627c-7.039-8.308-13.566-17.066-20.015-25.854
		c-10.138-13.813-12.259-30.018-12.234-46.411c0.025-17.606,0.475-35.287,2.238-52.785c0.844-8.371,4.539-16.663,8.02-24.515
		c6.042-13.637,13.148-26.513,23.814-37.564c14.468-14.992,32.567-19.663,52.013-21.666c5.606-0.578,11.322-0.072,16.988-0.095
		c6.771-0.028,12.698,1.248,18.45,5.816c5.559,4.415,12.73,6.801,20.278,10.627c2.863-4.157,6.559-8.406,9.009-13.282
		c8.802-17.519,19.933-33.45,31.382-49.297c9.888-13.686,18.405-28.358,27.602-42.546c7.57-11.678,15.39-23.198,22.844-34.949
		c9.747-15.368,18.965-31.076,28.914-46.309c13.042-19.966,26.634-39.572,39.876-59.41c7.872-11.795,15.299-23.893,23.342-35.566
		c7.328-10.639,15.27-20.853,22.849-31.318c10.658-14.719,21.127-29.578,31.867-44.236c18.836-25.706,37.353-51.651,59.684-74.601
		c17.396-17.878,34.616-35.946,51.354-54.438c13.311-14.703,25.528-30.39,38.692-45.23c9.273-10.453,19.258-20.28,29.04-30.273
		c8.604-8.792,17.434-17.365,26.044-26.151c6.104-6.228,8.257-14.618,9.481-22.58c3.318-21.594,10.699-41.906,20.013-61.236
		c5.634-11.691,15.034-21.704,23.447-31.888c16.1-19.487,37.306-31.657,60.617-40.508c1.852-0.703,3.846-1.399,5.788-1.44
		c21.403-0.448,43.097-5.258,63.868,4.297c2.615,1.203,5.702,1.382,9.619,2.274c-0.97-7.85-2.191-14.948-2.659-22.097
		c-0.913-13.917-1.291-27.869-2.122-41.793c-0.355-5.941-0.534-12.058-2.105-17.73c-4.415-15.932-5.351-32.797-13.752-47.698
		c-6.489-11.513-11.573-23.722-18.944-34.877c-8.726-13.204-15.134-27.95-23.999-41.045c-6.813-10.065-15.242-19.278-24.095-27.664
		c-12.026-11.393-25.378-21.374-37.708-32.463c-8.339-7.498-18.963-9.226-28.841-12.582c-10.319-3.506-21.192-5.407-31.856-7.868
		c-3.551-0.819-7.207-1.74-10.805-1.7c-18.966,0.206-38.008-0.242-56.869,1.354c-21.106,1.785-42.158,4.893-63.03,8.578
		c-19.533,3.449-38.783,8.484-58.195,12.644c-4.534,0.971-9.286,0.917-13.827,1.869c-14.575,3.053-29.098,6.355-44.24,9.693
		c0.58,14.026,1.415,27.558,1.64,41.101c0.426,25.646,0.412,51.3,0.75,76.949c0.323,24.618,0.05,49.286,1.601,73.834
		c0.975,15.44-8.123,23.792-17.878,32.387c-1.466,1.291-4.339,1.442-6.536,1.371c-14.952-0.488-29.894-1.552-44.846-1.696
		c-15.627-0.15-31.285,0.081-46.887,0.94c-21.887,1.206-43.788,2.627-65.586,4.887c-37.006,3.84-73.974,8.122-110.886,12.781
		c-20.108,2.537-40.01,6.73-60.124,9.208c-11.167,1.375-22.579,0.961-33.877,0.868c-2.285-0.02-5.069-1.737-6.729-3.511
		c-5.079-5.423-12.008-9.373-13.18-18.016c-0.48-3.543-4.484-4.36-8.137-4.146c-27.197,1.59-54.389,3.336-81.602,4.603
		c-28.896,1.344-57.808,2.573-86.727,3.082c-9.264,0.163-16.075,2.861-23.193,8.939c-13.352,11.397-28.175,21.053-42.042,31.872
		c-10.892,8.499-23.614,13.182-35.813,19.109c-13.983,6.795-27.228,15.094-41.063,22.214c-7.01,3.607-14.482,6.462-21.987,8.917
		c-7.23,2.367-15.032,3.1-22.109,5.793c-7.979,3.038-15.849,6.818-23.007,11.45c-8.691,5.623-18.192,8.782-28.057,9.401
		c-14.59,0.915-29.382,1.175-43.914-0.166c-20.678-1.909-38.011-12.792-55.558-23.141c-35.12-20.714-60.249-51.984-87.456-81.083
		c-8.382-8.966-16.282-18.404-24.028-27.931c-3.179-3.911-6.646-5.73-11.659-6.48c-25.642-3.834-51.137-8.73-76.844-12.01
		c-14.444-1.842-29.194-1.48-43.81-1.589c-2.48-0.018-5.665,2.058-7.34,4.125c-4.642,5.725-10.594,7.451-17.526,7.744
		c-2.492,0.105-5.795,0.537-7.245,2.15c-4.395,4.893-9.791,5.068-15.558,4.909c-15.298-0.423-30.632-1.602-45.89-0.975
		c-30.201,1.24-60.36,3.509-90.538,5.314c-4.646,0.277-9.309,0.276-13.957,0.52c-25.552,1.335-51.225,1.563-76.622,4.33
		c-38.767,4.225-76.859,12.159-112.468,28.99c-7.762,3.668-15.646,5.209-24.094,4.686c-2.324-0.144-4.751-0.431-6.983,0.045
		c-14.212,3.025-23.466-4.701-31.416-14.668c-2.122-2.659-3.546-6.466-3.86-9.878c-1.914-20.823-4.431-41.665-4.833-62.539
		c-0.758-39.312-0.353-78.649-0.13-117.975c0.06-10.6,1.252-21.19,1.815-31.79c0.121-2.278-0.229-4.581-0.354-6.726
		c-3.142-1.091-7.167-1.21-8.496-3.163c-7.935-11.66-21.988-13.105-32.561-20.267c-9.029-6.117-18.326-11.997-28.06-16.87
		c-10.021-5.016-20.512-9.304-31.166-12.784c-11.94-3.9-24.241-6.758-36.48-9.672c-18.314-4.361-36.856-3.282-55.508-2.63
		c-17.826,0.623-33.72,7.136-49.811,13.212c-22.97,8.673-45.474,18.595-68.526,27.025c-17.905,6.548-33.232,16.743-46.557,29.903
		c-14.899,14.717-29.155,30.093-43.428,45.426c-2.623,2.818-4.324,6.659-5.885,10.273c-6.832,15.807-13.347,31.751-20.203,47.547
		c-3.086,7.107-4.761,14.272-4.972,22.12c-0.483,17.953-2.037,35.839-8.656,52.834c-2.471,6.344-2.511,12.678-1.839,19.519
		c1.072,10.894,0.907,21.964,0.507,32.932c-0.423,11.596-1.732,23.158-2.694,35.239c15.652,0,30.962,0.543,46.218-0.131
		c21.3-0.94,39.617,7.119,57.553,17.072c8.386,4.653,16.596,9.965,25.526,13.225c22.615,8.253,38.612,24.246,52.604,42.764
		c8.983,11.891,18.275,23.705,23.787,37.75c2.279,5.806,4.355,11.97,4.913,18.117c1.438,15.873,2.118,31.821,2.775,47.752
		c0.162,3.946,1.268,6.645,4.203,9.45c13.702,13.093,27.863,25.715,39.217,41.144c6.085,8.269,13.8,15.316,20.412,23.223
		c15.922,19.042,31.056,38.775,47.567,57.284c19.765,22.157,35.716,46.808,51.253,71.918c18.824,30.421,38.316,60.429,57.58,90.577
		c17.137,26.823,34.312,53.622,51.555,80.377c14.889,23.103,29.535,46.372,44.961,69.113c12.641,18.635,26.311,36.571,39.444,54.875
		c5.393,7.515,10.366,15.336,15.909,22.734c5.551,7.408,11.576,14.462,17.393,21.671c12.192-2.766,24.722-1.053,34.837-9.306
		c1.602-1.306,4.416-1.385,6.705-1.55c23.076-1.668,45.845,0.826,68.07,6.814c13.755,3.706,24.604,12.989,34.39,22.952
		c9.298,9.464,18.425,19.281,26.222,29.968c5.169,7.083,7.782,16.012,11.683,24.045c8.373,17.241,6.761,35.662,6.462,53.922
		c-0.026,1.611-0.348,3.455-1.185,4.777c-9.007,14.244-15.081,30.396-27.843,42.218c-5.104,4.729-9.62,10.091-14.813,15.597
		c0.511,1.739,0.977,4.361,2.023,6.727c8.565,19.364,12.752,39.561,14.331,60.733c1.645,22.041,0.12,43.722-2.587,65.475
		c-1.076,8.64-5.369,15.413-11.188,21.69c-11.973,12.917-23.652,26.108-35.358,39.271c-7.56,8.501-16.736,11.645-28.232,11.899
		c-17.795,0.393-35.037-2.644-52.303-5.762c-5.06-0.913-10.212-3.45-14.425-6.489c-9.148-6.601-17.846-13.852-26.451-21.163
		c-2.961-2.518-5.38-3.518-9.598-3.273c-25.499,1.469-51.047,2.044-76.557,3.358c-12.164,0.627-22.063-3.54-30.654-11.749
		c-4.567-4.364-9.151-8.719-13.908-12.872c-15.115-13.199-20.159-30.705-20.938-49.788c-0.516-12.644-1.17-25.439,0.161-37.963
		c1.846-17.363,4.15-34.911,14.118-51.095c-1.264-2.055-2.722-4.59-4.333-7.024c-11.754-17.749-24.809-34.319-39.8-49.615
		c-14.544-14.839-27.532-31.24-40.765-47.316c-19.617-23.832-39.528-47.471-58.056-72.137
		c-19.864-26.446-38.248-54.002-57.336-81.033c-3.441-4.871-7.165-9.545-11.292-15.019c-5.498,3.917-10.578,8.053-16.131,11.399
		c-19.028,11.47-38.822,21.511-59.253,30.226c-19.773,8.434-40.72,11.848-61.969,13.989c-8.529,0.859-16.934,2.933-25.459,3.856
		c-14.854,1.609-29.758,3.802-44.646,3.842c-20.578,0.057-41.382-0.103-61.686-2.994c-26.497-3.772-53.377-6.81-78.67-16.517
		c-7.665-2.941-15.107-6.722-22.151-10.95C727.91,2600.74,721.434,2595.441,715.274,2591.021z"/>
</g>
</svg>
