<?xml version="1.0" encoding="utf-8"?>
<!-- Generator: Adobe Illustrator 16.0.2, SVG Export Plug-In . SVG Version: 6.00 Build 0)  -->
<!DOCTYPE svg PUBLIC "-//W3C//DTD SVG 1.1 Tiny//EN" "http://www.w3.org/Graphics/SVG/1.1/DTD/svg11-tiny.dtd">
<svg version="1.1" baseProfile="tiny" id="Layer_1" xmlns="http://www.w3.org/2000/svg" xmlns:xlink="http://www.w3.org/1999/xlink"
	 x="0px" y="0px" width="4269.466px" height="2816.647px" viewBox="0 0 4269.466 2816.647" xml:space="preserve">
<g>
	<path fill-rule="evenodd" fill="#FFFFFF" d="M4273.465,2819.647c-1423.821,0-2847.644,0-4271.465,0C2,1880.432,2,941.215,2,2
		c1423.821,0,2847.644,0,4271.465,0C4273.465,941.215,4273.465,1880.432,4273.465,2819.647z M640.4,2336.979
		c2.378,1.665,4.259,3.008,6.166,4.313c14.672,10.043,30.377,18.239,47.691,22.232c29.452,6.795,59.306,11.952,89.484,13.671
		c38.561,2.197,77.158,1.844,115.524-3.858c16.731-2.487,33.744-3.621,50.206-7.276c31.371-6.965,60.464-20.264,88.795-35.185
		c5.839-3.075,11.456-6.571,18.454-10.612c1.655,2.122,3.195,4.232,4.872,6.227c16.051,19.089,32.271,38.038,48.156,57.263
		c21.642,26.191,44.249,51.472,68.681,75.108c5.257,5.085,9.971,10.727,15.152,15.896c12.026,11.996,23.776,24.313,36.39,35.665
		c16.313,14.683,32.785,29.129,46.446,46.433c2.233,2.829,4.899,5.235,2.809,9.668c-8.475,17.975-13.367,36.729-11.778,56.854
		c0.418,5.3,0.275,10.67,0.025,15.991c-1.001,21.306,6.293,38.844,22.443,53.063c14.219,12.519,29.241,21.671,49.301,19.681
		c15.164-1.504,30.437-1.944,45.665-2.766c9.942-0.536,19.911-0.682,29.832-1.457c4.312-0.337,7.526,0.429,10.637,3.656
		c3.203,3.326,6.975,6.217,10.848,8.763c13.667,8.984,27.455,17.537,44.738,17.811c17.276,0.273,34.543,1.146,51.809,1.9
		c6.159,0.269,11.063-2.507,15.29-6.295c10.402-9.326,20.274-19.252,30.787-28.447c17.556-15.354,25.324-34.276,23.449-57.604
		c-0.853-10.597,0.098-21.326-0.234-31.979c-0.206-6.609-0.394-13.443-2.159-19.734c-3.665-13.055-8.375-25.816-12.895-39.422
		c0.714-0.791,1.856-2.452,3.362-3.666c14.684-11.838,26.136-26.496,36.598-41.987c1.828-2.706,3.921-5.93,4.029-8.979
		c0.466-13.239,2.274-26.657-2.197-39.604c-6.038-17.483-13.948-33.806-28.714-45.92c-4.103-3.365-7.677-7.399-11.348-11.264
		c-13.708-14.43-30.013-23.451-49.936-26.784c-20.548-3.436-41.116-2.909-61.735-2.853c-1.625,0.004-3.456,0.228-4.845,0.983
		c-12.667,6.896-26.922,6.355-41.123,9.147c-17.132-19.655-34.914-38.995-51.494-59.314c-26.707-32.729-53.177-65.684-78.746-99.305
		c-41.292-54.298-81.627-109.321-122.707-163.782c-8.785-11.647-18.597-22.606-28.692-33.158
		c-16.122-16.854-33.428-32.596-49.236-49.729c-23.949-25.956-48.432-51.271-76.174-73.225c-3.158-2.499-4.485-5.161-4.613-9.244
		c-0.31-9.948-1.411-19.868-1.881-29.813c-0.816-17.292-6.845-32.306-18.657-45.037c-9.499-10.236-19.103-20.396-28.144-31.03
		c-11.708-13.771-27.03-21.064-43.711-26.578c-7.846-2.594-15.428-6.1-22.916-9.642c-20.345-9.623-41.234-16.757-64.156-16.351
		c-14.911,0.264-29.829,0.049-45.646,0.049c0-2.763-0.088-5.676,0.014-8.584c0.598-16.935,1.135-33.872,1.93-50.796
		c0.245-5.217,0.376-10.696,2.055-15.536c4.509-13.001,7.711-26.252,7.665-39.953c-0.038-11.507,4.112-21.313,9.26-31.115
		c5.869-11.176,11.167-22.651,17.08-33.803c2.299-4.338,5.039-8.733,8.549-12.086c11.301-10.794,22.702-21.539,34.717-31.515
		c17.709-14.705,36.286-27.912,58.919-34.723c24.514-7.377,48.989-15.144,72.832-24.412c26.624-10.348,54.209-12.669,82.158-13.37
		c31.056-0.779,60.541,7.55,89.698,16.972c8.814,2.848,17.252,6.959,25.684,10.877c12.638,5.874,25.174,11.977,37.64,18.207
		c5.284,2.641,10.218,5.977,15.442,8.751c2.504,1.33,5.242,2.59,8.002,2.982c3.593,0.511,7.354,0.474,10.974,0.063
		c9.658-1.095,17.087,1.853,23.695,9.404c9.362,10.697,22.751,14.067,36.202,15.125c17.889,1.408,35.783,0.522,53.085-5.275
		c5.024-1.685,10.326-2.636,15.208-4.635c18.447-7.556,36.586-15.899,55.207-22.983c14.265-5.429,29.233-8.98,43.618-14.126
		c21.904-7.833,43.425-16.741,65.382-24.412c21.324-7.451,43.195-13.358,64.444-21.002c16.172-5.816,33.612-8.618,47.917-19.335
		c3.151-2.361,7.558-3.045,11.561-4.568c0.813,1.561,1.743,2.662,1.973,3.895c2.668,14.273,10.366,25.731,19.909,36.223
		c2.007,2.206,3.705,4.705,5.437,7.145c9.049,12.749,17.486,25.981,27.236,38.167c11.891,14.861,22.794,30.111,31.46,47.189
		c5.66,11.157,13.001,21.809,21.268,31.21c10.345,11.768,20.341,23.637,29.244,36.559c5.437,7.891,12.327,14.803,18.755,21.982
		c11.536,12.881,23.213,25.636,34.838,38.436c5.142,5.662,10.043,11.575,15.504,16.913c18.096,17.682,36.038,35.55,54.736,52.579
		c13.98,12.73,27.962,25.685,45.037,34.49c5.321,2.744,10.383,6.046,15.847,8.448c11.836,5.206,23.639,10.626,35.848,14.815
		c19.986,6.858,40.879,4.939,61.416,3.896c11.872-0.604,23.754-3.511,34.118-10.133c8.573-5.478,17.893-8.652,27.872-10.221
		c20.915-3.29,40.382-10.338,58.874-20.854c10.332-5.876,21.915-9.549,32.918-14.256c8.233-3.521,16.967-6.232,24.555-10.829
		c20.192-12.233,40.066-25.018,59.727-38.096c20.741-13.796,40.12-29.422,61.863-41.99c22.378-12.937,42.975-28.99,64.136-43.986
		c13.299-9.424,25.799-20.013,39.357-29.028c36.595-24.334,72.103-49.892,105.232-78.987c25.782-22.642,51.94-44.835,74.519-70.648
		c8.497-9.716,16.39-11.702,28.376-9.088c34.145,7.444,67.973,15.808,100.736,28.092c18.051,6.768,36.14,13.451,54.027,20.631
		c8.86,3.558,17.835,6.75,25.877,12.526c4.765,3.423,11.729,5.074,17.756,5.212c19.242,0.439,38.396,0.741,57.564-3.761
		c20.965-4.923,42.501-7.41,63.777-11.02c22.581-3.832,45.096-8.107,67.745-11.476c14.754-2.193,29.727-2.88,44.552-4.65
		c36.188-4.32,72.255-5.206,108.086,2.901c18.113,4.099,36.568,7.196,51.854,19.139c14.144,11.052,28.827,21.431,42.65,32.86
		c6.026,4.981,10.781,11.625,15.598,17.911c5.454,7.116,10.292,14.702,15.464,22.039c10.71,15.195,22.631,29.563,30.396,46.721
		c9.533,21.064,17.433,42.338,16.049,66.145c-0.497,8.537,1.045,17.203,1.797,25.799c0.483,5.507,1.226,10.992,1.849,16.451
		c-1.289,0.204-1.966,0.51-2.528,0.366c-3.218-0.816-6.457-1.597-9.601-2.65c-20.439-6.854-41.605-6.433-62.176-3.063
		c-24.793,4.06-47.415,13.832-66.598,31.516c-18.442,17-34.149,35.464-42.885,59.134c-4.369,11.835-7.914,23.979-11.684,36.029
		c-1.931,6.176-5.081,11.096-10.22,15.416c-28.797,24.208-56.343,49.776-82.91,76.444c-13.128,13.178-27.163,25.496-41.259,37.66
		c-23.976,20.691-47.302,42.135-67.944,66.095c-35.806,41.559-70.751,83.862-105.784,126.078
		c-14.017,16.892-27.496,34.239-40.898,51.628c-30.873,40.055-61.557,80.255-92.299,120.411
		c-6.467,8.446-12.962,16.874-19.25,25.451c-5.862,7.995-11.469,16.178-16.806,23.735c-11.355-5.686-21.617-10.902-31.971-15.928
		c-1.72-0.835-3.832-1.104-5.782-1.181c-17.011-0.677-33.933-0.03-50.49,4.39c-7.072,1.888-14.095,3.986-19.35,9.678
		c-3.162,3.425-6.594,6.602-9.873,9.921c-20.839,21.09-32.175,46.086-31.454,76.115c0.208,8.661,0.467,17.356-0.057,25.99
		c-1.144,18.88,6.033,34.391,18.388,47.978c6.254,6.878,12.642,13.635,19.177,20.669c-11.212,26.759-17.498,54.351-15.562,83.544
		c0.882,13.306,3.664,25.774,12.811,35.888c6.024,6.662,12.276,13.238,19.185,18.937c3.905,3.224,9.132,5.599,14.121,6.633
		c29.666,6.154,59.582,4.193,89.36,1.086c6.235-0.65,12.425-4.533,18.002-7.958c6.166-3.784,11.606-8.754,17.906-13.628
		c3.586,2.862,7.435,5.466,10.724,8.646c9.308,8.996,20.408,14.306,32.605,18.426c12.754,4.308,25.674,2.706,38.534,3.743
		c13.04,1.051,24.231-2.814,34.597-10.058c4.066-2.841,8.145-5.78,11.71-9.203c8.894-8.538,17.499-17.378,26.217-26.1
		c22.65-22.659,23.435-19.665,22.913-55.838c-0.209-14.528-3.854-28.271-10.157-41.294c-4.432-9.157-9.153-18.177-13.582-26.936
		c13.562-15.265,27.358-30.145,40.395-45.664c11.113-13.231,20.784-27.69,32.111-40.724c17.229-19.828,35.379-38.854,53.063-58.29
		c15.922-17.498,32.674-34.08,51.056-49.056c10.299-8.39,19.73-17.837,29.681-26.664c5.714-5.068,11.678-9.854,17.538-14.756
		c6.362-5.321,12.744-10.619,19.098-15.951c1.968-1.651,3.869-3.38,5.771-5.045c1.651,0.863,2.896,1.369,3.986,2.104
		c17.466,11.77,36.328,21.024,55.898,28.416c21.426,8.094,43.487,14.507,65.294,21.581c2.197,0.712,4.548,0.97,6.838,1.372
		c32.031,5.621,64.347,4.958,96.553,3.131c29.305-1.661,57.878-8.012,85.422-18.438c13.979-5.292,28.505-9.469,40.778-18.461
		c5.297-3.881,10.195-8.309,15.601-12.755c3.624,3.096,7.091,6.151,10.654,9.089c18.49,15.239,36.806,30.734,59.243,40.161
		c15.077,6.337,30.465,12.205,46.857,13.026c18.54,0.93,37.164,0.215,56.791,0.215c9.327,8.853,19.088,19.469,30.217,28.375
		c18.184,14.553,36.959,28.288,53.216,45.167c5.865,6.091,14.103,8.217,22.824,8.559c20.427,0.801,40.563-0.314,59.933-7.475
		c7.746-2.863,15.783-5.425,22.84-9.568c14.945-8.774,28.789-19.103,40.778-31.865c16.129-17.167,31.148-35.429,49.329-50.618
		c2.514-2.102,4.168-5.201,6.538-7.514c2.53-2.469,5.178-5.012,8.225-6.721c11.882-6.665,21.351-16.039,28.841-27.079
		c5.948-8.768,10.467-18.528,15.354-27.986c7.568-14.646,13.221-29.75,10.982-46.791c-0.604-4.588,0.089-9.33-0.17-13.981
		c-0.143-2.583-0.469-5.426-1.668-7.63c-3.814-7.004-7.76-13.978-12.219-20.581c-17.75-26.284-38.541-50.065-60.878-72.498
		c-19.484-19.569-38.918-39.136-54.888-61.841c-2.311-3.286-3.387-6.291-2.816-10.109c1.861-12.473,3.281-25.026,5.606-37.411
		c4.241-22.6,6.313-45.317,7.175-68.313c1.214-32.403-4.761-64.323-4.977-96.585c-0.023-3.604-0.749-7.208-0.718-10.808
		c0.161-18.269,0.962-36.544,0.564-54.797c-0.332-15.241-1.879-30.463-3.133-45.674c-0.845-10.25-1.383-20.607-3.339-30.669
		c-5.405-27.812-14.238-54.64-24.564-81.006c-10.789-27.545-21.174-55.249-32.008-82.774c-6.084-15.459-11.747-31.199-19.293-45.945
		c-23.375-45.678-50.596-89.069-80.695-130.625c-12.877-17.775-25.717-35.606-39.339-52.806
		c-26.912-33.981-58.385-63.804-88.161-95.168c-23.234-24.472-48.745-46.146-77.561-63.98
		c-18.091-11.196-34.69-24.935-53.238-35.227c-22.919-12.714-47.224-22.916-70.819-34.43c-18.649-9.1-38.003-15.909-58.512-19.28
		c-25.893-4.256-51.752-8.74-77.699-12.638c-16.731-2.514-33.567-5.59-50.402-5.905c-44.285-0.825-88.596-0.409-132.894-0.197
		c-12.929,0.062-25.901,0.132-38.592,3.72c-5.378,1.52-11.143,1.682-16.739,2.397c-30.917,3.954-62.114,4.947-92.758,12.052
		c-30.007,6.957-60.897,9.328-91.176,15.761c-37.391,7.943-74.625,16.172-111.34,26.777c-4.649,1.342-9.438,2.196-14.288,3.305
		c-0.778-15.938,0.307-17.826,12.854-22.416c4.987-1.825,10.019-3.615,15.152-4.946c18.989-4.925,37.956-9.98,57.069-14.386
		c38.766-8.935,76.045-21.915,111.261-40.449c8.178-4.303,16.224-9.413,23.089-15.541c15.389-13.734,29.834-28.515,44.982-42.526
		c9.213-8.522,13.222-18.853,13.177-31.127c-0.053-13.998,0.094-27.997-0.038-41.993c-0.221-23.444-5.725-45.529-18.816-65.144
		c-10.239-15.342-23.121-28.263-38.78-38.323c-4.43-2.847-8.837-6.136-12.246-10.092c-13.794-16.006-30.156-28.854-46.952-41.55
		c-23.938-18.095-50.006-31.514-78.166-41.333c-10.657-3.716-21.657-6.864-31.662-11.93c-11.836-5.994-22.858-13.633-34.07-20.814
		c-49.887-31.951-98.153-66.465-150.153-95.065c-5.304-2.917-8.49-7.177-11.229-12.186c-16.148-29.533-34.365-57.682-54.856-84.436
		c-13.356-17.439-25.7-35.693-32.974-56.75c-4.191-12.134-10.957-22.765-18.932-32.648c-5.843-7.24-11.842-14.388-18.221-21.152
		c-11.421-12.11-22.833-24.275-37.928-32.128c-3.495-1.819-7.102-3.987-9.708-6.855c-12.851-14.153-29.769-18.725-47.684-19.313
		c-18.246-0.598-36.553,0.793-54.837,1.073c-13.591,0.208-27.19-0.169-40.779,0.071c-30.271,0.534-60.538,1.297-90.807,1.953
		c-4.994,0.108-10.005,0.387-14.982,0.123c-2.843-0.15-5.844-0.788-8.415-1.979c-11.941-5.534-21.2-14.653-31.137-23.031
		c-15.994-13.486-33.193-25.538-49.307-38.892c-15.303-12.682-31.689-23.19-50.735-29.052c-10.445-3.215-20.967-6.875-31.721-8.256
		c-33.183-4.261-64.405,6.026-95.776,14.595c-1.908,0.521-3.678,1.531-5.545,2.226c-9.327,3.474-18.54,7.326-28.038,10.252
		c-8.388,2.584-16.185,5.93-23.1,11.389c-3.113,2.458-6.312,5.316-9.957,6.502c-15.252,4.965-28.209,13.527-39.151,24.914
		c-5.298,5.513-10.863,6.433-17.87,5.631c-31.373-3.592-62.768-6.648-94.448-5.854c-21.65,0.543-43.324,0.184-64.986,0.083
		c-24.565-0.114-47.367,5.896-68.146,19.163c-33.337,21.287-67.192,41.625-96.63,68.655c-28.447,26.12-57.815,51.281-83.093,80.547
		c-45.776,52.997-86.078,110.055-123.426,169.243c-9.239,14.641-19.652,28.592-28.152,43.636
		c-11.451,20.27-21.46,41.351-32.342,61.949c-2.611,4.943-5.837,9.682-9.447,13.949c-6.654,7.867-14.02,15.131-20.7,22.977
		c-15.773,18.52-31.183,37.379-41.033,59.913c-8.275,18.932-17.816,37.127-28.327,54.923c-5.877,9.951-10.689,20.799-11.616,32.667
		c-1.321,16.917-2.502,33.964,1.501,50.621c1.59,6.616,4.7,13.373,8.851,18.721c3.88,5,6.441,9.735,6.823,15.99
		c0.77,12.572,6.112,22.735,16.044,30.746c3.234,2.608,5.238,6.742,7.282,9.479c-0.706,0-3.217,0.163-5.701-0.025
		c-22.492-1.707-44.957-4.487-67.471-4.969c-28.258-0.606-56.563,0.427-84.835,1.219c-12.267,0.344-24.541,1.507-36.742,2.9
		c-24.397,2.786-48.75,5.963-73.115,9.02c-30.388,3.812-60.27,9.815-89.492,19.241c-39.637,12.785-77.92,29.02-116.12,45.368
		c-38.926,16.659-73.28,40.475-103.437,70.324c-11.822,11.703-23.957,23.107-36.307,34.251
		c-27.155,24.503-55.614,47.588-79.959,75.102c-16.745,18.925-35.056,36.607-50.454,56.552
		c-23.168,30.014-44.482,61.464-66.436,92.409c-31.772,44.783-55.27,94.179-76.933,144.214
		c-15.683,36.224-27.937,74.023-40.123,111.638c-8.285,25.571-14.328,51.917-20.413,78.14c-5.552,23.929-10.353,47.995-10.56,72.852
		c-0.188,22.564-2.432,45.104-3.019,67.674c-0.684,26.304-0.709,52.627-0.712,78.943c-0.001,14.642,0.048,29.326,1.13,43.913
		c1.104,14.875,3.305,29.682,5.425,44.462c0.882,6.149-0.725,10.42-5.316,14.827c-32.5,31.196-59.834,66.903-88.137,101.766
		c-3.379,4.162-4.662,8.543-4.546,13.779c0.213,9.66-0.272,19.343,0.149,28.989c0.477,10.926,1.198,21.816,6.642,31.876
		c2.327,4.299,3.451,9.353,4.541,14.193c2.711,12.046,8.22,22.494,17.239,30.902c8.02,7.476,16.853,14.139,24.421,22.029
		c15.683,16.347,32.08,31.761,49.463,46.371c25.174,21.158,48.246,44.772,76.211,62.619c9.262,5.911,18.447,10.402,29.629,10.029
		c4.314-0.145,8.902-0.671,12.923,0.498c17.779,5.168,35.648,2.29,53.5,1.287c1.83-0.104,3.882-1.049,5.34-2.217
		c12.704-10.173,25.62-20.118,37.828-30.864c11.968-10.534,23.18-21.927,34.525-32.753c18.809,0.676,37.458,2.513,56.003,1.763
		C576.52,2368.333,611.615,2363.331,640.4,2336.979z"/>
	<path fill-rule="evenodd" d="M640.4,2336.979c-28.786,26.353-63.881,31.354-99.722,32.804c-18.545,0.75-37.194-1.087-56.003-1.763
		c-11.345,10.826-22.558,22.219-34.525,32.753c-12.208,10.746-25.125,20.691-37.828,30.864c-1.458,1.168-3.51,2.113-5.34,2.217
		c-17.852,1.003-35.72,3.881-53.5-1.287c-4.021-1.169-8.609-0.643-12.923-0.498c-11.182,0.373-20.368-4.118-29.629-10.029
		c-27.966-17.847-51.038-41.461-76.211-62.619c-17.383-14.61-33.781-30.024-49.463-46.371c-7.568-7.891-16.401-14.554-24.421-22.029
		c-9.02-8.408-14.528-18.856-17.239-30.902c-1.089-4.841-2.214-9.895-4.541-14.193c-5.444-10.06-6.165-20.95-6.642-31.876
		c-0.421-9.646,0.064-19.329-0.149-28.989c-0.116-5.236,1.167-9.617,4.546-13.779c28.303-34.862,55.637-70.569,88.137-101.766
		c4.591-4.407,6.198-8.678,5.316-14.827c-2.12-14.78-4.322-29.587-5.425-44.462c-1.082-14.587-1.131-29.271-1.13-43.913
		c0.002-26.316,0.028-52.64,0.712-78.943c0.586-22.57,2.831-45.109,3.019-67.674c0.207-24.856,5.008-48.923,10.56-72.852
		c6.085-26.223,12.128-52.568,20.413-78.14c12.187-37.614,24.44-75.414,40.123-111.638c21.663-50.035,45.16-99.431,76.933-144.214
		c21.954-30.944,43.268-62.395,66.436-92.409c15.397-19.945,33.708-37.627,50.454-56.552c24.346-27.514,52.805-50.599,79.959-75.102
		c12.35-11.144,24.485-22.549,36.307-34.251c30.156-29.85,64.511-53.665,103.437-70.324c38.2-16.349,76.483-32.583,116.12-45.368
		c29.222-9.426,59.104-15.429,89.492-19.241c24.365-3.057,48.717-6.234,73.115-9.02c12.202-1.393,24.476-2.556,36.742-2.9
		c28.272-0.792,56.577-1.825,84.835-1.219c22.515,0.482,44.979,3.262,67.471,4.969c2.484,0.188,4.995,0.025,5.701,0.025
		c-2.044-2.737-4.048-6.872-7.282-9.479c-9.932-8.011-15.274-18.174-16.044-30.746c-0.382-6.255-2.943-10.991-6.823-15.99
		c-4.151-5.348-7.261-12.105-8.851-18.721c-4.003-16.656-2.822-33.703-1.501-50.621c0.927-11.868,5.739-22.716,11.616-32.667
		c10.511-17.795,20.052-35.991,28.327-54.923c9.851-22.534,25.26-41.393,41.033-59.913c6.681-7.846,14.046-15.11,20.7-22.977
		c3.61-4.268,6.836-9.006,9.447-13.949c10.881-20.599,20.891-41.679,32.342-61.949c8.5-15.044,18.914-28.995,28.152-43.636
		c37.348-59.188,77.65-116.246,123.426-169.243c25.278-29.267,54.646-54.428,83.093-80.547
		c29.438-27.031,63.293-47.369,96.63-68.655c20.778-13.267,43.581-19.277,68.146-19.163c21.663,0.101,43.336,0.46,64.986-0.083
		c31.68-0.795,63.075,2.261,94.448,5.854c7.007,0.802,12.572-0.118,17.87-5.631c10.942-11.387,23.899-19.949,39.151-24.914
		c3.645-1.186,6.844-4.044,9.957-6.502c6.915-5.459,14.712-8.805,23.1-11.389c9.498-2.926,18.71-6.778,28.038-10.252
		c1.867-0.695,3.637-1.705,5.545-2.226c31.371-8.568,62.593-18.856,95.776-14.595c10.753,1.381,21.276,5.041,31.721,8.256
		c19.046,5.861,35.432,16.37,50.735,29.052c16.113,13.354,33.313,25.405,49.307,38.892c9.937,8.378,19.195,17.497,31.137,23.031
		c2.571,1.191,5.572,1.829,8.415,1.979c4.978,0.264,9.988-0.015,14.982-0.123c30.269-0.656,60.535-1.419,90.807-1.953
		c13.589-0.24,27.188,0.137,40.779-0.071c18.284-0.28,36.591-1.671,54.837-1.073c17.915,0.588,34.833,5.16,47.684,19.313
		c2.606,2.869,6.213,5.036,9.708,6.855c15.095,7.853,26.507,20.018,37.928,32.128c6.379,6.765,12.378,13.912,18.221,21.152
		c7.975,9.884,14.74,20.514,18.932,32.648c7.273,21.058,19.617,39.312,32.974,56.75c20.491,26.754,38.708,54.903,54.856,84.436
		c2.738,5.009,5.925,9.268,11.229,12.186c52,28.6,100.267,63.114,150.153,95.065c11.212,7.181,22.234,14.82,34.07,20.814
		c10.005,5.066,21.005,8.214,31.662,11.93c28.16,9.82,54.229,23.238,78.166,41.333c16.796,12.697,33.158,25.544,46.952,41.55
		c3.409,3.956,7.816,7.245,12.246,10.092c15.659,10.06,28.541,22.981,38.78,38.323c13.092,19.615,18.596,41.7,18.816,65.144
		c0.132,13.997-0.015,27.996,0.038,41.993c0.045,12.274-3.964,22.604-13.177,31.127c-15.148,14.011-29.594,28.792-44.982,42.526
		c-6.865,6.128-14.911,11.238-23.089,15.541c-35.216,18.534-72.495,31.514-111.261,40.449c-19.113,4.406-38.08,9.461-57.069,14.386
		c-5.134,1.332-10.165,3.122-15.152,4.946c-12.548,4.589-13.633,6.478-12.854,22.416c4.85-1.109,9.639-1.963,14.288-3.305
		c36.715-10.605,73.949-18.834,111.34-26.777c30.278-6.433,61.169-8.804,91.176-15.761c30.644-7.104,61.841-8.098,92.758-12.052
		c5.597-0.716,11.361-0.878,16.739-2.397c12.69-3.588,25.663-3.659,38.592-3.72c44.298-0.212,88.608-0.628,132.894,0.197
		c16.835,0.314,33.671,3.391,50.402,5.905c25.947,3.897,51.807,8.381,77.699,12.638c20.509,3.371,39.862,10.18,58.512,19.28
		c23.596,11.514,47.9,21.716,70.819,34.43c18.548,10.292,35.147,24.03,53.238,35.227c28.815,17.833,54.326,39.508,77.561,63.98
		c29.776,31.364,61.249,61.187,88.161,95.168c13.622,17.2,26.462,35.031,39.339,52.806c30.1,41.555,57.32,84.947,80.695,130.625
		c7.546,14.746,13.209,30.486,19.293,45.945c10.834,27.525,21.219,55.229,32.008,82.774c10.326,26.366,19.159,53.194,24.564,81.006
		c1.956,10.062,2.494,20.419,3.339,30.669c1.254,15.211,2.801,30.433,3.133,45.674c0.397,18.253-0.403,36.528-0.564,54.797
		c-0.031,3.6,0.694,7.203,0.718,10.808c0.216,32.262,6.19,64.182,4.977,96.585c-0.861,22.995-2.934,45.713-7.175,68.313
		c-2.325,12.385-3.745,24.938-5.606,37.411c-0.57,3.818,0.506,6.823,2.816,10.109c15.97,22.705,35.403,42.271,54.888,61.841
		c22.337,22.433,43.128,46.214,60.878,72.498c4.459,6.604,8.404,13.577,12.219,20.581c1.199,2.204,1.525,5.047,1.668,7.63
		c0.259,4.651-0.434,9.394,0.17,13.981c2.238,17.041-3.414,32.146-10.982,46.791c-4.887,9.458-9.405,19.219-15.354,27.986
		c-7.49,11.04-16.959,20.414-28.841,27.079c-3.047,1.709-5.694,4.252-8.225,6.721c-2.37,2.313-4.024,5.412-6.538,7.514
		c-18.181,15.189-33.2,33.451-49.329,50.618c-11.989,12.763-25.833,23.091-40.778,31.865c-7.057,4.144-15.094,6.705-22.84,9.568
		c-19.369,7.16-39.506,8.275-59.933,7.475c-8.722-0.342-16.959-2.468-22.824-8.559c-16.257-16.879-35.032-30.614-53.216-45.167
		c-11.129-8.906-20.89-19.522-30.217-28.375c-19.627,0-38.251,0.715-56.791-0.215c-16.393-0.821-31.78-6.689-46.857-13.026
		c-22.438-9.427-40.753-24.922-59.243-40.161c-3.563-2.938-7.03-5.993-10.654-9.089c-5.405,4.446-10.304,8.874-15.601,12.755
		c-12.273,8.992-26.799,13.169-40.778,18.461c-27.544,10.427-56.117,16.777-85.422,18.438c-32.206,1.827-64.521,2.49-96.553-3.131
		c-2.29-0.402-4.641-0.66-6.838-1.372c-21.807-7.074-43.868-13.487-65.294-21.581c-19.57-7.392-38.433-16.646-55.898-28.416
		c-1.091-0.734-2.335-1.24-3.986-2.104c-1.901,1.665-3.803,3.394-5.771,5.045c-6.354,5.332-12.735,10.63-19.098,15.951
		c-5.86,4.901-11.824,9.688-17.538,14.756c-9.95,8.827-19.382,18.274-29.681,26.664c-18.382,14.976-35.134,31.558-51.056,49.056
		c-17.685,19.436-35.834,38.462-53.063,58.29c-11.327,13.033-20.998,27.492-32.111,40.724
		c-13.036,15.52-26.833,30.399-40.395,45.664c4.429,8.759,9.15,17.778,13.582,26.936c6.304,13.023,9.948,26.766,10.157,41.294
		c0.521,36.173-0.263,33.179-22.913,55.838c-8.718,8.722-17.323,17.562-26.217,26.1c-3.565,3.423-7.644,6.362-11.71,9.203
		c-10.365,7.243-21.557,11.108-34.597,10.058c-12.86-1.037-25.78,0.564-38.534-3.743c-12.197-4.12-23.298-9.43-32.605-18.426
		c-3.289-3.181-7.138-5.784-10.724-8.646c-6.3,4.874-11.74,9.844-17.906,13.628c-5.577,3.425-11.767,7.308-18.002,7.958
		c-29.778,3.107-59.694,5.068-89.36-1.086c-4.989-1.034-10.216-3.409-14.121-6.633c-6.908-5.698-13.16-12.274-19.185-18.937
		c-9.146-10.113-11.929-22.582-12.811-35.888c-1.937-29.193,4.35-56.785,15.562-83.544c-6.535-7.034-12.923-13.791-19.177-20.669
		c-12.354-13.587-19.531-29.098-18.388-47.978c0.523-8.634,0.265-17.329,0.057-25.99c-0.721-30.029,10.615-55.025,31.454-76.115
		c3.279-3.319,6.711-6.496,9.873-9.921c5.255-5.691,12.277-7.79,19.35-9.678c16.558-4.42,33.479-5.066,50.49-4.39
		c1.95,0.077,4.063,0.346,5.782,1.181c10.354,5.025,20.615,10.242,31.971,15.928c5.337-7.558,10.943-15.74,16.806-23.735
		c6.288-8.577,12.783-17.005,19.25-25.451c30.742-40.156,61.426-80.356,92.299-120.411c13.402-17.389,26.882-34.736,40.898-51.628
		c35.033-42.216,69.979-84.52,105.784-126.078c20.643-23.96,43.969-45.403,67.944-66.095c14.096-12.164,28.131-24.482,41.259-37.66
		c26.567-26.668,54.113-52.236,82.91-76.444c5.139-4.32,8.289-9.24,10.22-15.416c3.77-12.05,7.314-24.194,11.684-36.029
		c8.735-23.67,24.442-42.134,42.885-59.134c19.183-17.684,41.805-27.456,66.598-31.516c20.57-3.369,41.736-3.79,62.176,3.063
		c3.144,1.054,6.383,1.834,9.601,2.65c0.563,0.144,1.239-0.162,2.528-0.366c-0.623-5.459-1.365-10.944-1.849-16.451
		c-0.752-8.596-2.294-17.262-1.797-25.799c1.384-23.807-6.516-45.08-16.049-66.145c-7.765-17.157-19.686-31.525-30.396-46.721
		c-5.172-7.337-10.01-14.923-15.464-22.039c-4.816-6.286-9.571-12.93-15.598-17.911c-13.823-11.43-28.507-21.809-42.65-32.86
		c-15.285-11.942-33.74-15.04-51.854-19.139c-35.831-8.107-71.898-7.222-108.086-2.901c-14.825,1.771-29.798,2.457-44.552,4.65
		c-22.649,3.368-45.164,7.644-67.745,11.476c-21.276,3.609-42.813,6.097-63.777,11.02c-19.168,4.502-38.322,4.2-57.564,3.761
		c-6.027-0.138-12.991-1.789-17.756-5.212c-8.042-5.776-17.017-8.969-25.877-12.526c-17.888-7.18-35.977-13.863-54.027-20.631
		c-32.764-12.284-66.592-20.647-100.736-28.092c-11.986-2.614-19.879-0.628-28.376,9.088
		c-22.578,25.813-48.736,48.007-74.519,70.648c-33.13,29.096-68.638,54.653-105.232,78.987
		c-13.559,9.016-26.059,19.604-39.357,29.028c-21.161,14.996-41.758,31.05-64.136,43.986c-21.743,12.568-41.122,28.194-61.863,41.99
		c-19.66,13.078-39.534,25.862-59.727,38.096c-7.588,4.597-16.321,7.309-24.555,10.829c-11.003,4.707-22.586,8.38-32.918,14.256
		c-18.492,10.516-37.959,17.563-58.874,20.854c-9.979,1.568-19.299,4.743-27.872,10.221c-10.363,6.622-22.246,9.529-34.118,10.133
		c-20.537,1.044-41.43,2.963-61.416-3.896c-12.208-4.189-24.012-9.609-35.848-14.815c-5.463-2.402-10.525-5.704-15.847-8.448
		c-17.074-8.806-31.057-21.76-45.037-34.49c-18.699-17.029-36.641-34.897-54.736-52.579c-5.461-5.338-10.362-11.251-15.504-16.913
		c-11.625-12.8-23.303-25.555-34.838-38.436c-6.429-7.18-13.319-14.092-18.755-21.982c-8.902-12.922-18.899-24.791-29.244-36.559
		c-8.267-9.401-15.607-20.053-21.268-31.21c-8.666-17.078-19.569-32.328-31.46-47.189c-9.75-12.186-18.187-25.418-27.236-38.167
		c-1.732-2.439-3.43-4.938-5.437-7.145c-9.542-10.491-17.241-21.949-19.909-36.223c-0.23-1.232-1.161-2.334-1.973-3.895
		c-4.003,1.523-8.41,2.207-11.561,4.568c-14.305,10.717-31.745,13.519-47.917,19.335c-21.249,7.644-43.12,13.551-64.444,21.002
		c-21.957,7.671-43.478,16.579-65.382,24.412c-14.385,5.146-29.354,8.697-43.618,14.126c-18.621,7.084-36.76,15.428-55.207,22.983
		c-4.882,1.999-10.184,2.95-15.208,4.635c-17.303,5.798-35.197,6.684-53.085,5.275c-13.45-1.058-26.839-4.428-36.202-15.125
		c-6.607-7.552-14.037-10.499-23.695-9.404c-3.62,0.41-7.38,0.447-10.974-0.063c-2.76-0.393-5.498-1.652-8.002-2.982
		c-5.224-2.774-10.158-6.11-15.442-8.751c-12.466-6.23-25.002-12.333-37.64-18.207c-8.432-3.918-16.87-8.029-25.684-10.877
		c-29.157-9.422-58.642-17.751-89.698-16.972c-27.949,0.701-55.534,3.022-82.158,13.37c-23.843,9.269-48.318,17.035-72.832,24.412
		c-22.633,6.811-41.209,20.018-58.919,34.723c-12.015,9.976-23.416,20.721-34.717,31.515c-3.51,3.353-6.25,7.748-8.549,12.086
		c-5.914,11.151-11.211,22.627-17.08,33.803c-5.148,9.802-9.298,19.608-9.26,31.115c0.046,13.701-3.156,26.952-7.665,39.953
		c-1.679,4.84-1.81,10.319-2.055,15.536c-0.795,16.924-1.332,33.861-1.93,50.796c-0.102,2.908-0.014,5.821-0.014,8.584
		c15.817,0,30.735,0.215,45.646-0.049c22.922-0.406,43.811,6.728,64.156,16.351c7.488,3.542,15.07,7.048,22.916,9.642
		c16.682,5.514,32.004,12.808,43.711,26.578c9.041,10.634,18.645,20.794,28.144,31.03c11.812,12.731,17.84,27.745,18.657,45.037
		c0.47,9.945,1.571,19.865,1.881,29.813c0.128,4.083,1.455,6.745,4.613,9.244c27.742,21.954,52.225,47.269,76.174,73.225
		c15.808,17.133,33.114,32.874,49.236,49.729c10.095,10.552,19.907,21.511,28.692,33.158
		c41.08,54.461,81.416,109.484,122.707,163.782c25.569,33.621,52.04,66.575,78.746,99.305c16.58,20.319,34.361,39.659,51.494,59.314
		c14.201-2.792,28.457-2.252,41.123-9.147c1.389-0.756,3.219-0.979,4.845-0.983c20.619-0.057,41.187-0.583,61.735,2.853
		c19.923,3.333,36.229,12.354,49.936,26.784c3.671,3.864,7.245,7.898,11.348,11.264c14.766,12.114,22.676,28.437,28.714,45.92
		c4.471,12.946,2.663,26.364,2.197,39.604c-0.107,3.05-2.201,6.273-4.029,8.979c-10.462,15.491-21.915,30.149-36.598,41.987
		c-1.505,1.214-2.648,2.875-3.362,3.666c4.52,13.605,9.23,26.367,12.895,39.422c1.765,6.291,1.953,13.125,2.159,19.734
		c0.332,10.653-0.618,21.383,0.234,31.979c1.875,23.327-5.894,42.25-23.449,57.604c-10.513,9.195-20.385,19.121-30.787,28.447
		c-4.227,3.788-9.131,6.563-15.29,6.295c-17.266-0.754-34.533-1.627-51.809-1.9c-17.284-0.273-31.071-8.826-44.738-17.811
		c-3.874-2.546-7.646-5.437-10.848-8.763c-3.11-3.228-6.325-3.993-10.637-3.656c-9.921,0.775-19.89,0.921-29.832,1.457
		c-15.229,0.821-30.501,1.262-45.665,2.766c-20.06,1.99-35.082-7.162-49.301-19.681c-16.15-14.219-23.444-31.757-22.443-53.063
		c0.25-5.321,0.393-10.691-0.025-15.991c-1.589-20.125,3.303-38.88,11.778-56.854c2.09-4.433-0.576-6.839-2.809-9.668
		c-13.662-17.304-30.133-31.75-46.446-46.433c-12.614-11.352-24.364-23.669-36.39-35.665c-5.181-5.169-9.896-10.811-15.152-15.896
		c-24.432-23.637-47.039-48.917-68.681-75.108c-15.886-19.225-32.105-38.174-48.156-57.263c-1.677-1.994-3.216-4.104-4.872-6.227
		c-6.998,4.041-12.615,7.537-18.454,10.612c-28.332,14.921-57.425,28.22-88.795,35.185c-16.462,3.655-33.475,4.789-50.206,7.276
		c-38.366,5.702-76.963,6.056-115.524,3.858c-30.178-1.719-60.032-6.876-89.484-13.671c-17.314-3.993-33.02-12.189-47.691-22.232
		C644.66,2339.986,642.779,2338.644,640.4,2336.979z"/>
</g>
</svg>
