<?xml version="1.0" encoding="utf-8"?>
<!-- Generator: Adobe Illustrator 16.0.2, SVG Export Plug-In . SVG Version: 6.00 Build 0)  -->
<!DOCTYPE svg PUBLIC "-//W3C//DTD SVG 1.1//EN" "http://www.w3.org/Graphics/SVG/1.1/DTD/svg11.dtd">
<svg version="1.1" id="Layer_1" xmlns="http://www.w3.org/2000/svg" xmlns:xlink="http://www.w3.org/1999/xlink" x="0px" y="0px"
	 width="3917.51px" height="4408.448px" viewBox="0 0 3917.51 4408.448" enable-background="new 0 0 3917.51 4408.448"
	 xml:space="preserve">
<g>
	<path fill-rule="evenodd" clip-rule="evenodd" fill="#FFFFFF" d="M4,4415.447C4,2944.965,4,1474.482,4,4
		c1306.503,0,2613.006,0,3919.509,0c0,1470.483,0,2940.965,0,4411.448C2617.006,4415.447,1310.503,4415.447,4,4415.447z
		 M1806.686,1999.583c-8.733,0-15.402,0.526-21.958-0.108c-14.197-1.374-26.091,3.88-37.146,11.861
		c-12.417,8.965-25.115,17.666-35.075,29.508c-6.304,7.495-14.159,11.066-23.713,13.113c-35.761,7.664-71.357,16.096-107.038,24.144
		c-3.093,0.698-6.345,0.699-9.325,1.003c-1.388-2.596-2.645-4.237-3.195-6.088c-9.569-32.201-26.033-61.191-42.494-90.101
		c-5.552-9.753-12.636-18.835-20.121-27.245c-19.039-21.395-38.7-42.236-58.11-63.302c-14.035-15.232-29.152-29.243-46.444-40.746
		c-16.057-10.679-32.311-21.063-48.275-31.877c-29.408-19.922-61.709-30.885-97.238-32.336c-1.074-0.043-2.095-1.401-3.407-2.338
		c-0.897-6.979-1.009-14.415-2.967-21.327c-2.155-7.609-5.218-15.207-9.257-21.993c-16.848-28.305-37.966-52.896-64.842-72.312
		c-9.088-6.566-17.83-13.616-27.782-21.253c2.807-24.078-3.692-47.364-7.767-70.919c-1.913-11.059-5.628-21.804-8.527-32.691
		c-13.688-15.526-27.4-30.629-48.959-35.866c-15.043-3.655-30.018-5.386-45.445-5.196c-13.251,0.162-26.398-0.336-39.741-2.175
		c-28.958-3.994-58.053-8.199-87.525-6.516c-37.764,2.157-73.117,12.882-106.759,29.679c-16.565,8.271-28.048,22.094-39.094,36.453
		c-5.556,7.224-8.44,14.896-8.242,23.969c0.814,37.283,1.399,74.571,2.309,111.852c0.372,15.286,1.349,30.558,2.079,46.422
		c-8.705,9.88-17.371,19.964-26.305,29.804c-17.018,18.743-34.462,37.113-47.92,58.764c-4.213,6.78-8.083,13.916-13.199,19.966
		c-18.999,22.471-34.212,47.547-50.317,71.999c-11.335,17.21-23.472,33.878-32.312,52.736
		c-22.897,48.85-43.895,98.336-59.604,150.097c-12.364,40.737-26.326,80.918-34.056,122.985
		c-10.111,55.026-22.347,109.715-21.419,166.146c0.065,3.982-0.597,7.972-0.776,11.964c-1.344,29.931-3.123,59.852-3.844,89.797
		c-0.771,31.981,1.044,63.915,4.583,95.719c2.427,21.813,4.829,43.641,7.871,65.375c3.874,27.665,9.586,55.122,12.371,82.883
		c5.859,58.404,22.072,113.471,49.355,165.339c11.16,21.215,22.586,42.29,33.853,63.45c19.467,36.563,41.945,71.064,69.792,101.884
		c19.201,21.249,38.347,42.55,57.698,63.662c37.916,41.367,79.32,78.969,124.934,111.613c27.022,19.339,55.201,37.1,83.299,54.877
		c19.668,12.443,39.847,24.132,60.209,35.416c37.36,20.705,77.661,34.714,117.101,50.71c13.342,5.411,26.629,7.605,40.826,7.094
		c29.28-1.055,58.578-1.609,87.866-2.45c14.629-0.42,29.25-1.169,43.882-1.499c19.864-0.447,39.17-1.295,57.574,10.638
		c13.197,8.557,29.264,7.574,43.292-1.91c6.136-4.149,12.251-7.248,20.177-7.352c35.951-0.464,71.894-1.446,107.838-2.364
		c25.956-0.662,51.904-1.856,77.862-2.191c29.958-0.387,59.925-0.09,90.213-0.09c37.37,32.613,77.445,28.353,119.396,6.645
		c10.93,7.146,23.676,5.989,36.288,6.194c12.734,0.206,24.994-1.575,37.479-4.521c20.582-4.856,40.933-11.851,62.732-10.176
		c6.972,0.535,12.387,2.33,17.918,6.897c24.452,20.198,52.22,30.315,84.582,29.546c42.006-0.999,49.945-2.896,77.599-31.634
		c7.788-8.094,16.002-10.286,26.561-10.325c44.621-0.167,89.24-0.944,133.86-1.502c1.998-0.024,3.997-0.115,5.996-0.115
		c45.971,0.007,91.945-0.362,137.909,0.183c27.408,0.325,54.643-1.462,81.669-5.287c9.429-1.335,18.252-1.088,27.588-0.354
		c18.557,1.458,37.605,3.831,55.774,1.184c21.28-3.103,40.952-0.839,60.824,5.673c6.948,2.277,14.007,4.545,21.194,5.696
		c15.158,2.43,30.828,4.22,45.515-0.587c27.771-9.089,56.249-16.533,82.069-30.894c1.739-0.966,3.605-1.728,5.465-2.449
		c29.173-11.326,57.559-24.316,84.963-39.473c13.967-7.724,28.232-14.908,42.307-22.441c4.688-2.509,9.2-5.343,13.791-8.031
		c14.93-8.747,29.416-18.406,44.928-25.958c12.646-6.155,24.588-13.173,36.298-20.826c18.386-12.017,36.55-24.463,55.612-35.317
		c12.256-6.979,23.559-14.938,34.402-23.772c19.607-15.973,38.856-32.422,59.017-47.664c17.074-12.909,33.251-26.859,47.739-42.37
		c29.072-31.124,57.249-63.104,85.155-95.287c8.662-9.989,16.182-21.26,22.587-32.849c10.938-19.788,20.685-40.239,30.738-60.508
		c10.079-20.321,18.03-41.45,24.498-63.223c7.577-25.505,16.253-50.68,23.992-76.139c8.187-26.926,9.752-54.957,13.289-82.688
		c6.326-49.612,10.837-99.292,10.048-149.366c-0.473-29.981,0.498-60.039-1.342-89.93c-2.33-37.843-6.332-75.611-10.628-113.296
		c-2.71-23.779-6.353-47.514-14.21-70.358c-7.799-22.673-12.85-46.065-18.264-69.408c-12.816-55.271-27.746-109.838-61.179-157.198
		c-13.359-18.924-20.646-41.965-38.927-57.596c-0.977-0.834-1.587-2.132-2.257-3.28c-11.378-19.544-23.268-38.813-33.968-58.723
		c-13.655-25.409-30.255-48.521-50.07-69.412c-16.962-17.883-33.597-36.083-50.895-53.634c-6.681-6.779-9.012-13.387-7.674-23.078
		c3.82-27.681,6.685-55.507,9.353-83.331c2.99-31.187,4.028-62.485,3.115-93.811c-0.309-10.597-1.938-21.157-2.254-31.755
		c-0.363-12.261-6.166-21.328-14.682-29.487c-19.618-18.799-42.884-31.315-68.33-39.987c-4.886-1.665-10.426-1.777-15.682-1.918
		c-11.3-0.301-22.58,0.32-33.662-3.206c-4.298-1.367-9.244-0.817-13.899-0.911c-10.748-0.216-21.099-2.06-31.26-5.788
		c-6.184-2.27-12.792-4.028-19.331-4.582c-38.66-3.273-77.348-5.027-113.03,14.292c-21.222,11.489-37.482,26.742-40.266,53.239
		c-1.794,17.089-7.26,33.771-10.625,50.725c-2.977,14.985-5.374,30.086-7.918,45.154c-0.873,5.17-1.415,10.396-2.098,15.514
		c-8.194,4.546-16.217,8.019-23.078,13.069c-7.451,5.483-14.189,12.084-20.597,18.81c-22.899,24.043-39.368,51.758-47.182,84.319
		c-4,16.668-8.32,33.26-12.537,50.045c-11.022,1.073-21.615,1.687-32.075,3.21c-19.861,2.893-38.341,10.422-57.288,16.736
		c-25.178,8.389-47.197,21.798-67.731,37.456c-30.255,23.07-56.856,49.745-78.043,82.076
		c-21.269,32.457-40.929,65.402-53.67,102.188c-0.809,2.333-2.581,4.332-4.016,6.665c-9.985,0-19.338,0.665-28.565-0.128
		c-25.187-2.166-50.324-4.899-75.471-7.514c-7.285-0.758-14.557-1.733-21.794-2.867c-7.723-1.21-15.825-0.62-23.817-3.878
		c-2.32-23.202-16.544-37.455-34.723-48.798c-1.69-1.055-3.317-2.229-4.882-3.465c-14.701-11.628-31.629-16.677-50.151-16.914
		c-8.604-0.11-17.212-0.02-23.997-0.02c-9.316-9.81-16.913-18.146-24.878-26.114c-10.816-10.819-22.46-20.86-32.731-32.159
		c-9.676-10.644-21.218-15.617-35.179-16.067c-3.329-0.107-6.672-0.304-9.992-0.138c-10.119,0.51-19.757-0.187-28.527-6.438
		c-3.02-2.152-7.48-2.502-11.369-3.173c-11.812-2.039-23.606-4.564-35.519-5.55c-17.909-1.482-35.984-2.461-53.717,1.615
		c-5.69,1.308-12.015,3.171-16.271,6.843c-19.971,17.231-36.458,36.936-41.118,64.191
		C1811.246,1985.24,1808.922,1991.513,1806.686,1999.583z M1938.62,403.781c-8.963-11.958-17.822-23.526-26.415-35.288
		c-27.866-38.142-57.653-74.593-90.653-108.519c-15.822-16.267-34.481-24.473-56.156-27.396
		c-18.457-2.488-36.924-5.258-55.481-6.515c-16.585-1.123-33.763-2.828-49.844,0.185c-22.917,4.293-46.164,4.644-69.095,8.896
		c-22.304,4.136-44.202,9.035-65.656,16.131c-12,3.968-23.866,8.356-35.704,12.793c-29.236,10.96-57.974,23.094-85.896,37.103
		c-11.29,5.664-22.272,12.064-33.91,16.886c-34.632,14.352-65.873,34.378-96.523,55.605c-22.364,15.489-45.228,30.254-67.825,45.407
		c-22.612,15.164-45.194,30.373-67.718,45.666c-2.728,1.853-5.038,4.331-7.505,6.56c-13.831,12.498-27.912,24.735-41.35,37.642
		c-5.678,5.453-10.678,11.91-14.754,18.655c-4.783,7.915-7.763,16.902-12.341,24.961c-9.679,17.033-10.969,35.488-9.345,54.218
		c1.205,13.883,3.66,27.696,6.29,41.399c1.105,5.76,3.887,11.251,6.282,16.7c4.012,9.126,8.662,17.985,12.427,27.207
		c4.547,11.137,9.561,21.848,16.914,31.543c8.073,10.646,13.668,22.54,17.654,35.531c7.07,23.042,18.187,44.053,34.019,62.665
		c20.685,24.318,41.945,48.361,60.301,74.395c26.783,37.987,59.302,70.025,94.345,99.959c9.167,7.831,18.885,14.64,29.826,19.805
		c4.12,1.946,8.039,4.678,11.427,7.741c7.903,7.145,15.49,14.644,23.097,22.109c39.958,39.214,81.863,76.208,125.404,111.411
		c62.258,50.334,129.166,93.782,198.157,134.065c51.16,29.87,104.368,55.824,158.7,79.472
		c48.306,21.026,98.29,37.415,148.785,51.914c50.488,14.499,101.679,26.34,153.713,34.587c40.14,6.363,80.34,11.618,120.843,14.53
		c28.551,2.052,57.13,4.137,85.732,4.959c30.579,0.878,61.149,4.12,91.82,0.79c8.372-0.909,17.242-1.802,24.819,4.638
		c2.179,1.853,6.32,1.931,9.556,1.908c13.987-0.097,28.035,0.2,41.943-1.005c25.842-2.239,51.607-5.388,77.396-8.228
		c22.492-2.477,45.137-4.076,67.422-7.805c34.105-5.708,67.963-12.908,101.924-19.488c38.848-7.526,75.232-22.514,111.275-38.042
		c26.315-11.338,44.144-29.887,40.784-61.646c-0.139-1.319-0.193-2.692,0.009-3.993c3.431-22.085-9.549-34.654-26.247-44.86
		c-4.5-2.749-9.516-4.713-14.427-6.71c-6.774-2.752-13.801-4.905-20.496-7.823c-18.965-8.268-38.551-14.621-58.552-19.809
		c-36.108-9.367-71.179-21.265-105.501-36.333c-70.829-31.097-133.663-74.226-193.507-122.395
		c-5.444-4.382-8.492-9.63-10.509-16.339c-8.806-29.297-18.08-58.455-27.337-87.614c-4.664-14.691-7.655-29.5-7.613-45.084
		c0.029-10.541-1.34-21.227-3.34-31.606c-8.385-43.53-30.319-79.5-64.446-107.241c-26.304-21.382-53.961-41.166-81.672-60.729
		c-20.061-14.163-40.928-27.25-61.961-39.943c-11.343-6.845-20.469-17.04-33.563-21.356c-3.088-1.018-5.563-5.467-7.25-8.868
		c-5.358-10.807-7.278-22.665-10.041-34.313c-6.138-25.876-14.381-51.323-19.236-77.417c-6.212-33.383-19.544-63.562-36.901-92.098
		c-11.248-18.49-27.173-32.004-47.668-40.772c-18.223-7.796-35.164-18.593-54.981-22.51c-13.03-9.389-27.897-11.916-43.522-11.834
		c-2.62,0.014-5.238-0.847-7.872-1.192c-8.517-1.116-17.015-2.536-25.569-3.157C1953.846,403.362,1946.522,403.781,1938.62,403.781z
		"/>
	<path fill-rule="evenodd" clip-rule="evenodd" d="M1806.686,1999.583c2.236-8.07,4.56-14.344,5.668-20.824
		c4.661-27.255,21.147-46.96,41.118-64.191c4.255-3.671,10.581-5.535,16.271-6.843c17.733-4.077,35.808-3.097,53.717-1.615
		c11.913,0.986,23.707,3.511,35.519,5.55c3.889,0.671,8.35,1.021,11.369,3.173c8.771,6.25,18.408,6.947,28.527,6.438
		c3.32-0.167,6.663,0.03,9.992,0.138c13.961,0.45,25.503,5.423,35.179,16.067c10.271,11.299,21.915,21.34,32.731,32.159
		c7.965,7.968,15.562,16.304,24.878,26.114c6.785,0,15.393-0.091,23.997,0.02c18.522,0.237,35.45,5.286,50.151,16.914
		c1.564,1.236,3.191,2.411,4.882,3.465c18.179,11.343,32.402,25.596,34.723,48.798c7.992,3.258,16.095,2.668,23.817,3.878
		c7.237,1.133,14.509,2.109,21.794,2.867c25.146,2.615,50.284,5.348,75.471,7.514c9.228,0.793,18.58,0.128,28.565,0.128
		c1.435-2.333,3.207-4.333,4.016-6.665c12.741-36.786,32.401-69.731,53.67-102.188c21.187-32.331,47.788-59.005,78.043-82.076
		c20.534-15.658,42.554-29.067,67.731-37.456c18.947-6.314,37.427-13.843,57.288-16.736c10.46-1.523,21.053-2.138,32.075-3.21
		c4.217-16.785,8.537-33.377,12.537-50.045c7.813-32.561,24.282-60.276,47.182-84.319c6.407-6.726,13.146-13.327,20.597-18.81
		c6.861-5.05,14.884-8.522,23.078-13.069c0.683-5.118,1.225-10.343,2.098-15.514c2.544-15.068,4.941-30.169,7.918-45.154
		c3.365-16.954,8.831-33.636,10.625-50.725c2.783-26.497,19.044-41.75,40.266-53.239c35.683-19.319,74.37-17.565,113.03-14.292
		c6.539,0.554,13.147,2.312,19.331,4.582c10.161,3.728,20.512,5.572,31.26,5.788c4.655,0.094,9.602-0.456,13.899,0.911
		c11.082,3.526,22.362,2.904,33.662,3.206c5.256,0.141,10.796,0.253,15.682,1.918c25.446,8.672,48.712,21.188,68.33,39.987
		c8.516,8.159,14.318,17.226,14.682,29.487c0.316,10.598,1.945,21.158,2.254,31.755c0.913,31.325-0.125,62.624-3.115,93.811
		c-2.668,27.824-5.532,55.649-9.353,83.331c-1.338,9.691,0.993,16.299,7.674,23.078c17.298,17.55,33.933,35.751,50.895,53.634
		c19.815,20.891,36.415,44.003,50.07,69.412c10.7,19.91,22.59,39.179,33.968,58.723c0.67,1.147,1.28,2.446,2.257,3.28
		c18.281,15.631,25.567,38.672,38.927,57.596c33.433,47.36,48.362,101.928,61.179,157.198c5.414,23.342,10.465,46.735,18.264,69.408
		c7.857,22.845,11.5,46.579,14.21,70.358c4.296,37.685,8.298,75.453,10.628,113.296c1.84,29.891,0.869,59.948,1.342,89.93
		c0.789,50.074-3.722,99.754-10.048,149.366c-3.537,27.73-5.103,55.762-13.289,82.688c-7.739,25.459-16.415,50.634-23.992,76.139
		c-6.468,21.772-14.419,42.901-24.498,63.223c-10.054,20.269-19.801,40.72-30.738,60.508c-6.405,11.589-13.925,22.859-22.587,32.849
		c-27.906,32.183-56.083,64.163-85.155,95.287c-14.488,15.511-30.665,29.461-47.739,42.37
		c-20.16,15.242-39.409,31.691-59.017,47.664c-10.844,8.834-22.146,16.794-34.402,23.772
		c-19.063,10.854-37.227,23.301-55.612,35.317c-11.71,7.653-23.651,14.671-36.298,20.826c-15.512,7.552-29.998,17.211-44.928,25.958
		c-4.591,2.688-9.104,5.522-13.791,8.031c-14.074,7.533-28.34,14.718-42.307,22.441c-27.404,15.156-55.79,28.146-84.963,39.473
		c-1.859,0.722-3.726,1.483-5.465,2.449c-25.82,14.36-54.299,21.805-82.069,30.894c-14.687,4.807-30.356,3.017-45.515,0.587
		c-7.188-1.151-14.246-3.419-21.194-5.696c-19.872-6.512-39.544-8.775-60.824-5.673c-18.169,2.647-37.218,0.274-55.774-1.184
		c-9.336-0.733-18.159-0.98-27.588,0.354c-27.026,3.825-54.261,5.612-81.669,5.287c-45.964-0.545-91.938-0.176-137.909-0.183
		c-1.999,0-3.998,0.091-5.996,0.115c-44.62,0.558-89.239,1.335-133.86,1.502c-10.559,0.039-18.772,2.231-26.561,10.325
		c-27.653,28.737-35.593,30.635-77.599,31.634c-32.362,0.77-60.13-9.348-84.582-29.546c-5.531-4.567-10.946-6.362-17.918-6.897
		c-21.8-1.675-42.151,5.319-62.732,10.176c-12.484,2.945-24.745,4.727-37.479,4.521c-12.612-0.205-25.358,0.952-36.288-6.194
		c-41.951,21.708-82.026,25.969-119.396-6.645c-30.288,0-60.255-0.297-90.213,0.09c-25.958,0.335-51.907,1.529-77.862,2.191
		c-35.944,0.918-71.887,1.9-107.838,2.364c-7.926,0.104-14.042,3.202-20.177,7.352c-14.027,9.484-30.095,10.467-43.292,1.91
		c-18.404-11.933-37.71-11.085-57.574-10.638c-14.632,0.33-29.253,1.079-43.882,1.499c-29.288,0.841-58.585,1.396-87.866,2.45
		c-14.197,0.512-27.484-1.683-40.826-7.094c-39.439-15.996-79.74-30.005-117.101-50.71c-20.362-11.284-40.541-22.973-60.209-35.416
		c-28.098-17.777-56.277-35.538-83.299-54.877c-45.614-32.645-87.018-70.246-124.934-111.613
		c-19.351-21.112-38.497-42.413-57.698-63.662c-27.847-30.819-50.325-65.32-69.792-101.884
		c-11.267-21.16-22.692-42.235-33.853-63.45c-27.283-51.868-43.496-106.935-49.355-165.339
		c-2.785-27.761-8.497-55.218-12.371-82.883c-3.042-21.734-5.444-43.562-7.871-65.375c-3.539-31.804-5.354-63.737-4.583-95.719
		c0.722-29.945,2.5-59.866,3.844-89.797c0.18-3.992,0.842-7.981,0.776-11.964c-0.928-56.432,11.308-111.12,21.419-166.146
		c7.729-42.066,21.692-82.248,34.056-122.985c15.71-51.76,36.707-101.247,59.604-150.097c8.84-18.858,20.976-35.526,32.312-52.736
		c16.104-24.452,31.318-49.528,50.317-71.999c5.116-6.051,8.985-13.187,13.199-19.966c13.458-21.65,30.902-40.021,47.92-58.764
		c8.935-9.84,17.6-19.924,26.305-29.804c-0.729-15.864-1.707-31.136-2.079-46.422c-0.909-37.281-1.494-74.569-2.309-111.852
		c-0.198-9.072,2.686-16.745,8.242-23.969c11.045-14.358,22.528-28.181,39.094-36.453c33.642-16.796,68.995-27.522,106.759-29.679
		c29.472-1.684,58.567,2.522,87.525,6.516c13.343,1.839,26.49,2.337,39.741,2.175c15.428-0.19,30.402,1.541,45.445,5.196
		c21.559,5.237,35.271,20.339,48.959,35.866c2.899,10.887,6.614,21.633,8.527,32.691c4.075,23.555,10.574,46.841,7.767,70.919
		c9.953,7.637,18.694,14.687,27.782,21.253c26.876,19.416,47.994,44.006,64.842,72.312c4.039,6.786,7.102,14.384,9.257,21.993
		c1.958,6.912,2.07,14.348,2.967,21.327c1.312,0.937,2.333,2.295,3.407,2.338c35.529,1.451,67.83,12.414,97.238,32.336
		c15.965,10.814,32.219,21.198,48.275,31.877c17.292,11.503,32.41,25.514,46.444,40.746c19.41,21.065,39.071,41.907,58.11,63.302
		c7.484,8.41,14.568,17.492,20.121,27.245c16.46,28.909,32.924,57.9,42.494,90.101c0.55,1.852,1.807,3.492,3.195,6.088
		c2.98-0.304,6.231-0.305,9.325-1.003c35.68-8.048,71.276-16.48,107.038-24.144c9.554-2.047,17.409-5.618,23.713-13.113
		c9.959-11.842,22.658-20.543,35.075-29.508c11.054-7.98,22.948-13.234,37.146-11.861
		C1791.284,2000.11,1797.953,1999.583,1806.686,1999.583z M1016.768,2385.938c-3.863,6.573-6.516,11.047-9.129,15.543
		c-10.373,17.842-20.708,35.727-35.374,50.541c-5.391,5.444-7.899,12.219-9.949,19.298c-4.853,16.76-12.062,32.44-22.09,46.712
		c-4.733,6.737-7.164,14.026-8.545,22.078c-3.034,17.688-7.104,35.204-9.915,52.923c-1.766,11.128-2.313,22.484-2.832,33.764
		c-0.336,7.295,0.767,14.65,0.524,21.956c-0.561,16.876,2.174,33.132,7.819,48.996c3.791,10.649,6.927,21.548,11.087,32.045
		c2.906,7.335,6.267,14.729,10.772,21.15c23.882,34.053,52.583,63.563,86.334,87.894c24.816,17.889,49.337,36.341,76.952,49.936
		c22.066,10.862,44.355,21.276,66.329,32.322c25.533,12.835,53.016,17.367,81.005,18.735c20.327,0.993,39.326,4.43,55.959,17.034
		c3.038,2.303,7.169,3.479,10.983,4.389c22.078,5.267,43.12,13.541,64.255,21.588c4.179,1.591,8.657,2.4,12.769,3.509
		c19.683-20.753,41.732-36.397,66.73-48.101c12.026-5.63,24.233-11.408,34.998-19.039c9.727-6.896,19.257-11.449,31.249-10.427
		c1.829,0.156,3.776-1.076,5.608-1.647c3.951-5.504,7.78-10.907,11.68-16.26c34.171-46.89,77.529-84.001,125.367-115.998
		c8.54-5.711,11.843-11.448,11.308-20.96c-0.648-11.506,2.523-21.813,7.741-32.415c25.001-50.801,64.092-89.509,105.868-126.023
		c25.16-21.992,53.167-40.009,82.681-55.41c45.066-23.518,91.666-42.103,143.718-43.495c34.243-0.916,67.398,1.667,100.186,13.164
		c43.765,15.347,76.823,43.894,106.398,78.143c15.452,17.893,11.402,38.527,10.982,58.89c-0.025,1.247-0.573,2.757-1.401,3.671
		c-8.85,9.775-16.624,21.367-32.71,18.784c-3.898-0.626-7.985-0.206-11.979-0.077c-2.259,0.073-5.417-1.221-5.602,1.648
		c4.562,5.054,8.096,10.034,12.643,13.791c10.166,8.401,13.681,19.201,13.321,31.834c-0.113,3.995-0.24,8.011,0.017,11.992
		c0.513,7.927-2.226,14.393-8.316,19.368c-7.134,5.828-14.396,11.501-21.088,16.833c56.768,44.32,113.691,87.951,159.11,140.342
		c13.659,2.845,25.039,3.971,35.521,7.655c22.532,7.919,44.716,16.874,66.828,25.93c25.384,10.394,45.296,26.843,56.063,53.948
		c21.688-5.724,43.729-10.991,64.205-20.486c16.731-7.76,34.39-14.385,47.62-28.407c3.085-3.271,7.712-5.162,11.775-7.423
		c33.098-18.423,66.001-37.211,99.41-55.052c41.826-22.337,81.651-47.531,117.838-78.296c5.576-4.741,11.223-9.438,17.16-13.703
		c22.173-15.926,36.355-38.505,50.83-60.81c2.119-3.266,3.158-7.34,4.216-11.173c6.017-21.801,12.258-43.551,17.63-65.512
		c2.194-8.971,3.043-18.405,3.365-27.668c0.533-15.309,0.008-30.651,0.17-45.978c0.316-29.975-8.688-57.726-19.993-84.938
		c-1.012-2.432-2.256-4.945-4.001-6.866c-11.851-13.035-18.979-28.842-26.541-44.418c-1.317-2.714-3.129-5.188-5.421-8.932
		c-3.576,4.175-6.36,6.962-8.608,10.13c-8.946,12.596-19.729,23.409-31.802,32.943c-3.623,2.86-7.44,5.94-11.69,7.464
		c-19.409,6.956-38.726,14.597-60.063,12.804c-5.294-0.445-10.668-0.293-15.986-0.03c-22.103,1.091-42.216-5.213-60.542-17.018
		c-11.731-7.557-23.992-14.979-33.738-24.737c-9.856-9.868-20.658-13.892-33.773-14.039c-33.377-0.376-66.252-5.171-99.22-9.986
		c-31.569-4.609-63.5-6.692-95.209-10.424c-22.428-2.64-44.844-5.123-66.785-11.357c-24.271-6.896-49.049-12.006-73.578-18.004
		c-20.017-4.895-40.178-9.319-59.949-15.073c-36.368-10.58-72.622-21.602-108.648-33.285c-10.572-3.43-19.116-2.829-27.992,3.702
		c-13.897,10.226-29.941,14.106-47.01,14.158c-13.329,0.041-26.665,0.303-39.982-0.074c-13.487-0.381-26.324-3.345-37.677-11.31
		c-5.987-4.199-12.493-7.657-18.468-11.87c-5.838-4.115-11.3-8.764-18.53-14.437c-4.305,5.073-7.777,10.01-12.083,14.063
		c-9.848,9.274-21.753,16.312-34.678,18.691c-30.364,5.593-59.931,3.479-84.905-17.803c-9.099-7.754-17.61-16.207-26.259-24.477
		c-2.831-2.706-5.25-5.843-7.972-8.91c-3.196,0.435-5.854,0.476-8.319,1.186c-11.499,3.312-22.906,6.938-34.415,10.214
		c-33.232,9.465-66.504,18.79-99.744,28.227c-10.225,2.902-20.39,6.006-30.593,8.983c-24.254,7.081-48.5,14.192-72.776,21.196
		c-29.387,8.479-58.81,16.604-89.621,18.449c-12.588,0.754-25.165,2.687-37.591,4.939c-32.134,5.825-64.405,10.012-97.109,10.412
		c-4.605,0.057-9.206,0.571-12.775,0.807c-12.226,12.951-23.271,25.461-35.249,37.003c-6.105,5.883-13.232,11.836-21.021,14.65
		c-37.833,13.669-76.22,18.624-114.987,3.055c-6.178-2.479-12.292-5.248-18.667-7.085c-15.122-4.354-27.747-12.937-39.228-23.148
		c-9.431-8.387-18.114-17.633-26.894-26.724C1029.25,2400.395,1024.16,2394.259,1016.768,2385.938z M1914.563,2639.218
		c7.113-3.216,11.464-5.8,16.168-7.205c23.568-7.044,47.18-14.107,72.064-14.601c14.63-0.288,29.27-0.082,43.903-0.291
		c16.791-0.241,32.916,2.955,49.029,7.588c21.206,6.097,41.08,15.025,60.649,24.969c4.04,2.054,8.046,6.426,14.249,3.918
		c-18.861-27.395-44.359-45.381-73.644-57.226c-21.623-8.747-44.559-11.954-68.444-7.028c-32.865,6.777-63.563,18.725-92.726,34.868
		C1929.197,2627.872,1920.771,2629.198,1914.563,2639.218z M1858.989,2674.628c-19.276,12.613-34.781,25.817-47.737,45.339
		c9.815-0.083,17.306-1.467,24.795-3.282c7.419-1.799,16.027,1.402,22.941-5.681
		C1858.989,2700.193,1858.989,2689.019,1858.989,2674.628z"/>
	<path fill-rule="evenodd" clip-rule="evenodd" d="M1938.62,403.781c7.902,0,15.227-0.419,22.482,0.108
		c8.555,0.621,17.053,2.041,25.569,3.157c2.634,0.346,5.252,1.206,7.872,1.192c15.625-0.082,30.492,2.445,43.522,11.834
		c19.817,3.917,36.759,14.714,54.981,22.51c20.495,8.769,36.42,22.283,47.668,40.772c17.357,28.536,30.689,58.714,36.901,92.098
		c4.855,26.094,13.099,51.541,19.236,77.417c2.763,11.647,4.683,23.506,10.041,34.313c1.687,3.401,4.162,7.851,7.25,8.868
		c13.095,4.316,22.221,14.512,33.563,21.356c21.033,12.694,41.9,25.78,61.961,39.943c27.711,19.564,55.368,39.348,81.672,60.729
		c34.127,27.741,56.062,63.711,64.446,107.241c2,10.379,3.369,21.065,3.34,31.606c-0.042,15.584,2.949,30.393,7.613,45.084
		c9.257,29.16,18.531,58.317,27.337,87.614c2.017,6.709,5.064,11.958,10.509,16.339c59.844,48.169,122.678,91.298,193.507,122.395
		c34.322,15.067,69.393,26.965,105.501,36.333c20.001,5.188,39.587,11.542,58.552,19.809c6.695,2.918,13.722,5.071,20.496,7.823
		c4.911,1.997,9.927,3.961,14.427,6.71c16.698,10.206,29.678,22.774,26.247,44.86c-0.202,1.301-0.147,2.674-0.009,3.993
		c3.359,31.759-14.469,50.308-40.784,61.646c-36.043,15.529-72.428,30.516-111.275,38.042
		c-33.961,6.58-67.818,13.779-101.924,19.488c-22.285,3.729-44.93,5.328-67.422,7.805c-25.788,2.839-51.554,5.988-77.396,8.228
		c-13.908,1.205-27.956,0.908-41.943,1.005c-3.235,0.022-7.377-0.056-9.556-1.908c-7.577-6.44-16.447-5.547-24.819-4.638
		c-30.671,3.331-61.241,0.089-91.82-0.79c-28.603-0.822-57.182-2.907-85.732-4.959c-40.503-2.912-80.703-8.167-120.843-14.53
		c-52.034-8.247-103.225-20.089-153.713-34.587c-50.496-14.499-100.479-30.888-148.785-51.914
		c-54.332-23.648-107.54-49.602-158.7-79.472c-68.991-40.283-135.899-83.731-198.157-134.065
		c-43.542-35.203-85.446-72.197-125.404-111.411c-7.606-7.466-15.193-14.965-23.097-22.109c-3.388-3.063-7.308-5.795-11.427-7.741
		c-10.941-5.165-20.659-11.974-29.826-19.805c-35.042-29.934-67.562-61.972-94.345-99.959
		c-18.356-26.034-39.616-50.077-60.301-74.395c-15.832-18.612-26.949-39.624-34.019-62.665
		c-3.986-12.991-9.581-24.884-17.654-35.531c-7.353-9.695-12.366-20.406-16.914-31.543c-3.765-9.222-8.415-18.081-12.427-27.207
		c-2.395-5.449-5.176-10.94-6.282-16.7c-2.63-13.704-5.085-27.516-6.29-41.399c-1.625-18.73-0.334-37.185,9.345-54.218
		c4.579-8.059,7.559-17.046,12.341-24.961c4.076-6.745,9.076-13.202,14.754-18.655c13.438-12.907,27.519-25.145,41.35-37.642
		c2.467-2.229,4.777-4.707,7.505-6.56c22.524-15.293,45.106-30.501,67.718-45.666c22.597-15.153,45.461-29.918,67.825-45.407
		c30.65-21.228,61.891-41.253,96.523-55.605c11.637-4.822,22.62-11.223,33.91-16.886c27.922-14.009,56.66-26.143,85.896-37.103
		c11.837-4.437,23.704-8.825,35.704-12.793c21.454-7.096,43.352-11.995,65.656-16.131c22.931-4.251,46.178-4.602,69.095-8.896
		c16.081-3.012,33.259-1.308,49.844-0.185c18.557,1.257,37.024,4.027,55.481,6.515c21.675,2.923,40.334,11.129,56.156,27.396
		c33,33.926,62.787,70.377,90.653,108.519C1920.798,380.255,1929.657,391.823,1938.62,403.781z"/>
	<path fill-rule="evenodd" clip-rule="evenodd" fill="#FFFFFF" d="M1016.768,2385.938c7.392,8.321,12.482,14.457,18.006,20.178
		c8.78,9.091,17.463,18.337,26.894,26.724c11.481,10.212,24.105,18.794,39.228,23.148c6.374,1.837,12.488,4.605,18.667,7.085
		c38.767,15.569,77.154,10.614,114.987-3.055c7.788-2.814,14.915-8.768,21.021-14.65c11.978-11.542,23.022-24.052,35.249-37.003
		c3.569-0.235,8.17-0.75,12.775-0.807c32.704-0.4,64.975-4.587,97.109-10.412c12.426-2.253,25.002-4.186,37.591-4.939
		c30.811-1.846,60.234-9.971,89.621-18.449c24.276-7.004,48.522-14.115,72.776-21.196c10.203-2.978,20.368-6.081,30.593-8.983
		c33.24-9.437,66.512-18.762,99.744-28.227c11.508-3.276,22.916-6.902,34.415-10.214c2.466-0.71,5.124-0.751,8.319-1.186
		c2.722,3.067,5.141,6.204,7.972,8.91c8.649,8.27,17.16,16.723,26.259,24.477c24.974,21.281,54.541,23.396,84.905,17.803
		c12.925-2.38,24.831-9.417,34.678-18.691c4.305-4.054,7.777-8.99,12.083-14.063c7.229,5.673,12.691,10.321,18.53,14.437
		c5.975,4.213,12.48,7.671,18.468,11.87c11.353,7.965,24.189,10.929,37.677,11.31c13.317,0.377,26.653,0.115,39.982,0.074
		c17.068-0.052,33.112-3.933,47.01-14.158c8.876-6.531,17.42-7.132,27.992-3.702c36.026,11.684,72.28,22.705,108.648,33.285
		c19.771,5.754,39.933,10.179,59.949,15.073c24.529,5.998,49.307,11.107,73.578,18.004c21.941,6.234,44.357,8.718,66.785,11.357
		c31.709,3.731,63.64,5.814,95.209,10.424c32.968,4.815,65.843,9.61,99.22,9.986c13.115,0.147,23.917,4.171,33.773,14.039
		c9.746,9.758,22.007,17.181,33.738,24.737c18.326,11.805,38.439,18.108,60.542,17.018c5.318-0.263,10.692-0.415,15.986,0.03
		c21.338,1.793,40.654-5.848,60.063-12.804c4.25-1.523,8.067-4.604,11.69-7.464c12.072-9.534,22.855-20.348,31.802-32.943
		c2.248-3.168,5.032-5.955,8.608-10.13c2.292,3.743,4.104,6.218,5.421,8.932c7.563,15.576,14.69,31.383,26.541,44.418
		c1.745,1.921,2.989,4.435,4.001,6.866c11.305,27.213,20.31,54.964,19.993,84.938c-0.162,15.326,0.363,30.669-0.17,45.978
		c-0.322,9.263-1.171,18.697-3.365,27.668c-5.372,21.961-11.613,43.711-17.63,65.512c-1.058,3.833-2.097,7.907-4.216,11.173
		c-14.475,22.305-28.657,44.884-50.83,60.81c-5.938,4.266-11.584,8.962-17.16,13.703c-36.187,30.765-76.012,55.959-117.838,78.296
		c-33.409,17.841-66.313,36.629-99.41,55.052c-4.063,2.261-8.69,4.152-11.775,7.423c-13.23,14.022-30.889,20.647-47.62,28.407
		c-20.476,9.495-42.518,14.763-64.205,20.486c-10.767-27.105-30.679-43.555-56.063-53.948c-22.112-9.056-44.296-18.011-66.828-25.93
		c-10.482-3.685-21.862-4.811-35.521-7.655c-45.419-52.391-102.343-96.021-159.11-140.342c6.692-5.332,13.954-11.005,21.088-16.833
		c6.091-4.976,8.829-11.441,8.316-19.368c-0.257-3.981-0.13-7.997-0.017-11.992c0.359-12.633-3.155-23.433-13.321-31.834
		c-4.547-3.757-8.081-8.737-12.643-13.791c0.185-2.869,3.343-1.575,5.602-1.648c3.993-0.129,8.08-0.549,11.979,0.077
		c16.086,2.583,23.86-9.009,32.71-18.784c0.828-0.914,1.376-2.424,1.401-3.671c0.42-20.362,4.47-40.997-10.982-58.89
		c-29.575-34.249-62.634-62.796-106.398-78.143c-32.787-11.497-65.942-14.08-100.186-13.164
		c-52.052,1.393-98.652,19.978-143.718,43.495c-29.514,15.401-57.521,33.418-82.681,55.41
		c-41.776,36.515-80.867,75.223-105.868,126.023c-5.218,10.602-8.39,20.909-7.741,32.415c0.536,9.512-2.768,15.249-11.308,20.96
		c-47.837,31.997-91.195,69.108-125.367,115.998c-3.9,5.353-7.729,10.756-11.68,16.26c-1.832,0.571-3.779,1.804-5.608,1.647
		c-11.992-1.022-21.522,3.53-31.249,10.427c-10.764,7.631-22.972,13.409-34.998,19.039c-24.998,11.703-47.047,27.348-66.73,48.101
		c-4.112-1.108-8.59-1.918-12.769-3.509c-21.136-8.047-42.177-16.321-64.255-21.588c-3.814-0.909-7.945-2.086-10.983-4.389
		c-16.633-12.604-35.632-16.041-55.959-17.034c-27.99-1.368-55.473-5.9-81.005-18.735c-21.973-11.046-44.262-21.46-66.329-32.322
		c-27.615-13.595-52.135-32.047-76.952-49.936c-33.751-24.33-62.452-53.841-86.334-87.894c-4.505-6.422-7.866-13.815-10.772-21.15
		c-4.161-10.497-7.297-21.396-11.087-32.045c-5.646-15.864-8.38-32.12-7.819-48.996c0.242-7.306-0.86-14.661-0.524-21.956
		c0.52-11.279,1.066-22.636,2.832-33.764c2.81-17.719,6.881-35.235,9.915-52.923c1.381-8.052,3.812-15.341,8.545-22.078
		c10.028-14.271,17.237-29.952,22.09-46.712c2.05-7.079,4.558-13.854,9.949-19.298c14.666-14.814,25-32.699,35.374-50.541
		C1010.252,2396.984,1012.905,2392.511,1016.768,2385.938z"/>
	<path fill-rule="evenodd" clip-rule="evenodd" fill="#FFFFFF" d="M1914.563,2639.218c6.208-10.02,14.634-11.346,21.25-15.008
		c29.162-16.144,59.86-28.091,92.726-34.868c23.886-4.926,46.821-1.719,68.444,7.028c29.284,11.845,54.782,29.831,73.644,57.226
		c-6.203,2.508-10.209-1.864-14.249-3.918c-19.569-9.943-39.443-18.872-60.649-24.969c-16.113-4.633-32.238-7.829-49.029-7.588
		c-14.634,0.209-29.273,0.003-43.903,0.291c-24.884,0.493-48.496,7.557-72.064,14.601
		C1926.027,2633.418,1921.676,2636.002,1914.563,2639.218z"/>
	<path fill-rule="evenodd" clip-rule="evenodd" fill="#FFFFFF" d="M1858.989,2674.628c0,14.391,0,25.565,0,36.376
		c-6.914,7.083-15.522,3.882-22.941,5.681c-7.489,1.815-14.98,3.199-24.795,3.282
		C1824.208,2700.445,1839.713,2687.241,1858.989,2674.628z"/>
</g>
</svg>
