<?xml version="1.0" encoding="utf-8"?>
<!-- Generator: Adobe Illustrator 16.0.2, SVG Export Plug-In . SVG Version: 6.00 Build 0)  -->
<!DOCTYPE svg PUBLIC "-//W3C//DTD SVG 1.1 Tiny//EN" "http://www.w3.org/Graphics/SVG/1.1/DTD/svg11-tiny.dtd">
<svg version="1.1" baseProfile="tiny" id="Layer_1" xmlns="http://www.w3.org/2000/svg" xmlns:xlink="http://www.w3.org/1999/xlink"
	 x="0px" y="0px" width="3798.525px" height="3503.562px" viewBox="0 0 3798.525 3503.562" xml:space="preserve">
<g>
	<path fill-rule="evenodd" fill="#FFFFFF" d="M3801.411,3507.447c-1266.546,0-2532.978,0-3799.299,0
		c0-1168.558,0-2337.002,0-3505.335c1266.546,0,2532.979,0,3799.299,0C3801.411,1170.671,3801.411,2339.115,3801.411,3507.447z
		 M753.942,2877.169c-8.33-16.123-15.779-32.09-24.633-47.236c-8.883-15.197-20.034-28.579-33.376-40.561
		c-15.551-13.963-28.625-30.647-43.778-45.101c-20.311-19.372-42.473-36.472-70.075-44.416
		c-22.966-6.608-44.394-17.952-68.384-21.444c-16.443-2.395-32.684-7.755-49.125-8.261c-33.251-1.024-66.579,0.339-99.874,0.768
		c-1.981,0.025-3.999,0.324-5.927,0.797c-30.015,7.364-60.052,14.641-89.994,22.293c-6.054,1.547-11.833,4.345-17.571,6.936
		c-24.271,10.957-45.266,26.278-63.503,45.842c-19.991,21.442-40.03,42.725-53.693,68.999c-3.807,7.319-7.044,14.943-10.372,22.502
		c-4.152,9.431-7.002,19.644-12.412,28.266c-11.281,17.978-18.686,37.446-24.27,57.609c-3.254,11.753-5.366,23.985-6.461,36.14
		c-3.054,33.93,0.635,67.749,3.25,101.533c3.102,40.076,16.115,77.23,34.636,112.645c8.778,16.787,17.4,33.656,26.035,50.519
		c11.946,23.329,22.361,47.56,41.567,66.401c12.093,11.863,23.073,24.96,37.957,33.622c14.765,8.594,30.52,14.771,47.18,18.59
		c38.882,8.914,77.796,17.392,117.456,22.558c28.578,3.722,57.161,4.573,85.676,2.984c34.548-1.926,68.468-8.933,101.783-18.455
		c15.628-4.467,29.386-12.073,40.839-23.873c13.462-13.87,27.617-27.079,40.819-41.185c6.508-6.954,11.834-15.089,17.187-23.032
		c8.708-12.925,16.831-25.971,29.038-36.414c16.517-14.131,30.487-30.693,37.265-52.114c0.791-2.5,2.161-4.851,3.491-7.138
		c17.328-29.809,26.586-62.066,29.649-96.286c0.582-6.513,0.668-13.752,3.675-19.159c2.635-4.737,3.612-8.958,3.573-13.928
		c-0.027-3.556-0.005-7.111-0.005-11.242c6.131,1.906,11.128,3.625,16.216,5.013c20.295,5.54,41.094,4.064,61.591,2.783
		c9.174-0.574,19.22-4.437,26.802-9.755c17.33-12.154,32.314-26.867,34.752-49.817c0.49-4.615,1.07-9.234,1.238-13.864
		c0.215-5.901,0.053-11.814,0.053-19.243c12.287,6.174,23.941,8.713,36.52,8.434c19.293-0.428,38.81,1.547,56.311-11.811
		c2.007,7.481,3.628,13.474,5.221,19.473c6.182,23.289,14.77,45.53,28.683,65.421c15.098,21.585,34.784,34.395,62.201,32.747
		c15.598-0.937,31.269-0.919,46.816-2.323c15.775-1.427,31.065-4.854,41.249-18.953c0.738-1.022,1.999-1.669,2.914-2.406
		c6.958,1.919,13.563,4.117,20.333,5.536c18.455,3.867,37.113,2.174,55.708,1.393c12.964-0.544,26.057-0.985,35.476-12.603
		c5.233,3.802,9.514,7.554,14.373,10.276c6.016,3.37,12.288,7.538,18.844,8.417c12.461,1.668,25.202,1.563,37.828,1.603
		c12.947,0.041,23.894-4.707,32.303-14.996c3.358-4.107,7.606-7.474,11.217-11.393c7.914-8.588,16.121-17.328,19.234-28.79
		c5.123-18.86,11.796-37.585,9.989-57.666c-0.443-4.931,1.588-8.175,5.507-10.822c7.722-5.215,15.178-10.835,23.007-15.88
		c24.829-16,46.075-36.095,65.622-57.971c14.923-16.702,24.955-36.827,36.972-55.573c21.856-34.096,30.634-72.202,32.46-111.616
		c1.552-33.499-0.847-67.18-1.395-100.781c-0.177-10.864-0.027-21.732-0.027-32.089c-0.307-0.188,0.5,0.023,0.757,0.521
		c0.593,1.146,1.023,2.405,1.341,3.664c11.418,45.14,19.418,90.802,22.605,137.34c1.38,20.157,4.94,40.155,7.099,60.269
		c3.645,33.976,6.661,68.02,10.504,101.97c3.932,34.729,4.442,69.613,5.43,104.465c0.732,25.786,0.226,25.72,18.79,43.904
		c3.378,3.311,6.772,4.667,11.436,4.56c11.619-0.269,23.249-0.089,35.335-0.089c-0.269,2.065-0.309,3.339-0.609,4.548
		c-4.822,19.383-2.568,39.085-2.427,58.662c0.038,5.182,1.606,10.532,3.359,15.492c10.92,30.896,29.778,56.231,55.014,76.894
		c3.561,2.915,7.613,5.736,11.914,7.157c24.209,7.995,48.44,15.974,72.917,23.085c13.369,3.885,27.564,5.028,40.799,9.253
		c15.151,4.837,29.696,11.609,44.402,17.785c3.94,1.655,7.633,4.013,11.226,6.372c12.803,8.403,25.731,16.642,38.197,25.527
		c12.427,8.856,24.563,18.156,36.447,27.733c13.683,11.026,28.25,20.154,46.198,21.367c17.906,1.21,35.882,1.969,53.821,1.853
		c8.501-0.056,17.787-0.896,25.306-4.405c13.99-6.53,28.987-12.058,39.456-24.482c2.369-2.812,5.119-3.361,8.826-3.096
		c10.933,0.782,21.936,1.602,32.864,1.188c14.386-0.545,28.581-2.961,40.274-12.421c11.661-9.432,23.225-19.044,28.268-34.046
		c0.506-1.504,1.626-2.801,3.156-5.355c12.597,0,25.556-0.332,38.49,0.093c13.376,0.438,24.719-3.922,34.798-12.439
		c13.007-10.991,24.443-23.196,25.386-41.232c0.831-15.921,0.926-31.957-0.071-47.854c-0.312-4.974-4.678-10.111-8.173-14.365
		c-4.633-5.638-10.493-10.25-15.357-15.721c-8.175-9.191-18.209-15.362-29.49-19.905c-6.152-2.479-12.256-5.18-18.098-8.31
		c-12.003-6.431-23.625-13.59-35.76-19.75c-11.836-6.01-23.977-11.121-37.408-13.285c-18.345-2.953-36.652-6.57-53.88-14.066
		c-10.963-4.771-21.73-10.121-32.999-14.017c-9.645-3.335-14.874-9.877-17.165-18.997c-3.803-15.137-6.997-30.427-10.426-45.657
		c-1.011-4.486-0.466-8.359,3.499-11.543c6.438-5.169,8.549-12.179,8.493-20.338c-0.187-27.328-0.027-54.659-0.11-81.988
		c-0.016-5.32,0.074-10.75-0.903-15.938c-6.463-34.309-3.243-68.868-2.951-103.343c0.188-21.954,0.943-43.904,1.16-65.859
		c0.207-20.893-0.462-41.805,0.168-62.682c0.84-27.892,2.563-55.756,3.902-83.632c0.335-6.979,0.524-13.966,0.993-20.935
		c1.158-17.222,2.615-34.425,3.597-51.655c0.492-8.638,0.109-17.321,0.299-25.981c0.248-11.286,2.117-22.754,0.688-33.809
		c-2.202-17.039-0.547-33.485,5.701-48.945c8.33-20.61,19.021-40.257,27.74-60.725c4.269-10.02,10.386-16.848,20.045-21.897
		c20.239-10.585,35.873-27.428,53.388-41.666c14.167-11.517,27.289-24.379,40.351-37.18c10.444-10.237,20.516-20.924,30.005-32.05
		c13.81-16.191,26.813-32.968,36.592-52.13c11.032-21.622,22.588-43.001,34.613-64.088c16.194-28.398,26.968-58.417,30.097-91.079
		c0.226-2.359,1.514-5.072,3.18-6.76c7.008-7.101,14.535-13.689,21.532-20.801c23.076-23.458,41.72-49.962,55.005-80.193
		c8.429-19.183,17.196-38.22,26.068-57.202c2.918-6.243,7.727-11.772,9.73-18.23c2.945-9.491,5.562-18.807,10.226-27.835
		c4.464-8.643,5.793-18.9,8.56-28.43c0.434-1.491,1.189-2.889,1.606-3.879c18.85,5.339,37.056,10.397,55.176,15.746
		c2.376,0.701,4.813,2.491,6.373,4.451c14.919,18.72,29.903,37.396,44.39,56.45c29.617,38.954,61.111,76.287,95.141,111.457
		c3.209,3.316,5.167,6.552,4.972,11.341c-0.113,2.788,0.45,6.093,1.931,8.371c6.626,10.199,5.697,18.367-3.462,26.366
		c-13.824,12.072-26.178,25.88-27.412,44.772c-1.327,20.285-4.168,41.445,8.597,60.019c1.068,1.554,1.5,3.547,2.536,6.096
		c-11.937,3.165-18.534,12.768-26.998,20.1c-10.311,8.932-17.385,19.952-22.872,32.129c-2.57,5.701-4.58,11.683-6.476,17.655
		c-4.73,14.9-4.064,30.38-2.955,45.537c0.938,12.816,4.31,25.787,12.788,35.986c8.279,9.961,17.763,18.935,26.904,28.158
		c5.812,5.863,13.259,9.472,21.298,9.563c19.957,0.229,39.939-0.181,59.885-0.996c7.739-0.316,15.406-2.416,23.826-3.824
		c3.582,11.336,7.124,22.724,10.789,34.073c1.725,5.339,3.182,10.848,5.634,15.853c6.515,13.293,17.311,23.435,26.781,34.474
		c19.469,22.694,44.545,37.599,71.879,48.619c16.919,6.82,34.311,12.17,53.2,11.109c9.997-0.562,19.646-2.635,29.416-3.732
		c13.124-1.476,26.323-1.553,39.52-3.974c9.631-1.767,19.806-0.592,29.681-7.59c0,6.896-0.175,11.83,0.055,16.745
		c0.186,3.956,0.056,8.206,1.468,11.771c4.253,10.733,8.422,21.627,14.037,31.667c9.043,16.167,22.935,28.145,36.908,40.064
		c16.846,14.366,35.652,22.543,57.992,21.981c2.575-0.064,5.165,0.417,7.718,0.643c2.635,18.876,4.604,37.324,7.893,55.536
		c5.118,28.34,7.506,57.104,16.439,84.891c4.803,14.943,11.132,28.364,20.576,40.463c11.56,14.806,25.555,27.029,44.996,28.73
		c16.462,1.44,33.266,2.325,49.476-3.309c3.698-1.285,7.685-1.812,11.575-2.464c11.358-1.907,22.736-3.696,34.104-5.547
		c1.314-0.215,2.651-0.406,3.911-0.813c12.915-4.163,25.855-8.251,38.712-12.592c15.251-5.149,29.159-12.925,41.24-23.496
		c4.018-3.516,7.968-5.551,13.067-5.99c3.968-0.343,8.112-0.242,11.837-1.417c5.27-1.661,10.758-3.573,15.175-6.739
		c5.078-3.64,9.644-8.342,13.452-13.33c8.145-10.67,14.41-22.418,15.212-36.187c0.444-7.639,0.02-15.326,0.073-22.991
		c0.115-16.566-6.074-30.318-18.242-41.491c-2.943-2.703-5.684-5.628-8.499-8.468c-9.02-9.102-18.555-17.241-32.278-17.906
		c-0.848-0.042-1.653-0.956-2.314-1.364c-5.539-28.509-9.657-57.028-18.553-84.625c-5.082-15.769-11.261-30.085-23.913-41.526
		c-7.84-7.088-14.973-14.188-26.382-14.031c-3.618,0.05-5.562-1.82-5.724-5.445c-0.784-17.584-1.555-35.17-2.333-52.823
		c15.712-6.613,26.125-18.939,37.258-30.338c11.382-11.651,17.227-26.047,18.624-42.023c1.156-13.229,1.362-26.55,1.654-39.836
		c0.22-10.001-2.728-19.044-9.775-26.445c-3.674-3.859-7.125-8.01-11.213-11.376c-5.352-4.407-7.257-9.536-7.13-16.473
		c0.182-9.936-0.758-19.901-1.447-29.837c-0.423-6.083-2.373-11.589-6.664-16.257c-1.688-1.838-3.239-4.474-3.456-6.871
		c-0.741-8.186-5.088-14.282-10.472-19.844c-13.662-14.115-27.07-28.505-41.289-42.041c-7.281-6.931-13.417-14.518-19.525-22.413
		c-21.601-27.918-40.593-57.434-57.025-88.658c-2.021-3.843-2.684-7.352-1.774-11.408c1.306-5.833,3.563-11.671,3.627-17.527
		c0.271-24.608,1.508-49.296-2.024-73.775c-0.939-6.508-3.122-12.958-5.583-19.094c-2.663-6.643-8.373-11.969-8.111-19.962
		c0.053-1.614-1.843-3.473-3.165-4.922c-9.05-9.913-19.053-17.893-32.371-22.221c-21.344-6.935-18.079-5.175-20.576-23.849
		c-0.045-0.329-0.126-0.654-0.189-0.981c-7.042-36.401-18.938-71.271-32.792-105.579c-5.33-13.198-12.015-25.78-15.119-40.008
		c-8.798-40.319-19.567-80.1-39.44-116.701c-5.551-10.219-10.875-20.758-17.873-29.955c-18.682-24.558-31.884-52.17-46.164-79.22
		c-8.88-16.82-18.613-33.21-31.961-46.873c-20.072-20.545-36.465-43.791-52.479-67.474c-13.755-20.342-27.791-40.579-43.021-59.819
		c-21.451-27.097-43.717-53.58-66.388-79.672c-20.057-23.085-40.779-45.623-61.891-67.75
		c-16.542-17.339-33.631-34.233-51.387-50.321c-18.941-17.165-38.643-33.535-58.578-49.548c-21.278-17.09-44.774-30.97-68.929-43.54
		c-23.813-12.394-47.822-24.521-72.339-35.432c-21.475-9.559-44.319-15.668-66.146-24.651
		c-60.717-24.989-123.97-41.887-188.073-55.657c-8.759-1.882-17.675-3.939-26.562-4.161c-24.278-0.604-48.58-0.27-72.872-0.306
		c-3.477-0.005-6.953,0-11.396,0c1.995-6.188,3.784-10.815,4.96-15.593c1.975-8.016,4.392-16.053,5.115-24.216
		c1.201-13.548,1.845-27.215,1.577-40.811c-0.487-24.643-2.992-49.006-12.843-72.109c-2.562-6.008-3.901-12.676-4.899-19.181
		c-1.894-12.353-3.136-24.804-4.738-37.954c4.074-5.807,10.033-12.052,13.3-19.482c4.899-11.142,7.85-23.136,11.737-34.731
		c6.707-20.002,6.577-40.74,5.28-61.281c-1.004-15.921-5.009-31.554-15.304-44.582c-4.932-6.243-10.541-11.96-15.348-18.29
		c-17.964-23.659-41.83-39.479-68.43-51.535c-3.885-1.76-5.322-4.134-6.903-7.591c-4.677-10.212-9.825-20.21-14.837-30.269
		c-1.335-2.677-2.61-5.429-4.31-7.871c-7.93-11.401-15.244-23.349-24.222-33.871c-9.703-11.375-20.764-21.641-31.677-31.92
		c-11.586-10.913-22.776-22.348-37.881-28.869c-10.329-4.458-20.185-10.006-30.259-15.054
		c-21.254-10.648-43.763-17.936-67.167-21.081c-17.384-2.334-35.185-1.42-52.774-2.405c-28.137-1.575-52.836,8.546-76.342,22.311
		c-11.692,6.847-23.076,14.366-33.905,22.505c-16.166,12.151-32.227,24.544-47.368,37.924
		c-11.909,10.522-22.615,22.462-33.31,34.266c-3.286,3.626-6.554,4.467-11.013,5.237c-11.743,2.027-24.141,3.222-34.78,8.051
		c-21.156,9.6-40.855,21.98-56.602,39.74c-14.286,16.112-26.188,33.427-30.218,55.103c-3.437,18.489-3.38,36.99-0.033,55.486
		c1.268,7.004,0.63,14.764,9.19,19.701c-22.165,19.963-38.151,43.628-52.896,68.098c-14.943,24.796-24.596,52.066-33.212,77.281
		c-11.244,3.392-20.612,5.574-29.474,9.046c-12.67,4.966-22.609,13.888-30.808,24.616c-3.397,4.446-6.719,6.104-12.622,4.58
		c-9.285-2.398-18.877-4.523-28.408-4.876c-31.922-1.184-63.871-1.71-95.814-2.139c-22.993-0.309-45.997-0.313-68.989,0.027
		c-15.948,0.236-31.911,0.916-47.821,2.052c-42.953,3.067-84.893,12.018-126.382,23.073c-29.533,7.869-58.795,16.75-88.265,24.861
		c-44.091,12.135-87.063,27.187-126.162,51.286c-28.314,17.45-55.849,36.178-83.526,54.645c-9.66,6.444-19.309,13.137-27.919,20.878
		c-26.004,23.382-50.241,48.514-72.852,75.25c-13.377,15.818-25.98,32.047-35.342,50.603
		c-19.173,38.002-38.763,75.802-57.33,114.098c-10.658,21.984-23.045,43.605-23.945,69.091c-0.057,1.602-0.893,3.198-1.475,4.756
		c-12.555,33.633-22.783,68.163-38.881,100.433c-4.453,8.927-8.933,17.89-12.586,27.156c-11.947,30.294-24.598,60.375-34.958,91.214
		c-12.583,37.454-22.858,75.678-34.642,113.41c-5.448,17.446-11.488,34.655-12.975,53.049
		c-3.428,42.434-10.604,84.338-19.52,125.879c-8.536,39.776-13.35,79.913-14.32,120.456c-0.963,40.266-0.602,80.562-0.85,120.845
		c-0.018,2.989-0.359,5.977-0.394,8.967c-0.282,25.295-0.822,50.591-0.644,75.883c0.074,10.572,1.589,21.145,2.646,31.696
		c2.017,20.136,9.062,39.436,9.841,59.84c0.164,4.287-0.01,7.762-2.489,11.137c-3.702,5.04-4.828,10.835-4.958,16.946
		c-0.078,3.648,0.255,7.461-0.666,10.914c-4.953,18.576-4.951,37.497-4.701,56.488c0.133,10.027,1.464,19.658,4.658,29.295
		c2.789,8.412,3.775,17.436,5.385,26.221c1.847,10.075,2.007,20.755,5.585,30.148c5.681,14.912,14.301,28.401,26.244,39.581
		c4.806,4.499,8.325,10.371,12.43,15.617c1.502,1.395,0.511,4.53-0.28,7.716c-2.883,11.585-6.417,23.065-8.396,34.807
		c-4.655,27.588-5.652,55.442-5.835,83.433c-0.159,24.144,2.161,47.766,8.466,70.978c5.389,19.842,13.955,38.16,28.562,53.052
		c14.44,14.722,29.145,29.185,43.714,43.781c20.689,20.726,45.059,32.335,74.952,31.356c16.646-0.544,33.326-0.02,49.99-0.145
		c4.521-0.033,8.301,0.68,11.632,4.272c9.09,9.803,19.548,17.92,30.926,25.034c6.366,3.981,12.311,7.53,20.25,6.904
		c4.219-0.333,8.646,0.526,12.832,1.487c13.818,3.173,27.821,2.347,41.78,2.199c2.874-0.03,6.104-0.832,8.538-2.316
		c15.318-9.345,31.111-18.133,42.829-32.262c8.595-10.364,19.03-19.734,18.838-34.889c-0.038-2.931,0.425-5.868,0.794-10.539
		c13.829,10.89,29.474,15.261,44.525,21.195c27.562,10.868,55.25,10.063,83.248,3.394c8.756-2.086,16.705-6.026,22.901-13.267
		c5.616-6.563,11.892-12.634,18.364-18.372c5.112-4.533,7.521-10.065,8.26-16.489c2.699-23.452,5.41-46.912,4.097-70.6
		c-0.808-14.562-4.077-28.409-13.675-39.822c-8.333-9.908-17.295-19.286-25.938-28.936c-1.574-1.759-2.942-3.701-5.48-6.923
		c6.235,0,10.537-0.168,14.822,0.031c15.434,0.714,30.463-1.842,45.464-5.071c5.45-1.173,9.853-3.578,13.697-7.545
		c6.958-7.18,14.077-14.202,21.225-21.191c1.432-1.4,3.294-2.359,5.934-4.205c-0.64,10.385-1.329,19.285-1.713,28.198
		c-1.277,29.553-3.364,59.108-3.402,88.665c-0.038,30.552,1.699,61.12,3.221,91.654c0.435,8.725-1.113,14.379-9.495,19.329
		c-11.428,6.748-20.692,16.535-27.127,28.621c-6.397,12.016-13.085,23.88-19.794,35.727c-9.008,15.905-14.265,33.029-14.899,51.187
		c-0.824,23.626-1.098,47.3-0.6,70.933c0.236,11.188,2.263,22.438,4.485,33.456c2.479,12.289,6.104,24.348,9.365,37.029
		c-12.202,0-23.786-0.074-35.369,0.018c-17.353,0.138-32.701,5.192-44.759,18.368c-3.596,3.929-7.51,7.57-11.286,11.336
		c-8.855,8.833-15.815,18.749-18.352,31.315c-0.424,2.1-1.628,4.042-2.897,7.071c-8.132-8.301-17.699-8.566-27.534-8.168
		c-6.654,0.27-13.33,0.075-19.996,0.046c-20.786-0.089-39.22,6.205-54.822,20.176C763.67,2868.289,758.79,2872.77,753.942,2877.169z
		 M2669.18,2826.65c-15.163,8.653-28.467,15.875-41.39,23.723c-13.735,8.34-24.563,20.164-36.08,31.191
		c-21.454,20.538-37.427,44.611-48.512,72.067c-1.235,3.06-2.862,5.973-4.447,8.876c-3.629,6.649-8.046,12.969-10.862,19.939
		c-4.465,11.052-7.602,22.633-11.805,33.801c-7.528,20.009-12.063,40.531-12.198,61.975c-0.096,15.316-0.931,30.654-0.356,45.941
		c0.521,13.895,1.355,27.96,4.049,41.554c8.135,41.053,26.003,77.729,52.33,110.284c4.793,5.929,9.249,12.133,14.091,18.02
		c11.395,13.851,22.119,28.372,34.586,41.193c20.641,21.227,43.034,40.585,70.33,53.131c10.485,4.818,21.096,9.533,32.015,13.209
		c19.903,6.699,40.552,9.056,61.526,10.534c20.419,1.438,40.613,0.242,60.687-2.077c19.758-2.284,39.263-6.788,58.864-10.395
		c28.466-5.236,54.657-16.393,78.205-32.875c27.171-19.017,49.764-42.854,68.599-70.254c12.844-18.683,21.113-39.557,29.909-60.21
		c12.819-30.104,22.167-61.17,22.779-94.097c0.396-21.244-0.142-42.586-1.817-63.763c-1.351-17.077-4.73-34.046-10.917-50.224
		c-4.479-11.712-8.837-23.482-13.753-35.013c-9.213-21.605-24.509-39.359-38.443-57.791c-15.211-20.12-31.676-39.248-50.414-56.479
		c-25.76-23.689-54.103-42.665-87.32-53.952c-3.434-1.167-5.737-2.6-7.185-6.013c-5.359-12.628-13.05-23.779-22.706-33.467
		c-11.655-11.69-21.72-25.241-37.24-32.367c-0.484-5.169,1.628-8.742,4.883-12.526c11.66-13.563,23.093-27.345,34.045-41.481
		c5.139-6.632,7.604-14.632,7.385-23.316c-0.219-8.66-0.014-17.33-0.052-25.994c-0.11-25.551-6.068-48.691-26.974-65.744
		c-2.569-2.097-4.569-4.889-7.132-6.993c-7.441-6.113-15.006-11.958-24.986-13.607c-6.961-1.149-13.817-2.941-20.72-4.447
		c3.133-1.282,6.086-1.978,9.05-2.035c14.043-0.273,25.688-6.071,35.662-15.487c10.862-10.256,21.321-20.943,32.284-31.091
		c7.964-7.371,12.513-16.74,13.789-26.874c2.831-22.489-2.341-44.059-10.549-64.94c-1.078-2.746-2.167-5.729-4.075-7.868
		c-14.091-15.802-26.448-33.618-47.294-41.812c-0.766-0.302-1.235-1.357-1.787-1.995c4.449-1.875,8.676-3.717,12.951-5.439
		c6.596-2.659,12.693-7.047,20.44-5.729c5.771,0.981,9.653-1.89,13.99-5.579c7.562-6.434,10.718-13.787,9.44-23.513
		c-0.518-3.933,0.046-7.995-0.162-11.984c-0.1-1.91-0.214-4.678-1.41-5.532c-6.733-4.809-5.067-11.723-5.166-18.215
		c-0.075-4.997,0.238-10.013-0.072-14.993c-0.648-10.384-2.74-19.949-10.977-27.746c-12.075-11.434-23.266-23.799-34.95-35.651
		c-5.113-5.186-11.509-7.613-18.811-7.606c-6.665,0.007-13.359,0.401-19.989-0.087c-14.35-1.057-25.63,4.49-35.521,14.495
		c-8.142,8.234-17.1,15.657-25.435,23.711c-4.75,4.591-9.925,9.158-13.241,14.73c-6.716,11.28-8.854,23.712-8.604,37.108
		c0.344,18.344,6.23,33.658,19.325,46.278c8.457,8.151,17.075,16.136,25.233,23.83c-9.21,6.64-18.702,12.666-27.25,19.822
		c-14.805,12.396-25.399,27.737-30.572,46.702c-3.119,11.429-2.829,22.976-3.185,34.589c-0.839,27.38,9.42,49.942,29.724,67.775
		c10.621,9.328,21.205,19.276,36.516,20.864c3.159,0.328,6.157,2.215,10.955,4.039c-6.277,1.231-10.625,1.669-14.686,2.993
		c-4.354,1.42-8.987,2.962-12.541,5.696c-11.811,9.088-23.271,18.547-32.221,30.796c-8.333,11.404-15.826,23.378-17.351,37.416
		c-2.003,18.441-3.223,37.102,0.395,55.597c1.971,10.072,3.232,20.63,10.722,28.398c7.556,7.838,14.454,16.54,25.027,21.003
		c5.308,2.239,10.168,5.542,16.406,9.019c-4.388,1.854-7.943,3.337-11.481,4.857c-3.954,1.699-8.514,2.669-11.735,5.279
		c-16.964,13.747-31.539,29.477-38.095,51.016C2671.18,2816.508,2670.167,2822.39,2669.18,2826.65z"/>
	<path fill-rule="evenodd" d="M753.942,2877.169c4.848-4.399,9.728-8.88,14.663-13.299c15.603-13.971,34.037-20.265,54.822-20.176
		c6.666,0.029,13.341,0.224,19.996-0.046c9.834-0.398,19.402-0.133,27.534,8.168c1.269-3.029,2.473-4.972,2.897-7.071
		c2.537-12.566,9.497-22.482,18.352-31.315c3.776-3.766,7.689-7.407,11.286-11.336c12.058-13.176,27.407-18.23,44.759-18.368
		c11.583-0.092,23.167-0.018,35.369-0.018c-3.261-12.682-6.886-24.74-9.365-37.029c-2.222-11.019-4.249-22.269-4.485-33.456
		c-0.499-23.633-0.225-47.307,0.6-70.933c0.635-18.157,5.891-35.281,14.899-51.187c6.709-11.847,13.397-23.711,19.794-35.727
		c6.435-12.086,15.699-21.873,27.127-28.621c8.382-4.95,9.93-10.604,9.495-19.329c-1.522-30.534-3.259-61.103-3.221-91.654
		c0.038-29.557,2.125-59.112,3.402-88.665c0.385-8.913,1.073-17.813,1.713-28.198c-2.639,1.846-4.502,2.805-5.934,4.205
		c-7.148,6.989-14.268,14.012-21.225,21.191c-3.844,3.967-8.248,6.372-13.697,7.545c-15.001,3.229-30.03,5.785-45.464,5.071
		c-4.285-0.199-8.587-0.031-14.822-0.031c2.538,3.222,3.906,5.164,5.48,6.923c8.643,9.649,17.605,19.027,25.938,28.936
		c9.599,11.413,12.868,25.261,13.675,39.822c1.313,23.688-1.398,47.147-4.097,70.6c-0.739,6.424-3.148,11.956-8.26,16.489
		c-6.472,5.738-12.748,11.809-18.364,18.372c-6.197,7.24-14.145,11.181-22.901,13.267c-27.998,6.67-55.686,7.475-83.248-3.394
		c-15.051-5.935-30.696-10.306-44.525-21.195c-0.369,4.671-0.833,7.608-0.794,10.539c0.192,15.154-10.243,24.524-18.838,34.889
		c-11.717,14.129-27.51,22.917-42.829,32.262c-2.433,1.484-5.664,2.286-8.538,2.316c-13.959,0.147-27.962,0.974-41.78-2.199
		c-4.186-0.961-8.613-1.82-12.832-1.487c-7.938,0.626-13.883-2.923-20.25-6.904c-11.377-7.114-21.835-15.231-30.926-25.034
		c-3.332-3.593-7.111-4.306-11.632-4.272c-16.664,0.125-33.344-0.399-49.99,0.145c-29.894,0.979-54.263-10.631-74.952-31.356
		c-14.569-14.597-29.274-29.06-43.714-43.781c-14.607-14.892-23.173-33.21-28.562-53.052c-6.305-23.212-8.625-46.834-8.466-70.978
		c0.184-27.99,1.181-55.845,5.835-83.433c1.98-11.741,5.513-23.222,8.396-34.807c0.792-3.186,1.783-6.321,0.28-7.716
		c-4.105-5.246-7.625-11.118-12.43-15.617c-11.943-11.18-20.563-24.669-26.244-39.581c-3.578-9.394-3.738-20.073-5.585-30.148
		c-1.61-8.785-2.596-17.809-5.385-26.221c-3.194-9.637-4.525-19.268-4.658-29.295c-0.25-18.991-0.252-37.912,4.701-56.488
		c0.921-3.453,0.588-7.266,0.666-10.914c0.13-6.111,1.256-11.906,4.958-16.946c2.479-3.375,2.653-6.85,2.489-11.137
		c-0.78-20.404-7.824-39.704-9.841-59.84c-1.057-10.552-2.571-21.124-2.646-31.696c-0.179-25.292,0.361-50.588,0.644-75.883
		c0.034-2.99,0.376-5.978,0.394-8.967c0.248-40.283-0.113-80.58,0.85-120.845c0.971-40.542,5.784-80.679,14.32-120.456
		c8.916-41.541,16.092-83.445,19.52-125.879c1.487-18.394,7.527-35.603,12.975-53.049c11.784-37.731,22.06-75.956,34.642-113.41
		c10.361-30.84,23.012-60.92,34.958-91.214c3.654-9.266,8.134-18.229,12.586-27.156c16.098-32.27,26.326-66.799,38.881-100.433
		c0.582-1.558,1.418-3.155,1.475-4.756c0.9-25.486,13.288-47.106,23.945-69.091c18.567-38.296,38.157-76.096,57.33-114.098
		c9.362-18.556,21.965-34.785,35.342-50.603c22.611-26.736,46.848-51.868,72.852-75.25c8.61-7.741,18.259-14.434,27.919-20.878
		c27.677-18.466,55.212-37.195,83.526-54.645c39.1-24.099,82.071-39.15,126.162-51.286c29.47-8.111,58.732-16.992,88.265-24.861
		c41.489-11.055,83.429-20.006,126.382-23.073c15.91-1.136,31.873-1.816,47.821-2.052c22.992-0.341,45.996-0.336,68.989-0.027
		c31.943,0.429,63.893,0.955,95.814,2.139c9.531,0.354,19.124,2.479,28.408,4.876c5.903,1.524,9.225-0.134,12.622-4.58
		c8.198-10.728,18.137-19.65,30.808-24.616c8.862-3.473,18.23-5.654,29.474-9.046c8.617-25.215,18.269-52.485,33.212-77.281
		c14.745-24.47,30.731-48.135,52.896-68.098c-8.56-4.937-7.922-12.696-9.19-19.701c-3.347-18.496-3.404-36.997,0.033-55.486
		c4.03-21.675,15.932-38.99,30.218-55.103c15.746-17.76,35.446-30.14,56.602-39.74c10.639-4.829,23.037-6.024,34.78-8.051
		c4.459-0.77,7.728-1.61,11.013-5.237c10.695-11.804,21.401-23.744,33.31-34.266c15.142-13.379,31.202-25.772,47.368-37.924
		c10.829-8.139,22.213-15.658,33.905-22.505c23.506-13.765,48.205-23.886,76.342-22.311c17.59,0.984,35.391,0.07,52.774,2.405
		c23.404,3.145,45.913,10.433,67.167,21.081c10.074,5.047,19.93,10.596,30.259,15.054c15.104,6.521,26.295,17.956,37.881,28.869
		c10.913,10.279,21.974,20.545,31.677,31.92c8.978,10.522,16.292,22.47,24.222,33.871c1.699,2.442,2.975,5.194,4.31,7.871
		c5.012,10.058,10.16,20.056,14.837,30.269c1.581,3.457,3.019,5.831,6.903,7.591c26.6,12.055,50.466,27.875,68.43,51.535
		c4.807,6.33,10.416,12.047,15.348,18.29c10.295,13.028,14.3,28.661,15.304,44.582c1.297,20.542,1.427,41.279-5.28,61.281
		c-3.888,11.595-6.838,23.589-11.737,34.731c-3.267,7.43-9.226,13.675-13.3,19.482c1.603,13.15,2.845,25.602,4.738,37.954
		c0.998,6.504,2.338,13.172,4.899,19.181c9.851,23.103,12.355,47.466,12.843,72.109c0.268,13.595-0.376,27.262-1.577,40.811
		c-0.724,8.163-3.141,16.201-5.115,24.216c-1.176,4.778-2.965,9.404-4.96,15.593c4.443,0,7.92-0.005,11.396,0
		c24.292,0.036,48.594-0.298,72.872,0.306c8.887,0.222,17.803,2.279,26.562,4.161c64.104,13.77,127.356,30.668,188.073,55.657
		c21.827,8.983,44.672,15.093,66.146,24.651c24.517,10.912,48.525,23.038,72.339,35.432c24.154,12.57,47.65,26.45,68.929,43.54
		c19.936,16.013,39.637,32.383,58.578,49.548c17.756,16.088,34.845,32.981,51.387,50.321c21.111,22.128,41.834,44.666,61.891,67.75
		c22.671,26.092,44.937,52.575,66.388,79.672c15.229,19.24,29.266,39.477,43.021,59.819c16.015,23.683,32.407,46.929,52.479,67.474
		c13.348,13.663,23.081,30.053,31.961,46.873c14.28,27.05,27.482,54.662,46.164,79.22c6.998,9.197,12.322,19.736,17.873,29.955
		c19.873,36.601,30.643,76.381,39.44,116.701c3.104,14.229,9.789,26.81,15.119,40.008c13.854,34.308,25.75,69.177,32.792,105.579
		c0.063,0.327,0.145,0.652,0.189,0.981c2.497,18.673-0.768,16.914,20.576,23.849c13.318,4.328,23.321,12.308,32.371,22.221
		c1.322,1.449,3.218,3.308,3.165,4.922c-0.262,7.993,5.448,13.319,8.111,19.962c2.461,6.137,4.644,12.586,5.583,19.094
		c3.532,24.479,2.296,49.167,2.024,73.775c-0.064,5.856-2.321,11.694-3.627,17.527c-0.909,4.057-0.247,7.565,1.774,11.408
		c16.433,31.225,35.425,60.74,57.025,88.658c6.108,7.896,12.244,15.482,19.525,22.413c14.219,13.536,27.627,27.926,41.289,42.041
		c5.384,5.562,9.73,11.658,10.472,19.844c0.217,2.397,1.768,5.033,3.456,6.871c4.291,4.668,6.241,10.174,6.664,16.257
		c0.689,9.936,1.629,19.901,1.447,29.837c-0.127,6.937,1.778,12.065,7.13,16.473c4.088,3.366,7.539,7.517,11.213,11.376
		c7.048,7.401,9.995,16.444,9.775,26.445c-0.292,13.286-0.498,26.607-1.654,39.836c-1.397,15.977-7.242,30.372-18.624,42.023
		c-11.133,11.398-21.546,23.725-37.258,30.338c0.778,17.653,1.549,35.239,2.333,52.823c0.162,3.625,2.105,5.495,5.724,5.445
		c11.409-0.157,18.542,6.943,26.382,14.031c12.652,11.441,18.831,25.758,23.913,41.526c8.896,27.597,13.014,56.116,18.553,84.625
		c0.661,0.408,1.467,1.322,2.314,1.364c13.724,0.665,23.259,8.805,32.278,17.906c2.815,2.84,5.556,5.765,8.499,8.468
		c12.168,11.173,18.357,24.925,18.242,41.491c-0.054,7.665,0.371,15.353-0.073,22.991c-0.802,13.769-7.067,25.517-15.212,36.187
		c-3.809,4.988-8.374,9.69-13.452,13.33c-4.417,3.166-9.905,5.078-15.175,6.739c-3.725,1.175-7.869,1.074-11.837,1.417
		c-5.1,0.439-9.05,2.475-13.067,5.99c-12.081,10.571-25.989,18.347-41.24,23.496c-12.856,4.341-25.797,8.429-38.712,12.592
		c-1.26,0.406-2.597,0.598-3.911,0.813c-11.367,1.851-22.745,3.64-34.104,5.547c-3.891,0.652-7.877,1.179-11.575,2.464
		c-16.21,5.634-33.014,4.749-49.476,3.309c-19.441-1.701-33.437-13.925-44.996-28.73c-9.444-12.099-15.773-25.52-20.576-40.463
		c-8.934-27.786-11.321-56.551-16.439-84.891c-3.288-18.212-5.258-36.66-7.893-55.536c-2.553-0.226-5.143-0.707-7.718-0.643
		c-22.34,0.562-41.146-7.615-57.992-21.981c-13.974-11.92-27.865-23.897-36.908-40.064c-5.615-10.04-9.784-20.934-14.037-31.667
		c-1.412-3.564-1.282-7.814-1.468-11.771c-0.229-4.915-0.055-9.85-0.055-16.745c-9.875,6.998-20.05,5.823-29.681,7.59
		c-13.196,2.421-26.396,2.498-39.52,3.974c-9.771,1.098-19.419,3.171-29.416,3.732c-18.89,1.061-36.281-4.289-53.2-11.109
		c-27.334-11.021-52.41-25.925-71.879-48.619c-9.471-11.039-20.267-21.181-26.781-34.474c-2.452-5.005-3.909-10.514-5.634-15.853
		c-3.665-11.35-7.207-22.737-10.789-34.073c-8.42,1.408-16.087,3.508-23.826,3.824c-19.945,0.815-39.928,1.225-59.885,0.996
		c-8.039-0.092-15.486-3.7-21.298-9.563c-9.142-9.224-18.625-18.197-26.904-28.158c-8.479-10.199-11.851-23.17-12.788-35.986
		c-1.109-15.157-1.775-30.637,2.955-45.537c1.896-5.973,3.905-11.954,6.476-17.655c5.487-12.177,12.562-23.197,22.872-32.129
		c8.464-7.332,15.062-16.935,26.998-20.1c-1.036-2.549-1.468-4.542-2.536-6.096c-12.765-18.573-9.924-39.733-8.597-60.019
		c1.234-18.893,13.588-32.7,27.412-44.772c9.159-7.999,10.088-16.167,3.462-26.366c-1.48-2.278-2.044-5.583-1.931-8.371
		c0.195-4.789-1.763-8.024-4.972-11.341c-34.029-35.17-65.523-72.503-95.141-111.457c-14.486-19.054-29.471-37.729-44.39-56.45
		c-1.561-1.96-3.997-3.75-6.373-4.451c-18.12-5.349-36.326-10.407-55.176-15.746c-0.417,0.99-1.173,2.388-1.606,3.879
		c-2.767,9.53-4.096,19.788-8.56,28.43c-4.664,9.028-7.28,18.344-10.226,27.835c-2.004,6.458-6.813,11.988-9.73,18.23
		c-8.872,18.982-17.64,38.02-26.068,57.202c-13.285,30.231-31.929,56.735-55.005,80.193c-6.997,7.111-14.524,13.7-21.532,20.801
		c-1.666,1.688-2.954,4.4-3.18,6.76c-3.129,32.662-13.902,62.681-30.097,91.079c-12.025,21.087-23.581,42.466-34.613,64.088
		c-9.778,19.162-22.782,35.938-36.592,52.13c-9.489,11.126-19.561,21.813-30.005,32.05c-13.062,12.801-26.184,25.663-40.351,37.18
		c-17.515,14.238-33.148,31.081-53.388,41.666c-9.659,5.05-15.776,11.878-20.045,21.897c-8.72,20.468-19.41,40.114-27.74,60.725
		c-6.248,15.46-7.903,31.906-5.701,48.945c1.43,11.055-0.439,22.522-0.688,33.809c-0.189,8.66,0.193,17.344-0.299,25.981
		c-0.981,17.23-2.438,34.434-3.597,51.655c-0.469,6.969-0.658,13.956-0.993,20.935c-1.339,27.876-3.063,55.74-3.902,83.632
		c-0.63,20.877,0.039,41.789-0.168,62.682c-0.217,21.955-0.973,43.905-1.16,65.859c-0.292,34.475-3.512,69.034,2.951,103.343
		c0.978,5.188,0.888,10.617,0.903,15.938c0.083,27.329-0.076,54.66,0.11,81.988c0.056,8.159-2.056,15.169-8.493,20.338
		c-3.965,3.184-4.51,7.057-3.499,11.543c3.429,15.23,6.623,30.521,10.426,45.657c2.291,9.12,7.521,15.662,17.165,18.997
		c11.269,3.896,22.036,9.245,32.999,14.017c17.228,7.496,35.535,11.113,53.88,14.066c13.432,2.164,25.572,7.275,37.408,13.285
		c12.135,6.16,23.757,13.319,35.76,19.75c5.842,3.13,11.945,5.831,18.098,8.31c11.281,4.543,21.315,10.714,29.49,19.905
		c4.864,5.471,10.725,10.083,15.357,15.721c3.495,4.254,7.861,9.392,8.173,14.365c0.997,15.896,0.902,31.933,0.071,47.854
		c-0.942,18.036-12.379,30.241-25.386,41.232c-10.079,8.518-21.422,12.878-34.798,12.439c-12.935-0.425-25.894-0.093-38.49-0.093
		c-1.53,2.555-2.65,3.852-3.156,5.355c-5.043,15.002-16.606,24.614-28.268,34.046c-11.693,9.46-25.889,11.876-40.274,12.421
		c-10.929,0.413-21.932-0.406-32.864-1.188c-3.707-0.266-6.457,0.284-8.826,3.096c-10.469,12.425-25.466,17.952-39.456,24.482
		c-7.519,3.51-16.805,4.35-25.306,4.405c-17.939,0.116-35.915-0.643-53.821-1.853c-17.948-1.213-32.516-10.341-46.198-21.367
		c-11.884-9.577-24.021-18.877-36.447-27.733c-12.466-8.886-25.395-17.124-38.197-25.527c-3.593-2.359-7.285-4.717-11.226-6.372
		c-14.706-6.176-29.251-12.948-44.402-17.785c-13.234-4.225-27.43-5.368-40.799-9.253c-24.477-7.111-48.708-15.09-72.917-23.085
		c-4.301-1.421-8.353-4.242-11.914-7.157c-25.235-20.662-44.093-45.997-55.014-76.894c-1.753-4.96-3.321-10.311-3.359-15.492
		c-0.141-19.577-2.395-39.279,2.427-58.662c0.301-1.209,0.341-2.482,0.609-4.548c-12.086,0-23.717-0.18-35.335,0.089
		c-4.664,0.107-8.058-1.249-11.436-4.56c-18.563-18.185-18.058-18.118-18.79-43.904c-0.988-34.852-1.498-69.736-5.43-104.465
		c-3.843-33.95-6.859-67.994-10.504-101.97c-2.159-20.113-5.719-40.111-7.099-60.269c-3.187-46.538-11.187-92.2-22.605-137.34
		c-0.318-1.259-0.748-2.518-1.341-3.664c-0.257-0.497-1.063-0.708-0.757-0.521c0,10.356-0.149,21.225,0.027,32.089
		c0.548,33.602,2.947,67.282,1.395,100.781c-1.827,39.414-10.604,77.521-32.46,111.616c-12.017,18.746-22.049,38.871-36.972,55.573
		c-19.546,21.876-40.792,41.971-65.622,57.971c-7.829,5.045-15.285,10.665-23.007,15.88c-3.919,2.647-5.951,5.892-5.507,10.822
		c1.808,20.081-4.866,38.806-9.989,57.666c-3.113,11.462-11.32,20.202-19.234,28.79c-3.611,3.919-7.859,7.285-11.217,11.393
		c-8.409,10.289-19.356,15.037-32.303,14.996c-12.626-0.04-25.367,0.065-37.828-1.603c-6.556-0.879-12.829-5.047-18.844-8.417
		c-4.859-2.723-9.14-6.475-14.373-10.276c-9.419,11.617-22.512,12.059-35.476,12.603c-18.595,0.781-37.254,2.475-55.708-1.393
		c-6.77-1.419-13.375-3.617-20.333-5.536c-0.915,0.737-2.176,1.384-2.914,2.406c-10.184,14.099-25.474,17.526-41.249,18.953
		c-15.548,1.404-31.219,1.387-46.816,2.323c-27.417,1.647-47.104-11.162-62.201-32.747c-13.913-19.891-22.501-42.132-28.683-65.421
		c-1.592-5.999-3.213-11.991-5.221-19.473c-17.501,13.357-37.017,11.383-56.311,11.811c-12.579,0.279-24.232-2.26-36.52-8.434
		c0,7.429,0.162,13.342-0.053,19.243c-0.168,4.63-0.748,9.249-1.238,13.864c-2.438,22.95-17.423,37.663-34.752,49.817
		c-7.582,5.318-17.628,9.181-26.802,9.755c-20.497,1.281-41.296,2.757-61.591-2.783c-5.087-1.388-10.085-3.106-16.216-5.013
		c0,4.131-0.022,7.687,0.005,11.242c0.039,4.97-0.938,9.19-3.573,13.928c-3.006,5.407-3.093,12.646-3.675,19.159
		c-3.063,34.22-12.321,66.478-29.649,96.286c-1.33,2.287-2.7,4.638-3.491,7.138c-6.777,21.421-20.748,37.983-37.265,52.114
		c-12.207,10.443-20.33,23.489-29.038,36.414c-5.352,7.943-10.678,16.078-17.187,23.032c-13.202,14.105-27.357,27.314-40.819,41.185
		c-11.453,11.8-25.211,19.406-40.839,23.873c-33.315,9.522-67.235,16.529-101.783,18.455c-28.515,1.589-57.098,0.737-85.676-2.984
		c-39.66-5.166-78.574-13.644-117.456-22.558c-16.66-3.819-32.415-9.996-47.18-18.59c-14.884-8.662-25.864-21.759-37.957-33.622
		c-19.206-18.842-29.622-43.072-41.567-66.401c-8.635-16.862-17.256-33.731-26.035-50.519
		c-18.521-35.414-31.534-72.568-34.636-112.645c-2.615-33.784-6.304-67.604-3.25-101.533c1.095-12.154,3.207-24.387,6.461-36.14
		c5.584-20.163,12.989-39.632,24.27-57.609c5.41-8.622,8.26-18.835,12.412-28.266c3.328-7.559,6.565-15.183,10.372-22.502
		c13.664-26.274,33.703-47.557,53.693-68.999c18.237-19.563,39.231-34.885,63.503-45.842c5.738-2.591,11.517-5.389,17.571-6.936
		c29.942-7.652,59.979-14.929,89.994-22.293c1.928-0.473,3.946-0.771,5.927-0.797c33.295-0.429,66.622-1.792,99.874-0.768
		c16.44,0.506,32.681,5.866,49.125,8.261c23.99,3.492,45.418,14.836,68.384,21.444c27.602,7.944,49.764,25.044,70.075,44.416
		c15.152,14.453,28.227,31.138,43.778,45.101c13.343,11.981,24.494,25.363,33.376,40.561
		C738.163,2845.079,745.612,2861.046,753.942,2877.169z"/>
	<path fill-rule="evenodd" d="M2669.18,2826.65c0.987-4.261,2-10.143,3.724-15.809c6.556-21.539,21.131-37.269,38.095-51.016
		c3.222-2.61,7.781-3.58,11.735-5.279c3.538-1.521,7.094-3.003,11.481-4.857c-6.238-3.477-11.099-6.779-16.406-9.019
		c-10.573-4.463-17.472-13.165-25.027-21.003c-7.489-7.769-8.751-18.326-10.722-28.398c-3.617-18.495-2.397-37.155-0.395-55.597
		c1.524-14.038,9.018-26.012,17.351-37.416c8.949-12.249,20.41-21.708,32.221-30.796c3.554-2.734,8.187-4.276,12.541-5.696
		c4.061-1.324,8.408-1.762,14.686-2.993c-4.798-1.824-7.796-3.711-10.955-4.039c-15.311-1.588-25.895-11.536-36.516-20.864
		c-20.304-17.833-30.563-40.396-29.724-67.775c0.355-11.613,0.065-23.16,3.185-34.589c5.173-18.965,15.768-34.307,30.572-46.702
		c8.548-7.156,18.04-13.183,27.25-19.822c-8.158-7.694-16.776-15.679-25.233-23.83c-13.095-12.62-18.981-27.935-19.325-46.278
		c-0.25-13.396,1.889-25.828,8.604-37.108c3.316-5.572,8.491-10.14,13.241-14.73c8.335-8.054,17.293-15.477,25.435-23.711
		c9.891-10.005,21.171-15.552,35.521-14.495c6.63,0.488,13.324,0.094,19.989,0.087c7.302-0.007,13.697,2.421,18.811,7.606
		c11.685,11.853,22.875,24.218,34.95,35.651c8.236,7.797,10.328,17.362,10.977,27.746c0.311,4.98-0.003,9.996,0.072,14.993
		c0.099,6.492-1.567,13.406,5.166,18.215c1.196,0.854,1.311,3.622,1.41,5.532c0.208,3.989-0.355,8.052,0.162,11.984
		c1.277,9.726-1.879,17.079-9.44,23.513c-4.337,3.689-8.22,6.561-13.99,5.579c-7.747-1.318-13.845,3.069-20.44,5.729
		c-4.275,1.723-8.502,3.564-12.951,5.439c0.552,0.638,1.021,1.693,1.787,1.995c20.846,8.193,33.203,26.01,47.294,41.812
		c1.908,2.139,2.997,5.122,4.075,7.868c8.208,20.882,13.38,42.451,10.549,64.94c-1.276,10.134-5.825,19.503-13.789,26.874
		c-10.963,10.147-21.422,20.835-32.284,31.091c-9.974,9.416-21.619,15.214-35.662,15.487c-2.964,0.058-5.917,0.753-9.05,2.035
		c6.902,1.506,13.759,3.298,20.72,4.447c9.98,1.649,17.545,7.494,24.986,13.607c2.563,2.104,4.563,4.896,7.132,6.993
		c20.905,17.053,26.863,40.193,26.974,65.744c0.038,8.664-0.167,17.334,0.052,25.994c0.22,8.685-2.246,16.685-7.385,23.316
		c-10.952,14.137-22.385,27.919-34.045,41.481c-3.255,3.784-5.367,7.357-4.883,12.526c15.521,7.126,25.585,20.677,37.24,32.367
		c9.656,9.688,17.347,20.839,22.706,33.467c1.447,3.413,3.751,4.846,7.185,6.013c33.218,11.287,61.561,30.263,87.32,53.952
		c18.738,17.23,35.203,36.358,50.414,56.479c13.935,18.432,29.23,36.186,38.443,57.791c4.916,11.53,9.274,23.301,13.753,35.013
		c6.187,16.178,9.566,33.146,10.917,50.224c1.676,21.177,2.213,42.519,1.817,63.763c-0.612,32.927-9.96,63.992-22.779,94.097
		c-8.796,20.653-17.065,41.527-29.909,60.21c-18.835,27.399-41.428,51.237-68.599,70.254
		c-23.548,16.482-49.739,27.639-78.205,32.875c-19.602,3.606-39.106,8.11-58.864,10.395c-20.073,2.319-40.268,3.515-60.687,2.077
		c-20.975-1.479-41.623-3.835-61.526-10.534c-10.919-3.676-21.529-8.391-32.015-13.209c-27.296-12.546-49.689-31.904-70.33-53.131
		c-12.467-12.821-23.191-27.343-34.586-41.193c-4.842-5.887-9.298-12.091-14.091-18.02c-26.327-32.555-44.195-69.231-52.33-110.284
		c-2.693-13.594-3.527-27.659-4.049-41.554c-0.574-15.287,0.261-30.625,0.356-45.941c0.135-21.443,4.67-41.966,12.198-61.975
		c4.203-11.168,7.34-22.749,11.805-33.801c2.816-6.971,7.233-13.29,10.862-19.939c1.585-2.903,3.212-5.816,4.447-8.876
		c11.085-27.456,27.058-51.529,48.512-72.067c11.518-11.027,22.345-22.852,36.08-31.191
		C2640.713,2842.525,2654.017,2835.304,2669.18,2826.65z"/>
</g>
</svg>
