<?xml version="1.0" encoding="utf-8"?>
<!-- Generator: Adobe Illustrator 16.0.2, SVG Export Plug-In . SVG Version: 6.00 Build 0)  -->
<!DOCTYPE svg PUBLIC "-//W3C//DTD SVG 1.1 Tiny//EN" "http://www.w3.org/Graphics/SVG/1.1/DTD/svg11-tiny.dtd">
<svg version="1.1" baseProfile="tiny" id="Layer_1" xmlns="http://www.w3.org/2000/svg" xmlns:xlink="http://www.w3.org/1999/xlink"
	 x="0px" y="0px" width="3846.52px" height="3567.554px" viewBox="0 0 3846.52 3567.554" xml:space="preserve">
<g>
	<path fill-rule="evenodd" fill="#FFFFFF" d="M3849.404,3571.439c-1282.543,0-2564.973,0-3847.292,0
		c0-1189.888,0-2379.664,0-3569.327c1282.544,0,2564.975,0,3847.292,0C3849.404,1192.001,3849.404,2381.777,3849.404,3571.439z
		 M874.712,2875.166c-4.064-6.469-8.898-13.188-12.732-20.436c-18.174-34.363-43.819-62.747-72.498-88.233
		c-17.298-15.37-37.149-27.799-55.921-41.441c-39.171-28.468-81.099-50.599-127.401-64.749
		c-19.882-6.076-39.784-10.593-60.764-9.553c-11.304,0.56-22.658,0.098-33.99,0.1c-24.453,0.005-48.272,4.146-71.782,10.647
		c-33.894,9.374-65.635,23.87-95.926,41.36c-24.17,13.957-47.699,29.066-71.113,44.277c-19.153,12.442-33.659,30.189-49.914,45.921
		c-11.836,11.454-21.332,24.644-28.535,39.425c-20.859,42.803-31.39,88.151-31.677,135.664
		c-0.228,37.611-0.132,75.266,1.411,112.836c1.966,47.89,15.835,92.878,37.571,135.429c22.754,44.543,55.837,80.891,92.115,114.602
		c15.688,14.578,34.061,25.454,51.763,37.292c34.346,22.971,72.039,36.912,112.685,43.361c8.209,1.303,16.397,2.737,24.586,4.17
		c29.167,5.102,58.325,10.171,88.148,8.962c10.973-0.445,22.172,0.879,32.9-0.867c14.025-2.281,27.934-6.046,41.451-10.515
		c33.825-11.18,66.888-23.936,94.397-47.898c13.279-11.566,28.431-21.047,41.255-33.052c25.504-23.876,49.032-49.598,70.835-77.076
		c23.308-29.376,39.088-61.562,45.55-98.418c7.291-41.585,14.219-83.204,13.102-125.666c-0.083-3.172-0.011-6.349-0.011-8.503
		c19.735,0,37.984-0.174,56.228,0.076c8.371,0.115,15.989-1.802,22.267-7.198c8.055-6.925,15.848-14.186,23.375-21.681
		c7.763-7.73,10.535-18.109,13.134-28.325c10.871,0,21.164,0.233,31.441-0.054c16.278-0.455,31.838-3.226,44.004-15.535
		c0.538-0.544,1.764-0.408,1.556-0.367c5.33,18.786,9.921,37.479,16.094,55.634c2.936,8.632,7.883,17.066,13.703,24.117
		c9.083,11.003,19.943,20.52,29.568,31.104c8.788,9.665,20.013,14.298,32.288,16.444c6.807,1.189,14.043-0.205,20.913,0.778
		c18.33,2.625,32.146-5.931,44.995-17.142c4.259-3.717,8.058-7.961,12.067-11.965c4.175-4.169,8.35-8.34,11.756-11.741
		c8.776,4.541,16.08,9.349,24.078,12.225c13.02,4.683,26.875,3.543,40.486,3.64c15.531,0.109,30.595-1.059,42.598-12.859
		c1.377-1.354,4.107-1.95,6.175-1.88c9.931,0.339,19.895,0.622,29.762,1.702c10.479,1.148,18.651-2.56,25.915-9.692
		c3.771-3.704,7.614-8.785,12.225-9.883c9.63-2.294,15.025-9.285,21.746-15.113c8.261-7.164,11.205-16.113,10.912-26.638
		c-0.165-5.902-0.029-11.812-0.029-15.965c17.761-11.151,34.079-20.826,49.796-31.395c27.017-18.164,48.784-42.251,71.271-65.389
		c15.082-15.519,28.063-32.871,38.728-51.823c22.538-40.055,37.119-83.021,46.846-127.774c0.434-1.99,1.539-3.834,3-7.36
		c0.478,4.215,0.834,6.518,0.985,8.832c1.381,21.203,2.668,42.41,4.095,63.608c1.694,25.164,4.02,50.298,5.125,75.486
		c1.427,32.555,1.696,65.157,2.903,97.723c0.59,15.903,2.034,31.782,3.442,47.64c0.243,2.733,1.716,5.761,3.521,7.888
		c18.454,21.739,41.763,33.348,70.555,33.882c7.416,0.138,14.984,1.118,21.208,4.197c-1.704,9.578-4.09,18.313-4.633,27.163
		c-0.775,12.616-0.765,25.352,0.023,37.968c0.446,7.132,2.283,14.46,4.949,21.117c7.893,19.708,19.926,36.501,35.745,50.968
		c23.796,21.759,50.669,34.921,83.479,34.528c5.581-0.066,11.233,0.816,16.756,1.803c14.726,2.63,29.325,6.056,44.11,8.25
		c24.102,3.576,45.003,13.424,63.263,29.45c13.734,12.055,27.854,23.672,41.744,35.551c15.391,13.162,34.281,20.257,51.842,29.57
		c10.484,5.56,22.003,9.281,33.259,13.254c15.094,5.326,30.908,3.684,46.523,4.094c13.884,0.362,25.273-4.799,34.908-14.307
		c8.297-8.188,16.519-16.466,24.433-25.02c2.597-2.808,5.174-3.493,8.75-3.38c11.979,0.379,23.967,0.588,35.951,0.58
		c10.8-0.007,20.21-3.578,27.576-11.813c7.707-8.616,15.463-17.188,22.864-25.409c13.286,0.426,26.547,0.926,39.812,1.258
		c26.626,0.67,48.699-8.012,67.795-27.695c19.663-20.268,25.127-43.829,20.364-69.622c-3.822-20.7-14.028-39.502-29.1-54.838
		c-29.709-30.235-64.892-51.905-105.513-63.877c-38.251-11.273-76.814-21.536-115.446-31.441c-9.378-2.403-13.752-7.675-17.253-15.8
		c-6.45-14.974-6.816-30.897-8.989-46.989c19.564-10.024,26.273-26.948,25.903-47.658c-0.101-5.663-0.29-11.347,0.045-16.992
		c0.606-10.219-1.936-19.72-5.412-29.182c-2.053-5.587-3.941-11.396-4.713-17.263c-2.294-17.428-5.361-34.912-5.646-52.414
		c-0.558-34.243,0.187-68.524,1.109-102.771c0.796-29.552,2.52-59.08,3.963-88.612c0.762-15.591,1.379-31.208,2.804-46.745
		c2.911-31.721,6.128-63.417,9.582-95.085c3.895-35.699,6.165-71.47,6.434-107.386c0.027-3.623,1.897-7.64,3.97-10.774
		c21.474-32.467,43.799-64.39,64.547-97.308c11.645-18.473,22.918-37.58,27.313-59.552c1.354-6.769,4.471-12.036,9.528-16.85
		c36.584-34.814,67.977-74.025,95.543-116.197c11.804-18.054,21.118-37.717,32.176-56.283
		c10.256-17.216,18.744-35.186,26.101-53.784c2.025-5.121,4.656-10.388,8.299-14.426c38.927-43.157,69.122-91.828,92.379-144.938
		c3.578-8.172,7.348-15.947,14.756-21.725c5.186-4.044,9.374-9.413,13.781-14.389c1.465-1.654,3.137-3.914,3.166-5.918
		c0.155-10.981,0.931-22.142-0.764-32.885c-0.948-6.017-0.652-10.78,2.127-16.634c3.751,1.788,7.274,3.52,10.842,5.157
		c19.949,9.147,39.791,18.545,59.95,27.208c4.988,2.144,8.208,5.133,10.971,9.407c7.407,11.455,14.53,23.131,22.552,34.146
		c35.06,48.139,69.754,96.6,112.89,138.156c1.568,1.511,3.028,3.681,3.427,5.756c1.295,6.763,2.075,13.625,3.114,20.872
		c-0.835,0.92-1.918,2.174-3.065,3.366c-8.772,9.117-17.671,18.117-26.301,27.366c-5.913,6.337-8.771,13.857-8.3,22.759
		c0.423,7.977-0.288,16.016,0.185,23.986c0.701,11.845,3.318,22.975,13.192,31.178c4.72,3.92,8.743,8.677,14.868,14.856
		c-5.507,0-8.414-0.353-11.204,0.074c-5.546,0.85-11.65,0.938-16.417,3.446c-15.438,8.121-28.979,18.924-39.536,32.985
		c-13.661,18.197-19.152,39.282-20.214,61.585c-0.603,12.637,0.148,25.331-0.197,37.986c-0.246,9.006,2.404,16.976,6.663,24.67
		c5.703,10.31,13.184,19.135,21.838,27.062c2.814,2.576,5.306,5.506,8.033,8.367c-5.202,2.874-9.628,4.638-13.254,7.437
		c-20.536,15.842-37.995,34.326-48.834,58.336c-3.473,7.69-5.616,15.51-5.126,24.122c0.473,8.305,0.621,16.697-0.006,24.982
		c-1.342,17.763,6.413,31.486,18.172,43.637c5.502,5.685,11.127,11.247,16.932,17.102c-1.923,2.146-3.219,3.603-4.525,5.048
		c-9.138,10.1-18.717,19.842-27.303,30.393c-9.902,12.167-15.791,26.007-14.603,42.319c0.604,8.288-0.163,16.67,0.213,24.984
		c0.207,4.574,0.981,9.27,2.396,13.618c5.038,15.491,14.16,28.508,25.44,40.089c4.357,4.473,8.801,8.858,13.939,14.021
		c-6.939,6.751-13.192,12.681-19.271,18.785c-13.454,13.509-20.732,30.316-22.756,48.808c-1.549,14.162-0.802,28.638-0.223,42.938
		c0.236,5.851,1.549,12.269,4.378,17.3c14.491,25.779,31.029,49.751,61.169,59.528c-40.173,20.922-57.018,39.193-69.144,75.29
		c-17.328,6.85-34.913,13.808-52.504,20.752c-9.955,3.93-18.962,9.13-27.149,16.305c-19.39,16.992-35.791,36.56-51.476,56.847
		c-15.596,20.173-28.314,41.981-35.593,66.477c-9.761,32.846-16.635,66.439-19.066,100.592c-3.004,42.221-0.733,84.426,5.935,126.26
		c3.303,20.723,8.456,40.975,19.673,59.233c15.564,25.337,33.168,48.939,54.768,69.566c28.312,27.037,62.091,44.446,98.86,56.166
		c40.571,12.933,82.394,17.987,124.994,16.76c18.307-0.527,36.673,0.269,54.933-0.836c21.54-1.303,42.979-4.181,64.49-6.068
		c28.921-2.538,55.049-12.201,77.83-30.264c10.921-8.658,21.547-17.715,31.969-26.972c22.763-20.217,42.345-42.94,57.72-69.521
		c17.102-29.564,26.108-60.924,25.796-94.958c-0.18-19.614-0.306-39.258-1.459-58.828c-1.169-19.849-2.707-39.756-5.646-59.402
		c-4.224-28.233-10.194-56.201-14.796-84.384c-3.873-23.731-11.816-45.587-26.3-64.94c-29.854-39.891-66.832-71.142-112.094-92.242
		c-17.148-7.994-34.229-16.645-54.14-14.644c-0.587,0.059-1.229-0.433-1.289-0.454c-5.172-7.104-9.432-14.375-15.059-20.36
		c-9.568-10.178-19.714-19.862-30.152-29.151c-8.52-7.582-18.102-13.611-30.191-13.929c-1.701-0.045-3.38-1.013-5.88-1.812
		c4.385-2.36,8.065-3.949,11.324-6.159c19.753-13.404,36.664-29.817,49.661-49.83c6.9-10.626,11.598-22.536,12.014-35.483
		c0.384-11.985,0.544-24.016-0.038-35.986c-0.681-13.991-5.118-26.69-15.57-36.737c-10.929-10.507-20.46-22.591-36.29-29.848
		c6.073-5.602,11.401-9.722,15.768-14.688c14.012-15.936,23.21-33.989,22.902-55.88c-0.099-6.998-0.34-14.016,0.049-20.994
		c0.957-17.182-5.831-30.961-17.665-42.866c-6.06-6.095-11.673-12.634-17.381-18.856c10.162-9.888,21.438-20.188,31.931-31.232
		c14.829-15.609,25.977-32.962,23.149-56.098c-0.683-5.584-0.478-11.35-0.031-16.979c1.426-17.995-6.254-32.256-17.926-44.927
		c-3.836-4.164-8.029-7.995-11.968-12.067c-1.718-1.775-3.207-3.77-4.469-5.271c13.535-8.281,26.517-16.224,39.438-24.131
		c2.766,10.904,5.143,21.944,8.411,32.714c3.568,11.75,6.988,23.86,15.394,33.244c9.325,10.412,19.218,20.355,31.735,27.154
		c10.517,5.713,20.668,12.207,31.537,17.129c8.368,3.788,17.426,6.861,26.479,8.181c28.355,4.134,56.978,4.902,85.61,4.373
		c4.241-0.079,8.569-0.919,12.672-2.068c13.35-3.741,25.021-10.642,35.525-19.628c1.625-1.393,3.561-2.423,6.8-4.588
		c0,11.122-0.447,20.684,0.091,30.188c1.228,21.679,6.422,42.09,21.479,58.736c8.035,8.883,16.206,17.651,24.57,26.224
		c17.627,18.066,38.982,27.211,64.416,26.392c2.855-0.092,5.733,0.463,8.468,0.706c1.214,10.666,2.318,20.514,3.459,30.355
		c1.907,16.455,3.416,32.971,5.86,49.346c3.144,21.054,7.942,41.73,15.937,61.604c3.322,8.259,6.119,16.822,8.154,25.483
		c3.448,14.674,9.853,27.363,22.164,36.401c5.916,4.343,12.393,7.118,20.261,7.028c25.622-0.292,51.186-1.189,76.79-2.467
		c20.925-1.045,40.957-4.296,60.462-11.174c7.739-2.729,15.813-6.153,21.989-11.339c13.732-11.528,26.632-24.102,39.275-36.841
		c3.671-3.697,6.961-6.461,12.144-7.627c24.937-5.605,39.21-22.592,46.409-45.907c4.383-14.192,2-29.096,1.448-43.66
		c-0.164-4.333-2.35-9.267-5.134-12.682c-5.861-7.189-12.606-13.683-19.227-20.222c-6.238-6.162-13.907-8.787-22.712-8.222
		c-3.523,0.227-7.073,0.037-10.927,0.037c-0.886-9.197-1.633-17.075-2.405-24.951c-1.455-14.85-3.043-29.687-4.366-44.547
		c-2.382-26.739-8.033-51.869-30.571-69.927c-5.899-4.727-11.535-8.68-19.389-8.829c-5.272-0.1-12.366,0.951-15.31-1.926
		c-3.296-3.221-2.88-10.283-3.989-15.693c-2.921-14.252-5.792-28.514-8.752-43.109c5.278-2.957,10-6.104,15.111-8.368
		c14.877-6.592,27.298-16.291,38.318-28.162c5.948-6.407,9.675-13.528,9.866-22.177c0.398-17.978,1.345-36.013,0.338-53.928
		c-0.545-9.69-2.534-20.552-7.648-28.436c-7.29-11.241-17.098-21.36-30.381-26.587c-3.299-1.297-6.663-2.425-10.254-3.724
		c0-3.109,0.084-5.762-0.014-8.405c-0.551-14.93-3.359-28.825-14.407-40.259c-13.852-14.336-26.921-29.427-40.489-44.041
		c-4.511-4.859-9.833-8.975-14.248-13.911c-13.067-14.606-25.794-29.518-38.793-44.185c-11.767-13.275-22.257-27.274-28.281-44.253
		c-1.637-4.615-4.65-8.725-6.681-13.225c-1.153-2.558-2.424-5.515-2.178-8.156c0.456-4.908,1.99-9.714,3.063-14.566
		c6.269-28.372,6.475-56.743-1.385-84.784c-3.843-13.71-8.853-27.064-20.845-36.464c-9.412-7.378-18.163-15.597-27.511-23.061
		c-3.943-3.147-6.129-6.427-6.357-11.635c-0.245-5.59-1.278-11.219-2.601-16.678c-8.908-36.786-16.341-73.878-27.886-110.083
		c-9.366-29.377-15.269-59.855-22.863-89.804c-8.069-31.826-20.908-61.8-38.341-89.467c-17.017-27.006-35.674-52.965-48.906-82.221
		c-2.735-6.046-6.298-11.718-9.46-17.572c-12.313-22.796-29.587-41.706-47.144-60.418c-17.314-18.455-34.246-37.197-47.941-58.667
		c-5.162-8.092-11.165-15.797-17.689-22.84c-12.688-13.698-25.244-27.383-33.488-44.397c-2.169-4.479-4.093-9.15-6.824-13.272
		c-15.246-23.012-29.89-46.483-46.261-68.676c-35.272-47.814-76.372-90.395-121.144-129.354
		c-69.264-60.271-147.758-102.658-238.247-121.443c-3.156-0.655-6.21-2.266-9.06-3.878c-24.69-13.977-50.495-25.464-77.621-33.721
		c-50.664-15.424-102.975-19.877-155.526-21.829c-23.963-0.89-47.985-0.136-71.981-0.174c-2.461-0.004-4.922-0.328-7.967-0.545
		c0.928-3.095,1.576-5.302,2.252-7.5c9.82-31.935,16.801-64.298,14.992-98.018c-0.427-7.955,0.219-16.074-1.143-23.854
		c-4.573-26.117-15.962-49.792-26.814-72.316c11.606-21.905,22.925-43.37,34.359-64.771c3.328-6.23,5.864-12.601,6.126-19.776
		c0.4-10.944,1.405-21.884,1.354-32.821c-0.083-17.359-4.655-33.742-15.124-47.636c-7.764-10.306-17.129-19.408-25.805-29.024
		c-12.601-13.965-27.777-23.705-46.319-27.636c-5.37-1.139-8.809-3.797-10.802-8.969c-7.219-18.726-19.882-33.581-33.885-47.546
		c-4.668-4.657-8.728-9.988-12.654-15.314c-14.837-20.131-30.98-39.058-50.051-55.343c-24.311-20.758-52.965-34.331-81.264-48.334
		c-7.28-3.603-15.855-5.523-24.013-6.258c-29.947-2.696-59.848-1.765-89.403,4.32c-36.774,7.568-70.042,23.197-100.087,45.431
		c-20.689,15.31-38.363,33.857-53.878,54.424c-2.342,3.105-4.222,6.268-9.087,6.844c-9.861,1.168-19.736,2.813-29.364,5.229
		c-19.428,4.874-38.07,11.661-54.573,23.607c-11.651,8.434-22.331,17.819-32.445,28.016c-6.727,6.783-11.893,14.358-14.885,23.303
		c-10.719,32.05-11.323,64.543-3.505,97.258c0.957,4.003,2.014,7.276-0.988,11.086c-12.348,15.665-24.377,31.583-36.55,47.387
		c-18.968,24.628-35.767,50.478-45.591,80.303c-0.597,1.811-1.658,3.47-1.798,3.755c-12.04,2.811-22.641,5.453-33.32,7.734
		c-11.795,2.52-18.422,12.446-26.606,19.025c-30.438-9.206-60.479-14.368-91.333-13.99c-17.302,0.212-34.627,0.226-51.891,1.226
		c-23.209,1.344-46.403,3.188-69.535,5.507c-18.494,1.854-36.835,5.229-55.331,7.054c-29.514,2.912-58.606,8.2-87.329,15.251
		c-28.107,6.899-56.046,14.581-83.805,22.774c-25.523,7.534-51.027,15.348-75.97,24.577c-38.856,14.376-74.791,34.429-108.674,58.4
		c-34.292,24.258-67.566,49.404-96.208,80.538c-25.615,27.845-47.967,57.967-67.388,90.215
		c-37.776,62.723-65.596,129.852-86.256,200.023c-1.96,6.662-3.764,13.59-7.09,19.591c-11.927,21.522-24.722,42.563-36.738,64.038
		c-23.701,42.355-47.541,84.644-70.504,127.399c-23.464,43.688-41.212,89.883-56.325,137.028
		c-14.919,46.538-24.425,94.292-31.617,142.648c-6.208,41.737-10.204,83.634-12.796,125.672c-1.617,26.208-1.77,52.518-2.085,78.788
		c-0.159,13.278,0.699,26.575,1.243,39.856c0.721,17.604,0.564,35.319,2.6,52.774c4.036,34.598,8.574,69.178,14.498,103.489
		c1.981,11.477,0.375,19.489-7.88,27.265c-7.788,7.336-11.793,17.29-12.306,27.665c-0.818,16.551-0.981,33.145,3.547,49.516
		c4.149,14.999,6.818,30.401,10.514,45.534c2.673,10.952,6.663,21.614,8.832,32.649c5.514,28.054,21.864,47.816,45.726,62.185
		c6.165,3.712,12.469,7.189,18.919,10.895c-0.127,1.417-0.072,2.755-0.386,4c-7.17,28.479-9.146,57.698-11.098,86.78
		c-1.713,25.511-1.693,51.148,0.848,76.763c2.464,24.832,5.454,49.5,12.176,73.578c5.829,20.88,12.527,41.543,25.18,59.407
		c16.269,22.968,35.909,42.836,58.946,59.11c27.149,19.178,55.907,33.75,90.729,29.527c0.985-0.12,2-0.05,2.998-0.009
		c12.69,0.518,25.219,0.276,35.214-7.89c8.063,6.245,15.364,11.998,22.771,17.611c9.932,7.525,21.13,10.752,33.626,10.35
		c11.653-0.375,23.35-0.527,34.985,0.052c10.562,0.525,20.066-2.206,27.92-8.691c14.876-12.283,29.645-24.845,36.359-44.043
		c2.157-6.167,5.13-12.05,7.264-16.983c31.876,0.936,62.427,2.65,92.97,2.521c37.412-0.159,64.116-20.281,82.932-50.684
		c8.647-13.972,14.263-30.066,14.76-47.199c0.299-10.282,0.9-20.556,1.227-30.838c0.432-13.585-2.103-26.401-9.884-37.899
		c-1.942-2.871-3.271-6.155-5.251-9.96c30.859,0.771,44.114-21.318,60.133-43.201c-2.204,13.773-3.715,25.253-5.917,36.6
		c-5.897,30.39-8.733,61.136-10.215,91.969c-1.071,22.272-0.765,44.619-0.73,66.933c0.008,5.389-1.233,9.52-5.403,13.133
		c-14.975,12.975-25.57,29.637-37.439,45.216c-1.798,2.36-3.228,5.016-4.7,7.607c-11.667,20.555-14.636,43.305-15.719,66.268
		c-0.846,17.956,0.088,35.991-0.236,53.982c-0.379,20.977,3.791,40.879,12.471,59.936c3.117,6.844,5.82,13.875,9.336,22.318
		c-5.971,0-10.569,0.394-15.079-0.071c-15.544-1.602-29.688,5.685-44.805,6.867c-2.992,0.234-6.172,2.574-8.593,4.708
		c-6.733,5.932-13.013,12.376-19.656,18.415c-9.746,8.861-14.197,19.721-13.699,32.898c0.18,4.763,1.197,9.813-0.634,13.334
		c-18.964,0-36.937-0.148-54.902,0.119c-3.903,0.059-8.081,0.968-11.616,2.603C892.328,2865.706,883.991,2870.355,874.712,2875.166z
		"/>
	<path fill-rule="evenodd" d="M874.712,2875.166c9.279-4.811,17.616-9.46,26.253-13.456c3.535-1.635,7.713-2.544,11.616-2.603
		c17.965-0.268,35.938-0.119,54.902-0.119c1.831-3.521,0.813-8.571,0.634-13.334c-0.498-13.178,3.954-24.037,13.699-32.898
		c6.643-6.039,12.922-12.483,19.656-18.415c2.421-2.134,5.601-4.474,8.593-4.708c15.117-1.183,29.261-8.469,44.805-6.867
		c4.51,0.465,9.108,0.071,15.079,0.071c-3.516-8.443-6.219-15.475-9.336-22.318c-8.681-19.057-12.85-38.959-12.471-59.936
		c0.324-17.991-0.609-36.026,0.236-53.982c1.083-22.963,4.051-45.713,15.719-66.268c1.472-2.592,2.902-5.247,4.7-7.607
		c11.87-15.579,22.465-32.241,37.439-45.216c4.169-3.613,5.411-7.744,5.403-13.133c-0.034-22.313-0.341-44.66,0.73-66.933
		c1.482-30.833,4.318-61.579,10.215-91.969c2.202-11.347,3.713-22.826,5.917-36.6c-16.02,21.883-29.274,43.973-60.133,43.201
		c1.98,3.805,3.309,7.089,5.251,9.96c7.781,11.498,10.316,24.314,9.884,37.899c-0.326,10.282-0.928,20.556-1.227,30.838
		c-0.497,17.133-6.112,33.228-14.76,47.199c-18.816,30.402-45.52,50.524-82.932,50.684c-30.543,0.13-61.094-1.585-92.97-2.521
		c-2.133,4.934-5.106,10.816-7.264,16.983c-6.715,19.198-21.483,31.76-36.359,44.043c-7.854,6.485-17.358,9.217-27.92,8.691
		c-11.635-0.579-23.332-0.427-34.985-0.052c-12.496,0.402-23.694-2.824-33.626-10.35c-7.406-5.613-14.707-11.366-22.771-17.611
		c-9.996,8.166-22.524,8.407-35.214,7.89c-0.998-0.041-2.012-0.111-2.998,0.009c-34.822,4.223-63.58-10.35-90.729-29.527
		c-23.037-16.274-42.677-36.143-58.946-59.11c-12.653-17.864-19.351-38.527-25.18-59.407c-6.723-24.078-9.712-48.746-12.176-73.578
		c-2.541-25.614-2.561-51.252-0.848-76.763c1.952-29.082,3.928-58.301,11.098-86.78c0.313-1.245,0.259-2.583,0.386-4
		c-6.45-3.705-12.755-7.183-18.919-10.895c-23.861-14.368-40.212-34.131-45.726-62.185c-2.169-11.035-6.159-21.697-8.832-32.649
		c-3.696-15.133-6.365-30.535-10.514-45.534c-4.529-16.371-4.366-32.965-3.547-49.516c0.513-10.375,4.518-20.329,12.306-27.665
		c8.255-7.775,9.861-15.788,7.88-27.265c-5.923-34.312-10.462-68.892-14.498-103.489c-2.036-17.455-1.879-35.171-2.6-52.774
		c-0.544-13.281-1.402-26.578-1.243-39.856c0.315-26.271,0.468-52.581,2.085-78.788c2.592-42.038,6.588-83.935,12.796-125.672
		c7.192-48.356,16.698-96.11,31.617-142.648c15.113-47.145,32.861-93.34,56.325-137.028c22.963-42.755,46.803-85.044,70.504-127.399
		c12.016-21.475,24.811-42.516,36.738-64.038c3.326-6.001,5.129-12.929,7.09-19.591c20.66-70.171,48.479-137.3,86.256-200.023
		c19.421-32.248,41.773-62.37,67.388-90.215c28.641-31.134,61.916-56.28,96.208-80.538c33.884-23.971,69.818-44.024,108.674-58.4
		c24.943-9.229,50.447-17.043,75.97-24.577c27.759-8.193,55.698-15.875,83.805-22.774c28.723-7.051,57.815-12.339,87.329-15.251
		c18.496-1.825,36.837-5.2,55.331-7.054c23.132-2.319,46.326-4.164,69.535-5.507c17.264-1,34.589-1.014,51.891-1.226
		c30.854-0.378,60.896,4.784,91.333,13.99c8.185-6.579,14.811-16.505,26.606-19.025c10.679-2.281,21.28-4.923,33.32-7.734
		c0.14-0.285,1.201-1.944,1.798-3.755c9.824-29.825,26.623-55.675,45.591-80.303c12.173-15.804,24.202-31.722,36.55-47.387
		c3.001-3.81,1.945-7.083,0.988-11.086c-7.817-32.715-7.214-65.208,3.505-97.258c2.992-8.945,8.158-16.52,14.885-23.303
		c10.114-10.197,20.794-19.583,32.445-28.016c16.503-11.946,35.145-18.734,54.573-23.607c9.628-2.416,19.502-4.061,29.364-5.229
		c4.866-0.576,6.745-3.739,9.087-6.844c15.516-20.567,33.189-39.114,53.878-54.424c30.046-22.234,63.313-37.863,100.087-45.431
		c29.556-6.084,59.456-7.016,89.403-4.32c8.157,0.734,16.732,2.655,24.013,6.258c28.299,14.003,56.953,27.576,81.264,48.334
		c19.07,16.285,35.214,35.211,50.051,55.343c3.927,5.327,7.986,10.658,12.654,15.314c14.003,13.965,26.666,28.82,33.885,47.546
		c1.993,5.171,5.432,7.83,10.802,8.969c18.542,3.931,33.719,13.671,46.319,27.636c8.676,9.616,18.041,18.718,25.805,29.024
		c10.469,13.894,15.041,30.277,15.124,47.636c0.052,10.937-0.953,21.877-1.354,32.821c-0.262,7.175-2.798,13.546-6.126,19.776
		c-11.435,21.401-22.753,42.866-34.359,64.771c10.853,22.524,22.241,46.199,26.814,72.316c1.361,7.779,0.716,15.898,1.143,23.854
		c1.809,33.72-5.172,66.083-14.992,98.018c-0.676,2.198-1.324,4.405-2.252,7.5c3.045,0.217,5.506,0.541,7.967,0.545
		c23.996,0.038,48.019-0.716,71.981,0.174c52.552,1.952,104.862,6.405,155.526,21.829c27.126,8.257,52.931,19.744,77.621,33.721
		c2.85,1.613,5.903,3.223,9.06,3.878c90.489,18.786,168.983,61.172,238.247,121.443c44.771,38.959,85.871,81.539,121.144,129.354
		c16.371,22.192,31.015,45.664,46.261,68.676c2.731,4.123,4.655,8.794,6.824,13.272c8.244,17.014,20.801,30.699,33.488,44.397
		c6.524,7.043,12.527,14.748,17.689,22.84c13.695,21.47,30.627,40.213,47.941,58.667c17.557,18.712,34.831,37.622,47.144,60.418
		c3.162,5.854,6.725,11.526,9.46,17.572c13.232,29.256,31.89,55.215,48.906,82.221c17.433,27.667,30.271,57.641,38.341,89.467
		c7.595,29.949,13.497,60.427,22.863,89.804c11.545,36.205,18.978,73.297,27.886,110.083c1.322,5.458,2.355,11.087,2.601,16.678
		c0.229,5.208,2.414,8.488,6.357,11.635c9.348,7.464,18.099,15.683,27.511,23.061c11.992,9.4,17.002,22.754,20.845,36.464
		c7.859,28.041,7.653,56.412,1.385,84.784c-1.072,4.853-2.606,9.658-3.063,14.566c-0.246,2.642,1.024,5.599,2.178,8.156
		c2.03,4.5,5.044,8.609,6.681,13.225c6.024,16.979,16.515,30.978,28.281,44.253c12.999,14.667,25.726,29.578,38.793,44.185
		c4.415,4.937,9.737,9.052,14.248,13.911c13.568,14.614,26.638,29.705,40.489,44.041c11.048,11.434,13.856,25.329,14.407,40.259
		c0.098,2.644,0.014,5.296,0.014,8.405c3.591,1.299,6.955,2.427,10.254,3.724c13.283,5.227,23.091,15.346,30.381,26.587
		c5.114,7.884,7.104,18.745,7.648,28.436c1.007,17.915,0.061,35.95-0.338,53.928c-0.191,8.648-3.918,15.77-9.866,22.177
		c-11.021,11.871-23.441,21.57-38.318,28.162c-5.111,2.265-9.833,5.411-15.111,8.368c2.96,14.596,5.831,28.857,8.752,43.109
		c1.109,5.41,0.693,12.473,3.989,15.693c2.943,2.877,10.037,1.826,15.31,1.926c7.854,0.149,13.489,4.103,19.389,8.829
		c22.538,18.058,28.189,43.188,30.571,69.927c1.323,14.86,2.911,29.697,4.366,44.547c0.772,7.876,1.52,15.754,2.405,24.951
		c3.854,0,7.403,0.189,10.927-0.037c8.805-0.565,16.474,2.06,22.712,8.222c6.62,6.539,13.365,13.032,19.227,20.222
		c2.784,3.415,4.97,8.349,5.134,12.682c0.552,14.564,2.935,29.468-1.448,43.66c-7.199,23.315-21.473,40.302-46.409,45.907
		c-5.183,1.166-8.473,3.93-12.144,7.627c-12.644,12.739-25.543,25.313-39.275,36.841c-6.177,5.186-14.25,8.609-21.989,11.339
		c-19.505,6.878-39.537,10.129-60.462,11.174c-25.604,1.277-51.168,2.175-76.79,2.467c-7.868,0.09-14.345-2.686-20.261-7.028
		c-12.312-9.038-18.716-21.728-22.164-36.401c-2.035-8.661-4.832-17.225-8.154-25.483c-7.994-19.873-12.793-40.55-15.937-61.604
		c-2.444-16.375-3.953-32.891-5.86-49.346c-1.141-9.842-2.245-19.689-3.459-30.355c-2.734-0.243-5.612-0.798-8.468-0.706
		c-25.434,0.819-46.789-8.325-64.416-26.392c-8.364-8.572-16.535-17.341-24.57-26.224c-15.058-16.646-20.252-37.058-21.479-58.736
		c-0.538-9.505-0.091-19.066-0.091-30.188c-3.239,2.165-5.175,3.195-6.8,4.588c-10.504,8.986-22.176,15.887-35.525,19.628
		c-4.103,1.149-8.431,1.989-12.672,2.068c-28.633,0.529-57.255-0.239-85.61-4.373c-9.054-1.319-18.111-4.393-26.479-8.181
		c-10.869-4.922-21.021-11.416-31.537-17.129c-12.518-6.799-22.41-16.742-31.735-27.154c-8.405-9.384-11.825-21.494-15.394-33.244
		c-3.269-10.77-5.646-21.81-8.411-32.714c-12.922,7.907-25.903,15.85-39.438,24.131c1.262,1.502,2.751,3.496,4.469,5.271
		c3.938,4.072,8.132,7.903,11.968,12.067c11.672,12.671,19.352,26.932,17.926,44.927c-0.446,5.63-0.651,11.396,0.031,16.979
		c2.827,23.136-8.32,40.488-23.149,56.098c-10.493,11.045-21.769,21.345-31.931,31.232c5.708,6.223,11.321,12.762,17.381,18.856
		c11.834,11.905,18.622,25.685,17.665,42.866c-0.389,6.979-0.147,13.996-0.049,20.994c0.308,21.891-8.891,39.944-22.902,55.88
		c-4.366,4.966-9.694,9.086-15.768,14.688c15.83,7.257,25.361,19.341,36.29,29.848c10.452,10.047,14.89,22.746,15.57,36.737
		c0.582,11.971,0.422,24.001,0.038,35.986c-0.416,12.947-5.113,24.857-12.014,35.483c-12.997,20.013-29.908,36.426-49.661,49.83
		c-3.259,2.21-6.939,3.799-11.324,6.159c2.5,0.799,4.179,1.767,5.88,1.812c12.09,0.317,21.672,6.347,30.191,13.929
		c10.438,9.289,20.584,18.974,30.152,29.151c5.627,5.985,9.887,13.257,15.059,20.36c0.06,0.021,0.702,0.513,1.289,0.454
		c19.911-2.001,36.991,6.649,54.14,14.644c45.262,21.101,82.24,52.352,112.094,92.242c14.483,19.354,22.427,41.209,26.3,64.94
		c4.602,28.183,10.572,56.15,14.796,84.384c2.939,19.646,4.478,39.554,5.646,59.402c1.153,19.57,1.279,39.214,1.459,58.828
		c0.313,34.034-8.694,65.394-25.796,94.958c-15.375,26.581-34.957,49.305-57.72,69.521c-10.422,9.257-21.048,18.313-31.969,26.972
		c-22.781,18.063-48.909,27.726-77.83,30.264c-21.511,1.888-42.95,4.766-64.49,6.068c-18.26,1.104-36.626,0.309-54.933,0.836
		c-42.601,1.228-84.423-3.827-124.994-16.76c-36.77-11.72-70.549-29.129-98.86-56.166c-21.6-20.627-39.203-44.229-54.768-69.566
		c-11.217-18.259-16.37-38.511-19.673-59.233c-6.668-41.834-8.938-84.039-5.935-126.26c2.432-34.152,9.306-67.746,19.066-100.592
		c7.278-24.495,19.997-46.304,35.593-66.477c15.685-20.287,32.086-39.854,51.476-56.847c8.188-7.175,17.194-12.375,27.149-16.305
		c17.591-6.944,35.176-13.902,52.504-20.752c12.126-36.097,28.971-54.368,69.144-75.29c-30.14-9.777-46.678-33.749-61.169-59.528
		c-2.829-5.031-4.142-11.449-4.378-17.3c-0.579-14.301-1.326-28.776,0.223-42.938c2.023-18.491,9.302-35.299,22.756-48.808
		c6.078-6.104,12.331-12.034,19.271-18.785c-5.139-5.163-9.582-9.549-13.939-14.021c-11.28-11.581-20.402-24.598-25.44-40.089
		c-1.415-4.349-2.189-9.044-2.396-13.618c-0.376-8.314,0.391-16.696-0.213-24.984c-1.188-16.313,4.7-30.152,14.603-42.319
		c8.586-10.551,18.165-20.293,27.303-30.393c1.307-1.445,2.603-2.902,4.525-5.048c-5.805-5.854-11.43-11.417-16.932-17.102
		c-11.759-12.15-19.514-25.874-18.172-43.637c0.627-8.285,0.479-16.678,0.006-24.982c-0.49-8.612,1.653-16.432,5.126-24.122
		c10.839-24.01,28.298-42.494,48.834-58.336c3.626-2.799,8.052-4.563,13.254-7.437c-2.728-2.861-5.219-5.791-8.033-8.367
		c-8.654-7.927-16.135-16.752-21.838-27.062c-4.259-7.694-6.909-15.664-6.663-24.67c0.346-12.655-0.405-25.35,0.197-37.986
		c1.062-22.303,6.553-43.388,20.214-61.585c10.557-14.062,24.099-24.864,39.536-32.985c4.767-2.508,10.871-2.597,16.417-3.446
		c2.79-0.427,5.697-0.074,11.204-0.074c-6.125-6.18-10.148-10.937-14.868-14.856c-9.874-8.203-12.491-19.333-13.192-31.178
		c-0.473-7.971,0.238-16.01-0.185-23.986c-0.472-8.901,2.387-16.422,8.3-22.759c8.63-9.249,17.528-18.249,26.301-27.366
		c1.147-1.192,2.23-2.446,3.065-3.366c-1.039-7.247-1.819-14.109-3.114-20.872c-0.398-2.075-1.858-4.245-3.427-5.756
		c-43.136-41.557-77.83-90.017-112.89-138.156c-8.021-11.015-15.145-22.691-22.552-34.146c-2.763-4.274-5.982-7.263-10.971-9.407
		c-20.159-8.662-40.001-18.061-59.95-27.208c-3.567-1.637-7.091-3.369-10.842-5.157c-2.779,5.854-3.075,10.617-2.127,16.634
		c1.694,10.744,0.919,21.904,0.764,32.885c-0.029,2.005-1.701,4.264-3.166,5.918c-4.407,4.976-8.596,10.344-13.781,14.389
		c-7.408,5.778-11.178,13.553-14.756,21.725c-23.257,53.11-53.452,101.781-92.379,144.938c-3.643,4.038-6.273,9.305-8.299,14.426
		c-7.356,18.599-15.845,36.568-26.101,53.784c-11.058,18.566-20.372,38.229-32.176,56.283
		c-27.566,42.172-58.959,81.383-95.543,116.197c-5.058,4.813-8.175,10.081-9.528,16.85c-4.395,21.972-15.668,41.079-27.313,59.552
		c-20.748,32.918-43.073,64.841-64.547,97.308c-2.072,3.135-3.942,7.151-3.97,10.774c-0.269,35.916-2.539,71.687-6.434,107.386
		c-3.454,31.668-6.671,63.364-9.582,95.085c-1.425,15.537-2.042,31.154-2.804,46.745c-1.443,29.532-3.167,59.061-3.963,88.612
		c-0.923,34.246-1.667,68.527-1.109,102.771c0.285,17.502,3.353,34.986,5.646,52.414c0.771,5.866,2.66,11.676,4.713,17.263
		c3.477,9.462,6.019,18.963,5.412,29.182c-0.335,5.646-0.146,11.329-0.045,16.992c0.37,20.71-6.339,37.634-25.903,47.658
		c2.173,16.092,2.539,32.016,8.989,46.989c3.501,8.125,7.875,13.396,17.253,15.8c38.632,9.905,77.195,20.168,115.446,31.441
		c40.621,11.972,75.804,33.642,105.513,63.877c15.071,15.336,25.277,34.138,29.1,54.838c4.763,25.793-0.701,49.354-20.364,69.622
		c-19.096,19.684-41.169,28.365-67.795,27.695c-13.265-0.332-26.525-0.832-39.812-1.258c-7.401,8.222-15.157,16.793-22.864,25.409
		c-7.366,8.234-16.776,11.806-27.576,11.813c-11.984,0.008-23.973-0.201-35.951-0.58c-3.576-0.113-6.153,0.572-8.75,3.38
		c-7.914,8.554-16.136,16.832-24.433,25.02c-9.635,9.508-21.024,14.669-34.908,14.307c-15.615-0.41-31.43,1.232-46.523-4.094
		c-11.256-3.973-22.774-7.694-33.259-13.254c-17.561-9.313-36.451-16.408-51.842-29.57c-13.891-11.879-28.01-23.496-41.744-35.551
		c-18.26-16.026-39.161-25.874-63.263-29.45c-14.785-2.194-29.385-5.62-44.11-8.25c-5.522-0.986-11.175-1.869-16.756-1.803
		c-32.809,0.393-59.683-12.77-83.479-34.528c-15.819-14.467-27.853-31.26-35.745-50.968c-2.666-6.657-4.502-13.985-4.949-21.117
		c-0.788-12.616-0.799-25.352-0.023-37.968c0.543-8.85,2.929-17.585,4.633-27.163c-6.223-3.079-13.792-4.06-21.208-4.197
		c-28.792-0.534-52.101-12.143-70.555-33.882c-1.805-2.127-3.278-5.154-3.521-7.888c-1.408-15.857-2.852-31.736-3.442-47.64
		c-1.207-32.565-1.476-65.168-2.903-97.723c-1.104-25.188-3.43-50.322-5.125-75.486c-1.427-21.198-2.714-42.405-4.095-63.608
		c-0.151-2.314-0.508-4.617-0.985-8.832c-1.46,3.526-2.566,5.37-3,7.36c-9.727,44.754-24.308,87.72-46.846,127.774
		c-10.665,18.952-23.646,36.305-38.728,51.823c-22.486,23.138-44.253,47.225-71.271,65.389
		c-15.718,10.568-32.036,20.243-49.796,31.395c0,4.153-0.136,10.063,0.029,15.965c0.293,10.524-2.651,19.474-10.912,26.638
		c-6.721,5.828-12.116,12.819-21.746,15.113c-4.61,1.098-8.454,6.179-12.225,9.883c-7.264,7.133-15.436,10.841-25.915,9.692
		c-9.867-1.08-19.831-1.363-29.762-1.702c-2.068-0.07-4.798,0.526-6.175,1.88c-12.003,11.801-27.067,12.969-42.598,12.859
		c-13.611-0.097-27.466,1.043-40.486-3.64c-7.998-2.876-15.302-7.684-24.078-12.225c-3.407,3.401-7.581,7.572-11.756,11.741
		c-4.009,4.004-7.808,8.248-12.067,11.965c-12.849,11.211-26.666,19.767-44.995,17.142c-6.87-0.983-14.106,0.411-20.913-0.778
		c-12.275-2.146-23.5-6.779-32.288-16.444c-9.625-10.584-20.485-20.101-29.568-31.104c-5.82-7.051-10.767-15.485-13.703-24.117
		c-6.173-18.154-10.764-36.848-16.094-55.634c0.208-0.041-1.018-0.177-1.556,0.367c-12.167,12.31-27.726,15.08-44.004,15.535
		c-10.278,0.287-20.571,0.054-31.441,0.054c-2.599,10.216-5.372,20.595-13.134,28.325c-7.527,7.495-15.32,14.756-23.375,21.681
		c-6.277,5.396-13.896,7.313-22.267,7.198c-18.244-0.25-36.493-0.076-56.228-0.076c0,2.154-0.072,5.331,0.011,8.503
		c1.117,42.462-5.811,84.081-13.102,125.666c-6.462,36.856-22.242,69.042-45.55,98.418c-21.803,27.479-45.331,53.2-70.835,77.076
		c-12.824,12.005-27.976,21.485-41.255,33.052c-27.509,23.963-60.572,36.719-94.397,47.898
		c-13.517,4.469-27.426,8.233-41.451,10.515c-10.728,1.746-21.927,0.422-32.9,0.867c-29.824,1.209-58.981-3.86-88.148-8.962
		c-8.188-1.433-16.377-2.867-24.586-4.17c-40.646-6.449-78.338-20.391-112.685-43.361c-17.702-11.838-36.075-22.714-51.763-37.292
		c-36.277-33.711-69.361-70.059-92.115-114.602c-21.736-42.551-35.604-87.539-37.571-135.429
		c-1.542-37.57-1.638-75.225-1.411-112.836c0.287-47.513,10.817-92.861,31.677-135.664c7.203-14.781,16.699-27.971,28.535-39.425
		c16.255-15.731,30.761-33.479,49.914-45.921c23.415-15.211,46.943-30.32,71.113-44.277c30.291-17.49,62.032-31.986,95.926-41.36
		c23.51-6.501,47.329-10.643,71.782-10.647c11.332-0.002,22.686,0.46,33.99-0.1c20.98-1.04,40.882,3.477,60.764,9.553
		c46.302,14.15,88.23,36.281,127.401,64.749c18.772,13.643,38.623,26.071,55.921,41.441c28.679,25.486,54.323,53.87,72.498,88.233
		C865.813,2861.979,870.648,2868.697,874.712,2875.166z"/>
</g>
</svg>
