<?xml version="1.0" encoding="utf-8"?>
<!-- Generator: Adobe Illustrator 16.0.2, SVG Export Plug-In . SVG Version: 6.00 Build 0)  -->
<!DOCTYPE svg PUBLIC "-//W3C//DTD SVG 1.1//EN" "http://www.w3.org/Graphics/SVG/1.1/DTD/svg11.dtd">
<svg version="1.1" id="Layer_1" xmlns="http://www.w3.org/2000/svg" xmlns:xlink="http://www.w3.org/1999/xlink" x="0px" y="0px"
	 width="3623.547px" height="3997.5px" viewBox="0 0 3623.547 3997.5" enable-background="new 0 0 3623.547 3997.5"
	 xml:space="preserve">
<g>
	<path fill-rule="evenodd" clip-rule="evenodd" fill="#FFFFFF" d="M3627.434,4001.387c-1208.554,0-2416.993,0-3625.321,0
		c0-1333.204,0-2666.296,0-3999.274c1208.554,0,2416.993,0,3625.321,0C3627.434,1335.316,3627.434,2668.408,3627.434,4001.387z
		 M1016.487,3443.319c-2.228,0.385-3.09,0.685-3.941,0.659c-12.631-0.37-25.262-1.069-37.889-1.016
		c-3.787,0.017-8.019,1.365-11.271,3.365c-16.536,10.166-31.387,22.486-44.02,37.253c-2.701,3.157-4.665,7.429-5.62,11.503
		c-2.415,10.307-3.824,20.847-6.083,31.194c-2.423,11.093-0.835,23.416-9.893,32.604c-1.195,1.212-1.433,3.75-1.449,5.68
		c-0.126,14.932-0.409,29.79,3.27,44.563c3.604,14.477,5.96,29.272,8.633,43.971c4.566,25.106,8.624,50.312,13.606,75.334
		c1.594,8.004,3.979,16.609,8.618,23.059c5.718,7.949,13.387,15.17,21.667,20.402c7.612,4.81,16.939,8.112,25.89,9.355
		c20.68,2.871,41.556,4.742,62.415,5.789c18.211,0.914,36.536,2.097,54.72-1.657c7.431-1.533,15.128-2.581,22.69-2.505
		c14.965,0.15,28.852-3.262,42.538-9.137c32.063-13.766,64.241-27.308,98.562-34.751c4.524-0.98,8.892-2.737,13.285-4.269
		c23.954-8.352,46.259-20.287,68.684-31.914c26.559-13.771,52.825-27.78,77.094-45.765c24.987-18.518,48.49-38.381,70.085-60.648
		c8.916-9.193,15.956-19.427,19.792-31.839c7.249-23.459,14.812-46.818,21.883-69.083c7.092,2.181,13.413,5.135,19.988,5.897
		c8.551,0.99,17.306,0.125,25.967,0.297c3.588,0.072,6.251-1,8.768-3.642c6.435-6.752,13.494-12.933,19.675-19.898
		c7.288-8.21,13.22-17.235,16.66-28.022c5.948-18.648,12.792-37.015,19.358-55.464c0.771-2.167,2.172-4.109,3.264-6.166
		c8.683-16.347,13.382-34.01,16.574-52.061c4.091-23.132,2.042-46.477,1.205-69.723c-0.249-6.919-2.807-13.506-8.698-18.399
		c-7.157-5.947-14.349-11.98-20.691-18.759c-14.445-15.437-33.553-23.548-51.263-33.898c-1.838-1.074-3.978-2.404-4.883-4.176
		c-4.186-8.188-7.984-16.575-12.034-25.128c6.641-4.303,12.846-8.208,21.226-7.83c3.432,0.154,7.297-2.391,10.429-4.503
		c2.984-2.013,5.108-5.249,7.896-7.611c4.976-4.219,6.935-9.6,6.923-15.914c-0.009-4.226-0.002-8.452-0.002-12.943
		c7.395-0.758,12.88-2.198,18.144-6.788c9.353-8.155,13.896-17.164,11.96-29.528c-0.611-3.903-0.247-7.991-0.065-11.981
		c0.262-5.723-1.707-10.298-5.951-14.18c-3.837-3.511-7.319-7.408-11.781-11.977c11.716-6.392,11.701-16.346,11.076-26.605
		c-0.263-4.318-0.011-8.664-0.067-12.996c-0.021-1.649,0.398-3.952-0.494-4.842c-6.847-6.824-11.597-16.409-23.068-17.839
		c-0.136-1.97-0.74-4.031-0.331-5.869c3.18-14.275-5.086-23.034-14.729-31.187c-0.255-0.216-0.467-0.522-0.758-0.646
		c-1.78-0.757-3.569-2.082-5.37-2.105c-13.284-0.18-26.571-0.098-40.62-0.098c-19.303-24.08-20.417-24.599-52.94-24.062
		c-1.333,0.021-2.696-0.131-3.991,0.098c-1.597,0.283-3.696,0.386-4.615,1.421c-8.094,9.113-21.118,15.05-19.203,31.346
		c-4.312,0-7.893-0.003-11.473,0.001c-19.658,0.022-19.595,0.084-33.355,14.247c-3.185,3.279-5.536,6.64-4.974,11.386
		c0.553,4.672-0.903,8.426-4.633,11.393c-3.995,3.177-4.995,7.467-4.789,12.457c0.298,7.228,0.077,14.477,0.077,21.757
		c-8.751-0.457-16.333-1.308-23.889-1.118c-7.181,0.181-13.663-0.536-19.436-5.401c-2.459-2.073-5.752-4.011-8.833-4.313
		c-6.288-0.616-10.104-4.451-14.251-8.36c-5.798-5.464-11.338-11.472-17.969-15.713c-9.482-6.065-19.685-11.098-29.912-15.858
		c-4.778-2.224-7.422-5.028-8.27-10.146c-2.377-14.369-5.17-28.672-7.44-43.058c-3.39-21.478-9.874-41.338-26.523-56.657
		c-2.796-2.573-4.463-6.518-6.23-10.041c-11.6-23.118-28.478-41.689-49.627-56.206c-17.685-12.138-38.31-16.83-59.13-19.515
		c-9.287-1.197-13.707-5.711-17.682-13.28c-11.289-21.497-23.027-42.766-34.927-63.934c-5.333-9.488-11.473-18.524-17.731-28.539
		c16.11-8.849,27.5-22.443,40.226-34.572c5.459-5.204,8.124-10.883,7.744-18.528c-0.904-18.181,1.773-36.504-2.907-54.933
		c11.744-7.033,23.346-13.517,34.46-20.75c16.169-10.523,31.459-22.482,48.06-32.239c38.975-22.908,76.536-48.219,117.271-68.185
		c17.875-8.763,34.625-19.811,51.947-29.715c20.905-11.952,40.351-25.654,57.175-43.166c6.568-6.836,9.74-13.832,9.214-22.952
		c-0.135-2.325-0.526-4.819,0.116-6.96c0.891-2.968,1.91-6.663,4.151-8.335c17.57-13.103,34.026-27.746,53.483-38.268
		c16.379-8.856,32.726-17.833,48.596-27.559c27.227-16.687,54.062-34.012,81.089-51.023c2.432-1.53,5.075-2.728,8.25-4.414
		c0.43,2.119,1.065,3.396,0.858,4.516c-2.183,11.809,5.342,20.433,11.033,28.751c6.496,9.495,15.682,17.144,27.087,21.292
		c7.496,2.728,14.83,5.9,22.235,8.877c7.814,3.142,15.856,4.669,24.351,4.328c20.602-0.827,41.212-1.796,61.823-1.879
		c10.361-0.043,19.961-0.254,26.756-9.643c1.08-1.493,3.46-1.97,4.942-3.258c8.971-7.802,18.221-14.968,22.308-27.278
		c4.45-13.402,6.313-26.921,7.979-40.846c2.915-24.355,7.884-48.467,12.044-72.671c1.831-10.662,3.788-21.304,5.71-32.077
		c18.152,1.245,35.353,2.732,52.586,3.527c21.594,0.998,43.214,1.44,64.825,2.095c10.641,0.322,21.283,0.673,31.929,0.815
		c3.56,0.049,6.51,0.494,8.18,4.191c4.948,10.958,14.245,18.318,22.613,26.316c3.182,3.042,7.837,6.085,11.97,6.302
		c12.939,0.682,25.95-0.063,38.934-0.094c6.252-0.016,12.738-0.688,18.722,0.676c34.849,7.937,70.082,11.767,105.808,11.889
		c12.947,0.044,25.953,0.662,38.822,2.048c36.988,3.981,74.012,7.693,110.266,16.77c39.465,9.881,78.005,22.304,114.576,40.243
		c17.44,8.555,33.053,19.786,45.791,34.756c8.83,10.377,17.161,21.403,27.227,30.46c20.092,18.075,34.805,39.291,42.377,65.191
		c2.78,9.512,5.74,19.361,6.018,29.131c0.499,17.572-1.131,35.197-1.512,52.808c-0.122,5.607,0.076,11.459,1.525,16.823
		c7.272,26.905,14.824,53.771,34.715,75.776c-3.028,2.854-5.68,6.539-9.271,8.528c-14.556,8.058-25.823,19.859-37.051,31.676
		c-7.011,7.378-11.744,16.098-12.021,26.679c-0.417,15.952-1.64,31.929-1.094,47.846c0.538,15.696,5.848,29.921,18.141,40.809
		c4.732,4.19,8.97,8.937,13.479,13.381c17.907,17.649,37.391,32.911,61.104,42.305c10.795,4.275,21.453,9.16,31.548,14.877
		c17.647,9.994,34.775,20.902,52.185,31.319c19.934,11.927,39.297,25.167,63.618,27.938c6.911,13.818-3.24,25.657-3.435,39.321
		c-8.568,0-16.526,0.354-24.436-0.113c-6.229-0.37-10.85,1.808-14.939,6.227c-3.979,4.298-8.261,8.313-12.159,12.204
		c-2.663-3.279-4.556-5.984-6.819-8.332c-12.418-12.886-12.449-12.855-29.974-12.855c-18.876,0-18.769,0.104-31.8,13.7
		c-3.99,4.162-5.769,8.609-5.501,14.332c0.322,6.893,0.076,13.813,0.076,21.961c-6.313,0-11.61,0.466-16.795-0.101
		c-9.691-1.059-16.869,2.107-23.669,9.35c-6.149,6.548-10.125,12.896-8.923,22.019c0.388,2.948,0.314,6.018,0.012,8.985
		c-0.852,8.357,0.229,15.933,8.963,21.583c-2.911,2.444-5.349,4.171-7.405,6.271c-16.385,16.726-13.24,9.639-13.469,31.828
		c-0.188,18.264,0.03,18.192,13.351,30.767c3.854,3.637,7.888,5.841,13.362,5.346c3.845-0.348,7.744-0.067,13.771-0.067
		c-5.221,13.418,4.476,18.518,10.723,25.619c3.633,4.128,7.722,5.575,13.111,5.338c8.245-0.362,16.518-0.095,25.175-0.095
		c0.189,3.909,0.209,6.854,0.498,9.771c0.661,6.692,2.373,12.589,7.759,17.613c17.512,16.337,9.349,13.363,33.808,13.738
		c2.999,0.047,6.039,0.285,8.985-0.119c2.182-0.3,4.724-0.972,6.269-2.39c5.396-4.952,10.755-10.028,15.442-15.631
		c1.908-2.281,2.463-5.975,2.916-9.129c0.732-5.089,0.871-10.264,1.347-16.563c6.147,3.067,11.075,5.691,16.15,7.99
		c2.643,1.197,5.519,2.47,8.334,2.586c8.318,0.342,16.666,0.31,24.987,0.008c2.428-0.087,5.266-0.995,7.129-2.501
		c14.128-11.414,14.771-12.98,14.804-31.068c0.001-0.333,0.048-0.674-0.007-0.998c-1.034-6.188,1.495-10.614,6.01-14.838
		c4.929-4.608,10.918-8.555,12.947-15.848c1.058,0.595,2.063,0.912,2.727,1.572c10.864,10.769,21.693,21.572,32.514,32.385
		c16.032,16.019,31.957,32.147,48.134,48.018c5.208,5.109,10.62,10.282,16.768,14.084c5.489,3.396,12.063,6.742,18.266,6.951
		c15.92,0.534,31.904-0.564,47.853-1.232c30.03-1.259,57.788-12.245,85.924-21.098c14.75-4.64,23.744-17.559,32.597-29.682
		c0.93-1.274,1.538-3.055,1.62-4.636c0.739-14.28,2.155-28.65-1.871-42.661c-1.328-4.621-3.955-8.867-6.295-13.949
		c15.643-3.656,30.571-6.915,45.381-10.647c51.591-13.001,98.441-36.026,141.62-66.934c8.327-5.961,17.62-10.559,26.326-16.011
		c4.179-2.617,8.223-5.531,11.986-8.712c10.908-9.219,21.308-19.073,32.555-27.846c8.894-6.937,18.69-12.732,28.188-18.877
		c21.71-14.045,39.791-32.223,57.604-50.668c4.812-4.981,9.17-10.53,12.993-16.311c12.895-19.489,22.789-40.597,31.754-62.085
		c4.834-11.587,9.164-23.529,12.196-35.689c5.2-20.855,3.62-42.319,3.296-63.56c-0.154-10.223-1.273-20.556-3.203-30.6
		c-3.903-20.309-6.614-40.633-6.08-61.375c0.17-6.591-1.025-13.213-1.527-19.826c-1.012-13.319-8.013-24.49-12.842-36.469
		c-7.59-18.826-18.668-35.205-33.364-49.088c-12.289-11.609-27.228-17.727-43.993-18.309c-12.948-0.45-25.964,0.096-38.914,0.836
		c-11.543,0.661-22.157,4.755-30.901,12.379c-24.087,21.003-41.777,47.17-59.244,73.595c-13.002,19.672-25.93,39.578-40.915,57.708
		c-18.621,22.528-39.266,43.392-59.166,64.854c-8.602,9.276-17.417,18.363-26.348,27.323c-9.029,9.059-18.322,17.855-27.498,26.767
		c-1.271-2.646-0.849-4.174-0.454-5.709c3.49-13.584,5.742-27.293,5.392-41.415c-0.314-12.657-0.003-25.329-0.107-37.992
		c-0.03-3.647-0.05-7.414-0.926-10.912c-3.884-15.516-8.786-30.747-17.702-44.181c-15.656-23.586-31.938-46.729-52.039-66.875
		c-16.209-16.245-32.64-32.272-48.632-48.728c-22.496-23.15-44.726-46.562-66.925-69.997c-2.441-2.577-4.589-5.817-5.765-9.142
		c-8.402-23.743-21.325-45.014-35.271-65.764c-16.511-24.565-33.947-48.58-49.184-73.914
		c-24.888-41.386-50.854-82.038-79.521-120.852c-15.563-21.072-33.479-40.394-49.893-60.856
		c-16.262-20.274-33.274-39.83-51.979-57.876c-14.104-13.607-28.438-26.977-42.527-40.598
		c-23.942-23.142-47.576-46.605-71.728-69.525c-13.555-12.865-28.719-23.699-45.657-31.881
		c-25.135-12.14-50.105-24.623-75.367-36.49c-23.178-10.886-46.51-21.511-72.06-25.933c-3.53-0.61-6.932-1.954-11.744-3.35
		c0.747-5.304,1.352-10.43,2.231-15.506c0.449-2.598,1.956-5.095,2.02-7.662c0.548-21.961,1.257-43.847-8.822-64.537
		c-3.413-7.005-5.95-15.22-6.009-22.904c-0.104-13.725-5.168-24.528-14.529-33.789c-10.649-10.534-21.168-21.244-32.417-31.107
		c-3.683-3.229-9.384-5.394-14.32-5.734c-18.567-1.275-37.202-1.581-55.809-2.294c-3.149-0.121-6.29-0.46-10.381-0.77
		c1.42-8.306,2.452-15.487,3.899-22.584c3.445-16.898,7.644-33.661,10.521-50.651c4.437-26.179,7.676-52.558,12.089-78.74
		c2.923-17.341,7.472-34.405,10.483-51.734c7.189-41.352,10.522-83.041,9.418-125.037c-0.069-2.64-0.198-5.339-0.791-7.897
		c-3.694-15.945-5.523-32.047-4.522-48.423c0.02-0.332,0.029-0.67-0.01-0.999c-1.14-9.665-3.211-18.939-10.334-26.28
		c-6.486-6.685-12.614-13.735-19.347-20.157c-11.076-10.565-22.456-20.804-36.524-27.471c-2.332-1.106-4.511-2.792-6.366-4.612
		c-16.189-15.871-33.365-30.371-52.856-42.223c-16.605-10.098-33.907-18.387-52.384-24.187
		c-34.533-10.839-69.258-21.082-103.675-32.273c-22.113-7.191-43.747-15.841-65.733-23.441
		c-13.116-4.535-26.496-8.305-38.266-11.957c-17.571-31.181-44.067-48.767-77.446-58.422c1.667-2.288,2.681-3.95,3.951-5.384
		c15.873-17.922,31.673-35.911,47.74-53.658c6.109-6.749,9.862-13.902,8.751-23.356c-0.618-5.26-0.02-10.655-0.158-15.984
		c-0.059-2.265,0.207-5.219-1.049-6.664c-8.93-10.264-15.812-22.713-33.229-21.273c-22.777,1.882-44.985-2.427-66.361-10.945
		c-12.458-4.964-25.478-7.57-39.054-6.813c-5.647,0.314-11.33,0.084-16.993-0.034c-4.009-0.084-5.217-2.216-3.665-6.677
		c3.139-0.728,6.63-1.624,10.156-2.339c13.008-2.638,26.202-4.573,38.981-8.043c8.561-2.325,16.375-7.266,24.809-10.221
		c30.44-10.665,60.619-21.794,88.805-37.829c13.636-7.759,27.348-15.146,38.12-26.916c1.945-2.125,4.596-3.944,7.275-4.998
		c12.692-4.987,25.263-10.518,38.333-14.25c21.943-6.264,39.651-18.015,53.771-35.876c6.72-8.501,10.355-17.57,10.169-28.37
		c-0.185-10.662-0.339-21.34,0.039-31.992c0.429-12.072-4.057-22.04-12.006-30.641c-4.973-5.381-10.063-10.712-15.573-15.523
		c-9.804-8.56-21.04-13.692-34.475-13.392c-12.658,0.282-25.329,0.017-37.993,0.092c-2.977,0.018-6.021,0.104-8.913,0.723
		c-18.633,3.986-36.465,10.127-53.056,19.71c-3.682,2.127-7.801,4.023-11.938,4.724c-10.143,1.719-20.387,2.995-30.639,3.878
		c-22.861,1.971-45.878,3.246-67.735,10.848c-8.155,2.837-13.914,0.85-19.904-4.281c-3.99-3.417-8.537-6.201-12.936-9.115
		c-12.221-8.099-24.587-16.289-31.997-29.304c-3.862-6.783-5.707-14.752-8.205-22.271c-11.284-33.949-29.095-64.076-53.072-90.549
		c-5.001-5.521-8.626-11.245-10.28-18.815c-3.837-17.565-11.619-33.194-25.592-45.243c-4.28-3.689-8.043-7.976-12.066-11.965
		c-6.868-6.812-15.116-11.362-24.787-11.035c-19.174,0.649-38.629-3.179-57.509,3.351c-2.708,0.937-5.944,0.345-8.935,0.468
		c-3.322,0.137-6.921-0.499-9.912,0.567c-10.018,3.57-19.429,1.418-29.294-1.003c-37.031-9.093-74.718-13.277-112.807-11.319
		c-15,0.771-26.709-2.318-36.611-14.467c-7.578-9.295-18.702-13.351-31.183-13.012c-6.277,0.171-12.649-0.356-18.865-1.309
		c-22.338-3.418-44.506-8.399-67.348-6.576c-10.889,0.869-22.506-0.129-31.916,6.217c-21.394,14.428-39.581,32.446-55.538,52.729
		c-3.244,4.124-6.559,8.298-10.425,11.805c-19.268,17.472-37.844,35.632-53.086,56.776c-8.05,11.167-16.682,21.072-28.757,28.267
		c-10.51,6.262-19.453,15.15-29.955,21.43c-16.534,9.885-34.03,18.152-50.669,27.874c-12.016,7.02-24.747,9.038-38.25,8.896
		c-31.837-0.336-63.162,4.375-93.481,13.379c-42.666,12.672-84.966,26.674-126.202,43.602c-4.584,1.882-9.509,3.73-13.188,6.869
		c-9.863,8.417-19.387,17.274-28.548,26.454c-5.799,5.811-8.649,13.204-8.302,21.721c0.285,6.987,0.38,14.015-0.037,20.99
		c-0.382,6.401,1.484,11.983,5.341,16.706c10.579,12.952,21.92,25.166,37.918,31.597c30.329,12.193,61.895,20.071,93.839,26.6
		c4.549,0.929,9.121,1.872,13.553,3.23c18.106,5.547,36.093,11.491,54.254,16.848c20.087,5.925,40.159,12.042,61.448,12.191
		c4.527,0.031,9.044,1.438,13.779,2.246c0.18,2.226,0.466,3.843,0.376,5.438c-0.05,0.869-0.738,1.703-1.25,2.791
		c-32.354,3.843-62.486,14.578-91.406,30.242c-5.174-7.078-9.521-13.785-14.63-19.847c-8.911-10.572-16.87-22.849-32.862-23.494
		c-8.978-0.362-17.971-0.361-26.958-0.35c-1.575,0.002-3.539,0.423-4.663,1.406c-11.006,9.627-25.67,16.692-24.329,35.357
		c-16.489,1.979-30.655,7.529-41.002,20.676c-1.297,1.648-4.775,2.273-7.216,2.218c-19.28-0.442-38.562-0.982-57.827-1.845
		c-29.233-1.308-57.518,3.543-85.7,11.013c-52.545,13.928-103.368,31.376-151.42,57.719
		c-58.267,31.943-110.859,70.917-158.346,117.006c-15.261,14.813-29.126,31.059-43.727,46.558c-1.704,1.809-3.814,3.741-6.091,4.415
		c-9.848,2.919-20.084,4.701-29.667,8.271c-6.347,2.365-12.439,6.367-17.549,10.877c-7.456,6.581-13.829,14.374-20.842,21.476
		c-9.527,9.649-15.036,21.867-16.078,34.624c-1.537,18.838-1.799,38.114,0.435,56.84c2.624,21.988,7.541,43.814,15.852,64.637
		c2.87,7.189,5.729,14.217,12.003,19.18c6.767,5.353,6.9,11.244,3.874,19.247c-5.147,13.613-9.193,27.723-12.512,41.904
		c-1.161,4.957-2.507,9.185-5.238,13.483c-8.726,13.736-17.583,27.458-25.177,41.826c-9.364,17.716-5.008,37.102-4.491,55.88
		c0.114,4.144,1.906,8.384,3.546,12.321c8.427,20.228,23.091,34.591,42.44,44.448c3.557,1.812,7.264,3.432,10.543,5.667
		c18.356,12.513,39.143,16.391,60.704,16.414c18.201,0.019,36.403-1.259,55.493-1.996c0.989,4.44,2.753,9.831,3.271,15.338
		c0.634,6.744,3.783,11.996,8.042,16.728c4.23,4.701,8.594,9.361,13.432,13.401c2.319,1.936,5.842,3.298,8.864,3.386
		c22.291,0.646,44.609,0.511,66.885,1.428c14.226,0.585,25.449-3.291,35.134-14.425c11.758-13.518,26.606-24.583,34.59-41.05
		c8.399-17.325,16.012-35.077,23.043-53.005c4.342-11.076,7.098-22.712,7.326-34.916c0.122-6.508,2.12-13.02,3.601-19.455
		c1.863-8.091,4.989-16.001,5.898-24.176c1.319-11.844,1.34-23.853,1.539-35.797c0.155-9.312,0.535-18.73-0.588-27.93
		c-2.428-19.891-12.417-36.231-26.073-50.475c-5.708-5.955-11.633-11.703-17.619-17.707c3.185-5.656,5.922-10.564,8.704-15.446
		c8.157-14.318,20.085-25.529,30.664-37.907c15.694-18.364,33.425-34.294,52.765-48.518c19.89-14.625,41.121-27.101,63.518-37.501
		c9.47-4.397,19.086-6.614,29.869-3.628c16.927,4.689,34.177,8.21,51.276,12.282c17.497,4.167,34.48,9.539,50.387,18.332
		c27.379,15.137,55.518,28.749,84.55,40.514c9.786,3.965,19.087,9.123,28.577,13.719c0,6.29,0.432,11.653-0.088,16.923
		c-1.149,11.662,4.554,19.923,11.571,28.481c10.026,12.226,23.713,19.218,36.854,26.215c18.093,9.633,37.708,16.412,56.68,24.391
		c3.218,1.354,6.481,2.6,9.833,3.939c-6.737,24.816-12.598,48.66-19.701,72.128c-19.051,62.949-40.542,125.052-65.292,186.029
		c-19.958,49.175-44.376,95.957-73.047,140.568c-18.424,28.668-40.916,54.021-64.104,78.813c-7.95,8.5-16.597,16.494-23.536,25.76
		c-8.517,11.372-4.223,24.741-3.182,37.425c0.024,0.301,0.27,0.619,0.484,0.864c10.835,12.37,22.187,24.084,39.132,27.765
		c13.646,2.964,27.294,5.976,41.042,8.396c22.625,3.984,45.47,5.646,68.454,6.193c21.588,0.513,43.147,2.176,64.733,2.953
		c16.963,0.611,33.951,0.5,50.92,0.99c9.958,0.287,19.895,1.215,29.849,1.692c24.568,1.177,49.131,2.65,73.715,3.267
		c21.982,0.551,44.013,0.729,65.981-0.057c21.896-0.784,43.779-2.597,65.596-4.69c12.461-1.195,24.781-3.85,37.495-5.901
		c0,7.133,0.516,13.787-0.093,20.336c-2.245,24.172-4.544,48.308-2.778,72.646c0.537,7.393,3.051,13.46,8.516,18.465
		c11.771,10.781,23.367,21.754,35.186,32.481c5.864,5.323,6.163,9.76-0.121,14.675c-4.954,3.875-10.207,7.423-15.601,10.66
		c-7.124,4.274-14.607,7.946-21.778,12.15c-38.555,22.599-74.249,49.361-109.434,76.713c-43.082,33.488-83.84,69.787-122.963,107.79
		c-29.133,28.3-56.951,57.954-85.313,87.045c-8.367,8.582-16.435,17.461-24.918,25.924c-17.195,17.152-34.608,34.086-51.879,51.16
		c-13.506,13.354-27.829,26.011-40.222,40.333c-30.622,35.393-50.687,76.373-60.036,122.279
		c-7.632,37.473-12.323,75.27-12.108,113.682c0.18,32.279,0.625,64.523,4.833,96.531c4.855,36.916,13.264,73.153,22.868,109.108
		c9.965,37.307,23.411,73.431,36.368,109.767c14.474,40.59,33.834,78.814,53.197,117.081c9.779,19.325,22.265,36.967,36.907,51.655
		c-3.353,19.364-5.586,37.89-9.93,55.907c-5.288,21.932-6.408,43.961-6.232,66.326c0.128,16.199,4.616,30.665,13.194,44.242
		c10.916,17.272,24.12,32.548,38.552,46.943c12.83,12.797,26.896,22.781,45.941,23.976c3.649,12.005,7.253,23.688,10.751,35.405
		c8.231,27.566,20.517,52.681,42.726,71.983C1007.252,3433.51,1011.372,3438.184,1016.487,3443.319z"/>
	<path fill-rule="evenodd" clip-rule="evenodd" d="M1016.487,3443.319c-5.116-5.136-9.235-9.81-13.896-13.859
		c-22.209-19.303-34.495-44.417-42.726-71.983c-3.499-11.717-7.103-23.4-10.751-35.405c-19.045-1.194-33.111-11.179-45.941-23.976
		c-14.432-14.396-27.636-29.671-38.552-46.943c-8.579-13.577-13.066-28.043-13.194-44.242c-0.176-22.365,0.944-44.395,6.232-66.326
		c4.343-18.018,6.577-36.543,9.93-55.907c-14.642-14.688-27.127-32.33-36.907-51.655c-19.363-38.267-38.724-76.491-53.197-117.081
		c-12.957-36.336-26.403-72.46-36.368-109.767c-9.604-35.955-18.013-72.192-22.868-109.108c-4.208-32.008-4.654-64.252-4.833-96.531
		c-0.215-38.412,4.476-76.209,12.108-113.682c9.349-45.906,29.414-86.887,60.036-122.279c12.393-14.322,26.716-26.979,40.222-40.333
		c17.271-17.074,34.685-34.008,51.879-51.16c8.483-8.463,16.551-17.342,24.918-25.924c28.363-29.091,56.18-58.745,85.313-87.045
		c39.123-38.003,79.881-74.302,122.963-107.79c35.186-27.352,70.879-54.114,109.434-76.713c7.17-4.204,14.654-7.876,21.778-12.15
		c5.394-3.237,10.647-6.785,15.601-10.66c6.284-4.915,5.985-9.352,0.121-14.675c-11.819-10.728-23.415-21.701-35.186-32.481
		c-5.464-5.005-7.979-11.073-8.516-18.465c-1.766-24.338,0.533-48.474,2.778-72.646c0.608-6.55,0.093-13.203,0.093-20.336
		c-12.714,2.051-25.034,4.706-37.495,5.901c-21.817,2.093-43.7,3.906-65.596,4.69c-21.968,0.786-43.999,0.607-65.981,0.057
		c-24.584-0.616-49.146-2.09-73.715-3.267c-9.954-0.477-19.891-1.405-29.849-1.692c-16.97-0.49-33.958-0.379-50.92-0.99
		c-21.586-0.777-43.145-2.44-64.733-2.953c-22.983-0.547-45.828-2.209-68.454-6.193c-13.747-2.421-27.396-5.432-41.042-8.396
		c-16.945-3.681-28.296-15.396-39.132-27.765c-0.215-0.245-0.46-0.563-0.484-0.864c-1.041-12.684-5.334-26.053,3.182-37.425
		c6.939-9.266,15.586-17.26,23.536-25.76c23.188-24.792,45.681-50.145,64.104-78.813c28.671-44.611,53.089-91.393,73.047-140.568
		c24.749-60.977,46.24-123.08,65.292-186.029c7.103-23.469,12.963-47.313,19.701-72.128c-3.352-1.34-6.615-2.585-9.833-3.939
		c-18.972-7.979-38.587-14.758-56.68-24.391c-13.142-6.998-26.829-13.99-36.854-26.215c-7.017-8.558-12.72-16.819-11.571-28.481
		c0.52-5.27,0.088-10.633,0.088-16.923c-9.489-4.596-18.791-9.753-28.577-13.719c-29.032-11.765-57.17-25.377-84.55-40.514
		c-15.907-8.793-32.891-14.164-50.387-18.332c-17.099-4.072-34.349-7.593-51.276-12.282c-10.782-2.986-20.399-0.769-29.869,3.628
		c-22.396,10.4-43.628,22.876-63.518,37.501c-19.34,14.223-37.07,30.154-52.765,48.518c-10.579,12.378-22.507,23.589-30.664,37.907
		c-2.782,4.882-5.519,9.79-8.704,15.446c5.986,6.004,11.911,11.752,17.619,17.707c13.655,14.244,23.645,30.584,26.073,50.475
		c1.123,9.2,0.743,18.619,0.588,27.93c-0.199,11.944-0.22,23.953-1.539,35.797c-0.91,8.175-4.036,16.085-5.898,24.176
		c-1.481,6.435-3.479,12.947-3.601,19.455c-0.229,12.204-2.984,23.84-7.326,34.916c-7.031,17.929-14.644,35.68-23.043,53.005
		c-7.983,16.467-22.832,27.533-34.59,41.05c-9.685,11.134-20.908,15.011-35.134,14.425c-22.276-0.917-44.595-0.781-66.885-1.428
		c-3.022-0.088-6.545-1.45-8.864-3.386c-4.838-4.04-9.202-8.7-13.432-13.401c-4.258-4.732-7.408-9.984-8.042-16.728
		c-0.518-5.507-2.282-10.897-3.271-15.338c-19.09,0.737-37.292,2.014-55.493,1.996c-21.561-0.023-42.348-3.901-60.704-16.414
		c-3.279-2.235-6.986-3.855-10.543-5.667c-19.349-9.856-34.013-24.22-42.44-44.448c-1.64-3.937-3.432-8.177-3.546-12.321
		c-0.517-18.779-4.873-38.164,4.491-55.88c7.594-14.369,16.451-28.09,25.177-41.826c2.73-4.298,4.077-8.526,5.238-13.483
		c3.319-14.181,7.365-28.292,12.512-41.904c3.026-8.003,2.893-13.894-3.874-19.247c-6.274-4.963-9.134-11.991-12.003-19.18
		c-8.311-20.823-13.228-42.649-15.852-64.637c-2.234-18.726-1.972-38.001-0.435-56.84c1.042-12.756,6.55-24.974,16.078-34.624
		c7.013-7.102,13.386-14.895,20.842-21.476c5.109-4.51,11.202-8.512,17.549-10.877c9.583-3.569,19.819-5.352,29.667-8.271
		c2.277-0.674,4.387-2.606,6.091-4.415c14.601-15.499,28.466-31.745,43.727-46.558c47.487-46.089,100.08-85.063,158.346-117.006
		c48.052-26.343,98.875-43.791,151.42-57.719c28.183-7.47,56.467-12.321,85.7-11.013c19.265,0.862,38.547,1.402,57.827,1.845
		c2.441,0.056,5.919-0.569,7.216-2.218c10.347-13.147,24.513-18.697,41.002-20.676c-1.342-18.665,13.322-25.73,24.329-35.357
		c1.124-0.983,3.088-1.404,4.663-1.406c8.987-0.012,17.981-0.013,26.958,0.35c15.992,0.646,23.951,12.922,32.862,23.494
		c5.109,6.063,9.456,12.769,14.63,19.847c28.919-15.664,59.052-26.399,91.406-30.242c0.512-1.087,1.201-1.921,1.25-2.791
		c0.09-1.595-0.196-3.212-0.376-5.438c-4.735-0.809-9.252-2.215-13.779-2.246c-21.29-0.148-41.361-6.266-61.448-12.191
		c-18.161-5.357-36.148-11.301-54.254-16.848c-4.432-1.358-9.004-2.301-13.553-3.23c-31.944-6.529-63.51-14.407-93.839-26.6
		c-15.998-6.431-27.339-18.645-37.918-31.597c-3.857-4.723-5.723-10.304-5.341-16.706c0.417-6.975,0.322-14.002,0.037-20.99
		c-0.348-8.517,2.503-15.91,8.302-21.721c9.161-9.18,18.685-18.037,28.548-26.454c3.678-3.139,8.603-4.987,13.188-6.869
		c41.236-16.928,83.537-30.93,126.202-43.602c30.319-9.004,61.645-13.715,93.481-13.379c13.503,0.143,26.234-1.876,38.25-8.896
		c16.64-9.721,34.136-17.989,50.669-27.874c10.502-6.279,19.445-15.168,29.955-21.43c12.075-7.195,20.707-17.101,28.757-28.267
		c15.242-21.144,33.818-39.304,53.086-56.776c3.867-3.507,7.182-7.681,10.425-11.805c15.957-20.282,34.144-38.301,55.538-52.729
		c9.41-6.346,21.027-5.348,31.916-6.217c22.842-1.823,45.01,3.158,67.348,6.576c6.216,0.952,12.588,1.479,18.865,1.309
		c12.48-0.339,23.605,3.717,31.183,13.012c9.902,12.149,21.611,15.237,36.611,14.467c38.089-1.958,75.776,2.227,112.807,11.319
		c9.865,2.421,19.277,4.573,29.294,1.003c2.991-1.066,6.59-0.431,9.912-0.567c2.991-0.123,6.226,0.469,8.935-0.468
		c18.88-6.529,38.335-2.701,57.509-3.351c9.671-0.327,17.919,4.224,24.787,11.035c4.023,3.989,7.786,8.275,12.066,11.965
		c13.974,12.049,21.755,27.678,25.592,45.243c1.654,7.57,5.279,13.294,10.28,18.815c23.977,26.474,41.789,56.601,53.072,90.549
		c2.499,7.519,4.343,15.487,8.205,22.271c7.41,13.015,19.776,21.206,31.997,29.304c4.399,2.915,8.946,5.698,12.936,9.115
		c5.99,5.131,11.749,7.118,19.904,4.281c21.857-7.603,44.874-8.877,67.735-10.848c10.252-0.884,20.496-2.16,30.639-3.878
		c4.138-0.701,8.257-2.597,11.938-4.724c16.591-9.583,34.423-15.724,53.056-19.71c2.893-0.619,5.937-0.705,8.913-0.723
		c12.664-0.075,25.335,0.19,37.993-0.092c13.435-0.3,24.671,4.833,34.475,13.392c5.511,4.811,10.601,10.142,15.573,15.523
		c7.949,8.601,12.435,18.569,12.006,30.641c-0.378,10.652-0.224,21.331-0.039,31.992c0.187,10.799-3.449,19.869-10.169,28.37
		c-14.12,17.862-31.828,29.612-53.771,35.876c-13.07,3.732-25.641,9.263-38.333,14.25c-2.68,1.054-5.33,2.873-7.275,4.998
		c-10.772,11.769-24.484,19.157-38.12,26.916c-28.186,16.035-58.364,27.165-88.805,37.829c-8.434,2.956-16.248,7.896-24.809,10.221
		c-12.779,3.47-25.973,5.405-38.981,8.043c-3.526,0.715-7.017,1.611-10.156,2.339c-1.553,4.46-0.345,6.593,3.665,6.677
		c5.664,0.118,11.346,0.349,16.993,0.034c13.576-0.757,26.595,1.85,39.054,6.813c21.375,8.519,43.583,12.828,66.361,10.945
		c17.418-1.439,24.3,11.009,33.229,21.273c1.256,1.445,0.99,4.399,1.049,6.664c0.139,5.33-0.46,10.725,0.158,15.984
		c1.111,9.454-2.642,16.607-8.751,23.356c-16.067,17.747-31.867,35.736-47.74,53.658c-1.271,1.434-2.284,3.096-3.951,5.384
		c33.379,9.655,59.875,27.242,77.446,58.422c11.77,3.651,25.149,7.422,38.266,11.957c21.986,7.601,43.62,16.25,65.733,23.441
		c34.417,11.192,69.142,21.434,103.675,32.273c18.477,5.799,35.778,14.088,52.384,24.187c19.491,11.852,36.667,26.352,52.856,42.223
		c1.855,1.82,4.034,3.505,6.366,4.612c14.068,6.667,25.448,16.906,36.524,27.471c6.732,6.422,12.86,13.473,19.347,20.157
		c7.123,7.341,9.194,16.615,10.334,26.28c0.039,0.329,0.029,0.667,0.01,0.999c-1.001,16.376,0.828,32.478,4.522,48.423
		c0.593,2.558,0.722,5.257,0.791,7.897c1.104,41.997-2.229,83.685-9.418,125.037c-3.012,17.329-7.561,34.393-10.483,51.734
		c-4.413,26.182-7.652,52.562-12.089,78.74c-2.878,16.99-7.076,33.752-10.521,50.651c-1.447,7.097-2.479,14.278-3.899,22.584
		c4.091,0.31,7.231,0.648,10.381,0.77c18.606,0.714,37.241,1.019,55.809,2.294c4.937,0.34,10.638,2.505,14.32,5.734
		c11.249,9.864,21.768,20.574,32.417,31.107c9.361,9.26,14.426,20.064,14.529,33.789c0.059,7.685,2.596,15.899,6.009,22.904
		c10.079,20.69,9.37,42.576,8.822,64.537c-0.063,2.567-1.57,5.064-2.02,7.662c-0.88,5.076-1.484,10.202-2.231,15.506
		c4.813,1.396,8.214,2.74,11.744,3.35c25.55,4.422,48.882,15.047,72.06,25.933c25.262,11.867,50.232,24.35,75.367,36.49
		c16.938,8.182,32.103,19.016,45.657,31.881c24.151,22.92,47.785,46.384,71.728,69.525c14.09,13.621,28.423,26.991,42.527,40.598
		c18.705,18.046,35.718,37.603,51.979,57.876c16.414,20.463,34.329,39.784,49.893,60.856
		c28.667,38.813,54.634,79.466,79.521,120.852c15.236,25.334,32.673,49.349,49.184,73.914c13.946,20.75,26.869,42.021,35.271,65.764
		c1.176,3.324,3.323,6.564,5.765,9.142c22.199,23.436,44.429,46.847,66.925,69.997c15.992,16.455,32.423,32.482,48.632,48.728
		c20.101,20.146,36.383,43.289,52.039,66.875c8.916,13.434,13.818,28.665,17.702,44.181c0.876,3.498,0.896,7.265,0.926,10.912
		c0.104,12.663-0.207,25.335,0.107,37.992c0.351,14.122-1.901,27.831-5.392,41.415c-0.395,1.535-0.817,3.063,0.454,5.709
		c9.176-8.911,18.469-17.708,27.498-26.767c8.931-8.96,17.746-18.047,26.348-27.323c19.9-21.462,40.545-42.325,59.166-64.854
		c14.985-18.13,27.913-38.036,40.915-57.708c17.467-26.425,35.157-52.592,59.244-73.595c8.744-7.624,19.358-11.718,30.901-12.379
		c12.95-0.74,25.966-1.286,38.914-0.836c16.766,0.582,31.704,6.699,43.993,18.309c14.696,13.883,25.774,30.262,33.364,49.088
		c4.829,11.979,11.83,23.149,12.842,36.469c0.502,6.613,1.697,13.235,1.527,19.826c-0.534,20.742,2.177,41.066,6.08,61.375
		c1.93,10.044,3.049,20.377,3.203,30.6c0.324,21.24,1.904,42.704-3.296,63.56c-3.032,12.16-7.362,24.103-12.196,35.689
		c-8.965,21.488-18.859,42.596-31.754,62.085c-3.823,5.78-8.182,11.329-12.993,16.311c-17.813,18.445-35.895,36.623-57.604,50.668
		c-9.498,6.145-19.295,11.94-28.188,18.877c-11.247,8.772-21.646,18.627-32.555,27.846c-3.764,3.181-7.808,6.095-11.986,8.712
		c-8.706,5.452-17.999,10.05-26.326,16.011c-43.179,30.907-90.029,53.933-141.62,66.934c-14.81,3.732-29.738,6.991-45.381,10.647
		c2.34,5.082,4.967,9.328,6.295,13.949c4.026,14.011,2.61,28.381,1.871,42.661c-0.082,1.581-0.69,3.361-1.62,4.636
		c-8.853,12.123-17.847,25.042-32.597,29.682c-28.136,8.853-55.894,19.839-85.924,21.098c-15.948,0.668-31.933,1.767-47.853,1.232
		c-6.202-0.209-12.776-3.556-18.266-6.951c-6.147-3.802-11.56-8.975-16.768-14.084c-16.177-15.87-32.102-31.999-48.134-48.018
		c-10.82-10.813-21.649-21.616-32.514-32.385c-0.664-0.66-1.669-0.978-2.727-1.572c-2.029,7.293-8.019,11.239-12.947,15.848
		c-4.515,4.224-7.044,8.65-6.01,14.838c0.055,0.324,0.008,0.665,0.007,0.998c-0.032,18.088-0.676,19.654-14.804,31.068
		c-1.863,1.506-4.701,2.414-7.129,2.501c-8.321,0.302-16.669,0.334-24.987-0.008c-2.815-0.116-5.691-1.389-8.334-2.586
		c-5.075-2.299-10.003-4.923-16.15-7.99c-0.476,6.299-0.614,11.474-1.347,16.563c-0.453,3.154-1.008,6.848-2.916,9.129
		c-4.688,5.603-10.046,10.679-15.442,15.631c-1.545,1.418-4.087,2.09-6.269,2.39c-2.946,0.404-5.986,0.166-8.985,0.119
		c-24.459-0.375-16.296,2.599-33.808-13.738c-5.386-5.024-7.098-10.921-7.759-17.613c-0.289-2.918-0.309-5.862-0.498-9.771
		c-8.657,0-16.93-0.268-25.175,0.095c-5.39,0.237-9.479-1.21-13.111-5.338c-6.247-7.102-15.943-12.201-10.723-25.619
		c-6.027,0-9.927-0.28-13.771,0.067c-5.475,0.495-9.508-1.709-13.362-5.346c-13.32-12.574-13.538-12.503-13.351-30.767
		c0.229-22.189-2.916-15.103,13.469-31.828c2.057-2.1,4.494-3.826,7.405-6.271c-8.734-5.65-9.814-13.226-8.963-21.583
		c0.303-2.968,0.376-6.037-0.012-8.985c-1.202-9.123,2.773-15.471,8.923-22.019c6.8-7.242,13.978-10.408,23.669-9.35
		c5.185,0.566,10.482,0.101,16.795,0.101c0-8.148,0.246-15.068-0.076-21.961c-0.268-5.723,1.511-10.17,5.501-14.332
		c13.031-13.597,12.924-13.7,31.8-13.7c17.524,0,17.556-0.03,29.974,12.855c2.264,2.348,4.156,5.053,6.819,8.332
		c3.898-3.891,8.18-7.906,12.159-12.204c4.09-4.419,8.71-6.597,14.939-6.227c7.909,0.468,15.867,0.113,24.436,0.113
		c0.194-13.664,10.346-25.503,3.435-39.321c-24.321-2.771-43.685-16.011-63.618-27.938c-17.409-10.417-34.537-21.325-52.185-31.319
		c-10.095-5.717-20.753-10.602-31.548-14.877c-23.714-9.394-43.197-24.655-61.104-42.305c-4.51-4.444-8.747-9.19-13.479-13.381
		c-12.293-10.888-17.603-25.112-18.141-40.809c-0.546-15.917,0.677-31.894,1.094-47.846c0.276-10.581,5.01-19.301,12.021-26.679
		c11.228-11.816,22.495-23.618,37.051-31.676c3.591-1.989,6.242-5.675,9.271-8.528c-19.891-22.006-27.442-48.871-34.715-75.776
		c-1.449-5.364-1.647-11.216-1.525-16.823c0.381-17.61,2.011-35.235,1.512-52.808c-0.277-9.77-3.237-19.619-6.018-29.131
		c-7.572-25.9-22.285-47.116-42.377-65.191c-10.065-9.057-18.396-20.083-27.227-30.46c-12.738-14.97-28.351-26.201-45.791-34.756
		c-36.571-17.939-75.111-30.362-114.576-40.243c-36.254-9.076-73.277-12.788-110.266-16.77c-12.869-1.386-25.875-2.004-38.822-2.048
		c-35.726-0.122-70.959-3.952-105.808-11.889c-5.983-1.363-12.47-0.691-18.722-0.676c-12.983,0.031-25.994,0.775-38.934,0.094
		c-4.133-0.217-8.788-3.26-11.97-6.302c-8.368-7.998-17.665-15.358-22.613-26.316c-1.67-3.697-4.62-4.143-8.18-4.191
		c-10.646-0.143-21.288-0.493-31.929-0.815c-21.611-0.654-43.231-1.097-64.825-2.095c-17.233-0.795-34.434-2.282-52.586-3.527
		c-1.922,10.773-3.879,21.415-5.71,32.077c-4.16,24.204-9.129,48.315-12.044,72.671c-1.666,13.925-3.528,27.443-7.979,40.846
		c-4.087,12.311-13.337,19.477-22.308,27.278c-1.481,1.288-3.862,1.765-4.942,3.258c-6.795,9.389-16.396,9.6-26.756,9.643
		c-20.611,0.083-41.221,1.052-61.823,1.879c-8.494,0.341-16.536-1.187-24.351-4.328c-7.405-2.977-14.739-6.149-22.235-8.877
		c-11.406-4.148-20.591-11.797-27.087-21.292c-5.691-8.318-13.215-16.942-11.033-28.751c0.207-1.12-0.429-2.396-0.858-4.516
		c-3.175,1.687-5.818,2.884-8.25,4.414c-27.028,17.012-53.862,34.337-81.089,51.023c-15.87,9.726-32.217,18.702-48.596,27.559
		c-19.458,10.521-35.914,25.165-53.483,38.268c-2.241,1.672-3.26,5.367-4.151,8.335c-0.643,2.141-0.251,4.635-0.116,6.96
		c0.526,9.12-2.646,16.116-9.214,22.952c-16.825,17.512-36.271,31.214-57.175,43.166c-17.322,9.904-34.072,20.952-51.947,29.715
		c-40.735,19.966-78.296,45.276-117.271,68.185c-16.601,9.757-31.891,21.716-48.06,32.239c-11.115,7.233-22.717,13.717-34.46,20.75
		c4.68,18.429,2.003,36.752,2.907,54.933c0.379,7.646-2.285,13.324-7.744,18.528c-12.726,12.129-24.115,25.724-40.226,34.572
		c6.258,10.015,12.398,19.051,17.731,28.539c11.9,21.168,23.639,42.437,34.927,63.934c3.975,7.569,8.395,12.083,17.682,13.28
		c20.821,2.685,41.446,7.377,59.13,19.515c21.149,14.517,38.027,33.088,49.627,56.206c1.768,3.523,3.434,7.468,6.23,10.041
		c16.649,15.319,23.133,35.18,26.523,56.657c2.27,14.386,5.063,28.688,7.44,43.058c0.847,5.117,3.492,7.922,8.27,10.146
		c10.227,4.761,20.43,9.793,29.912,15.858c6.631,4.241,12.171,10.249,17.969,15.713c4.148,3.909,7.964,7.744,14.251,8.36
		c3.082,0.303,6.374,2.24,8.833,4.313c5.773,4.865,12.255,5.582,19.436,5.401c7.556-0.189,15.137,0.661,23.889,1.118
		c0-7.28,0.221-14.529-0.077-21.757c-0.206-4.99,0.794-9.28,4.789-12.457c3.73-2.967,5.186-6.721,4.633-11.393
		c-0.562-4.746,1.79-8.106,4.974-11.386c13.76-14.163,13.697-14.225,33.355-14.247c3.581-0.004,7.161-0.001,11.473-0.001
		c-1.916-16.296,11.109-22.232,19.203-31.346c0.919-1.035,3.018-1.138,4.615-1.421c1.295-0.229,2.658-0.076,3.991-0.098
		c32.523-0.537,33.637-0.019,52.94,24.062c14.049,0,27.336-0.082,40.62,0.098c1.801,0.023,3.589,1.349,5.37,2.105
		c0.291,0.123,0.503,0.43,0.758,0.646c9.643,8.152,17.91,16.911,14.729,31.187c-0.409,1.838,0.195,3.899,0.331,5.869
		c11.471,1.43,16.222,11.015,23.068,17.839c0.893,0.89,0.473,3.192,0.494,4.842c0.057,4.332-0.195,8.678,0.067,12.996
		c0.625,10.26,0.64,20.214-11.076,26.605c4.461,4.568,7.943,8.466,11.781,11.977c4.244,3.882,6.212,8.457,5.951,14.18
		c-0.182,3.99-0.546,8.078,0.065,11.981c1.935,12.364-2.608,21.373-11.96,29.528c-5.264,4.59-10.75,6.03-18.144,6.788
		c0,4.491-0.007,8.718,0.002,12.943c0.012,6.314-1.947,11.695-6.923,15.914c-2.788,2.362-4.911,5.599-7.896,7.611
		c-3.132,2.112-6.997,4.657-10.429,4.503c-8.38-0.378-14.585,3.527-21.226,7.83c4.049,8.553,7.848,16.939,12.034,25.128
		c0.905,1.771,3.045,3.102,4.883,4.176c17.71,10.351,36.818,18.462,51.263,33.898c6.342,6.778,13.534,12.812,20.691,18.759
		c5.891,4.894,8.449,11.48,8.698,18.399c0.838,23.246,2.887,46.591-1.205,69.723c-3.192,18.051-7.892,35.714-16.574,52.061
		c-1.092,2.057-2.493,3.999-3.264,6.166c-6.566,18.449-13.41,36.815-19.358,55.464c-3.44,10.787-9.372,19.813-16.66,28.022
		c-6.182,6.966-13.24,13.146-19.675,19.898c-2.516,2.642-5.179,3.714-8.768,3.642c-8.662-0.172-17.417,0.693-25.967-0.297
		c-6.575-0.763-12.896-3.717-19.988-5.897c-7.071,22.265-14.634,45.624-21.883,69.083c-3.836,12.412-10.876,22.646-19.792,31.839
		c-21.595,22.268-45.098,42.131-70.085,60.648c-24.269,17.984-50.535,31.993-77.094,45.765
		c-22.425,11.627-44.73,23.563-68.684,31.914c-4.393,1.531-8.761,3.288-13.285,4.269c-34.321,7.443-66.499,20.985-98.562,34.751
		c-13.686,5.875-27.573,9.287-42.538,9.137c-7.563-0.076-15.26,0.972-22.69,2.505c-18.184,3.754-36.508,2.571-54.72,1.657
		c-20.859-1.047-41.735-2.918-62.415-5.789c-8.95-1.243-18.277-4.546-25.89-9.355c-8.28-5.232-15.949-12.453-21.667-20.402
		c-4.639-6.449-7.024-15.055-8.618-23.059c-4.982-25.022-9.04-50.228-13.606-75.334c-2.673-14.698-5.029-29.494-8.633-43.971
		c-3.679-14.772-3.396-29.631-3.27-44.563c0.017-1.93,0.254-4.468,1.449-5.68c9.058-9.188,7.47-21.512,9.893-32.604
		c2.259-10.348,3.668-20.888,6.083-31.194c0.955-4.074,2.919-8.346,5.62-11.503c12.633-14.767,27.484-27.087,44.02-37.253
		c3.252-2,7.484-3.349,11.271-3.365c12.627-0.054,25.258,0.646,37.889,1.016C1013.397,3444.004,1014.26,3443.704,1016.487,3443.319z
		 M1152.642,3442.003c0.257,0.543,0.513,1.085,0.77,1.628c2.586-1.128,5.62-1.729,7.683-3.478
		c7.53-6.382,14.776-13.104,22.016-19.819c0.9-0.836,1.115-2.412,1.716-3.806c-1.471-0.315-2.349-0.764-2.625-0.522
		C1172.313,3424.631,1162.481,3433.321,1152.642,3442.003z"/>
	<path fill-rule="evenodd" clip-rule="evenodd" fill="#FFFFFF" d="M1152.642,3442.003c9.839-8.682,19.67-17.372,29.559-25.997
		c0.276-0.241,1.154,0.207,2.625,0.522c-0.601,1.394-0.816,2.97-1.716,3.806c-7.239,6.716-14.485,13.438-22.016,19.819
		c-2.063,1.748-5.096,2.35-7.683,3.478C1153.155,3443.088,1152.899,3442.546,1152.642,3442.003z"/>
</g>
</svg>
