<?xml version="1.0" encoding="utf-8"?>
<!-- Generator: Adobe Illustrator 16.0.2, SVG Export Plug-In . SVG Version: 6.00 Build 0)  -->
<!DOCTYPE svg PUBLIC "-//W3C//DTD SVG 1.1//EN" "http://www.w3.org/Graphics/SVG/1.1/DTD/svg11.dtd">
<svg version="1.1" id="Layer_1" xmlns="http://www.w3.org/2000/svg" xmlns:xlink="http://www.w3.org/1999/xlink" x="0px" y="0px"
	 width="3647.544px" height="3997.5px" viewBox="0 0 3647.544 3997.5" enable-background="new 0 0 3647.544 3997.5"
	 xml:space="preserve">
<g>
	<path fill-rule="evenodd" clip-rule="evenodd" fill="#FFFFFF" d="M2,4001.5C2,2668.333,2,1335.166,2,2
		c1216.515,0,2433.028,0,3649.543,0c0,1333.166,0,2666.333,0,3999.5C2435.028,4001.5,1218.515,4001.5,2,4001.5z M1032.167,3438.758
		c-16.403,0-30.973,0.276-45.525-0.096c-10.037-0.257-18.124,3.308-25.028,10.256c-6.108,6.148-12.032,12.5-18.423,18.338
		c-14.628,13.361-24.734,29.445-30.348,48.415c-1.7,5.743-3.497,11.46-5.346,17.157c-7.143,21.997-11.678,44.346-9.953,67.669
		c2.329,31.502,6.312,62.776,13.645,93.512c2.215,9.284,5.807,18.334,9.664,27.097c2.269,5.155,5.48,9.633,4.94,15.784
		c-0.189,2.163,1.59,4.994,3.276,6.743c8.781,9.121,17.831,17.983,26.769,26.953c4.471,4.486,9.69,6.494,16.164,6.206
		c14.285-0.638,28.609-0.502,42.885-1.271c34.195-1.839,68.357-4.396,102.047-10.813c35.582-6.777,71.269-13.239,106.482-21.634
		c25.496-6.079,50.201-15.405,75.426-22.701c25.983-7.516,50.708-17.641,74.523-30.59c35.785-19.456,66.401-45.222,94.386-74.344
		c7.068-7.355,13.445-15.688,18.662-24.452c17.96-30.17,30.818-62.561,40.035-96.423c0.844-3.102,2.336-6.028,3.494-8.945
		c6.353,1.838,11.927,4.445,17.67,4.894c9.938,0.775,20.004,0.624,29.968,0.033c4.755-0.281,10.67-1.078,13.874-4.021
		c13.951-12.814,27.947-25.788,36.381-43.327c4.463-9.28,9.569-18.287,13.482-27.787c7.965-19.338,17.536-38.204,20.792-59.145
		c3.586-23.057,4.187-46.378,3.051-69.604c-0.628-12.827-3.061-26.234-12.014-36.148c-15.168-16.794-30.766-33.39-53.362-40.788
		c-3.897-1.275-7.906-3.824-10.59-6.896c-9.159-10.486-18.499-20.961-23.525-34.606c3.55-1.452,7.499-2.473,10.79-4.542
		c6.18-3.888,12.665-5.559,19.886-4.927c5.358,0.471,9.642-1.656,13.158-5.705c2.179-2.511,4.529-4.92,7.068-7.059
		c3.842-3.233,6.069-7.215,5.47-12.174c-0.728-6.029,1.878-10.215,6.325-13.683c3.983-3.105,5.536-7.002,5.197-12.164
		c-0.436-6.637,0.044-13.328-0.157-19.988c-0.118-3.903,0.559-7.272,3.848-9.704c12.786-9.459,17.147-22.23,14.896-37.647
		c-0.19-1.306,0.216-2.718-0.068-3.987c-1.072-4.774-1.248-10.173-3.702-14.133c-6.508-10.503-14.241-20.093-28.923-20.51
		c0-6.173-0.301-11.811,0.061-17.405c0.872-13.521-9.414-19.545-17.705-26.921c-0.656-0.584-1.957-0.846-2.858-0.688
		c-7.428,1.301-11.896-3.299-15.993-8.192c-4.02-4.8-8.893-6.341-15.003-6.068c-8.304,0.37-16.638,0.092-24.938,0.092
		c-6.605-14.318-16.306-25.534-36.379-24.594c-12.826,0.602-21.957,3.924-30.113,13.412c-4.152,4.83-7.125,9.11-6.472,15.711
		c0.514,5.197,0.103,10.485,0.103,14.182c-6.311,2.312-11.673,3.239-15.753,6.039c-4.861,3.336-8.957,8.005-12.721,12.635
		c-1.92,2.363-3.299,5.893-3.342,8.917c-0.13,8.948,0.661,17.906,0.776,26.864c0.027,2.078-0.842,4.384-1.928,6.212
		c-1.867,3.146-4.229,5.999-5.811,8.185c-6.842-2.77-11.256-5.364-16.003-6.332c-17.223-3.513-34.08-7.625-50.843-13.464
		c-13.969-4.865-24.079-14.43-36.368-19.947c0-22.36,0.593-43.695-0.248-64.974c-0.426-10.801-1.437-22.395-5.753-32.032
		c-6.185-13.81-14.846-26.745-23.932-38.951c-7.898-10.61-17.323-20.259-27.031-29.306c-12.864-11.987-27.017-22.59-39.942-34.518
		c-10.156-9.371-20.953-17.362-33.753-22.632c-3.683-1.516-7.169-3.515-10.744-5.295c-32.4-16.137-63.337-35.357-98.053-46.605
		c-5.907-1.913-9.23-5.737-10.993-11.671c-1.603-5.391-4.153-10.495-6.204-15.756c-3.695-9.478-7.331-18.979-10.604-27.467
		c8.004-3.603,16.183-5.547,22.038-10.336c8.41-6.877,15.096-15.854,22.58-23.875c3.632-3.895,4.718-8.391,4.77-13.684
		c0.157-15.955,0.971-31.904,1.116-47.859c0.041-4.561,1.553-7.594,5.256-9.906c2.252-1.407,4.332-3.09,6.563-4.534
		c21.77-14.1,43.396-28.43,65.37-42.205c43.413-27.215,87.002-54.148,130.556-81.14c34.535-21.402,69.444-42.305,94.991-75.088
		c0.973-1.249,2.68-1.931,4.059-2.857c22.086-14.839,44.124-29.749,66.28-44.483c14.68-9.764,28.934-20.383,44.421-28.672
		c35.227-18.855,70.093-38.207,102.864-61.152c2.015-1.411,4.317-2.409,7.127-3.953c0.266,2.313,0.651,3.594,0.516,4.815
		c-1.817,16.338,3.984,29.381,17.2,38.963c3.625,2.629,7.743,5.18,12.01,6.207c12.578,3.029,25.315,5.438,38.051,7.749
		c5.204,0.944,10.577,1.514,15.852,1.39c19.614-0.462,39.235-0.979,58.821-2.06c17.807-0.98,17.789-1.313,30.921-14.445
		c2.356-2.356,5.226-4.393,6.952-7.146c3.11-4.954,6.858-10.07,7.988-15.599c3.052-14.938,3.979-30.333,7.379-45.175
		c5.234-22.855,6.489-46.698,16.752-68.381c2.229-4.71,2.682-10.252,4.022-15.392c1.401-5.366,2.888-10.71,4.099-15.184
		c19.734-0.557,38.323-1.01,56.906-1.625c17.611-0.582,35.215-1.725,52.829-1.897c16.294-0.159,32.596,0.818,48.896,0.918
		c5.62,0.034,10.04,0.774,13.798,5.802c3.95,5.285,9.713,9.189,13.846,14.366c7.634,9.558,17.652,12.319,29.169,11.932
		c11.963-0.403,23.994-1.724,35.877-0.906c21.191,1.457,42.353,3.772,63.417,6.564c20.089,2.663,39.98,6.797,60.065,9.501
		c12.15,1.635,24.615,0.994,36.742,2.738c37.5,5.39,74.909,11.426,112.35,17.229c10.877,1.688,21.521,3.878,30.47,11.101
		c2.512,2.027,5.885,3.016,8.916,4.363c20.608,9.167,42.208,15.813,61.639,27.99c32.092,20.114,62.5,41.803,84.782,73.132
		c1.342,1.887,3.208,3.4,4.556,5.283c3.676,5.127,8.274,9.924,10.591,15.63c7.238,17.829,13.736,35.968,20.159,54.116
		c1.17,3.305,0.943,7.228,0.824,10.846c-0.545,16.401,1.405,32.415,5.547,48.338c2.405,9.257,4.056,18.947,4.272,28.482
		c0.369,16.266-0.896,32.561-1.022,48.848c-0.101,13.065,1.153,25.947,10.879,36.952c-4.652,4.772-9.315,9.013-13.328,13.799
		c-6.605,7.879-12.893,16.032-19.119,24.218c-4.578,6.019-6.306,13.117-6.474,20.548c-0.326,14.316-0.893,28.647-0.566,42.955
		c0.355,15.523,5.542,29.381,17.269,40.124c8.576,7.857,17.521,15.314,26.095,23.175c15.744,14.434,32.889,26.98,50.677,38.754
		c18.857,12.481,37.512,25.273,56.148,38.086c10.229,7.033,21.117,12.525,32.942,16.389c16.042,5.239,31.937,10.932,47.885,16.458
		c0.604,0.21,1.106,0.712,1.652,1.084c2.448,10.714,2.158,10.619-0.676,19.267c-3.171,9.674-5.747,19.542-8.417,28.754
		c-9.371,1.079-17.773,2.048-25.73,2.964c-6.758-7.184-13.55-14.465-20.409-21.681c-6.251-6.576-13.484-9.676-23.033-9.404
		c-22.282,0.634-22.213,0.261-37.728,16.496c-3.014,3.152-4.305,6.327-4.223,10.629c0.217,11.139,0.072,22.282,0.072,33.079
		c-6.075,0-11.69,0.002-17.307-0.001c-19.747-0.009-22.184,1.09-34.388,16.558c-1.802,2.283-4.019,5.216-3.974,7.813
		c0.236,13.651-4.041,28.182,7.644,40.234c-8.459,5.366-8.532,13.265-8.005,21.43c0.214,3.319,0.451,6.726-0.039,9.985
		c-1.742,11.568,1.861,20.769,11.431,27.558c5.161,3.662,6.43,8.662,6.148,14.788c-0.156,3.407,0.521,7.638,2.504,10.195
		c4.255,5.492,9.492,10.253,14.568,15.058c1.318,1.249,3.52,2.175,5.329,2.199c13.57,0.181,27.144,0.098,41.367,0.098
		c0.39,1.607,1.362,4.44,1.729,7.351c1.565,12.434,7.744,21.867,16.422,30.927c9.046,9.444,18.395,13.593,31.535,12.914
		c20.039-1.035,20.18-0.181,33.298-15.034c1.979-2.244,3.213-5.692,3.548-8.721c0.572-5.166,0.158-10.44,0.158-16.854
		c8.498,0,15.826,0.634,22.993-0.172c7.891-0.887,11.542-8.437,17.22-12.86c6.8-5.296,5.236-13.096,6.287-19.828
		c10.263-1.832,19.89-3.55,30.711-5.482c9.293,9.619,19.24,20.381,29.691,30.627c18.531,18.169,37.305,36.095,56.126,53.964
		c4.75,4.508,10.622,6.515,17.387,6.163c6.647-0.346,13.35,0.256,19.985-0.191c4.58-0.309,9.625-0.688,13.532-2.777
		c15.218-8.141,31.834-11.768,48.405-14.803c26.836-4.914,53.171-11.263,78.578-21.244c1.506-0.592,3.027-1.46,4.182-2.573
		c4.557-4.394,9.099-8.82,13.37-13.486c1.509-1.647,2.731-3.899,3.234-6.071c4.843-20.92,7.218-41.765-3.366-62.075
		c1.228-0.812,2.241-1.729,3.43-2.228c18.084-7.598,36.346-14.789,54.255-22.774c30.059-13.405,60.413-26.224,88.997-42.726
		c16.765-9.679,34.438-17.244,52.938-23.028c7.616-2.382,14.473-6.343,20.17-12.4c11.86-12.61,23.785-25.198,36.339-37.107
		c17.358-16.466,35.786-31.82,52.911-48.518c23.356-22.772,45.877-46.4,68.841-69.578c6.681-6.744,12.081-14.295,14.336-23.542
		c3.855-15.807,7.479-31.679,10.741-47.617c4.585-22.397,3.511-45.638,9.957-67.806c1.281-4.405,2.071-9.2,1.849-13.756
		c-1.229-25.119,4.346-50.43-2.916-75.455c-2.051-7.064-2.385-14.304-8.637-19.438c-1.659-1.362-2.339-3.917-3.476-5.921
		c-2.271-4.002-3.827-8.725-6.969-11.852c-6.472-6.44-11.654-13.456-15.125-21.916c-1.087-2.647-3.376-4.902-5.426-7.038
		c-5.08-5.286-10.357-10.379-15.521-15.586c-8.094-8.162-17.656-13.868-28.287-18.251c-21.396-8.82-43.614-11.151-66.503-10.319
		c-14.834,0.54-28.33,4.546-39.543,14.183c-8.293,7.127-16.804,14.515-23.17,23.274c-23.255,31.999-46.344,64.164-68.142,97.161
		c-15.885,24.046-34.718,45.484-54.658,65.844c-21.379,21.829-44.601,41.854-67.1,62.575c-3.92,3.611-8.248,6.778-12.388,10.151
		c0.804-7.134,2.417-13.205,4.677-19.027c8.106-20.884,8.347-42.783,4.631-64.002c-9.114-52.067-21.264-103.574-43.453-151.86
		c-7.704-16.765-18.23-32.504-29.259-47.384c-8.646-11.665-19.713-21.642-30.308-31.735c-18.709-17.823-40.382-31.813-63.615-42.57
		c-11.318-5.241-21.763-10.811-30.95-19.04c-1.974-1.768-4.158-3.346-6.405-4.755c-7.808-4.896-13.344-11.731-18.035-19.576
		c-18.959-31.7-38.194-63.234-57.169-94.924c-5.46-9.117-10.959-18.284-15.459-27.889c-15.548-33.188-36.712-62.375-61.824-88.864
		c-12.133-12.798-24.707-25.22-36.228-38.55c-33.96-39.286-69.031-77.527-106.794-113.17c-15.688-14.808-32.284-28.812-49.53-41.765
		c-15.387-11.555-32.113-21.362-48.508-31.522c-6.464-4.004-13.594-6.952-20.487-10.238c-9.007-4.292-18.436-7.821-27.063-12.761
		c-37.32-21.374-75.22-41.298-117.439-51.472c-2.405-0.579-4.619-1.953-5.886-2.504c0.785-11.488,0.818-21.839,2.351-31.964
		c2.045-13.52,3.502-27.003,2.88-40.664c-0.605-13.27-0.704-26.607-2.215-39.778c-2.047-17.834-7.867-34.189-21.984-46.628
		c-6.489-5.718-12.809-11.774-18.336-18.402c-9.377-11.244-22.375-13.967-35.536-15.75c-11.489-1.557-23.198-1.464-34.8-2.248
		c-4.849-0.327-9.67-1.037-14.828-1.61c0.184-2.052,0.06-3.408,0.449-4.593c7.613-23.117,12.142-46.926,16.196-70.858
		c1.934-11.406,3.156-23.128,6.807-34c5.905-17.583,12.668-34.56,14.205-53.547c1.735-21.448,5.588-42.769,5.981-64.345
		c0.565-30.977,0.781-61.965,0.635-92.946c-0.056-11.922-0.882-23.921-2.469-35.737c-2.765-20.595-9.591-40.055-19.157-58.467
		c-16.814-32.355-42.416-56.549-74.099-73.335c-26.086-13.823-53.423-25.588-80.99-36.234
		c-34.072-13.159-68.91-24.355-103.511-36.124c-16.687-5.675-33.402-11.432-50.438-15.871
		c-23.736-6.185-47.784-11.168-72.651-16.886c-2.907-11.769-9.23-22.944-18.256-32.491c-6.408-6.779-12.782-13.662-19.815-19.756
		c-8.813-7.639-18.45-14.246-29.866-17.635c-4.134-1.227-8.616-1.704-12.399-3.601c-9.837-4.93-20.092-6.6-30.944-5.867
		c-4.313,0.292-8.678,0.291-12.992,0.004c-15.154-1.008-28.377,2.453-37.885,15.371c-2.488,3.38-5.85,4.707-10.31,4.86
		c-5.298,0.182-10.547,1.791-17.398,3.079c-7.355-7.101-17.53-12.708-29.693-13.876c0.256-1.091,0.235-1.478,0.417-1.698
		c0.847-1.024,1.69-2.063,2.639-2.987c17.476-17.031,28.443-37.718,32.495-61.597c4.693-27.647,5.904-55.498,0.435-83.292
		c-0.625-3.175-1.093-6.381-1.615-9.463c25.972-8.958,51.092-17.612,76.206-26.287c28.898-9.982,57.764-20.172,84.974-34.204
		c35.979-18.554,73.031-35.018,106.483-58.468c15.063-10.56,29.81-21.051,42.613-34.24c5.494-5.659,12.466-10.38,10.658-19.973
		c-0.213-1.125,0.741-2.508,1.256-3.729c6.347-15.059,3.985-30.647,2.736-46.141c-0.85-10.533-8.861-16.519-14.981-23.961
		c-8.077-9.821-18.048-12.24-29.953-12.3c-23.364-0.117-46.41,2.489-69.515,5.591c-18.557,2.493-36.393,6.688-54.069,13.064
		c-19.338,6.975-39.313,12.54-59.396,16.983c-17.452,3.862-35.429,5.392-53.203,7.743c-3.799,0.502-8.57,1.522-11.403-0.179
		c-5.845-3.511-12.205-7.775-15.608-13.393c-6.153-10.155-10.358-21.501-15.258-32.403c-3.408-7.584-6.284-15.423-9.974-22.861
		c-13.197-26.609-29.778-51.131-46.682-75.478c-23.589-33.975-49.757-65.734-79.203-94.806
		c-6.661-6.577-14.168-11.028-23.476-12.021c-8.25-0.879-16.548-2.066-24.809-1.958c-23.279,0.306-46.557,1.057-69.824,1.929
		c-14.274,0.535-28.692,0.545-42.754,2.694c-23.049,3.521-44.762,1.756-65.809-9.074c-12.065-6.208-25.084-10.537-37.478-16.145
		c-7.251-3.282-14.131-7.387-21.148-11.177c-4.383-2.367-9.001-4.437-13.001-7.343c-8.34-6.061-17.631-9.491-27.723-10.236
		c-13.58-1.004-27.216-1.219-40.821-1.918c-18.109-0.93-33.356,6.809-46.517,17.652c-16.14,13.298-31.386,27.816-45.98,42.817
		c-14.829,15.241-29.581,30.438-45.565,44.538c-20.449,18.037-40.235,36.876-56.185,59.284c-1.229,1.726-3.618,2.835-5.686,3.722
		c-34.524,14.809-69.072,29.563-103.659,44.225c-2.367,1.004-5.081,1.669-7.635,1.678c-30.359,0.106-60.183,5.545-90.16,9.227
		c-17.448,2.143-34.752,5.642-52.012,9.074c-24.765,4.924-49.887,8.283-73.785,17.085c-25.438,9.369-50.247,19.502-68.102,41.445
		c-3.358,4.127-5.579,7.88-5.447,13.289c0.262,10.659-0.276,21.345,0.244,31.984c0.218,4.457,1.148,9.693,3.728,13.067
		c7.662,10.024,15.688,20.399,28.06,24.795c18.548,6.591,31.213,21.167,45.649,33.029c12.859,10.567,26.213,19.487,41.893,24.361
		c23.483,7.3,47.254,13.674,70.914,20.4c12.803,3.641,25.89,6.469,38.389,10.948c23.161,8.3,45.99,17.53,68.936,26.429
		c0.903,0.351,1.582,1.279,2.706,2.224c-20,4.206-39.088,8.839-58.409,12.085c-15.2,2.555-29.924,5.985-43.555,13.297
		c-9.017,4.836-17.941,9.847-27.567,15.142c-14.985-8.869-31.485-13.318-49.849-12.195c-8.946,0.548-16.028,2.075-21.792,9.207
		c-2.147,2.656-5.831,5.981-8.648,5.833c-9.012-0.475-14.232,4.803-19.39,10.526c-3.124,3.467-6.532,5.262-11.33,4.795
		c-13.883-1.355-27.779-2.625-41.689-3.666c-23.59-1.765-47.18-2.401-70.732,0.715c-36.685,4.854-72.28,14.55-107.849,24.322
		c-6.082,1.672-12.125,3.772-17.848,6.408c-27.788,12.799-55.611,25.543-83.146,38.876c-50.499,24.454-94.821,57.712-134.649,96.947
		c-18,17.732-34.977,36.515-52.144,55.073c-5.931,6.412-12.61,10.047-21.351,11.472c-15.591,2.54-30.412,7.712-42.121,18.967
		c-10.788,10.368-21.349,20.911-30.002,33.339c-6.549,9.407-10.257,19.279-10.299,30.626c-0.026,6.999,0.212,14.005-0.045,20.995
		c-1.173,31.9,7.527,61.155,23.572,88.424c6.544,11.122,13.419,22.049,20.345,33.394c-1.578,1.756-3.217,3.376-4.622,5.178
		c-6.122,7.854-12.417,15.588-18.176,23.701c-4.777,6.728-8.312,14.389-13.435,20.808c-8.682,10.875-13.369,22.801-13,36.734
		c0.149,5.662,0.403,11.361-0.042,16.991c-1.759,22.206,4.514,42.822,12.001,63.244c3.152,8.597,8.603,15.531,14.543,22.423
		c15.833,18.371,34.955,30.512,59.251,33.883c2.295,0.318,4.552,0.989,6.792,1.619c19.667,5.526,39.59,8.883,60.126,7.452
		c3.559-0.248,7.15-0.035,10.261-0.035c2.066,5.587,2.609,11.199,5.647,14.546c12.52,13.794,25.683,27.062,41.616,37.043
		c2.972,1.861,6.81,3.39,10.215,3.327c14.614-0.272,29.311-0.426,43.784-2.205c7.303-0.897,15.073-3.915,21.1-8.152
		c18.113-12.741,31.167-30.019,38.793-50.791c8.777-23.906,22.113-45.458,34.319-67.501c10.668-19.267,18.009-39.555,21.09-60.824
		c2.843-19.617,2.144-39.8,2.263-59.737c0.059-9.764-3.617-18.802-8.783-27.22c-6.776-11.042-13.61-22.085-19.597-33.559
		c-3.458-6.625-5.361-14.073-7.794-21.209c-0.395-1.156-0.146-2.682,0.212-3.919c3.513-12.151,7.791-23.849,15.908-33.965
		c13.855-17.269,30.961-31.06,47.955-44.834c11.052-8.958,23.327-16.537,35.578-23.858c25.771-15.403,52.227-29.175,82.987-31.996
		c6.467-0.594,12.633-0.8,18.521,1.724c9.755,4.183,19.355,8.733,28.969,13.238c20.158,9.444,40.673,18.219,60.339,28.599
		c42.039,22.188,84.078,44.469,122.612,72.756c0.584,4.595-0.442,10.687,2.105,14.151c11.685,15.894,24.546,31.243,44.061,37.703
		c17.009,5.63,34.56,9.633,51.913,14.199c3.352,0.881,6.895,1.042,10.724,1.587c-0.229,2.563-0.159,4.233-0.55,5.788
		c-6.224,24.809-12.878,49.519-18.667,74.43c-5.483,23.593-9.634,47.495-15.171,71.074c-6.452,27.483-12.367,55.217-21.025,82.031
		c-15.224,47.153-32.723,93.553-54.111,138.349c-9.742,20.403-18.886,41.188-30.107,60.766
		c-23.485,40.974-47.684,81.568-75.844,119.618c-4.124,5.572-9.993,11.14-11.064,17.393c-1.758,10.272-0.324,21.106-0.04,31.698
		c0.041,1.553,0.815,3.377,1.841,4.566c9.07,10.519,18.506,19.704,34.382,18.45c18.215-1.437,36.534-1.645,54.814-2.133
		c13.646-0.365,27.315-0.028,40.953-0.549c13.937-0.531,27.837-2.187,41.773-2.518c18.986-0.451,37.996,0.174,56.985-0.229
		c9.938-0.212,19.912-1.201,29.763-2.595c29.944-4.237,59.79-9.178,89.758-13.227c45.832-6.192,91.524-12.933,136.034-26.025
		c9.508-2.797,19.216-4.917,29.226-7.449c0.463,2.623,0.91,4.222,1.006,5.843c1.291,21.863,2.509,43.731,3.803,65.595
		c0.333,5.633,0.265,11.379,1.408,16.86c3.762,18.035,10.197,35.211,19.787,50.917c5.116,8.379,11.928,15.724,18.315,23.975
		c-7.41,5.791-15.374,11.275-22.484,17.703c-28.499,25.762-61.125,45.86-92.319,67.922c-23.073,16.318-46.649,31.949-69.341,48.778
		c-38.828,28.796-73.72,62.146-108.117,95.983c-21.118,20.772-42.198,41.597-62.809,62.869
		c-28.227,29.135-55.606,59.077-80.307,91.31c-43.387,56.617-84.354,114.776-112.82,180.729
		c-9.76,22.617-19.111,45.542-22.341,70.025c-4.343,32.923-7.064,66.05-6.352,99.371c0.273,12.741,2.281,25.048,5.644,37.282
		c2.993,10.886,6.157,21.812,7.929,32.93c5.683,35.643,18.098,68.695,37.082,99.266c17.23,27.746,31.442,57.066,45.813,86.307
		c5.888,11.98,11.624,23.862,22.149,32.757c2.933,2.479,5.03,6.224,6.815,9.741c12.51,24.656,26.278,48.536,41.548,71.617
		c5.174,7.821,6.531,16.505,0.44,25.979c-8.722,13.564-13.324,28.661-12.191,45.39c0.898,13.271,0.341,26.652,0.129,39.98
		c-0.152,9.597-0.978,19.184-1.173,28.781c-0.177,8.653-0.24,17.334,0.247,25.968c0.71,12.578,2.717,25.124,2.757,37.688
		c0.038,11.855,4.34,21.244,12.286,29.417c5.11,5.256,10.047,10.741,15.595,15.503c18.502,15.879,38.503,28.559,64.24,27.949
		c1.282-0.031,2.575,0.384,4.022,0.617C973.5,3367.14,994.453,3407.519,1032.167,3438.758z"/>
	<path fill-rule="evenodd" clip-rule="evenodd" d="M1032.167,3438.758c-37.714-31.239-58.667-71.618-74.682-115.297
		c-1.447-0.233-2.74-0.648-4.022-0.617c-25.737,0.609-45.738-12.07-64.24-27.949c-5.548-4.762-10.485-10.247-15.595-15.503
		c-7.945-8.173-12.248-17.562-12.286-29.417c-0.04-12.564-2.047-25.11-2.757-37.688c-0.487-8.634-0.424-17.314-0.247-25.968
		c0.195-9.598,1.021-19.185,1.173-28.781c0.212-13.328,0.77-26.71-0.129-39.98c-1.133-16.729,3.469-31.825,12.191-45.39
		c6.091-9.475,4.734-18.158-0.44-25.979c-15.271-23.081-29.039-46.961-41.548-71.617c-1.785-3.518-3.882-7.262-6.815-9.741
		c-10.526-8.895-16.262-20.776-22.149-32.757c-14.371-29.24-28.583-58.561-45.813-86.307c-18.984-30.57-31.398-63.623-37.082-99.266
		c-1.772-11.118-4.936-22.044-7.929-32.93c-3.363-12.234-5.37-24.541-5.644-37.282c-0.713-33.321,2.008-66.448,6.352-99.371
		c3.23-24.483,12.581-47.408,22.341-70.025c28.466-65.952,69.433-124.111,112.82-180.729c24.7-32.232,52.08-62.175,80.307-91.31
		c20.611-21.272,41.691-42.097,62.809-62.869c34.397-33.837,69.289-67.188,108.117-95.983c22.691-16.829,46.268-32.46,69.341-48.778
		c31.193-22.062,63.82-42.16,92.319-67.922c7.11-6.428,15.074-11.912,22.484-17.703c-6.387-8.251-13.199-15.596-18.315-23.975
		c-9.59-15.705-16.024-32.882-19.787-50.917c-1.144-5.481-1.075-11.227-1.408-16.86c-1.294-21.864-2.512-43.732-3.803-65.595
		c-0.096-1.621-0.543-3.22-1.006-5.843c-10.009,2.531-19.717,4.652-29.226,7.449c-44.509,13.092-90.202,19.833-136.034,26.025
		c-29.968,4.048-59.814,8.989-89.758,13.227c-9.851,1.394-19.824,2.383-29.763,2.595c-18.989,0.403-37.999-0.222-56.985,0.229
		c-13.936,0.331-27.836,1.987-41.773,2.518c-13.638,0.521-27.307,0.184-40.953,0.549c-18.281,0.488-36.599,0.696-54.814,2.133
		c-15.876,1.254-25.313-7.931-34.382-18.45c-1.025-1.189-1.8-3.013-1.841-4.566c-0.284-10.592-1.718-21.426,0.04-31.698
		c1.071-6.253,6.94-11.821,11.064-17.393c28.161-38.05,52.359-78.644,75.844-119.618c11.221-19.578,20.366-40.363,30.107-60.766
		c21.388-44.796,38.888-91.196,54.111-138.349c8.658-26.814,14.573-54.547,21.025-82.031c5.537-23.579,9.688-47.481,15.171-71.074
		c5.79-24.911,12.444-49.621,18.667-74.43c0.391-1.555,0.321-3.224,0.55-5.788c-3.83-0.546-7.372-0.706-10.724-1.587
		c-17.353-4.566-34.904-8.568-51.913-14.199c-19.514-6.46-32.375-21.81-44.061-37.703c-2.548-3.464-1.521-9.557-2.105-14.151
		c-38.534-28.287-80.573-50.568-122.612-72.756c-19.666-10.379-40.181-19.155-60.339-28.599
		c-9.614-4.504-19.214-9.055-28.969-13.238c-5.888-2.524-12.054-2.318-18.521-1.724c-30.76,2.821-57.215,16.592-82.987,31.996
		c-12.25,7.322-24.526,14.9-35.578,23.858c-16.994,13.775-34.099,27.566-47.955,44.834c-8.117,10.117-12.395,21.814-15.908,33.965
		c-0.358,1.237-0.606,2.763-0.212,3.919c2.433,7.136,4.336,14.584,7.794,21.209c5.987,11.474,12.821,22.517,19.597,33.559
		c5.166,8.418,8.842,17.456,8.783,27.22c-0.119,19.937,0.58,40.12-2.263,59.737c-3.081,21.27-10.421,41.557-21.09,60.824
		c-12.207,22.043-25.542,43.595-34.319,67.501c-7.626,20.772-20.68,38.05-38.793,50.791c-6.026,4.238-13.797,7.255-21.1,8.152
		c-14.473,1.779-29.169,1.932-43.784,2.205c-3.406,0.063-7.244-1.465-10.215-3.327c-15.933-9.981-29.096-23.249-41.616-37.043
		c-3.038-3.348-3.581-8.959-5.647-14.546c-3.111,0-6.702-0.213-10.261,0.035c-20.537,1.431-40.46-1.926-60.126-7.452
		c-2.24-0.63-4.497-1.301-6.792-1.619c-24.296-3.371-43.419-15.512-59.251-33.883c-5.94-6.892-11.391-13.826-14.543-22.423
		c-7.487-20.422-13.76-41.038-12.001-63.244c0.445-5.63,0.191-11.33,0.042-16.991c-0.368-13.934,4.319-25.859,13-36.734
		c5.124-6.419,8.658-14.08,13.435-20.808c5.76-8.113,12.055-15.848,18.176-23.701c1.405-1.802,3.044-3.422,4.622-5.178
		c-6.926-11.345-13.8-22.272-20.345-33.394c-16.045-27.269-24.745-56.524-23.572-88.424c0.257-6.989,0.019-13.996,0.045-20.995
		c0.042-11.347,3.75-21.219,10.299-30.626c8.653-12.428,19.214-22.972,30.002-33.339c11.709-11.255,26.53-16.427,42.121-18.967
		c8.74-1.424,15.42-5.06,21.351-11.472c17.167-18.559,34.145-37.341,52.144-55.073c39.828-39.235,84.15-72.493,134.649-96.947
		c27.534-13.333,55.357-26.077,83.146-38.876c5.723-2.636,11.766-4.736,17.848-6.408c35.569-9.772,71.164-19.468,107.849-24.322
		c23.553-3.116,47.143-2.48,70.732-0.715c13.91,1.041,27.806,2.311,41.689,3.666c4.797,0.467,8.206-1.328,11.33-4.795
		c5.158-5.723,10.378-11.001,19.39-10.526c2.817,0.148,6.501-3.177,8.648-5.833c5.764-7.132,12.846-8.659,21.792-9.207
		c18.364-1.124,34.864,3.326,49.849,12.195c9.625-5.295,18.55-10.305,27.567-15.142c13.631-7.313,28.355-10.743,43.555-13.297
		c19.321-3.247,38.409-7.88,58.409-12.085c-1.124-0.945-1.803-1.874-2.706-2.224c-22.945-8.899-45.774-18.129-68.936-26.429
		c-12.499-4.479-25.585-7.308-38.389-10.948c-23.66-6.727-47.431-13.101-70.914-20.4c-15.68-4.875-29.034-13.794-41.893-24.361
		c-14.436-11.863-27.101-26.438-45.649-33.029c-12.371-4.396-20.397-14.771-28.06-24.795c-2.58-3.374-3.51-8.61-3.728-13.067
		c-0.521-10.639,0.018-21.325-0.244-31.984c-0.132-5.409,2.089-9.162,5.447-13.289c17.855-21.943,42.665-32.076,68.102-41.445
		c23.897-8.802,49.02-12.161,73.785-17.085c17.26-3.432,34.564-6.931,52.012-9.074c29.978-3.682,59.801-9.121,90.16-9.227
		c2.555-0.009,5.268-0.674,7.635-1.678c34.586-14.662,69.135-29.416,103.659-44.225c2.068-0.887,4.458-1.997,5.686-3.722
		c15.95-22.408,35.736-41.247,56.185-59.284c15.984-14.1,30.736-29.296,45.565-44.538c14.595-15,29.841-29.519,45.98-42.817
		c13.16-10.844,28.408-18.582,46.517-17.652c13.604,0.699,27.241,0.914,40.821,1.918c10.092,0.745,19.383,4.175,27.723,10.236
		c4,2.907,8.618,4.976,13.001,7.343c7.017,3.79,13.896,7.895,21.148,11.177c12.394,5.608,25.413,9.937,37.478,16.145
		c21.047,10.83,42.76,12.595,65.809,9.074c14.063-2.149,28.48-2.159,42.754-2.694c23.268-0.873,46.545-1.624,69.824-1.929
		c8.261-0.108,16.559,1.078,24.809,1.958c9.307,0.992,16.814,5.444,23.476,12.021c29.446,29.072,55.614,60.831,79.203,94.806
		c16.904,24.347,33.485,48.869,46.682,75.478c3.69,7.438,6.566,15.277,9.974,22.861c4.9,10.902,9.104,22.248,15.258,32.403
		c3.404,5.617,9.764,9.881,15.608,13.393c2.833,1.701,7.604,0.681,11.403,0.179c17.773-2.351,35.75-3.881,53.203-7.743
		c20.082-4.443,40.058-10.008,59.396-16.983c17.677-6.375,35.513-10.571,54.069-13.064c23.104-3.102,46.15-5.708,69.515-5.591
		c11.905,0.06,21.876,2.479,29.953,12.3c6.12,7.442,14.132,13.428,14.981,23.961c1.249,15.493,3.61,31.082-2.736,46.141
		c-0.515,1.221-1.469,2.604-1.256,3.729c1.808,9.593-5.164,14.314-10.658,19.973c-12.804,13.189-27.551,23.681-42.613,34.24
		c-33.452,23.45-70.504,39.914-106.483,58.468c-27.21,14.032-56.076,24.222-84.974,34.204
		c-25.113,8.675-50.234,17.329-76.206,26.287c0.522,3.083,0.99,6.289,1.615,9.463c5.469,27.794,4.258,55.645-0.435,83.292
		c-4.052,23.879-15.02,44.566-32.495,61.597c-0.949,0.924-1.792,1.962-2.639,2.987c-0.182,0.22-0.161,0.607-0.417,1.698
		c12.163,1.168,22.337,6.775,29.693,13.876c6.851-1.288,12.1-2.897,17.398-3.079c4.459-0.153,7.821-1.479,10.31-4.86
		c9.507-12.918,22.73-16.379,37.885-15.371c4.314,0.287,8.679,0.288,12.992-0.004c10.853-0.732,21.107,0.937,30.944,5.867
		c3.783,1.897,8.266,2.375,12.399,3.601c11.416,3.389,21.054,9.996,29.866,17.635c7.033,6.095,13.407,12.978,19.815,19.756
		c9.025,9.546,15.349,20.722,18.256,32.491c24.867,5.717,48.915,10.701,72.651,16.886c17.036,4.439,33.752,10.196,50.438,15.871
		c34.601,11.768,69.438,22.965,103.511,36.124c27.567,10.646,54.904,22.411,80.99,36.234c31.683,16.787,57.284,40.98,74.099,73.335
		c9.566,18.413,16.393,37.872,19.157,58.467c1.587,11.816,2.413,23.815,2.469,35.737c0.146,30.98-0.069,61.969-0.635,92.946
		c-0.394,21.576-4.246,42.897-5.981,64.345c-1.537,18.987-8.3,35.963-14.205,53.547c-3.65,10.872-4.873,22.594-6.807,34
		c-4.055,23.933-8.583,47.741-16.196,70.858c-0.39,1.185-0.266,2.541-0.449,4.593c5.158,0.573,9.979,1.283,14.828,1.61
		c11.602,0.784,23.311,0.691,34.8,2.248c13.161,1.783,26.159,4.506,35.536,15.75c5.527,6.628,11.847,12.684,18.336,18.402
		c14.117,12.439,19.938,28.794,21.984,46.628c1.511,13.171,1.609,26.508,2.215,39.778c0.622,13.66-0.835,27.144-2.88,40.664
		c-1.532,10.125-1.565,20.476-2.351,31.964c1.267,0.552,3.48,1.926,5.886,2.504c42.22,10.174,80.119,30.098,117.439,51.472
		c8.627,4.94,18.056,8.469,27.063,12.761c6.894,3.286,14.023,6.233,20.487,10.238c16.395,10.16,33.121,19.967,48.508,31.522
		c17.246,12.953,33.843,26.957,49.53,41.765c37.763,35.643,72.834,73.884,106.794,113.17c11.521,13.33,24.095,25.752,36.228,38.55
		c25.112,26.489,46.276,55.677,61.824,88.864c4.5,9.604,9.999,18.771,15.459,27.889c18.975,31.689,38.21,63.224,57.169,94.924
		c4.691,7.845,10.228,14.681,18.035,19.576c2.247,1.409,4.432,2.987,6.405,4.755c9.188,8.229,19.632,13.799,30.95,19.04
		c23.233,10.758,44.906,24.747,63.615,42.57c10.595,10.094,21.661,20.07,30.308,31.735c11.028,14.88,21.555,30.619,29.259,47.384
		c22.189,48.286,34.339,99.793,43.453,151.86c3.716,21.219,3.476,43.118-4.631,64.002c-2.26,5.822-3.873,11.894-4.677,19.027
		c4.14-3.373,8.468-6.54,12.388-10.151c22.499-20.722,45.721-40.746,67.1-62.575c19.94-20.359,38.773-41.798,54.658-65.844
		c21.798-32.997,44.887-65.162,68.142-97.161c6.366-8.76,14.877-16.147,23.17-23.274c11.213-9.637,24.709-13.643,39.543-14.183
		c22.889-0.832,45.106,1.499,66.503,10.319c10.631,4.383,20.193,10.089,28.287,18.251c5.163,5.207,10.44,10.3,15.521,15.586
		c2.05,2.136,4.339,4.391,5.426,7.038c3.471,8.46,8.653,15.476,15.125,21.916c3.142,3.127,4.697,7.85,6.969,11.852
		c1.137,2.004,1.816,4.559,3.476,5.921c6.252,5.135,6.586,12.374,8.637,19.438c7.262,25.025,1.687,50.336,2.916,75.455
		c0.223,4.556-0.567,9.351-1.849,13.756c-6.446,22.168-5.372,45.408-9.957,67.806c-3.263,15.938-6.886,31.811-10.741,47.617
		c-2.255,9.247-7.655,16.798-14.336,23.542c-22.964,23.178-45.484,46.806-68.841,69.578c-17.125,16.697-35.553,32.052-52.911,48.518
		c-12.554,11.909-24.479,24.497-36.339,37.107c-5.697,6.058-12.554,10.019-20.17,12.4c-18.5,5.784-36.174,13.35-52.938,23.028
		c-28.584,16.502-58.938,29.32-88.997,42.726c-17.909,7.985-36.171,15.177-54.255,22.774c-1.188,0.499-2.202,1.416-3.43,2.228
		c10.584,20.311,8.209,41.155,3.366,62.075c-0.503,2.172-1.726,4.424-3.234,6.071c-4.271,4.666-8.813,9.093-13.37,13.486
		c-1.154,1.113-2.676,1.981-4.182,2.573c-25.407,9.981-51.742,16.33-78.578,21.244c-16.571,3.035-33.188,6.662-48.405,14.803
		c-3.907,2.09-8.952,2.469-13.532,2.777c-6.636,0.447-13.338-0.154-19.985,0.191c-6.765,0.352-12.637-1.655-17.387-6.163
		c-18.821-17.869-37.595-35.795-56.126-53.964c-10.451-10.246-20.398-21.008-29.691-30.627c-10.821,1.933-20.448,3.65-30.711,5.482
		c-1.051,6.732,0.513,14.532-6.287,19.828c-5.678,4.424-9.329,11.974-17.22,12.86c-7.167,0.806-14.495,0.172-22.993,0.172
		c0,6.413,0.414,11.688-0.158,16.854c-0.335,3.028-1.568,6.477-3.548,8.721c-13.118,14.854-13.259,13.999-33.298,15.034
		c-13.141,0.679-22.489-3.47-31.535-12.914c-8.678-9.06-14.856-18.493-16.422-30.927c-0.366-2.91-1.339-5.743-1.729-7.351
		c-14.224,0-27.797,0.083-41.367-0.098c-1.81-0.024-4.011-0.95-5.329-2.199c-5.076-4.805-10.313-9.565-14.568-15.058
		c-1.982-2.558-2.66-6.788-2.504-10.195c0.281-6.126-0.987-11.126-6.148-14.788c-9.569-6.789-13.173-15.989-11.431-27.558
		c0.49-3.26,0.253-6.666,0.039-9.985c-0.527-8.165-0.454-16.063,8.005-21.43c-11.685-12.053-7.407-26.583-7.644-40.234
		c-0.045-2.598,2.172-5.53,3.974-7.813c12.204-15.468,14.641-16.566,34.388-16.558c5.616,0.003,11.231,0.001,17.307,0.001
		c0-10.797,0.145-21.94-0.072-33.079c-0.082-4.302,1.209-7.477,4.223-10.629c15.515-16.235,15.445-15.862,37.728-16.496
		c9.549-0.271,16.782,2.828,23.033,9.404c6.859,7.216,13.651,14.497,20.409,21.681c7.957-0.916,16.359-1.885,25.73-2.964
		c2.67-9.212,5.246-19.08,8.417-28.754c2.834-8.647,3.124-8.553,0.678-19.271c-0.548-0.368-1.051-0.87-1.654-1.08
		c-15.948-5.526-31.843-11.219-47.885-16.458c-11.825-3.863-22.714-9.355-32.942-16.389c-18.637-12.813-37.291-25.604-56.148-38.086
		c-17.788-11.773-34.933-24.32-50.677-38.754c-8.574-7.86-17.519-15.317-26.095-23.175c-11.727-10.743-16.913-24.601-17.269-40.124
		c-0.326-14.308,0.24-28.639,0.566-42.955c0.168-7.431,1.896-14.529,6.474-20.548c6.227-8.186,12.514-16.339,19.119-24.218
		c4.013-4.786,8.676-9.026,13.328-13.799c-9.726-11.005-10.979-23.887-10.879-36.952c0.126-16.287,1.392-32.582,1.022-48.848
		c-0.217-9.535-1.867-19.226-4.272-28.482c-4.142-15.923-6.092-31.937-5.547-48.338c0.119-3.618,0.346-7.541-0.824-10.846
		c-6.423-18.148-12.921-36.287-20.159-54.116c-2.316-5.706-6.915-10.503-10.591-15.63c-1.348-1.883-3.214-3.396-4.556-5.283
		c-22.282-31.329-52.69-53.018-84.782-73.132c-19.431-12.178-41.03-18.823-61.639-27.99c-3.031-1.348-6.404-2.336-8.916-4.363
		c-8.949-7.223-19.593-9.413-30.47-11.101c-37.44-5.804-74.85-11.84-112.35-17.229c-12.127-1.744-24.592-1.104-36.742-2.738
		c-20.085-2.704-39.977-6.838-60.065-9.501c-21.064-2.792-42.226-5.107-63.417-6.564c-11.883-0.817-23.914,0.503-35.877,0.906
		c-11.517,0.388-21.535-2.374-29.169-11.932c-4.133-5.177-9.896-9.081-13.846-14.366c-3.758-5.027-8.178-5.768-13.798-5.802
		c-16.301-0.1-32.603-1.077-48.896-0.918c-17.614,0.173-35.218,1.315-52.829,1.897c-18.583,0.615-37.172,1.068-56.906,1.625
		c-1.211,4.474-2.697,9.817-4.099,15.184c-1.341,5.14-1.793,10.682-4.022,15.392c-10.263,21.683-11.518,45.525-16.752,68.381
		c-3.399,14.842-4.327,30.236-7.379,45.175c-1.13,5.528-4.878,10.645-7.988,15.599c-1.727,2.753-4.596,4.789-6.952,7.146
		c-13.132,13.132-13.114,13.465-30.921,14.445c-19.585,1.08-39.207,1.598-58.821,2.06c-5.275,0.124-10.648-0.445-15.852-1.39
		c-12.736-2.311-25.473-4.72-38.051-7.749c-4.267-1.027-8.385-3.578-12.01-6.207c-13.216-9.582-19.017-22.625-17.2-38.963
		c0.136-1.222-0.25-2.502-0.516-4.815c-2.81,1.544-5.112,2.542-7.127,3.953c-32.771,22.945-67.637,42.297-102.864,61.152
		c-15.487,8.289-29.741,18.908-44.421,28.672c-22.156,14.734-44.194,29.645-66.28,44.483c-1.379,0.927-3.086,1.608-4.059,2.857
		c-25.547,32.783-60.457,53.686-94.991,75.088c-43.553,26.991-87.143,53.925-130.556,81.14c-21.974,13.775-43.6,28.105-65.37,42.205
		c-2.231,1.444-4.31,3.127-6.563,4.534c-3.704,2.313-5.215,5.346-5.256,9.906c-0.145,15.955-0.958,31.904-1.116,47.859
		c-0.052,5.293-1.138,9.789-4.77,13.684c-7.484,8.021-14.17,16.998-22.58,23.875c-5.855,4.789-14.034,6.733-22.038,10.336
		c3.273,8.488,6.908,17.989,10.604,27.467c2.051,5.261,4.602,10.365,6.204,15.756c1.763,5.934,5.085,9.758,10.993,11.671
		c34.716,11.248,65.653,30.469,98.053,46.605c3.575,1.78,7.061,3.779,10.744,5.295c12.8,5.27,23.597,13.261,33.753,22.632
		c12.925,11.928,27.078,22.53,39.942,34.518c9.708,9.047,19.133,18.695,27.031,29.306c9.086,12.206,17.747,25.142,23.932,38.951
		c4.317,9.638,5.328,21.231,5.753,32.032c0.841,21.278,0.248,42.613,0.248,64.974c12.29,5.518,22.399,15.082,36.368,19.947
		c16.764,5.839,33.62,9.951,50.843,13.464c4.747,0.968,9.161,3.563,16.003,6.332c1.582-2.186,3.944-5.038,5.811-8.185
		c1.086-1.828,1.956-4.134,1.928-6.212c-0.115-8.958-0.906-17.916-0.776-26.864c0.043-3.024,1.422-6.554,3.342-8.917
		c3.764-4.63,7.859-9.299,12.721-12.635c4.08-2.8,9.442-3.728,15.753-6.039c0-3.696,0.411-8.984-0.103-14.182
		c-0.653-6.601,2.32-10.881,6.472-15.711c8.156-9.488,17.288-12.811,30.113-13.412c20.074-0.94,29.774,10.275,36.379,24.594
		c8.3,0,16.634,0.278,24.938-0.092c6.111-0.272,10.983,1.269,15.003,6.068c4.097,4.894,8.565,9.493,15.993,8.192
		c0.901-0.158,2.202,0.104,2.858,0.688c8.291,7.376,18.577,13.399,17.705,26.921c-0.361,5.595-0.061,11.232-0.061,17.405
		c14.683,0.417,22.415,10.007,28.923,20.51c2.454,3.96,2.629,9.358,3.702,14.133c0.284,1.27-0.122,2.682,0.068,3.987
		c2.251,15.417-2.109,28.188-14.896,37.647c-3.289,2.432-3.966,5.801-3.848,9.704c0.201,6.66-0.278,13.352,0.157,19.988
		c0.339,5.162-1.214,9.059-5.197,12.164c-4.447,3.468-7.053,7.653-6.325,13.683c0.599,4.959-1.628,8.94-5.47,12.174
		c-2.54,2.139-4.889,4.548-7.068,7.059c-3.516,4.049-7.8,6.176-13.158,5.705c-7.222-0.632-13.706,1.039-19.886,4.927
		c-3.291,2.069-7.239,3.09-10.79,4.542c5.027,13.646,14.366,24.12,23.525,34.606c2.684,3.072,6.693,5.621,10.59,6.896
		c22.596,7.398,38.193,23.994,53.362,40.788c8.954,9.914,11.386,23.321,12.014,36.148c1.136,23.226,0.536,46.547-3.051,69.604
		c-3.256,20.94-12.827,39.807-20.792,59.145c-3.913,9.5-9.019,18.507-13.482,27.787c-8.435,17.539-22.431,30.513-36.381,43.327
		c-3.204,2.942-9.119,3.739-13.874,4.021c-9.964,0.591-20.03,0.742-29.968-0.033c-5.743-0.448-11.317-3.056-17.67-4.894
		c-1.157,2.917-2.65,5.844-3.494,8.945c-9.217,33.862-22.075,66.253-40.035,96.423c-5.217,8.764-11.593,17.097-18.662,24.452
		c-27.985,29.122-58.601,54.888-94.386,74.344c-23.814,12.949-48.54,23.074-74.523,30.59c-25.225,7.296-49.93,16.622-75.426,22.701
		c-35.213,8.395-70.9,14.856-106.482,21.634c-33.69,6.417-67.852,8.975-102.047,10.813c-14.276,0.769-28.6,0.633-42.885,1.271
		c-6.474,0.288-11.693-1.72-16.164-6.206c-8.938-8.97-17.988-17.832-26.769-26.953c-1.686-1.749-3.465-4.58-3.276-6.743
		c0.54-6.151-2.671-10.629-4.94-15.784c-3.857-8.763-7.448-17.813-9.664-27.097c-7.333-30.735-11.316-62.01-13.645-93.512
		c-1.725-23.323,2.81-45.672,9.953-67.669c1.849-5.697,3.646-11.414,5.346-17.157c5.614-18.97,15.72-35.054,30.348-48.415
		c6.391-5.838,12.315-12.189,18.423-18.338c6.904-6.948,14.991-10.513,25.028-10.256
		C1001.194,3439.034,1015.764,3438.758,1032.167,3438.758z M1191.306,3406.646c-1.069,0.94-2.361,1.96-3.522,3.112
		c-11.537,11.441-22.453,23.427-37.616,30.696c-6.048,2.901-11.824,7.686-16.08,16.8c7.389-2.042,12.767-3.196,17.893-5.047
		c4.667-1.685,9.104-4.04,13.568-6.248c13.003-6.433,25.969-12.94,39.043-19.465
		C1199.992,3419.62,1195.886,3413.486,1191.306,3406.646z"/>
	<path fill-rule="evenodd" clip-rule="evenodd" fill="#FFFFFF" d="M1191.306,3406.646c4.58,6.84,8.686,12.974,13.287,19.849
		c-13.074,6.524-26.04,13.032-39.043,19.465c-4.465,2.208-8.901,4.563-13.568,6.248c-5.126,1.851-10.504,3.005-17.893,5.047
		c4.256-9.114,10.032-13.898,16.08-16.8c15.163-7.27,26.079-19.255,37.616-30.696
		C1188.945,3408.606,1190.237,3407.587,1191.306,3406.646z"/>
</g>
</svg>
