<?xml version="1.0" encoding="utf-8"?>
<!-- Generator: Adobe Illustrator 16.0.2, SVG Export Plug-In . SVG Version: 6.00 Build 0)  -->
<!DOCTYPE svg PUBLIC "-//W3C//DTD SVG 1.1//EN" "http://www.w3.org/Graphics/SVG/1.1/DTD/svg11.dtd">
<svg version="1.1" id="Layer_1" xmlns="http://www.w3.org/2000/svg" xmlns:xlink="http://www.w3.org/1999/xlink" x="0px" y="0px"
	 width="4960.38px" height="3505.562px" viewBox="0 0 4960.38 3505.562" enable-background="new 0 0 4960.38 3505.562"
	 xml:space="preserve">
<g>
	<path fill-rule="evenodd" clip-rule="evenodd" fill="#FFFFFF" d="M4,4.17c1654.15,0,3308.302,0,4962.917,0
		c0,1168.57,0,2337.31,0,3506.72c-1653.996,0-3308.457,0-4962.917,0C4,2342.438,4,1173.39,4,4.17z M2880.077,3192.301
		c9.335-0.501,17.039,0.414,23.79-1.706c5.194-1.631,8.694-8.152,13.853-10.546c5.727-2.657,13.477-0.2,18.065-6.613
		c0.77-1.075,1.638-2.232,2.737-2.888c2.196-1.312,4.624-3.323,6.889-3.237c7.501,0.284,11.668-5.42,17.401-8.168
		c9.815-4.704,21.137-6.256,28.479-15.601c0.575-0.731,2.568-0.577,3.871-0.47c6.711,0.558,11.25-2.929,15.468-7.59
		c1.66-1.835,4.313-4.019,6.454-3.957c8.866,0.255,15.323-3.253,20.318-10.383c1.013-1.444,3.333-2.883,4.986-2.814
		c9.308,0.384,13.916-6.368,19.907-11.663c7.214-6.376,13.566-14.926,25.278-13.81c2.073,0.198,4.825-2.17,6.587-4.004
		c10.103-10.514,20.001-21.226,29.704-31.587c6.759-1.618,14.28,0.521,18.841-5.958c3.83-5.442,8.945-7.321,15.443-7.158
		c6.906,0.173,9.504-6.767,14.438-9.552c5.497-3.104,12.352-3.76,18.54-5.718c1.111-0.352,2.107-1.712,2.729-2.842
		c2.511-4.556,6.279-6.631,11.438-6.374c5.104,0.255,8.847-2.242,12.079-5.923c2.184-2.485,4.578-4.784,6.89-7.155
		c5.914-6.064,10.904-13.452,21.272-12.208c2.104,0.252,4.913-1.93,6.772-3.66c9.7-9.021,19.954-17.604,28.6-27.568
		c14.854-17.12,31.399-32.438,47.873-47.873c1.846-1.729,4.507-4.008,6.594-3.823c10.473,0.927,15.272-6.2,20.986-12.908
		c4.711-5.528,11.303-9.492,15.803-15.149c7.154-8.996,19.563-14.495,19.541-28.625c-0.003-2.085,2.651-4.343,4.388-6.235
		c10.294-11.217,20.388-22.64,31.14-33.403c6.58-6.586,14.266-11.918,13.312-22.94c-0.165-1.905,2.658-4.283,4.442-6.109
		c11.093-11.359,22.216-22.694,33.459-33.905c15.979-15.932,31.9-31.924,48.164-47.559c11.88-11.419,15.998-16.793,24.304-34.768
		c0.811-1.754,2.158-3.324,3.496-4.755c4.515-4.827,8.935-9.773,13.782-14.249c4.098-3.782,7.329-7.693,7.018-13.627
		c-0.264-5.027,1.475-8.822,5.984-11.674c4.044-2.559,6.744-6.435,6.627-11.63c-0.111-4.954,1.407-9.133,5.564-12.149
		c6.292-4.569,4.424-12.048,6.665-18.007c2.215-5.888,7.18-10.736,10.868-16.089c0.328-0.476,0.287-1.329,0.174-1.964
		c-1.428-8.074,4.537-11.884,9.438-16.208c6-5.293,0.272-14.949,7.556-19.754c1.638-1.08,3.053-2.617,4.275-4.174
		c1.21-1.542,2.968-3.417,2.894-5.075c-0.398-8.769,3.12-15.051,10.103-20.293c2.152-1.615,2.921-5.857,3.203-8.998
		c0.441-4.916,2.155-8.709,5.542-12.363c2.55-2.75,5.274-6.646,5.356-10.094c0.162-6.785,2.939-11.325,8.014-15.156
		c5.669-4.28,2.723-11.463,5.267-16.499c2.854-5.655,7.701-10.3,11.611-15.438c0.344-0.451,0.262-1.299,0.229-1.955
		c-0.328-6.433,2.115-11.23,7.091-15.576c2.66-2.324,3.484-6.794,5.02-10.347c1.265-2.928,1.498-7.31,3.674-8.665
		c9.453-5.896,10.592-14.562,10.037-24.352c-0.222-3.923,0.395-7.892,0.574-10.912c1.071-1.413,1.355-2.132,1.878-2.429
		c11.672-6.625,6.766-22.805,17.401-30.227c1.686-1.176,2.354-4.847,2.266-7.32c-0.212-5.944,2.037-10.063,6.908-13.378
		c5.409-3.681,7.206-9.23,6.892-15.682c-0.461-9.429-0.457-18.555,8.522-25.121c2.175-1.591,3.334-5.963,3.237-9.001
		c-0.265-8.274,8.004-10.259,10.712-15.934c2.754-5.771,3.74-12.371,5.75-18.527c0.353-1.079,1.883-1.829,2.957-2.61
		c6.338-4.609,4.602-11.931,6.439-18.114c2.021-6.795,11.795-9.27,11.145-17.997c-0.439-5.883,1.745-10.091,6.715-13.419
		c4.794-3.208,6.207-8.254,6.073-13.982c-0.218-9.305-0.059-18.618-0.059-29.416c11.874-6.034,12.087-17.296,11.417-28.966
		c-0.268-4.648-0.23-9.351,0.171-13.984c0.219-2.525,0.723-6.156,2.412-7.243c11.15-7.167,9.346-18.233,9.348-28.767
		c0.025-134.644,0.024-269.286,0.007-403.931c-0.002-17.303-0.062-17.303-11.987-31.002c0-5.658,0.001-12.296,0-18.937
		c-0.004-21.996,0.016-43.991-0.03-65.989c-0.011-5.288,0.916-11.299-3.926-14.853c-7.713-5.659-7.478-13.491-7.386-21.551
		c0.06-5.331-0.195-10.671,0.018-15.995c0.23-5.752-1.754-10.315-6.081-14.072c-2.429-2.108-4.567-4.549-6.184-6.179
		c-0.172-2.567-0.331-3.896-0.34-5.227c-0.075-10.57,1.538-21.563-9.598-28.653c-1.67-1.063-2.374-4.808-2.276-7.264
		c0.296-7.555-3.732-12.244-9.045-16.804c-5.913-5.075-0.532-15.011-7.58-19.758c-6.803-4.583-9.237-10.662-8.528-18.719
		c0.714-8.121,0.16-15.993-7.536-21.498c-1.938-1.386-3.938-4.383-3.867-6.574c0.286-8.934-3.606-15.161-10.484-20.352
		c-1.818-1.372-3.18-4.381-3.33-6.729c-0.363-5.716-2.619-10.06-6.704-13.962c-1.787-1.707-3.723-4.634-3.521-6.815
		c0.987-10.686-6.479-16.874-12.448-23.699c0-3.139-0.178-5.804,0.032-8.437c0.783-9.842-0.766-18.509-10.027-24.384
		c-1.834-1.163-3.287-4.415-3.285-6.702c0.006-7.254-2.843-12.592-8.199-17.358c-2.175-1.935-3.749-5.633-3.852-8.59
		c-0.254-7.352-3.186-12.32-9.312-16.469c-5.421-3.671-9.901-8.734-15.291-13.632c-0.28-8.348-0.689-17.012-8.841-22.837
		c-1.731-1.237-2.647-4.764-2.563-7.188c0.292-8.304-4.853-12.626-10.062-18.187c-11.361-12.125-27.796-20.914-29.382-40.418
		c-0.169-2.082-3.35-3.956-5.203-5.857c-15.294-15.693-30.442-31.536-46.015-46.949c-4.367-4.323-8.23-7.979-8.49-14.847
		c-0.132-3.466-2.875-7.37-5.457-10.118c-15.87-16.893-31.727-33.821-48.169-50.152c-25.842-25.666-52.42-50.594-78.072-76.444
		c-7.046-7.101-13.97-12.138-19.595-11.413c-9.704-8.121-16.875-14.08-23.997-20.096c-6.066-5.124-12.079-10.313-18.115-15.473
		c-9.959,0.84-15.131-6.649-21.543-12.138c-1.335-1.144-3.864-1.593-5.695-1.331c-7.897,1.124-11.449-5.293-16.919-8.659
		c-5.337-3.283-12.213-4.054-18.388-6.008c-0.54-0.171-0.98-0.887-1.314-1.44c-3.776-6.265-9.188-8.988-16.604-9.076
		c-2.893-0.034-6.176-2.12-8.543-4.138c-4.533-3.86-8.417-8.471-12.81-12.513c-2.39-2.198-5.223-5.409-7.934-5.487
		c-8.634-0.249-15.307-2.975-20.086-10.396c-0.92-1.429-3.49-2.725-5.169-2.579c-8.91,0.772-13.918-6.108-20.723-9.287
		c-9.371-4.375-19.004-7.583-26.461-15.178c-0.792-0.808-2.513-1.071-3.768-0.997c-6.637,0.393-10.99-3.112-15.483-7.513
		c-2.58-2.526-6.893-4.106-10.59-4.479c-5.626-0.567-10.349-2.055-14.05-6.409c-3.316-3.902-7.765-4.768-12.618-4.677
		c-5.313,0.101-11.907,1.807-14.822-0.282c-13.437-9.629-20.92-25.955-39.426-26.108c-1.466-0.013-2.942-2.375-4.361-3.702
		c-2.89-2.7-5.744-5.438-8.511-8.063c-3.746-0.171-7.065-0.45-10.384-0.448c-8.05,0.003-15.982,0.506-21.266-7.808
		c-2.73-4.299-7.978-4.271-12.732-4.198c-9.327,0.145-18.271,0.314-25.729-7.567c-2.571-2.719-8.661-2.741-13.174-2.868
		c-12.611-0.356-25.24-0.124-38.121-0.124c-6.108-12.51-16.095-15.762-28.508-14.251c-4.594,0.561-9.359,0.412-13.971-0.102
		c-3.146-0.35-7.312-0.956-9.031-3.068c-6.912-8.487-16.061-8.336-25.471-8.065c-6.219,0.179-11.712-0.551-15.402-6.891
		c-2.93-5.032-8.437-5.885-14.063-5.788c-9.301,0.161-18.608,0.044-28.148,0.044c-3.605-4.477-6.864-8.522-10.519-13.06
		c7.83-15.849,15.787-31.17,23.058-46.812c26.079-56.118,60.124-106.501,104.282-150.2c35.521-35.151,68.962-72.282,100.137-111.44
		c9.726-12.216,15.623-26.293,22.34-39.936c4.953-10.057,0.406-21.912-8.499-28.318c-7.132-5.128-18.034-3.556-27.434,3.332
		c-5.319,3.898-11.086,7.234-16.857,10.455c-14.104,7.876-29.653,11.717-45.113,15.805c-33.151,8.768-63.988,22.307-91.587,43.085
		c-19.22,14.468-40.181,26.224-62.526,35.209c-23.713,9.535-45.46,22.154-64.809,38.888c-3.02,2.611-6.328,4.883-9.483,7.339
		c-45.194,35.174-91.605,68.737-131.935,109.944c-23.809,24.327-47.958,48.084-67.67,76.001
		c-6.465,9.155-13.27,18.225-22.147,25.675c-7.528,0-14.852,0-22.176,0c-58.657,0-117.314,0.228-175.968-0.188
		c-11.944-0.084-22.55,0.95-29.399,12.188c-7.302,0-13.948-0.001-20.593,0c-22.662,0.004-45.327,0.124-67.988-0.055
		c-7.001-0.055-13.339,0.861-17.614,7.068c-3.064,4.447-7.544,4.977-12.334,4.959c-4.666-0.018-9.417,0.592-13.98-0.084
		c-12.442-1.841-22.039,2.521-28.454,12.355c-3.75,0.177-6.419,0.542-9.058,0.383c-8.949-0.54-16.957,0.575-23.576,7.924
		c-2.19,2.431-7.123,2.978-10.89,3.272c-6.626,0.519-13.333,0.451-19.981,0.124c-6.563-0.324-11.62,1.917-15.592,7.067
		c-1.943,2.521-4.138,4.847-6.114,7.141c-12.946,0-24.937-0.233-36.911,0.119c-4.524,0.133-10.691,0.065-13.194,2.779
		c-7.409,8.033-16.383,7.987-25.704,7.579c-7.197-0.315-12.921,1.907-17.545,7.523c-1.602,1.945-4.098,3.154-6.379,4.842
		c-6.822,0-13.996-1.595-20.021,0.356c-10.244,3.318-16.492,14.869-28.918,15.003c-1.97,0.021-3.799,3.48-5.875,5.12
		c-6.26,4.942-12.611,9.773-18.925,14.646c0.402,2.733-1.582,3.15-3.555,3.105c-10.04-0.226-19.92-0.734-27.456,8.259
		c-1.709,2.039-6.09,2.513-9.248,2.531c-7.734,0.045-11.117,6.439-16.538,9.873c-5.303,3.36-12.374,3.842-18.507,6.04
		c-1.653,0.593-3.009,2.662-3.991,4.35c-2.323,4.001-5.936,5.102-10.125,4.989c-12.664-0.34-18.215,15.489-31.583,13.88
		c-1.316-0.158-3.361,2.168-4.38,3.777c-3.121,4.925-7.18,7.616-13.192,7.119c-5.12-0.424-8.697,2.415-12.114,5.844
		c-4.211,4.226-8.596,8.307-13.173,12.13c-2.444,2.041-5.393,4.699-8.216,4.827c-7.293,0.331-12.489,3.127-16.941,8.85
		c-1.74,2.237-5.55,4.029-8.399,4.004c-6.724-0.058-11.609,2.663-15.407,7.698c-2.725,3.61-6.313,4.767-10.471,4.53
		c-7.737-0.443-11.195,5.495-16.4,9.515c-5.331,4.117-13.172,4.896-19.752,7.541c-1.652,0.664-2.646,2.912-4.004,4.375
		c-2.263,2.437-4.402,5.029-6.9,7.204c-10.182,8.862-17.181,22.259-33.21,22.947c-2.145,0.092-4.044,3.242-6.265,4.65
		c-12.619,8.002-19.95,21.177-30.611,31.12c-15.986,14.908-31.68,30.139-47.231,45.501c-18.357,18.133-36.542,36.446-54.499,54.974
		c-2.534,2.615-3.929,6.759-4.798,10.443c-0.901,3.818-0.8,7.437-4.104,10.695c-16.043,15.819-31.475,32.263-47.682,47.908
		c-4.989,4.816-9.504,8.854-9.574,16.478c-0.026,2.867-2.075,6.201-4.134,8.477c-7.562,8.354-14.974,16.986-23.505,24.27
		c-6.037,5.156-10.019,10.238-9.922,18.38c0.029,2.421-0.965,5.833-2.718,7.126c-7.477,5.512-7.427,13.664-7.976,20.99
		c-4.095,3.502-7.88,6.229-11.043,9.547c-6.731,7.066-15.619,12.866-14.535,24.792c0.186,2.046-2.091,4.86-3.968,6.446
		c-5.541,4.686-6.331,10.956-8.174,17.454c-1.648,5.81-7.626,10.287-11.069,15.745c-1.275,2.021-0.968,5.159-1.037,7.797
		c-0.14,5.291-0.042,10.588-0.042,17.248c-1.955,1.405-4.082,3.021-6.294,4.506c-7.299,4.901-3.558,14.063-7.463,19.77
		c-3.96,5.791-11.513,8.925-11.208,17.8c0.099,2.878-1.72,6.623-3.899,8.622c-5.355,4.912-6.163,11.012-7.81,17.577
		c-1.479,5.89-7.219,10.612-10.452,16.212c-1.206,2.086-0.788,5.196-0.842,7.845c-0.108,5.304-0.032,10.613-0.032,16.341
		c-7.157,5.408-13.02,10.819-13.486,20.916c-0.222,4.819-6.735,9.173-9.86,14.081c-3.165,4.969,1.197,12.729-4.956,16.488
		c-8.873,5.421-9.783,13.589-9.249,22.576c0.408,6.878-0.268,13.188-6.558,17.731c-4.789,3.458-5.479,8.811-5.432,14.339
		c0.063,7.331,0.202,14.677-0.195,21.99c-0.173,3.182-0.576,7.712-2.634,9.203c-9.946,7.208-8.265,17.446-8.296,27.319
		c-0.06,18.663-0.018,37.327-0.018,55.99c0,7.928,0,15.856,0,24.249c-13.107,5.46-12.968,16.025-12.957,27.073
		c0.141,135.978,0.215,271.954-0.12,407.93c-0.03,12.144,1.579,22.399,13.088,28.825c0,9.334,0.054,17.978-0.019,26.619
		c-0.051,6.108,0.116,12.089,5.497,16.34c4.618,3.647,5.959,8.537,5.641,14.191c-0.186,3.321,0.865,6.96-0.145,9.946
		c-5.83,17.228,13.73,26.332,13.229,42.018c-0.095,2.952,4.59,6.074,7.119,9.075c0.413,0.49,1.291,0.636,1.604,1.152
		c0.997,1.646,2.695,3.45,2.581,5.087c-0.623,8.935,3.475,15.087,10.161,20.438c1.657,1.326,2.216,4.869,2.138,7.356
		c-0.21,6.65,2.561,11.382,7.667,15.337c1.985,1.537,4.76,4.164,4.579,6.043c-1.047,10.78,7.332,16.426,12.705,23.282
		c0,6.702-0.221,12.701,0.104,18.671c0.137,2.523,0.681,5.741,2.315,7.34c5.988,5.86,9.472,12.213,9.497,20.997
		c0.009,3.153,4.24,6.325,6.618,9.434c1.556,2.033,4.759,4.08,4.622,5.926c-0.758,10.131,6.585,15.454,12.727,21.679
		c0,3.617,0.09,6.925-0.018,10.229c-0.306,9.479-0.57,18.755,9.339,24.557c1.841,1.077,3.193,4.452,3.266,6.814
		c0.234,7.5,5.736,11.43,9.443,16.841c3.511,5.123,3.948,12.294,6.134,18.422c0.614,1.723,2.985,2.749,3.923,4.441
		c1.548,2.789,3.596,5.85,3.638,8.82c0.103,7.314,2.469,12.955,8.826,16.735c3.676,2.188,6.146,5.205,5.825,9.671
		c-0.495,6.872,4.965,10.425,7.836,15.49c2.815,4.967,3.429,11.176,5.071,16.82c0.174,0.599,0.673,1.21,1.188,1.586
		c6.8,4.945,11.333,10.958,10.632,20.015c-0.128,1.663,1.276,3.991,2.685,5.132c6.053,4.897,9.83,10.719,9.152,18.808
		c7.312,8.559,12.212,18.198,14.3,29.391c0.396,2.118,3.922,3.488,5.453,5.603c1.824,2.518,4.193,5.417,4.313,8.237
		c0.272,6.426,2.228,11.432,6.999,15.873c2.197,2.045,4.12,5.646,4.126,8.546c0.023,8.694,6.141,12.271,11.521,17.356
		c5.164,4.881,0.141,14.804,7.363,19.761c0.541,0.371,1.045,0.864,1.417,1.403c6.54,9.492,18.429,15.695,17.97,29.58
		c-0.052,1.547,2.089,3.275,3.414,4.737c4.409,4.869,8.718,9.852,13.408,14.438c26.111,25.539,52.534,50.764,78.366,76.579
		c7.197,7.193,16.456,13.72,15.73,26.199c-0.122,2.094,2.425,4.61,4.2,6.497c5.424,5.771,11.587,10.915,16.525,17.058
		c10.079,12.54,26.502,20.639,27.96,39.407c0.126,1.62,2.266,3.183,3.656,4.587c5.563,5.627,11.021,11.376,16.849,16.719
		c10.892,9.988,18.257,24.976,35.877,25.669c1.091,0.043,2.243,1.34,3.174,2.251c16.123,15.766,32.239,31.539,48.306,47.362
		c7.546,7.432,15.157,14.809,22.419,22.512c7.117,7.55,15.088,12.868,24.876,11.687c5.184,5.027,9.772,8.899,13.653,13.385
		c4.866,5.622,9.259,11.345,17.895,10.769c8.747-0.584,9.706,10.634,17.36,11.91c1.31,0.218,2.641,0.571,3.946,0.514
		c5.683-0.251,10.307,1.321,13.734,6.299c2.799,4.065,7.086,5.511,12.06,6.009c3.038,0.304,6.837,1.552,8.662,3.738
		c4.631,5.549,9.822,8.535,17.18,8.313c2.305-0.068,5.206,1.278,6.918,2.928c9.523,9.166,18.853,18.538,28.056,28.027
		c3.402,3.506,7.064,6.503,12.046,6.018c7.095-0.69,11.018,3.688,15.089,8.178c2.23,2.461,4.833,4.653,6.708,7.355
		c4.655,6.703,11.236,8.327,18.918,9.236c8.069,0.954,10.034,12.826,19.353,12.454c6.529-0.261,11.573,1.704,15.516,7.15
		c1.436,1.984,4.27,4.151,6.484,4.171c8.642,0.077,15.044,3.242,20.244,10.284c1.579,2.138,5.946,3.111,9.017,3.073
		c7.111-0.089,9.893,6.282,15,8.806c5.729,2.829,12.325,3.893,18.517,5.812c0.534,0.165,0.9,0.954,1.29,1.493
		c4.325,5.985,10.872,6.281,17.338,8.088c5.799,1.621,10.279,7.582,15.74,10.988c2.02,1.26,5.174,0.864,7.818,0.925
		c5.278,0.121,10.559,0.036,14.531,0.036c13.038,11.858,13.038,11.869,27.405,12.012c5.999,0.061,12.025-0.27,17.984,0.226
		c3.129,0.26,7.333,0.983,9,3.105c6.849,8.722,16.111,8.021,25.458,8.022c14.585,0.003,29.171,0.204,44.298,0.325
		c4.671,11.848,13.8,14.084,24.618,13.069c3.964-0.372,8.004,0.131,11.99-0.094c7.59-0.43,14.452,0.5,19.632,7.069
		c3.739,4.742,9.423,4.266,14.761,4.267c16.64,0.005,33.279,0.002,50.706,0.002c6.249,11.832,16.778,12.928,28.794,12.881
		c90.65-0.344,181.303-0.334,271.952-0.01c11.959,0.043,22.607-0.758,28.917-12.86c13.902,0,27.213,0.086,40.521-0.037
		c6.642-0.062,13.672,0.75,19.8-1.162c5.302-1.653,9.577-6.598,14.346-10.118c7.612,0,14.992-0.588,22.241,0.135
		c11.762,1.172,20.708-2.64,26.091-13.522c17.479,0,34.122-0.074,50.764,0.042c5.527,0.039,10.966-0.408,14.442-5.121
		c4.156-5.633,9.786-6.297,15.963-6.212c5.332,0.073,10.726-0.508,15.984,0.106
		C2866.46,3204.982,2874.273,3201.227,2880.077,3192.301z"/>
	<path fill-rule="evenodd" clip-rule="evenodd" d="M2880.077,3192.301c-5.804,8.926-13.617,12.682-23.987,11.471
		c-5.259-0.614-10.652-0.033-15.984-0.106c-6.177-0.085-11.807,0.579-15.963,6.212c-3.477,4.713-8.915,5.16-14.442,5.121
		c-16.642-0.116-33.284-0.042-50.764-0.042c-5.383,10.883-14.329,14.694-26.091,13.522c-7.249-0.723-14.629-0.135-22.241-0.135
		c-4.769,3.521-9.044,8.465-14.346,10.118c-6.128,1.912-13.158,1.101-19.8,1.162c-13.309,0.123-26.619,0.037-40.521,0.037
		c-6.31,12.103-16.958,12.903-28.917,12.86c-90.649-0.324-181.302-0.334-271.952,0.01c-12.016,0.047-22.546-1.049-28.794-12.881
		c-17.426,0-34.066,0.003-50.706-0.002c-5.338-0.001-11.022,0.476-14.761-4.267c-5.18-6.569-12.042-7.499-19.632-7.069
		c-3.986,0.225-8.025-0.278-11.99,0.094c-10.818,1.015-19.947-1.222-24.618-13.069c-15.127-0.121-29.713-0.322-44.298-0.325
		c-9.347-0.001-18.609,0.699-25.458-8.022c-1.667-2.122-5.871-2.846-9-3.105c-5.959-0.495-11.986-0.165-17.984-0.226
		c-14.367-0.143-14.367-0.153-27.405-12.012c-3.972,0-9.253,0.085-14.531-0.036c-2.644-0.061-5.798,0.335-7.818-0.925
		c-5.461-3.406-9.941-9.367-15.74-10.988c-6.466-1.807-13.013-2.103-17.338-8.088c-0.389-0.539-0.755-1.328-1.29-1.493
		c-6.192-1.919-12.789-2.982-18.517-5.812c-5.108-2.523-7.89-8.895-15-8.806c-3.071,0.038-7.438-0.936-9.017-3.073
		c-5.2-7.042-11.602-10.207-20.244-10.284c-2.215-0.02-5.048-2.187-6.484-4.171c-3.943-5.446-8.987-7.411-15.516-7.15
		c-9.319,0.372-11.284-11.5-19.353-12.454c-7.683-0.909-14.264-2.533-18.918-9.236c-1.875-2.702-4.478-4.895-6.708-7.355
		c-4.071-4.49-7.994-8.868-15.089-8.178c-4.982,0.485-8.645-2.512-12.046-6.018c-9.203-9.489-18.533-18.861-28.056-28.027
		c-1.712-1.649-4.613-2.996-6.918-2.928c-7.357,0.222-12.548-2.765-17.18-8.313c-1.825-2.187-5.624-3.435-8.662-3.738
		c-4.974-0.498-9.261-1.943-12.06-6.009c-3.427-4.978-8.051-6.55-13.734-6.299c-1.305,0.058-2.636-0.296-3.946-0.514
		c-7.654-1.276-8.613-12.494-17.36-11.91c-8.636,0.576-13.029-5.146-17.895-10.769c-3.881-4.485-8.47-8.357-13.653-13.385
		c-9.788,1.182-17.759-4.137-24.876-11.687c-7.262-7.703-14.873-15.08-22.419-22.512c-16.066-15.823-32.183-31.597-48.306-47.362
		c-0.932-0.911-2.083-2.208-3.174-2.251c-17.62-0.693-24.985-15.681-35.877-25.669c-5.828-5.343-11.286-11.092-16.849-16.719
		c-1.391-1.404-3.53-2.967-3.656-4.587c-1.458-18.769-17.881-26.867-27.96-39.407c-4.938-6.143-11.102-11.286-16.525-17.058
		c-1.774-1.887-4.322-4.403-4.2-6.497c0.726-12.479-8.533-19.006-15.73-26.199c-25.833-25.815-52.255-51.04-78.366-76.579
		c-4.69-4.587-8.999-9.569-13.408-14.438c-1.325-1.462-3.465-3.19-3.414-4.737c0.459-13.885-11.43-20.088-17.97-29.58
		c-0.372-0.539-0.876-1.032-1.417-1.403c-7.223-4.957-2.2-14.88-7.363-19.761c-5.38-5.085-11.498-8.662-11.521-17.356
		c-0.007-2.9-1.929-6.501-4.126-8.546c-4.771-4.441-6.727-9.447-6.999-15.873c-0.12-2.82-2.489-5.72-4.313-8.237
		c-1.531-2.114-5.057-3.484-5.453-5.603c-2.087-11.192-6.988-20.832-14.3-29.391c0.678-8.089-3.099-13.91-9.152-18.808
		c-1.409-1.141-2.813-3.469-2.685-5.132c0.7-9.057-3.833-15.069-10.632-20.015c-0.516-0.376-1.015-0.987-1.188-1.586
		c-1.642-5.645-2.256-11.854-5.071-16.82c-2.871-5.065-8.331-8.618-7.836-15.49c0.322-4.466-2.148-7.483-5.825-9.671
		c-6.357-3.78-8.724-9.421-8.826-16.735c-0.042-2.971-2.09-6.031-3.638-8.82c-0.938-1.692-3.309-2.719-3.923-4.441
		c-2.186-6.128-2.623-13.299-6.134-18.422c-3.708-5.411-9.209-9.341-9.443-16.841c-0.073-2.362-1.425-5.737-3.266-6.814
		c-9.909-5.802-9.645-15.077-9.339-24.557c0.107-3.304,0.018-6.611,0.018-10.229c-6.142-6.225-13.484-11.548-12.727-21.679
		c0.138-1.846-3.065-3.893-4.622-5.926c-2.377-3.108-6.609-6.28-6.618-9.434c-0.024-8.784-3.508-15.137-9.497-20.997
		c-1.634-1.599-2.178-4.816-2.315-7.34c-0.325-5.97-0.104-11.969-0.104-18.671c-5.373-6.856-13.751-12.502-12.705-23.282
		c0.182-1.879-2.593-4.506-4.579-6.043c-5.106-3.955-7.877-8.687-7.667-15.337c0.078-2.487-0.48-6.03-2.138-7.356
		c-6.686-5.351-10.784-11.503-10.161-20.438c0.114-1.637-1.583-3.441-2.581-5.087c-0.313-0.517-1.191-0.662-1.604-1.152
		c-2.529-3.001-7.214-6.123-7.119-9.075c0.502-15.686-19.058-24.79-13.229-42.018c1.01-2.986-0.041-6.625,0.145-9.946
		c0.318-5.654-1.023-10.544-5.641-14.191c-5.38-4.251-5.547-10.231-5.497-16.34c0.072-8.642,0.019-17.285,0.019-26.619
		c-11.509-6.426-13.118-16.682-13.088-28.825c0.335-135.976,0.261-271.952,0.12-407.93c-0.011-11.047-0.15-21.612,12.957-27.073
		c0-8.393,0-16.321,0-24.249c0-18.664-0.042-37.327,0.018-55.99c0.031-9.873-1.65-20.111,8.296-27.319
		c2.058-1.491,2.461-6.021,2.634-9.203c0.397-7.313,0.257-14.659,0.195-21.99c-0.046-5.528,0.644-10.88,5.432-14.339
		c6.29-4.543,6.966-10.853,6.558-17.731c-0.534-8.986,0.376-17.154,9.249-22.576c6.152-3.759,1.791-11.519,4.956-16.488
		c3.125-4.908,9.638-9.262,9.86-14.081c0.466-10.097,6.329-15.508,13.486-20.916c0-5.728-0.076-11.037,0.032-16.341
		c0.055-2.648-0.363-5.758,0.842-7.845c3.233-5.6,8.974-10.322,10.452-16.212c1.647-6.565,2.455-12.666,7.81-17.577
		c2.179-1.999,3.998-5.743,3.899-8.622c-0.306-8.875,7.247-12.009,11.208-17.8c3.905-5.707,0.164-14.869,7.463-19.77
		c2.212-1.486,4.339-3.101,6.294-4.506c0-6.659-0.098-11.957,0.042-17.248c0.069-2.638-0.238-5.776,1.037-7.797
		c3.443-5.458,9.421-9.936,11.069-15.745c1.843-6.498,2.633-12.768,8.174-17.454c1.877-1.586,4.154-4.4,3.968-6.446
		c-1.084-11.926,7.804-17.726,14.535-24.792c3.163-3.319,6.948-6.045,11.043-9.547c0.549-7.326,0.499-15.478,7.976-20.99
		c1.753-1.293,2.748-4.705,2.718-7.126c-0.097-8.143,3.885-13.225,9.922-18.38c8.531-7.284,15.943-15.916,23.505-24.27
		c2.06-2.276,4.108-5.61,4.134-8.477c0.07-7.623,4.585-11.662,9.574-16.478c16.207-15.645,31.639-32.088,47.682-47.908
		c3.304-3.259,3.203-6.877,4.104-10.695c0.869-3.684,2.264-7.828,4.798-10.443c17.957-18.528,36.142-36.84,54.499-54.974
		c15.552-15.362,31.245-30.593,47.231-45.501c10.661-9.943,17.992-23.118,30.611-31.12c2.221-1.408,4.121-4.558,6.265-4.65
		c16.029-0.688,23.028-14.085,33.21-22.947c2.498-2.175,4.637-4.767,6.9-7.204c1.358-1.463,2.352-3.711,4.004-4.375
		c6.58-2.645,14.421-3.424,19.752-7.541c5.206-4.02,8.663-9.958,16.4-9.515c4.158,0.237,7.746-0.92,10.471-4.53
		c3.798-5.035,8.683-7.756,15.407-7.698c2.849,0.024,6.659-1.767,8.399-4.004c4.452-5.723,9.648-8.519,16.941-8.85
		c2.823-0.128,5.772-2.786,8.216-4.827c4.578-3.824,8.962-7.904,13.173-12.13c3.417-3.429,6.994-6.268,12.114-5.844
		c6.013,0.498,10.072-2.193,13.192-7.119c1.02-1.609,3.064-3.935,4.38-3.777c13.368,1.609,18.919-14.22,31.583-13.88
		c4.189,0.113,7.802-0.987,10.125-4.989c0.981-1.688,2.338-3.757,3.991-4.35c6.133-2.198,13.204-2.68,18.507-6.04
		c5.421-3.434,8.803-9.828,16.538-9.873c3.158-0.018,7.539-0.492,9.248-2.531c7.535-8.993,17.416-8.484,27.456-8.259
		c1.973,0.045,3.958-0.372,3.555-3.105c6.314-4.874,12.666-9.704,18.925-14.646c2.076-1.64,3.906-5.099,5.875-5.12
		c12.426-0.134,18.674-11.685,28.918-15.003c6.025-1.951,13.199-0.356,20.021-0.356c2.281-1.688,4.778-2.897,6.379-4.842
		c4.624-5.616,10.348-7.839,17.545-7.523c9.32,0.408,18.294,0.454,25.704-7.579c2.503-2.714,8.67-2.646,13.194-2.779
		c11.974-0.352,23.965-0.119,36.911-0.119c1.976-2.293,4.171-4.619,6.114-7.141c3.972-5.15,9.029-7.392,15.592-7.067
		c6.647,0.327,13.355,0.395,19.981-0.124c3.767-0.294,8.7-0.841,10.89-3.272c6.619-7.349,14.627-8.464,23.576-7.924
		c2.638,0.159,5.308-0.206,9.058-0.383c6.415-9.834,16.012-14.196,28.454-12.355c4.563,0.676,9.315,0.066,13.98,0.084
		c4.791,0.018,9.271-0.512,12.334-4.959c4.275-6.208,10.613-7.123,17.614-7.068c22.661,0.179,45.326,0.059,67.988,0.055
		c6.646-0.001,13.291,0,20.593,0c6.85-11.237,17.456-12.271,29.399-12.188c58.654,0.416,117.312,0.188,175.968,0.188
		c7.324,0,14.648,0,22.176,0c8.878-7.45,15.683-16.52,22.147-25.675c19.712-27.917,43.861-51.674,67.67-76.001
		c40.329-41.207,86.74-74.77,131.935-109.944c3.155-2.456,6.464-4.728,9.483-7.339c19.349-16.734,41.096-29.353,64.809-38.888
		c22.346-8.985,43.307-20.741,62.526-35.209c27.599-20.778,58.436-34.317,91.587-43.085c15.46-4.088,31.01-7.929,45.113-15.805
		c5.771-3.221,11.538-6.557,16.857-10.455c9.399-6.888,20.302-8.459,27.434-3.332c8.905,6.406,13.452,18.261,8.499,28.318
		c-6.717,13.642-12.614,27.719-22.34,39.936c-31.175,39.158-64.615,76.289-100.137,111.44
		c-44.158,43.699-78.203,94.082-104.282,150.2c-7.271,15.642-15.228,30.963-23.058,46.812c3.654,4.537,6.913,8.583,10.519,13.06
		c9.54,0,18.848,0.117,28.148-0.044c5.626-0.098,11.133,0.756,14.063,5.788c3.69,6.34,9.184,7.069,15.402,6.891
		c9.41-0.271,18.559-0.422,25.471,8.065c1.72,2.112,5.886,2.718,9.031,3.068c4.611,0.514,9.377,0.662,13.971,0.102
		c12.413-1.511,22.399,1.741,28.508,14.251c12.881,0,25.51-0.232,38.121,0.124c4.513,0.127,10.603,0.149,13.174,2.868
		c7.458,7.882,16.402,7.712,25.729,7.567c4.755-0.073,10.002-0.102,12.732,4.198c5.283,8.313,13.216,7.811,21.266,7.808
		c3.318-0.002,6.638,0.277,10.384,0.448c2.767,2.625,5.621,5.362,8.511,8.063c1.419,1.327,2.896,3.689,4.361,3.702
		c18.506,0.153,25.989,16.479,39.426,26.108c2.915,2.089,9.509,0.383,14.822,0.282c4.854-0.091,9.302,0.775,12.618,4.677
		c3.701,4.354,8.424,5.842,14.05,6.409c3.697,0.373,8.01,1.953,10.59,4.479c4.493,4.401,8.847,7.905,15.483,7.513
		c1.255-0.074,2.976,0.189,3.768,0.997c7.457,7.595,17.09,10.803,26.461,15.178c6.805,3.178,11.813,10.059,20.723,9.287
		c1.679-0.146,4.249,1.15,5.169,2.579c4.779,7.421,11.452,10.147,20.086,10.396c2.711,0.078,5.544,3.289,7.934,5.487
		c4.393,4.042,8.276,8.652,12.81,12.513c2.367,2.018,5.65,4.104,8.543,4.138c7.416,0.088,12.827,2.811,16.604,9.076
		c0.334,0.554,0.774,1.27,1.314,1.44c6.175,1.954,13.051,2.725,18.388,6.008c5.47,3.366,9.021,9.783,16.919,8.659
		c1.831-0.262,4.36,0.188,5.695,1.331c6.412,5.489,11.584,12.978,21.543,12.138c6.036,5.16,12.049,10.349,18.115,15.473
		c7.122,6.016,14.293,11.975,23.997,20.096c5.625-0.725,12.549,4.313,19.595,11.413c25.652,25.85,52.23,50.778,78.072,76.444
		c16.442,16.331,32.299,33.259,48.169,50.152c2.582,2.748,5.325,6.652,5.457,10.118c0.26,6.868,4.123,10.524,8.49,14.847
		c15.572,15.413,30.721,31.256,46.015,46.949c1.854,1.902,5.034,3.776,5.203,5.857c1.586,19.504,18.021,28.293,29.382,40.418
		c5.209,5.561,10.354,9.883,10.062,18.187c-0.085,2.424,0.831,5.951,2.563,7.188c8.151,5.825,8.561,14.489,8.841,22.837
		c5.39,4.898,9.87,9.961,15.291,13.632c6.126,4.149,9.058,9.117,9.312,16.469c0.103,2.957,1.677,6.655,3.852,8.59
		c5.356,4.766,8.205,10.104,8.199,17.358c-0.002,2.287,1.451,5.54,3.285,6.702c9.262,5.875,10.811,14.542,10.027,24.384
		c-0.21,2.633-0.032,5.297-0.032,8.437c5.97,6.825,13.436,13.013,12.448,23.699c-0.202,2.181,1.733,5.109,3.521,6.815
		c4.085,3.903,6.341,8.246,6.704,13.962c0.15,2.348,1.512,5.357,3.33,6.729c6.878,5.191,10.771,11.418,10.484,20.352
		c-0.07,2.191,1.93,5.188,3.867,6.574c7.696,5.505,8.25,13.377,7.536,21.498c-0.709,8.057,1.726,14.136,8.528,18.719
		c7.048,4.747,1.667,14.684,7.58,19.758c5.313,4.56,9.341,9.25,9.045,16.804c-0.098,2.456,0.606,6.201,2.276,7.264
		c11.136,7.089,9.522,18.083,9.598,28.653c0.009,1.331,0.168,2.66,0.34,5.227c1.616,1.629,3.755,4.071,6.184,6.179
		c4.327,3.756,6.312,8.319,6.081,14.072c-0.213,5.323,0.042,10.664-0.018,15.995c-0.092,8.061-0.327,15.893,7.386,21.551
		c4.842,3.553,3.915,9.564,3.926,14.853c0.046,21.998,0.026,43.993,0.03,65.989c0.001,6.64,0,13.279,0,18.937
		c11.926,13.699,11.985,13.699,11.987,31.002c0.018,134.645,0.019,269.287-0.007,403.931c-0.002,10.533,1.803,21.6-9.348,28.767
		c-1.689,1.087-2.193,4.718-2.412,7.243c-0.401,4.634-0.438,9.336-0.171,13.984c0.67,11.67,0.457,22.932-11.417,28.966
		c0,10.798-0.159,20.111,0.059,29.416c0.134,5.729-1.279,10.774-6.073,13.982c-4.97,3.328-7.154,7.536-6.715,13.419
		c0.65,8.728-9.124,11.202-11.145,17.997c-1.838,6.184-0.102,13.505-6.439,18.114c-1.074,0.781-2.604,1.531-2.957,2.61
		c-2.01,6.156-2.996,12.756-5.75,18.527c-2.708,5.675-10.977,7.659-10.712,15.934c0.097,3.038-1.063,7.41-3.237,9.001
		c-8.979,6.566-8.983,15.692-8.522,25.121c0.314,6.451-1.482,12.001-6.892,15.682c-4.871,3.314-7.12,7.434-6.908,13.378
		c0.088,2.474-0.58,6.145-2.266,7.32c-10.636,7.422-5.729,23.602-17.401,30.227c-0.522,0.297-0.807,1.016-1.878,2.429
		c-0.18,3.021-0.796,6.989-0.574,10.912c0.555,9.79-0.584,18.456-10.037,24.352c-2.176,1.355-2.409,5.737-3.674,8.665
		c-1.535,3.553-2.359,8.022-5.02,10.347c-4.976,4.346-7.419,9.144-7.091,15.576c0.033,0.656,0.115,1.504-0.229,1.955
		c-3.91,5.138-8.757,9.782-11.611,15.438c-2.544,5.036,0.402,12.219-5.267,16.499c-5.074,3.831-7.852,8.371-8.014,15.156
		c-0.082,3.447-2.807,7.344-5.356,10.094c-3.387,3.654-5.101,7.447-5.542,12.363c-0.282,3.141-1.051,7.383-3.203,8.998
		c-6.982,5.242-10.501,11.524-10.103,20.293c0.074,1.658-1.684,3.533-2.894,5.075c-1.223,1.557-2.638,3.094-4.275,4.174
		c-7.283,4.805-1.556,14.461-7.556,19.754c-4.9,4.324-10.865,8.134-9.438,16.208c0.113,0.635,0.154,1.488-0.174,1.964
		c-3.688,5.353-8.653,10.201-10.868,16.089c-2.241,5.959-0.373,13.438-6.665,18.007c-4.157,3.017-5.676,7.195-5.564,12.149
		c0.117,5.195-2.583,9.071-6.627,11.63c-4.51,2.852-6.248,6.646-5.984,11.674c0.312,5.934-2.92,9.845-7.018,13.627
		c-4.848,4.476-9.268,9.422-13.782,14.249c-1.338,1.431-2.686,3.001-3.496,4.755c-8.306,17.975-12.424,23.349-24.304,34.768
		c-16.264,15.635-32.186,31.627-48.164,47.559c-11.243,11.211-22.366,22.546-33.459,33.905c-1.784,1.826-4.607,4.204-4.442,6.109
		c0.954,11.022-6.731,16.354-13.312,22.94c-10.752,10.764-20.846,22.187-31.14,33.403c-1.736,1.893-4.391,4.15-4.388,6.235
		c0.022,14.13-12.387,19.629-19.541,28.625c-4.5,5.657-11.092,9.621-15.803,15.149c-5.714,6.708-10.514,13.835-20.986,12.908
		c-2.087-0.185-4.748,2.094-6.594,3.823c-16.474,15.435-33.019,30.753-47.873,47.873c-8.646,9.964-18.899,18.547-28.6,27.568
		c-1.859,1.73-4.668,3.912-6.772,3.66c-10.368-1.244-15.358,6.144-21.272,12.208c-2.312,2.371-4.706,4.67-6.89,7.155
		c-3.232,3.681-6.976,6.178-12.079,5.923c-5.158-0.257-8.927,1.818-11.438,6.374c-0.622,1.13-1.618,2.49-2.729,2.842
		c-6.188,1.958-13.043,2.614-18.54,5.718c-4.934,2.785-7.531,9.725-14.438,9.552c-6.498-0.163-11.613,1.716-15.443,7.158
		c-4.561,6.479-12.082,4.34-18.841,5.958c-9.703,10.361-19.602,21.073-29.704,31.587c-1.762,1.834-4.514,4.202-6.587,4.004
		c-11.712-1.116-18.064,7.434-25.278,13.81c-5.991,5.295-10.6,12.047-19.907,11.663c-1.653-0.068-3.974,1.37-4.986,2.814
		c-4.995,7.13-11.452,10.638-20.318,10.383c-2.142-0.062-4.794,2.122-6.454,3.957c-4.218,4.661-8.757,8.147-15.468,7.59
		c-1.303-0.107-3.296-0.262-3.871,0.47c-7.343,9.345-18.664,10.896-28.479,15.601c-5.733,2.748-9.9,8.452-17.401,8.168
		c-2.265-0.086-4.692,1.926-6.889,3.237c-1.1,0.655-1.968,1.813-2.737,2.888c-4.589,6.413-12.339,3.956-18.065,6.613
		c-5.158,2.394-8.658,8.915-13.853,10.546C2897.116,3192.715,2889.412,3191.8,2880.077,3192.301z"/>
</g>
</svg>
