<?xml version="1.0" encoding="utf-8"?>
<!-- Generator: Adobe Illustrator 16.0.2, SVG Export Plug-In . SVG Version: 6.00 Build 0)  -->
<!DOCTYPE svg PUBLIC "-//W3C//DTD SVG 1.1//EN" "http://www.w3.org/Graphics/SVG/1.1/DTD/svg11.dtd">
<svg version="1.1" id="Layer_1" xmlns="http://www.w3.org/2000/svg" xmlns:xlink="http://www.w3.org/1999/xlink" x="0px" y="0px"
	 width="3167.604px" height="3997.5px" viewBox="0 0 3167.604 3997.5" enable-background="new 0 0 3167.604 3997.5"
	 xml:space="preserve">
<g>
	<path fill-rule="evenodd" clip-rule="evenodd" fill="#FFFFFF" d="M2,2c1056.535,0,2113.068,0,3169.603,0
		c0,1333.166,0,2666.333,0,3999.499c-1056.534,0-2113.068,0-3169.603,0C2,2668.333,2,1335.166,2,2z M411.058,2746.405
		c-1.12,3.966-2.585,7.119-2.808,10.357c-0.525,7.628-0.229,15.313-0.728,22.944c-0.251,3.837-0.306,8.716-2.566,11.183
		c-5.104,5.573-5.543,11.726-5.372,18.489c0.168,6.661,0.182,13.334,0.005,19.994c-0.286,10.775,2.726,20.518,9.723,28.615
		c7.153,8.278,14.372,16.654,22.557,23.857c24.212,21.311,48.935,42.042,73.389,63.078c1.917,1.648,4.48,3.768,4.726,5.9
		c0.687,5.938,4.565,9.373,8.224,13.248c3.232,3.422,7.48,6.129,9.423,10.872c-9.764,0.923-18.712,1.492-27.582,2.668
		c-14.479,1.919-29.188,3.29-40.969,13.621c-1.247,1.094-3.792,1.37-5.583,1.081c-21.629-3.484-43.437-6.247-64.746-11.159
		c-10.044-2.315-21.002-6.895-28.226-13.881c-13.652-13.205-28.615-23.65-45.531-31.798c-3.572-1.721-6.717-4.314-10.095-6.449
		c-8.79-5.552-18.181-9.308-28.421-11.682c-18.188-4.217-36.525-2.443-54.764-2.287c-13.223,0.113-26.536,1.8-39.594,4.037
		c-6.647,1.139-13.125,4.487-19.14,7.815c-9.544,5.28-17.696,12.96-28.561,16.059c-2.733,0.779-5.255,2.896-7.443,4.875
		c-6.909,6.246-13.308,13.086-20.459,19.028c-14.91,12.385-28.513,25.557-38.281,42.785c-12.688,22.383-22.187,45.136-20.101,71.621
		c0.581,7.383,1.72,14.262,4.121,21.287c3.244,9.492,9.145,16.609,15.996,23.562c15.774,16.005,33.029,29.474,53.88,38.626
		c17.009,7.467,33.25,16.732,49.613,25.604c8.748,4.743,16.763,10.855,25.572,15.463c35.946,18.805,72.089,37.231,108.119,55.876
		c12.702,6.573,25.279,13.388,37.929,20.062c23.385,12.339,48.854,19.23,73.539,28.185c11.895,4.314,23.649,9.103,36.489,9.623
		c13.626,0.555,27.279,0.544,40.893,1.272c15.661,0.839,30.329-3.23,44.899-8.082c11.035-3.673,21.838-8.27,33.098-10.99
		c22.719-5.49,44.481-13.53,66.121-22.153c17.589-7.008,35.434-13.372,53.147-20.071c3.01-1.14,5.926-2.528,9.6-4.109
		c0.946,5.789,1.342,10.775,2.661,15.505c1.125,4.038,2.562,8.416,5.19,11.515c4.708,5.552,10.591,10.085,15.653,15.359
		c5.014,5.227,11.166,6.667,18.039,6.995c17.791,0.85,35.197-0.297,51.857-7.521c5.768-2.501,11.981-4.007,18.038-5.806
		c21.739-6.455,43.133-13.719,62.626-25.668c1.643-1.007,3.764-2.253,5.451-1.996c8.125,1.234,12.524-4.064,17.987-8.593
		c9.986-8.279,14.076-19.062,15.396-31.21c0.967-8.896,1.201-17.887,1.453-26.845c0.341-12.129-0.28-23.823,6.081-35.55
		c5.9-10.88,7.825-23.895,11.725-35.896c0.992-3.053,2.124-6.718,4.424-8.567c7.503-6.033,9.179-14.228,10.271-22.948
		c0.427-3.415,1.453-6.756,2.045-9.408c9.016,0,16.685-0.292,24.32,0.089c6.682,0.332,12.073-0.956,16.895-6.273
		c5.313-5.858,13.582-5.405,19.434-0.026c2.207,2.029,4.443,4.07,6.357,6.362c9.401,11.251,20.852,15.649,35.927,15.206
		c12.361-0.363,22.019-3.043,29.393-12.94c0.395-0.529,0.886-1.01,1.405-1.419c3.43-2.704,4.56-6.237,4.463-10.55
		c-0.195-8.661,0.36-17.359-0.23-25.984c-0.35-5.088,0.583-8.76,4.374-12.373c2.426-2.313,4.733-6.029,4.886-9.223
		c0.57-11.877,0.228-23.796,0.228-36.769c2.664-2.125,6.671-5.104,10.436-8.362c18.275-15.817,18.251-15.844,18.251-39.769
		c0-1.667-0.208-3.364,0.035-4.994c1.031-6.893-1.183-12.383-6.81-16.481c-7.917-5.766-11.55-13.306-9.914-23.193
		c1.495-9.036-1.63-16.244-8.953-21.71c-1.058-0.789-2.021-1.772-2.825-2.821c-3.523-4.601-8.006-6.409-13.869-5.969
		c-5.965,0.448-12.014,0.432-17.983,0.007c-6.142-0.438-10.869,1.313-15.039,5.964c-2.413,2.69-5.963,4.361-10.128,7.28
		c-0.46-8.919-1.241-15.836-1.08-22.731c0.292-12.525-8.067-19.665-15.759-27.545c-6.379-6.533-13.807-8.071-22.595-7.877
		c-23.455,0.52-19.349-1.975-37.245,15.843c-2.696,2.685-4.531,5.365-4.703,9.419c-0.279,6.566-1.208,13.105-1.897,20.012
		c-1.642,0.281-3.306,0.993-4.822,0.757c-8.891-1.386-15.438,2.273-20.779,9.016c-1.438,1.817-3.217,3.379-4.922,4.968
		c-3.565,3.325-5.919,7.074-5.393,12.262c0.463,4.564-1.576,7.506-5.482,8.314c-10.872-16.456-21.476-32.508-32.79-49.633
		c0.938-7.919,2.066-17.439,3.121-26.342c6.427-3.576,12.447-6.423,17.932-10.07c16.804-11.176,29.772-26.531,43.288-41.18
		c3.367-3.649,6.11-9.354,6.264-14.205c0.424-13.253-0.988-26.554-1.116-39.84c-0.171-17.616-0.612-35.29,0.545-52.842
		c1.111-16.845,4.992-33.509,6.054-50.354c1.213-19.255,1.31-38.646,0.643-57.934c-0.457-13.238-2.887-26.502-8.873-38.599
		c-5.743-11.608-11.874-23.036-18.192-34.344c-7.128-12.755-14.607-25.315-22.043-37.896c-1.997-3.379-4.388-6.524-7.107-10.526
		c9.337-19.487,18.355-39.138,28.1-58.421c9.999-19.787,3.696-16.368,25.635-16.004c18.061,0.3,33.552-6.91,49.362-13.715
		c2.405-1.035,4.794-2.565,6.611-4.431c9.513-9.766,19.011-19.557,28.115-29.699c2.429-2.706,4.557-4.227,8.242-4.437
		c11.932-0.682,23.828-2.151,35.764-2.57c18.95-0.664,37.943-1.455,56.876-0.862c25.232,0.79,50.406,3.505,75.638,4.215
		c35.938,1.014,71.864,0.438,107.49-5.601c10.794-1.831,21.766-2.596,32.583-4.313c9.117-1.448,18.557-2.429,27.09-5.645
		c15.435-5.813,31.072-8.452,47.482-8.353c43.923,0.267,87.771-1.213,131.502-5.837c34.769-3.676,69.326-8.326,103.042-17.917
		c15.975-4.545,32.374-8.303,46.353-17.683c6.322-4.242,12.497-6.464,20.031-7.073c17.207-1.392,34.316-3.95,51.515-5.492
		c18.195-1.63,36.436-2.863,54.679-3.787c6.828-0.347,14.69-1.342,20.423,1.412c23.865,11.463,49.183,15.932,75.102,18.425
		c21.928,2.109,43.367,6.169,64.155,13.856c19.016,7.03,38.183,13.922,59.128,12.361c2.561-0.191,5.651,1.582,7.901,3.248
		c11.491,8.509,22.874,17.171,34.123,26c9.229,7.243,15.93,16.698,21.314,24.403c-1.077,6.759-2.147,11.523-2.52,16.341
		c-0.383,4.97,0.383,10.047-0.19,14.979c-0.984,8.47,2.072,14.783,8.537,20.01c9.811,7.931,20.01,15.499,29.027,24.265
		c17.404,16.921,35.019,33.774,50.889,52.092c28.517,32.914,56.688,66.11,86.398,97.974c26.621,28.552,46.009,62.499,69.766,93.897
		c-2.138,1.924-4.027,3.82-6.112,5.468c-15.968,12.616-24.069,30.792-33.359,47.969c-8.303,15.352-8.718,32.332-8.662,49.508
		c0.04,12.356,3.709,22.695,10.823,32.336c9.305,12.606,20.315,23.493,32.949,32.563c-4.891,12.525-9.567,24.505-14.181,36.322
		c-1.628,0.108-2.671,0.425-3.575,0.193c-2.89-0.737-5.91-1.304-8.557-2.599c-17.276-8.458-35.593-10.045-54.491-9.341
		c-13.583,0.507-25.45,3.883-34.609,14.618c-3.881,4.55-8.734,8.274-12.582,12.848c-4.251,5.054-8.856,10.198-11.541,16.105
		c-5.903,12.994-10.715,26.486-15.922,39.795c-1.064,2.722-1.901,5.533-2.773,8.098c-7.885,0.673-15.282,0.648-22.391,2.064
		c-10.323,2.056-20.412,5.91-30.848,0.704c-0.543-0.271-1.314-0.098-1.98-0.111c-25.334-0.538-50.53-0.997-74.133,11.115
		c-6.586,3.38-13.023,6.477-18.167,11.839c-7.601,7.924-14.811,16.27-22.855,23.713c-22.595,20.906-31.558,48.161-35.207,77.291
		c-3.173,25.332-5.124,50.916-5.802,76.438c-0.713,26.824-3.705,53.997,4.771,80.33c1.453,4.517-0.003,7.6-3.23,10.594
		c-4.151,3.85-8.381,7.7-11.968,12.053c-5.091,6.179-11.455,8.442-19.219,8.65c-13.079,0.351-25.687,2.966-37.421,9.118
		c-2.856,1.498-5.982,2.482-9.148,3.77c-3.652-4.282-6.779-7.949-10.508-12.321c15.262-10.634,14.877-25.774,15.172-41.499
		c0.348-18.532-12.338-26.376-24.978-35.309c0-3.143,0.258-6.498-0.091-9.79c-0.232-2.184-0.745-4.835-2.146-6.313
		c-5.494-5.79-11.025-11.667-17.294-16.549c-3.113-2.423-7.839-3.781-11.861-3.841c-11.537-0.17-23.088,0.57-36.096,1.001
		c-7.319-10.134-18.299-14.366-32.621-13.589c-10.683,0.578-19.691,2.256-26.286,11.078c-3.352,4.484-7.764,5.875-13.142,5.354
		c-2.642-0.256-5.328-0.043-7.995-0.043c-17.834,0-17.833,0.001-30.092,12.909c-0.459,0.484-0.954,0.934-1.402,1.426
		c-4.211,4.61-6.497,9.892-6.295,16.286c0.394,12.452-2.354,25.354,7.09,36.739c-14.721,10.199-19.633,22.984-19.769,40.396
		c-0.147,18.791,10.186,28.233,22.063,37.315c0,11.886-0.169,23.205,0.137,34.51c0.063,2.363,1.633,4.828,2.958,6.967
		c1.023,1.654,2.946,2.727,4.132,4.311c4.785,6.395,10.852,8.993,18.969,8.12c6.507-0.699,13.148-0.141,19.323-0.141
		c7.429,18.762,7.64,18.561,18.535,29.968c5.489,5.747,11.587,8.494,19.467,8.089c6.086-0.312,12.201-0.062,19.692-0.062
		c-3.444,7.093-6.401,12.27-8.548,17.764c-8.694,22.241-15.746,45.086-25.07,67.119c-3.729,8.808-4.912,18.662-8.237,27.678
		c-6.243,16.928-7.636,34.339-6.654,52.089c0.581,10.502,2.675,20.315,12.15,27.055c5.09,3.621,10.125,7.615,14.209,12.292
		c11.449,13.111,23.689,25.168,38.756,34.153c3.381,2.017,6.626,4.518,9.321,7.373c4.502,4.772,8.428,10.08,12.749,15.03
		c4.181,4.788,9.396,7.073,15.938,6.622c5.308-0.365,10.697-0.479,15.984,0.016c9.617,0.898,17.559-2.376,24.807-8.354
		c6.579-5.427,13.372-10.596,20.396-16.134c2.033,2.518,3.729,4.524,5.325,6.608c7.271,9.501,13.913,19.565,21.907,28.41
		c12.5,13.826,26.253,26.513,38.854,40.251c22.32,24.339,46.08,47.03,72.272,67.199c19.558,15.059,39.37,29.446,63.034,37.714
		c20.395,7.124,40.446,15.232,60.831,22.387c9.979,3.501,20.217,6.754,30.608,8.488c21.946,3.659,44.089,6.133,66.121,9.3
		c38.194,5.488,76.435,10.427,115.132,9.981c14.3-0.165,28.616-0.364,42.888-1.192c17.235-1.003,34.544-1.889,51.612-4.303
		c18.19-2.571,35.972-7.58,50.944-18.975c9.22-7.016,17.953-14.579,29.229-18.249c1.53-0.499,2.87-1.658,4.227-2.614
		c19.78-13.938,31.98-34.177,44.685-53.973c1.036-1.614,1.245-3.761,1.83-5.663c5.296-17.216,4.623-34.858,3.404-52.467
		c-0.701-10.138-3.907-19.807-10.756-27.389c-9.818-10.872-20.285-21.143-33.464-28.19c-6.737-3.604-13.465-7.381-19.632-11.859
		c-12.164-8.833-25.939-13.465-40.394-16.126c-17.952-3.305-36.058-5.762-54.056-8.826c-36.028-6.133-69.47-19.986-102.67-34.582
		c-14.278-6.277-28.491-12.86-43.189-17.998c-31.048-10.854-62.411-20.81-93.601-31.269c-2.739-0.918-5.811-2.254-7.595-4.357
		c-6.811-8.02-13.155-16.434-19.995-25.106c2.046-1.117,4.608-1.729,5.885-3.353c4.987-6.339,11.873-8.037,19.276-8.979
		c1.957-0.25,3.857-1.035,5.75-1.676c24.533-8.298,49.057-16.623,73.589-24.922c31.801-10.759,63.947-20.473,93.814-36.395
		c22.464-11.977,42.895-26.705,56.241-48.21c23.578-37.985,42.13-78.217,48.026-123.462c4.244-32.567,8.581-65.052,11.079-97.845
		c1.904-25.008,5.401-49.774,18.369-72.691c15.712-27.764,29.643-56.541,47.174-83.286c6.184-9.435,12.139-19.07,19.002-27.995
		c17.819-23.17,36.604-45.609,54.051-69.05c25.89-34.783,48.211-71.781,65.546-111.653c1.037-2.386,2.593-4.624,4.251-6.646
		c9.374-11.437,16.022-24.353,21.467-38.028c9.503-23.872,9.276-48.785,8.121-73.766c-0.771-16.674-3.92-32.993-9.716-48.677
		c-6.11-16.531-11.904-33.23-19.044-49.32c-16.041-36.148-31.772-72.5-49.631-107.756c-15.914-31.418-34.42-61.531-51.972-92.112
		c-12.083-21.053-24.489-41.921-36.75-62.873c-7.214-12.326-13.53-25.295-21.807-36.86c-25.391-35.479-49.115-72.006-71.185-109.608
		c-19.333-32.939-44.523-61.261-69.984-89.337c-4.747-5.234-7.836-9.49-4.381-16.421c0.838-1.68,0.758-3.918,0.759-5.899
		c0.011-20.279,1.37-40.665-4.117-60.56c-3.352-12.149-5.126-25.14-12.925-35.369c-9.663-12.674-20.395-24.549-30.951-36.518
		c-4.838-5.485-9.643-11.564-15.753-15.222c-7.791-4.665-11.208-12.335-14.056-19.295c-3.648-8.92-7.718-17.419-12.316-25.858
		c-11.399-20.917-24.841-40.18-43.001-55.778c-9.315-8-18.228-17.01-28.816-22.856c-14.851-8.198-31.258-13.012-48.775-12.351
		c-9.593,0.361-19.212,0.064-28.738,0.064c-7.931-17.442-15.936-35.049-24.002-52.789c9.627,0,19.063-0.983,28.224,0.184
		c28.328,3.607,56.754,6.821,83.805,17.1c13.327,5.063,27.066,9.09,40.752,13.136c5.691,1.683,11.7,2.816,17.616,3.088
		c10.643,0.49,21.325,0.201,31.988,0.096c2.286-0.023,5.125,0.1,6.76-1.118c11.415-8.509,24.23-16.461,24.177-33.042
		c-0.051-15.266-1.204-30.525-1.771-45.792c-0.247-6.639-1.355-13.497-0.154-19.893c4.38-23.317,5.193-46.912,5.184-70.426
		c-0.013-27.884-2.114-55.762-2.99-83.651c-0.554-17.638,0.021-35.322-0.919-52.931c-0.811-15.2-1.937-30.543-4.863-45.441
		c-7.577-38.551-19.524-75.921-33.22-112.711c-7.872-21.148-16.172-42.138-24.672-64.219c3.182-2.119,6.135-5.346,9.665-6.203
		c10.958-2.662,22.065-4.933,33.24-6.422c19.755-2.635,39.606-4.557,59.412-6.82c30.623-3.498,61.242-7.031,91.589-10.519
		c0.747,0.727,1.345,1.106,1.669,1.65c26.839,45.147,55.536,89.209,79.293,136.161c6.903,13.642,14.521,26.923,21.829,40.358
		c2.517,4.626,4.183,10.305,0.91,14.151c-5.873,6.905-11.422,14.905-21.245,16.958c-8.64-7.227-16.785-14.571-25.532-21.111
		c-3.814-2.854-8.728-5.252-13.375-5.775c-11.526-1.294-23.183-1.558-34.797-1.917c-9.777-0.302-18.195,2.993-24.959,10.345
		c-4.059,4.412-8.355,8.616-12.718,12.73c-4.596,4.333-7.208,9.491-7.46,15.812c-0.646,16.26-1.821,32.525-1.734,48.782
		c0.059,10.932,2.061,21.843,7.83,31.534c2.177,3.654,4.813,7.035,6.346,9.252c-2.34,9.292-5.595,17.207-6.157,25.307
		c-2.54,36.627,3.447,72.343,14.644,107.055c9.283,28.777,19.791,57.172,30.334,85.521c2.332,6.27,2.5,12.194,2.064,18.477
		c-0.437,6.285-1.231,12.577-1.175,18.859c0.081,8.951,0.477,17.927,1.328,26.834c0.849,8.885,1.344,18.024,3.89,26.481
		c6.982,23.204,14.854,46.144,22.584,69.117c4.975,14.786,10.031,29.561,15.664,44.102c1.977,5.103,5.448,9.761,8.871,14.125
		c2.482,3.167,4.421,6.087,5.561,10.181c7.382,26.521,12.778,53.754,27.451,77.76c3.678,6.017,4.289,12.528-1.884,18.031
		c-2.22,1.979-4.322,4.213-5.975,6.669c-1.765,2.624-3.949,5.563-4.188,8.509c-0.969,11.875-1.34,23.804-1.707,35.719
		c-0.059,1.889,0.797,3.925,1.635,5.703c9.653,20.48,19.041,41.046,36.669,56.488c4.816,4.22,9.156,6.841,15.76,6.567
		c23.232-0.967,46.486-1.422,69.729-2.146c7.604-0.237,14.232-2.762,19.62-8.451c5.727-6.048,11.978-11.611,17.554-17.787
		c4.458-4.937,8.02-10.683,15.912-10.419c1.353,0.045,2.946-1.453,4.112-2.569c4.33-4.147,8.639-8.329,12.708-12.728
		c1.245-1.344,2.421-3.433,2.399-5.166c-0.21-17.268,1.602-34.622-2.292-51.742c-2.873-12.638-5.276-25.383-8.26-37.991
		c-5.724-24.191-7.879-49.239-17.417-72.52c-0.681-1.661-0.738-3.577-1.137-5.637c4.872-1.549,8.949-2.965,13.094-4.143
		c13.986-3.971,26.97-9.551,36.368-21.373c8.839-11.118,17.902-22.058,26.671-33.23c1.349-1.718,2.34-4.271,2.315-6.425
		c-0.189-16.944,1.005-34.132-1.459-50.768c-3.444-23.263-9.379-46.186-14.837-69.112c-3.302-13.869-7.452-27.555-11.776-41.147
		c-1.563-4.909-0.224-7.723,2.909-11.408c7.291-8.574,14.314-17.462,20.563-26.815c6.774-10.139,10.243-21.498,9.508-34.014
		c-0.46-7.83-0.086-15.71-0.086-23.853c6.252-0.808,11.146-1.856,16.066-2.005c23.598-0.711,47.263-0.329,70.785-2
		c19.267-1.37,37.044-7.865,50.362-23.182c2.837-3.261,6.049-6.205,9.164-9.213c10.402-10.045,15.229-22.318,14.945-36.723
		c-0.258-13.214-0.406-26.431-0.605-39.642c2.977-2.04,6.571-3.911,9.438-6.567c16.836-15.591,33.232-31.666,50.342-46.945
		c8.198-7.321,11.406-16.009,11.447-26.441c0.044-11.331,0.176-22.666-0.078-33.992c-0.071-3.208-0.66-6.79-2.228-9.497
		c-3.33-5.745-3.938-11.865-4.401-18.208c-0.286-3.928-0.491-8.129-2.01-11.656c-8.882-20.615-13.971-43.331-31.904-59.071
		c-0.734-0.644-1.368-1.508-1.786-2.394c-6.873-14.572-19.296-24.439-30.335-35.404c-7.594-7.542-16.744-12.28-27.261-15.605
		c-11.885-3.758-23.662-2.407-35.508-3.208c-14.046-0.949-26.901,3.032-39.672,8.151c-14.449,5.792-29.062,11.18-43.938,16.873
		c-2.942-13.051-5.113-25.806-8.735-38.136c-9.093-30.946-17.833-62.057-28.602-92.433c-11.65-32.868-25.208-65.074-38.401-97.378
		c-6.151-15.063-13.045-29.854-20.279-44.433c-5.447-10.974-11.711-21.574-18.126-32.025c-3.286-5.354-7.89-9.881-11.576-15.013
		c-14.69-20.449-32.536-37.8-52.23-53.313c-3.343-2.633-7.127-5.061-11.101-6.482c-19.463-6.957-39.277-12.585-60.084-13.752
		c-9.953-0.559-19.904-1.32-29.867-1.536c-19.283-0.417-38.592-1.085-57.857-0.536c-12.571,0.358-25.053,3.108-37.631,4.031
		c-21.868,1.604-43.775,2.737-65.677,3.826c-7.69,0.384-15.416,0.062-25.077,0.062c11.233-7.256,20.609-14.144,30.727-19.67
		c19.256-10.516,39.056-20.025,58.405-30.374c21.642-11.576,44.232-21.794,60.165-41.766c9.952-12.475,16.798-26.042,17.11-42.252
		c0.204-10.548,1.61-21.461-6.426-30.328c-0.412-0.455-0.443-1.244-0.691-1.862c-6.624-16.512-19.615-27.333-33.644-37.052
		c-6.146-4.258-13.326-5.685-20.909-5.396c-7.654,0.292-15.35,0.428-22.989-0.02c-12.353-0.724-23.654,1.893-34.501,7.952
		c-3.784,2.115-8.866,3.171-13.202,2.819c-22.174-1.798-44.568-2.734-66.383-6.727c-45.155-8.265-89.491-20.025-132.815-35.52
		c-8.548-3.057-12.532-7.439-14.615-16.194c-9.152-38.468-18.738-76.84-28.841-115.068c-3.741-14.153-8.031-27.895-7.199-42.903
		c0.455-8.238-2.541-16.204-6.808-23.681c-3.244-5.682-5.404-12.099-7.267-18.419c-1.935-6.563-4.774-12.333-9.749-17.075
		c-4.101-3.908-7.913-8.121-12.068-11.967c-7.246-6.71-15.536-12.022-25.625-12.074c-18.964-0.099-37.978-0.083-56.884,1.183
		c-22.523,1.507-44.974,4.218-67.42,6.727c-11.219,1.253-22.355,3.231-33.533,4.853c-6.837,0.992-12.691-0.083-18.225-5.201
		c-5.524-5.108-12.344-8.829-18.648-13.078c-3.855-2.599-8.024-4.771-11.684-7.61c-12.874-9.994-25.941-19.787-38.271-30.425
		c-13.313-11.488-28.417-17.865-45.66-20.69c-7.979-1.307-15.491-5.342-23.296-7.894c-5.611-1.833-11.296-4.314-17.055-4.649
		c-12.29-0.714-24.65-0.243-36.981-0.215c-12.083,0.027-22.946,3.573-32.193,11.501c-4.037,3.46-8.042,6.976-11.842,10.692
		c-19.506,19.075-39.008,38.155-58.376,57.371c-12.979,12.876-26.015,25.718-38.399,39.153c-3.302,3.581-6.139,5.078-10.818,5.361
		c-27.85,1.684-55.677,3.732-83.516,5.605c-10.687,0.719-21.861,1.614-30.879-5.026c-11.52-8.482-24.688-11.313-38.096-13.717
		c-14.717-2.639-29.617-4.273-44.312-7.012c-27.196-5.068-54.383-9.149-82.233-8.113c-19.349,0.721-37.485,4.162-53.26,16.121
		c-1.031,0.781-2.266,1.586-3.494,1.764c-7.864,1.137-15.75,2.923-23.634,2.949c-15.011,0.05-26.868,6.15-37.032,16.576
		c-8.569,8.79-16.601,17.752-23.37,28.299c-5.401,8.415-7.619,16.413-7.597,25.765c0.018,7.665-0.368,15.355,0.146,22.986
		c0.304,4.513,1.317,9.255,3.214,13.334c6.369,13.695,15.913,25.341,26.121,36.225c30.593,32.617,64.216,62.032,100.591,87.881
		c38.778,27.557,78.941,53.166,118.5,79.625c6.23,4.167,12.46,8.332,18.974,12.688c-3.97,6.22-7.314,11.458-10.363,16.233
		c-15.963,1.419-31.133,2.769-44.905,3.995c-8.288-9.152-15.657-17.678-23.457-25.789c-6.951-7.228-15.277-11.479-25.828-10.626
		c-6.291,0.51-12.688-0.271-18.977,0.255c-3.436,0.288-7.499,1.225-9.965,3.375c-6.225,5.428-11.705,11.709-18.271,18.46
		c-2.11,0-5.435-0.031-8.758,0.005c-25.591,0.277-19.742-2.832-40.49,17.613c-2.824,2.783-4.146,5.683-3.917,9.676
		c0.718,12.487,1.19,24.988,1.83,39.059c-2.644,2.505-6.696,6.001-10.349,9.875c-6.867,7.28-10.994,15.634-10.185,26.095
		c0.487,6.294-0.019,12.66,0.112,18.99c0.446,21.638,15.737,36.616,37.345,36.663c8.577,0.019,17.155,0.003,25.324,0.003
		c4.658,15.459,13.602,28.68,26.136,38.143c2.742,2.07,6.663,3.632,10.034,3.619c10.586-0.041,21.163-1.056,31.751-1.47
		c6.086-0.238,12.189-0.043,18.284-0.043c-12.213,11.73-19.13,24.756-18.581,40.364c-27.602,6.59-53.958,13.548-80.608,19.09
		c-40.372,8.392-78.164,23.638-115.344,40.876c-18.098,8.392-36.274,16.661-54.724,24.232c-23.281,9.553-44.842,21.633-63.78,38.39
		c-10.696,9.461-21.843,18.45-33.184,27.132c-7.112,5.444-15.374,9.402-22.4,14.939c-16.964,13.367-34.097,26.62-50.063,41.128
		c-17.962,16.324-34.621,34.014-49.257,53.563c-8.833,11.796-14.285,24.699-16.037,39.122c-1.2,9.88-1.909,19.862-2.119,29.813
		c-0.484,22.979-0.304,45.972-0.836,68.949c-0.352,15.192,2.335,29.784,6.787,44.175c6.668,21.554,14.612,42.653,20.965,64.368
		c10.296,35.189,31.862,64.954,52.492,94.693c7.869,11.343,17.529,21.566,24.849,33.471c1.735,2.821,4.042,5.285,6.007,7.972
		c11.19,15.291,22.321,30.626,33.543,45.895c8.269,11.25,15.867,23.119,25.157,33.464c14.001,15.591,29.293,30.019,43.846,45.124
		c2.637,2.737,5.368,6.078,6.333,9.611c3.834,14.036,10.3,26.581,19.049,38.127c2.329,3.072,4.427,6.665,5.416,10.346
		c3.834,14.284,11.928,25.813,22.245,35.984c15.89,15.663,31.669,31.445,47.894,46.756c10.127,9.556,22.448,16.653,36.229,17.583
		c18.066,1.219,36.674,2.949,53.778-6.346c2.189-1.19,5.161-1.046,7.792-1.299c18.635-1.792,35.766-7.929,50.636-19.205
		c7.899-5.99,14.355-13.848,21.974-20.255c9.344-7.859,18.99-14.876,32.603-13.727c16.646,1.405,33.204-0.021,49.183-5.555
		c0.27-0.094,0.635,0.089,1.238,0.19c0.201,1.196,0.751,2.529,0.581,3.763c-1.684,12.228,4.006,21.086,12.66,28.804
		c4.144,3.697,7.89,7.84,13.158,13.126c-6.109,0.767-10.308,1.349-14.52,1.816c-33.67,3.735-67.348,7.396-101.011,11.19
		c-16.506,1.86-32.963,4.166-49.482,5.889c-25.103,2.621-50.303,4.397-75.351,7.445c-55.23,6.723-109.483,18.748-163.217,32.807
		c-63.346,16.574-126.452,34.09-189.467,51.887c-48.648,13.74-97.16,28.075-142.877,50.251
		c-12.836,6.226-26.162,11.581-38.503,18.659c-19.775,11.341-36.67,26.509-51.823,43.47c-6.831,7.646-13.485,15.627-19.004,24.235
		c-16.256,25.35-26.469,53.534-36.791,81.616c-16.804,45.721-25.347,93.455-34.208,141.104c-2.121,11.408-2.636,23.31-6.236,34.209
		c-11.605,35.136-19.954,70.962-24.837,107.569c-1.184,8.875-4.895,15.688-10.797,21.808c-9.704,10.063-19.37,20.165-29.177,30.127
		c-5.368,5.453-10.677,11.038-16.563,15.896c-19.54,16.134-37.791,33.582-54.647,52.479c-7.135,7.998-12.271,17.097-15.979,27.322
		c-6.731,18.559-7.854,37.614-7.088,56.977C393.162,2708.18,395.502,2729.204,411.058,2746.405z"/>
	<path fill-rule="evenodd" clip-rule="evenodd" d="M411.058,2746.405c-15.556-17.201-17.896-38.226-18.743-59.662
		c-0.765-19.362,0.357-38.418,7.088-56.977c3.708-10.226,8.844-19.324,15.979-27.322c16.857-18.896,35.107-36.345,54.647-52.479
		c5.886-4.858,11.195-10.443,16.563-15.896c9.808-9.962,19.473-20.063,29.177-30.127c5.902-6.119,9.614-12.933,10.797-21.808
		c4.883-36.607,13.232-72.434,24.837-107.569c3.6-10.899,4.116-22.801,6.236-34.209c8.86-47.649,17.403-95.384,34.208-141.104
		c10.321-28.082,20.535-56.267,36.791-81.616c5.52-8.608,12.173-16.59,19.004-24.235c15.152-16.961,32.048-32.129,51.823-43.47
		c12.341-7.078,25.667-12.434,38.503-18.659c45.718-22.176,94.229-36.511,142.877-50.251
		c63.015-17.797,126.121-35.313,189.467-51.887c53.733-14.06,107.986-26.084,163.217-32.807c25.047-3.048,50.248-4.825,75.351-7.445
		c16.52-1.724,32.977-4.029,49.482-5.889c33.663-3.793,67.341-7.455,101.011-11.19c4.211-0.467,8.41-1.049,14.52-1.816
		c-5.268-5.287-9.015-9.43-13.158-13.126c-8.653-7.718-14.343-16.576-12.66-28.804c0.17-1.234-0.38-2.567-0.581-3.763
		c-0.604-0.102-0.969-0.284-1.238-0.19c-15.979,5.534-32.537,6.96-49.183,5.555c-13.613-1.149-23.259,5.867-32.603,13.727
		c-7.618,6.408-14.074,14.265-21.974,20.255c-14.87,11.276-32.001,17.412-50.636,19.205c-2.631,0.253-5.603,0.108-7.792,1.299
		c-17.104,9.295-35.712,7.564-53.778,6.346c-13.781-0.93-26.102-8.027-36.229-17.583c-16.225-15.311-32.004-31.093-47.894-46.756
		c-10.317-10.171-18.411-21.7-22.245-35.984c-0.988-3.681-3.086-7.274-5.416-10.346c-8.749-11.546-15.215-24.091-19.049-38.127
		c-0.965-3.533-3.696-6.875-6.333-9.611c-14.553-15.105-29.845-29.533-43.846-45.124c-9.29-10.345-16.889-22.214-25.157-33.464
		c-11.222-15.269-22.354-30.604-33.543-45.895c-1.965-2.687-4.272-5.151-6.007-7.972c-7.32-11.905-16.979-22.128-24.849-33.471
		c-20.629-29.739-42.196-59.504-52.492-94.693c-6.353-21.715-14.297-42.814-20.965-64.368c-4.452-14.392-7.139-28.983-6.787-44.175
		c0.532-22.978,0.352-45.971,0.836-68.949c0.21-9.951,0.919-19.932,2.119-29.813c1.752-14.423,7.204-27.326,16.037-39.122
		c14.637-19.548,31.295-37.238,49.257-53.563c15.966-14.508,33.099-27.761,50.063-41.128c7.026-5.537,15.288-9.496,22.4-14.939
		c11.341-8.683,22.488-17.671,33.184-27.132c18.938-16.757,40.499-28.836,63.78-38.39c18.45-7.571,36.626-15.841,54.724-24.232
		c37.18-17.239,74.972-32.484,115.344-40.876c26.65-5.542,53.006-12.5,80.608-19.09c-0.549-15.607,6.368-28.634,18.581-40.364
		c-6.095,0-12.198-0.195-18.284,0.043c-10.588,0.414-21.165,1.429-31.751,1.47c-3.371,0.014-7.292-1.548-10.034-3.619
		c-12.535-9.462-21.478-22.684-26.136-38.143c-8.169,0-16.747,0.016-25.324-0.003c-21.607-0.047-36.898-15.024-37.345-36.663
		c-0.131-6.33,0.375-12.695-0.112-18.99c-0.809-10.461,3.318-18.815,10.185-26.095c3.653-3.874,7.705-7.37,10.349-9.875
		c-0.639-14.07-1.112-26.571-1.83-39.059c-0.229-3.993,1.094-6.894,3.917-9.676c20.749-20.445,14.899-17.335,40.49-17.613
		c3.324-0.036,6.648-0.005,8.758-0.005c6.567-6.75,12.046-13.032,18.271-18.46c2.466-2.151,6.529-3.087,9.965-3.375
		c6.289-0.525,12.686,0.255,18.977-0.255c10.551-0.853,18.877,3.399,25.828,10.626c7.8,8.111,15.169,16.637,23.457,25.789
		c13.772-1.226,28.942-2.575,44.905-3.995c3.048-4.775,6.393-10.013,10.363-16.233c-6.514-4.356-12.744-8.521-18.974-12.688
		c-39.559-26.458-79.721-52.067-118.5-79.625c-36.375-25.849-69.998-55.264-100.591-87.881
		c-10.208-10.884-19.752-22.53-26.121-36.225c-1.897-4.079-2.911-8.821-3.214-13.334c-0.515-7.631-0.129-15.321-0.146-22.986
		c-0.022-9.352,2.196-17.35,7.597-25.765c6.77-10.546,14.801-19.509,23.37-28.299c10.164-10.426,22.021-16.526,37.032-16.576
		c7.884-0.025,15.77-1.812,23.634-2.949c1.228-0.178,2.462-0.982,3.494-1.764c15.774-11.959,33.911-15.4,53.26-16.121
		c27.85-1.036,55.037,3.045,82.233,8.113c14.695,2.739,29.595,4.374,44.312,7.012c13.408,2.404,26.576,5.234,38.096,13.717
		c9.018,6.64,20.192,5.745,30.879,5.026c27.838-1.873,55.666-3.921,83.516-5.605c4.68-0.283,7.517-1.78,10.818-5.361
		c12.385-13.435,25.421-26.277,38.399-39.153c19.368-19.216,38.87-38.296,58.376-57.371c3.8-3.716,7.805-7.231,11.842-10.692
		c9.247-7.929,20.11-11.474,32.193-11.501c12.331-0.028,24.691-0.499,36.981,0.215c5.759,0.335,11.443,2.816,17.055,4.649
		c7.805,2.552,15.316,6.586,23.296,7.894c17.243,2.825,32.348,9.202,45.66,20.69c12.329,10.638,25.396,20.431,38.271,30.425
		c3.659,2.839,7.828,5.012,11.684,7.61c6.305,4.249,13.124,7.97,18.648,13.078c5.533,5.118,11.388,6.193,18.225,5.201
		c11.178-1.622,22.314-3.6,33.533-4.853c22.446-2.508,44.896-5.22,67.42-6.727c18.906-1.266,37.92-1.281,56.884-1.183
		c10.089,0.052,18.379,5.364,25.625,12.074c4.155,3.846,7.968,8.06,12.068,11.967c4.975,4.743,7.814,10.512,9.749,17.075
		c1.862,6.32,4.022,12.737,7.267,18.419c4.267,7.477,7.263,15.442,6.808,23.681c-0.832,15.008,3.458,28.75,7.199,42.903
		c10.103,38.229,19.688,76.601,28.841,115.068c2.083,8.755,6.067,13.137,14.615,16.194c43.324,15.495,87.66,27.255,132.815,35.52
		c21.814,3.993,44.209,4.928,66.383,6.727c4.336,0.353,9.418-0.704,13.202-2.819c10.847-6.06,22.148-8.676,34.501-7.952
		c7.64,0.447,15.335,0.312,22.989,0.02c7.583-0.289,14.763,1.138,20.909,5.396c14.028,9.719,27.02,20.54,33.644,37.052
		c0.248,0.618,0.279,1.407,0.691,1.862c8.036,8.867,6.63,19.78,6.426,30.328c-0.313,16.21-7.158,29.777-17.11,42.252
		c-15.933,19.971-38.523,30.189-60.165,41.766c-19.35,10.349-39.149,19.858-58.405,30.374c-10.117,5.526-19.493,12.414-30.727,19.67
		c9.661,0,17.387,0.322,25.077-0.062c21.901-1.089,43.809-2.222,65.677-3.826c12.578-0.923,25.06-3.673,37.631-4.031
		c19.266-0.55,38.574,0.119,57.857,0.536c9.963,0.216,19.914,0.978,29.867,1.536c20.807,1.167,40.621,6.795,60.084,13.752
		c3.974,1.421,7.758,3.849,11.101,6.482c19.694,15.513,37.54,32.864,52.23,53.313c3.687,5.132,8.29,9.659,11.576,15.013
		c6.415,10.451,12.679,21.051,18.126,32.025c7.234,14.579,14.128,29.371,20.279,44.433c13.193,32.305,26.751,64.51,38.401,97.378
		c10.769,30.376,19.509,61.486,28.602,92.433c3.622,12.33,5.793,25.085,8.735,38.136c14.877-5.692,29.489-11.081,43.938-16.873
		c12.771-5.12,25.626-9.101,39.672-8.151c11.846,0.801,23.623-0.551,35.508,3.208c10.517,3.326,19.667,8.063,27.261,15.605
		c11.039,10.964,23.462,20.832,30.335,35.404c0.418,0.886,1.052,1.75,1.786,2.394c17.934,15.74,23.022,38.456,31.904,59.071
		c1.519,3.527,1.724,7.728,2.01,11.656c0.463,6.342,1.071,12.462,4.401,18.208c1.567,2.707,2.156,6.29,2.228,9.497
		c0.254,11.326,0.122,22.661,0.078,33.992c-0.041,10.432-3.249,19.12-11.447,26.441c-17.109,15.28-33.506,31.354-50.342,46.945
		c-2.866,2.656-6.461,4.527-9.438,6.567c0.199,13.211,0.348,26.427,0.605,39.642c0.283,14.404-4.543,26.677-14.945,36.723
		c-3.115,3.008-6.327,5.952-9.164,9.213c-13.318,15.316-31.096,21.812-50.362,23.182c-23.522,1.67-47.188,1.288-70.785,2
		c-4.921,0.148-9.814,1.197-16.066,2.005c0,8.143-0.374,16.022,0.086,23.853c0.735,12.516-2.733,23.875-9.508,34.014
		c-6.248,9.353-13.271,18.241-20.563,26.815c-3.133,3.685-4.472,6.499-2.909,11.408c4.324,13.592,8.475,27.279,11.776,41.147
		c5.458,22.927,11.393,45.85,14.837,69.112c2.464,16.636,1.27,33.824,1.459,50.768c0.024,2.154-0.967,4.707-2.315,6.425
		c-8.769,11.173-17.832,22.113-26.671,33.23c-9.398,11.822-22.382,17.402-36.368,21.373c-4.145,1.178-8.222,2.594-13.094,4.143
		c0.398,2.061,0.456,3.976,1.137,5.637c9.538,23.28,11.693,48.329,17.417,72.52c2.983,12.608,5.387,25.354,8.26,37.991
		c3.894,17.12,2.082,34.475,2.292,51.742c0.021,1.733-1.154,3.822-2.399,5.166c-4.069,4.398-8.378,8.58-12.708,12.728
		c-1.166,1.116-2.76,2.614-4.112,2.569c-7.893-0.264-11.454,5.482-15.912,10.419c-5.576,6.176-11.827,11.739-17.554,17.787
		c-5.388,5.689-12.016,8.214-19.62,8.451c-23.243,0.725-46.497,1.18-69.729,2.146c-6.604,0.273-10.943-2.348-15.76-6.567
		c-17.628-15.442-27.016-36.008-36.669-56.488c-0.838-1.778-1.693-3.814-1.635-5.703c0.367-11.915,0.738-23.844,1.707-35.719
		c0.239-2.945,2.424-5.885,4.188-8.509c1.652-2.456,3.755-4.69,5.975-6.669c6.173-5.503,5.562-12.015,1.884-18.031
		c-14.673-24.006-20.069-51.239-27.451-77.76c-1.14-4.094-3.078-7.014-5.561-10.181c-3.423-4.365-6.895-9.022-8.871-14.125
		c-5.633-14.541-10.689-29.315-15.664-44.102c-7.73-22.974-15.602-45.913-22.584-69.117c-2.546-8.457-3.041-17.597-3.89-26.481
		c-0.852-8.908-1.247-17.883-1.328-26.834c-0.057-6.282,0.738-12.574,1.175-18.859c0.436-6.283,0.268-12.208-2.064-18.477
		c-10.543-28.349-21.051-56.744-30.334-85.521c-11.196-34.712-17.184-70.428-14.644-107.055c0.563-8.101,3.817-16.015,6.157-25.307
		c-1.533-2.217-4.169-5.598-6.346-9.252c-5.77-9.691-7.771-20.602-7.83-31.534c-0.087-16.257,1.088-32.521,1.734-48.782
		c0.252-6.321,2.864-11.479,7.46-15.812c4.362-4.114,8.659-8.318,12.718-12.73c6.764-7.353,15.182-10.647,24.959-10.345
		c11.614,0.358,23.271,0.622,34.797,1.917c4.647,0.522,9.561,2.921,13.375,5.775c8.747,6.54,16.893,13.885,25.532,21.111
		c9.823-2.053,15.372-10.053,21.245-16.958c3.272-3.847,1.606-9.525-0.91-14.151c-7.309-13.436-14.926-26.716-21.829-40.358
		c-23.757-46.952-52.454-91.014-79.293-136.161c-0.324-0.544-0.922-0.924-1.669-1.65c-30.347,3.488-60.966,7.021-91.589,10.519
		c-19.806,2.263-39.657,4.185-59.412,6.82c-11.175,1.489-22.282,3.76-33.24,6.422c-3.53,0.857-6.483,4.084-9.665,6.203
		c8.5,22.081,16.8,43.071,24.672,64.219c13.695,36.79,25.643,74.161,33.22,112.711c2.927,14.898,4.053,30.241,4.863,45.441
		c0.939,17.609,0.365,35.293,0.919,52.931c0.876,27.89,2.978,55.767,2.99,83.651c0.01,23.514-0.804,47.108-5.184,70.426
		c-1.201,6.396-0.093,13.254,0.154,19.893c0.567,15.267,1.721,30.526,1.771,45.792c0.054,16.581-12.762,24.533-24.177,33.042
		c-1.635,1.217-4.474,1.094-6.76,1.118c-10.663,0.105-21.346,0.395-31.988-0.096c-5.916-0.272-11.925-1.406-17.616-3.088
		c-13.686-4.045-27.425-8.073-40.752-13.136c-27.051-10.278-55.477-13.493-83.805-17.1c-9.161-1.167-18.597-0.184-28.224-0.184
		c8.066,17.74,16.071,35.346,24.002,52.789c9.526,0,19.146,0.297,28.738-0.064c17.518-0.661,33.925,4.152,48.775,12.351
		c10.589,5.846,19.501,14.856,28.816,22.856c18.16,15.599,31.602,34.861,43.001,55.778c4.599,8.439,8.668,16.938,12.316,25.858
		c2.848,6.96,6.265,14.631,14.056,19.295c6.11,3.658,10.915,9.737,15.753,15.222c10.557,11.968,21.288,23.844,30.951,36.518
		c7.799,10.229,9.573,23.22,12.925,35.369c5.487,19.895,4.128,40.28,4.117,60.56c-0.001,1.981,0.079,4.22-0.759,5.899
		c-3.455,6.931-0.366,11.187,4.381,16.421c25.461,28.076,50.651,56.397,69.984,89.337c22.069,37.603,45.794,74.13,71.185,109.608
		c8.276,11.565,14.593,24.534,21.807,36.86c12.261,20.952,24.667,41.82,36.75,62.873c17.552,30.581,36.058,60.694,51.972,92.112
		c17.858,35.256,33.59,71.607,49.631,107.756c7.14,16.09,12.934,32.789,19.044,49.32c5.796,15.684,8.944,32.003,9.716,48.677
		c1.155,24.98,1.382,49.894-8.121,73.766c-5.444,13.676-12.093,26.592-21.467,38.028c-1.658,2.022-3.214,4.261-4.251,6.646
		c-17.335,39.872-39.656,76.87-65.546,111.653c-17.447,23.44-36.231,45.88-54.051,69.05c-6.863,8.925-12.818,18.561-19.002,27.995
		c-17.531,26.745-31.462,55.522-47.174,83.286c-12.968,22.917-16.465,47.684-18.369,72.691
		c-2.498,32.793-6.835,65.277-11.079,97.845c-5.896,45.245-24.448,85.477-48.026,123.462c-13.347,21.505-33.777,36.233-56.241,48.21
		c-29.867,15.922-62.014,25.636-93.814,36.395c-24.532,8.299-49.056,16.624-73.589,24.922c-1.893,0.641-3.793,1.426-5.75,1.676
		c-7.403,0.941-14.289,2.64-19.276,8.979c-1.276,1.623-3.839,2.235-5.885,3.353c6.84,8.673,13.185,17.087,19.995,25.106
		c1.784,2.104,4.855,3.439,7.595,4.357c31.189,10.459,62.553,20.414,93.601,31.269c14.698,5.138,28.911,11.721,43.189,17.998
		c33.2,14.596,66.642,28.449,102.67,34.582c17.998,3.064,36.104,5.521,54.056,8.826c14.454,2.661,28.229,7.293,40.394,16.126
		c6.167,4.479,12.895,8.256,19.632,11.859c13.179,7.048,23.646,17.318,33.464,28.19c6.849,7.582,10.055,17.251,10.756,27.389
		c1.219,17.608,1.892,35.251-3.404,52.467c-0.585,1.902-0.794,4.049-1.83,5.663c-12.704,19.796-24.904,40.034-44.685,53.973
		c-1.356,0.956-2.696,2.115-4.227,2.614c-11.276,3.67-20.01,11.233-29.229,18.249c-14.973,11.395-32.754,16.403-50.944,18.975
		c-17.068,2.414-34.377,3.3-51.612,4.303c-14.271,0.828-28.588,1.027-42.888,1.192c-38.697,0.445-76.938-4.493-115.132-9.981
		c-22.032-3.167-44.175-5.641-66.121-9.3c-10.392-1.734-20.63-4.987-30.608-8.488c-20.385-7.154-40.437-15.263-60.831-22.387
		c-23.664-8.268-43.477-22.655-63.034-37.714c-26.192-20.169-49.952-42.86-72.272-67.199
		c-12.601-13.738-26.354-26.425-38.854-40.251c-7.994-8.845-14.636-18.909-21.907-28.41c-1.596-2.084-3.292-4.091-5.325-6.608
		c-7.024,5.538-13.817,10.707-20.396,16.134c-7.248,5.979-15.189,9.253-24.807,8.354c-5.287-0.494-10.677-0.381-15.984-0.016
		c-6.542,0.451-11.757-1.834-15.938-6.622c-4.321-4.95-8.247-10.258-12.749-15.03c-2.695-2.855-5.94-5.356-9.321-7.373
		c-15.066-8.985-27.307-21.042-38.756-34.153c-4.084-4.677-9.119-8.671-14.209-12.292c-9.476-6.739-11.569-16.553-12.15-27.055
		c-0.981-17.75,0.411-35.161,6.654-52.089c3.325-9.016,4.509-18.87,8.237-27.678c9.324-22.033,16.376-44.878,25.07-67.119
		c2.146-5.494,5.104-10.671,8.548-17.764c-7.491,0-13.606-0.25-19.692,0.062c-7.88,0.405-13.978-2.342-19.467-8.089
		c-10.896-11.407-11.106-11.206-18.535-29.968c-6.175,0-12.816-0.559-19.323,0.141c-8.117,0.873-14.184-1.726-18.969-8.12
		c-1.186-1.584-3.108-2.656-4.132-4.311c-1.325-2.139-2.895-4.604-2.958-6.967c-0.306-11.305-0.137-22.624-0.137-34.51
		c-11.878-9.082-22.211-18.524-22.063-37.315c0.136-17.412,5.048-30.197,19.769-40.396c-9.443-11.385-6.696-24.287-7.09-36.739
		c-0.202-6.395,2.084-11.676,6.295-16.286c0.448-0.492,0.943-0.941,1.402-1.426c12.259-12.908,12.258-12.909,30.092-12.909
		c2.667,0,5.354-0.213,7.995,0.043c5.378,0.521,9.79-0.87,13.142-5.354c6.595-8.822,15.604-10.5,26.286-11.078
		c14.322-0.777,25.302,3.455,32.621,13.589c13.008-0.431,24.559-1.171,36.096-1.001c4.022,0.06,8.748,1.418,11.861,3.841
		c6.269,4.882,11.8,10.759,17.294,16.549c1.401,1.479,1.914,4.13,2.146,6.313c0.349,3.292,0.091,6.647,0.091,9.79
		c12.64,8.933,25.325,16.776,24.978,35.309c-0.295,15.725,0.09,30.865-15.172,41.499c3.729,4.372,6.855,8.039,10.508,12.321
		c3.166-1.287,6.292-2.271,9.148-3.77c11.734-6.152,24.342-8.768,37.421-9.118c7.764-0.208,14.128-2.472,19.219-8.65
		c3.587-4.353,7.816-8.203,11.968-12.053c3.228-2.994,4.684-6.077,3.23-10.594c-8.476-26.333-5.483-53.506-4.771-80.33
		c0.678-25.521,2.629-51.105,5.802-76.438c3.649-29.13,12.612-56.385,35.207-77.291c8.045-7.443,15.255-15.789,22.855-23.713
		c5.144-5.362,11.581-8.459,18.167-11.839c23.603-12.112,48.799-11.653,74.133-11.115c0.666,0.014,1.438-0.16,1.98,0.111
		c10.436,5.206,20.524,1.352,30.848-0.704c7.108-1.416,14.506-1.392,22.391-2.064c0.872-2.564,1.709-5.376,2.773-8.098
		c5.207-13.309,10.019-26.801,15.922-39.795c2.685-5.907,7.29-11.052,11.541-16.105c3.848-4.573,8.701-8.298,12.582-12.848
		c9.159-10.735,21.026-14.111,34.609-14.618c18.898-0.704,37.215,0.883,54.491,9.341c2.646,1.295,5.667,1.861,8.557,2.599
		c0.904,0.231,1.947-0.085,3.575-0.193c4.613-11.817,9.29-23.797,14.181-36.322c-12.634-9.069-23.645-19.956-32.949-32.563
		c-7.114-9.641-10.783-19.979-10.823-32.336c-0.056-17.176,0.359-34.156,8.662-49.508c9.29-17.177,17.392-35.353,33.359-47.969
		c2.085-1.647,3.975-3.544,6.112-5.468c-23.757-31.398-43.145-65.346-69.766-93.897c-29.711-31.863-57.882-65.06-86.398-97.974
		c-15.87-18.317-33.484-35.171-50.889-52.092c-9.018-8.766-19.217-16.334-29.027-24.265c-6.465-5.227-9.521-11.54-8.537-20.01
		c0.573-4.933-0.192-10.01,0.19-14.979c0.372-4.817,1.442-9.582,2.52-16.341c-5.385-7.705-12.085-17.16-21.314-24.403
		c-11.249-8.829-22.632-17.491-34.123-26c-2.25-1.666-5.341-3.439-7.901-3.248c-20.945,1.561-40.112-5.331-59.128-12.361
		c-20.788-7.688-42.228-11.747-64.155-13.856c-25.919-2.493-51.236-6.962-75.102-18.425c-5.732-2.754-13.595-1.759-20.423-1.412
		c-18.243,0.924-36.483,2.157-54.679,3.787c-17.198,1.542-34.308,4.101-51.515,5.492c-7.534,0.609-13.709,2.831-20.031,7.073
		c-13.979,9.38-30.378,13.138-46.353,17.683c-33.717,9.591-68.273,14.241-103.042,17.917c-43.731,4.624-87.579,6.104-131.502,5.837
		c-16.41-0.1-32.048,2.539-47.482,8.353c-8.533,3.216-17.974,4.196-27.09,5.645c-10.817,1.718-21.789,2.482-32.583,4.313
		c-35.626,6.039-71.553,6.614-107.49,5.601c-25.232-0.71-50.406-3.425-75.638-4.215c-18.933-0.593-37.927,0.198-56.876,0.862
		c-11.936,0.419-23.832,1.889-35.764,2.57c-3.685,0.21-5.813,1.73-8.242,4.437c-9.104,10.143-18.602,19.934-28.115,29.699
		c-1.817,1.865-4.207,3.396-6.611,4.431c-15.811,6.805-31.302,14.015-49.362,13.715c-21.939-0.364-15.637-3.783-25.635,16.004
		c-9.745,19.283-18.763,38.934-28.1,58.421c2.72,4.002,5.111,7.147,7.107,10.526c7.436,12.58,14.916,25.141,22.043,37.896
		c6.318,11.308,12.449,22.735,18.192,34.344c5.986,12.097,8.416,25.36,8.873,38.599c0.667,19.288,0.57,38.679-0.643,57.934
		c-1.062,16.845-4.943,33.509-6.054,50.354c-1.157,17.552-0.716,35.226-0.545,52.842c0.128,13.286,1.54,26.587,1.116,39.84
		c-0.154,4.852-2.897,10.556-6.264,14.205c-13.515,14.648-26.484,30.004-43.288,41.18c-5.485,3.647-11.505,6.494-17.932,10.07
		c-1.055,8.902-2.183,18.423-3.121,26.342c11.314,17.125,21.918,33.177,32.79,49.633c3.906-0.809,5.945-3.75,5.482-8.314
		c-0.526-5.188,1.828-8.937,5.393-12.262c1.705-1.589,3.484-3.15,4.922-4.968c5.341-6.742,11.888-10.401,20.779-9.016
		c1.516,0.236,3.18-0.476,4.822-0.757c0.689-6.906,1.618-13.445,1.897-20.012c0.172-4.054,2.007-6.734,4.703-9.419
		c17.896-17.817,13.79-15.323,37.245-15.843c8.788-0.194,16.216,1.344,22.595,7.877c7.692,7.88,16.051,15.02,15.759,27.545
		c-0.161,6.896,0.62,13.813,1.08,22.731c4.165-2.919,7.715-4.59,10.128-7.28c4.17-4.65,8.897-6.402,15.039-5.964
		c5.969,0.425,12.018,0.441,17.983-0.007c5.863-0.44,10.345,1.368,13.869,5.969c0.803,1.049,1.767,2.032,2.825,2.821
		c7.323,5.466,10.448,12.674,8.953,21.71c-1.637,9.888,1.997,17.428,9.914,23.193c5.626,4.099,7.841,9.589,6.81,16.481
		c-0.243,1.63-0.035,3.327-0.035,4.994c0,23.925,0.023,23.951-18.251,39.769c-3.765,3.259-7.772,6.237-10.436,8.362
		c0,12.973,0.343,24.892-0.228,36.769c-0.153,3.193-2.46,6.909-4.886,9.223c-3.791,3.613-4.723,7.285-4.374,12.373
		c0.591,8.625,0.035,17.323,0.23,25.984c0.097,4.313-1.033,7.846-4.463,10.55c-0.52,0.409-1.011,0.89-1.405,1.419
		c-7.374,9.897-17.032,12.577-29.393,12.94c-15.075,0.443-26.526-3.955-35.927-15.206c-1.915-2.292-4.151-4.333-6.357-6.362
		c-5.852-5.379-14.121-5.832-19.434,0.026c-4.822,5.317-10.213,6.605-16.895,6.273c-7.636-0.381-15.305-0.089-24.32-0.089
		c-0.592,2.652-1.619,5.993-2.045,9.408c-1.092,8.721-2.768,16.915-10.271,22.948c-2.301,1.85-3.433,5.515-4.424,8.567
		c-3.9,12.002-5.825,25.017-11.725,35.896c-6.361,11.727-5.74,23.421-6.081,35.55c-0.252,8.958-0.485,17.948-1.453,26.845
		c-1.32,12.148-5.411,22.931-15.396,31.21c-5.463,4.528-9.862,9.827-17.987,8.593c-1.687-0.257-3.808,0.989-5.451,1.996
		c-19.493,11.949-40.887,19.213-62.626,25.668c-6.057,1.799-12.27,3.305-18.038,5.806c-16.661,7.225-34.067,8.371-51.857,7.521
		c-6.874-0.328-13.025-1.769-18.039-6.995c-5.063-5.274-10.946-9.808-15.653-15.359c-2.628-3.099-4.065-7.477-5.19-11.515
		c-1.319-4.729-1.715-9.716-2.661-15.505c-3.674,1.581-6.59,2.97-9.6,4.109c-17.713,6.699-35.558,13.063-53.147,20.071
		c-21.64,8.623-43.401,16.663-66.121,22.153c-11.26,2.721-22.063,7.317-33.098,10.99c-14.57,4.852-29.238,8.921-44.899,8.082
		c-13.614-0.729-27.267-0.718-40.893-1.272c-12.839-0.521-24.594-5.309-36.489-9.623c-24.684-8.954-50.154-15.846-73.539-28.185
		c-12.65-6.674-25.227-13.488-37.929-20.062c-36.03-18.645-72.173-37.071-108.119-55.876c-8.809-4.607-16.825-10.72-25.572-15.463
		c-16.363-8.872-32.604-18.138-49.613-25.604c-20.851-9.152-38.106-22.621-53.88-38.626c-6.852-6.952-12.752-14.069-15.996-23.562
		c-2.401-7.025-3.54-13.904-4.121-21.287c-2.086-26.485,7.412-49.238,20.101-71.621c9.768-17.229,23.371-30.4,38.281-42.785
		c7.152-5.942,13.551-12.782,20.459-19.028c2.188-1.979,4.71-4.096,7.443-4.875c10.865-3.099,19.016-10.778,28.561-16.059
		c6.015-3.328,12.493-6.677,19.14-7.815c13.059-2.237,26.372-3.924,39.594-4.037c18.239-0.156,36.576-1.93,54.764,2.287
		c10.241,2.374,19.631,6.13,28.421,11.682c3.378,2.135,6.523,4.729,10.095,6.449c16.916,8.147,31.879,18.593,45.531,31.798
		c7.224,6.986,18.181,11.565,28.226,13.881c21.309,4.912,43.117,7.675,64.746,11.159c1.791,0.289,4.336,0.013,5.583-1.081
		c11.781-10.331,26.489-11.702,40.969-13.621c8.869-1.176,17.818-1.745,27.582-2.668c-1.942-4.743-6.191-7.45-9.423-10.872
		c-3.659-3.875-7.537-7.31-8.224-13.248c-0.246-2.133-2.809-4.252-4.726-5.9c-24.455-21.036-49.177-41.768-73.389-63.078
		c-8.185-7.203-15.403-15.579-22.557-23.857c-6.997-8.098-10.009-17.84-9.723-28.615c0.177-6.66,0.163-13.333-0.005-19.994
		c-0.171-6.764,0.269-12.916,5.372-18.489c2.261-2.467,2.315-7.346,2.566-11.183c0.5-7.632,0.203-15.316,0.728-22.944
		C408.473,2753.524,409.938,2750.371,411.058,2746.405z M1399.369,914.494c18.995-4.767,37.99-9.533,57.379-14.399
		c-9.078-11.168-14.094-24.157-16.132-39.032c-10.314,7.326-15.535,20.443-30.565,18.533
		C1411.128,893.383,1411.308,906.127,1399.369,914.494z"/>
	<path fill-rule="evenodd" clip-rule="evenodd" fill="#FFFFFF" d="M1399.369,914.494c11.939-8.367,11.759-21.111,10.682-34.898
		c15.03,1.91,20.25-11.207,30.565-18.533c2.038,14.875,7.054,27.864,16.132,39.032
		C1437.358,904.961,1418.363,909.727,1399.369,914.494z"/>
</g>
</svg>
