<?xml version="1.0" encoding="utf-8"?>
<!-- Generator: Adobe Illustrator 16.0.2, SVG Export Plug-In . SVG Version: 6.00 Build 0)  -->
<!DOCTYPE svg PUBLIC "-//W3C//DTD SVG 1.1//EN" "http://www.w3.org/Graphics/SVG/1.1/DTD/svg11.dtd">
<svg version="1.1" id="Layer_1" xmlns="http://www.w3.org/2000/svg" xmlns:xlink="http://www.w3.org/1999/xlink" x="0px" y="0px"
	 width="3701.538px" height="3953.505px" viewBox="0 0 3701.538 3953.505" enable-background="new 0 0 3701.538 3953.505"
	 xml:space="preserve">
<g>
	<path fill-rule="evenodd" clip-rule="evenodd" fill="#FFFFFF" d="M3704.777,3956.986c-1234.513,0-2469.024,0-3703.536,0
		c0-1318.502,0-2637.003,0-3955.505c1234.512,0,2469.023,0,3703.536,0C3704.777,1319.983,3704.777,2638.484,3704.777,3956.986z
		 M1171.955,2025.48c-2.782,3.853-4.325,6.267-6.145,8.452c-4.682,5.621-9.696,10.978-14.209,16.729
		c-23.012,29.329-47.698,57.185-72.853,84.688c-13.434,14.689-25.609,30.58-37.726,46.409
		c-10.503,13.721-19.134,28.964-30.326,42.052c-29.689,34.717-56.77,71.239-81.753,109.472
		c-14.176,21.693-28.792,43.37-45.583,63.028c-37.997,44.481-77.425,87.743-116.466,131.328c-1.912,2.135-5.605,3.42-8.601,3.699
		c-9.246,0.859-18.552,1.113-27.84,1.469c-18.934,0.724-37.903,0.887-56.799,2.156c-22.426,1.507-44.107,5.736-62.842,19.765
		c-4.296,3.218-10.245,4.474-15.624,5.929c-5.106,1.38-10.478,1.75-15.704,2.721c-13.871,2.578-27.67,6.248-38.146,15.962
		c-7.329,6.795-15.604,9.588-24.707,11.644c-5.833,1.317-11.628,2.807-17.435,4.246c-13.224,3.277-26.33,6.414-40.222,6.611
		c-9.445,0.134-18.926,3.189-28.224,5.59c-3.743,0.967-7.656,3.031-10.42,5.705c-9.082,8.783-18.421,17.479-26.255,27.325
		c-9.043,11.365-14.838,24.388-12.642,39.761c0.653,4.573-0.091,9.327,0.137,13.982c0.76,15.545,3.22,30.451,15.568,41.761
		c3.916,3.586,7.361,7.688,10.989,11.584c5.851,6.284,12.986,10.28,21.345,12.169c6.055,1.368,12.093,2.808,18.849,4.38
		c-1.019,1.594-1.525,2.792-2.374,3.657c-20.44,20.837-37.15,44.355-50.207,70.423c-5.645,11.27-12.241,22.497-12.697,35.422
		c-0.636,17.974-0.341,35.99-0.102,53.984c0.146,10.999,3.03,20.957,12.3,28.241c3.903,3.066,7.009,7.124,10.689,10.502
		c10.075,9.245,21.063,15.983,35.703,14.584c7.444-0.71,15.021-0.014,22.784,0.049c0.424,7.977,0.322,14.649,1.274,21.17
		c0.702,4.813,1.511,10.555,4.492,13.91c7.474,8.414,15.763,16.266,24.56,23.298c9.092,7.267,20.34,10.171,31.85,9.938
		c15.691-0.318,32.258,3.688,46.217-7.623c0.666-0.54,1.887-0.395,3.343-0.656c1.237,3.046,2.377,6.108,3.708,9.087
		c7.83,17.516,17.951,33.498,32.906,45.777c4.78,3.926,10.593,8.213,16.367,8.953c10.458,1.34,21.641,1.901,31.798-0.403
		c16.071-3.648,31.564-9.143,46.035-18.234c30.553-19.194,51.584-45.604,65.136-78.499c5.43-13.181,9.141-27.116,17.827-38.818
		c1.357-1.827,2.025-4.178,2.951-6.313c4.479-10.334,8.938-20.679,13.723-31.763c9.18,0,18.478-0.272,27.754,0.067
		c12.224,0.448,23.754-2.16,34.997-6.651c4.012-1.604,8.126-2.954,12.191-4.426c30.115-10.906,51.572-32.223,68.947-58.121
		c5.351-7.975,9.609-16.751,13.734-25.46c3.961-8.368,8.1-16.872,10.336-25.775c2.489-9.91,3.581-20.305,4.09-30.547
		c0.793-15.956,0.714-31.963,0.716-47.948c0-4.688,1.452-7.811,5.051-11.096c21.625-19.729,42.991-39.749,64.253-59.872
		c6.761-6.398,12.708-13.654,19.438-20.088c13.948-13.331,28.56-25.987,42.196-39.624c21.423-21.422,42.364-43.331,63.323-65.212
		c15.651-16.34,31.095-32.882,46.475-49.479c13.563-14.635,26.735-29.635,40.396-44.176c16.183-17.225,32.755-34.083,49.045-51.207
		c4.282-4.501,8.144-9.399,11.894-13.762c13.936,15.629,27.379,30.706,41.112,46.108c-1.757,6.176-2.893,12.841-5.501,18.868
		c-10.427,24.089-16.999,48.92-16.313,75.371c0.034,1.332,0.087,2.677-0.044,3.998c-2.444,24.587-1.932,49.077,1.696,73.549
		c0.84,5.678,0.124,11.585,0.124,17.643c-7.5-2.05-14.391-4.651-21.513-5.749c-26.893-4.147-53.785-8.527-80.832-11.357
		c-14.826-1.552-30.008-0.924-44.939,0.074c-17.938,1.198-35.294,5.818-52.484,11.25c-17.116,5.407-32.62,12.604-44.967,26.367
		c-5.776,6.441-8.977,12.923-8.989,21.281c-0.015,10.331,0.317,20.677-0.114,30.99c-0.363,8.698,2.818,15.514,8.926,21.322
		c6.469,6.153,12.896,12.352,19.807,18.977c-5.121,5.217-10.572,10.095-15.17,15.676c-3.294,3.998-6.907,6.836-11.654,8.882
		c-12.053,5.199-22.743,12.667-31.646,22.257c-15.605,16.813-30.542,34.248-46.179,51.031
		c-38.545,41.372-68.949,87.954-89.455,140.666c-10.364,26.643-19.153,53.897-28.702,80.859
		c-11.433,32.283-22.74,64.614-34.438,96.804c-7.838,21.567-16.254,42.925-24.425,64.371c-0.734,1.927-1.561,3.818-3.196,7.801
		c-3.316-7.412-6.224-12.651-8.052-18.242c-4.669-14.274-12.737-25.926-23.63-36.332c-7.807-7.46-16.031-11.248-26.639-11.163
		c-22.971,0.184-45.945,0.24-68.913-0.045c-8.03-0.1-14.083,3.408-19.567,8.465c-4.652,4.29-8.951,8.958-13.504,13.357
		c-1.81,1.749-3.882,3.226-5.689,4.706c-4-3.156-7.238-6.057-10.822-8.438c-3.578-2.377-7.353-4.59-11.301-6.255
		c-17.567-7.405-36.496-8.784-55.035-11.504c-9.136-1.341-18.637-0.006-27.959-0.312c-6.453-0.212-11.54,1.719-15.954,6.533
		c-9.189,10.022-18.688,19.762-28.904,30.506c-3.271-1.469-8.008-2.596-11.478-5.331c-13.64-10.753-29.149-6.573-44.164-6.129
		c-2.013,0.06-4.047,2.086-5.918,3.416c-2.163,1.538-3.915,3.854-6.261,4.901c-14.511,6.469-23.841,18.803-34.6,29.632
		c-12.139,12.219-15.907,27.385-16.534,43.647c-0.95,24.653,0.083,49.248,5.74,73.379c7.266,30.988,17.796,60.624,37.525,86.23
		c8.524,11.065,16.38,22.711,25.599,33.158c11.866,13.447,23.898,27.006,37.483,38.617c19.203,16.414,38.745,32.257,56.069,50.824
		c13.453,14.418,18.066,31.596,18.555,50.018c0.581,21.921-0.672,43.89-1.04,65.84c-0.045,2.633,0.323,5.299,0.744,7.91
		c2.053,12.755,3.976,25.537,6.342,38.236c4.415,23.696,12.889,45.562,31.896,61.526c8.854,7.438,18.338,14.591,28.595,19.783
		c15.691,7.943,32.204,14.314,48.577,20.827c4.491,1.785,9.703,2.101,14.626,2.396c21.734,1.303,43.092-1.033,64.294-6.141
		c12.269-2.956,24.86-4.417,36.101-10.859c2.486-1.424,5.732-1.52,8.625-2.235c8.35-2.065,16.9-3.539,25.009-6.311
		c28.377-9.696,51.552-27.599,72.404-48.436c21.892-21.877,43.047-44.5,64.228-67.074c12.055-12.85,24.623-25.442,35.019-39.579
		c22.463-30.54,43.69-61.99,65.389-93.092c6.084-8.72,11.776-17.728,18.168-26.211c4.675-6.206,10.204-11.768,16.165-18.54
		c0.503,2.577,0.848,3.456,0.817,4.32c-0.516,14.935-1.149,29.864-1.596,44.801c-0.195,6.577,2.002,12.19,6.742,17.063
		c9.742,10.013,19.181,20.322,28.694,30.558c8.419,9.057,19.273,13.458,31.129,13.6c17.926,0.214,35.875-0.878,53.801-1.712
		c18.219-0.847,33.087-8.795,45.543-21.93c6.071-6.402,11.563-13.593,20.805-16.259c2.625-0.758,4.755-3.535,6.899-5.606
		c4.793-4.631,9.276-9.595,14.212-14.062c5.84-5.286,9.971-11.573,12.524-18.946c2.117-6.114,4.121-12.269,6.587-19.64
		c5.859,8.248,13.232,8.966,21.177,8.462c5.311-0.337,10.671,0.132,15.989-0.145c2.912-0.151,6.334-0.292,8.58-1.823
		c12.562-8.571,23.94-17.947,23.184-35.526c-0.516-11.976,0.144-23.999-0.145-35.989c-0.715-29.758-9.769-56.14-31.909-77.088
		c-4.355-4.122-8.384-8.592-12.764-12.685c-13.877-12.964-29.864-20.801-49.36-20.156c-6.991,0.231-14.009-0.227-20.993,0.102
		c-10.322,0.485-20.551,1.612-29.44,7.752c-8.197,5.663-16.72,10.896-24.595,16.972c-6.813,5.256-13.215,11.144-19.172,17.354
		c-1.996,2.081-2.65,5.97-2.884,9.109c-0.439,5.888-0.127,11.832-0.127,18.992c-14.333-2.503-25.384,3.772-36.678,9.311
		c-3.596,1.762-7.354,3.193-11.037,4.776c-0.501-0.646-1.001-1.293-1.501-1.939c44.262-79.208,90.989-156.741,153.477-223.165
		c5.846,5.717,11.751,11.57,17.746,17.332c7.449,7.159,15.855,11.784,26.732,10.879c5.958-0.496,11.994-0.212,17.99-0.061
		c8.472,0.212,15.74-3.158,21.84-8.394c5.773-4.954,10.854-10.791,15.81-16.604c17.095-20.061,23.361-44.504,27.24-69.709
		c1.706-11.083,2.206-22.354,3.31-34.147c2.651,0,5.244-0.283,7.755,0.048c13.152,1.736,26.313,3.438,39.415,5.511
		c19.671,3.11,39.663,5.114,58.85,10.138c27.001,7.07,54.274,9.505,81.911,9.764c37.263,0.35,74.486-0.226,111.587-4.496
		c28.06-3.229,56.042-6.786,83.551-13.365c51.585-12.336,101.811-28.58,149.495-52.121c2.363-1.167,4.95-1.934,7.493-2.674
		c18.685-5.436,36.315-12.898,51.595-25.357c5.373-4.38,11.41-7.945,17.767-12.31c26.234,17.257,57.51,20.487,85.96,32.792
		c-1.748,2.971-2.928,5.339-4.435,7.477c-6.136,8.705-12.618,17.175-18.527,26.028c-24.804,37.155-46.995,75.808-64.949,116.753
		c-7.336,16.731-14.221,33.74-15.551,52.34c-0.899,12.574-2.316,25.121-2.858,37.709c-1.646,38.201,2.479,75.584,14.989,112.016
		c6.365,18.539,19.781,30.51,34.824,40.959c12.256,8.514,25.601,15.478,38.554,22.969c6.03,3.489,12.014,7.304,18.479,9.752
		c21.132,7.998,42.396,15.665,63.761,23.018c17.319,5.96,35.178,9.669,53.388,12.014c11.477,1.477,22.917,3.793,34.117,6.714
		c13.407,3.495,23.631,11.147,29.761,24.331c7.288,15.672,15.643,30.848,23.501,46.256c10.31,20.212,21.701,39.812,37.03,56.629
		c12.333,13.531,25.324,26.526,38.727,39.005c12.947,12.056,29.062,19.343,46.104,22.592c11.891,2.269,24.546,0.637,36.857,0.549
		c7.965-0.057,15.014-3.128,20.973-8.177c7.606-6.442,14.844-13.324,22.199-20.062c11.279-10.329,15.647-23.554,15.879-38.439
		c0.107-6.892,0.019-13.786,0.019-21.581c5.432,0,9.695,0.122,13.952-0.023c11.949-0.406,24.021-0.01,35.812-1.623
		c15.154-2.073,30.544-5.145,42.236-16.125c10.642-9.995,21.313-20.23,30.185-31.736c5.244-6.801,9.444-16.152,9.874-24.573
		c1.042-20.408,3.627-41.364-6.939-61.515c5.711-5.499,11.132-10.864,16.715-16.057c7.037-6.545,9.657-14.889,10.115-24.125
		c0.182-3.656-0.104-7.337,0.055-10.996c0.864-19.837-4.097-37.32-18.923-51.586c-10.091-9.71-19.26-20.736-32.442-26.148
		c-17.191-7.06-34.769-13.252-52.416-19.104c-12.613-4.184-25.611-7.124-36.858-14.747c-6.609-4.48-13.531-8.497-20.288-12.765
		c-26.759-16.9-53.488-33.989-75.05-57.509c-17.951-19.581-34.96-40.027-52.259-60.199c-4.229-4.932-7.955-10.294-12.205-15.838
		c21.604-18.907,41.916-37.6,63.198-55.11c37.339-30.723,72.288-63.897,105.403-99.08c35.776-38.01,62.928-81.756,83.555-129.343
		c10.538-24.312,17.766-50.068,26.266-75.246c5.415-16.041,11.193-32.022,15.366-48.398c3.339-13.11,5.598-26.711,6.379-40.207
		c1.193-20.595,0.383-41.296,0.996-61.935c0.898-30.255-4.771-59.466-12.175-88.594c-8.922-35.098-29.078-62.632-56.758-84.69
		c-21.11-16.822-46.193-25.955-72.337-32.163c-9.029-2.143-17.926-4.843-26.915-7.168c-8.66-2.24-17.284-4.754-26.072-6.313
		c-5.097-0.904-10.484-0.164-15.949-0.164c-0.449-12.432-7.344-20.246-14.563-27.664c-14.45-14.852-26.674-32.807-49.941-35.86
		c0-7.779,0.401-14.778-0.094-21.715c-0.754-10.573-1.691-21.17-3.336-31.634c-2.88-18.327-15.662-29.589-30.034-39.127
		c-3.305-2.194-8.241-2.469-12.464-2.63c-9.651-0.368-19.335,0.13-28.989-0.183c-11.74-0.381-21.196,4.342-29.178,12.382
		c-9.614,9.686-18.907,19.688-28.473,29.425c-11.497,11.702-21.632,24.376-29.125,39.063c-1.842,3.61-4.133,6.991-5.782,9.75
		c-6.869-13.104-13.418-25.598-20.82-39.72c3.357-2.884,7.688-6.067,11.38-9.874c11.838-12.209,20.197-26.631,23.235-43.344
		c1.944-10.704,2.275-21.822,2.139-32.738c-0.084-6.72,2.276-9.909,8.014-13.032c15.762-8.581,31.686-17.113,46.407-27.309
		c42.416-29.374,84.409-59.299,127.979-87.033c32.538-20.711,63.343-44.139,94.981-66.268
		c45.806-32.039,92.443-62.934,134.033-100.623c33.754-30.59,67.957-60.686,101.804-91.175c12.607-11.356,24.41-23.619,37.212-34.74
		c23.199-20.152,43.941-42.66,63.229-66.399c12.808-15.764,24.803-32.082,41.295-44.291c3.11-2.303,6.635-5.091,10.225-5.524
		c17.795-2.146,35.458-4.587,51.27-11.95c6.693,5.099,12.48,9.567,18.333,13.949c5.222,3.907,10.975,5.917,17.668,5.657
		c8.319-0.323,16.66-0.055,24.993-0.082c22.519-0.073,41.973-6.695,58.127-23.555c12.024-12.547,18.84-26.176,17.914-43.603
		c-0.704-13.252-1.127-26.52-1.684-40.024c1.364-0.906,2.66-1.934,4.096-2.695c39.675-21.064,76.131-46.364,106.57-79.816
		c13.312-14.628,23.466-30.996,26.094-50.648c1.707-12.768,0.684-25.917,0.6-38.893c-0.015-2.188-1.098-4.606-2.317-6.516
		c-10.59-16.587-22.827-31.62-40.819-41.793c5.73-8.161,11.431-16.289,17.14-24.411c19.896-28.306,34.281-58.336,32.525-94.313
		c-0.528-10.818-3.104-20.353-9.213-28.886c-4.626-6.462-10.101-12.318-15.215-18.428c-10.403-12.428-23.762-17.085-39.82-16.486
		c-19.474,0.727-39.047-1.025-57.991,3.545c0-13.109,0.397-25.329-0.123-37.51c-0.438-10.224-0.16-21.226-7.346-29.413
		c-6.757-7.697-14.583-14.615-22.672-20.938c-8.309-6.497-18.201-9.216-28.969-8.947c-12.907,0.322-25.829,0.076-37.693,0.076
		c-7.63-19.393-15.288-38.443-22.549-57.643c-1.601-4.234-2.555-9.014-2.476-13.519c0.174-9.908-2.849-18.069-10.014-25.011
		c-2.783-2.697-4.938-6.26-6.681-9.775c-4.718-9.52-9.672-18.997-13.416-28.912c-6.223-16.474-17.582-28.826-30.143-40.415
		c-5.344-4.93-11.402-7.736-18.944-7.442c-8.652,0.337-17.333-0.136-25.99,0.132c-11.938,0.369-22.694,3.135-31.097,12.966
		c-5.218,6.102-10.448,11.887-13.883,19.281c-1.77,3.813-4.571,7.35-7.566,10.354c-6.994,7.015-10.562,15.348-10.323,25.103
		c0.606,24.921,1.267,49.847,2.376,74.75c0.323,7.233,1.602,14.584,3.651,21.524c1.382,4.678,0.59,8.152-1.427,12.154
		c-5.234,10.389-10.43,20.814-15.154,31.441c-6.634,14.923-6.468,15.546-23.131,14.857c-17.284-0.713-31.657,3.25-42.883,17.728
		c-7.159,9.233-15.123,17.508-16.88,29.71c-0.785,5.442-2.302,10.779-3.705,17.162c-2.51-1.989-4.474-3.128-5.9-4.743
		c-13.286-15.028-24.726-31.244-33.077-49.634c-5.907-13.008-12.551-25.689-19.105-38.393
		c-10.088-19.551-25.471-34.782-40.926-50.008c-23.296-22.952-27.425-24.743-59.998-23.667c-9.281,0.306-17.645,2.343-23.736,10.259
		c-2.619,3.405-5.95,6.295-9.134,9.229c-9.604,8.851-14.298,20.16-14.741,32.805c-0.559,15.921-1.538,31.96,2.598,47.705
		c0.717,2.728,1.108,6.212,0.029,8.622c-4.039,9.022-4.111,19.649-11.12,27.475c-0.776,0.867-0.868,2.455-1.039,3.741
		c-0.963,7.237-1.95,14.474-2.744,21.73c-0.901,8.244-1.612,16.51-2.398,24.768c-0.975,10.229-2.087,20.449-2.85,30.693
		c-0.366,4.91-0.063,9.869-0.063,16.674c-27.013-14.979-56.086-17.063-84.954-23.144c1.438-2.989,2.285-5.061,3.384-6.991
		c12.999-22.829,26.112-45.593,38.974-68.499c1.89-3.364,3.742-7.381,3.702-11.076c-0.118-10.859,2.22-21.993-2.746-32.52
		c-0.786-1.666-0.432-3.95-0.339-5.937c0.746-15.977-3.34-31.016-9.031-45.683c-11.932-30.754-29.862-57.938-50.918-83.049
		c-15.161-18.082-30.811-35.791-46.908-53.044c-16.106-17.261-31.883-35.12-49.846-50.302
		c-42.256-35.712-86.736-68.436-137.747-91.11c-35.256-15.671-70.158-32.173-105.727-47.092
		c-40.548-17.007-82.524-29.903-125.7-38.485c-24.743-4.918-49.63-9.117-74.46-13.592c-3.583-0.646-7.213-1.426-10.826-1.457
		c-20.991-0.183-41.983-0.265-62.973-0.115c-3.928,0.028-7.896,1.061-11.763,1.973c-13.91,3.281-27.701,7.127-41.7,9.952
		c-11.293,2.277-16.633,11.546-24.021,18.472c-0.617,0.578-0.932,1.875-0.823,2.771c1.296,10.735-5.007,19.053-9.584,27.515
		c-27.547,50.916-55.604,101.557-83.534,152.265c-1.182,2.147-2.804,4.052-4.382,6.299c-3.922-3.444-7.102-6.344-10.394-9.108
		c-22.852-19.184-48.567-33.651-75.332-46.604c-41.988-20.322-85.972-31.16-132.749-31.287
		c-18.967-0.052-36.031,5.162-52.304,14.067c-20.118,11.009-36.861,26.248-51.975,43.204c-3.773,4.233-6.374,10.316-7.461,15.945
		c-1.559,8.074-1.501,16.507-1.646,24.795c-0.232,13.15-0.063,26.308-0.063,38.595c-25.324,3.491-50.473,5.888-75.179,10.61
		c-38.345,7.327-75.292,19.535-110.522,36.581c-32.189,15.574-63.247,32.686-87.924,59.551c-7.244,7.886-11.245,16.021-11.073,26.66
		c0.264,16.326-0.457,32.681,0.213,48.985c0.723,17.563,4.905,34.478,16.749,48.084c8.056,9.255,17.008,17.854,26.318,25.864
		c17.122,14.731,37.695,23.6,58.186,32.475c4.665,2.02,9.274,4.167,14.644,6.587c-8.003,6.013-15.151,10.9-21.757,16.434
		c-24.213,20.282-48.556,40.425-72.247,61.306c-19.709,17.372-38.611,35.663-57.792,53.628c-9.485,8.885-15.196,19.65-18.107,32.538
		c-3.273,14.49-2.982,29.01-3.662,43.612c-0.558,11.984,3.584,22.107,9.086,32.097c1.058,1.921,2.226,3.782,3.126,5.305
		c-12.277,10.202-24.557,19.373-35.618,29.832c-17.651,16.69-34.25,34.486-51.73,51.363c-29.562,28.543-46.251,64.08-54.913,103.354
		c-3.242,14.694-1.456,30.454-2.49,45.692c-1.006,14.825,3.281,28.208,9.509,41.302c5.568,11.705,11.231,23.392,16.155,35.373
		c10.281,25.015,25.04,46.794,44.703,65.395c16.225,15.348,34.358,26.095,57.451,26.137c21.941,0.04,43.888,0.266,65.612-3.689
		c1.832-0.333,3.811,0.14,6.623,0.283c-2.195,32.35,11.19,58.411,31.657,81.552
		C1113.165,2008.491,1137.621,2025.12,1171.955,2025.48z M629.533,1559.417c7.418,5.751,16.162,6.831,25.354,6.235
		c3.648-0.236,7.352-0.326,10.983,0.017c10.015,0.944,18.847-1.376,27.167-7.334c17.465-12.504,32.16-26.447,32.631-50.029
		c0.185-9.256,1.187-18.497,1.807-27.61c4.609-3.395,9.002-6.942,13.725-9.977c2.357-1.514,5.543-3.322,7.968-2.878
		c12.163,2.223,20.271-3.58,27.296-12.336c1.657-2.066,3.858-3.689,5.597-5.698c6.807-7.862,12.405-16.406,14.721-26.757
		c4.395-19.643,4.615-39.592,3.821-59.529c-0.5-12.582-4.812-24.081-13.404-33.597c-10.688-11.836-20.633-24.537-32.486-35.08
		c-14.117-12.558-30.803-20.604-50.71-19.95c-14.972,0.492-29.993-0.374-44.954,0.258c-10.55,0.445-21.304,1.327-31.501,3.877
		c-22.734,5.688-37.288,22.242-49.708,40.782c-7.034,10.499-12.333,21.869-11.15,35.885c-2.841-0.794-4.366-1.245-5.905-1.646
		c-8.994-2.344-17.873-5.79-27.013-6.759c-15.16-1.608-30.485-1.757-45.749-2.267c-13.378-0.446-25.042,4.277-33.923,14.117
		c-10.442,11.572-20.398,23.627-29.924,35.967c-8.396,10.875-11.843,23.568-11.387,37.422c0.361,10.979-0.002,21.98,0.116,32.97
		c0.039,3.645,0.055,7.422,0.973,10.903c5.636,21.375,12.982,42.226,27.788,59.045c11.161,12.678,23.515,24.414,36.206,35.582
		c5.279,4.645,12.551,7.492,19.372,9.832c22.823,7.827,46.614,6.607,70.178,5.833c11.945-0.393,23.736-3.243,34.204-9.625
		C610.681,1571.549,619.564,1565.739,629.533,1559.417z M2389.21,476.283c-2.766-2.396-4.792-3.964-6.601-5.751
		c-7.112-7.024-14.044-14.235-21.254-21.157c-9.274-8.905-20.491-13.367-33.338-13.593c-6.33-0.112-12.692-0.413-18.989,0.047
		c-28.05,2.051-53.816,8.091-74.249,30.604c-17.83,19.648-27.96,42.155-31.736,67.425c-2.486,16.641-1.32,33.832-1.729,50.778
		c-0.359,14.915,4.117,28.287,13.929,39.499c8.756,10.008,17.578,20.06,27.276,29.121c17.827,16.656,38.878,26.404,63.763,26.468
		c7.998,0.021,16.034-0.509,23.984,0.107c17.641,1.367,27.872-9.481,35.98-22.398c3.109-4.955,6.435-7.913,11.867-10.492
		c8.433,11.024,20.166,13.105,33.052,12.183c4.973-0.355,9.993-0.071,14.991-0.056c16.004,0.051,31.385-3.167,44.113-12.976
		c6.968-5.369,13.811-6.838,21.95-6.418c8.272,0.426,15.557-1.55,21.581-8.11c4.455-4.853,10.281-8.418,15.188-12.895
		c4.118-3.758,8.39-5.821,14.227-5.859c3.606-0.024,7.921-1.724,10.678-4.105c20.266-17.504,34.066-39.715,45.038-63.825
		c1.636-3.593,2.941-7.509,3.474-11.402c2.753-20.159,4.248-40.543,0.493-60.57c-2.858-15.249-7.384-30.457-18.449-42.396
		c-4.98-5.373-10.112-10.647-15.562-15.534c-11.146-9.995-23.758-17.423-39.152-17.765c-18.984-0.422-37.986-0.077-56.979-0.107
		c-14.26-0.022-26.959,4.3-37.149,14.377c-8.031,7.941-15.592,16.378-23.089,24.837
		C2402.336,447.806,2394.589,460.853,2389.21,476.283z M2974.145,1996.153c-18.088-10.302-37.369-6.662-56.183-7.134
		c-0.976-0.024-2.208,0.01-2.901,0.553c-5.848,4.581-12.683,3.214-19.247,3.304c-7.995,0.109-16.029-0.434-23.976,0.201
		c-4.783,0.382-9.845,1.691-14.057,3.94c-12.276,6.552-20.417,17.829-30.02,27.469c-11.392,11.439-15.177,25.381-15.196,40.877
		c-0.014,10.329-0.614,20.706,0.182,30.973c0.66,8.505,1.824,17.313,4.779,25.234c8.857,23.747,23.072,44.006,42.036,61.028
		c7.998,7.18,16.687,12.203,27.406,12.834c15.914,0.939,31.884,1.033,47.775,2.219c14.207,1.061,25.184-4.507,34.612-14.396
		c7.064-7.41,14.181-14.771,21.937-22.844c14.182,9.39,30.385,6.987,46.244,7.125c1,0.009,2.053,0.196,2.989-0.049
		c2.507-0.659,5.629-0.813,7.305-2.421c3.877-3.721,8.366-3.882,13.005-3.479c17.334,1.504,33.725-1.772,49.372-9.217
		c5.069-2.412,10.838-3.879,15.162-7.229c9.745-7.551,19.7-15.79,24.437-27.254c4.943-11.964,13.926-19.851,22.377-28.592
		c3.001-3.104,6.301-6.156,8.393-9.841c2.738-4.818,5.58-10.076,6.335-15.434c2.656-18.816,2.669-37.789-0.072-56.616
		c-2.116-14.552-5.074-29.288-14.813-40.775c-9.646-11.379-20.038-22.414-31.536-31.855c-11.81-9.698-25.519-17.06-41.521-17.649
		c-9.979-0.368-19.99-0.288-29.976-0.03c-11.247,0.289-21.548,3.793-30.718,10.383
		C3012.713,1945.845,2989.48,1966.411,2974.145,1996.153z"/>
	<path fill-rule="evenodd" clip-rule="evenodd" d="M1171.955,2025.48c-34.334-0.36-58.791-16.989-79.525-40.434
		c-20.467-23.141-33.853-49.202-31.657-81.552c-2.812-0.144-4.792-0.616-6.623-0.283c-21.724,3.955-43.671,3.729-65.612,3.689
		c-23.093-0.042-41.226-10.79-57.451-26.137c-19.663-18.601-34.421-40.38-44.703-65.395c-4.924-11.981-10.586-23.668-16.155-35.373
		c-6.228-13.093-10.515-26.477-9.509-41.302c1.034-15.238-0.752-30.998,2.49-45.692c8.662-39.273,25.352-74.81,54.913-103.354
		c17.479-16.877,34.079-34.673,51.73-51.363c11.061-10.459,23.341-19.63,35.618-29.832c-0.9-1.523-2.068-3.384-3.126-5.305
		c-5.501-9.99-9.644-20.113-9.086-32.097c0.68-14.602,0.389-29.122,3.662-43.612c2.911-12.888,8.622-23.653,18.107-32.538
		c19.181-17.965,38.083-36.256,57.792-53.628c23.69-20.88,48.034-41.023,72.247-61.306c6.606-5.534,13.754-10.421,21.757-16.434
		c-5.37-2.42-9.979-4.567-14.644-6.587c-20.491-8.875-41.064-17.743-58.186-32.475c-9.31-8.01-18.262-16.609-26.318-25.864
		c-11.844-13.606-16.026-30.521-16.749-48.084c-0.669-16.304,0.051-32.659-0.213-48.985c-0.172-10.639,3.83-18.774,11.073-26.66
		c24.677-26.865,55.735-43.977,87.924-59.551c35.23-17.046,72.178-29.253,110.522-36.581c24.706-4.722,49.855-7.119,75.179-10.61
		c0-12.287-0.17-25.444,0.063-38.595c0.146-8.288,0.088-16.721,1.646-24.795c1.087-5.629,3.688-11.712,7.461-15.945
		c15.114-16.956,31.857-32.194,51.975-43.204c16.272-8.905,33.336-14.119,52.304-14.067c46.777,0.127,90.761,10.965,132.749,31.287
		c26.764,12.953,52.48,27.42,75.332,46.604c3.292,2.764,6.472,5.664,10.394,9.108c1.578-2.247,3.2-4.151,4.382-6.299
		c27.93-50.708,55.986-101.35,83.534-152.265c4.578-8.462,10.88-16.78,9.584-27.515c-0.108-0.896,0.206-2.193,0.823-2.771
		c7.389-6.926,12.728-16.195,24.021-18.472c13.999-2.825,27.79-6.671,41.7-9.952c3.868-0.912,7.835-1.944,11.763-1.973
		c20.99-0.149,41.982-0.067,62.973,0.115c3.613,0.031,7.243,0.812,10.826,1.457c24.83,4.475,49.717,8.674,74.46,13.592
		c43.176,8.583,85.152,21.479,125.7,38.485c35.568,14.919,70.471,31.421,105.727,47.092c51.011,22.674,95.491,55.398,137.747,91.11
		c17.963,15.182,33.739,33.041,49.846,50.302c16.098,17.254,31.747,34.963,46.908,53.044c21.056,25.112,38.986,52.295,50.918,83.049
		c5.691,14.667,9.777,29.706,9.031,45.683c-0.093,1.986-0.447,4.271,0.339,5.937c4.966,10.526,2.628,21.661,2.746,32.52
		c0.04,3.695-1.813,7.712-3.702,11.076c-12.861,22.905-25.975,45.669-38.974,68.499c-1.099,1.93-1.946,4.002-3.384,6.991
		c28.868,6.081,57.941,8.165,84.954,23.144c0-6.805-0.303-11.764,0.063-16.674c0.763-10.245,1.875-20.464,2.85-30.693
		c0.786-8.258,1.497-16.523,2.398-24.768c0.794-7.257,1.781-14.493,2.744-21.73c0.171-1.286,0.263-2.874,1.039-3.741
		c7.009-7.826,7.081-18.453,11.12-27.475c1.079-2.41,0.688-5.895-0.029-8.622c-4.136-15.745-3.156-31.784-2.598-47.705
		c0.443-12.646,5.137-23.954,14.741-32.805c3.184-2.933,6.515-5.824,9.134-9.229c6.092-7.916,14.455-9.954,23.736-10.259
		c32.573-1.076,36.702,0.715,59.998,23.667c15.455,15.227,30.838,30.457,40.926,50.008c6.555,12.704,13.198,25.384,19.105,38.393
		c8.352,18.39,19.791,34.606,33.077,49.634c1.427,1.614,3.391,2.754,5.9,4.743c1.403-6.383,2.92-11.719,3.705-17.162
		c1.757-12.203,9.721-20.477,16.88-29.71c11.226-14.478,25.599-18.441,42.883-17.728c16.663,0.688,16.497,0.065,23.131-14.857
		c4.725-10.627,9.92-21.052,15.154-31.441c2.017-4.002,2.809-7.476,1.427-12.154c-2.05-6.94-3.328-14.291-3.651-21.524
		c-1.109-24.903-1.77-49.829-2.376-74.75c-0.238-9.755,3.329-18.088,10.323-25.103c2.995-3.004,5.797-6.54,7.566-10.354
		c3.435-7.395,8.665-13.18,13.883-19.281c8.402-9.831,19.159-12.597,31.097-12.966c8.657-0.268,17.338,0.205,25.99-0.132
		c7.542-0.294,13.601,2.512,18.944,7.442c12.561,11.588,23.92,23.94,30.143,40.415c3.744,9.915,8.698,19.392,13.416,28.912
		c1.742,3.515,3.897,7.078,6.681,9.775c7.165,6.942,10.188,15.103,10.014,25.011c-0.079,4.505,0.875,9.285,2.476,13.519
		c7.261,19.2,14.919,38.25,22.549,57.643c11.864,0,24.786,0.246,37.693-0.076c10.768-0.269,20.66,2.451,28.969,8.947
		c8.089,6.323,15.915,13.241,22.672,20.938c7.186,8.187,6.908,19.189,7.346,29.413c0.521,12.181,0.123,24.401,0.123,37.51
		c18.944-4.571,38.518-2.819,57.991-3.545c16.059-0.599,29.417,4.058,39.82,16.486c5.114,6.11,10.589,11.966,15.215,18.428
		c6.108,8.533,8.685,18.068,9.213,28.886c1.756,35.977-12.629,66.006-32.525,94.313c-5.709,8.122-11.409,16.25-17.14,24.411
		c17.992,10.174,30.229,25.206,40.819,41.793c1.22,1.91,2.303,4.328,2.317,6.516c0.084,12.976,1.107,26.125-0.6,38.893
		c-2.628,19.652-12.782,36.02-26.094,50.648c-30.439,33.453-66.896,58.752-106.57,79.816c-1.436,0.761-2.731,1.789-4.096,2.695
		c0.557,13.504,0.979,26.772,1.684,40.024c0.926,17.427-5.89,31.056-17.914,43.603c-16.154,16.859-35.608,23.481-58.127,23.555
		c-8.333,0.027-16.674-0.241-24.993,0.082c-6.693,0.26-12.446-1.75-17.668-5.657c-5.853-4.381-11.64-8.85-18.333-13.949
		c-15.812,7.362-33.475,9.804-51.27,11.95c-3.59,0.433-7.114,3.221-10.225,5.524c-16.492,12.209-28.487,28.527-41.295,44.291
		c-19.288,23.739-40.03,46.247-63.229,66.399c-12.802,11.121-24.604,23.384-37.212,34.74c-33.847,30.49-68.05,60.585-101.804,91.175
		c-41.59,37.689-88.228,68.583-134.033,100.623c-31.639,22.129-62.443,45.557-94.981,66.268
		c-43.57,27.734-85.563,57.659-127.979,87.033c-14.722,10.195-30.646,18.728-46.407,27.309c-5.737,3.123-8.098,6.313-8.014,13.032
		c0.137,10.916-0.194,22.034-2.139,32.738c-3.038,16.713-11.397,31.135-23.235,43.344c-3.691,3.807-8.022,6.99-11.38,9.874
		c7.402,14.122,13.951,26.615,20.82,39.72c1.649-2.759,3.94-6.14,5.782-9.75c7.493-14.688,17.628-27.361,29.125-39.063
		c9.565-9.736,18.858-19.739,28.473-29.425c7.981-8.04,17.438-12.763,29.178-12.382c9.654,0.313,19.338-0.186,28.989,0.183
		c4.223,0.161,9.159,0.436,12.464,2.63c14.372,9.538,27.154,20.8,30.034,39.127c1.645,10.464,2.582,21.061,3.336,31.634
		c0.495,6.937,0.094,13.936,0.094,21.715c23.268,3.054,35.491,21.009,49.941,35.86c7.219,7.418,14.113,15.232,14.563,27.664
		c5.465,0,10.853-0.74,15.949,0.164c8.788,1.56,17.412,4.073,26.072,6.313c8.989,2.325,17.886,5.025,26.915,7.168
		c26.144,6.208,51.227,15.341,72.337,32.163c27.68,22.059,47.836,49.593,56.758,84.69c7.404,29.128,13.073,58.339,12.175,88.594
		c-0.613,20.639,0.197,41.34-0.996,61.935c-0.781,13.496-3.04,27.097-6.379,40.207c-4.173,16.376-9.951,32.357-15.366,48.398
		c-8.5,25.178-15.728,50.935-26.266,75.246c-20.627,47.587-47.778,91.333-83.555,129.343
		c-33.115,35.183-68.064,68.357-105.403,99.08c-21.282,17.511-41.595,36.203-63.198,55.11c4.25,5.544,7.976,10.906,12.205,15.838
		c17.299,20.172,34.308,40.618,52.259,60.199c21.562,23.52,48.291,40.608,75.05,57.509c6.757,4.268,13.679,8.284,20.288,12.765
		c11.247,7.623,24.245,10.563,36.858,14.747c17.647,5.852,35.225,12.044,52.416,19.104c13.183,5.412,22.352,16.438,32.442,26.148
		c14.826,14.266,19.787,31.749,18.923,51.586c-0.159,3.659,0.127,7.34-0.055,10.996c-0.458,9.236-3.078,17.58-10.115,24.125
		c-5.583,5.192-11.004,10.558-16.715,16.057c10.566,20.15,7.981,41.106,6.939,61.515c-0.43,8.421-4.63,17.772-9.874,24.573
		c-8.872,11.506-19.543,21.741-30.185,31.736c-11.692,10.98-27.082,14.052-42.236,16.125c-11.791,1.613-23.862,1.217-35.812,1.623
		c-4.257,0.146-8.521,0.023-13.952,0.023c0,7.795,0.089,14.689-0.019,21.581c-0.231,14.886-4.6,28.11-15.879,38.439
		c-7.355,6.737-14.593,13.619-22.199,20.062c-5.959,5.049-13.008,8.12-20.973,8.177c-12.312,0.088-24.967,1.72-36.857-0.549
		c-17.042-3.249-33.156-10.536-46.104-22.592c-13.402-12.479-26.394-25.474-38.727-39.005
		c-15.329-16.817-26.721-36.417-37.03-56.629c-7.858-15.408-16.213-30.584-23.501-46.256c-6.13-13.184-16.354-20.836-29.761-24.331
		c-11.2-2.921-22.641-5.237-34.117-6.714c-18.21-2.345-36.068-6.054-53.388-12.014c-21.365-7.353-42.629-15.02-63.761-23.018
		c-6.466-2.448-12.449-6.263-18.479-9.752c-12.953-7.491-26.298-14.455-38.554-22.969c-15.043-10.449-28.459-22.42-34.824-40.959
		c-12.51-36.432-16.636-73.814-14.989-112.016c0.542-12.588,1.959-25.135,2.858-37.709c1.33-18.6,8.215-35.608,15.551-52.34
		c17.954-40.945,40.146-79.598,64.949-116.753c5.909-8.854,12.392-17.323,18.527-26.028c1.507-2.138,2.687-4.506,4.435-7.477
		c-28.45-12.305-59.726-15.535-85.96-32.792c-6.356,4.364-12.394,7.93-17.767,12.31c-15.279,12.459-32.91,19.922-51.595,25.357
		c-2.543,0.74-5.13,1.507-7.493,2.674c-47.684,23.541-97.909,39.785-149.495,52.121c-27.509,6.579-55.491,10.136-83.551,13.365
		c-37.101,4.271-74.324,4.846-111.587,4.496c-27.636-0.259-54.909-2.693-81.911-9.764c-19.187-5.023-39.179-7.027-58.85-10.138
		c-13.102-2.072-26.263-3.774-39.415-5.511c-2.511-0.331-5.104-0.048-7.755-0.048c-1.104,11.794-1.604,23.064-3.31,34.147
		c-3.878,25.205-10.145,49.648-27.24,69.709c-4.956,5.813-10.037,11.65-15.81,16.604c-6.1,5.235-13.368,8.605-21.84,8.394
		c-5.996-0.151-12.032-0.436-17.99,0.061c-10.877,0.905-19.283-3.72-26.732-10.879c-5.994-5.762-11.9-11.615-17.746-17.332
		c-62.488,66.424-109.215,143.957-153.477,223.165c0.5,0.646,1,1.293,1.501,1.939c3.683-1.583,7.44-3.015,11.037-4.776
		c11.294-5.538,22.345-11.813,36.678-9.311c0-7.16-0.313-13.104,0.127-18.992c0.234-3.14,0.888-7.028,2.884-9.109
		c5.957-6.21,12.36-12.098,19.172-17.354c7.875-6.076,16.397-11.309,24.595-16.972c8.889-6.14,19.119-7.267,29.44-7.752
		c6.983-0.328,14.001,0.13,20.993-0.102c19.496-0.645,35.483,7.192,49.36,20.156c4.38,4.093,8.409,8.563,12.764,12.685
		c22.141,20.948,31.194,47.33,31.909,77.088c0.288,11.99-0.371,24.014,0.145,35.989c0.756,17.579-10.622,26.955-23.184,35.526
		c-2.246,1.531-5.668,1.672-8.58,1.823c-5.318,0.276-10.678-0.192-15.989,0.145c-7.945,0.504-15.318-0.214-21.177-8.462
		c-2.466,7.371-4.47,13.525-6.587,19.64c-2.553,7.373-6.684,13.66-12.524,18.946c-4.936,4.467-9.418,9.431-14.212,14.062
		c-2.145,2.071-4.274,4.849-6.899,5.606c-9.242,2.666-14.734,9.856-20.805,16.259c-12.456,13.135-27.324,21.083-45.543,21.93
		c-17.926,0.834-35.875,1.926-53.801,1.712c-11.856-0.142-22.71-4.543-31.129-13.6c-9.513-10.235-18.953-20.545-28.694-30.558
		c-4.74-4.873-6.937-10.486-6.742-17.063c0.446-14.937,1.08-29.866,1.596-44.801c0.03-0.864-0.314-1.743-0.817-4.32
		c-5.961,6.772-11.49,12.334-16.165,18.54c-6.393,8.483-12.084,17.491-18.168,26.211c-21.699,31.102-42.926,62.552-65.389,93.092
		c-10.396,14.137-22.964,26.729-35.019,39.579c-21.18,22.574-42.335,45.197-64.228,67.074
		c-20.852,20.837-44.026,38.739-72.404,48.436c-8.108,2.771-16.659,4.245-25.009,6.311c-2.893,0.716-6.139,0.812-8.625,2.235
		c-11.241,6.442-23.832,7.903-36.101,10.859c-21.202,5.107-42.56,7.443-64.294,6.141c-4.923-0.295-10.135-0.61-14.626-2.396
		c-16.373-6.513-32.886-12.884-48.577-20.827c-10.256-5.192-19.74-12.346-28.595-19.783c-19.007-15.965-27.482-37.83-31.896-61.526
		c-2.366-12.699-4.289-25.481-6.342-38.236c-0.421-2.611-0.789-5.277-0.744-7.91c0.368-21.95,1.621-43.919,1.04-65.84
		c-0.488-18.422-5.102-35.6-18.555-50.018c-17.325-18.567-36.866-34.41-56.069-50.824c-13.585-11.611-25.618-25.17-37.483-38.617
		c-9.219-10.447-17.075-22.093-25.599-33.158c-19.729-25.606-30.259-55.242-37.525-86.23c-5.657-24.131-6.69-48.726-5.74-73.379
		c0.627-16.263,4.395-31.429,16.534-43.647c10.759-10.829,20.089-23.163,34.6-29.632c2.346-1.047,4.098-3.363,6.261-4.901
		c1.871-1.33,3.906-3.356,5.918-3.416c15.015-0.444,30.524-4.624,44.164,6.129c3.47,2.735,8.207,3.862,11.478,5.331
		c10.216-10.744,19.714-20.483,28.904-30.506c4.415-4.814,9.501-6.745,15.954-6.533c9.322,0.306,18.824-1.029,27.959,0.312
		c18.54,2.72,37.468,4.099,55.035,11.504c3.949,1.665,7.724,3.878,11.301,6.255c3.583,2.382,6.821,5.282,10.822,8.438
		c1.807-1.48,3.879-2.957,5.689-4.706c4.553-4.399,8.852-9.067,13.504-13.357c5.484-5.057,11.537-8.564,19.567-8.465
		c22.968,0.285,45.942,0.229,68.913,0.045c10.608-0.085,18.833,3.703,26.639,11.163c10.893,10.406,18.961,22.058,23.63,36.332
		c1.828,5.591,4.736,10.83,8.052,18.242c1.636-3.982,2.462-5.874,3.196-7.801c8.171-21.446,16.587-42.804,24.425-64.371
		c11.698-32.189,23.005-64.521,34.438-96.804c9.549-26.962,18.338-54.217,28.702-80.859c20.505-52.712,50.91-99.294,89.455-140.666
		c15.637-16.783,30.573-34.218,46.179-51.031c8.902-9.59,19.592-17.058,31.646-22.257c4.747-2.046,8.359-4.884,11.654-8.882
		c4.598-5.581,10.049-10.459,15.17-15.676c-6.911-6.625-13.338-12.823-19.807-18.977c-6.108-5.809-9.29-12.624-8.926-21.322
		c0.432-10.313,0.1-20.659,0.114-30.99c0.012-8.358,3.212-14.84,8.989-21.281c12.347-13.764,27.851-20.96,44.967-26.367
		c17.19-5.432,34.546-10.052,52.484-11.25c14.931-0.998,30.113-1.626,44.939-0.074c27.046,2.83,53.938,7.21,80.832,11.357
		c7.122,1.098,14.013,3.699,21.513,5.749c0-6.058,0.716-11.965-0.124-17.643c-3.628-24.472-4.14-48.962-1.696-73.549
		c0.131-1.321,0.078-2.666,0.044-3.998c-0.687-26.451,5.885-51.282,16.313-75.371c2.608-6.027,3.744-12.692,5.501-18.868
		c-13.732-15.402-27.176-30.479-41.112-46.108c-3.75,4.362-7.612,9.261-11.894,13.762c-16.29,17.124-32.862,33.982-49.045,51.207
		c-13.661,14.541-26.833,29.541-40.396,44.176c-15.38,16.598-30.823,33.14-46.475,49.479c-20.959,21.881-41.9,43.79-63.323,65.212
		c-13.636,13.637-28.248,26.293-42.196,39.624c-6.73,6.434-12.677,13.689-19.438,20.088c-21.262,20.123-42.627,40.143-64.253,59.872
		c-3.599,3.285-5.051,6.407-5.051,11.096c-0.002,15.985,0.077,31.992-0.716,47.948c-0.51,10.242-1.602,20.637-4.09,30.547
		c-2.236,8.903-6.375,17.407-10.336,25.775c-4.125,8.709-8.383,17.485-13.734,25.46c-17.375,25.898-38.832,47.215-68.947,58.121
		c-4.065,1.472-8.179,2.822-12.191,4.426c-11.243,4.491-22.772,7.1-34.997,6.651c-9.276-0.34-18.575-0.067-27.754-0.067
		c-4.786,11.084-9.244,21.429-13.723,31.763c-0.925,2.136-1.593,4.486-2.951,6.313c-8.686,11.702-12.397,25.638-17.827,38.818
		c-13.551,32.895-34.583,59.305-65.136,78.499c-14.471,9.092-29.964,14.586-46.035,18.234c-10.157,2.305-21.34,1.743-31.798,0.403
		c-5.773-0.74-11.587-5.027-16.367-8.953c-14.956-12.279-25.076-28.262-32.906-45.777c-1.332-2.979-2.471-6.041-3.708-9.087
		c-1.456,0.262-2.677,0.116-3.343,0.656c-13.958,11.312-30.525,7.305-46.217,7.623c-11.509,0.233-22.758-2.671-31.85-9.938
		c-8.797-7.032-17.086-14.884-24.56-23.298c-2.981-3.355-3.79-9.097-4.492-13.91c-0.952-6.521-0.85-13.193-1.274-21.17
		c-7.763-0.063-15.34-0.759-22.784-0.049c-14.64,1.399-25.628-5.339-35.703-14.584c-3.68-3.378-6.786-7.436-10.689-10.502
		c-9.27-7.284-12.154-17.242-12.3-28.241c-0.239-17.994-0.534-36.011,0.102-53.984c0.456-12.925,7.053-24.152,12.697-35.422
		c13.057-26.067,29.767-49.586,50.207-70.423c0.848-0.865,1.355-2.063,2.374-3.657c-6.756-1.572-12.794-3.012-18.849-4.38
		c-8.359-1.889-15.494-5.885-21.345-12.169c-3.627-3.896-7.073-7.998-10.989-11.584c-12.348-11.31-14.809-26.216-15.568-41.761
		c-0.228-4.655,0.517-9.409-0.137-13.982c-2.196-15.373,3.599-28.396,12.642-39.761c7.834-9.847,17.173-18.542,26.255-27.325
		c2.764-2.674,6.678-4.738,10.42-5.705c9.298-2.4,18.779-5.456,28.224-5.59c13.892-0.197,26.998-3.334,40.222-6.611
		c5.807-1.439,11.602-2.929,17.435-4.246c9.103-2.056,17.378-4.849,24.707-11.644c10.476-9.714,24.275-13.384,38.146-15.962
		c5.226-0.971,10.598-1.341,15.704-2.721c5.379-1.455,11.328-2.711,15.624-5.929c18.735-14.028,40.416-18.258,62.842-19.765
		c18.896-1.27,37.865-1.433,56.799-2.156c9.288-0.355,18.595-0.609,27.84-1.469c2.995-0.279,6.689-1.564,8.601-3.699
		c39.041-43.585,78.469-86.847,116.466-131.328c16.792-19.658,31.407-41.335,45.583-63.028
		c24.984-38.232,52.064-74.755,81.753-109.472c11.192-13.088,19.823-28.331,30.326-42.052c12.117-15.829,24.292-31.72,37.726-46.409
		c25.154-27.503,49.84-55.358,72.853-84.688c4.513-5.752,9.527-11.108,14.209-16.729
		C1167.63,2031.747,1169.173,2029.333,1171.955,2025.48z M2745.69,1382.685c-40.865,12.656-80.161,13.75-120.022,5.665
		c-0.339,4.156-0.01,8.65-1.196,12.703c-1.836,6.269-3.238,13.605-7.412,18.072c-12.908,13.816-25.56,28.079-41.917,38.271
		c-7.541,4.7-14.515,10.308-21.808,15.548c4.638,5.947,9.499,10.672,12.563,16.365c13.762,25.569,18.847,53.097,16.337,81.921
		c-0.944,10.846-5.143,20.569-13.685,27.958c-1.003,0.868-1.626,2.175-2.426,3.28c0.461,0.476,0.921,0.951,1.381,1.427
		c12.862-8.726,26.059-17.001,38.526-26.259c42.977-31.909,86.442-63.169,127.859-97.164c7.578-6.22,9.334-12.018,8.086-21.211
		c-2.463-18.148-2.531-36.473,0.273-54.687C2743.296,1397.779,2744.383,1390.99,2745.69,1382.685z"/>
	<path fill-rule="evenodd" clip-rule="evenodd" d="M629.533,1559.417c-9.968,6.321-18.852,12.131-27.91,17.654
		c-10.468,6.382-22.259,9.232-34.204,9.625c-23.563,0.774-47.354,1.994-70.178-5.833c-6.82-2.34-14.093-5.187-19.372-9.832
		c-12.691-11.167-25.044-22.903-36.206-35.582c-14.806-16.819-22.152-37.67-27.788-59.045c-0.918-3.481-0.934-7.258-0.973-10.903
		c-0.118-10.99,0.245-21.991-0.116-32.97c-0.456-13.854,2.992-26.548,11.387-37.422c9.526-12.34,19.482-24.396,29.924-35.967
		c8.881-9.84,20.545-14.563,33.923-14.117c15.264,0.51,30.589,0.659,45.749,2.267c9.141,0.97,18.019,4.416,27.013,6.759
		c1.539,0.401,3.064,0.852,5.905,1.646c-1.182-14.016,4.116-25.386,11.15-35.885c12.42-18.54,26.973-35.095,49.708-40.782
		c10.197-2.551,20.951-3.432,31.501-3.877c14.961-0.632,29.982,0.234,44.954-0.258c19.908-0.654,36.593,7.392,50.71,19.95
		c11.853,10.542,21.798,23.243,32.486,35.08c8.593,9.516,12.904,21.015,13.404,33.597c0.794,19.937,0.573,39.886-3.821,59.529
		c-2.316,10.351-7.914,18.895-14.721,26.757c-1.739,2.009-3.94,3.631-5.597,5.698c-7.026,8.756-15.134,14.56-27.296,12.336
		c-2.425-0.443-5.611,1.365-7.968,2.878c-4.723,3.035-9.116,6.582-13.725,9.977c-0.621,9.113-1.623,18.354-1.807,27.61
		c-0.471,23.582-15.166,37.525-32.631,50.029c-8.319,5.958-17.151,8.278-27.167,7.334c-3.631-0.343-7.335-0.253-10.983-0.017
		C645.695,1566.249,636.951,1565.169,629.533,1559.417z"/>
	<path fill-rule="evenodd" clip-rule="evenodd" d="M2389.21,476.283c5.379-15.43,13.126-28.477,23.309-39.964
		c7.497-8.459,15.058-16.896,23.089-24.837c10.19-10.077,22.89-14.399,37.149-14.377c18.993,0.03,37.995-0.314,56.979,0.107
		c15.395,0.342,28.007,7.77,39.152,17.765c5.449,4.887,10.581,10.162,15.562,15.534c11.065,11.938,15.591,27.146,18.449,42.396
		c3.755,20.026,2.26,40.411-0.493,60.57c-0.532,3.893-1.838,7.809-3.474,11.402c-10.972,24.11-24.772,46.321-45.038,63.825
		c-2.757,2.381-7.071,4.081-10.678,4.105c-5.837,0.038-10.108,2.101-14.227,5.859c-4.907,4.477-10.733,8.042-15.188,12.895
		c-6.024,6.561-13.309,8.536-21.581,8.11c-8.14-0.42-14.982,1.049-21.95,6.418c-12.729,9.81-28.109,13.027-44.113,12.976
		c-4.998-0.016-10.019-0.3-14.991,0.056c-12.886,0.922-24.619-1.159-33.052-12.183c-5.433,2.579-8.758,5.537-11.867,10.492
		c-8.108,12.917-18.34,23.765-35.98,22.398c-7.95-0.616-15.986-0.087-23.984-0.107c-24.885-0.063-45.936-9.812-63.763-26.468
		c-9.698-9.061-18.521-19.113-27.276-29.121c-9.812-11.212-14.288-24.584-13.929-39.499c0.408-16.946-0.758-34.137,1.729-50.778
		c3.776-25.27,13.906-47.777,31.736-67.425c20.433-22.513,46.199-28.553,74.249-30.604c6.297-0.46,12.659-0.159,18.989-0.047
		c12.847,0.227,24.063,4.688,33.338,13.593c7.21,6.922,14.142,14.133,21.254,21.157
		C2384.418,472.318,2386.445,473.887,2389.21,476.283z"/>
	<path fill-rule="evenodd" clip-rule="evenodd" d="M2974.145,1996.153c15.335-29.742,38.568-50.308,64.132-68.676
		c9.17-6.589,19.471-10.094,30.718-10.383c9.985-0.258,19.996-0.338,29.976,0.03c16.002,0.59,29.711,7.951,41.521,17.649
		c11.498,9.442,21.891,20.476,31.536,31.855c9.738,11.487,12.696,26.224,14.813,40.775c2.741,18.827,2.729,37.8,0.072,56.616
		c-0.755,5.357-3.597,10.615-6.335,15.434c-2.092,3.685-5.392,6.737-8.393,9.841c-8.451,8.741-17.434,16.628-22.377,28.592
		c-4.736,11.464-14.691,19.703-24.437,27.254c-4.324,3.351-10.093,4.817-15.162,7.229c-15.647,7.444-32.038,10.721-49.372,9.217
		c-4.639-0.402-9.128-0.241-13.005,3.479c-1.676,1.607-4.798,1.762-7.305,2.421c-0.937,0.245-1.989,0.058-2.989,0.049
		c-15.859-0.138-32.063,2.265-46.244-7.125c-7.756,8.073-14.872,15.434-21.937,22.844c-9.429,9.889-20.405,15.456-34.612,14.396
		c-15.892-1.186-31.861-1.279-47.775-2.219c-10.72-0.631-19.408-5.654-27.406-12.834c-18.964-17.022-33.179-37.281-42.036-61.028
		c-2.955-7.922-4.119-16.729-4.779-25.234c-0.796-10.267-0.195-20.644-0.182-30.973c0.02-15.496,3.805-29.438,15.196-40.877
		c9.603-9.64,17.743-20.917,30.02-27.469c4.212-2.249,9.273-3.559,14.057-3.94c7.946-0.635,15.98-0.092,23.976-0.201
		c6.564-0.09,13.399,1.277,19.247-3.304c0.693-0.543,1.926-0.577,2.901-0.553
		C2936.776,1989.491,2956.057,1985.851,2974.145,1996.153z"/>
	<path fill-rule="evenodd" clip-rule="evenodd" fill="#FFFFFF" d="M2745.69,1382.685c-1.307,8.306-2.394,15.094-3.439,21.89
		c-2.805,18.213-2.736,36.538-0.273,54.687c1.248,9.193-0.508,14.991-8.086,21.211c-41.417,33.994-84.883,65.255-127.859,97.164
		c-12.468,9.258-25.664,17.533-38.526,26.259c-0.46-0.476-0.92-0.951-1.381-1.427c0.8-1.104,1.423-2.412,2.426-3.28
		c8.542-7.39,12.74-17.112,13.685-27.958c2.51-28.825-2.575-56.352-16.337-81.921c-3.064-5.693-7.926-10.418-12.563-16.365
		c7.293-5.24,14.267-10.848,21.808-15.548c16.357-10.193,29.009-24.455,41.917-38.271c4.174-4.466,5.576-11.803,7.412-18.072
		c1.187-4.052,0.857-8.547,1.196-12.703C2665.529,1396.435,2704.825,1395.34,2745.69,1382.685z"/>
</g>
</svg>
