<?xml version="1.0" encoding="utf-8"?>
<!-- Generator: Adobe Illustrator 16.0.2, SVG Export Plug-In . SVG Version: 6.00 Build 0)  -->
<!DOCTYPE svg PUBLIC "-//W3C//DTD SVG 1.1 Tiny//EN" "http://www.w3.org/Graphics/SVG/1.1/DTD/svg11-tiny.dtd">
<svg version="1.1" baseProfile="tiny" id="Layer_1" xmlns="http://www.w3.org/2000/svg" xmlns:xlink="http://www.w3.org/1999/xlink"
	 x="0px" y="0px" width="4550.431px" height="3983.502px" viewBox="0 0 4550.431 3983.502" xml:space="preserve">
<g>
	<path fill-rule="evenodd" fill="#FFFFFF" d="M4554.85,3991.5c-1516.756,0-3033.723,0-4550.769,0c0-1328.957,0-2657.915,0-3987.186
		c1516.675,0,3033.432,0,4550.769,0C4554.85,1333.166,4554.85,2662.333,4554.85,3991.5z M882.521,3329.093
		c-3.191,0.9-5.038,1.829-6.911,1.886c-16.447,0.497-31.381,5.149-44.423,15.452c-2.067,1.634-4.586,2.704-6.918,3.995
		c-6.77,3.747-12.459,2.533-17.95-2.992c-6.081-6.121-12.379-12.16-19.266-17.324c-17.249-12.936-36.987-21.148-57.466-27.129
		c-41.088-11.999-83.016-18.523-125.999-18.655c-19.639-0.06-36.923,5.3-51.866,17.367c-12.401,10.015-24.384,20.709-35.476,32.146
		c-16.688,17.208-32.104,35.565-45.31,55.712c-4.937,7.533-6.994,15.272-7.539,24.269c-1.248,20.593,4.067,39.315,12.125,57.979
		c8.029,18.596,20.133,32.778,38.318,41.429c8.216,3.907,11.979,10.166,12.717,18.698c0.345,3.974,0.205,7.993,0.169,11.992
		c-0.132,14.621-0.661,29.276,5.34,43.29c-2.918,3.533-5.653,6.401-7.848,9.639c-1.799,2.651-4.058,5.689-4.193,8.644
		c-0.484,10.636-0.322,21.314-0.009,31.966c0.073,2.485,1.11,5.447,2.725,7.3c9.198,10.548,18.43,21.049,32.522,25.56
		c18.37,5.881,36.702,11.906,54.855,18.415c5.471,1.962,11.019,4.942,15.283,8.826c19.686,17.937,42.924,29.719,68.127,36.396
		c20.133,5.335,39.156,12.478,57.44,22.096c1.178,0.619,2.346,1.297,3.592,1.746c23.295,8.399,44.949,20.024,65.977,32.997
		c7.869,4.854,15.829,9.76,25.743,10.077c2.879,0.093,6.043,2.426,8.423,4.487c4.013,3.478,7.674,7.409,11.178,11.417
		c5.605,6.41,12.675,9.67,21.004,10.109c41.859,2.212,83.759,4.804,124.445-9.254c14.667,8.658,14.683,8.99,31.758,8.218
		c11.287-0.511,22.981-0.554,33.675-3.642c16.465-4.752,31.419-3.189,46.322,4.398c3.538,1.802,7.444,2.884,11.191,4.271
		c45.34,16.793,92.067,18.89,139.775,14.845c27.242-2.311,54.278-4.297,80.204-13.749c3.077-1.122,6.663-0.81,9.792-1.838
		c13.793-4.536,28.483-6.557,40.451-16.123c5.785-4.623,13.334-5.886,20.88-5.521c9.716,0.471,18.078-3.283,26.466-7.703
		c23.562-12.418,41.775-30.517,57.109-51.948c7.94-11.098,12.4-23.421,14.797-36.726c3.205-17.786,4.138-35.677,3.798-53.717
		c-0.165-8.727-0.291-17.339-4.02-25.435c-2.614-5.674-2.719-11.026-0.764-17.276c6.162-19.689,11.375-39.675,17.116-59.5
		c1.261-4.353,3.186-8.513,5.011-13.301c16.386-1.123,32.976-0.293,46.638-9.84c13.141-9.183,24.839-20.068,29.58-36.549
		c21.072-4.098,38.821-13.84,54.043-30.066c4.448,4.735,7.943,8.525,11.513,12.246c10.152,10.587,19.728,22.056,36.647,21.149
		c2.425-0.131,5.088,1.479,7.415,2.712c10.561,5.594,21.975,4.738,33.259,4.379c3.159-0.1,6.745-0.974,9.31-2.711
		c6.05-4.1,11.753-8.757,17.316-13.518c5.561-4.758,11.256-9.504,16.01-15.018c4.479-5.197,7.807-11.388,11.974-17.64
		c9.954,10.085,22.282,14.294,36.085,14.764c11.307,0.385,22.612,1.18,33.916,1.151c30.871-0.076,37.227-3.213,57.464-25.441
		c8.976-9.858,13.662-20.93,13.417-34.377c-0.326-17.991-0.068-35.992-0.074-53.989c-0.004-9.997,0.394-20.019-0.143-29.989
		c-1.095-20.334-21.251-41.712-41.191-41.982c-10.775-0.146-19.149-3.388-27.208-9.711c-4.702-3.689-9.756-7.043-15.02-9.864
		c-4-2.145-8.468-3.96-12.921-4.624c-18.564-2.772-35.783,2.271-51.674,11.277c-9.365,5.308-16.91,12.984-18.137,24.794
		c-0.756,7.274-2.325,14.527-2.374,21.798c-0.094,13.666,0.648,27.34,1.1,42.976c-6.523-6.437-11.813-12.229-17.729-17.291
		c-3.928-3.364-8.414-6.695-13.23-8.293c-18.41-6.109-37.227-9.89-56.881-9.373c-9.241,0.243-16.811,2.592-23.317,9.137
		c-4.216,4.24-8.715,8.281-13.532,11.802c-1.743,1.273-5.108,1.646-7.157,0.881c-3.154-1.176-2.725-4.601-1.112-6.762
		c13.897-18.619,19.081-40.702,26.007-62.273c4.853-15.115,12.378-29.397,19.108-43.867c1.62-3.483,4.339-6.839,7.365-9.223
		c18.811-14.816,36.273-31.204,56.493-44.416c38.295-25.023,70.432-56.715,96.379-94.579c4.492-6.554,10.013-12.438,15.346-18.372
		c8.458-9.417,17.09-18.68,25.776-27.887c7.486-7.935,12.219-17.209,15.371-27.642c5.886-19.477,7.348-39.155,4.546-59.25
		c-1.198-8.593-1.884-16.831,3.253-25.039c12.363-19.754,23.901-40.023,35.898-60.008c2.046-3.408,4.185-7.106,7.201-9.525
		c11.746-9.42,13.846-21.889,12.467-35.745c-0.263-2.646-0.103-5.331-0.268-7.989c-0.555-8.952,3.187-15.303,11.249-19.258
		c3.541-1.737,7.905-3.016,10.19-5.868c7.216-9.01,16.684-9.983,26.986-9.389c3.322,0.192,6.67-0.105,9.996,0.05
		c14.448,0.675,26.551-3.364,38.733-12.293c22.05-16.163,47.061-24.984,75.086-16.946c26.208,7.517,52.544,14.699,78.362,23.397
		c10.198,3.435,20.112,6.686,30.833,7.311c10.586,0.617,21.169,1.272,30.7,1.848c1.49,1.219,2.15,1.528,2.448,2.046
		c0.993,1.73,2.03,3.469,2.743,5.321c10.078,26.196,20.531,52.162,42.214,71.505c9.188,15.869,20.529,29.377,38.761,35.324
		c15.421,13.75,31.215,27.213,39.839,46.721c4.575,10.35,8.959,20.788,13.212,31.275c12.006,29.614,23.837,59.3,35.896,88.895
		c2.256,5.535,5.006,10.907,7.935,16.125c13.691,24.394,26.689,49.231,41.535,72.907c16.279,25.961,24.761,54.366,30.673,83.886
		c0.547,2.732,2.353,6.335-2.774,8.867c-2.672-2.431-5.65-4.943-8.406-7.68c-12.764-12.682-25.853-25.066-38.079-38.252
		c-11.14-12.014-26.006-18.416-38.949-27.679c-2.541-1.82-6.396-3.025-9.454-2.703c-17.989,1.898-30.481-6.983-41.186-19.893
		c-1.265-1.525-2.839-2.816-4.371-4.097c-6.316-5.275-13.347-8.702-21.835-8.425c-3.328,0.109-6.692-0.297-9.992,0.022
		c-9.822,0.952-18.241-1.578-25.664-8.367c-8.141-7.444-18.131-10.935-29.116-11.661c-6.634-0.438-13.26-1.453-19.888-1.435
		c-46.569,0.137-90.973,11.375-134.295,27.32c-16.399,6.036-30.874,15.809-42.917,28.586c-8.868,9.407-19.05,16.13-31.085,21
		c-26.888,10.884-50.325,26.909-69.987,48.573c-7.932,8.739-13.744,18.167-15.265,29.651c-2.269,17.136-4.119,34.359-5.233,51.604
		c-0.814,12.591-0.16,25.277-0.16,38.273c-5.779,5.933-11.219,11.759-16.921,17.316c-9.593,9.348-14.37,20.564-14.183,33.99
		c0.14,9.996,0.238,20.003-0.076,29.992c-0.626,19.915,3.514,38.273,15.645,54.595c7.261,9.77,11.456,20.939,12.873,33.161
		c1.502,12.941,6.895,24.198,15.447,34.044c10.074,11.599,18.1,24.549,26.176,37.637c13.478,21.839,31.588,40.297,54.945,50.999
		c24.685,11.311,50.293,21.202,78.341,21.914c8.495,0.216,17.188,2.159,25.321,4.773c12.124,3.896,24.071,7.778,37.023,7.101
		c5.588-0.292,10.406,1.671,14.474,5.587c11.338,10.92,26.073,15.772,39.944,22.126c9.218,4.224,18.957,5.543,29.139,5.723
		c31.789,0.564,62.108-6.847,91.883-16.685c24.333-8.04,42.192-25.344,57.015-45.308c7.235-9.744,14.974-18.563,24.013-26.479
		c17.178-15.044,31.692-32.265,42.95-52.238c4.567-8.104,9.348-16.239,15.133-23.479c20.056-25.1,30.803-55.797,49.629-81.642
		c3.38-4.642,4.367-11.069,6.264-16.738c1.843-5.513,3.434-11.11,5.57-18.091c4.502,3.888,7.743,7.142,11.432,9.765
		c5.92,4.214,11.656,9.396,18.323,11.703c15.298,5.296,25.836,15.698,35.589,27.869c8.311,10.371,17.652,19.914,26.507,29.852
		c7.399,8.306,16.819,12.698,27.547,15.062c6.435,1.416,13.05,2.991,18.894,5.887c9.768,4.837,19.807,7.017,30.615,8.057
		c10.3,0.99,21.1,0.241,30.712,4.13c2.477,11.427,4.49,21.855,7.039,32.152c2.428,9.814,6.623,18.938,13.772,26.264
		c18.134,18.583,36.287,37.153,54.812,55.345c4.004,3.931,7.233,7.688,7.86,13.303c1.255,11.229,3.025,22.436,3.606,33.701
		c1.1,21.319,4.362,41.916,9.938,62.785c7.441,27.854,22.402,49.001,43.21,67.669c9.653,8.661,19.737,15.63,32.138,19.339
		c37.094,11.097,75.028,18.069,113.377,22.804c22.663,2.798,43.288-1.901,62.038-16.224c18.017-13.764,36.628-26.663,51.941-43.601
		c1.695-1.875,3.75-3.423,6.28-5.702c4.779,4.388,8.961,8.615,13.56,12.324c3.556,2.869,7.331,5.918,11.531,7.46
		c19.993,7.339,39.811,15.572,60.368,20.834c21.388,5.472,43.385,6.216,64.415-3.695c10.832-5.104,21.798-10.002,32.987-14.244
		c15.784-5.984,29.996-14.662,42.879-25.224c17.277-14.163,36.191-24.29,57.907-29.933c8.816-2.29,16.763-7.84,25.194-11.712
		c24.787-11.384,50.621-19.494,72.863,5.001c0.889,0.978,2.094,1.659,3.041,2.591c10.921,10.74,24.862,15.514,39.251,18.436
		c8.354,1.697,17.242,0.639,25.872,1.146c11.814,0.696,22.621-2.499,31.992-9.282c10.416-7.538,22.363-11.459,33.756-16.839
		c27.808-13.128,51.195-30.934,58.141-63.701c3.496-16.497,13.045-25.067,29.943-27.085c8.349-0.997,15.507-3.778,21.765-8.974
		c6.133-5.093,12.169-10.367,17.703-16.088c2.621-2.709,4.968-6.445,5.704-10.068c1.958-9.627,7.275-16.695,13.926-23.605
		c18.799-19.528,29.782-42.349,27.146-70.307c-0.25-2.644-0.25-5.35-0.004-7.992c1.193-12.808-3.234-23.862-11.66-32.956
		c-19.412-20.951-37.439-43.442-62.554-58.347c-3.886-2.307-7.147-5.662-8.761-6.968c-3.681-16.789-6.669-31.106-9.974-45.35
		c-5.698-24.557-20.449-43.073-40.071-57.916c-4.607-3.486-10.609-5.296-16.179-7.291c-3.709-1.328-7.979-1.102-11.674-2.455
		c-22.949-8.407-46.787-9.849-70.863-9.291c-22.997,0.533-44.881,5.099-64.257,18.472c-4.925,3.399-10.009,6.741-15.43,9.205
		c-5.979,2.718-12.315,5.723-18.699,6.286c-23.202,2.046-46.498,2.999-69.739,4.634c-7.794,0.549-14.343-1.521-20.174-6.659
		c-7.166-6.313-15.499-10.981-25.043-11.415c-17.243-0.783-34.752-2.766-51.586,2.663c-11.768,3.795-21.974,1.616-32.845-5.405
		c0-9.103-0.295-18.402,0.082-27.675c0.389-9.584-1.743-18.681-5.495-27.188c-2.595-5.884-7.09-10.927-11.902-18.08
		c1.97-1.074,3.836-1.861,5.445-3.006c19.187-13.637,35.013-30.56,49.307-49.19c8.087-10.543,11.631-21.836,12.27-35.024
		c1.92-39.604-7.236-76.765-23.998-112.153c-15.113-31.907-30.11-63.804-42.465-96.934c-8.167-21.898-19.496-42.266-32.829-61.561
		c-22.832-33.047-40.433-68.802-54.215-106.515c-19.896-54.439-41.38-108.179-70.145-158.727c-7.305-12.839-15.283-24.913-26.241-35
		c-12.043-11.087-19.645-24.95-24.237-40.653c-3.174-10.85-7.255-21.432-10.571-32.243c-8.686-28.305-27.233-48.276-52.249-63.059
		c-5.113-3.021-10.038-6.608-14.358-10.672c-9.14-8.595-9.776-12.296-1.993-22.063c6.594-8.273,10.499-16.794,9.306-27.447
		c-0.217-1.932,0.35-3.952,0.672-7.056c5.495-5.558,11.392-11.882,17.687-17.782c5.563-5.216,10.027-11.339,10.651-18.74
		c1.528-18.154,6.877-35.143,13.37-51.961c1.656-4.29,1.976-9.1,2.875-13.678c2.686-13.685,5.656-27.322,7.913-41.078
		c1.234-7.529,3.806-13.751,9.506-19.127c9.76-9.206,13.149-21.074,13.245-34.362c0.396-54.833-2.428-109.193-22.295-161.794
		c4.744-5.888,5.256-12.968,5.485-20.424c1.132-36.855-2.939-73.157-10.986-109.05c-1.92-8.57-2.29-16.934-1.328-25.715
		c1.52-13.867,1.59-27.887,2.721-41.806c0.695-8.561,1.197-17.351,3.564-25.521c7.224-24.93,14.389-49.947,23.353-74.276
		c7.041-19.11,11.126-38.137,10.024-58.499c-0.715-13.196-0.135-26.46-0.135-40.724c6.155-2.516,12.206-5.002,18.267-7.464
		c8.942-3.631,17.73-3.534,27.273-1.298c12.221,2.864,24.917,3.688,37.398,5.468c3.734,0.533,7.435,1.321,12.196,2.18
		c0,4.859,0.163,8.806-0.028,12.735c-0.755,15.424,1.359,30.465,4.595,45.545c1.75,8.161,4.51,15.236,10.35,21.084
		c11.271,11.288,22.551,22.567,33.877,33.799c4.25,4.216,8.993,7.997,12.809,12.563c1.745,2.088,1.79,5.596,3.136,10.316
		c-12.959-0.449-24.118,0.363-34.228,6.386c-2.564,1.528-6.497,0.933-9.806,1.001c-6.663,0.136-13.338-0.117-19.994,0.14
		c-3.258,0.126-7.054,0.126-9.637,1.737c-14.704,9.171-29.088,18.947-39.794,32.862c-2.647,3.442-4.473,8.467-4.517,12.787
		c-0.144,13.952,0.462,27.928,1.267,41.867c0.848,14.678,7.357,26.86,18.138,36.675c9.337,8.502,18.949,16.703,28.597,25.174
		c11.053,1.528,22.088,3.054,35.193,4.866c-3.928,4.844-6.637,8.331-9.5,11.686c-4.751,5.568-10.215,10.646-14.197,16.706
		c-2.783,4.234-4.948,9.734-5.054,14.718c-0.422,19.951-0.79,39.854,2.66,59.791c2.384,13.777,7.646,25.433,16.88,35.405
		c10.835,11.702,22.213,22.898,33.166,34.494c8.258,8.741,18.361,13.291,30.213,13.257c32.146-0.094,33.217,4.028,64.426-19.991
		c3.696-2.844,7.237-5.89,10.81-8.889c15.898-13.352,29.483-28.719,39.979-46.667c1.6-2.735,2.618-6.142,2.825-9.308
		c1.613-24.798-1.335-49.234-6.826-73.366c-1.008-4.432-2.908-9.183-5.813-12.574c-15.735-18.374-32.359-35.652-58.653-37.843
		c-0.901-0.074-1.672-1.749-3.079-3.321c4.933-5.171,9.484-10.942,15.029-15.503c6.851-5.633,5.571-14.674,9.894-21.602
		c29.479,2.337,57.98,10.179,87.361,10.286c1.378,0.006,2.748,2.369,4.732,4.196c-2.357,3.5-4.003,7.273-6.772,9.826
		c-12.907,11.888-15.438,27.198-15.7,43.633c-0.549,34.271,0.979,38.646,25.455,63.599c5.634,5.744,9.923,12.144,14.051,19.115
		c12.803,21.628,21.481,46.035,41.482,63.054c2.623,2.232,4.539,7.106,4.288,10.575c-0.886,12.215,4.436,22.056,10.735,31.495
		c9.24,13.844,18.602,27.642,28.637,40.911c11.708,15.481,25.322,29.077,42.145,39.283c6.218,3.771,11.461,9.114,17.456,13.299
		c4.849,3.385,9.807,7.434,15.324,8.905c31.229,8.328,62.831,11.396,94.904,4.735c9.437-1.959,17.789-5.64,24.196-12.924
		c7.8-8.868,15.371-17.937,23.685-27.672c25.488,2.506,51.047-1.621,76.725-5.84c17.947-2.948,32.8-10.82,45.3-23.285
		c8.865-8.84,16.69-18.721,24.476-27.565c21.763,0.209,43.026,0.584,64.291,0.561c15.252-0.018,28.811-4.352,39.098-16.562
		c6.861-8.145,14.109-15.965,21.249-23.871c5.645-6.252,8.138-13.543,8.053-21.937c-0.095-9.269,0.138-18.539,0.214-26.29
		c8.7-9.152,16.197-16.734,23.34-24.638c7.172-7.936,13.613-16.146,14.914-27.615c0.46-4.061,4.161-8.048,7.077-11.477
		c6.898-8.107,14.41-15.694,21.309-23.801c6.701-7.874,10.054-17.439,10.382-27.59c0.497-15.31,1.055-30.735-0.264-45.953
		c-1.397-16.13-7.452-30.404-19.466-42.61c-15.92-16.177-35.674-25.341-55.454-34.875c-6.546-3.155-13.175-6.14-20.659-9.618
		c0-9.018,0.566-17.687-0.096-26.261c-3.267-42.309-18.969-77.305-58.46-97.273c-7.623-18.311-14.705-36.264-22.601-53.852
		c-3.464-7.718-4.279-15.117-2.732-23.263c1.486-7.827,3.05-15.773,3.199-23.693c0.427-22.654,0.222-45.322,0.091-67.984
		c-0.022-3.94-0.13-8.17-1.513-11.758c-4.293-11.142-9.728-21.858-13.778-33.077c-5.694-15.771-14.909-29.707-21.943-44.701
		c-4.944-10.54-10.929-19.828-18.986-27.77c-16.978-16.734-32.366-35.633-56.044-42.608c-0.9-2.878-1.807-4.723-2.029-6.648
		c-2.425-21.067-13.144-37.684-29.183-50.493c-6.986-5.579-12.331-11.77-17.089-19.062c-14.57-22.329-29.738-44.052-49.461-62.517
		c-18.464-17.286-37.025-34.33-56.176-50.891c-20.221-17.488-42.716-31.632-63.521-48.17c-17.668-14.045-37.248-25.731-56.286-37.99
		c-16.788-10.81-33.615-21.671-51.147-31.182c-12.799-6.942-26.344-13.385-40.345-16.981c-12.657-3.251-23.585-8.654-34.095-15.729
		c-8.289-5.581-16.205-11.799-24.854-16.74c-8.618-4.921-17.669-9.4-27.028-12.628c-11.924-4.115-24.211-7.498-36.593-9.887
		c-16.138-3.114-29.959-10.662-43.188-19.738c-5.487-3.764-10.854-7.745-15.996-11.968c-14.069-11.554-30.063-19.641-46.81-26.389
		c-8.712-3.51-17.668-5.281-27.237-5.245c-9.234,0.034-18.473-1.633-27.714-2.499c-10.673-1-20.624-3.957-30.542-8.325
		c-8.361-3.683-18.3-3.69-26.83-7.102c-15.036-6.014-30.286-10.158-46.49-10.413c-8.408-0.133-15.575-3.127-21.781-8.652
		c-3.481-3.1-6.838-6.349-10.411-9.335c-31.008-25.909-65.543-42.785-107.062-42.167c-9.432,0.14-18.643,0.086-26.586,6.298
		c-5.146,4.025-10.97,4.202-17.081,2.465c-5.123-1.456-10.419-2.353-15.476-3.997c-20.489-6.662-41.429-9.553-62.986-8.849
		c-5.849,0.191-11.962-0.789-17.607-2.427c-27.555-7.997-55.603-6.154-83.237-2.558c-11.836,1.541-22.077,1.451-32.746-3.29
		c-20.886-9.282-42.759-14.121-65.645-15.748c-17.814-1.267-33.022,1.352-43.17,17.686c-0.291,0.47-1.176,0.571-1.579,0.752
		c-11.958-1.667-23.717-3.307-35.944-5.013c-1.45-3.682-3.403-7.246-4.257-11.059c-3.201-14.288-6.732-28.561-8.755-43.031
		c-1.176-8.41-4.337-15.239-9.514-21.477c-2.975-3.584-6.05-7.123-9.399-10.353c-5.882-5.673-10.557-11.839-11.703-20.297
		c-0.938-6.916-4.768-12.455-10.122-16.72c-12.942-10.307-25.788-20.775-39.22-30.416c-5.405-3.879-8.743-7.854-8.544-14.53
		c0.08-2.663-0.166-5.34-0.006-7.996c0.931-15.446-4.132-28.897-13.873-40.602c-8.513-10.229-17.301-20.237-26.158-30.17
		c-12.618-14.15-26.709-26.164-46.136-29.779c-6.463-1.203-10.306-5.141-13.521-10.683c-4.324-7.452-8.537-15.344-14.471-21.409
		c-13.021-13.311-26.846-25.878-40.884-38.126c-4.335-3.781-10.325-7.583-15.729-7.848c-13.709-0.671-23.724-7.898-33.498-15.815
		c-7.499-6.074-15.619-10.121-25.166-11.175c-7.913-0.874-15.85-1.552-23.779-2.277c-7.162-0.654-14.629,1.518-21.354-2.05
		c-12.097-35.466-21.413-50.054-46.012-73.758c-6.058-5.837-12.181-9.543-21.065-9.169c-10.718,0.452-20.764-1.446-29.837-8.881
		c-4.689-3.842-12.178-4.796-18.599-5.84c-5.849-0.951-11.965-0.235-17.963-0.299c-18.573-0.194-35.887,2.673-48.202,18.746
		c-3.604,4.704-9.006,6.556-14.281,3.945c-15.234-7.541-31.255-5.037-47.135-4.583c-10.368,0.295-19.457,4.016-27.244,10.917
		c-12.409,10.997-24.849,21.959-38.389,33.92c-15.217-1.256-25.521,9.048-34.989,20.71c-4.181,5.148-7.591,11.084-12.402,15.524
		c-10.144,9.361-13.687,20.717-13.309,34.09c0.374,13.266,0.081,26.549,0.081,39.652c-42.525,32.732-74.722,73.296-104.065,116.493
		c-8.549,12.584-13.898,25.431-12.931,40.926c0.746,11.935-0.413,23.971,3.725,35.601c1.064,2.99,0.74,6.535,0.755,9.827
		c0.074,16.687-0.641,33.186-6.593,49.183c-2.275,6.113-2.267,13.075-3.299,19.649c-0.591,3.758-1.185,7.517-1.84,11.675
		c-6.251,0-11.912,1.363-16.547-0.239c-18.791-6.494-38.132-4.933-57.405-5.639c-29.24-1.07-57.06,3.867-83.113,17.404
		c-5.026,2.612-9.818,2.993-15.354,2.194c-9.833-1.419-19.785-2.55-29.705-2.721c-22.656-0.389-45.323-0.079-67.986-0.156
		c-5.318-0.019-10.812,0.335-15.925-0.818c-28.28-6.375-55.584-0.116-82.917,5.884c-3.191,0.7-6.86,1.786-9.066,3.955
		c-8.608,8.463-19.194,8.037-29.916,7.834c-7.995-0.152-16.003,0.186-23.993-0.073c-18.779-0.607-37.017,2.243-55.357,6.284
		c-34.419,7.585-67.911,19.063-103.174,23.23c-26.433,3.125-52.594,8.064-79.388,8.364c-15.895,0.178-32.031,0.56-47.336,6.305
		c-18.074,6.785-36.129,13.63-54.331,20.057c-16.917,5.974-33.699,12.792-51.096,16.858c-47.89,11.197-88.967,35.036-126.397,65.824
		c-17.581,14.461-33.257,30.815-41.233,53.001c-0.849,2.359-2.927,4.275-3.579,5.19c-8.473,2.328-16.456,2.701-22.274,6.441
		c-23.116,14.861-45.077,31.334-55.403,58.367c-4.218,11.043-11.48,19.48-20.461,26.533c-15.187,11.925-31.075,22.981-45.927,35.298
		c-11.747,9.742-23.817,19.713-33.076,31.65c-8.217,10.596-16.692,20.53-26.69,29.349c-4.49,3.961-8.145,8.93-12.851,12.572
		c-10.212,7.9-13.496,21.22-24.136,28.993c-10.168,7.428-19.174,16.469-28.523,24.984c-7.445,6.781-13.991,14.356-17.662,23.922
		c-6.535,17.026-16.547,31.838-28.32,45.614c-4.324,5.06-8.678,10.197-12.225,15.801c-18.976,29.968-37.832,59.974-33.751,98.028
		c0.536,5.002-0.827,10.697-2.888,15.376c-3.061,6.951-4.506,13.933-3.978,21.346c0.696,9.764-2.421,18.043-7.707,26.231
		c-5.008,7.758-10.525,16.134-12.166,24.92c-3.478,18.617-12.965,33.085-25.145,46.78c-18.346,20.63-29.599,44.22-27.006,72.756
		c1.459,16.067-4.05,29.836-12.509,43.224c-8.157,12.912-14.409,27.015-22.365,40.066c-15.741,25.825-12.862,53.903-9.639,81.615
		c0.981,8.43,2.889,16.931,3.195,25.536c0.406,11.417,2.03,22.55,6.45,33.16c3.845,9.231,2.909,18.252-1.341,27.037
		c-2.317,4.791-4.822,9.502-7.476,14.115c-6.452,11.211-9.91,22.957-9.351,36.164c0.676,15.969,0.157,31.987,0.158,47.985
		c0.002,29.837,0.009,29.831,19.699,51.488c0.87,0.958,1.452,2.178,2.463,3.728c0.401,16.847,0.591,33.979-2.979,51.208
		c-4.803,23.189-11.255,45.155-28.782,62.381c-5.439,5.346-7.368,12.337-7.136,20.123c0.336,11.32,0.411,22.673-0.035,33.986
		c-0.331,8.392,2.094,15.749,6.249,22.74c4.765,8.017,10.238,15.676,14.306,24.024c5.065,10.396,11.532,19.608,20.357,26.855
		c10.903,8.953,16.375,20.472,19.244,33.942c4.819,22.626,15.813,42.359,30.384,60.054c15.125,18.367,33.098,32.649,57.072,38.075
		c5.748,1.301,11.179,4.179,16.619,6.635c11.519,5.201,22.565,11.784,34.505,15.629c15.694,5.055,32.063,8.017,49.42,12.187
		c-0.139,13.188,10.404,20.246,18.836,28.615c6.597,6.547,13.314,12.293,14.791,22.692c0.763,5.374,5.48,10.485,9.212,15.061
		c4.192,5.141,9.386,9.451,13.966,14.289c7.514,7.935,15.312,14.185,27.535,13.458c9.625-0.571,15.756,6.441,19.564,14.584
		c2.222,4.749,3.197,10.158,4.228,15.371c1.934,9.771,3.23,19.673,5.299,29.412c1.827,8.597,2.311,16.719-0.381,25.481
		c-3.971,12.925-2.452,26.439-0.75,39.663c0.481,3.741,2.198,7.882,4.654,10.703c6.978,8.019,14.033,16.365,24.597,19.849
		c12.071,3.98,19.45,12.175,26.435,22.706c10.858,16.37,25.532,29.475,46.578,31.079c19.886,1.517,39.88,1.58,59.786,2.889
		c18.744,1.231,33.861-5.584,46.152-19.209c5.714-6.335,10.864-13.178,16.885-20.545c16.961-5.288,35.374-7.413,54.125-6.821
		c8.167,0.259,15.93-0.625,22.759-5.719c15.401-11.487,27.924-24.667,28.662-45.466c0.636-17.963,1.19-35.946,2.573-53.86
		c1.075-13.927-3.826-24.636-14.432-33.214c-2.065-1.67-3.802-3.738-5.792-5.509c-8.086-7.191-16.433-13.382-28.332-12.521
		c-3.591,0.261-7.827-1.542-10.995-3.594c-7.712-4.991-12.178-11.937-11.024-21.78c1.797-15.35-2.07-28.71-13.278-40.084
		c-5.543-5.625-10.383-12.583-10.182-21.139c0.242-10.323-4.449-17.879-12.074-23.972c-6.396-5.109-7.854-11.697-7.629-19.504
		c0.807-27.867,2.544-55.776-2.748-83.307c6.696-6.797,12.708-13.019,18.875-19.084c1.862-1.831,4.087-4.511,6.255-4.617
		c13.616-0.672,20.906-10.692,29.315-19.043c19.376-19.242,18.733-19.413,24.454-46.053c7.042-32.791,2.787-63.573-13.834-92.559
		c-7.088-12.361-11.023-25.893-13.375-39.519c-3.297-19.091-9.93-35.803-24.421-49.01c-0.863-0.787-0.951-2.426-1.525-4.017
		c3.417-11.714,6.918-23.721,10.45-35.828c0.964-0.689,1.94-1.644,3.106-2.184c28.471-13.172,44.817-34.474,45.09-66.731
		c0.062-7.309,0.52-14.618,0.955-21.918c0.633-10.603,1.422-21.197,2.125-31.796c0.502-7.573-0.945-14.845-5.637-20.785
		c-8.893-11.261-10.326-24.086-9.548-37.726c0.417-7.308-0.252-14.677,0.162-21.986c0.258-4.547,1.183-9.173,2.579-13.517
		c3.844-11.96,8.094-23.791,12.589-36.852c3.781-1.586,8.635-3.668,13.525-5.661c7.528-3.067,15.108-5.58,23.043-1.233
		c22.597-0.206,45.592,2.171,67.693-1.243c30.765-4.751,61.628-11.378,89.162-27.678c2.498-1.478,5.913-1.403,10.446-2.382
		c0,6.063-0.002,10.669,0,15.274c0.009,14.664-0.144,29.33,0.063,43.992c0.432,30.789,8.646,59.291,26.777,84.354
		c8.166,11.287,17.385,21.874,26.767,32.195c4.8,5.279,7.154,10.643,7.358,17.753c0.4,13.966,0.903,27.989,2.548,41.848
		c3.783,31.88,9.63,63.341,26.568,91.375c8.967,14.843,17.844,29.584,21.488,46.853c0.673,3.19,2.027,6.507,3.948,9.116
		c7.995,10.859,9.352,23.069,8.552,36.005c-0.452,7.304,0.089,14.662-0.105,21.989c-0.431,16.26,5.456,29.792,16.766,41.346
		c6.951,7.101,13.381,14.712,20.12,22.176c-2.005,12.644-5.245,26.3-6.005,40.092c-0.573,10.396-2.625,19.257-8.823,27.772
		c-9.542,13.113-16.271,27.579-15.565,44.437c0.238,5.681-1.774,10.188-5.759,14.299c-4.621,4.767-8.541,10.206-12.982,15.159
		c-11.919,13.297-19.172,28.77-21.356,46.442c-1.385,11.196-1.88,22.5-3.081,33.723c-1.354,12.657,1.599,23.616,11.305,32.389
		c0.672,0.607,0.207,2.475,0.21,2.529c-5.43,6.046-10.632,11.232-15.133,16.969c-9.844,12.547-21.196,24.396-28.505,38.328
		c-9.529,18.165-22.089,32.961-37.109,46.428c-17.427,15.626-32.972,33.051-44.916,53.327
		c-32.255,54.752-68.697,106.272-114.338,150.905c-14.073,13.763-24.218,29.657-26.077,50.273
		c-1.469,16.29-10.709,28.214-25.081,36.264c-9.874,5.529-19.877,10.999-29.033,17.593c-10.599,7.634-22.091,11.602-34.859,13.539
		c-17.771,2.695-29.613,15.105-31.613,33.215c-1.313,11.88-1.117,23.927-1.622,35.896c-0.287,6.794,1.493,12.98,4.068,19.311
		c7.271,17.885,13.609,36.15,20.833,54.058c3.608,8.942,4.717,17.646,3.2,27.245c-1.445,9.141-1.643,18.563-1.448,27.842
		c0.092,4.404,1.094,9.957,3.879,12.937c12.201,13.044,22.444,28.361,39.348,36.337c9.392,4.432,15.365,12.019,20.404,20.365
		c-1.522,2.674-2.248,4.581-3.497,6.041c-10.086,11.785-13.429,25.698-13.278,40.81c0.08,7.996,0.128,16.002-0.152,23.992
		C883.746,3310.995,883.045,3320.146,882.521,3329.093z M3635.695,3037.493c3.064,9.391,4.449,18.301,8.642,25.599
		c12.255,21.332,24.589,42.686,43.014,59.752c11.222,10.394,21.552,21.758,32.164,32.801c12.44,12.947,24.237,26.568,37.345,38.791
		c6.118,5.705,14.275,11.369,22.189,12.573c19.259,2.929,37.593,8.104,55.455,15.531c1.814,0.754,3.886,0.901,5.844,1.301
		c9.898,2.022,18.993,5.964,27.632,11.17c16.83,10.141,34.884,16.366,54.76,16.336c8.242-0.014,16.131,1.748,22.521,6.907
		c18.895,15.256,40.432,25.416,62.924,33.92c3.094,1.17,6.024,2.846,8.887,4.532c19.279,11.365,41.764,13.021,62.286,20.61
		c1.218,0.45,2.623,0.492,3.946,0.538c52.274,1.808,100.553-10.29,142.09-43.112c20.869-16.491,40.541-34.528,60.363-52.303
		c27.903-25.022,51.788-53.611,73.021-84.441c2.257-3.276,4.652-6.655,5.97-10.348c7.449-20.875,19.14-39.413,30.537-58.243
		c16.652-27.516,21.123-57.127,11.283-88.229c-1.649-5.213-2.154-10.15-1.44-15.626c2.067-15.827,3.711-31.716,5.184-47.611
		c0.927-10.015,2.825-19.588,6.872-28.947c14.742-34.103,16.285-69.723,9.787-105.719c-2.616-14.485-4.646-28.823-4.897-43.549
		c-0.262-15.432-3.216-30.553-10.448-44.347c-11.165-21.296-23.869-41.737-40.906-58.846
		c-14.088-14.148-27.541-28.727-40.614-43.833c-8.843-10.216-14.068-20.447-15.248-33.524c-1.229-13.613-6.004-26.101-15.451-36.093
		c-13.239-14.005-26.243-28.421-40.864-40.879c-15.789-13.452-33.639-23.946-55.636-24.438c-3.717-0.083-7.56-2.26-11.037-4.062
		c-13.782-7.144-28.573-11.417-43.749-13.335c-35.009-4.422-70.077-8.417-105.51-7.786c-43.111,0.769-84.792,8.79-124.416,25.538
		c-20.059,8.478-40.384,12.474-61.946,13.383c-15.22,0.643-30.5,2.896-45.46,5.892c-18.644,3.736-35.269,11.963-47.733,27.073
		c-5.921,7.177-11.894,14.311-17.885,21.429c-2.546,3.025-4.649,6.94-7.9,8.76c-12.743,7.128-25.823,13.66-38.896,20.174
		c-1.417,0.705-3.61-0.147-6.695-0.368c2.374-6.773,8.849-10.476,8.312-17.885c-1.298-17.914-0.91-35.967-2.605-53.829
		c-1.442-15.203-5.015-30.194-7.323-45.329c-2.087-13.69-7.783-25.055-18.24-34.5c-7.117-6.428-14.799-11.133-23.792-14.077
		c-5.642-1.847-11.162-4.057-16.777-5.991c-8.777-3.026-17.386-7.132-26.426-8.702c-23.804-4.136-47.672-4.377-72.618,4.224
		c1.599-15.4-1.293-29.566,5.874-43.664c4.014-7.895,4.529-18.02,4.915-27.21c0.725-17.298-0.607-34.696,0.462-51.958
		c0.952-15.387-5.928-26.421-14.904-37.736c-18.085-22.793-44.646-30.263-69.756-40.509c-2.394-0.977-5.236-1.219-7.863-1.19
		c-13.984,0.154-27.989,0.104-41.941,0.901c-12.696,0.726-22.897,10.659-36.041,10.578c-1.654-0.01-3.623,1.723-4.927,3.13
		c-5.414,5.842-11.335,11.387-15.784,17.917c-13.829,20.302-22.059,42.377-19.536,67.582c0.661,6.598-0.133,13.328,0.149,19.981
		c1.028,24.207,6.462,47.46,16.715,69.385c5.634,12.049,12.66,23.438,18.658,35.327c5.229,10.36,13.256,18.242,21.424,26.111
		c4.066,3.918,8.774,5.68,14.427,5.629c13.327-0.119,26.657-0.115,39.985,0.042c7.867,0.094,15.85-0.827,23.643,1.116
		c4.921,9.439,1.784,17.523-2.245,25.159c-3.722,7.05-8.458,13.556-12.539,20.425c-4.786,8.058-9.243,16.437-9.438,26.015
		c-0.272,13.313,0.157,26.64,0.345,39.961c0.107,7.726,3.521,13.843,8.618,19.582c21.729,24.473,48.972,38.38,81.117,43.033
		c5.357,0.776,10.476,1.485,14.574,5.531c10.065,9.936,22.445,13.83,36.36,13.782c2.439-0.009,4.883,0.842,7.775,1.379
		c-0.795,2.731-1.002,4.771-1.925,6.407c-12.887,22.849-20.517,47.622-26.588,72.928c-2.173,9.054-2.251,18.782-5.488,27.372
		c-7.264,19.275-7.148,39.079-7.151,59.093c-0.002,10.217,1.562,19.639,6.383,28.858c2.983,5.706,5.166,12.452,5.444,18.831
		c0.784,17.951,0.402,35.953,0.469,53.937c0.09,24.652,0.241,49.304,0.22,73.956c-0.01,11.325,4.46,20.198,12.277,28.422
		c15.807,16.63,32.268,31.817,55.686,36.755C3632.828,3035.491,3633.904,3036.481,3635.695,3037.493z M1882.239,353.792
		c7.706-5.646,13.891-10.599,20.488-14.922c14.333-9.393,27.36-21.281,45.621-23.288c3.621-0.397,7.423-2.932,10.318-5.434
		c9.138-7.896,17.32-16.681,20.542-28.824c2.094-7.895,6.157-14.576,11.123-20.992c3.205-4.14,6.129-8.875,7.708-13.813
		c3.429-10.726,10.703-17.482,19.282-24.374c31.552-25.343,51.001-57.071,50.38-99.277c-0.16-10.888-3.387-19.456-10.097-27.212
		c-3.912-4.522-8.55-8.414-12.479-12.923c-5.244-6.016-11.865-8.434-19.531-8.184c-15.29,0.5-30.572,1.268-45.861,1.834
		c-5.255,0.194-10.895,1.36-15.708-0.084c-12.426-3.729-25.002-3.208-37.631-3.37c-16.246-0.21-31.531,2.424-45.759,11.254
		c-11.168,6.931-27.294,4.407-36.843-3.798c-7.056-6.063-14.522-11.647-21.591-17.696c-8.525-7.295-18.477-10.087-29.446-10.529
		c-22.775-0.919-45.224,0.195-66.64,9.172c-3.034,1.271-6.281,2.26-9.525,2.767c-17.853,2.788-32.453,11.633-44.788,24.332
		c-8.446,8.697-17.981,15.377-28.701,21.168c-34.005,18.374-59.324,44.809-71.592,82.252c-8.139,24.837-19.626,47.921-34.683,69.285
		c-14.975,21.248-23.46,44.261-21.69,70.972c0.702,10.588,3.32,19.161,9.906,27.292c13.364,16.496,26.197,33.421,39.979,51.108
		c0,16.42,0.081,33.711-0.032,51c-0.062,9.484,0.373,18.622,7.764,25.956c1.722,1.709,2.635,4.576,3.187,7.072
		c4.494,20.313,17.15,35.253,32.244,48.356c3.279,2.845,8.261,4.542,12.677,5.131c32.334,4.318,62.422-0.207,87.284-23.685
		c0.482-0.455,1.036-0.836,1.554-1.254c10.35-8.359,20.664-16.764,31.062-25.064c9.425-7.524,18.018-15.729,24.05-26.387
		c2.249-3.973,5.264-7.513,7.852-11.14c3.838-0.652,7.106-1.212,10.375-1.763c3.94-0.665,7.991-0.952,11.795-2.076
		c5.031-1.486,10.583-2.648,14.677-5.639C1843.579,426.127,1870.813,395.973,1882.239,353.792z"/>
	<path fill-rule="evenodd" d="M882.521,3329.093c0.523-8.946,1.225-18.098,1.545-27.264c0.28-7.99,0.232-15.996,0.152-23.992
		c-0.151-15.111,3.192-29.024,13.278-40.81c1.249-1.46,1.975-3.367,3.497-6.041c-5.039-8.347-11.012-15.934-20.404-20.365
		c-16.903-7.976-27.147-23.293-39.348-36.337c-2.786-2.979-3.788-8.532-3.879-12.937c-0.194-9.279,0.003-18.701,1.448-27.842
		c1.517-9.6,0.408-18.303-3.2-27.245c-7.224-17.907-13.561-36.173-20.833-54.058c-2.575-6.33-4.355-12.517-4.068-19.311
		c0.505-11.97,0.309-24.017,1.622-35.896c2-18.109,13.842-30.52,31.613-33.215c12.768-1.938,24.26-5.905,34.859-13.539
		c9.156-6.594,19.16-12.063,29.033-17.593c14.372-8.05,23.612-19.974,25.081-36.264c1.859-20.616,12.003-36.511,26.077-50.273
		c45.642-44.633,82.083-96.153,114.338-150.905c11.944-20.276,27.489-37.701,44.916-53.327c15.02-13.467,27.58-28.263,37.109-46.428
		c7.309-13.933,18.661-25.781,28.505-38.328c4.501-5.736,9.703-10.923,15.133-16.969c-0.003-0.055,0.462-1.922-0.21-2.529
		c-9.706-8.772-12.66-19.731-11.305-32.389c1.201-11.223,1.696-22.526,3.081-33.723c2.184-17.673,9.437-33.146,21.356-46.442
		c4.441-4.953,8.361-10.393,12.982-15.159c3.985-4.11,5.997-8.618,5.759-14.299c-0.706-16.857,6.023-31.323,15.565-44.437
		c6.198-8.516,8.25-17.376,8.823-27.772c0.761-13.792,4-27.448,6.005-40.092c-6.739-7.464-13.168-15.075-20.12-22.176
		c-11.31-11.554-17.196-25.086-16.766-41.346c0.194-7.327-0.347-14.686,0.105-21.989c0.8-12.936-0.557-25.146-8.552-36.005
		c-1.92-2.609-3.275-5.926-3.948-9.116c-3.644-17.269-12.521-32.01-21.488-46.853c-16.938-28.034-22.785-59.495-26.568-91.375
		c-1.645-13.858-2.147-27.881-2.548-41.848c-0.204-7.11-2.558-12.474-7.358-17.753c-9.382-10.321-18.601-20.909-26.767-32.195
		c-18.131-25.063-26.345-53.564-26.777-84.354c-0.206-14.662-0.054-29.328-0.063-43.992c-0.002-4.605,0-9.211,0-15.274
		c-4.533,0.979-7.948,0.904-10.446,2.382c-27.534,16.3-58.397,22.927-89.162,27.678c-22.101,3.415-45.096,1.037-67.693,1.243
		c-7.935-4.346-15.515-1.834-23.043,1.233c-4.89,1.993-9.744,4.075-13.525,5.661c-4.495,13.061-8.745,24.892-12.589,36.852
		c-1.396,4.343-2.321,8.969-2.579,13.517c-0.414,7.309,0.255,14.678-0.162,21.986c-0.778,13.64,0.655,26.464,9.548,37.726
		c4.691,5.939,6.139,13.212,5.637,20.785c-0.702,10.599-1.491,21.193-2.125,31.796c-0.436,7.3-0.894,14.609-0.955,21.918
		c-0.273,32.258-16.619,53.56-45.09,66.731c-1.167,0.54-2.142,1.494-3.106,2.184c-3.532,12.107-7.034,24.114-10.45,35.828
		c0.574,1.591,0.662,3.229,1.525,4.017c14.491,13.207,21.124,29.919,24.421,49.01c2.352,13.626,6.287,27.157,13.375,39.519
		c16.621,28.985,20.876,59.768,13.834,92.559c-5.721,26.64-5.077,26.811-24.454,46.053c-8.409,8.351-15.699,18.371-29.315,19.043
		c-2.167,0.106-4.393,2.786-6.255,4.617c-6.166,6.065-12.178,12.287-18.875,19.084c5.292,27.53,3.554,55.439,2.748,83.307
		c-0.226,7.807,1.233,14.395,7.629,19.504c7.625,6.093,12.316,13.648,12.074,23.972c-0.201,8.556,4.639,15.514,10.182,21.139
		c11.208,11.374,15.075,24.734,13.278,40.084c-1.154,9.844,3.312,16.789,11.024,21.78c3.167,2.052,7.403,3.854,10.995,3.594
		c11.899-0.861,20.246,5.329,28.332,12.521c1.99,1.771,3.727,3.839,5.792,5.509c10.606,8.578,15.507,19.287,14.432,33.214
		c-1.383,17.914-1.937,35.897-2.573,53.86c-0.737,20.799-13.26,33.979-28.662,45.466c-6.829,5.094-14.591,5.978-22.759,5.719
		c-18.75-0.592-37.164,1.533-54.125,6.821c-6.021,7.367-11.171,14.21-16.885,20.545c-12.292,13.625-27.409,20.44-46.152,19.209
		c-19.906-1.309-39.899-1.372-59.786-2.889c-21.046-1.604-35.72-14.709-46.578-31.079c-6.985-10.531-14.364-18.726-26.435-22.706
		c-10.564-3.483-17.619-11.83-24.597-19.849c-2.456-2.821-4.172-6.962-4.654-10.703c-1.702-13.224-3.221-26.738,0.75-39.663
		c2.692-8.763,2.208-16.885,0.381-25.481c-2.069-9.739-3.366-19.641-5.299-29.412c-1.031-5.213-2.006-10.622-4.228-15.371
		c-3.808-8.143-9.939-15.155-19.564-14.584c-12.224,0.727-20.021-5.523-27.535-13.458c-4.58-4.838-9.774-9.148-13.966-14.289
		c-3.732-4.575-8.449-9.687-9.212-15.061c-1.477-10.399-8.194-16.146-14.791-22.692c-8.433-8.369-18.975-15.427-18.836-28.615
		c-17.358-4.17-33.726-7.132-49.42-12.187c-11.94-3.845-22.986-10.428-34.505-15.629c-5.439-2.456-10.871-5.334-16.619-6.635
		c-23.974-5.426-41.947-19.708-57.072-38.075c-14.572-17.694-25.565-37.428-30.384-60.054c-2.869-13.471-8.341-24.989-19.244-33.942
		c-8.826-7.247-15.292-16.459-20.357-26.855c-4.068-8.349-9.541-16.008-14.306-24.024c-4.154-6.991-6.579-14.349-6.249-22.74
		c0.445-11.313,0.371-22.666,0.035-33.986c-0.232-7.786,1.696-14.777,7.136-20.123c17.527-17.226,23.979-39.191,28.782-62.381
		c3.569-17.229,3.38-34.361,2.979-51.208c-1.012-1.55-1.593-2.77-2.463-3.728c-19.69-21.657-19.697-21.651-19.699-51.488
		c-0.001-15.998,0.518-32.017-0.158-47.985c-0.56-13.207,2.898-24.953,9.351-36.164c2.654-4.613,5.159-9.324,7.476-14.115
		c4.25-8.785,5.186-17.805,1.341-27.037c-4.42-10.61-6.044-21.743-6.45-33.16c-0.306-8.605-2.214-17.106-3.195-25.536
		c-3.223-27.711-6.102-55.79,9.639-81.615c7.956-13.052,14.208-27.155,22.365-40.066c8.459-13.388,13.968-27.156,12.509-43.224
		c-2.592-28.536,8.661-52.125,27.006-72.756c12.179-13.695,21.667-28.163,25.145-46.78c1.641-8.786,7.158-17.163,12.166-24.92
		c5.286-8.188,8.403-16.468,7.707-26.231c-0.528-7.413,0.917-14.395,3.978-21.346c2.062-4.679,3.424-10.374,2.888-15.376
		c-4.081-38.054,14.775-68.06,33.751-98.028c3.547-5.604,7.901-10.741,12.225-15.801c11.773-13.776,21.785-28.588,28.32-45.614
		c3.671-9.565,10.216-17.141,17.662-23.922c9.349-8.516,18.355-17.557,28.523-24.984c10.64-7.773,13.924-21.093,24.136-28.993
		c4.706-3.642,8.361-8.61,12.851-12.572c9.998-8.819,18.473-18.753,26.69-29.349c9.259-11.938,21.33-21.908,33.076-31.65
		c14.852-12.316,30.74-23.373,45.927-35.298c8.981-7.053,16.243-15.49,20.461-26.533c10.327-27.033,32.287-43.506,55.403-58.367
		c5.818-3.741,13.802-4.114,22.274-6.441c0.651-0.915,2.73-2.831,3.579-5.19c7.976-22.186,23.652-38.54,41.233-53.001
		c37.43-30.788,78.508-54.627,126.397-65.824c17.397-4.067,34.179-10.884,51.096-16.858c18.202-6.427,36.257-13.272,54.331-20.057
		c15.305-5.745,31.441-6.127,47.336-6.305c26.794-0.3,52.955-5.24,79.388-8.364c35.263-4.167,68.754-15.646,103.174-23.23
		c18.34-4.042,36.579-6.892,55.357-6.284c7.99,0.259,15.998-0.079,23.993,0.073c10.722,0.203,21.308,0.629,29.916-7.834
		c2.206-2.169,5.875-3.255,9.066-3.955c27.333-6,54.637-12.259,82.917-5.884c5.113,1.153,10.606,0.8,15.925,0.818
		c22.663,0.077,45.33-0.232,67.986,0.156c9.92,0.171,19.873,1.302,29.705,2.721c5.537,0.799,10.328,0.418,15.354-2.194
		c26.053-13.538,53.873-18.475,83.113-17.404c19.273,0.706,38.614-0.854,57.405,5.639c4.635,1.602,10.296,0.239,16.547,0.239
		c0.655-4.158,1.249-7.917,1.84-11.675c1.033-6.575,1.024-13.537,3.299-19.649c5.952-15.998,6.667-32.497,6.593-49.183
		c-0.015-3.292,0.31-6.837-0.755-9.827c-4.138-11.63-2.979-23.666-3.725-35.601c-0.967-15.495,4.382-28.341,12.931-40.926
		c29.343-43.197,61.54-83.761,104.065-116.493c0-13.103,0.293-26.386-0.081-39.652c-0.378-13.373,3.166-24.729,13.309-34.09
		c4.811-4.44,8.221-10.376,12.402-15.524c9.468-11.662,19.772-21.966,34.989-20.71c13.54-11.961,25.98-22.923,38.389-33.92
		c7.787-6.901,16.876-10.623,27.244-10.917c15.88-0.453,31.9-2.958,47.135,4.583c5.275,2.611,10.677,0.759,14.281-3.945
		c12.315-16.072,29.629-18.94,48.202-18.746c5.998,0.063,12.115-0.652,17.963,0.299c6.421,1.043,13.91,1.998,18.599,5.84
		c9.073,7.435,19.119,9.333,29.837,8.881c8.885-0.374,15.008,3.333,21.065,9.169c24.6,23.704,33.915,38.292,46.012,73.758
		c6.725,3.567,14.191,1.396,21.354,2.05c7.93,0.725,15.866,1.403,23.779,2.277c9.546,1.055,17.667,5.101,25.166,11.175
		c9.774,7.917,19.789,15.145,33.498,15.815c5.403,0.265,11.394,4.066,15.729,7.848c14.038,12.249,27.863,24.815,40.884,38.126
		c5.934,6.065,10.146,13.957,14.471,21.409c3.216,5.542,7.059,9.48,13.521,10.683c19.427,3.615,33.518,15.629,46.136,29.779
		c8.857,9.933,17.646,19.941,26.158,30.17c9.741,11.705,14.804,25.156,13.873,40.602c-0.16,2.656,0.086,5.333,0.006,7.996
		c-0.199,6.675,3.139,10.65,8.544,14.53c13.432,9.641,26.277,20.109,39.22,30.416c5.354,4.265,9.184,9.804,10.122,16.72
		c1.146,8.458,5.821,14.624,11.703,20.297c3.35,3.23,6.425,6.769,9.399,10.353c5.177,6.238,8.338,13.067,9.514,21.477
		c2.022,14.471,5.554,28.743,8.755,43.031c0.854,3.813,2.807,7.377,4.257,11.059c12.228,1.706,23.986,3.345,35.944,5.013
		c0.403-0.181,1.288-0.282,1.579-0.752c10.147-16.334,25.355-18.953,43.17-17.686c22.886,1.627,44.759,6.466,65.645,15.748
		c10.669,4.741,20.91,4.831,32.746,3.29c27.635-3.596,55.683-5.439,83.237,2.558c5.646,1.638,11.759,2.619,17.607,2.427
		c21.558-0.704,42.497,2.187,62.986,8.849c5.057,1.645,10.353,2.541,15.476,3.997c6.111,1.737,11.936,1.56,17.081-2.465
		c7.943-6.212,17.154-6.158,26.586-6.298c41.519-0.617,76.054,16.259,107.062,42.167c3.573,2.987,6.93,6.235,10.411,9.335
		c6.206,5.525,13.373,8.52,21.781,8.652c16.204,0.255,31.454,4.399,46.49,10.413c8.53,3.412,18.469,3.418,26.83,7.102
		c9.918,4.369,19.869,7.325,30.542,8.325c9.241,0.865,18.479,2.533,27.714,2.499c9.569-0.036,18.525,1.734,27.237,5.245
		c16.746,6.748,32.74,14.835,46.81,26.389c5.143,4.223,10.509,8.204,15.996,11.968c13.229,9.076,27.051,16.624,43.188,19.738
		c12.382,2.389,24.669,5.772,36.593,9.887c9.359,3.229,18.41,7.707,27.028,12.628c8.649,4.941,16.565,11.16,24.854,16.74
		c10.51,7.075,21.438,12.478,34.095,15.729c14.001,3.596,27.546,10.039,40.345,16.981c17.532,9.511,34.359,20.372,51.147,31.182
		c19.038,12.258,38.618,23.944,56.286,37.99c20.806,16.539,43.301,30.683,63.521,48.17c19.15,16.562,37.712,33.605,56.176,50.891
		c19.723,18.464,34.891,40.188,49.461,62.517c4.758,7.292,10.103,13.483,17.089,19.062c16.039,12.809,26.758,29.425,29.183,50.493
		c0.223,1.925,1.129,3.77,2.029,6.648c23.678,6.975,39.066,25.874,56.044,42.608c8.058,7.942,14.042,17.23,18.986,27.77
		c7.034,14.994,16.249,28.93,21.943,44.701c4.051,11.219,9.485,21.935,13.778,33.077c1.383,3.588,1.49,7.818,1.513,11.758
		c0.131,22.662,0.336,45.33-0.091,67.984c-0.149,7.92-1.713,15.866-3.199,23.693c-1.547,8.146-0.731,15.545,2.732,23.263
		c7.896,17.588,14.978,35.541,22.601,53.852c39.491,19.968,55.193,54.964,58.46,97.273c0.662,8.574,0.096,17.243,0.096,26.261
		c7.484,3.478,14.113,6.463,20.659,9.618c19.78,9.533,39.534,18.698,55.454,34.875c12.014,12.206,18.068,26.479,19.466,42.61
		c1.318,15.217,0.761,30.643,0.264,45.953c-0.328,10.151-3.681,19.716-10.382,27.59c-6.898,8.107-14.41,15.694-21.309,23.801
		c-2.916,3.429-6.617,7.416-7.077,11.477c-1.301,11.469-7.742,19.68-14.914,27.615c-7.143,7.903-14.64,15.485-23.34,24.638
		c-0.076,7.751-0.309,17.021-0.214,26.29c0.085,8.394-2.408,15.685-8.053,21.937c-7.14,7.906-14.388,15.727-21.249,23.871
		c-10.287,12.21-23.846,16.544-39.098,16.562c-21.265,0.023-42.528-0.352-64.291-0.561c-7.785,8.845-15.61,18.726-24.476,27.565
		c-12.5,12.465-27.353,20.337-45.3,23.285c-25.678,4.219-51.236,8.346-76.725,5.84c-8.313,9.735-15.885,18.804-23.685,27.672
		c-6.407,7.284-14.76,10.965-24.196,12.924c-32.073,6.661-63.676,3.593-94.904-4.735c-5.518-1.472-10.476-5.521-15.324-8.905
		c-5.995-4.185-11.238-9.528-17.456-13.299c-16.822-10.206-30.437-23.802-42.145-39.283c-10.035-13.27-19.396-27.067-28.637-40.911
		c-6.3-9.439-11.621-19.28-10.735-31.495c0.251-3.469-1.665-8.343-4.288-10.575c-20.001-17.019-28.68-41.426-41.482-63.054
		c-4.128-6.972-8.417-13.371-14.051-19.115c-24.476-24.953-26.004-29.328-25.455-63.599c0.263-16.436,2.793-31.745,15.7-43.633
		c2.77-2.552,4.415-6.326,6.772-9.826c-1.984-1.827-3.354-4.19-4.732-4.196c-29.381-0.106-57.883-7.948-87.361-10.286
		c-4.322,6.928-3.043,15.969-9.894,21.602c-5.545,4.561-10.097,10.332-15.029,15.503c1.407,1.572,2.178,3.247,3.079,3.321
		c26.294,2.191,42.918,19.469,58.653,37.843c2.904,3.391,4.805,8.143,5.813,12.574c5.491,24.132,8.439,48.568,6.826,73.366
		c-0.207,3.166-1.226,6.572-2.825,9.308c-10.496,17.948-24.081,33.315-39.979,46.667c-3.572,2.999-7.113,6.045-10.81,8.889
		c-31.209,24.02-32.279,19.897-64.426,19.991c-11.852,0.034-21.955-4.516-30.213-13.257c-10.953-11.596-22.331-22.792-33.166-34.494
		c-9.234-9.973-14.496-21.628-16.88-35.405c-3.45-19.937-3.082-39.84-2.66-59.791c0.105-4.983,2.271-10.483,5.054-14.718
		c3.982-6.06,9.446-11.138,14.197-16.706c2.863-3.355,5.572-6.842,9.5-11.686c-13.105-1.812-24.141-3.338-35.193-4.866
		c-9.647-8.471-19.26-16.672-28.597-25.174c-10.78-9.815-17.29-21.997-18.138-36.675c-0.805-13.939-1.41-27.916-1.267-41.867
		c0.044-4.32,1.869-9.345,4.517-12.787c10.706-13.916,25.09-23.691,39.794-32.862c2.583-1.611,6.379-1.611,9.637-1.737
		c6.656-0.257,13.331-0.004,19.994-0.14c3.309-0.068,7.241,0.527,9.806-1.001c10.109-6.023,21.269-6.835,34.228-6.386
		c-1.346-4.72-1.391-8.228-3.136-10.316c-3.815-4.566-8.559-8.347-12.809-12.563c-11.326-11.232-22.605-22.512-33.877-33.799
		c-5.84-5.849-8.6-12.923-10.35-21.084c-3.235-15.08-5.35-30.121-4.595-45.545c0.191-3.929,0.028-7.876,0.028-12.735
		c-4.762-0.859-8.462-1.647-12.196-2.18c-12.481-1.78-25.178-2.604-37.398-5.468c-9.543-2.236-18.331-2.333-27.273,1.298
		c-6.061,2.461-12.111,4.948-18.267,7.464c0,14.264-0.58,27.528,0.135,40.724c1.102,20.361-2.983,39.389-10.024,58.499
		c-8.964,24.329-16.129,49.346-23.353,74.276c-2.367,8.17-2.869,16.96-3.564,25.521c-1.131,13.919-1.201,27.939-2.721,41.806
		c-0.962,8.781-0.592,17.145,1.328,25.715c8.047,35.893,12.118,72.194,10.986,109.05c-0.229,7.456-0.741,14.536-5.485,20.424
		c19.867,52.601,22.69,106.961,22.295,161.794c-0.096,13.288-3.485,25.156-13.245,34.362c-5.7,5.376-8.271,11.598-9.506,19.127
		c-2.257,13.756-5.228,27.394-7.913,41.078c-0.899,4.578-1.219,9.388-2.875,13.678c-6.493,16.818-11.842,33.807-13.37,51.961
		c-0.624,7.401-5.088,13.524-10.651,18.74c-6.295,5.9-12.191,12.225-17.687,17.782c-0.322,3.104-0.889,5.124-0.672,7.056
		c1.193,10.653-2.712,19.174-9.306,27.447c-7.783,9.768-7.146,13.469,1.993,22.063c4.32,4.063,9.245,7.65,14.358,10.672
		c25.016,14.782,43.563,34.754,52.249,63.059c3.316,10.812,7.397,21.394,10.571,32.243c4.593,15.703,12.194,29.566,24.237,40.653
		c10.958,10.087,18.937,22.161,26.241,35c28.765,50.548,50.249,104.287,70.145,158.727c13.782,37.713,31.383,73.468,54.215,106.515
		c13.333,19.295,24.662,39.662,32.829,61.561c12.354,33.13,27.352,65.026,42.465,96.934c16.762,35.389,25.918,72.55,23.998,112.153
		c-0.639,13.188-4.183,24.481-12.27,35.024c-14.294,18.631-30.12,35.554-49.307,49.19c-1.609,1.145-3.476,1.932-5.445,3.006
		c4.813,7.153,9.308,12.196,11.902,18.08c3.752,8.508,5.884,17.604,5.495,27.188c-0.377,9.272-0.082,18.572-0.082,27.675
		c10.871,7.021,21.077,9.2,32.845,5.405c16.834-5.429,34.343-3.446,51.586-2.663c9.544,0.434,17.877,5.102,25.043,11.415
		c5.831,5.139,12.38,7.208,20.174,6.659c23.241-1.635,46.537-2.588,69.739-4.634c6.384-0.563,12.72-3.568,18.699-6.286
		c5.421-2.464,10.505-5.806,15.43-9.205c19.376-13.373,41.26-17.938,64.257-18.472c24.076-0.558,47.914,0.884,70.863,9.291
		c3.695,1.354,7.965,1.127,11.674,2.455c5.569,1.995,11.571,3.805,16.179,7.291c19.622,14.843,34.373,33.359,40.071,57.916
		c3.305,14.243,6.293,28.561,9.974,45.35c1.613,1.306,4.875,4.661,8.761,6.968c25.114,14.904,43.142,37.396,62.554,58.347
		c8.426,9.094,12.854,20.148,11.66,32.956c-0.246,2.643-0.246,5.349,0.004,7.992c2.637,27.958-8.347,50.778-27.146,70.307
		c-6.65,6.91-11.968,13.979-13.926,23.605c-0.736,3.623-3.083,7.359-5.704,10.068c-5.534,5.721-11.57,10.995-17.703,16.088
		c-6.258,5.195-13.416,7.977-21.765,8.974c-16.898,2.018-26.447,10.588-29.943,27.085c-6.945,32.768-30.333,50.573-58.141,63.701
		c-11.393,5.38-23.34,9.301-33.756,16.839c-9.371,6.783-20.178,9.979-31.992,9.282c-8.63-0.508-17.518,0.551-25.872-1.146
		c-14.389-2.922-28.33-7.695-39.251-18.436c-0.947-0.932-2.152-1.613-3.041-2.591c-22.242-24.495-48.076-16.385-72.863-5.001
		c-8.432,3.872-16.378,9.422-25.194,11.712c-21.716,5.643-40.63,15.77-57.907,29.933c-12.883,10.562-27.095,19.239-42.879,25.224
		c-11.189,4.242-22.155,9.141-32.987,14.244c-21.03,9.911-43.027,9.167-64.415,3.695c-20.558-5.262-40.375-13.495-60.368-20.834
		c-4.2-1.542-7.976-4.591-11.531-7.46c-4.599-3.709-8.78-7.937-13.56-12.324c-2.53,2.279-4.585,3.827-6.28,5.702
		c-15.313,16.938-33.925,29.837-51.941,43.601c-18.75,14.322-39.375,19.021-62.038,16.224
		c-38.349-4.734-76.283-11.707-113.377-22.804c-12.4-3.709-22.484-10.678-32.138-19.339c-20.808-18.668-35.769-39.814-43.21-67.669
		c-5.575-20.869-8.838-41.466-9.938-62.785c-0.581-11.266-2.352-22.472-3.606-33.701c-0.627-5.615-3.856-9.372-7.86-13.303
		c-18.524-18.191-36.678-36.762-54.812-55.345c-7.149-7.325-11.345-16.449-13.772-26.264c-2.549-10.297-4.563-20.726-7.039-32.152
		c-9.612-3.889-20.412-3.14-30.712-4.13c-10.809-1.04-20.848-3.22-30.615-8.057c-5.844-2.896-12.459-4.471-18.894-5.887
		c-10.728-2.363-20.147-6.756-27.547-15.062c-8.854-9.938-18.196-19.48-26.507-29.852c-9.753-12.171-20.291-22.573-35.589-27.869
		c-6.667-2.308-12.403-7.489-18.323-11.703c-3.688-2.623-6.93-5.877-11.432-9.765c-2.137,6.98-3.728,12.578-5.57,18.091
		c-1.896,5.669-2.884,12.097-6.264,16.738c-18.826,25.845-29.573,56.542-49.629,81.642c-5.785,7.24-10.565,15.375-15.133,23.479
		c-11.258,19.974-25.772,37.194-42.95,52.238c-9.039,7.916-16.777,16.735-24.013,26.479c-14.822,19.964-32.682,37.268-57.015,45.308
		c-29.774,9.838-60.094,17.249-91.883,16.685c-10.182-0.18-19.921-1.499-29.139-5.723c-13.871-6.354-28.605-11.206-39.944-22.126
		c-4.068-3.916-8.886-5.879-14.474-5.587c-12.952,0.678-24.9-3.205-37.023-7.101c-8.133-2.614-16.826-4.558-25.321-4.773
		c-28.048-0.712-53.656-10.604-78.341-21.914c-23.357-10.702-41.468-29.16-54.945-50.999c-8.076-13.088-16.102-26.038-26.176-37.637
		c-8.552-9.846-13.945-21.103-15.447-34.044c-1.417-12.222-5.612-23.392-12.873-33.161c-12.13-16.321-16.271-34.68-15.645-54.595
		c0.314-9.989,0.216-19.996,0.076-29.992c-0.188-13.426,4.59-24.643,14.183-33.99c5.702-5.558,11.142-11.384,16.921-17.316
		c0-12.996-0.654-25.683,0.16-38.273c1.115-17.245,2.964-34.469,5.233-51.604c1.521-11.484,7.333-20.912,15.265-29.651
		c19.663-21.664,43.099-37.689,69.987-48.573c12.035-4.87,22.217-11.593,31.085-21c12.043-12.777,26.519-22.55,42.917-28.586
		c43.322-15.945,87.726-27.184,134.295-27.32c6.628-0.019,13.254,0.996,19.888,1.435c10.985,0.727,20.976,4.217,29.116,11.661
		c7.423,6.789,15.842,9.319,25.664,8.367c3.3-0.319,6.664,0.087,9.992-0.022c8.488-0.277,15.519,3.149,21.835,8.425
		c1.532,1.28,3.106,2.571,4.371,4.097c10.704,12.909,23.196,21.791,41.186,19.893c3.058-0.322,6.913,0.883,9.454,2.703
		c12.943,9.263,27.81,15.665,38.949,27.679c12.227,13.186,25.315,25.57,38.079,38.252c2.756,2.736,5.734,5.249,8.406,7.68
		c5.127-2.532,3.321-6.135,2.774-8.867c-5.912-29.52-14.394-57.925-30.673-83.886c-14.846-23.676-27.844-48.514-41.535-72.907
		c-2.929-5.218-5.679-10.59-7.935-16.125c-12.059-29.595-23.89-59.28-35.896-88.895c-4.253-10.487-8.637-20.926-13.212-31.275
		c-8.624-19.508-24.418-32.971-39.839-46.721c-18.231-5.947-29.572-19.455-38.761-35.324
		c-21.683-19.343-32.136-45.309-42.214-71.505c-0.713-1.853-1.75-3.591-2.743-5.321c-0.298-0.518-0.958-0.827-2.448-2.046
		c-9.53-0.575-20.113-1.23-30.7-1.848c-10.721-0.625-20.635-3.876-30.833-7.311c-25.818-8.698-52.155-15.881-78.362-23.397
		c-28.026-8.038-53.036,0.783-75.086,16.946c-12.183,8.929-24.286,12.968-38.733,12.293c-3.326-0.155-6.674,0.143-9.996-0.05
		c-10.302-0.595-19.77,0.379-26.986,9.389c-2.285,2.853-6.649,4.131-10.19,5.868c-8.063,3.955-11.804,10.306-11.249,19.258
		c0.165,2.658,0.005,5.344,0.268,7.989c1.379,13.856-0.721,26.325-12.467,35.745c-3.016,2.419-5.155,6.117-7.201,9.525
		c-11.998,19.984-23.535,40.254-35.898,60.008c-5.137,8.208-4.451,16.446-3.253,25.039c2.802,20.095,1.34,39.773-4.546,59.25
		c-3.152,10.433-7.885,19.707-15.371,27.642c-8.687,9.207-17.318,18.47-25.776,27.887c-5.333,5.935-10.854,11.818-15.346,18.372
		c-25.948,37.864-58.084,69.556-96.379,94.579c-20.22,13.212-37.682,29.6-56.493,44.416c-3.026,2.384-5.745,5.739-7.365,9.223
		c-6.729,14.47-14.255,28.752-19.108,43.867c-6.927,21.571-12.11,43.654-26.007,62.273c-1.613,2.161-2.042,5.586,1.112,6.762
		c2.049,0.765,5.414,0.393,7.157-0.881c4.817-3.521,9.316-7.562,13.532-11.802c6.507-6.545,14.077-8.894,23.317-9.137
		c19.654-0.517,38.471,3.264,56.881,9.373c4.816,1.598,9.302,4.929,13.23,8.293c5.916,5.063,11.206,10.854,17.729,17.291
		c-0.451-15.636-1.193-29.31-1.1-42.976c0.049-7.271,1.618-14.523,2.374-21.798c1.227-11.81,8.771-19.486,18.137-24.794
		c15.891-9.007,33.11-14.05,51.674-11.277c4.454,0.664,8.921,2.479,12.921,4.624c5.263,2.821,10.318,6.175,15.02,9.864
		c8.059,6.323,16.433,9.564,27.208,9.711c19.94,0.271,40.097,21.648,41.191,41.982c0.536,9.971,0.139,19.992,0.143,29.989
		c0.006,17.997-0.252,35.998,0.074,53.989c0.244,13.447-4.442,24.519-13.417,34.377c-20.238,22.229-26.593,25.365-57.464,25.441
		c-11.304,0.028-22.609-0.767-33.916-1.151c-13.803-0.47-26.131-4.679-36.085-14.764c-4.167,6.252-7.495,12.442-11.974,17.64
		c-4.753,5.514-10.449,10.26-16.01,15.018c-5.563,4.761-11.266,9.418-17.316,13.518c-2.565,1.737-6.151,2.611-9.31,2.711
		c-11.284,0.359-22.698,1.215-33.259-4.379c-2.327-1.232-4.99-2.843-7.415-2.712c-16.92,0.906-26.496-10.563-36.647-21.149
		c-3.569-3.721-7.065-7.511-11.513-12.246c-15.222,16.227-32.971,25.969-54.043,30.066c-4.741,16.48-16.439,27.366-29.58,36.549
		c-13.662,9.547-30.252,8.717-46.638,9.84c-1.825,4.788-3.75,8.948-5.011,13.301c-5.74,19.825-10.954,39.811-17.116,59.5
		c-1.955,6.25-1.85,11.603,0.764,17.276c3.729,8.096,3.855,16.708,4.02,25.435c0.34,18.04-0.594,35.931-3.798,53.717
		c-2.397,13.305-6.856,25.628-14.797,36.726c-15.334,21.432-33.547,39.53-57.109,51.948c-8.388,4.42-16.75,8.174-26.466,7.703
		c-7.546-0.365-15.095,0.897-20.88,5.521c-11.968,9.566-26.658,11.587-40.451,16.123c-3.128,1.028-6.715,0.716-9.792,1.838
		c-25.926,9.452-52.962,11.438-80.204,13.749c-47.708,4.045-94.435,1.948-139.775-14.845c-3.747-1.387-7.653-2.469-11.191-4.271
		c-14.903-7.588-29.857-9.15-46.322-4.398c-10.694,3.088-22.389,3.131-33.675,3.642c-17.075,0.772-17.091,0.44-31.758-8.218
		c-40.686,14.058-82.585,11.466-124.445,9.254c-8.329-0.439-15.398-3.699-21.004-10.109c-3.504-4.008-7.165-7.939-11.178-11.417
		c-2.379-2.062-5.543-4.395-8.423-4.487c-9.914-0.317-17.874-5.223-25.743-10.077c-21.028-12.973-42.682-24.598-65.977-32.997
		c-1.246-0.449-2.414-1.127-3.592-1.746c-18.284-9.618-37.307-16.761-57.44-22.096c-25.203-6.677-48.441-18.459-68.127-36.396
		c-4.264-3.884-9.813-6.864-15.283-8.826c-18.153-6.509-36.486-12.534-54.855-18.415c-14.092-4.511-23.324-15.012-32.522-25.56
		c-1.615-1.853-2.652-4.814-2.725-7.3c-0.313-10.651-0.476-21.33,0.009-31.966c0.135-2.954,2.394-5.992,4.193-8.644
		c2.195-3.237,4.93-6.105,7.848-9.639c-6.001-14.014-5.472-28.669-5.34-43.29c0.036-3.999,0.176-8.019-0.169-11.992
		c-0.738-8.532-4.501-14.791-12.717-18.698c-18.185-8.65-30.289-22.833-38.318-41.429c-8.059-18.663-13.373-37.386-12.125-57.979
		c0.545-8.996,2.602-16.735,7.539-24.269c13.206-20.146,28.623-38.504,45.31-55.712c11.091-11.438,23.074-22.132,35.476-32.146
		c14.943-12.067,32.227-17.427,51.866-17.367c42.983,0.132,84.911,6.656,125.999,18.655c20.479,5.98,40.218,14.193,57.466,27.129
		c6.887,5.164,13.185,11.203,19.266,17.324c5.491,5.525,11.18,6.739,17.95,2.992c2.332-1.291,4.851-2.361,6.918-3.995
		c13.042-10.303,27.976-14.955,44.423-15.452C877.484,3330.922,879.33,3329.993,882.521,3329.093z"/>
	<path fill-rule="evenodd" d="M3635.695,3037.493c-1.791-1.012-2.867-2.002-4.098-2.261c-23.418-4.938-39.879-20.125-55.686-36.755
		c-7.817-8.224-12.287-17.097-12.277-28.422c0.021-24.652-0.13-49.304-0.22-73.956c-0.066-17.983,0.315-35.985-0.469-53.937
		c-0.278-6.379-2.461-13.125-5.444-18.831c-4.821-9.22-6.385-18.642-6.383-28.858c0.003-20.014-0.112-39.817,7.151-59.093
		c3.237-8.59,3.315-18.318,5.488-27.372c6.071-25.306,13.701-50.079,26.588-72.928c0.923-1.637,1.13-3.676,1.925-6.407
		c-2.893-0.537-5.336-1.388-7.775-1.379c-13.915,0.048-26.295-3.847-36.36-13.782c-4.099-4.046-9.217-4.755-14.574-5.531
		c-32.146-4.653-59.388-18.561-81.117-43.033c-5.097-5.739-8.511-11.856-8.618-19.582c-0.188-13.321-0.617-26.648-0.345-39.961
		c0.194-9.578,4.651-17.957,9.438-26.015c4.081-6.869,8.817-13.375,12.539-20.425c4.029-7.636,7.166-15.72,2.245-25.159
		c-7.793-1.943-15.775-1.022-23.643-1.116c-13.328-0.157-26.658-0.161-39.985-0.042c-5.652,0.051-10.36-1.711-14.427-5.629
		c-8.168-7.869-16.195-15.751-21.424-26.111c-5.998-11.889-13.024-23.278-18.658-35.327c-10.253-21.925-15.687-45.178-16.715-69.385
		c-0.282-6.653,0.512-13.384-0.149-19.981c-2.522-25.205,5.707-47.28,19.536-67.582c4.449-6.53,10.37-12.075,15.784-17.917
		c1.304-1.407,3.272-3.14,4.927-3.13c13.144,0.081,23.345-9.853,36.041-10.578c13.952-0.797,27.957-0.747,41.941-0.901
		c2.627-0.028,5.47,0.214,7.863,1.19c25.11,10.246,51.671,17.716,69.756,40.509c8.977,11.315,15.856,22.35,14.904,37.736
		c-1.069,17.262,0.263,34.66-0.462,51.958c-0.386,9.19-0.901,19.315-4.915,27.21c-7.167,14.098-4.275,28.264-5.874,43.664
		c24.946-8.601,48.814-8.359,72.618-4.224c9.04,1.57,17.648,5.676,26.426,8.702c5.615,1.935,11.136,4.145,16.777,5.991
		c8.993,2.944,16.675,7.649,23.792,14.077c10.457,9.445,16.153,20.81,18.24,34.5c2.309,15.135,5.881,30.126,7.323,45.329
		c1.695,17.862,1.308,35.915,2.605,53.829c0.537,7.409-5.938,11.111-8.312,17.885c3.085,0.221,5.278,1.073,6.695,0.368
		c13.073-6.514,26.153-13.046,38.896-20.174c3.251-1.819,5.354-5.734,7.9-8.76c5.991-7.118,11.964-14.252,17.885-21.429
		c12.465-15.11,29.09-23.337,47.733-27.073c14.96-2.996,30.24-5.249,45.46-5.892c21.563-0.909,41.888-4.905,61.946-13.383
		c39.624-16.748,81.305-24.77,124.416-25.538c35.433-0.631,70.501,3.364,105.51,7.786c15.176,1.918,29.967,6.191,43.749,13.335
		c3.478,1.802,7.32,3.979,11.037,4.062c21.997,0.491,39.847,10.985,55.636,24.438c14.621,12.458,27.625,26.874,40.864,40.879
		c9.447,9.992,14.223,22.479,15.451,36.093c1.18,13.077,6.405,23.309,15.248,33.524c13.073,15.106,26.526,29.685,40.614,43.833
		c17.037,17.108,29.741,37.55,40.906,58.846c7.232,13.794,10.187,28.915,10.448,44.347c0.251,14.726,2.281,29.063,4.897,43.549
		c6.498,35.996,4.955,71.616-9.787,105.719c-4.047,9.359-5.945,18.933-6.872,28.947c-1.473,15.896-3.116,31.784-5.184,47.611
		c-0.714,5.476-0.209,10.413,1.44,15.626c9.84,31.103,5.369,60.714-11.283,88.229c-11.397,18.83-23.088,37.368-30.537,58.243
		c-1.317,3.692-3.713,7.071-5.97,10.348c-21.232,30.83-45.117,59.419-73.021,84.441c-19.822,17.774-39.494,35.812-60.363,52.303
		c-41.537,32.822-89.815,44.92-142.09,43.112c-1.323-0.046-2.729-0.088-3.946-0.538c-20.522-7.59-43.007-9.245-62.286-20.61
		c-2.862-1.687-5.793-3.362-8.887-4.532c-22.492-8.504-44.029-18.664-62.924-33.92c-6.39-5.159-14.278-6.921-22.521-6.907
		c-19.876,0.03-37.93-6.195-54.76-16.336c-8.639-5.206-17.733-9.147-27.632-11.17c-1.958-0.399-4.029-0.547-5.844-1.301
		c-17.862-7.428-36.196-12.603-55.455-15.531c-7.914-1.204-16.071-6.868-22.189-12.573c-13.107-12.223-24.904-25.844-37.345-38.791
		c-10.612-11.043-20.942-22.407-32.164-32.801c-18.425-17.066-30.759-38.42-43.014-59.752
		C3640.145,3055.794,3638.76,3046.884,3635.695,3037.493z"/>
	<path fill-rule="evenodd" d="M1882.239,353.792c-11.426,42.18-38.66,72.335-72.73,97.223c-4.094,2.991-9.646,4.153-14.677,5.639
		c-3.804,1.124-7.855,1.411-11.795,2.076c-3.269,0.551-6.537,1.11-10.375,1.763c-2.588,3.627-5.603,7.167-7.852,11.14
		c-6.032,10.658-14.625,18.863-24.05,26.387c-10.397,8.301-20.711,16.705-31.062,25.064c-0.518,0.418-1.071,0.799-1.554,1.254
		c-24.862,23.478-54.95,28.003-87.284,23.685c-4.416-0.59-9.398-2.286-12.677-5.131c-15.094-13.103-27.75-28.043-32.244-48.356
		c-0.552-2.497-1.465-5.363-3.187-7.072c-7.391-7.334-7.825-16.472-7.764-25.956c0.113-17.289,0.032-34.58,0.032-51
		c-13.783-17.687-26.616-34.612-39.979-51.108c-6.586-8.131-9.204-16.703-9.906-27.292c-1.77-26.71,6.716-49.724,21.69-70.972
		c15.057-21.364,26.544-44.448,34.683-69.285c12.268-37.444,37.587-63.879,71.592-82.252c10.72-5.791,20.255-12.471,28.701-21.168
		c12.334-12.699,26.935-21.544,44.788-24.332c3.244-0.507,6.491-1.495,9.525-2.767c21.417-8.977,43.865-10.091,66.64-9.172
		c10.969,0.442,20.92,3.234,29.446,10.529c7.068,6.049,14.535,11.633,21.591,17.696c9.549,8.205,25.675,10.729,36.843,3.798
		c14.228-8.83,29.513-11.464,45.759-11.254c12.628,0.162,25.205-0.358,37.631,3.37c4.813,1.444,10.453,0.278,15.708,0.084
		c15.289-0.566,30.571-1.334,45.861-1.834c7.666-0.25,14.287,2.167,19.531,8.184c3.929,4.509,8.568,8.401,12.479,12.923
		c6.709,7.756,9.937,16.324,10.097,27.212c0.621,42.206-18.829,73.934-50.38,99.277c-8.579,6.892-15.853,13.648-19.282,24.374
		c-1.579,4.938-4.503,9.673-7.708,13.813c-4.965,6.416-9.028,13.098-11.123,20.992c-3.222,12.143-11.403,20.929-20.542,28.824
		c-2.895,2.502-6.697,5.037-10.318,5.434c-18.261,2.007-31.289,13.895-45.621,23.288
		C1896.13,343.193,1889.945,348.147,1882.239,353.792z"/>
</g>
</svg>
