<?xml version="1.0" encoding="utf-8"?>
<!-- Generator: Adobe Illustrator 16.0.2, SVG Export Plug-In . SVG Version: 6.00 Build 0)  -->
<!DOCTYPE svg PUBLIC "-//W3C//DTD SVG 1.1 Tiny//EN" "http://www.w3.org/Graphics/SVG/1.1/DTD/svg11-tiny.dtd">
<svg version="1.1" baseProfile="tiny" id="Layer_1" xmlns="http://www.w3.org/2000/svg" xmlns:xlink="http://www.w3.org/1999/xlink"
	 x="0px" y="0px" width="4361.455px" height="3983.502px" viewBox="0 0 4361.455 3983.502" xml:space="preserve">
<g>
	<path fill-rule="evenodd" fill="#FFFFFF" d="M4366.878,3991.5c-1454.105,0-2908.416,0-4362.803,0c0-1328.957,0-2657.915,0-3987.186
		c1454.025,0,2908.127,0,4362.803,0C4366.878,1333.166,4366.878,2662.333,4366.878,3991.5z M721.959,979.098
		c-42.828,7.018-31.463,0.86-62.412,33.457c-3.814,4.017-7.656,6.944-13.023,8.54c-12.418,3.692-22.484,11.076-31.245,20.614
		c-8.102,8.82-17.072,16.479-27.576,22.775c-7.76,4.654-15.528,11.485-19.812,19.263c-7.541,13.695-18.994,22.249-31.943,28.767
		c-21.496,10.82-41.468,23.956-61.716,36.79c-20.688,13.113-37.604,29.779-50.375,50.465c-9.404,15.233-17.746,31.123-27.032,47.553
		c-0.814,0.407-2.576,1.333-4.375,2.176c-1.811,0.847-3.681,1.565-5.488,2.417c-29.558,13.92-51.056,35.636-63.764,65.877
		c-2.064,4.912-4.495,9.675-6.408,14.64c-4.66,12.094-12.304,21.402-22.289,29.962c-14.475,12.411-30.126,24.931-31.344,46.644
		c-0.035,0.621-0.457,1.254-0.802,1.819c-7.293,11.913-13.752,24.45-22.073,35.597c-21.433,28.713-38.059,59.35-42.902,95.422
		c-1.241,9.243-3.153,18.432-3.769,27.711c-0.506,7.621-2.94,13.875-7.182,20.231c-9.968,14.941-19.08,30.454-28.534,45.736
		c-8.648,13.979-12.25,29.391-12.596,45.625c-0.156,7.313,0.812,14.67,0.36,21.951c-0.529,8.524-0.491,17.584-3.459,25.356
		c-6.398,16.75-13.506,33.423-22.333,48.989c-7.291,12.857-10.191,25.839-9,40.088c0.602,7.206,1.879,14.356,3.019,22.761
		c-18.896,21.805-21.463,48.071-14.706,75.882c-2.683,2.94-4.931,5.364-7.137,7.827c-11.535,12.877-18.165,27.358-17.405,45.259
		c0.959,22.588,0.423,45.238,1.235,67.835c0.257,7.147,1.434,14.863,4.514,21.188c7.213,14.808,15.831,28.93,24.324,44.124
		c-7.889,16.047-8.711,33.973-9.066,51.993c-0.118,5.992-0.105,12.039-0.916,17.957c-4.087,29.851-2.842,59.859-3.069,89.829
		c-0.112,14.835,3.115,29.056,7.321,43.173c2.152,7.224,5.104,13.951,11.1,18.551c20.954,16.077,30.346,38.11,33.604,63.488
		c0.338,2.631,0.972,5.253,1.754,7.791c2.384,7.737,5.865,14.818,12.093,20.332c5.983,5.298,11.754,10.835,17.676,16.202
		c6.539,5.928,13.926,10.229,22.793,11.641c12.941,2.059,23.884,7.846,32.801,17.5c10.591,11.466,23.314,17.249,39.264,15.044
		c4.58-0.634,9.342,0.185,13.979-0.181c8.432-0.665,15.688,1.409,22.722,9.261c0,4.573,0.588,10.578-0.12,16.427
		c-1.58,13.049,3.062,23.327,12.438,32.007c2.925,2.707,5.522,5.776,8.176,8.762c8.1,9.111,17.426,16.024,29.333,19.884
		c6.753,2.188,13.25,6.213,18.848,10.681c8.158,6.512,16.716,10.596,27.293,10.518c4.475-0.032,8.958,0.983,14.28,1.624
		c0.975,7.981,2.264,15.177,2.662,22.422c1.211,22.095,5.53,43.602,12.038,64.659c1.936,6.264,3.901,13.578,8.343,17.777
		c8.346,7.892,9.598,16.936,9.169,27.221c-0.165,3.971,0.357,7.973,0.583,11.959c0.508,9.02,3.782,16.519,10.765,22.682
		c15.431,13.622,30.517,27.633,45.755,41.473c0.983,0.893,1.939,1.98,3.119,2.463c4.231,1.729,8.472,4.304,12.857,4.641
		c17.875,1.374,35.815,1.878,53.711,3.014c14.061,0.892,26.463-1.697,35.645-13.661c2.796-3.645,6.501-6.756,10.262-9.452
		c4.237-3.037,8.749-6.776,13.599-7.641c9.73-1.731,17.639-5.775,23.935-13.157c4.775-5.599,10.896-6.837,17.903-6.796
		c9.315,0.055,18.645-0.43,27.949-0.983c9.669-0.575,18.083-4.33,24.98-11.175c5.673-5.632,11.359-11.267,16.732-17.18
		c6.022-6.626,8.652-14.262,8.805-23.594c0.231-14.132-3.502-27.597-4.772-41.366c-2.08-22.561-15.082-34.491-34.764-41.412
		c-4.313-1.517-8.921-2.194-13.338-3.245c-2.27-4.729-3.329-9.808-6.405-12.832c-10.272-10.098-12.535-23.242-14.989-36.275
		c-1.602-8.514-3.73-16.715-6.399-24.99c-3.058-9.479-7.48-18.523-9.952-27.942c-2.15-8.194-4.878-15.039-11.209-20.359
		c-6.65-5.589-9.026-13.041-9.532-21.238c-0.369-5.979-0.279-11.993-0.204-17.989c0.127-10.09-0.102-19.992-6.602-28.63
		c-1.511-2.008-2.33-4.894-2.556-7.456c-1.228-13.857-2.17-27.74-3.404-44.193c17.536-7.36,26.24-28.44,47.663-32.552
		c1.756-0.337,3.268-2.184,4.794-3.446c12.756-10.563,21.485-23.583,23.941-40.232c1.652-11.188,3.741-22.385,4.297-33.645
		c1.217-24.6,1.043-49.273,2.484-73.854c0.958-16.33-3.825-30.172-13.83-42.572c-5.431-6.732-10.777-13.595-16.797-19.779
		c-8.751-8.99-18.079-17.421-27.955-26.851c11.505-12.307,2.901-29.086,8.389-42.743c2.517-1.304,4.256-2.956,6.048-3.016
		c16.222-0.536,26.863-10.245,36.555-21.681c3.876-4.575,8.155-8.842,11.675-13.669c1.841-2.525,3.247-5.903,3.462-8.994
		c1.221-17.504-0.383-34.38-9.743-50.073c-6.771-11.353-12.162-23.531-18.403-35.805c5.83-9.628,11.414-18.55,10.991-29.967
		c-0.583-15.747-1.811-31.495,6.912-46.405c3.697-6.32,2.997-15.213,4.324-23.113c7.141-1.993,13.66-3.395,19.856-5.673
		c4.881-1.794,10.723-3.556,13.766-7.274c8.187-10.003,18.365-11.944,30.265-11.122c9.937,0.687,19.936,0.556,29.908,0.651
		c10.664,0.103,21.357,0.54,31.988-0.053c16.574-0.926,33.5-1.077,46.858-13.63c1.743-1.639,4.883-2.535,7.366-2.514
		c13.762,0.115,25.923-5.549,38.447-9.996c1.784-0.634,3.821-0.555,7.622-1.051c3.054,3.097,6.736,6.833,9.849,9.99
		c-0.398,6.346-0.42,11.007-1.024,15.592c-3.681,27.901-2.733,55.786-0.562,83.745c0.876,11.28,4.31,21.008,13.143,28.013
		c9.967,7.904,12.326,17.925,11.754,30.053c-0.688,14.621-0.225,29.324,0.393,43.964c0.217,5.132,0.804,11.68,3.951,14.97
		c7.334,7.666,7.657,16.576,7.927,25.867c0.256,8.794,0.94,17.743,7.144,24.39c7.137,7.647,10.101,16.858,13.353,26.359
		c3.218,9.404,7.046,18.838,12.202,27.283c7.488,12.269,12.912,24.614,10.882,39.343c-1.11,8.061,2.82,13.943,8.513,19.184
		c5.849,5.384,12.417,10.439,16.741,16.925c7.172,10.754,15.919,19.588,26.316,26.927c3.921,2.768,6.746,5.826,8.753,10.392
		c7.196,16.367,14.984,32.475,23.426,50.557c-11.538,15.447-18.674,34.401-15.655,55.185c-6.118,6.96-11.499,12.869-16.646,18.975
		c-16.908,20.053-27.807,42.238-24.395,69.467c0.496,3.955,0.815,7.972,0.733,11.95c-0.369,17.954-0.451,35.935-1.607,53.843
		c-0.506,7.843-3.017,15.626-5.188,23.274c-2.8,9.863-8.203,17.074-17.782,22.64c-20.135,11.695-39.366,24.97-55.627,42.052
		c-12.81,13.457-20.588,29.058-23.285,47.521c-1.631,11.17-5.007,22.075-6.862,33.223c-1.312,7.886-4.925,13.277-11.872,17.281
		c-14.577,8.401-26.434,20.241-37.953,32.259c-19.67,20.521-30.884,44.655-30.189,73.703c0.19,7.965-0.917,15.953-1.133,23.939
		c-0.362,13.309-5.471,24.432-14.614,33.975c-22.722,23.718-41.15,50.873-58.069,78.662c-11.716,19.243-25.941,34.398-43.609,47.977
		c-30.664,23.563-51.2,53.867-53.104,92.885c-8.457,10.013-16.873,18.673-23.72,28.434c-7.635,10.884-13.82,22.93-14.922,36.502
		c-0.807,9.933-0.224,19.983-0.149,29.98c0.052,6.908,2.005,13.437,6.832,18.324c16.354,16.562,32.08,33.87,53.416,44.597
		c5.813,2.924,11.13,7.097,16.113,11.354c7.988,6.824,15.507,14.197,23.358,21.462c-11.762,33.011-14.268,71.291,4.246,100.248
		c-1.651,2.337-3.392,5.102-5.438,7.617c-2.467,3.034-5.193,5.857-7.228,8.126c-2.436,0.373-3.75,0.752-5.063,0.75
		c-19.983-0.025-39.905,0.234-59.295,6.212c-3.036,0.937-6.623,0.488-9.902,0.155c-9.25-0.941-18.473-2.156-28.39-3.346
		c-2.01-2.258-4.174-4.777-6.432-7.21c-9.963-10.739-19.898-21.505-29.957-32.154c-4.666-4.94-10.136-8.021-17.207-9.138
		c-36.042-5.701-71.626-7.188-105.843,8.752c-2.409,1.122-5.068,1.719-7.449,2.89c-10.452,5.14-21.181,6.41-32.895,5.164
		c-14.528-1.546-29.282-0.841-43.899-1.733c-13.091-0.799-23.388,3.873-31.542,13.841c-9.695,11.854-20.499,22.99-28.776,35.766
		c-12.791,19.737-20.578,41.169-20.485,65.671c0.07,18.501,4.465,35.4,10.362,52.408c2.867,8.268,5.771,16.348,12.708,22.219
		c4.463,3.776,5.202,8.772,5.47,14.352c0.561,11.67-0.448,22.386-9.974,30.912c-8.507,7.615-11.278,17.614-10.207,28.934
		c0.501,5.287-0.279,10.694,0.21,15.982c1.054,11.396,4.029,22.411,11.398,31.35c16.719,20.277,35.133,38.221,62.643,43.14
		c8.725,1.56,15.874,6.567,21.678,13.395c2.151,2.532,4.75,4.677,7.016,7.118c12.254,13.208,27.06,21.133,45.176,23.164
		c11.235,1.261,22.346,3.63,33.505,5.538c11.438,1.957,20.891,6.97,29.629,15.091c13.137,12.208,27.265,23.5,41.876,33.914
		c9.099,6.485,19.353,12.344,29.975,15.513c32.115,9.578,65.184,13.567,98.717,11.373c6.345-0.415,13.387-2.586,18.525-6.196
		c8.243-5.795,17.081-7.52,26.436-7.233c8.59,0.264,17.159,2.831,25.705,2.672c24.294-0.454,43.905,8.912,60.233,26.325
		c6.294,6.712,14.038,9.498,23.371,8.855c16.044-1.104,31.806,1.041,47.581,4.203c14.341,2.874,28.95,4.506,43.493,6.26
		c19.134,2.309,38.441,2.264,57.51,6.185c36.876,7.585,74.042,8.311,111.239,1.505c5.206-0.952,10.613-0.896,15.934-1.128
		c36.75-1.605,70.432-13.264,102.108-31.318c4.588-2.615,9.168-5.661,12.832-9.407c11.17-11.427,22.134-23.08,32.646-35.11
		c3.371-3.858,6.624-8.988,7.195-13.856c0.906-7.727,4.686-13.587,8.169-20.021c6.97-12.872,14.02-25.794,19.666-39.271
		c14.938-35.653,27.176-72.281,37.441-109.561c1.919-6.97,4.139-13.854,5.969-19.946c12.82-3.597,24.651-5.914,35.638-10.332
		c8.105-3.259,15.88-6.252,24.683-7.123c20.411-2.021,35.205-12.898,41.979-32.063c6.186-17.497,19.365-27.818,32.141-38.341
		c12.062,8.751,23.405,16.873,34.622,25.168c5.041,3.728,10.599,4.693,16.743,5.356c21.713,2.34,40.742-5.746,58.983-15.388
		c10.641-5.624,19.135-14.495,19.855-28.087c0.124-2.342,1.342-4.625,2.608-8.732c4.416,5.354,7.517,9.458,10.982,13.227
		c4.057,4.412,8.441,8.522,12.667,12.781c6.899,6.951,15.145,10.646,25.03,10.627c19.998-0.038,39.996-0.166,59.989,0.103
		c7.252,0.098,13.096-2.201,17.524-7.753c7.864-9.859,15.389-19.991,23.342-29.776c4.052-4.985,5.185-10.449,5.292-16.678
		c0.252-14.688-1.126-29.183-2.907-43.755c-1.282-10.495,0.553-21.31-7.353-30.342c-1.841-2.104-1.568-6.32-1.712-9.59
		c-0.265-5.988-0.225-11.997-0.109-17.993c0.107-5.555-1.194-10.658-4.834-14.852c-10.902-12.556-21.793-25.129-33.053-37.359
		c-2.574-2.796-6.424-5.576-10.009-6.084c-18.001-2.553-36.917-3.139-53.004,4.749c-13.821,6.776-26.251,16.795-40.133,24.351
		c-10.123,5.509-18.01,15.647-22.843,27.127c-1.396,3.315-3.915,6.158-5.934,9.241c-25.673-17.758-25.672-17.748-56.36-15.231
		c-4.646,0.382-9.312,0.534-13.954,0.949c-9.549,0.854-17.917,4.062-25.07,10.917c-4.042,3.873-6.96,10.002-14.532,9.843
		c-0.306-2.729-1.12-5.371-0.792-7.863c1.64-12.513-3.643-21.824-12.698-29.796c-4.353-3.833-8.153-8.294-11.843-12.098
		c11.737-22.742,11.725-22.761,30.099-34.494c2.8-1.788,6.099-2.923,8.601-5.033c13.483-11.372,30.615-19.637,34.197-39.642
		c0.325-1.816,2.134-3.332,3.096-5.074c5.47-9.894,10.85-19.836,16.341-29.715c7.76-13.96,14.729-28.454,23.578-41.688
		c16.278-24.349,33.486-48.088,50.682-71.808c12.247-16.895,21.548-35.189,27.985-54.953c1.63-5.006,3.491-10.44,3.087-15.508
		c-1.121-14.079,3.507-26.284,10.657-37.732c4.185-6.701,9.096-13.016,14.201-19.064c20.624-24.439,41.706-48.424,52.335-79.567
		c4.557-13.354,13.211-24.19,23.797-33.976c22.066-20.395,42.926-41.994,52.471-71.714c0.364-1.134,1.682-1.962,2.328-2.678
		c1.723-0.252,3.083-0.791,4.317-0.582c22.535,3.823,45.046,4.088,67.55-0.211c13.576-2.593,26.372-0.751,38.718,5.762
		c21.017,11.087,43.214,16.325,67.296,14.709c22.097-1.483,43.759-3.599,63.9-13.808c3.402-1.724,7.597-3.012,11.312-2.771
		c9.828,0.638,19.594,2.226,29.334,3.429c14.485,49.868,50.018,78.171,95.374,97.408c3.025,9.619,6.099,19.067,8.965,28.579
		c4.224,14.021,8.22,28.11,12.458,42.127c5.738,18.97,16.138,35.035,31.015,48.073c10.017,8.778,20.226,17.356,30.634,25.667
		c11.009,8.792,20.784,18.651,29.048,30.085c9.891,13.685,16.013,29.149,21.564,44.87c10.201,28.88,20.128,57.858,30.293,86.751
		c8.455,24.032,19.455,46.686,35.854,66.492c5.937,7.169,11.1,14.978,16.663,22.458c13.83,18.588,21.721,39.19,24.285,62.439
		c1.999,18.117,9.965,34.593,22.619,47.944c6.582,6.943,11.915,14.364,15.207,23.125c4.124,10.97,11.584,19.212,19.688,27.265
		c5.094,5.061,10.756,7.484,17.78,7.526c10.582,0.063,21.178,0.194,31.107,3.307c6.2,17.668,13.535,27.134,29.78,39.277
		c6.389,4.776,12.61,9.785,18.773,14.854c16.964,13.95,34.238,27.31,56.941,31.078c2.82,7.571,1.585,14.951,1.926,22.167
		c1.263,26.729,5.092,52.972,14.021,78.366c2.72,7.734,6.847,14.103,12.405,20.13c11.441,12.408,25.35,21.47,39.023,30.954
		c14.533,10.079,23.467,24.361,24.685,41.619c1.159,16.403,3.362,32.825,1.441,49.566c-1.424,12.402,0.482,25.21,1.187,37.821
		c0.428,7.661,4.396,13.459,9.655,19.079c18.353,19.616,39.15,35.792,62.12,49.813c16.992,10.372,34.908,16.393,54.229,18.624
		c10.536,1.218,21.286,0.529,31.938,0.831c10.522,0.299,19.579-2.687,26.939-10.612c2.662-2.866,6.212-4.907,9.474-7.413
		c8.788,1.036,17.338,2.735,25.923,2.94c36.743,0.873,73.242-0.775,108.77-11.74c9.515-2.937,19.468-4.425,29.063-7.134
		c11.481-3.242,22.967-6.618,34.126-10.804c9.325-3.498,18.086-8.468,27.273-12.371c8.495-3.609,17.224-6.67,26.348-10.163
		c9.121,10.087,20.512,13.337,32.612,14.465c9.908,0.924,19.892,1.049,29.801,1.973c17.41,1.623,32.849-3.61,47.277-12.792
		c11.24-7.152,22.513-14.256,33.727-21.452c10.379-6.66,21.607-10.151,34.022-9.825c7.327,0.193,14.771,0.824,21.975-0.145
		c19.253-2.592,38.366-0.602,57.602-0.162c50.069,1.143,96.163-12.029,136.523-42.669c19.357-14.695,40.227-25.896,64.628-29.733
		c5.857-0.922,11.681-2.922,17.138-5.301c6.018-2.623,12.471-5.298,17.202-9.624c13.749-12.575,26.966-25.761,39.932-39.152
		c8.441-8.718,13.558-19.398,17.236-31.117c7.97-25.388,7.711-51.234,5.606-77.197c-0.812-10.009-4.841-18.859-11.257-27.18
		c-10.142-13.149-19.77-26.904-27.824-41.399c-9.829-17.686-22.5-30.973-42.255-36.907c-6.292-1.89-11.233-5.352-16.032-10.702
		c-11.069-12.343-23.666-23.394-36.237-34.28c-6.541-5.664-12.856-10.949-17.854-18.391c-9.501-14.144-22.424-25.408-39.858-27.714
		c-19.088-2.523-38.6-3.923-57.166,3.771c-10.16,4.211-19.635,4.522-30.826,1.944c-15.236-3.508-31.398-4.793-46.904,2.044
		c-7.329,3.23-15.545,4.601-23.314,0.821c-15.089-7.342-31.195-5.52-47.121-6c-10.548-0.317-20.061,2.145-27.505,9.513
		c-6.411,6.345-13.595,7.186-21.938,6.485c-32.74-2.75-64.125-11.499-95.346-21.026c-2.478-0.756-4.749-2.185-6.85-3.176
		c-5.553-15.352-3.871-30.793-4.121-46.052c-0.27-16.468-3.436-31.752-16.651-43.244c-0.88-0.765-1.071-2.319-2.211-4.961
		c4.986-6.777,10.191-14.436,15.991-21.61c11.151-13.791,17.908-29.068,20.594-46.848c3.617-23.95,1.515-47.882,2.135-71.812
		c0.067-2.596-0.023-5.688-1.318-7.744c-6.56-10.418-8.44-22.326-11.489-33.872c-2.092-7.918-5.876-15.006-11.776-20.573
		c-8.375-7.902-11.27-17.128-10.617-28.594c0.907-15.935-4.459-30.006-15.604-41.831c-4.07-4.318-7.26-9.469-10.823-14.259
		c-8.349-11.221-16.328-22.736-25.097-33.617c-15.059-18.688-29.976-37.334-41.394-58.671
		c-10.984-20.525-23.056-40.481-35.005-60.473c-3.793-6.344-7.422-12.517-8.742-19.934c-1.454-8.173-6.05-14.558-12.127-20.145
		c-4.364-4.012-9.538-7.984-11.97-13.104c-8.562-18.032-17.075-36.263-15.918-57.112c0.295-5.316-0.37-10.7,0.12-15.988
		c1.168-12.603-2.607-23.175-10.126-33.433c-24.898-33.975-45.052-70.81-62.342-109.127c-6.265-13.886-11.202-28.563-14.917-43.338
		c-2.486-9.891-5.223-19.123-11.497-27.229c-1.984-2.564-3.263-5.676-4.613-8.087c7.665-20.738,6.12-40.901,1.154-62.145
		c11.926-10.276,21.005-23.452,24.719-39.274c2.394-10.197,7.324-18.239,14.16-25.611c15.037-16.216,22.933-35.614,25.72-57.357
		c2.199-17.156,3.814-34.443,7.161-51.383c5.601-28.358,8.117-56.483,0.541-84.872c-0.988-3.704-0.049-7.91-0.086-11.883
		c-0.11-11.974,0.65-24.048-0.642-35.895c-1.436-13.16-5.331-26.039-7.069-39.184c-1.298-9.817-5.428-17.605-12.048-24.575
		c-5.454-5.743-10.613-11.768-16.531-18.369c3.204-5.849,5.572-11.333,8.949-16.105c8.463-11.963,16.273-24.673,26.366-35.135
		c17.028-17.653,22.119-38.898,22.975-62.07c0.221-5.989,0.965-12.222-0.316-17.943c-2.226-9.955,0.886-18.379,5.14-26.799
		c12.304-24.345,16.891-50.155,16.305-77.355c-0.354-16.401-2.807-31.856-11.786-45.734c-4.202-6.494-5.211-13.051-4.704-20.782
		c1.178-17.928,1.164-35.935,1.673-53.908c0.107-3.806,0.384-7.608,0.589-11.545c9.567-3.289,18.141-2.716,26.616-1.063
		c7.831,1.528,15.441,4.317,23.308,5.512c19.104,2.902,38.135,5.233,56.603-4.174c6.932-3.531,15.042-4.749,23.358-7.244
		c2.635,4.465,4.875,8.262,6.827,11.569c-12.536,22.944-12.628,22.935-15.575,49.796c-0.87,7.924-1.648,15.937-1.45,23.884
		c0.478,19.173,1.557,38.331,2.448,58.737c-33.085,5.962-57.468,26.757-79.374,51.1c-2.408,25.252,0.912,49.703,4.196,74.112
		c0.492,3.657,2.816,7.474,5.279,10.382c7.396,8.741,16.145,15.553,27.338,19.357c7.14,2.427,15.282,3.861,20.698,10.86
		c-23.408,12.106-39.054,31.008-53.015,51.448c-2.883,4.219-4.153,9.725-5.425,14.821c-3.93,15.752-3.651,32.063-1.705,47.736
		c3.069,24.727,18.663,41.934,39.55,54.554c11.898,0.941,18.471,9.853,25.62,17.576c7.166,7.742,15.605,11.477,26.098,12.937
		c22.005,3.062,43.78,1.517,65.754-0.101c32.076-2.361,50.554-23.061,63.446-48.496c9.376-18.497,9.563-40.029,5.115-60.65
		c-3.226-14.955-7.863-29.601-11.66-44.438c-3.685-14.398-13.437-24.259-24.444-33.14c-4.765-3.843-10.417-5.825-16.678-5.815
		c-7.997,0.012-16.021-0.502-23.987-0.023c-11.005,0.66-20.273-2.71-28.797-9.72c5.902-6.96,12.73-10.222,21.165-11.039
		c12.459-1.206,22.813-6.755,30.953-16.443c5.924-7.053,12.132-13.868,18.914-21.588c19.954,2.081,40.389-3.787,61.487,0.151
		c-4.235,22.598-3.22,44.567-2.341,66.373c0.956,23.736,7.213,45.937,25.791,62.988c7.336,6.732,13.339,14.896,20.427,21.924
		c5.641,5.594,11.373,11.596,18.19,15.396c13.041,7.271,18.411,17.766,19.574,32.297c1.181,14.752,6.362,29.12,15.724,40.405
		c21.67,26.119,44.615,51.183,67.115,76.612c3.085,3.487,6.321,6.93,9.92,9.862c12.485,10.169,25.266,19.418,42.842,18.291
		c5.8-0.373,12.088,0.864,17.582,2.904c14.163,5.26,28.75,4.7,43.404,4.978c9.084,0.173,17.237-2.072,24.387-7.286
		c12.332-8.995,24.349-18.426,38.188-28.962c7.62-1.788,16.737-1.483,26.678,2.731c13.76,5.834,28.961,3.557,43.426,1.696
		c5.502-0.707,10.788-4.902,15.641-8.273c3.776-2.621,6.732-6.423,10.044-9.709c5.601-5.561,10.668-10.794,19.459-12.738
		c10.281-2.273,19.255-8.858,26.442-17.14c4.756-5.479,9.664-10.827,15.009-16.797c2.79-0.123,6.104-0.54,9.389-0.371
		c21.029,1.076,40.808-3.299,60.287-11.365c20.253-8.388,41.285-14.879,61.841-22.563c4.9-1.833,9.913-4.386,13.758-7.847
		c16.924-15.236,32.682-31.389,39.595-54.118c2.314-7.61,6.101-14.762,8.946-22.226c6.888-18.069,13.903-36.374,14.893-55.736
		c1.017-19.903,0.07-39.974-1.214-59.894c-0.497-7.706-2.819-16.105-6.855-22.609c-9.454-15.237-19.825-30.013-30.971-44.068
		c-14.332-18.074-31.491-32.615-55.51-36.3c-1.21-0.187-2.282-1.264-3.419-1.925c-9.047-11.657-19.665-21.771-30.761-31.329
		c-8.448-7.277-13.651-16.217-16.102-26.882c-1.342-5.833-2.851-11.716-3.283-17.65c-0.744-10.205-3.683-19.726-8.373-28.58
		c-7.153-13.505-14.765-26.783-22.603-39.905c-5.078-8.504-11.37-16.322-13.92-25.901c7.229-12.131,10.636-24.76,13.325-37.968
		c3.923-19.256,2.021-38.527,2.732-57.785c0.61-16.498-2.982-31.66-13.188-45.06c-7.958-10.452-11.633-22.285-10.217-35.585
		c0.421-3.95,0.056-7.991-0.065-11.988c-0.248-8.233-2.5-15.979-7.807-22.251c-16.755-19.801-32.612-40.907-57.279-51.665
		c-9.615-4.195-14.675-10.822-17.486-20.171c-5.909-19.649-17.89-35.735-31.209-50.674c-12.842-14.406-26.923-27.707-40.376-41.574
		c-6.474-6.672-12.792-13.496-19.11-20.316c-14.903-16.083-29.764-32.205-44.242-47.879c-10.545-0.529-19.788-0.994-27.737-1.393
		c-12.535-13.811-24.29-26.514-35.75-39.478c-7.513-8.5-16.572-13.571-27.976-12.81c-14.674,0.979-23.75-6.435-30.427-18.405
		c-9.841-17.644-24.228-31.649-37.366-46.689c-13.696-15.679-30.216-23.594-51.174-21.307c-14.503,1.583-27.254-2.347-39.529-10.326
		c-16.377-10.644-34.628-15.682-54.239-18.424c-20.976-2.933-41.558-9.081-57.226-25.622c-10.175-10.74-22.587-18.029-37-22.771
		c-15.72-5.172-32.098-10.52-45.672-19.568c-26.568-17.706-55.398-32.055-79.921-52.792c-7.609-6.435-16.155-8.836-25.891-8.229
		c-5.314,0.331-10.84-0.569-15.942,0.566c-11.863,2.641-22.059-1.124-32.645-5.757c-13.365-5.849-26.719-12.193-41.525-13.825
		c-12.548-1.381-25.106-3.452-37.677-3.571c-11.426-0.108-20.626-3.687-29.015-11.059c-3.419-3.005-7.558-6.143-11.828-7.048
		c-11.658-2.47-23.544-5.077-35.37-5.218c-13.884-0.167-27.845,1.844-41.669,3.69c-4.301,0.574-9.315,2.716-12.179,5.823
		c-8.242,8.945-18.572,5.258-28.189,6.11c-7.659,0.677-12.582-3.966-16.803-9.14c-8.97-10.994-20.735-16.223-34.388-18.272
		c-6.574-0.987-13.055-3.286-19.622-3.476c-10.934-0.317-21.026-3.009-30.718-7.738c-9.817-4.791-20.175-6.356-31.044-6.024
		c-15.317,0.468-30.651,0.737-45.973,0.544c-5.146-0.065-11.629-0.156-15.161-3.071c-12.755-10.521-28.589-10.877-43.142-12.748
		c-22.976-2.956-46.423-2.237-69.669-3.108c-3.097-0.116-6.188-0.434-9.775-0.693c-0.434-3.731-0.932-6.292-0.996-8.862
		c-0.398-15.862,1.856-32.175-8.148-46.346c-0.022-10.594-7.053-17.112-14.416-22.753c-5.917-4.536-10.424-9.813-14.857-15.703
		c-5.138-6.827-11.076-13.647-19.8-16.232c-7.374-2.186-12.601-6.649-17.492-12.375c-4.274-5.003-9.107-10.238-14.828-13.111
		c-6.577-3.303-10.007-8.357-13.342-14.156c-7.966-13.851-16.199-27.549-24.035-41.472c-4.896-8.698-9.78-17.469-13.772-26.597
		c-11.695-26.737-31.392-46.31-56.171-60.272c-11.221-6.323-21.267-13.269-29.818-22.618c-7.83-8.561-17.041-15.031-28.267-18.029
		c-12.465-3.329-22.943-10.102-33.746-16.818c-10.639-6.615-22.213-12.08-33.968-16.462c-16.025-5.975-32.612-10.445-49.219-15.643
		c-2.368-17.799-12.263-30.615-24.22-42.882c-11.022-11.309-23.354-19.576-38.105-24.638c-4.404-1.511-9.067-2.651-13.046-4.942
		c-19.377-11.156-40.607-11.552-62.02-11.498c-5.714,0.015-10.416,1.874-14.453,5.664c-5.825,5.469-11.53,11.068-17.344,16.549
		c-3.268,3.079-6.654,6.032-10.447,9.457c-19.775-15.208-42.007-12.758-65.435-11.981c-11.177,9.926-23.064,20.483-35.29,31.339
		c-13.492-0.721-26.546,0.678-36.23,12.096c-1.197,1.412-3.327,2.569-5.164,2.817c-11.5,1.552-18.192,10.082-26.343,16.911
		c-11.283,9.452-15.372,20.966-14.469,35.191c0.796,12.548,0.899,25.142,1.324,38.209c-18.331,13.374-34.685,28.839-54.09,40.892
		c-16.906,10.502-31.937,24.158-33.89,46.72c-0.957,11.057-6.862,20.063-15.575,26.951c-14.874,11.759-20.239,27.739-19.992,45.878
		c0.131,9.604-1.351,18.184-6.826,26.426c-3.194,4.807-5.122,10.922-6.006,16.697c-1.708,11.143-2.565,22.445-3.214,33.713
		c-0.459,7.969-0.748,15.728-3.004,23.618c-3.654,12.78-5.821,25.97-5.196,39.469c0.199,4.31-0.782,8.675-1.165,12.439
		c-14.699-3.174-28.124-7.191-41.826-8.71c-13.17-1.461-26.633-0.098-39.956-0.434c-8.613-0.217-15.674,2.735-21.485,8.766
		c-6.881,7.141-13.524,14.511-20.452,21.979c-2.55,0.164-5.199,0.563-7.828,0.468c-17.448-0.636-34.551,0.258-50.729,8.13
		c-3.272,1.591-7.744,0.944-11.662,0.944c-17.995,0-35.992-0.03-53.984-0.267c-10.197-0.134-20.324,1.106-28.868,6.497
		c-7.428,4.687-15.071,4.308-23.018,4.842c-11.25,0.757-22.693,1.131-33.622,3.591c-14.234,3.204-28.13,8.029-41.997,12.682
		c-6.456,2.166-12.619,3.173-19.495,2.41c-38.517-4.27-77.22-4.058-115.75-1.468c-17.967,1.209-35.868,1.756-53.825,2.059
		c-12.66,0.214-25.32,0.38-37.978,0.685c-9.707,0.233-18.17,3.478-25.086,10.551c-4.176,4.271-8.631,8.271-13.354,12.765
		c-11.311,0-22.637-0.317-33.934,0.114c-7.256,0.276-14.594,1.099-21.676,2.666c-12.338,2.729-24.457,6.445-36.769,9.309
		c-6.643,1.545-12.883,3.528-17.62,8.65c-4.415,4.776-9.848,6.416-16.192,6.197c-4.653-0.16-9.351-0.123-13.979,0.33
		c-13.019,1.276-24.56,5.792-33.437,15.925C734.672,965.122,728.817,971.482,721.959,979.098z M3459.82,2669.135
		c-0.988,4.673-1.223,7.232-2.076,9.565c-3.661,10.004-7.353,20.002-11.315,29.89c-6.234,15.558-10.481,31.45-11.476,48.339
		c-0.704,11.955-3.968,23.509-8.63,34.724c-8.175,19.666-15.76,39.578-23.445,59.444c-7.05,18.222-10.137,37.188-10.086,56.695
		c0.027,10.663,0,21.325,0.003,31.986c0.006,20.759,2.898,41.2,7.772,61.296c3.942,16.251,10.404,31.228,21.023,44.785
		c13.161,16.799,25.761,33.967,41.514,48.491c9.566,8.82,16.452,19.391,19.466,31.967c1.683,7.027,1.558,14.489,2.228,21.757
		c1.282,13.911,1.354,28.288,9.582,40.343c17.313,25.367,36.154,49.471,60.06,69.179c14.018,11.558,29.221,20.715,46.686,26.231
		c12.039,3.804,24.036,8.019,35.528,13.212c23.557,10.647,47.956,15.694,73.798,14.186c5.924-0.346,12.604-0.949,17.741,1.296
		c10.326,4.518,20.829,4.213,31.409,3.928c18.631-0.501,37.253-1.436,55.865-2.438c14.395-0.776,27.922,0.618,38.789,11.669
		c5.442,5.533,12.408,7.328,20.124,6.876c20.596-1.208,41.199-2.248,61.798-3.388c8.188-0.452,15.354-3.434,22.287-7.874
		c8.412-5.384,17.463-10.742,27.761-10.126c23.359,1.398,41.242-14.139,62.45-19.219c2.353-0.563,4.471-2.861,6.298-4.74
		c17.179-17.67,34.179-35.625,47.212-56.604c6.88-11.076,14.934-19.706,26.2-26.448c18.052-10.803,31.869-25.756,39.872-45.852
		c5.655-14.2,13.06-27.696,18.931-41.819c6.887-16.564,14.327-33.091,19.057-50.313c6.712-24.44,13.924-48.563,23.997-71.856
		c9.09-21.021,13.542-43.006,13.006-66.106c-0.557-23.97,0.197-47.97-0.258-71.944c-0.239-12.606-1.604-25.209-2.879-37.771
		c-1.677-16.547-3.561-33.08-5.745-49.566c-1.657-12.514-2.878-25.228-6.122-37.362c-8.423-31.502-18.22-62.635-26.75-94.109
		c-5.342-19.707-14.692-36.851-27.589-52.572c-14.768-18.003-28.632-36.748-42.95-55.121c-2.451-3.147-5.026-6.241-7.861-9.041
		c-13.268-13.107-26.706-26.043-39.961-39.164c-7.533-7.458-16.247-10.885-27.004-10.47c-9.939,0.385-20.403,1.291-29.802-1.194
		c-25.008-6.613-50.114-6.335-75.345-3.764c-10.536,1.074-20.541-0.31-28.479-6.455c-11.522-8.922-24.15-10.434-37.671-9.468
		c-9.938,0.711-19.851,1.843-29.754,2.975c-4.602,0.525-9.327,2.709-13.696,2.076c-31.747-4.599-63.826,4.412-95.472-2.538
		c-1.272-0.28-2.659-0.02-3.991-0.063c-24.947-0.785-48.772,5.905-72.833,10.99c-8.86,1.872-15.66,7.366-21.679,13.643
		c-15.1,15.748-33.329,26.467-53.663,33.673c-11.613,4.116-21.375,10.633-29.754,19.499c-7.665,8.11-15.402,16.151-23,24.109
		c-1.359-1.29-2.958-2.064-3.144-3.095c-2.896-15.98-10.091-30.236-17.863-44.192c-3.662-6.575-6.328-13.143-5.66-20.792
		c0.723-8.305-1.971-15.74-5.982-22.829c-13.91-24.593-34.333-42.097-59.72-53.799c-24.232-11.17-50.199-12.165-76.326-11.661
		c-7.074,0.137-12.948,2.519-17.644,7.855c-7.451,8.468-14.546,17.3-22.511,25.258c-32.502,32.476-37.027,72.515-30.094,114.861
		c3.255,19.885,12.266,37.987,28.33,51.524c7.337,6.184,10.825,13.955,13.617,23.403c7.271,24.6,26.036,48.248,59.384,46.479
		c3.979-0.211,7.99,0.122,11.984,0.238C3429.32,2668.226,3443.276,2668.645,3459.82,2669.135z M2146.456,3713.973
		c27.881,0,46.532-0.125,65.181,0.041c14.483,0.129,27.587-3.627,39.085-12.605c12.595-9.835,25.312-19.514,37.793-29.489
		c5.303-4.236,10.498-7.524,17.778-7.767c12.466-0.413,23.098-6.047,32.15-14.381c9.795-9.017,19.401-18.248,28.848-27.629
		c15.431-15.326,25.936-33.744,32.189-54.438c3.07-10.16,5.515-20.631,6.906-31.138c1.04-7.856,4.31-13.476,10.014-18.637
		c12.89-11.665,23.391-25.024,31.939-40.481c13.472-24.359,14.02-50.237,8.966-75.688c-5.024-25.303-14.458-49.753-22.332-74.457
		c-3.886-12.188-10.502-22.928-19.483-32.181c-10.665-10.988-20.749-22.579-31.893-33.05c-7.696-7.232-16.188-14.035-25.369-19.156
		c-10.019-5.587-19.034-11.86-26.828-20.269c-11.965-12.909-26.289-22.316-43.199-27.741c-10.127-3.247-19.999-7.284-30.1-10.619
		c-26.631-8.796-52.522-18.924-75.055-36.319c-8.403-6.486-17.637-12.18-28.521-13.708c-27.26-3.829-54.541-5.542-80.326,6.641
		c-14.982,7.078-29.37,15.439-43.883,23.48c-9.875,5.473-18.958,12.916-29.404,16.659c-9.608,3.444-18.244,7.302-25.602,14.33
		c-6.066,5.794-13.51,8.203-21.942,7.794c-4.651-0.226-9.331,0.163-13.983-0.036c-7.081-0.303-13.063,2.105-18.147,6.86
		c-8.75,8.184-17.689,16.188-26.073,24.733c-10.15,10.348-15.691,23.001-16.514,37.558c-0.637,11.284-1.474,22.575-1.56,33.868
		c-0.059,7.699-1.553,14.315-7.35,19.856c-12.773,12.207-20.484,27.89-27.874,43.486c-3.61,7.621-6.031,16.494-6.281,24.882
		c-0.615,20.589,0.144,41.229,0.747,61.838c0.311,10.61,1.917,21.186,2.151,31.795c0.434,19.604,3.072,38.441,14.515,55.147
		c2.987,4.361,5.273,9.256,7.482,14.087c6.479,14.167,15.73,26.237,27.313,36.531c7.953,7.068,15.942,14.12,24.243,20.769
		c17.668,14.151,36.276,27.218,53.19,42.206c32.521,28.821,70.982,44.464,112.93,51.337
		C2103.661,3712.262,2129.786,3712.631,2146.456,3713.973z M1887.885,121.84c-6.799-6.915-12.644-14.43-19.976-19.98
		c-14.254-10.789-28.537-22.01-46.256-26.814c-25.647-6.955-51.06-8.392-75.683,4.372c-9.44,4.894-19.556,8.589-28.638,14.039
		c-8.183,4.91-14.95,3.859-22.099-1.257c-8.658-6.198-17.38-12.31-26.148-18.353c-2.708-1.867-5.565-4.634-8.511-4.849
		c-11.844-0.865-24.083-3.261-35.368,2.086c-8.137,3.855-16.278,5.057-25.082,4.544c-7.301-0.425-14.647,0.018-21.972-0.071
		c-28.098-0.342-51.882,10.271-72.355,28.847c-9.358,8.491-18.04,17.725-27.269,26.365c-7.739,7.243-15.907,14.027-23.745,21.168
		c-10.306,9.393-20.744,18.667-30.614,28.505c-7.313,7.288-10.6,16.859-11.801,26.975c-0.703,5.931-0.869,11.958-0.801,17.937
		c0.071,6.144-1.089,11.711-4.14,17.171c-10.83,19.377-14.853,41.224-21.761,62.014c-1.842,5.543-2.148,11.828-2.028,17.749
		c0.36,17.828-2.703,35.971,4.258,53.277c-1.921,13.992,5.241,24.058,14.274,33.39c0.786,0.813,0.684,2.485,1.382,5.344
		c-1.997,3.5-4.111,8.39-7.257,12.487c-7.623,9.932-10.811,21.398-11.704,33.438c-0.786,10.599-0.218,21.295-0.371,31.946
		c-0.082,5.694,2.194,10.284,5.949,14.352c16.33,17.69,34.5,33.253,54.447,46.703c3.256,2.196,7.037,4.394,10.808,4.92
		c20.019,2.792,40.478,3.935,58.08-7.63c15.522-10.198,29.797-22.752,37.813-40.176c3.333-7.242,7.696-12.093,14.841-15.021
		c15.717-6.438,28.523-16.876,39.889-29.293c8.089-8.835,16.232-17.626,24.524-26.271c5.513-5.748,11.013-11.579,17.071-16.722
		c23.441-19.902,44.532-42.261,63.442-66.234c9.983-12.655,20.847-21.697,35.547-27.012c8.752-3.164,17.337-6.8,26.136-9.819
		c21.922-7.521,36.337-21.423,39.731-45.219c0.649-4.548,2.099-8.981,3.197-13.546c3.114-1.982,5.737-4.082,8.695-5.464
		c14.154-6.611,24.624-17.767,36.216-27.766c11.847-10.218,11.944-26.398,21.976-37.271c2.903-3.145,3.857-8.456,4.781-12.964
		c1.061-5.178,1.527-10.57,1.491-15.864C1888.762,148.584,1888.239,135.297,1887.885,121.84z M3155.297,2344.351
		c0,12.263,0.18,26.217-0.076,40.164c-0.129,7.046,1.908,12.674,6.744,18.017c15.995,17.674,35.587,30.08,57.333,38.937
		c8.446,3.441,17.967,4.941,27.136,5.741c11.908,1.038,23.98,0.059,35.938,0.727c24.122,1.348,38.515-13.184,49.243-31.463
		c10.06-17.141,17.055-36.05,26.538-53.563c11.883-21.944,10.127-44.883,7.218-68.131c-1.768-14.12-11.035-24.157-20.129-33.726
		c-8.188-8.616-13.813-17.496-14.065-29.748c-0.089-4.313-1.894-9.272-4.502-12.742c-15.637-20.803-39.524-29.305-63.65-20.941
		c-9.748,3.38-19.391,5.42-29.162,5.164c-19.74-0.519-36.386,6.526-51.74,17.858c-7.496,5.533-15.503,10.636-22.019,17.187
		c-30.123,30.287-24.273,17.912-26.062,58.045c-0.809,18.154,3.193,32.574,17.803,43.609
		C3152.842,2340.238,3153.379,2341.601,3155.297,2344.351z"/>
	<path fill-rule="evenodd" d="M721.959,979.098c6.857-7.616,12.712-13.976,18.406-20.476c8.877-10.132,20.417-14.648,33.437-15.925
		c4.628-0.453,9.326-0.49,13.979-0.33c6.345,0.219,11.778-1.421,16.192-6.197c4.737-5.123,10.977-7.105,17.62-8.65
		c12.312-2.864,24.431-6.579,36.769-9.309c7.082-1.567,14.42-2.389,21.676-2.666c11.297-0.431,22.623-0.114,33.934-0.114
		c4.723-4.495,9.177-8.494,13.354-12.765c6.916-7.073,15.379-10.318,25.086-10.551c12.658-0.305,25.318-0.471,37.978-0.685
		c17.957-0.303,35.858-0.85,53.825-2.059c38.529-2.59,77.232-2.802,115.75,1.468c6.876,0.763,13.039-0.244,19.495-2.41
		c13.866-4.652,27.763-9.478,41.997-12.682c10.928-2.46,22.371-2.834,33.622-3.591c7.946-0.534,15.59-0.155,23.018-4.842
		c8.544-5.39,18.671-6.63,28.868-6.497c17.993,0.236,35.99,0.267,53.984,0.267c3.917,0,8.39,0.647,11.662-0.944
		c16.178-7.872,33.281-8.766,50.729-8.13c2.629,0.096,5.278-0.304,7.828-0.468c6.928-7.468,13.571-14.838,20.452-21.979
		c5.812-6.031,12.873-8.983,21.485-8.766c13.323,0.336,26.786-1.027,39.956,0.434c13.702,1.519,27.126,5.536,41.826,8.71
		c0.383-3.764,1.364-8.129,1.165-12.439c-0.625-13.499,1.542-26.689,5.196-39.469c2.256-7.891,2.545-15.649,3.004-23.618
		c0.649-11.269,1.507-22.57,3.214-33.713c0.885-5.774,2.812-11.89,6.006-16.697c5.476-8.242,6.957-16.822,6.826-26.426
		c-0.247-18.139,5.118-34.119,19.992-45.878c8.713-6.888,14.618-15.894,15.575-26.951c1.954-22.562,16.984-36.217,33.89-46.72
		c19.405-12.053,35.759-27.518,54.09-40.892c-0.425-13.068-0.527-25.661-1.324-38.209c-0.903-14.225,3.186-25.739,14.469-35.191
		c8.151-6.829,14.843-15.359,26.343-16.911c1.837-0.248,3.966-1.405,5.164-2.817c9.684-11.418,22.738-12.817,36.23-12.096
		c12.225-10.856,24.112-21.413,35.29-31.339c23.428-0.777,45.66-3.227,65.435,11.981c3.792-3.424,7.179-6.378,10.447-9.457
		c5.814-5.481,11.519-11.08,17.344-16.549c4.037-3.791,8.738-5.649,14.453-5.664c21.412-0.054,42.642,0.342,62.02,11.498
		c3.979,2.291,8.643,3.431,13.046,4.942c14.752,5.062,27.083,13.329,38.105,24.638c11.957,12.267,21.852,25.083,24.22,42.882
		c16.607,5.197,33.194,9.668,49.219,15.643c11.755,4.382,23.329,9.847,33.968,16.462c10.802,6.717,21.281,13.489,33.746,16.818
		c11.226,2.998,20.437,9.468,28.267,18.029c8.552,9.349,18.598,16.295,29.818,22.618c24.779,13.962,44.476,33.535,56.171,60.272
		c3.992,9.128,8.877,17.899,13.772,26.597c7.836,13.923,16.069,27.622,24.035,41.472c3.335,5.799,6.765,10.853,13.342,14.156
		c5.721,2.873,10.554,8.107,14.828,13.111c4.892,5.725,10.118,10.189,17.492,12.375c8.724,2.585,14.662,9.405,19.8,16.232
		c4.434,5.891,8.94,11.167,14.857,15.703c7.363,5.641,14.394,12.159,14.416,22.753c10.005,14.171,7.75,30.483,8.148,46.346
		c0.064,2.571,0.563,5.131,0.996,8.862c3.587,0.26,6.679,0.577,9.775,0.693c23.246,0.871,46.693,0.152,69.669,3.108
		c14.553,1.871,30.387,2.227,43.142,12.748c3.532,2.915,10.016,3.005,15.161,3.071c15.321,0.193,30.655-0.076,45.973-0.544
		c10.869-0.332,21.227,1.234,31.044,6.024c9.691,4.729,19.784,7.421,30.718,7.738c6.567,0.19,13.048,2.489,19.622,3.476
		c13.652,2.05,25.418,7.278,34.388,18.272c4.221,5.174,9.144,9.817,16.803,9.14c9.617-0.852,19.947,2.835,28.189-6.11
		c2.863-3.107,7.878-5.249,12.179-5.823c13.824-1.846,27.785-3.857,41.669-3.69c11.826,0.141,23.712,2.748,35.37,5.218
		c4.271,0.905,8.409,4.042,11.828,7.048c8.389,7.372,17.589,10.95,29.015,11.059c12.57,0.119,25.129,2.19,37.677,3.571
		c14.807,1.632,28.16,7.976,41.525,13.825c10.586,4.633,20.781,8.398,32.645,5.757c5.103-1.136,10.628-0.235,15.942-0.566
		c9.735-0.606,18.281,1.794,25.891,8.229c24.522,20.737,53.353,35.086,79.921,52.792c13.574,9.048,29.952,14.396,45.672,19.568
		c14.413,4.742,26.825,12.031,37,22.771c15.668,16.541,36.25,22.688,57.226,25.622c19.611,2.742,37.862,7.78,54.239,18.424
		c12.275,7.979,25.026,11.909,39.529,10.326c20.958-2.287,37.478,5.628,51.174,21.307c13.139,15.04,27.525,29.046,37.366,46.689
		c6.677,11.97,15.753,19.383,30.427,18.405c11.403-0.761,20.463,4.31,27.976,12.81c11.46,12.964,23.215,25.667,35.75,39.478
		c7.949,0.399,17.192,0.864,27.737,1.393c14.479,15.674,29.339,31.796,44.242,47.879c6.318,6.82,12.637,13.644,19.11,20.316
		c13.453,13.867,27.534,27.167,40.376,41.574c13.319,14.939,25.3,31.025,31.209,50.674c2.812,9.35,7.871,15.977,17.486,20.171
		c24.667,10.757,40.524,31.863,57.279,51.665c5.307,6.271,7.559,14.018,7.807,22.251c0.121,3.997,0.486,8.038,0.065,11.988
		c-1.416,13.3,2.259,25.133,10.217,35.585c10.205,13.399,13.798,28.562,13.188,45.06c-0.712,19.258,1.19,38.529-2.732,57.785
		c-2.689,13.208-6.097,25.836-13.325,37.968c2.55,9.579,8.842,17.397,13.92,25.901c7.838,13.123,15.449,26.4,22.603,39.905
		c4.69,8.854,7.629,18.375,8.373,28.58c0.433,5.934,1.941,11.816,3.283,17.65c2.45,10.666,7.653,19.605,16.102,26.882
		c11.096,9.559,21.714,19.672,30.761,31.329c1.137,0.661,2.209,1.738,3.419,1.925c24.019,3.685,41.178,18.226,55.51,36.3
		c11.146,14.055,21.517,28.831,30.971,44.068c4.036,6.504,6.358,14.903,6.855,22.609c1.284,19.92,2.23,39.991,1.214,59.894
		c-0.989,19.362-8.005,37.667-14.893,55.736c-2.846,7.464-6.632,14.615-8.946,22.226c-6.913,22.729-22.671,38.882-39.595,54.118
		c-3.845,3.461-8.857,6.014-13.758,7.847c-20.556,7.684-41.588,14.175-61.841,22.563c-19.479,8.066-39.258,12.441-60.287,11.365
		c-3.284-0.169-6.599,0.248-9.389,0.371c-5.345,5.97-10.253,11.317-15.009,16.797c-7.188,8.281-16.161,14.866-26.442,17.14
		c-8.791,1.944-13.858,7.178-19.459,12.738c-3.312,3.286-6.268,7.088-10.044,9.709c-4.853,3.371-10.139,7.566-15.641,8.273
		c-14.465,1.86-29.666,4.138-43.426-1.696c-9.94-4.215-19.058-4.52-26.678-2.731c-13.839,10.536-25.855,19.967-38.188,28.962
		c-7.149,5.214-15.303,7.459-24.387,7.286c-14.654-0.277-29.241,0.282-43.404-4.978c-5.494-2.04-11.782-3.277-17.582-2.904
		c-17.576,1.127-30.356-8.122-42.842-18.291c-3.599-2.933-6.835-6.375-9.92-9.862c-22.5-25.43-45.445-50.493-67.115-76.612
		c-9.361-11.285-14.543-25.653-15.724-40.405c-1.163-14.531-6.533-25.026-19.574-32.297c-6.817-3.801-12.55-9.803-18.19-15.396
		c-7.088-7.028-13.091-15.191-20.427-21.924c-18.578-17.052-24.835-39.252-25.791-62.988c-0.879-21.805-1.895-43.775,2.341-66.373
		c-21.099-3.938-41.533,1.929-61.487-0.151c-6.782,7.72-12.99,14.535-18.914,21.588c-8.14,9.688-18.494,15.237-30.953,16.443
		c-8.435,0.816-15.263,4.079-21.165,11.039c8.523,7.01,17.792,10.38,28.797,9.72c7.966-0.479,15.99,0.035,23.987,0.023
		c6.261-0.01,11.913,1.972,16.678,5.815c11.008,8.881,20.76,18.742,24.444,33.14c3.797,14.838,8.435,29.483,11.66,44.438
		c4.448,20.621,4.261,42.153-5.115,60.65c-12.893,25.436-31.37,46.135-63.446,48.496c-21.974,1.617-43.749,3.162-65.754,0.101
		c-10.492-1.46-18.932-5.194-26.098-12.937c-7.149-7.724-13.722-16.635-25.62-17.576c-20.887-12.62-36.48-29.827-39.55-54.554
		c-1.946-15.674-2.225-31.984,1.705-47.736c1.271-5.097,2.542-10.603,5.425-14.821c13.961-20.44,29.606-39.342,53.015-51.448
		c-5.416-6.999-13.559-8.433-20.698-10.86c-11.193-3.804-19.942-10.616-27.338-19.357c-2.463-2.909-4.787-6.726-5.279-10.382
		c-3.284-24.409-6.604-48.859-4.196-74.112c21.906-24.343,46.289-45.138,79.374-51.1c-0.892-20.406-1.971-39.563-2.448-58.737
		c-0.198-7.947,0.58-15.96,1.45-23.884c2.947-26.862,3.039-26.852,15.575-49.796c-1.952-3.307-4.192-7.104-6.827-11.569
		c-8.316,2.496-16.427,3.713-23.358,7.244c-18.468,9.408-37.498,7.076-56.603,4.174c-7.866-1.195-15.477-3.984-23.308-5.512
		c-8.476-1.654-17.049-2.226-26.616,1.063c-0.205,3.937-0.481,7.739-0.589,11.545c-0.509,17.973-0.495,35.98-1.673,53.908
		c-0.507,7.73,0.502,14.288,4.704,20.782c8.979,13.878,11.433,29.333,11.786,45.734c0.586,27.201-4.001,53.01-16.305,77.355
		c-4.254,8.42-7.365,16.845-5.14,26.799c1.281,5.721,0.537,11.955,0.316,17.943c-0.855,23.172-5.946,44.417-22.975,62.07
		c-10.093,10.461-17.903,23.172-26.366,35.135c-3.377,4.772-5.745,10.257-8.949,16.105c5.918,6.602,11.077,12.626,16.531,18.369
		c6.62,6.97,10.75,14.758,12.048,24.575c1.738,13.145,5.634,26.023,7.069,39.184c1.292,11.847,0.531,23.921,0.642,35.895
		c0.037,3.973-0.902,8.179,0.086,11.883c7.576,28.389,5.06,56.514-0.541,84.872c-3.347,16.939-4.962,34.227-7.161,51.383
		c-2.787,21.743-10.683,41.142-25.72,57.357c-6.836,7.372-11.767,15.414-14.16,25.611c-3.714,15.822-12.793,28.998-24.719,39.274
		c4.966,21.243,6.511,41.406-1.154,62.145c1.351,2.411,2.629,5.522,4.613,8.087c6.274,8.106,9.011,17.339,11.497,27.229
		c3.715,14.775,8.652,29.452,14.917,43.338c17.29,38.317,37.443,75.152,62.342,109.127c7.519,10.258,11.294,20.83,10.126,33.433
		c-0.49,5.288,0.175,10.672-0.12,15.988c-1.157,20.85,7.356,39.08,15.918,57.112c2.432,5.12,7.605,9.093,11.97,13.104
		c6.077,5.587,10.673,11.972,12.127,20.145c1.32,7.417,4.949,13.59,8.742,19.934c11.949,19.991,24.021,39.947,35.005,60.473
		c11.418,21.337,26.335,39.983,41.394,58.671c8.769,10.881,16.748,22.396,25.097,33.617c3.563,4.79,6.753,9.94,10.823,14.259
		c11.145,11.825,16.511,25.896,15.604,41.831c-0.652,11.466,2.242,20.691,10.617,28.594c5.9,5.567,9.685,12.655,11.776,20.573
		c3.049,11.546,4.93,23.454,11.489,33.872c1.295,2.057,1.386,5.148,1.318,7.744c-0.62,23.93,1.482,47.861-2.135,71.812
		c-2.686,17.779-9.442,33.057-20.594,46.848c-5.8,7.175-11.005,14.833-15.991,21.61c1.14,2.642,1.331,4.196,2.211,4.961
		c13.216,11.492,16.382,26.776,16.651,43.244c0.25,15.259-1.432,30.7,4.121,46.052c2.101,0.991,4.372,2.42,6.85,3.176
		c31.221,9.527,62.605,18.276,95.346,21.026c8.344,0.7,15.527-0.141,21.938-6.485c7.444-7.368,16.957-9.83,27.505-9.513
		c15.926,0.48,32.032-1.342,47.121,6c7.77,3.779,15.985,2.409,23.314-0.821c15.506-6.837,31.668-5.552,46.904-2.044
		c11.191,2.578,20.666,2.267,30.826-1.944c18.566-7.693,38.078-6.294,57.166-3.771c17.435,2.306,30.357,13.57,39.858,27.714
		c4.997,7.441,11.313,12.727,17.854,18.391c12.571,10.887,25.168,21.938,36.237,34.28c4.799,5.351,9.74,8.813,16.032,10.702
		c19.755,5.935,32.426,19.222,42.255,36.907c8.055,14.495,17.683,28.25,27.824,41.399c6.416,8.32,10.445,17.171,11.257,27.18
		c2.104,25.963,2.363,51.81-5.606,77.197c-3.679,11.719-8.795,22.399-17.236,31.117c-12.966,13.392-26.183,26.577-39.932,39.152
		c-4.731,4.326-11.185,7.001-17.202,9.624c-5.457,2.379-11.28,4.379-17.138,5.301c-24.401,3.837-45.271,15.038-64.628,29.733
		c-40.36,30.64-86.454,43.812-136.523,42.669c-19.235-0.439-38.349-2.43-57.602,0.162c-7.203,0.969-14.647,0.338-21.975,0.145
		c-12.415-0.326-23.644,3.165-34.022,9.825c-11.214,7.196-22.486,14.3-33.727,21.452c-14.429,9.182-29.867,14.415-47.277,12.792
		c-9.909-0.924-19.893-1.049-29.801-1.973c-12.101-1.128-23.491-4.378-32.612-14.465c-9.124,3.493-17.853,6.554-26.348,10.163
		c-9.188,3.903-17.948,8.873-27.273,12.371c-11.159,4.186-22.645,7.562-34.126,10.804c-9.596,2.709-19.549,4.197-29.063,7.134
		c-35.527,10.965-72.026,12.613-108.77,11.74c-8.585-0.205-17.135-1.904-25.923-2.94c-3.262,2.506-6.812,4.547-9.474,7.413
		c-7.36,7.926-16.417,10.911-26.939,10.612c-10.651-0.302-21.401,0.387-31.938-0.831c-19.321-2.231-37.237-8.252-54.229-18.624
		c-22.97-14.021-43.768-30.197-62.12-49.813c-5.26-5.62-9.228-11.418-9.655-19.079c-0.704-12.611-2.61-25.419-1.187-37.821
		c1.921-16.741-0.282-33.163-1.441-49.566c-1.218-17.258-10.151-31.54-24.685-41.619c-13.674-9.484-27.582-18.546-39.023-30.954
		c-5.559-6.027-9.686-12.396-12.405-20.13c-8.929-25.395-12.758-51.638-14.021-78.366c-0.341-7.216,0.895-14.596-1.926-22.167
		c-22.703-3.769-39.978-17.128-56.941-31.078c-6.163-5.068-12.385-10.077-18.773-14.854c-16.245-12.144-23.58-21.609-29.78-39.277
		c-9.93-3.112-20.525-3.243-31.107-3.307c-7.024-0.042-12.687-2.466-17.78-7.526c-8.104-8.053-15.564-16.295-19.688-27.265
		c-3.292-8.761-8.625-16.182-15.207-23.125c-12.654-13.352-20.62-29.827-22.619-47.944c-2.564-23.249-10.455-43.852-24.285-62.439
		c-5.563-7.48-10.727-15.289-16.663-22.458c-16.399-19.807-27.399-42.46-35.854-66.492c-10.165-28.893-20.092-57.871-30.293-86.751
		c-5.552-15.721-11.674-31.186-21.564-44.87c-8.264-11.434-18.039-21.293-29.048-30.085c-10.408-8.311-20.617-16.889-30.634-25.667
		c-14.877-13.038-25.276-29.104-31.015-48.073c-4.238-14.017-8.234-28.106-12.458-42.127c-2.866-9.512-5.939-18.96-8.965-28.579
		c-45.355-19.237-80.888-47.54-95.374-97.408c-9.74-1.203-19.506-2.791-29.334-3.429c-3.715-0.241-7.91,1.047-11.312,2.771
		c-20.141,10.209-41.803,12.324-63.9,13.808c-24.082,1.616-46.28-3.622-67.296-14.709c-12.346-6.513-25.142-8.354-38.718-5.762
		c-22.504,4.299-45.015,4.034-67.55,0.211c-1.234-0.209-2.594,0.33-4.317,0.582c-0.646,0.716-1.963,1.544-2.328,2.678
		c-9.545,29.72-30.405,51.319-52.471,71.714c-10.585,9.785-19.24,20.621-23.797,33.976c-10.629,31.144-31.711,55.128-52.335,79.567
		c-5.105,6.049-10.016,12.363-14.201,19.064c-7.149,11.448-11.778,23.653-10.657,37.732c0.403,5.067-1.458,10.502-3.087,15.508
		c-6.437,19.764-15.738,38.059-27.985,54.953c-17.196,23.72-34.404,47.459-50.682,71.808c-8.85,13.234-15.818,27.729-23.578,41.688
		c-5.491,9.879-10.871,19.821-16.341,29.715c-0.962,1.742-2.771,3.258-3.096,5.074c-3.582,20.005-20.713,28.27-34.197,39.642
		c-2.501,2.11-5.8,3.245-8.601,5.033c-18.374,11.733-18.362,11.752-30.099,34.494c3.69,3.804,7.49,8.265,11.843,12.098
		c9.055,7.972,14.338,17.283,12.698,29.796c-0.327,2.492,0.487,5.135,0.792,7.863c7.571,0.159,10.49-5.97,14.532-9.843
		c7.153-6.855,15.521-10.063,25.07-10.917c4.642-0.415,9.308-0.567,13.954-0.949c30.688-2.517,30.687-2.526,56.36,15.231
		c2.02-3.083,4.538-5.926,5.934-9.241c4.833-11.479,12.72-21.618,22.843-27.127c13.882-7.556,26.312-17.574,40.133-24.351
		c16.086-7.888,35.003-7.302,53.004-4.749c3.585,0.508,7.436,3.288,10.009,6.084c11.259,12.23,22.151,24.804,33.053,37.359
		c3.64,4.193,4.942,9.297,4.834,14.852c-0.115,5.996-0.155,12.005,0.109,17.993c0.145,3.27-0.129,7.486,1.712,9.59
		c7.905,9.032,6.071,19.847,7.353,30.342c1.781,14.572,3.16,29.066,2.907,43.755c-0.107,6.229-1.24,11.692-5.292,16.678
		c-7.953,9.785-15.478,19.917-23.342,29.776c-4.428,5.552-10.272,7.851-17.524,7.753c-19.994-0.269-39.992-0.141-59.989-0.103
		c-9.886,0.019-18.131-3.676-25.03-10.627c-4.226-4.259-8.61-8.369-12.667-12.781c-3.465-3.769-6.566-7.873-10.982-13.227
		c-1.266,4.107-2.484,6.391-2.608,8.732c-0.72,13.592-9.214,22.463-19.855,28.087c-18.241,9.642-37.27,17.728-58.983,15.388
		c-6.145-0.663-11.703-1.629-16.743-5.356c-11.216-8.295-22.56-16.417-34.622-25.168c-12.775,10.522-25.955,20.844-32.141,38.341
		c-6.774,19.164-21.568,30.042-41.979,32.063c-8.803,0.871-16.578,3.864-24.683,7.123c-10.987,4.418-22.818,6.735-35.638,10.332
		c-1.83,6.092-4.05,12.977-5.969,19.946c-10.265,37.279-22.503,73.907-37.441,109.561c-5.646,13.477-12.696,26.398-19.666,39.271
		c-3.483,6.434-7.263,12.294-8.169,20.021c-0.571,4.868-3.825,9.998-7.195,13.856c-10.511,12.03-21.475,23.684-32.646,35.11
		c-3.664,3.746-8.243,6.792-12.832,9.407c-31.676,18.055-65.358,29.713-102.108,31.318c-5.321,0.232-10.728,0.176-15.934,1.128
		c-37.198,6.806-74.363,6.08-111.239-1.505c-19.069-3.921-38.376-3.876-57.51-6.185c-14.543-1.754-29.151-3.386-43.493-6.26
		c-15.775-3.162-31.537-5.307-47.581-4.203c-9.333,0.643-17.077-2.144-23.371-8.855c-16.329-17.413-35.939-26.779-60.233-26.325
		c-8.546,0.159-17.114-2.408-25.705-2.672c-9.354-0.286-18.192,1.438-26.436,7.233c-5.138,3.61-12.18,5.781-18.525,6.196
		c-33.534,2.194-66.602-1.795-98.717-11.373c-10.622-3.169-20.876-9.027-29.975-15.513c-14.611-10.414-28.74-21.706-41.876-33.914
		c-8.738-8.121-18.191-13.134-29.629-15.091c-11.16-1.908-22.271-4.277-33.505-5.538c-18.117-2.031-32.922-9.956-45.176-23.164
		c-2.265-2.441-4.864-4.586-7.016-7.118c-5.804-6.827-12.953-11.835-21.678-13.395c-27.509-4.919-45.924-22.862-62.643-43.14
		c-7.369-8.938-10.344-19.954-11.398-31.35c-0.489-5.288,0.291-10.695-0.21-15.982c-1.071-11.319,1.7-21.318,10.207-28.934
		c9.525-8.526,10.534-19.242,9.974-30.912c-0.269-5.579-1.007-10.575-5.47-14.352c-6.938-5.871-9.841-13.951-12.708-22.219
		c-5.896-17.008-10.292-33.907-10.362-52.408c-0.093-24.502,7.694-45.934,20.485-65.671c8.277-12.775,19.082-23.912,28.776-35.766
		c8.154-9.968,18.451-14.64,31.542-13.841c14.617,0.893,29.371,0.188,43.899,1.733c11.714,1.246,22.443-0.024,32.895-5.164
		c2.381-1.171,5.04-1.768,7.449-2.89c34.217-15.94,69.802-14.453,105.843-8.752c7.07,1.117,12.541,4.197,17.207,9.138
		c10.058,10.649,19.994,21.415,29.957,32.154c2.257,2.433,4.422,4.952,6.432,7.21c9.917,1.189,19.139,2.404,28.39,3.346
		c3.279,0.333,6.867,0.781,9.902-0.155c19.39-5.978,39.313-6.237,59.295-6.212c1.313,0.002,2.627-0.377,5.063-0.75
		c2.035-2.269,4.761-5.092,7.228-8.126c2.045-2.516,3.787-5.28,5.438-7.617c-18.513-28.957-16.008-67.237-4.246-100.248
		c-7.852-7.265-15.37-14.638-23.358-21.462c-4.983-4.258-10.299-8.431-16.113-11.354c-21.335-10.727-37.061-28.035-53.416-44.597
		c-4.827-4.888-6.78-11.416-6.832-18.324c-0.074-9.997-0.657-20.048,0.149-29.98c1.102-13.572,7.287-25.618,14.922-36.502
		c6.847-9.761,15.263-18.421,23.72-28.434c1.905-39.018,22.44-69.321,53.104-92.885c17.668-13.578,31.893-28.733,43.609-47.977
		c16.919-27.789,35.347-54.944,58.069-78.662c9.143-9.543,14.251-20.666,14.614-33.975c0.216-7.986,1.324-15.975,1.133-23.939
		c-0.695-29.048,10.519-53.183,30.189-73.703c11.52-12.018,23.376-23.857,37.953-32.259c6.946-4.004,10.56-9.396,11.872-17.281
		c1.855-11.147,5.231-22.053,6.862-33.223c2.697-18.463,10.475-34.063,23.285-47.521c16.261-17.082,35.492-30.356,55.627-42.052
		c9.579-5.565,14.981-12.776,17.782-22.64c2.171-7.648,4.682-15.432,5.188-23.274c1.156-17.908,1.238-35.889,1.607-53.843
		c0.082-3.979-0.237-7.995-0.733-11.95c-3.412-27.229,7.487-49.414,24.395-69.467c5.148-6.105,10.528-12.015,16.646-18.975
		c-3.019-20.783,4.118-39.737,15.655-55.185c-8.441-18.082-16.229-34.189-23.426-50.557c-2.007-4.565-4.832-7.624-8.753-10.392
		c-10.397-7.339-19.144-16.173-26.316-26.927c-4.325-6.485-10.892-11.541-16.741-16.925c-5.693-5.24-9.624-11.123-8.513-19.184
		c2.03-14.729-3.394-27.074-10.882-39.343c-5.156-8.445-8.984-17.879-12.202-27.283c-3.252-9.501-6.216-18.712-13.353-26.359
		c-6.204-6.646-6.888-15.596-7.144-24.39c-0.27-9.291-0.593-18.201-7.927-25.867c-3.147-3.29-3.734-9.838-3.951-14.97
		c-0.617-14.64-1.08-29.343-0.393-43.964c0.571-12.128-1.787-22.149-11.754-30.053c-8.833-7.005-12.267-16.733-13.143-28.013
		c-2.171-27.958-3.12-55.844,0.562-83.745c0.604-4.584,0.626-9.246,1.024-15.592c-3.113-3.157-6.795-6.893-9.849-9.99
		c-3.801,0.497-5.838,0.417-7.622,1.051c-12.524,4.447-24.685,10.111-38.447,9.996c-2.483-0.021-5.623,0.875-7.366,2.514
		c-13.358,12.553-30.284,12.705-46.858,13.63c-10.631,0.593-21.324,0.156-31.988,0.053c-9.972-0.095-19.971,0.036-29.908-0.651
		c-11.9-0.822-22.078,1.119-30.265,11.122c-3.043,3.718-8.885,5.48-13.766,7.274c-6.196,2.278-12.715,3.68-19.856,5.673
		c-1.328,7.899-0.627,16.793-4.324,23.113c-8.723,14.91-7.495,30.658-6.912,46.405c0.423,11.417-5.161,20.338-10.991,29.967
		c6.241,12.274,11.631,24.452,18.403,35.805c9.36,15.693,10.964,32.569,9.743,50.073c-0.216,3.091-1.621,6.469-3.462,8.994
		c-3.521,4.827-7.799,9.094-11.675,13.669c-9.692,11.436-20.333,21.145-36.555,21.681c-1.792,0.06-3.531,1.712-6.048,3.016
		c-5.488,13.657,3.117,30.437-8.389,42.743c9.876,9.43,19.204,17.86,27.955,26.851c6.02,6.185,11.366,13.047,16.797,19.779
		c10.005,12.4,14.787,26.242,13.83,42.572c-1.441,24.581-1.268,49.255-2.484,73.854c-0.556,11.26-2.645,22.457-4.297,33.645
		c-2.457,16.649-11.185,29.669-23.941,40.232c-1.526,1.263-3.038,3.109-4.794,3.446c-21.423,4.111-30.127,25.191-47.663,32.552
		c1.233,16.453,2.176,30.336,3.404,44.193c0.227,2.563,1.045,5.448,2.556,7.456c6.5,8.638,6.729,18.54,6.602,28.63
		c-0.075,5.996-0.165,12.011,0.204,17.989c0.506,8.197,2.881,15.649,9.532,21.238c6.331,5.32,9.059,12.165,11.209,20.359
		c2.471,9.419,6.894,18.463,9.952,27.942c2.669,8.275,4.797,16.477,6.399,24.99c2.454,13.033,4.716,26.178,14.989,36.275
		c3.077,3.024,4.136,8.103,6.405,12.832c4.417,1.051,9.025,1.729,13.338,3.245c19.682,6.921,32.684,18.852,34.764,41.412
		c1.27,13.77,5.004,27.234,4.772,41.366c-0.152,9.332-2.783,16.968-8.805,23.594c-5.373,5.913-11.059,11.548-16.732,17.18
		c-6.897,6.845-15.312,10.6-24.98,11.175c-9.304,0.554-18.633,1.038-27.949,0.983c-7.007-0.041-13.128,1.197-17.903,6.796
		c-6.295,7.382-14.205,11.426-23.935,13.157c-4.85,0.864-9.362,4.604-13.599,7.641c-3.761,2.696-7.466,5.808-10.262,9.452
		c-9.182,11.964-21.584,14.553-35.645,13.661c-17.896-1.136-35.836-1.64-53.711-3.014c-4.385-0.337-8.626-2.912-12.857-4.641
		c-1.18-0.482-2.136-1.57-3.119-2.463c-15.238-13.84-30.324-27.851-45.755-41.473c-6.983-6.163-10.257-13.662-10.765-22.682
		c-0.226-3.986-0.748-7.988-0.583-11.959c0.429-10.285-0.823-19.329-9.169-27.221c-4.442-4.199-6.407-11.514-8.343-17.777
		c-6.508-21.058-10.827-42.564-12.038-64.659c-0.397-7.245-1.687-14.44-2.662-22.422c-5.322-0.641-9.805-1.656-14.28-1.624
		c-10.578,0.078-19.135-4.006-27.293-10.518c-5.598-4.468-12.094-8.492-18.848-10.681c-11.907-3.859-21.233-10.772-29.333-19.884
		c-2.654-2.985-5.251-6.055-8.176-8.762c-9.376-8.68-14.018-18.958-12.438-32.007c0.708-5.849,0.12-11.854,0.12-16.427
		c-7.034-7.852-14.29-9.926-22.722-9.261c-4.638,0.365-9.4-0.453-13.979,0.181c-15.95,2.205-28.673-3.578-39.264-15.044
		c-8.917-9.654-19.86-15.441-32.801-17.5c-8.868-1.411-16.254-5.713-22.793-11.641c-5.922-5.367-11.693-10.904-17.676-16.202
		c-6.228-5.514-9.709-12.595-12.093-20.332c-0.782-2.538-1.417-5.16-1.754-7.791c-3.258-25.378-12.65-47.411-33.604-63.488
		c-5.997-4.6-8.948-11.327-11.1-18.551c-4.207-14.117-7.434-28.338-7.321-43.173c0.228-29.97-1.018-59.979,3.069-89.829
		c0.811-5.918,0.798-11.965,0.916-17.957c0.354-18.021,1.177-35.946,9.066-51.993c-8.493-15.194-17.111-29.316-24.324-44.124
		c-3.08-6.324-4.257-14.04-4.514-21.188c-0.812-22.598-0.276-45.248-1.235-67.835c-0.76-17.901,5.871-32.382,17.405-45.259
		c2.206-2.463,4.454-4.887,7.137-7.827c-6.757-27.811-4.19-54.077,14.706-75.882c-1.139-8.404-2.417-15.555-3.019-22.761
		c-1.19-14.249,1.71-27.231,9-40.088c8.827-15.565,15.935-32.239,22.333-48.989c2.969-7.772,2.931-16.832,3.459-25.356
		c0.452-7.281-0.516-14.639-0.36-21.951c0.346-16.234,3.948-31.646,12.596-45.625c9.455-15.282,18.566-30.795,28.534-45.736
		c4.241-6.356,6.676-12.61,7.182-20.231c0.616-9.279,2.528-18.469,3.769-27.711c4.844-36.072,21.47-66.708,42.902-95.422
		c8.321-11.147,14.779-23.685,22.073-35.597c0.345-0.564,0.767-1.198,0.802-1.819c1.218-21.712,16.869-34.233,31.344-46.644
		c9.985-8.561,17.629-17.868,22.289-29.962c1.914-4.965,4.344-9.728,6.408-14.64c12.708-30.241,34.206-51.957,63.764-65.877
		c1.807-0.852,3.677-1.57,5.488-2.417c1.799-0.843,3.561-1.769,4.375-2.176c9.286-16.43,17.628-32.319,27.032-47.553
		c12.771-20.687,29.687-37.353,50.375-50.465c20.248-12.834,40.22-25.97,61.716-36.79c12.95-6.518,24.402-15.072,31.943-28.767
		c4.284-7.778,12.052-14.609,19.812-19.263c10.504-6.296,19.474-13.955,27.576-22.775c8.761-9.538,18.827-16.922,31.245-20.614
		c5.367-1.596,9.209-4.523,13.023-8.54C690.497,979.958,679.132,986.116,721.959,979.098z"/>
	<path fill-rule="evenodd" d="M3459.82,2669.135c-16.544-0.49-30.5-0.909-44.457-1.313c-3.994-0.116-8.005-0.449-11.984-0.238
		c-33.348,1.769-52.113-21.88-59.384-46.479c-2.792-9.448-6.28-17.22-13.617-23.403c-16.064-13.537-25.075-31.64-28.33-51.524
		c-6.934-42.347-2.408-82.386,30.094-114.861c7.965-7.958,15.06-16.79,22.511-25.258c4.695-5.337,10.569-7.719,17.644-7.855
		c26.127-0.504,52.094,0.491,76.326,11.661c25.387,11.702,45.81,29.206,59.72,53.799c4.012,7.089,6.705,14.524,5.982,22.829
		c-0.668,7.649,1.998,14.217,5.66,20.792c7.772,13.956,14.968,28.212,17.863,44.192c0.186,1.03,1.784,1.805,3.144,3.095
		c7.598-7.958,15.335-15.999,23-24.109c8.379-8.866,18.141-15.383,29.754-19.499c20.334-7.206,38.563-17.925,53.663-33.673
		c6.019-6.276,12.818-11.771,21.679-13.643c24.061-5.085,47.886-11.775,72.833-10.99c1.332,0.043,2.719-0.218,3.991,0.063
		c31.646,6.95,63.725-2.061,95.472,2.538c4.369,0.633,9.095-1.551,13.696-2.076c9.903-1.132,19.815-2.264,29.754-2.975
		c13.521-0.966,26.148,0.546,37.671,9.468c7.938,6.146,17.942,7.529,28.479,6.455c25.23-2.571,50.337-2.85,75.345,3.764
		c9.398,2.485,19.862,1.579,29.802,1.194c10.757-0.415,19.471,3.012,27.004,10.47c13.255,13.121,26.693,26.057,39.961,39.164
		c2.835,2.8,5.41,5.894,7.861,9.041c14.318,18.373,28.183,37.118,42.95,55.121c12.896,15.722,22.247,32.865,27.589,52.572
		c8.53,31.475,18.327,62.607,26.75,94.109c3.244,12.135,4.465,24.849,6.122,37.362c2.185,16.486,4.068,33.02,5.745,49.566
		c1.275,12.562,2.64,25.164,2.879,37.771c0.455,23.975-0.299,47.975,0.258,71.944c0.536,23.101-3.916,45.085-13.006,66.106
		c-10.073,23.294-17.285,47.416-23.997,71.856c-4.729,17.223-12.17,33.749-19.057,50.313c-5.871,14.123-13.275,27.619-18.931,41.819
		c-8.003,20.096-21.82,35.049-39.872,45.852c-11.267,6.742-19.32,15.372-26.2,26.448c-13.033,20.979-30.033,38.935-47.212,56.604
		c-1.827,1.879-3.945,4.177-6.298,4.74c-21.208,5.08-39.091,20.617-62.45,19.219c-10.298-0.616-19.349,4.742-27.761,10.126
		c-6.934,4.44-14.1,7.422-22.287,7.874c-20.599,1.14-41.202,2.18-61.798,3.388c-7.716,0.452-14.682-1.343-20.124-6.876
		c-10.867-11.051-24.395-12.445-38.789-11.669c-18.612,1.003-37.234,1.938-55.865,2.438c-10.58,0.285-21.083,0.59-31.409-3.928
		c-5.137-2.245-11.817-1.642-17.741-1.296c-25.842,1.509-50.241-3.538-73.798-14.186c-11.492-5.193-23.489-9.408-35.528-13.212
		c-17.465-5.517-32.668-14.674-46.686-26.231c-23.905-19.708-42.746-43.812-60.06-69.179c-8.228-12.055-8.3-26.432-9.582-40.343
		c-0.67-7.268-0.545-14.729-2.228-21.757c-3.014-12.576-9.899-23.146-19.466-31.967c-15.753-14.524-28.353-31.692-41.514-48.491
		c-10.619-13.558-17.081-28.534-21.023-44.785c-4.874-20.096-7.767-40.537-7.772-61.296c-0.003-10.661,0.024-21.323-0.003-31.986
		c-0.051-19.508,3.036-38.474,10.086-56.695c7.686-19.866,15.271-39.778,23.445-59.444c4.662-11.215,7.926-22.769,8.63-34.724
		c0.994-16.889,5.241-32.781,11.476-48.339c3.963-9.888,7.654-19.886,11.315-29.89
		C3458.598,2676.367,3458.832,2673.808,3459.82,2669.135z"/>
	<path fill-rule="evenodd" d="M2146.456,3713.973c-16.67-1.342-42.795-1.711-68.297-5.889
		c-41.948-6.873-80.409-22.516-112.93-51.337c-16.914-14.988-35.522-28.055-53.19-42.206c-8.301-6.648-16.29-13.7-24.243-20.769
		c-11.583-10.294-20.834-22.364-27.313-36.531c-2.209-4.831-4.496-9.726-7.482-14.087c-11.443-16.706-14.081-35.544-14.515-55.147
		c-0.234-10.609-1.841-21.185-2.151-31.795c-0.604-20.608-1.362-41.249-0.747-61.838c0.25-8.388,2.671-17.261,6.281-24.882
		c7.39-15.597,15.101-31.279,27.874-43.486c5.797-5.541,7.291-12.157,7.35-19.856c0.086-11.293,0.923-22.584,1.56-33.868
		c0.822-14.557,6.364-27.21,16.514-37.558c8.384-8.546,17.323-16.55,26.073-24.733c5.084-4.755,11.066-7.163,18.147-6.86
		c4.653,0.199,9.333-0.189,13.983,0.036c8.432,0.409,15.876-2,21.942-7.794c7.358-7.028,15.994-10.886,25.602-14.33
		c10.447-3.743,19.529-11.187,29.404-16.659c14.513-8.041,28.901-16.402,43.883-23.48c25.785-12.183,53.066-10.47,80.326-6.641
		c10.884,1.528,20.118,7.222,28.521,13.708c22.532,17.396,48.424,27.523,75.055,36.319c10.101,3.335,19.973,7.372,30.1,10.619
		c16.91,5.425,31.234,14.832,43.199,27.741c7.794,8.408,16.81,14.682,26.828,20.269c9.182,5.121,17.673,11.924,25.369,19.156
		c11.144,10.471,21.228,22.062,31.893,33.05c8.981,9.253,15.598,19.992,19.483,32.181c7.874,24.704,17.308,49.154,22.332,74.457
		c5.054,25.45,4.506,51.328-8.966,75.688c-8.549,15.457-19.05,28.816-31.939,40.481c-5.704,5.161-8.974,10.78-10.014,18.637
		c-1.392,10.507-3.836,20.978-6.906,31.138c-6.254,20.693-16.759,39.111-32.189,54.438c-9.446,9.381-19.053,18.612-28.848,27.629
		c-9.053,8.334-19.685,13.968-32.15,14.381c-7.28,0.242-12.476,3.53-17.778,7.767c-12.481,9.976-25.198,19.654-37.793,29.489
		c-11.498,8.979-24.602,12.734-39.085,12.605C2192.988,3713.848,2174.337,3713.973,2146.456,3713.973z"/>
	<path fill-rule="evenodd" d="M1887.885,121.84c0.354,13.457,0.877,26.744,0.97,40.034c0.036,5.294-0.431,10.687-1.491,15.864
		c-0.924,4.509-1.877,9.819-4.781,12.964c-10.032,10.873-10.128,27.053-21.976,37.271c-11.592,9.999-22.063,21.154-36.216,27.766
		c-2.958,1.383-5.581,3.482-8.695,5.464c-1.098,4.565-2.547,8.999-3.197,13.546c-3.394,23.796-17.809,37.697-39.731,45.219
		c-8.799,3.019-17.384,6.655-26.136,9.819c-14.7,5.314-25.564,14.356-35.547,27.012c-18.91,23.974-40,46.333-63.442,66.234
		c-6.058,5.144-11.558,10.974-17.071,16.722c-8.292,8.645-16.436,17.436-24.524,26.271c-11.366,12.417-24.172,22.855-39.889,29.293
		c-7.145,2.927-11.508,7.778-14.841,15.021c-8.016,17.424-22.29,29.978-37.813,40.176c-17.602,11.565-38.061,10.421-58.08,7.63
		c-3.771-0.526-7.552-2.724-10.808-4.92c-19.947-13.45-38.118-29.013-54.447-46.703c-3.754-4.068-6.031-8.657-5.949-14.352
		c0.153-10.651-0.415-21.347,0.371-31.946c0.893-12.041,4.081-23.507,11.704-33.438c3.146-4.098,5.26-8.988,7.257-12.487
		c-0.698-2.859-0.596-4.532-1.382-5.344c-9.034-9.333-16.196-19.398-14.274-33.39c-6.961-17.307-3.898-35.45-4.258-53.277
		c-0.12-5.921,0.187-12.206,2.028-17.749c6.908-20.79,10.931-42.636,21.761-62.014c3.051-5.459,4.211-11.027,4.14-17.171
		c-0.068-5.979,0.098-12.006,0.801-17.937c1.201-10.116,4.488-19.687,11.801-26.975c9.871-9.838,20.308-19.112,30.614-28.505
		c7.838-7.142,16.006-13.925,23.745-21.168c9.229-8.64,17.911-17.874,27.269-26.365c20.473-18.576,44.257-29.189,72.355-28.847
		c7.325,0.089,14.671-0.354,21.972,0.071c8.804,0.513,16.945-0.689,25.082-4.544c11.285-5.347,23.523-2.951,35.368-2.086
		c2.945,0.215,5.802,2.982,8.511,4.849c8.768,6.043,17.49,12.155,26.148,18.353c7.149,5.116,13.917,6.167,22.099,1.257
		c9.082-5.45,19.198-9.146,28.638-14.039c24.623-12.763,50.036-11.326,75.683-4.372c17.719,4.804,32.002,16.025,46.256,26.814
		C1875.241,107.41,1881.086,114.926,1887.885,121.84z"/>
	<path fill-rule="evenodd" d="M3155.297,2344.351c-1.918-2.75-2.455-4.112-3.453-4.866c-14.609-11.035-18.611-25.455-17.803-43.609
		c1.788-40.133-4.062-27.758,26.062-58.045c6.516-6.551,14.522-11.653,22.019-17.187c15.354-11.332,32-18.377,51.74-17.858
		c9.771,0.256,19.414-1.784,29.162-5.164c24.126-8.363,48.014,0.139,63.65,20.941c2.608,3.47,4.413,8.429,4.502,12.742
		c0.253,12.252,5.877,21.132,14.065,29.748c9.094,9.568,18.361,19.605,20.129,33.726c2.909,23.248,4.665,46.187-7.218,68.131
		c-9.483,17.514-16.479,36.423-26.538,53.563c-10.729,18.279-25.121,32.811-49.243,31.463c-11.957-0.668-24.029,0.312-35.938-0.727
		c-9.169-0.8-18.689-2.3-27.136-5.741c-21.746-8.856-41.338-21.263-57.333-38.937c-4.836-5.343-6.873-10.971-6.744-18.017
		C3155.477,2370.567,3155.297,2356.613,3155.297,2344.351z"/>
</g>
</svg>
