<?xml version="1.0" encoding="utf-8"?>
<!-- Generator: Adobe Illustrator 16.0.2, SVG Export Plug-In . SVG Version: 6.00 Build 0)  -->
<!DOCTYPE svg PUBLIC "-//W3C//DTD SVG 1.1 Tiny//EN" "http://www.w3.org/Graphics/SVG/1.1/DTD/svg11-tiny.dtd">
<svg version="1.1" baseProfile="tiny" id="Layer_1" xmlns="http://www.w3.org/2000/svg" xmlns:xlink="http://www.w3.org/1999/xlink"
	 x="0px" y="0px" width="4366.454px" height="3983.502px" viewBox="0 0 4366.454 3983.502" xml:space="preserve">
<g>
	<path fill-rule="evenodd" fill="#FFFFFF" d="M4370.878,3991.501c-1455.438,0-2911.083,0-4366.803,0
		c0-1328.958,0-2657.916,0-3987.187c1455.358,0,2910.794,0,4366.803,0C4370.878,1333.166,4370.878,2662.333,4370.878,3991.501z
		 M3086.08,3823.61c4.945,4.464,9.1,8.669,13.73,12.258c4.123,3.193,8.45,6.577,13.249,8.363
		c19.336,7.193,38.536,15.186,58.455,20.254c22.054,5.611,44.636,6.607,66.242-3.999c10.145-4.98,20.604-9.407,31.18-13.4
		c17.7-6.683,33.201-16.934,47.764-28.665c14.17-11.415,29.54-20.271,47.303-24.641c11.097-2.728,21.272-7.342,31.075-13.281
		c6.146-3.726,13.109-7.451,20.053-8.287c34.764-4.187,26.212-9.612,54.14,13.692c11.631,9.707,24.276,16.56,38.849,19.313
		c9.051,1.711,18.51,1.186,27.771,1.865c11.79,0.866,22.708-2.101,32.125-8.83c10.988-7.853,23.612-11.92,35.486-17.732
		c27.534-13.479,50.996-31.322,57.337-64.394c2.944-15.357,13.03-24.647,28.845-25.903c9.155-0.727,16.781-4.053,23.535-9.712
		c6.109-5.121,12.013-10.529,17.604-16.207c2.212-2.245,4.354-5.418,4.776-8.414c1.491-10.617,7.862-17.84,14.839-25.271
		c18.021-19.195,28.829-41.432,26.314-68.652c-0.244-2.644-0.26-5.352,0.001-7.991c1.34-13.547-3.438-25.138-12.406-34.694
		c-19.541-20.825-37.502-43.417-62.773-58.114c-3.367-1.957-6.168-4.884-8.021-6.382c-3.406-15.864-6.384-30.183-9.565-44.455
		c-5.489-24.622-20.146-43.169-39.564-58.279c-4.097-3.188-9.143-5.552-14.12-7.13c-9.481-3.008-19.147-5.562-28.883-7.615
		c-23.614-4.984-47.57-6.616-71.511-3.73c-18.615,2.243-36.315,7.702-51.979,18.981c-9.113,6.561-18.598,13.282-30.478,14.094
		c-23.246,1.59-46.514,2.844-69.752,4.537c-8.516,0.62-15.601-1.85-21.94-7.374c-6.684-5.823-14.466-10.128-23.289-10.582
		c-17.238-0.889-34.745-3.041-51.585,2.399c-11.691,3.777-22.017,2.155-33.345-4.781c-0.097-8.241-0.409-16.803-0.251-25.355
		c0.307-16.56-3.145-31.707-15.137-44.034c-0.633-0.65-0.082-2.453-0.082-3.474c9.063-7.932,18.529-15.339,26.927-23.806
		c8.878-8.951,16.667-18.973,25.059-28.415c9.352-10.525,12.331-22.856,12.92-36.76c1.679-39.618-7.668-76.685-24.569-112.021
		c-14.948-31.254-29.484-62.63-41.632-95.123c-7.47-19.981-17.104-39.032-29.392-56.626c-26.881-38.485-46.575-80.46-62.562-124.549
		c-18.387-50.705-39.115-100.487-66.13-147.417c-7.039-12.226-14.652-23.757-25.093-33.373
		c-12.575-11.581-20.482-25.96-25.143-42.387c-3.086-10.872-7.237-21.436-10.616-32.229c-8.626-27.556-26.956-46.904-51.134-61.567
		c-5.644-3.424-11.071-7.414-15.936-11.869c-8.438-7.729-8.05-13.934-1.727-20.684c7.763-8.287,10.951-17.949,9.969-29.191
		c-0.165-1.888,0.632-3.859,1.593-9.134c4.499-3.965,10.975-9.718,17.5-15.412c5.801-5.062,9.499-11.644,10.146-19.001
		c1.476-16.791,5.718-32.665,12.374-48.101c2.068-4.798,2.396-10.358,3.426-15.588c2.691-13.686,5.7-27.322,7.85-41.092
		c1.294-8.285,4.537-14.871,10.552-20.769c9.013-8.836,12.546-20.127,12.37-32.695c-0.14-9.996,0.264-20.006-0.06-29.993
		c-1.444-44.726-5.316-89.072-20.953-129.007c1.621-9.892,3.671-17.523,3.997-25.229c1.561-36.834-2.792-73.136-11.014-109.008
		c-1.808-7.884-2.023-15.648-1.146-23.757c1.5-13.872,2.342-27.856,2.584-41.81c0.164-9.426,1.049-18.507,3.964-27.514
		c8.812-27.231,16.88-54.712,26.202-81.764c4.634-13.449,7.604-26.782,6.937-41.006c-0.561-11.973-0.713-23.97-0.791-35.958
		c-0.029-4.54,0.658-9.083,0.994-13.317c4.44-2.068,7.989-3.837,11.628-5.395c11.926-5.104,23.584-6.894,36.75-2.665
		c10.565,3.395,22.306,3.114,33.518,4.511c3.844,0.479,7.669,1.103,12.076,1.743c0.329,5.254,1.094,9.864,0.816,14.409
		c-0.944,15.48,1.856,30.461,4.863,45.523c1.5,7.509,4.313,13.948,9.621,19.306c11.226,11.333,22.512,22.607,33.802,33.876
		c4.702,4.694,9.709,9.11,14.091,14.081c1.461,1.659,1.409,4.653,2.193,7.571c-10.022,3.432-19.371,1.893-28.48,1.827
		c-14.188-0.102-27.74,4.086-40.536,8.437c-17.025,5.787-31.008,17.844-42.918,31.734c-3.626,4.228-6.106,8.803-5.969,14.393
		c0.348,13.961,0.014,28.014,1.549,41.853c2.711,24.435,23.831,50.911,46.856,60.182c9.232,3.718,18.005,7.941,25.164,16.344
		c-4.223,5.568-8.229,10.787-12.166,16.055c-4.04,5.407-7.236,11.078-7.1,18.217c0.374,19.293-0.295,38.518,2.724,57.817
		c2.623,16.766,10.062,29.966,21.748,41.547c7.54,7.473,15.2,14.908,21.974,23.054c11.966,14.387,26.633,21.704,45.508,19.979
		c2.643-0.241,5.343-0.213,7.993-0.006c13.302,1.04,24.886-3.298,35.446-11.037c23.723-17.384,46.04-36.032,61.227-61.996
		c2.835-4.846,4.601-9.226,4.885-14.672c1.189-22.81-1.763-45.229-6.188-67.497c-1.579-7.943-4.767-15.245-10.975-20.881
		c-8.355-7.587-16.612-15.282-25.004-22.829c-7.829-7.041-15.027-14.591-21.523-23.24c3.081-4.053,5.696-7.041,7.781-10.361
		c2.057-3.277,3.576-6.89,5.333-10.356c15.79,8.141,15.795,8.34,35.935,7.845c7.259-0.179,14.48-1.649,21.732-2.393
		c8.589-0.882,17.18-1.827,25.795-2.302c3.146-0.175,6.766,0.108,8.949,5.472c-2.368,3.464-4.671,8.247-8.229,11.758
		c-9.133,9.021-12.771,20.015-13.28,32.391c-0.246,5.99,0.43,12.089-0.449,17.969c-2.854,19.094,5.733,33.561,17.946,46.714
		c3.625,3.906,7.573,7.515,11.15,11.463c2.662,2.936,5.388,5.954,7.348,9.36c6.304,10.956,12.762,21.872,18.227,33.252
		c5.855,12.193,12.975,23.24,23.206,32.151c5.313,4.627,8.512,10.12,7.823,17.443c-0.792,8.41,2.232,15.71,6.879,22.455
		c11.709,16.992,22.854,34.419,35.388,50.781c10.53,13.747,23.09,25.711,38.17,34.855c6.782,4.114,12.563,9.849,19.056,14.484
		c4.287,3.06,8.715,6.681,13.627,7.979c31.229,8.258,62.784,11.645,94.908,5.041c10.166-2.09,19.008-6.063,25.849-13.888
		c7.37-8.429,14.516-17.053,22.807-26.825c25.387,2.547,51.646-1.311,77.909-6.144c10.056-1.852,19.161-5.03,27.836-10.257
		c13.373-8.058,23.834-19.063,33.143-31.361c2.719-3.593,5.6-7.063,7.071-8.914c23.475,0.2,44.765,0.717,66.044,0.446
		c14.403-0.184,27.508-4.247,37.347-15.903c6.87-8.137,14.134-15.945,21.327-23.804c6.188-6.761,8.828-14.648,8.58-23.766
		c-0.234-8.616-0.051-17.243-0.051-24.471c10.248-11.151,19.454-20.762,28.136-30.824c3.417-3.959,7.688-8.775,8.048-13.471
		c0.972-12.727,9.097-20.124,17.127-28.132c4.7-4.688,8.822-9.967,13.088-15.078c7.101-8.507,10.647-18.54,10.941-29.435
		c0.396-14.65,0.811-29.375-0.219-43.967c-0.942-13.352-4.565-26.426-13.711-36.838c-10.603-12.075-22.525-22.7-37.271-29.684
		c-10.226-4.843-20.461-9.669-30.624-14.641c-4.637-2.268-9.11-4.873-13.726-7.363c1.202-52.252-10.021-97.778-58.957-123.245
		c-7.476-17.839-13.909-34.651-21.556-50.892c-4.531-9.624-5.439-18.901-3.238-29.042c1.404-6.477,2.618-13.137,2.71-19.73
		c0.324-23.326,0.284-46.66-0.004-69.986c-0.055-4.475-1.434-9.079-2.948-13.358c-2.658-7.499-6.323-14.653-8.809-22.2
		c-7.55-22.919-21.514-42.72-31-64.68c-18.292-21.083-35.579-43.286-61.993-55.269c-2.931-1.329-5.732-2.939-8.521-4.381
		c-2.272-23.935-12.938-42.741-31.021-56.761c-6.56-5.085-11.417-10.866-15.703-17.637c-15.727-24.847-33.545-47.793-55.126-68.15
		c-16.481-15.547-33.698-30.153-50.408-45.335c-19.346-17.578-41.387-31.24-61.826-47.126
		c-24.131-18.754-50.541-34.604-76.212-51.334c-11.146-7.263-22.575-14.255-34.487-20.135c-13.092-6.463-26.489-13.021-40.5-16.686
		c-11.298-2.956-21.191-7.491-30.612-13.813c-8.851-5.94-17.306-12.561-26.547-17.805c-9.197-5.219-18.895-9.837-28.851-13.365
		c-11.26-3.99-22.912-7.213-34.645-9.441c-18.897-3.589-34.596-13.261-49.91-23.972c-3.271-2.288-6.364-4.844-9.441-7.395
		c-13.48-11.167-28.76-19.161-44.835-25.844c-9.965-4.144-20.079-6.388-31.028-6.259c-19.379,0.229-38.43-1.888-56.236-10.771
		c-4.657-2.323-10.215-2.834-15.355-4.196c-5.104-1.352-10.385-2.259-15.267-4.183c-13.131-5.174-26.557-8.939-40.726-9.004
		c-10.604-0.048-19.507-3.527-26.969-11.005c-2.348-2.352-4.905-4.503-7.444-6.655c-31.978-27.117-67.85-43.999-110.838-42.746
		c-8.166,0.238-16.014,0.607-22.686,5.918c-5.833,4.644-12.259,4.371-18.951,2.614c-5.8-1.523-11.732-2.625-17.409-4.504
		c-18.564-6.144-37.571-8.462-57.081-8.069c-6.545,0.131-13.405-0.39-19.635-2.245c-27.542-8.202-55.603-6.381-83.229-2.893
		c-12.518,1.58-23.275,1.434-34.637-3.624c-22.139-9.855-45.398-15.316-69.755-15.05c-24.223,0.266-18.421-2.818-36.134,15.333
		c-1.322,1.355-2.993,2.368-3.603,2.84c-12.78-1.816-24.459-3.477-36.303-5.16c-6.341-18.455-9.928-36.715-12.621-55.104
		c-1.016-6.94-3.414-12.819-7.642-18.066c-3.758-4.662-7.591-9.341-11.939-13.428c-5.551-5.212-9.405-11.084-10.591-18.687
		c-1.19-7.63-5.388-13.637-11.237-18.333c-12.393-9.947-24.62-20.182-37.687-29.176c-6.229-4.289-9.63-8.708-9.257-16.118
		c0.134-2.659-0.102-5.335,0.009-7.997c0.573-13.918-3.43-26.427-12.254-37.112c-9.744-11.797-19.847-23.306-29.985-34.769
		c-11.715-13.245-25.355-23.678-43.16-27.229c-7.232-1.442-11.336-5.749-14.844-11.984c-4.213-7.491-8.787-15.141-14.743-21.214
		c-12.571-12.821-25.841-25.013-39.471-36.71c-4.852-4.163-11.528-8.5-17.46-8.624c-11.802-0.245-20.694-5.83-28.488-12.715
		c-14.576-12.873-31.627-16.142-50.011-16.334c-7.907-0.082-15.813-0.287-24.624-0.453c-6.153-30.968-23.558-54.042-44.92-74.838
		c-6.636-6.458-13.411-10.015-22.889-9.69c-10.013,0.344-19.449-1.522-28.002-8.375c-4.792-3.839-12.055-5.232-18.441-6.265
		c-6.502-1.052-13.294-0.355-19.958-0.344c-17.825,0.032-34.557,2.722-46.403,18.208c-4.103,5.364-9.869,7.07-16.03,4.088
		c-15.272-7.394-31.301-4.597-47.176-4.061c-9.702,0.327-18.155,3.949-25.417,10.293c-12.498,10.921-24.922,21.925-38.882,34.221
		c-16.198-1.093-27.141,10.233-36.916,23.549c-3.137,4.273-6.114,8.862-10.03,12.332c-10.288,9.119-14.253,20.375-13.877,33.844
		c0.371,13.298,0.081,26.614,0.081,39.454c-2.632,2.466-4.445,4.409-6.497,6.054c-40.533,32.483-71.87,72.931-100.312,115.869
		c-4.402,6.646-9.08,13.308-9.448,21.715c-0.67,15.299-2.316,30.734,1.735,45.75c3.928,14.563,2.471,29.249,0.545,43.54
		c-2.286,16.954-7.312,33.538-11.348,51.15c-7.224,3.172-15.045,0.787-22.555-1.513c-10.357-3.17-20.828-4.184-31.558-4.02
		c-10.663,0.164-21.332,0.162-31.994,0.014c-21.725-0.302-42.451,4.496-61.927,13.631c-10.024,4.703-19.182,8.074-30.4,4.271
		c-5.462-1.853-11.866-1.18-17.845-1.207c-23.996-0.11-47.992-0.013-71.988-0.074c-5.322-0.015-10.841,0.484-15.933-0.703
		c-28.266-6.594-55.592-0.341-82.941,5.555c-3.819,0.823-8.025,2.305-10.844,4.833c-7.677,6.884-16.603,7.484-26.11,7.194
		c-9.323-0.285-18.668,0.168-27.992-0.109c-18.113-0.54-35.685,2.341-53.366,6.171c-35.1,7.6-69.215,19.393-105.148,23.56
		c-25.777,2.989-51.278,7.855-77.41,8.138c-15.89,0.172-32.061,0.38-47.373,6.083c-18.714,6.971-37.354,14.154-56.177,20.818
		c-16.286,5.768-32.481,12.242-49.245,16.126c-47.21,10.938-87.916,34.15-125.01,64.267c-18.166,14.749-34.784,31.176-42.985,54.102
		c-0.856,2.394-2.738,4.422-3.583,5.743c-8.146,2.194-16.103,2.543-21.957,6.23c-23.271,14.651-45.265,31.079-55.761,58.006
		c-4.286,10.992-11.206,19.657-20.204,26.734c-15.177,11.938-30.708,23.424-45.998,35.219c-15.343,11.836-29.781,24.5-40.228,41.239
		c-3.089,4.951-7.933,8.845-12.144,13.05c-9.425,9.413-20.671,17.558-27.988,28.376c-8.069,11.928-17.984,21.106-28.916,29.822
		c-4.673,3.725-8.807,8.128-13.177,12.233c-9.291,8.729-17.773,18.034-22.424,30.231c-5.526,14.488-13.867,27.234-24.027,38.905
		c-14.531,16.693-25.6,35.605-35.794,55.19c-8.824,16.953-14.039,34.399-12.907,53.662c0.586,9.965,0.204,19.735-4.696,29.159
		c-2.293,4.409-2.459,10.384-2.179,15.574c0.568,10.543-2.54,19.51-8.55,28.016c-6.17,8.734-11.215,18.151-12.876,28.965
		c-1.994,12.979-8.543,23.676-16.743,33.54c-4.259,5.122-8.892,9.957-12.878,15.279c-13.494,18.021-23.101,37.607-21.019,60.89
		c1.757,19.651-4.834,36.202-15.184,52.548c-9.931,15.683-17.887,32.666-26.001,49.42c-2.83,5.844-4.442,12.625-5.071,19.128
		c-3.044,31.425,4.647,62.122,7.063,93.188c0.304,3.908,1.554,7.95,3.257,11.503c5.773,12.049,3.439,23.315-2.526,34.388
		c-1.895,3.519-3.891,6.983-5.889,10.445c-6.133,10.618-9.225,21.833-8.749,34.305c0.584,15.309,0.137,30.657,0.137,45.987
		c0,32.306,0.001,32.306,23.063,58.301c-0.768,13.108-0.525,27.839-2.711,42.201c-4.027,26.47-10.027,52.361-30.602,72.172
		c-3.464,3.335-5.847,9.371-6.041,14.268c-1.1,27.855-4.21,56.343,16.843,79.604c1.312,1.448,2.266,3.327,3.018,5.158
		c4.674,11.374,12.2,20.703,21.46,28.476c10.239,8.595,15.33,19.6,18.2,32.319c6.494,28.771,21.348,52.857,42.31,73.376
		c12.137,11.88,26.202,20.255,42.627,24.89c6.987,1.973,13.889,4.623,20.406,7.824c25.766,12.657,52.609,21.864,82.252,26.461
		c0.849,15.475,13.512,23.223,23.226,32.983c4.793,4.814,9.065,9.131,10.022,16.48c0.963,7.398,5.604,13.399,10.912,18.666
		c5.205,5.164,10.452,10.29,15.521,15.584c6.701,6.999,14.126,11.319,24.48,11.095c10.392-0.226,17.007,6.509,20.676,15.832
		c1.696,4.312,2.832,8.899,3.729,13.459c2.052,10.427,3.638,20.946,5.725,31.365c1.589,7.933,1.981,15.455-0.491,23.542
		c-4.163,13.61-2.66,27.737-0.79,41.631c0.42,3.123,1.918,6.573,3.997,8.916c7.06,7.954,13.947,16.511,24.438,20.082
		c12.693,4.321,20.401,13.022,27.806,24.053c10.523,15.67,24.948,28.396,45.154,29.946c21.873,1.677,43.856,1.92,65.787,2.876
		c14.226,0.62,26.135-4.972,36.041-14.457c7.571-7.253,14.081-15.612,22.868-25.514c15.128-4.9,33.514-6.621,52.252-6.627
		c24.324-0.008,45.906-18.396,50.495-42.525c4.509-23.711,4.518-47.705,3.842-71.693c-0.107-3.826-0.9-8.553-3.24-11.243
		c-12.508-14.383-23.441-30.837-46.202-30.841c-11.91-0.001-20.056-10.345-20.664-22.527c-0.132-2.66-0.263-5.353-0.016-7.994
		c1.119-11.949-2.286-21.882-10.599-30.986c-7.589-8.313-14.135-17.824-13.543-30.226c0.274-5.748-2.863-10.051-6.698-13.991
		c-4.152-4.265-8.142-8.688-12.122-12.956c-0.843-31.785,3.431-63.143-3.179-94.391c6.85-6.949,13.299-13.658,19.964-20.146
		c1.844-1.796,4.304-4.12,6.528-4.172c12.259-0.285,18.755-9.23,26.175-16.701c25.418-25.591,19.25-16.156,26.755-51.235
		c6.399-29.91,2.646-58.33-12.082-85.083c-8.467-15.377-13.226-31.821-16.461-48.909c-2.768-14.614-7.885-28.163-18.89-38.907
		c-2.729-2.664-4.627-6.178-6.414-8.624c4.017-13.162,7.665-25.115,11.061-36.244c30.563-15.059,49.183-36.917,47.942-72.099
		c-0.21-5.96,0.401-11.958,0.772-17.93c0.702-11.264,1.537-22.52,2.253-33.783c0.438-6.889-1.029-13.527-5.253-18.886
		c-8.841-11.214-10.871-23.883-9.929-37.627c0.501-7.297-0.308-14.684,0.197-21.98c0.359-5.196,1.467-10.452,3.041-15.427
		c3.589-11.345,7.671-22.535,12.338-36.066c6.06-2.255,14.018-5.405,22.122-8.119c2.419-0.811,5.593-1.287,7.829-0.408
		c12.953,5.085,26.389,2.697,39.602,2.929c41.374,0.729,80.329-9.45,117.61-26.869c4.642-2.168,9.546-3.776,15.484-6.095
		c0.401,6.233,0.911,10.791,0.948,15.353c0.114,13.996,0.055,27.994,0.05,41.992c-0.014,32.987,9.084,63.169,28.585,89.849
		c7.051,9.645,14.766,18.943,23.16,27.427c6.612,6.683,9.199,13.75,9.317,23.028c0.186,14.624,0.921,29.349,2.944,43.817
		c4.067,29.085,9.554,57.966,24.667,83.801c9.405,16.076,19.839,31.569,23.266,50.401c0.463,2.543,1.739,5.133,3.259,7.256
		c8.202,11.461,9.759,24.35,8.828,37.922c-0.318,4.645,0.321,9.362-0.112,13.988c-2.108,22.499,6.708,40.162,23.361,54.652
		c5.41,4.706,10.327,9.979,14.016,13.576c-2.494,15.196-5.823,28.229-6.428,41.388c-0.512,11.127-3.002,20.528-9.542,29.578
		c-7.84,10.848-14.659,22.757-14.409,36.64c0.196,10.865-3.559,18.74-11.158,26.382c-17.89,17.99-28.957,39.728-31.338,65.306
		c-0.8,8.605-0.293,17.339-1.216,25.925c-1.306,12.125,1.794,22.284,10.958,30.528c0.797,0.718,0.688,2.443,1.385,5.26
		c-4.748,4.377-10.222,9.201-15.449,14.281c-12.042,11.701-22.501,24.938-29.731,39.9c-8.353,17.283-20.292,31.031-34.344,43.559
		c-21.035,18.754-38.232,40.503-52.759,64.809c-26.013,43.523-54.687,85.261-89.934,122.06
		c-6.454,6.737-13.068,13.321-19.483,20.094c-13.052,13.78-23.309,28.736-25.005,48.685c-1.458,17.142-11.213,29.397-26.35,37.601
		c-8.776,4.757-17.651,9.545-25.683,15.413c-11.602,8.478-24.173,13.252-38.379,15.243c-15.515,2.176-28.291,14.935-29.977,30.364
		c-1.586,14.52-1.639,29.242-1.656,43.876c-0.005,4.438,2.066,8.984,3.671,13.301c7.199,19.349,14.313,38.736,22.02,57.884
		c2.871,7.131,3.236,13.988,2.445,21.445c-1.122,10.562-1.704,21.214-1.775,31.833c-0.025,3.739,1.069,8.474,3.47,11.078
		c12.118,13.143,22.407,28.423,39.169,36.517c9.402,4.539,15.547,11.952,20.569,19.98c-0.693,2.149-0.755,3.694-1.547,4.594
		c-11.714,13.295-15.26,29.054-14.891,46.318c0.27,12.647-0.212,25.321-0.701,37.97c-0.144,3.726-1.451,7.409-2.168,10.836
		c-3.057,0.519-5.009,1.074-6.979,1.15c-15.021,0.578-28.817,4.641-40.954,13.818c-2.64,1.996-5.58,3.658-8.544,5.154
		c-8.049,4.063-11.193,3.644-17.926-2.331c-6.464-5.738-12.424-12.125-19.306-17.297c-17.782-13.364-38.139-21.811-59.3-27.868
		c-41.139-11.777-83.072-18.327-126.057-18.25c-18.937,0.034-35.548,5.514-49.997,16.971c-11.966,9.488-23.377,19.813-34.141,30.65
		c-16.906,17.023-32.134,35.536-45.711,55.39c-5.814,8.501-8.549,17.313-9.056,27.852c-0.994,20.688,4.712,39.307,12.793,57.857
		c7.786,17.876,19.67,31.574,37.206,39.884c8.981,4.257,13.001,10.953,13.338,20.362c0.216,5.992,0.237,12,0.072,17.994
		c-0.313,11.395,0.219,22.628,4.515,33.409c0.424,1.063-0.279,2.576-0.55,4.534c-3.459,4.09-7.272,8.597-11.027,13.036
		c0,10.61-0.242,20.603,0.122,30.572c0.141,3.852,0.517,8.576,2.742,11.316c8.812,10.858,18.094,21.353,32.197,25.902
		c18.356,5.922,36.679,11.972,54.837,18.468c5.488,1.962,11.167,4.731,15.412,8.605c18.107,16.525,39.184,27.903,62.344,34.703
		c24.307,7.136,47.569,16.242,70.558,26.9c19.957,9.252,39.943,18.174,58.732,29.685c6.786,4.157,13.958,10.083,21.228,10.507
		c11.653,0.679,18.29,7.089,24.751,14.63c7.915,9.235,17.625,13.787,29.696,13.817c19.308,0.047,38.615,0.263,57.924,0.334
		c20.759,0.076,41.131-2.22,61.022-11.315c9.136,10.358,21.215,10.546,33.273,9.426c13.226-1.229,26.455-2.899,39.512-5.306
		c10.117-1.864,19.737-2.506,29.204,2.297c2.953,1.498,6.235,2.33,9.292,3.643c37.406,16.06,76.796,22.516,117.075,20.861
		c35.695-1.467,72.013-0.077,106.312-13.565c3.648-1.435,7.882-1.295,11.716-2.35c15.93-4.379,32.595-6.567,46.37-17.13
		c5.903-4.525,13.261-6.148,20.823-5.781c10.435,0.507,19.294-3.694,28.298-8.384c18.094-9.423,32.688-22.903,45.874-38.056
		c14.314-16.448,24.247-34.99,25.674-57.313c0.211-3.304,1.625-6.558,1.651-9.84c0.144-17.939,0.028-35.882,0.002-53.821
		c-7.824-12.865-3.817-25.372,0.653-38.145c3.292-9.408,5.398-19.226,8.233-28.802c1.089-3.683,2.732-7.204,4.004-10.492
		c10.783-1.44,20.734-2.165,30.401-4.23c9.733-2.078,19.162-5.559,28.759-8.301c14.636-4.18,24.197-13.333,28.154-28.176
		c1.714-6.431,3.757-12.777,5.343-19.239c1.685-6.873,4.917-11.916,12.043-14.533c9.477-3.479,17.614-9.21,24.547-16.702
		c2.029-2.192,5.091-3.429,7.888-5.238c5.82,6.248,10.993,11.391,15.695,16.932c12.545,14.785,29.995,19.379,47.797,21.468
		c15.135,1.776,30.24-0.551,45.434-4.173c17.132-4.084,28.078-14.104,37.032-27.879c1.398-2.151,2.735-4.341,4.426-7.031
		c20.87,7.805,42.134,7.758,63.427,7.46c29.307-0.409,35.667-3.468,55.61-25.167c9.002-9.795,14.091-20.767,13.72-34.245
		c-0.275-9.991,0.019-19.996-0.036-29.993c-0.029-5.472,0.379-10.787,5.111-14.471c7.718-6.007,8.939-14.15,8.501-23.229
		c-0.415-8.604-0.089-17.245-0.089-24.968c-7.761-8.408-13.933-16.173-23.287-20.725c-12.452-6.061-25.033-12.042-36.778-19.316
		c-11.218-6.948-22.672-10.382-35.848-9.487c-8.036,0.546-15.474,0.843-22.641,5.886c-5.755,4.049-14.183,4.418-19.699,8.663
		c-10.531,8.103-19.567,17.99-26.934,29.301c-5.628,8.642-9.187,17.646-8.342,28.135c0.268,3.311,0.269,6.684-0.044,9.987
		c-0.279,2.961,1.356,6.666-4.53,9.583c-4.378-6.453-11.736-8.396-19.877-9.227c-3.524-0.359-7.643-3.039-9.935-5.908
		c-10.225-12.79-23.503-16.457-39.079-14.854c-4.621,0.476-9.336-0.043-13.987,0.241c-17.125,1.048-32.829,5.532-44.808,18.905
		c-0.741,0.825-2.34,0.885-4.273,1.556c-1.61-1.413-3.505-3.077-5.433-4.771c0.748-2.366,0.888-4.538,1.98-5.997
		c11.422-15.244,17.575-32.756,22.248-50.922c4.677-18.175,11.951-35.303,21.054-51.654c2.228-4.003,4.549-8.461,8.024-11.178
		c18.339-14.342,34.89-30.807,54.796-43.347c34.714-21.869,63.899-50.194,88.875-82.581c10.578-13.715,20.256-28.036,32.806-40.154
		c6.216-6.004,11.531-12.931,17.543-19.158c8.083-8.374,13.011-18.256,16.281-29.367c5.745-19.527,7.195-39.247,3.972-59.271
		c-1.547-9.61-0.345-18.112,5.242-26.54c17.966-27.103,30.588-57.666,53.514-81.036c0-10.809,0.09-20.785-0.029-30.759
		c-0.097-8.145,3.627-13.902,10.52-17.846c3.99-2.281,8.876-3.715,11.836-6.933c6.507-7.071,14.136-9.387,23.295-8.598
		c3.308,0.286,6.668-0.096,9.993,0.065c15.742,0.767,29.106-3.076,42.566-12.898c21.368-15.594,45.878-24.395,73.273-16.496
		c26.2,7.554,52.655,14.383,78.422,23.213c11.496,3.939,22.672,7.232,34.753,7.797c9.898,0.463,19.777,1.328,29.372,1.995
		c2.08,4.551,3.99,8.084,5.345,11.817c5.471,15.067,11.465,29.986,20.619,43.155c9.049,13.018,18.79,25.644,29.183,37.611
		c7.307,8.414,14.582,17.653,26.71,19.955c16.906,13.189,32.624,27.495,41.925,47.342c4.8,10.244,9.111,20.727,13.361,31.215
		c12.001,29.617,23.778,59.324,35.831,88.919c2.506,6.151,5.55,12.126,8.81,17.92c14.699,26.119,29.009,52.483,44.533,78.108
		c15.176,25.051,22.102,52.604,27.536,80.799c0.309,1.604-0.603,3.441-1.209,6.492c-2.898-2.086-5.17-3.317-6.939-5.059
		c-10.451-10.279-20.867-20.599-31.14-31.06c-11.681-11.896-23.627-23.17-38.396-31.59c-9.475-5.4-18.262-10.411-29.583-9.995
		c-9.035,0.332-16.908-3.028-22.913-10.213c-2.128-2.546-4.837-4.6-7.039-7.09c-9.444-10.673-20.961-16.124-35.43-14.535
		c-1.976,0.217-4.006-0.11-5.994,0.041c-7.674,0.582-14.418-1.258-20.188-6.677c-10.229-9.604-22.924-13.427-36.526-14.005
		c-11.945-0.51-23.97-0.639-35.896,0.1c-33.461,2.074-65.555,11.021-97.46,20.594c-23.395,7.019-44.119,18.762-60.896,36.696
		c-7.96,8.509-17.458,13.943-28.102,18.365c-26.751,11.114-50.422,26.727-70.146,48.381c-8.428,9.254-13.856,19.271-16.206,31.383
		c-3.953,20.376-6.124,40.958-4.829,61.625c1.145,18.27-1.663,33.732-17.707,45.575c-10.084,7.444-13.596,19.387-13.553,32.029
		c0.036,10.665,0.172,21.336-0.102,31.994c-0.492,19.215,3.49,36.969,15.192,52.726c7.251,9.763,11.813,20.813,13.187,33.04
		c1.539,13.695,7.285,25.43,16.314,35.777c9.66,11.069,17.339,23.458,25.005,36.021c13.38,21.925,31.406,40.368,54.674,51.293
		c24.605,11.553,50.27,21.136,78.228,22.291c9.164,0.378,18.502,2.361,27.266,5.162c11.506,3.679,22.835,7.212,35.083,6.704
		c5.487-0.228,10.524,1.109,14.68,5.076c12.379,11.813,28.061,17.742,43.64,23.482c7.336,2.701,15.41,4.063,23.25,4.621
		c29.066,2.068,56.806-5.536,84.499-12.826c29.106-7.662,50.557-26.33,67.931-49.813c6.401-8.652,13.034-16.718,21.172-23.69
		c18.371-15.743,33.711-33.952,45.682-55.107c5.887-10.403,13.039-20.096,19.734-30.032c8.545-12.681,18.064-24.705,22.85-39.664
		c1.558-4.872,5.276-9.143,8.382-13.416c9.469-13.029,17.555-26.611,20.873-42.727c0.805-3.904,0.875-8.991,4.54-11.478
		c10.132,7.018,18.588,15.221,28.705,19.339c15.555,6.334,26.862,16.543,36.995,29.299c8.263,10.4,17.441,20.119,26.724,29.644
		c4.111,4.217,9.011,9.021,14.369,10.41c16.145,4.187,31.652,9.88,47.094,16.01c3.576,1.42,7.877,1.016,11.843,1.456
		c11.099,1.235,22.197,2.473,33.319,3.712c2.484,11.503,4.556,21.9,7.01,32.206c2.344,9.848,6.409,19.017,13.436,26.44
		c15.568,16.446,30.098,34.218,47.475,48.499c12.841,10.555,17.308,22.765,18.614,37.679c0.581,6.629,0.566,13.31,0.874,19.966
		c0.921,19.981,4.509,39.268,9.518,58.832c7.343,28.678,23.138,50.118,44.343,69.259c9.659,8.719,20.04,15.128,32.428,18.831
		c36.464,10.897,73.758,17.662,111.431,22.373c22.575,2.822,43.277-1.438,62.195-15.624
		C3048.242,3858.693,3068.7,3843.87,3086.08,3823.61z M3561.563,2555.316c5.573-8.896,6.011-17.218,6.497-26.121
		c1.767-32.365-5.952-63.555-10.937-95.068c-3.72-23.528-19.349-36.966-40.531-45.102c-6.781-2.604-13.595-5.124-20.384-7.706
		c-38.025-14.46-75.411-15.09-111.454,5.903c-21.137,12.312-37.399,29.804-50.164,50.486c-2.332,3.776-4.105,8.813-3.819,13.112
		c0.723,10.785-3.802,19.237-9.267,27.794c-5.4,8.453-9.997,17.463-10.098,27.829c-0.123,12.654,0.185,25.315,0.346,37.972
		c0.098,7.65,2.979,14.004,8.047,19.848c20.992,24.199,47.726,38.036,78.872,43.338c8.237,1.402,15.397,3.625,21.53,9.201
		c7.231,6.575,16.084,9.198,25.552,10.128c4.557,0.448,9.138,0.64,14.938,1.03c-1.276,3.508-1.866,5.972-3.011,8.144
		c-9.972,18.944-17.72,38.739-22.599,59.588c-3.184,13.605-4.644,27.754-9.155,40.876c-6.678,19.429-6.847,39.14-6.788,59.146
		c0.028,9.552,1.213,18.566,6.225,26.845c4.626,7.64,6.139,15.907,5.98,24.836c-0.329,18.644-0.092,37.297-0.084,55.944
		c0.009,19.995,0.293,39.993-0.056,59.982c-0.271,15.561,3.782,28.878,16.528,38.799c3.132,2.437,5.752,5.548,8.513,8.438
		c10.331,10.815,22.114,19.063,37.088,22.268c3.779,0.809,7.261,3.021,10.367,4.366c2.872,8.989,4.183,17.924,8.351,25.227
		c11.861,20.78,23.684,41.687,41.407,58.466c11.602,10.985,22.596,22.623,33.668,34.156c12.434,12.95,24.312,26.454,37.097,39.042
		c6.597,6.496,14.398,12.485,24.036,13.507c18.05,1.912,35.146,6.815,51.694,14.055c2.408,1.054,5.098,1.539,7.704,2.048
		c10.604,2.069,20.252,6.382,29.463,11.932c16.262,9.795,33.779,15.628,52.924,15.631c9.721,0.002,18.285,3.131,26.108,8.616
		c4.91,3.441,9.477,7.434,14.61,10.483c25.2,14.979,52.545,25.395,79.42,36.794c1.188,0.504,2.643,0.344,3.93,0.664
		c5.16,1.283,10.596,1.973,15.396,4.091c11.918,5.26,24.3,6.892,37.097,6.093c10.621-0.663,21.411-0.678,31.792-2.7
		c35.622-6.937,69.064-18.682,97.833-42.318c30.43-25.002,58.928-51.956,86.887-79.594c18.157-17.949,31.212-39.778,46.619-59.816
		c1.597-2.077,2.809-4.59,3.65-7.085c6.876-20.41,18.324-38.355,29.662-56.439c14.76-23.542,19.01-49.398,15.166-76.736
		c-7.251-14.605-4.729-29.676-2.549-44.882c1.509-10.521,2.1-21.188,2.81-31.808c0.628-9.402,2.724-18.295,6.488-27.002
		c15.031-34.766,16.025-70.895,10.122-107.721c-2.1-13.096-3.875-26.304-4.693-39.528c-0.998-16.119-3.106-31.896-10.498-46.389
		c-10.938-21.441-23.903-41.67-40.685-59.011c-13.866-14.328-27.813-28.435-40.681-43.785
		c-9.064-10.813-14.803-21.456-15.889-35.352c-1.01-12.921-6.337-24.342-14.744-34.327c-15.484-18.393-31.468-36.324-52.041-49.215
		c-8.411-5.271-17.313-11.696-26.668-13.107c-18.039-2.72-34.138-10.247-51.032-15.859c-6.92-2.301-14.162-4.05-21.396-4.92
		c-35.044-4.218-70.088-8.374-105.518-7.809c-43.796,0.7-86.064,8.924-126.301,26.093c-19.387,8.273-39.197,11.895-60.075,12.802
		c-15.229,0.662-30.543,2.695-45.488,5.744c-18.558,3.785-35.418,11.615-47.894,26.81c-5.904,7.19-11.793,14.407-18.009,21.324
		c-3.927,4.369-7.892,9.13-12.816,12.087c-10.239,6.146-21.073,11.321-31.798,16.619
		C3566.741,2555.12,3564.012,2554.934,3561.563,2555.316z M1750.266,353.934c7.443-5.528,14.068-11.015,21.24-15.657
		c14.378-9.309,27.467-21.288,45.82-22.807c2.446-0.202,5.144-1.695,7.049-3.363c9.03-7.899,18.131-15.874,21.738-27.968
		c2.896-9.712,7.435-18.392,14.11-26.116c2.528-2.926,4.274-6.81,5.475-10.547c3.615-11.264,11.171-18.605,20.346-25.996
		c30.888-24.881,50.05-56.148,49.657-97.581c-0.118-12.322-3.953-21.945-12.004-30.498c-3.194-3.392-6.805-6.413-9.816-9.952
		c-5.635-6.622-12.801-9.286-21.239-8.947c-15.287,0.614-30.568,1.362-45.854,1.998c-4.602,0.191-9.592,1.391-13.749,0.067
		c-13.688-4.358-27.643-3.534-41.595-3.611c-14.898-0.082-28.863,2.847-41.92,10.677c-12.268,7.356-27.978,5.099-38.406-3.924
		c-6.532-5.651-13.625-10.656-20.097-16.37c-8.995-7.94-19.525-10.74-31.216-11.231c-22.823-0.958-45.2,0.538-66.568,9.595
		c-3.012,1.277-6.344,1.931-9.592,2.505c-17.016,3.005-31.245,11.298-43.077,23.517c-8.912,9.204-19.021,16.236-30.281,22.37
		c-33.982,18.512-58.907,45.18-71.078,82.673c-7.854,24.195-19.02,46.778-33.821,67.495c-16.01,22.406-24.563,46.784-22.127,74.813
		c0.729,8.398,2.78,15.371,7.986,21.897c13.67,17.136,27.04,34.511,41.806,53.426c0,16.87-0.116,35.475,0.083,54.077
		c0.05,4.597-0.169,9.944,1.991,13.624c5.028,8.564,10.025,16.912,11,27.036c8.635,10.767,13.676,23.979,24.603,33.358
		c7.559,6.489,15.268,10.354,25.06,10.324c9.324-0.027,18.648-0.056,27.972-0.098c10.238-0.047,19.706-2.819,28.382-8.219
		c6.214-3.868,12.701-7.405,18.462-11.871c14.722-11.41,29.47-22.842,43.469-35.107c6.902-6.049,12.297-13.86,18.122-21.077
		c2.898-3.59,5.227-7.64,7.971-11.714c7.985-1.396,15.923-2.375,23.632-4.279c5.054-1.248,10.434-2.939,14.543-5.962
		C1712.347,425.472,1739.243,395.039,1750.266,353.934z M3411.187,2280.423c0.014,0,0.027,0,0.04,0
		c0-7.982-0.696-16.04,0.146-23.933c1.711-16.041-5.813-27.655-15.469-39.397c-18.386-22.36-44.551-30.29-69.888-40
		c-2.41-0.924-5.243-1.047-7.877-1.026c-12.63,0.098-25.262,0.301-37.889,0.61c-8.915,0.219-17.396,2.666-23.881,8.744
		c-11.607,10.881-23.252,21.86-33.596,33.905c-7.815,9.101-12.242,20.128-11.755,32.989c0.322,8.526-1.947,17.124-2.622,25.724
		c-0.882,11.243-1.368,22.517-1.964,33.781c-0.512,9.703,2.555,18.193,8.278,26.03c10.589,14.501,21.689,28.52,34.691,40.978
		c8.085,7.748,17.354,11.394,28.735,11.468c23.351,0.151,46.285-2.931,69.411-5.683c32.063-3.817,64.391-40.997,63.672-74.256
		C3411.005,2300.384,3411.187,2290.401,3411.187,2280.423z"/>
	<path fill-rule="evenodd" d="M3086.08,3823.61c-17.38,20.26-37.838,35.083-58.125,50.295
		c-18.918,14.187-39.62,18.446-62.195,15.624c-37.673-4.711-74.967-11.476-111.431-22.373
		c-12.388-3.703-22.769-10.112-32.428-18.831c-21.205-19.141-37-40.581-44.343-69.259c-5.009-19.564-8.597-38.851-9.518-58.832
		c-0.308-6.656-0.293-13.337-0.874-19.966c-1.307-14.914-5.773-27.124-18.614-37.679c-17.377-14.281-31.906-32.053-47.475-48.499
		c-7.026-7.424-11.092-16.593-13.436-26.44c-2.454-10.306-4.525-20.703-7.01-32.206c-11.122-1.239-22.221-2.477-33.319-3.712
		c-3.966-0.44-8.267-0.036-11.843-1.456c-15.441-6.13-30.949-11.823-47.094-16.01c-5.358-1.39-10.258-6.193-14.369-10.41
		c-9.282-9.524-18.461-19.243-26.724-29.644c-10.133-12.756-21.44-22.965-36.995-29.299c-10.117-4.118-18.573-12.321-28.705-19.339
		c-3.665,2.486-3.735,7.573-4.54,11.478c-3.318,16.115-11.404,29.697-20.873,42.727c-3.105,4.273-6.824,8.544-8.382,13.416
		c-4.785,14.959-14.305,26.983-22.85,39.664c-6.695,9.937-13.848,19.629-19.734,30.032c-11.971,21.155-27.311,39.364-45.682,55.107
		c-8.138,6.973-14.771,15.038-21.172,23.69c-17.374,23.483-38.824,42.151-67.931,49.813c-27.693,7.29-55.433,14.895-84.499,12.826
		c-7.84-0.559-15.914-1.92-23.25-4.621c-15.579-5.74-31.261-11.669-43.64-23.482c-4.156-3.967-9.193-5.304-14.68-5.076
		c-12.249,0.508-23.577-3.025-35.083-6.704c-8.764-2.801-18.102-4.784-27.266-5.162c-27.958-1.155-53.622-10.738-78.228-22.291
		c-23.268-10.925-41.293-29.368-54.674-51.293c-7.666-12.563-15.345-24.952-25.005-36.021
		c-9.029-10.348-14.775-22.082-16.314-35.777c-1.374-12.228-5.936-23.277-13.187-33.04c-11.703-15.757-15.685-33.511-15.192-52.726
		c0.273-10.658,0.138-21.329,0.102-31.994c-0.043-12.643,3.468-24.585,13.553-32.029c16.044-11.843,18.852-27.306,17.707-45.575
		c-1.295-20.667,0.876-41.249,4.829-61.625c2.349-12.111,7.777-22.129,16.206-31.383c19.724-21.654,43.395-37.267,70.146-48.381
		c10.644-4.422,20.142-9.856,28.102-18.365c16.777-17.935,37.501-29.678,60.896-36.696c31.906-9.572,64-18.52,97.46-20.594
		c11.925-0.738,23.95-0.609,35.896-0.1c13.603,0.578,26.298,4.401,36.526,14.005c5.771,5.419,12.515,7.259,20.188,6.677
		c1.988-0.151,4.019,0.176,5.994-0.041c14.469-1.589,25.985,3.862,35.43,14.535c2.202,2.49,4.911,4.544,7.039,7.09
		c6.005,7.185,13.878,10.545,22.913,10.213c11.321-0.416,20.108,4.595,29.583,9.995c14.769,8.42,26.715,19.694,38.396,31.59
		c10.272,10.461,20.688,20.78,31.14,31.06c1.77,1.741,4.041,2.973,6.939,5.059c0.606-3.051,1.518-4.889,1.209-6.492
		c-5.435-28.194-12.36-55.748-27.536-80.799c-15.524-25.625-29.834-51.989-44.533-78.108c-3.26-5.794-6.304-11.769-8.81-17.92
		c-12.053-29.595-23.83-59.302-35.831-88.919c-4.25-10.488-8.562-20.971-13.361-31.215c-9.301-19.847-25.019-34.152-41.925-47.342
		c-12.128-2.302-19.403-11.541-26.71-19.955c-10.393-11.968-20.134-24.594-29.183-37.611c-9.154-13.169-15.148-28.088-20.619-43.155
		c-1.355-3.733-3.265-7.267-5.345-11.817c-9.595-0.667-19.474-1.532-29.372-1.995c-12.082-0.564-23.258-3.857-34.753-7.797
		c-25.767-8.83-52.222-15.659-78.422-23.213c-27.395-7.898-51.905,0.902-73.273,16.496c-13.46,9.822-26.824,13.665-42.566,12.898
		c-3.325-0.161-6.685,0.221-9.993-0.065c-9.159-0.789-16.788,1.526-23.295,8.598c-2.96,3.218-7.847,4.651-11.836,6.933
		c-6.893,3.943-10.617,9.701-10.52,17.846c0.119,9.974,0.029,19.95,0.029,30.759c-22.926,23.37-35.548,53.934-53.514,81.036
		c-5.587,8.428-6.789,16.93-5.242,26.54c3.223,20.024,1.773,39.744-3.972,59.271c-3.27,11.111-8.198,20.993-16.281,29.367
		c-6.012,6.228-11.327,13.154-17.543,19.158c-12.55,12.118-22.229,26.439-32.806,40.154c-24.977,32.387-54.161,60.712-88.875,82.581
		c-19.906,12.54-36.457,29.005-54.796,43.347c-3.476,2.717-5.796,7.175-8.024,11.178c-9.104,16.352-16.377,33.479-21.054,51.654
		c-4.673,18.166-10.826,35.678-22.248,50.922c-1.093,1.459-1.232,3.631-1.98,5.997c1.928,1.693,3.823,3.357,5.433,4.771
		c1.933-0.671,3.532-0.73,4.273-1.556c11.979-13.373,27.682-17.857,44.808-18.905c4.651-0.284,9.366,0.234,13.987-0.241
		c15.576-1.604,28.854,2.063,39.079,14.854c2.292,2.869,6.411,5.549,9.935,5.908c8.142,0.831,15.499,2.773,19.877,9.227
		c5.886-2.917,4.25-6.622,4.53-9.583c0.313-3.304,0.312-6.677,0.044-9.987c-0.845-10.489,2.713-19.493,8.342-28.135
		c7.367-11.311,16.403-21.198,26.934-29.301c5.516-4.245,13.943-4.614,19.699-8.663c7.167-5.043,14.604-5.34,22.641-5.886
		c13.176-0.895,24.63,2.539,35.848,9.487c11.746,7.274,24.326,13.256,36.778,19.316c9.354,4.552,15.526,12.316,23.287,20.725
		c0,7.723-0.326,16.363,0.089,24.968c0.438,9.079-0.784,17.223-8.501,23.229c-4.732,3.684-5.14,8.999-5.111,14.471
		c0.055,9.997-0.239,20.002,0.036,29.993c0.371,13.479-4.718,24.45-13.72,34.245c-19.942,21.699-26.303,24.758-55.61,25.167
		c-21.292,0.298-42.557,0.345-63.427-7.46c-1.691,2.69-3.028,4.88-4.426,7.031c-8.954,13.775-19.9,23.795-37.032,27.879
		c-15.194,3.622-30.299,5.949-45.434,4.173c-17.802-2.089-35.251-6.683-47.797-21.468c-4.702-5.541-9.875-10.684-15.695-16.932
		c-2.796,1.81-5.858,3.046-7.888,5.238c-6.934,7.492-15.07,13.224-24.547,16.702c-7.127,2.617-10.358,7.66-12.043,14.533
		c-1.586,6.462-3.629,12.809-5.343,19.239c-3.957,14.843-13.518,23.996-28.154,28.176c-9.597,2.742-19.026,6.223-28.759,8.301
		c-9.667,2.065-19.619,2.79-30.401,4.23c-1.272,3.288-2.915,6.81-4.004,10.492c-2.835,9.576-4.942,19.394-8.233,28.802
		c-4.47,12.772-8.478,25.279-0.653,38.145c0.026,17.939,0.142,35.882-0.002,53.821c-0.026,3.282-1.44,6.536-1.651,9.84
		c-1.427,22.322-11.36,40.864-25.674,57.313c-13.186,15.152-27.78,28.633-45.874,38.056c-9.004,4.689-17.863,8.891-28.298,8.384
		c-7.562-0.367-14.92,1.256-20.823,5.781c-13.775,10.563-30.44,12.751-46.37,17.13c-3.834,1.055-8.068,0.915-11.716,2.35
		c-34.299,13.488-70.617,12.099-106.312,13.565c-40.279,1.654-79.669-4.802-117.075-20.861c-3.056-1.313-6.339-2.145-9.292-3.643
		c-9.467-4.803-19.086-4.161-29.204-2.297c-13.057,2.406-26.286,4.077-39.512,5.306c-12.058,1.12-24.137,0.933-33.273-9.426
		c-19.891,9.096-40.263,11.392-61.022,11.315c-19.309-0.071-38.616-0.287-57.924-0.334c-12.072-0.03-21.781-4.582-29.696-13.817
		c-6.461-7.541-13.098-13.951-24.751-14.63c-7.27-0.424-14.441-6.35-21.228-10.507c-18.789-11.511-38.775-20.433-58.732-29.685
		c-22.988-10.658-46.251-19.765-70.558-26.9c-23.16-6.8-44.237-18.178-62.344-34.703c-4.246-3.874-9.924-6.644-15.412-8.605
		c-18.158-6.496-36.481-12.546-54.837-18.468c-14.103-4.55-23.386-15.044-32.197-25.902c-2.225-2.74-2.601-7.465-2.742-11.316
		c-0.364-9.97-0.122-19.962-0.122-30.572c3.754-4.439,7.567-8.946,11.027-13.036c0.271-1.958,0.974-3.471,0.55-4.534
		c-4.296-10.781-4.829-22.015-4.515-33.409c0.165-5.994,0.144-12.002-0.072-17.994c-0.337-9.409-4.357-16.105-13.338-20.362
		c-17.536-8.31-29.42-22.008-37.206-39.884c-8.081-18.551-13.787-37.169-12.793-57.857c0.507-10.539,3.242-19.351,9.056-27.852
		c13.577-19.854,28.805-38.366,45.711-55.39c10.764-10.838,22.175-21.162,34.141-30.65c14.449-11.457,31.061-16.937,49.997-16.971
		c42.985-0.077,84.918,6.473,126.057,18.25c21.162,6.058,41.519,14.504,59.3,27.868c6.882,5.172,12.842,11.559,19.306,17.297
		c6.733,5.975,9.877,6.395,17.926,2.331c2.964-1.496,5.904-3.158,8.544-5.154c12.137-9.178,25.933-13.24,40.954-13.818
		c1.97-0.076,3.922-0.632,6.979-1.15c0.717-3.427,2.024-7.11,2.168-10.836c0.488-12.648,0.97-25.322,0.701-37.97
		c-0.369-17.265,3.177-33.023,14.891-46.318c0.792-0.899,0.854-2.444,1.547-4.594c-5.022-8.028-11.167-15.441-20.569-19.98
		c-16.762-8.094-27.051-23.374-39.169-36.517c-2.401-2.604-3.496-7.339-3.47-11.078c0.071-10.619,0.653-21.271,1.775-31.833
		c0.791-7.457,0.426-14.314-2.445-21.445c-7.707-19.147-14.821-38.535-22.02-57.884c-1.605-4.316-3.676-8.863-3.671-13.301
		c0.018-14.634,0.07-29.356,1.656-43.876c1.686-15.43,14.462-28.188,29.977-30.364c14.206-1.991,26.777-6.766,38.379-15.243
		c8.031-5.868,16.906-10.656,25.683-15.413c15.137-8.203,24.892-20.459,26.35-37.601c1.697-19.948,11.954-34.904,25.005-48.685
		c6.416-6.772,13.03-13.356,19.483-20.094c35.247-36.799,63.92-78.536,89.934-122.06c14.527-24.306,31.725-46.055,52.759-64.809
		c14.052-12.527,25.992-26.275,34.344-43.559c7.23-14.963,17.689-28.199,29.731-39.9c5.227-5.08,10.701-9.904,15.449-14.281
		c-0.698-2.816-0.588-4.542-1.385-5.26c-9.163-8.244-12.263-18.403-10.958-30.528c0.923-8.586,0.416-17.319,1.216-25.925
		c2.381-25.578,13.448-47.315,31.338-65.306c7.599-7.642,11.354-15.517,11.158-26.382c-0.25-13.883,6.569-25.792,14.409-36.64
		c6.54-9.05,9.031-18.451,9.542-29.578c0.605-13.158,3.934-26.191,6.428-41.388c-3.689-3.598-8.606-8.87-14.016-13.576
		c-16.653-14.49-25.469-32.153-23.361-54.652c0.434-4.626-0.206-9.344,0.112-13.988c0.931-13.572-0.626-26.461-8.828-37.922
		c-1.52-2.123-2.796-4.713-3.259-7.256c-3.426-18.832-13.86-34.325-23.266-50.401c-15.113-25.835-20.601-54.716-24.667-83.801
		c-2.023-14.469-2.759-29.193-2.944-43.817c-0.118-9.278-2.705-16.346-9.317-23.028c-8.395-8.484-16.109-17.782-23.16-27.427
		c-19.501-26.68-28.599-56.862-28.585-89.849c0.005-13.998,0.064-27.996-0.05-41.992c-0.037-4.562-0.547-9.12-0.948-15.353
		c-5.938,2.319-10.842,3.927-15.484,6.095c-37.281,17.418-76.236,27.597-117.61,26.869c-13.213-0.232-26.649,2.156-39.602-2.929
		c-2.236-0.879-5.41-0.402-7.829,0.408c-8.104,2.714-16.063,5.864-22.122,8.119c-4.667,13.531-8.749,24.721-12.338,36.066
		c-1.574,4.975-2.681,10.231-3.041,15.427c-0.505,7.297,0.304,14.684-0.197,21.98c-0.942,13.744,1.088,26.413,9.929,37.627
		c4.224,5.359,5.691,11.998,5.253,18.886c-0.717,11.263-1.551,22.519-2.253,33.783c-0.371,5.972-0.982,11.97-0.772,17.93
		c1.24,35.182-17.379,57.04-47.942,72.099c-3.396,11.129-7.044,23.082-11.061,36.244c1.787,2.446,3.685,5.96,6.414,8.624
		c11.005,10.744,16.122,24.293,18.89,38.907c3.235,17.088,7.994,33.532,16.461,48.909c14.728,26.753,18.481,55.173,12.082,85.083
		c-7.506,35.079-1.337,25.645-26.755,51.235c-7.42,7.471-13.916,16.416-26.175,16.701c-2.225,0.052-4.684,2.376-6.528,4.172
		c-6.666,6.487-13.115,13.196-19.964,20.146c6.61,31.248,2.336,62.605,3.179,94.391c3.98,4.268,7.97,8.691,12.122,12.956
		c3.835,3.94,6.973,8.243,6.698,13.991c-0.592,12.401,5.955,21.913,13.543,30.226c8.313,9.104,11.718,19.037,10.599,30.986
		c-0.247,2.642-0.116,5.334,0.016,7.994c0.607,12.183,8.754,22.526,20.664,22.527c22.761,0.004,33.694,16.458,46.202,30.841
		c2.339,2.69,3.132,7.417,3.24,11.243c0.676,23.988,0.667,47.982-3.842,71.693c-4.588,24.129-26.171,42.518-50.495,42.525
		c-18.739,0.006-37.125,1.727-52.252,6.627c-8.787,9.901-15.297,18.261-22.868,25.514c-9.905,9.485-21.814,15.077-36.041,14.457
		c-21.931-0.956-43.914-1.199-65.787-2.876c-20.207-1.55-34.631-14.276-45.154-29.946c-7.405-11.03-15.113-19.731-27.806-24.053
		c-10.492-3.571-17.379-12.128-24.438-20.082c-2.079-2.343-3.577-5.793-3.997-8.916c-1.87-13.894-3.373-28.021,0.79-41.631
		c2.472-8.087,2.08-15.609,0.491-23.542c-2.087-10.419-3.673-20.938-5.725-31.365c-0.897-4.56-2.033-9.147-3.729-13.459
		c-3.668-9.323-10.284-16.058-20.676-15.832c-10.354,0.225-17.779-4.096-24.48-11.095c-5.07-5.294-10.316-10.42-15.521-15.584
		c-5.308-5.267-9.949-11.268-10.912-18.666c-0.957-7.35-5.229-11.666-10.022-16.48c-9.713-9.761-22.377-17.509-23.226-32.983
		c-29.644-4.597-56.487-13.804-82.252-26.461c-6.518-3.201-13.419-5.852-20.406-7.824c-16.426-4.635-30.491-13.01-42.627-24.89
		c-20.961-20.519-35.816-44.605-42.31-73.376c-2.871-12.72-7.961-23.725-18.2-32.319c-9.26-7.772-16.786-17.102-21.46-28.476
		c-0.751-1.831-1.706-3.71-3.018-5.158c-21.053-23.261-17.943-51.748-16.843-79.604c0.193-4.896,2.576-10.933,6.041-14.268
		c20.575-19.811,26.575-45.702,30.602-72.172c2.186-14.362,1.943-29.093,2.711-42.201c-23.063-25.995-23.063-25.995-23.063-58.301
		c0-15.33,0.447-30.678-0.137-45.987c-0.476-12.472,2.616-23.688,8.749-34.305c1.999-3.461,3.994-6.926,5.889-10.445
		c5.965-11.072,8.3-22.338,2.526-34.388c-1.703-3.553-2.953-7.596-3.257-11.503c-2.416-31.066-10.107-61.764-7.063-93.188
		c0.629-6.503,2.241-13.284,5.071-19.128c8.114-16.755,16.07-33.738,26.001-49.42c10.35-16.347,16.941-32.897,15.184-52.548
		c-2.082-23.282,7.525-42.869,21.019-60.89c3.986-5.323,8.619-10.157,12.878-15.279c8.2-9.864,14.75-20.561,16.743-33.54
		c1.661-10.814,6.706-20.231,12.876-28.965c6.01-8.506,9.119-17.473,8.55-28.016c-0.28-5.19-0.114-11.166,2.179-15.574
		c4.9-9.424,5.282-19.194,4.696-29.159c-1.132-19.263,4.083-36.709,12.907-53.662c10.194-19.585,21.263-38.497,35.794-55.19
		c10.16-11.671,18.501-24.417,24.027-38.905c4.65-12.198,13.133-21.503,22.424-30.231c4.371-4.105,8.504-8.508,13.177-12.233
		c10.932-8.716,20.847-17.894,28.916-29.822c7.317-10.818,18.563-18.964,27.988-28.376c4.211-4.206,9.055-8.1,12.144-13.05
		c10.447-16.739,24.884-29.402,40.228-41.239c15.29-11.795,30.821-23.281,45.998-35.219c8.998-7.077,15.918-15.742,20.204-26.734
		c10.496-26.927,32.489-43.355,55.761-58.006c5.854-3.687,13.811-4.036,21.957-6.23c0.845-1.321,2.726-3.349,3.583-5.743
		c8.201-22.926,24.819-39.354,42.985-54.102c37.094-30.117,77.8-53.329,125.01-64.267c16.764-3.884,32.959-10.358,49.245-16.126
		c18.823-6.664,37.462-13.847,56.177-20.818c15.313-5.703,31.483-5.911,47.373-6.083c26.132-0.282,51.633-5.149,77.41-8.138
		c35.933-4.167,70.048-15.96,105.148-23.56c17.682-3.83,35.253-6.711,53.366-6.171c9.323,0.277,18.669-0.176,27.992,0.109
		c9.507,0.29,18.433-0.311,26.11-7.194c2.818-2.527,7.025-4.01,10.844-4.833c27.349-5.896,54.676-12.149,82.941-5.555
		c5.091,1.188,10.61,0.688,15.933,0.703c23.996,0.062,47.992-0.036,71.988,0.074c5.979,0.027,12.383-0.646,17.845,1.207
		c11.218,3.803,20.375,0.432,30.4-4.271c19.476-9.136,40.202-13.933,61.927-13.631c10.663,0.148,21.331,0.15,31.994-0.014
		c10.73-0.164,21.201,0.85,31.558,4.02c7.51,2.3,15.332,4.685,22.555,1.513c4.037-17.612,9.062-34.196,11.348-51.15
		c1.926-14.291,3.383-28.976-0.545-43.54c-4.051-15.016-2.406-30.451-1.735-45.75c0.368-8.407,5.046-15.069,9.448-21.715
		c28.442-42.938,59.779-83.386,100.312-115.869c2.052-1.645,3.865-3.587,6.497-6.054c0-12.84,0.29-26.156-0.081-39.454
		c-0.376-13.468,3.589-24.725,13.877-33.844c3.916-3.47,6.893-8.059,10.03-12.332c9.774-13.316,20.717-24.642,36.916-23.549
		c13.96-12.295,26.384-23.3,38.882-34.221c7.262-6.345,15.715-9.966,25.417-10.293c15.875-0.536,31.904-3.333,47.176,4.061
		c6.162,2.982,11.927,1.275,16.03-4.088c11.846-15.486,28.579-18.176,46.403-18.208c6.665-0.012,13.457-0.708,19.958,0.344
		c6.386,1.033,13.649,2.425,18.441,6.265c8.553,6.853,17.989,8.719,28.002,8.375c9.479-0.325,16.253,3.232,22.889,9.69
		c21.362,20.796,38.767,43.871,44.92,74.838c8.811,0.166,16.717,0.371,24.624,0.453c18.384,0.192,35.435,3.461,50.011,16.334
		c7.794,6.885,16.687,12.47,28.488,12.715c5.932,0.124,12.608,4.461,17.46,8.624c13.63,11.697,26.899,23.89,39.471,36.71
		c5.956,6.074,10.53,13.723,14.743,21.214c3.508,6.235,7.611,10.542,14.844,11.984c17.805,3.551,31.445,13.984,43.16,27.229
		c10.139,11.463,20.241,22.972,29.985,34.769c8.824,10.685,12.827,23.194,12.254,37.112c-0.11,2.662,0.125,5.338-0.009,7.997
		c-0.373,7.41,3.027,11.83,9.257,16.118c13.066,8.995,25.294,19.229,37.687,29.176c5.85,4.695,10.047,10.703,11.237,18.333
		c1.186,7.603,5.04,13.475,10.591,18.687c4.349,4.086,8.182,8.766,11.939,13.428c4.228,5.248,6.626,11.126,7.642,18.066
		c2.693,18.389,6.28,36.649,12.621,55.104c11.844,1.683,23.522,3.344,36.303,5.16c0.609-0.473,2.28-1.485,3.603-2.84
		c17.713-18.151,11.911-15.067,36.134-15.333c24.356-0.267,47.616,5.195,69.755,15.05c11.361,5.057,22.119,5.204,34.637,3.624
		c27.627-3.489,55.688-5.31,83.229,2.893c6.229,1.855,13.09,2.375,19.635,2.245c19.51-0.393,38.517,1.925,57.081,8.069
		c5.677,1.879,11.609,2.981,17.409,4.504c6.692,1.756,13.118,2.03,18.951-2.614c6.672-5.311,14.52-5.68,22.686-5.918
		c42.988-1.253,78.86,15.629,110.838,42.746c2.539,2.152,5.097,4.303,7.444,6.655c7.462,7.478,16.365,10.958,26.969,11.005
		c14.169,0.064,27.595,3.83,40.726,9.004c4.882,1.924,10.163,2.831,15.267,4.183c5.141,1.361,10.698,1.873,15.355,4.196
		c17.807,8.883,36.857,11,56.236,10.771c10.949-0.129,21.063,2.115,31.028,6.259c16.075,6.684,31.354,14.678,44.835,25.844
		c3.077,2.55,6.171,5.107,9.441,7.395c15.314,10.71,31.013,20.382,49.91,23.972c11.732,2.228,23.385,5.452,34.645,9.441
		c9.956,3.528,19.653,8.146,28.851,13.365c9.241,5.244,17.696,11.865,26.547,17.805c9.421,6.322,19.314,10.858,30.612,13.813
		c14.011,3.665,27.408,10.222,40.5,16.686c11.912,5.88,23.341,12.873,34.487,20.135c25.671,16.729,52.081,32.58,76.212,51.334
		c20.439,15.886,42.48,29.548,61.826,47.126c16.71,15.183,33.927,29.789,50.408,45.335c21.581,20.357,39.399,43.303,55.126,68.15
		c4.286,6.771,9.144,12.552,15.703,17.637c18.082,14.021,28.748,32.827,31.021,56.761c2.788,1.442,5.59,3.053,8.521,4.381
		c26.414,11.983,43.701,34.186,61.993,55.269c9.486,21.96,23.45,41.761,31,64.68c2.485,7.547,6.15,14.701,8.809,22.2
		c1.515,4.28,2.894,8.883,2.948,13.358c0.288,23.326,0.328,46.66,0.004,69.986c-0.092,6.594-1.306,13.254-2.71,19.73
		c-2.201,10.142-1.293,19.418,3.238,29.042c7.646,16.241,14.08,33.053,21.556,50.892c48.937,25.467,60.159,70.993,58.957,123.245
		c4.615,2.49,9.089,5.095,13.726,7.363c10.163,4.972,20.398,9.798,30.624,14.641c14.745,6.983,26.668,17.609,37.271,29.684
		c9.146,10.413,12.769,23.486,13.711,36.838c1.029,14.592,0.615,29.316,0.219,43.967c-0.294,10.896-3.841,20.928-10.941,29.435
		c-4.266,5.111-8.388,10.39-13.088,15.078c-8.03,8.008-16.155,15.405-17.127,28.132c-0.359,4.695-4.631,9.512-8.048,13.471
		c-8.682,10.063-17.888,19.673-28.136,30.824c0,7.228-0.184,15.854,0.051,24.471c0.248,9.117-2.392,17.005-8.58,23.766
		c-7.193,7.858-14.457,15.667-21.327,23.804c-9.839,11.656-22.943,15.72-37.347,15.903c-21.279,0.271-42.569-0.246-66.044-0.446
		c-1.472,1.851-4.353,5.321-7.071,8.914c-9.309,12.298-19.77,23.304-33.143,31.361c-8.675,5.227-17.78,8.405-27.836,10.257
		c-26.263,4.833-52.522,8.69-77.909,6.144c-8.291,9.772-15.437,18.396-22.807,26.825c-6.841,7.824-15.683,11.798-25.849,13.888
		c-32.124,6.604-63.679,3.217-94.908-5.041c-4.912-1.299-9.34-4.92-13.627-7.979c-6.493-4.636-12.273-10.37-19.056-14.484
		c-15.08-9.145-27.64-21.108-38.17-34.855c-12.533-16.362-23.679-33.789-35.388-50.781c-4.646-6.745-7.671-14.045-6.879-22.455
		c0.688-7.323-2.51-12.816-7.823-17.443c-10.231-8.911-17.351-19.958-23.206-32.151c-5.465-11.38-11.923-22.296-18.227-33.252
		c-1.96-3.406-4.686-6.425-7.348-9.36c-3.577-3.948-7.525-7.557-11.15-11.463c-12.213-13.153-20.801-27.62-17.946-46.714
		c0.879-5.88,0.203-11.979,0.449-17.969c0.509-12.375,4.147-23.37,13.28-32.391c3.558-3.511,5.86-8.294,8.229-11.758
		c-2.184-5.363-5.803-5.646-8.949-5.472c-8.615,0.476-17.206,1.42-25.795,2.302c-7.252,0.744-14.474,2.214-21.732,2.393
		c-20.14,0.495-20.145,0.296-35.935-7.845c-1.757,3.467-3.276,7.08-5.333,10.356c-2.085,3.32-4.7,6.308-7.781,10.361
		c6.496,8.649,13.694,16.199,21.523,23.24c8.392,7.547,16.648,15.242,25.004,22.829c6.208,5.636,9.396,12.938,10.975,20.881
		c4.425,22.268,7.377,44.688,6.188,67.497c-0.284,5.446-2.05,9.826-4.885,14.672c-15.187,25.964-37.504,44.612-61.227,61.996
		c-10.561,7.739-22.145,12.077-35.446,11.037c-2.65-0.207-5.351-0.235-7.993,0.006c-18.875,1.726-33.542-5.592-45.508-19.979
		c-6.773-8.146-14.434-15.581-21.974-23.054c-11.687-11.581-19.125-24.781-21.748-41.547c-3.019-19.3-2.35-38.524-2.724-57.817
		c-0.137-7.14,3.06-12.811,7.1-18.217c3.938-5.269,7.943-10.487,12.166-16.055c-7.159-8.402-15.932-12.625-25.164-16.344
		c-23.025-9.271-44.146-35.748-46.856-60.182c-1.535-13.839-1.201-27.892-1.549-41.853c-0.138-5.589,2.343-10.165,5.969-14.393
		c11.91-13.89,25.893-25.947,42.918-31.734c12.796-4.35,26.349-8.538,40.536-8.437c9.109,0.065,18.458,1.605,28.48-1.827
		c-0.784-2.918-0.732-5.912-2.193-7.571c-4.382-4.971-9.389-9.387-14.091-14.081c-11.29-11.269-22.576-22.543-33.802-33.876
		c-5.309-5.357-8.121-11.797-9.621-19.306c-3.007-15.062-5.808-30.042-4.863-45.523c0.277-4.545-0.487-9.155-0.816-14.409
		c-4.407-0.641-8.232-1.264-12.076-1.743c-11.212-1.397-22.952-1.117-33.518-4.511c-13.166-4.229-24.824-2.439-36.75,2.665
		c-3.639,1.557-7.188,3.327-11.628,5.395c-0.336,4.234-1.023,8.777-0.994,13.317c0.078,11.988,0.23,23.984,0.791,35.958
		c0.667,14.225-2.303,27.557-6.937,41.006c-9.322,27.052-17.391,54.533-26.202,81.764c-2.915,9.007-3.8,18.088-3.964,27.514
		c-0.242,13.954-1.084,27.938-2.584,41.81c-0.877,8.108-0.661,15.873,1.146,23.757c8.222,35.872,12.574,72.174,11.014,109.008
		c-0.326,7.705-2.376,15.337-3.997,25.229c15.637,39.935,19.509,84.281,20.953,129.007c0.323,9.987-0.08,19.997,0.06,29.993
		c0.176,12.568-3.357,23.859-12.37,32.695c-6.015,5.897-9.258,12.483-10.552,20.769c-2.149,13.77-5.158,27.406-7.85,41.092
		c-1.029,5.229-1.357,10.79-3.426,15.588c-6.656,15.436-10.898,31.31-12.374,48.101c-0.646,7.357-4.345,13.939-10.146,19.001
		c-6.525,5.694-13.001,11.447-17.5,15.412c-0.961,5.274-1.758,7.246-1.593,9.134c0.982,11.242-2.206,20.904-9.969,29.191
		c-6.323,6.75-6.712,12.955,1.727,20.684c4.864,4.455,10.292,8.445,15.936,11.869c24.178,14.663,42.508,34.012,51.134,61.567
		c3.379,10.794,7.53,21.357,10.616,32.229c4.66,16.427,12.567,30.806,25.143,42.387c10.44,9.616,18.054,21.147,25.093,33.373
		c27.015,46.93,47.743,96.712,66.13,147.417c15.986,44.089,35.681,86.063,62.562,124.549c12.288,17.594,21.922,36.645,29.392,56.626
		c12.147,32.493,26.684,63.869,41.632,95.123c16.901,35.337,26.248,72.403,24.569,112.021c-0.589,13.903-3.568,26.234-12.92,36.76
		c-8.392,9.442-16.181,19.464-25.059,28.415c-8.397,8.467-17.864,15.874-26.927,23.806c0,1.021-0.551,2.823,0.082,3.474
		c11.992,12.327,15.443,27.475,15.137,44.034c-0.158,8.553,0.154,17.114,0.251,25.355c11.328,6.937,21.653,8.559,33.345,4.781
		c16.84-5.44,34.347-3.288,51.585-2.399c8.823,0.454,16.605,4.759,23.289,10.582c6.34,5.524,13.425,7.994,21.94,7.374
		c23.238-1.693,46.506-2.947,69.752-4.537c11.88-0.812,21.364-7.533,30.478-14.094c15.664-11.279,33.364-16.738,51.979-18.981
		c23.94-2.886,47.896-1.254,71.511,3.73c9.735,2.054,19.401,4.607,28.883,7.615c4.978,1.578,10.023,3.941,14.12,7.13
		c19.419,15.11,34.075,33.657,39.564,58.279c3.182,14.272,6.159,28.591,9.565,44.455c1.853,1.498,4.653,4.425,8.021,6.382
		c25.271,14.697,43.232,37.289,62.773,58.114c8.968,9.557,13.746,21.147,12.406,34.694c-0.261,2.64-0.245,5.348-0.001,7.991
		c2.515,27.221-8.294,49.457-26.314,68.652c-6.977,7.431-13.348,14.653-14.839,25.271c-0.422,2.996-2.564,6.169-4.776,8.414
		c-5.592,5.678-11.495,11.086-17.604,16.207c-6.754,5.659-14.38,8.985-23.535,9.712c-15.814,1.256-25.9,10.546-28.845,25.903
		c-6.341,33.071-29.803,50.915-57.337,64.394c-11.874,5.813-24.498,9.88-35.486,17.732c-9.417,6.729-20.335,9.696-32.125,8.83
		c-9.262-0.68-18.721-0.154-27.771-1.865c-14.572-2.753-27.218-9.605-38.849-19.313c-27.928-23.305-19.376-17.879-54.14-13.692
		c-6.943,0.836-13.906,4.562-20.053,8.287c-9.803,5.939-19.979,10.554-31.075,13.281c-17.763,4.369-33.133,13.226-47.303,24.641
		c-14.563,11.731-30.063,21.982-47.764,28.665c-10.575,3.993-21.035,8.42-31.18,13.4c-21.606,10.606-44.188,9.61-66.242,3.999
		c-19.919-5.068-39.119-13.061-58.455-20.254c-4.799-1.786-9.126-5.17-13.249-8.363
		C3095.18,3832.279,3091.025,3828.074,3086.08,3823.61z"/>
	<path fill-rule="evenodd" d="M3561.563,2555.316c2.449-0.383,5.179-0.196,7.299-1.245c10.725-5.298,21.559-10.474,31.798-16.619
		c4.925-2.957,8.89-7.718,12.816-12.087c6.216-6.917,12.104-14.134,18.009-21.324c12.476-15.194,29.336-23.024,47.894-26.81
		c14.945-3.049,30.259-5.082,45.488-5.744c20.878-0.907,40.688-4.528,60.075-12.802c40.236-17.169,82.505-25.393,126.301-26.093
		c35.43-0.565,70.474,3.591,105.518,7.809c7.233,0.87,14.476,2.619,21.396,4.92c16.895,5.612,32.993,13.14,51.032,15.859
		c9.354,1.411,18.257,7.837,26.668,13.107c20.573,12.891,36.557,30.822,52.041,49.215c8.407,9.985,13.734,21.406,14.744,34.327
		c1.086,13.896,6.824,24.538,15.889,35.352c12.868,15.351,26.814,29.457,40.681,43.785c16.781,17.341,29.747,37.569,40.685,59.011
		c7.392,14.492,9.5,30.27,10.498,46.389c0.818,13.225,2.594,26.433,4.693,39.528c5.903,36.826,4.909,72.955-10.122,107.721
		c-3.765,8.707-5.86,17.6-6.488,27.002c-0.71,10.62-1.301,21.287-2.81,31.808c-2.181,15.206-4.702,30.276,2.549,44.882
		c3.844,27.338-0.406,53.194-15.166,76.736c-11.338,18.084-22.786,36.029-29.662,56.439c-0.842,2.495-2.054,5.008-3.65,7.085
		c-15.407,20.038-28.462,41.867-46.619,59.816c-27.959,27.638-56.457,54.592-86.887,79.594
		c-28.769,23.637-62.211,35.382-97.833,42.318c-10.381,2.022-21.171,2.037-31.792,2.7c-12.797,0.799-25.179-0.833-37.097-6.093
		c-4.801-2.118-10.236-2.808-15.396-4.091c-1.287-0.32-2.741-0.16-3.93-0.664c-26.875-11.399-54.22-21.814-79.42-36.794
		c-5.134-3.05-9.7-7.042-14.61-10.483c-7.823-5.485-16.388-8.614-26.108-8.616c-19.145-0.003-36.662-5.836-52.924-15.631
		c-9.211-5.55-18.859-9.862-29.463-11.932c-2.606-0.509-5.296-0.994-7.704-2.048c-16.548-7.239-33.645-12.143-51.694-14.055
		c-9.638-1.021-17.439-7.011-24.036-13.507c-12.785-12.588-24.663-26.092-37.097-39.042c-11.072-11.533-22.066-23.171-33.668-34.156
		c-17.724-16.779-29.546-37.686-41.407-58.466c-4.168-7.303-5.479-16.237-8.351-25.227c-3.106-1.346-6.588-3.558-10.367-4.366
		c-14.974-3.204-26.757-11.452-37.088-22.268c-2.761-2.89-5.381-6.001-8.513-8.438c-12.746-9.921-16.8-23.238-16.528-38.799
		c0.349-19.989,0.064-39.987,0.056-59.982c-0.008-18.647-0.245-37.301,0.084-55.944c0.158-8.929-1.354-17.196-5.98-24.836
		c-5.012-8.278-6.196-17.293-6.225-26.845c-0.059-20.007,0.11-39.718,6.788-59.146c4.512-13.122,5.972-27.271,9.155-40.876
		c4.879-20.849,12.627-40.644,22.599-59.588c1.145-2.172,1.734-4.636,3.011-8.144c-5.801-0.391-10.382-0.582-14.938-1.03
		c-9.468-0.93-18.32-3.553-25.552-10.128c-6.133-5.576-13.293-7.799-21.53-9.201c-31.146-5.302-57.88-19.139-78.872-43.338
		c-5.068-5.844-7.949-12.197-8.047-19.848c-0.161-12.656-0.469-25.317-0.346-37.972c0.101-10.366,4.697-19.376,10.098-27.829
		c5.465-8.557,9.989-17.009,9.267-27.794c-0.286-4.3,1.487-9.336,3.819-13.112c12.765-20.683,29.027-38.175,50.164-50.486
		c36.043-20.993,73.429-20.363,111.454-5.903c6.789,2.582,13.603,5.102,20.384,7.706c21.183,8.136,36.812,21.573,40.531,45.102
		c4.984,31.514,12.703,62.703,10.937,95.068C3567.573,2538.099,3567.136,2546.42,3561.563,2555.316z"/>
	<path fill-rule="evenodd" d="M1750.266,353.934c-11.023,41.104-37.918,71.538-71.925,96.556c-4.109,3.023-9.489,4.715-14.543,5.962
		c-7.709,1.904-15.646,2.882-23.632,4.279c-2.744,4.075-5.073,8.124-7.971,11.714c-5.825,7.217-11.219,15.027-18.122,21.077
		c-14,12.266-28.748,23.697-43.469,35.107c-5.761,4.466-12.248,8.003-18.462,11.871c-8.676,5.399-18.144,8.172-28.382,8.219
		c-9.324,0.042-18.648,0.07-27.972,0.098c-9.792,0.029-17.501-3.835-25.06-10.324c-10.927-9.38-15.968-22.592-24.603-33.358
		c-0.975-10.125-5.972-18.472-11-27.036c-2.16-3.68-1.941-9.026-1.991-13.624c-0.199-18.602-0.083-37.208-0.083-54.077
		c-14.767-18.916-28.136-36.291-41.806-53.426c-5.207-6.526-7.257-13.499-7.986-21.897c-2.437-28.028,6.117-52.406,22.127-74.813
		c14.801-20.717,25.966-43.3,33.821-67.495c12.171-37.493,37.096-64.161,71.078-82.673c11.26-6.134,21.37-13.167,30.281-22.37
		c11.832-12.219,26.061-20.511,43.077-23.517c3.248-0.574,6.58-1.228,9.592-2.505c21.368-9.057,43.745-10.553,66.568-9.595
		c11.691,0.491,22.221,3.291,31.216,11.231c6.472,5.714,13.565,10.719,20.097,16.37c10.428,9.022,26.138,11.28,38.406,3.924
		c13.057-7.83,27.022-10.759,41.92-10.677c13.953,0.077,27.907-0.747,41.595,3.611c4.157,1.323,9.146,0.124,13.749-0.067
		c15.286-0.636,30.567-1.383,45.854-1.998c8.438-0.339,15.604,2.325,21.239,8.947c3.011,3.539,6.622,6.56,9.816,9.952
		c8.052,8.553,11.886,18.176,12.004,30.498c0.394,41.433-18.769,72.7-49.657,97.581c-9.175,7.391-16.731,14.732-20.346,25.996
		c-1.2,3.737-2.947,7.621-5.475,10.547c-6.675,7.724-11.214,16.403-14.11,26.116c-3.607,12.094-12.708,20.069-21.738,27.968
		c-1.905,1.668-4.603,3.161-7.049,3.363c-18.353,1.52-31.441,13.499-45.82,22.807
		C1764.334,342.919,1757.709,348.406,1750.266,353.934z"/>
	<path fill-rule="evenodd" d="M3411.187,2280.423c0,9.979-0.182,19.961,0.034,29.935c0.719,33.259-31.609,70.438-63.672,74.256
		c-23.126,2.752-46.061,5.834-69.411,5.683c-11.382-0.074-20.65-3.72-28.735-11.468c-13.002-12.458-24.103-26.477-34.691-40.978
		c-5.724-7.837-8.79-16.327-8.278-26.03c0.596-11.265,1.082-22.538,1.964-33.781c0.675-8.6,2.944-17.197,2.622-25.724
		c-0.487-12.861,3.939-23.889,11.755-32.989c10.344-12.045,21.988-23.024,33.596-33.905c6.484-6.078,14.966-8.525,23.881-8.744
		c12.627-0.31,25.259-0.513,37.889-0.61c2.634-0.021,5.467,0.103,7.877,1.026c25.337,9.71,51.502,17.64,69.888,40
		c9.655,11.742,17.18,23.356,15.469,39.397c-0.842,7.893-0.146,15.95-0.146,23.933
		C3411.214,2280.423,3411.2,2280.423,3411.187,2280.423z"/>
</g>
</svg>
