<?xml version="1.0" encoding="utf-8"?>
<!-- Generator: Adobe Illustrator 16.0.2, SVG Export Plug-In . SVG Version: 6.00 Build 0)  -->
<!DOCTYPE svg PUBLIC "-//W3C//DTD SVG 1.1 Tiny//EN" "http://www.w3.org/Graphics/SVG/1.1/DTD/svg11-tiny.dtd">
<svg version="1.1" baseProfile="tiny" id="Layer_1" xmlns="http://www.w3.org/2000/svg" xmlns:xlink="http://www.w3.org/1999/xlink"
	 x="0px" y="0px" width="4654.418px" height="3983.502px" viewBox="0 0 4654.418 3983.502" xml:space="preserve">
<g>
	<path fill-rule="evenodd" fill="#FFFFFF" d="M4658.834,3991.501c-1551.414,0-3103.04,0-4654.751,0
		c0-1328.958,0-2657.916,0-3987.187c1551.334,0,3102.751,0,4654.751,0C4658.834,1333.166,4658.834,2662.333,4658.834,3991.501z
		 M1005.059,916.036c-30.243-3.544-58.891,1.72-87.056,10.571c-0.634,0.199-1.283,0.378-1.938,0.479
		c-8.081,1.235-15.508,3.769-21.221,10.065c-3.877,4.274-8.986,5.285-14.529,5.186c-4.661-0.085-9.363-0.201-13.986,0.275
		c-12.947,1.335-24.668,5.468-33.588,15.625c-6.125,6.974-12.392,13.823-18.585,20.737c-43.219,7.457-30.991,0.404-62.303,33.139
		c-3.779,3.95-7.37,7.206-12.826,8.81c-12.414,3.652-22.598,10.886-31.424,20.423c-8.119,8.773-16.888,16.671-27.487,22.893
		c-7.803,4.579-15.461,11.392-20.014,19.084c-8.196,13.85-19.762,23.081-33.459,29.969c-20.287,10.2-39.16,22.608-58.35,34.63
		c-23.147,14.503-41.556,33.25-55.489,56.436c-8.2,13.645-15.424,27.877-23.535,42.663c0.288-0.214-0.194,0.271-0.774,0.555
		c-2.396,1.17-4.799,2.328-7.239,3.402c-31.368,13.797-53.557,36.561-66.711,68.183c-1.79,4.303-3.882,8.484-5.576,12.823
		c-4.696,12.026-12.099,21.498-22.094,30.108c-14.408,12.41-30.465,24.643-31.528,46.504c-0.029,0.619-0.454,1.256-0.802,1.818
		c-7.686,12.446-14.525,25.525-23.251,37.195c-23.193,31.023-39.289,64.767-43.484,103.649c-0.714,6.622-2.253,13.208-2.361,19.829
		c-0.116,7.114-3.081,12.584-6.796,18.306c-9.785,15.068-19.013,30.497-28.522,45.745c-8.702,13.954-12.372,29.336-12.829,45.561
		c-0.206,7.314-0.495,14.752,0.549,21.946c1.301,8.964-0.249,17.581-3.379,25.432c-6.645,16.669-13.273,33.62-22.463,48.922
		c-9.28,15.45-10.021,31.36-8.848,48.073c0.317,4.532,1.988,8.97,2.933,12.999c-20.1,36.041-21.224,41.743-15.47,78.356
		c-1.481,1.773-3.049,3.923-4.889,5.808c-13.199,13.521-20.035,29.198-19.125,48.583c1.061,22.581,0.401,45.239,1.299,67.832
		c0.283,7.106,1.991,14.697,5.127,21.037c7.013,14.179,15.334,27.711,23.679,42.493c-8.298,17.175-8.948,36.431-9.113,55.779
		c-0.04,4.657-0.196,9.355-0.833,13.961c-4.13,29.842-2.89,59.855-3.132,89.826c-0.12,14.84,3.044,29.059,7.175,43.202
		c2.319,7.937,5.747,15.143,12.359,20.053c20.208,15.009,28.453,36.216,32.064,60c0.399,2.632,0.867,5.27,1.538,7.843
		c2.402,9.199,6.46,17.416,13.841,23.786c6.553,5.653,12.651,11.861,19.425,17.226c4.1,3.248,8.877,7.014,13.741,7.679
		c18.913,2.583,33.148,12.872,46.25,25.561c0.477,0.462,1.042,0.832,1.542,1.272c6.3,5.542,13.499,8.079,22.012,7.561
		c7.306-0.446,14.678,0.229,21.986-0.19c8.376-0.48,15.719,1.273,22.421,8.221c0.217,3.178,0.647,7.105,0.729,11.039
		c0.549,26.511,0.524,26.512,18.8,45.465c0.926,0.96,1.954,1.827,2.814,2.84c7.51,8.852,16.58,15.175,27.879,18.449
		c7.715,2.236,14.604,6.052,20.558,11.822c6.951,6.738,15.658,9.756,25.49,9.705c4.535-0.023,9.077,0.853,14.642,1.426
		c0.985,7.787,2.348,14.957,2.72,22.178c1.175,22.782,5.828,44.908,12.46,66.61c1.904,6.229,4.541,13.006,8.915,17.528
		c6.725,6.956,8.66,14.46,8.247,23.521c-0.24,5.289,0.574,10.619,0.789,15.937c0.342,8.468,3.87,15.156,10.223,20.816
		c15.37,13.689,30.562,27.585,45.667,41.57c6.276,5.813,13.522,7.656,21.889,7.86c11.925,0.291,23.839,1.403,35.74,2.379
		c28.411,2.33,32.618,0.93,53.68-18.57c1.467-1.357,2.913-2.746,4.269-4.212c4.218-4.557,9.247-7.679,15.486-8.351
		c9.162-0.988,16.288-5.572,22.13-12.336c4.759-5.512,10.681-7.198,17.778-7.118c9.313,0.103,18.642-0.422,27.951-0.924
		c10.433-0.563,19.296-4.795,26.559-12.288c5.56-5.735,11.163-11.44,16.503-17.379c5.55-6.17,7.59-13.342,7.908-21.878
		c0.528-14.182-3.573-27.601-4.766-41.369c-2.036-23.488-15.739-35.467-36.277-42.223c-3.73-1.228-7.663-1.84-11.128-2.649
		c-3.283-5.797-5.381-11.674-9.278-15.891c-6.25-6.764-8.863-14.733-10.619-23.248c-2.949-14.3-5.288-28.736-10.806-42.388
		c-2.964-7.333-6.873-14.558-8.197-22.205c-1.36-7.85-4.705-13.727-10.442-18.59c-7.19-6.096-9.612-14.146-9.971-23.103
		c-0.16-3.994-0.162-7.999-0.085-11.996c0.232-12.051,0.552-24.067-7.305-34.45c-1.133-1.498-1.686-3.703-1.839-5.634
		c-1.151-14.489-2.134-28.99-3.29-45.179c18.289-7.869,27.487-28.801,48.92-32.69c1.145-0.208,2.076-1.604,3.098-2.455
		c12.689-10.581,21.685-23.442,24.193-40.108c1.684-11.184,3.766-22.383,4.33-33.643c1.229-24.599,1.04-49.274,2.518-73.854
		c1.027-17.076-4.558-31.153-14.634-44.363c-12.585-16.496-27.537-30.57-42.95-43.522c1.881-7.371,4.151-14.151,5.245-21.116
		c1.213-7.728-1.32-15.907,2.587-24.215c4.2-1.23,8.525-3.071,13.019-3.69c8.388-1.157,15.05-4.887,20.515-11.226
		c3.042-3.527,6.076-7.18,9.667-10.093c17.075-13.853,16.805-32.026,12.348-50.801c-1.812-7.629-5.692-14.807-8.969-22.037
		c-5.44-12.003-13.413-22.884-16.573-36.341c9.33-11.097,11.021-24.074,9.965-37.743c-0.308-3.981-0.599-7.972-0.64-11.96
		c-0.027-2.618-0.466-5.791,0.779-7.772c7.647-12.172,9.178-26.056,10.983-39.99c8.934-2.627,17.74-3.994,25.326-7.795
		c7.527-3.771,13.827-9.995,22.201-16.299c12.24,0,26.187-0.054,40.134,0.015c13.992,0.069,28.021,0.96,41.965,0.209
		c15.226-0.82,30.761-1.697,42.963-13.198c1.761-1.661,4.825-2.769,7.27-2.742c14.466,0.164,27.176-6.023,40.371-10.52
		c1.16-0.396,2.572-0.052,4.805-0.052c3.292,3.106,7.096,6.695,11.058,10.434c-0.368,5.65-0.445,10.953-1.1,16.183
		c-3.334,26.577-2.453,53.128-0.588,79.767c0.888,12.674,4.384,23.53,14.432,31.596c8.59,6.898,11.068,15.695,10.664,26.46
		c-0.574,15.302-0.203,30.659,0.371,45.97c0.193,5.15,0.623,11.784,3.754,15.038c7.897,8.21,8.015,17.857,8.241,27.794
		c0.169,7.483,0.592,15.617,5.683,20.796c9.45,9.612,12.094,21.884,16.616,33.616c3.34,8.664,7.189,17.303,12.087,25.158
		c6.562,10.523,10.685,21.275,9.082,33.808c-1.207,9.437,2.634,16.594,9.6,22.793c5.915,5.266,12.007,10.68,16.537,17.078
		c7.035,9.937,15.471,18.147,25.018,25.492c3.061,2.354,6.851,5.021,8.03,8.352c6.453,18.202,15.778,34.98,25.398,51.438
		c-12.661,17.448-19.152,35.914-16.631,56.687c-5.257,5.913-10.176,11.316-14.953,16.843c-18.104,20.937-29.647,44.216-25.89,72.934
		c0.258,1.972,0.186,3.995,0.176,5.992c-0.084,17.954,0.316,35.931-0.507,53.852c-0.392,8.525-2.767,17.036-4.888,25.391
		c-2.884,11.358-9.174,19.542-19.968,25.761c-20.184,11.629-39.276,25.108-55.414,42.314c-11.26,12.005-18.274,26.065-21.662,42.017
		c-2.487,11.707-5.095,23.409-6.916,35.227c-1.417,9.201-5.214,15.838-13.616,20.589c-14.642,8.28-26.391,20.323-37.761,32.467
		c-18.898,20.183-29.739,43.842-29.104,72.146c0.193,8.63-0.944,17.282-1.279,25.932c-0.458,11.84-4.644,22.094-12.866,30.582
		c-22.401,23.122-39.299,50.4-57.668,76.542c-6.87,9.775-10.977,21.779-18.87,30.474c-8.359,9.209-20.083,15.269-29.708,23.444
		c-28.381,24.104-48.138,53.123-50.219,90.982c-8.114,9.596-16.338,18.368-23.437,27.97c-7.559,10.224-13.272,21.873-14.856,34.482
		c-1.401,11.153-0.981,22.678-0.019,33.923c0.483,5.645,2.542,12.443,6.348,16.282c13.093,13.205,26.024,27.236,41.397,37.327
		c14.522,9.531,29.027,18.45,40.877,31.324c3.028,3.288,7.301,5.432,11.724,8.622c-7.483,16.077-9.481,32.963-9.967,50.408
		c-0.513,18.446,3.093,35.39,13.707,50.656c-4.923,6.007-9.085,11.083-12.781,15.594c-3.097,0.356-5.079,0.8-7.055,0.777
		c-19.339-0.222-38.543,0.414-57.317,6.02c-3.645,1.088-7.929,0.421-11.869,0.053c-8.598-0.804-17.165-1.936-26.459-3.018
		c-4.212-4.721-8.52-9.756-13.049-14.581c-8.203-8.74-16.495-17.397-24.836-26.007c-4.279-4.418-9.388-6.934-15.667-7.936
		c-36.012-5.749-71.607-7.423-105.868,8.515c-4.213,1.96-8.975,2.81-13.052,4.982c-7.451,3.97-15.078,3.989-23.258,3.463
		c-17.27-1.109-34.602-1.261-51.907-1.854c-9.952-0.34-18.297,3.142-24.836,10.6c-8.339,9.512-16.936,18.843-24.662,28.839
		c-18,23.285-28.535,48.998-27.5,79.329c0.985,28.884,8.833,54.706,26.914,76.864c4.441,17.069,0.674,31.541-11.928,43.896
		c-3.108,3.047-5.874,7.886-6.167,12.084c-0.785,11.259-1.483,22.833,0.295,33.878c1.879,11.679,5.844,23.186,15.791,31.446
		c4.573,3.799,8.344,8.593,12.305,13.088c8.591,9.751,18.794,16.641,31.629,19.785c17.138,4.198,32.54,11.588,43.436,26.27
		c0.392,0.529,0.947,0.936,1.415,1.411c11.123,11.298,24.355,18.206,40.234,20.271c11.881,1.545,23.671,3.808,35.491,5.815
		c11.418,1.94,20.964,6.786,29.721,14.917c13.143,12.203,27.488,23.164,41.755,34.089c11.186,8.564,23.846,14.368,37.664,17.781
		c29.28,7.231,58.917,10.996,89.057,9.311c6.452-0.36,14.131-1.294,18.898-4.99c13.005-10.084,27.419-9.103,42.022-8.062
		c9.263,0.66,18.446,2.394,27.678,3.554c12.191,1.532,23.245,5.432,32.272,14.256c4.28,4.185,9.292,7.619,13.571,11.805
		c6.164,6.027,13.336,8.313,21.822,7.697c16.753-1.212,33.134,1.354,49.557,4.533c14.365,2.78,28.934,5.091,43.514,6.021
		c23.961,1.529,47.711,4.261,71.3,8.594c27.819,5.11,55.72,4.018,83.645,1.158c10.583-1.084,21.171-2.144,31.746-3.311
		c53.24-5.875,101.487-22.003,136.02-66.293c2.044-2.622,4.408-4.992,6.567-7.528c4.793-5.632,8.73-11.456,9.483-19.343
		c0.417-4.373,2.917-8.683,5.042-12.726c4.644-8.839,10.637-17.091,14.322-26.287c11.385-28.415,22.457-56.98,32.653-85.839
		c7.067-20.006,12.486-40.592,18.739-61.242c6.246-1.311,12.046-2.536,17.851-3.744c12.681-2.637,23.72-7.784,32.469-17.985
		c7.791-9.083,16.612-17.304,25.231-25.645c2.76-2.672,6.033-5.347,9.574-6.591c16.75-5.88,30.491-16.04,42.807-28.502
		c4.639-4.693,9.566-9.104,13.813-13.123c8.877,9.932,17.263,19.148,25.449,28.541c4.141,4.751,9.402,7.242,15.293,8.831
		c20.11,5.421,40.592,7.466,61.324,5.953c4.365-0.318,10.189-1.665,12.549-4.705c9.24-11.901,21.295-11.964,34.232-10.354
		c4.623,0.575,9.29,1.363,13.914,1.24c19.623-0.521,40.02,4.628,58.14-7.523c16.086-1.873,25.185-14.015,35.437-24.327
		c8.122-8.168,12.936-17.988,16.395-29.196c5.891-19.094,3.364-38.342,3.622-57.556c0.042-3.105-1.223-6.82-3.15-9.249
		c-4.963-6.259-5.408-13.269-5.423-20.725c-0.052-24.706,2.675-18.112-14.989-41.388c-2.813-3.706-5.936-7.202-9.139-10.582
		c-20.625-21.761-25.143-23.689-54.365-19.783c-17.82,2.383-35.481,5.949-53.6,4.769c-6.403-0.417-11.935,1.613-15.913,6.669
		c-7.805,9.915-15.477,19.938-22.996,30.07c-4.283,5.771-6.748,12.971-12.61,16.771c-2.151,0-3.715,0.474-4.733-0.071
		c-14.813-7.92-30.859-7.164-46.867-6.997c-12.569,0.131-23.396,3.973-32.176,13.343c-5.833,6.224-12.13,12.01-18.377,18.148
		c-7.565-6.484-13.816-12.514-20.758-17.596c-6.822-4.994-14.348-9.027-22.702-14.184c4.169-5.385,7.778-10.013,11.352-14.668
		c5.27-6.865,12.144-13.06,15.413-20.777c5.93-14,17.573-21.073,29.172-28.675c2.222-1.456,4.991-2.182,6.981-3.866
		c13.464-11.396,30.61-19.644,34.194-39.646c0.325-1.816,2.132-3.334,3.096-5.076c5.47-9.893,10.849-19.835,16.341-29.715
		c7.76-13.959,14.729-28.454,23.578-41.69c16.279-24.349,33.486-48.087,50.683-71.808c12.248-16.895,21.548-35.19,27.985-54.953
		c1.63-5.007,3.492-10.442,3.087-15.508c-1.121-14.081,3.562-26.25,10.642-37.744c3.799-6.169,8.107-12.12,12.853-17.591
		c21.864-25.204,43.436-50.454,54.548-82.841c4.138-12.059,11.925-21.969,21.489-30.803c22.582-20.855,44.062-42.731,53.93-73.08
		c0.369-1.137,1.675-1.969,2.302-2.671c1.752-0.256,3.113-0.793,4.346-0.583c22.536,3.824,45.047,4.087,67.552-0.214
		c13.577-2.595,26.372-0.743,38.717,5.768c21.018,11.086,43.217,16.32,67.299,14.704c22.097-1.481,43.759-3.601,63.899-13.812
		c3.401-1.725,7.598-3.006,11.314-2.765c9.828,0.639,19.593,2.226,29.329,3.429c14.481,49.883,50.029,78.171,95.375,97.414
		c3.027,9.63,6.097,19.076,8.962,28.586c4.224,14.021,8.22,28.11,12.459,42.128c5.739,18.97,16.145,35.032,31.021,48.069
		c10.018,8.779,20.226,17.355,30.634,25.666c11.012,8.793,20.782,18.656,29.045,30.089c9.891,13.686,16.01,29.152,21.563,44.873
		c10.2,28.881,20.127,57.859,30.294,86.753c8.456,24.031,19.458,46.684,35.859,66.489c5.937,7.169,11.1,14.979,16.663,22.46
		c13.827,18.591,21.712,39.194,24.277,62.443c2,18.118,9.975,34.592,22.632,47.939c6.582,6.942,11.909,14.369,15.2,23.129
		c4.123,10.974,11.598,19.205,19.695,27.261c5.095,5.067,10.766,7.471,17.786,7.512c10.583,0.063,21.181,0.176,32.486,3.762
		c0.439,13.042,8.953,21.612,17.927,29.593c8.934,7.944,18.61,15.047,27.73,22.791c17.288,14.683,35.207,28.166,58.011,32.423
		c3.73,7.491,1.95,14.941,2.313,22.141c1.353,26.728,5.148,52.971,14.067,78.365c2.717,7.737,6.861,14.096,12.417,20.124
		c11.438,12.412,25.359,21.458,39.028,30.95c14.525,10.087,23.445,24.373,24.667,41.632c1.16,16.403,3.35,32.827,1.433,49.568
		c-1.42,12.402,0.489,25.21,1.192,37.821c0.428,7.667,4.419,13.451,9.674,19.07c18.35,19.62,39.163,35.774,62.123,49.81
		c16.992,10.389,34.931,16.307,54.235,18.622c9.871,1.183,19.959,0.466,29.94,0.835c11.151,0.414,21.054-2.004,28.937-10.653
		c2.629-2.885,6.209-4.901,9.459-7.396c8.81,1.04,17.356,2.739,25.94,2.943c36.746,0.875,73.243-0.787,108.771-11.749
		c9.515-2.936,19.471-4.421,29.065-7.132c11.479-3.243,22.964-6.629,34.121-10.816c9.324-3.5,18.088-8.468,27.276-12.37
		c8.494-3.606,17.224-6.661,26.337-10.145c9.111,10.148,20.601,12.82,32.611,14.594c30.453,4.497,59.724,3.794,85.654-16.149
		c7.891-6.069,16.766-10.855,25.164-16.27c10.365-6.684,21.613-10.137,34.028-9.808c7.326,0.194,14.772,0.831,21.975-0.146
		c19.253-2.61,38.367-0.594,57.603-0.157c50.075,1.138,96.159-12.054,136.517-42.699c19.357-14.7,40.237-25.879,64.636-29.721
		c5.857-0.923,11.682-2.921,17.138-5.303c6.017-2.626,12.463-5.311,17.193-9.639c13.748-12.577,26.968-25.762,39.928-39.158
		c8.438-8.721,13.552-19.406,17.22-31.129c7.947-25.389,7.734-51.239,5.556-77.198c-0.774-9.229-4.036-17.723-10.099-25.542
		c-10.185-13.135-20.441-26.585-28.041-41.263c-10.098-19.503-24.047-33.021-45.062-39.416c-4.284-1.303-8.154-3.146-11.751-6.783
		c-14.007-14.164-28.903-27.443-43.301-41.227c-4.248-4.069-8.346-8.422-11.816-13.153c-10.554-14.386-23.125-26.649-41.272-29.133
		c-19.067-2.606-38.6-3.953-57.163,3.78c-10.16,4.232-19.641,4.485-30.825,1.905c-15.24-3.517-31.403-4.625-46.9,2.091
		c-7.356,3.188-15.551,4.555-23.322,0.781c-15.745-7.643-32.542-5.575-49.124-5.928c-9.094-0.193-17.71,1.807-23.879,8.285
		c-8.041,8.443-17.198,8.068-27.531,7.202c-28.089-2.354-54.914-10.204-81.865-17.591c-5.684-1.558-11.165-3.846-16.096-5.573
		c-5.757-15.999-4.09-31.44-4.324-46.699c-0.254-16.487-3.504-31.736-16.695-43.232c-0.87-0.757-1.035-2.325-2.074-4.837
		c4.545-6.357,9.105-13.693,14.609-20.237c11.884-14.133,19.109-29.855,21.915-48.354c2.929-19.308,1.637-38.55,2.245-57.819
		c0.359-11.393,0.018-22.396-6.596-32.626c-2.739-4.239-3.024-10.124-4.183-15.315c-2.359-10.579-5.989-20.632-13.994-28.233
		c-8.357-7.938-11.229-17.153-10.575-28.608c0.91-15.942-4.514-29.993-15.65-41.814c-4.068-4.318-7.251-9.475-10.814-14.265
		c-8.35-11.221-16.33-22.737-25.103-33.614c-15.069-18.68-29.962-37.347-41.383-58.679c-10.989-20.524-23.05-40.485-35.011-60.473
		c-3.797-6.347-7.398-12.532-8.716-19.943c-1.456-8.185-6.109-14.53-12.166-20.123c-4.354-4.022-9.522-7.996-11.952-13.119
		c-8.561-18.034-17.095-36.271-15.872-57.121c0.233-3.986-0.299-8.028,0.088-11.991c1.493-15.336-3.29-28.104-12.272-40.81
		c-13.812-19.536-26.586-39.979-37.94-61.042c-16.727-31.026-33.056-62.412-39.546-97.725c-0.807-4.394-3.619-8.487-5.849-12.53
		c-2.539-4.602-5.465-8.99-7.921-12.98c7.829-20.861,6.093-41.027,1.242-62.281c11.984-10.226,21.215-23.407,24.66-39.271
		c2.413-11.115,8.578-19.197,15.572-27.079c13.254-14.939,20.674-32.422,23.768-51.931c1.355-8.55,2.571-17.121,3.811-25.688
		c1.616-11.18,2.851-22.427,4.854-33.536c4.756-26.378,6.795-52.66,0.154-79.079c-1.098-4.374-0.531-9.184-0.604-13.794
		c-0.186-11.974,0.578-24.042-0.686-35.896c-1.333-12.499-5.269-24.712-6.775-37.205c-1.355-11.228-5.866-20.177-13.776-27.977
		c-5.157-5.086-9.688-10.807-15.096-16.915c3.231-5.863,5.593-11.371,9.012-16.118c9.341-12.972,18.448-26.215,28.931-38.231
		c10.048-11.518,16.531-24.208,18.128-39.188c1.267-11.879,3.102-24.045,1.777-35.754c-1.287-11.386,1.054-21.099,6.064-30.637
		c6.903-13.142,11.433-27.097,13.3-41.682c3.667-28.64,5.801-57.286-11.552-83.061c-3.225-4.789-2.996-9.843-2.791-15.29
		c0.75-19.958,1.001-39.936,1.55-59.903c0.068-2.502,0.794-4.986,1.238-7.619c9.193-3.129,17.768-2.557,26.247-0.883
		c7.829,1.544,15.44,4.342,23.308,5.513c19.105,2.846,38.143,5.249,56.603-4.232c6.912-3.549,15.035-4.744,23.313-7.225
		c2.648,4.533,4.874,8.344,7.074,12.112c-3.403,5.911-6.977,10.824-9.18,16.289c-2.467,6.118-4.389,12.635-5.336,19.155
		c-3.459,23.812-3.865,47.762-2.159,71.762c0.223,3.131-0.286,6.314-0.509,10.425c-6.02,0.494-11.214,1.403-16.373,1.238
		c-9.416-0.301-16.331,3.584-22.727,10.289c-10.764,11.285-16.577,25.653-25.081,38.322c-1.724,2.567-2.128,6.352-2.249,9.609
		c-0.645,17.319-1.855,34.723,8.786,50.189c2.989,4.343,4.69,9.554,7.161,14.274c13.438,25.666,35.199,39.789,63.459,42.541
		c15.803,1.538,31.961,0.182,47.906-0.756c11.648-0.685,21.843-5.485,29.706-14.591c6.47-7.492,13.134-14.817,20.164-22.726
		c16.128-0.65,32.731-1.49,49.346-1.874c4.226-0.098,8.485,1.253,11.089,1.674c-0.347,22.22-1.345,42.84-0.817,63.422
		c0.649,25.318,7.374,48.515,26.882,66.599c7.794,7.225,14.349,15.77,21.859,23.324c4.664,4.691,9.522,9.652,15.24,12.741
		c12.993,7.022,18.866,17.325,20.106,31.937c1.309,15.418,6.728,30.146,16.61,42.11c19.074,23.095,39.013,45.481,58.815,67.965
		c5.716,6.489,11.731,12.878,18.426,18.309c11.927,9.674,24.333,18.2,41.176,17.469c7.761-0.336,15.805,1.952,23.473,3.987
		c36.034,9.565,59.115,4.169,86.243-20.684c1.964-1.8,3.946-3.608,5.694-5.61c7.62-8.728,18.282-10.373,27.282-6.195
		c14.189,6.588,28.545,5.356,43.085,5.661c9.897,0.208,18.128-3.754,25.205-10.316c4.396-4.076,8.692-8.286,12.737-12.707
		c3.682-4.021,7.719-6.429,13.24-7.932c11.722-3.189,21.752-9.831,29.882-19.072c4.762-5.411,9.573-10.778,14.412-16.219
		c3.098,0,5.754-0.106,8.399,0.018c20.98,0.979,40.831-2.978,60.331-11.122c20.225-8.447,41.292-14.861,61.819-22.618
		c5.496-2.077,11.094-5.012,15.394-8.928c16.84-15.334,32.409-31.681,39.008-54.525c2.021-6.996,5.566-13.54,8.206-20.371
		c7.212-18.667,14.364-37.589,15.317-57.665c0.914-19.249-0.33-38.622-1.123-57.92c-0.478-11.603-4.761-21.995-12.169-31.095
		c-3.354-4.122-6.66-8.384-9.275-12.989c-8.659-15.248-19.86-28.453-32.902-39.933c-6.393-5.628-13.734-12.207-21.559-13.76
		c-16.383-3.25-26.651-13.518-36.924-24.905c-4.894-5.424-10.371-10.375-15.953-15.107c-7.416-6.288-11.929-14.269-14.402-23.407
		c-1.734-6.41-3.354-12.977-3.862-19.564c-0.841-10.888-4.063-21.005-9.027-30.459c-6.796-12.944-14.063-25.669-21.735-38.114
		c-5.217-8.461-10.993-16.537-14.508-26.206c8.358-12.875,11.465-27.03,14.198-41.518c3.258-17.271,1.438-34.566,2.134-51.836
		c0.719-17.827-2.641-34.31-13.94-48.855c-7.601-9.784-11-21.182-9.443-33.79c0.323-2.625-0.063-5.332,0.048-7.992
		c0.529-12.7-4.074-23.351-12.434-32.736c-17.759-19.94-35.307-40.077-61.026-50.368c-1.188-0.475-2.138-1.543-3.637-2.665
		c-1.662-3.839-3.951-7.976-5.285-12.399c-5.935-19.677-17.844-35.799-31.162-50.732c-13.286-14.898-27.902-28.605-41.841-42.929
		c-6.021-6.188-12.13-12.338-17.621-18.983c-14.424-17.451-30.596-33.146-46.523-49.205c-9.408,0-18.02,0-25.452,0
		c-12.577-13.889-24.328-26.578-35.741-39.563c-7.994-9.095-17.623-14.098-29.818-13.294c-12.943,0.852-21.605-5.592-27.612-16.15
		c-10.996-19.326-26.274-35.108-41.192-51.271c-12.569-13.617-27.493-20.796-46.157-18.856c-15.884,1.65-29.912-2.33-43.35-11.065
		c-15.809-10.277-33.495-15.039-52.434-17.632c-21.744-2.978-42.765-9.562-58.857-26.665c-9.663-10.271-21.813-16.748-35.371-21.665
		c-22.397-8.121-45.53-15.334-63.905-31.801c-1.461-1.309-3.322-2.235-5.11-3.11c-18.652-9.142-35.697-20.879-51.665-33.951
		c-11.636-9.524-24.178-13.366-38.794-11.864c-2.645,0.271-5.427-0.222-7.967,0.383c-11.7,2.782-21.974-0.698-32.707-5.273
		c-13.385-5.706-27.343-10.604-41.519-13.762c-12.875-2.868-26.353-3.61-39.604-4.017c-9.885-0.303-18.003-3.241-25.595-9.36
		c-4.569-3.682-9.713-7.546-15.216-9.017c-20.755-5.547-41.789-7.053-63.264-3.384c-12.005,2.05-23.651,3.728-31.412,13.624
		c-3.464,0.205-6.115,0.515-8.766,0.494c-22.574-0.174-18.907,1.869-33.225-12.972c-6.236-6.464-13.26-10.907-22.209-12.446
		c-9.827-1.69-19.513-4.665-29.389-5.463c-10.183-0.824-19.66-3.188-28.761-7.499c-9.828-4.657-20.083-6.624-30.99-6.276
		c-15.983,0.508-31.984,0.686-47.974,0.563c-4.504-0.034-10.243-0.15-13.276-2.737c-12.583-10.736-28.528-10.996-43.038-13.034
		c-22.266-3.127-45.079-2.376-67.662-3.219c-3.797-0.142-7.604-0.02-12.81-0.02c-0.223-9.2-1.186-17.137-0.439-24.908
		c1.488-15.5-8.847-27.577-11.182-41.895c-0.186-1.137-1.453-2.233-2.447-3.079c-12.131-10.315-22.056-22.762-33.178-34.045
		c-2.711-2.75-6.357-5.306-10.014-6.249c-8.332-2.15-13.558-7.848-18.875-13.838c-3.089-3.479-6.093-7.912-10.1-9.529
		c-11.73-4.734-16.222-15.053-21.704-24.889c-4.86-8.721-10.157-17.199-15.026-25.915c-6.167-11.041-12.888-21.866-17.976-33.398
		c-12.08-27.384-32.122-47.422-57.702-61.448c-10.18-5.58-19.123-11.772-26.72-20.151c-9.201-10.148-20.029-17.53-33.365-20.911
		c-10.55-2.676-19.23-8.763-28.365-14.295c-10.763-6.518-21.903-12.829-33.627-17.24c-16.633-6.258-33.95-10.699-51.502-16.079
		c-2.387-19.145-13.749-32.624-26.888-45.481c-9.268-9.069-19.137-16.356-31.464-20.398c-5.68-1.862-11.592-3.582-16.676-6.588
		c-16.789-9.928-35.269-10.745-53.981-11.864c-12.38-0.741-21.936,3.064-30.143,12.037c-6.198,6.779-12.98,13.024-19.748,19.75
		c-17.786-12.163-36.82-13.312-56.408-12.515c-6.369,0.258-11.612,1.823-16.278,6.105c-9.29,8.524-18.728,16.888-28.612,25.774
		c-14.065-0.878-27.67,1.048-37.717,13.031c-0.789,0.94-2.251,1.683-3.483,1.831c-13.101,1.582-20.29,11.699-29.26,19.525
		c-8.791,7.67-12.462,16.771-12.014,28.136c0.548,13.916,0.778,27.843,1.187,43.298c-15.229,11.619-30.524,24.46-47.053,35.445
		c-9.546,6.345-18.025,13.464-26.228,21.28c-7.031,6.699-11.942,14.263-13.305,23.926c-2.023,14.345-7.376,26.778-19.296,35.88
		c-12.07,9.216-15.953,22.552-17.411,36.845c-0.472,4.625,0.051,9.353-0.441,13.974c-0.411,3.864-0.66,8.281-2.667,11.352
		c-11.522,17.621-13.31,37.308-13.202,57.49c0.046,8.683-1.195,17.017-3.218,25.577c-2.885,12.201-3.356,24.976-4.778,37.515
		c-0.506,4.463-0.776,8.954-1.255,14.629c-5.408-1.9-9.624-3.835-14.049-4.843c-9.691-2.205-19.417-4.874-29.262-5.632
		c-12.59-0.969-25.321,0.062-37.973-0.343c-9.406-0.301-16.864,3.136-23.073,9.806c-6.312,6.78-12.502,13.672-19.625,21.479
		c-7.168,0-15.139-0.35-23.063,0.107c-6.582,0.38-13.689,0.362-19.548,2.88c-14.571,6.262-29.537,6.367-44.844,5.883
		c-12.651-0.4-25.328,0.007-37.991-0.098c-9.513-0.078-19.001,1.228-26.924,6.238c-8.017,5.067-16.334,5.229-24.966,4.931
		c-15.532-0.535-30.468,2.224-45.132,7.13c-10.093,3.376-20.419,6.092-30.408,9.74c-5.841,2.133-11.446,2.696-17.573,1.999
		c-37.852-4.307-75.888-4.082-113.752-1.614c-20.632,1.345-41.195,1.962-61.821,2.185c-9.994,0.107-19.988,0.62-29.979,0.568
		c-12.042-0.063-22.021,4.036-30.085,13.096C1013.757,908.568,1010.042,911.456,1005.059,916.036z M3552.852,2669.192
		c-5.289,14.438-9.381,26.233-13.921,37.852c-6.335,16.215-11.033,32.668-12.046,50.247c-0.688,11.945-4.009,23.499-8.725,34.689
		c-7.752,18.399-14.822,37.085-22.201,55.641c-6.456,16.238-10.032,33.177-10.966,50.533c-0.716,13.288-0.127,26.645-0.223,39.971
		c-0.149,20.766,2.676,41.213,7.391,61.339c3.966,16.932,10.537,32.566,21.616,46.665c13.184,16.779,25.816,33.911,41.54,48.459
		c9.548,8.833,16.399,19.433,19.331,32.039c1.637,7.042,1.463,14.501,2.148,21.768c1.312,13.902,1.488,28.217,9.731,40.296
		c16.18,23.71,33.703,46.364,55.515,65.284c15.204,13.189,31.795,23.944,51.351,29.964c12.691,3.908,25.194,8.671,37.345,14.036
		c22.382,9.883,45.539,14.494,69.99,13.257c6.584-0.334,13.875-0.91,19.716,1.434c9.737,3.906,19.49,4.096,29.43,3.806
		c20.625-0.602,41.255-1.331,61.853-2.522c12.604-0.729,23.799,1.78,33.112,10.712c6.673,6.401,14.682,8.521,23.801,7.925
		c19.918-1.305,39.858-2.288,59.784-3.479c7.444-0.445,14.28-2.612,20.531-6.933c11.833-8.181,25.111-11.767,39.467-12.266
		c5.224-0.182,10.624-1.307,15.537-3.11c11.831-4.342,23.48-9.205,35.07-14.165c2.967-1.269,5.839-3.296,8.089-5.619
		c17.139-17.695,34.259-35.556,47.178-56.616c6.841-11.15,15.075-19.6,26.284-26.356c18.021-10.863,31.775-25.856,39.756-45.948
		c5.643-14.205,12.952-27.736,18.949-41.811c6.251-14.671,13.235-29.25,17.379-44.552c7.492-27.677,15.782-54.941,27.055-81.352
		c8.181-19.167,11.88-39.359,11.499-60.376c-0.447-24.639,0.124-49.296-0.211-73.938c-0.152-11.286-1.087-22.592-2.248-33.828
		c-1.914-18.526-4.1-37.03-6.558-55.491c-1.578-11.854-2.929-23.857-5.991-35.366c-7.53-28.291-16.845-56.126-23.835-84.538
		c-6.882-27.979-20.432-51.683-39.479-72.899c-9.318-10.381-17.385-21.879-26.152-32.762c-7.499-9.309-14.783-18.842-22.909-27.579
		c-8.606-9.253-18.792-17.081-27.028-26.62c-11.068-12.82-24.375-17.308-40.846-15.95c-7.843,0.645-16.188,0.383-23.74-1.609
		c-23.646-6.24-47.511-5.874-71.398-3.47c-11.144,1.121-21.808,0.248-30.469-6.321c-10.922-8.284-22.683-10.624-35.664-9.443
		c-11.237,1.022-22.449,2.325-33.663,3.581c-3.95,0.443-8.017,2.083-11.789,1.53c-31.731-4.657-63.812,4.334-95.454-2.581
		c-1.273-0.278-2.659-0.02-3.99-0.061c-24.947-0.774-48.768,5.925-72.823,11.02c-8.853,1.876-15.633,7.41-21.649,13.688
		c-15.097,15.753-33.345,26.438-53.679,33.635c-11.618,4.113-21.349,10.673-29.729,19.531c-7.65,8.087-15.381,16.1-22.83,23.889
		c-1.443-1.281-3.103-2.021-3.283-3.024c-2.756-15.307-9.377-29.104-16.958-42.404c-4.424-7.761-6.675-15.59-6.783-24.576
		c-0.069-5.773-1.554-11.995-4.083-17.198c-13.082-26.899-34.858-44.961-61.441-57.357c-24.179-11.274-50.19-12.182-76.313-11.64
		c-6.26,0.13-11.278,2.582-16.37,6.257c-9.132,6.592-5.128,5.533-20.879,6.852c1.716-4.693,2.862-8.986,4.791-12.892
		c6.186-12.528,12.604-24.942,19.04-37.345c6.262-12.068,8.16-24.757,8.789-38.4c1.181-25.642-5.763-47.289-24.909-64.645
		c-7.336-6.649-10.768-14.806-11.233-24.695c-0.211-4.475-1.176-9.514-3.529-13.188c-13.288-20.751-42.279-31.716-64.807-22.456
		c-10.947,4.499-21.381,7.129-32.677,6.063c-20.869-1.967-37.646,7.903-53.137,19.201c-12.81,9.343-23.402,21.692-35.211,32.451
		c-5.346,4.871-7.651,10.697-7.584,17.688c0.316,32.638,0.244,65.287,1.271,97.901c0.263,8.356,2.002,18.001,6.58,24.622
		c10.933,15.811,23.938,30.191,36.158,45.105c4.083,4.982,9.372,6.87,15.864,6.543c12.611-0.635,25.25-1.259,37.869-1.12
		c17.963,0.198,35.92,1.06,53.876,1.706c3.873,0.139,7.736,0.573,12.337,0.928c0,4.121,0.245,7.327-0.037,10.487
		c-2.606,29.147-5.43,58.276-7.884,87.436c-0.612,7.278-0.021,14.652-0.146,21.979c-0.215,12.594,2.948,23.521,13.469,31.718
		c6.813,5.307,12.925,11.508,19.408,17.241c13.96,12.342,28.323,24.259,41.799,37.107c7.737,7.376,16.657,10.926,26.716,12.06
		c7.92,0.894,15.961,0.731,23.949,0.988C3521.683,2668.26,3535.634,2668.668,3552.852,2669.192z M2247.111,3714.797
		c0.022-0.274,0.044-0.549,0.065-0.822c18.651,0,37.303-0.179,55.951,0.055c15.232,0.191,28.813-3.992,40.807-13.491
		c12.525-9.921,25.293-19.537,37.764-29.524c4.81-3.852,9.595-6.675,16.091-6.776c9.565-0.15,18.538-3.405,25.943-9.265
		c18.307-14.486,35.539-30.205,49.173-49.348c12.973-18.212,21.112-38.546,23.782-60.744c1.583-13.16,6.388-23.829,16.969-32.299
		c11.589-9.278,18.942-21.928,26.363-34.729c13.974-24.109,14.429-50.186,9.4-75.612c-5.133-25.949-14.894-51.005-22.996-76.334
		c-3.692-11.547-10.175-21.61-18.636-30.391c-9.702-10.066-19.232-20.298-28.883-30.412c-10.204-10.692-21.856-19.348-35.102-26.057
		c-5.212-2.639-10.325-6.252-14.229-10.558c-16.557-18.267-36.473-30.776-60.172-37.498c-7.025-1.993-13.821-4.784-20.75-7.129
		c-25.911-8.766-51.238-18.572-73.201-35.623c-8.374-6.5-17.587-12.276-28.457-13.855c-27.932-4.061-55.844-5.611-82.181,7.123
		c-14.915,7.211-29.189,15.749-43.705,23.775c-10.461,5.785-20.322,13.219-31.438,17.065c-7.855,2.72-14.539,5.983-20.395,11.497
		c-7.156,6.737-15.483,10.107-25.424,9.329c-3.309-0.259-6.673,0.179-9.985-0.063c-8.469-0.618-15.696,1.934-21.816,7.818
		c-8.636,8.305-17.665,16.23-25.91,24.904c-9.468,9.959-14.638,22.149-15.471,35.95c-0.721,11.946-1.43,23.905-1.621,35.866
		c-0.112,7.039-1.784,13.025-7.01,17.965c-11.345,10.724-18.035,24.613-25.502,37.968c-5.959,10.656-9.653,22.016-9.545,34.264
		c0.17,19.292,0.586,38.589,1.268,57.869c0.399,11.276,1.818,22.515,2.243,33.791c0.71,18.861,3.051,37.135,14.23,53.22
		c3.015,4.338,5.291,9.247,7.488,14.082c6.734,14.816,16.534,27.295,28.624,38.023c7.461,6.621,14.988,13.188,22.774,19.419
		c18.196,14.558,37.235,28.136,54.719,43.493c31.576,27.736,68.901,42.901,109.351,49.921
		C2193.791,3712.194,2220.613,3712.563,2247.111,3714.797z M1496.805,412.151c-3.277,5.714-5.417,10.596-8.565,14.704
		c-7.612,9.938-10.792,21.405-11.667,33.451c-0.77,10.602-0.208,21.296-0.358,31.947c-0.082,5.703,2.249,10.265,6.001,14.329
		c16.332,17.688,34.519,33.231,54.458,46.688c3.256,2.196,7.046,4.38,10.819,4.899c20.019,2.75,40.488,3.887,58.07-7.694
		c15.505-10.213,29.805-22.75,37.777-40.207c3.321-7.269,7.751-12.06,14.881-14.981c15.721-6.44,28.5-16.911,39.873-29.314
		c7.646-8.34,15.341-16.641,23.219-24.76c6.47-6.669,13.034-13.276,19.917-19.511c24.712-22.386,47.894-46.217,67.985-72.856
		c4.175-5.537,8.573-10.038,14.895-12.601c13.551-5.494,26.989-11.316,40.745-16.246c21.791-7.81,36.329-21.489,39.65-45.328
		c0.634-4.546,2.097-8.978,3.181-13.477c3.181-2.017,5.808-4.109,8.768-5.49c14.163-6.604,24.618-17.779,36.195-27.794
		c11.818-10.224,11.974-26.377,21.96-37.278c2.893-3.16,3.841-8.463,4.759-12.972c1.056-5.18,1.518-10.572,1.479-15.866
		c-0.098-13.289-0.623-26.576-0.981-40.013c-6.346-6.458-11.833-13.333-18.565-18.624c-14.602-11.476-29.385-23.09-47.739-28.113
		c-25.631-7.014-51.059-8.349-75.673,4.409c-9.441,4.893-19.552,8.597-28.634,14.047c-8.205,4.924-14.968,3.763-22.098-1.342
		c-8.659-6.198-17.376-12.315-26.145-18.357c-2.708-1.866-5.58-4.616-8.523-4.82c-11.845-0.821-24.088-3.266-35.366,2.132
		c-8.132,3.893-16.288,5.023-25.086,4.515c-7.301-0.421-14.648,0.018-21.972-0.067c-28.1-0.326-51.872,10.312-72.333,28.9
		c-9.354,8.497-18.032,17.732-27.263,26.37c-7.74,7.242-15.922,14.01-23.759,21.153c-10.306,9.393-20.736,18.677-30.598,28.524
		c-7.307,7.294-10.531,16.878-11.771,26.991c-0.646,5.269-0.983,10.642-0.75,15.938c0.334,7.569-1.517,14.251-5.086,20.957
		c-10.402,19.538-14.813,41.246-21.349,62.16c-1.74,5.568-1.449,11.852-1.603,17.82c-0.494,19.239,0.1,38.31,4.256,57.339
		c1.761,8.062,2.959,15.433,9.427,21.125C1491.665,404.976,1493.405,407.902,1496.805,412.151z M3236.773,1951.925
		c-4.665,0-9.337,0.151-13.997-0.026c-19.786-0.755-35.994,5.708-49.331,21.072c-31.997,36.861-33.014,38.106-32.608,85.847
		c0.24,28.248,16.296,46.782,38.073,61.774c12.532,2.543,20.631,11.731,29.06,20.064c7.049,6.971,15.163,9.864,24.76,11.387
		c24.024,3.811,47.888,1.961,71.697-0.954c13.439-1.646,25.739-6.625,34.791-17.607c5.922-7.185,12.275-14.019,18.054-21.313
		c2.43-3.066,4.703-6.709,5.622-10.441c4.363-17.696,6.265-35.838,0.068-53.232c-4.343-12.196-6.669-24.161-6.333-37.017
		c0.404-15.532-6.468-27.833-17.26-38.942c-10.209-10.51-21.863-14.394-35.983-13.317c-5.963,0.455-11.997,0.201-17.989-0.011
		c-3.285-0.116-7.217,0.204-9.715-1.424C3263.485,1949.827,3249.952,1952.354,3236.773,1951.925z"/>
	<path fill-rule="evenodd" d="M1005.059,916.036c4.983-4.58,8.698-7.468,11.775-10.923c8.064-9.06,18.043-13.159,30.085-13.096
		c9.992,0.052,19.986-0.461,29.979-0.568c20.626-0.223,41.189-0.84,61.821-2.185c37.865-2.467,75.901-2.693,113.752,1.614
		c6.127,0.697,11.732,0.134,17.573-1.999c9.989-3.648,20.315-6.363,30.408-9.74c14.664-4.906,29.6-7.665,45.132-7.13
		c8.632,0.297,16.949,0.136,24.966-4.931c7.923-5.01,17.412-6.316,26.924-6.238c12.664,0.104,25.34-0.303,37.991,0.098
		c15.308,0.484,30.273,0.379,44.844-5.883c5.859-2.518,12.966-2.5,19.548-2.88c7.924-0.457,15.895-0.107,23.063-0.107
		c7.122-7.807,13.313-14.699,19.625-21.479c6.209-6.67,13.667-10.107,23.073-9.806c12.652,0.404,25.382-0.626,37.973,0.343
		c9.845,0.758,19.571,3.427,29.262,5.632c4.425,1.008,8.641,2.943,14.049,4.843c0.479-5.675,0.749-10.166,1.255-14.629
		c1.422-12.54,1.893-25.314,4.778-37.515c2.023-8.56,3.264-16.894,3.218-25.577c-0.107-20.182,1.68-39.869,13.202-57.49
		c2.007-3.07,2.256-7.487,2.667-11.352c0.492-4.621-0.03-9.349,0.441-13.974c1.458-14.293,5.341-27.628,17.411-36.845
		c11.92-9.103,17.273-21.536,19.296-35.88c1.363-9.663,6.274-17.227,13.305-23.926c8.203-7.815,16.682-14.935,26.228-21.28
		c16.528-10.985,31.823-23.826,47.053-35.445c-0.408-15.455-0.639-29.382-1.187-43.298c-0.448-11.365,3.224-20.466,12.014-28.136
		c8.971-7.826,16.159-17.943,29.26-19.525c1.232-0.148,2.694-0.891,3.483-1.831c10.046-11.983,23.651-13.909,37.717-13.031
		c9.884-8.886,19.322-17.25,28.612-25.774c4.667-4.283,9.91-5.847,16.278-6.105c19.587-0.797,38.622,0.352,56.408,12.515
		c6.767-6.726,13.549-12.971,19.748-19.75c8.207-8.973,17.763-12.778,30.143-12.037c18.712,1.12,37.192,1.936,53.981,11.864
		c5.084,3.007,10.997,4.726,16.676,6.588c12.327,4.042,22.196,11.329,31.464,20.398c13.139,12.857,24.501,26.336,26.888,45.481
		c17.553,5.38,34.869,9.821,51.502,16.079c11.724,4.412,22.864,10.722,33.627,17.24c9.135,5.532,17.815,11.619,28.365,14.295
		c13.336,3.381,24.164,10.763,33.365,20.911c7.597,8.379,16.54,14.571,26.72,20.151c25.58,14.026,45.622,34.064,57.702,61.448
		c5.088,11.532,11.809,22.357,17.976,33.398c4.869,8.716,10.166,17.194,15.026,25.915c5.482,9.836,9.974,20.155,21.704,24.889
		c4.007,1.617,7.011,6.05,10.1,9.529c5.317,5.99,10.543,11.688,18.875,13.838c3.656,0.943,7.303,3.499,10.014,6.249
		c11.122,11.283,21.047,23.729,33.178,34.045c0.994,0.846,2.262,1.942,2.447,3.079c2.335,14.318,12.67,26.395,11.182,41.895
		c-0.746,7.771,0.217,15.708,0.439,24.908c5.205,0,9.013-0.122,12.81,0.02c22.583,0.843,45.396,0.092,67.662,3.219
		c14.51,2.038,30.455,2.297,43.038,13.034c3.033,2.586,8.772,2.703,13.276,2.737c15.989,0.122,31.99-0.056,47.974-0.563
		c10.907-0.348,21.162,1.619,30.99,6.276c9.101,4.311,18.578,6.675,28.761,7.499c9.876,0.798,19.562,3.772,29.389,5.463
		c8.949,1.539,15.973,5.981,22.209,12.446c14.317,14.841,10.65,12.798,33.225,12.972c2.65,0.021,5.302-0.289,8.766-0.494
		c7.761-9.896,19.407-11.574,31.412-13.624c21.475-3.668,42.509-2.163,63.264,3.384c5.503,1.471,10.646,5.334,15.216,9.017
		c7.592,6.119,15.71,9.058,25.595,9.36c13.252,0.407,26.729,1.149,39.604,4.017c14.176,3.158,28.134,8.056,41.519,13.762
		c10.733,4.575,21.007,8.055,32.707,5.273c2.54-0.604,5.322-0.111,7.967-0.383c14.616-1.502,27.158,2.339,38.794,11.864
		c15.968,13.072,33.013,24.809,51.665,33.951c1.788,0.875,3.649,1.801,5.11,3.11c18.375,16.467,41.508,23.68,63.905,31.801
		c13.558,4.917,25.708,11.394,35.371,21.665c16.093,17.103,37.113,23.687,58.857,26.665c18.938,2.593,36.625,7.355,52.434,17.632
		c13.438,8.735,27.466,12.715,43.35,11.065c18.664-1.939,33.588,5.239,46.157,18.856c14.918,16.163,30.196,31.945,41.192,51.271
		c6.007,10.558,14.669,17.001,27.612,16.15c12.195-0.803,21.824,4.2,29.818,13.294c11.413,12.984,23.164,25.673,35.741,39.563
		c7.433,0,16.044,0,25.452,0c15.928,16.059,32.1,31.754,46.523,49.205c5.491,6.645,11.601,12.795,17.621,18.983
		c13.938,14.324,28.555,28.031,41.841,42.929c13.318,14.933,25.228,31.055,31.162,50.732c1.334,4.423,3.623,8.56,5.285,12.399
		c1.499,1.121,2.448,2.189,3.637,2.665c25.72,10.291,43.268,30.428,61.026,50.368c8.359,9.385,12.963,20.036,12.434,32.736
		c-0.11,2.661,0.275,5.367-0.048,7.992c-1.557,12.608,1.843,24.006,9.443,33.79c11.3,14.545,14.659,31.029,13.94,48.855
		c-0.696,17.271,1.124,34.565-2.134,51.836c-2.733,14.488-5.84,28.643-14.198,41.518c3.515,9.669,9.291,17.744,14.508,26.206
		c7.673,12.445,14.939,25.17,21.735,38.114c4.964,9.454,8.187,19.571,9.027,30.459c0.509,6.587,2.128,13.154,3.862,19.564
		c2.474,9.138,6.986,17.12,14.402,23.407c5.582,4.732,11.06,9.683,15.953,15.107c10.272,11.387,20.541,21.654,36.924,24.905
		c7.824,1.554,15.166,8.132,21.559,13.76c13.042,11.48,24.243,24.685,32.902,39.933c2.615,4.605,5.921,8.867,9.275,12.989
		c7.408,9.1,11.691,19.492,12.169,31.095c0.793,19.298,2.037,38.672,1.123,57.92c-0.953,20.076-8.105,38.998-15.317,57.665
		c-2.64,6.831-6.185,13.375-8.206,20.371c-6.599,22.845-22.168,39.191-39.008,54.525c-4.3,3.916-9.897,6.851-15.394,8.928
		c-20.527,7.757-41.595,14.171-61.819,22.618c-19.5,8.145-39.351,12.101-60.331,11.122c-2.646-0.124-5.302-0.018-8.399-0.018
		c-4.839,5.44-9.65,10.808-14.412,16.219c-8.13,9.241-18.16,15.883-29.882,19.072c-5.521,1.503-9.559,3.91-13.24,7.932
		c-4.045,4.421-8.342,8.631-12.737,12.707c-7.077,6.563-15.308,10.524-25.205,10.316c-14.54-0.305-28.896,0.927-43.085-5.661
		c-9-4.178-19.662-2.532-27.282,6.195c-1.748,2.002-3.73,3.811-5.694,5.61c-27.128,24.853-50.209,30.249-86.243,20.684
		c-7.668-2.035-15.712-4.323-23.473-3.987c-16.843,0.731-29.249-7.795-41.176-17.469c-6.694-5.431-12.71-11.819-18.426-18.309
		c-19.803-22.483-39.741-44.87-58.815-67.965c-9.883-11.965-15.302-26.692-16.61-42.11c-1.24-14.611-7.113-24.914-20.106-31.937
		c-5.718-3.089-10.576-8.05-15.24-12.741c-7.511-7.555-14.065-16.1-21.859-23.324c-19.508-18.084-26.232-41.281-26.882-66.599
		c-0.527-20.582,0.471-41.202,0.817-63.422c-2.604-0.421-6.863-1.772-11.089-1.674c-16.614,0.383-33.218,1.223-49.346,1.874
		c-7.03,7.908-13.694,15.233-20.164,22.726c-7.863,9.105-18.058,13.906-29.706,14.591c-15.945,0.938-32.104,2.294-47.906,0.756
		c-28.26-2.751-50.021-16.875-63.459-42.541c-2.471-4.72-4.172-9.931-7.161-14.274c-10.642-15.466-9.431-32.87-8.786-50.189
		c0.121-3.257,0.525-7.042,2.249-9.609c8.504-12.669,14.317-27.038,25.081-38.322c6.396-6.704,13.311-10.589,22.727-10.289
		c5.159,0.165,10.354-0.744,16.373-1.238c0.223-4.111,0.731-7.294,0.509-10.425c-1.706-24-1.3-47.95,2.159-71.762
		c0.947-6.52,2.869-13.037,5.336-19.155c2.203-5.465,5.776-10.378,9.18-16.289c-2.2-3.768-4.426-7.579-7.074-12.112
		c-8.278,2.481-16.401,3.675-23.313,7.225c-18.46,9.48-37.497,7.078-56.603,4.232c-7.867-1.171-15.479-3.968-23.308-5.513
		c-8.479-1.674-17.054-2.246-26.247,0.883c-0.444,2.633-1.17,5.117-1.238,7.619c-0.549,19.967-0.8,39.944-1.55,59.903
		c-0.205,5.447-0.434,10.501,2.791,15.29c17.353,25.775,15.219,54.421,11.552,83.061c-1.867,14.585-6.396,28.541-13.3,41.682
		c-5.011,9.538-7.352,19.25-6.064,30.637c1.324,11.709-0.511,23.875-1.777,35.754c-1.597,14.979-8.08,27.669-18.128,39.188
		c-10.482,12.016-19.59,25.259-28.931,38.231c-3.419,4.747-5.78,10.255-9.012,16.118c5.407,6.108,9.938,11.829,15.096,16.915
		c7.91,7.8,12.421,16.749,13.776,27.977c1.507,12.493,5.442,24.706,6.775,37.205c1.264,11.854,0.5,23.923,0.686,35.896
		c0.072,4.61-0.494,9.42,0.604,13.794c6.641,26.419,4.602,52.701-0.154,79.079c-2.003,11.109-3.237,22.356-4.854,33.536
		c-1.239,8.567-2.455,17.139-3.811,25.688c-3.094,19.509-10.514,36.991-23.768,51.931c-6.994,7.882-13.159,15.964-15.572,27.079
		c-3.445,15.863-12.676,29.045-24.66,39.271c4.851,21.254,6.587,41.42-1.242,62.281c2.456,3.99,5.382,8.379,7.921,12.98
		c2.229,4.043,5.042,8.137,5.849,12.53c6.49,35.313,22.819,66.698,39.546,97.725c11.354,21.063,24.129,41.506,37.94,61.042
		c8.982,12.706,13.766,25.474,12.272,40.81c-0.387,3.963,0.146,8.005-0.088,11.991c-1.223,20.851,7.312,39.087,15.872,57.121
		c2.43,5.123,7.598,9.097,11.952,13.119c6.057,5.593,10.71,11.938,12.166,20.123c1.317,7.411,4.919,13.597,8.716,19.943
		c11.961,19.987,24.021,39.948,35.011,60.473c11.421,21.332,26.313,39.999,41.383,58.679c8.772,10.877,16.753,22.394,25.103,33.614
		c3.563,4.79,6.746,9.946,10.814,14.265c11.137,11.821,16.561,25.872,15.65,41.814c-0.653,11.455,2.218,20.671,10.575,28.608
		c8.005,7.602,11.635,17.654,13.994,28.233c1.158,5.191,1.443,11.076,4.183,15.315c6.613,10.229,6.955,21.233,6.596,32.626
		c-0.608,19.27,0.684,38.512-2.245,57.819c-2.806,18.498-10.031,34.221-21.915,48.354c-5.504,6.544-10.064,13.88-14.609,20.237
		c1.039,2.512,1.204,4.08,2.074,4.837c13.191,11.496,16.441,26.745,16.695,43.232c0.234,15.259-1.433,30.7,4.324,46.699
		c4.931,1.728,10.412,4.016,16.096,5.573c26.951,7.387,53.776,15.236,81.865,17.591c10.333,0.866,19.49,1.241,27.531-7.202
		c6.169-6.479,14.785-8.479,23.879-8.285c16.582,0.353,33.379-1.715,49.124,5.928c7.771,3.773,15.966,2.407,23.322-0.781
		c15.497-6.716,31.66-5.607,46.9-2.091c11.185,2.58,20.665,2.327,30.825-1.905c18.563-7.733,38.096-6.387,57.163-3.78
		c18.147,2.483,30.719,14.747,41.272,29.133c3.471,4.731,7.568,9.084,11.816,13.153c14.397,13.783,29.294,27.063,43.301,41.227
		c3.597,3.637,7.467,5.48,11.751,6.783c21.015,6.396,34.964,19.913,45.062,39.416c7.6,14.678,17.856,28.128,28.041,41.263
		c6.063,7.819,9.324,16.313,10.099,25.542c2.179,25.959,2.392,51.81-5.556,77.198c-3.668,11.723-8.782,22.408-17.22,31.129
		c-12.96,13.396-26.18,26.581-39.928,39.158c-4.73,4.328-11.177,7.013-17.193,9.639c-5.456,2.382-11.28,4.38-17.138,5.303
		c-24.398,3.842-45.278,15.021-64.636,29.721c-40.357,30.646-86.441,43.837-136.517,42.699c-19.235-0.437-38.35-2.453-57.603,0.157
		c-7.202,0.977-14.648,0.34-21.975,0.146c-12.415-0.329-23.663,3.124-34.028,9.808c-8.398,5.414-17.273,10.2-25.164,16.27
		c-25.931,19.943-55.201,20.646-85.654,16.149c-12.011-1.773-23.5-4.445-32.611-14.594c-9.113,3.483-17.843,6.538-26.337,10.145
		c-9.188,3.902-17.952,8.87-27.276,12.37c-11.157,4.188-22.642,7.573-34.121,10.816c-9.595,2.711-19.551,4.196-29.065,7.132
		c-35.527,10.962-72.024,12.624-108.771,11.749c-8.584-0.204-17.131-1.903-25.94-2.943c-3.25,2.494-6.83,4.511-9.459,7.396
		c-7.883,8.649-17.785,11.067-28.937,10.653c-9.981-0.369-20.069,0.348-29.94-0.835c-19.305-2.315-37.243-8.233-54.235-18.622
		c-22.96-14.035-43.773-30.189-62.123-49.81c-5.255-5.619-9.246-11.403-9.674-19.07c-0.703-12.611-2.612-25.419-1.192-37.821
		c1.917-16.741-0.272-33.165-1.433-49.568c-1.222-17.259-10.142-31.545-24.667-41.632c-13.669-9.492-27.59-18.538-39.028-30.95
		c-5.556-6.028-9.7-12.387-12.417-20.124c-8.919-25.395-12.715-51.638-14.067-78.365c-0.363-7.199,1.417-14.649-2.313-22.141
		c-22.804-4.257-40.723-17.74-58.011-32.423c-9.12-7.744-18.797-14.847-27.73-22.791c-8.974-7.98-17.487-16.551-17.927-29.593
		c-11.306-3.586-21.903-3.699-32.486-3.762c-7.021-0.041-12.691-2.444-17.786-7.512c-8.098-8.056-15.572-16.287-19.695-27.261
		c-3.291-8.76-8.618-16.187-15.2-23.129c-12.657-13.348-20.632-29.821-22.632-47.939c-2.565-23.249-10.45-43.853-24.277-62.443
		c-5.563-7.481-10.727-15.291-16.663-22.46c-16.401-19.806-27.403-42.458-35.859-66.489c-10.167-28.894-20.094-57.872-30.294-86.753
		c-5.553-15.721-11.672-31.188-21.563-44.873c-8.263-11.433-18.033-21.296-29.045-30.089c-10.408-8.311-20.616-16.887-30.634-25.666
		c-14.877-13.037-25.282-29.1-31.021-48.069c-4.24-14.018-8.235-28.107-12.459-42.128c-2.865-9.51-5.935-18.956-8.962-28.586
		c-45.346-19.243-80.893-47.531-95.375-97.414c-9.735-1.203-19.5-2.79-29.329-3.429c-3.716-0.241-7.913,1.04-11.314,2.765
		c-20.14,10.211-41.802,12.33-63.899,13.812c-24.082,1.616-46.282-3.618-67.299-14.704c-12.345-6.511-25.14-8.362-38.717-5.768
		c-22.505,4.301-45.016,4.038-67.552,0.214c-1.233-0.21-2.594,0.327-4.346,0.583c-0.627,0.702-1.933,1.534-2.302,2.671
		c-9.868,30.349-31.349,52.225-53.93,73.08c-9.564,8.834-17.351,18.744-21.489,30.803c-11.112,32.387-32.684,57.637-54.548,82.841
		c-4.746,5.471-9.054,11.422-12.853,17.591c-7.08,11.494-11.763,23.663-10.642,37.744c0.404,5.065-1.457,10.501-3.087,15.508
		c-6.437,19.763-15.737,38.059-27.985,54.953c-17.197,23.721-34.404,47.459-50.683,71.808c-8.85,13.236-15.818,27.731-23.578,41.69
		c-5.492,9.88-10.871,19.822-16.341,29.715c-0.964,1.742-2.771,3.26-3.096,5.076c-3.583,20.003-20.73,28.25-34.194,39.646
		c-1.99,1.685-4.759,2.41-6.981,3.866c-11.599,7.602-23.242,14.675-29.172,28.675c-3.269,7.718-10.143,13.912-15.413,20.777
		c-3.574,4.655-7.183,9.283-11.352,14.668c8.354,5.156,15.88,9.189,22.702,14.184c6.942,5.082,13.193,11.111,20.758,17.596
		c6.247-6.139,12.545-11.925,18.377-18.148c8.779-9.37,19.607-13.212,32.176-13.343c16.008-0.167,32.055-0.923,46.867,6.997
		c1.018,0.545,2.582,0.071,4.733,0.071c5.862-3.8,8.328-10.999,12.61-16.771c7.52-10.133,15.191-20.155,22.996-30.07
		c3.978-5.056,9.51-7.086,15.913-6.669c18.119,1.181,35.78-2.386,53.6-4.769c29.223-3.906,33.741-1.978,54.365,19.783
		c3.204,3.38,6.326,6.876,9.139,10.582c17.664,23.275,14.937,16.682,14.989,41.388c0.016,7.456,0.46,14.466,5.423,20.725
		c1.927,2.429,3.192,6.144,3.15,9.249c-0.258,19.214,2.27,38.462-3.622,57.556c-3.458,11.208-8.272,21.028-16.395,29.196
		c-10.252,10.313-19.351,22.454-35.437,24.327c-18.121,12.151-38.518,7.002-58.14,7.523c-4.624,0.123-9.292-0.665-13.914-1.24
		c-12.937-1.61-24.992-1.548-34.232,10.354c-2.36,3.04-8.185,4.387-12.549,4.705c-20.732,1.513-41.214-0.532-61.324-5.953
		c-5.891-1.589-11.152-4.08-15.293-8.831c-8.187-9.393-16.572-18.609-25.449-28.541c-4.247,4.02-9.174,8.43-13.813,13.123
		c-12.316,12.462-26.058,22.622-42.807,28.502c-3.541,1.244-6.814,3.919-9.574,6.591c-8.619,8.341-17.44,16.562-25.231,25.645
		c-8.75,10.201-19.788,15.349-32.469,17.985c-5.804,1.208-11.605,2.434-17.851,3.744c-6.253,20.65-11.671,41.236-18.739,61.242
		c-10.196,28.858-21.268,57.424-32.653,85.839c-3.685,9.196-9.678,17.448-14.322,26.287c-2.125,4.043-4.625,8.353-5.042,12.726
		c-0.753,7.887-4.69,13.711-9.483,19.343c-2.159,2.536-4.523,4.906-6.567,7.528c-34.532,44.29-82.78,60.418-136.02,66.293
		c-10.575,1.167-21.162,2.227-31.746,3.311c-27.925,2.859-55.826,3.952-83.645-1.158c-23.589-4.333-47.339-7.064-71.3-8.594
		c-14.58-0.931-29.149-3.241-43.514-6.021c-16.423-3.179-32.804-5.745-49.557-4.533c-8.486,0.615-15.658-1.67-21.822-7.697
		c-4.279-4.186-9.291-7.62-13.571-11.805c-9.027-8.824-20.081-12.724-32.272-14.256c-9.231-1.16-18.415-2.894-27.678-3.554
		c-14.603-1.041-29.017-2.022-42.022,8.062c-4.767,3.696-12.446,4.63-18.898,4.99c-30.14,1.686-59.777-2.079-89.057-9.311
		c-13.818-3.413-26.478-9.217-37.664-17.781c-14.268-10.925-28.612-21.886-41.755-34.089c-8.756-8.131-18.302-12.977-29.721-14.917
		c-11.82-2.008-23.609-4.271-35.491-5.815c-15.879-2.065-29.111-8.974-40.234-20.271c-0.468-0.476-1.022-0.882-1.415-1.411
		c-10.896-14.682-26.298-22.071-43.436-26.27c-12.834-3.145-23.038-10.034-31.629-19.785c-3.961-4.495-7.732-9.289-12.305-13.088
		c-9.947-8.261-13.912-19.768-15.791-31.446c-1.778-11.045-1.08-22.619-0.295-33.878c0.293-4.198,3.058-9.037,6.167-12.084
		c12.602-12.355,16.369-26.827,11.928-43.896c-18.082-22.158-25.929-47.98-26.914-76.864c-1.035-30.331,9.5-56.044,27.5-79.329
		c7.727-9.996,16.323-19.327,24.662-28.839c6.539-7.458,14.884-10.939,24.836-10.6c17.305,0.593,34.637,0.744,51.907,1.854
		c8.18,0.526,15.807,0.507,23.258-3.463c4.077-2.173,8.839-3.022,13.052-4.982c34.26-15.938,69.855-14.264,105.868-8.515
		c6.279,1.002,11.388,3.518,15.667,7.936c8.341,8.609,16.633,17.267,24.836,26.007c4.529,4.825,8.836,9.86,13.049,14.581
		c9.294,1.082,17.861,2.214,26.459,3.018c3.94,0.368,8.225,1.035,11.869-0.053c18.774-5.605,37.978-6.241,57.317-6.02
		c1.976,0.022,3.958-0.421,7.055-0.777c3.696-4.511,7.857-9.587,12.781-15.594c-10.614-15.267-14.219-32.21-13.707-50.656
		c0.485-17.445,2.483-34.331,9.967-50.408c-4.423-3.19-8.696-5.334-11.724-8.622c-11.85-12.874-26.355-21.793-40.877-31.324
		c-15.373-10.091-28.304-24.122-41.397-37.327c-3.806-3.839-5.865-10.638-6.348-16.282c-0.962-11.245-1.382-22.77,0.019-33.923
		c1.584-12.609,7.297-24.259,14.856-34.482c7.099-9.602,15.322-18.374,23.437-27.97c2.082-37.859,21.838-66.879,50.219-90.982
		c9.625-8.176,21.349-14.235,29.708-23.444c7.893-8.694,12-20.698,18.87-30.474c18.369-26.142,35.267-53.42,57.668-76.542
		c8.222-8.488,12.408-18.742,12.866-30.582c0.335-8.649,1.473-17.302,1.279-25.932c-0.635-28.304,10.207-51.963,29.104-72.146
		c11.37-12.144,23.119-24.187,37.761-32.467c8.402-4.751,12.199-11.388,13.616-20.589c1.82-11.817,4.428-23.52,6.916-35.227
		c3.388-15.951,10.402-30.012,21.662-42.017c16.138-17.206,35.23-30.686,55.414-42.314c10.794-6.219,17.084-14.402,19.968-25.761
		c2.121-8.354,4.496-16.865,4.888-25.391c0.823-17.921,0.423-35.897,0.507-53.852c0.01-1.997,0.082-4.021-0.176-5.992
		c-3.757-28.718,7.785-51.997,25.89-72.934c4.777-5.526,9.696-10.93,14.953-16.843c-2.521-20.772,3.97-39.238,16.631-56.687
		c-9.62-16.458-18.945-33.236-25.398-51.438c-1.18-3.331-4.969-5.998-8.03-8.352c-9.547-7.345-17.983-15.556-25.018-25.492
		c-4.53-6.398-10.622-11.813-16.537-17.078c-6.966-6.199-10.807-13.356-9.6-22.793c1.603-12.532-2.52-23.284-9.082-33.808
		c-4.897-7.855-8.747-16.494-12.087-25.158c-4.522-11.732-7.166-24.004-16.616-33.616c-5.091-5.179-5.514-13.313-5.683-20.796
		c-0.226-9.937-0.343-19.584-8.241-27.794c-3.131-3.254-3.561-9.888-3.754-15.038c-0.574-15.311-0.945-30.668-0.371-45.97
		c0.404-10.765-2.074-19.562-10.664-26.46c-10.047-8.066-13.544-18.922-14.432-31.596c-1.865-26.639-2.747-53.19,0.588-79.767
		c0.655-5.23,0.732-10.533,1.1-16.183c-3.962-3.739-7.766-7.328-11.058-10.434c-2.233,0-3.645-0.344-4.805,0.052
		c-13.195,4.497-25.905,10.684-40.371,10.52c-2.445-0.027-5.508,1.081-7.27,2.742c-12.203,11.501-27.738,12.377-42.963,13.198
		c-13.944,0.751-27.973-0.14-41.965-0.209c-13.947-0.068-27.895-0.015-40.134-0.015c-8.374,6.304-14.673,12.528-22.201,16.299
		c-7.586,3.801-16.392,5.167-25.326,7.795c-1.805,13.935-3.335,27.818-10.983,39.99c-1.245,1.982-0.807,5.154-0.779,7.772
		c0.041,3.989,0.332,7.979,0.64,11.96c1.057,13.669-0.635,26.646-9.965,37.743c3.16,13.457,11.133,24.338,16.573,36.341
		c3.277,7.23,7.157,14.408,8.969,22.037c4.457,18.775,4.727,36.949-12.348,50.801c-3.591,2.913-6.626,6.565-9.667,10.093
		c-5.465,6.339-12.127,10.068-20.515,11.226c-4.494,0.619-8.819,2.46-13.019,3.69c-3.908,8.308-1.374,16.487-2.587,24.215
		c-1.094,6.965-3.364,13.745-5.245,21.116c15.413,12.952,30.364,27.026,42.95,43.522c10.076,13.21,15.661,27.287,14.634,44.363
		c-1.478,24.579-1.29,49.255-2.518,73.854c-0.563,11.26-2.646,22.459-4.33,33.643c-2.508,16.666-11.504,29.527-24.193,40.108
		c-1.022,0.852-1.954,2.247-3.098,2.455c-21.433,3.89-30.631,24.821-48.92,32.69c1.156,16.188,2.139,30.689,3.29,45.179
		c0.153,1.931,0.706,4.136,1.839,5.634c7.857,10.383,7.537,22.399,7.305,34.45c-0.077,3.997-0.075,8.002,0.085,11.996
		c0.359,8.956,2.781,17.007,9.971,23.103c5.737,4.863,9.082,10.74,10.442,18.59c1.324,7.647,5.233,14.872,8.197,22.205
		c5.518,13.651,7.857,28.088,10.806,42.388c1.756,8.515,4.369,16.484,10.619,23.248c3.897,4.217,5.996,10.094,9.278,15.891
		c3.465,0.81,7.398,1.422,11.128,2.649c20.538,6.756,34.241,18.734,36.277,42.223c1.193,13.769,5.294,27.188,4.766,41.369
		c-0.318,8.536-2.358,15.708-7.908,21.878c-5.34,5.938-10.943,11.644-16.503,17.379c-7.263,7.493-16.126,11.725-26.559,12.288
		c-9.309,0.502-18.637,1.026-27.951,0.924c-7.097-0.08-13.019,1.606-17.778,7.118c-5.842,6.764-12.968,11.348-22.13,12.336
		c-6.239,0.672-11.268,3.794-15.486,8.351c-1.356,1.466-2.802,2.854-4.269,4.212c-21.062,19.5-25.269,20.9-53.68,18.57
		c-11.901-0.976-23.814-2.088-35.74-2.379c-8.367-0.204-15.612-2.048-21.889-7.86c-15.104-13.985-30.296-27.881-45.667-41.57
		c-6.354-5.66-9.881-12.349-10.223-20.816c-0.215-5.317-1.029-10.647-0.789-15.937c0.413-9.062-1.522-16.565-8.247-23.521
		c-4.374-4.522-7.011-11.3-8.915-17.528c-6.633-21.702-11.286-43.828-12.46-66.61c-0.372-7.221-1.735-14.391-2.72-22.178
		c-5.565-0.573-10.106-1.449-14.642-1.426c-9.832,0.051-18.539-2.967-25.49-9.705c-5.954-5.771-12.843-9.586-20.558-11.822
		c-11.299-3.274-20.37-9.598-27.879-18.449c-0.86-1.013-1.888-1.88-2.814-2.84c-18.276-18.953-18.251-18.954-18.8-45.465
		c-0.082-3.934-0.513-7.861-0.729-11.039c-6.702-6.947-14.045-8.701-22.421-8.221c-7.309,0.42-14.681-0.256-21.986,0.19
		c-8.514,0.519-15.712-2.019-22.012-7.561c-0.501-0.44-1.065-0.811-1.542-1.272c-13.102-12.688-27.338-22.978-46.25-25.561
		c-4.864-0.665-9.641-4.431-13.741-7.679c-6.773-5.364-12.872-11.572-19.425-17.226c-7.381-6.37-11.439-14.587-13.841-23.786
		c-0.671-2.573-1.139-5.211-1.538-7.843c-3.611-23.784-11.856-44.991-32.064-60c-6.612-4.91-10.04-12.116-12.359-20.053
		c-4.131-14.144-7.295-28.362-7.175-43.202c0.242-29.971-0.999-59.984,3.132-89.826c0.637-4.605,0.793-9.304,0.833-13.961
		c0.166-19.349,0.815-38.604,9.113-55.779c-8.345-14.782-16.666-28.314-23.679-42.493c-3.136-6.34-4.844-13.931-5.127-21.037
		c-0.898-22.593-0.239-45.251-1.299-67.832c-0.91-19.385,5.926-35.063,19.125-48.583c1.84-1.885,3.407-4.035,4.889-5.808
		c-5.754-36.614-4.63-42.316,15.47-78.356c-0.944-4.029-2.615-8.467-2.933-12.999c-1.172-16.712-0.432-32.623,8.848-48.073
		c9.189-15.302,15.818-32.253,22.463-48.922c3.13-7.852,4.68-16.468,3.379-25.432c-1.044-7.194-0.755-14.632-0.549-21.946
		c0.457-16.225,4.127-31.607,12.829-45.561c9.509-15.248,18.738-30.677,28.522-45.745c3.715-5.722,6.681-11.192,6.796-18.306
		c0.108-6.621,1.646-13.207,2.361-19.829c4.195-38.883,20.291-72.626,43.484-103.649c8.726-11.67,15.565-24.75,23.251-37.195
		c0.348-0.563,0.772-1.199,0.802-1.818c1.063-21.861,17.121-34.094,31.528-46.504c9.995-8.61,17.398-18.083,22.094-30.108
		c1.693-4.338,3.786-8.52,5.576-12.823c13.154-31.622,35.343-54.386,66.711-68.183c2.44-1.074,4.843-2.232,7.239-3.402
		c0.58-0.283,1.062-0.769,0.774-0.555c8.111-14.786,15.335-29.019,23.535-42.663c13.933-23.186,32.341-41.933,55.489-56.436
		c19.189-12.022,38.063-24.431,58.35-34.63c13.697-6.888,25.263-16.119,33.459-29.969c4.553-7.692,12.211-14.505,20.014-19.084
		c10.599-6.222,19.368-14.12,27.487-22.893c8.826-9.538,19.01-16.771,31.424-20.423c5.456-1.604,9.046-4.86,12.826-8.81
		c31.312-32.734,19.084-25.682,62.298-33.144c6.198-6.909,12.465-13.758,18.59-20.732c8.92-10.157,20.641-14.29,33.588-15.625
		c4.624-0.476,9.325-0.36,13.986-0.275c5.542,0.099,10.651-0.912,14.529-5.186c5.713-6.297,13.14-8.83,21.221-10.065
		c0.655-0.101,1.305-0.28,1.938-0.479C946.168,917.755,974.816,912.491,1005.059,916.036z"/>
	<path fill-rule="evenodd" d="M3552.852,2669.192c-17.218-0.524-31.169-0.933-45.119-1.38c-7.988-0.257-16.029-0.095-23.949-0.988
		c-10.059-1.134-18.979-4.684-26.716-12.06c-13.476-12.849-27.839-24.766-41.799-37.107c-6.483-5.733-12.596-11.935-19.408-17.241
		c-10.521-8.196-13.684-19.124-13.469-31.718c0.125-7.327-0.466-14.701,0.146-21.979c2.454-29.159,5.277-58.288,7.884-87.436
		c0.282-3.16,0.037-6.366,0.037-10.487c-4.601-0.354-8.464-0.789-12.337-0.928c-17.956-0.646-35.913-1.508-53.876-1.706
		c-12.619-0.139-25.258,0.485-37.869,1.12c-6.492,0.327-11.781-1.561-15.864-6.543c-12.221-14.914-25.226-29.295-36.158-45.105
		c-4.578-6.621-6.317-16.266-6.58-24.622c-1.026-32.614-0.954-65.264-1.271-97.901c-0.067-6.991,2.238-12.817,7.584-17.688
		c11.809-10.759,22.401-23.108,35.211-32.451c15.491-11.298,32.268-21.168,53.137-19.201c11.296,1.065,21.729-1.564,32.677-6.063
		c22.527-9.26,51.519,1.705,64.807,22.456c2.354,3.674,3.318,8.713,3.529,13.188c0.466,9.89,3.897,18.046,11.233,24.695
		c19.146,17.355,26.09,39.003,24.909,64.645c-0.629,13.644-2.527,26.332-8.789,38.4c-6.437,12.402-12.854,24.816-19.04,37.345
		c-1.929,3.905-3.075,8.198-4.791,12.892c15.751-1.318,11.747-0.26,20.879-6.852c5.092-3.675,10.11-6.127,16.37-6.257
		c26.123-0.542,52.135,0.365,76.313,11.64c26.583,12.396,48.359,30.458,61.441,57.357c2.529,5.203,4.014,11.425,4.083,17.198
		c0.108,8.986,2.359,16.815,6.783,24.576c7.581,13.301,14.202,27.098,16.958,42.404c0.181,1.004,1.84,1.743,3.283,3.024
		c7.449-7.789,15.18-15.802,22.83-23.889c8.381-8.858,18.111-15.418,29.729-19.531c20.334-7.197,38.582-17.882,53.679-33.635
		c6.017-6.277,12.797-11.812,21.649-13.688c24.056-5.095,47.876-11.794,72.823-11.02c1.331,0.041,2.717-0.218,3.99,0.061
		c31.643,6.915,63.723-2.076,95.454,2.581c3.772,0.553,7.839-1.087,11.789-1.53c11.214-1.256,22.426-2.559,33.663-3.581
		c12.981-1.181,24.742,1.159,35.664,9.443c8.661,6.569,19.325,7.442,30.469,6.321c23.888-2.404,47.752-2.771,71.398,3.47
		c7.553,1.992,15.897,2.254,23.74,1.609c16.471-1.357,29.777,3.13,40.846,15.95c8.236,9.539,18.422,17.367,27.028,26.62
		c8.126,8.737,15.41,18.271,22.909,27.579c8.768,10.883,16.834,22.381,26.152,32.762c19.047,21.217,32.597,44.921,39.479,72.899
		c6.99,28.412,16.305,56.247,23.835,84.538c3.063,11.509,4.413,23.513,5.991,35.366c2.458,18.461,4.644,36.965,6.558,55.491
		c1.161,11.236,2.096,22.542,2.248,33.828c0.335,24.642-0.236,49.299,0.211,73.938c0.381,21.017-3.318,41.209-11.499,60.376
		c-11.272,26.41-19.563,53.675-27.055,81.352c-4.144,15.302-11.128,29.881-17.379,44.552c-5.997,14.074-13.307,27.605-18.949,41.811
		c-7.98,20.092-21.735,35.085-39.756,45.948c-11.209,6.757-19.443,15.206-26.284,26.356c-12.919,21.061-30.039,38.921-47.178,56.616
		c-2.25,2.323-5.122,4.351-8.089,5.619c-11.59,4.96-23.239,9.823-35.07,14.165c-4.913,1.804-10.313,2.929-15.537,3.11
		c-14.355,0.499-27.634,4.085-39.467,12.266c-6.251,4.32-13.087,6.487-20.531,6.933c-19.926,1.191-39.866,2.175-59.784,3.479
		c-9.119,0.597-17.128-1.523-23.801-7.925c-9.313-8.932-20.509-11.441-33.112-10.712c-20.598,1.191-41.228,1.921-61.853,2.522
		c-9.939,0.29-19.692,0.101-29.43-3.806c-5.841-2.344-13.132-1.768-19.716-1.434c-24.451,1.237-47.608-3.374-69.99-13.257
		c-12.15-5.365-24.653-10.128-37.345-14.036c-19.556-6.02-36.146-16.774-51.351-29.964c-21.812-18.92-39.335-41.574-55.515-65.284
		c-8.243-12.079-8.42-26.394-9.731-40.296c-0.686-7.267-0.512-14.726-2.148-21.768c-2.932-12.606-9.783-23.206-19.331-32.039
		c-15.724-14.548-28.356-31.68-41.54-48.459c-11.079-14.099-17.65-29.733-21.616-46.665c-4.715-20.126-7.54-40.573-7.391-61.339
		c0.096-13.326-0.493-26.683,0.223-39.971c0.934-17.356,4.51-34.295,10.966-50.533c7.379-18.556,14.449-37.241,22.201-55.641
		c4.716-11.19,8.037-22.744,8.725-34.689c1.013-17.579,5.711-34.032,12.046-50.247
		C3543.471,2695.426,3547.563,2683.631,3552.852,2669.192z"/>
	<path fill-rule="evenodd" d="M2247.111,3714.797c-26.499-2.234-53.32-2.603-79.42-7.132c-40.449-7.02-77.774-22.185-109.351-49.921
		c-17.483-15.357-36.523-28.936-54.719-43.493c-7.786-6.23-15.313-12.798-22.774-19.419c-12.089-10.729-21.889-23.207-28.624-38.023
		c-2.198-4.835-4.473-9.744-7.488-14.082c-11.179-16.085-13.52-34.358-14.23-53.22c-0.425-11.276-1.844-22.515-2.243-33.791
		c-0.682-19.28-1.098-38.577-1.268-57.869c-0.108-12.248,3.586-23.607,9.545-34.264c7.468-13.354,14.157-27.244,25.502-37.968
		c5.226-4.939,6.898-10.926,7.01-17.965c0.19-11.961,0.9-23.92,1.621-35.866c0.833-13.801,6.002-25.991,15.471-35.95
		c8.245-8.674,17.274-16.6,25.91-24.904c6.12-5.885,13.348-8.437,21.816-7.818c3.312,0.241,6.676-0.196,9.985,0.063
		c9.94,0.778,18.268-2.592,25.424-9.329c5.856-5.514,12.54-8.777,20.395-11.497c11.116-3.847,20.977-11.28,31.438-17.065
		c14.516-8.026,28.79-16.564,43.705-23.775c26.336-12.734,54.249-11.184,82.181-7.123c10.869,1.579,20.083,7.355,28.457,13.855
		c21.962,17.051,47.29,26.857,73.201,35.623c6.929,2.345,13.725,5.136,20.75,7.129c23.699,6.722,43.615,19.231,60.172,37.498
		c3.903,4.306,9.017,7.919,14.229,10.558c13.245,6.709,24.897,15.364,35.102,26.057c9.65,10.114,19.181,20.346,28.883,30.412
		c8.461,8.78,14.943,18.844,18.636,30.391c8.103,25.329,17.863,50.385,22.996,76.334c5.028,25.427,4.573,51.503-9.4,75.612
		c-7.421,12.802-14.774,25.451-26.363,34.729c-10.581,8.47-15.386,19.139-16.969,32.299c-2.67,22.198-10.81,42.532-23.782,60.744
		c-13.634,19.143-30.866,34.861-49.173,49.348c-7.405,5.859-16.378,9.114-25.943,9.265c-6.496,0.102-11.281,2.925-16.091,6.776
		c-12.471,9.987-25.238,19.604-37.764,29.524c-11.993,9.499-25.574,13.683-40.807,13.491c-18.648-0.233-37.3-0.055-55.951-0.055
		C2247.155,3714.248,2247.134,3714.522,2247.111,3714.797z"/>
	<path fill-rule="evenodd" d="M1496.805,412.151c-3.4-4.249-5.14-7.176-7.573-9.316c-6.468-5.693-7.666-13.064-9.427-21.125
		c-4.157-19.03-4.75-38.101-4.256-57.339c0.153-5.968-0.138-12.251,1.603-17.82c6.535-20.915,10.947-42.622,21.349-62.16
		c3.57-6.706,5.42-13.387,5.086-20.957c-0.233-5.295,0.104-10.668,0.75-15.938c1.24-10.113,4.464-19.697,11.771-26.991
		c9.862-9.847,20.292-19.131,30.598-28.524c7.837-7.143,16.019-13.911,23.759-21.153c9.231-8.638,17.91-17.873,27.263-26.37
		c20.461-18.588,44.233-29.226,72.333-28.9c7.324,0.085,14.671-0.354,21.972,0.067c8.798,0.509,16.955-0.622,25.086-4.515
		c11.278-5.398,23.521-2.953,35.366-2.132c2.944,0.204,5.815,2.954,8.523,4.82c8.769,6.042,17.486,12.159,26.145,18.357
		c7.13,5.105,13.893,6.266,22.098,1.342c9.082-5.45,19.193-9.154,28.634-14.047c24.614-12.757,50.042-11.423,75.673-4.409
		c18.354,5.023,33.137,16.637,47.739,28.113c6.732,5.291,12.219,12.166,18.565,18.624c0.358,13.437,0.884,26.724,0.981,40.013
		c0.039,5.294-0.423,10.687-1.479,15.866c-0.918,4.509-1.866,9.813-4.759,12.972c-9.986,10.901-10.142,27.054-21.96,37.278
		c-11.577,10.015-22.032,21.189-36.195,27.794c-2.959,1.381-5.587,3.473-8.768,5.49c-1.084,4.5-2.547,8.931-3.181,13.477
		c-3.322,23.839-17.86,37.519-39.65,45.328c-13.756,4.93-27.194,10.752-40.745,16.246c-6.322,2.563-10.719,7.064-14.895,12.601
		c-20.091,26.639-43.273,50.47-67.985,72.856c-6.883,6.235-13.447,12.842-19.917,19.511c-7.878,8.119-15.572,16.42-23.219,24.76
		c-11.373,12.404-24.152,22.874-39.873,29.314c-7.13,2.921-11.56,7.713-14.881,14.981c-7.973,17.457-22.272,29.994-37.777,40.207
		c-17.582,11.582-38.051,10.445-58.07,7.694c-3.773-0.519-7.563-2.703-10.819-4.899c-19.939-13.457-38.126-29-54.458-46.688
		c-3.752-4.064-6.083-8.626-6.001-14.329c0.15-10.651-0.411-21.346,0.358-31.947c0.875-12.045,4.055-23.513,11.667-33.451
		C1491.388,422.747,1493.528,417.866,1496.805,412.151z"/>
	<path fill-rule="evenodd" d="M3236.775,1951.921c13.177,0.433,26.71-2.094,38.906,5.863c2.498,1.628,6.43,1.308,9.715,1.424
		c5.992,0.212,12.026,0.466,17.989,0.011c14.12-1.077,25.774,2.807,35.983,13.317c10.792,11.109,17.664,23.41,17.26,38.942
		c-0.336,12.855,1.99,24.82,6.333,37.017c6.196,17.395,4.295,35.536-0.068,53.232c-0.919,3.732-3.192,7.375-5.622,10.441
		c-5.778,7.295-12.132,14.129-18.054,21.313c-9.052,10.982-21.352,15.962-34.791,17.607c-23.81,2.915-47.673,4.765-71.697,0.954
		c-9.597-1.522-17.711-4.416-24.76-11.387c-8.429-8.333-16.527-17.521-29.06-20.064c-21.777-14.992-37.833-33.526-38.073-61.774
		c-0.405-47.741,0.611-48.986,32.608-85.847c13.337-15.364,29.545-21.827,49.331-21.072
		C3227.437,1952.076,3232.108,1951.925,3236.775,1951.921z"/>
</g>
</svg>
