<?xml version="1.0" encoding="utf-8"?>
<!-- Generator: Adobe Illustrator 16.0.2, SVG Export Plug-In . SVG Version: 6.00 Build 0)  -->
<!DOCTYPE svg PUBLIC "-//W3C//DTD SVG 1.1 Tiny//EN" "http://www.w3.org/Graphics/SVG/1.1/DTD/svg11-tiny.dtd">
<svg version="1.1" baseProfile="tiny" id="Layer_1" xmlns="http://www.w3.org/2000/svg" xmlns:xlink="http://www.w3.org/1999/xlink"
	 x="0px" y="0px" width="3438.57px" height="3647.544px" viewBox="0 0 3438.57 3647.544" xml:space="preserve">
<g>
	<path fill-rule="evenodd" fill="#FFFFFF" d="M3441.456,3651.43c-1146.561,0-2293.008,0-3439.344,0c0-1216.552,0-2432.99,0-3649.317
		c1146.562,0,2293.009,0,3439.344,0C3441.456,1218.665,3441.456,2435.104,3441.456,3651.43z M970.99,3156.303
		c-6.637-5.031-12.86-9.331-18.585-14.216c-4.802-4.098-9.052-8.848-13.493-13.361c-8.196-8.327-18.165-13.318-29.483-15.801
		c-4.226-0.927-8.491-1.693-12.69-2.728c-25.085-6.184-50.398-9.167-76.079-4.563c-20.345,3.647-40.71,7.743-57.461,21.021
		c-7.009,5.554-13.145,12.213-19.645,18.405c-17.855,17.01-27.251,38.833-31.438,62.242c-3.01,16.825-2.354,34.44-1.976,51.674
		c0.161,7.335,2.735,15.126,6.094,21.757c4.616,9.114,10.752,17.514,16.726,25.869c6.549,9.159,13.782,17.736,16.98,28.958
		c3.452,12.105,10.694,22.043,19.636,30.795c5.717,5.594,10.921,11.795,17.097,16.811c5.834,4.737,12.15,9.927,19.122,12
		c13.924,4.142,25.067,11.489,34.132,22.511c0.843,1.024,1.718,2.188,2.844,2.784c4.303,2.277,8.54,4.926,13.141,6.314
		c3.71,1.12,7.931,0.998,11.884,0.758c5.986-0.362,10.531,1.145,14.996,5.712c7.008,7.171,15.563,12.845,25.704,14.422
		c11.767,1.832,23.677,3.273,35.566,3.674c15.961,0.536,31.973,0.267,47.94-0.296c24.248-0.854,48.477-2.279,72.715-3.405
		c3.991-0.186,8.047,0.318,11.985-0.186c32.624-4.168,65.335-7.813,97.806-12.964c35.785-5.676,71.333-12.84,107.006-19.229
		c12.263-2.196,23.393-6.65,34.286-12.914c16.453-9.461,29.207-22.939,43-35.42c7.81-7.066,12.385-15.571,14.583-25.465
		c1.794-8.076,3.49-16.295,3.956-24.522c1.295-22.905,1.918-45.848,2.828-68.773c0.297-7.494,1.083-8.223,8.949-8.51
		c1.665-0.061,3.347-0.154,4.997,0.011c10.405,1.044,18.876-2.723,25.945-10.18c1.356-1.43,2.924-2.659,4.662-4.223
		c1.688,1.444,3.275,2.604,4.628,3.99c10.511,10.778,22.805,17.001,38.314,15.578c3.966-0.363,8.004-0.236,11.992-0.018
		c9.615,0.527,18.365-1.002,25.996-7.731c4.354-3.839,7.838-3.122,12.338,0.839c1.997,1.759,3.706,3.848,5.711,5.595
		c7.337,6.39,15.021,12.896,25.204,12.926c14.212,0.04,28.563,2.399,42.674-2.153c3.852-1.243,8.446-0.188,13.137-0.188
		c0.323,2.231,0.685,4.143,0.865,6.071c0.866,9.25,1.398,18.543,2.585,27.752c1.896,14.709,7.074,28.578,15.712,40.375
		c15.912,21.73,33.901,41.693,55.063,58.672c22.059,17.699,44.278,34.896,71.569,44.167c21.445,7.285,43.044,13.645,65.919,13.553
		c19.632-0.08,39.268-0.48,58.889-1.144c25.603-0.866,50.875-4.704,75.839-10.226c9.652-2.133,18.905-6.055,28.359-9.099
		c17.189-5.533,32.339-15.045,47.314-24.729c17.476-11.303,32.278-25.588,43.433-43.237c9.096-14.391,13.876-30.739,19.431-46.664
		c4.25-12.183,8.575-24.43,11.468-36.971c2.97-12.883,8.715-25.188,8.672-38.733c-0.06-18.938,2.435-38.112-2.052-56.706
		c-3.948-16.364-9.694-32.303-14.865-48.358c-1.926-5.98-4.266-11.851-6.776-17.615c-9.226-21.19-24.154-38.767-37.095-57.569
		c-7.088-10.3-15.503-19.686-23.639-29.882c14.88-2.91,29.599-5.788,44.487-8.699c1.164,3.137,2.204,5.58,2.985,8.104
		c3.628,11.705,9.563,21.889,19.096,29.829c2.295,1.912,4.355,4.131,6.374,6.345c5.414,5.944,12.376,8.635,20.044,10.319
		c23.878,5.246,47.575,3.459,71.3-1.092c8.507-1.632,15.388-5.787,21.727-11.459c5.437-4.864,11.242-9.327,16.996-13.827
		c24.101-18.848,45.024-40.376,58.721-68.217c4.254-8.646,9.581-16.771,13.709-25.469c3.96-8.345,9.451-16.982,9.96-25.741
		c1.231-21.179,0.605-42.537-0.526-63.756c-0.905-16.98-5.802-33.347-11.56-49.363c-2.534-7.051-1.748-13.146,3.445-19.287
		c12.236-14.465,23.713-29.57,35.718-44.236c5.009-6.119,10.579-11.779,15.673-17.404c3.496,0.687,6.076,1.402,8.703,1.676
		c25.611,2.662,51.212,2.095,76.533-2.327c8.666-1.513,17.359-4.975,25.078-9.272c8.646-4.816,16.521-11.208,24.179-17.577
		c30.138-25.066,49.161-57.19,59.253-94.841c1.535-5.726,3.116-11.439,4.931-18.096c8.298,4.506,15.965,8.438,23.368,12.815
		c2.446,1.447,4.881,3.688,6.186,6.166c8.048,15.271,19.867,27.358,31.801,39.514c11.479,11.688,25.34,16.619,41.237,16.96
		c7.994,0.172,16.025-0.396,23.987,0.144c9.142,0.619,17.195-2.019,24.443-7.028c26.832-18.546,53.115-37.873,76.632-60.559
		c19.927-19.222,36.52-41.386,52.776-63.684c8.007-10.981,14.446-22.91,16.265-37.033c1.18-9.153,3.818-18.251,6.858-27.008
		c12.372-35.617,22-71.791,24.046-108.806c6.677-5.755,12.833-11.061,19.161-16.513c20.137,24.025,41.636,45.606,72.035,58.02
		c-6.055,6.071-11.477,11.331-16.699,16.782c-12.424,12.966-20.517,27.668-19.113,46.448c0.544,7.291,0.598,14.7-0.021,21.979
		c-1.172,13.797,3.677,25.549,11.452,36.315c4.268,5.91,8.949,11.612,14.048,16.817c9.956,10.16,20.335,19.905,29.221,28.542
		c-6.199,6.949-12.273,14.036-18.647,20.842c-10.45,11.155-16.6,23.911-16.006,39.532c0.24,6.323,0.264,12.674,0,18.994
		c-1.043,24.927,9.098,45.174,25.912,62.676c3.647,3.796,7.416,7.474,12.311,12.393c-15.053,5.623-23.511,17.503-33.945,27.113
		c-12.32,11.345-17.393,25.612-17.554,41.965c-0.079,7.998,0.273,16.009-0.068,23.993c-0.952,22.232,7.214,41.449,21.634,57.312
		c14.891,16.377,29.352,33.825,52.244,42.711c-3.285,0.956-5.104,1.903-6.946,1.954c-11.725,0.329-21.319,5.964-29.313,13.504
		c-16.381,15.451-34.854,29.13-45.164,50.596c-14.146-1.184-27.125,1.831-39.988,7.141c-51.029,21.066-93.21,53.386-126.469,97.429
		c-13.661,18.091-23.102,37.929-26.524,60.549c-1.886,12.463-4.456,24.829-6.886,37.205c-6.974,35.52-13.885,71.04-14.594,107.411
		c-0.136,6.988-0.533,13.971-0.685,20.959c-0.426,19.612-2.179,39.319-0.88,58.819c2.615,39.287,18.475,73.911,41.992,105.007
		c19.356,25.595,42.452,47.647,67.655,67.436c17.677,13.879,36.941,25.209,59.108,29.948c13.264,2.836,27.024,3.27,40.489,5.261
		c29.361,4.342,58.837,6.377,88.52,5.647c20.304-0.498,40.733,0.595,60.898-1.271c39.21-3.627,77.522-11.78,113.377-28.965
		c18.023-8.639,35.618-18.002,51.036-30.977c22.822-19.206,42.016-41.554,58.688-66.245c14.173-20.988,24.484-43.441,27.76-68.706
		c2.343-18.081,4.982-36.187,5.963-54.364c1.325-24.553,2.518-49.247,1.352-73.766c-1.613-33.895-9.061-67.061-17.785-99.812
		c-5.259-19.744-14.059-38.169-25.643-54.924c-18.758-27.133-39.278-52.904-64.697-74.266c-5.021-4.22-10.606-8.198-16.585-10.771
		c-20.404-8.785-41.1-16.893-61.358-25.126c-9.633-37.97-37.464-58.809-70.333-76.293c9.801-0.697,17.029-4.206,23.562-9.858
		c13.694-11.848,25.686-25.038,34.976-40.679c5.775-9.725,8.659-20.077,8.622-31.328c-0.031-9.331,0.076-18.664-0.023-27.995
		c-0.239-22.686-8.532-42.089-24.192-58.378c-5.718-5.949-11.639-11.702-18.076-18.153c5.756-5.771,11.165-10.67,15.967-16.106
		c15.779-17.868,28.093-37.206,25.726-62.639c-0.522-5.616-0.303-11.335-0.027-16.987c0.504-10.344-1.783-20.084-7.706-28.39
		c-10.547-14.792-21.78-29.094-32.733-43.597c-1.14-1.509-2.323-2.985-4.116-5.284c5.92-5.622,11.82-10.563,16.928-16.22
		c10.029-11.108,17.277-23.438,16.357-39.355c-0.576-9.966,0.347-20.019-0.274-29.979c-0.384-6.165-1.469-12.621-3.842-18.274
		c-12.639-30.104-34.007-52.545-62.896-69.475c3.708-3.735,7.211-7.673,11.135-11.133c7.348-6.482,12.781-14.375,17.797-22.66
		c4.936-8.152,7.713-16.741,7.396-26.454c-0.379-11.653,0.223-23.337-0.149-34.99c-0.996-31.198-10.801-58.598-34.935-79.776
		c-15.193-13.334-31.396-22.799-52.949-20.914c-15.214,1.331-30.646,0.552-45.967,0.165c-12.207-0.309-22.885,3.412-32.754,10.201
		c-2.358,1.623-4.805,3.118-7.755,5.021c-1.007-2.761-1.533-4.649-2.359-6.396c-3.807-8.046-1.847-14.027,5.041-19.858
		c12.81-10.845,22.409-24.492,30.938-38.885c4.912-8.29,10.448-16.254,14.798-24.824c5.541-10.924,10.923-22.045,14.979-33.572
		c4.284-12.177,6.693-25.001,10.338-37.419c8.227-28.024,17.745-55.774,21.422-84.868c2.575-20.384,3.644-40.96,5.26-61.46
		c1.697-21.522,3.363-43.049,4.825-64.588c1.844-27.159,4.344-54.314,4.945-81.507c0.632-28.586-0.246-57.229-1.201-85.823
		c-0.899-26.876-2.369-53.749-4.304-80.572c-2.1-29.103-4.536-58.2-7.738-87.199c-2.911-26.365-5.431-52.94-10.963-78.815
		c-13.646-63.821-32.753-126.114-59.637-185.704c-12.165-26.965-26.382-53.001-39.563-79.511
		c-17.491-35.175-34.758-70.462-52.353-105.584c-12.253-24.461-26.649-47.725-43.67-69.084
		c-37.923-47.589-75.857-95.236-121.09-136.35c-19.185-17.439-38.401-34.851-57.891-51.946
		c-14.989-13.147-30.582-25.604-45.63-38.686c-20.606-17.912-41.557-35.316-65.387-48.893
		c-28.391-16.174-58.143-29.38-88.973-40.099c-38.248-13.299-76.296-27.304-115.019-39.066
		c-40.415-12.278-81.868-20.642-123.805-26.219c-15.805-2.101-31.614-5.444-47.462-5.698c-39.892-0.642-79.906-2.161-119.514,4.992
		c-3.409,0.616-6.94,0.564-11.438,0.899c0-13.566,0.241-25.834-0.061-38.089c-0.38-15.434-3.057-30.462-10.702-44.114
		c-4.69-8.375-10.015-16.396-15.249-24.891c0.655-0.852,1.431-1.879,2.227-2.891c9.234-11.743,18.697-23.315,27.637-35.278
		c7.388-9.888,10.824-21.174,10.212-33.688c-0.357-7.314,0.114-14.666-0.096-21.991c-0.955-33.374-9.206-63.488-35.737-86.646
		c-12.214-10.661-25.443-17.986-41.261-20.554c-13.085-2.124-26.258-3.71-39.42-5.54c-0.582-1.596-1.151-2.793-1.459-4.053
		c-4.888-20.012-9.755-40.079-17.879-59.048c-3.475-8.114-7.956-16.26-13.757-22.819c-12.119-13.706-25.773-25.843-40.808-36.562
		c-34.417-24.54-72.767-36.68-114.693-37.846c-14.609-0.406-29.267,0.442-43.888,1.054c-16.931,0.708-33.846,1.797-50.769,2.701
		c-15.176,0.812-28.292,6.41-39.894,16.24c-26.757,22.672-50.725,47.993-72.182,75.671c-6.442,8.31-11.89,17.391-17.844,26.192
		c-2.225,0-4.231,0.159-6.207-0.024c-15.141-1.408-29.854,1.994-44.524,4.61c-6.264,1.117-12.438,4.701-17.796,8.402
		c-5.686,3.928-10.46,9.22-15.45,14.102c-17.308,16.936-25.805,37.683-25.544,61.782c0.152,14.199,1.269,28.387,1.931,42.172
		c-10.777,13.122-22.537,25.897-32.517,39.938c-17.151,24.128-33.466,48.869-49.573,73.714
		c-7.038,10.856-13.606,22.216-18.672,34.08c-3.478,8.146-7.737,10.957-16.344,10.507c-13.132-0.686-24.304,3.832-33.714,13.832
		c-7.629,8.106-14.571,16.351-18.938,26.625c-4.81,11.317-9.646,22.624-14.519,33.914c-0.768,1.778-1.795,3.443-2.846,5.431
		c-6.198,0-12.184,0.113-18.164-0.02c-32.647-0.725-65.161,0.938-97.585,4.852c-31.083,3.752-61.968,8.385-91.855,18.143
		c-22.125,7.224-44.442,13.908-66.322,21.811c-13.681,4.942-27.116,10.934-39.946,17.789
		c-34.066,18.202-66.044,39.835-97.981,61.483c-23.19,15.72-45.416,32.64-64.131,53.691c-19.219,21.62-38.534,43.162-57.324,65.151
		c-14.022,16.409-28.34,32.734-40.651,50.403C612.7,948.319,587.395,987,561.835,1025.497
		c-18.973,28.578-36.579,57.917-48.858,90.161c-4.016,10.545-7.887,21.289-13.326,31.109c-6.592,11.902-14.989,22.789-22.229,34.351
		c-19.783,31.585-40.132,62.852-58.855,95.059c-29.086,50.035-57.261,100.606-85.206,151.291
		c-5.171,9.379-10.592,15.268-21.896,14.517c-7.333-0.487-12.94,3.198-18.314,8.427c-8.966,8.726-16.09,18.459-20.711,30.621
		c-4.662,0-8.989-0.315-13.251,0.075c-6.217,0.569-13.116-0.04-17.893,4.842c-10.457,10.688-20.97,21.396-30.452,32.925
		c-3.268,3.973-4.448,10.32-4.978,15.739c-0.807,8.253,0.167,16.664-0.291,24.971c-1.56,28.278,13.162,46.928,35.29,61.215
		c0.927,14.246,1.598,28.506,2.909,42.708c0.508,5.508,1.603,11.31,4.027,16.184c1.982,3.982,2.002,7.4,1.473,11.363
		c-2.455,18.401-5.007,36.792-7.153,55.229c-1.765,15.17-3.143,30.389-4.433,45.608c-0.891,10.502-1.338,21.043-1.916,30.451
		c-10.191,6.54-19.032,12.41-28.066,17.966c-19.023,11.702-34.528,27.224-47.152,45.342c-15.013,21.545-28.793,43.946-43.375,65.799
		c-20.791,31.156-32.629,66.124-43.058,101.584c-7.181,24.415-9.058,49.662-7.711,75.057c0.508,9.58,1.542,19.171,2.994,28.656
		c2.939,19.193,10.999,36.885,16.719,55.271c4.979,16.002,12.908,29.604,25.601,40.771c8.462,7.445,17.314,13.671,28.594,15.022
		c9.869,1.182,19.865,1.253,29.794,1.972c23.059,1.667,43.088-6.275,61.612-19.156c1.77-1.23,3.725-2.196,6.045-3.549
		c10.05,18.965,25.815,32.029,39.992,46.478c6.333,6.454,14.327,9.442,23.214,10.192c18.551,1.567,37.097,2.363,52.341-0.296
		c8.894,7.646,16.665,13.493,23.396,20.359c6.142,6.267,13.082,10.097,21.554,11.571c1.957,0.342,4.088,0.419,5.805,1.283
		c19.803,9.959,40.883,7.337,61.761,6.265c5.938-0.305,12.087-0.791,17.685-2.602c16.801-5.435,28.264-17.838,35.331-33.062
		c10.699-23.05,16.071-47.701,16.865-73.327c0.513-16.529,2.171-33.024,3.316-49.524c2.578-1.712,5.061-3.39,7.573-5.023
		c44.497-28.924,81.734-64.854,107.622-111.695c13.593-24.596,21.002-50.902,21.325-79.077c0.142-12.329,0.364-24.676-0.125-36.987
		c-0.23-5.812,1.801-9.994,5.23-14.346c12.172-15.454,23.688-31.314,28.608-50.923c0.555-2.209,2.81-4.184,4.654-5.848
		c13.565-12.237,27.55-24.028,40.778-36.616c18.698-17.794,26.862-41.084,30.573-65.725c2.958-19.628,3.616-39.604,5.395-60.603
		c18.234-15.899,37.371-32.587,56.959-49.667c1.005,2.073,1.661,3.195,2.112,4.395c9.469,25.191,18.983,50.367,28.324,75.605
		c2.754,7.443,5.503,14.951,7.382,22.643c3.231,13.221,5.597,26.652,8.712,39.904c1.034,4.4,0.958,8.316-0.563,12.559
		c-4.075,11.368-5.831,23.07-5.457,35.244c0.758,24.602,0.867,49.223,1.446,73.831c0.772,32.79,7.419,64.515,17.163,95.75
		c9.622,30.844,26.31,58.014,42.85,85.33c2.543,4.202,4.581,8.813,6.19,13.464c9.047,26.128,18.814,51.993,32.563,76.033
		c10.558,18.462,22.254,36.275,33.571,54.298c1.973,3.142,3.341,5.741,2.643,9.967c-1.459,8.809-2.169,17.822-2.258,26.763
		c-0.426,42.312-0.688,84.626-0.711,126.94c-0.016,30.603,0.438,61.237-3.48,91.646c-4.111,31.909-7.728,63.966-13.854,95.512
		c-8.423,43.361-18.98,86.309-28.663,129.424c-12.734,56.702-25.599,113.374-38.226,170.1
		c-7.646,34.353-14.967,68.778-22.379,103.183c-0.974,4.522-0.27,10.055-2.667,13.504c-8.565,12.321-7.143,26.011-6.523,39.485
		c0.246,5.368,1.828,11.685,5.097,15.7c7.312,8.979,15.713,16.938,27.259,21.132c10.582,3.843,20.613,9.201,30.737,13.821
		C969.567,3127.677,970.223,3140.864,970.99,3156.303z"/>
	<path fill-rule="evenodd" d="M970.99,3156.303c-0.767-15.438-1.422-28.626-2.095-42.166c-10.124-4.62-20.156-9.979-30.737-13.821
		c-11.546-4.194-19.948-12.153-27.259-21.132c-3.269-4.016-4.851-10.332-5.097-15.7c-0.619-13.475-2.042-27.164,6.523-39.485
		c2.397-3.449,1.693-8.981,2.667-13.504c7.412-34.404,14.732-68.83,22.379-103.183c12.626-56.726,25.492-113.397,38.226-170.1
		c9.683-43.115,20.24-86.063,28.663-129.424c6.127-31.546,9.744-63.603,13.854-95.512c3.917-30.409,3.464-61.044,3.48-91.646
		c0.022-42.314,0.285-84.629,0.711-126.94c0.089-8.94,0.799-17.954,2.258-26.763c0.699-4.226-0.67-6.825-2.643-9.967
		c-11.317-18.022-23.013-35.836-33.571-54.298c-13.75-24.04-23.517-49.905-32.563-76.033c-1.61-4.651-3.647-9.262-6.19-13.464
		c-16.54-27.316-33.229-54.486-42.85-85.33c-9.744-31.235-16.391-62.96-17.163-95.75c-0.579-24.608-0.688-49.229-1.446-73.831
		c-0.375-12.174,1.382-23.876,5.457-35.244c1.521-4.243,1.597-8.159,0.563-12.559c-3.115-13.252-5.481-26.683-8.712-39.904
		c-1.878-7.691-4.627-15.199-7.382-22.643c-9.34-25.239-18.855-50.415-28.324-75.605c-0.451-1.2-1.107-2.322-2.112-4.395
		c-19.588,17.081-38.726,33.768-56.959,49.667c-1.779,21-2.438,40.975-5.395,60.603c-3.711,24.641-11.875,47.931-30.573,65.725
		c-13.228,12.588-27.213,24.379-40.778,36.616c-1.844,1.664-4.099,3.639-4.654,5.848c-4.92,19.608-16.437,35.469-28.608,50.923
		c-3.429,4.352-5.46,8.534-5.23,14.346c0.489,12.312,0.267,24.658,0.125,36.987c-0.322,28.175-7.731,54.481-21.325,79.077
		c-25.888,46.842-63.125,82.771-107.622,111.695c-2.512,1.634-4.996,3.312-7.573,5.023c-1.145,16.5-2.803,32.995-3.316,49.524
		c-0.794,25.626-6.167,50.277-16.865,73.327c-7.066,15.224-18.53,27.627-35.331,33.062c-5.598,1.811-11.748,2.297-17.685,2.602
		c-20.878,1.072-41.958,3.694-61.761-6.265c-1.716-0.864-3.848-0.941-5.805-1.283c-8.472-1.475-15.412-5.305-21.554-11.571
		c-6.731-6.866-14.501-12.713-23.396-20.359c-15.244,2.659-33.79,1.863-52.341,0.296c-8.888-0.75-16.881-3.738-23.214-10.192
		c-14.177-14.448-29.941-27.513-39.992-46.478c-2.321,1.353-4.275,2.318-6.045,3.549c-18.524,12.881-38.554,20.823-61.612,19.156
		c-9.929-0.719-19.926-0.79-29.794-1.972c-11.28-1.352-20.132-7.577-28.594-15.022c-12.693-11.167-20.622-24.77-25.601-40.771
		c-5.72-18.386-13.78-36.077-16.719-55.271c-1.453-9.485-2.486-19.076-2.994-28.656c-1.347-25.395,0.53-50.642,7.711-75.057
		c10.429-35.46,22.267-70.428,43.058-101.584c14.582-21.853,28.361-44.254,43.375-65.799c12.624-18.118,28.129-33.64,47.152-45.342
		c9.034-5.557,17.875-11.427,28.066-17.966c0.577-9.408,1.025-19.949,1.916-30.451c1.29-15.22,2.668-30.438,4.433-45.608
		c2.146-18.438,4.698-36.829,7.153-55.229c0.529-3.962,0.509-7.381-1.473-11.363c-2.425-4.874-3.52-10.676-4.027-16.184
		c-1.311-14.201-1.982-28.461-2.909-42.708c-22.128-14.288-36.85-32.938-35.29-61.215c0.458-8.307-0.516-16.718,0.291-24.971
		c0.53-5.419,1.71-11.766,4.978-15.739c9.482-11.529,19.995-22.236,30.452-32.925c4.777-4.882,11.675-4.273,17.893-4.842
		c4.263-0.391,8.59-0.075,13.251-0.075c4.621-12.162,11.746-21.895,20.711-30.621c5.374-5.229,10.981-8.915,18.314-8.427
		c11.304,0.75,16.726-5.138,21.896-14.517c27.944-50.684,56.119-101.256,85.206-151.291c18.723-32.207,39.072-63.474,58.855-95.059
		c7.24-11.562,15.638-22.449,22.229-34.351c5.439-9.821,9.31-20.564,13.326-31.109c12.279-32.244,29.885-61.583,48.858-90.161
		c25.56-38.497,50.865-77.178,77.277-115.084c12.311-17.669,26.629-33.994,40.651-50.403c18.79-21.99,38.104-43.532,57.324-65.151
		c18.715-21.052,40.94-37.972,64.131-53.691c31.937-21.648,63.915-43.282,97.981-61.483c12.83-6.855,26.265-12.847,39.946-17.789
		c21.879-7.902,44.197-14.587,66.322-21.811c29.887-9.758,60.772-14.391,91.855-18.143c32.425-3.915,64.938-5.577,97.585-4.852
		c5.979,0.133,11.965,0.02,18.164,0.02c1.051-1.988,2.078-3.653,2.846-5.431c4.873-11.29,9.708-22.597,14.519-33.914
		c4.367-10.275,11.309-18.519,18.938-26.625c9.41-10,20.583-14.517,33.714-13.832c8.606,0.449,12.866-2.361,16.344-10.507
		c5.066-11.864,11.634-23.224,18.672-34.08c16.107-24.846,32.422-49.586,49.573-73.714c9.98-14.041,21.74-26.816,32.517-39.938
		c-0.663-13.786-1.779-27.973-1.931-42.172c-0.261-24.1,8.236-44.846,25.544-61.782c4.99-4.882,9.765-10.174,15.45-14.102
		c5.358-3.702,11.532-7.285,17.796-8.402c14.67-2.616,29.384-6.018,44.524-4.61c1.976,0.184,3.982,0.024,6.207,0.024
		c5.954-8.801,11.402-17.882,17.844-26.192c21.457-27.678,45.424-52.999,72.182-75.671c11.602-9.831,24.717-15.429,39.894-16.24
		c16.923-0.904,33.838-1.994,50.769-2.701c14.621-0.611,29.278-1.46,43.888-1.054c41.927,1.166,80.276,13.306,114.693,37.846
		c15.034,10.719,28.688,22.856,40.808,36.562c5.801,6.56,10.282,14.705,13.757,22.819c8.124,18.969,12.991,39.036,17.879,59.048
		c0.308,1.259,0.877,2.457,1.459,4.053c13.162,1.829,26.335,3.416,39.42,5.54c15.817,2.568,29.047,9.894,41.261,20.554
		c26.531,23.158,34.782,53.272,35.737,86.646c0.21,7.325-0.262,14.677,0.096,21.991c0.612,12.514-2.824,23.801-10.212,33.688
		c-8.939,11.963-18.402,23.535-27.637,35.278c-0.796,1.012-1.571,2.039-2.227,2.891c5.234,8.495,10.559,16.516,15.249,24.891
		c7.646,13.652,10.322,28.68,10.702,44.114c0.302,12.254,0.061,24.522,0.061,38.089c4.497-0.335,8.028-0.283,11.438-0.899
		c39.607-7.153,79.622-5.634,119.514-4.992c15.848,0.254,31.657,3.597,47.462,5.698c41.937,5.577,83.39,13.941,123.805,26.219
		c38.723,11.763,76.771,25.767,115.019,39.066c30.83,10.719,60.582,23.925,88.973,40.099c23.83,13.577,44.78,30.981,65.387,48.893
		c15.048,13.082,30.641,25.539,45.63,38.686c19.489,17.095,38.706,34.506,57.891,51.946c45.232,41.114,83.167,88.761,121.09,136.35
		c17.021,21.359,31.417,44.623,43.67,69.084c17.595,35.123,34.861,70.409,52.353,105.584c13.181,26.509,27.397,52.546,39.563,79.511
		c26.884,59.59,45.99,121.883,59.637,185.704c5.532,25.875,8.052,52.451,10.963,78.815c3.202,28.999,5.639,58.096,7.738,87.199
		c1.935,26.823,3.404,53.695,4.304,80.572c0.955,28.594,1.833,57.237,1.201,85.823c-0.602,27.193-3.102,54.349-4.945,81.507
		c-1.462,21.539-3.128,43.065-4.825,64.588c-1.616,20.5-2.685,41.076-5.26,61.46c-3.677,29.094-13.195,56.844-21.422,84.868
		c-3.645,12.418-6.054,25.242-10.338,37.419c-4.057,11.527-9.438,22.648-14.979,33.572c-4.35,8.57-9.886,16.534-14.798,24.824
		c-8.529,14.393-18.129,28.04-30.938,38.885c-6.888,5.831-8.848,11.813-5.041,19.858c0.826,1.746,1.353,3.635,2.359,6.396
		c2.95-1.903,5.396-3.398,7.755-5.021c9.869-6.789,20.547-10.51,32.754-10.201c15.321,0.387,30.753,1.166,45.967-0.165
		c21.553-1.885,37.756,7.58,52.949,20.914c24.134,21.179,33.938,48.578,34.935,79.776c0.372,11.653-0.229,23.337,0.149,34.99
		c0.316,9.713-2.461,18.302-7.396,26.454c-5.016,8.285-10.449,16.178-17.797,22.66c-3.924,3.46-7.427,7.397-11.135,11.133
		c28.889,16.93,50.257,39.37,62.896,69.475c2.373,5.653,3.458,12.109,3.842,18.274c0.621,9.96-0.302,20.013,0.274,29.979
		c0.92,15.917-6.328,28.247-16.357,39.355c-5.107,5.656-11.008,10.598-16.928,16.22c1.793,2.299,2.977,3.775,4.116,5.284
		c10.953,14.503,22.187,28.805,32.733,43.597c5.923,8.306,8.21,18.046,7.706,28.39c-0.275,5.652-0.495,11.371,0.027,16.987
		c2.367,25.433-9.946,44.771-25.726,62.639c-4.802,5.437-10.211,10.335-15.967,16.106c6.438,6.451,12.358,12.204,18.076,18.153
		c15.66,16.289,23.953,35.692,24.192,58.378c0.1,9.331-0.008,18.664,0.023,27.995c0.037,11.251-2.847,21.604-8.622,31.328
		c-9.29,15.641-21.281,28.831-34.976,40.679c-6.532,5.652-13.761,9.161-23.562,9.858c32.869,17.484,60.7,38.323,70.333,76.293
		c20.259,8.233,40.954,16.341,61.358,25.126c5.979,2.573,11.563,6.552,16.585,10.771c25.419,21.361,45.939,47.133,64.697,74.266
		c11.584,16.755,20.384,35.18,25.643,54.924c8.725,32.751,16.172,65.917,17.785,99.812c1.166,24.519-0.026,49.213-1.352,73.766
		c-0.98,18.178-3.62,36.283-5.963,54.364c-3.275,25.265-13.587,47.718-27.76,68.706c-16.673,24.691-35.866,47.039-58.688,66.245
		c-15.418,12.975-33.013,22.338-51.036,30.977c-35.854,17.185-74.167,25.338-113.377,28.965
		c-20.165,1.866-40.595,0.773-60.898,1.271c-29.683,0.729-59.158-1.306-88.52-5.647c-13.465-1.991-27.226-2.425-40.489-5.261
		c-22.167-4.739-41.432-16.069-59.108-29.948c-25.203-19.788-48.299-41.841-67.655-67.436
		c-23.518-31.096-39.377-65.72-41.992-105.007c-1.299-19.5,0.454-39.207,0.88-58.819c0.151-6.988,0.549-13.971,0.685-20.959
		c0.709-36.371,7.62-71.892,14.594-107.411c2.43-12.376,5-24.742,6.886-37.205c3.423-22.62,12.863-42.458,26.524-60.549
		c33.259-44.043,75.439-76.362,126.469-97.429c12.863-5.31,25.842-8.324,39.988-7.141c10.31-21.466,28.783-35.145,45.164-50.596
		c7.994-7.54,17.589-13.175,29.313-13.504c1.843-0.051,3.661-0.998,6.946-1.954c-22.893-8.886-37.354-26.334-52.244-42.711
		c-14.42-15.862-22.586-35.079-21.634-57.312c0.342-7.984-0.011-15.995,0.068-23.993c0.161-16.353,5.233-30.62,17.554-41.965
		c10.435-9.61,18.893-21.49,33.945-27.113c-4.895-4.919-8.663-8.597-12.311-12.393c-16.814-17.502-26.955-37.749-25.912-62.676
		c0.264-6.32,0.24-12.671,0-18.994c-0.594-15.621,5.556-28.377,16.006-39.532c6.374-6.806,12.448-13.893,18.647-20.842
		c-8.886-8.637-19.265-18.382-29.221-28.542c-5.099-5.205-9.78-10.907-14.048-16.817c-7.775-10.767-12.624-22.519-11.452-36.315
		c0.618-7.279,0.564-14.688,0.021-21.979c-1.403-18.78,6.689-33.482,19.113-46.448c5.223-5.451,10.645-10.711,16.699-16.782
		c-30.399-12.413-51.898-33.994-72.035-58.02c-6.328,5.452-12.484,10.758-19.161,16.513c-2.046,37.015-11.674,73.188-24.046,108.806
		c-3.04,8.757-5.679,17.854-6.858,27.008c-1.818,14.123-8.258,26.052-16.265,37.033c-16.257,22.298-32.85,44.462-52.776,63.684
		c-23.517,22.686-49.8,42.013-76.632,60.559c-7.248,5.01-15.302,7.647-24.443,7.028c-7.962-0.54-15.993,0.028-23.987-0.144
		c-15.897-0.341-29.759-5.271-41.237-16.96c-11.934-12.155-23.753-24.243-31.801-39.514c-1.305-2.478-3.739-4.719-6.186-6.166
		c-7.403-4.377-15.07-8.31-23.368-12.815c-1.814,6.656-3.396,12.37-4.931,18.096c-10.092,37.65-29.115,69.774-59.253,94.841
		c-7.658,6.369-15.532,12.761-24.179,17.577c-7.719,4.298-16.412,7.76-25.078,9.272c-25.321,4.422-50.922,4.989-76.533,2.327
		c-2.627-0.273-5.207-0.989-8.703-1.676c-5.094,5.625-10.664,11.285-15.673,17.404c-12.005,14.666-23.481,29.771-35.718,44.236
		c-5.193,6.141-5.979,12.236-3.445,19.287c5.758,16.017,10.654,32.383,11.56,49.363c1.132,21.219,1.758,42.577,0.526,63.756
		c-0.509,8.759-6,17.396-9.96,25.741c-4.128,8.698-9.455,16.823-13.709,25.469c-13.696,27.841-34.62,49.369-58.721,68.217
		c-5.754,4.5-11.56,8.963-16.996,13.827c-6.339,5.672-13.22,9.827-21.727,11.459c-23.725,4.551-47.422,6.338-71.3,1.092
		c-7.668-1.685-14.63-4.375-20.044-10.319c-2.019-2.214-4.079-4.433-6.374-6.345c-9.533-7.94-15.468-18.124-19.096-29.829
		c-0.781-2.523-1.821-4.967-2.985-8.104c-14.889,2.911-29.607,5.789-44.487,8.699c8.136,10.196,16.551,19.582,23.639,29.882
		c12.94,18.803,27.869,36.379,37.095,57.569c2.511,5.765,4.851,11.635,6.776,17.615c5.171,16.056,10.917,31.994,14.865,48.358
		c4.486,18.594,1.992,37.769,2.052,56.706c0.043,13.546-5.702,25.851-8.672,38.733c-2.893,12.541-7.218,24.788-11.468,36.971
		c-5.555,15.925-10.335,32.273-19.431,46.664c-11.154,17.649-25.957,31.935-43.433,43.237
		c-14.976,9.685-30.125,19.196-47.314,24.729c-9.454,3.044-18.707,6.966-28.359,9.099c-24.964,5.521-50.236,9.359-75.839,10.226
		c-19.621,0.663-39.257,1.063-58.889,1.144c-22.875,0.092-44.474-6.268-65.919-13.553c-27.291-9.271-49.511-26.468-71.569-44.167
		c-21.162-16.979-39.15-36.941-55.063-58.672c-8.638-11.797-13.815-25.666-15.712-40.375c-1.188-9.209-1.719-18.502-2.585-27.752
		c-0.181-1.929-0.542-3.84-0.865-6.071c-4.691,0-9.285-1.055-13.137,0.188c-14.111,4.553-28.462,2.193-42.674,2.153
		c-10.182-0.029-17.867-6.536-25.204-12.926c-2.006-1.747-3.714-3.836-5.711-5.595c-4.5-3.961-7.984-4.678-12.338-0.839
		c-7.631,6.729-16.38,8.259-25.996,7.731c-3.988-0.219-8.025-0.346-11.992,0.018c-15.51,1.423-27.803-4.8-38.314-15.578
		c-1.354-1.387-2.94-2.546-4.628-3.99c-1.738,1.563-3.305,2.793-4.662,4.223c-7.068,7.457-15.54,11.224-25.945,10.18
		c-1.649-0.165-3.332-0.071-4.997-0.011c-7.866,0.287-8.652,1.016-8.949,8.51c-0.91,22.926-1.533,45.868-2.828,68.773
		c-0.466,8.228-2.162,16.446-3.956,24.522c-2.198,9.894-6.773,18.398-14.583,25.465c-13.793,12.48-26.546,25.959-43,35.42
		c-10.893,6.264-22.022,10.718-34.286,12.914c-35.673,6.39-71.222,13.554-107.006,19.229c-32.471,5.151-65.182,8.796-97.806,12.964
		c-3.938,0.504-7.994,0-11.985,0.186c-24.239,1.126-48.467,2.551-72.715,3.405c-15.968,0.563-31.979,0.832-47.94,0.296
		c-11.889-0.4-23.799-1.842-35.566-3.674c-10.14-1.577-18.696-7.251-25.704-14.422c-4.465-4.567-9.01-6.074-14.996-5.712
		c-3.954,0.24-8.174,0.362-11.884-0.758c-4.601-1.389-8.838-4.037-13.141-6.314c-1.126-0.596-2.001-1.76-2.844-2.784
		c-9.065-11.021-20.208-18.369-34.132-22.511c-6.972-2.073-13.288-7.263-19.122-12c-6.176-5.016-11.38-11.217-17.097-16.811
		c-8.942-8.752-16.185-18.689-19.636-30.795c-3.199-11.222-10.431-19.799-16.98-28.958c-5.974-8.355-12.11-16.755-16.726-25.869
		c-3.359-6.631-5.933-14.422-6.094-21.757c-0.378-17.233-1.034-34.849,1.976-51.674c4.187-23.409,13.582-45.232,31.438-62.242
		c6.5-6.192,12.636-12.852,19.645-18.405c16.751-13.277,37.116-17.373,57.461-21.021c25.681-4.604,50.994-1.62,76.079,4.563
		c4.199,1.034,8.464,1.801,12.69,2.728c11.318,2.482,21.287,7.474,29.483,15.801c4.441,4.514,8.691,9.264,13.493,13.361
		C958.129,3146.972,964.353,3151.271,970.99,3156.303z M1889.119,2937.386c-14.348-4.644-28.097-8.533-41.43-13.537
		c-19.395-7.28-37.63-17.019-53.329-30.675c-37.594-32.705-67.891-71.19-88.924-116.486c-17.769-38.264-34.831-76.86-51.939-115.428
		c-14.555-32.81-27.626-66.184-36.563-101.045c-0.349-1.361-1.446-2.531-2.795-4.8c-0.694,26.285-1.4,51.18-1.998,76.076
		c-0.725,30.248-1.082,60.509-2.169,90.742c-0.417,11.565-2.1,23.117-3.765,34.594c-2.67,18.396-6.265,36.663-8.643,55.092
		c-3.828,29.667-8.383,59.145-16.772,87.936c-8.269,28.37-16.997,56.632-24.247,85.266c-6.586,26.009-10.991,52.565-17.238,78.67
		c-4.527,18.912-8.048,38.546-23.435,53.273c1.835,2.08,3.462,4.146,5.324,5.971c1.799,1.764,3.839,3.28,6.322,5.364
		c5.53-5.67,10.663-10.874,15.729-16.143c6.1-6.342,13.557-9.431,22.309-9.446c11.992-0.022,23.982,0.029,35.974-0.014
		c6.262-0.023,11.522,2.147,16.51,5.988c5.05,3.887,10.712,6.979,16.577,10.72c9.882-20.871,20.736-39.388,34.458-56.146
		c13.512-16.501,28.525-31.49,43.958-46.2c15.949-15.2,35.344-24.513,54.201-34.878c18.849-10.362,40.347-12.705,60.337-19.59
		c20.724-7.138,42.358-5.119,64.22-6.452C1890.748,2948.887,1889.875,2942.725,1889.119,2937.386z"/>
	<path fill-rule="evenodd" fill="#FFFFFF" d="M1889.119,2937.386c0.756,5.339,1.629,11.501,2.671,18.853
		c-21.861,1.333-43.496-0.686-64.22,6.452c-19.99,6.885-41.488,9.228-60.337,19.59c-18.856,10.365-38.252,19.678-54.201,34.878
		c-15.434,14.71-30.446,29.699-43.958,46.2c-13.723,16.758-24.577,35.274-34.458,56.146c-5.864-3.74-11.527-6.833-16.577-10.72
		c-4.988-3.841-10.248-6.012-16.51-5.988c-11.992,0.043-23.982-0.009-35.974,0.014c-8.752,0.016-16.209,3.104-22.309,9.446
		c-5.067,5.269-10.199,10.473-15.729,16.143c-2.482-2.084-4.523-3.601-6.322-5.364c-1.862-1.825-3.489-3.891-5.324-5.971
		c15.387-14.728,18.908-34.361,23.435-53.273c6.247-26.104,10.652-52.661,17.238-78.67c7.25-28.634,15.979-56.896,24.247-85.266
		c8.39-28.791,12.945-58.269,16.772-87.936c2.377-18.429,5.973-36.696,8.643-55.092c1.666-11.477,3.348-23.028,3.765-34.594
		c1.087-30.233,1.445-60.494,2.169-90.742c0.598-24.896,1.304-49.791,1.998-76.076c1.349,2.269,2.447,3.438,2.795,4.8
		c8.938,34.861,22.009,68.235,36.563,101.045c17.108,38.567,34.17,77.164,51.939,115.428
		c21.034,45.296,51.331,83.781,88.924,116.486c15.699,13.656,33.935,23.395,53.329,30.675
		C1861.022,2928.853,1874.771,2932.742,1889.119,2937.386z"/>
</g>
</svg>
