<?xml version="1.0" encoding="utf-8"?>
<!-- Generator: Adobe Illustrator 16.0.2, SVG Export Plug-In . SVG Version: 6.00 Build 0)  -->
<!DOCTYPE svg PUBLIC "-//W3C//DTD SVG 1.1 Tiny//EN" "http://www.w3.org/Graphics/SVG/1.1/DTD/svg11-tiny.dtd">
<svg version="1.1" baseProfile="tiny" id="Layer_1" xmlns="http://www.w3.org/2000/svg" xmlns:xlink="http://www.w3.org/1999/xlink"
	 x="0px" y="0px" width="3762.529px" height="3551.556px" viewBox="0 0 3762.529 3551.556" xml:space="preserve">
<g>
	<g>
		<path fill-rule="evenodd" fill="#FFFFFF" d="M3765.415,3555.441c-1254.547,0-2508.98,0-3763.303,0
			c0-1184.556,0-2368.998,0-3553.329c1254.548,0,2508.981,0,3763.303,0C3765.415,1186.669,3765.415,2371.111,3765.415,3555.441z
			 M3437.532,2290.768c15.712-6.837,26.224-19.036,37.341-30.456c11.36-11.671,17.23-26.046,18.633-42.022
			c1.16-13.228,1.368-26.549,1.656-39.836c0.217-9.994-2.687-19.057-9.759-26.449c-4.145-4.331-8.124-8.868-12.623-12.801
			c-4.422-3.864-5.69-8.313-5.698-14.041c-0.016-10.282-0.783-20.571-1.484-30.84c-0.414-6.076-2.352-11.595-6.646-16.264
			c-1.69-1.838-3.253-4.469-3.47-6.865c-0.743-8.182-5.073-14.288-10.458-19.851c-13.661-14.115-27.074-28.501-41.288-42.044
			c-7.275-6.932-13.426-14.506-19.532-22.405c-21.587-27.928-40.601-57.43-57.024-88.659c-2.019-3.839-2.706-7.344-1.793-11.406
			c1.311-5.832,3.566-11.67,3.631-17.526c0.271-24.608,1.543-49.301-2.035-73.772c-0.998-6.819-3.402-13.56-6.041-19.975
			c-2.599-6.323-7.867-11.476-7.635-19.085c0.05-1.619-1.832-3.48-3.154-4.929c-9.048-9.913-19.048-17.902-32.365-22.228
			c-21.514-6.989-18.063-5.266-20.598-23.834c-0.045-0.33-0.123-0.655-0.186-0.982c-7.059-36.397-18.927-71.275-32.786-105.583
			c-5.332-13.196-12.022-25.778-15.126-40.006c-8.797-40.32-19.562-80.101-39.437-116.702c-5.54-10.202-10.852-20.723-17.835-29.906
			c-18.676-24.56-31.904-52.159-46.174-79.214c-8.873-16.825-18.597-33.224-31.941-46.886
			c-20.074-20.546-36.496-43.766-52.491-67.466c-13.737-20.353-27.781-40.587-43.011-59.827
			c-21.449-27.099-43.699-53.597-66.391-79.67c-20.515-23.57-41.729-46.56-63.295-69.174c-16.31-17.102-33.165-33.757-50.682-49.613
			c-18.705-16.933-38.164-33.076-57.856-48.86c-21.296-17.068-44.771-30.979-68.928-43.544
			c-23.818-12.388-47.883-24.377-72.328-35.462c-20.816-9.439-43.038-15.297-64.272-23.992
			c-61.348-25.12-125.159-42.53-189.955-56.299c-9.088-1.931-18.337-4.011-27.558-4.247c-23.944-0.61-47.914-0.232-71.874-0.249
			c-3.491-0.002-6.983,0-11.452,0c1.954-6.102,3.727-10.734,4.904-15.513c1.975-8.016,4.409-16.049,5.136-24.21
			c1.207-13.548,1.852-27.215,1.588-40.81c-0.48-24.645-2.973-49.008-12.811-72.117c-2.559-6.011-3.932-12.67-4.93-19.174
			c-1.896-12.353-3.128-24.808-4.735-38.038c4.029-5.737,9.987-11.981,13.257-19.407c4.905-11.14,7.863-23.131,11.756-34.724
			c6.714-20,6.603-40.734,5.309-61.28c-1.004-15.928-5.004-31.553-15.271-44.594c-4.92-6.25-10.529-11.966-15.338-18.296
			c-17.965-23.652-41.797-39.521-68.403-51.575c-3.859-1.748-5.373-4.053-6.961-7.534c-4.66-10.219-9.813-20.216-14.822-30.274
			c-1.335-2.677-2.624-5.422-4.321-7.866c-7.921-11.407-15.219-23.365-24.189-33.89c-9.698-11.378-20.774-21.63-31.673-31.925
			c-11.816-11.163-23.299-22.756-38.773-29.316c-10.045-4.258-19.588-9.707-29.356-14.622
			c-21.24-10.687-43.767-17.928-67.159-21.108c-17.378-2.362-35.185-1.419-52.772-2.415c-28.141-1.593-52.844,8.528-76.361,22.266
			c-11.698,6.833-23.07,14.375-33.898,22.513c-16.168,12.149-32.235,24.533-47.38,37.91c-11.911,10.519-22.607,22.469-33.314,34.262
			c-3.268,3.6-6.5,4.534-10.987,5.298c-11.747,2-24.15,3.186-34.788,8.013c-21.155,9.599-40.862,21.978-56.611,39.724
			c-14.287,16.1-26.221,33.397-30.264,55.078c-3.448,18.49-3.399,36.994-0.052,55.484c1.267,6.994,0.522,14.816,8.804,19.487
			c-42.175,41.954-69.287,92-85.427,145.597c-11.46,3.448-20.83,5.624-29.697,9.087c-12.678,4.953-22.67,13.833-30.82,24.596
			c-3.73,4.924-7.387,6.065-13.563,4.356c-8.908-2.465-18.235-4.278-27.449-4.616c-31.256-1.145-62.538-1.705-93.814-2.124
			c-23.326-0.313-46.664-0.315-69.989,0.024c-16.282,0.237-32.579,0.905-48.822,2.049c-42.623,3-84.244,11.884-125.426,22.777
			c-29.868,7.9-59.426,16.968-89.226,25.138c-43.787,12.004-86.449,26.979-125.333,50.727
			c-28.665,17.507-56.411,36.535-84.364,55.188c-9.66,6.445-19.32,13.125-27.926,20.869c-25.998,23.39-50.25,48.506-72.86,75.245
			c-13.376,15.818-25.985,32.043-35.351,50.597c-19.333,38.295-39.131,76.366-57.783,114.989
			c-10.474,21.688-22.758,43.02-23.515,68.193c-0.048,1.601-0.885,3.2-1.467,4.758c-12.549,33.635-22.786,68.161-38.871,100.437
			c-4.449,8.929-8.918,17.894-12.588,27.156c-11.879,29.969-24.501,59.709-34.764,90.235c-12.91,38.394-23.643,77.515-35.581,116.24
			c-5.186,16.822-10.848,33.467-12.265,51.191c-3.394,42.437-10.579,84.344-19.488,125.886
			c-9.661,45.044-14.202,90.488-14.487,136.445c-0.147,23.635,0.183,47.273-0.153,70.903c-0.255,17.942-1.488,35.87-1.795,53.813
			c-0.326,18.992-0.495,38.007,0.064,56.987c0.42,14.237,1.897,28.457,3.271,42.649c1.851,19.144,8.665,37.475,9.336,56.893
			c0.147,4.271,0.055,7.765-2.435,11.142c-3.713,5.034-4.858,10.822-4.993,16.935c-0.08,3.65,0.283,7.471-0.65,10.916
			c-5.121,18.901-4.957,38.168-4.708,57.486c0.124,9.698,1.582,18.987,4.629,28.298c2.758,8.427,4.693,17.393,5.219,26.226
			c1.112,18.714,5.464,36.276,16.938,51.195c8.852,11.508,19.022,22.001,29.477,33.939c-0.452,1.596-1.437,4.736-2.23,7.925
			c-2.884,11.585-6.427,23.063-8.406,34.805c-4.653,27.587-5.668,55.44-5.848,83.431c-0.154,24.144,2.156,47.765,8.452,70.98
			c5.382,19.847,13.925,38.185,28.538,53.063c16.551,16.854,32.715,34.175,50.264,49.938c17.729,15.925,38.715,25.546,63.378,25.198
			c17.328-0.244,34.669,0.256,51.989-0.191c7.212-0.186,12.644,1.559,17.525,7.119c9.765,11.125,22.479,18.634,34.815,26.498
			c2.143,1.367,4.905,2.07,7.47,2.415c8.551,1.146,17.122,2.333,25.725,2.862c11.611,0.716,23.257,1,34.891,1.094
			c2.863,0.022,6.134-0.778,8.538-2.285c10.41-6.525,21.206-12.68,30.623-20.467c8.117-6.712,14.282-15.729,21.846-23.185
			c4.547-4.481,6.967-9.491,7.778-15.618c0.754-5.688,1.708-11.351,2.735-18.078c13.539,10.453,28.573,14.739,43.052,20.505
			c27.834,11.083,55.844,10.56,84.199,3.731c8.746-2.106,16.723-5.981,22.919-13.234c5.611-6.568,11.886-12.643,18.366-18.373
			c5.121-4.526,7.551-10.065,8.289-16.474c2.703-23.45,5.428-46.91,4.11-70.599c-0.811-14.561-4.045-28.414-13.646-39.831
			c-8.332-9.909-17.289-19.293-25.927-28.945c-1.587-1.773-2.976-3.726-5.541-6.965c6.198,0,10.497-0.166,14.781,0.03
			c15.432,0.706,30.464-1.824,45.465-5.061c5.448-1.176,9.868-3.545,13.714-7.513c6.958-7.178,14.076-14.202,21.223-21.193
			c1.449-1.417,3.323-2.402,5.96-4.265c-4.57,74.382-8.396,147.34-1.209,220.41c-3.481,2.441-6.449,4.539-9.433,6.612
			c-11.896,8.265-21.926,18.193-28.792,31.165c-5.902,11.148-12.007,22.195-18.321,33.116c-9.332,16.141-14.771,33.54-15.43,52.039
			c-0.854,23.958-1.055,47.964-0.618,71.934c0.191,10.528,2.086,21.132,4.227,31.491c2.605,12.607,6.284,24.994,9.646,38.05
			c-11.85,0-23.087-0.005-34.323,0.001c-18.092,0.01-34.045,5.158-46.487,19.049c-3.33,3.718-7.036,7.102-10.575,10.633
			c-8.85,8.832-15.842,18.729-18.379,31.301c-0.427,2.117-1.613,4.081-2.9,7.215c-8.334-8.896-18.379-8.537-28.486-8.247
			c-7.326,0.21-14.667-0.108-21.995,0.07c-18.921,0.46-35.866,6.417-50.336,18.789c-5.756,4.921-11.289,10.104-16.949,15.188
			c-4.624-10.282-8.43-20.243-13.43-29.564c-11.647-21.712-24.816-42.093-43.808-58.728c-15.455-13.536-28.375-29.925-43.015-44.447
			c-14.921-14.8-31.137-28.819-50.526-36.793c-33.126-13.623-66.555-26.967-102.396-32.361c-11.833-1.781-23.57-5.614-35.391-5.782
			c-33.284-0.474-66.587,0.452-99.883,0.893c-2.31,0.031-4.662,0.404-6.911,0.96c-29.032,7.184-58.092,14.268-87.042,21.776
			c-7.008,1.816-13.791,4.751-20.416,7.751c-22.997,10.407-43.047,24.783-60.527,43.207c-21.337,22.489-42.38,45.067-56.839,72.833
			c-3.355,6.442-6.232,13.145-9.126,19.815c-4.231,9.754-7.095,20.326-12.651,29.232c-11.233,18.007-18.689,37.446-24.264,57.615
			c-3.249,11.755-5.385,23.982-6.479,36.136c-3.054,33.929,0.635,67.748,3.244,101.532c3.095,40.08,16.105,77.233,34.613,112.653
			c8.773,16.79,17.402,33.655,26.045,50.514c11.957,23.32,22.335,47.569,41.55,66.413c12.096,11.862,23.078,24.955,37.948,33.631
			c14.756,8.608,30.51,14.797,47.172,18.608c38.886,8.896,77.794,17.398,117.457,22.56c28.579,3.72,57.161,4.58,85.675,2.993
			c34.547-1.922,68.469-8.926,101.786-18.442c15.626-4.464,29.39-12.053,40.846-23.849c13.465-13.866,27.617-27.078,40.82-41.183
			c6.509-6.953,11.853-15.076,17.195-23.025c8.694-12.937,16.823-25.978,29.029-36.421c16.516-14.132,30.495-30.681,37.293-52.1
			c0.89-2.803,2.562-5.382,4.038-7.971c16.886-29.631,26.113-61.566,29.111-95.453c0.577-6.516,0.645-13.757,3.644-19.171
			c2.619-4.729,3.669-8.933,3.609-13.917c-0.043-3.568-0.008-7.14-0.008-11.249c6.399,1.942,11.724,3.725,17.138,5.17
			c19.987,5.338,40.452,3.839,60.615,2.584c9.177-0.571,19.227-4.415,26.812-9.728c17.336-12.144,32.347-26.837,34.781-49.799
			c0.489-4.614,1.083-9.231,1.254-13.862c0.217-5.91,0.053-11.835,0.053-17.834c31.915,9.94,62.791,11.552,93.326-3.569
			c1.785,6.949,3.265,13.06,4.928,19.121c6.283,22.895,14.694,44.863,28.447,64.46c15.119,21.545,34.735,34.464,62.182,32.793
			c15.596-0.949,31.269-0.913,46.816-2.325c15.765-1.432,31.082-4.801,41.264-18.918c0.74-1.025,1.994-1.68,2.941-2.451
			c6.921,1.914,13.524,4.117,20.292,5.539c18.455,3.877,37.114,2.177,55.709,1.405c12.966-0.537,26.055-1.002,35.541-12.586
			c5.175,3.753,9.46,7.499,14.318,10.224c6.014,3.372,12.28,7.555,18.835,8.436c12.46,1.676,25.201,1.575,37.827,1.615
			c12.938,0.04,23.904-4.667,32.318-14.961c3.358-4.108,7.605-7.476,11.217-11.393c7.916-8.586,16.138-17.323,19.255-28.778
			c5.131-18.856,11.806-37.582,10.003-57.663c-0.44-4.917,1.537-8.189,5.466-10.844c7.722-5.215,15.173-10.844,23.005-15.883
			c24.846-15.981,46.775-35.54,65.404-58.142c13.661-16.577,24.317-35.642,36.197-53.673
			c22.437-34.059,31.513-72.546,33.488-112.324c1.647-33.165-0.531-66.526-1.199-99.796c-0.231-11.559-1.012-23.105-1.555-34.927
			c0.99,0.592,1.912,0.816,2.054,1.28c0.961,3.142,1.839,6.313,2.596,9.511c7.189,30.361,14.654,60.661,17.362,91.883
			c1.347,15.526,3.068,31.021,4.777,46.513c2.221,20.118,4.799,40.199,6.848,60.334c1.78,17.498,2.833,35.069,4.574,52.572
			c2.856,28.712,6.767,57.341,8.808,86.106c1.764,24.853,1.843,49.844,2.022,74.779c0.055,7.589,2.754,12.881,7.35,18.699
			c9.936,12.58,21.774,18.296,37.886,15.911c6.602-0.978,13.501,0.054,21.062,0.185c-5.693,17.154-3.517,33.568-4.215,49.808
			c-0.661,15.398,3.179,29.469,9.711,43.28c11.165,23.607,27.142,43.355,46.746,60.268c4.471,3.855,9.669,7.572,15.18,9.397
			c24.512,8.121,49.155,15.892,73.963,23.05c12.745,3.677,26.258,4.807,38.842,8.888c15.134,4.909,29.693,11.622,44.399,17.798
			c3.941,1.655,7.635,4.009,11.228,6.367c12.802,8.405,25.729,16.646,38.196,25.53c12.428,8.855,24.574,18.144,36.453,27.727
			c13.679,11.034,28.251,20.157,46.188,21.391c17.904,1.23,35.883,1.973,53.82,1.858c8.502-0.054,17.785-0.891,25.31-4.392
			c13.999-6.514,28.991-12.044,39.467-24.463c2.36-2.797,5.089-3.405,8.813-3.136c10.932,0.791,21.933,1.586,32.865,1.202
			c14.757-0.518,29.262-3.149,41.094-12.979c11.254-9.349,22.637-18.74,27.473-33.456c0.495-1.507,1.61-2.811,3.138-5.394
			c12.598,0,25.552-0.32,38.483,0.088c13.359,0.423,24.729-3.875,34.807-12.409c12.987-11,24.473-23.171,25.415-41.216
			c0.831-15.921,0.931-31.956-0.06-47.854c-0.311-4.976-4.642-10.14-8.149-14.375c-4.871-5.876-10.978-10.712-16.057-16.436
			c-7.725-8.703-17.315-14.39-27.839-18.872c-6.413-2.732-13.303-4.859-18.965-8.737c-16.053-10.997-33.613-18.92-51.313-26.594
			c-5.419-2.351-11.274-3.873-17.069-5.143c-19.782-4.332-39.955-7.099-58.74-15.275c-10.962-4.773-21.729-10.128-32.998-14.02
			c-9.638-3.33-14.9-9.841-17.194-18.968c-3.805-15.136-7.009-30.424-10.431-45.655c-1.003-4.466-0.527-8.368,3.462-11.556
			c6.455-5.155,8.572-12.172,8.52-20.325c-0.178-27.329-0.024-54.659-0.106-81.99c-0.016-5.319,0.087-10.751-0.894-15.937
			c-6.485-34.309-3.25-68.869-2.961-103.343c0.184-21.954,0.944-43.905,1.161-65.859c0.206-20.893-0.463-41.805,0.166-62.683
			c0.841-27.891,2.565-55.756,3.902-83.632c0.336-6.979,0.515-13.967,0.984-20.936c1.159-17.222,2.623-34.424,3.606-51.654
			c0.492-8.638,0.098-17.323,0.289-25.982c0.248-11.286,2.128-22.756,0.699-33.808c-2.204-17.039-0.558-33.488,5.686-48.948
			c8.324-20.612,19.065-40.24,27.715-60.734c4.257-10.087,10.472-16.828,20.063-21.882c20.208-10.649,35.864-27.446,53.381-41.683
			c14.169-11.516,27.29-24.378,40.352-37.178c10.445-10.237,20.517-20.924,30.007-32.049c13.811-16.191,26.819-32.963,36.598-52.127
			c11.032-21.623,22.587-43.001,34.613-64.088c16.195-28.396,26.979-58.412,30.114-91.073c0.228-2.364,1.489-5.089,3.152-6.774
			c7.007-7.102,14.584-13.646,21.523-20.809c17.421-17.983,33.57-37.08,44.587-59.744c12.935-26.612,24.961-53.664,37.58-80.433
			c2.514-5.333,6.801-9.93,8.761-15.407c5.986-16.735,11.219-33.739,16.788-50.624c1.111-3.371,2.409-6.679,3.468-9.592
			c18.87,5.344,37.073,10.403,55.191,15.749c2.377,0.701,4.823,2.476,6.385,4.434c14.918,18.72,29.904,37.394,44.391,56.448
			c29.615,38.957,61.092,76.308,95.162,111.437c3.568,3.679,5.212,7.314,4.968,12.355c-0.119,2.452,0.554,5.36,1.889,7.394
			c6.69,10.199,5.737,18.395-3.388,26.358c-13.828,12.066-26.186,25.869-27.437,44.759c-1.343,20.284-4.154,41.439,8.577,60.021
			c1.068,1.562,1.509,3.556,2.556,6.119c-11.888,3.186-18.517,12.746-26.978,20.083c-10.306,8.935-17.396,19.942-22.885,32.121
			c-2.57,5.702-4.589,11.68-6.482,17.653c-4.728,14.9-4.067,30.379-2.964,45.538c0.935,12.818,4.287,25.792,12.77,35.994
			c8.28,9.96,17.714,18.985,26.919,28.143c6.069,6.04,13.689,9.713,22.269,9.705c19.965-0.018,39.943-0.3,59.888-1.139
			c7.406-0.312,14.735-2.477,22.81-3.925c3.62,11.445,7.167,22.833,10.834,34.184c1.725,5.339,3.175,10.85,5.622,15.855
			c6.504,13.303,17.306,23.439,26.776,34.479c19.467,22.693,44.536,37.608,71.872,48.628c16.921,6.82,34.309,12.313,53.196,11.075
			c9.63-0.63,19.014-2.501,28.429-3.545c14.109-1.563,28.312-2.229,42.485-4.207c9.171-1.278,18.327-1.591,27.735-6.716
			c0,6.1-0.2,11.029,0.061,15.934c0.228,4.286,0.106,8.893,1.656,12.748c4.31,10.713,8.679,21.524,14.363,31.537
			c8.975,15.809,22.664,27.516,36.366,39.226c16.83,14.384,35.642,22.56,57.982,22.005c2.58-0.064,5.173,0.406,7.748,0.628
			c2.635,18.861,4.603,37.31,7.894,55.52c5.12,28.34,7.491,57.106,16.432,84.893c4.807,14.939,11.111,28.373,20.564,40.468
			c11.564,14.797,25.539,27.047,44.985,28.752c16.463,1.443,33.266,2.318,49.477-3.3c3.7-1.283,7.685-1.811,11.575-2.464
			c11.358-1.906,22.736-3.697,34.104-5.549c1.314-0.214,2.651-0.404,3.911-0.81c12.916-4.162,25.858-8.245,38.712-12.592
			c15.246-5.155,29.173-12.897,41.251-23.479c4.01-3.513,7.945-5.585,13.058-6.013c3.968-0.331,8.109-0.244,11.837-1.417
			c5.271-1.657,10.762-3.559,15.182-6.722c5.08-3.635,9.643-8.34,13.456-13.327c8.152-10.664,14.414-22.415,15.229-36.179
			c0.451-7.639,0.022-15.326,0.074-22.992c0.11-16.56-6.026-30.332-18.22-41.502c-3.192-2.924-6.16-6.094-9.211-9.17
			c-8.806-8.88-18.271-16.513-31.563-17.211c-0.854-0.045-1.662-0.947-2.36-1.373c-3.004-16.516-5.563-32.912-9.068-49.104
			c-2.587-11.946-6.539-23.592-9.65-35.432c-4.023-15.311-10.283-28.979-22.264-40.208c-9.015-8.45-17.549-16.249-30.741-16.037
			c-0.518,0.008-1.046-0.729-2.504-1.814C3439.392,2328.395,3438.46,2309.563,3437.532,2290.768z M2653.219,2866.604
			c-15.197,8.707-28.785,16.096-41.961,24.155c-12.826,7.847-23.039,18.869-33.911,29.127
			c-22.618,21.338-39.224,46.562-50.894,75.223c-0.996,2.447-2.205,4.821-3.481,7.138c-3.659,6.631-8.136,12.92-10.948,19.885
			c-4.587,11.362-7.825,23.262-12.146,34.74c-7.413,19.699-11.816,39.91-11.965,61.01c-0.114,16.316-0.865,32.646-0.39,48.941
			c0.357,12.236,1.274,24.61,3.572,36.609c8.072,42.155,26.15,79.772,53.239,113.071c4.604,5.66,8.938,11.541,13.538,17.205
			c10.678,13.144,20.628,27.002,32.35,39.146c21.261,22.027,44.235,42.192,72.398,55.345c15.565,7.271,31.17,14.1,48.219,17.777
			c15.029,3.242,30.097,4.467,45.288,5.973c20.406,2.021,40.618,0.412,60.691-1.88c20.089-2.295,39.944-6.742,59.85-10.528
			c28.405-5.401,54.536-16.656,78.07-33.206c26.87-18.894,49.172-42.529,67.888-69.573c12.899-18.641,21.164-39.524,29.964-60.179
			c12.826-30.104,22.251-61.14,22.87-94.073c0.4-21.243-0.111-42.584-1.76-63.761c-1.329-17.079-4.677-34.052-10.823-50.241
			c-4.45-11.725-8.747-23.523-13.701-35.038c-9.409-21.869-24.896-39.893-38.994-58.624c-15.577-20.696-31.984-40.939-52.121-57.586
			c-12.518-10.349-24.665-21.496-38.446-29.871c-16.313-9.915-34.205-17.23-52.807-26.356
			c-12.33-28.013-35.038-49.328-61.314-69.742c-0.117-2.946,1.525-6.638,4.848-10.478c11.701-13.526,23.132-27.312,34.111-41.429
			c4.917-6.321,7.61-13.928,7.535-22.262c-0.101-11.331,0.531-22.695-0.146-33.986c-1.303-21.746-6.712-41.939-24.484-56.738
			c-3.314-2.761-5.991-6.282-9.263-9.104c-7.313-6.309-14.967-12.025-24.89-13.787c-7.011-1.245-13.941-2.944-23.149-4.924
			c5.146-0.787,7.974-1.545,10.813-1.599c12.488-0.236,23.271-4.756,32.778-12.618c4.098-3.388,8.337-6.647,12.099-10.384
			c9.668-9.605,19.856-18.833,28.422-29.362c8.474-10.417,9.974-23.459,9.169-36.734c-1.616-26.637-7.026-51.843-27.109-71.349
			c-8.085-7.854-16.567-15.337-25.264-22.512c-3.401-2.805-7.885-4.298-12.832-6.889c4.158-1.575,7.215-2.561,10.127-3.868
			c9.258-4.159,18.175-9.274,29.05-7.702c1.872,0.271,4.396-1.23,6.029-2.61c3.294-2.785,6.327-5.925,9.179-9.173
			c1.449-1.649,3.137-3.813,3.225-5.81c0.365-8.314,0.249-16.656,0.09-24.984c-0.028-1.521-0.634-3.623-1.729-4.432
			c-5.443-4.019-4.978-9.622-4.833-15.315c0.153-5.994,0.407-12.026-0.064-17.988c-0.648-8.212-1.286-16.735-7.349-23.122
			c-12.606-13.278-25.469-26.313-38.284-39.392c-5.109-5.213-11.46-7.731-18.726-7.81c-7.664-0.082-15.345,0.28-22.992-0.094
			c-12.508-0.612-22.388,4.517-31.148,12.88c-9.106,8.693-18.541,17.047-27.619,25.771c-4.531,4.355-9.573,8.634-12.656,13.949
			c-6.563,11.318-8.98,23.65-8.734,37.093c0.342,18.734,6.35,34.291,19.811,47.092c8.334,7.926,16.76,15.756,24.824,23.329
			c-9.004,6.475-18.44,12.548-27.04,19.639c-9.504,7.835-17.464,17.14-23.404,28.183c-8.961,16.66-10.545,34.466-10.747,52.979
			c-0.294,26.942,8.972,49.417,28.909,67.169c10.797,9.614,21.399,20.091,37.138,21.716c3.324,0.343,6.485,2.256,11.36,4.048
			c-6.051,1.224-10.372,1.721-14.436,3.021c-4.371,1.4-9.017,2.852-12.641,5.509c-12.319,9.031-23.748,19.07-32.86,31.552
			c-8.31,11.381-15.688,23.413-17.005,37.558c-1.657,17.803-3.166,35.734,0.329,53.622c2.038,10.435,3.057,21.37,10.644,29.451
			c7.441,7.925,14.355,16.637,24.942,21.098c5.392,2.271,10.348,5.575,16.754,9.102c-4.184,1.808-7.697,3.336-11.218,4.845
			c-3.956,1.696-8.551,2.592-11.78,5.189c-17.29,13.906-32.021,29.924-38.639,51.812
			C2655.017,2856.801,2654.151,2862.388,2653.219,2866.604z"/>
		<path fill-rule="evenodd" d="M3437.532,2290.768c0.928,18.795,1.859,37.627,2.752,55.714c1.458,1.086,1.986,1.822,2.504,1.814
			c13.192-0.212,21.727,7.587,30.741,16.037c11.98,11.229,18.24,24.897,22.264,40.208c3.111,11.84,7.063,23.485,9.65,35.432
			c3.506,16.192,6.064,32.589,9.068,49.104c0.698,0.426,1.507,1.328,2.36,1.373c13.292,0.698,22.757,8.331,31.563,17.211
			c3.051,3.076,6.019,6.246,9.211,9.17c12.193,11.17,18.33,24.942,18.22,41.502c-0.052,7.666,0.377,15.354-0.074,22.992
			c-0.814,13.764-7.076,25.515-15.229,36.179c-3.813,4.987-8.376,9.692-13.456,13.327c-4.42,3.163-9.911,5.064-15.182,6.722
			c-3.728,1.173-7.869,1.086-11.837,1.417c-5.112,0.428-9.048,2.5-13.058,6.013c-12.078,10.582-26.005,18.324-41.251,23.479
			c-12.854,4.347-25.796,8.43-38.712,12.592c-1.26,0.405-2.597,0.596-3.911,0.81c-11.367,1.852-22.745,3.643-34.104,5.549
			c-3.891,0.653-7.875,1.181-11.575,2.464c-16.211,5.618-33.014,4.743-49.477,3.3c-19.446-1.705-33.421-13.955-44.985-28.752
			c-9.453-12.095-15.758-25.528-20.564-40.468c-8.94-27.786-11.312-56.553-16.432-84.893c-3.291-18.21-5.259-36.658-7.894-55.52
			c-2.575-0.222-5.168-0.692-7.748-0.628c-22.341,0.555-41.152-7.621-57.982-22.005c-13.702-11.71-27.392-23.417-36.366-39.226
			c-5.685-10.013-10.054-20.824-14.363-31.537c-1.55-3.855-1.429-8.462-1.656-12.748c-0.261-4.904-0.061-9.834-0.061-15.934
			c-9.408,5.125-18.564,5.438-27.735,6.716c-14.174,1.978-28.376,2.644-42.485,4.207c-9.415,1.044-18.799,2.915-28.429,3.545
			c-18.888,1.237-36.275-4.255-53.196-11.075c-27.336-11.02-52.405-25.935-71.872-48.628c-9.471-11.04-20.272-21.177-26.776-34.479
			c-2.447-5.006-3.897-10.517-5.622-15.855c-3.667-11.351-7.214-22.738-10.834-34.184c-8.074,1.448-15.403,3.613-22.81,3.925
			c-19.944,0.839-39.923,1.121-59.888,1.139c-8.579,0.008-16.199-3.665-22.269-9.705c-9.205-9.157-18.639-18.183-26.919-28.143
			c-8.482-10.202-11.835-23.176-12.77-35.994c-1.104-15.159-1.764-30.638,2.964-45.538c1.894-5.974,3.912-11.951,6.482-17.653
			c5.489-12.179,12.579-23.187,22.885-32.121c8.461-7.337,15.09-16.897,26.978-20.083c-1.047-2.563-1.487-4.558-2.556-6.119
			c-12.731-18.582-9.92-39.737-8.577-60.021c1.251-18.89,13.608-32.692,27.437-44.759c9.125-7.964,10.078-16.159,3.388-26.358
			c-1.335-2.033-2.008-4.941-1.889-7.394c0.244-5.041-1.399-8.677-4.968-12.355c-34.07-35.129-65.547-72.479-95.162-111.437
			c-14.486-19.054-29.473-37.729-44.391-56.448c-1.562-1.958-4.008-3.733-6.385-4.434c-18.118-5.346-36.321-10.405-55.191-15.749
			c-1.059,2.914-2.356,6.222-3.468,9.592c-5.569,16.885-10.802,33.888-16.788,50.624c-1.96,5.477-6.247,10.074-8.761,15.407
			c-12.619,26.769-24.646,53.82-37.58,80.433c-11.017,22.664-27.166,41.761-44.587,59.744c-6.939,7.163-14.517,13.707-21.523,20.809
			c-1.663,1.686-2.925,4.41-3.152,6.774c-3.136,32.661-13.919,62.677-30.114,91.073c-12.026,21.087-23.581,42.465-34.613,64.088
			c-9.778,19.164-22.787,35.936-36.598,52.127c-9.49,11.125-19.562,21.812-30.007,32.049c-13.062,12.8-26.183,25.662-40.352,37.178
			c-17.517,14.236-33.173,31.033-53.381,41.683c-9.591,5.054-15.806,11.795-20.063,21.882
			c-8.649,20.494-19.391,40.122-27.715,60.734c-6.243,15.46-7.89,31.909-5.686,48.948c1.429,11.052-0.451,22.521-0.699,33.808
			c-0.191,8.659,0.203,17.345-0.289,25.982c-0.983,17.23-2.447,34.433-3.606,51.654c-0.47,6.969-0.648,13.957-0.984,20.936
			c-1.337,27.876-3.062,55.741-3.902,83.632c-0.629,20.878,0.04,41.79-0.166,62.683c-0.217,21.954-0.978,43.905-1.161,65.859
			c-0.289,34.474-3.524,69.034,2.961,103.343c0.98,5.186,0.878,10.617,0.894,15.937c0.082,27.331-0.071,54.661,0.106,81.99
			c0.053,8.153-2.064,15.17-8.52,20.325c-3.989,3.188-4.465,7.09-3.462,11.556c3.422,15.231,6.626,30.52,10.431,45.655
			c2.294,9.127,7.557,15.638,17.194,18.968c11.27,3.892,22.036,9.246,32.998,14.02c18.785,8.177,38.958,10.943,58.74,15.275
			c5.795,1.27,11.65,2.792,17.069,5.143c17.699,7.674,35.26,15.597,51.313,26.594c5.662,3.878,12.552,6.005,18.965,8.737
			c10.523,4.482,20.114,10.169,27.839,18.872c5.079,5.724,11.186,10.56,16.057,16.436c3.508,4.235,7.839,9.399,8.149,14.375
			c0.99,15.897,0.891,31.933,0.06,47.854c-0.942,18.045-12.428,30.216-25.415,41.216c-10.078,8.534-21.447,12.832-34.807,12.409
			c-12.932-0.408-25.886-0.088-38.483-0.088c-1.527,2.583-2.643,3.887-3.138,5.394c-4.836,14.716-16.219,24.107-27.473,33.456
			c-11.832,9.829-26.337,12.461-41.094,12.979c-10.933,0.384-21.934-0.411-32.865-1.202c-3.725-0.27-6.453,0.339-8.813,3.136
			c-10.476,12.419-25.468,17.949-39.467,24.463c-7.524,3.501-16.808,4.338-25.31,4.392c-17.938,0.114-35.916-0.628-53.82-1.858
			c-17.937-1.233-32.509-10.356-46.188-21.391c-11.879-9.583-24.025-18.871-36.453-27.727c-12.467-8.884-25.395-17.125-38.196-25.53
			c-3.593-2.358-7.286-4.712-11.228-6.367c-14.706-6.176-29.266-12.889-44.399-17.798c-12.584-4.081-26.098-5.211-38.842-8.888
			c-24.808-7.158-49.452-14.929-73.963-23.05c-5.511-1.825-10.708-5.542-15.18-9.397c-19.604-16.912-35.582-36.66-46.746-60.268
			c-6.532-13.812-10.373-27.882-9.711-43.28c0.698-16.239-1.478-32.653,4.215-49.808c-7.561-0.131-14.46-1.162-21.062-0.185
			c-16.111,2.385-27.95-3.331-37.886-15.911c-4.595-5.818-7.295-11.11-7.35-18.699c-0.18-24.936-0.259-49.927-2.022-74.779
			c-2.041-28.766-5.951-57.395-8.808-86.106c-1.741-17.503-2.794-35.074-4.574-52.572c-2.049-20.135-4.627-40.216-6.848-60.334
			c-1.709-15.491-3.43-30.986-4.777-46.513c-2.708-31.222-10.173-61.521-17.362-91.883c-0.757-3.198-1.635-6.369-2.596-9.511
			c-0.142-0.464-1.063-0.688-2.054-1.28c0.543,11.821,1.323,23.368,1.555,34.927c0.668,33.27,2.846,66.631,1.199,99.796
			c-1.976,39.778-11.052,78.266-33.488,112.324c-11.879,18.031-22.536,37.096-36.197,53.673
			c-18.628,22.602-40.558,42.16-65.404,58.142c-7.832,5.039-15.283,10.668-23.005,15.883c-3.929,2.654-5.906,5.927-5.466,10.844
			c1.803,20.081-4.872,38.807-10.003,57.663c-3.118,11.455-11.339,20.192-19.255,28.778c-3.612,3.917-7.859,7.284-11.217,11.393
			c-8.414,10.294-19.38,15.001-32.318,14.961c-12.626-0.04-25.367,0.061-37.827-1.615c-6.555-0.881-12.822-5.063-18.835-8.436
			c-4.858-2.725-9.143-6.471-14.318-10.224c-9.486,11.584-22.574,12.049-35.541,12.586c-18.595,0.771-37.255,2.472-55.709-1.405
			c-6.767-1.422-13.371-3.625-20.292-5.539c-0.947,0.771-2.201,1.426-2.941,2.451c-10.182,14.117-25.499,17.486-41.264,18.918
			c-15.548,1.412-31.221,1.376-46.816,2.325c-27.447,1.671-47.063-11.248-62.182-32.793c-13.753-19.597-22.164-41.565-28.447-64.46
			c-1.663-6.062-3.143-12.172-4.928-19.121c-30.535,15.121-61.411,13.51-93.326,3.569c0,5.999,0.164,11.924-0.053,17.834
			c-0.171,4.631-0.765,9.248-1.254,13.862c-2.434,22.962-17.444,37.655-34.781,49.799c-7.585,5.313-17.635,9.156-26.812,9.728
			c-20.163,1.255-40.628,2.754-60.615-2.584c-5.414-1.445-10.739-3.228-17.138-5.17c0,4.109-0.035,7.681,0.008,11.249
			c0.061,4.984-0.99,9.188-3.609,13.917c-2.999,5.414-3.067,12.655-3.644,19.171c-2.998,33.887-12.225,65.822-29.111,95.453
			c-1.476,2.589-3.148,5.168-4.038,7.971c-6.798,21.419-20.777,37.968-37.293,52.1c-12.206,10.443-20.334,23.484-29.029,36.421
			c-5.342,7.949-10.686,16.072-17.195,23.025c-13.204,14.104-27.355,27.316-40.82,41.183c-11.456,11.796-25.22,19.385-40.846,23.849
			c-33.317,9.517-67.239,16.521-101.786,18.442c-28.514,1.587-57.096,0.727-85.675-2.993c-39.663-5.161-78.571-13.663-117.457-22.56
			c-16.662-3.812-32.417-10-47.172-18.608c-14.87-8.676-25.852-21.769-37.948-33.631c-19.214-18.844-29.593-43.093-41.55-66.413
			c-8.643-16.858-17.271-33.724-26.045-50.514c-18.508-35.42-31.519-72.573-34.613-112.653
			c-2.609-33.784-6.298-67.604-3.244-101.532c1.094-12.153,3.23-24.381,6.479-36.136c5.574-20.169,13.03-39.608,24.264-57.615
			c5.556-8.906,8.42-19.479,12.651-29.232c2.894-6.671,5.771-13.373,9.126-19.815c14.458-27.766,35.502-50.344,56.839-72.833
			c17.479-18.424,37.53-32.8,60.527-43.207c6.625-3,13.408-5.935,20.416-7.751c28.949-7.509,58.009-14.593,87.042-21.776
			c2.249-0.556,4.601-0.929,6.911-0.96c33.296-0.44,66.6-1.366,99.883-0.893c11.821,0.168,23.559,4.001,35.391,5.782
			c35.84,5.395,69.27,18.738,102.396,32.361c19.389,7.974,35.604,21.993,50.526,36.793c14.641,14.522,27.56,30.911,43.015,44.447
			c18.992,16.635,32.161,37.016,43.808,58.728c5,9.321,8.807,19.282,13.43,29.564c5.661-5.085,11.193-10.268,16.949-15.188
			c14.471-12.372,31.415-18.329,50.336-18.789c7.328-0.179,14.669,0.14,21.995-0.07c10.106-0.29,20.152-0.649,28.486,8.247
			c1.287-3.134,2.473-5.098,2.9-7.215c2.538-12.571,9.529-22.469,18.379-31.301c3.54-3.531,7.246-6.915,10.575-10.633
			c12.442-13.891,28.396-19.039,46.487-19.049c11.236-0.006,22.473-0.001,34.323-0.001c-3.362-13.056-7.04-25.442-9.646-38.05
			c-2.14-10.359-4.036-20.963-4.227-31.491c-0.438-23.97-0.236-47.976,0.618-71.934c0.659-18.499,6.098-35.898,15.43-52.039
			c6.314-10.921,12.419-21.968,18.321-33.116c6.866-12.972,16.896-22.9,28.792-31.165c2.984-2.073,5.952-4.171,9.433-6.612
			c-7.187-73.07-3.361-146.028,1.209-220.41c-2.637,1.862-4.511,2.848-5.96,4.265c-7.146,6.991-14.265,14.016-21.223,21.193
			c-3.847,3.968-8.267,6.337-13.714,7.513c-15.001,3.236-30.033,5.767-45.465,5.061c-4.284-0.196-8.583-0.03-14.781-0.03
			c2.564,3.239,3.953,5.191,5.541,6.965c8.639,9.652,17.595,19.036,25.927,28.945c9.601,11.417,12.835,25.271,13.646,39.831
			c1.318,23.688-1.407,47.148-4.11,70.599c-0.738,6.408-3.168,11.947-8.289,16.474c-6.479,5.73-12.754,11.805-18.366,18.373
			c-6.196,7.253-14.173,11.128-22.919,13.234c-28.355,6.828-56.364,7.352-84.199-3.731c-14.479-5.766-29.514-10.052-43.052-20.505
			c-1.027,6.728-1.981,12.39-2.735,18.078c-0.812,6.127-3.231,11.137-7.778,15.618c-7.563,7.455-13.729,16.473-21.846,23.185
			c-9.417,7.787-20.213,13.941-30.623,20.467c-2.404,1.507-5.675,2.308-8.538,2.285c-11.634-0.094-23.28-0.378-34.891-1.094
			c-8.603-0.529-17.174-1.717-25.725-2.862c-2.565-0.345-5.327-1.048-7.47-2.415c-12.335-7.864-25.05-15.373-34.815-26.498
			c-4.881-5.561-10.313-7.305-17.525-7.119c-17.32,0.447-34.662-0.053-51.989,0.191c-24.663,0.348-45.648-9.273-63.378-25.198
			c-17.549-15.763-33.713-33.083-50.264-49.938c-14.612-14.879-23.155-33.217-28.538-53.063c-6.296-23.216-8.606-46.837-8.452-70.98
			c0.18-27.99,1.195-55.844,5.848-83.431c1.979-11.741,5.522-23.22,8.406-34.805c0.793-3.188,1.778-6.329,2.23-7.925
			c-10.455-11.938-20.625-22.432-29.477-33.939c-11.474-14.919-15.826-32.481-16.938-51.195c-0.525-8.833-2.46-17.799-5.219-26.226
			c-3.048-9.311-4.505-18.6-4.629-28.298c-0.248-19.318-0.412-38.585,4.708-57.486c0.933-3.445,0.57-7.266,0.65-10.916
			c0.135-6.112,1.279-11.9,4.993-16.935c2.49-3.377,2.582-6.87,2.435-11.142c-0.671-19.418-7.485-37.749-9.336-56.893
			c-1.373-14.192-2.851-28.412-3.271-42.649c-0.559-18.98-0.39-37.995-0.064-56.987c0.307-17.942,1.541-35.87,1.795-53.813
			c0.336-23.63,0.006-47.268,0.153-70.903c0.285-45.957,4.827-91.401,14.487-136.445c8.909-41.542,16.095-83.449,19.488-125.886
			c1.417-17.724,7.079-34.369,12.265-51.191c11.938-38.726,22.671-77.847,35.581-116.24c10.263-30.525,22.885-60.266,34.764-90.235
			c3.67-9.262,8.14-18.227,12.588-27.156c16.085-32.275,26.322-66.801,38.871-100.437c0.582-1.559,1.419-3.158,1.467-4.758
			c0.756-25.174,13.041-46.506,23.515-68.193c18.652-38.623,38.45-76.694,57.783-114.989c9.366-18.554,21.975-34.779,35.351-50.597
			c22.61-26.739,46.862-51.855,72.86-75.245c8.606-7.744,18.266-14.424,27.926-20.869c27.954-18.653,55.699-37.68,84.364-55.188
			c38.884-23.748,81.546-38.723,125.333-50.727c29.8-8.17,59.358-17.237,89.226-25.138c41.182-10.893,82.803-19.777,125.426-22.777
			c16.243-1.144,32.54-1.812,48.822-2.049c23.325-0.339,46.663-0.337,69.989-0.024c31.276,0.419,62.559,0.979,93.814,2.124
			c9.213,0.338,18.541,2.15,27.449,4.616c6.176,1.709,9.833,0.568,13.563-4.356c8.15-10.762,18.142-19.643,30.82-24.596
			c8.867-3.463,18.236-5.64,29.697-9.087c16.14-53.597,43.252-103.644,85.427-145.597c-8.281-4.67-7.537-12.493-8.804-19.487
			c-3.347-18.491-3.396-36.995,0.052-55.484c4.042-21.681,15.977-38.979,30.264-55.078c15.749-17.747,35.457-30.125,56.611-39.724
			c10.637-4.827,23.041-6.013,34.788-8.013c4.487-0.765,7.719-1.698,10.987-5.298c10.707-11.793,21.403-23.743,33.314-34.262
			c15.145-13.377,31.212-25.761,47.38-37.91c10.829-8.138,22.201-15.68,33.898-22.513c23.517-13.737,48.22-23.858,76.361-22.266
			c17.588,0.995,35.395,0.053,52.772,2.415c23.393,3.18,45.919,10.421,67.159,21.108c9.769,4.916,19.312,10.364,29.356,14.622
			c15.475,6.56,26.957,18.153,38.773,29.316c10.898,10.294,21.975,20.547,31.673,31.925c8.971,10.525,16.269,22.483,24.189,33.89
			c1.697,2.444,2.986,5.189,4.321,7.866c5.01,10.058,10.162,20.055,14.822,30.274c1.588,3.481,3.102,5.787,6.961,7.534
			c26.606,12.053,50.438,27.922,68.403,51.575c4.809,6.33,10.418,12.046,15.338,18.296c10.268,13.042,14.268,28.667,15.271,44.594
			c1.294,20.546,1.405,41.28-5.309,61.28c-3.893,11.593-6.851,23.584-11.756,34.724c-3.27,7.426-9.228,13.669-13.257,19.407
			c1.607,13.23,2.84,25.686,4.735,38.038c0.998,6.503,2.371,13.163,4.93,19.174c9.838,23.108,12.33,47.472,12.811,72.117
			c0.264,13.595-0.381,27.262-1.588,40.81c-0.727,8.161-3.161,16.194-5.136,24.21c-1.178,4.779-2.95,9.411-4.904,15.513
			c4.469,0,7.961-0.002,11.452,0c23.96,0.017,47.93-0.361,71.874,0.249c9.221,0.235,18.47,2.315,27.558,4.247
			c64.796,13.769,128.607,31.179,189.955,56.299c21.234,8.695,43.456,14.553,64.272,23.992
			c24.445,11.085,48.51,23.074,72.328,35.462c24.157,12.564,47.632,26.476,68.928,43.544c19.692,15.784,39.151,31.928,57.856,48.86
			c17.517,15.855,34.372,32.511,50.682,49.613c21.566,22.614,42.78,45.604,63.295,69.174c22.691,26.073,44.941,52.571,66.391,79.67
			c15.229,19.24,29.273,39.474,43.011,59.827c15.995,23.7,32.417,46.92,52.491,67.466c13.345,13.662,23.068,30.061,31.941,46.886
			c14.27,27.055,27.498,54.654,46.174,79.214c6.983,9.184,12.295,19.705,17.835,29.906c19.875,36.601,30.64,76.382,39.437,116.702
			c3.104,14.228,9.794,26.81,15.126,40.006c13.859,34.307,25.728,69.186,32.786,105.583c0.063,0.327,0.141,0.652,0.186,0.982
			c2.534,18.568-0.916,16.845,20.598,23.834c13.317,4.326,23.317,12.315,32.365,22.228c1.322,1.449,3.204,3.31,3.154,4.929
			c-0.232,7.609,5.036,12.763,7.635,19.085c2.639,6.416,5.043,13.156,6.041,19.975c3.578,24.472,2.307,49.164,2.035,73.772
			c-0.064,5.856-2.32,11.694-3.631,17.526c-0.913,4.063-0.226,7.567,1.793,11.406c16.424,31.229,35.438,60.731,57.024,88.659
			c6.106,7.899,12.257,15.474,19.532,22.405c14.214,13.543,27.627,27.929,41.288,42.044c5.385,5.563,9.715,11.669,10.458,19.851
			c0.217,2.396,1.779,5.027,3.47,6.865c4.294,4.669,6.231,10.188,6.646,16.264c0.701,10.269,1.469,20.558,1.484,30.84
			c0.008,5.729,1.276,10.177,5.698,14.041c4.499,3.933,8.479,8.47,12.623,12.801c7.072,7.393,9.976,16.455,9.759,26.449
			c-0.288,13.287-0.496,26.608-1.656,39.836c-1.402,15.977-7.272,30.352-18.633,42.022
			C3463.756,2271.731,3453.244,2283.931,3437.532,2290.768z"/>
		<path fill-rule="evenodd" d="M2653.219,2866.604c0.933-4.216,1.798-9.803,3.418-15.162c6.617-21.888,21.349-37.905,38.639-51.812
			c3.229-2.598,7.824-3.493,11.78-5.189c3.521-1.509,7.034-3.037,11.218-4.845c-6.406-3.526-11.362-6.83-16.754-9.102
			c-10.587-4.461-17.501-13.173-24.942-21.098c-7.587-8.081-8.605-19.017-10.644-29.451c-3.495-17.888-1.986-35.819-0.329-53.622
			c1.317-14.145,8.695-26.177,17.005-37.558c9.112-12.481,20.541-22.521,32.86-31.552c3.624-2.657,8.27-4.108,12.641-5.509
			c4.063-1.301,8.385-1.798,14.436-3.021c-4.875-1.792-8.036-3.705-11.36-4.048c-15.738-1.625-26.341-12.102-37.138-21.716
			c-19.938-17.752-29.203-40.227-28.909-67.169c0.202-18.514,1.786-36.319,10.747-52.979c5.94-11.043,13.9-20.348,23.404-28.183
			c8.6-7.091,18.036-13.164,27.04-19.639c-8.064-7.573-16.49-15.403-24.824-23.329c-13.461-12.801-19.469-28.357-19.811-47.092
			c-0.246-13.442,2.172-25.774,8.734-37.093c3.083-5.315,8.125-9.594,12.656-13.949c9.078-8.725,18.513-17.078,27.619-25.771
			c8.761-8.363,18.641-13.492,31.148-12.88c7.647,0.374,15.328,0.012,22.992,0.094c7.266,0.078,13.616,2.597,18.726,7.81
			c12.815,13.078,25.678,26.113,38.284,39.392c6.063,6.387,6.7,14.91,7.349,23.122c0.472,5.962,0.218,11.994,0.064,17.988
			c-0.145,5.693-0.61,11.297,4.833,15.315c1.096,0.809,1.701,2.911,1.729,4.432c0.159,8.328,0.275,16.67-0.09,24.984
			c-0.088,1.997-1.775,4.16-3.225,5.81c-2.852,3.248-5.885,6.388-9.179,9.173c-1.633,1.38-4.157,2.881-6.029,2.61
			c-10.875-1.572-19.792,3.543-29.05,7.702c-2.912,1.308-5.969,2.293-10.127,3.868c4.947,2.591,9.431,4.084,12.832,6.889
			c8.696,7.175,17.179,14.657,25.264,22.512c20.083,19.506,25.493,44.712,27.109,71.349c0.805,13.275-0.695,26.317-9.169,36.734
			c-8.565,10.529-18.754,19.757-28.422,29.362c-3.762,3.736-8.001,6.996-12.099,10.384c-9.507,7.862-20.29,12.382-32.778,12.618
			c-2.84,0.054-5.667,0.812-10.813,1.599c9.208,1.979,16.139,3.679,23.149,4.924c9.923,1.762,17.576,7.479,24.89,13.787
			c3.271,2.822,5.948,6.344,9.263,9.104c17.772,14.799,23.182,34.992,24.484,56.738c0.678,11.291,0.046,22.655,0.146,33.986
			c0.075,8.334-2.618,15.94-7.535,22.262c-10.979,14.117-22.41,27.902-34.111,41.429c-3.322,3.84-4.965,7.531-4.848,10.478
			c26.276,20.414,48.984,41.729,61.314,69.742c18.602,9.126,36.494,16.441,52.807,26.356c13.781,8.375,25.929,19.522,38.446,29.871
			c20.137,16.646,36.544,36.89,52.121,57.586c14.099,18.731,29.585,36.755,38.994,58.624c4.954,11.515,9.251,23.313,13.701,35.038
			c6.146,16.189,9.494,33.162,10.823,50.241c1.648,21.177,2.16,42.518,1.76,63.761c-0.619,32.934-10.044,63.969-22.87,94.073
			c-8.8,20.654-17.064,41.538-29.964,60.179c-18.716,27.044-41.018,50.68-67.888,69.573c-23.534,16.55-49.665,27.805-78.07,33.206
			c-19.905,3.786-39.761,8.233-59.85,10.528c-20.073,2.292-40.285,3.901-60.691,1.88c-15.191-1.506-30.259-2.73-45.288-5.973
			c-17.049-3.678-32.653-10.507-48.219-17.777c-28.163-13.152-51.138-33.317-72.398-55.345
			c-11.722-12.145-21.672-26.003-32.35-39.146c-4.601-5.664-8.934-11.545-13.538-17.205
			c-27.089-33.299-45.167-70.916-53.239-113.071c-2.298-11.999-3.215-24.373-3.572-36.609c-0.476-16.296,0.275-32.625,0.39-48.941
			c0.148-21.1,4.552-41.311,11.965-61.01c4.32-11.479,7.559-23.378,12.146-34.74c2.813-6.965,7.289-13.254,10.948-19.885
			c1.276-2.316,2.485-4.69,3.481-7.138c11.67-28.661,28.275-53.885,50.894-75.223c10.872-10.258,21.085-21.28,33.911-29.127
			C2624.434,2882.699,2638.021,2875.311,2653.219,2866.604z"/>
	</g>
</g>
</svg>
