<?xml version="1.0" encoding="utf-8"?>
<!-- Generator: Adobe Illustrator 16.0.2, SVG Export Plug-In . SVG Version: 6.00 Build 0)  -->
<!DOCTYPE svg PUBLIC "-//W3C//DTD SVG 1.1 Tiny//EN" "http://www.w3.org/Graphics/SVG/1.1/DTD/svg11-tiny.dtd">
<svg version="1.1" baseProfile="tiny" id="Layer_1" xmlns="http://www.w3.org/2000/svg" xmlns:xlink="http://www.w3.org/1999/xlink"
	 x="0px" y="0px" width="3670.541px" height="3539.558px" viewBox="0 0 3670.541 3539.558" xml:space="preserve">
<g>
	<path fill-rule="evenodd" fill="#FFFFFF" d="M3673.428,3543.443c-1223.885,0-2447.656,0-3671.315,0c0-1180.557,0-2361,0-3541.331
		c1223.885,0,2447.656,0,3671.315,0C3673.428,1182.669,3673.428,2363.112,3673.428,3543.443z M1195.507,3088.874
		c8.836,4.582,16.133,9.41,24.134,12.279c13.35,4.787,27.542,3.55,41.484,3.649c15.221,0.109,29.881-1.363,41.609-12.818
		c1.391-1.357,4.101-1.993,6.165-1.924c9.931,0.338,19.894,0.633,29.762,1.711c10.467,1.144,18.657-2.531,25.927-9.656
		c3.777-3.701,7.608-8.8,12.216-9.898c9.605-2.291,15.016-9.234,21.722-15.059c8.24-7.156,11.262-16.077,10.986-26.606
		c-0.155-5.912-0.027-11.833-0.027-17.277c9.004-4.934,16.942-9.131,24.737-13.58c37.525-21.419,67.597-51.677,96.917-82.669
		c9.783-10.34,18.751-21.655,26.773-33.423c29.68-43.548,46.111-92.567,57.814-143.437c0.618-2.685,1.558-5.294,2.349-7.939
		c1.509,2.625,1.883,4.924,2.034,7.238c1.382,21.201,2.667,42.41,4.094,63.608c1.693,25.164,3.746,50.307,5.176,75.484
		c1.075,18.906,1.406,37.854,2.084,56.784c0.881,24.579,1.722,49.16,2.713,73.735c0.214,5.293,0.729,10.609,1.636,15.823
		c0.426,2.449,1.673,5.053,3.291,6.955c18.469,21.72,41.743,33.346,70.539,33.974c7.375,0.16,14.706,2.31,21.458,3.444
		c-1.826,10.195-4.227,18.928-4.774,27.776c-0.779,12.617-0.76,25.353,0.021,37.97c0.441,7.135,2.245,14.47,4.898,21.132
		c7.985,20.057,20.503,36.905,36.378,51.742c13.695,12.8,29.36,21.816,46.527,28.251c8.278,3.103,17.473,5.12,26.266,5.173
		c13.434,0.081,26.479,1.781,39.528,4.448c10.748,2.199,21.462,4.727,32.313,6.219c20.312,2.794,38.479,10.508,54.598,22.896
		c9.207,7.075,17.917,14.822,26.591,22.56c17.932,15.996,36.318,31.262,58.78,40.719c3.331,1.402,6.376,3.471,9.6,5.142
		c13.006,6.736,26.188,12.813,40.472,16.724c15.117,4.138,30.343,3.218,45.614,3.679c13.877,0.418,25.29-4.727,34.938-14.225
		c8.308-8.177,16.532-16.453,24.447-25.007c2.582-2.79,5.11-3.598,8.708-3.483c11.978,0.383,23.965,0.555,35.951,0.608
		c8.918,0.04,17.538-2.01,23.933-8.352c7.995-7.93,15.387-16.525,22.444-25.312c2.638-3.283,4.914-4.612,9.072-4.286
		c11.582,0.907,23.191,1.604,34.803,1.941c26.61,0.772,48.723-7.875,67.827-27.585c19.639-20.26,25.222-43.779,20.462-69.596
		c-3.817-20.706-13.996-39.521-29.053-54.863c-29.689-30.252-64.86-51.949-105.481-63.927
		c-38.25-11.279-76.813-21.545-115.447-31.437c-9.373-2.399-13.81-7.62-17.311-15.736c-6.454-14.967-6.823-30.908-9.074-47.085
		c20.001-10.141,26.463-27.508,25.95-48.553c-0.139-5.662-0.304-11.348,0.041-16.993c0.605-9.9-2.115-19.035-5.377-28.187
		c-2.001-5.611-3.972-11.395-4.734-17.259c-2.308-17.761-4.781-35.555-5.809-53.416c-2.336-40.591-0.345-81.185,1.501-121.749
		c1.071-23.551,2.41-47.091,3.713-70.63c0.825-14.922,1.417-29.872,2.796-44.746c2.94-31.719,6.128-63.417,9.581-95.084
		c3.893-35.701,6.188-71.469,6.444-107.388c0.026-3.626,1.848-7.659,3.917-10.787c21.472-32.469,43.802-64.389,64.548-97.309
		c11.822-18.758,23.298-38.158,27.566-60.508c1.259-6.591,4.542-11.37,9.275-15.885c36.546-34.857,67.968-74.04,95.534-116.21
		c11.802-18.056,21.118-37.716,32.182-56.279c10.261-17.215,18.767-35.174,26.112-53.778c2.022-5.125,4.627-10.412,8.27-14.445
		c39.184-43.393,69.518-92.373,92.78-145.849c3.458-7.95,7.398-15.173,14.363-20.8c5.129-4.145,9.371-9.424,13.789-14.392
		c1.474-1.656,3.187-3.902,3.218-5.903c0.168-10.98,0.936-22.138-0.734-32.887c-0.932-5.999-0.653-10.811,1.93-16.586
		c3.489,1.566,6.771,3.013,10.027,4.506c20.255,9.282,40.394,18.83,60.834,27.679c4.944,2.14,8.257,5.02,11.028,9.338
		c7.368,11.48,14.506,23.146,22.527,34.162c35.054,48.144,69.766,96.591,112.885,138.162c1.572,1.516,3.085,3.656,3.484,5.726
		c1.306,6.768,2.084,13.638,3.135,20.95c-1.008,1.099-2.318,2.595-3.699,4.024c-8.327,8.623-16.752,17.154-24.983,25.865
		c-6.461,6.84-9.625,14.88-8.992,24.522c0.479,7.301-0.149,14.668,0.152,21.987c0.521,12.632,3.382,24.292,13.865,32.91
		c4.494,3.695,8.304,8.224,12.424,12.373c-3.607,1.854-6.519,1.469-9.286,1.934c-5.847,0.982-12.266,1.196-17.303,3.879
		c-15.394,8.197-28.909,19.074-39.305,33.253c-13.218,18.024-18.654,38.809-19.671,60.774c-0.585,12.638,0.161,25.332-0.196,37.986
		c-0.256,9.007,2.191,17.084,6.652,24.662c4.901,8.324,10.124,16.388,17.507,22.89c4.385,3.861,8.244,8.318,12.459,12.629
		c-5.191,2.849-9.628,4.595-13.257,7.39c-20.543,15.831-38.005,34.315-48.862,58.313c-3.477,7.682-5.677,15.488-5.179,24.109
		c0.48,8.304,0.641,16.7-0.007,24.981c-1.39,17.772,6.365,31.502,18.104,43.665c5.499,5.697,11.167,11.231,17.003,17.083
		c-1.647,1.92-2.657,3.176-3.75,4.356c-8.578,9.274-17.581,18.192-25.661,27.88c-11.133,13.348-18.52,28.271-17.023,46.517
		c0.651,7.945-0.16,16.001,0.214,23.982c0.215,4.577,0.939,9.28,2.359,13.625c5.058,15.476,14.096,28.545,25.404,40.114
		c4.371,4.472,8.817,8.872,13.748,13.825c-5.366,5.373-9.936,10.151-14.721,14.703c-19.179,18.245-28.378,40.531-27.601,67.01
		c0.234,7.992-0.124,16,0.105,23.993c0.113,3.953,0.8,7.91,1.472,11.824c2.65,15.445,11.781,27.635,21.742,38.676
		c11.905,13.198,22.921,28.414,43.637,30.506c-33.146,17.348-60.604,38.219-70.113,76.112c-17.031,6.781-34.25,13.755-51.562,20.485
		c-10.308,4.007-19.682,9.176-28.107,16.604c-18.823,16.595-34.887,35.55-50.249,55.265c-16.103,20.667-29.351,42.893-36.865,68.022
		c-9.817,32.829-16.659,66.435-19.1,100.585c-3.017,42.221-0.709,84.422,5.906,126.263c3.438,21.752,8.812,43.042,21.264,61.763
		c7.363,11.069,14.395,22.414,22.477,32.942c17.514,22.814,37.486,43.251,61.924,58.793c25.984,16.526,53.902,28.678,83.823,36.231
		c26.851,6.779,54.049,11.256,81.729,11.974c48.955,1.271,97.748-0.658,146.44-6.602c28.796-3.516,55.041-12.317,77.83-30.375
		c10.924-8.655,21.554-17.708,31.977-26.964c22.763-20.215,42.345-42.935,57.743-69.503c17.31-29.865,26.268-61.561,25.859-95.943
		c-0.23-19.282-0.32-38.592-1.463-57.829c-1.18-19.851-2.684-39.76-5.622-59.407c-4.226-28.232-10.073-56.218-14.855-84.373
		c-3.548-20.886-9.46-40.8-21.681-58.386c-30.286-43.587-69.447-76.754-117.457-99.362c-17.153-8.078-34.459-15.949-54.216-14.438
		c-0.294,0.022-0.61-0.23-0.415-0.15c-5.139-7.073-9.386-14.354-15.011-20.341c-9.563-10.181-19.713-19.863-30.148-29.156
		c-8.515-7.582-18.077-13.642-30.163-13.989c-1.749-0.051-3.47-1.013-5.994-1.798c4.313-2.324,7.988-3.916,11.246-6.125
		c19.758-13.394,36.67-29.801,49.692-49.798c6.917-10.624,11.605-22.538,12.06-35.469c0.422-11.982,0.531-24.013-0.023-35.985
		c-0.647-14.004-5.065-26.72-15.508-36.761c-10.942-10.522-20.439-22.689-36.559-30.01c5.889-5.304,10.988-9.159,15.195-13.821
		c14.718-16.309,24.179-34.905,23.682-57.561c-0.146-6.664-0.33-13.349,0.038-19.994c0.948-17.157-5.739-30.988-17.589-42.895
		c-6.074-6.104-11.729-12.625-17.497-18.875c10.143-9.875,21.406-20.179,31.902-31.214c14.839-15.599,25.883-32.937,23.257-56.073
		c-0.859-7.568,0.013-15.319-0.203-22.979c-0.102-3.621-0.686-7.268-1.423-10.825c-2.534-12.245-10.158-21.479-18.409-30.253
		c-4.902-5.213-10.061-10.185-14.817-14.977c13.897-8.544,26.879-16.523,39.843-24.493c2.765,10.882,5.265,21.865,8.368,32.674
		c4.83,16.828,12.104,32.033,25.683,44.178c12.83,11.476,27.198,20.201,42.188,28.153c11.749,6.232,23.601,12.143,37.192,13.738
		c28.802,3.382,57.685,4.59,86.649,4.113c3.588-0.059,7.247-0.791,10.723-1.752c14.031-3.874,26.338-10.944,37.222-20.579
		c1.369-1.212,3.106-2.007,6.158-3.932c0,10.681-0.316,19.881,0.061,29.051c0.943,22.842,6.844,44.003,22.627,61.367
		c7.835,8.62,15.898,17.041,24.086,25.329c17.771,17.992,39.299,26.714,64.678,25.766c2.533-0.095,5.094,0.513,7.581,0.788
		c1.193,10.481,2.299,20.323,3.438,30.163c1.903,16.456,3.407,32.972,5.851,49.347c3.142,21.055,7.946,41.73,15.92,61.609
		c3.315,8.264,6.155,16.815,8.18,25.477c3.432,14.678,9.793,27.392,22.097,36.44c5.9,4.339,12.333,7.208,20.239,7.103
		c25.619-0.341,51.185-1.181,76.79-2.466c20.927-1.049,40.956-4.292,60.467-11.148c7.742-2.722,15.819-6.138,22-11.318
		c13.74-11.518,26.642-24.09,39.306-36.809c3.658-3.676,6.883-6.53,12.1-7.688c24.964-5.54,39.252-22.536,46.49-45.831
		c4.406-14.182,1.999-29.095,1.488-43.66c-0.15-4.337-2.249-9.374-5.089-12.693c-6.67-7.798-14.275-14.805-21.602-22.032
		c-5.048-4.979-11.404-6.528-18.294-6.47c-4.221,0.035-8.442,0.006-13.04,0.006c-0.866-9.106-1.518-16.99-2.386-24.851
		c-1.383-12.522-3.851-25.006-4.155-37.548c-0.451-18.576-3.724-36.398-11.247-53.253c-5.858-13.124-16.832-22.007-28.379-29.965
		c-2.284-1.574-5.574-1.967-8.47-2.319c-6.182-0.754-12.41-1.125-18.579-1.649c-3.889-20.385-7.646-40.081-11.409-59.801
		c7.863-4.109,14.825-8.043,22.034-11.453c13.898-6.574,24.737-16.978,34.303-28.485c3.761-4.525,6.239-11.351,6.559-17.275
		c1.002-18.606,1.629-37.335,0.578-55.913c-0.7-12.377-2.862-24.892-12.892-34.639c-10.319-10.029-20.353-19.987-35.385-22.76
		c0-4.121,0.252-7.461-0.046-10.75c-1.022-11.262-1.615-22.81-9.405-31.958c-11.634-13.66-23.381-27.237-35.522-40.443
		c-7.643-8.312-16.48-15.523-24.091-23.86c-13.212-14.472-25.824-29.487-38.808-44.17c-11.294-12.773-21.499-26.171-27.654-42.34
		c-2.1-5.515-5.431-10.552-7.894-15.945c-1.031-2.259-1.992-4.963-1.716-7.316c0.577-4.91,1.993-9.723,3.072-14.573
		c6.315-28.368,6.51-56.726-1.319-84.782c-3.831-13.736-8.851-27.063-20.802-36.485c-9.392-7.405-18.158-15.6-27.497-23.078
		c-3.912-3.134-6.222-6.352-6.439-11.591c-0.232-5.591-1.249-11.225-2.57-16.684c-8.902-36.786-16.38-73.868-27.889-110.081
		c-9.441-29.704-15.308-60.532-23.094-90.777c-8.097-31.448-21.21-60.862-37.964-88.585c-11.684-19.333-24.601-37.926-36.15-57.334
		c-8.154-13.705-14.832-28.283-22.364-42.366c-12.218-22.844-29.529-41.743-47.098-60.448
		c-17.323-18.445-34.258-37.185-47.952-58.657c-5.162-8.094-11.165-15.796-17.681-22.847c-12.67-13.711-25.276-27.359-33.508-44.384
		c-2.167-4.481-4.089-9.151-6.82-13.274c-15.241-23.015-29.912-46.466-46.255-68.681c-27.044-36.757-58.053-70.063-91.039-101.657
		c-29.17-27.938-59.86-53.708-93.646-75.927c-53.714-35.324-111.71-60.103-174.664-73.273c-3.159-0.66-6.227-2.232-9.072-3.846
		c-24.68-14.003-50.488-25.492-77.609-33.755c-50.659-15.433-102.973-19.895-155.522-21.85c-23.963-0.893-47.987-0.138-71.983-0.173
		c-2.475-0.004-4.947-0.306-7.831-0.496c0.475-2.053,0.673-3.355,1.076-4.591c11.433-35.054,18.061-70.813,15.915-107.87
		c-0.326-5.628-0.04-11.366-1.047-16.868c-4.772-26.096-15.988-49.815-26.898-72.355c11.871-22.456,23.713-44.4,35.032-66.61
		c2.638-5.174,4.374-11.159,4.998-16.936c1.21-11.195,1.811-22.509,1.802-33.772c-0.014-17.361-4.591-33.768-15.058-47.652
		c-7.966-10.568-17.59-19.888-26.495-29.745c-12.394-13.721-27.442-23.044-45.583-26.993c-5.309-1.155-8.856-3.648-10.865-8.882
		c-7.19-18.734-19.845-33.604-33.851-47.567c-4.67-4.656-8.744-9.976-12.669-15.303c-14.834-20.131-30.975-39.061-50.03-55.362
		c-24.295-20.784-52.916-34.436-81.271-48.312c-8.12-3.974-17.835-5.653-26.979-6.392c-25.571-2.066-51.02-1.36-76.575,2.72
		c-36.954,5.901-70.214,20.265-101.017,40.624c-24.908,16.462-45.472,37.755-63.369,61.622c-2.15,2.867-4.103,5.542-8.498,6.085
		c-9.857,1.22-19.739,2.804-29.366,5.217c-19.427,4.871-38.082,11.628-54.59,23.571c-11.652,8.43-22.344,17.803-32.459,28
		c-6.727,6.781-11.913,14.339-14.917,23.282c-10.765,32.041-11.399,64.543-3.542,97.247c1.074,4.466,1.628,7.829-1.575,11.867
		c-11.984,15.106-23.406,30.655-35.266,45.861c-19.549,25.066-36.502,51.571-46.65,81.974c-0.502,1.504-1.395,2.879-2.128,4.359
		c-23.097,1.59-44.522,6.432-58.82,25.438c-31.081-9.367-61.454-14.53-92.645-14.095c-16.968,0.237-33.96,0.239-50.891,1.227
		c-23.209,1.354-46.405,3.17-69.537,5.488c-18.494,1.852-36.834,5.235-55.329,7.069c-29.844,2.959-59.267,8.279-88.291,15.513
		c-29.701,7.403-59.234,15.552-88.604,24.179c-23.613,6.937-47.177,14.264-70.223,22.864
		c-38.494,14.365-74.216,34.081-107.848,57.84c-34.579,24.428-68.179,49.693-97.052,81.077
		c-25.617,27.843-47.985,57.955-67.412,90.198c-37.786,62.717-65.64,129.84-86.229,200.03c-2.905,9.904-6.612,19.27-12.255,28.142
		c-9.631,15.14-18.263,30.926-27.051,46.588c-16.599,29.589-32.612,59.514-49.597,88.877
		c-23.992,41.475-44.91,84.399-62.276,129.021c-24.896,63.97-41.593,130.007-51.187,198.055
		c-5.89,41.773-10.137,83.639-12.786,125.674c-1.588,25.208-1.888,50.519-2.064,75.788c-0.141,20.281,0.212,40.602,1.374,60.847
		c1.274,22.191,3.034,44.403,5.846,66.444c3.4,26.651,7.966,53.16,12.413,79.667c0.922,5.497,0.039,9.426-4.004,13.311
		c-9.083,8.727-15.95,19.22-17.324,31.806c-1.223,11.197-1.937,22.922,0.022,33.896c4.015,22.483,9.882,44.643,15.177,66.889
		c2.15,9.033,5.461,17.828,7.102,26.937c5.266,29.225,21.8,49.992,46.959,64.631c5.94,3.457,11.86,6.947,18.083,10.595
		c-0.098,1.228-0.019,2.568-0.332,3.81c-7.203,28.475-9.151,57.697-11.111,86.778c-1.719,25.51-1.724,51.149,0.841,76.763
		c2.485,24.826,5.433,49.497,12.151,73.581c5.827,20.887,12.523,41.548,25.147,59.422c16.238,22.99,35.888,42.855,58.919,59.134
		c27.137,19.181,55.873,33.814,90.709,29.601c1.642-0.199,3.333-0.102,4.995-0.014c12.098,0.635,23.839-0.293,33.246-7.862
		c8.309,6.372,15.892,12.301,23.596,18.066c9.398,7.035,19.997,10.119,31.769,9.844c11.992-0.28,24.017-0.509,35.986,0.072
		c10.556,0.513,20.06-2.159,27.937-8.638c14.905-12.26,29.667-24.821,36.415-44c2.173-6.175,5.104-12.081,7.615-17.939
		c2.235,0,3.552-0.098,4.851,0.015c28.18,2.443,56.386,3.693,84.696,3.71c35.924,0.02,62.327-17.359,82.405-45.012
		c10.777-14.844,16.669-32.544,18.208-51.125c0.957-11.568,1.117-23.212,1.392-34.827c0.298-12.547-2.218-24.389-9.321-35.047
		c-2.126-3.191-3.653-6.784-5.96-11.15c14.408,0.738,25.953-2.857,34.911-12.429c8.498-9.079,16.519-18.606,24.978-28.198
		c-1.801,11.36-3.272,22.832-5.482,34.16c-5.928,30.386-8.748,61.132-10.242,91.964c-1.079,22.272-0.754,44.619-0.739,66.932
		c0.004,5.352-1.106,9.53-5.316,13.171c-14.988,12.958-26.029,29.314-37.276,45.324c-5.452,7.761-9.654,16.755-12.705,25.771
		c-5.884,17.394-8.042,35.574-8.112,53.949c-0.063,16.331,0.199,32.664-0.067,48.99c-0.331,20.284,3.743,39.554,12.012,58.03
		c3.215,7.184,6.107,14.511,9.797,23.329c-5.904,0-10.492,0.394-14.991-0.071c-15.542-1.606-29.687,5.693-44.809,6.84
		c-2.994,0.227-6.197,2.538-8.61,4.672c-6.974,6.163-13.539,12.785-20.366,19.119c-9.083,8.431-13.439,18.735-13.008,31.151
		c0.18,5.153-0.065,10.322-0.106,14.429c-19.453,0-37.424-0.148-55.39,0.117c-3.905,0.058-8.084,0.953-11.621,2.583
		c-8.648,3.985-16.994,8.626-26.185,13.375c-3.262-4.896-7.448-10.069-10.435-15.861c-11.526-22.349-26.306-42.263-43.165-60.854
		c-15.921-17.557-32.254-34.51-52.082-47.799c-12.377-8.296-24.722-16.696-36.56-25.732
		c-39.333-30.021-82.819-51.477-130.206-65.609c-19.037-5.677-38.058-9.187-57.93-8.419c-10.982,0.424-21.993,0.071-32.992,0.077
		c-24.45,0.011-48.277,4.111-71.785,10.62c-34.213,9.474-66.146,24.277-96.812,41.818c-21.068,12.051-41.746,24.815-62.259,37.795
		c-22.161,14.023-39.452,33.645-57.93,51.878c-11.965,11.807-21.679,25.202-28.98,40.323
		c-20.553,42.562-30.987,87.593-31.283,134.755c-0.235,37.61-0.124,75.266,1.405,112.837c1.948,47.894,15.811,92.882,37.524,135.44
		c22.732,44.558,55.835,80.891,92.082,114.631c15.925,14.822,34.568,25.899,52.588,37.854
		c34.119,22.636,71.521,36.487,111.839,42.855c8.21,1.297,16.401,2.715,24.589,4.151c29.166,5.117,58.322,10.207,88.145,8.978
		c11.299-0.466,22.807,0.684,33.872-1.083c13.699-2.187,27.285-5.892,40.484-10.259c33.836-11.195,66.924-23.928,94.449-47.898
		c13.279-11.563,28.431-21.044,41.264-33.041c25.765-24.088,49.461-50.108,71.472-77.844c23.336-29.405,38.791-61.809,45.19-98.598
		c7.29-41.918,14.163-83.9,12.895-126.705c-0.074-2.527,0.453-5.074,0.598-6.559c19.04,0,37.289-0.172,55.531,0.076
		c8.363,0.113,15.994-1.747,22.279-7.163c8.047-6.935,15.875-14.16,23.385-21.672c7.732-7.737,10.647-18.059,13.118-28.37
		c11.206,0,21.831,0.303,32.435-0.07c15.917-0.562,31.154-3.399,43.02-15.479c0.549-0.56,1.77-0.459,1.578-0.415
		c5.171,18.098,9.593,36.149,15.626,53.645c3.192,9.255,8.055,18.458,14.188,26.048c9.167,11.347,20.182,21.191,30.298,31.782
		c10.768,11.276,24.282,15.891,39.439,16.43c7.323,0.261,14.689-0.343,21.988,0.15c8.116,0.548,15.236-1.821,21.511-6.451
		c7.206-5.317,14.182-11.006,20.833-17.003C1184.254,3100.755,1189.852,3094.582,1195.507,3088.874z"/>
	<path fill-rule="evenodd" d="M1195.507,3088.874c-5.655,5.708-11.252,11.881-17.41,17.433
		c-6.651,5.997-13.627,11.686-20.833,17.003c-6.275,4.63-13.395,6.999-21.511,6.451c-7.299-0.493-14.665,0.11-21.988-0.15
		c-15.157-0.539-28.671-5.153-39.439-16.43c-10.116-10.591-21.131-20.436-30.298-31.782c-6.133-7.59-10.996-16.793-14.188-26.048
		c-6.033-17.495-10.455-35.547-15.626-53.645c0.192-0.044-1.028-0.145-1.578,0.415c-11.866,12.079-27.103,14.917-43.02,15.479
		c-10.604,0.373-21.229,0.07-32.435,0.07c-2.47,10.312-5.385,20.633-13.118,28.37c-7.51,7.512-15.338,14.737-23.385,21.672
		c-6.285,5.416-13.916,7.276-22.279,7.163c-18.243-0.248-36.492-0.076-55.531-0.076c-0.145,1.484-0.672,4.031-0.598,6.559
		c1.269,42.805-5.604,84.787-12.895,126.705c-6.399,36.789-21.854,69.192-45.19,98.598c-22.011,27.735-45.707,53.756-71.472,77.844
		c-12.833,11.997-27.985,21.478-41.264,33.041c-27.525,23.971-60.613,36.703-94.449,47.898
		c-13.199,4.367-26.785,8.072-40.484,10.259c-11.065,1.767-22.573,0.617-33.872,1.083c-29.823,1.229-58.979-3.86-88.145-8.978
		c-8.188-1.437-16.379-2.854-24.589-4.151c-40.318-6.368-77.721-20.22-111.839-42.855c-18.021-11.955-36.663-23.032-52.588-37.854
		c-36.247-33.74-69.35-70.073-92.082-114.631c-21.713-42.559-35.576-87.547-37.524-135.44c-1.528-37.571-1.64-75.227-1.405-112.837
		c0.295-47.162,10.73-92.193,31.283-134.755c7.302-15.121,17.016-28.517,28.98-40.323c18.478-18.233,35.77-37.854,57.93-51.878
		c20.513-12.979,41.19-25.744,62.259-37.795c30.666-17.541,62.599-32.345,96.812-41.818c23.508-6.509,47.335-10.609,71.785-10.62
		c10.999-0.006,22.01,0.347,32.992-0.077c19.873-0.768,38.894,2.742,57.93,8.419c47.387,14.133,90.873,35.589,130.206,65.609
		c11.838,9.036,24.183,17.437,36.56,25.732c19.828,13.289,36.161,30.242,52.082,47.799c16.858,18.591,31.639,38.505,43.165,60.854
		c2.987,5.792,7.173,10.966,10.435,15.861c9.19-4.749,17.536-9.39,26.185-13.375c3.537-1.63,7.716-2.525,11.621-2.583
		c17.965-0.266,35.937-0.117,55.39-0.117c0.041-4.106,0.286-9.275,0.106-14.429c-0.431-12.416,3.925-22.721,13.008-31.151
		c6.827-6.334,13.392-12.956,20.366-19.119c2.414-2.134,5.617-4.445,8.61-4.672c15.122-1.146,29.267-8.446,44.809-6.84
		c4.5,0.465,9.087,0.071,14.991,0.071c-3.69-8.818-6.582-16.146-9.797-23.329c-8.27-18.477-12.343-37.746-12.012-58.03
		c0.267-16.326,0.005-32.659,0.067-48.99c0.07-18.375,2.229-36.556,8.112-53.949c3.05-9.017,7.253-18.011,12.705-25.771
		c11.248-16.01,22.288-32.366,37.276-45.324c4.209-3.641,5.32-7.819,5.316-13.171c-0.015-22.313-0.34-44.659,0.739-66.932
		c1.494-30.832,4.313-61.578,10.242-91.964c2.209-11.328,3.681-22.8,5.482-34.16c-8.459,9.592-16.479,19.119-24.978,28.198
		c-8.958,9.571-20.502,13.167-34.911,12.429c2.307,4.366,3.833,7.959,5.96,11.15c7.103,10.658,9.619,22.5,9.321,35.047
		c-0.274,11.615-0.435,23.259-1.392,34.827c-1.539,18.581-7.431,36.281-18.208,51.125c-20.078,27.652-46.48,45.031-82.405,45.012
		c-28.31-0.017-56.516-1.267-84.696-3.71c-1.299-0.112-2.616-0.015-4.851-0.015c-2.511,5.858-5.442,11.765-7.615,17.939
		c-6.748,19.179-21.51,31.74-36.415,44c-7.877,6.479-17.381,9.15-27.937,8.638c-11.97-0.581-23.995-0.353-35.986-0.072
		c-11.772,0.275-22.37-2.809-31.769-9.844c-7.704-5.766-15.287-11.694-23.596-18.066c-9.407,7.569-21.148,8.497-33.246,7.862
		c-1.662-0.088-3.353-0.186-4.995,0.014c-34.836,4.214-63.572-10.42-90.709-29.601c-23.031-16.278-42.681-36.144-58.919-59.134
		c-12.625-17.874-19.321-38.535-25.147-59.422c-6.719-24.084-9.667-48.755-12.151-73.581c-2.564-25.613-2.56-51.253-0.841-76.763
		c1.959-29.081,3.908-58.304,11.111-86.778c0.313-1.241,0.234-2.582,0.332-3.81c-6.222-3.647-12.142-7.138-18.083-10.595
		c-25.159-14.639-41.693-35.406-46.959-64.631c-1.641-9.108-4.952-17.903-7.102-26.937c-5.295-22.246-11.162-44.405-15.177-66.889
		c-1.959-10.974-1.246-22.698-0.022-33.896c1.374-12.586,8.241-23.079,17.324-31.806c4.043-3.885,4.926-7.813,4.004-13.311
		c-4.447-26.507-9.013-53.016-12.413-79.667c-2.812-22.041-4.572-44.253-5.846-66.444c-1.162-20.245-1.514-40.565-1.374-60.847
		c0.176-25.269,0.476-50.58,2.064-75.788c2.648-42.035,6.896-83.9,12.786-125.674c9.594-68.048,26.292-134.085,51.187-198.055
		c17.366-44.622,38.284-87.546,62.276-129.021c16.985-29.363,32.998-59.289,49.597-88.877c8.788-15.662,17.42-31.448,27.051-46.588
		c5.643-8.872,9.351-18.238,12.255-28.142c20.589-70.189,48.443-137.313,86.229-200.03c19.426-32.243,41.794-62.354,67.412-90.198
		c28.873-31.384,62.474-56.649,97.052-81.077c33.631-23.76,69.354-43.475,107.848-57.84c23.046-8.601,46.609-15.928,70.223-22.864
		c29.371-8.627,58.904-16.775,88.604-24.179c29.023-7.233,58.447-12.553,88.291-15.513c18.495-1.834,36.835-5.217,55.329-7.069
		c23.132-2.317,46.328-4.134,69.537-5.488c16.931-0.987,33.923-0.989,50.891-1.227c31.19-0.435,61.563,4.728,92.645,14.095
		c14.297-19.007,35.723-23.849,58.82-25.438c0.733-1.48,1.626-2.855,2.128-4.359c10.148-30.403,27.101-56.908,46.65-81.974
		c11.86-15.206,23.282-30.755,35.266-45.861c3.203-4.038,2.649-7.4,1.575-11.867c-7.856-32.704-7.223-65.206,3.542-97.247
		c3.005-8.943,8.19-16.501,14.917-23.282c10.116-10.197,20.808-19.57,32.459-28c16.508-11.943,35.163-18.701,54.59-23.571
		c9.627-2.414,19.508-3.998,29.366-5.217c4.395-0.543,6.348-3.218,8.498-6.085c17.897-23.867,38.461-45.16,63.369-61.622
		c30.803-20.359,64.063-34.723,101.017-40.624c25.556-4.081,51.004-4.786,76.575-2.72c9.145,0.738,18.859,2.417,26.979,6.392
		c28.354,13.875,56.976,27.528,81.271,48.312c19.056,16.302,35.196,35.231,50.03,55.362c3.925,5.327,7.999,10.647,12.669,15.303
		c14.006,13.964,26.66,28.833,33.851,47.567c2.009,5.234,5.557,7.728,10.865,8.882c18.141,3.949,33.189,13.272,45.583,26.993
		c8.905,9.857,18.529,19.177,26.495,29.745c10.467,13.885,15.044,30.291,15.058,47.652c0.009,11.263-0.592,22.577-1.802,33.772
		c-0.624,5.777-2.36,11.761-4.998,16.936c-11.319,22.21-23.161,44.154-35.032,66.61c10.91,22.54,22.126,46.259,26.898,72.355
		c1.007,5.502,0.721,11.24,1.047,16.868c2.146,37.057-4.482,72.816-15.915,107.87c-0.403,1.236-0.602,2.539-1.076,4.591
		c2.884,0.19,5.356,0.492,7.831,0.496c23.996,0.035,48.021-0.72,71.983,0.173c52.55,1.955,104.863,6.417,155.522,21.85
		c27.121,8.263,52.93,19.751,77.609,33.755c2.846,1.614,5.913,3.186,9.072,3.846c62.954,13.17,120.95,37.95,174.664,73.273
		c33.786,22.219,64.477,47.989,93.646,75.927c32.986,31.595,63.995,64.9,91.039,101.657c16.343,22.215,31.014,45.667,46.255,68.681
		c2.731,4.124,4.653,8.793,6.82,13.274c8.231,17.025,20.838,30.673,33.508,44.384c6.516,7.051,12.519,14.753,17.681,22.847
		c13.694,21.472,30.629,40.212,47.952,58.657c17.568,18.705,34.88,37.604,47.098,60.448c7.532,14.083,14.21,28.661,22.364,42.366
		c11.55,19.409,24.467,38.001,36.15,57.334c16.754,27.723,29.867,57.138,37.964,88.585c7.786,30.245,13.652,61.073,23.094,90.777
		c11.509,36.213,18.986,73.295,27.889,110.081c1.321,5.458,2.338,11.092,2.57,16.684c0.218,5.239,2.527,8.457,6.439,11.591
		c9.339,7.478,18.105,15.673,27.497,23.078c11.951,9.422,16.971,22.749,20.802,36.485c7.829,28.057,7.635,56.414,1.319,84.782
		c-1.079,4.851-2.495,9.663-3.072,14.573c-0.276,2.354,0.685,5.058,1.716,7.316c2.463,5.394,5.794,10.431,7.894,15.945
		c6.155,16.169,16.36,29.566,27.654,42.34c12.983,14.683,25.596,29.698,38.808,44.17c7.61,8.337,16.448,15.549,24.091,23.86
		c12.142,13.206,23.889,26.783,35.522,40.443c7.79,9.148,8.383,20.696,9.405,31.958c0.298,3.289,0.046,6.629,0.046,10.75
		c15.032,2.772,25.065,12.73,35.385,22.76c10.029,9.747,12.191,22.262,12.892,34.639c1.051,18.578,0.424,37.307-0.578,55.913
		c-0.319,5.925-2.798,12.75-6.559,17.275c-9.565,11.508-20.404,21.911-34.303,28.485c-7.209,3.41-14.171,7.344-22.034,11.453
		c3.763,19.72,7.521,39.416,11.409,59.801c6.169,0.524,12.397,0.896,18.579,1.649c2.896,0.353,6.186,0.745,8.47,2.319
		c11.547,7.958,22.521,16.841,28.379,29.965c7.523,16.854,10.796,34.677,11.247,53.253c0.305,12.542,2.772,25.025,4.155,37.548
		c0.868,7.86,1.52,15.744,2.386,24.851c4.598,0,8.819,0.029,13.04-0.006c6.89-0.059,13.246,1.49,18.294,6.47
		c7.326,7.228,14.932,14.234,21.602,22.032c2.84,3.319,4.938,8.356,5.089,12.693c0.511,14.565,2.918,29.479-1.488,43.66
		c-7.238,23.295-21.526,40.291-46.49,45.831c-5.217,1.158-8.441,4.013-12.1,7.688c-12.664,12.719-25.565,25.291-39.306,36.809
		c-6.181,5.181-14.258,8.597-22,11.318c-19.511,6.856-39.54,10.1-60.467,11.148c-25.605,1.285-51.171,2.125-76.79,2.466
		c-7.906,0.105-14.339-2.764-20.239-7.103c-12.304-9.049-18.665-21.763-22.097-36.44c-2.024-8.661-4.864-17.213-8.18-25.477
		c-7.974-19.879-12.778-40.555-15.92-61.609c-2.443-16.375-3.947-32.891-5.851-49.347c-1.139-9.84-2.244-19.682-3.438-30.163
		c-2.487-0.275-5.048-0.883-7.581-0.788c-25.379,0.948-46.906-7.773-64.678-25.766c-8.188-8.288-16.251-16.709-24.086-25.329
		c-15.783-17.364-21.684-38.525-22.627-61.367c-0.377-9.17-0.061-18.37-0.061-29.051c-3.052,1.925-4.789,2.72-6.158,3.932
		c-10.884,9.635-23.19,16.705-37.222,20.579c-3.476,0.961-7.135,1.693-10.723,1.752c-28.965,0.477-57.848-0.731-86.649-4.113
		c-13.592-1.596-25.443-7.506-37.192-13.738c-14.99-7.952-29.358-16.678-42.188-28.153c-13.579-12.145-20.853-27.35-25.683-44.178
		c-3.104-10.809-5.604-21.792-8.368-32.674c-12.964,7.97-25.945,15.949-39.843,24.493c4.757,4.792,9.915,9.764,14.817,14.977
		c8.251,8.774,15.875,18.008,18.409,30.253c0.737,3.558,1.321,7.204,1.423,10.825c0.216,7.66-0.656,15.411,0.203,22.979
		c2.626,23.137-8.418,40.475-23.257,56.073c-10.496,11.035-21.76,21.339-31.902,31.214c5.769,6.25,11.423,12.771,17.497,18.875
		c11.85,11.906,18.537,25.737,17.589,42.895c-0.368,6.646-0.184,13.33-0.038,19.994c0.497,22.655-8.964,41.252-23.682,57.561
		c-4.207,4.662-9.307,8.518-15.195,13.821c16.119,7.32,25.616,19.487,36.559,30.01c10.442,10.041,14.86,22.757,15.508,36.761
		c0.555,11.973,0.445,24.003,0.023,35.985c-0.454,12.931-5.143,24.845-12.06,35.469c-13.022,19.997-29.935,36.404-49.692,49.798
		c-3.258,2.209-6.934,3.801-11.246,6.125c2.524,0.785,4.245,1.747,5.994,1.798c12.086,0.348,21.648,6.407,30.163,13.989
		c10.436,9.293,20.585,18.976,30.148,29.156c5.625,5.987,9.872,13.268,15.011,20.341c-0.195-0.08,0.121,0.173,0.415,0.15
		c19.757-1.512,37.063,6.359,54.216,14.438c48.01,22.608,87.171,55.775,117.457,99.362c12.221,17.586,18.133,37.5,21.681,58.386
		c4.782,28.155,10.63,56.141,14.855,84.373c2.938,19.647,4.442,39.557,5.622,59.407c1.143,19.237,1.232,38.547,1.463,57.829
		c0.408,34.383-8.55,66.078-25.859,95.943c-15.398,26.568-34.98,49.288-57.743,69.503c-10.423,9.256-21.053,18.309-31.977,26.964
		c-22.789,18.058-49.034,26.859-77.83,30.375c-48.692,5.943-97.485,7.872-146.44,6.602c-27.681-0.718-54.879-5.194-81.729-11.974
		c-29.921-7.554-57.839-19.705-83.823-36.231c-24.438-15.542-44.41-35.979-61.924-58.793c-8.082-10.528-15.113-21.873-22.477-32.942
		c-12.452-18.721-17.825-40.011-21.264-61.763c-6.615-41.841-8.923-84.042-5.906-126.263c2.44-34.15,9.282-67.756,19.1-100.585
		c7.515-25.13,20.763-47.355,36.865-68.022c15.362-19.715,31.426-38.67,50.249-55.265c8.426-7.428,17.8-12.597,28.107-16.604
		c17.312-6.73,34.53-13.704,51.562-20.485c9.509-37.894,36.967-58.765,70.113-76.112c-20.716-2.092-31.731-17.308-43.637-30.506
		c-9.961-11.041-19.092-23.23-21.742-38.676c-0.672-3.914-1.358-7.871-1.472-11.824c-0.229-7.993,0.129-16.001-0.105-23.993
		c-0.777-26.479,8.422-48.765,27.601-67.01c4.785-4.552,9.354-9.33,14.721-14.703c-4.931-4.953-9.377-9.354-13.748-13.825
		c-11.309-11.569-20.347-24.639-25.404-40.114c-1.42-4.345-2.145-9.048-2.359-13.625c-0.374-7.981,0.438-16.037-0.214-23.982
		c-1.496-18.246,5.891-33.169,17.023-46.517c8.08-9.688,17.083-18.605,25.661-27.88c1.093-1.181,2.103-2.437,3.75-4.356
		c-5.836-5.852-11.504-11.386-17.003-17.083c-11.739-12.163-19.494-25.893-18.104-43.665c0.647-8.281,0.487-16.678,0.007-24.981
		c-0.498-8.621,1.702-16.428,5.179-24.109c10.857-23.998,28.319-42.482,48.862-58.313c3.629-2.795,8.065-4.541,13.257-7.39
		c-4.215-4.311-8.074-8.768-12.459-12.629c-7.383-6.502-12.605-14.565-17.507-22.89c-4.461-7.578-6.908-15.655-6.652-24.662
		c0.357-12.654-0.389-25.349,0.196-37.986c1.017-21.966,6.453-42.75,19.671-60.774c10.396-14.179,23.911-25.056,39.305-33.253
		c5.037-2.683,11.456-2.896,17.303-3.879c2.768-0.465,5.679-0.079,9.286-1.934c-4.12-4.149-7.93-8.678-12.424-12.373
		c-10.483-8.618-13.344-20.278-13.865-32.91c-0.302-7.319,0.326-14.687-0.152-21.987c-0.633-9.643,2.531-17.683,8.992-24.522
		c8.231-8.711,16.656-17.242,24.983-25.865c1.381-1.43,2.691-2.926,3.699-4.024c-1.051-7.313-1.829-14.183-3.135-20.95
		c-0.399-2.069-1.912-4.21-3.484-5.726c-43.119-41.571-77.831-90.019-112.885-138.162c-8.021-11.016-15.159-22.682-22.527-34.162
		c-2.771-4.318-6.084-7.198-11.028-9.338c-20.44-8.85-40.579-18.397-60.834-27.679c-3.257-1.493-6.538-2.94-10.027-4.506
		c-2.583,5.775-2.861,10.587-1.93,16.586c1.67,10.75,0.902,21.907,0.734,32.887c-0.031,2.001-1.744,4.247-3.218,5.903
		c-4.418,4.968-8.66,10.247-13.789,14.392c-6.965,5.627-10.905,12.85-14.363,20.8c-23.263,53.476-53.597,102.456-92.78,145.849
		c-3.643,4.033-6.247,9.32-8.27,14.445c-7.346,18.604-15.852,36.563-26.112,53.778c-11.063,18.563-20.38,38.224-32.182,56.279
		c-27.566,42.17-58.988,81.353-95.534,116.21c-4.733,4.515-8.017,9.294-9.275,15.885c-4.269,22.35-15.744,41.75-27.566,60.508
		c-20.746,32.92-43.076,64.84-64.548,97.309c-2.069,3.128-3.891,7.161-3.917,10.787c-0.256,35.919-2.552,71.687-6.444,107.388
		c-3.453,31.667-6.641,63.365-9.581,95.084c-1.379,14.874-1.971,29.824-2.796,44.746c-1.303,23.539-2.642,47.079-3.713,70.63
		c-1.846,40.564-3.837,81.158-1.501,121.749c1.027,17.861,3.501,35.655,5.809,53.416c0.763,5.864,2.733,11.647,4.734,17.259
		c3.262,9.151,5.982,18.286,5.377,28.187c-0.345,5.646-0.18,11.331-0.041,16.993c0.513,21.045-5.949,38.412-25.95,48.553
		c2.251,16.177,2.62,32.118,9.074,47.085c3.501,8.116,7.938,13.337,17.311,15.736c38.635,9.892,77.197,20.157,115.447,31.437
		c40.621,11.978,75.792,33.675,105.481,63.927c15.057,15.343,25.235,34.157,29.053,54.863c4.76,25.816-0.823,49.336-20.462,69.596
		c-19.104,19.71-41.217,28.357-67.827,27.585c-11.611-0.337-23.221-1.034-34.803-1.941c-4.158-0.326-6.435,1.003-9.072,4.286
		c-7.058,8.786-14.449,17.382-22.444,25.312c-6.395,6.342-15.015,8.392-23.933,8.352c-11.986-0.054-23.974-0.226-35.951-0.608
		c-3.598-0.114-6.126,0.693-8.708,3.483c-7.915,8.554-16.14,16.83-24.447,25.007c-9.647,9.498-21.061,14.643-34.938,14.225
		c-15.271-0.461-30.497,0.459-45.614-3.679c-14.284-3.91-27.466-9.987-40.472-16.724c-3.224-1.671-6.269-3.739-9.6-5.142
		c-22.462-9.457-40.849-24.723-58.78-40.719c-8.674-7.737-17.384-15.484-26.591-22.56c-16.119-12.388-34.286-20.102-54.598-22.896
		c-10.851-1.492-21.564-4.02-32.313-6.219c-13.049-2.667-26.095-4.367-39.528-4.448c-8.793-0.053-17.988-2.07-26.266-5.173
		c-17.167-6.435-32.833-15.451-46.527-28.251c-15.875-14.837-28.393-31.686-36.378-51.742c-2.653-6.662-4.457-13.997-4.898-21.132
		c-0.78-12.617-0.8-25.353-0.021-37.97c0.547-8.849,2.948-17.581,4.774-27.776c-6.751-1.135-14.083-3.284-21.458-3.444
		c-28.796-0.628-52.07-12.254-70.539-33.974c-1.618-1.902-2.865-4.506-3.291-6.955c-0.907-5.214-1.422-10.53-1.636-15.823
		c-0.992-24.575-1.833-49.156-2.713-73.735c-0.679-18.93-1.01-37.878-2.084-56.784c-1.431-25.178-3.483-50.32-5.176-75.484
		c-1.428-21.198-2.712-42.407-4.094-63.608c-0.15-2.314-0.524-4.613-2.034-7.238c-0.791,2.646-1.73,5.255-2.349,7.939
		c-11.703,50.869-28.134,99.889-57.814,143.437c-8.021,11.768-16.99,23.083-26.773,33.423c-29.32,30.992-59.391,61.25-96.917,82.669
		c-7.795,4.449-15.733,8.646-24.737,13.58c0,5.444-0.128,11.365,0.027,17.277c0.276,10.529-2.746,19.45-10.986,26.606
		c-6.706,5.824-12.117,12.768-21.722,15.059c-4.608,1.099-8.439,6.197-12.216,9.898c-7.271,7.125-15.46,10.8-25.927,9.656
		c-9.868-1.078-19.831-1.373-29.762-1.711c-2.063-0.069-4.774,0.566-6.165,1.924c-11.728,11.455-26.388,12.928-41.609,12.818
		c-13.941-0.1-28.134,1.138-41.484-3.649C1211.64,3098.284,1204.343,3093.456,1195.507,3088.874z"/>
</g>
</svg>
