<?xml version="1.0" encoding="utf-8"?>
<!-- Generator: Adobe Illustrator 16.0.2, SVG Export Plug-In . SVG Version: 6.00 Build 0)  -->
<!DOCTYPE svg PUBLIC "-//W3C//DTD SVG 1.1 Tiny//EN" "http://www.w3.org/Graphics/SVG/1.1/DTD/svg11-tiny.dtd">
<svg version="1.1" baseProfile="tiny" id="Layer_1" xmlns="http://www.w3.org/2000/svg" xmlns:xlink="http://www.w3.org/1999/xlink"
	 x="0px" y="0px" width="3450.568px" height="3671.541px" viewBox="0 0 3450.568 3671.541" xml:space="preserve">
<g>
	<path fill-rule="evenodd" fill="#FFFFFF" d="M2,3675.54C2,2451.026,2,1226.514,2,2c1150.522,0,2301.045,0,3451.567,0
		c0,1224.514,0,2449.026,0,3673.54C2303.045,3675.54,1152.522,3675.54,2,3675.54z M2420.273,2728.408
		c6.853,1.846,13.158,4.679,19.614,5.073c20.241,1.234,40.544,1.406,60.811,2.289c9.328,0.405,17.89-2.119,25.871-6.305
		c31.401-16.464,55.094-40.248,68.856-73.386c7.471-17.99,15.33-35.818,23.441-54.714c3.83,3.163,6.676,5.901,9.889,8.104
		c21.119,14.489,42.092,29.212,63.616,43.074c7.133,4.593,15.551,9.022,23.734,9.798c22.248,2.107,44.657,1.377,65.744-7.536
		c7.881-3.332,16.361-6.753,22.509-12.384c14.669-13.438,29.172-27.149,39.881-44.407c5.908-9.521,13.09-18.506,20.946-26.507
		c15.084-15.361,25.331-32.915,30.502-53.908c2.353-9.556,6.912-18.648,11.124-27.645c5.761-12.304,13.354-23.878,17.938-36.567
		c5.037-13.944,7.918-28.722,11.062-43.282c2.841-13.164,4.771-26.525,7.404-41.521c3.25,3.268,6.31,5.359,8.042,8.246
		c9.611,16.026,24.574,22.943,42.244,23.914c19.268,1.058,38.612,0.661,57.921,1.028c9.83,0.187,18.104-3.422,25.11-10.004
		c5.827-5.474,11.193-11.438,17.038-16.89c13.195-12.306,20.262-27.747,22.104-45.307c1.106-10.547,0.661-21.334,0.022-31.96
		c-0.414-6.881-1.456-14.044-3.927-20.417c-6.855-17.685-15.079-34.695-30.577-46.866c-2.082-1.635-3.832-3.702-5.673-5.631
		c-9.896-10.362-21.716-15.916-36.32-14.972c-4.979,0.321-10.025,0.406-14.987-0.028c-8.342-0.731-15.688,1.76-22.849,5.641
		c-2.912,1.578-6.178,2.506-8.126,3.273c-3.288-11.128-6.266-21.2-9.27-31.362c19.017-24.491,35.616-54.187,48.225-85.576
		c19.991-49.769,35.866-100.777,45.588-153.549c4.747-25.768,8.653-51.716,12.043-77.7c2.228-17.084,2.936-34.37,4.171-51.577
		c1.402-19.532,3.714-39.075,3.727-58.615c0.026-44.595-0.738-89.2-1.928-133.78c-0.594-22.212-1.894-44.492-4.534-66.542
		c-4.496-37.55-9.923-75.002-15.654-112.388c-7.257-47.341-18.111-93.831-33.436-139.312
		c-15.411-45.739-31.893-90.915-57.207-132.339c-1.127-1.846-1.777-4.442-1.559-6.577c1.034-10.093-2.53-19.083-6.623-27.807
		c-5.079-10.829-10.078-21.81-16.402-31.917c-18.171-29.044-36.522-57.999-55.669-86.405
		c-29.405-43.625-62.422-84.559-97.745-123.453c-27.074-29.813-55.849-58.108-84.374-86.569
		c-14.349-14.317-29.635-27.718-44.831-41.156c-32.942-29.131-68.547-54.869-104.164-80.545
		c-24.043-17.332-48.785-33.776-75.654-46.367c-27.967-13.103-56.307-25.52-85.019-36.885
		c-30.265-11.979-61.445-21.484-93.433-27.85c-39.891-7.938-80.175-12.075-120.914-11.256c-21.97,0.441-43.957,0.251-65.912,1.036
		c-12.204,0.437-24.356,2.292-34.988,3.354c-7.625-8.514-14.325-16.282-21.369-23.725c-2.93-3.096-4.455-6.165-4.316-10.55
		c0.6-19.041-0.045-37.89-12.845-54.811c4.47-4.029,8.764-7.291,12.305-11.229c5.547-6.167,11.24-12.368,15.708-19.304
		c10.837-16.818,17.124-35.152,16.279-55.549c-0.604-14.602-0.62-29.228-1.268-43.827c-1.077-24.292-11.592-43.48-30.076-59.487
		c-16.854-14.594-35.428-23.213-57.624-23.793c-10.99-0.288-21.994-0.013-32.991-0.084c-2.578-0.017-5.153-0.402-8.23-0.66
		c-1.194-3.774-2.274-7.23-3.379-10.676c-4.586-14.302-10.567-27.904-18.462-40.777c-12.733-20.762-29.893-37.32-48.328-52.757
		c-13.259-11.104-26.175-23.124-43.528-27.383c-15.791-3.875-31.772-8.024-47.887-9.294c-25.504-2.01-51.186-2.01-76.797-2.22
		c-7.534-0.062-15.191,1.574-22.61,3.237c-21.137,4.739-38.683,16.751-53.713,31.268c-26.088,25.196-52.868,49.839-75.825,78.106
		c-2.966,3.653-6.21,5.144-11,5.33c-14.936,0.577-29.917,1.201-44.737,2.997c-7.038,0.853-14.673,3.047-20.439,6.978
		c-20.931,14.268-36.757,33.485-49.321,55.356c-1.754,3.055-2.863,6.933-2.904,10.445c-0.236,19.963-0.505,39.95,0.299,59.885
		c0.199,4.948-0.668,7.891-3.838,11.278c-10.442,11.157-21.558,21.877-30.616,34.098c-18.663,25.179-33.713,52.616-46.623,81.198
		c-3.384,7.494-6.892,14.932-10.392,22.502c-5.673,0-10.844-0.828-15.595,0.227c-5.053,1.12-9.66,4.155-14.566,6.089
		c-2.135,0.842-4.579,0.864-6.799,1.535c-4.699,1.421-9.786,2.265-13.93,4.686c-14.92,8.718-26.979,20.394-34.723,36.139
		c-4.666,9.486-9.483,18.898-14.263,28.404c-8.548,0-16.541-0.154-24.525,0.049c-6.642,0.169-13.388,0.111-19.888,1.272
		c-31.107,5.56-62.016,12.288-91.851,22.739c-30.738,10.768-60.968,22.981-91.505,34.334c-4.894,1.819-10.18,3.01-15.377,3.487
		c-9.955,0.915-18.621,3.943-25.736,11.332c-2.917,3.029-6.52,5.773-10.33,7.506c-53.816,24.478-104.627,54.169-151.857,89.625
		c-32.429,24.344-64.196,49.665-95.087,75.927c-19.458,16.544-37.714,34.767-54.821,53.757
		c-38.349,42.57-68.561,90.541-91.04,143.358c-5.307,12.469-12.211,24.255-17.606,36.692c-3.66,8.436-5.777,17.526-8.914,26.205
		c-12.996,35.953-26.086,71.871-39.245,107.764c-1.121,3.059-2.484,6.297-4.604,8.679c-18.346,20.609-36.512,41.4-55.464,61.442
		c-29.263,30.943-57.156,62.988-82.389,97.32c-16.822,22.889-31.001,47.251-41.377,73.744c-5.072,12.952-9.997,25.961-14.409,37.439
		c-22.716,11.528-36.421,30.092-49.087,49.159c-6.086,1.373-11.92,2.571-17.693,4.018c-11.103,2.783-17.592,11.771-24.705,19.495
		c-4.594,4.99-8.19,11.236-10.96,17.483c-3.508,7.916-4.955,16.478-4.568,25.329c0.364,8.315,0.329,16.67,0.012,24.989
		c-0.354,9.307,3.142,16.952,9.489,23.305c9.879,9.887,20.071,19.461,30.038,29.263c1.597,1.57,2.752,3.604,4.037,5.474
		c2.406,3.5,4.276,7.52,7.226,10.466c7.47,7.463,15.414,14.451,23.506,21.942c-1.524,29.192-3.081,58.978-4.68,89.599
		c-22.874,6.95-37.801,24.29-53.703,40.371c-0.234,0.237-0.484,0.46-0.706,0.708c-12.417,13.918-23.88,28.372-32.487,45.188
		c-20.382,39.822-34.87,82.029-50.535,123.714c-10.323,27.469-14.901,56.299-14.337,86.009c0.481,25.341,3.481,50.346,6.587,75.39
		c3.062,24.687,12.951,45.898,32.309,62.184c2.541,2.137,4.823,4.604,7.073,7.06c6.218,6.782,13.924,9.995,23.073,9.976
		c11.664-0.025,23.381,0.698,34.981-0.165c19.247-1.433,37.479-5.982,50.769-21.771c2.301-2.734,5.115-5.037,8.76-8.577
		c1.393,4.778,2.586,8.12,3.327,11.56c1.594,7.404,4.944,13.66,10.736,18.673c3.267,2.828,6.022,6.247,9.287,9.079
		c2.194,1.902,4.694,3.718,7.372,4.754c18.465,7.141,37.494,11.234,57.452,10.506c9.593-0.35,19.208-0.061,28.415-0.061
		c1.488,2.688,2.251,4.562,3.432,6.119c6.439,8.49,12.81,17.694,23.271,21.036c9.455,3.022,17.932,6.629,26.471,12.143
		c22.817,14.732,48.756,18.794,75.667,16.563c2.238-0.186,4.728-0.9,6.532-2.174c12.008-8.471,23.34-17.769,29.812-31.396
		c13.183-27.761,18.161-57.456,20.226-87.832c1.212-17.835,2.855-35.642,4.114-51.104c14.024-11.125,26.6-20.86,38.888-30.948
		c6.415-5.266,12.428-11.037,18.431-16.781c12.026-11.509,24.02-23.056,35.798-34.818c2.773-2.769,5.42-6.16,6.766-9.771
		c3.93-10.548,8.704-21.119,10.368-32.102c3.472-22.918,5.355-46.089,7.487-69.192c0.912-9.891,0.812-19.875,1.174-29.886
		c13.31-2.771,24.091-8.933,33.807-18.15c13.302-12.618,19.92-28.825,27.207-44.839c3.023-6.645,5.659-13.497,9.114-19.909
		c6.143-11.401,12.897-22.471,19.142-33.819c2.383-4.333,4.5-8.915,5.989-13.621c5.162-16.303,6.719-33.053,6.49-50.152
		c-0.112-8.354-0.421-15.839-8.038-21.072c-1.24-0.851-1.835-2.642-2.827-4.147c29.078-19.525,57.84-38.837,87.007-58.422
		c0.534,1.818,1.048,3.353,1.436,4.917c10.1,40.711,21.28,81.048,41.85,118.029c2.504,4.503,1.842,8.88,1.322,13.503
		c-1.073,9.556-2.568,19.114-2.831,28.701c-0.599,21.97-0.953,43.961-0.678,65.937c0.283,22.62,2.925,45.05,7.613,67.222
		c8.862,41.917,26.594,79.942,50.089,115.523c2.684,4.066,4.546,8.825,6.018,13.506c2.687,8.551,4.398,17.416,7.219,25.917
		c10.106,30.457,25.054,58.721,40.731,86.537c6.32,11.215,14.822,21.182,21.951,31.969c1.638,2.479,2.437,6,2.389,9.022
		c-0.29,18.284-1.227,36.561-1.397,54.846c-0.26,27.658,0.239,55.327-0.189,82.98c-0.236,15.261-1.19,30.555-2.728,45.742
		c-3.539,34.965-7.734,69.861-11.465,104.808c-2.853,26.713-5.507,53.448-8.046,80.193c-1.726,18.18-2.668,36.441-4.726,54.581
		c-3.328,29.336-6.948,58.648-11.064,87.884c-4.721,33.528-9.602,67.051-15.408,100.401c-3.692,21.202-10.041,41.944-13.632,63.158
		c-3.175,18.755-8.11,36.928-13.375,55.111c-5.95,20.545-13.913,40.316-24.675,58.678c-4.179,7.13-5.679,13.809-5.445,21.535
		c0.157,5.203,0.029,10.416,0.029,15.116c-9.522-0.282-17.798-1.033-26.027-0.674c-23.227,1.016-46.437,2.452-69.646,3.822
		c-2.951,0.174-5.97,0.609-8.783,1.485c-17.887,5.572-35.146,12.755-50.119,24.127c-10.795,8.199-22.438,16.555-26.641,30.195
		c-3.79,12.301-7.146,25.174-7.73,37.932c-1.167,25.538-0.527,51.129,3.456,76.586c3.696,23.621,11.025,45.089,28.878,62.062
		c2.569,2.442,3.216,6.977,4.565,10.612c1.366,3.682,1.46,8.448,3.916,11.01c11.046,11.52,21.686,23.838,34.412,33.244
		c24.132,17.836,50.917,31.256,79.292,41.393c4.496,1.606,8.649,4.848,12.244,8.119c4.353,3.963,9.062,6.174,14.79,7.553
		c28.518,6.864,57.515,6.569,86.427,5.495c32.194-1.196,64.334-3.839,96.5-5.783c9.954-0.602,19.959-0.578,29.874-1.543
		c20.167-1.962,40.274-4.52,60.429-6.612c20.152-2.093,40.407-3.349,60.473-6.041c16.42-2.202,32.89-4.825,48.314-11.613
		c5.445-2.396,11.089-4.467,16.813-6.072c9.956-2.794,20.114-5.104,27.621-12.907c12.453-12.942,24.813-25.977,37.018-39.151
		c1.96-2.114,3.21-5.043,4.286-7.792c4.886-12.486,7.267-25.519,7.535-38.891c0.367-18.313,0.344-36.638,0.851-54.947
		c0.082-2.986,1.238-6.74,3.275-8.729c6.138-5.994,12.958-11.292,19.508-16.865c5.318-4.524,8.656-4.521,13.743,0.301
		c3.87,3.666,7.642,7.442,11.324,11.297c7.068,7.4,15.591,11.072,25.883,10.76c5.994-0.182,12.008-0.271,17.992,0.023
		c9.123,0.449,16.984-2.659,24.211-7.822c2.946-2.105,5.75-4.411,8.715-6.699c1.779,1.256,3.592,2.206,4.989,3.58
		c7.594,7.472,16.576,10.351,27.235,9.87c14.49-0.654,29.019-0.467,43.932-0.646c0.111,2.051,0.386,4.35,0.338,6.643
		c-0.305,14.542,3.235,28.272,8.226,41.807c14.107,38.247,40.643,67.138,72.083,91.121c21.316,16.26,45.38,28.98,68.53,42.755
		c24.023,14.295,48.478,27.753,75.951,34.676c25.522,6.431,51.288,11.4,77.598,12.483c17.934,0.737,35.962,0.593,53.503-4.271
		c28.366-7.865,55.042-19.758,80.294-34.748c8.529-5.063,16.921-10.724,24.274-17.335c24.891-22.381,46.159-47.878,63.164-76.808
		c8.628-14.677,16.44-29.735,20.563-46.396c3.911-15.799,7.885-31.589,11.373-47.483c2.131-9.714,4.219-19.564,4.852-29.448
		c0.828-12.944,0.689-26.004,0.087-38.975c-0.87-18.699-3.384-37.214-14.19-53.258c-17.789-26.41-32.907-54.87-57.721-75.977
		c-2.504-2.131-4.408-4.968-6.584-7.485c-8.829-10.223-17.656-20.446-27.441-31.779c14.039-5.228,27.221-10.136,40.58-15.11
		c1.203,5.813,2.285,10.678,3.209,15.571c1.973,10.466,6.356,19.522,14.724,26.454c2.556,2.116,4.799,4.624,7.092,7.04
		c18.773,19.789,42.113,18.251,65.994,14.135c0.955-0.164,1.869-0.707,2.743-1.184c12.266-6.683,24.669-13.125,36.744-20.135
		c25.435-14.765,46.146-35.329,64.209-57.884c21.122-26.374,30.235-58.037,32.079-91.73c1.695-30.965,0.984-61.839-4.183-92.456
		c-0.953-5.646,0.509-9.438,4.136-13.223C2380.894,2769.702,2400.396,2749.23,2420.273,2728.408z M3020.077,2956.349
		c-6.761,4.739-12.122,7.554-16.3,11.593c-17.164,16.59-35.102,32.638-44.862,55.263c-1.5,3.479-3.64,5.345-7.657,6.762
		c-28.692,10.116-54.496,25.16-77.484,45.358c-20.072,17.635-38.369,36.751-54.388,58.089c-5.372,7.155-10.716,14.333-15.997,21.556
		c-6.253,8.549-12.811,16.908-18.554,25.791c-14.17,21.914-22.87,46.183-28.726,71.425c-3.817,16.455-6.113,33.129-7.253,50.129
		c-1.883,28.059-0.648,55.767,4.615,83.265c5.577,29.129,17.952,55.947,29.802,82.868c9.286,21.097,22.02,39.911,37.223,57.352
		c19.142,21.956,40.167,41.146,65.708,55.61c14.573,8.254,29.555,15.143,45.612,19.145c28.643,7.137,57.671,12.211,87.104,15.371
		c24.364,2.617,48.478,1.574,72.659-0.806c32.707-3.221,62.427-15.77,89.739-32.836c26.265-16.41,49.017-37.585,68.228-62.193
		c7.547-9.667,14.557-19.82,22.75-28.901c13.661-15.139,25.15-31.896,34.667-49.62c20.054-37.352,31.479-77.276,30.31-120.193
		c-0.218-7.992,0.26-16.009-0.087-23.992c-0.96-22.106-1.481-44.269-9.396-65.429c-6.735-18.012-12.705-36.315-19.733-54.207
		c-2.734-6.961-8.083-12.864-11.132-19.741c-9.725-21.942-20.845-42.885-37.776-60.311c-14.357-14.778-27.957-30.455-45.571-41.529
		c-13.362-8.4-27.317-15.858-42.138-24.386c-7.314-36.362-27.104-64.348-65.443-77.132c7.637-4.197,14.966-7.427,21.403-11.93
		c13.163-9.209,24.889-19.631,28.684-36.57c3.749-16.729,4.494-33.561,3.583-50.542c-0.479-8.913-0.625-17.744-3.91-26.461
		c-5.747-15.24-15.298-27.733-26.239-39.277c-4.747-5.008-11.19-8.413-15.914-13.438c-6.609-7.03-14.725-9.721-23.785-11.02
		c-2.703-0.388-5.305-1.482-9.147-2.601c13.15-3.612,25.087-5.226,35.412-13.011c17.918-13.511,32.611-29.067,39.545-50.904
		c4.419-13.918,4.255-28.299,3.476-42.557c-0.956-17.494-6.072-33.801-16.836-48.043c-10.329-13.668-22.445-25.235-37.669-33.355
		c-2.451-1.307-4.724-2.947-7.072-4.43c9.793-9.323,19.197-17.749,27.981-26.777c10.788-11.091,16.961-24.329,16.453-40.204
		c-0.159-4.993,0.016-9.998-0.033-14.996c-0.125-12.854-5.245-23.976-13.812-32.96c-10.739-11.263-22.667-21.385-33.868-32.22
		c-9.243-8.938-19.651-14.434-32.933-13.67c-6.977,0.401-13.994,0.128-20.992,0.057c-7.696-0.077-14.272,2.547-19.64,8.032
		c-11.646,11.9-23.029,24.063-34.924,35.709c-7.403,7.251-10.288,15.921-10.43,25.854c-0.109,7.664,0.188,15.34-0.138,22.991
		c-0.117,2.762-0.691,6.374-2.497,8.018c-4.233,3.854-5.005,8.282-4.771,13.479c0.211,4.657,0.352,9.355-0.037,13.989
		c-0.425,5.082,0.945,9.073,4.984,12.257c1.819,1.435,3.48,3.138,4.943,4.939c3.628,4.471,8.071,6.482,13.928,5.948
		c3.258-0.298,6.914-0.437,9.851,0.722c8.243,3.249,16.208,7.21,24.929,11.184c-17.552,5.258-28.639,18.259-40.2,30.605
		c-6.558,7.003-13.232,14.174-16.173,23.481c-5.896,18.661-10.79,37.507-8.956,57.496c1.007,10.964,4.156,20.836,11.914,28.673
		c10.985,11.101,22.294,21.887,33.604,32.662c10.148,9.672,21.813,16.022,36.327,16.043c2.178,0.003,4.354,1.303,6.531,2.004
		c-20.955,1.727-37.379,10.62-50.778,25.729c-1.324,1.494-2.716,2.96-4.247,4.233c-14.018,11.657-19.089,27.795-21.013,44.83
		c-1.561,13.817-1.371,27.859-1.459,41.806c-0.051,8.051,1.747,15.813,7.001,22.382c10.941,13.678,21.9,27.343,32.688,41.143
		C3014.861,2947.914,3017.397,2952.321,3020.077,2956.349z"/>
	<path fill-rule="evenodd" d="M2420.273,2728.408c-19.878,20.822-39.38,41.294-58.946,61.706c-3.627,3.785-5.089,7.576-4.136,13.223
		c5.167,30.617,5.878,61.491,4.183,92.456c-1.844,33.693-10.957,65.356-32.079,91.73c-18.063,22.555-38.774,43.119-64.209,57.884
		c-12.075,7.01-24.479,13.452-36.744,20.135c-0.874,0.477-1.788,1.02-2.743,1.184c-23.881,4.116-47.221,5.654-65.994-14.135
		c-2.293-2.416-4.536-4.924-7.092-7.04c-8.367-6.932-12.751-15.988-14.724-26.454c-0.924-4.894-2.006-9.758-3.209-15.571
		c-13.359,4.975-26.541,9.883-40.58,15.11c9.785,11.333,18.612,21.557,27.441,31.779c2.176,2.518,4.08,5.354,6.584,7.485
		c24.813,21.106,39.932,49.566,57.721,75.977c10.807,16.044,13.32,34.559,14.19,53.258c0.603,12.971,0.741,26.03-0.087,38.975
		c-0.633,9.884-2.721,19.734-4.852,29.448c-3.488,15.895-7.462,31.685-11.373,47.483c-4.122,16.66-11.935,31.719-20.563,46.396
		c-17.005,28.93-38.273,54.427-63.164,76.808c-7.354,6.611-15.745,12.271-24.274,17.335c-25.252,14.99-51.928,26.883-80.294,34.748
		c-17.541,4.864-35.569,5.009-53.503,4.271c-26.31-1.083-52.075-6.053-77.598-12.483c-27.474-6.923-51.928-20.381-75.951-34.676
		c-23.149-13.774-47.214-26.495-68.53-42.755c-31.44-23.983-57.976-52.874-72.083-91.121c-4.991-13.534-8.53-27.265-8.226-41.807
		c0.048-2.293-0.227-4.592-0.338-6.643c-14.913,0.18-29.442-0.008-43.932,0.646c-10.659,0.48-19.641-2.398-27.235-9.87
		c-1.396-1.374-3.209-2.324-4.989-3.58c-2.965,2.288-5.77,4.594-8.715,6.699c-7.227,5.163-15.088,8.271-24.211,7.822
		c-5.984-0.295-11.999-0.205-17.992-0.023c-10.292,0.313-18.815-3.359-25.883-10.76c-3.682-3.854-7.454-7.631-11.324-11.297
		c-5.086-4.822-8.425-4.825-13.743-0.301c-6.551,5.573-13.37,10.871-19.508,16.865c-2.037,1.989-3.193,5.743-3.275,8.729
		c-0.507,18.31-0.483,36.634-0.851,54.947c-0.268,13.372-2.649,26.404-7.535,38.891c-1.076,2.749-2.326,5.678-4.286,7.792
		c-12.205,13.175-24.565,26.209-37.018,39.151c-7.507,7.803-17.665,10.113-27.621,12.907c-5.725,1.605-11.369,3.676-16.813,6.072
		c-15.424,6.788-31.894,9.411-48.314,11.613c-20.066,2.692-40.321,3.948-60.473,6.041c-20.155,2.093-40.262,4.65-60.429,6.612
		c-9.914,0.965-19.919,0.941-29.874,1.543c-32.167,1.944-64.306,4.587-96.5,5.783c-28.912,1.074-57.909,1.369-86.427-5.495
		c-5.729-1.379-10.437-3.59-14.79-7.553c-3.594-3.271-7.748-6.513-12.244-8.119c-28.376-10.137-55.16-23.557-79.292-41.393
		c-12.726-9.406-23.366-21.725-34.412-33.244c-2.456-2.562-2.549-7.328-3.916-11.01c-1.349-3.636-1.997-8.17-4.565-10.612
		c-17.854-16.973-25.183-38.44-28.878-62.062c-3.983-25.457-4.623-51.048-3.456-76.586c0.584-12.758,3.941-25.631,7.73-37.932
		c4.204-13.641,15.846-21.996,26.641-30.195c14.973-11.372,32.231-18.555,50.119-24.127c2.813-0.876,5.833-1.312,8.783-1.485
		c23.21-1.37,46.42-2.807,69.646-3.822c8.229-0.359,16.505,0.392,26.027,0.674c0-4.7,0.128-9.913-0.029-15.116
		c-0.234-7.727,1.266-14.405,5.445-21.535c10.762-18.361,18.725-38.133,24.675-58.678c5.265-18.184,10.2-36.356,13.375-55.111
		c3.591-21.214,9.94-41.956,13.632-63.158c5.807-33.351,10.687-66.873,15.408-100.401c4.116-29.235,7.736-58.548,11.064-87.884
		c2.058-18.14,3-36.401,4.726-54.581c2.539-26.745,5.193-53.48,8.046-80.193c3.731-34.946,7.927-69.843,11.465-104.808
		c1.538-15.188,2.492-30.481,2.728-45.742c0.429-27.653-0.07-55.322,0.189-82.98c0.171-18.285,1.107-36.562,1.397-54.846
		c0.048-3.022-0.751-6.544-2.389-9.022c-7.129-10.787-15.631-20.754-21.951-31.969c-15.678-27.816-30.625-56.08-40.731-86.537
		c-2.821-8.501-4.532-17.366-7.219-25.917c-1.471-4.681-3.333-9.439-6.018-13.506c-23.495-35.581-41.228-73.606-50.089-115.523
		c-4.688-22.172-7.33-44.602-7.613-67.222c-0.274-21.976,0.079-43.967,0.678-65.937c0.263-9.587,1.758-19.146,2.831-28.701
		c0.52-4.624,1.182-9-1.322-13.503c-20.57-36.981-31.75-77.318-41.85-118.029c-0.388-1.564-0.901-3.098-1.436-4.917
		c-29.167,19.585-57.929,38.897-87.007,58.422c0.992,1.505,1.587,3.296,2.827,4.147c7.617,5.233,7.926,12.718,8.038,21.072
		c0.229,17.099-1.328,33.849-6.49,50.152c-1.489,4.707-3.606,9.288-5.989,13.621c-6.245,11.349-13,22.418-19.142,33.819
		c-3.456,6.412-6.091,13.265-9.114,19.909c-7.286,16.014-13.904,32.221-27.207,44.839c-9.716,9.218-20.498,15.38-33.807,18.15
		c-0.362,10.011-0.262,19.995-1.174,29.886c-2.132,23.104-4.015,46.274-7.487,69.192c-1.664,10.982-6.438,21.554-10.368,32.102
		c-1.346,3.611-3.993,7.003-6.766,9.771c-11.778,11.763-23.771,23.31-35.798,34.818c-6.002,5.744-12.016,11.516-18.431,16.781
		c-12.288,10.088-24.864,19.823-38.888,30.948c-1.259,15.462-2.902,33.269-4.114,51.104c-2.065,30.376-7.043,60.071-20.226,87.832
		c-6.472,13.628-17.803,22.926-29.812,31.396c-1.805,1.273-4.294,1.988-6.532,2.174c-26.912,2.23-52.85-1.831-75.667-16.563
		c-8.539-5.514-17.016-9.12-26.471-12.143c-10.461-3.342-16.832-12.546-23.271-21.036c-1.181-1.558-1.944-3.431-3.432-6.119
		c-9.207,0-18.822-0.289-28.415,0.061c-19.958,0.729-38.986-3.365-57.452-10.506c-2.678-1.036-5.178-2.852-7.372-4.754
		c-3.265-2.832-6.02-6.251-9.287-9.079c-5.792-5.013-9.142-11.269-10.736-18.673c-0.741-3.439-1.934-6.781-3.327-11.56
		c-3.646,3.54-6.459,5.843-8.76,8.577c-13.29,15.789-31.521,20.339-50.769,21.771c-11.6,0.863-23.317,0.14-34.981,0.165
		c-9.149,0.02-16.855-3.193-23.073-9.976c-2.25-2.455-4.533-4.923-7.073-7.06c-19.357-16.285-29.247-37.497-32.309-62.184
		c-3.106-25.044-6.105-50.049-6.587-75.39c-0.564-29.71,4.014-58.54,14.337-86.009c15.665-41.685,30.153-83.892,50.535-123.714
		c8.607-16.815,20.069-31.27,32.487-45.188c0.222-0.248,0.472-0.471,0.706-0.708c15.902-16.081,30.829-33.421,53.703-40.371
		c1.599-30.621,3.155-60.407,4.68-89.599c-8.092-7.491-16.036-14.479-23.506-21.942c-2.949-2.947-4.82-6.966-7.226-10.466
		c-1.285-1.87-2.44-3.904-4.037-5.474c-9.966-9.802-20.158-19.375-30.038-29.263c-6.347-6.353-9.842-13.998-9.489-23.305
		c0.317-8.319,0.353-16.674-0.012-24.989c-0.387-8.852,1.06-17.413,4.568-25.329c2.77-6.247,6.366-12.493,10.96-17.483
		c7.112-7.724,13.602-16.712,24.705-19.495c5.772-1.447,11.607-2.646,17.693-4.018c12.666-19.067,26.371-37.63,49.087-49.159
		c4.413-11.478,9.337-24.487,14.409-37.439c10.376-26.493,24.555-50.855,41.377-73.744c25.233-34.332,53.126-66.376,82.389-97.32
		c18.953-20.042,37.118-40.833,55.464-61.442c2.12-2.382,3.483-5.62,4.604-8.679c13.159-35.893,26.25-71.812,39.245-107.764
		c3.137-8.678,5.254-17.769,8.914-26.205c5.395-12.437,12.299-24.223,17.606-36.692c22.479-52.817,52.691-100.788,91.04-143.358
		c17.107-18.99,35.363-37.213,54.821-53.757c30.891-26.262,62.658-51.583,95.087-75.927c47.23-35.456,98.041-65.147,151.857-89.625
		c3.81-1.732,7.413-4.477,10.33-7.506c7.115-7.389,15.781-10.417,25.736-11.332c5.197-0.478,10.483-1.668,15.377-3.487
		c30.538-11.353,60.767-23.566,91.505-34.334c29.835-10.452,60.744-17.18,91.851-22.739c6.5-1.161,13.246-1.104,19.888-1.272
		c7.984-0.203,15.978-0.049,24.525-0.049c4.78-9.506,9.597-18.918,14.263-28.404c7.744-15.745,19.802-27.421,34.723-36.139
		c4.144-2.421,9.231-3.265,13.93-4.686c2.22-0.671,4.664-0.693,6.799-1.535c4.906-1.934,9.513-4.969,14.566-6.089
		c4.751-1.055,9.921-0.227,15.595-0.227c3.5-7.57,7.008-15.008,10.392-22.502c12.91-28.582,27.96-56.019,46.623-81.198
		c9.059-12.221,20.174-22.941,30.616-34.098c3.17-3.388,4.038-6.331,3.838-11.278c-0.804-19.935-0.535-39.922-0.299-59.885
		c0.041-3.513,1.149-7.391,2.904-10.445c12.564-21.871,28.39-41.088,49.321-55.356c5.766-3.931,13.401-6.125,20.439-6.978
		c14.82-1.795,29.802-2.419,44.737-2.997c4.791-0.186,8.034-1.676,11-5.33c22.957-28.268,49.737-52.91,75.825-78.106
		c15.03-14.517,32.576-26.528,53.713-31.268c7.419-1.664,15.076-3.299,22.61-3.237c25.611,0.21,51.293,0.21,76.797,2.22
		c16.114,1.27,32.096,5.419,47.887,9.294c17.354,4.259,30.27,16.279,43.528,27.383c18.436,15.437,35.595,31.995,48.328,52.757
		c7.895,12.873,13.876,26.475,18.462,40.777c1.104,3.446,2.185,6.902,3.379,10.676c3.077,0.257,5.652,0.643,8.23,0.66
		c10.997,0.071,22.001-0.204,32.991,0.084c22.196,0.58,40.771,9.199,57.624,23.793c18.484,16.007,28.999,35.195,30.076,59.487
		c0.647,14.599,0.663,29.225,1.268,43.827c0.845,20.397-5.442,38.73-16.279,55.549c-4.468,6.937-10.161,13.138-15.708,19.304
		c-3.541,3.938-7.835,7.2-12.305,11.229c12.8,16.921,13.444,35.77,12.845,54.811c-0.139,4.385,1.387,7.454,4.316,10.55
		c7.044,7.442,13.744,15.211,21.369,23.725c10.632-1.062,22.784-2.917,34.988-3.354c21.955-0.785,43.942-0.595,65.912-1.036
		c40.739-0.818,81.023,3.318,120.914,11.256c31.987,6.366,63.168,15.871,93.433,27.85c28.712,11.365,57.052,23.782,85.019,36.885
		c26.869,12.591,51.611,29.035,75.654,46.367c35.617,25.676,71.222,51.415,104.164,80.545
		c15.196,13.438,30.482,26.839,44.831,41.156c28.525,28.461,57.3,56.756,84.374,86.569c35.323,38.894,68.34,79.827,97.745,123.453
		c19.146,28.406,37.498,57.361,55.669,86.405c6.324,10.107,11.323,21.088,16.402,31.917c4.093,8.725,7.657,17.714,6.623,27.807
		c-0.219,2.135,0.432,4.731,1.559,6.577c25.314,41.425,41.796,86.601,57.207,132.339c15.324,45.48,26.179,91.971,33.436,139.312
		c5.731,37.386,11.158,74.838,15.654,112.388c2.641,22.05,3.94,44.33,4.534,66.542c1.189,44.581,1.954,89.185,1.928,133.78
		c-0.013,19.54-2.324,39.083-3.727,58.615c-1.235,17.207-1.943,34.493-4.171,51.577c-3.39,25.984-7.296,51.933-12.043,77.7
		c-9.722,52.771-25.597,103.78-45.588,153.549c-12.608,31.39-29.208,61.085-48.225,85.576c3.004,10.162,5.981,20.234,9.27,31.362
		c1.948-0.768,5.214-1.695,8.126-3.273c7.161-3.881,14.507-6.372,22.849-5.641c4.962,0.435,10.009,0.35,14.987,0.028
		c14.604-0.944,26.424,4.609,36.32,14.972c1.841,1.929,3.591,3.996,5.673,5.631c15.498,12.171,23.722,29.182,30.577,46.866
		c2.471,6.373,3.513,13.536,3.927,20.417c0.639,10.626,1.084,21.413-0.022,31.96c-1.842,17.56-8.908,33.001-22.104,45.307
		c-5.845,5.451-11.211,11.416-17.038,16.89c-7.006,6.582-15.28,10.19-25.11,10.004c-19.309-0.367-38.653,0.029-57.921-1.028
		c-17.67-0.971-32.633-7.888-42.244-23.914c-1.732-2.887-4.792-4.979-8.042-8.246c-2.634,14.995-4.563,28.356-7.404,41.521
		c-3.144,14.561-6.024,29.338-11.062,43.282c-4.584,12.689-12.177,24.264-17.938,36.567c-4.212,8.996-8.771,18.089-11.124,27.645
		c-5.171,20.993-15.418,38.547-30.502,53.908c-7.856,8.001-15.038,16.986-20.946,26.507c-10.709,17.258-25.212,30.97-39.881,44.407
		c-6.147,5.631-14.628,9.052-22.509,12.384c-21.087,8.913-43.496,9.644-65.744,7.536c-8.184-0.775-16.602-5.205-23.734-9.798
		c-21.524-13.862-42.497-28.585-63.616-43.074c-3.213-2.203-6.059-4.941-9.889-8.104c-8.111,18.896-15.971,36.724-23.441,54.714
		c-13.763,33.138-37.455,56.922-68.856,73.386c-7.981,4.186-16.543,6.71-25.871,6.305c-20.267-0.883-40.569-1.055-60.811-2.289
		C2433.432,2733.087,2427.126,2730.254,2420.273,2728.408z M1684.999,2628.212c-0.976,13.572-1.102,24.926-2.728,36.059
		c-3.886,26.588-8.12,53.137-12.875,79.581c-6.518,36.252-13.083,72.514-20.676,108.549c-7.731,36.691-16.25,73.234-25.307,109.623
		c-10.997,44.177-22.603,88.22-40.354,130.33c-1.563,3.708-2.526,7.39-0.098,11.452c18.409-6.095,37.159-4.114,55.703-3.842
		c5.311,0.078,10.632,3.284,15.841,5.333c5.41,2.128,10.689,4.59,15.938,6.868c1.643-2.163,2.62-3.104,3.185-4.245
		c6.273-12.692,14.801-23.74,25.235-33.177c18.977-17.159,37.806-34.527,57.518-50.813c19.763-16.328,41.205-30.574,64.219-41.886
		c25.903-12.733,53.844-18.772,82.554-21.225c6.864-0.585,13.726-1.207,22.605-1.99c-54.283-23.901-54.367-23.801-91.659-55.354
		c-17.675-14.956-32.083-32.914-44.057-52.581c-12.269-20.15-23.504-40.935-34.958-61.571
		c-27.496-49.539-50.481-101.048-67.27-155.236C1687.368,2632.644,1686.51,2631.327,1684.999,2628.212z M1027.162,3151.171
		c0.309-8.105,0.309-8.105-9.82-9.059C1020.682,3145.193,1023.186,3147.504,1027.162,3151.171z"/>
	<path fill-rule="evenodd" d="M3020.077,2956.349c-2.68-4.027-5.216-8.435-8.317-12.4c-10.787-13.8-21.746-27.465-32.688-41.143
		c-5.254-6.569-7.052-14.331-7.001-22.382c0.088-13.946-0.102-27.988,1.459-41.806c1.924-17.035,6.995-33.173,21.013-44.83
		c1.531-1.273,2.923-2.739,4.247-4.233c13.399-15.108,29.823-24.002,50.778-25.729c-2.178-0.701-4.354-2.001-6.531-2.004
		c-14.514-0.021-26.179-6.371-36.327-16.043c-11.31-10.775-22.618-21.562-33.604-32.662c-7.758-7.837-10.907-17.709-11.914-28.673
		c-1.834-19.989,3.06-38.835,8.956-57.496c2.94-9.308,9.615-16.479,16.173-23.481c11.562-12.347,22.648-25.348,40.2-30.605
		c-8.721-3.974-16.686-7.935-24.929-11.184c-2.937-1.158-6.593-1.02-9.851-0.722c-5.856,0.534-10.3-1.478-13.928-5.948
		c-1.463-1.802-3.124-3.505-4.943-4.939c-4.039-3.184-5.409-7.175-4.984-12.257c0.389-4.634,0.248-9.332,0.037-13.989
		c-0.234-5.197,0.537-9.626,4.771-13.479c1.806-1.644,2.38-5.256,2.497-8.018c0.325-7.651,0.028-15.327,0.138-22.991
		c0.142-9.933,3.026-18.603,10.43-25.854c11.895-11.646,23.278-23.809,34.924-35.709c5.367-5.485,11.943-8.109,19.64-8.032
		c6.998,0.071,14.016,0.345,20.992-0.057c13.281-0.764,23.689,4.731,32.933,13.67c11.201,10.835,23.129,20.957,33.868,32.22
		c8.566,8.984,13.687,20.105,13.812,32.96c0.049,4.998-0.126,10.003,0.033,14.996c0.508,15.875-5.665,29.113-16.453,40.204
		c-8.784,9.028-18.188,17.454-27.981,26.777c2.349,1.482,4.621,3.123,7.072,4.43c15.224,8.12,27.34,19.688,37.669,33.355
		c10.764,14.242,15.88,30.549,16.836,48.043c0.779,14.258,0.943,28.639-3.476,42.557c-6.934,21.837-21.627,37.394-39.545,50.904
		c-10.325,7.785-22.262,9.398-35.412,13.011c3.843,1.118,6.444,2.213,9.147,2.601c9.061,1.299,17.176,3.989,23.785,11.02
		c4.724,5.024,11.167,8.43,15.914,13.438c10.941,11.544,20.492,24.037,26.239,39.277c3.285,8.717,3.432,17.548,3.91,26.461
		c0.911,16.981,0.166,33.813-3.583,50.542c-3.795,16.939-15.521,27.361-28.684,36.57c-6.438,4.503-13.767,7.732-21.403,11.93
		c38.34,12.784,58.129,40.77,65.443,77.132c14.82,8.527,28.775,15.985,42.138,24.386c17.614,11.074,31.214,26.751,45.571,41.529
		c16.932,17.426,28.052,38.368,37.776,60.311c3.049,6.877,8.397,12.78,11.132,19.741c7.028,17.892,12.998,36.195,19.733,54.207
		c7.915,21.16,8.437,43.322,9.396,65.429c0.347,7.983-0.131,16,0.087,23.992c1.17,42.917-10.256,82.842-30.31,120.193
		c-9.517,17.724-21.006,34.481-34.667,49.62c-8.193,9.081-15.203,19.234-22.75,28.901c-19.211,24.608-41.963,45.783-68.228,62.193
		c-27.313,17.066-57.032,29.615-89.739,32.836c-24.182,2.38-48.295,3.423-72.659,0.806c-29.434-3.16-58.462-8.234-87.104-15.371
		c-16.058-4.002-31.039-10.891-45.612-19.145c-25.541-14.465-46.566-33.654-65.708-55.61c-15.203-17.44-27.937-36.255-37.223-57.352
		c-11.85-26.921-24.225-53.739-29.802-82.868c-5.264-27.498-6.498-55.206-4.615-83.265c1.14-17,3.436-33.674,7.253-50.129
		c5.855-25.242,14.556-49.511,28.726-71.425c5.743-8.883,12.301-17.242,18.554-25.791c5.281-7.223,10.625-14.4,15.997-21.556
		c16.019-21.338,34.315-40.454,54.388-58.089c22.988-20.198,48.792-35.242,77.484-45.358c4.018-1.417,6.157-3.282,7.657-6.762
		c9.761-22.625,27.698-38.673,44.862-55.263C3007.955,2963.902,3013.316,2961.088,3020.077,2956.349z"/>
	<path fill-rule="evenodd" fill="#FFFFFF" d="M1684.999,2628.212c1.511,3.115,2.369,4.432,2.815,5.874
		c16.789,54.188,39.774,105.697,67.27,155.236c11.454,20.637,22.689,41.421,34.958,61.571
		c11.974,19.667,26.382,37.625,44.057,52.581c37.292,31.554,37.376,31.453,91.659,55.354c-8.88,0.783-15.741,1.405-22.605,1.99
		c-28.71,2.452-56.65,8.491-82.554,21.225c-23.014,11.312-44.456,25.558-64.219,41.886c-19.712,16.286-38.541,33.654-57.518,50.813
		c-10.434,9.437-18.961,20.484-25.235,33.177c-0.565,1.142-1.542,2.082-3.185,4.245c-5.249-2.278-10.527-4.74-15.938-6.868
		c-5.208-2.049-10.53-5.255-15.841-5.333c-18.544-0.272-37.294-2.253-55.703,3.842c-2.428-4.063-1.465-7.744,0.098-11.452
		c17.751-42.11,29.357-86.153,40.354-130.33c9.057-36.389,17.576-72.932,25.307-109.623c7.594-36.035,14.159-72.297,20.676-108.549
		c4.755-26.444,8.989-52.993,12.875-79.581C1683.897,2653.138,1684.023,2641.784,1684.999,2628.212z"/>
	<path fill-rule="evenodd" fill="#FFFFFF" d="M1027.162,3151.171c-3.976-3.667-6.48-5.978-9.82-9.059
		C1027.47,3143.065,1027.47,3143.065,1027.162,3151.171z"/>
</g>
</svg>
