<?xml version="1.0" encoding="utf-8"?>
<!-- Generator: Adobe Illustrator 16.0.2, SVG Export Plug-In . SVG Version: 6.00 Build 0)  -->
<!DOCTYPE svg PUBLIC "-//W3C//DTD SVG 1.1//EN" "http://www.w3.org/Graphics/SVG/1.1/DTD/svg11.dtd">
<svg version="1.1" id="Layer_1" xmlns="http://www.w3.org/2000/svg" xmlns:xlink="http://www.w3.org/1999/xlink" x="0px" y="0px"
	 width="4960.38px" height="3505.562px" viewBox="0 0 4960.38 3505.562" enable-background="new 0 0 4960.38 3505.562"
	 xml:space="preserve">
<g>
	<path fill-rule="evenodd" clip-rule="evenodd" fill="#FFFFFF" d="M4967.379,3511.542c-1654.252,0-3308.504,0-4963.068,0
		c0-1168.823,0-2337.665,0-3507.024c1654.147,0,3308.608,0,4963.068,0C4967.379,1173.427,4967.379,2342.475,4967.379,3511.542z
		 M1123.523,2068.632c0,4.812-0.034,7.463,0.005,10.114c0.203,13.689-2.713,27.986,9.738,38.953
		c1.663,1.465,0.821,8.231-1.139,10.813c-3.524,4.645-8.675,8.102-13.321,11.835c-22.25,17.873-45.706,34.339-65.042,55.605
		c-12.038,13.237-24.611,26.069-35.695,40.073c-13.14,16.601-26.852,33.003-34.945,53.019c-5.187,12.827-6.291,26.367-0.748,38.67
		c4.548,10.095,12.079,19.11,19.487,27.551c4.429,5.047,8.374,10.104,11.74,15.885c6.685,11.478,12.633,23.732,21.197,33.677
		c9.704,11.271,17.358,23.646,23.604,36.666c15.353,32.003,36.073,60.455,56.342,89.259c14.13,20.078,28.683,39.87,42.391,60.23
		c10.747,15.966,20.263,32.754,30.721,48.92c22.699,35.09,41.906,72.476,69.119,104.607c21,24.795,40.544,50.928,62.749,74.573
		c29.644,31.567,56.432,65.411,81.805,100.216c26.194,35.932,49.421,74.026,73.903,111.203c6.215,9.438,12.594,18.789,18.333,28.514
		c24.011,40.681,52.041,78.551,80.395,116.224c14.763,19.615,29.104,39.554,43.325,59.567
		c18.465,25.986,36.331,52.403,54.994,78.248c17.998,24.922,39.414,46.622,63.324,66.056c8.434,6.854,16.99,9.567,27.429,9.308
		c14.653-0.367,29.364-0.775,43.971,0.117c12.417,0.758,21.924-4.004,30.491-11.973c3.901-3.63,7.771-7.324,11.337-11.276
		c6.355-7.041,13.889-12.073,22.511-16.127c16.806-7.9,33.416-16.272,49.755-25.101c22.88-12.361,43.925-27.194,61.663-46.577
		c13.036-14.244,26.899-27.734,40.529-41.427c2.784-2.797,5.836-5.71,9.337-7.338c12.128-5.638,22.449-14.127,33.884-20.752
		c14.699-8.517,30.793-4.277,46.414-2.467c1.087,0.125,2.208,1.469,2.99,2.493c5.081,6.651,12.153,7.166,19.745,7.057
		c15.931-0.229,31.867-0.069,48.241-0.069c4.952,11.511,13.674,14.492,24.667,13.469c5.945-0.555,12.039-0.534,17.966,0.121
		c3.698,0.41,8.412,1.466,10.576,4.012c6.078,7.152,13.752,7.145,21.83,7.103c15.926-0.082,31.854-0.023,47.508-0.023
		c5.852,10.016,13.559,14.146,23.988,12.718c1.963-0.268,3.994-0.033,5.993-0.033c89.973,0,179.947,0.002,269.92-0.004
		c3.999,0,7.997-0.098,11.996-0.084c5.006,0.02,8.917-1.998,12.094-5.867c2.02-2.459,4.427-4.598,6.519-6.736
		c16.851,0,32.836-0.127,48.816,0.059c6.891,0.08,13.332-0.449,17.981-6.378c3.181-4.058,7.511-5.104,12.421-4.983
		c5.328,0.131,10.663,0.039,15.994-0.012c15.729-0.146,15.729-0.157,27.904-13.36c14.346,0,29.639-0.113,44.928,0.046
		c8.165,0.085,15.681-0.346,21.761-7.326c2.188-2.51,6.934-3.305,10.662-3.83c4.576-0.644,9.341-0.548,13.967-0.131
		c11.895,1.072,22.634-0.527,28.553-10.795c2.134-0.637,2.764-0.954,3.412-0.998c11.607-0.79,24.572,2.475,31.916-10.956
		c0.505-0.922,2.351-1.685,3.498-1.59c8.875,0.729,15.162-3.352,20.679-9.865c1.419-1.678,4.805-2.457,7.239-2.366
		c6.847,0.256,10.48-4.781,15.504-7.819c5.382-3.255,12.157-4.175,18.257-6.307c1.158-0.405,2.307-1.536,2.94-2.631
		c3.388-5.86,8.508-7.767,15.045-7.638c6.898,0.137,9.451-6.877,14.45-9.563c5.601-3.009,12.374-3.766,18.478-5.949
		c1.664-0.594,2.642-2.923,4.135-4.229c1.954-1.708,4.152-4.598,6.164-4.53c10.158,0.339,15.04-7.244,21.546-12.78
		c6.855-5.833,12.766-13.583,23.657-12.792c2.573,0.187,5.837-2.903,8.06-5.188c9.701-9.979,19.137-20.217,29.12-30.84
		c8.416-0.08,16.733-1.348,22.36-9.466c1.222-1.762,4.641-2.876,7.006-2.808c7.366,0.213,12.859-2.699,17.09-8.458
		c4.33-5.896,11.207-2.776,16.686-4.708c6.449-2.274,7.491-11.796,15.361-11.551c7.495,0.233,11.982-3.72,16.942-8.697
		c7.614-7.642,13.674-18.201,27.263-17.197c2.459,0.181,5.461-3.438,7.795-5.726c10.872-10.654,21.555-21.504,32.387-32.2
		c13.697-13.524,27.393-27.054,41.3-40.359c2.228-2.131,5.549-4.343,8.388-4.374c7.524-0.08,12.232-3.79,16.701-9.237
		c4.622-5.635,10.125-10.541,15.114-15.887c9.228-9.887,22.78-16.664,23.456-32.8c0.065-1.574,2.168-3.167,3.516-4.57
		c12.82-13.343,25.597-26.73,38.588-39.906c3.457-3.504,6.026-7.104,5.67-12.18c-0.363-5.198,2.533-8.275,6.058-11.744
		c27.393-26.956,54.646-54.061,81.644-81.415c7.84-7.943,14.708-16.847,22.021-25.311c-1.445-9.694,7.211-13.35,11.398-19.768
		c4.305-6.602,14.831-9.784,13.697-18.66c-1.438-11.25,9.507-13.689,12.295-21.47c0.656-1.832,0.994-3.935,0.855-5.868
		c-0.515-7.203,6.515-9.702,8.935-14.858c2.716-5.784,3.838-12.304,5.893-18.424c0.369-1.101,1.824-1.905,2.896-2.688
		c6.313-4.613,4.485-11.994,6.486-18.094c2.023-6.162,10.92-7.859,11.556-15.512c0.165-1.99,0.072-4.035,0.505-5.964
		c0.42-1.871,0.847-4.27,2.163-5.319c6.663-5.318,10.821-11.594,9.946-20.532c-0.112-1.147,0.596-3,1.503-3.525
		c9.135-5.295,11.057-14.142,12.522-23.549c0.348-2.232,3.452-3.924,4.881-6.129c1.753-2.707,4.269-5.661,4.343-8.563
		c0.17-6.543,2.236-11.453,7.483-15.431c1.965-1.49,4.184-4.254,4.188-6.439c0.014-8.631,2.98-14.983,10.154-20.238
		c2.494-1.828,3.148-7.14,3.359-10.931c0.615-11.086,15.839-15.18,13.029-27.886c-0.25-1.125,2.12-3.254,3.689-4.282
		c7.62-4.991,9.556-12.162,9.023-20.764c-0.496-8.033-0.465-15.798,7.41-21.51c2.666-1.935,3.076-6.972,4.532-10.585
		c1.206-2.989,1.73-6.638,3.799-8.815c4.381-4.615,6.695-9.504,6.944-15.957c0.109-2.815,2.152-6.437,4.461-8.122
		c7.344-5.362,9.367-12.409,8.822-20.946c-0.472-7.403-0.293-14.617,6.817-19.645c5.582-3.947,3.656-11.134,6.185-16.23
		c2.552-5.143,7.417-9.115,11.058-13.764c0.715-0.911,0.696-2.586,0.627-3.888c-0.341-6.479,1.667-11.575,7.314-15.385
		c1.984-1.338,4.065-4.32,4.043-6.531c-0.09-8.671,3.43-15.026,9.778-20.698c2.069-1.849,2.764-6.017,2.831-9.149
		c0.11-5.191,2.221-8.641,6.238-11.671c2.551-1.922,4.398-4.773,6.636-7.295c0-9.794-0.332-19.124,0.164-28.411
		c0.197-3.708,1.135-8.563,3.623-10.735c6.923-6.043,7.783-13.422,7.547-21.656c-0.229-7.963-0.05-15.937-0.05-25.327
		c12.693-4.778,12.371-15.693,12.022-26.661c-0.128-3.995-0.02-7.997-0.02-11.996c0-110.634,0.032-221.267-0.048-331.901
		c-0.009-11.399-0.063-22.356,7.993-31.996c3.686-4.41,5.405-10.629,7.417-16.241c7.351-20.498,14.478-41.075,21.625-61.644
		c2.618-7.537,5.883-14.97,7.439-22.735c6.234-31.104,15.829-61.392,21.132-92.766c4.404-26.058,11.635-51.636,17.492-77.453
		c0.874-3.848,1.539-7.851,1.516-11.776c-0.098-15.34,2.647-30.166,6.291-45.029c4.94-20.158,6.162-40.976,3.495-61.398
		c-1.474-11.292-2.187-22.437-2.329-33.708c-0.154-11.995,0.055-23.994-0.086-35.989c-0.055-4.637,0.074-9.46-1.113-13.866
		c-4.166-15.447-3.86-31.419-5.969-47.097c-2.285-17.005-3.001-34.218-4.577-51.325c-0.239-2.589-1.435-5.089-2.188-7.63
		c-6.626-22.343-14.759-44.106-26.099-64.51c-4.809-8.651-10.432-16.858-15.844-25.162c-6.153-9.44-11.745-19.383-18.935-27.974
		c-8.074-9.646-16.575-18.94-24.73-28.554c-19.395-22.861-42.916-41.642-65.503-61.262c-9.979-8.669-21.01-16.136-30.907-24.887
		c-24.028-21.248-49.931-39.295-79.677-51.877c-11.737-4.964-23.571-8.786-35.979-11.189c-3.897-0.755-7.973-1.063-11.644-2.438
		c-21.765-8.161-43.606-16.159-65.095-25.009c-29.032-11.955-59.792-16.99-90.36-21.78c-21.521-3.373-43.745-2.871-65.658-2.941
		c-19.375-0.062-38.326,3.576-55.72,12.706c-6.145,3.225-12.387,4.122-19.162,4.408c-14.561,0.616-29.281-2.29-43.707,1.919
		c-1.712,0.5-4.397,0.525-5.577-0.474c-8.458-7.17-23.03-2.357-28.88-14.92c-0.753-1.618-4.77-2.521-7.205-2.397
		c-6.673,0.336-11.035-2.717-15.422-7.371c-2.44-2.589-6.815-3.476-10.443-4.782c-2.447-0.881-6.504-0.298-7.451-1.84
		c-5.495-8.935-13.888-11.692-23.479-12.748c-1.096-0.12-2.27-1.396-3.031-2.418c-8.491-11.386-25.467-6.727-34.177-18.058
		c-1.114-1.45-5.059-0.901-7.7-0.965c-5.292-0.127-10.591-0.038-14.005-0.038c-6.451-5.786-11.756-9.858-16.209-14.712
		c-5.56-6.06-10.961-11.301-20.143-11.064c-2.599,0.067-6.004-2.689-7.795-5.083c-5.006-6.692-11.552-8.392-19.344-7.831
		c-3.964,0.285-7.964,0.05-12.504,0.05c-6.824-9.31-15.883-13.516-27.495-12.108c-6.104,0.74-11.782-0.411-16.175-5.72
		c-3.711-4.483-9.284-4.694-14.711-4.709c-11.329-0.032-22.659-0.066-33.986-0.235c-1.911-0.028-3.812-0.73-5.316-1.039
		c-3.936-4.232-7.533-8.102-11.993-12.898c-8.733,0-18.023-0.094-27.311,0.035c-5.492,0.076-10.646-0.385-14.439-5.065
		c-4.145-5.116-9.699-6.56-16.047-6.29c-5.302,0.226-10.621,0.046-17.792,0.046c-4.474-13.432-15.923-13.279-27.662-12.758
		c-6.59,0.292-13.201,0.053-20.06,0.053c-5.928-11.093-15.247-12.955-25.858-12.063c-4.633,0.389-9.325,0.063-13.991,0.063
		c-23.298,0-46.596,0-70.366,0c-6.53-10.525-16.189-13.411-27.563-12.02c-1.314,0.16-2.664,0.021-3.997,0.021
		c-120.63,0-241.262,0-361.892,0.004c-4.665,0-9.421-0.505-13.966,0.247c-3.71,0.614-7.443,2.321-10.657,4.35
		c-3.239,2.045-5.849,5.084-8.413,7.398c-6.306,0-11.627-0.001-16.949,0c-23.326,0.004-46.652-0.024-69.979,0.035
		c-5.268,0.014-11.61-1.196-14.821,3.841c-5.833,9.152-14.483,8.123-23.119,8.124c-5.332,0.001-10.667,0.146-15.994,0.016
		c-4.965-0.122-9.13,1.387-12.455,5.13c-2.167,2.44-4.385,4.836-6.888,7.591c-5.543,0-10.897-0.443-16.135,0.148
		c-3.783,0.428-8.763,1.109-10.856,3.63c-6.536,7.872-14.869,7.744-23.608,7.504c-4.662-0.128-9.335,0.146-13.995-0.018
		c-4.981-0.175-9.171,1.357-12.456,5.095c-2.563,2.915-4.988,5.948-7.6,9.078c-13.262,0-25.917-0.286-38.547,0.154
		c-4.459,0.155-10.442,0.661-12.97,3.481c-6.325,7.055-13.917,6.854-21.929,6.901c-5.932,0.035-12.726-1.232-16.7,4.342
		c-5.575,7.817-13.263,7.578-21.364,7.759c-4.503,0.101-10.654-0.091-13.143,2.576c-6.677,7.15-14.097,11.324-23.672,12.679
		c-2.197,0.312-3.968,3.332-6.023,4.997c-6.663,5.397-13.366,10.745-22.779,18.297c-0.872,0-6.254-0.483-11.497,0.164
		c-3.749,0.462-8.076,1.565-10.787,3.936c-4.746,4.152-9.469,6.611-15.912,7.041c-3.574,0.238-8.173,2.304-10.196,5.084
		c-4.703,6.463-11.792,5.029-17.635,7.46c-5.758,2.396-10.253,7.762-15.451,11.626c-0.929,0.69-2.598,0.652-3.89,0.54
		c-6.687-0.58-11.173,2.848-15.507,7.444c-2.067,2.193-5.498,4.277-8.349,4.33c-7.716,0.145-11.171,5.719-16.34,9.782
		c-4.739,3.726-12.201,3.829-18.197,6.2c-2.248,0.887-3.495,4.029-5.631,5.521c-8.403,5.875-13.909,16.584-26.581,15.589
		c-2.031-0.159-5.154,2.261-6.312,4.313c-4.353,7.708-11.953,6.912-18.925,8.598c-7.479,1.808-10.129,11.52-20.022,11.414
		c-11.807-0.128-17.565,15.859-31.137,13.939c-1.357-0.192-3.206,2.15-4.616,3.53c-1.42,1.39-2.505,3.113-3.863,4.573
		c-3.172,3.414-6.058,7.226-9.709,10.034c-9.111,7.01-14.961,19.017-28.969,18.842c-2.109-0.025-4.201,2.961-6.394,4.416
		c-12.941,8.581-20.892,22.087-32.099,32.434c-18.5,17.08-36.638,34.572-54.469,52.351c-14.048,14.008-27,29.13-41.273,42.893
		c-5.526,5.329-10.409,9.707-10.347,18.09c0.02,2.708-2.572,5.85-4.708,8.091c-14.633,15.354-29.135,30.861-44.394,45.579
		c-5.87,5.662-12.499,9.88-11.748,19.455c0.169,2.151-1.854,4.853-3.527,6.706c-7.109,7.88-13.819,16.318-21.929,23.039
		c-7.093,5.879-12.798,11.417-12.096,21.363c0.124,1.748-0.853,4.35-2.204,5.3c-8.169,5.74-7.518,14.963-8.756,21.453
		c-6.136,5.759-10.829,10.45-15.831,14.782c-5.233,4.532-8.247,9.563-9.206,16.868c-1.429,10.876-14.572,17.213-12.829,29.916
		c0.12,0.875-1.549,2.022-2.438,2.996c-0.445,0.489-0.966,0.934-1.52,1.295c-7.074,4.624-8.255,11.55-7.769,19.268
		c0.249,3.956,0.044,7.939,0.044,11.414c-1.814,2.179-2.811,4.049-4.36,5.122c-6.89,4.768-6.833,12.107-8.459,19.287
		c-1.679,7.409-13.068,9.622-11.894,19.492c0.845,7.111-6.303,9.768-8.737,14.92c-2.738,5.793-3.873,12.34-5.79,18.533
		c-0.167,0.537-0.937,0.922-1.481,1.302c-6.143,4.291-7.583,10.413-7.348,17.497c0.174,5.253-0.407,10.532-0.617,15.063
		c-9.024,8.496-8.854,8.544-12.234,20.188c-0.857,2.952-2.585,6.254-4.94,8.052c-6.105,4.665-5.502,11.457-7.549,17.63
		c-1.92,5.79-7.69,10.211-11.123,15.642c-1.269,2.007-0.875,5.171-0.937,7.814c-0.123,5.293-0.036,10.59-0.036,16.283
		c-10.277,6.8-13.281,16.374-12.105,27.785c0.474,4.616-0.002,9.323,0.053,13.988c0.056,4.854-0.808,9.365-4.932,12.468
		c-6.188,4.656-6.245,11.255-6.192,18.043c0.098,12.663,0.021,25.326,0.021,37.989c-0.001,15.948,0,31.896,0,48.522
		c-12.008,5.494-13.006,15.544-12.99,26.785c0.193,136.627,0.225,273.253-0.056,409.878
		C1110.466,2052.783,1112.302,2062.361,1123.523,2068.632z"/>
	<path fill-rule="evenodd" clip-rule="evenodd" d="M1123.523,2068.632c-11.221-6.271-13.058-15.849-13.034-27.327
		c0.28-136.625,0.249-273.251,0.056-409.878c-0.016-11.241,0.982-21.291,12.99-26.785c0-16.626-0.001-32.574,0-48.522
		c0.001-12.663,0.077-25.327-0.021-37.989c-0.053-6.788,0.004-13.388,6.192-18.043c4.125-3.103,4.988-7.614,4.932-12.468
		c-0.055-4.665,0.421-9.372-0.053-13.988c-1.176-11.411,1.829-20.985,12.105-27.785c0-5.693-0.087-10.99,0.036-16.283
		c0.062-2.644-0.332-5.807,0.937-7.814c3.432-5.43,9.202-9.852,11.123-15.642c2.047-6.173,1.443-12.965,7.549-17.63
		c2.354-1.797,4.083-5.1,4.94-8.052c3.379-11.643,3.209-11.692,12.234-20.188c0.21-4.531,0.791-9.81,0.617-15.063
		c-0.235-7.084,1.205-13.207,7.348-17.497c0.544-0.38,1.314-0.765,1.481-1.302c1.917-6.192,3.052-12.739,5.79-18.533
		c2.434-5.152,9.583-7.809,8.737-14.92c-1.174-9.87,10.215-12.083,11.894-19.492c1.626-7.18,1.569-14.519,8.459-19.287
		c1.549-1.072,2.546-2.943,4.36-5.122c0-3.474,0.205-7.458-0.044-11.414c-0.486-7.718,0.694-14.645,7.769-19.268
		c0.554-0.361,1.074-0.806,1.52-1.295c0.889-0.974,2.558-2.121,2.438-2.996c-1.744-12.703,11.4-19.04,12.829-29.916
		c0.959-7.305,3.973-12.336,9.206-16.868c5.002-4.333,9.695-9.023,15.831-14.782c1.238-6.49,0.587-15.713,8.756-21.453
		c1.351-0.95,2.328-3.552,2.204-5.3c-0.702-9.946,5.003-15.483,12.096-21.363c8.109-6.721,14.819-15.159,21.929-23.039
		c1.673-1.853,3.696-4.555,3.527-6.706c-0.751-9.574,5.877-13.792,11.748-19.455c15.259-14.718,29.761-30.225,44.394-45.579
		c2.135-2.241,4.727-5.383,4.708-8.091c-0.062-8.383,4.821-12.761,10.347-18.09c14.272-13.763,27.225-28.885,41.273-42.893
		c17.831-17.779,35.969-35.271,54.469-52.351c11.207-10.347,19.157-23.854,32.099-32.434c2.193-1.454,4.285-4.441,6.394-4.416
		c14.008,0.175,19.858-11.833,28.969-18.842c3.651-2.808,6.537-6.621,9.709-10.034c1.358-1.459,2.443-3.183,3.863-4.573
		c1.41-1.38,3.258-3.723,4.616-3.53c13.571,1.92,19.33-14.067,31.137-13.939c9.893,0.106,12.543-9.606,20.022-11.414
		c6.973-1.686,14.572-0.89,18.925-8.598c1.158-2.052,4.281-4.472,6.312-4.313c12.671,0.995,18.177-9.714,26.581-15.589
		c2.137-1.493,3.383-4.634,5.631-5.521c5.996-2.371,13.458-2.474,18.197-6.2c5.168-4.063,8.624-9.637,16.34-9.782
		c2.851-0.053,6.281-2.137,8.349-4.33c4.333-4.596,8.82-8.024,15.507-7.444c1.292,0.112,2.961,0.15,3.89-0.54
		c5.198-3.865,9.693-9.23,15.451-11.626c5.843-2.431,12.932-0.997,17.635-7.46c2.023-2.781,6.623-4.846,10.196-5.084
		c6.443-0.43,11.167-2.889,15.912-7.041c2.71-2.371,7.038-3.474,10.787-3.936c5.243-0.647,10.625-0.164,11.497-0.164
		c9.413-7.553,16.116-12.9,22.779-18.297c2.055-1.665,3.826-4.685,6.023-4.997c9.576-1.355,16.996-5.529,23.672-12.679
		c2.489-2.667,8.64-2.475,13.143-2.576c8.101-0.181,15.789,0.059,21.364-7.759c3.974-5.575,10.768-4.307,16.7-4.342
		c8.013-0.048,15.604,0.153,21.929-6.901c2.528-2.82,8.511-3.326,12.97-3.481c12.63-0.44,25.285-0.154,38.547-0.154
		c2.612-3.13,5.037-6.163,7.6-9.078c3.285-3.738,7.475-5.27,12.456-5.095c4.66,0.163,9.333-0.11,13.995,0.018
		c8.739,0.24,17.073,0.368,23.608-7.504c2.093-2.521,7.073-3.203,10.856-3.63c5.238-0.592,10.591-0.148,16.135-0.148
		c2.502-2.754,4.72-5.151,6.888-7.591c3.325-3.744,7.489-5.252,12.455-5.13c5.328,0.131,10.663-0.015,15.994-0.016
		c8.636-0.001,17.286,1.028,23.119-8.124c3.211-5.037,9.553-3.827,14.821-3.841c23.326-0.06,46.652-0.031,69.979-0.035
		c5.322-0.001,10.643,0,16.949,0c2.564-2.313,5.174-5.353,8.413-7.398c3.213-2.029,6.946-3.736,10.657-4.35
		c4.544-0.752,9.301-0.247,13.966-0.247c120.63-0.004,241.262-0.004,361.892-0.004c1.333,0,2.683,0.14,3.997-0.021
		c11.373-1.391,21.032,1.494,27.563,12.02c23.771,0,47.068,0,70.366,0c4.666,0,9.358,0.327,13.991-0.063
		c10.611-0.893,19.931,0.969,25.858,12.063c6.858,0,13.47,0.239,20.06-0.053c11.739-0.521,23.188-0.674,27.662,12.758
		c7.171,0,12.49,0.18,17.792-0.046c6.348-0.271,11.902,1.174,16.047,6.29c3.793,4.681,8.947,5.142,14.439,5.065
		c9.287-0.129,18.577-0.035,27.311-0.035c4.46,4.796,8.058,8.666,11.993,12.898c1.505,0.309,3.405,1.011,5.316,1.039
		c11.327,0.168,22.657,0.203,33.986,0.235c5.427,0.015,11,0.226,14.711,4.709c4.393,5.309,10.071,6.46,16.175,5.72
		c11.612-1.408,20.671,2.798,27.495,12.108c4.54,0,8.54,0.235,12.504-0.05c7.792-0.561,14.338,1.139,19.344,7.831
		c1.791,2.393,5.196,5.15,7.795,5.083c9.182-0.237,14.583,5.004,20.143,11.064c4.453,4.854,9.758,8.926,16.209,14.712
		c3.414,0,8.713-0.089,14.005,0.038c2.642,0.063,6.586-0.485,7.7,0.965c8.71,11.332,25.686,6.672,34.177,18.058
		c0.762,1.021,1.936,2.298,3.031,2.418c9.592,1.056,17.984,3.813,23.479,12.748c0.947,1.542,5.004,0.959,7.451,1.84
		c3.628,1.306,8.003,2.193,10.443,4.782c4.387,4.654,8.749,7.707,15.422,7.371c2.436-0.123,6.452,0.779,7.205,2.397
		c5.85,12.563,20.422,7.75,28.88,14.92c1.18,0.999,3.865,0.974,5.577,0.474c14.426-4.208,29.146-1.303,43.707-1.919
		c6.775-0.286,13.018-1.183,19.162-4.408c17.394-9.13,36.345-12.767,55.72-12.706c21.913,0.07,44.138-0.432,65.658,2.941
		c30.568,4.791,61.328,9.825,90.36,21.78c21.488,8.85,43.33,16.848,65.095,25.009c3.671,1.376,7.746,1.684,11.644,2.438
		c12.408,2.403,24.242,6.225,35.979,11.189c29.746,12.583,55.648,30.63,79.677,51.877c9.897,8.751,20.928,16.218,30.907,24.887
		c22.587,19.62,46.108,38.4,65.503,61.262c8.155,9.614,16.656,18.909,24.73,28.554c7.189,8.591,12.781,18.534,18.935,27.974
		c5.412,8.304,11.035,16.51,15.844,25.162c11.34,20.404,19.473,42.167,26.099,64.51c0.754,2.541,1.949,5.041,2.188,7.63
		c1.576,17.106,2.292,34.32,4.577,51.325c2.108,15.678,1.803,31.649,5.969,47.097c1.188,4.406,1.059,9.229,1.113,13.866
		c0.141,11.995-0.068,23.994,0.086,35.989c0.143,11.271,0.855,22.415,2.329,33.708c2.667,20.422,1.445,41.24-3.495,61.398
		c-3.644,14.863-6.389,29.689-6.291,45.029c0.023,3.925-0.642,7.928-1.516,11.776c-5.857,25.817-13.088,51.395-17.492,77.453
		c-5.303,31.374-14.897,61.662-21.132,92.766c-1.557,7.765-4.821,15.198-7.439,22.735c-7.147,20.568-14.274,41.146-21.625,61.644
		c-2.012,5.612-3.731,11.832-7.417,16.241c-8.056,9.639-8.002,20.597-7.993,31.996c0.08,110.634,0.048,221.267,0.048,331.901
		c0,3.999-0.108,8.001,0.02,11.996c0.349,10.968,0.671,21.883-12.022,26.661c0,9.391-0.179,17.364,0.05,25.327
		c0.236,8.234-0.624,15.613-7.547,21.656c-2.488,2.172-3.426,7.027-3.623,10.735c-0.496,9.287-0.164,18.617-0.164,28.411
		c-2.237,2.521-4.085,5.373-6.636,7.295c-4.018,3.03-6.128,6.479-6.238,11.671c-0.067,3.133-0.762,7.301-2.831,9.149
		c-6.349,5.672-9.868,12.027-9.778,20.698c0.022,2.211-2.059,5.193-4.043,6.531c-5.647,3.81-7.655,8.906-7.314,15.385
		c0.069,1.302,0.088,2.977-0.627,3.888c-3.641,4.648-8.506,8.621-11.058,13.764c-2.528,5.097-0.603,12.283-6.185,16.23
		c-7.11,5.027-7.289,12.241-6.817,19.645c0.545,8.537-1.479,15.584-8.822,20.946c-2.309,1.686-4.352,5.307-4.461,8.122
		c-0.249,6.453-2.563,11.342-6.944,15.957c-2.068,2.178-2.593,5.826-3.799,8.815c-1.456,3.613-1.866,8.65-4.532,10.585
		c-7.875,5.712-7.906,13.477-7.41,21.51c0.532,8.602-1.403,15.772-9.023,20.764c-1.569,1.028-3.939,3.157-3.689,4.282
		c2.81,12.706-12.414,16.8-13.029,27.886c-0.211,3.791-0.865,9.103-3.359,10.931c-7.174,5.255-10.141,11.607-10.154,20.238
		c-0.004,2.186-2.223,4.949-4.188,6.439c-5.247,3.978-7.313,8.888-7.483,15.431c-0.074,2.901-2.59,5.855-4.343,8.563
		c-1.429,2.205-4.533,3.896-4.881,6.129c-1.466,9.407-3.388,18.254-12.522,23.549c-0.907,0.525-1.615,2.378-1.503,3.525
		c0.875,8.938-3.283,15.214-9.946,20.532c-1.316,1.05-1.743,3.448-2.163,5.319c-0.433,1.929-0.34,3.974-0.505,5.964
		c-0.636,7.652-9.532,9.35-11.556,15.512c-2.001,6.1-0.173,13.48-6.486,18.094c-1.071,0.782-2.526,1.587-2.896,2.688
		c-2.055,6.12-3.177,12.64-5.893,18.424c-2.42,5.156-9.449,7.655-8.935,14.858c0.139,1.934-0.199,4.036-0.855,5.868
		c-2.788,7.78-13.732,10.22-12.295,21.47c1.134,8.876-9.393,12.059-13.697,18.66c-4.188,6.418-12.844,10.073-11.398,19.768
		c-7.313,8.464-14.182,17.367-22.021,25.311c-26.997,27.354-54.251,54.459-81.644,81.415c-3.524,3.469-6.421,6.546-6.058,11.744
		c0.356,5.075-2.213,8.676-5.67,12.18c-12.991,13.176-25.768,26.563-38.588,39.906c-1.348,1.403-3.45,2.996-3.516,4.57
		c-0.676,16.136-14.229,22.913-23.456,32.8c-4.989,5.346-10.492,10.252-15.114,15.887c-4.469,5.447-9.177,9.157-16.701,9.237
		c-2.839,0.031-6.16,2.243-8.388,4.374c-13.907,13.306-27.603,26.835-41.3,40.359c-10.832,10.696-21.515,21.546-32.387,32.2
		c-2.334,2.288-5.336,5.906-7.795,5.726c-13.589-1.004-19.648,9.556-27.263,17.197c-4.96,4.978-9.447,8.931-16.942,8.697
		c-7.87-0.245-8.912,9.276-15.361,11.551c-5.479,1.932-12.355-1.188-16.686,4.708c-4.23,5.759-9.724,8.671-17.09,8.458
		c-2.365-0.068-5.784,1.046-7.006,2.808c-5.627,8.118-13.944,9.386-22.36,9.466c-9.983,10.623-19.419,20.861-29.12,30.84
		c-2.223,2.285-5.486,5.375-8.06,5.188c-10.892-0.791-16.802,6.959-23.657,12.792c-6.506,5.536-11.388,13.119-21.546,12.78
		c-2.012-0.067-4.21,2.822-6.164,4.53c-1.493,1.306-2.471,3.635-4.135,4.229c-6.104,2.184-12.877,2.94-18.478,5.949
		c-4.999,2.686-7.552,9.699-14.45,9.563c-6.537-0.129-11.657,1.777-15.045,7.638c-0.634,1.095-1.782,2.226-2.94,2.631
		c-6.1,2.132-12.875,3.052-18.257,6.307c-5.023,3.038-8.657,8.075-15.504,7.819c-2.435-0.091-5.82,0.688-7.239,2.366
		c-5.517,6.514-11.804,10.594-20.679,9.865c-1.147-0.095-2.993,0.668-3.498,1.59c-7.344,13.431-20.309,10.166-31.916,10.956
		c-0.648,0.044-1.278,0.361-3.412,0.998c-5.919,10.268-16.658,11.867-28.553,10.795c-4.626-0.417-9.391-0.513-13.967,0.131
		c-3.729,0.525-8.475,1.32-10.662,3.83c-6.08,6.98-13.596,7.411-21.761,7.326c-15.289-0.159-30.582-0.046-44.928-0.046
		c-12.176,13.203-12.176,13.214-27.904,13.36c-5.331,0.051-10.666,0.143-15.994,0.012c-4.91-0.12-9.24,0.926-12.421,4.983
		c-4.649,5.929-11.091,6.458-17.981,6.378c-15.98-0.186-31.966-0.059-48.816-0.059c-2.092,2.139-4.499,4.277-6.519,6.736
		c-3.177,3.869-7.088,5.887-12.094,5.867c-3.999-0.014-7.997,0.084-11.996,0.084c-89.973,0.006-179.947,0.004-269.92,0.004
		c-1.999,0-4.03-0.234-5.993,0.033c-10.429,1.428-18.136-2.702-23.988-12.718c-15.654,0-31.582-0.059-47.508,0.023
		c-8.078,0.042-15.752,0.05-21.83-7.103c-2.164-2.546-6.878-3.602-10.576-4.012c-5.927-0.655-12.021-0.676-17.966-0.121
		c-10.994,1.023-19.715-1.958-24.667-13.469c-16.374,0-32.311-0.16-48.241,0.069c-7.592,0.109-14.664-0.405-19.745-7.057
		c-0.782-1.024-1.902-2.368-2.99-2.493c-15.621-1.811-31.715-6.05-46.414,2.467c-11.435,6.625-21.755,15.114-33.884,20.752
		c-3.501,1.628-6.554,4.541-9.337,7.338c-13.63,13.692-27.494,27.183-40.529,41.427c-17.738,19.383-38.783,34.216-61.663,46.577
		c-16.34,8.828-32.949,17.2-49.755,25.101c-8.622,4.054-16.156,9.086-22.511,16.127c-3.566,3.952-7.437,7.646-11.337,11.276
		c-8.567,7.969-18.075,12.73-30.491,11.973c-14.607-0.893-29.318-0.484-43.971-0.117c-10.439,0.26-18.996-2.453-27.429-9.308
		c-23.91-19.434-45.326-41.134-63.324-66.056c-18.663-25.845-36.529-52.262-54.994-78.248
		c-14.221-20.014-28.562-39.952-43.325-59.567c-28.354-37.673-56.384-75.543-80.395-116.224
		c-5.739-9.725-12.119-19.076-18.333-28.514c-24.481-37.177-47.709-75.271-73.903-111.203
		c-25.374-34.805-52.162-68.648-81.805-100.216c-22.205-23.646-41.749-49.778-62.749-74.573
		c-27.213-32.132-46.42-69.518-69.119-104.607c-10.458-16.166-19.974-32.954-30.721-48.92c-13.708-20.36-28.26-40.152-42.391-60.23
		c-20.27-28.804-40.99-57.256-56.342-89.259c-6.246-13.02-13.9-25.396-23.604-36.666c-8.563-9.944-14.512-22.199-21.197-33.677
		c-3.367-5.781-7.312-10.838-11.74-15.885c-7.409-8.44-14.939-17.456-19.487-27.551c-5.543-12.303-4.438-25.843,0.748-38.67
		c8.093-20.016,21.805-36.418,34.945-53.019c11.083-14.004,23.657-26.836,35.695-40.073c19.336-21.267,42.792-37.732,65.042-55.605
		c4.646-3.733,9.797-7.19,13.321-11.835c1.96-2.582,2.801-9.349,1.139-10.813c-12.452-10.967-9.535-25.264-9.738-38.953
		C1123.489,2076.095,1123.523,2073.443,1123.523,2068.632z"/>
</g>
</svg>
