<?xml version="1.0" encoding="utf-8"?>
<!-- Generator: Adobe Illustrator 16.0.2, SVG Export Plug-In . SVG Version: 6.00 Build 0)  -->
<!DOCTYPE svg PUBLIC "-//W3C//DTD SVG 1.1 Tiny//EN" "http://www.w3.org/Graphics/SVG/1.1/DTD/svg11-tiny.dtd">
<svg version="1.1" baseProfile="tiny" id="Layer_1" xmlns="http://www.w3.org/2000/svg" xmlns:xlink="http://www.w3.org/1999/xlink"
	 x="0px" y="0px" width="3636.545px" height="3505.562px" viewBox="0 0 3636.545 3505.562" xml:space="preserve">
<g>
	<path fill-rule="evenodd" fill="#FFFFFF" d="M3639.432,3509.447c-1212.553,0-2424.992,0-3637.319,0
		c0-1169.224,0-2338.336,0-3507.335c1212.553,0,2424.992,0,3637.319,0C3639.432,1171.337,3639.432,2340.449,3639.432,3509.447z
		 M1191.578,3349.523c7.476,8.439,15.942,14.335,26.219,16.787c9.37,2.235,18.894,4.03,28.45,5.232
		c26.362,3.313,52.863,5.625,79.141,9.479c18.525,2.717,37.004,4.5,55.658,3.592c6.191-0.302,13.129-0.836,18.284-3.783
		c12.517-7.157,22.602-17.558,30.89-29.337c8.019-11.396,14.964-23.548,22.947-34.971c5.954-8.521,9.157-17.565,9.01-27.934
		c-0.142-9.977,0.411-19.984-0.176-29.93c-0.434-7.364,1.715-13.758,4.92-19.993c3.193-6.209,6.646-12.288,10.066-18.379
		c7.852-13.983,13.49-28.792,17.834-44.242c3.75-13.334,8.648-26.346,13.042-39.511c1.492,0.531,2.393,0.563,2.68,0.998
		c9.696,14.7,23.96,17.319,40.035,15.278c1.312-0.167,2.678-0.151,3.994-0.002c5.796,0.654,10.185-1.54,14.095-5.835
		c4.61-5.063,9.762-9.63,15.727-15.43c7.88,23.187,24.806,37.355,41.277,51.762c3.234,2.828,8.062,4.73,12.368,5.234
		c7.233,0.847,14.639,0.156,21.97,0.251c5.007,0.064,8.754-2.017,12.307-5.503c13.035-12.787,13.602-12.712,12.924-30.874
		c-0.316-8.486,1.887-14.84,8.597-19.81c4.946-3.665,7.129-8.547,6.397-14.759c-0.137-1.159,0.539-2.414,0.979-4.188
		c3.29,0,6.257-0.142,9.207,0.025c9.964,0.563,17.258-3.879,24.99-10.087c13.7-10.998,17.647-24.167,16.316-41.063
		c-1.318-16.726-13.599-30.857-30.017-31.788c-6.481-0.366-12.918-1.49-20.658-2.425c2.18-2.611,3.104-3.948,4.25-5.054
		c7.184-6.931,14.458-13.767,21.621-20.718c7.462-7.239,12.533-15.375,10.626-26.528c-0.664-3.887-0.214-7.984-0.084-11.98
		c0.195-6.003-1.848-10.804-6.288-15.027c-15.163-14.422-8.742-11.885-29.419-12.189c-2.999-0.044-6.022,0.234-8.994-0.051
		c-9.048-0.866-17.035,1.747-24.548,6.623c-4.064,2.637-8.444,4.788-14.093,7.949c0-8.737,0-15.637,0-22.536
		c0-20.951-0.141-20.813-14.509-35.426c-4.058-4.127-8.159-6.517-13.98-5.731c-1.963,0.266-4.029,0.286-5.987,0.003
		c-15.601-2.26-27.486,3.365-37.584,15.437c-6.304,7.534-12.199,14.805-14.489,24.533c-1.431,6.082-3.155,12.095-4.935,18.854
		c-21.289-17.131-43.626-15.027-67.032-4.682c0.765-4.939,1.75-10.437,2.454-15.968c3.058-24.019,6.229-48.024,8.99-72.077
		c3.027-26.37,5.654-52.787,8.446-79.185c1.85-17.49,3.653-34.987,5.525-52.477c2.79-26.063,5.997-52.089,8.335-78.193
		c2.667-29.757,4.533-59.586,6.884-89.372c0.233-2.959,1.415-5.843,2.295-9.3c11.151,11.604,21.114,22.324,31.462,32.659
		c15.317,15.293,31.062,30.156,46.344,45.482c24.224,24.294,48.215,48.82,72.309,73.245c24.786,25.125,49.896,49.896,76.772,72.832
		c32.376,27.629,63.949,56.236,97.014,83.004c23.233,18.808,48.195,35.518,72.74,52.655c16.608,11.598,32.974,24.025,50.967,33.052
		c33.846,16.978,68.515,32.414,103.377,47.228c22.897,9.729,46.68,17.4,70.167,25.708c46.107,16.31,93.15,27.505,142.569,24.525
		c13.591-0.82,27.461-0.826,40.647-3.731c28.564-6.293,56.537-14.552,83.579-26.351c34.129-14.891,65.463-34.141,95.197-56.146
		c16.283-12.051,31.634-25.361,47.373-38.143c1.544-1.255,2.788-2.875,4.298-4.18c20.99-18.134,35.331-41.41,49.879-64.518
		c5.699-9.052,10.446-18.563,12.251-29.23c1.92-11.349,7.358-21.237,12.216-31.442c4.27-8.972,9.214-18.035,11.147-27.606
		c2.601-12.864,6.778-24.948,12.034-36.789c3.556-8.013,5.548-16.24,5.166-25.064c-0.2-4.649-0.507-9.436,0.325-13.959
		c2.839-15.45,4.193-30.996,3.546-46.658c-0.428-10.313,3.17-19.488,6.575-28.843c1.321-3.628,2.731-7.538,2.671-11.297
		c-0.155-9.57-1.814-19.146-1.572-28.688c0.277-10.879,1.961-21.724,3.153-33.798c8.198-0.493,16.127-1.649,23.974-1.242
		c7.361,0.382,12.699-1.767,17.3-7.406c7.127-8.739,14.934-16.93,21.95-25.753c8.475-10.656,16.606-21.603,24.521-32.685
		c3.437-4.813,6.204-10.157,8.85-15.474c5.746-11.549,7.208-24.167,7.824-36.771c0.485-9.946,0.622-20.06-0.618-29.907
		c-2.566-20.374-10.173-38.969-23.335-56.414c9.282-22.48,18.886-45.472,28.271-68.551c9.226-22.688,15.022-46.766,27.004-69.618
		c0.877,2.138,1.248,2.729,1.363,3.365c4.573,25.492,9.156,50.983,13.665,76.487c4.046,22.892,8.188,45.768,11.966,68.703
		c8.22,49.888,19.361,99.102,33.44,147.658c7.951,27.418,16.292,54.734,23.649,82.313c12.159,45.584,23.437,91.402,35.519,137.006
		c10.301,38.88,21.161,77.611,31.93,116.365c1.134,4.077,1.331,7.597-0.751,11.44c-6.286,11.612-15.434,20.649-25.847,28.347
		c-8.801,6.506-18.777,11.498-27.207,18.413c-18.214,14.942-30.348,35.141-44.228,53.782c-1.939,2.604-2.757,6.025-4.226,9.002
		c-5.755,11.669-6.966,24.034-6.556,36.878c0.424,13.285-0.374,26.558,4.097,39.488c4.977,14.394,14.363,25.489,28.081,30.509
		c14.209,5.198,29.655,7.022,44.563,10.308c0.646,0.142,1.321,0.192,1.984,0.206c19.632,0.396,39.263,0.957,58.895,1.019
		c3.787,0.012,8.045-1.169,11.278-3.13c8.216-4.983,16.604-10.005,23.772-16.318c11.979-10.55,23.052-22.125,34.523-33.252
		c2.572-2.496,5.214-4.922,7.721-7.283c1.979,0.912,3.285,1.305,4.354,2.043c3.557,2.455,7.311,4.726,10.487,7.617
		c28.203,25.665,60.8,45.202,92.139,66.518c32.613,22.183,66.816,41.225,104.255,53.913c14.446,4.897,29.072,10.186,44.045,12.401
		c25.317,3.745,51.013,4.765,76.653,3.489c6.194-0.309,12.708-1.48,18.362-3.909c12.605-5.415,24.047-12.847,32.85-23.73
		c7.522-9.3,15.656-18.206,14.854-31.566c-0.13-2.162,1.778-4.964,3.538-6.634c9.036-8.582,12.406-19.215,12.254-31.327
		c-0.075-5.998,0.101-12.001-0.049-17.996c-0.089-3.575,1.026-6.03,3.924-8.481c5.581-4.719,10.437-10.286,15.83-15.241
		c3.23-2.967,4.415-6.348,4.327-10.632c-0.18-8.662-0.374-17.344,0.025-25.991c0.607-13.09-4.044-24.473-12.299-33.854
		c-10.529-11.965-21.334-24.057-33.752-33.912c-23.949-19.008-48.87-36.832-73.868-54.468
		c-14.636-10.324-29.323-20.823-46.622-26.72c-4.961-1.691-9.71-4.188-14.285-6.789c-22.535-12.813-41.412-31.019-64.313-43.397
		c-13.185-7.127-24.594-16.9-35.696-27.039c-15.227-13.905-30.68-27.482-44.053-43.325c-3.929-4.653-6.087-9.468-6.94-14.993
		c-4.2-27.191-8.226-54.412-12.176-81.643c-4.635-31.946-2.137-64.259-5.389-96.412c-3.47-34.312-1.858-69.128-2.69-103.718
		c-0.326-13.609-1.25-27.205-1.92-40.808c-2.012-40.895-9.403-81.015-16.617-121.228c-7.384-41.162-10.884-82.777-10.187-124.7
		c0.231-13.942-0.747-27.906-1.228-41.858c-0.627-18.264-1.301-36.527-1.973-54.79c-1.061-28.867-2.136-57.734-3.228-87.193
		c11.927-7.901,23.842-17.118,36.948-24.097c12.354-6.579,22.206-15.559,31.892-25.203c9.716-9.675,14.833-20.816,14.437-34.755
		c-1.111-38.909-1.608-77.837-2.907-116.739c-0.387-11.587-1.979-23.55-9.594-32.964c-5.092-6.295-5.648-12.926-5.701-20.334
		c-0.042-5.865-0.366-11.989-2.081-17.529c-3.422-11.051-7.743-21.835-11.947-32.63c-7.472-19.182-14.309-38.598-30.646-52.861
		c-9.478-8.274-20.146-12.663-32.291-13.179c-13.556-0.576-27.154-0.132-40.525-0.132c-7.319-18.495-15.213-35.808-21.004-53.798
		c-6.047-18.777-15.072-35.612-27.948-50.209c-11.195-12.692-23.726-24.196-35.26-36.602c-8.923-9.596-19.14-16.293-32.278-18.374
		c-2.334-0.369-4.718-2.111-6.517-3.812c-4.104-3.882-8.182-7.874-11.696-12.28c-10.912-13.678-26.143-17.602-42.379-18.818
		c-14.91-1.116-29.882-1.413-44.822-2.136c-1.568-0.076-3.115-0.583-4.684-0.892c-0.162-1.767-0.582-3.136-0.355-4.386
		c2.556-14.077-3.705-24.346-14.012-32.925c-0.766-0.638-1.516-1.334-2.115-2.123c-4.585-6.038-10.419-8.494-18.146-7.76
		c-6.112,0.58-12.349-0.13-18.984-0.276c0-12.357,0-23.577,0-33.104c13.272-12.543,26.418-23.451,37.741-36.003
		c19.333-21.433,32.452-46.617,35.76-75.512c2.261-19.75,2.447-39.837,2.175-59.754c-0.484-35.475-13.891-65.87-38.406-91.526
		c-5.874-6.147-10.901-13.104-16.312-19.681c5.34-6.099,10.157-11.165,14.483-16.619c17.053-21.502,29.672-45.712,42.237-69.936
		c4.137-7.975,7.917-16.136,12.086-24.092c6.47-12.343,13.192-24.385,16.649-38.229c4.448-17.815,3.345-35.723,3.243-53.628
		c-0.036-6.448-2.061-12.954-3.684-19.304c-1.72-6.729-5.185-13.188-5.864-19.968c-1.469-14.65-7.64-26.674-17.571-37.042
		c-6.684-6.978-13.808-13.539-20.431-20.571c-8.143-8.645-17.825-14.96-28.563-19.72c-7.296-3.234-14.705-6.247-22.19-9.012
		c-16.207-5.987-32.204-12.792-49.749-14.064c-26.506-1.922-53.014-3.827-79.517-5.769c-1.563-0.115-3.106-0.505-5.258-0.869
		c-0.339-3.626-0.73-6.872-0.928-10.129c-0.34-5.644-0.052-11.374-0.913-16.93c-4.754-30.661-3.464-61.638-4.922-92.461
		c-0.625-13.236,0.745-26.563,1.148-39.851c0.354-11.646,0.378-23.308,0.989-34.939c0.768-14.581,2.35-29.125,2.902-43.711
		c0.505-13.313,0.157-26.66,0.092-39.99c-0.053-10.727-1.559-21.175-6.147-31.032c-5.185-11.132-9.94-22.475-15.478-33.425
		c-3.725-7.366-7.44-15.195-13.004-21.073c-10.257-10.833-21.835-20.424-32.938-30.449c-4.051-3.658-8.808-5.399-14.381-6.115
		c-33.277-4.274-66.504-8.942-99.759-13.398c-18.14-2.43-36.308-4.625-54.677-3.511c-16.583,1.006-33.175,1.906-49.74,3.146
		c-23.187,1.735-46.438,3.027-69.506,5.81c-30.329,3.659-60.686,7.623-90.7,13.224c-32.319,6.033-64.298,13.936-96.315,21.486
		c-4.596,1.083-8.748,4.52-12.789,7.324c-2.976,2.065-5.454,4.852-8.117,7.357c-19.957,18.778-39.018,38.32-50.07,63.997
		c-4.729,10.986-9.008,22.202-12.818,33.54c-8.18,24.342-13.741,49.325-14.656,75.039c-0.817,22.964-0.678,45.965-0.771,68.949
		c-0.113,27.996-0.495,56.003,0.141,83.985c0.414,18.223,1.986,36.456,3.851,54.601c2.169,21.116,5.336,42.127,7.838,63.212
		c0.919,7.754,1.174,15.587,1.704,22.979c-1.03,0.598-1.294,0.859-1.593,0.906c-0.984,0.154-1.978,0.284-2.972,0.328
		c-33.299,1.474-62.251,12.744-85.257,37.605c-4.524,4.889-9.402,9.449-14.112,14.165c-25.989,26.025-46.51,55.64-58.303,90.71
		c-3.261,9.698-6.458,19.867-6.961,29.955c-1.206,24.241-1.332,48.646,3.878,72.552c1.885,8.652,4.428,17.698,9.03,25.095
		c7.155,11.496,15.908,22.095,24.766,32.404c9.077,10.566,19.095,20.324,28.985,30.737c-6.953,6.993-13.819,13.738-20.505,20.658
		c-18.066,18.698-28.696,40.446-27.881,67.091c0.692,22.605,0.765,45.229,1.446,67.834c0.607,20.142,4.587,39.564,13.561,57.812
		c3.932,7.998,7.492,16.179,11.636,25.18c-4.355,0.796-7.932,1.276-11.418,2.121c-11.275,2.732-23.187,4.087-33.635,8.721
		c-23.437,10.393-41.198,27.69-53.786,50.143c-2.44,4.353-4.865,8.722-7.505,12.955c-7.563,12.128-11.808,25.51-12.02,39.576
		c-0.309,20.538-1.95,41.208,2.859,62.185c-16.509,0.041-30.283,6.432-42.163,16.496c-8.363,7.085-15.893,15.209-23.403,23.234
		c-15.189,16.229-23.658,35.144-22.214,57.86c0.316,4.98,0.093,9.997,0.025,14.996c-0.033,2.458-0.279,4.914-0.453,7.77
		c-1.465-0.856-2.188-1.049-2.54-1.519c-30.311-40.398-59.938-81.324-92.802-119.749c-1.344-1.573-1.92-4.144-2.106-6.315
		c-2.036-23.856-4.831-47.635-11.55-70.661c-5.582-19.123-6.642-38.662-6.208-58.206c0.564-25.334,0.8-50.529-4.119-75.529
		c-4.022-20.441-10.471-39.929-23.063-56.773c-3.32-4.441-3.305-8.375-1.841-12.991c4.578-14.432,6.153-29.215,5.396-44.308
		c-0.749-14.927-1.394-29.859-1.997-44.792c-1.518-37.612-16.801-70.235-37.734-100.352c-18.916-27.213-43.787-49.068-68.526-70.791
		c-12.973-11.39-26.974-21.604-40.401-32.483c-2.231-1.808-5.179-4.082-5.617-6.53c-2.81-15.7-10.453-29.366-17.361-43.354
		c-15.813-32.014-38.667-58.082-67.828-78.441c-34.076-23.791-68.56-46.802-100.182-74.123
		c-45.063-38.935-92.407-75.109-143.79-105.626c-23.445-13.925-46.696-28.18-70.159-42.077c-11.729-6.947-23.7-13.491-35.629-20.094
		c-9.888-5.474-19.677-11.184-29.861-16.053c-21.291-10.181-42.886-19.72-64.224-29.805c-34.164-16.146-70.06-22.294-107.633-19.428
		c-3.735,0.285-7.51,0.038-11.266,0.038c7.861-6.176,15.854-10.795,24.228-14.564c55.347-24.908,113.716-38.991,173.46-48.12
		c10.461-1.598,20.927-3.343,31.229-5.72c8.711-2.01,17.102-5.379,25.784-7.543c30.32-7.558,60.532-15.402,88.383-30.124
		c4.353-2.301,8.692-4.995,12.263-8.336c12.157-11.374,24.079-23.006,35.876-34.755c11.096-11.049,16.19-24.424,16.551-40.254
		c0.329-14.457-2.425-28.402-4.274-42.541c-1.407-10.755-6.304-19.157-14.63-26.048c-3.029-2.506-5.73-4.034-9.699-3.866
		c-6.24,0.264-12.498,0.07-18.925,0.07c0-7.591-0.019-14.16,0.003-20.729c0.073-22.09,1.488-19.583-15.446-36.332
		c-0.474-0.469-0.864-1.132-1.435-1.375c-2.907-1.245-5.813-3.226-8.808-3.395c-8.307-0.466-16.671,0.161-24.983-0.259
		c-7.653-0.388-14.278,1.133-20.435,6.042c-4.102,3.27-9.039,5.602-13.827,7.885c-17.231,8.219-32.441,18.975-46.672,31.898
		c-12.435,11.293-26.417,21.539-41.22,29.424c-26.7,14.223-55.451,23.76-84.707,31.657c-6.742,1.82-13.146,1.945-19.538-0.056
		c-6.333-1.983-12.67-4.248-18.585-7.224c-26.692-13.424-50.63-30.244-68.853-54.59c-12.779-17.072-25.836-33.88-33.274-54.117
		c-2.494-6.787-4.863-13.936-5.374-21.057c-0.637-8.858,0.314-17.901,1.285-26.788c2.034-18.62-10.119-29.296-21.974-40.113
		c-1.472-1.344-4.317-1.618-6.534-1.641c-13.996-0.142-28.001-0.306-41.988,0.1c-3.325,0.097-7.253,1.567-9.754,3.734
		c-8.008,6.938-15.477,14.499-23.764,22.401c-5.666-7.732-13.21-11.039-23.515-10.582c-19.974,0.885-19.888,0.371-34.59,14.765
		c-4.713,4.616-8.069,9.461-8.731,16.222c-0.473,4.832-1.838,9.577-2.991,15.272c-8.763,0-17.038-0.172-25.301,0.045
		c-9.179,0.241-18.319,2.218-24.844,8.747c-18.969,18.978-20.493,14.387-20.061,44.567c0.038,2.666,0.172,5.344-0.028,7.996
		c-0.352,4.665,1.173,8.394,4.652,11.543c8.626,7.81,17.179,15.699,25.684,23.64c2.398,2.239,4.902,4.513,6.709,7.206
		c4.434,6.61,8.84,13.287,12.615,20.282c5.568,10.316,9.36,20.976,6.726,33.252c-3.327,15.507-9.899,29.676-17.293,43.399
		c-6.773,12.572-14.755,24.531-26.947,32.872c-15.648,10.705-31.154,21.621-46.893,32.189c-7.396,4.966-15.367,8.922-24.528,10.905
		c-1.762-5.113-3.403-9.795-4.992-14.493c-11.624-34.359-26.582-66.665-54.246-91.614c-13.288-11.984-28.057-21.285-44.709-27.621
		c-20.982-7.981-42.929-8.113-64.979-8.185c-21.481-0.07-41.227,6.205-60.772,14.14c-17.835,7.24-30.987,20.309-44.074,33.69
		c-10.296,10.529-15.749,22.77-15.578,37.575c0.161,13.996,0.347,28.004-0.059,41.991c-0.374,12.876,3.509,24.301,10.659,34.637
		c20.479,29.608,47.869,51.479,78.731,69.322c21.234,12.276,44.586,16.961,68.71,18.749c9.866,0.73,19.726,1.532,30.489,2.372
		c-0.654,8.231-1.212,15.752-1.857,23.266c-1.827,21.292-5.429,42.178-14.58,61.733c-4.226,9.032-8.659,17.967-12.926,26.98
		c-6.832,14.428-13.55,28.855-23.581,41.531c-14.646,18.508-28.291,37.804-45.821,53.901c-5.594,5.136-9.825,11.727-15.127,17.219
		c-3.872,4.013-8.087,7.975-12.838,10.8c-9.112,5.419-15.847,13.127-22.111,21.283c-1.868,2.431-2.716,6.143-2.848,9.316
		c-0.373,8.983-0.512,18.017,0.05,26.98c0.233,3.71,1.736,7.871,3.992,10.803c3.625,4.71,8.132,8.831,12.673,12.726
		c6.471,5.55,13.787,8.529,22.77,8.322c16.25-0.374,32.532,0.347,47.953-5.116c6.184,7.17,12.238,13.386,17.349,20.299
		c8.314,11.246,18.98,15.737,32.702,13.545c5.83-0.932,12.378-0.129,17.46-2.529c24.089-11.382,49.371-17.571,75.811-19.29
		c7.76-0.503,15.58-0.077,25.317-0.077c-3.831,4.246-6.917,4.814-10.149,4.953c-7.976,0.342-15.955,0.883-23.932,0.86
		c-11.397-0.031-21.811,1.812-28.654,12.248c-0.179,0.272-0.441,0.505-0.702,0.708c-3.696,2.886-5.534,6.593-4.791,11.317
		c1.201,7.64-1.941,13.08-7.537,18.211c-12.028,11.029-23.346,22.785-31.654,37.056c-5.1,8.758-8.569,18.075-8.757,28.266
		c-0.245,13.327-0.115,26.662-0.042,39.993c0.066,12.053,3.574,23.004,11.797,31.944c5.845,6.354,12.141,12.329,18.552,18.123
		c9.976,9.018,21.247,14.73,35.301,12.186c0.969-0.175,2.017-0.154,2.993-0.003c10.203,1.585,18.147-2.07,24.28-10.212
		c1.191-1.581,3.141-2.647,4.119-4.316c1.287-2.195,2.71-4.733,2.767-7.154c0.279-11.952,0.127-23.913,0.127-36.508
		c17.844-16.012,38.971-27.862,64.133-29.557c25.749-1.735,51.087,1.988,75.6,10.496c6.503,2.256,11.778,6.008,15.713,11.687
		c13.821,19.947,28.742,39.232,41.188,60.001c10.194,17.01,22.867,30.68,38.837,42.06c7.417,5.285,14.647,8.616,23.864,7.565
		c6.241-0.711,13.228,1.041,18.747-1.157c19.995-7.965,37.837-18.567,38.093-43.965c0.003-0.326,0.154-0.648,0.207-0.977
		c2.702-16.896,2.391-33.841,0.218-50.721c-1.308-10.158-3.503-20.202-5.471-31.252c6.909,0,13.195,0.082,19.476-0.044
		c2.263-0.046,5.222,0.214,6.662-1.043c10.876-9.486,21.227-19.409,20.74-35.617c-0.19-6.326-0.296-12.678,0.047-18.992
		c0.31-5.693-1.631-9.987-5.275-14.385c-17.155-20.707-34.442-41.336-50.739-62.712c-20.997-27.542-40.27-56.273-54.023-88.308
		c-1.249-2.906-2.339-5.88-3.503-8.823c8.475,7.935,15.735,16.555,23.723,24.438c17.059,16.833,34.414,33.37,51.824,49.842
		c5.059,4.786,10.388,9.43,16.162,13.287c14.658,9.793,29.308,19.677,44.575,28.457c18.138,10.428,36.836,19.896,55.442,29.49
		c18.321,9.446,37.047,18.127,55.178,27.917c11.982,6.47,22.892,14.921,34.864,21.413c33.993,18.431,66.436,39.215,97.483,62.224
		c4.542,3.367,8.895,7.024,13.639,10.076c22.071,14.199,44.3,28.15,66.364,42.36c9.574,6.167,18.884,12.741,28.853,19.495
		c-4.349,3.538-7.924,6.003-10.973,9.003c-13.735,13.512-28.394,26.277-40.693,41.003c-16.362,19.591-29.138,41.423-27.738,68.591
		c0.084,1.614-0.73,3.263-0.727,4.895c0.035,15.618-0.591,31.285,0.435,46.841c1.409,21.343,10.525,40.375,20.479,58.904
		c2.009,3.74,4.568,7.692,7.912,10.107c8.148,5.886,9.441,13.75,8.666,22.802c-0.632,7.385-1.23,14.682-7.489,19.895
		c-17.541,14.608-27.418,34.906-39.307,53.633c-3.249,5.118-5.109,11.718-5.676,17.817c-1.351,14.538-2.119,29.185-2.098,43.787
		c0.043,30.858,11.738,56.783,34.37,77.87c11.04,10.287,23.164,18.803,35.956,23.777c1.712,8.321,1.863,16.022,4.877,22.363
		c8.455,17.785,22.104,31.267,38.738,41.693c11.5,7.208,24.611,11.91,34.629,21.383c13.063,12.353,27.789,20.271,46.296,19.667
		c2.966-0.098,5.981,0.328,8.93,0.793c26.984,4.25,52.868-1.007,78.309-9.321c6.5-2.124,12.45-3.227,19.332-1.271
		c17.69,5.023,35.813,7.261,54.272,6.661c9.267-0.302,18.552-0.053,27.54-0.053c1.224,2.209,2.25,3.579,2.795,5.119
		c5,14.088,9.623,28.318,14.918,42.292c11.191,29.538,22.697,58.957,34.152,88.393c1.079,2.775,2.615,5.391,4.1,7.987
		c10.89,19.062,21.857,38.079,32.707,57.163c1.865,3.28,3.288,6.813,4.915,10.229c-0.573,0.487-1.146,0.976-1.72,1.463
		c-9.271-5.53-18.977-10.455-27.721-16.722c-17.287-12.39-33.985-25.6-51.055-38.298c-4.786-3.56-9.852-6.824-15.089-9.676
		c-7.887-4.297-16.019-8.145-24.076-12.123c-17.988-8.881-36.598-15.549-56.782-17.598c-8.495-0.861-16.769-4.428-25.243-4.884
		c-23.579-1.269-47.21-2.003-70.82-2.019c-10.542-0.007-21.17,1.732-31.605,3.561c-9.805,1.718-19.489,4.305-29.068,7.059
		c-6.984,2.009-13.857,4.573-20.531,7.467c-30.436,13.197-58.359,30.432-82.65,53.143c-10.44,9.762-21.568,19.221-30.025,30.574
		c-15.264,20.49-28.562,42.14-36.807,66.948c-10.808,32.519-16.952,65.486-17.11,99.671c-0.085,18.317,0.327,36.668-0.642,54.942
		c-1.317,24.846-4.04,49.614-5.609,74.449c-1.592,25.192-2.759,50.419-3.664,75.646c-0.965,26.922-1.404,53.864-2.082,80.797
		c-0.042,1.663-0.13,3.328-0.27,4.986c-2.714,32.407-5.285,64.827-8.213,97.215c-2.392,26.443-5.489,52.823-7.746,79.277
		c-1.354,15.887-1.457,31.876-2.551,47.79c-1.523,22.166-4.402,44.28-4.977,66.461c-0.863,33.272-0.231,66.585-0.235,99.88
		c-0.001,5.871,0,11.743,0,17.431c-8.095-1.727-15.111-3.889-22.269-4.576c-7.926-0.761-15.991,0.072-23.977-0.256
		c-5.833-0.238-10.175,1.871-14.089,6.036c-5.932,6.312-11.96,12.575-18.398,18.356c-6.974,6.264-10.801,13.981-13.533,22.779
		c-2.35,7.566-5.079,15.295-9.22,21.972c-12.806,20.646-25.571,41.196-32.462,64.814c-0.933,3.198-3.449,6.449-6.124,8.532
		c-8.919,6.946-18.082,13.611-27.478,19.896c-4.916,3.289-10.302,7.273-15.843,7.952c-14.055,1.72-28.288,4.271-42.505,0.434
		c-13.479-3.637-27.026-7.02-40.517-10.607c-5.753-1.528-11.618-2.854-17.129-5.037c-14.195-5.622-28.072-11.974-43.354-14.49
		c-10.473-1.724-20.779-4.45-31.189-6.58c-4.216-0.863-8.524-1.969-12.77-1.886c-23.61,0.459-47.215,1.276-70.823,1.915
		c-13.002,0.352-23.748,5.976-33.009,14.533c-15.473,14.297-28.789,30.195-39.152,48.828
		c-20.509,36.868-35.181,75.212-34.781,118.126c0.01,0.992-0.029,2.01-0.229,2.978c-4.008,19.398-3.216,39.058-2.902,58.655
		c0.066,4.104,1.214,8.947,3.629,12.096c4.622,6.027,9.81,12.115,16.015,16.338c15.344,10.442,31.421,19.617,48.492,27.289
		c27.146,12.198,56.171,18.553,83.998,28.578c7.037,2.535,11.102,6.916,14.907,12.146c9.128,12.548,19.476,23.961,33.826,30.169
		c27.13,11.738,54.668,22.533,82.018,33.766c8.909,3.659,17.969,7.037,26.599,11.275c21.268,10.445,43.322,18.861,65.969,25.609
		c21.002,6.258,42.165,12.041,63.427,17.348c47.248,11.792,95.095,19.413,143.969,19.383c6.96-0.005,13.945,0.709,20.878,1.455
		c24.12,2.595,48.119,7.16,72.524,5.237c9.565-0.754,19.341-1.588,28.497-4.217
		C1152.001,3369.338,1172.054,3361.249,1191.578,3349.523z"/>
	<path fill-rule="evenodd" d="M1191.578,3349.523c-19.524,11.726-39.577,19.814-60.374,25.784
		c-9.155,2.629-18.931,3.463-28.497,4.217c-24.405,1.923-48.404-2.643-72.524-5.237c-6.934-0.746-13.918-1.46-20.878-1.455
		c-48.875,0.03-96.721-7.591-143.969-19.383c-21.262-5.307-42.424-11.09-63.427-17.348c-22.647-6.748-44.701-15.164-65.969-25.609
		c-8.63-4.238-17.69-7.616-26.599-11.275c-27.35-11.232-54.888-22.027-82.018-33.766c-14.35-6.208-24.698-17.621-33.826-30.169
		c-3.805-5.229-7.87-9.61-14.907-12.146c-27.827-10.025-56.852-16.38-83.998-28.578c-17.071-7.672-33.148-16.847-48.492-27.289
		c-6.205-4.223-11.393-10.311-16.015-16.338c-2.415-3.148-3.563-7.992-3.629-12.096c-0.314-19.598-1.106-39.257,2.902-58.655
		c0.2-0.968,0.239-1.985,0.229-2.978c-0.4-42.914,14.271-81.258,34.781-118.126c10.364-18.633,23.68-34.531,39.152-48.828
		c9.261-8.558,20.007-14.182,33.009-14.533c23.608-0.639,47.213-1.456,70.823-1.915c4.246-0.083,8.554,1.022,12.77,1.886
		c10.411,2.13,20.716,4.856,31.189,6.58c15.282,2.517,29.159,8.868,43.354,14.49c5.511,2.183,11.375,3.509,17.129,5.037
		c13.491,3.588,27.039,6.971,40.517,10.607c14.217,3.837,28.451,1.286,42.505-0.434c5.541-0.679,10.927-4.663,15.843-7.952
		c9.396-6.285,18.559-12.95,27.478-19.896c2.674-2.083,5.191-5.334,6.124-8.532c6.892-23.618,19.656-44.169,32.462-64.814
		c4.141-6.677,6.87-14.405,9.22-21.972c2.732-8.798,6.56-16.516,13.533-22.779c6.438-5.781,12.466-12.045,18.398-18.356
		c3.914-4.165,8.256-6.274,14.089-6.036c7.985,0.328,16.051-0.505,23.977,0.256c7.157,0.688,14.174,2.85,22.269,4.576
		c0-5.688-0.001-11.56,0-17.431c0.004-33.295-0.628-66.607,0.235-99.88c0.575-22.181,3.454-44.295,4.977-66.461
		c1.095-15.914,1.197-31.903,2.551-47.79c2.257-26.454,5.354-52.834,7.746-79.277c2.928-32.388,5.499-64.808,8.213-97.215
		c0.14-1.658,0.228-3.323,0.27-4.986c0.678-26.933,1.116-53.875,2.082-80.797c0.905-25.227,2.072-50.453,3.664-75.646
		c1.57-24.835,4.292-49.604,5.609-74.449c0.969-18.274,0.557-36.625,0.642-54.942c0.158-34.185,6.303-67.152,17.11-99.671
		c8.245-24.809,21.543-46.458,36.807-66.948c8.457-11.354,19.585-20.813,30.025-30.574c24.291-22.711,52.214-39.945,82.65-53.143
		c6.673-2.894,13.546-5.458,20.531-7.467c9.579-2.754,19.263-5.341,29.068-7.059c10.435-1.828,21.063-3.567,31.605-3.561
		c23.61,0.016,47.241,0.75,70.82,2.019c8.475,0.456,16.748,4.022,25.243,4.884c20.184,2.049,38.794,8.717,56.782,17.598
		c8.058,3.979,16.189,7.826,24.076,12.123c5.237,2.852,10.303,6.116,15.089,9.676c17.07,12.698,33.769,25.908,51.055,38.298
		c8.744,6.267,18.451,11.191,27.721,16.722c0.573-0.487,1.146-0.976,1.72-1.463c-1.627-3.416-3.05-6.948-4.915-10.229
		c-10.85-19.084-21.817-38.102-32.707-57.163c-1.485-2.597-3.021-5.212-4.1-7.987c-11.455-29.437-22.961-58.855-34.152-88.393
		c-5.295-13.975-9.918-28.205-14.918-42.292c-0.546-1.54-1.571-2.91-2.795-5.119c-8.987,0-18.272-0.249-27.54,0.053
		c-18.459,0.6-36.583-1.638-54.272-6.661c-6.882-1.955-12.832-0.853-19.332,1.271c-25.441,8.314-51.325,13.571-78.309,9.321
		c-2.948-0.465-5.963-0.891-8.93-0.793c-18.507,0.604-33.233-7.314-46.296-19.667c-10.019-9.474-23.13-14.175-34.629-21.383
		c-16.634-10.426-30.284-23.908-38.738-41.693c-3.015-6.34-3.165-14.042-4.877-22.363c-12.792-4.974-24.916-13.49-35.956-23.777
		c-22.632-21.087-34.327-47.012-34.37-77.87c-0.021-14.602,0.747-29.249,2.098-43.787c0.567-6.099,2.428-12.7,5.676-17.817
		c11.888-18.727,21.766-39.024,39.307-53.633c6.259-5.213,6.857-12.51,7.489-19.895c0.775-9.052-0.518-16.916-8.666-22.802
		c-3.344-2.416-5.903-6.367-7.912-10.107c-9.954-18.529-19.07-37.562-20.479-58.904c-1.026-15.556-0.399-31.223-0.435-46.841
		c-0.004-1.632,0.811-3.281,0.727-4.895c-1.4-27.168,11.375-49,27.738-68.591c12.299-14.727,26.958-27.491,40.693-41.003
		c3.049-3,6.624-5.465,10.973-9.003c-9.969-6.754-19.279-13.328-28.853-19.495c-22.063-14.21-44.293-28.161-66.364-42.36
		c-4.744-3.051-9.097-6.709-13.639-10.076c-31.047-23.009-63.49-43.792-97.483-62.224c-11.972-6.492-22.882-14.942-34.864-21.413
		c-18.131-9.79-36.857-18.47-55.178-27.917c-18.606-9.594-37.305-19.062-55.442-29.49c-15.268-8.779-29.917-18.664-44.575-28.457
		c-5.774-3.857-11.104-8.5-16.162-13.287c-17.41-16.472-34.765-33.008-51.824-49.842c-7.987-7.884-15.248-16.504-23.723-24.438
		c1.164,2.943,2.254,5.917,3.503,8.823c13.753,32.035,33.026,60.767,54.023,88.308c16.297,21.376,33.584,42.005,50.739,62.712
		c3.644,4.398,5.584,8.692,5.275,14.385c-0.343,6.314-0.237,12.666-0.047,18.992c0.487,16.208-9.863,26.131-20.74,35.617
		c-1.44,1.257-4.399,0.997-6.662,1.043c-6.281,0.126-12.567,0.044-19.476,0.044c1.968,11.05,4.164,21.094,5.471,31.252
		c2.173,16.88,2.484,33.826-0.218,50.721c-0.053,0.328-0.204,0.65-0.207,0.977c-0.256,25.398-18.099,36-38.093,43.965
		c-5.519,2.198-12.506,0.446-18.747,1.157c-9.217,1.051-16.447-2.28-23.864-7.565c-15.97-11.379-28.643-25.05-38.837-42.06
		c-12.446-20.769-27.367-40.054-41.188-60.001c-3.935-5.679-9.21-9.431-15.713-11.687c-24.513-8.508-49.851-12.231-75.6-10.496
		c-25.163,1.695-46.289,13.545-64.133,29.557c0,12.595,0.152,24.557-0.127,36.508c-0.057,2.421-1.479,4.959-2.767,7.154
		c-0.978,1.668-2.928,2.735-4.119,4.316c-6.133,8.143-14.078,11.797-24.28,10.212c-0.977-0.151-2.024-0.172-2.993,0.003
		c-14.054,2.544-25.325-3.168-35.301-12.186c-6.411-5.794-12.707-11.768-18.552-18.123c-8.224-8.94-11.731-19.891-11.797-31.944
		c-0.073-13.331-0.203-26.666,0.042-39.993c0.188-10.191,3.657-19.508,8.757-28.266c8.309-14.271,19.626-26.027,31.654-37.056
		c5.596-5.132,8.738-10.572,7.537-18.211c-0.743-4.724,1.095-8.431,4.791-11.317c0.261-0.203,0.523-0.436,0.702-0.708
		c6.844-10.436,17.257-12.279,28.654-12.248c7.977,0.022,15.956-0.519,23.932-0.86c3.232-0.139,6.318-0.707,10.149-4.953
		c-9.737,0-17.558-0.426-25.317,0.077c-26.44,1.719-51.721,7.908-75.811,19.29c-5.082,2.4-11.63,1.597-17.46,2.529
		c-13.722,2.192-24.388-2.299-32.702-13.545c-5.111-6.913-11.166-13.129-17.349-20.299c-15.421,5.463-31.703,4.742-47.953,5.116
		c-8.983,0.207-16.299-2.772-22.77-8.322c-4.542-3.895-9.048-8.016-12.673-12.726c-2.256-2.932-3.759-7.093-3.992-10.803
		c-0.562-8.963-0.422-17.997-0.05-26.98c0.132-3.173,0.98-6.885,2.848-9.316c6.265-8.155,12.999-15.863,22.111-21.283
		c4.751-2.826,8.966-6.787,12.838-10.8c5.302-5.492,9.533-12.083,15.127-17.219c17.531-16.098,31.175-35.394,45.821-53.901
		c10.031-12.676,16.749-27.103,23.581-41.531c4.268-9.013,8.701-17.948,12.926-26.98c9.15-19.555,12.752-40.441,14.58-61.733
		c0.645-7.514,1.203-15.034,1.857-23.266c-10.763-0.84-20.623-1.642-30.489-2.372c-24.125-1.788-47.476-6.473-68.71-18.749
		c-30.863-17.843-58.252-39.714-78.731-69.322c-7.15-10.336-11.033-21.761-10.659-34.637c0.405-13.987,0.22-27.996,0.059-41.991
		c-0.171-14.806,5.281-27.046,15.578-37.575c13.086-13.381,26.239-26.45,44.074-33.69c19.545-7.936,39.291-14.21,60.772-14.14
		c22.05,0.071,43.997,0.203,64.979,8.185c16.652,6.336,31.422,15.637,44.709,27.621c27.664,24.949,42.623,57.254,54.246,91.614
		c1.589,4.698,3.23,9.38,4.992,14.493c9.161-1.982,17.133-5.938,24.528-10.905c15.738-10.569,31.244-21.485,46.893-32.189
		c12.192-8.341,20.173-20.299,26.947-32.872c7.394-13.723,13.966-27.893,17.293-43.399c2.634-12.276-1.158-22.937-6.726-33.252
		c-3.775-6.995-8.181-13.671-12.615-20.282c-1.807-2.693-4.311-4.967-6.709-7.206c-8.505-7.94-17.058-15.83-25.684-23.64
		c-3.479-3.15-5.003-6.879-4.652-11.543c0.2-2.652,0.066-5.331,0.028-7.996c-0.432-30.18,1.092-25.589,20.061-44.567
		c6.524-6.528,15.665-8.505,24.844-8.747c8.264-0.217,16.538-0.045,25.301-0.045c1.152-5.696,2.518-10.441,2.991-15.272
		c0.662-6.76,4.019-11.606,8.731-16.222c14.702-14.394,14.616-13.88,34.59-14.765c10.305-0.457,17.849,2.85,23.515,10.582
		c8.287-7.902,15.756-15.463,23.764-22.401c2.501-2.167,6.429-3.638,9.754-3.734c13.986-0.406,27.992-0.241,41.988-0.1
		c2.217,0.022,5.062,0.297,6.534,1.641c11.855,10.817,24.008,21.494,21.974,40.113c-0.971,8.887-1.922,17.93-1.285,26.788
		c0.511,7.121,2.879,14.27,5.374,21.057c7.438,20.237,20.495,37.045,33.274,54.117c18.223,24.346,42.161,41.166,68.853,54.59
		c5.915,2.976,12.252,5.24,18.585,7.224c6.392,2.001,12.796,1.876,19.538,0.056c29.256-7.897,58.007-17.435,84.707-31.657
		c14.803-7.885,28.786-18.13,41.22-29.424c14.231-12.923,29.441-23.68,46.672-31.898c4.788-2.283,9.725-4.615,13.827-7.885
		c6.157-4.909,12.782-6.43,20.435-6.042c8.312,0.42,16.676-0.207,24.983,0.259c2.994,0.169,5.901,2.15,8.808,3.395
		c0.57,0.243,0.961,0.906,1.435,1.375c16.934,16.748,15.52,14.241,15.446,36.332c-0.021,6.569-0.003,13.138-0.003,20.729
		c6.428,0,12.686,0.193,18.925-0.07c3.968-0.168,6.67,1.36,9.699,3.866c8.326,6.891,13.223,15.293,14.63,26.048
		c1.849,14.139,4.603,28.083,4.274,42.541c-0.36,15.83-5.455,29.206-16.551,40.254c-11.797,11.749-23.72,23.381-35.876,34.755
		c-3.571,3.341-7.91,6.035-12.263,8.336c-27.851,14.722-58.063,22.566-88.383,30.124c-8.683,2.164-17.073,5.533-25.784,7.543
		c-10.302,2.376-20.769,4.122-31.229,5.72c-59.744,9.129-118.114,23.212-173.46,48.12c-8.374,3.769-16.366,8.389-24.228,14.564
		c3.756,0,7.531,0.247,11.266-0.038c37.574-2.867,73.469,3.281,107.633,19.428c21.338,10.084,42.934,19.624,64.224,29.805
		c10.184,4.869,19.973,10.579,29.861,16.053c11.929,6.603,23.9,13.146,35.629,20.094c23.463,13.897,46.714,28.152,70.159,42.077
		c51.382,30.517,98.726,66.691,143.79,105.626c31.622,27.321,66.106,50.332,100.182,74.123
		c29.161,20.359,52.015,46.428,67.828,78.441c6.909,13.987,14.551,27.653,17.361,43.354c0.438,2.448,3.386,4.722,5.617,6.53
		c13.427,10.879,27.428,21.093,40.401,32.483c24.739,21.723,49.61,43.578,68.526,70.791c20.934,30.116,36.217,62.739,37.734,100.352
		c0.603,14.933,1.248,29.866,1.997,44.792c0.757,15.093-0.819,29.876-5.396,44.308c-1.464,4.616-1.479,8.55,1.841,12.991
		c12.591,16.845,19.041,36.333,23.063,56.773c4.918,25,4.683,50.195,4.119,75.529c-0.435,19.544,0.626,39.083,6.208,58.206
		c6.72,23.025,9.514,46.805,11.55,70.661c0.186,2.171,0.762,4.742,2.106,6.315c32.864,38.425,62.491,79.35,92.802,119.749
		c0.353,0.47,1.075,0.662,2.54,1.519c0.174-2.855,0.42-5.311,0.453-7.77c0.067-4.999,0.291-10.016-0.025-14.996
		c-1.444-22.716,7.024-41.631,22.214-57.86c7.511-8.025,15.04-16.149,23.403-23.234c11.879-10.064,25.654-16.455,42.163-16.496
		c-4.809-20.976-3.167-41.646-2.859-62.185c0.212-14.066,4.457-27.448,12.02-39.576c2.64-4.233,5.064-8.602,7.505-12.955
		c12.588-22.453,30.35-39.75,53.786-50.143c10.448-4.633,22.359-5.989,33.635-8.721c3.486-0.845,7.063-1.324,11.418-2.121
		c-4.144-9.001-7.704-17.182-11.636-25.18c-8.974-18.248-12.953-37.67-13.561-57.812c-0.682-22.605-0.754-45.229-1.446-67.834
		c-0.815-26.645,9.814-48.393,27.881-67.091c6.686-6.92,13.552-13.665,20.505-20.658c-9.891-10.413-19.908-20.171-28.985-30.737
		c-8.857-10.31-17.61-20.909-24.766-32.404c-4.603-7.396-7.146-16.442-9.03-25.095c-5.21-23.906-5.084-48.311-3.878-72.552
		c0.503-10.088,3.7-20.257,6.961-29.955c11.793-35.071,32.313-64.686,58.303-90.71c4.71-4.716,9.588-9.276,14.112-14.165
		c23.006-24.861,51.958-36.131,85.257-37.605c0.994-0.044,1.987-0.174,2.972-0.328c0.299-0.047,0.563-0.308,1.593-0.906
		c-0.53-7.392-0.785-15.225-1.704-22.979c-2.502-21.084-5.669-42.096-7.838-63.212c-1.864-18.145-3.437-36.377-3.851-54.601
		c-0.636-27.982-0.254-55.989-0.141-83.985c0.093-22.984-0.047-45.985,0.771-68.949c0.915-25.713,6.477-50.697,14.656-75.039
		c3.811-11.337,8.089-22.554,12.818-33.54c11.053-25.677,30.113-45.219,50.07-63.997c2.663-2.505,5.142-5.292,8.117-7.357
		c4.041-2.804,8.193-6.241,12.789-7.324c32.018-7.55,63.996-15.453,96.315-21.486c30.015-5.601,60.371-9.565,90.7-13.224
		c23.067-2.783,46.319-4.075,69.506-5.81c16.565-1.24,33.157-2.14,49.74-3.146c18.369-1.114,36.537,1.081,54.677,3.511
		c33.255,4.456,66.481,9.124,99.759,13.398c5.573,0.716,10.33,2.458,14.381,6.115c11.104,10.025,22.682,19.616,32.938,30.449
		c5.563,5.877,9.279,13.707,13.004,21.073c5.537,10.951,10.293,22.293,15.478,33.425c4.589,9.857,6.095,20.305,6.147,31.032
		c0.065,13.331,0.413,26.678-0.092,39.99c-0.553,14.586-2.135,29.13-2.902,43.711c-0.611,11.631-0.636,23.293-0.989,34.939
		c-0.403,13.287-1.773,26.615-1.148,39.851c1.458,30.823,0.168,61.8,4.922,92.461c0.861,5.556,0.573,11.286,0.913,16.93
		c0.197,3.257,0.589,6.503,0.928,10.129c2.151,0.364,3.694,0.754,5.258,0.869c26.503,1.942,53.011,3.847,79.517,5.769
		c17.545,1.272,33.542,8.078,49.749,14.064c7.485,2.765,14.895,5.777,22.19,9.012c10.737,4.76,20.42,11.075,28.563,19.72
		c6.623,7.032,13.747,13.593,20.431,20.571c9.932,10.369,16.103,22.392,17.571,37.042c0.68,6.78,4.145,13.239,5.864,19.968
		c1.623,6.35,3.647,12.856,3.684,19.304c0.102,17.905,1.205,35.813-3.243,53.628c-3.457,13.844-10.18,25.885-16.649,38.229
		c-4.169,7.956-7.949,16.117-12.086,24.092c-12.565,24.224-25.185,48.434-42.237,69.936c-4.326,5.454-9.144,10.52-14.483,16.619
		c5.41,6.577,10.438,13.533,16.312,19.681c24.516,25.656,37.922,56.051,38.406,91.526c0.272,19.917,0.086,40.005-2.175,59.754
		c-3.308,28.895-16.427,54.079-35.76,75.512c-11.323,12.552-24.469,23.46-37.741,36.003c0,9.526,0,20.747,0,33.104
		c6.636,0.146,12.872,0.856,18.984,0.276c7.728-0.734,13.562,1.722,18.146,7.76c0.6,0.789,1.35,1.485,2.115,2.123
		c10.307,8.579,16.567,18.848,14.012,32.925c-0.227,1.25,0.193,2.62,0.355,4.386c1.568,0.309,3.115,0.816,4.684,0.892
		c14.94,0.723,29.912,1.02,44.822,2.136c16.236,1.216,31.467,5.14,42.379,18.818c3.515,4.406,7.593,8.397,11.696,12.28
		c1.799,1.701,4.183,3.443,6.517,3.812c13.139,2.081,23.355,8.777,32.278,18.374c11.534,12.406,24.064,23.91,35.26,36.602
		c12.876,14.598,21.901,31.433,27.948,50.209c5.791,17.99,13.685,35.303,21.004,53.798c13.371,0,26.97-0.444,40.525,0.132
		c12.145,0.517,22.813,4.905,32.291,13.179c16.338,14.264,23.175,33.679,30.646,52.861c4.204,10.794,8.525,21.579,11.947,32.63
		c1.715,5.54,2.039,11.664,2.081,17.529c0.053,7.408,0.609,14.04,5.701,20.334c7.614,9.414,9.207,21.376,9.594,32.964
		c1.299,38.902,1.796,77.83,2.907,116.739c0.396,13.938-4.721,25.08-14.437,34.755c-9.686,9.645-19.537,18.624-31.892,25.203
		c-13.106,6.979-25.021,16.195-36.948,24.097c1.092,29.459,2.167,58.326,3.228,87.193c0.672,18.263,1.346,36.526,1.973,54.79
		c0.48,13.952,1.459,27.916,1.228,41.858c-0.697,41.923,2.803,83.538,10.187,124.7c7.214,40.213,14.605,80.333,16.617,121.228
		c0.67,13.603,1.594,27.198,1.92,40.808c0.832,34.59-0.779,69.406,2.69,103.718c3.252,32.153,0.754,64.466,5.389,96.412
		c3.95,27.23,7.976,54.451,12.176,81.643c0.854,5.525,3.012,10.34,6.94,14.993c13.373,15.843,28.826,29.42,44.053,43.325
		c11.103,10.139,22.512,19.912,35.696,27.039c22.901,12.379,41.778,30.584,64.313,43.397c4.575,2.601,9.324,5.098,14.285,6.789
		c17.299,5.896,31.986,16.396,46.622,26.72c24.998,17.636,49.919,35.46,73.868,54.468c12.418,9.855,23.223,21.947,33.752,33.912
		c8.255,9.381,12.906,20.764,12.299,33.854c-0.399,8.647-0.205,17.329-0.025,25.991c0.088,4.284-1.097,7.665-4.327,10.632
		c-5.394,4.955-10.249,10.522-15.83,15.241c-2.897,2.451-4.013,4.906-3.924,8.481c0.149,5.995-0.026,11.998,0.049,17.996
		c0.152,12.112-3.218,22.745-12.254,31.327c-1.76,1.67-3.668,4.472-3.538,6.634c0.803,13.36-7.331,22.267-14.854,31.566
		c-8.803,10.884-20.244,18.315-32.85,23.73c-5.654,2.429-12.168,3.601-18.362,3.909c-25.641,1.275-51.336,0.256-76.653-3.489
		c-14.973-2.216-29.599-7.504-44.045-12.401c-37.438-12.688-71.642-31.73-104.255-53.913
		c-31.339-21.315-63.936-40.853-92.139-66.518c-3.177-2.892-6.931-5.162-10.487-7.617c-1.068-0.738-2.374-1.131-4.354-2.043
		c-2.507,2.361-5.148,4.787-7.721,7.283c-11.472,11.127-22.545,22.702-34.523,33.252c-7.168,6.313-15.557,11.335-23.772,16.318
		c-3.233,1.961-7.491,3.142-11.278,3.13c-19.632-0.062-39.263-0.622-58.895-1.019c-0.663-0.014-1.338-0.064-1.984-0.206
		c-14.907-3.285-30.354-5.109-44.563-10.308c-13.718-5.02-23.104-16.115-28.081-30.509c-4.471-12.931-3.673-26.203-4.097-39.488
		c-0.41-12.844,0.801-25.209,6.556-36.878c1.469-2.977,2.286-6.397,4.226-9.002c13.88-18.642,26.014-38.84,44.228-53.782
		c8.43-6.915,18.406-11.907,27.207-18.413c10.413-7.697,19.561-16.734,25.847-28.347c2.082-3.844,1.885-7.363,0.751-11.44
		c-10.769-38.754-21.629-77.485-31.93-116.365c-12.082-45.604-23.359-91.422-35.519-137.006
		c-7.357-27.578-15.698-54.895-23.649-82.313c-14.079-48.557-25.221-97.771-33.44-147.658c-3.778-22.936-7.92-45.812-11.966-68.703
		c-4.509-25.504-9.092-50.995-13.665-76.487c-0.115-0.637-0.486-1.228-1.363-3.365c-11.981,22.853-17.778,46.931-27.004,69.618
		c-9.385,23.079-18.988,46.07-28.271,68.551c13.162,17.445,20.769,36.04,23.335,56.414c1.24,9.848,1.104,19.961,0.618,29.907
		c-0.616,12.604-2.078,25.222-7.824,36.771c-2.646,5.316-5.413,10.66-8.85,15.474c-7.914,11.082-16.046,22.028-24.521,32.685
		c-7.017,8.823-14.823,17.014-21.95,25.753c-4.601,5.64-9.938,7.788-17.3,7.406c-7.847-0.407-15.775,0.749-23.974,1.242
		c-1.192,12.074-2.876,22.919-3.153,33.798c-0.242,9.541,1.417,19.117,1.572,28.688c0.061,3.759-1.35,7.669-2.671,11.297
		c-3.405,9.354-7.003,18.53-6.575,28.843c0.647,15.662-0.707,31.208-3.546,46.658c-0.832,4.523-0.525,9.31-0.325,13.959
		c0.382,8.824-1.61,17.052-5.166,25.064c-5.256,11.841-9.434,23.925-12.034,36.789c-1.934,9.571-6.878,18.635-11.147,27.606
		c-4.857,10.205-10.296,20.094-12.216,31.442c-1.805,10.667-6.552,20.179-12.251,29.23c-14.548,23.107-28.889,46.384-49.879,64.518
		c-1.51,1.305-2.754,2.925-4.298,4.18c-15.739,12.781-31.09,26.092-47.373,38.143c-29.734,22.006-61.068,41.256-95.197,56.146
		c-27.042,11.799-55.015,20.058-83.579,26.351c-13.187,2.905-27.057,2.911-40.647,3.731c-49.419,2.979-96.462-8.216-142.569-24.525
		c-23.487-8.308-47.27-15.979-70.167-25.708c-34.862-14.813-69.531-30.25-103.377-47.228c-17.993-9.026-34.358-21.454-50.967-33.052
		c-24.545-17.138-49.507-33.848-72.74-52.655c-33.065-26.768-64.638-55.375-97.014-83.004
		c-26.876-22.936-51.986-47.707-76.772-72.832c-24.094-24.425-48.085-48.951-72.309-73.245
		c-15.282-15.326-31.027-30.189-46.344-45.482c-10.348-10.335-20.312-21.056-31.462-32.659c-0.88,3.457-2.062,6.341-2.295,9.3
		c-2.351,29.786-4.216,59.615-6.884,89.372c-2.338,26.104-5.545,52.13-8.335,78.193c-1.872,17.489-3.675,34.986-5.525,52.477
		c-2.792,26.397-5.419,52.814-8.446,79.185c-2.762,24.053-5.932,48.059-8.99,72.077c-0.704,5.531-1.688,11.028-2.454,15.968
		c23.406-10.346,45.743-12.449,67.032,4.682c1.78-6.759,3.504-12.771,4.935-18.854c2.29-9.729,8.186-16.999,14.489-24.533
		c10.099-12.071,21.984-17.696,37.584-15.437c1.958,0.283,4.024,0.263,5.987-0.003c5.821-0.785,9.922,1.604,13.98,5.731
		c14.368,14.612,14.509,14.475,14.509,35.426c0,6.899,0,13.799,0,22.536c5.648-3.161,10.029-5.313,14.093-7.949
		c7.513-4.876,15.5-7.489,24.548-6.623c2.972,0.285,5.995,0.007,8.994,0.051c20.677,0.305,14.256-2.232,29.419,12.189
		c4.44,4.224,6.482,9.024,6.288,15.027c-0.13,3.996-0.58,8.094,0.084,11.98c1.907,11.153-3.164,19.289-10.626,26.528
		c-7.163,6.951-14.438,13.787-21.621,20.718c-1.146,1.105-2.07,2.442-4.25,5.054c7.739,0.935,14.177,2.059,20.658,2.425
		c16.417,0.931,28.698,15.063,30.017,31.788c1.331,16.896-2.617,30.065-16.316,41.063c-7.732,6.208-15.026,10.65-24.99,10.087
		c-2.95-0.167-5.917-0.025-9.207-0.025c-0.44,1.773-1.116,3.028-0.979,4.188c0.731,6.212-1.451,11.094-6.397,14.759
		c-6.709,4.97-8.913,11.323-8.597,19.81c0.678,18.162,0.11,18.087-12.924,30.874c-3.553,3.486-7.3,5.567-12.307,5.503
		c-7.331-0.095-14.736,0.596-21.97-0.251c-4.306-0.504-9.134-2.406-12.368-5.234c-16.471-14.406-33.397-28.575-41.277-51.762
		c-5.964,5.8-11.117,10.367-15.727,15.43c-3.911,4.295-8.299,6.489-14.095,5.835c-1.316-0.149-2.682-0.165-3.994,0.002
		c-16.075,2.041-30.339-0.578-40.035-15.278c-0.287-0.436-1.188-0.467-2.68-0.998c-4.394,13.165-9.292,26.177-13.042,39.511
		c-4.344,15.45-9.982,30.259-17.834,44.242c-3.419,6.091-6.873,12.17-10.066,18.379c-3.206,6.235-5.354,12.629-4.92,19.993
		c0.587,9.945,0.034,19.953,0.176,29.93c0.147,10.368-3.056,19.413-9.01,27.934c-7.983,11.423-14.929,23.574-22.947,34.971
		c-8.288,11.779-18.373,22.18-30.89,29.337c-5.154,2.947-12.092,3.481-18.284,3.783c-18.654,0.908-37.133-0.875-55.658-3.592
		c-26.278-3.854-52.778-6.166-79.141-9.479c-9.556-1.202-19.081-2.997-28.45-5.232
		C1207.521,3363.858,1199.054,3357.963,1191.578,3349.523z M651.167,710.7c-0.62,0.363-1.24,0.728-1.86,1.091
		c1.689,4.749,3.38,9.499,5.723,16.081C657.514,719.533,654.162,715.174,651.167,710.7z M1498.038,3009.012
		c-3.553-4.145-6.313-7.365-9.86-11.501C1487.833,3005.961,1487.833,3005.961,1498.038,3009.012z M703.059,568.15
		c-0.477-0.211-0.953-0.422-1.431-0.633c-0.813,1.72-1.627,3.44-2.44,5.16c0.448,0.208,0.896,0.417,1.344,0.625
		C701.374,571.585,702.217,569.868,703.059,568.15z"/>
	<path fill-rule="evenodd" fill="#FFFFFF" d="M651.167,710.7c2.995,4.474,6.347,8.833,3.863,17.172
		c-2.342-6.583-4.034-11.332-5.723-16.081C649.927,711.428,650.547,711.063,651.167,710.7z"/>
	<path fill-rule="evenodd" fill="#FFFFFF" d="M1498.038,3009.012c-10.205-3.051-10.205-3.051-9.86-11.501
		C1491.725,3001.646,1494.485,3004.867,1498.038,3009.012z"/>
	<path fill-rule="evenodd" fill="#FFFFFF" d="M703.059,568.15c-0.842,1.718-1.685,3.435-2.526,5.152
		c-0.448-0.208-0.896-0.417-1.344-0.625c0.813-1.719,1.626-3.44,2.44-5.16C702.105,567.729,702.582,567.939,703.059,568.15z"/>
</g>
</svg>
