<?xml version="1.0" encoding="utf-8"?>
<!-- Generator: Adobe Illustrator 16.0.2, SVG Export Plug-In . SVG Version: 6.00 Build 0)  -->
<!DOCTYPE svg PUBLIC "-//W3C//DTD SVG 1.1 Tiny//EN" "http://www.w3.org/Graphics/SVG/1.1/DTD/svg11-tiny.dtd">
<svg version="1.1" baseProfile="tiny" id="Layer_1" xmlns="http://www.w3.org/2000/svg" xmlns:xlink="http://www.w3.org/1999/xlink"
	 x="0px" y="0px" width="3700.537px" height="3505.562px" viewBox="0 0 3700.537 3505.562" xml:space="preserve">
<g>
	<path fill-rule="evenodd" fill="#FFFFFF" d="M3703.424,3509.447c-1233.883,0-2467.653,0-3701.312,0
		c0-1169.224,0-2338.336,0-3507.335c1233.883,0,2467.654,0,3701.312,0C3703.424,1171.337,3703.424,2340.449,3703.424,3509.447z
		 M966.219,2765.052c-6.249-2.233-10.489-4.027-14.887-5.254c-6.646-1.854-13.328-4.071-20.134-4.748
		c-8.251-0.82-16.656-0.448-24.972-0.069c-3.112,0.142-7.033,0.851-9.085,2.846c-10.946,10.64-22.778,20.574-30.007,34.496
		c-7.499,14.444-14.943,28.907-25.81,41.295c-2.576,2.938-4.038,6.855-5.985,10.339c-9.274,16.594-16.972,33.895-22.811,51.982
		c-2.593,8.032-7.84,13.026-15.796,15.17c-5.455,1.471-10.982,2.847-16.566,3.609c-6.266,0.854-11.572,3.083-15.398,8.182
		c-7.079,9.431-17.803,9.737-27.182,8.002c-24.186-4.478-47.771-11.413-70.204-22.026c-24.059-11.381-49.713-16.647-76.277-17.095
		c-9.623-0.162-19.345,1.63-28.876,0.817c-15.984-1.364-30.361,3.408-44.262,9.892c-7.093,3.309-13.928,7.893-19.673,13.204
		c-10.25,9.474-20.055,19.535-29.153,30.119c-7.089,8.247-14.349,16.968-18.771,26.729c-5.459,12.047-9.932,24.518-16.265,36.259
		c-5.189,9.618-9.591,19.739-13.472,29.968c-5.645,14.876-12.592,29.559-13.445,45.726c-0.876,16.603-0.776,33.266-0.685,49.9
		c0.015,2.711,1.65,5.872,3.472,8.038c8.529,10.133,16.748,20.497,29.878,25.578c13.313,5.153,26.213,11.368,39.316,17.069
		c10.026,4.362,19.872,9.265,30.18,12.815c14.452,4.979,29.243,8.979,43.92,13.296c8.237,2.423,8.864,2.92,8.948,11.68
		c0.052,5.474,0.659,10.546,4.651,14.789c11.25,11.96,23.058,23.115,38.84,29.021c2.15,0.805,4.119,2.124,6.123,3.287
		c22.455,13.033,44.838,26.188,67.387,39.053c6.047,3.451,12.326,6.976,18.956,8.831c20.454,5.724,40.974,11.405,61.755,15.72
		c28.625,5.941,57.518,10.583,86.282,15.853c21.908,4.015,43.774,8.259,65.698,12.183c23.554,4.217,47.084,8.645,70.752,12.111
		c20.36,2.982,40.862,5.182,61.373,6.857c10.907,0.892,22.09,0.952,32.928-0.386c26.19-3.233,50.03-12.893,71.387-28.635
		c5.783-4.264,12.258-7.587,17.614-10.853c6.748,4.578,11.725,9.513,17.709,11.705c14.315,5.245,29.277,8.711,43.664,13.787
		c23.596,8.326,47.858,13.977,72.272,19.008c26.322,5.425,53.063,3.347,79.663,3.407c3.632,0.008,7.314-0.412,10.887-1.09
		c7.493-1.421,14.931-2.897,21.05-8.188c13.809-11.937,22.856-26.658,26.801-44.475c4.811-21.725,9.417-43.476,9.567-65.896
		c0.02-2.865,0.726-5.995,2.016-8.545c12.374-24.456,20.364-50.528,28.579-76.523c4.462-14.119,8.923-28.237,13.849-43.826
		c4.667,4.608,8.947,8.207,12.442,12.451c3.953,4.802,8.833,6.841,14.761,6.92c9.328,0.125,18.67,0.423,27.979,0.016
		c2.58-0.112,5.443-2.027,7.511-3.865c4.875-4.334,9.348-9.119,13.35-13.092c8.263,8.762,16.295,17.125,24.146,25.655
		c6.497,7.058,14.713,10.13,23.983,10.552c6.984,0.318,13.995,0.098,20.995,0.058c5.188-0.03,9.737-1.449,13.268-5.642
		c2.354-2.795,5.115-5.249,7.734-7.812c4.007-3.921,6.166-8.542,5.97-14.264c-0.107-3.166,0.191-6.348,0.334-10.266
		c7.888,0,14.572,0.486,21.144-0.163c4.744-0.468,10.337-1.19,13.826-3.968c14.889-11.853,14.655-12.146,14.655-31.044
		c0-0.333-0.018-0.668,0.002-1c0.627-10.784,1.175-21.542-12.46-28.525c12.025-5.044,9.635-14.073,9.778-22.28
		c0.063-3.666-0.269-7.358,0.072-10.993c0.601-6.423-1.11-11.51-6.282-15.793c-7.319-6.06-14.179-12.675-21.324-19.134
		c10.215-15.684,9.226-15.766,10.505-31.264c1.182-14.307-2.917-24.95-14.152-33.76c-4.162-3.262-7.742-5.5-13.161-5.268
		c-8.863,0.379-17.754,0.103-26.568,0.103c-1.194-6.636-1.888-11.93-3.17-17.076c-0.778-3.126-1.878-6.501-3.85-8.942
		c-7.937-9.815-16.753-17.947-31.143-14.989c-4.479,0.921-9.347-0.21-13.953,0.324c-2.771,0.321-5.887,1.451-7.976,3.237
		c-9.772,8.358-17.903,17.776-19.113,31.514c-0.471,5.349-1.98,10.605-3.239,17.037c-9.251-7.698-19.01-8.34-29.189-8.049
		c-22.213,0.636-14.76-2.659-31.856,13.632c-3.719,3.543-5.167,7.274-4.977,12.33c0.334,8.823,0.093,17.669,0.093,24.976
		c-6.378,2.796-11.867,5.202-17.688,7.754c0.286-1.853,0.731-3.964,0.924-6.096c3.374-37.341,6.474-74.706,10.139-112.018
		c3.275-33.357,7.227-66.647,10.763-99.979c3.15-29.689,6.065-59.406,9.227-89.095c2.389-22.431,4.758-44.868,7.578-67.248
		c3.445-27.337,7.33-54.618,11.099-81.915c0.336-2.428,1.228-4.779,2.539-9.713c3.322,4.136,5.18,6.852,7.431,9.188
		c15.474,16.072,30.221,32.964,46.739,47.889c28.858,26.075,58.73,51.031,88.357,76.244c16.2,13.788,32.933,26.95,49.128,40.741
		c20.242,17.238,39.305,35.988,60.444,52.015c34.783,26.368,66.115,56.691,99.896,84.154c24.252,19.716,48.649,39.206,75.59,55.364
		c27.948,16.764,55.259,34.588,82.959,51.77c17.452,10.824,33.773,23.799,54.206,29.134c1.49,0.39,2.813,1.639,4.074,2.66
		c15.607,12.635,33.337,20.62,53.245,22.977c13.508,1.599,27.209,1.535,40.732,3.035c25.097,2.781,50.121,6.219,75.188,9.279
		c19.636,2.398,39.217,0.843,58.665-1.83c24.612-3.384,47.229-13.514,70.432-21.695c32.495-11.457,61.646-28.053,86.18-52.595
		c6.02-6.02,12.989-11.837,20.621-15.366c30.782-14.231,54.974-36.413,74.457-63.218c14.982-20.611,26.74-43.555,40.182-65.306
		c5.279-8.542,7.863-17.501,6.739-27.49c-0.692-6.158,1.061-11.741,3.628-17.263c9.396-20.208,17.523-40.889,25.293-61.813
		c10.009-26.956,17.89-54.25,21.71-82.658c3.402-25.303,11.308-49.95,11.015-75.785c-0.007-0.592,0.522-1.189,1.118-2.458
		c25.268-10.431,42.801-31.312,61.548-50.608c9.66-9.941,15.199-22.512,19.656-35.517c1.924-5.614,4.784-11.072,5.698-16.842
		c3.463-21.847,1.154-43.77-0.484-65.612c-0.827-11.031-4.446-21.551-10.256-30.994c-3.078-5.006-7.409-9.24-11.065-13.69
		c7.281-16.119,14.718-31.724,21.395-47.646c5.006-11.937,10.005-23.763,16.366-35.119c5.475-9.771,9.153-20.564,13.43-30.984
		c1.367-3.329,2.108-6.914,3.411-11.313c1.186,2.247,2.227,3.559,2.607,5.04c7.676,29.927,15.307,59.865,22.876,89.819
		c2.764,10.941,5.764,21.846,7.915,32.911c4.81,24.729,9.016,49.574,13.725,74.322c4.801,25.234,13.653,49.229,22.719,73.171
		c9.639,25.456,19.435,50.861,23.796,77.98c2.157,13.412,4.98,26.743,8.083,39.974c8.104,34.575,16.89,68.993,24.731,103.626
		c8.726,38.534,16.294,77.332,25.244,115.811c3.069,13.194-2.798,21.563-11.046,29.773c-10.368,10.32-20.732,20.645-31.151,30.912
		c-2.108,2.077-4.163,4.531-6.743,5.75c-13.947,6.585-24.108,17.659-34.271,28.641c-11.981,12.948-18.669,27.946-17.092,46.183
		c0.745,8.602,0.062,17.321,0.147,25.984c0.106,10.739,3.293,20.153,11.442,27.698c6.354,5.883,12.16,12.354,18.459,18.299
		c10.056,9.492,21.323,18.445,35.231,19.283c22.846,1.376,45.844,0.695,68.762,0.175c10.513-0.238,20.064-4.388,28.189-11.357
		c4.799-4.114,9.685-8.128,14.469-12.261c9.965-8.61,19.89-17.269,30.169-26.201c8.738,9.18,16.77,18.08,25.288,26.484
		c35.093,34.615,69.911,69.524,105.692,103.415c18.552,17.571,38.313,34.013,58.63,49.523
		c16.521,12.614,35.609,21.188,56.766,22.604c17.241,1.153,34.591,1.249,51.877,0.949c10.912-0.189,20.821-3.833,27.95-13.075
		c2.625-3.403,5.95-6.298,9.144-9.222c7.325-6.704,12.362-14.99,15.117-24.303c2.128-7.191,2.615-14.867,3.941-22.992
		c2.223-0.922,5.004-1.923,7.653-3.198c9.586-4.615,16.495-12.423,22.144-20.931c4.834-7.279,7.797-15.788,11.819-23.633
		c0.654-1.274,2.4-2.462,3.845-2.784c11.81-2.643,17.58-12.458,24.601-20.668c3.313-3.874,4.28-8.733,4.125-14.002
		c-0.312-10.597-0.092-21.209-0.092-32.195c13.293-2.841,20.369-13.036,28.758-21.426c4.105-4.105,5.989-9.47,5.929-15.452
		c-0.1-9.665-0.303-19.341,0.055-28.993c0.367-9.941-2.87-18.67-9.512-25.505c-10.416-10.721-20.672-22.056-32.801-30.554
		c-24.225-16.973-50.204-31.205-76.465-44.974c-33.014-17.31-66.075-34.437-100.943-47.672
		c-21.123-8.018-42.019-16.304-62.483-26.015c-23.675-11.232-45.165-25.383-65.796-41.234c-5.842-4.489-8.858-9.764-8.022-17.084
		c1.655-14.491-3.185-27.219-9.205-40.159c-6.855-14.737-11.585-30.405-13.186-46.81c-0.47-4.811-0.523-9.133,3.601-12.766
		c1.528-1.344,2.568-4.033,2.615-6.136c0.214-9.656,0.945-19.441-0.266-28.957c-2.342-18.409-5.471-36.744-8.992-54.971
		c-5.562-28.793-6.74-57.956-8.7-87.089c-1.179-17.532-3.141-35.038-5.46-52.461c-3.506-26.338-8.507-52.473-7.239-79.292
		c0.452-9.567-0.858-19.226-1.488-28.834c-0.456-6.954-1.503-13.891-1.606-20.845c-0.242-16.304-0.354-32.618-0.023-48.918
		c0.9-44.581-1.592-89.16,0.975-133.767c1.122-19.499-0.383-39.233-1.846-58.774c-2.127-28.396-5.298-56.714-8.094-85.806
		c3.923-2.021,8.311-4.313,12.724-6.554c18.772-9.53,36.516-20.238,50.845-36.28c8.703-9.743,15.453-19.859,17.249-32.928
		c4.213-30.653,7.878-61.405,5.56-92.371c-1.335-17.831-3.35-35.752-9.569-52.779c-1.356-3.711-2.383-8.292-5.134-10.594
		c-6.515-5.456-7.271-12.113-6.825-19.672c0.294-4.982-0.02-9.997,0.07-14.995c0.224-12.427-3.685-24.024-10.289-33.928
		c-13.386-20.071-29.75-37.454-51.236-49.448c-5.146-2.874-10.216-4.385-16.018-4.553c-11.287-0.325-22.565-0.998-34.604-1.562
		c-4.68-9.153-9.371-18.678-14.367-28.038c-12.048-22.567-24.233-45.057-36.378-67.572c-0.474-0.876-1.059-1.697-1.639-2.51
		c-6.756-9.475-13.284-19.125-20.352-28.361c-6.647-8.687-13.082-17.772-21.009-25.187c-13.504-12.628-28.53-23.122-48.676-20.666
		c-6.194,0.755-10.433-1.902-14.961-6.014c-8.085-7.343-17.04-13.281-28.349-15.595c-11.321-2.315-22.284-6.384-34.098-9.889
		c0-5.687-0.206-11.308,0.05-16.907c0.357-7.831-1.973-14.347-8.083-19.468c-2.289-1.918-4.412-4.088-6.347-6.368
		c-4.42-5.204-9.797-7.401-16.715-7.016c-6.788,0.38-13.627-0.155-20.353-0.287c-0.632-16.571-1.212-31.813-1.813-47.613
		c1.793-1.799,4.027-4.276,6.504-6.481c10.567-9.417,18.908-20.385,25.213-33.149c3.027-6.132,7.597-11.586,11.926-16.979
		c13.478-16.787,25.104-34.459,27.893-56.457c0.914-7.225,0.705-14.611,1.892-21.778c3.035-18.326,1.446-36.719-1.29-54.626
		c-4.719-30.897-18.198-58.163-40.412-80.687c-1.79-1.816-3.349-3.861-4.983-5.763c0.977-1.33,1.465-2.21,2.148-2.896
		c18.644-18.713,35.985-38.343,45.392-63.656c0.685-1.841,1.853-3.537,2.978-5.176c8.535-12.431,11.577-26.828,13.823-41.239
		c2.812-18.042,3.766-36.277,3.65-54.607c-0.111-17.724-5.938-33.911-12.307-49.844c-4.041-10.11-10.317-19.333-15.674-28.909
		c-1.128-2.015-2.422-4.009-3.975-5.704c-21.945-23.943-47.476-42.352-78.81-52.348c-9.102-2.903-18.279-6.795-26.113-12.148
		c-11.386-7.78-23.748-11.286-36.942-13.945c-14.849-2.992-29.41-7.423-44.297-11.281c0-5.158,0.002-9.139,0-13.121
		c-0.008-10.999,1.164-22.152-0.262-32.964c-3.452-26.176-2.922-52.409-3.134-78.661c-0.046-5.626-0.764-11.266-1.458-16.864
		c-1.387-11.191-3.857-22.321-4.303-33.541c-1.176-29.581-1.33-59.202-2.253-88.796c-0.413-13.264-1.208-26.556-2.72-39.733
		c-1.323-11.53-2.883-23.729-11.029-32.52c-8.292-8.946-17.937-16.839-27.83-24.038c-7.992-5.813-17.38-9.669-25.891-14.822
		c-11.545-6.989-23.957-11.554-37.26-13.092c-21.107-2.44-42.249-5.052-63.451-6.086c-22.934-1.119-45.965-1.073-68.929-0.51
		c-25.904,0.635-51.771,3.089-77.674,3.516c-30.608,0.506-61.226-0.008-91.65,4.205c-21.705,3.005-43.521,5.399-65.075,9.257
		c-16.646,2.979-32.818,8.602-49.46,11.62c-22.716,4.119-42.228,15.04-59.415,29.07c-18.17,14.833-34.467,32.135-41.352,55.909
		c-5.345,18.459-12.927,36.075-15.42,55.594c-3.397,26.599-3.264,53.169-2.322,79.68c1.013,28.475,4.495,56.863,6.974,85.283
		c2.162,24.793,4.428,49.577,6.646,74.365c1.064,11.886,2.172,23.769,3.176,35.659c1.418,16.802,2.76,33.61,4.089,49.857
		c-1.236,1.061-1.665,1.706-2.233,1.875c-5.408,1.604-10.809,3.245-16.27,4.653c-29.355,7.57-57.171,19.239-80.159,38.9
		c-20.651,17.663-40.352,36.644-57.465,58.158c-10.667,13.412-17.092,28.462-21.793,44.381c-6.874,23.273-6.923,47.386-5.727,71.318
		c0.717,14.366,0.011,29.338,8.06,42.485c0.833,1.362,1.335,3.193,1.289,4.787c-0.342,11.998,6.445,20.704,13.686,28.945
		c12.496,14.226,25.402,28.091,38.169,42.08c2.385,2.615,4.918,5.095,8.059,8.335c-6.688,6.471-12.643,12.265-18.634,18.018
		c-16.784,16.118-26.274,36.069-28.615,58.903c-1.794,17.486-3.212,35.322-1.73,52.741c1.276,14.998,5.317,30.275,11.086,44.208
		c4.422,10.683,9.084,21.257,12.953,32.206c3.153,8.92,7.223,17.516,10.813,26.081c-0.728,0.594-0.952,0.93-1.223,0.972
		c-1.308,0.205-2.628,0.466-3.943,0.464c-23.713-0.033-44.221,9.421-62.426,23.282c-11.833,9.011-21.896,20.401-32.458,31.016
		c-12.421,12.485-17.353,27.707-16.771,45.317c0.82,24.779-1.342,49.651,3.218,74.449c-8.251,1.598-15.871,2.534-23.139,4.668
		c-4.948,1.452-10.391,3.601-13.898,7.139c-11.693,11.796-22.91,24.107-33.667,36.766c-3.758,4.421-6.929,10.143-8.179,15.757
		c-5.691,25.573-12.106,51.11-10.91,77.681c0.102,2.251-0.322,4.525-0.48,6.521c-5.207,2.938-7.832-0.46-10.693-3.225
		c-9.337-9.019-18.4-18.351-28.128-26.927c-6.85-6.038-12.984-12.324-16.572-20.846c-0.624-1.481-2.045-2.606-2.929-4.002
		c-6.932-10.966-13.854-21.937-20.691-32.961c-1.032-1.663-2.041-3.548-2.315-5.439c-2.203-15.129-8.74-28.317-16.942-41.047
		c-7.893-12.248-16.219-24.483-18.015-39.595c-0.471-3.96-0.748-7.985-1.687-11.84c-6.333-25.977-7.701-52.504-8.72-79.043
		c-0.292-7.593,1.027-15.232,1.166-22.859c0.369-20.311,0.172-40.637,0.829-60.937c0.483-14.957-3.537-28.219-12.208-40.25
		c-2.524-3.503-4.908-7.108-7.33-10.627c1.588-9.498,4.165-18.92,4.567-28.435c1.223-28.923,1.91-57.903-1.257-86.766
		c-3.883-35.398-16.392-67.717-36.469-96.987c-17.621-25.689-39.699-47.484-63.134-67.726
		c-13.784-11.904-29.048-22.12-43.872-32.783c-4.471-3.216-9.698-5.384-14.467-7.973c0.438-13.871,0.583-26.825-5.43-38.942
		c-11.273-22.718-23.551-44.8-41.547-63.011c-14.514-14.687-29.459-28.948-44.24-43.37c-14.99-14.627-29.526-29.766-45.139-43.696
		c-21.332-19.034-43.491-37.14-65.299-55.64c-23.352-19.809-47.163-38.994-73.288-55.131c-18.678-11.539-37.257-23.241-55.83-34.951
		c-13.226-8.338-26.093-17.282-39.601-25.128c-32.146-18.669-63.098-39.599-99.182-50.801c-14.876-4.619-28.677-12.916-43.67-16.892
		c-28.064-7.44-54.588-20.244-85.32-23.889c3.225-1.629,5.077-2.854,7.108-3.545c46.717-15.931,94.26-28.483,143.253-35.206
		c10.156-1.393,20.308-3.11,30.286-5.433c9.027-2.102,17.73-5.569,26.723-7.852c27.37-6.947,54.8-13.708,80.313-26.228
		c6.8-3.337,13.902-6.79,19.474-11.75c12.92-11.506,25.193-23.768,37.346-36.1c10.444-10.597,15.247-23.518,15.67-38.595
		c0.414-14.786-1.963-29.128-4.453-43.511c-0.896-5.168-1.311-11.417-4.437-14.992c-6.252-7.151-11.583-16.937-24.62-14.836
		c0-5.014-0.495-9.359,0.091-13.553c1.884-13.503-2.656-24.114-13.449-32.233c-0.792-0.595-1.538-1.315-2.121-2.112
		c-3.443-4.707-7.918-6.342-13.8-6.003c-8.305,0.477-16.678,0.479-24.983,0.007c-6.668-0.379-12.585,1.331-17.946,4.822
		c-4.419,2.879-8.606,6.218-12.488,9.798c-14.184,13.077-27.406,27.334-42.456,39.305c-23.317,18.545-49.725,32.186-77.827,42.113
		c-20.766,7.336-42.153,12.514-64.438,9.869c-37.907-4.499-74.575-13.224-108.581-31.606c-8.499-4.595-13.649-10.396-17.376-19.108
		c-13.292-31.065-16.997-64.061-20.289-97.118c-0.44-4.419,2.733-9.221,4.322-13.813c1.046-3.022,3.062-5.945,3.228-8.989
		c0.451-8.308,0.299-16.659,0.099-24.987c-0.142-5.863-15.963-23.162-21.704-24.088c-0.652-0.104-1.331-0.06-1.997-0.059
		c-9.666,0.008-19.374-0.527-28.979,0.229c-6.104,0.481-13.45,1.184-17.802,4.756c-11,9.027-21.478,19.015-27.192,32.713
		c-1.169,2.801-2.931,5.356-4.068,7.394c-5.639-6.212-10.522-11.549-15.354-16.933c-2.754-3.069-5.708-5.659-10.245-5.024
		c-9.986,1.396-20.643-3.269-30.033,3.093c-3.004,2.035-5.544,4.761-8.262,7.209c-2.4,2.163-4.753,4.377-6.548,6.034
		c-9.496-5.509-18.19-10.398-26.732-15.543c-12.617-7.599-25.995-10.492-40.888-10.353c-11.322,0.104-19.851,4.074-27.811,10.921
		c-3.275,2.818-6.073,6.183-9.257,9.116c-3.688,3.398-5.125,7.484-5.063,12.452c0.148,11.664-0.411,23.356,0.264,34.983
		c0.293,5.055,1.606,11.109,4.742,14.729c7.375,8.514,16.253,15.708,24.268,23.692c4.163,4.145,9.028,8.254,11.418,13.384
		c7.426,15.942,13.893,32.336,20.593,48.611c6.704,16.279,8.143,32.688,0.638,49.187c-0.273,0.601-0.36,1.284-0.599,1.904
		c-10.848,28.229-27.191,53.229-45.438,77.094c-1.063,1.391-2.932,2.166-4.243,3.096c-10.748-21.423-20.283-42.742-31.844-62.9
		c-14.921-26.014-35.423-47.444-61.047-63.227c-11.837-7.291-24.874-12.662-37.474-18.678
		c-14.921-7.126-30.739-10.682-47.267-10.811c-15.997-0.124-31.997-0.16-47.993,0.016c-14.107,0.154-27.813,2.527-40.681,8.653
		c-29.256,13.927-54.382,33.301-75.665,57.666c-6.053,6.929-9.836,15.007-10.235,24.35c-0.539,12.605-1.099,25.214-1.311,37.828
		c-0.49,29.26,5.396,57.502,15.126,84.884c3.181,8.951,7.805,17.805,13.57,25.322c8.464,11.037,18.502,20.874,27.954,31.144
		c10.256,11.143,22.498,19.671,35.674,27.004c18.791,10.459,38.392,18.662,60.121,19.81c17.602,0.932,35.255,0.888,52.886,1.246
		c3.586,0.072,7.176,0.011,11.519,0.011c-0.947,3.752-1.407,6.34-2.25,8.797c-8.859,25.83-19.895,50.717-31.952,75.211
		c-11.442,23.248-22.082,46.887-33.321,70.237c-7.486,15.554-15.28,30.964-23.206,46.299c-2.23,4.314-4.569,9.151-11.03,8.458
		c-1.156-0.124-2.604,0.675-3.631,1.436c-12.815,9.499-26.74,18.205-23.635,37.848c0.823,5.203-0.241,10.681,0.271,15.965
		c0.301,3.102,1.298,6.648,3.216,8.979c4.003,4.864,8.496,9.46,13.391,13.421c6.558,5.306,13.945,8.881,22.909,8.262
		c6.285-0.434,12.624-0.084,18.416-0.084c2.084,4.011,3.3,7.911,5.741,10.76c7.569,8.834,15.494,17.373,23.548,25.771
		c1.65,1.721,4.471,3.31,6.735,3.287c13.802-0.144,28.064,2.68,40.826-5.52c1.317-0.845,3.18-0.842,4.772-1.229
		c-16.799,16.099-33.93,31.448-49.735,48.059c-9.545,10.031-17.227,21.883-25.309,33.227c-1.983,2.784-3.143,6.776-3.169,10.226
		c-0.122,15.983,0.147,31.976,0.645,47.954c0.083,2.673,1.348,5.857,3.135,7.843c13.209,14.683,28.728,24.627,49.607,22.758
		c1.984-0.177,4.019-0.215,5.993,0.009c9.359,1.067,17.585-1.759,25.493-6.578c17.617-10.736,35.357-21.272,53.112-31.778
		c32.947-19.496,67.24-33.193,106.877-27.798c27.627,3.76,53.336,10.615,73.311,31.884c10.471,11.15,21.274,22.183,33.132,31.782
		c11.079,8.97,18.749,19.907,23.32,32.813c4.282,12.09,13.19,19.678,22.34,27.346c4.723,3.959,10.257,5.751,16.618,5.234
		c4.966-0.404,10.033-0.486,14.981,0.011c8.312,0.835,14.936-2.618,20.906-7.59c4.082-3.398,7.669-7.403,11.361-11.25
		c1.112-1.158,2.423-2.607,2.637-4.071c1.575-10.784,3.865-21.584,4.086-32.417c0.406-19.859-0.455-39.742-0.807-60.751
		c4.798,0,9.706,0.116,14.604-0.052c2.246-0.076,5.14,0.059,6.604-1.212c10.929-9.486,21.083-19.539,20.508-35.733
		c-0.212-5.992-0.324-12.015,0.047-17.992c0.374-6.026-1.496-10.635-5.476-15.311c-20.236-23.771-40.185-47.748-58.593-73.042
		c-28.246-38.81-49.899-80.753-65.118-126.257c-3.886-11.619-4.897-22.343-0.101-33.559c2.084-4.87,2.47-10.521,6.525-15.707
		c0.712,18.205,1.048,35.14,2.125,52.028c1.145,17.938,6.473,34.723,17.696,48.947c8.02,10.164,16.354,20.318,25.904,28.981
		c19.441,17.642,38.876,35.528,59.993,51.026c31.898,23.411,64.5,46.05,98.139,66.856c43.369,26.825,84.749,56.424,126.433,85.648
		c41.437,29.05,83.241,57.501,129.56,78.505c2.601,1.18,5.025,2.749,8.345,4.587c-3.005,2.47-5.192,4.384-7.496,6.144
		c-13.772,10.509-26.937,21.637-39.342,33.817c-13.246,13.007-19.137,28.421-19.344,46.484c-0.122,10.664-0.302,21.34,0.038,31.994
		c0.617,19.35,3.638,38.343,10.149,56.639c7.661,21.525,17.743,41.638,33.781,55.813c0,8.965-0.217,16.272,0.066,23.558
		c0.245,6.269-2.351,10.104-7.381,14.024c-15.319,11.94-28.791,25.66-36.642,44c-4.119,9.62-6.21,19.423-6.179,29.989
		c0.048,16.503,2.402,33.333-4.851,49.172c-0.517,1.13-0.311,2.627-0.313,3.955c-0.022,10.665-0.095,21.331,0.016,31.995
		c0.07,6.839,1.718,13.467,6.548,18.387c8.149,8.303,16.163,16.999,25.47,23.851c16.294,11.996,33.524,22.722,51.049,34.438
		c-1.202,11.904,4.71,22.506,12.55,31.646c12.203,14.225,26.511,26.143,43.605,34.426c24.499,11.872,50.802,18,77.279,22.486
		c25.802,4.371,52.017,7.527,78.291,2.366c1.244-0.245,2.625,0.145,3.934,0.311c14.822,1.874,29.607,4.133,44.472,5.544
		c15.543,1.477,31.162,2.135,46.747,3.165c2.281,0.15,4.557,0.373,8.05,0.664c27.92,71.126,55.914,142.44,83.867,213.652
		c-0.438-0.124-1.422-0.197-2.183-0.648c-26.328-15.643-53.704-29.152-82.083-40.665c-17.261-7.002-34.217-14.517-49.086-26.16
		c-5.717-4.479-12.397-7.751-18.744-11.393c-6.775-3.888-14.116-5.615-21.969-5.502c-10.331,0.149-20.686-0.375-30.987,0.186
		c-6.539,0.356-12.984,2.232-19.494,3.288c-4.511,0.732-9.258,2.37-13.556,1.625c-15.122-2.62-30.238-3.903-45.607-4.111
		c-22.005-0.298-41.191,6.423-57.905,20.371c-7.275,6.071-15.141,10.486-24.339,12.996c-18.067,4.93-33.314,14.487-46.077,28.375
		c-23.477,25.546-45.599,51.953-60.464,83.736c-7.732,16.533-17.377,32.229-21.037,50.449c-1.896,9.435-4.288,18.795-5.659,28.304
		c-3.785,26.268-7.934,52.52-10.428,78.921c-1.937,20.487-1.476,41.196-2.313,61.797c-0.703,17.262-1.406,34.535-2.731,51.755
		c-1.323,17.186-3.401,34.313-5.184,51.463c-1.544,14.861-3.675,29.685-4.594,44.584c-1.615,26.181-2.469,52.408-3.704,78.614
		c-1.439,30.538-2.797,61.082-4.495,91.606c-0.663,11.907-1.726,23.827-3.376,35.634c-2.206,15.776-6.815,31.38-7.461,47.177
		c-1.535,37.557-2.949,75.199,0.79,112.759c0.264,2.642,0.175,5.332,0.09,7.993c-0.401,12.614-0.922,25.224-1.268,37.838
		C966.084,2751.12,966.219,2757.097,966.219,2765.052z"/>
	<path fill-rule="evenodd" d="M966.219,2765.052c0-7.955-0.135-13.932,0.028-19.9c0.346-12.614,0.866-25.224,1.268-37.838
		c0.085-2.661,0.174-5.352-0.09-7.993c-3.739-37.56-2.325-75.202-0.79-112.759c0.646-15.797,5.255-31.4,7.461-47.177
		c1.65-11.807,2.713-23.727,3.376-35.634c1.698-30.524,3.056-61.068,4.495-91.606c1.235-26.206,2.089-52.434,3.704-78.614
		c0.918-14.899,3.049-29.723,4.594-44.584c1.783-17.149,3.861-34.277,5.184-51.463c1.325-17.22,2.028-34.493,2.731-51.755
		c0.838-20.601,0.377-41.31,2.313-61.797c2.495-26.401,6.644-52.653,10.428-78.921c1.371-9.509,3.763-18.869,5.659-28.304
		c3.66-18.221,13.305-33.916,21.037-50.449c14.865-31.783,36.988-58.19,60.464-83.736c12.763-13.888,28.01-23.445,46.077-28.375
		c9.198-2.51,17.063-6.925,24.339-12.996c16.713-13.948,35.9-20.669,57.905-20.371c15.369,0.208,30.485,1.491,45.607,4.111
		c4.298,0.745,9.045-0.893,13.556-1.625c6.51-1.056,12.955-2.932,19.494-3.288c10.301-0.561,20.656-0.036,30.987-0.186
		c7.853-0.113,15.193,1.614,21.969,5.502c6.346,3.642,13.027,6.914,18.744,11.393c14.869,11.644,31.825,19.158,49.086,26.16
		c28.379,11.513,55.756,25.022,82.083,40.665c0.761,0.451,1.746,0.524,2.183,0.648c-27.954-71.212-55.947-142.525-83.867-213.652
		c-3.493-0.291-5.769-0.514-8.05-0.664c-15.585-1.029-31.204-1.688-46.747-3.165c-14.865-1.411-29.65-3.67-44.472-5.544
		c-1.309-0.166-2.69-0.556-3.934-0.311c-26.274,5.161-52.489,2.004-78.291-2.366c-26.477-4.486-52.78-10.615-77.279-22.486
		c-17.094-8.283-31.402-20.202-43.605-34.426c-7.84-9.14-13.752-19.742-12.55-31.646c-17.525-11.716-34.755-22.442-51.049-34.438
		c-9.307-6.852-17.321-15.548-25.47-23.851c-4.83-4.919-6.478-11.547-6.548-18.387c-0.11-10.664-0.038-21.33-0.016-31.995
		c0.002-1.327-0.204-2.824,0.313-3.955c7.253-15.839,4.899-32.669,4.851-49.172c-0.031-10.566,2.061-20.37,6.179-29.989
		c7.851-18.34,21.322-32.061,36.642-44c5.03-3.92,7.626-7.756,7.381-14.024c-0.283-7.285-0.066-14.592-0.066-23.558
		c-16.038-14.175-26.12-34.289-33.781-55.813c-6.511-18.296-9.532-37.289-10.149-56.639c-0.34-10.654-0.16-21.331-0.038-31.994
		c0.207-18.063,6.099-33.478,19.344-46.484c12.405-12.18,25.57-23.309,39.342-33.817c2.304-1.759,4.491-3.673,7.496-6.144
		c-3.32-1.839-5.744-3.408-8.345-4.587c-46.319-21.003-88.124-49.455-129.56-78.505c-41.684-29.225-83.064-58.824-126.433-85.648
		c-33.639-20.806-66.24-43.445-98.139-66.856c-21.117-15.498-40.552-33.384-59.993-51.026c-9.55-8.664-17.884-18.818-25.904-28.981
		c-11.224-14.224-16.552-31.01-17.696-48.947c-1.077-16.888-1.413-33.824-2.125-52.028c-4.055,5.186-4.441,10.836-6.525,15.707
		c-4.797,11.216-3.786,21.94,0.101,33.559c15.219,45.504,36.873,87.447,65.118,126.257c18.409,25.293,38.357,49.27,58.593,73.042
		c3.98,4.675,5.85,9.285,5.476,15.311c-0.371,5.977-0.259,12-0.047,17.992c0.574,16.194-9.58,26.247-20.508,35.733
		c-1.463,1.271-4.357,1.136-6.604,1.212c-4.897,0.168-9.805,0.052-14.604,0.052c0.352,21.009,1.213,40.892,0.807,60.751
		c-0.222,10.832-2.512,21.633-4.086,32.417c-0.214,1.464-1.525,2.913-2.637,4.071c-3.692,3.847-7.28,7.853-11.361,11.25
		c-5.971,4.972-12.595,8.425-20.906,7.59c-4.949-0.497-10.016-0.415-14.981-0.011c-6.361,0.518-11.895-1.275-16.618-5.234
		c-9.149-7.668-18.058-15.256-22.34-27.346c-4.572-12.907-12.242-23.844-23.32-32.813c-11.857-9.6-22.661-20.632-33.132-31.782
		c-19.975-21.269-45.684-28.124-73.311-31.884c-39.638-5.395-73.93,8.303-106.877,27.798
		c-17.755,10.506-35.496,21.042-53.112,31.778c-7.908,4.819-16.134,7.646-25.493,6.578c-1.974-0.224-4.009-0.186-5.993-0.009
		c-20.879,1.869-36.398-8.075-49.607-22.758c-1.787-1.986-3.052-5.169-3.135-7.843c-0.497-15.978-0.767-31.971-0.645-47.954
		c0.026-3.449,1.186-7.442,3.169-10.226c8.083-11.343,15.764-23.195,25.309-33.227c15.806-16.611,32.937-31.96,49.735-48.059
		c-1.592,0.387-3.455,0.384-4.772,1.229c-12.761,8.2-27.024,5.376-40.826,5.52c-2.264,0.023-5.085-1.566-6.735-3.287
		c-8.054-8.397-15.979-16.937-23.548-25.771c-2.441-2.849-3.657-6.749-5.741-10.76c-5.792,0-12.131-0.35-18.416,0.084
		c-8.964,0.619-16.351-2.957-22.909-8.262c-4.896-3.961-9.388-8.558-13.391-13.421c-1.918-2.331-2.915-5.876-3.216-8.979
		c-0.512-5.284,0.552-10.762-0.271-15.965c-3.105-19.643,10.819-28.349,23.635-37.848c1.027-0.761,2.476-1.559,3.631-1.436
		c6.461,0.693,8.8-4.143,11.03-8.458c7.926-15.335,15.72-30.745,23.206-46.299c11.239-23.35,21.879-46.989,33.321-70.237
		c12.057-24.494,23.092-49.381,31.952-75.211c0.842-2.457,1.302-5.044,2.25-8.797c-4.343,0-7.933,0.062-11.519-0.011
		c-17.631-0.358-35.285-0.314-52.886-1.246c-21.729-1.148-41.33-9.351-60.121-19.81c-13.176-7.333-25.417-15.861-35.674-27.004
		c-9.452-10.27-19.49-20.107-27.954-31.144c-5.766-7.517-10.39-16.371-13.57-25.322c-9.73-27.381-15.616-55.624-15.126-84.884
		c0.211-12.614,0.771-25.223,1.311-37.828c0.399-9.342,4.183-17.42,10.235-24.35c21.283-24.365,46.409-43.739,75.665-57.666
		c12.867-6.126,26.574-8.499,40.681-8.653c15.996-0.176,31.996-0.14,47.993-0.016c16.527,0.129,32.346,3.685,47.267,10.811
		c12.601,6.017,25.637,11.387,37.474,18.678c25.625,15.783,46.126,37.213,61.047,63.227c11.562,20.158,21.097,41.478,31.844,62.9
		c1.311-0.93,3.179-1.706,4.243-3.096c18.246-23.864,34.589-48.865,45.438-77.094c0.238-0.62,0.325-1.303,0.599-1.904
		c7.505-16.498,6.066-32.907-0.638-49.187c-6.7-16.275-13.167-32.669-20.593-48.611c-2.391-5.13-7.256-9.239-11.418-13.384
		c-8.015-7.984-16.893-15.179-24.268-23.692c-3.135-3.621-4.449-9.675-4.742-14.729c-0.675-11.626-0.115-23.319-0.264-34.983
		c-0.063-4.967,1.375-9.054,5.063-12.452c3.184-2.934,5.982-6.298,9.257-9.116c7.96-6.848,16.488-10.817,27.811-10.921
		c14.894-0.139,28.271,2.754,40.888,10.353c8.542,5.145,17.236,10.034,26.732,15.543c1.795-1.657,4.148-3.871,6.548-6.034
		c2.718-2.448,5.257-5.174,8.262-7.209c9.39-6.361,20.046-1.696,30.033-3.093c4.537-0.634,7.49,1.955,10.245,5.024
		c4.832,5.384,9.715,10.721,15.354,16.933c1.137-2.038,2.899-4.592,4.068-7.394c5.714-13.699,16.192-23.687,27.192-32.713
		c4.352-3.572,11.698-4.274,17.802-4.756c9.606-0.756,19.313-0.221,28.979-0.229c0.666-0.001,1.345-0.046,1.997,0.059
		c5.741,0.926,21.563,18.225,21.704,24.088c0.2,8.328,0.353,16.68-0.099,24.987c-0.166,3.044-2.182,5.967-3.228,8.989
		c-1.589,4.593-4.762,9.394-4.322,13.813c3.292,33.057,6.997,66.052,20.289,97.118c3.727,8.712,8.877,14.513,17.376,19.108
		c34.006,18.383,70.674,27.107,108.581,31.606c22.286,2.646,43.672-2.533,64.438-9.869c28.102-9.927,54.51-23.567,77.827-42.113
		c15.05-11.97,28.272-26.228,42.456-39.305c3.881-3.58,8.068-6.919,12.488-9.798c5.361-3.492,11.278-5.201,17.946-4.822
		c8.306,0.472,16.679,0.47,24.983-0.007c5.881-0.339,10.357,1.296,13.8,6.003c0.583,0.797,1.329,1.517,2.121,2.112
		c10.792,8.119,15.333,18.73,13.449,32.233c-0.586,4.194-0.091,8.539-0.091,13.553c13.036-2.101,18.368,7.685,24.62,14.836
		c3.126,3.576,3.542,9.824,4.437,14.992c2.49,14.383,4.867,28.726,4.453,43.511c-0.423,15.077-5.226,27.998-15.67,38.595
		c-12.153,12.333-24.426,24.594-37.346,36.1c-5.571,4.961-12.674,8.413-19.474,11.75c-25.514,12.52-52.944,19.281-80.313,26.228
		c-8.993,2.283-17.696,5.75-26.723,7.852c-9.978,2.323-20.13,4.04-30.286,5.433c-48.993,6.723-96.536,19.275-143.253,35.206
		c-2.032,0.692-3.883,1.917-7.108,3.545c30.732,3.645,57.256,16.449,85.32,23.889c14.994,3.976,28.794,12.273,43.67,16.892
		c36.084,11.203,67.037,32.132,99.182,50.801c13.508,7.846,26.375,16.79,39.601,25.128c18.573,11.709,37.151,23.412,55.83,34.951
		c26.125,16.137,49.937,35.322,73.288,55.131c21.809,18.5,43.968,36.605,65.299,55.64c15.612,13.931,30.148,29.069,45.139,43.696
		c14.78,14.422,29.726,28.683,44.24,43.37c17.997,18.21,30.274,40.293,41.547,63.011c6.013,12.118,5.868,25.072,5.43,38.942
		c4.769,2.588,9.996,4.756,14.467,7.973c14.823,10.663,30.088,20.878,43.872,32.783c23.435,20.242,45.513,42.037,63.134,67.726
		c20.077,29.27,32.585,61.588,36.469,96.987c3.167,28.863,2.479,57.843,1.257,86.766c-0.402,9.515-2.979,18.937-4.567,28.435
		c2.422,3.519,4.806,7.124,7.33,10.627c8.672,12.031,12.692,25.293,12.208,40.25c-0.657,20.299-0.46,40.625-0.829,60.937
		c-0.139,7.627-1.458,15.267-1.166,22.859c1.019,26.539,2.387,53.066,8.72,79.043c0.939,3.855,1.216,7.88,1.687,11.84
		c1.796,15.111,10.123,27.347,18.015,39.595c8.202,12.73,14.74,25.918,16.942,41.047c0.274,1.891,1.283,3.776,2.315,5.439
		c6.837,11.024,13.76,21.995,20.691,32.961c0.884,1.396,2.305,2.521,2.929,4.002c3.587,8.522,9.722,14.808,16.572,20.846
		c9.729,8.576,18.792,17.908,28.128,26.927c2.861,2.765,5.486,6.163,10.693,3.225c0.158-1.997,0.582-4.271,0.48-6.521
		c-1.197-26.571,5.218-52.107,10.91-77.681c1.25-5.614,4.42-11.335,8.179-15.757c10.757-12.659,21.974-24.97,33.667-36.766
		c3.507-3.538,8.951-5.687,13.898-7.139c7.268-2.134,14.888-3.071,23.139-4.668c-4.56-24.798-2.398-49.67-3.218-74.449
		c-0.582-17.61,4.349-32.832,16.771-45.317c10.562-10.615,20.624-22.005,32.458-31.016c18.205-13.861,38.713-23.315,62.426-23.282
		c1.315,0.002,2.636-0.259,3.943-0.464c0.271-0.042,0.495-0.378,1.223-0.972c-3.591-8.565-7.66-17.161-10.813-26.081
		c-3.869-10.949-8.531-21.523-12.953-32.206c-5.769-13.933-9.81-29.21-11.086-44.208c-1.481-17.419-0.063-35.254,1.73-52.741
		c2.341-22.834,11.831-42.785,28.615-58.903c5.991-5.753,11.945-11.547,18.634-18.018c-3.141-3.24-5.674-5.72-8.059-8.335
		c-12.767-13.988-25.673-27.854-38.169-42.08c-7.24-8.241-14.027-16.947-13.686-28.945c0.046-1.593-0.456-3.424-1.289-4.787
		c-8.049-13.147-7.343-28.119-8.06-42.485c-1.196-23.933-1.147-48.045,5.727-71.318c4.701-15.919,11.126-30.97,21.793-44.381
		c17.113-21.514,36.813-40.495,57.465-58.158c22.988-19.662,50.804-31.33,80.159-38.9c5.461-1.408,10.861-3.049,16.27-4.653
		c0.568-0.169,0.997-0.813,2.233-1.875c-1.329-16.247-2.671-33.056-4.089-49.857c-1.004-11.891-2.111-23.773-3.176-35.659
		c-2.219-24.788-4.484-49.572-6.646-74.365c-2.479-28.42-5.961-56.808-6.974-85.283c-0.941-26.511-1.075-53.081,2.322-79.68
		c2.493-19.519,10.075-37.134,15.42-55.594c6.885-23.774,23.182-41.077,41.352-55.909c17.188-14.03,36.699-24.952,59.415-29.07
		c16.642-3.018,32.813-8.641,49.46-11.62c21.555-3.858,43.37-6.251,65.075-9.257c30.425-4.212,61.042-3.699,91.65-4.205
		c25.903-0.427,51.77-2.881,77.674-3.516c22.964-0.563,45.995-0.609,68.929,0.51c21.202,1.034,42.344,3.646,63.451,6.086
		c13.303,1.538,25.715,6.103,37.26,13.092c8.511,5.153,17.898,9.009,25.891,14.822c9.894,7.199,19.538,15.092,27.83,24.038
		c8.146,8.79,9.706,20.99,11.029,32.52c1.512,13.177,2.307,26.469,2.72,39.733c0.923,29.594,1.077,59.215,2.253,88.796
		c0.445,11.219,2.916,22.35,4.303,33.541c0.694,5.598,1.412,11.238,1.458,16.864c0.212,26.252-0.318,52.485,3.134,78.661
		c1.426,10.812,0.254,21.966,0.262,32.964c0.002,3.982,0,7.963,0,13.121c14.887,3.858,29.448,8.289,44.297,11.281
		c13.194,2.659,25.557,6.165,36.942,13.945c7.834,5.353,17.012,9.245,26.113,12.148c31.334,9.996,56.864,28.404,78.81,52.348
		c1.553,1.695,2.847,3.689,3.975,5.704c5.356,9.575,11.633,18.799,15.674,28.909c6.369,15.934,12.195,32.12,12.307,49.844
		c0.115,18.33-0.839,36.565-3.65,54.607c-2.246,14.412-5.288,28.808-13.823,41.239c-1.125,1.639-2.293,3.334-2.978,5.176
		c-9.406,25.313-26.748,44.943-45.392,63.656c-0.684,0.686-1.172,1.565-2.148,2.896c1.635,1.902,3.193,3.946,4.983,5.763
		c22.214,22.524,35.693,49.79,40.412,80.687c2.736,17.907,4.325,36.3,1.29,54.626c-1.187,7.167-0.978,14.553-1.892,21.778
		c-2.788,21.997-14.415,39.67-27.893,56.457c-4.329,5.393-8.898,10.847-11.926,16.979c-6.305,12.764-14.646,23.732-25.213,33.149
		c-2.477,2.205-4.711,4.682-6.504,6.481c0.602,15.801,1.182,31.042,1.813,47.613c6.726,0.131,13.564,0.667,20.353,0.287
		c6.918-0.385,12.295,1.813,16.715,7.016c1.935,2.28,4.058,4.45,6.347,6.368c6.11,5.122,8.44,11.637,8.083,19.468
		c-0.256,5.599-0.05,11.22-0.05,16.907c11.813,3.505,22.776,7.574,34.098,9.889c11.309,2.313,20.264,8.252,28.349,15.595
		c4.528,4.112,8.767,6.769,14.961,6.014c20.146-2.456,35.172,8.038,48.676,20.666c7.927,7.414,14.361,16.5,21.009,25.187
		c7.067,9.236,13.596,18.886,20.352,28.361c0.58,0.813,1.165,1.634,1.639,2.51c12.145,22.515,24.33,45.005,36.378,67.572
		c4.996,9.36,9.688,18.884,14.367,28.038c12.039,0.564,23.317,1.237,34.604,1.562c5.802,0.168,10.871,1.68,16.018,4.553
		c21.486,11.994,37.851,29.377,51.236,49.448c6.604,9.903,10.513,21.5,10.289,33.928c-0.09,4.998,0.224,10.013-0.07,14.995
		c-0.445,7.56,0.311,14.217,6.825,19.672c2.751,2.302,3.777,6.883,5.134,10.594c6.22,17.026,8.234,34.948,9.569,52.779
		c2.318,30.966-1.347,61.718-5.56,92.371c-1.796,13.068-8.546,23.185-17.249,32.928c-14.329,16.042-32.072,26.75-50.845,36.28
		c-4.413,2.24-8.801,4.532-12.724,6.554c2.796,29.092,5.967,57.41,8.094,85.806c1.463,19.541,2.968,39.275,1.846,58.774
		c-2.566,44.606-0.074,89.186-0.975,133.767c-0.33,16.3-0.219,32.614,0.023,48.918c0.104,6.954,1.15,13.891,1.606,20.845
		c0.63,9.608,1.94,19.267,1.488,28.834c-1.268,26.819,3.733,52.954,7.239,79.292c2.319,17.423,4.281,34.929,5.46,52.461
		c1.96,29.133,3.139,58.296,8.7,87.089c3.521,18.227,6.65,36.562,8.992,54.971c1.211,9.516,0.479,19.301,0.266,28.957
		c-0.047,2.103-1.087,4.792-2.615,6.136c-4.124,3.633-4.07,7.955-3.601,12.766c1.601,16.404,6.33,32.072,13.186,46.81
		c6.021,12.94,10.86,25.668,9.205,40.159c-0.836,7.32,2.181,12.595,8.022,17.084c20.631,15.852,42.121,30.002,65.796,41.234
		c20.465,9.711,41.36,17.997,62.483,26.015c34.868,13.235,67.93,30.362,100.943,47.672c26.261,13.769,52.24,28.001,76.465,44.974
		c12.129,8.498,22.385,19.833,32.801,30.554c6.642,6.835,9.879,15.563,9.512,25.505c-0.357,9.652-0.154,19.328-0.055,28.993
		c0.061,5.982-1.823,11.347-5.929,15.452c-8.389,8.39-15.465,18.585-28.758,21.426c0,10.986-0.22,21.599,0.092,32.195
		c0.155,5.269-0.812,10.128-4.125,14.002c-7.021,8.21-12.791,18.025-24.601,20.668c-1.444,0.322-3.19,1.51-3.845,2.784
		c-4.022,7.845-6.985,16.354-11.819,23.633c-5.648,8.508-12.558,16.315-22.144,20.931c-2.649,1.275-5.431,2.276-7.653,3.198
		c-1.326,8.125-1.813,15.801-3.941,22.992c-2.755,9.313-7.792,17.599-15.117,24.303c-3.193,2.924-6.519,5.818-9.144,9.222
		c-7.129,9.242-17.038,12.886-27.95,13.075c-17.286,0.3-34.636,0.204-51.877-0.949c-21.156-1.416-40.245-9.99-56.766-22.604
		c-20.316-15.511-40.078-31.952-58.63-49.523c-35.781-33.891-70.6-68.8-105.692-103.415c-8.519-8.404-16.55-17.305-25.288-26.484
		c-10.279,8.933-20.204,17.591-30.169,26.201c-4.784,4.133-9.67,8.146-14.469,12.261c-8.125,6.97-17.677,11.119-28.189,11.357
		c-22.918,0.521-45.916,1.201-68.762-0.175c-13.908-0.838-25.176-9.791-35.231-19.283c-6.299-5.945-12.105-12.416-18.459-18.299
		c-8.149-7.545-11.336-16.959-11.442-27.698c-0.086-8.663,0.598-17.383-0.147-25.984c-1.577-18.236,5.11-33.234,17.092-46.183
		c10.162-10.981,20.323-22.056,34.271-28.641c2.58-1.219,4.635-3.673,6.743-5.75c10.419-10.268,20.783-20.592,31.151-30.912
		c8.248-8.21,14.115-16.579,11.046-29.773c-8.95-38.479-16.519-77.276-25.244-115.811c-7.842-34.633-16.627-69.051-24.731-103.626
		c-3.103-13.23-5.926-26.562-8.083-39.974c-4.361-27.119-14.157-52.524-23.796-77.98c-9.065-23.941-17.918-47.937-22.719-73.171
		c-4.709-24.748-8.915-49.593-13.725-74.322c-2.151-11.065-5.151-21.97-7.915-32.911c-7.569-29.954-15.2-59.893-22.876-89.819
		c-0.381-1.481-1.422-2.793-2.607-5.04c-1.303,4.399-2.044,7.984-3.411,11.313c-4.276,10.42-7.955,21.213-13.43,30.984
		c-6.361,11.356-11.36,23.183-16.366,35.119c-6.677,15.923-14.113,31.527-21.395,47.646c3.656,4.45,7.987,8.685,11.065,13.69
		c5.81,9.443,9.429,19.963,10.256,30.994c1.639,21.843,3.947,43.766,0.484,65.612c-0.914,5.77-3.774,11.228-5.698,16.842
		c-4.457,13.005-9.996,25.575-19.656,35.517c-18.747,19.297-36.28,40.178-61.548,50.608c-0.596,1.269-1.125,1.866-1.118,2.458
		c0.293,25.835-7.612,50.482-11.015,75.785c-3.82,28.408-11.701,55.702-21.71,82.658c-7.77,20.925-15.896,41.605-25.293,61.813
		c-2.567,5.521-4.32,11.104-3.628,17.263c1.124,9.989-1.46,18.948-6.739,27.49c-13.441,21.751-25.199,44.694-40.182,65.306
		c-19.483,26.805-43.675,48.986-74.457,63.218c-7.632,3.529-14.602,9.347-20.621,15.366c-24.534,24.542-53.685,41.138-86.18,52.595
		c-23.202,8.182-45.819,18.312-70.432,21.695c-19.448,2.673-39.029,4.229-58.665,1.83c-25.066-3.061-50.091-6.498-75.188-9.279
		c-13.523-1.5-27.225-1.437-40.732-3.035c-19.908-2.356-37.638-10.342-53.245-22.977c-1.261-1.021-2.584-2.271-4.074-2.66
		c-20.433-5.335-36.754-18.31-54.206-29.134c-27.7-17.182-55.011-35.006-82.959-51.77c-26.94-16.158-51.338-35.648-75.59-55.364
		c-33.781-27.463-65.113-57.786-99.896-84.154c-21.14-16.026-40.203-34.776-60.444-52.015
		c-16.195-13.791-32.928-26.953-49.128-40.741c-29.627-25.213-59.499-50.169-88.357-76.244
		c-16.519-14.925-31.266-31.816-46.739-47.889c-2.25-2.337-4.109-5.053-7.431-9.188c-1.311,4.934-2.203,7.285-2.539,9.713
		c-3.769,27.297-7.653,54.578-11.099,81.915c-2.82,22.38-5.189,44.817-7.578,67.248c-3.162,29.688-6.077,59.405-9.227,89.095
		c-3.537,33.331-7.488,66.621-10.763,99.979c-3.665,37.312-6.765,74.677-10.139,112.018c-0.192,2.132-0.638,4.243-0.924,6.096
		c5.821-2.552,11.309-4.958,17.688-7.754c0-7.307,0.241-16.152-0.093-24.976c-0.19-5.056,1.258-8.787,4.977-12.33
		c17.096-16.291,9.643-12.996,31.856-13.632c10.179-0.291,19.938,0.351,29.189,8.049c1.259-6.432,2.768-11.688,3.239-17.037
		c1.21-13.737,9.341-23.155,19.113-31.514c2.089-1.786,5.205-2.916,7.976-3.237c4.606-0.534,9.474,0.597,13.953-0.324
		c14.39-2.958,23.206,5.174,31.143,14.989c1.972,2.441,3.072,5.816,3.85,8.942c1.283,5.146,1.976,10.44,3.17,17.076
		c8.813,0,17.705,0.276,26.568-0.103c5.418-0.232,8.999,2.006,13.161,5.268c11.236,8.81,15.334,19.453,14.152,33.76
		c-1.279,15.498-0.29,15.58-10.505,31.264c7.146,6.459,14.005,13.074,21.324,19.134c5.171,4.283,6.883,9.37,6.282,15.793
		c-0.341,3.635-0.009,7.327-0.072,10.993c-0.144,8.207,2.247,17.236-9.778,22.28c13.635,6.983,13.087,17.741,12.46,28.525
		c-0.02,0.332-0.002,0.667-0.002,1c0,18.897,0.233,19.191-14.655,31.044c-3.489,2.777-9.082,3.5-13.826,3.968
		c-6.571,0.649-13.256,0.163-21.144,0.163c-0.143,3.918-0.441,7.1-0.334,10.266c0.195,5.722-1.963,10.343-5.97,14.264
		c-2.62,2.563-5.381,5.017-7.734,7.812c-3.531,4.192-8.08,5.611-13.268,5.642c-7,0.04-14.01,0.261-20.995-0.058
		c-9.271-0.422-17.487-3.494-23.983-10.552c-7.852-8.53-15.884-16.894-24.146-25.655c-4.001,3.973-8.475,8.758-13.35,13.092
		c-2.067,1.838-4.931,3.753-7.511,3.865c-9.309,0.407-18.651,0.109-27.979-0.016c-5.927-0.079-10.808-2.118-14.761-6.92
		c-3.495-4.244-7.774-7.843-12.442-12.451c-4.926,15.589-9.387,29.707-13.849,43.826c-8.215,25.995-16.206,52.067-28.579,76.523
		c-1.29,2.55-1.996,5.68-2.016,8.545c-0.149,22.42-4.756,44.171-9.567,65.896c-3.945,17.816-12.993,32.538-26.801,44.475
		c-6.12,5.29-13.557,6.767-21.05,8.188c-3.573,0.678-7.255,1.098-10.887,1.09c-26.6-0.061-53.341,2.018-79.663-3.407
		c-24.414-5.031-48.676-10.682-72.272-19.008c-14.386-5.076-29.348-8.542-43.664-13.787c-5.984-2.192-10.961-7.127-17.709-11.705
		c-5.355,3.266-11.831,6.589-17.614,10.853c-21.357,15.742-45.197,25.401-71.387,28.635c-10.838,1.338-22.021,1.277-32.928,0.386
		c-20.51-1.676-41.013-3.875-61.373-6.857c-23.668-3.467-47.198-7.895-70.752-12.111c-21.924-3.924-43.79-8.168-65.698-12.183
		c-28.765-5.27-57.658-9.911-86.282-15.853c-20.781-4.314-41.301-9.996-61.755-15.72c-6.63-1.855-12.909-5.38-18.956-8.831
		c-22.549-12.864-44.933-26.02-67.387-39.053c-2.004-1.163-3.973-2.482-6.123-3.287c-15.782-5.905-27.589-17.061-38.84-29.021
		c-3.992-4.243-4.599-9.315-4.651-14.789c-0.084-8.76-0.711-9.257-8.948-11.68c-14.677-4.317-29.468-8.316-43.92-13.296
		c-10.309-3.551-20.154-8.453-30.18-12.815c-13.103-5.701-26.003-11.916-39.316-17.069c-13.13-5.081-21.349-15.445-29.878-25.578
		c-1.822-2.166-3.458-5.327-3.472-8.038c-0.092-16.635-0.191-33.298,0.685-49.9c0.854-16.167,7.801-30.85,13.445-45.726
		c3.881-10.229,8.283-20.35,13.472-29.968c6.333-11.741,10.805-24.212,16.265-36.259c4.422-9.761,11.682-18.481,18.771-26.729
		c9.099-10.584,18.903-20.646,29.153-30.119c5.746-5.312,12.581-9.896,19.673-13.204c13.901-6.483,28.278-11.256,44.262-9.892
		c9.531,0.813,19.253-0.979,28.876-0.817c26.564,0.447,52.219,5.714,76.277,17.095c22.434,10.613,46.019,17.549,70.204,22.026
		c9.379,1.735,20.103,1.429,27.182-8.002c3.827-5.099,9.133-7.328,15.398-8.182c5.584-0.763,11.112-2.139,16.566-3.609
		c7.956-2.144,13.203-7.138,15.796-15.17c5.839-18.088,13.536-35.389,22.811-51.982c1.947-3.483,3.41-7.401,5.985-10.339
		c10.866-12.388,18.311-26.851,25.81-41.295c7.229-13.922,19.061-23.856,30.007-34.496c2.052-1.995,5.973-2.704,9.085-2.846
		c8.315-0.379,16.721-0.751,24.972,0.069c6.806,0.677,13.487,2.894,20.134,4.748C955.73,2761.024,959.97,2762.818,966.219,2765.052z
		 M682.924,565.518c-9.716,14.886-17.028,29.179-21.899,44.694C672.1,597.819,686.506,587.171,682.924,565.518z"/>
	<path fill-rule="evenodd" fill="#FFFFFF" d="M682.924,565.518c3.582,21.653-10.825,32.301-21.899,44.694
		C665.896,594.697,673.208,580.404,682.924,565.518z"/>
</g>
</svg>
