<?xml version="1.0" encoding="utf-8"?>
<!-- Generator: Adobe Illustrator 16.0.2, SVG Export Plug-In . SVG Version: 6.00 Build 0)  -->
<!DOCTYPE svg PUBLIC "-//W3C//DTD SVG 1.1 Tiny//EN" "http://www.w3.org/Graphics/SVG/1.1/DTD/svg11-tiny.dtd">
<svg version="1.1" baseProfile="tiny" id="Layer_1" xmlns="http://www.w3.org/2000/svg" xmlns:xlink="http://www.w3.org/1999/xlink"
	 x="0px" y="0px" width="3549.557px" height="4023.497px" viewBox="0 0 3549.557 4023.497" xml:space="preserve">
<g>
	<path fill-rule="evenodd" fill="#FFFFFF" d="M2,2c1183.852,0,2367.703,0,3551.555,0c0,1341.832,0,2683.664,0,4025.496
		c-1183.852,0-2367.703,0-3551.555,0C2,2685.664,2,1343.832,2,2z M1028.369,2463.297c-7.629,20.586-6.469,41.65-5.978,62.557
		c0.215,9.136,0.066,19.03,7.091,26.348c8.297,8.644,17.055,16.849,25.7,25.153c7.437,7.145,15.093,14.062,22.431,21.305
		c1.759,1.738,3.296,4.223,3.822,6.609c6.858,31.151,13.471,62.357,20.237,93.529c8.249,37.999,16.357,76.051,29.206,112.848
		c16.66,47.713,30.438,96.253,42.44,145.322c7.271,29.728,15.099,59.311,27.426,87.435c14.55,33.191,29.548,66.186,44.133,99.362
		c11.907,27.087,23.152,54.47,35.419,81.389c3.83,8.403,6.757,16.47,5.905,25.743c-1.365,14.861,2.657,27.409,15.279,36.616
		c3.716,2.71,6.482,6.669,11.678,6.814c3.761,0.104,5.908,2.258,7.358,5.67c1.822,4.282,4.218,8.319,6.132,12.566
		c15.309,33.975,30.922,67.775,52.909,98.154c1.21,1.672,1.626,3.917,2.597,6.363c-6.885,0.613-12.857,1.793-18.754,1.492
		c-6.229-0.317-12.392-2.018-18.575-3.164c-28.442-5.272-57.065-6.351-85.061,1.194c-16.245,4.378-31.913,11.409-47.263,18.497
		c-30.785,14.217-61.442,28.765-91.653,44.155c-34.049,17.344-64.387,39.919-90.615,67.917
		c-10.131,10.815-18.096,22.946-24.389,36.229c-1.678,3.543-3.27,7.498-3.431,11.326c-0.926,21.973-0.874,43.932,5.87,65.214
		c1.193,3.765,2.602,7.774,5.015,10.788c8.933,11.154,18.318,21.947,27.551,32.86c10.245,12.112,23.668,16.295,39.079,16.045
		c14.994-0.244,30.021-0.608,44.987,0.088c18.379,0.855,35.662-2.503,52.472-9.808c4.715-2.048,10.226-2.717,15.436-3.073
		c8.057-0.551,15.76-1.758,22.931-5.771c3.459-1.934,7.147-3.684,10.948-4.746c19.561-5.464,37.884-13.843,56.013-22.827
		c8.608-4.266,17.579-7.859,26.56-11.3c8.057-3.087,16.438-5.316,24.53-8.319c57.342-21.284,114.759-42.378,171.931-64.112
		c46.909-17.834,93.481-36.549,140.282-54.671c8.522-3.301,16.205-7.566,22.521-14.191c13.778-14.454,27.474-28.987,41.412-43.285
		c2.879-2.953,3.579-6.065,3.533-9.882c-0.123-10.33,0.411-20.691-0.213-30.984c-0.374-6.181-1.469-12.675-3.903-18.308
		c-8.97-20.754-18.219-41.41-28.14-61.722c-12.862-26.332-23.996-53.314-33.741-80.938c-8.96-25.399-18.386-50.636-27.882-75.841
		c-11.139-29.565-23.535-58.696-33.63-88.608c-11.152-33.043-19.402-67.064-30.535-100.115
		c-22.323-66.271-38.54-134.032-51.532-202.615c-4.627-24.426-8.388-49.06-11.393-73.738c-4.049-33.263-7.126-66.648-10.333-100.01
		c-1.333-13.872-2.032-27.81-2.83-41.729c-1.368-23.869-3.292-47.736-3.659-71.624c-0.33-21.592,0.97-43.217,1.806-64.816
		c1.207-31.221,2.291-62.453,4.119-93.64c1.066-18.213,3.227-36.375,5.338-54.51c4.147-35.616,13.134-70.546,15.308-106.464
		c0.142-2.332,1.486-5.161,3.208-6.73c8.812-8.038,17.93-15.74,27.031-23.636c4.3,1.788,8.326,3.297,12.212,5.107
		c40.754,18.98,83.3,33.041,126.224,46.066c35.739,10.847,72.559,16.799,109.175,23.566c8.676,1.604,15.173,3.424,16.186,13.687
		c0.373,3.779,3.152,7.274,4.564,11.002c11.32,29.889,19.27,60.697,25.217,92.067c5.325,28.087,12.148,55.745,21.437,82.872
		c14.763,43.117,25.353,87.332,32.921,132.309c6.986,41.518,15.558,82.776,17.353,125.025c0.73,17.186,3.199,34.318,3.444,51.495
		c0.336,23.608-1.053,47.235-1.036,70.854c0.018,26.285,0.547,52.577,1.311,78.854c0.464,15.936,1.373,31.885,2.825,47.76
		c3.056,33.422,5.151,66.868,5.919,100.435c0.499,21.843,2.294,43.664,3.866,65.469c1.526,21.172,3.627,42.302,5.266,63.466
		c2.332,30.112,4.167,60.267,6.799,90.353c1.733,19.811,4.618,39.519,6.767,59.297c3.797,34.962,7.739,69.913,11.007,104.927
		c1.941,20.81,2.596,41.736,4.043,62.596c0.941,13.563,3.066,27.092,3.207,40.65c0.153,14.796,1.843,29.164,6.365,43.2
		c4.912,15.246,11.565,29.746,20.646,42.923c6.019,8.731,12.965,16.835,19.685,25.064c4.41,5.402,8.752,10.97,13.845,15.685
		c9.019,8.348,18.979,15.692,27.839,24.191c18.163,17.425,38.336,31.789,60.775,43.186c5.815,2.954,11.021,7.32,16.04,11.587
		c11.131,9.459,21.323,20.144,33.058,28.746c24.128,17.685,49.002,34.353,73.606,51.384c5.456,3.775,11.231,7.104,16.58,11.017
		c16.643,12.178,33.029,24.707,49.782,36.727c5.357,3.843,11.462,6.692,17.38,9.689c7.683,3.894,15.796,7.005,23.224,11.314
		c10.334,5.994,21.003,9.156,33.098,9.493c18.396,0.511,36.582-1.286,54.675-3.648c15.29-1.997,29.627-7.178,40.123-19.686
		c2.774-3.307,6.626-5.797,9.017-9.317c3.485-5.136,7.225-10.556,8.829-16.41c2.706-9.872,4.65-20.117,5.442-30.318
		c1.828-23.583,1.965-47.319-1.675-70.697c-2.509-16.111-7.597-31.765-20.26-43.551c-2.177-2.024-3.818-4.614-5.858-6.802
		c-9.753-10.463-19.072-21.401-29.535-31.105c-5.947-5.516-13.604-9.333-20.84-13.276c-7.259-3.955-15.022-6.969-22.427-10.672
		c-5.347-2.673-10.348-6.04-15.709-8.678c-19.406-9.546-38.638-19.264-54.528-34.438c-16.85-16.092-30.409-34.206-37.132-56.883
		c-6.328-21.343-12.862-42.623-19.189-63.967c-8.749-29.511-9.609-59.311-4.81-89.714c3.717-23.557,5.81-47.392,8.001-71.16
		c1.399-15.205,1.364-30.536,2.501-45.771c2.346-31.436,5.322-62.825,7.521-94.271c2.34-33.451,4.021-66.947,6.102-100.418
		c1.356-21.861,2.546-43.742,4.469-65.557c2.418-27.441,5.665-54.81,8.248-82.237c1.618-17.173,2.527-34.411,4.009-51.598
		c2.309-26.762,4.502-53.541,7.361-80.246c2.825-26.392,6.535-52.687,9.64-79.049c2.911-24.708,5.786-49.426,8.214-74.185
		c1.978-20.152,2.349-40.499,5.071-60.536c4.917-36.182,9.208-72.406,10.851-108.874c1.242-27.568,1.529-55.184,2.09-82.78
		c0.223-10.995,0.137-21.999-0.013-32.995c-0.053-3.893,0.955-6.86,3.85-9.725c8.493-8.404,16.384-17.421,24.959-25.736
		c26.524-25.721,53.253-51.23,79.931-76.794c0.417-0.398,1.194-0.423,1.51-0.525c5.749,4.159,10.806,9.671,17.046,11.959
		c14.621,5.361,29.544,10.822,44.82,13.279c32.984,5.303,66.221,5.551,99.297-0.633c30.837-5.766,61.107-13.232,89.012-28.224
		c0.793-0.426,1.851-0.36,2.739-0.516c14.289,13.705,32.105,20.206,50.342,25.642c18.338,5.464,37.208,7.427,56.28,5.979
		c7.729-0.587,13.021,2.223,18.229,7.654c14.045,14.642,28.491,28.904,42.999,43.091c5.453,5.334,11.525,10.033,17.302,15.037
		c19.875,17.222,43.646,17.833,67.971,15.781c2.531-0.214,5.102-1.481,7.395-2.735c13.102-7.169,26.814-13.426,37.134-24.814
		c1.75-1.932,4.306-3.111,6.364-4.791c7.7-6.282,15.724-12.23,22.928-19.042c10.923-10.326,21.836-20.433,35.898-26.512
		c2.934-1.269,5.231-4.003,7.831-6.051c3.385-2.669,6.781-5.324,10.171-7.989c4.421-3.475,9.266-6.534,13.178-10.513
		c10.025-10.197,19.727-20.719,29.386-31.27c11.375-12.423,18.364-26.727,18.059-43.996c-0.077-4.331-0.167-8.672,0.017-12.996
		c0.681-15.984-5.625-29.29-16.313-40.493c-22.294-23.367-44.897-46.439-67.464-69.548c-9.778-10.015-19.789-19.803-29.663-29.725
		c-2.079-2.091-4.016-4.323-6.567-7.084c2.412-4.811,4.24-9.877,7.231-14.125c6.269-8.902,10.155-18.7,12.498-29.177
		c3.478-15.557,6.856-31.138,10.062-46.753c1.063-5.183,1.815-10.484,2.103-15.764c1.262-23.215,3.068-46.436,3.23-69.665
		c0.209-29.931,0.642-60.011-1.938-89.775c-3.382-38.984-9.213-77.761-19.493-115.732c-11.579-42.771-24.938-84.891-42.276-125.72
		c-14.716-34.656-32.004-67.978-50.448-100.772c-14.035-24.958-28.109-49.834-45.052-72.996
		c-18.953-25.91-41.015-49.016-64.253-70.977c-9.118-8.618-19.317-16.265-29.741-23.291c-17.482-11.784-37.357-18.852-56.73-26.821
		c-29.43-12.108-60.878-16.666-91.57-23.932c-15.441-3.655-31.433-5.093-47.234-7.066c-8.553-1.068-17.225-1.239-25.848-1.669
		c-24.231-1.208-48.457-2.743-72.704-3.333c-12.254-0.299-24.543,1.563-36.827,1.753c-32.222,0.499-64.453-0.659-96.622,3.018
		c-15.813,1.807-31.874,1.378-47.804,2.285c-6.709,0.381-13.37,1.598-22.029,2.683c10.426-11.694,20.469-20.694,30.767-29.533
		c15.642-13.426,30.868-27.337,46.173-41.151c5.68-5.126,8.849-11.255,8.044-19.401c-0.653-6.601,0.364-13.369-0.312-19.966
		c-0.456-4.456-1.369-9.82-4.152-12.908c-9.759-10.824-19.422-22.013-33.929-27.127c-8.766-3.09-17.374-6.647-25.966-10.208
		c-35.478-14.702-71.428-27.5-110.427-28.693c-8.215-0.251-16.413-0.997-24.726-1.522c-0.669-8.78-1.315-17.006-1.921-25.234
		c-0.901-12.254-1.384-24.554-2.741-36.756c-2.92-26.261-13.146-49.842-27.402-71.842c-3.158-4.871-6.171-9.836-9.365-14.943
		c2.063-1.05,3.51-1.855,5.012-2.542c18.115-8.272,36.373-16.243,54.326-24.851c29.841-14.31,56.142-34.349,83.34-52.846
		c24.204-16.462,47.16-34.769,71.455-51.09c27.73-18.629,53.605-39.319,77.622-62.496c3.299-3.183,8.593-5.114,13.258-5.914
		c14.616-2.508,26.536-9.464,37.566-19.108c18.995-16.609,30.872-35.989,28.32-62.331c-0.704-7.265,0.289-14.681-0.195-21.981
		c-0.875-13.18-4.776-25.326-14.291-35.038c-6.996-7.143-13.993-14.294-21.261-21.156c-2.829-2.672-6.349-4.636-9.639-6.793
		c-14.839-9.732-31.79-10.612-48.695-11.184c-14.219-0.48-27.964-0.701-42.069-5.516c-23.843-8.138-48.717-13.288-73.21-19.487
		c-36.101-9.139-72.214-18.239-108.389-27.08c-25.829-6.312-51.738-12.297-77.669-18.18c-15.56-3.531-31.237-6.537-46.837-9.894
		c-3.529-0.759-6.48-1.975-8.896-5.511c-5.95-8.715-12.221-17.35-19.396-25.057c-9.742-10.467-20.309-20.187-30.795-29.932
		c-5.32-4.944-11.127-9.39-16.92-13.791c-5.547-4.213-11.338-8.106-17.059-12.086c-20.515-14.271-40.771-29.188-67.728-27.776
		c-0.644,0.033-1.305-0.365-1.956-0.361c-16.622,0.103-33.418-1.221-49.821,0.734c-19.394,2.312-38.442,7.492-57.658,11.34
		c-2.168,0.434-4.843,1.116-6.619,0.277c-11.41-5.386-22.734-10.979-33.899-16.859c-15.285-8.048-30.323-16.568-45.631-24.568
		c-6.765-3.535-13.768-6.771-20.954-9.317c-29.34-10.396-59.551-16.23-90.774-16.075c-8.64,0.044-17.404-0.367-25.89,0.9
		c-21.124,3.155-38.997,13.221-53.672,28.553c-8.02,8.38-15.059,17.691-22.672,26.466c-13.728,15.823-27.271,31.82-41.413,47.266
		c-16.823,18.373-28.441,39.962-39.683,61.833c-3.979,7.739-8.538,13.599-18.488,14.201c-15.216,0.923-30.351,3.136-45.529,4.721
		c-26.097,2.725-52.196,5.439-78.305,8.066c-37.474,3.772-74.06,12.394-110.762,20.323c-24.333,5.257-48.479,11.384-72.836,16.511
		c-13.634,2.87-27.542,4.414-41.302,6.708c-14.853,2.476-29.321,6.877-44.878,4.663c-10.128-1.441-20.65-0.706-30.95-0.142
		c-8.856,0.485-17.798,1.469-26.419,3.458c-5.675,1.311-11.74,3.765-16.069,7.511c-10.501,9.083-20.026,19.136-31.34,27.499
		c-9.231,6.824-16.481,16.38-24.344,24.968c-1.927,2.104-3.871,5.111-3.999,7.788c-0.709,14.937-1.992,30.175,5.611,43.928
		c5.286,9.561,11.164,18.854,17.481,27.767c8.643,12.195,18.138,23.783,26.88,35.912c3.071,4.259,5.338,9.202,7.379,14.08
		c6.133,14.655,14.989,27.384,26.406,38.344c13.68,13.134,27.368,26.264,41.252,39.181c5.332,4.962,10.877,9.837,16.911,13.877
		c14.607,9.784,28.831,20.302,45.599,26.41c2.794,1.018,5.537,2.392,8.012,4.042c21.88,14.583,46.569,22.985,71.206,30.911
		c33.51,10.78,67.584,19.798,101.409,29.601c2.043,0.593,4.013,1.437,7.151,2.574c-5.549,5.556-10.308,10.169-14.897,14.945
		c-14.1,14.671-24.548,31.553-28.885,51.561c-5.902,27.232-6.32,54.749-2.215,82.295c4.336,29.112,14.278,56.04,32.716,79.26
		c3.952,4.977,5.896,10.225,6.797,16.104c0.952,6.222,1.427,12.516,2.175,18.77c3.812,31.867,11.695,62.674,24.109,92.292
		c6.121,14.6,5.817,15.604-7.818,23.43c-7.844,4.501-15.381,7.629-25.322,5.388c-44.238-9.973-89.503-12.073-134.502-16.043
		c-28.127-2.482-56.306-4.397-84.473-6.409c-27.836-1.99-55.663-4.705-83.536-5.409c-29.27-0.739-58.601,0.183-87.886,1.018
		c-31.564,0.899-63.133,2.144-94.652,4.022c-16.207,0.965-32.65,2.174-48.396,5.823c-37.604,8.716-74.084,21.454-109.898,35.738
		c-38.585,15.389-72.89,38.53-106.336,62.775c-25.678,18.614-49.344,39.603-68.544,65.079
		c-18.449,24.479-35.419,49.986-49.254,77.385c-9.129,18.081-17.12,36.732-26.035,54.926c-14.356,29.3-27.043,59.314-36.587,90.48
		c-15.667,51.161-30.612,102.546-45.517,153.937c-12.893,44.451-20.397,89.952-24.882,135.953
		c-1.417,14.533-2.396,29.149-2.675,43.744c-0.388,20.233-0.392,40.499,0.344,60.717c0.458,12.563,3.361,25.037,3.798,37.599
		c0.761,21.891-1.218,43.923,4.985,65.556c-4.401,3.714-8.668,6.886-12.424,10.577c-7.819,7.682-15.585,15.442-22.949,23.555
		c-4.65,5.121-8.126,11.32-12.854,16.355c-7.95,8.469-9.32,20.42-16.303,29.319c-0.347,0.441-0.192,1.295-0.227,1.958
		c-0.688,13.577-1.552,27.147-2,40.731c-0.481,14.627-0.439,28.937,7.201,42.599c3.326,5.948,5.51,12.9,10.297,17.723
		c9.596,9.666,20.041,18.489,30.1,27.699c3.167,2.9,6.281,5.862,9.318,8.897c12,11.989,23.637,24.366,36.016,35.948
		c15.979,14.951,36.152,23.585,54.813,34.413c4.915,2.851,11.417,3.468,17.293,4.029c6.936,0.664,13.998,0.447,20.979,0.085
		c11.611-0.604,23.04-1.529,33.23-8.603c7.864-5.458,16.271-10.445,25.057-14.179c9.114-3.872,16.809-9.222,23.773-16.019
		c7.861-7.672,15.984-15.081,23.729-22.867c3.095-3.113,6.173-3.876,10.584-3.817c20.608,0.272,41.21,1.536,61.822-1.412
		c16.313-2.334,31.759-7.05,45.14-12.749c16.305,6.685,31.129,13.343,46.387,18.785c8.375,2.988,17.413,4.998,26.272,5.563
		c17.917,1.142,35.918,1.445,53.877,1.27c21.393-0.209,42.197-4.042,62.695-10.59c18.271-5.838,36.319-12.644,55.326-16.047
		c3.549-0.635,7.246-1.299,10.453-2.833c9.456-4.525,18.699-9.496,29.772-15.189c1.567,2,3.766,4.938,6.1,7.764
		c13.957,16.904,27.849,33.863,41.941,50.653C954.578,2391.501,987.081,2430.673,1028.369,2463.297z"/>
	<path fill-rule="evenodd" d="M1028.369,2463.297c-41.289-32.624-73.792-71.796-106.494-110.764
		c-14.092-16.79-27.985-33.749-41.941-50.653c-2.333-2.826-4.532-5.764-6.1-7.764c-11.074,5.693-20.317,10.664-29.772,15.189
		c-3.207,1.534-6.904,2.198-10.453,2.833c-19.007,3.403-37.056,10.209-55.326,16.047c-20.498,6.548-41.302,10.381-62.695,10.59
		c-17.958,0.176-35.96-0.128-53.877-1.27c-8.859-0.565-17.897-2.575-26.272-5.563c-15.258-5.442-30.082-12.101-46.387-18.785
		c-13.381,5.699-28.827,10.415-45.14,12.749c-20.612,2.948-41.214,1.685-61.822,1.412c-4.411-0.059-7.489,0.704-10.584,3.817
		c-7.744,7.786-15.867,15.195-23.729,22.867c-6.965,6.797-14.659,12.146-23.773,16.019c-8.787,3.733-17.193,8.721-25.057,14.179
		c-10.19,7.073-21.62,7.998-33.23,8.603c-6.98,0.362-14.043,0.579-20.979-0.085c-5.876-0.562-12.378-1.179-17.293-4.029
		c-18.662-10.828-38.834-19.462-54.813-34.413c-12.379-11.582-24.016-23.959-36.016-35.948c-3.037-3.035-6.151-5.997-9.318-8.897
		c-10.06-9.21-20.504-18.033-30.1-27.699c-4.787-4.822-6.971-11.774-10.297-17.723c-7.64-13.662-7.682-27.972-7.201-42.599
		c0.447-13.584,1.312-27.154,2-40.731c0.034-0.663-0.12-1.517,0.227-1.958c6.982-8.899,8.353-20.851,16.303-29.319
		c4.728-5.035,8.204-11.234,12.854-16.355c7.364-8.112,15.13-15.873,22.949-23.555c3.756-3.691,8.023-6.863,12.424-10.577
		c-6.204-21.633-4.224-43.665-4.985-65.556c-0.437-12.562-3.34-25.036-3.798-37.599c-0.736-20.218-0.732-40.484-0.344-60.717
		c0.279-14.595,1.258-29.21,2.675-43.744c4.485-46.001,11.989-91.502,24.882-135.953c14.905-51.391,29.85-102.776,45.517-153.937
		c9.544-31.166,22.231-61.181,36.587-90.48c8.915-18.193,16.905-36.845,26.035-54.926c13.834-27.399,30.805-52.906,49.254-77.385
		c19.2-25.476,42.866-46.465,68.544-65.079c33.446-24.246,67.751-47.386,106.336-62.775c35.814-14.284,72.294-27.022,109.898-35.738
		c15.746-3.649,32.189-4.858,48.396-5.823c31.52-1.878,63.088-3.123,94.652-4.022c29.285-0.835,58.616-1.756,87.886-1.018
		c27.873,0.704,55.7,3.418,83.536,5.409c28.167,2.012,56.346,3.927,84.473,6.409c44.999,3.97,90.264,6.07,134.502,16.043
		c9.941,2.241,17.478-0.887,25.322-5.388c13.635-7.825,13.939-8.83,7.818-23.43c-12.414-29.619-20.297-60.425-24.109-92.292
		c-0.748-6.254-1.223-12.548-2.175-18.77c-0.9-5.88-2.845-11.127-6.797-16.104c-18.438-23.22-28.379-50.148-32.716-79.26
		c-4.105-27.546-3.687-55.063,2.215-82.295c4.336-20.008,14.785-36.89,28.885-51.561c4.589-4.776,9.348-9.389,14.897-14.945
		c-3.138-1.137-5.108-1.981-7.151-2.574c-33.825-9.802-67.899-18.821-101.409-29.601c-24.636-7.926-49.326-16.328-71.206-30.911
		c-2.475-1.649-5.217-3.024-8.012-4.042c-16.769-6.108-30.992-16.626-45.599-26.41c-6.033-4.04-11.579-8.915-16.911-13.877
		c-13.884-12.917-27.572-26.046-41.252-39.181c-11.417-10.959-20.273-23.688-26.406-38.344c-2.041-4.878-4.308-9.821-7.379-14.08
		c-8.742-12.128-18.238-23.717-26.88-35.912c-6.318-8.913-12.196-18.207-17.481-27.767c-7.604-13.753-6.32-28.991-5.611-43.928
		c0.128-2.677,2.072-5.684,3.999-7.788c7.862-8.588,15.112-18.144,24.344-24.968c11.314-8.362,20.839-18.416,31.34-27.499
		c4.329-3.747,10.394-6.201,16.069-7.511c8.621-1.989,17.563-2.973,26.419-3.458c10.3-0.564,20.822-1.3,30.95,0.142
		c15.557,2.214,30.025-2.187,44.878-4.663c13.759-2.295,27.667-3.838,41.302-6.708c24.357-5.127,48.503-11.253,72.836-16.511
		c36.702-7.93,73.289-16.551,110.762-20.323c26.108-2.627,52.208-5.341,78.305-8.066c15.178-1.585,30.313-3.798,45.529-4.721
		c9.95-0.603,14.509-6.462,18.488-14.201c11.242-21.871,22.859-43.459,39.683-61.833c14.142-15.445,27.685-31.442,41.413-47.266
		c7.613-8.775,14.652-18.086,22.672-26.466c14.675-15.332,32.549-25.398,53.672-28.553c8.486-1.268,17.25-0.856,25.89-0.9
		c31.223-0.155,61.434,5.679,90.774,16.075c7.187,2.546,14.189,5.782,20.954,9.317c15.309,8,30.346,16.521,45.631,24.568
		c11.165,5.88,22.489,11.474,33.899,16.859c1.776,0.839,4.451,0.156,6.619-0.277c19.216-3.848,38.265-9.028,57.658-11.34
		c16.403-1.956,33.199-0.632,49.821-0.734c0.651-0.004,1.313,0.395,1.956,0.361c26.956-1.412,47.213,13.504,67.728,27.776
		c5.721,3.98,11.512,7.873,17.059,12.086c5.793,4.4,11.6,8.847,16.92,13.791c10.486,9.746,21.053,19.465,30.795,29.932
		c7.175,7.707,13.445,16.342,19.396,25.057c2.415,3.537,5.366,4.752,8.896,5.511c15.6,3.357,31.277,6.363,46.837,9.894
		c25.931,5.883,51.84,11.869,77.669,18.18c36.175,8.841,72.288,17.941,108.389,27.08c24.493,6.199,49.367,11.349,73.21,19.487
		c14.105,4.815,27.851,5.036,42.069,5.516c16.905,0.572,33.856,1.452,48.695,11.184c3.29,2.157,6.81,4.121,9.639,6.793
		c7.268,6.862,14.265,14.013,21.261,21.156c9.515,9.711,13.416,21.858,14.291,35.038c0.484,7.301-0.509,14.717,0.195,21.981
		c2.552,26.342-9.325,45.722-28.32,62.331c-11.03,9.645-22.95,16.601-37.566,19.108c-4.665,0.8-9.959,2.731-13.258,5.914
		c-24.017,23.177-49.892,43.867-77.622,62.496c-24.295,16.321-47.251,34.628-71.455,51.09
		c-27.198,18.498-53.499,38.536-83.34,52.846c-17.953,8.608-36.211,16.579-54.326,24.851c-1.502,0.687-2.948,1.491-5.012,2.542
		c3.194,5.107,6.207,10.072,9.365,14.943c14.256,22,24.482,45.581,27.402,71.842c1.357,12.203,1.84,24.502,2.741,36.756
		c0.605,8.228,1.252,16.454,1.921,25.234c8.313,0.525,16.511,1.271,24.726,1.522c38.999,1.193,74.949,13.991,110.427,28.693
		c8.592,3.561,17.2,7.118,25.966,10.208c14.507,5.114,24.17,16.304,33.929,27.127c2.783,3.087,3.696,8.452,4.152,12.908
		c0.676,6.597-0.342,13.365,0.312,19.966c0.805,8.146-2.364,14.275-8.044,19.401c-15.305,13.813-30.531,27.725-46.173,41.151
		c-10.298,8.839-20.341,17.838-30.767,29.533c8.659-1.085,15.32-2.302,22.029-2.683c15.93-0.906,31.99-0.478,47.804-2.285
		c32.169-3.677,64.4-2.52,96.622-3.018c12.284-0.19,24.573-2.052,36.827-1.753c24.247,0.591,48.473,2.125,72.704,3.333
		c8.623,0.43,17.295,0.601,25.848,1.669c15.802,1.973,31.793,3.412,47.234,7.066c30.692,7.266,62.141,11.824,91.57,23.932
		c19.373,7.969,39.248,15.037,56.73,26.821c10.424,7.026,20.623,14.673,29.741,23.291c23.238,21.961,45.3,45.066,64.253,70.977
		c16.942,23.161,31.017,48.038,45.052,72.996c18.444,32.794,35.732,66.117,50.448,100.772
		c17.339,40.829,30.697,82.949,42.276,125.72c10.28,37.972,16.111,76.748,19.493,115.732c2.58,29.764,2.147,59.844,1.938,89.775
		c-0.162,23.229-1.969,46.45-3.23,69.665c-0.287,5.28-1.039,10.581-2.103,15.764c-3.205,15.615-6.584,31.196-10.062,46.753
		c-2.343,10.478-6.229,20.275-12.498,29.177c-2.991,4.249-4.819,9.315-7.231,14.125c2.552,2.761,4.488,4.993,6.567,7.084
		c9.874,9.922,19.885,19.71,29.663,29.725c22.566,23.108,45.17,46.181,67.464,69.548c10.688,11.203,16.994,24.509,16.313,40.493
		c-0.184,4.324-0.094,8.665-0.017,12.996c0.306,17.27-6.684,31.573-18.059,43.996c-9.659,10.551-19.36,21.072-29.386,31.27
		c-3.912,3.979-8.757,7.038-13.178,10.513c-3.39,2.665-6.786,5.32-10.171,7.989c-2.6,2.048-4.897,4.782-7.831,6.051
		c-14.063,6.079-24.976,16.186-35.898,26.512c-7.204,6.812-15.228,12.76-22.928,19.042c-2.059,1.68-4.614,2.859-6.364,4.791
		c-10.319,11.389-24.032,17.646-37.134,24.814c-2.293,1.254-4.863,2.521-7.395,2.735c-24.324,2.052-48.096,1.44-67.971-15.781
		c-5.776-5.004-11.849-9.703-17.302-15.037c-14.508-14.187-28.954-28.449-42.999-43.091c-5.208-5.432-10.5-8.241-18.229-7.654
		c-19.072,1.448-37.942-0.515-56.28-5.979c-18.236-5.436-36.053-11.937-50.342-25.642c-0.889,0.155-1.946,0.09-2.739,0.516
		c-27.904,14.991-58.175,22.458-89.012,28.224c-33.076,6.184-66.313,5.936-99.297,0.633c-15.276-2.457-30.199-7.918-44.82-13.279
		c-6.24-2.288-11.297-7.8-17.046-11.959c-0.315,0.103-1.093,0.127-1.51,0.525c-26.678,25.563-53.406,51.073-79.931,76.794
		c-8.575,8.315-16.466,17.332-24.959,25.736c-2.895,2.864-3.902,5.832-3.85,9.725c0.149,10.996,0.235,22,0.013,32.995
		c-0.561,27.597-0.848,55.212-2.09,82.78c-1.643,36.468-5.934,72.692-10.851,108.874c-2.723,20.037-3.094,40.384-5.071,60.536
		c-2.428,24.759-5.303,49.477-8.214,74.185c-3.104,26.362-6.814,52.657-9.64,79.049c-2.859,26.705-5.053,53.484-7.361,80.246
		c-1.481,17.187-2.391,34.425-4.009,51.598c-2.583,27.428-5.83,54.796-8.248,82.237c-1.923,21.814-3.112,43.695-4.469,65.557
		c-2.08,33.471-3.762,66.967-6.102,100.418c-2.198,31.445-5.175,62.835-7.521,94.271c-1.137,15.234-1.102,30.565-2.501,45.771
		c-2.191,23.769-4.284,47.604-8.001,71.16c-4.8,30.403-3.939,60.203,4.81,89.714c6.327,21.344,12.861,42.624,19.189,63.967
		c6.723,22.677,20.282,40.791,37.132,56.883c15.891,15.175,35.122,24.893,54.528,34.438c5.361,2.638,10.362,6.005,15.709,8.678
		c7.404,3.703,15.168,6.717,22.427,10.672c7.235,3.943,14.893,7.761,20.84,13.276c10.463,9.704,19.782,20.643,29.535,31.105
		c2.04,2.188,3.682,4.777,5.858,6.802c12.663,11.786,17.751,27.439,20.26,43.551c3.64,23.378,3.503,47.114,1.675,70.697
		c-0.792,10.201-2.736,20.446-5.442,30.318c-1.604,5.854-5.344,11.274-8.829,16.41c-2.391,3.521-6.242,6.011-9.017,9.317
		c-10.496,12.508-24.833,17.688-40.123,19.686c-18.093,2.362-36.278,4.159-54.675,3.648c-12.095-0.337-22.764-3.499-33.098-9.493
		c-7.428-4.31-15.541-7.421-23.224-11.314c-5.918-2.997-12.022-5.847-17.38-9.689c-16.753-12.02-33.14-24.549-49.782-36.727
		c-5.349-3.913-11.124-7.241-16.58-11.017c-24.604-17.031-49.479-33.699-73.606-51.384c-11.734-8.603-21.927-19.287-33.058-28.746
		c-5.02-4.267-10.225-8.633-16.04-11.587c-22.439-11.396-42.612-25.761-60.775-43.186c-8.86-8.499-18.82-15.844-27.839-24.191
		c-5.093-4.715-9.435-10.282-13.845-15.685c-6.72-8.229-13.666-16.333-19.685-25.064c-9.081-13.177-15.734-27.677-20.646-42.923
		c-4.522-14.036-6.212-28.404-6.365-43.2c-0.141-13.559-2.266-27.087-3.207-40.65c-1.447-20.859-2.102-41.786-4.043-62.596
		c-3.268-35.014-7.21-69.965-11.007-104.927c-2.148-19.778-5.033-39.486-6.767-59.297c-2.632-30.086-4.467-60.24-6.799-90.353
		c-1.639-21.164-3.739-42.294-5.266-63.466c-1.572-21.805-3.367-43.626-3.866-65.469c-0.768-33.566-2.863-67.013-5.919-100.435
		c-1.452-15.875-2.361-31.824-2.825-47.76c-0.764-26.276-1.293-52.568-1.311-78.854c-0.017-23.618,1.372-47.245,1.036-70.854
		c-0.245-17.177-2.714-34.31-3.444-51.495c-1.795-42.249-10.366-83.508-17.353-125.025c-7.568-44.977-18.158-89.191-32.921-132.309
		c-9.288-27.127-16.111-54.785-21.437-82.872c-5.947-31.37-13.896-62.179-25.217-92.067c-1.412-3.728-4.191-7.223-4.564-11.002
		c-1.013-10.263-7.51-12.083-16.186-13.687c-36.616-6.768-73.436-12.72-109.175-23.566c-42.923-13.025-85.47-27.086-126.224-46.066
		c-3.886-1.811-7.912-3.319-12.212-5.107c-9.101,7.896-18.219,15.598-27.031,23.636c-1.722,1.569-3.066,4.398-3.208,6.73
		c-2.174,35.918-11.161,70.848-15.308,106.464c-2.111,18.135-4.272,36.297-5.338,54.51c-1.828,31.187-2.912,62.419-4.119,93.64
		c-0.836,21.6-2.136,43.225-1.806,64.816c0.366,23.888,2.291,47.755,3.659,71.624c0.798,13.919,1.497,27.856,2.83,41.729
		c3.207,33.361,6.283,66.747,10.333,100.01c3.005,24.679,6.766,49.313,11.393,73.738c12.992,68.583,29.208,136.344,51.532,202.615
		c11.133,33.051,19.383,67.072,30.535,100.115c10.095,29.912,22.491,59.043,33.63,88.608c9.497,25.205,18.922,50.441,27.882,75.841
		c9.745,27.623,20.879,54.605,33.741,80.938c9.921,20.312,19.17,40.968,28.14,61.722c2.434,5.633,3.529,12.127,3.903,18.308
		c0.624,10.293,0.09,20.654,0.213,30.984c0.046,3.816-0.653,6.929-3.533,9.882c-13.938,14.298-27.634,28.831-41.412,43.285
		c-6.315,6.625-13.998,10.891-22.521,14.191c-46.801,18.122-93.373,36.837-140.282,54.671
		c-57.171,21.734-114.588,42.828-171.931,64.112c-8.092,3.003-16.474,5.232-24.53,8.319c-8.981,3.44-17.952,7.034-26.56,11.3
		c-18.129,8.984-36.453,17.363-56.013,22.827c-3.801,1.063-7.489,2.813-10.948,4.746c-7.171,4.013-14.874,5.22-22.931,5.771
		c-5.21,0.356-10.72,1.025-15.436,3.073c-16.81,7.305-34.092,10.663-52.472,9.808c-14.965-0.696-29.993-0.332-44.987-0.088
		c-15.411,0.25-28.834-3.933-39.079-16.045c-9.233-10.913-18.619-21.706-27.551-32.86c-2.413-3.014-3.822-7.023-5.015-10.788
		c-6.744-21.282-6.795-43.241-5.87-65.214c0.161-3.828,1.753-7.783,3.431-11.326c6.293-13.283,14.258-25.414,24.389-36.229
		c26.228-27.998,56.566-50.573,90.615-67.917c30.211-15.391,60.868-29.938,91.653-44.155c15.35-7.088,31.018-14.119,47.263-18.497
		c27.996-7.545,56.619-6.467,85.061-1.194c6.183,1.146,12.345,2.847,18.575,3.164c5.897,0.301,11.869-0.879,18.754-1.492
		c-0.971-2.446-1.387-4.691-2.597-6.363c-21.987-30.379-37.601-64.18-52.909-98.154c-1.914-4.247-4.31-8.284-6.132-12.566
		c-1.451-3.412-3.597-5.565-7.358-5.67c-5.196-0.146-7.962-4.104-11.678-6.814c-12.622-9.207-16.644-21.755-15.279-36.616
		c0.852-9.273-2.076-17.34-5.905-25.743c-12.267-26.919-23.513-54.302-35.419-81.389c-14.585-33.177-29.583-66.171-44.133-99.362
		c-12.328-28.124-20.156-57.707-27.426-87.435c-12.001-49.069-25.78-97.609-42.44-145.322
		c-12.849-36.797-20.958-74.849-29.206-112.848c-6.766-31.172-13.378-62.378-20.237-93.529c-0.525-2.387-2.063-4.871-3.822-6.609
		c-7.338-7.243-14.994-14.16-22.431-21.305c-8.646-8.305-17.403-16.51-25.7-25.153c-7.024-7.317-6.876-17.212-7.091-26.348
		C1021.9,2504.947,1020.74,2483.883,1028.369,2463.297z"/>
</g>
</svg>
