<?xml version="1.0" encoding="utf-8"?>
<!-- Generator: Adobe Illustrator 16.0.2, SVG Export Plug-In . SVG Version: 6.00 Build 0)  -->
<!DOCTYPE svg PUBLIC "-//W3C//DTD SVG 1.1 Tiny//EN" "http://www.w3.org/Graphics/SVG/1.1/DTD/svg11-tiny.dtd">
<svg version="1.1" baseProfile="tiny" id="Layer_1" xmlns="http://www.w3.org/2000/svg" xmlns:xlink="http://www.w3.org/1999/xlink"
	 x="0px" y="0px" width="3181.602px" height="3847.519px" viewBox="0 0 3181.602 3847.519" xml:space="preserve">
<g>
	<path fill-rule="evenodd" fill="#FFFFFF" d="M2,3851.518C2,2568.346,2,1285.172,2,2c1061.2,0,2122.401,0,3183.602,0
		c0,1283.172,0,2566.346,0,3849.518C2124.401,3851.518,1063.2,3851.518,2,3851.518z M1380.848,3257.648
		c-20.075,0-38.303-0.236-56.522,0.054c-29.277,0.467-58.58,0.69-87.816,2.123c-26.59,1.304-52.878,4.874-77.785,15.536
		c-14.983,6.413-30.406,11.866-43.251,22.26c-9.303,7.527-18.543,15.18-27.28,23.347c-15.054,14.073-30.444,27.91-40.954,46.069
		c-12.094,20.898-21.375,42.794-23.859,67.081c-1.187,11.604-3.461,22.89-7.584,33.86c-1.487,3.958-2.019,8.44-2.148,12.71
		c-0.302,9.989-0.438,20.01,0.066,29.983c0.207,4.096,1.185,8.939,3.626,11.989c7.881,9.844,16.396,19.212,25.089,28.363
		c4.86,5.116,10.731,8.739,18.421,8.64c16.328-0.211,32.661,0.016,48.99-0.117c4.969-0.041,10.368-2.122,14.826-0.785
		c19.952,5.985,40.3,3.684,60.496,3.766c6.454,0.025,13.121-1.791,19.333-3.846c9.41-3.114,18.481-7.241,27.749-10.805
		c4.93-1.896,10.007-3.41,14.952-5.271c11.76-4.426,23.352-9.341,35.249-13.352c17.333-5.846,35.282-10.045,52.245-16.77
		c37.696-14.945,74.8-31.38,112.436-46.483c17.561-7.048,35.947-12.012,53.692-18.634c28.005-10.451,55.875-21.278,83.632-32.372
		c22.498-8.992,44.752-18.599,67.098-27.973c1.523-0.64,2.907-1.61,4.354-2.429c11.82-6.678,23.609-13.414,35.472-20.016
		c10.326-5.747,19.056-13.451,26.623-22.355c12.479-14.686,10.537-32.156,8.288-49.357c-1.583-12.1-8.151-22.17-14.046-32.683
		c-15.617-27.849-30.429-56.146-41.9-86.069c-7.022-18.317-15.055-36.246-22.103-54.554
		c-15.886-41.267-31.998-82.459-46.961-124.062c-12.597-35.027-23.197-70.771-35.594-105.873
		c-16.501-46.72-33.08-93.416-44.968-141.552c-9.718-39.352-18.101-79.031-27.286-118.518
		c-10.94-47.029-16.82-94.749-19.146-142.892c-1.348-27.899-2.164-55.863-1.98-83.789c0.319-48.588-2.607-97.17,0.927-145.784
		c1.908-26.233,5.752-52.102,9.814-78c5.501-35.08,10.967-70.165,16.505-105.239c1.443-9.147,2.867-18.309,4.728-27.374
		c1.161-5.651,2.837-6.503,8.352-4.896c7.017,2.047,13.951,4.385,20.887,6.692c24.598,8.185,49.079,16.735,73.799,24.525
		c22.82,7.19,45.748,14.133,68.889,20.193c32.145,8.419,64.421,16.581,97.604,19.838c8.146,0.8,12.026,3.924,14.471,11.844
		c9.991,32.382,20.497,64.612,31.239,96.757c8.429,25.222,18.679,49.89,26.021,75.408c18.56,64.497,30.582,130.394,38.459,197.011
		c2.683,22.682,4.095,45.516,6.047,68.284c1.271,14.83,2.633,29.656,3.633,44.505c0.514,7.632,0.198,15.316,0.473,22.97
		c1.047,29.175,2.472,58.339,3.197,87.521c0.638,25.639,0.69,51.297,0.703,76.947c0.011,23.578,1.216,47.047,3.088,70.571
		c1.977,24.828,2.005,49.838,2.18,74.774c0.167,23.94,3.709,47.493,7.019,71.068c2.711,19.309,6.459,38.468,9.515,57.731
		c1.654,10.435,3.953,20.944,3.978,31.426c0.059,24.604-0.972,49.214-1.759,73.814c-0.67,20.927-2.129,41.839-2.318,62.766
		c-0.285,31.641-1.539,63.427,0.906,94.896c2.385,30.684,8.396,61.136,13.795,91.515c3.008,16.924,10.47,31.966,23.807,43.839
		c5.216,4.644,10.947,7.988,16.646,11.735c6.86,4.511,12.64,10.705,18.726,16.345c23.206,21.507,47.907,41.19,73.373,59.912
		c23.59,17.342,47.702,33.983,71.064,51.621c45.11,34.057,88.131,70.884,135.654,101.743c22.083,14.34,44.151,28.06,70.267,34.732
		c26.791,6.846,53.663,6.719,80.201,2.33c13.979-2.313,27.656-6.544,42.057-6.688c5.64-0.057,11.271-0.854,16.912-0.927
		c9.258-0.118,16.684-3.695,22.642-10.74c8.149-9.635,16.172-19.398,24.734-28.659c13.864-14.994,22.531-31.898,21.492-52.865
		c-0.116-2.328-0.169-4.678,0.007-6.996c2.432-32.118-11.748-58.862-30.9-82.009c-19.227-23.235-41.627-44.136-70.66-55.787
		c-4.623-1.854-8.953-4.449-13.602-6.22c-23.063-8.787-46.438-16.658-71.507-16.249c-12.175,0.199-23.723-1.195-35-6.011
		c-7.925-3.385-16.379-5.51-24.4-8.691c-3.58-1.419-6.82-3.861-9.958-6.186c-3.463-2.565-6.588-5.581-9.938-8.304
		c-5.429-4.414-10.479-8.907-12.783-16.018c-2.339-7.221-5.665-14.117-8.435-21.204c-10.023-25.647-17.371-52.126-24.056-78.789
		c-0.937-3.733-1.16-7.937-0.517-11.72c2.318-13.629,5.662-27.096,7.672-40.764c3.578-24.343,7.509-48.513,15.413-71.972
		c3.688-10.942,6.033-22.447,7.888-33.877c7.812-48.159,14.92-96.434,22.854-144.571c5.674-34.428,11.514-68.719,12.214-103.796
		c0.523-26.181,3.387-52.312,5.118-78.472c0.438-6.634,0.236-13.318,0.842-19.932c1.782-19.481,3.82-38.938,5.764-58.404
		c0.823-8.253,1.373-16.546,2.546-24.75c3.057-21.394,5.634-42.806,5.475-64.474c-0.113-15.33-0.85-30.718,0.186-45.979
		c1.936-28.529,3.45-57.04,3.141-85.642c-0.126-11.662-0.114-23.329,0.005-34.992c0.133-12.981,0.233-25.971,0.751-38.939
		c0.913-22.892,2.578-45.76,3.101-68.656c0.549-23.982,0.046-47.989,0.157-71.984c0.052-11.315-0.06-22.669,0.816-33.935
		c2.275-29.27,1.705-58.45-1.83-87.562c-0.81-6.664-0.128-12.188,4.781-17.356c22.9-24.11,45.338-48.665,68.438-72.58
		c6.333-6.558,14.387-11.455,21.712-17.161c8.612,7.621,16.867,13.653,27.173,16.241c5.481,1.376,10.868,3.131,16.272,4.794
		c12.488,3.846,25.149,6.081,38.322,5.795c16.656-0.359,33.338,0.307,49.985-0.221c11.596-0.368,23.242-1.407,34.707-3.181
		c31.256-4.834,59.401-18.46,87.695-31.827c3.36,2.28,6.847,4.787,10.47,7.078c12.624,7.984,25.357,15.799,37.926,23.869
		c7.485,4.807,15.461,7.333,24.408,7.384c16.311,0.092,32.621,0.436,48.926,0.893c2.844,0.08,6.052,0.57,8.424,1.987
		c13.79,8.237,25.28,19.4,36.921,30.274c11.175,10.439,21.712,21.557,32.706,32.194c8.425,8.15,17.931,13.653,30.427,11.544
		c3.563-0.601,7.319-0.001,10.981-0.116c4.303-0.136,9.155,0.762,12.797-0.908c12.342-5.664,25.198-10.951,36.117-18.803
		c17.76-12.77,34.346-27.215,51.048-41.397c13.435-11.406,26.885-22.902,39.281-35.396c14.742-14.857,28.544-30.669,42.326-46.439
		c2.867-3.281,5.105-8.078,5.512-12.377c1.87-19.784,4.764-39.741-3.704-58.949c-1.05-2.382-1.606-5.147-1.686-7.758
		c-0.234-7.708-3.808-14.137-7.88-20.158c-13.302-19.67-29.404-36.84-46.618-53.209c-14.183-13.487-26.876-28.541-40.231-42.897
		c-2.899-3.117-2.643-6.227-0.933-10.029c2.581-5.738,4.761-11.714,6.507-17.763c4.051-14.033,7.502-28.241,11.631-42.249
		c6.319-21.438,10.509-43.351,12.181-65.516c1.801-23.854,1.879-47.856,2.159-71.799c0.16-13.606-1.032-27.222-1.171-40.839
		c-0.301-29.617-3.179-58.997-7.914-88.19c-3.241-19.992-7.175-39.87-10.582-59.836c-4.763-27.898-10.865-55.471-22.257-81.481
		c-11.331-25.868-21.449-52.234-35.388-77.016c-13.502-24.006-22.396-50.304-36.13-74.427
		c-19.179-33.683-39.359-65.972-67.524-93.353c-32.464-31.559-70.823-52.425-112.071-69.16c-1.232-0.5-2.486-1.023-3.78-1.288
		c-22.063-4.515-44.063-9.401-66.238-13.283c-9.42-1.649-19.396-0.161-28.8-1.864c-25.532-4.625-51.177-7.922-77.031-10.066
		c-33.422-2.772-66.759-6.569-100.188-9.221c-27.817-2.207-55.747-3.012-83.571-5.151c-27.931-2.148-55.825-2.517-83.773-1.032
		c-1.813,0.095-3.647-0.219-6.617-0.42c1.589-2.069,2.275-3.104,3.099-4.014c14.271-15.786,28.178-31.826,40.302-49.408
		c16.191-23.481,16.432-23.315,15.83-51.314c-0.007-0.333-0.029-0.669,0.001-0.999c0.425-4.656-1.537-8.342-4.553-11.695
		c-8.565-9.528-18.222-17.513-30.411-22.045c-8.407-3.126-16.761-6.399-25.182-9.487c-11.837-4.341-23.55-9.124-35.611-12.737
		c-25.527-7.647-51.43-13.629-78.219-14.878c-2.42-0.113-4.785-1.398-6.53-1.939c2.154-27.231,2.351-53.47-2.414-79.438
		c-4.784-26.081-15.272-49.913-31.451-71.055c1.14-1.091,1.744-1.96,2.575-2.421c18.196-10.092,33.695-23.477,47.882-38.576
		c2.376-2.53,5.878-4.275,9.171-5.627c31.186-12.8,60.824-28.283,88.56-47.639c36.558-25.512,72.971-51.087,105.46-81.849
		c5.909-5.595,12.931-10.829,20.408-13.763c11.003-4.317,22.923-6.256,34.356-9.545c4.414-1.271,8.725-3.156,12.806-5.289
		c13.858-7.238,23.982-18.787,34-30.348c7.425-8.568,10.129-19.282,10.925-30.096c0.902-12.265,0.261-24.647,0.166-36.978
		c-0.021-2.627-0.302-5.32-0.94-7.863c-3.233-12.859-9.329-23.955-19.718-32.6c-4.591-3.822-8.604-8.354-12.77-12.668
		c-9.585-9.924-21.633-15.333-34.863-17.565c-10.079-1.701-20.446-1.65-30.672-2.533c-3.933-0.339-8.033-0.51-11.71-1.772
		c-18.222-6.257-36.445-12.544-54.449-19.395c-35.196-13.393-71.386-23.403-107.969-32.004
		c-29.785-7.003-59.745-13.266-89.636-19.821c-29.188-6.402-57.784-15.639-87.772-18.312c-2.233-0.199-4.621-2.314-6.327-4.117
		c-6.615-6.983-12.739-14.442-19.502-21.274c-10.068-10.174-20.13-20.42-30.928-29.791c-10.617-9.215-22.801-16.479-37.26-17.185
		c-6.732-0.329-11.864-2.534-17.324-5.992c-14.02-8.883-27.942-18.519-45.086-20.215c-30.075-2.977-59.862-2.715-88.095,10.414
		c-4.222,1.964-8.496,3.958-12.95,5.226c-2.59,0.736-5.97,0.921-8.331-0.133c-13.046-5.831-25.747-12.442-38.838-18.166
		c-16.427-7.183-33.09-13.828-49.703-20.576c-6.154-2.499-12.831-3.938-18.627-7.054c-26.164-14.061-54.017-19.134-83.575-19.218
		c-22.592-0.064-41.775,7.119-58.785,20.901c-28.616,23.188-52.754,50.641-74.102,80.543
		c-14.097,19.745-28.065,39.605-41.349,59.899c-4.269,6.521-8.954,8.076-16.25,8.29c-29.231,0.858-58.478,1.968-87.647,4.007
		c-21.862,1.528-43.62,4.567-65.413,7.033c-18.809,2.129-37.702,3.768-56.379,6.745c-34.146,5.441-68.075,12.271-102.256,17.458
		c-27.25,4.135-54.729,6.78-82.125,9.925c-37.41,4.294-74.035,11.887-109.693,24.265c-15.318,5.318-29.353,11.895-40.546,24.149
		c-4.55,4.981-7.489,9.969-7.597,16.572c-0.214,12.985-0.668,25.985-0.258,38.954c0.115,3.649,2.196,7.774,4.573,10.709
		c6.802,8.398,11.386,17.824,15.708,27.637c2.884,6.549,7.472,12.454,11.88,18.199c5.864,7.641,12.137,14.985,18.523,22.2
		c7.474,8.444,15.23,16.638,22.924,24.884c2.487,2.667,6.365,4.709,7.516,7.813c2.816,7.594,8.398,12.702,13.854,17.977
		c8.146,7.878,16.237,15.695,19.226,27.198c0.239,0.92,0.93,1.75,1.506,2.553c12.564,17.5,27.252,32.722,46.729,42.581
		c10.632,5.382,21.532,10.233,32.232,15.485c9.506,4.667,19.679,8.489,28.137,14.638c8.975,6.523,18.219,11.938,28.509,15.766
		c28.739,10.689,59.111,14.727,88.741,21.791c13.704,3.267,27.327,6.874,42.594,10.734c-3.531,3.853-5.521,6.449-7.927,8.58
		c-11.757,10.416-19.953,23.258-24.997,37.948c-5.606,16.333-10.642,32.869-15.566,49.423c-1.98,6.658-3.9,13.545-4.312,20.42
		c-2.314,38.588,5.718,75.011,26.852,107.502c7.659,11.777,12.509,23.558,14.693,37.232c3.75,23.47,14.2,44.893,22.088,67.09
		c4.638,13.054,9.44,26.049,14.195,39.146c-3.966,2.313-7.834,3.833-10.729,6.435c-4.042,3.633-7.85,3.545-12.819,2.308
		c-12.559-3.13-25.233-5.934-37.996-8.063c-9.142-1.523-18.591-1.177-27.747-2.647c-31.307-5.025-62.793-6.719-94.444-6.07
		c-13.301,0.272-26.624,1.268-39.895,0.785c-20.907-0.76-41.764-3.173-62.669-3.632c-24.569-0.538-49.282-1.122-73.719,0.89
		c-22.448,1.85-44.66,6.875-66.897,10.938c-37.938,6.931-75.874,13.907-113.696,21.438c-24.418,4.861-48.787,10.146-72.892,16.351
		c-19.939,5.133-39.353,12.272-59.192,17.828c-21.751,6.09-41.905,15.041-59.194,29.802c-12.385,10.576-25.165,20.751-36.919,31.993
		c-28.851,27.592-57.899,55.035-85.566,83.79c-25.688,26.7-46.361,57.504-65.2,89.334c-8.956,15.133-16.015,31.393-23.846,47.185
		c-18.05,36.403-33.605,73.836-46.182,112.488c-18.562,57.043-29.396,115.879-39.933,174.741
		c-4.146,23.157-6.894,46.594-9.479,69.992c-2.039,18.452-3.647,37.025-4.004,55.57c-0.429,22.269,0.735,44.565,1.095,66.85
		c0.404,24.964,3.241,49.689,7.386,74.263c0.721,4.275-0.397,6.621-3.514,9.372c-8.478,7.483-16.715,15.263-24.735,23.238
		c-16.328,16.239-27.313,34.998-27.229,58.936c0.014,3.906-1.71,7.794-1.951,11.731c-1.27,20.768-4.225,41.57,3.56,61.932
		c5.508,14.407,15.516,25.791,24.055,38.172c2.438,3.535,5.807,6.412,8.441,9.828c16.631,21.573,35.793,40.189,60.522,52.408
		c1.78,0.88,3.521,1.961,5.03,3.243c14.339,12.171,32.192,16.512,49.357,22.5c14.907,5.2,30.254,4.002,45.494,3.77
		c20.502-0.313,38.539-8.463,53.364-21.826c11.427-10.299,23.19-19.87,35.809-28.574c22.738-15.685,48.482-23.835,75.315-26.878
		c12.822-1.454,24.873-3.497,36.37-8.883c4-1.875,7.345-1.744,11.387-0.257c9.345,3.438,18.875,6.379,28.356,9.442
		c22.862,7.391,46.073,13.319,70.206,14.153c41.713,1.439,83.095-2.169,124.075-9.888c8.058-1.518,16.108-4.276,23.506-7.829
		c11.537-5.542,22.512-12.254,35.053-19.207c1.797,2.243,3.745,4.977,5.992,7.435c18.392,20.128,36.729,40.306,55.295,60.272
		c29.002,31.189,58.124,62.269,87.338,93.26c3.2,3.394,4.422,6.546,4.333,11.392c-0.452,24.299-0.312,48.61-0.272,72.917
		c0.017,10.213,4.319,18.5,11.614,25.553c8.365,8.089,16.559,16.051,26.864,22.068c10.181,5.945,16.688,14.452,16.045,28.413
		c-0.697,15.098,1.49,30.496,3.855,45.538c10.898,69.293,25.923,137.725,45.269,205.147
		c14.959,52.138,33.739,102.985,54.725,152.974c13.9,33.111,28.31,66.033,43.479,98.579c13.057,28.015,25.936,56.32,41.756,82.784
		c18.787,31.428,36.495,63.375,54.051,95.471c14.514,26.533,30.008,52.541,45.531,78.506
		C1366.736,3239.244,1373.516,3247.43,1380.848,3257.648z"/>
	<path fill-rule="evenodd" d="M1380.848,3257.648c-7.332-10.219-14.111-18.404-19.502-27.42
		c-15.523-25.965-31.018-51.973-45.531-78.506c-17.556-32.096-35.264-64.043-54.051-95.471
		c-15.82-26.464-28.699-54.77-41.756-82.784c-15.169-32.546-29.579-65.468-43.479-98.579
		c-20.985-49.988-39.765-100.836-54.725-152.974c-19.345-67.423-34.371-135.854-45.269-205.147
		c-2.365-15.042-4.552-30.44-3.855-45.538c0.644-13.961-5.864-22.468-16.045-28.413c-10.305-6.018-18.499-13.979-26.864-22.068
		c-7.295-7.053-11.597-15.34-11.614-25.553c-0.039-24.307-0.18-48.618,0.272-72.917c0.09-4.846-1.133-7.998-4.333-11.392
		c-29.214-30.991-58.335-62.07-87.338-93.26c-18.566-19.967-36.903-40.145-55.295-60.272c-2.247-2.458-4.195-5.191-5.992-7.435
		c-12.542,6.953-23.517,13.665-35.053,19.207c-7.397,3.553-15.448,6.312-23.506,7.829c-40.98,7.719-82.362,11.327-124.075,9.888
		c-24.133-0.834-47.344-6.763-70.206-14.153c-9.48-3.063-19.011-6.004-28.356-9.442c-4.042-1.487-7.387-1.618-11.387,0.257
		c-11.497,5.386-23.548,7.429-36.37,8.883c-26.833,3.043-52.577,11.193-75.315,26.878c-12.619,8.704-24.382,18.275-35.809,28.574
		c-14.825,13.363-32.862,21.514-53.364,21.826c-15.24,0.232-30.586,1.431-45.494-3.77c-17.166-5.988-35.019-10.329-49.357-22.5
		c-1.51-1.282-3.25-2.363-5.03-3.243c-24.729-12.219-43.891-30.835-60.522-52.408c-2.634-3.416-6.004-6.293-8.441-9.828
		c-8.539-12.381-18.547-23.765-24.055-38.172c-7.785-20.361-4.83-41.164-3.56-61.932c0.241-3.938,1.964-7.825,1.951-11.731
		c-0.083-23.938,10.901-42.696,27.229-58.936c8.021-7.976,16.258-15.755,24.735-23.238c3.116-2.751,4.234-5.097,3.514-9.372
		c-4.145-24.573-6.982-49.299-7.386-74.263c-0.36-22.285-1.524-44.582-1.095-66.85c0.357-18.545,1.965-37.118,4.004-55.57
		c2.584-23.398,5.333-46.835,9.479-69.992c10.538-58.862,21.371-117.698,39.933-174.741c12.577-38.651,28.131-76.085,46.182-112.488
		c7.831-15.792,14.89-32.052,23.846-47.185c18.838-31.83,39.512-62.635,65.2-89.334c27.667-28.755,56.716-56.198,85.566-83.79
		c11.754-11.242,24.534-21.417,36.919-31.993c17.289-14.762,37.442-23.712,59.194-29.802c19.84-5.556,39.253-12.695,59.192-17.828
		c24.104-6.204,48.474-11.49,72.892-16.351c37.822-7.53,75.758-14.507,113.696-21.438c22.237-4.063,44.449-9.089,66.897-10.938
		c24.438-2.011,49.15-1.427,73.719-0.89c20.905,0.459,41.762,2.872,62.669,3.632c13.271,0.482,26.594-0.513,39.895-0.785
		c31.651-0.648,63.138,1.045,94.444,6.07c9.155,1.471,18.605,1.124,27.747,2.647c12.763,2.128,25.437,4.933,37.996,8.063
		c4.969,1.238,8.777,1.326,12.819-2.308c2.895-2.602,6.763-4.122,10.729-6.435c-4.755-13.096-9.558-26.092-14.195-39.146
		c-7.889-22.197-18.339-43.621-22.088-67.09c-2.184-13.674-7.034-25.455-14.693-37.232c-21.134-32.491-29.166-68.914-26.852-107.502
		c0.412-6.875,2.332-13.763,4.312-20.42c4.924-16.554,9.96-33.09,15.566-49.423c5.043-14.69,13.239-27.533,24.997-37.948
		c2.405-2.131,4.396-4.727,7.927-8.58c-15.268-3.86-28.891-7.467-42.594-10.734c-29.63-7.064-60.002-11.101-88.741-21.791
		c-10.291-3.828-19.535-9.242-28.509-15.766c-8.458-6.148-18.63-9.971-28.137-14.638c-10.7-5.252-21.6-10.103-32.232-15.485
		c-19.476-9.858-34.165-25.081-46.729-42.581c-0.576-0.804-1.267-1.633-1.506-2.553c-2.989-11.503-11.08-19.32-19.226-27.198
		c-5.456-5.275-11.039-10.383-13.854-17.977c-1.15-3.103-5.029-5.146-7.516-7.813c-7.693-8.246-15.45-16.44-22.924-24.884
		c-6.386-7.215-12.66-14.559-18.523-22.2c-4.409-5.745-8.997-11.65-11.88-18.199c-4.322-9.813-8.906-19.239-15.708-27.637
		c-2.377-2.935-4.458-7.061-4.573-10.709c-0.41-12.969,0.044-25.969,0.258-38.954c0.108-6.604,3.046-11.591,7.597-16.572
		c11.194-12.254,25.228-18.832,40.546-24.149c35.659-12.377,72.283-19.97,109.693-24.265c27.396-3.145,54.876-5.79,82.125-9.925
		c34.181-5.188,68.109-12.017,102.256-17.458c18.677-2.977,37.57-4.615,56.379-6.745c21.793-2.466,43.551-5.505,65.413-7.033
		c29.169-2.04,58.416-3.149,87.647-4.007c7.296-0.214,11.981-1.769,16.25-8.29c13.284-20.294,27.252-40.154,41.349-59.899
		c21.348-29.902,45.486-57.354,74.102-80.543c17.01-13.782,36.193-20.966,58.785-20.901c29.559,0.084,57.411,5.157,83.575,19.218
		c5.796,3.115,12.473,4.555,18.627,7.054c16.613,6.749,33.276,13.394,49.703,20.576c13.091,5.724,25.792,12.335,38.838,18.166
		c2.361,1.054,5.741,0.869,8.331,0.133c4.454-1.268,8.729-3.262,12.95-5.226c28.232-13.129,58.02-13.391,88.095-10.414
		c17.144,1.697,31.066,11.333,45.086,20.215c5.46,3.458,10.592,5.663,17.324,5.992c14.459,0.706,26.643,7.97,37.26,17.185
		c10.798,9.371,20.859,19.617,30.928,29.791c6.763,6.832,12.887,14.291,19.502,21.274c1.706,1.803,4.094,3.918,6.327,4.117
		c29.988,2.673,58.584,11.91,87.772,18.312c29.891,6.555,59.851,12.818,89.636,19.821c36.583,8.601,72.772,18.611,107.969,32.004
		c18.004,6.851,36.228,13.138,54.449,19.395c3.677,1.263,7.777,1.434,11.71,1.772c10.226,0.883,20.593,0.832,30.672,2.533
		c13.23,2.232,25.278,7.641,34.863,17.565c4.165,4.315,8.179,8.847,12.77,12.668c10.389,8.646,16.484,19.741,19.718,32.6
		c0.639,2.543,0.92,5.236,0.94,7.863c0.095,12.331,0.736,24.713-0.166,36.978c-0.796,10.814-3.5,21.527-10.925,30.096
		c-10.018,11.561-20.142,23.109-34,30.348c-4.081,2.133-8.392,4.018-12.806,5.289c-11.434,3.29-23.354,5.228-34.356,9.545
		c-7.478,2.935-14.499,8.168-20.408,13.763c-32.489,30.762-68.902,56.337-105.46,81.849c-27.735,19.356-57.374,34.838-88.56,47.639
		c-3.293,1.352-6.795,3.097-9.171,5.627c-14.187,15.1-29.686,28.484-47.882,38.576c-0.831,0.461-1.436,1.33-2.575,2.421
		c16.179,21.142,26.667,44.974,31.451,71.055c4.765,25.968,4.568,52.207,2.414,79.438c1.745,0.541,4.11,1.826,6.53,1.939
		c26.789,1.249,52.691,7.23,78.219,14.878c12.062,3.613,23.774,8.396,35.611,12.737c8.421,3.087,16.774,6.36,25.182,9.487
		c12.189,4.533,21.846,12.517,30.411,22.045c3.016,3.353,4.978,7.039,4.553,11.695c-0.03,0.33-0.008,0.666-0.001,0.999
		c0.602,27.999,0.361,27.833-15.83,51.314c-12.124,17.582-26.031,33.622-40.302,49.408c-0.823,0.91-1.51,1.944-3.099,4.014
		c2.97,0.201,4.805,0.515,6.617,0.42c27.948-1.485,55.843-1.116,83.773,1.032c27.824,2.139,55.754,2.944,83.571,5.151
		c33.43,2.652,66.767,6.448,100.188,9.221c25.854,2.144,51.499,5.44,77.031,10.066c9.403,1.703,19.38,0.215,28.8,1.864
		c22.176,3.882,44.175,8.768,66.238,13.283c1.294,0.265,2.548,0.788,3.78,1.288c41.248,16.735,79.607,37.602,112.071,69.16
		c28.165,27.38,48.346,59.669,67.524,93.353c13.734,24.123,22.628,50.421,36.13,74.427c13.938,24.781,24.057,51.148,35.388,77.016
		c11.392,26.01,17.494,53.583,22.257,81.481c3.407,19.966,7.341,39.845,10.582,59.836c4.735,29.193,7.613,58.573,7.914,88.19
		c0.139,13.617,1.331,27.233,1.171,40.839c-0.28,23.943-0.358,47.945-2.159,71.799c-1.672,22.165-5.861,44.078-12.181,65.516
		c-4.129,14.008-7.58,28.216-11.631,42.249c-1.746,6.049-3.926,12.025-6.507,17.763c-1.71,3.802-1.967,6.912,0.933,10.029
		c13.355,14.356,26.049,29.41,40.231,42.897c17.214,16.37,33.316,33.54,46.618,53.209c4.072,6.021,7.646,12.45,7.88,20.158
		c0.079,2.61,0.636,5.376,1.686,7.758c8.468,19.208,5.574,39.165,3.704,58.949c-0.406,4.299-2.645,9.096-5.512,12.377
		c-13.782,15.771-27.584,31.582-42.326,46.439c-12.396,12.493-25.847,23.989-39.281,35.396
		c-16.702,14.183-33.288,28.628-51.048,41.397c-10.919,7.852-23.775,13.139-36.117,18.803c-3.642,1.67-8.494,0.772-12.797,0.908
		c-3.662,0.115-7.418-0.484-10.981,0.116c-12.496,2.109-22.002-3.394-30.427-11.544c-10.994-10.638-21.531-21.755-32.706-32.194
		c-11.641-10.874-23.131-22.037-36.921-30.274c-2.372-1.417-5.58-1.907-8.424-1.987c-16.305-0.457-32.615-0.801-48.926-0.893
		c-8.947-0.051-16.923-2.577-24.408-7.384c-12.568-8.07-25.302-15.885-37.926-23.869c-3.623-2.291-7.109-4.798-10.47-7.078
		c-28.294,13.367-56.439,26.993-87.695,31.827c-11.465,1.773-23.111,2.813-34.707,3.181c-16.647,0.527-33.329-0.139-49.985,0.221
		c-13.173,0.286-25.834-1.949-38.322-5.795c-5.404-1.663-10.791-3.418-16.272-4.794c-10.306-2.588-18.561-8.62-27.173-16.241
		c-7.325,5.706-15.379,10.604-21.712,17.161c-23.1,23.915-45.537,48.47-68.438,72.58c-4.909,5.169-5.591,10.692-4.781,17.356
		c3.535,29.111,4.105,58.292,1.83,87.562c-0.876,11.266-0.765,22.619-0.816,33.935c-0.111,23.995,0.392,48.002-0.157,71.984
		c-0.522,22.896-2.188,45.765-3.101,68.656c-0.518,12.969-0.618,25.958-0.751,38.939c-0.119,11.663-0.131,23.33-0.005,34.992
		c0.31,28.602-1.205,57.112-3.141,85.642c-1.035,15.262-0.299,30.649-0.186,45.979c0.159,21.668-2.418,43.08-5.475,64.474
		c-1.173,8.204-1.723,16.497-2.546,24.75c-1.943,19.466-3.981,38.923-5.764,58.404c-0.605,6.613-0.403,13.298-0.842,19.932
		c-1.731,26.16-4.595,52.291-5.118,78.472c-0.7,35.077-6.54,69.368-12.214,103.796c-7.935,48.138-15.043,96.412-22.854,144.571
		c-1.854,11.43-4.2,22.935-7.888,33.877c-7.904,23.459-11.835,47.629-15.413,71.972c-2.01,13.668-5.354,27.135-7.672,40.764
		c-0.644,3.783-0.42,7.986,0.517,11.72c6.685,26.663,14.032,53.142,24.056,78.789c2.77,7.087,6.096,13.983,8.435,21.204
		c2.304,7.11,7.354,11.604,12.783,16.018c3.351,2.723,6.476,5.738,9.938,8.304c3.138,2.324,6.378,4.767,9.958,6.186
		c8.021,3.182,16.476,5.307,24.4,8.691c11.277,4.815,22.825,6.21,35,6.011c25.068-0.409,48.443,7.462,71.507,16.249
		c4.648,1.771,8.979,4.366,13.602,6.22c29.033,11.651,51.434,32.552,70.66,55.787c19.152,23.146,33.332,49.891,30.9,82.009
		c-0.176,2.318-0.123,4.668-0.007,6.996c1.039,20.967-7.628,37.871-21.492,52.865c-8.563,9.261-16.585,19.024-24.734,28.659
		c-5.958,7.045-13.384,10.622-22.642,10.74c-5.641,0.072-11.272,0.87-16.912,0.927c-14.4,0.144-28.078,4.375-42.057,6.688
		c-26.538,4.389-53.41,4.516-80.201-2.33c-26.115-6.673-48.184-20.393-70.267-34.732c-47.523-30.859-90.544-67.687-135.654-101.743
		c-23.362-17.638-47.475-34.279-71.064-51.621c-25.466-18.722-50.167-38.405-73.373-59.912c-6.086-5.64-11.865-11.834-18.726-16.345
		c-5.699-3.747-11.431-7.092-16.646-11.735c-13.337-11.873-20.799-26.915-23.807-43.839c-5.399-30.379-11.41-60.831-13.795-91.515
		c-2.445-31.469-1.191-63.255-0.906-94.896c0.189-20.927,1.648-41.839,2.318-62.766c0.787-24.601,1.817-49.21,1.759-73.814
		c-0.024-10.481-2.323-20.991-3.978-31.426c-3.056-19.264-6.804-38.423-9.515-57.731c-3.31-23.575-6.852-47.128-7.019-71.068
		c-0.175-24.937-0.203-49.946-2.18-74.774c-1.872-23.524-3.077-46.993-3.088-70.571c-0.013-25.65-0.065-51.309-0.703-76.947
		c-0.726-29.183-2.15-58.347-3.197-87.521c-0.274-7.653,0.041-15.338-0.473-22.97c-1-14.849-2.361-29.675-3.633-44.505
		c-1.952-22.769-3.364-45.603-6.047-68.284c-7.877-66.617-19.899-132.514-38.459-197.011c-7.343-25.519-17.593-50.187-26.021-75.408
		c-10.742-32.145-21.248-64.375-31.239-96.757c-2.444-7.92-6.325-11.044-14.471-11.844c-33.184-3.257-65.46-11.419-97.604-19.838
		c-23.141-6.061-46.068-13.003-68.889-20.193c-24.721-7.79-49.202-16.341-73.799-24.525c-6.937-2.308-13.871-4.646-20.887-6.692
		c-5.515-1.607-7.19-0.756-8.352,4.896c-1.861,9.065-3.285,18.227-4.728,27.374c-5.538,35.074-11.004,70.159-16.505,105.239
		c-4.062,25.898-7.906,51.767-9.814,78c-3.535,48.614-0.608,97.196-0.927,145.784c-0.184,27.926,0.632,55.89,1.98,83.789
		c2.326,48.143,8.206,95.862,19.146,142.892c9.185,39.486,17.567,79.166,27.286,118.518c11.888,48.136,28.467,94.832,44.968,141.552
		c12.397,35.103,22.997,70.846,35.594,105.873c14.963,41.603,31.075,82.795,46.961,124.062c7.048,18.308,15.08,36.236,22.103,54.554
		c11.472,29.924,26.283,58.221,41.9,86.069c5.895,10.513,12.463,20.583,14.046,32.683c2.249,17.201,4.19,34.672-8.288,49.357
		c-7.567,8.904-16.297,16.608-26.623,22.355c-11.862,6.602-23.651,13.338-35.472,20.016c-1.447,0.818-2.831,1.789-4.354,2.429
		c-22.346,9.374-44.6,18.98-67.098,27.973c-27.757,11.094-55.627,21.921-83.632,32.372c-17.746,6.622-36.131,11.586-53.692,18.634
		c-37.636,15.104-74.74,31.538-112.436,46.483c-16.963,6.725-34.912,10.924-52.245,16.77c-11.897,4.011-23.488,8.926-35.249,13.352
		c-4.945,1.861-10.022,3.375-14.952,5.271c-9.268,3.563-18.338,7.69-27.749,10.805c-6.212,2.055-12.878,3.871-19.333,3.846
		c-20.196-0.082-40.544,2.22-60.496-3.766c-4.458-1.337-9.856,0.744-14.826,0.785c-16.329,0.133-32.662-0.094-48.99,0.117
		c-7.69,0.1-13.562-3.523-18.421-8.64c-8.693-9.151-17.208-18.52-25.089-28.363c-2.442-3.05-3.419-7.894-3.626-11.989
		c-0.504-9.974-0.368-19.994-0.066-29.983c0.13-4.27,0.661-8.752,2.148-12.71c4.123-10.971,6.397-22.257,7.584-33.86
		c2.485-24.287,11.765-46.183,23.859-67.081c10.509-18.159,25.9-31.996,40.954-46.069c8.736-8.167,17.977-15.819,27.28-23.347
		c12.845-10.394,28.268-15.847,43.251-22.26c24.907-10.662,51.195-14.232,77.785-15.536c29.236-1.433,58.539-1.656,87.816-2.123
		C1342.545,3257.412,1360.773,3257.648,1380.848,3257.648z"/>
</g>
</svg>
