<?xml version="1.0" encoding="utf-8"?>
<!-- Generator: Adobe Illustrator 16.0.2, SVG Export Plug-In . SVG Version: 6.00 Build 0)  -->
<!DOCTYPE svg PUBLIC "-//W3C//DTD SVG 1.1 Tiny//EN" "http://www.w3.org/Graphics/SVG/1.1/DTD/svg11-tiny.dtd">
<svg version="1.1" baseProfile="tiny" id="Layer_1" xmlns="http://www.w3.org/2000/svg" xmlns:xlink="http://www.w3.org/1999/xlink"
	 x="0px" y="0px" width="4677.415px" height="2550.681px" viewBox="0 0 4677.415 2550.681" xml:space="preserve">
<g>
	<path fill-rule="evenodd" fill="#FFFFFF" d="M4681.3,2553.566c-1559.841,0-3119.571,0-4679.188,0c0-850.598,0-1701.082,0-2551.454
		c1559.842,0,3119.571,0,4679.188,0C4681.3,852.71,4681.3,1703.194,4681.3,2553.566z M1079.069,1005.644
		c6.907-8.161,13.126-15.449,19.28-22.793c24.561-29.311,49.528-58.296,73.459-88.112c11.091-13.818,18.063-29.533,16.785-48.578
		c-0.738-10.991-2.292-21.192-8.202-30.224c-3.767-5.757-9.143-10.447-13.659-15.733c-2.598-3.04-5.687-4.045-9.653-4.045
		c-11.652,0-23.326-0.007-34.95-0.711c-7.968-0.482-14.186,2.231-19.797,7.481c-19.679,18.41-39.426,36.748-59.138,55.122
		c-2.648,2.468-5.251,4.985-7.104,6.747c-4.637-1.28-8.272-2.983-11.988-3.183c-13.595-0.734-27.228-0.754-40.825-1.473
		c-7.65-0.405-14.251,1.744-20.872,5.369c-21.717,11.887-41.438,26.526-60.181,42.577c-5.251,4.498-10.45,9.055-15.525,13.458
		c-10.24-4.681-19.735-9.021-29.819-13.631c2.456-3.116,3.917-5.36,5.752-7.239c16.256-16.665,32.258-33.596,48.969-49.794
		c18.388-17.825,37.112-35.336,56.297-52.299c25.152-22.239,50.89-43.815,76.39-65.66c6.806-5.831,13.97-11.286,20.38-17.519
		c3.695-3.593,8.382-8.185,8.827-12.699c1.099-11.155,0.025-22.524-0.246-33.806c-0.014-0.561-0.671-1.129-1.082-1.652
		c-9.675-12.291-18.699-25.521-37.781-21.776c-4.173,0.819-8.644,0.226-12.974,0.114c-12.542-0.323-23.405,4.041-33.187,11.601
		c-2.368,1.831-4.854,3.51-7.32,5.21c-40.098,27.656-77.897,58.157-111.841,93.111c-22.468,23.136-43.752,47.42-65.608,71.151
		c-1.74,1.89-3.808,3.479-5.958,5.417c-6.738-5.354-14.097-6.491-21.961-5.897c-3.977,0.3-8.079,0.58-11.979-0.043
		c-14.271-2.276-25.148,3.762-34.727,13.394c-1.176,1.182-2.452,2.274-3.534,3.535c-7.959,9.277-15.881,18.585-24.184,28.317
		c-4.479-0.546-9.694-1.585-14.936-1.733c-10.323-0.29-20.667,0.129-30.99-0.164c-6.314-0.179-12.033,1.214-16.641,5.379
		c-10.114,9.139-20.092,18.442-29.788,28.02c-2.217,2.19-3.687,5.615-4.439,8.729c-4.133,17.133-1.985,34.373,0.047,51.516
		c0.354,2.992,2.626,6.218,4.894,8.437c8.075,7.908,16.289,15.717,24.956,22.958c3.67,3.065,5.503,5.93,5.477,10.781
		c-0.077,13.982,0.11,27.978,0.702,41.947c0.19,4.492,1.009,9.484,3.24,13.237c3.174,5.34,7.615,10.05,12.066,14.476
		c5.632,5.598,12.197,10.276,17.682,16.001c9.544,9.963,19.65,18.767,34.501,21.318c-2.461,3.452-4.362,6.136-6.282,8.809
		c-20.191,28.114-40.813,55.931-60.438,84.434c-14.708,21.358-28.091,43.626-42.188,65.41c-1.585,2.45-2.477,5.969-6.723,6.791
		c0-9.654-0.167-18.647,0.045-27.631c0.233-9.909-3.572-18.187-10.038-25.256c-5.617-6.142-11.45-12.155-17.738-17.588
		c-3.086-2.666-7.299-5.153-11.211-5.526c-11.546-1.101-23.198-1.459-34.809-1.466c-23.791-0.015-45.444,7.552-63.776,22.281
		c-12.504,10.048-25.241,20.677-30.117,35.868c-15.698-0.312-30.3-0.396-44.885-0.937c-24.366-0.903-51.152,19.599-57.965,42.508
		c-4.595,15.452-3.543,30.914-4.276,46.477c-0.391,8.304,1.989,15.152,7.567,20.863c14.655,15.002,28.95,30.438,47.103,41.488
		c3.37,2.052,6.595,4.343,10.14,6.69c0,19.603,0.194,38.911-0.104,58.214c-0.105,6.817,1.608,12.244,6.855,16.789
		c4.261,3.69,9.481,7.324,11.633,12.159c3.522,7.909,6.953,15.592,13.735,21.48c-10.157,8.761-20.213,16.627-26.292,27.989
		c-9.098,17.012-18.325,33.981-26.624,51.387c-16.776,35.183-29.404,71.916-39.743,109.482
		c-10.065,36.577-17.588,73.652-23.052,111.173c-5.03,34.547-8.577,69.243-8.984,104.157c-0.586,50.229-0.432,100.445,5.903,150.433
		c4.105,32.396,10.025,64.396,20.753,95.268c3.683,10.598,8.301,21.32,14.753,30.375c6.465,9.074,15.89,16.004,23.761,24.122
		c6.723,6.934,14.477,9.393,24.209,9.063c19.683-0.667,19.629-0.26,32.677-14.125c2.921-3.104,4.421-6.321,4.552-10.618
		c0.797-26.036-0.316-51.841-7.191-77.186c-10.134-37.359-14.982-75.582-16.665-114.135c-1.202-27.573,0.648-55.128,2.904-82.675
		c2.633-32.154,7.283-63.99,12.462-95.778c1.896-11.637,4.205-23.206,6.325-34.805c1.3,16.387,2.209,32.615,1.031,48.691
		c-1.076,14.686-1.834,29.305,1.033,43.662c3.269,16.379,9.052,31.779,21.674,43.92c4.393,4.226,7.665,9.94,10.408,15.488
		c5.478,11.079,10.837,21.94,20.481,30.35c4.548,3.965,9.169,6.583,14.912,6.921c14.925,0.878,29.875,1.312,44.8,2.186
		c4.813,0.282,8.16-1.564,11.298-4.952c4.705-5.081,9.738-9.859,14.662-14.796c19.776,23.062,41.866,42.001,68.234,55.73
		c4.693,2.442,9.299,5.196,13.481,8.411c1.756,1.351,3.215,4.257,3.25,6.481c0.15,9.886,4.024,18.06,10.483,25.18
		c27.848,30.695,58.78,57.956,92.95,81.35c33.601,23.002,69.963,40.887,107.374,56.936c52.441,22.497,105.891,41.46,162.47,50.333
		c24.261,3.806,48.63,6.952,72.992,10.071c36.265,4.645,72.739,7.421,109.258,7.612c60.552,0.317,121.108-0.145,181.618-3.613
		c29.237-1.676,58.373-4.002,87.039-9.759c41.701-8.376,83.4-17.029,123.227-32.603c22.268-8.707,45.589-14.688,66.792-26.184
		c5.513-2.989,11.592-4.949,17.447-7.292c6.581-2.631,13.201-5.161,20.155-7.873c-4.653,14.666-7.041,29.787-7.357,45.528
		c-0.555,27.501,3.564,54.327,8.653,81.122c3.439,18.105,9.27,35.66,18.463,51.43c14.083,24.157,35.489,41.153,59.964,54.2
		c3.669,1.955,8.197,2.795,12.409,3.137c9.918,0.803,19.887,0.963,29.833,1.447c2.973,0.146,6.31-0.293,8.844,0.893
		c19.538,9.145,40.721,8.782,61.441,11.104c21.44,2.403,42.854,5.111,64.333,7.099c28.084,2.596,56.193,5.983,84.342,6.559
		c40.587,0.828,81.221-0.46,121.832-1.037c59.879-0.851,119.833,2.548,179.62-3.853c25.404-2.719,50.96-3.982,76.427-6.147
		c30.425-2.587,60.847-5.246,91.237-8.213c34.395-3.356,68.512-8.646,102.384-15.527c29.298-5.951,58.58-11.984,87.941-17.616
		c17.608-3.378,35.309-6.359,53.046-8.984c40.719-6.028,81.574-11.177,122.202-17.747c29.563-4.78,58.868-10.616,89.103-8.802
		c5.647,0.34,11.847-1.894,17.188-4.284c18.055-8.081,34.066-18.907,47.848-33.565c15.58-16.57,25.445-35.673,30.076-57.531
		c2.47-11.655,3.469-23.633,4.918-35.489c0.882-7.21,1.357-14.469,2.031-21.883c1.076,0.139,2.091,0.091,2.975,0.408
		c23.149,8.331,46.268,16.748,69.428,25.049c33.601,12.042,68.586,18.688,103.353,26.083c34.199,7.274,69.033,9.557,103.843,11.364
		c24.902,1.291,49.862,1.565,74.801,2.077c12.992,0.267,26.001-0.19,38.991,0.121c29.613,0.712,59.196,1.396,88.775-1.307
		c25.78-2.354,51.63-3.947,77.429-6.125c39.803-3.358,78.971-10.638,117.802-19.794c37.37-8.813,72.815-23.141,108.215-37.702
		c35.161-14.467,69.217-31.031,101.364-51.339c37.648-23.782,70.741-53.08,101.589-85.031c6.099-6.316,11.357-13.179,13.368-21.844
		c1.182-5.091,1.374-10.412,2.036-15.825c31.379-12.099,56.519-32.99,79.203-56.752c6.149,4.031,5.062,9.132,4.354,13.426
		c-3.393,20.634-6.552,41.345-11.07,61.746c-5.107,23.048-11.442,45.803-10.659,69.729c0.752,22.935,1.414,45.873,1.983,68.813
		c0.158,6.353,2.741,11.319,6.832,16.077c11.537,13.418,27.623,20.696,41.361,31.126c1.633,1.239,4.399,1.172,6.668,1.354
		c17.199,1.377,33.192-1.48,49.019-9.439c19.869-9.994,33.519-24.56,41.357-44.992c1.785-4.652,3.151-9.47,4.593-14.247
		c8.658-28.73,13.646-58.213,17.503-87.887c2.952-22.706,5.753-45.45,7.819-68.249c1.407-15.514,1.431-31.153,1.974-44.335
		c8.056-7.726,14.315-14.09,20.967-20.015c7.616-6.786,4.236-16.783,7.65-26.164c3.567,3.441,6.524,6.021,9.162,8.894
		c6.854,7.461,14.679,12.377,25.368,10.525c0.646-0.111,1.33-0.015,1.996-0.015c19.595,0.001,20.041,0.376,32.334-14.232
		c4.472-5.314,8.227-12.709,8.846-19.472c1.173-12.844,1.096-26.09-0.688-38.857c-4.228-30.246-10.012-60.271-14.705-90.458
		c-9.031-58.072-27.585-113.006-54.667-165.004c-12.331-23.679-28.555-44.851-46.633-64.515c-1.952-2.125-4.438-4.466-7.069-5.11
		c-5.437-1.335-11.119-1.935-16.733-2.215c-7.978-0.4-15.983-0.2-23.974-0.377c-0.863-0.019-1.707-0.832-2.533-1.264
		c0-2.991,0-5.808,0-8.57c28.176-2.195,28.176-2.195,47.871-22.313c0.934-0.952,2.014-1.799,2.771-2.875
		c1.327-1.889,2.77-3.792,3.621-5.907c7.772-19.299,12.906-39.047,11.411-60.195c-0.7-9.899-0.12-19.889-0.12-30.283
		c25.403-11.841,46.145-29.976,64.83-50.556c4.327-4.767,9.586-10.857,9.974-16.638c1.307-19.513,1.771-39.162-5.635-58.117
		c-5.024-12.857-14.703-21.529-25.168-28.86c-9.846-6.896-21.9-9.273-34.256-8.799c-13.866,0.533-27.744,0.726-41.678,1.067
		c-2.184-4.337-3.578-9.564-6.816-13.105c-13.479-14.739-27.397-28.624-46.598-36.737c-23.058-9.744-46.801-8.876-70.729-8.221
		c-7.566,0.207-13.995,3.501-19.025,9.529c-3.1,3.71-6.852,6.875-11.177,11.138c-28.047-46.712-60.095-88.47-101.448-123.902
		c11.536-11.331,22.068-21.949,32.932-32.219c4.703-4.446,6.94-9.42,6.876-15.862c-0.166-16.3-0.055-32.603-0.055-48.392
		c10.019-9.272,19.976-18.535,29.992-27.735c4.946-4.544,7.315-10.082,7.372-16.806c0.096-11.32,0.558-22.639,0.574-33.958
		c0.01-7.1-1.225-14.342-6.257-19.497c-9.283-9.507-19.235-18.368-29.017-27.38c-4.895-4.509-10.796-6.073-17.473-5.895
		c-15.56,0.418-31.129,0.48-47.846,0.701c-0.248-0.338-1.573-1.832-2.549-3.527c-7.614-13.223-18.598-23.377-30.063-33.077
		c-6.005-5.081-12.557-8.216-20.921-7.507c-7.941,0.673-16.014-0.26-23.973,0.305c-4.46,0.316-9.09,1.636-13.153,3.545
		c-13.319,6.257-22.531,17.534-32.033,28.147c-6.044,6.752-9.358,15.158-8.719,24.787c0.351,5.281-0.445,10.63-0.54,15.951
		c-0.057,3.186-0.371,5.877-4.061,7.043c-3.395,1.072-4.695-1.1-6.456-3.204c-17.311-20.679-35.644-40.348-55.466-58.713
		c-28.614-26.513-58.376-51.54-91.059-72.874c-9.992-6.522-20.696-12.14-31.566-17.091c-21.826-9.94-45.16-5.836-67.997-6.09
		c-0.643-0.007-1.315,0.237-1.931,0.478c-12.815,5.002-23.488,13.603-30.683,24.652c-4.068,6.248-2.933,15.898-4.075,24.025
		c-0.184,1.306-0.025,2.662-0.025,3.995c0,22.033-0.002,22.035,16.016,36.654c0.982,0.896,1.97,1.801,3.043,2.58
		c4.848,3.521,9.539,7.185,16.272,6.093c2.107-0.343,4.687,0.463,6.679,1.473c9.149,4.642,18.773,8.676,27.122,14.511
		c27.83,19.451,54.407,40.555,79.213,63.791c8.153,7.638,16.004,15.629,22.73,25.848c-9.822,4.183-18.966,8.011-28.057,11.96
		c-28.363,12.323-57.235,23.627-84.902,37.358c-24.991,12.405-48.835,27.18-72.854,41.465
		c-25.156,14.961-49.934,30.56-74.842,45.936c-5.09,3.142-10.214,6.284-14.998,9.86c-11.717,8.758-22.702,18.612-34.96,26.505
		c-27.487,17.699-50.47,40.122-71.223,65.036c-3.109,3.732-5.793,8.314-7.115,12.947c-4.736,16.6-8.784,33.395-13.173,50.094
		c-0.212,0.808-1.173,1.418-1.888,2.237c-0.432-0.697-0.965-1.154-0.949-1.593c0.676-18.639-3.552-35.934-11.202-53.091
		c-4.433-9.941-11.046-17.116-18.282-24.332c-1.317-1.313-3.271-2.444-5.08-2.737c-9.493-1.534-18.998-3.436-28.565-3.933
		c-10.242-0.532-20.557,0.356-30.839,0.626c-7.425,7.628-15.143,14.999-22.184,22.967c-5.683,6.429-11.637,13.022-15.481,20.558
		c-4.179,8.186-5.914,17.594-8.965,26.382c-10.056,28.966-11.086,59.326-13.258,89.4c-1.715,23.75-5.376,46.849-14.758,68.806
		c-1.933,4.526-3.896,9.779-7.471,12.734c-14.056,11.621-28.39,22.676-46.909,27.22c-26.135,6.415-51.958,14.102-77.921,21.22
		c-9.181,2.517-17.416,6.655-23.731,13.971c-3.693,4.281-7.176,8.746-9.979,12.179c-23.791-4.46-45.23-5.979-66.872-6.651
		c-13.827-0.43-24.267,2.958-32.792,13.855c-4.16,5.319-9.69,9.566-14.973,14.658c-0.957-2.553-2.013-4.592-2.486-6.759
		c-3.543-16.195-6.817-32.45-10.485-48.616c-2.345-10.338-5.017-20.613-7.892-30.817c-6.29-22.328-12.371-44.73-19.395-66.83
		c-3.907-12.297-9.76-23.963-14.331-36.065c-6.322-16.74-11.656-33.877-18.505-50.39c-11.23-27.081-26.674-51.901-43.205-76.029
		c-7.495-10.939-15.506-21.532-22.802-32.6c-10.566-16.03-23.327-30.406-38.88-41.103c-16.246-11.173-29.598-25.618-45.699-36.776
		c-2.121-1.47-3.463-4.065-6.144-7.331c16.822,0.397,30.002-3.126,41.478-13.365c7.732-6.899,10.252-14.354,9.798-24.435
		c-0.763-16.917-0.153-17.004-12.63-28.085c-2.166-1.921-4.887-3.388-7.582-4.511c-9.516-3.963-19.095-7.786-28.73-11.446
		c-3.385-1.285-6.995-2.724-10.521-2.775c-36.6-0.524-73.184-0.539-109.361,6.438c-3.054,0.588-6.66,0.674-9.5-0.381
		c-20.2-7.503-40.276-15.341-60.375-23.115c-26.267-10.161-53.426-15.835-81.617-16.5c-1.714-0.04-3.409-0.895-6.167-1.663
		c8.187-7.145,15.252-13.675,22.776-19.627c1.94-1.535,5.444-2.058,8.017-1.663c10.737,1.653,21.371,3.97,32.09,5.759
		c4.901,0.818,10.071,0.353,14.848,1.549c23.08,5.78,46.481,8.132,70.194,6.954c7.567-0.376,15.186-1.439,22.585-3.074
		c14.229-3.143,28.317-6.917,42.565-10.454c2.181,2.037,4.424,3.602,5.979,5.682c4.239,5.673,9.825,6.521,16.575,6.816
		c19.979,0.876,38.851-4.356,57.993-8.627c10.261-2.29,16.147-9.909,23.364-16.193c4.95-4.31,2.094-10.099,4.127-15.231
		c1.687-0.559,3.506-1.331,5.402-1.768c40.858-9.407,80.905-21.631,120.753-34.578c9.451-3.071,19.148-5.376,28.723-8.072
		c5.072-1.429,10.402-2.332,15.133-4.517c20.766-9.597,41.33-19.629,62.019-29.394c12.632-5.961,25.416-11.6,38.025-17.606
		c16.526-7.872,32.724-16.478,49.493-23.779c10.89-4.742,20.453-11.135,28.894-19.106c16.217-15.313,15.634-15.537,16.174-37.81
		c0.253-10.461-2.357-18.921-10.777-25.325c-0.787-0.6-1.509-1.335-2.111-2.122c-2.887-3.765-6.675-4.696-11.341-4.845
		c-8.267-0.265-16.534-1.176-24.741-2.264c-2.816-0.373-6.214-1.378-8.031-3.322c-4.854-5.192-10.89-5.854-17.291-6.296
		c-12.292-0.849-24.22-2.686-35.197-9.2c-14.255-8.459-29.222-15.73-43.378-24.342c-13.01-7.914-25.238-17.101-38.031-25.384
		c-6.511-4.215-8.828-9.436-8.832-17.331c-0.007-13.576-0.997-27.232-2.77-40.698c-1.333-10.128-4.252-20.09-6.975-29.985
		c-4.294-15.606-8.734-31.185-13.627-46.611c-6.512-20.534-13.62-40.876-20.285-61.362c-6.966-21.415-12.855-43.223-20.758-64.279
		c-10.618-28.292-24.093-55.13-41.9-79.944c-13.389-18.657-28.248-35.846-43.53-52.823c-15.674-17.413-35.064-30.64-51.965-46.604
		c-12.493-11.802-26.86-18.244-43.39-20.345c-14.81-1.882-29.702-3.328-44.603-4.199c-10.62-0.62-21.572-1.429-31.922,0.408
		c-23.592,4.191-47.287,6.04-71.152,6.842c-6.618,0.222-13.23,0.948-19.813,1.727c-4.223,0.499-7.847,0.1-10.808-3.404
		c-2.145-2.536-4.858-4.593-6.98-7.144c-3.049-3.666-6.755-4.799-11.429-4.648c-8.655,0.28-17.37-0.458-25.98,0.231
		c-8.457,0.679-14.537-2.737-20.438-8.162c-18.987-17.458-40.811-30.897-63.511-42.792c-12.933-6.776-26.649-12.072-40.072-17.895
		c-23.891-10.365-48.503-17.525-74.639-20.305c-17.279-1.838-35.364-0.608-51.592-9.198c-1.862-0.986-4.587-0.417-6.914-0.435
		c-5.999-0.046-12.001,0.118-17.996-0.054c-6.081-0.174-11.675,0.883-17.406,3.321c-5.022,2.138-10.834,2.626-16.363,3.312
		c-9.206,1.141-18.667,0.944-27.66,2.938c-20.728,4.597-41.318,9.882-61.803,15.478c-9.582,2.618-18.913,6.296-28.142,10.026
		c-21.881,8.845-41.807,21.694-63.226,31.443c-24.131,10.986-48.314,22.071-73.19,31.156c-26.168,9.558-51.378,21.119-76.842,32.228
		c-22.487,9.809-45.177,19.186-68.011,28.158c-17.294,6.796-35.134,12.207-52.417,19.027c-31.165,12.297-62.104,25.167-93.12,37.839
		c-19.979,8.163-39.807,16.714-59.921,24.522c-24.442,9.489-49.165,18.003-75.425,21.426c-18.074,2.354-36.026,5.726-53.955,9.066
		c-12.713,2.369-25.277,5.53-37.939,8.182c-13.001,2.722-26.048,5.23-39.065,7.881c-8.588,1.748-16.766,4.7-23.129,10.888
		c-9.545,9.279-18.608,19.049-28.043,28.443c-5.598,5.573-7.42,12.382-7.465,19.924c-0.045,7.666,0.03,15.332-0.03,22.997
		c-0.118,15.2,4.034,29.424,13.863,40.713c12.188,13.997,25.874,26.707,39.156,39.724c5.92,5.802,12.718,10.708,18.628,16.52
		c17.796,17.5,35.288,35.309,53.018,52.877c23.251,23.038,48.708,43.302,76.813,60.139c4.801,2.876,10.48,4.5,14.814,7.898
		c12.553,9.844,24.996,19.892,36.812,30.599c23.668,21.449,47.66,42.49,73.553,61.223c29.402,21.271,60.204,40.335,91.508,58.721
		c48.615,28.553,100.305,48.249,155.387,60.225c45.71,9.938,90.939,22.085,136.411,33.13c22.528,5.472,45.098,10.784,67.697,15.954
		c19.995,4.575,40.007,9.103,60.107,13.177c14.28,2.895,28.7,5.134,43.095,7.422c13.048,2.075,26.149,3.82,39.38,5.732
		c-0.295,1.674-0.31,2.688-0.654,3.574c-6.977,17.94-13.367,36.08-16.654,55.104c-0.942,5.45-4.156,7.759-8.689,9.742
		c-13.413,5.868-26.415,12.463-37.694,22.058c-3.003,2.555-6.563,4.486-9.974,6.523c-17.174,10.261-34.012,21.132-47.635,35.904
		c-18.019,19.536-34.867,40.077-48.748,62.886c-7.402,12.163-15.808,23.742-18.99,38.074c-0.758,3.42-3.292,6.473-5.13,9.624
		c-6.177,10.585-12.918,20.877-18.505,31.764c-9.219,17.969-18.016,36.172-26.397,54.549c-5.92,12.983-11.157,26.304-16.157,39.677
		c-6.149,16.445-11.584,33.156-17.609,49.649c-5.464,14.959-11.466,29.721-16.945,44.675c-10.739,29.315-18.875,59.397-26.267,89.71
		c-5.574,22.859-10.819,45.854-17.747,68.315c-8.811,28.565-17.611,56.962-20.749,86.912c-3.25,31.015-7.566,61.918-11.478,92.862
		c-0.569,4.5-1.481,8.957-2.18,13.104c-17.781,3.02-24.855,6.136-38.175,17.54c-16.254,13.917-29.105,30.949-42.847,47.187
		c-10.586,12.509-14.855,27.521-16.718,42.945c-2.945,24.399-4.616,48.979-3.718,73.633c0.076,2.092-0.357,4.202-0.611,6.904
		c-6.726-8.219-12.877-15.442-18.617-22.979c-1.233-1.618-1.633-4.475-1.296-6.581c1.606-10.024-2.492-17.339-10.063-23.344
		c-2.075-1.646-4.015-3.567-5.639-5.657c-3.993-5.136-9.652-7.677-15.6-7.825c-13.611-0.342-27.617-1.614-40.806,0.915
		c-42.397,8.134-84.456,18.072-127.363,23.41c-22.423,2.789-44.909,4.381-68.01,0.619c-0.887-4.22-1.932-8.355-2.604-12.55
		c-1.986-12.399-5.422-24.058-16.67-31.427c-3.49-2.286-7.337-4.789-11.309-5.442c-15.715-2.585-31.418-5.793-47.523-4.649
		c-1.216,0.086-2.484-0.555-2.616-0.586c-2.463-16.149-5.65-31.448-6.898-46.903c-1.1-13.599-8.347-22.645-17.956-30.694
		c-1.936-1.622-4.457-3.067-6.897-3.484c-19.975-3.411-39.949-6.834-60.39-5.668c-4.254,0.243-7.563,1.162-10.561,4.327
		c-10.757,11.362-21.82,22.437-32.506,33.865c-2.16,2.31-3.663,5.536-4.639,8.604c-5.337,16.777-10.402,33.642-15.624,50.456
		c-0.26,0.838-1.108,1.494-2.016,2.663c-2.715-1.082-5.368-2.138-8.012-3.191c-0.139-2.251-0.388-3.901-0.319-5.54
		c0.88-21.04-1.308-41.778-5.28-62.438c-2.244-11.674-5.013-23.223-4.28-35.473c1.518-25.362,0.475-50.6-8.924-74.763
		c-0.701-1.803-0.53-3.943-0.85-6.64c6.788,4.482,13.483,7.438,18.2,12.308c12.009,12.401,26.083,21.816,41.173,29.531
		c27.237,13.924,54.691,27.473,82.493,40.222c36.029,16.521,73.029,30.583,112.16,38.007c17.924,3.4,35.949,6.453,54.048,8.692
		c27.325,3.382,54.733,6.177,82.152,8.707c15.873,1.465,31.929,1.151,47.742,2.999c28.825,3.367,57.699,3.793,86.646,3.915
		c9.667,0.041,17.809-3.175,24.689-9.092c14.616-12.565,28.306-26.229,43.154-38.501c10.723-8.861,15.693-19.087,13.458-32.82
		c-1.34-8.23,1.131-14.893,8.021-20.018c3.461-2.576,6.113-5.823,6.024-10.857c-0.256-14.615-0.37-29.025-3.571-43.601
		c-3.677-16.743-4.479-34.121-6.48-51.229c-0.846-7.234-0.746-14.698-2.572-21.668c-1.695-6.471-0.422-10.908,4.724-14.621
		c8.379-6.046,11.544-14.179,9.849-24.304c-0.108-0.647-0.006-1.33-0.016-1.996c-0.278-20.267,2.711-16.582-13.375-32.02
		c-5.351-5.137-8.419-10.67-9.292-17.943c-0.88-7.319-3.108-14.1-8.707-19.627c-2.404-2.373-3.733-6.123-4.81-9.483
		c-1.718-5.366-3.33-10.863-4.088-16.427c-2.597-19.038-14.958-31.193-28.775-42.641c-7.354-6.093-15.255-8.846-24.815-8.026
		c-6.947,0.596-14.012-0.249-20.981,0.204c-10.417,0.679-20.994,2.995-28.89,9.625c-12.209,10.251-23.359,21.851-30.028,36.891
		c-2.659,5.998-5.767,11.796-8.85,18.048c-10.408-3.13-20.091-6.044-29.292-8.813c0-3.622-0.375-6.015,0.059-8.25
		c3.545-18.256,7.267-36.479,10.885-54.722c4.048-20.411,12.653-39.926,10.603-61.568c-0.692-7.296-1.817-13.401-6.897-18.886
		c-4.504-4.862-8.025-10.622-12.403-15.615c-2.882-3.287-3.271-6.212-1.061-9.856c9.74-16.063,15.753-33.708,21.63-51.4
		c6.895-20.751,9.641-40.866-8.756-57.858c-2.166-2.001-3.626-4.754-5.481-7.107c-15.574-19.764-15.835-19.885-40.813-19.882
		c-1,0-2.001,0.02-3-0.003c-15.439-0.345-28.626,7.708-42.93,11.591c-1.168,0.317-2.122,1.556-3.093,2.455
		c-8.842,8.181-17.156,16.71-21.342,28.448c-1.441,4.041-3.554,7.87-5.616,11.657c-16.396,30.094-32.845,60.16-49.317,90.212
		c-1.022,1.865-2.373,3.551-3.572,5.324c-5.701-6.489-11.083-12.36-16.11-18.52c-1.269-1.553-1.965-4.028-1.971-6.081
		c-0.026-9.645,0.798-19.314,0.356-28.93c-0.896-19.519-6.173-37.337-22.02-50.472c-5.048-4.185-10.908-7.879-14.657-13.057
		c-14.003-19.338-31.231-35.375-49.445-50.488c-17.142-14.226-33.873-28.977-53.787-39.513
		c-10.28-5.439-20.106-11.749-30.056-17.798c-23.021-13.996-45.944-28.156-69.009-42.082
		C1101.64,1018.435,1090.645,1012.325,1079.069,1005.644z"/>
	<path fill-rule="evenodd" d="M1079.069,1005.644c11.576,6.682,22.571,12.792,33.333,19.29
		c23.065,13.926,45.988,28.085,69.009,42.082c9.95,6.049,19.776,12.359,30.056,17.798c19.915,10.536,36.645,25.287,53.787,39.513
		c18.214,15.113,35.442,31.15,49.445,50.488c3.75,5.178,9.609,8.872,14.657,13.057c15.847,13.135,21.123,30.953,22.02,50.472
		c0.441,9.616-0.383,19.286-0.356,28.93c0.006,2.053,0.702,4.528,1.971,6.081c5.028,6.16,10.41,12.031,16.11,18.52
		c1.199-1.773,2.549-3.459,3.572-5.324c16.472-30.053,32.92-60.119,49.317-90.212c2.062-3.787,4.174-7.616,5.616-11.657
		c4.186-11.738,12.5-20.267,21.342-28.448c0.972-0.899,1.925-2.137,3.093-2.455c14.304-3.883,27.491-11.936,42.93-11.591
		c0.999,0.022,2,0.003,3,0.003c24.978-0.003,25.239,0.118,40.813,19.882c1.854,2.353,3.315,5.106,5.481,7.107
		c18.397,16.992,15.651,37.106,8.756,57.858c-5.877,17.692-11.89,35.337-21.63,51.4c-2.21,3.645-1.822,6.569,1.061,9.856
		c4.377,4.993,7.898,10.753,12.403,15.615c5.08,5.484,6.205,11.59,6.897,18.886c2.05,21.643-6.554,41.157-10.603,61.568
		c-3.619,18.243-7.34,36.466-10.885,54.722c-0.434,2.235-0.059,4.628-0.059,8.25c9.201,2.769,18.884,5.683,29.292,8.813
		c3.083-6.252,6.19-12.05,8.85-18.048c6.669-15.04,17.819-26.64,30.028-36.891c7.896-6.63,18.473-8.946,28.89-9.625
		c6.969-0.453,14.034,0.392,20.981-0.204c9.561-0.819,17.461,1.934,24.815,8.026c13.817,11.447,26.178,23.603,28.775,42.641
		c0.759,5.563,2.37,11.061,4.088,16.427c1.077,3.36,2.406,7.11,4.81,9.483c5.599,5.527,7.827,12.308,8.707,19.627
		c0.874,7.273,3.942,12.807,9.292,17.943c16.087,15.438,13.097,11.753,13.375,32.02c0.01,0.666-0.093,1.349,0.016,1.996
		c1.696,10.125-1.47,18.258-9.849,24.304c-5.146,3.713-6.419,8.15-4.724,14.621c1.826,6.97,1.726,14.434,2.572,21.668
		c2.001,17.107,2.803,34.485,6.48,51.229c3.201,14.575,3.314,28.985,3.571,43.601c0.089,5.034-2.563,8.281-6.024,10.857
		c-6.89,5.125-9.36,11.787-8.021,20.018c2.235,13.733-2.736,23.959-13.458,32.82c-14.849,12.271-28.538,25.936-43.154,38.501
		c-6.88,5.917-15.022,9.133-24.689,9.092c-28.947-0.122-57.821-0.548-86.646-3.915c-15.813-1.848-31.869-1.534-47.742-2.999
		c-27.419-2.53-54.827-5.325-82.152-8.707c-18.1-2.239-36.125-5.292-54.048-8.692c-39.131-7.424-76.131-21.486-112.16-38.007
		c-27.801-12.749-55.256-26.298-82.493-40.222c-15.091-7.715-29.164-17.13-41.173-29.531c-4.717-4.87-11.413-7.825-18.2-12.308
		c0.319,2.696,0.148,4.837,0.85,6.64c9.398,24.163,10.441,49.4,8.924,74.763c-0.733,12.25,2.036,23.799,4.28,35.473
		c3.972,20.66,6.16,41.398,5.28,62.438c-0.068,1.639,0.181,3.289,0.319,5.54c2.644,1.054,5.297,2.109,8.012,3.191
		c0.907-1.169,1.756-1.825,2.016-2.663c5.222-16.814,10.287-33.679,15.624-50.456c0.977-3.067,2.479-6.294,4.639-8.604
		c10.686-11.429,21.749-22.503,32.506-33.865c2.997-3.165,6.306-4.084,10.561-4.327c20.44-1.166,40.415,2.257,60.39,5.668
		c2.441,0.417,4.961,1.862,6.897,3.484c9.609,8.05,16.856,17.096,17.956,30.694c1.249,15.455,4.435,30.754,6.898,46.903
		c0.132,0.031,1.399,0.672,2.616,0.586c16.105-1.144,31.809,2.064,47.523,4.649c3.972,0.653,7.819,3.156,11.309,5.442
		c11.248,7.369,14.684,19.027,16.67,31.427c0.672,4.194,1.717,8.33,2.604,12.55c23.102,3.762,45.587,2.17,68.01-0.619
		c42.907-5.338,84.966-15.276,127.363-23.41c13.189-2.529,27.195-1.257,40.806-0.915c5.947,0.148,11.607,2.689,15.6,7.825
		c1.624,2.09,3.564,4.011,5.639,5.657c7.57,6.005,11.668,13.319,10.063,23.344c-0.337,2.106,0.063,4.963,1.296,6.581
		c5.74,7.537,11.891,14.761,18.617,22.979c0.253-2.702,0.687-4.813,0.611-6.904c-0.898-24.653,0.773-49.233,3.718-73.633
		c1.862-15.425,6.131-30.437,16.718-42.945c13.742-16.237,26.593-33.27,42.847-47.187c13.32-11.404,20.394-14.521,38.175-17.54
		c0.698-4.146,1.61-8.604,2.18-13.104c3.912-30.944,8.229-61.848,11.478-92.862c3.137-29.95,11.938-58.347,20.749-86.912
		c6.928-22.461,12.173-45.456,17.747-68.315c7.392-30.313,15.528-60.395,26.267-89.71c5.479-14.954,11.481-29.716,16.945-44.675
		c6.024-16.493,11.459-33.204,17.609-49.649c5-13.373,10.237-26.694,16.157-39.677c8.381-18.377,17.178-36.58,26.397-54.549
		c5.586-10.886,12.328-21.178,18.505-31.764c1.838-3.151,4.372-6.204,5.13-9.624c3.183-14.332,11.588-25.912,18.99-38.074
		c13.881-22.809,30.729-43.35,48.748-62.886c13.623-14.771,30.461-25.643,47.635-35.904c3.412-2.038,6.971-3.969,9.974-6.523
		c11.279-9.594,24.281-16.189,37.694-22.058c4.533-1.983,7.747-4.292,8.689-9.742c3.288-19.025,9.678-37.164,16.654-55.104
		c0.345-0.885,0.359-1.9,0.654-3.574c-13.231-1.913-26.332-3.658-39.38-5.732c-14.396-2.288-28.815-4.527-43.095-7.422
		c-20.1-4.075-40.112-8.603-60.107-13.177c-22.6-5.17-45.169-10.482-67.697-15.954c-45.472-11.045-90.701-23.192-136.411-33.13
		c-55.082-11.976-106.772-31.672-155.387-60.225c-31.305-18.386-62.106-37.45-91.508-58.721
		c-25.893-18.733-49.885-39.774-73.553-61.223c-11.816-10.707-24.259-20.754-36.812-30.599c-4.334-3.399-10.013-5.022-14.814-7.898
		c-28.105-16.837-53.563-37.101-76.813-60.139c-17.73-17.568-35.221-35.377-53.018-52.877c-5.91-5.812-12.708-10.718-18.628-16.52
		c-13.282-13.017-26.968-25.727-39.156-39.724c-9.83-11.29-13.981-25.513-13.863-40.713c0.061-7.665-0.015-15.331,0.03-22.997
		c0.045-7.542,1.867-14.351,7.465-19.924c9.436-9.394,18.499-19.164,28.043-28.443c6.363-6.188,14.541-9.141,23.129-10.888
		c13.017-2.65,26.064-5.159,39.065-7.881c12.663-2.651,25.226-5.813,37.939-8.182c17.929-3.34,35.881-6.712,53.955-9.066
		c26.261-3.422,50.983-11.937,75.425-21.426c20.115-7.809,39.942-16.359,59.921-24.522c31.017-12.672,61.955-25.542,93.12-37.839
		c17.283-6.82,35.123-12.231,52.417-19.027c22.834-8.972,45.524-18.349,68.011-28.158c25.463-11.109,50.673-22.67,76.842-32.228
		c24.876-9.085,49.059-20.17,73.19-31.156c21.418-9.75,41.345-22.599,63.226-31.443c9.229-3.73,18.56-7.408,28.142-10.026
		c20.485-5.595,41.075-10.88,61.803-15.478c8.993-1.994,18.454-1.797,27.66-2.938c5.529-0.686,11.341-1.174,16.363-3.312
		c5.73-2.438,11.325-3.495,17.406-3.321c5.995,0.172,11.998,0.008,17.996,0.054c2.327,0.018,5.052-0.552,6.914,0.435
		c16.229,8.59,34.313,7.36,51.592,9.198c26.135,2.78,50.748,9.94,74.639,20.305c13.423,5.823,27.139,11.119,40.072,17.895
		c22.701,11.894,44.524,25.333,63.511,42.792c5.901,5.425,11.981,8.841,20.438,8.162c8.61-0.689,17.325,0.049,25.98-0.231
		c4.674-0.151,8.38,0.982,11.429,4.648c2.122,2.55,4.836,4.608,6.98,7.144c2.961,3.503,6.585,3.903,10.808,3.404
		c6.583-0.778,13.195-1.505,19.813-1.727c23.865-0.802,47.561-2.651,71.152-6.842c10.35-1.837,21.302-1.028,31.922-0.408
		c14.9,0.871,29.793,2.316,44.603,4.199c16.529,2.102,30.896,8.543,43.39,20.345c16.9,15.965,36.291,29.191,51.965,46.604
		c15.282,16.978,30.142,34.167,43.53,52.823c17.808,24.814,31.282,51.653,41.9,79.944c7.902,21.057,13.792,42.865,20.758,64.279
		c6.665,20.486,13.773,40.829,20.285,61.362c4.893,15.427,9.333,31.005,13.627,46.611c2.723,9.895,5.642,19.857,6.975,29.985
		c1.772,13.466,2.763,27.123,2.77,40.698c0.004,7.895,2.321,13.115,8.832,17.331c12.793,8.283,25.021,17.47,38.031,25.384
		c14.156,8.612,29.123,15.883,43.378,24.342c10.978,6.514,22.905,8.352,35.197,9.2c6.401,0.442,12.438,1.104,17.291,6.296
		c1.817,1.944,5.215,2.949,8.031,3.322c8.207,1.088,16.475,2,24.741,2.264c4.666,0.149,8.454,1.08,11.341,4.845
		c0.603,0.786,1.324,1.522,2.111,2.122c8.42,6.404,11.03,14.864,10.777,25.325c-0.54,22.272,0.043,22.496-16.174,37.81
		c-8.44,7.971-18.004,14.364-28.894,19.106c-16.77,7.302-32.967,15.907-49.493,23.779c-12.609,6.007-25.394,11.645-38.025,17.606
		c-20.688,9.764-41.253,19.797-62.019,29.394c-4.73,2.185-10.061,3.088-15.133,4.517c-9.574,2.696-19.271,5.001-28.723,8.072
		c-39.848,12.946-79.895,25.17-120.753,34.578c-1.896,0.438-3.716,1.209-5.402,1.768c-2.033,5.132,0.823,10.921-4.127,15.231
		c-7.217,6.284-13.104,13.903-23.364,16.193c-19.143,4.271-38.015,9.503-57.993,8.627c-6.75-0.296-12.336-1.144-16.575-6.816
		c-1.555-2.08-3.798-3.645-5.979-5.682c-14.248,3.538-28.337,7.312-42.565,10.454c-7.399,1.634-15.018,2.698-22.585,3.074
		c-23.713,1.178-47.114-1.174-70.194-6.954c-4.776-1.196-9.946-0.73-14.848-1.549c-10.719-1.79-21.353-4.106-32.09-5.759
		c-2.572-0.395-6.076,0.128-8.017,1.663c-7.524,5.953-14.59,12.483-22.776,19.627c2.758,0.769,4.453,1.623,6.167,1.663
		c28.191,0.665,55.351,6.339,81.617,16.5c20.099,7.774,40.175,15.612,60.375,23.115c2.84,1.055,6.446,0.969,9.5,0.381
		c36.178-6.977,72.762-6.962,109.361-6.438c3.525,0.051,7.136,1.49,10.521,2.775c9.636,3.66,19.215,7.482,28.73,11.446
		c2.695,1.123,5.416,2.59,7.582,4.511c12.477,11.082,11.867,11.168,12.63,28.085c0.454,10.081-2.065,17.535-9.798,24.435
		c-11.476,10.239-24.655,13.763-41.478,13.365c2.681,3.266,4.022,5.861,6.144,7.331c16.102,11.158,29.453,25.603,45.699,36.776
		c15.553,10.697,28.313,25.073,38.88,41.103c7.296,11.067,15.307,21.661,22.802,32.6c16.531,24.128,31.975,48.948,43.205,76.029
		c6.849,16.513,12.183,33.65,18.505,50.39c4.571,12.103,10.424,23.769,14.331,36.065c7.023,22.1,13.104,44.502,19.395,66.83
		c2.875,10.204,5.547,20.479,7.892,30.817c3.668,16.166,6.942,32.421,10.485,48.616c0.474,2.167,1.529,4.206,2.486,6.759
		c5.282-5.092,10.813-9.339,14.973-14.658c8.525-10.897,18.965-14.285,32.792-13.855c21.642,0.672,43.081,2.191,66.872,6.651
		c2.803-3.433,6.285-7.897,9.979-12.179c6.315-7.315,14.551-11.454,23.731-13.971c25.963-7.118,51.786-14.805,77.921-21.22
		c18.52-4.544,32.854-15.599,46.909-27.22c3.574-2.955,5.538-8.208,7.471-12.734c9.382-21.957,13.043-45.056,14.758-68.806
		c2.172-30.074,3.202-60.435,13.258-89.4c3.051-8.788,4.786-18.196,8.965-26.382c3.845-7.535,9.799-14.129,15.481-20.558
		c7.041-7.968,14.759-15.339,22.184-22.967c10.282-0.27,20.597-1.158,30.839-0.626c9.567,0.497,19.072,2.399,28.565,3.933
		c1.809,0.293,3.763,1.423,5.08,2.737c7.236,7.216,13.85,14.391,18.282,24.332c7.65,17.157,11.878,34.452,11.202,53.091
		c-0.016,0.438,0.518,0.896,0.949,1.593c0.715-0.819,1.676-1.43,1.888-2.237c4.389-16.7,8.437-33.495,13.173-50.094
		c1.322-4.633,4.006-9.215,7.115-12.947c20.753-24.914,43.735-47.337,71.223-65.036c12.258-7.894,23.243-17.748,34.96-26.505
		c4.784-3.576,9.908-6.718,14.998-9.86c24.908-15.376,49.686-30.975,74.842-45.936c24.019-14.285,47.862-29.061,72.854-41.465
		c27.667-13.731,56.539-25.036,84.902-37.358c9.091-3.95,18.234-7.777,28.057-11.96c-6.727-10.219-14.577-18.21-22.73-25.848
		c-24.806-23.235-51.383-44.34-79.213-63.791c-8.349-5.835-17.973-9.869-27.122-14.511c-1.992-1.01-4.571-1.816-6.679-1.473
		c-6.733,1.091-11.425-2.573-16.272-6.093c-1.073-0.779-2.061-1.683-3.043-2.58c-16.018-14.619-16.016-14.621-16.016-36.654
		c0-1.333-0.158-2.689,0.025-3.995c1.143-8.127,0.007-17.777,4.075-24.025c7.194-11.05,17.867-19.65,30.683-24.652
		c0.615-0.24,1.288-0.484,1.931-0.478c22.837,0.254,46.171-3.85,67.997,6.09c10.87,4.951,21.574,10.568,31.566,17.091
		c32.683,21.333,62.444,46.36,91.059,72.874c19.822,18.365,38.155,38.035,55.466,58.713c1.761,2.104,3.062,4.276,6.456,3.204
		c3.689-1.166,4.004-3.857,4.061-7.043c0.095-5.321,0.891-10.67,0.54-15.951c-0.64-9.628,2.675-18.035,8.719-24.787
		c9.502-10.613,18.714-21.89,32.033-28.147c4.063-1.91,8.693-3.229,13.153-3.545c7.959-0.564,16.031,0.368,23.973-0.305
		c8.364-0.709,14.916,2.426,20.921,7.507c11.466,9.7,22.449,19.854,30.063,33.077c0.976,1.695,2.301,3.189,2.549,3.527
		c16.717-0.221,32.286-0.283,47.846-0.701c6.677-0.179,12.578,1.385,17.473,5.895c9.781,9.013,19.733,17.873,29.017,27.38
		c5.032,5.155,6.267,12.397,6.257,19.497c-0.017,11.319-0.479,22.638-0.574,33.958c-0.057,6.725-2.426,12.262-7.372,16.806
		c-10.017,9.2-19.974,18.463-29.992,27.735c0,15.789-0.111,32.092,0.055,48.392c0.064,6.442-2.173,11.417-6.876,15.862
		c-10.863,10.27-21.396,20.889-32.932,32.219c41.354,35.432,73.401,77.19,101.448,123.902c4.325-4.263,8.077-7.428,11.177-11.138
		c5.03-6.028,11.459-9.322,19.025-9.529c23.928-0.655,47.671-1.523,70.729,8.221c19.2,8.113,33.118,21.998,46.598,36.737
		c3.238,3.541,4.633,8.768,6.816,13.105c13.934-0.342,27.812-0.534,41.678-1.067c12.355-0.475,24.41,1.902,34.256,8.799
		c10.465,7.331,20.144,16.002,25.168,28.86c7.406,18.955,6.941,38.604,5.635,58.117c-0.388,5.78-5.646,11.871-9.974,16.638
		c-18.686,20.58-39.427,38.715-64.83,50.556c0,10.395-0.58,20.384,0.12,30.283c1.495,21.148-3.639,40.896-11.411,60.195
		c-0.852,2.115-2.294,4.019-3.621,5.907c-0.757,1.076-1.837,1.923-2.771,2.875c-19.695,20.117-19.695,20.117-47.871,22.313
		c0,2.763,0,5.579,0,8.57c0.826,0.432,1.67,1.245,2.533,1.264c7.99,0.177,15.996-0.023,23.974,0.377
		c5.614,0.28,11.297,0.88,16.733,2.215c2.631,0.645,5.117,2.985,7.069,5.11c18.078,19.664,34.302,40.836,46.633,64.515
		c27.082,51.998,45.636,106.932,54.667,165.004c4.693,30.187,10.478,60.212,14.705,90.458c1.783,12.768,1.86,26.014,0.688,38.857
		c-0.619,6.763-4.374,14.157-8.846,19.472c-12.293,14.608-12.739,14.233-32.334,14.232c-0.666,0-1.35-0.097-1.996,0.015
		c-10.689,1.852-18.514-3.064-25.368-10.525c-2.638-2.873-5.595-5.452-9.162-8.894c-3.414,9.381-0.034,19.378-7.65,26.164
		c-6.651,5.925-12.911,12.289-20.967,20.015c-0.543,13.182-0.566,28.821-1.974,44.335c-2.066,22.799-4.867,45.543-7.819,68.249
		c-3.857,29.674-8.845,59.156-17.503,87.887c-1.441,4.777-2.808,9.595-4.593,14.247c-7.839,20.433-21.488,34.998-41.357,44.992
		c-15.826,7.959-31.819,10.816-49.019,9.439c-2.269-0.182-5.035-0.114-6.668-1.354c-13.738-10.43-29.824-17.708-41.361-31.126
		c-4.091-4.758-6.674-9.725-6.832-16.077c-0.569-22.939-1.231-45.878-1.983-68.813c-0.783-23.927,5.552-46.682,10.659-69.729
		c4.519-20.401,7.678-41.112,11.07-61.746c0.707-4.294,1.795-9.395-4.354-13.426c-22.685,23.762-47.824,44.653-79.203,56.752
		c-0.662,5.413-0.854,10.734-2.036,15.825c-2.011,8.665-7.27,15.527-13.368,21.844c-30.848,31.951-63.94,61.249-101.589,85.031
		c-32.147,20.308-66.203,36.872-101.364,51.339c-35.399,14.562-70.845,28.889-108.215,37.702
		c-38.831,9.156-77.999,16.436-117.802,19.794c-25.799,2.178-51.648,3.771-77.429,6.125c-29.579,2.702-59.162,2.019-88.775,1.307
		c-12.99-0.312-25.999,0.146-38.991-0.121c-24.938-0.512-49.898-0.786-74.801-2.077c-34.81-1.808-69.644-4.09-103.843-11.364
		c-34.767-7.395-69.752-14.041-103.353-26.083c-23.16-8.301-46.278-16.718-69.428-25.049c-0.884-0.317-1.898-0.27-2.975-0.408
		c-0.674,7.414-1.149,14.673-2.031,21.883c-1.449,11.856-2.448,23.834-4.918,35.489c-4.631,21.858-14.496,40.961-30.076,57.531
		c-13.781,14.658-29.793,25.484-47.848,33.565c-5.342,2.391-11.541,4.624-17.188,4.284c-30.234-1.814-59.54,4.021-89.103,8.802
		c-40.628,6.57-81.483,11.719-122.202,17.747c-17.737,2.625-35.438,5.606-53.046,8.984c-29.361,5.632-58.644,11.665-87.941,17.616
		c-33.872,6.882-67.989,12.171-102.384,15.527c-30.391,2.967-60.813,5.626-91.237,8.213c-25.467,2.165-51.023,3.429-76.427,6.147
		c-59.788,6.4-119.741,3.002-179.62,3.853c-40.611,0.577-81.245,1.865-121.832,1.037c-28.149-0.575-56.258-3.963-84.342-6.559
		c-21.479-1.987-42.893-4.695-64.333-7.099c-20.72-2.321-41.903-1.959-61.441-11.104c-2.535-1.186-5.871-0.747-8.844-0.893
		c-9.946-0.484-19.916-0.645-29.833-1.447c-4.212-0.342-8.74-1.182-12.409-3.137c-24.476-13.047-45.881-30.043-59.964-54.2
		c-9.193-15.77-15.024-33.324-18.463-51.43c-5.089-26.795-9.208-53.621-8.653-81.122c0.316-15.741,2.705-30.862,7.357-45.528
		c-6.954,2.712-13.574,5.242-20.155,7.873c-5.854,2.343-11.934,4.303-17.447,7.292c-21.203,11.495-44.524,17.477-66.792,26.184
		c-39.827,15.573-81.526,24.227-123.227,32.603c-28.666,5.757-57.801,8.083-87.039,9.759c-60.51,3.469-121.066,3.931-181.618,3.613
		c-36.519-0.191-72.993-2.968-109.258-7.612c-24.362-3.119-48.731-6.266-72.992-10.071c-56.579-8.873-110.028-27.836-162.47-50.333
		c-37.41-16.049-73.773-33.934-107.374-56.936c-34.17-23.394-65.102-50.654-92.95-81.35c-6.459-7.12-10.333-15.294-10.483-25.18
		c-0.034-2.225-1.493-5.131-3.25-6.481c-4.182-3.215-8.788-5.969-13.481-8.411c-26.369-13.729-48.458-32.669-68.234-55.73
		c-4.924,4.937-9.957,9.715-14.662,14.796c-3.138,3.388-6.485,5.234-11.298,4.952c-14.925-0.874-29.875-1.308-44.8-2.186
		c-5.743-0.338-10.364-2.956-14.912-6.921c-9.644-8.409-15.003-19.271-20.481-30.35c-2.743-5.548-6.015-11.263-10.408-15.488
		c-12.623-12.141-18.405-27.541-21.674-43.92c-2.867-14.357-2.109-28.977-1.033-43.662c1.178-16.076,0.269-32.305-1.031-48.691
		c-2.12,11.599-4.428,23.168-6.325,34.805c-5.18,31.788-9.83,63.624-12.462,95.778c-2.255,27.547-4.105,55.102-2.904,82.675
		c1.683,38.553,6.531,76.775,16.665,114.135c6.875,25.345,7.988,51.149,7.191,77.186c-0.131,4.297-1.631,7.515-4.552,10.618
		c-13.048,13.865-12.994,13.458-32.677,14.125c-9.732,0.33-17.486-2.129-24.209-9.063c-7.871-8.118-17.296-15.048-23.761-24.122
		c-6.452-9.055-11.07-19.777-14.753-30.375c-10.728-30.872-16.647-62.872-20.753-95.268c-6.335-49.987-6.49-100.203-5.903-150.433
		c0.408-34.914,3.954-69.61,8.984-104.157c5.464-37.521,12.987-74.596,23.052-111.173c10.338-37.566,22.967-74.3,39.743-109.482
		c8.299-17.405,17.525-34.375,26.624-51.387c6.079-11.362,16.135-19.229,26.292-27.989c-6.782-5.889-10.213-13.571-13.735-21.48
		c-2.152-4.835-7.372-8.469-11.633-12.159c-5.247-4.545-6.961-9.972-6.855-16.789c0.299-19.303,0.104-38.611,0.104-58.214
		c-3.544-2.348-6.77-4.639-10.14-6.69c-18.153-11.051-32.448-26.486-47.103-41.488c-5.578-5.711-7.958-12.56-7.567-20.863
		c0.733-15.563-0.318-31.024,4.276-46.477c6.813-22.909,33.599-43.411,57.965-42.508c14.585,0.54,29.187,0.625,44.885,0.937
		c4.876-15.19,17.613-25.82,30.117-35.868c18.333-14.729,39.985-22.296,63.776-22.281c11.611,0.007,23.263,0.365,34.809,1.466
		c3.913,0.373,8.125,2.861,11.211,5.526c6.288,5.433,12.121,11.446,17.738,17.588c6.466,7.069,10.271,15.348,10.038,25.256
		c-0.212,8.984-0.045,17.978-0.045,27.631c4.246-0.822,5.137-4.341,6.723-6.791c14.097-21.784,27.481-44.051,42.188-65.41
		c19.625-28.503,40.247-56.32,60.438-84.434c1.92-2.672,3.821-5.356,6.282-8.809c-14.852-2.551-24.958-11.355-34.501-21.318
		c-5.485-5.725-12.05-10.403-17.682-16.001c-4.451-4.425-8.892-9.136-12.066-14.476c-2.231-3.752-3.049-8.745-3.24-13.237
		c-0.592-13.969-0.779-27.964-0.702-41.947c0.026-4.851-1.807-7.716-5.477-10.781c-8.667-7.241-16.88-15.05-24.956-22.958
		c-2.268-2.219-4.54-5.445-4.894-8.437c-2.032-17.144-4.18-34.383-0.047-51.516c0.752-3.114,2.222-6.538,4.439-8.729
		c9.696-9.578,19.674-18.88,29.788-28.02c4.608-4.165,10.326-5.558,16.641-5.379c10.324,0.293,20.667-0.126,30.99,0.164
		c5.241,0.147,10.457,1.187,14.936,1.733c8.303-9.732,16.225-19.041,24.184-28.317c1.082-1.261,2.358-2.354,3.534-3.535
		c9.579-9.631,20.456-15.669,34.727-13.394c3.9,0.623,8.002,0.343,11.979,0.043c7.864-0.594,15.223,0.543,21.961,5.897
		c2.149-1.938,4.217-3.527,5.958-5.417c21.855-23.731,43.14-48.016,65.608-71.151c33.944-34.955,71.744-65.456,111.841-93.111
		c2.466-1.7,4.953-3.379,7.32-5.21c9.781-7.561,20.644-11.924,33.187-11.601c4.33,0.111,8.801,0.705,12.974-0.114
		c19.082-3.745,28.106,9.485,37.781,21.776c0.411,0.522,1.068,1.091,1.082,1.652c0.271,11.281,1.344,22.65,0.246,33.806
		c-0.445,4.515-5.132,9.106-8.827,12.699c-6.411,6.233-13.575,11.688-20.38,17.519c-25.5,21.845-51.238,43.42-76.39,65.66
		c-19.185,16.963-37.909,34.474-56.297,52.299c-16.711,16.198-32.713,33.129-48.969,49.794c-1.835,1.879-3.296,4.124-5.752,7.239
		c10.084,4.61,19.58,8.95,29.819,13.631c5.076-4.403,10.274-8.96,15.525-13.458c18.743-16.051,38.464-30.689,60.181-42.577
		c6.62-3.625,13.221-5.774,20.872-5.369c13.597,0.719,27.23,0.738,40.825,1.473c3.715,0.2,7.351,1.903,11.988,3.183
		c1.854-1.762,4.457-4.279,7.104-6.747c19.712-18.374,39.459-36.712,59.138-55.122c5.612-5.25,11.83-7.964,19.797-7.481
		c11.624,0.704,23.298,0.711,34.95,0.711c3.966,0,7.056,1.005,9.653,4.045c4.517,5.286,9.892,9.976,13.659,15.733
		c5.91,9.032,7.464,19.233,8.202,30.224c1.277,19.044-5.694,34.759-16.785,48.578c-23.932,29.816-48.899,58.801-73.459,88.112
		C1092.195,990.194,1085.976,997.482,1079.069,1005.644z M3580.643,1661.446c-6.571,4.387-13.574,7.51-18.481,12.639
		c-13.371,13.973-29.828,23.312-46.269,32.668c-30.417,17.309-62.581,31.014-94.726,44.697
		c-38.363,16.331-77.758,29.197-119.258,34.886c-12.056,1.653-24.061,3.694-36.279,5.588c6.281,8.875,12.615,16.853,17.851,25.494
		c5.214,8.608,9.326,17.884,14.056,27.128c3.864-3.286,7.461-7.443,11.968-9.979c14.781-8.317,29.826-16.248,47.836-13.169
		c1.944,0.332,4.015-0.129,5.984,0.113c2.279,0.281,4.885,0.353,6.706,1.519c11.414,7.313,24.415,12.339,33.448,23.133
		c3.97,4.743,8.205,9.264,12.255,13.811c34.342-20.365,43.417-29.012,78.642-26.535c0.331,0.023,0.686-0.069,0.996,0.016
		c4.399,1.197,9.156,1.717,13.113,3.774c8.547,4.446,16.662,9.719,25.002,14.57c1.675,0.975,3.9,2.637,5.299,2.188
		c10.101-3.23,20.106-6.786,29.998-10.614c1.546-0.598,2.638-2.97,3.462-4.744c7.26-15.63,14.412-31.311,21.371-46.484
		c-1.824-2.785-2.767-4.563-4.018-6.087c-20.415-24.865-23.072-53.759-18.318-83.952
		C3573.385,1688.732,3577.312,1675.646,3580.643,1661.446z M3949.487,1358.258c-6.149-15.097-12.331-29.396-17.808-43.961
		c-5.426-14.428-11.973-28.146-22.018-39.943c-15.724-18.465-31.08-37.282-47.553-55.061c-11.76-12.691-25.361-23.557-41.863-29.972
		c-16.799-6.532-26.829-19.481-34.32-35.9c-8.655,4.871-17.551,9.876-25.475,14.334c3.085,12.52,5.79,24.047,8.854,35.479
		c0.616,2.298,2.256,4.573,3.995,6.277c10.208,10.006,20.717,19.709,30.849,29.792c4.677,4.654,8.479,10.182,13.107,14.891
		c14.912,15.172,30.745,29.385,42.495,47.522c9.571,14.772,20.446,28.706,30.893,42.903c4.478,6.088,7.535,12.386,6.615,20.271
		c-0.489,4.188-0.087,8.481-0.087,14.438C3915.426,1371.977,3932.174,1365.231,3949.487,1358.258z M3016.379,1879.977
		c10.142-6.761,20.548-7.616,31.22-8.033c8.505-0.332,17.274,0.326,25.24-4.189c2.185-1.238,5.13-1.538,7.734-1.565
		c19.271-0.203,38.524-0.9,57.421,4.711c8.866,2.633,18.201,1.452,27.047,0.683c5.899-38.671,9.253-50.067,21.651-72.797
		c-6.173,1.461-11.214,2.371-16.077,3.866c-9.514,2.923-18.781,6.748-28.412,9.161c-17.35,4.345-35.142,1.731-52.74,2.157
		c-2.184,0.053-4.889-0.631-6.52-1.979c-7.915-6.544-17.195-6.479-26.513-5.82c-10.784,0.763-19.391-3.772-27.206-10.371
		c-3.298-2.785-6.047-6.213-9.271-9.095c-3.208-2.867-4.586-6.233-4.776-10.518c-0.109-2.444-0.691-5.972-2.342-7.053
		c-7.558-4.947-15.568-9.202-25.446-14.871C3000.323,1796.801,3015.256,1836.26,3016.379,1879.977z M913.506,1218.05
		c0.409,0.426,0.818,0.852,1.227,1.278c5.978-4.59,12.007-9.115,17.901-13.811c1.8-1.435,3.619-3.113,4.752-5.072
		c4.473-7.73,8.785-15.561,12.853-23.51c0.549-1.071-0.632-3.027-1.57-6.845C936.061,1187.289,924.783,1202.669,913.506,1218.05z
		 M2999.01,2032.762c-0.784-0.253-1.569-0.507-2.354-0.76c-1.472,3.089-4.64,6.516-4.102,9.203
		c1.675,8.38,4.533,16.578,10.477,24.589C3001.591,2053.961,3000.3,2043.362,2999.01,2032.762z M4051.519,1626.937
		c-2.679-6.864-4.681-11.996-6.684-17.129C4044.338,1616.098,4041.744,1623.146,4051.519,1626.937z M4035.787,1581.448
		c-2.256-6.228-4.513-12.455-6.769-18.683c-0.616,0.216-1.232,0.432-1.848,0.647
		C4028.412,1569.991,4030.158,1576.394,4035.787,1581.448z M2902.469,1656.946c-1.05,8.493-1.05,8.493,6.775,7.828
		C2907.209,1662.425,2904.957,1659.822,2902.469,1656.946z"/>
	<path fill-rule="evenodd" fill="#FFFFFF" d="M3580.643,1661.446c-3.331,14.2-7.258,27.286-9.362,40.659
		c-4.754,30.193-2.097,59.087,18.318,83.952c1.251,1.524,2.193,3.302,4.018,6.087c-6.959,15.174-14.111,30.854-21.371,46.484
		c-0.824,1.774-1.916,4.146-3.462,4.744c-9.892,3.828-19.897,7.384-29.998,10.614c-1.398,0.448-3.624-1.214-5.299-2.188
		c-8.34-4.852-16.455-10.124-25.002-14.57c-3.957-2.058-8.714-2.577-13.113-3.774c-0.311-0.085-0.665,0.008-0.996-0.016
		c-35.225-2.477-44.3,6.17-78.642,26.535c-4.05-4.547-8.285-9.067-12.255-13.811c-9.033-10.794-22.034-15.819-33.448-23.133
		c-1.821-1.166-4.427-1.237-6.706-1.519c-1.97-0.242-4.04,0.219-5.984-0.113c-18.01-3.079-33.055,4.852-47.836,13.169
		c-4.507,2.535-8.104,6.692-11.968,9.979c-4.729-9.244-8.842-18.52-14.056-27.128c-5.235-8.642-11.569-16.619-17.851-25.494
		c12.219-1.894,24.224-3.935,36.279-5.588c41.5-5.688,80.895-18.555,119.258-34.886c32.145-13.684,64.309-27.389,94.726-44.697
		c16.44-9.356,32.897-18.695,46.269-32.668C3567.068,1668.956,3574.071,1665.833,3580.643,1661.446z"/>
	<path fill-rule="evenodd" fill="#FFFFFF" d="M3949.487,1358.258c-17.313,6.974-34.062,13.719-52.315,21.071
		c0-5.956-0.402-10.249,0.087-14.438c0.92-7.886-2.138-14.184-6.615-20.271c-10.446-14.197-21.321-28.131-30.893-42.903
		c-11.75-18.138-27.583-32.351-42.495-47.522c-4.629-4.708-8.431-10.237-13.107-14.891c-10.132-10.083-20.641-19.786-30.849-29.792
		c-1.739-1.704-3.379-3.979-3.995-6.277c-3.063-11.432-5.769-22.959-8.854-35.479c7.924-4.458,16.819-9.463,25.475-14.334
		c7.491,16.419,17.521,29.368,34.32,35.9c16.502,6.415,30.104,17.281,41.863,29.972c16.473,17.778,31.829,36.595,47.553,55.061
		c10.045,11.796,16.592,25.515,22.018,39.943C3937.156,1328.861,3943.338,1343.161,3949.487,1358.258z"/>
	<path fill-rule="evenodd" fill="#FFFFFF" d="M3016.379,1879.977c-1.123-43.717-16.056-83.176-28.99-125.714
		c9.878,5.669,17.889,9.924,25.446,14.871c1.65,1.081,2.232,4.608,2.342,7.053c0.19,4.284,1.568,7.65,4.776,10.518
		c3.225,2.882,5.974,6.31,9.271,9.095c7.815,6.599,16.422,11.134,27.206,10.371c9.317-0.659,18.598-0.724,26.513,5.82
		c1.631,1.349,4.336,2.032,6.52,1.979c17.599-0.426,35.391,2.188,52.74-2.157c9.631-2.413,18.898-6.238,28.412-9.161
		c4.863-1.495,9.904-2.405,16.077-3.866c-12.398,22.729-15.752,34.126-21.651,72.797c-8.846,0.77-18.181,1.95-27.047-0.683
		c-18.896-5.611-38.149-4.914-57.421-4.711c-2.604,0.027-5.55,0.327-7.734,1.565c-7.966,4.516-16.735,3.857-25.24,4.189
		C3036.927,1872.36,3026.521,1873.216,3016.379,1879.977z"/>
	<path fill-rule="evenodd" fill="#FFFFFF" d="M913.506,1218.05c11.277-15.381,22.555-30.762,35.163-47.958
		c0.938,3.818,2.119,5.773,1.57,6.845c-4.068,7.949-8.38,15.779-12.853,23.51c-1.134,1.958-2.952,3.637-4.752,5.072
		c-5.894,4.695-11.923,9.22-17.901,13.811C914.324,1218.902,913.915,1218.476,913.506,1218.05z"/>
	<path fill-rule="evenodd" fill="#FFFFFF" d="M2999.01,2032.762c1.29,10.601,2.581,21.199,4.021,33.032
		c-5.943-8.011-8.802-16.209-10.477-24.589c-0.538-2.688,2.63-6.114,4.102-9.203
		C2997.44,2032.255,2998.226,2032.509,2999.01,2032.762z"/>
	<path fill-rule="evenodd" fill="#FFFFFF" d="M4051.519,1626.937c-9.774-3.791-7.181-10.839-6.684-17.129
		C4046.838,1614.94,4048.84,1620.072,4051.519,1626.937z"/>
	<path fill-rule="evenodd" fill="#FFFFFF" d="M4035.787,1581.448c-5.629-5.055-7.375-11.457-8.616-18.035
		c0.615-0.216,1.231-0.432,1.848-0.647C4031.274,1568.993,4033.531,1575.221,4035.787,1581.448z"/>
	<path fill-rule="evenodd" fill="#FFFFFF" d="M2902.469,1656.946c2.488,2.876,4.74,5.479,6.775,7.828
		C2901.419,1665.439,2901.419,1665.439,2902.469,1656.946z"/>
</g>
</svg>
