<?xml version="1.0" encoding="utf-8"?>
<!-- Generator: Adobe Illustrator 16.0.2, SVG Export Plug-In . SVG Version: 6.00 Build 0)  -->
<!DOCTYPE svg PUBLIC "-//W3C//DTD SVG 1.1 Tiny//EN" "http://www.w3.org/Graphics/SVG/1.1/DTD/svg11-tiny.dtd">
<svg version="1.1" baseProfile="tiny" id="Layer_1" xmlns="http://www.w3.org/2000/svg" xmlns:xlink="http://www.w3.org/1999/xlink"
	 x="0px" y="0px" width="4165.479px" height="3110.611px" viewBox="0 0 4165.479 3110.611" xml:space="preserve">
<g>
	<path fill-rule="evenodd" fill="#FFFFFF" d="M2,3113.611C2,2076.407,2,1039.203,2,2c1389.159,0,2778.319,0,4167.479,0
		c0,1037.203,0,2074.407,0,3111.611C2780.319,3113.611,1391.159,3113.611,2,3113.611z M3101.786,2460.369
		c4.023,2.737,6.662,4.728,9.481,6.416c13.91,8.333,27.52,17.264,41.917,24.657c12.032,6.18,24.756,11.289,37.626,15.493
		c15.662,5.118,30.51,13.226,47.516,13.855c6.64,0.245,13.276,0.736,19.895,1.334c30.281,2.731,60.392,1.765,90.361-3.602
		c20.478-3.667,39.158-12.509,58.282-20.014c7.371-2.892,14.536-6.683,21.145-11.047c7.942-5.245,15.192-11.538,23.485-17.953
		c4.195,4.408,7.975,9.149,12.509,13.002c14.127,12.009,26.33,26.405,43.188,35.059c5.609,2.879,10.932,6.437,16.754,8.76
		c12.926,5.157,26.088,10.055,40.077,11.086c15.837,1.168,31.746,1.499,47.498-1.066c7.152,8.087,13.864,16.338,21.288,23.887
		c7.451,7.576,15.647,14.417,23.451,21.651c4.877,4.521,9.794,9.017,14.4,13.805c7.376,7.666,14.277,15.802,21.822,23.293
		c6.046,6.005,13.223,9.753,22.349,9.123c7.63-0.525,15.331-0.317,22.988-0.065c18.302,0.602,34.79-6.033,50.071-14.586
		c11.446-6.406,21.669-15.402,31.4-24.368c13.912-12.817,26.285-27.003,36.456-43.259c5.715-9.135,13.672-17.219,21.853-24.362
		c8.491-7.413,12.272-18.168,21.899-25.153c11.86-8.606,22.953-19.354,27.548-34.548c0.756-2.497,2.606-4.64,3.706-7.059
		c9.938-21.884,19.271-43.912,16.459-68.867c-0.334-2.963,0.186-6.019-0.112-8.987c-0.362-3.615-0.408-7.554-1.931-10.705
		c-4.895-10.136-9.927-20.27-15.797-29.859c-8.114-13.255-16.79-26.188-25.694-38.931c-6.846-9.797-13.791-19.654-21.785-28.495
		c-21.872-24.19-41.417-50.122-59.668-77.076c-1.152-1.702-1.869-4.229-1.645-6.245c1.247-11.206,2.899-22.366,4.316-33.554
		c2.875-22.711,6.745-45.359,8.283-68.162c2.284-33.896,0.361-67.834-2.092-101.724c-1.101-15.215-1.105-30.515-1.393-45.78
		c-0.318-16.98-0.031-33.979-0.683-50.942c-0.561-14.579-3.075-29.132-2.938-43.679c0.24-25.478-3.414-50.464-9.004-75.035
		c-5.147-22.618-12.429-44.782-19.427-66.938c-8.992-28.476-18.706-56.721-27.955-85.115c-2.153-6.61-2.969-13.725-5.642-20.085
		c-10.662-25.377-21.208-50.834-32.968-75.708c-10.491-22.188-21.874-44.018-34.043-65.331
		c-16.119-28.232-32.504-56.392-50.43-83.489c-15.903-24.042-33.669-46.901-51.362-69.702
		c-14.031-18.081-29.471-35.062-43.785-52.931c-16.544-20.651-36.271-38.046-56.352-54.9c-21.34-17.91-43.584-34.806-66.126-51.191
		c-12.281-8.928-25.865-16.114-39.117-23.637c-9.79-5.559-20.111-10.175-29.983-15.603c-12.244-6.731-24.454-13.464-38.214-16.652
		c-12.599-2.919-25.138-6.209-37.853-8.501c-29.674-5.347-59.296-11.467-89.215-14.807c-20.983-2.342-42.421-0.682-63.657-0.666
		c-6.575,0.005-13.15,0.715-19.724,0.69c-22.643-0.083-45.284-0.368-67.927-0.501c-1.618-0.01-3.232,0.633-4.862,0.89
		c-16.374,2.575-32.731,5.252-49.129,7.663c-17.68,2.6-35.469,4.528-53.079,7.521c-16.314,2.772-32.448,6.595-48.675,9.896
		c-12.007,2.441-24.064,4.636-36.041,7.215c-12.3,2.648-24.407,6.473-36.816,8.282c-22.517,3.284-43.657,11.098-65.123,17.938
		c-10.967,3.495-21.965,6.895-34.265,10.75c1.599-8.929,3.034-16.936,4.429-24.718c5.731-2.606,10.678-5.466,15.994-7.165
		c19.592-6.255,39.37-11.922,58.951-18.203c17.667-5.667,35.148-11.909,52.748-17.785c18.083-6.039,34.224-15.992,50.714-25.193
		c6.059-3.38,12.177-7.219,17.037-12.079c17.401-17.393,34.553-35.058,51.239-53.135c9.313-10.09,13.904-22.555,13.521-36.503
		c-0.594-21.605-0.647-43.251-2.112-64.8c-2.082-30.634-14.284-57.045-36.183-78.747c-8.451-8.375-17.247-16.402-25.686-24.789
		c-2.795-2.777-4.664-6.484-7.467-9.251c-13.71-13.544-27.086-27.495-41.577-40.16c-11.443-10.004-23.787-19.243-36.721-27.213
		c-16.938-10.438-35.158-18.597-54.158-24.834c-2.781-0.913-5.478-2.404-7.878-4.103c-13.536-9.584-27.136-19.095-40.399-29.049
		c-19.133-14.358-38.478-28.497-56.859-43.779c-25.574-21.262-52.502-40.621-79.601-59.81c-3.069-2.174-5.96-5.248-7.685-8.557
		c-5.522-10.595-10.076-21.699-15.702-32.234c-10.448-19.569-20.563-39.394-32.336-58.159
		c-15.066-24.014-29.426-48.188-37.891-75.452c-1.656-5.336-3.506-10.698-6.022-15.666c-9.338-18.434-22.161-34.52-35.438-50.156
		c-5.987-7.051-13.338-12.973-20.272-19.181c-4.915-4.401-10.203-8.385-15.268-12.625c-5.578-4.674-10.603-10.227-16.74-13.968
		c-9.997-6.095-20.849-9.409-33.103-8.997c-24.96,0.839-49.958,0.622-74.94,0.722c-21.641,0.087-43.285-0.26-64.919,0.093
		c-16.238,0.265-32.465,1.303-48.693,2.072c-3.742,0.177-7.059-0.036-10.058-2.962c-5.421-5.291-11.328-10.078-16.859-15.261
		c-17.965-16.834-36.225-33.378-53.666-50.741c-18.485-18.402-39.744-31.66-64.292-40.501c-17.541-6.317-35.467-7.146-53.04-4.127
		c-18.794,3.228-37.021,9.78-55.472,14.969c-2.215,0.623-4.465,1.51-6.377,2.765c-9.53,6.257-19.898,10.376-30.777,13.738
		c-5.511,1.703-10.49,5.433-15.391,8.72c-4.929,3.306-9.003,8.194-14.264,10.634c-11.62,5.39-23.224,11.098-30.603,21.62
		c-8.337,11.886-19.092,11.579-31.402,10.406c-23.447-2.235-46.965-4.696-70.479-4.995c-28.915-0.368-57.926-2.133-86.804,1.567
		c-15.153,1.942-28.802,7.53-41.104,16.448c-10.483,7.601-20.643,15.659-31.276,23.04c-21.938,15.227-42.12,32.512-60.489,51.81
		c-21.074,22.138-41.288,45.097-62.472,67.126c-10.881,11.316-20.118,23.815-29.082,36.502
		c-14.131,20.001-27.628,40.461-41.035,60.961c-9.438,14.432-18.713,29.006-27.29,43.958c-13.354,23.282-26.016,46.96-39.041,70.432
		c-9.835,17.724-20.581,34.997-29.464,53.183c-10.174,20.833-18.83,42.413-27.96,63.748c-4.08,9.532-8.805,18.58-15.58,26.531
		c-4.263,5.003-8.162,10.322-12.135,15.567c-17.688,23.355-34.259,47.602-43.857,75.401c-7.421,21.492-17.74,41.52-27.156,62.007
		c-6.685,14.546-10.475,29.268-9.443,45.342c0.596,9.293,0.435,18.67,0.032,27.985c-0.616,14.287,3.767,26.712,12.098,38.173
		c2.188,3.009,3.138,7.149,3.873,10.922c0.884,4.542,0.963,9.245,1.332,13.883c0.468,5.881,2.81,10.577,7.373,14.591
		c6.741,5.932,13.006,12.409,19.394,18.734c1.204,1.192,2.031,2.764,3.593,4.943c-14.953-1.833-28.677-4.682-42.457-4.979
		c-37.297-0.804-74.633-1.194-111.924-0.376c-17.458,0.382-34.877,3.697-52.258,6.09c-26.917,3.706-53.792,7.709-80.667,11.71
		c-4.905,0.731-9.838,1.689-14.561,3.175c-15.461,4.87-30.954,9.691-46.196,15.189c-11.855,4.277-23.569,9.082-34.966,14.455
		c-21.565,10.167-43.075,20.497-64.188,31.558c-15.254,7.991-30.779,16.011-44.473,26.295
		c-18.024,13.537-35.959,27.498-51.169,44.421c-11.769,13.093-23.332,26.377-35.344,39.243
		c-19.077,20.433-38.563,40.484-57.651,60.907c-8.166,8.738-16.06,17.769-23.56,27.084c-12.673,15.741-25.221,31.601-37.281,47.813
		c-10.087,13.561-20.063,27.291-28.909,41.67c-13.903,22.603-26.222,46.186-40.308,68.667
		c-15.196,24.253-28.619,49.363-40.049,75.528c-12.229,27.996-24.424,56.03-35.59,84.457c-8.963,22.815-16.879,46.004-23.223,69.819
		c-11.618,43.621-26.236,86.388-33.972,131.092c-6.34,36.642-16.501,72.69-14.756,110.39c0.016,0.332-0.013,0.665-0.028,0.998
		c-1.092,23.557-2.63,47.104-3.168,70.673c-0.683,29.973-0.68,59.963-0.725,89.945c-0.022,14.648-0.033,29.335,0.934,43.938
		c1.314,19.857,3.712,39.64,5.267,59.485c0.23,2.934-0.714,6.9-2.649,8.913c-13.376,13.916-25.054,29.067-35.899,45.027
		c-14.889,21.911-30.636,43.237-45.81,64.957c-4.177,5.979-7.992,12.276-7.907,20.088c0.116,10.664-0.172,21.335,0.119,31.993
		c0.199,7.28,0.296,14.715,1.845,21.772c2.838,12.932,6.607,25.666,10.196,38.423c2.646,9.404,7.173,17.801,13.863,25.065
		c9.007,9.782,17.815,19.747,26.634,29.701c6.389,7.212,12.393,14.783,19.042,21.743c8.958,9.377,18.415,18.275,27.58,27.458
		c16.433,16.463,32.673,33.121,49.277,49.409c6.156,6.04,13.417,10.95,19.6,16.967c5.401,5.256,10.929,9.161,18.715,10.333
		c12.669,1.908,25.449,2.684,38.126,4.984c10.92,1.981,22.566,0.222,33.871-0.33c3.106-0.151,6.762-1.141,9.087-3.055
		c9.226-7.597,18.486-15.254,26.88-23.733c14.927-15.077,29.232-30.769,43.956-46.368c4.379,0,9.385-0.386,14.314,0.063
		c28.306,2.583,56.329,2.542,83.727-6.679c14.924-5.023,29.23-10.842,40.113-22.873c1.729-1.911,3.902-3.421,5.936-5.172
		c1.43,1.179,2.436,2.037,3.471,2.858c16.274,12.908,33.548,23.821,54.445,27.662c22.132,4.068,44.205,8.485,66.392,12.215
		c8.475,1.425,17.256,0.935,25.797,2.069c21.979,2.921,43.818,0.595,65.603-1.613c16.792-1.702,33.392-5.281,50.183-7.002
		c18.053-1.85,35.474-6.149,51.822-13.512c18.708-8.428,36.773-18.328,54.868-28.055c6.282-3.378,11.816-8.146,17.869-12.404
		c4.013,5.222,7.615,9.571,10.854,14.178c19.048,27.084,37.308,54.758,57.206,81.201c19.153,25.455,39.837,49.766,60.105,74.369
		c11.765,14.281,23.749,28.405,36.153,42.133c14.48,16.026,29.899,31.228,40.637,50.279c2.066,3.668,4.709,7.012,6.659,9.877
		c-9.942,16.156-12.196,33.427-14.102,50.447c-1.438,12.836-0.729,25.983-0.18,38.958c0.808,19.1,6.013,36.556,21.162,49.717
		c5.273,4.58,10.129,9.644,15.437,14.181c3,2.564,6.257,5.299,9.885,6.548c5.541,1.908,11.472,3.401,17.293,3.628
		c10.619,0.413,21.498,0.994,31.842-0.864c6.909-1.241,13.661-2.231,20.618-2.296c8.996-0.083,17.999-0.369,26.983-0.081
		c2.666,0.086,5.707,1.257,7.835,2.894c5.782,4.45,10.979,9.662,16.757,14.119c7.891,6.089,15.776,12.471,25.971,14.321
		c17.32,3.144,34.678,5.196,52.418,5.048c10.947-0.093,19.377-3.435,26.412-11.235c13.135-14.563,26.133-29.251,39.285-43.8
		c3.93-4.348,6.288-9.376,7.165-15.049c3.46-22.364,4.712-44.741,3.174-67.454c-1.459-21.529-5.994-42.005-14.432-61.749
		c-1.012-2.366-1.516-4.949-1.631-5.338c5.103-5.912,8.811-11.178,13.46-15.408c13.147-11.964,19.495-28.348,28.653-42.893
		c1.005-1.595,1.437-3.809,1.437-5.736c-0.004-17.561,2.102-35.358-6.084-52.002c-4.235-8.607-6.933-18.238-12.429-25.896
		c-7.71-10.742-17.024-20.424-26.295-29.932c-14.799-15.179-32.318-25.31-54.127-26.411c-1.628-0.082-3.264-0.511-4.845-0.962
		c-14.383-4.103-29.085-1.963-43.66-2.18c-1.902-0.027-4.2,0.535-5.673,1.662c-10.474,8.018-23.124,6.889-35.683,9.249
		c-8.227-10.466-16.685-20.668-24.519-31.331c-10.4-14.155-20.31-28.671-30.435-43.03c-8.597-12.192-17.512-24.176-25.73-36.62
		c-12.598-19.076-24.728-38.462-37.04-57.726c-16.789-26.267-33.569-52.539-50.341-78.815
		c-19.451-30.474-39.187-60.772-58.241-91.493c-15.765-25.414-31.953-50.371-51.978-72.799c-16.09-18.021-30.872-37.205-46.4-55.732
		c-7.048-8.409-15.155-15.998-21.621-24.81c-11.14-15.181-25.122-27.51-38.557-40.39c-2.993-2.868-4.052-5.536-4.228-9.42
		c-0.722-15.933-1.369-31.884-2.808-47.759c-0.559-6.154-2.613-12.335-4.914-18.136c-5.437-13.714-14.425-25.339-23.199-37.011
		c-14.165-18.842-30.339-35.112-53.195-43.631c-8.926-3.326-17.249-8.401-25.599-13.115c-18.18-10.263-36.867-18.184-58.436-17.328
		c-14.882,0.59-29.806,0.113-45.2,0.113c0.958-12.11,2.222-23.328,2.629-34.578c0.397-10.972,0.661-22.052-0.438-32.939
		c-0.726-7.185-0.652-13.828,1.967-20.49c6.557-16.67,7.903-34.261,8.461-51.863c0.259-8.194,2.028-15.646,5.292-23.069
		c6.802-15.472,13.135-31.147,19.823-46.671c1.559-3.622,3.154-7.534,5.771-10.346c14.499-15.578,29.008-31.17,44.123-46.144
		c13.075-12.952,28.195-22.963,45.768-29.304c20.302-7.325,40.399-15.245,60.411-23.34c18.443-7.46,36.384-16.494,56.924-16.565
		c14.249-0.049,28.499,0.062,42.746,0.279c15.481,0.236,29.884,5.679,44.606,9.561c17.119,4.514,33.501,10.949,48.111,20.954
		c11.002,7.534,22.028,14.688,34.72,19.087c2.693,0.933,4.963,3.154,7.353,4.887c5.145,3.729,10.241,7.527,16.162,11.891
		c-0.52,11.161-1.542,23.743-1.612,36.331c-0.219,39.66-0.606,79.332,0.136,118.979c0.386,20.545,2.924,41.057,4.696,61.566
		c0.464,5.368,3.277,9.543,6.89,13.806c7.582,8.942,16.425,13.057,28.04,11.354c2.284-0.334,4.666-0.156,6.991-0.028
		c8.445,0.465,16.202-1.279,24.097-4.731c18.252-7.979,36.861-15.069,56.455-19.421c39.72-8.82,79.857-13.628,120.543-13.865
		c7.996-0.047,16.014,0.225,23.984-0.265c28.827-1.769,57.617-4.314,86.464-5.545c18.275-0.779,36.627,0.311,54.945,0.418
		c2.926,0.017,7.157,0.349,8.546-1.324c4.739-5.703,11.25-5.479,17.277-6.163c4.816-0.545,7.76-3.006,10.998-5.968
		c2.321-2.123,5.391-4.878,8.115-4.866c15.271,0.07,30.656-0.084,45.781,1.701c20.759,2.451,41.226,7.511,62.002,9.644
		c14.169,1.455,25.736,5.084,32.638,18.352c0.445,0.855,1.308,1.5,1.993,2.226c22.617,23.956,45.177,47.965,67.909,71.811
		c3.88,4.07,8.17,7.924,12.829,11.044c16.806,11.252,33.285,22.96,52.342,30.576c10.71,4.28,21.317,7.186,32.819,7.037
		c9.997-0.13,19.999,0.071,29.995-0.054c11.509-0.144,22.196-3.057,32.213-8.996c7.653-4.537,15.574-8.848,23.844-12.047
		c7.042-2.725,14.904-3.252,22.124-5.607c7.501-2.447,14.871-5.514,21.939-9.029c16.287-8.101,30.797-19.519,48.412-25.254
		c6.847-2.23,13.743-5.386,19.523-9.614c19.018-13.914,37.435-28.646,56.338-42.724c3.251-2.419,7.757-4.499,11.667-4.473
		c33.954,0.235,67.79-1.71,101.633-4.127c24.174-1.726,48.405-2.628,72.604-4.017c4.119-0.236,8.241,0.759,8.782,4.752
		c1.178,8.7,8.37,12.423,13.284,17.996c1.382,1.566,3.928,3.009,5.923,2.987c12.961-0.142,26.045,0.301,38.849-1.329
		c29.963-3.814,59.736-9.109,89.689-13.006c25.663-3.338,51.47-5.576,77.213-8.285c29.075-3.062,58.167-6.154,87.448-5.772
		c22.275,0.29,44.541,1.304,66.813,1.868c2.919,0.074,6.798,0.474,8.627-1.12c9.439-8.218,19.402-15.889,18.499-30.988
		c-1.25-20.901-1.264-41.887-1.49-62.84c-0.467-43.229-0.724-86.461-1.074-130.621c6.447-1.761,13.945-4.234,21.629-5.806
		c11.371-2.328,22.939-3.704,34.308-6.047c19.116-3.939,38.013-9.072,57.235-12.324c24.16-4.087,48.481-7.607,72.874-9.804
		c16.529-1.488,33.301-0.313,49.964-0.231c2.649,0.013,5.356,0.286,7.933,0.887c11.307,2.64,22.869,4.605,33.769,8.439
		c9.537,3.355,19.455,5.649,28.125,12.031c15.619,11.496,29.692,24.608,43.396,38.142c7.032,6.944,13.739,14.529,19.083,22.801
		c8.605,13.319,15.387,27.819,24.022,41.117c7.271,11.2,12.476,23.374,18.945,34.908c8.204,14.628,9.058,31.151,13.441,46.742
		c1.681,5.977,1.828,12.442,2.209,18.715c0.846,13.924,1.227,27.877,2.142,41.795c0.449,6.843,1.666,13.635,2.771,22.292
		c-6.209-2.248-10.916-4.681-15.904-5.632c-20.745-3.952-42.047-5.31-62.293,0.125c-26.225,7.041-47.775,22.978-65.219,43.83
		c-7.414,8.861-15.398,17.901-20.104,28.235c-8.762,19.245-16.52,39.035-19.73,60.333c-1.255,8.316-3.438,17.077-9.673,23.578
		c-8.521,8.887-17.434,17.396-26.055,26.188c-9.791,9.986-19.802,19.788-29.074,30.242c-13.182,14.863-25.391,30.597-38.72,45.321
		c-16.742,18.494-33.994,36.541-51.396,54.42c-22.344,22.958-40.878,48.904-59.667,74.669
		c-10.711,14.688-21.216,29.526-31.876,44.253c-7.586,10.481-15.512,20.724-22.849,31.373c-7.671,11.136-14.696,22.713-22.223,33.95
		c-13.466,20.104-27.335,39.943-40.583,60.188c-10.157,15.521-19.505,31.568-29.431,47.244c-7.27,11.479-14.94,22.706-22.342,34.105
		c-9.22,14.201-17.807,28.849-27.651,42.601c-11.582,16.18-22.923,32.418-31.969,50.2c-2.366,4.654-5.755,8.79-8.546,12.972
		c-7.238-3.642-14.474-5.936-19.946-10.396c-6.023-4.907-12.254-6.063-19.377-5.942c-5.997,0.102-12.051-0.49-17.987,0.123
		c-18.802,1.939-36.184,6.738-50.229,21.064c-10.766,10.98-17.928,23.858-24.043,37.461c-3.649,8.118-7.209,16.787-8.161,25.499
		c-1.8,16.482-2.388,33.183-2.164,49.775c0.187,13.83,0.066,27.995,7.482,40.71c7.031,12.055,14.37,23.884,24.315,33.772
		c3.796,3.777,4.798,7.3,2.855,12.435c-9.845,26.023-15.199,52.702-14.528,80.848c0.455,19.13,4.614,36.249,17.303,50.56
		c8.287,9.349,15.561,20.481,28.637,23.918c7.618,2.002,15.6,3.521,23.437,3.61c16.609,0.189,33.23-0.977,49.849-1.052
		c12.605-0.058,23.341-3.949,32.534-12.619c4.293-4.049,9.139-7.513,13.813-11.305c3.726,3.597,7.123,6.723,10.348,10.016
		c22.498,22.97,51.03,24.702,80.553,22.915c0.928-0.055,1.869-0.657,2.714-1.158c9.421-5.591,19.296-10.409,26.861-18.795
		c12.701-14.077,26.221-27.442,38.423-41.928c4.96-5.888,9.441-13.633,10.475-21.044c1.686-12.078,1.256-24.658,0.117-36.877
		c-2.284-24.525-12.295-46.532-24.519-67.798c0.478-0.759,0.875-1.685,1.521-2.378c21.146-22.667,38.952-47.771,55.378-74.021
		c10.539-16.842,22.128-33.064,33.9-49.084c8.818-12.001,19.074-22.942,27.986-34.88c15.94-21.351,33.549-41.216,52.055-60.314
		c10.436-10.77,21.244-21.176,31.712-31.913C3079.666,2483.721,3090.331,2472.368,3101.786,2460.369z"/>
	<path fill-rule="evenodd" d="M3101.786,2460.369c-11.455,11.999-22.12,23.352-32.992,34.504
		c-10.468,10.737-21.276,21.144-31.712,31.913c-18.506,19.099-36.114,38.964-52.055,60.314
		c-8.912,11.938-19.168,22.879-27.986,34.88c-11.772,16.02-23.361,32.242-33.9,49.084c-16.426,26.249-34.232,51.354-55.378,74.021
		c-0.646,0.693-1.044,1.619-1.521,2.378c12.224,21.266,22.234,43.272,24.519,67.798c1.139,12.219,1.568,24.799-0.117,36.877
		c-1.033,7.411-5.515,15.156-10.475,21.044c-12.202,14.485-25.722,27.851-38.423,41.928c-7.565,8.386-17.44,13.204-26.861,18.795
		c-0.845,0.501-1.786,1.104-2.714,1.158c-29.522,1.787-58.055,0.055-80.553-22.915c-3.225-3.293-6.622-6.419-10.348-10.016
		c-4.674,3.792-9.52,7.256-13.813,11.305c-9.193,8.67-19.929,12.562-32.534,12.619c-16.618,0.075-33.239,1.241-49.849,1.052
		c-7.837-0.09-15.818-1.608-23.437-3.61c-13.076-3.437-20.35-14.569-28.637-23.918c-12.688-14.311-16.848-31.43-17.303-50.56
		c-0.671-28.146,4.684-54.824,14.528-80.848c1.942-5.135,0.94-8.657-2.855-12.435c-9.945-9.889-17.284-21.718-24.315-33.772
		c-7.416-12.715-7.296-26.88-7.482-40.71c-0.224-16.593,0.364-33.293,2.164-49.775c0.952-8.712,4.512-17.381,8.161-25.499
		c6.115-13.603,13.277-26.48,24.043-37.461c14.046-14.326,31.428-19.125,50.229-21.064c5.937-0.613,11.99-0.021,17.987-0.123
		c7.123-0.121,13.354,1.035,19.377,5.942c5.473,4.46,12.708,6.754,19.946,10.396c2.791-4.182,6.18-8.317,8.546-12.972
		c9.046-17.782,20.387-34.021,31.969-50.2c9.845-13.752,18.432-28.399,27.651-42.601c7.401-11.399,15.072-22.626,22.342-34.105
		c9.926-15.676,19.273-31.724,29.431-47.244c13.248-20.244,27.117-40.084,40.583-60.188c7.526-11.237,14.552-22.814,22.223-33.95
		c7.337-10.649,15.263-20.892,22.849-31.373c10.66-14.727,21.165-29.564,31.876-44.253c18.789-25.765,37.323-51.711,59.667-74.669
		c17.401-17.879,34.653-35.926,51.396-54.42c13.329-14.725,25.538-30.458,38.72-45.321c9.272-10.454,19.283-20.256,29.074-30.242
		c8.621-8.792,17.533-17.301,26.055-26.188c6.235-6.501,8.418-15.262,9.673-23.578c3.211-21.298,10.969-41.088,19.73-60.333
		c4.706-10.334,12.69-19.374,20.104-28.235c17.443-20.853,38.994-36.789,65.219-43.83c20.246-5.435,41.548-4.077,62.293-0.125
		c4.988,0.951,9.695,3.384,15.904,5.632c-1.105-8.657-2.322-15.449-2.771-22.292c-0.915-13.918-1.296-27.871-2.142-41.795
		c-0.381-6.272-0.528-12.738-2.209-18.715c-4.384-15.591-5.237-32.114-13.441-46.742c-6.47-11.534-11.674-23.708-18.945-34.908
		c-8.636-13.298-15.417-27.798-24.022-41.117c-5.344-8.271-12.051-15.856-19.083-22.801c-13.704-13.533-27.777-26.646-43.396-38.142
		c-8.67-6.382-18.588-8.676-28.125-12.031c-10.899-3.834-22.462-5.8-33.769-8.439c-2.576-0.602-5.283-0.875-7.933-0.887
		c-16.663-0.082-33.435-1.257-49.964,0.231c-24.393,2.196-48.714,5.716-72.874,9.804c-19.223,3.252-38.119,8.385-57.235,12.324
		c-11.368,2.343-22.937,3.719-34.308,6.047c-7.684,1.571-15.182,4.045-21.629,5.806c0.351,44.16,0.607,87.393,1.074,130.621
		c0.227,20.953,0.24,41.938,1.49,62.84c0.903,15.1-9.06,22.771-18.499,30.988c-1.829,1.594-5.708,1.194-8.627,1.12
		c-22.272-0.564-44.538-1.578-66.813-1.868c-29.281-0.382-58.373,2.711-87.448,5.772c-25.743,2.709-51.55,4.947-77.213,8.285
		c-29.953,3.896-59.727,9.191-89.689,13.006c-12.804,1.63-25.888,1.188-38.849,1.329c-1.995,0.021-4.541-1.421-5.923-2.987
		c-4.914-5.573-12.106-9.296-13.284-17.996c-0.541-3.993-4.663-4.988-8.782-4.752c-24.198,1.389-48.43,2.291-72.604,4.017
		c-33.843,2.417-67.679,4.362-101.633,4.127c-3.91-0.026-8.416,2.054-11.667,4.473c-18.903,14.077-37.32,28.81-56.338,42.724
		c-5.78,4.229-12.677,7.384-19.523,9.614c-17.615,5.735-32.125,17.153-48.412,25.254c-7.068,3.516-14.438,6.582-21.939,9.029
		c-7.22,2.355-15.082,2.883-22.124,5.607c-8.27,3.199-16.19,7.51-23.844,12.047c-10.018,5.939-20.704,8.853-32.213,8.996
		c-9.997,0.125-19.999-0.076-29.995,0.054c-11.502,0.148-22.109-2.757-32.819-7.037c-19.057-7.616-35.536-19.324-52.342-30.576
		c-4.659-3.12-8.948-6.974-12.829-11.044c-22.731-23.846-45.292-47.854-67.909-71.811c-0.685-0.726-1.547-1.37-1.993-2.226
		c-6.901-13.268-18.468-16.896-32.638-18.352c-20.776-2.133-41.243-7.192-62.002-9.644c-15.125-1.785-30.51-1.631-45.781-1.701
		c-2.724-0.012-5.794,2.743-8.115,4.866c-3.238,2.962-6.182,5.423-10.998,5.968c-6.027,0.684-12.539,0.46-17.277,6.163
		c-1.389,1.673-5.62,1.341-8.546,1.324c-18.318-0.107-36.67-1.197-54.945-0.418c-28.848,1.23-57.637,3.776-86.464,5.545
		c-7.971,0.489-15.988,0.218-23.984,0.265c-40.687,0.237-80.823,5.045-120.543,13.865c-19.594,4.352-38.203,11.441-56.455,19.421
		c-7.895,3.452-15.651,5.196-24.097,4.731c-2.326-0.128-4.708-0.306-6.991,0.028c-11.615,1.703-20.458-2.411-28.04-11.354
		c-3.613-4.263-6.426-8.438-6.89-13.806c-1.771-20.51-4.31-41.021-4.696-61.566c-0.742-39.647-0.354-79.319-0.136-118.979
		c0.07-12.588,1.093-25.17,1.612-36.331c-5.921-4.363-11.017-8.161-16.162-11.891c-2.389-1.732-4.66-3.954-7.353-4.887
		c-12.692-4.398-23.718-11.553-34.72-19.087c-14.61-10.005-30.992-16.439-48.111-20.954c-14.722-3.882-29.125-9.325-44.606-9.561
		c-14.247-0.218-28.497-0.328-42.746-0.279c-20.54,0.071-38.481,9.105-56.924,16.565c-20.011,8.095-40.108,16.015-60.411,23.34
		c-17.573,6.341-32.693,16.352-45.768,29.304c-15.114,14.974-29.624,30.565-44.123,46.144c-2.617,2.812-4.211,6.724-5.771,10.346
		c-6.688,15.523-13.021,31.199-19.823,46.671c-3.263,7.424-5.033,14.875-5.292,23.069c-0.558,17.603-1.904,35.193-8.461,51.863
		c-2.62,6.662-2.693,13.306-1.967,20.49c1.1,10.888,0.836,21.968,0.438,32.939c-0.407,11.25-1.671,22.468-2.629,34.578
		c15.394,0,30.318,0.477,45.2-0.113c21.569-0.855,40.256,7.065,58.436,17.328c8.351,4.714,16.673,9.789,25.599,13.115
		c22.856,8.519,39.03,24.789,53.195,43.631c8.774,11.672,17.762,23.297,23.199,37.011c2.3,5.801,4.355,11.981,4.914,18.136
		c1.439,15.875,2.086,31.826,2.808,47.759c0.176,3.884,1.235,6.552,4.228,9.42c13.435,12.88,27.417,25.209,38.557,40.39
		c6.466,8.812,14.573,16.4,21.621,24.81c15.528,18.527,30.31,37.712,46.4,55.732c20.024,22.428,36.213,47.385,51.978,72.799
		c19.054,30.721,38.79,61.02,58.241,91.493c16.772,26.276,33.553,52.549,50.341,78.815c12.312,19.264,24.441,38.649,37.04,57.726
		c8.218,12.444,17.133,24.428,25.73,36.62c10.125,14.359,20.035,28.875,30.435,43.03c7.834,10.663,16.292,20.865,24.519,31.331
		c12.559-2.36,25.209-1.231,35.683-9.249c1.474-1.127,3.771-1.689,5.673-1.662c14.574,0.217,29.276-1.923,43.66,2.18
		c1.581,0.451,3.216,0.88,4.845,0.962c21.809,1.102,39.328,11.232,54.127,26.411c9.271,9.508,18.585,19.189,26.295,29.932
		c5.496,7.657,8.194,17.288,12.429,25.896c8.186,16.644,6.08,34.441,6.084,52.002c0,1.928-0.432,4.142-1.437,5.736
		c-9.159,14.545-15.506,30.929-28.653,42.893c-4.65,4.23-8.357,9.496-13.46,15.408c0.115,0.389,0.619,2.972,1.631,5.338
		c8.438,19.744,12.973,40.22,14.432,61.749c1.538,22.713,0.286,45.09-3.174,67.454c-0.877,5.673-3.235,10.701-7.165,15.049
		c-13.152,14.549-26.15,29.236-39.285,43.8c-7.035,7.801-15.465,11.143-26.412,11.235c-17.74,0.148-35.098-1.904-52.418-5.048
		c-10.195-1.851-18.081-8.232-25.971-14.321c-5.778-4.457-10.975-9.669-16.757-14.119c-2.128-1.637-5.169-2.808-7.835-2.894
		c-8.984-0.288-17.987-0.002-26.983,0.081c-6.957,0.064-13.708,1.055-20.618,2.296c-10.344,1.858-21.223,1.277-31.842,0.864
		c-5.821-0.227-11.752-1.72-17.293-3.628c-3.627-1.249-6.885-3.983-9.885-6.548c-5.308-4.537-10.164-9.601-15.437-14.181
		c-15.149-13.161-20.354-30.617-21.162-49.717c-0.549-12.975-1.258-26.122,0.18-38.958c1.906-17.021,4.159-34.291,14.102-50.447
		c-1.95-2.865-4.593-6.209-6.659-9.877c-10.737-19.052-26.156-34.253-40.637-50.279c-12.404-13.728-24.388-27.852-36.153-42.133
		c-20.268-24.604-40.953-48.914-60.105-74.369c-19.898-26.443-38.158-54.117-57.206-81.201c-3.239-4.606-6.841-8.956-10.854-14.178
		c-6.053,4.258-11.586,9.026-17.869,12.404c-18.095,9.727-36.16,19.627-54.868,28.055c-16.348,7.362-33.769,11.662-51.822,13.512
		c-16.791,1.721-33.392,5.3-50.183,7.002c-21.785,2.208-43.625,4.534-65.603,1.613c-8.541-1.135-17.322-0.645-25.797-2.069
		c-22.188-3.729-44.26-8.146-66.392-12.215c-20.897-3.841-38.171-14.754-54.445-27.662c-1.035-0.821-2.042-1.68-3.471-2.858
		c-2.033,1.751-4.207,3.261-5.936,5.172c-10.883,12.031-25.189,17.85-40.113,22.873c-27.398,9.221-55.421,9.262-83.727,6.679
		c-4.929-0.449-9.935-0.063-14.314-0.063c-14.723,15.6-29.029,31.291-43.956,46.368c-8.395,8.479-17.654,16.137-26.88,23.733
		c-2.325,1.914-5.981,2.903-9.087,3.055c-11.304,0.552-22.95,2.312-33.871,0.33c-12.677-2.301-25.457-3.076-38.126-4.984
		c-7.786-1.172-13.314-5.077-18.715-10.333c-6.183-6.017-13.443-10.927-19.6-16.967c-16.604-16.288-32.844-32.946-49.277-49.409
		c-9.165-9.183-18.621-18.081-27.58-27.458c-6.648-6.96-12.652-14.531-19.042-21.743c-8.818-9.954-17.626-19.919-26.634-29.701
		c-6.69-7.265-11.217-15.661-13.863-25.065c-3.589-12.757-7.358-25.491-10.196-38.423c-1.549-7.058-1.646-14.492-1.845-21.772
		c-0.291-10.658-0.003-21.329-0.119-31.993c-0.085-7.812,3.73-14.109,7.907-20.088c15.174-21.72,30.921-43.046,45.81-64.957
		c10.845-15.96,22.523-31.111,35.899-45.027c1.935-2.013,2.879-5.979,2.649-8.913c-1.555-19.846-3.952-39.628-5.267-59.485
		c-0.967-14.604-0.957-29.29-0.934-43.938c0.045-29.982,0.042-59.973,0.725-89.945c0.538-23.569,2.076-47.116,3.168-70.673
		c0.016-0.333,0.044-0.666,0.028-0.998c-1.746-37.699,8.416-73.748,14.756-110.39c7.735-44.704,22.354-87.471,33.972-131.092
		c6.344-23.815,14.26-47.004,23.223-69.819c11.167-28.427,23.361-56.461,35.59-84.457c11.43-26.166,24.853-51.275,40.049-75.528
		c14.086-22.482,26.405-46.064,40.308-68.667c8.846-14.38,18.821-28.11,28.909-41.67c12.06-16.212,24.607-32.071,37.281-47.813
		c7.5-9.315,15.394-18.346,23.56-27.084c19.088-20.423,38.574-40.474,57.651-60.907c12.012-12.866,23.576-26.15,35.344-39.243
		c15.21-16.924,33.145-30.885,51.169-44.421c13.694-10.285,29.219-18.304,44.473-26.295c21.114-11.061,42.624-21.39,64.188-31.558
		c11.397-5.374,23.111-10.178,34.966-14.455c15.242-5.498,30.735-10.319,46.196-15.189c4.722-1.486,9.655-2.444,14.561-3.175
		c26.875-4.001,53.75-8.005,80.667-11.71c17.38-2.393,34.8-5.708,52.258-6.09c37.291-0.818,74.626-0.428,111.924,0.376
		c13.779,0.297,27.504,3.146,42.457,4.979c-1.563-2.179-2.39-3.751-3.593-4.943c-6.388-6.326-12.653-12.802-19.394-18.734
		c-4.563-4.014-6.905-8.709-7.373-14.591c-0.368-4.638-0.448-9.34-1.332-13.883c-0.734-3.773-1.685-7.913-3.873-10.922
		c-8.331-11.461-12.714-23.887-12.098-38.173c0.402-9.315,0.563-18.692-0.032-27.985c-1.032-16.074,2.758-30.796,9.443-45.342
		c9.416-20.487,19.735-40.515,27.156-62.007c9.598-27.799,26.169-52.045,43.857-75.401c3.973-5.245,7.872-10.564,12.135-15.567
		c6.775-7.951,11.5-16.999,15.58-26.531c9.131-21.334,17.786-42.915,27.96-63.748c8.883-18.187,19.628-35.459,29.464-53.183
		c13.025-23.472,25.687-47.149,39.041-70.432c8.577-14.952,17.851-29.527,27.29-43.958c13.406-20.5,26.904-40.959,41.035-60.961
		c8.964-12.687,18.201-25.187,29.082-36.502c21.184-22.029,41.398-44.988,62.472-67.126c18.37-19.297,38.552-36.583,60.489-51.81
		c10.633-7.381,20.793-15.439,31.276-23.04c12.301-8.918,25.95-14.506,41.104-16.448c28.878-3.701,57.889-1.936,86.804-1.567
		c23.515,0.299,47.032,2.76,70.479,4.995c12.31,1.173,23.065,1.48,31.402-10.406c7.379-10.521,18.983-16.229,30.603-21.62
		c5.261-2.44,9.334-7.328,14.264-10.634c4.901-3.287,9.879-7.017,15.391-8.72c10.879-3.362,21.247-7.481,30.777-13.738
		c1.912-1.255,4.162-2.142,6.377-2.765c18.45-5.188,36.677-11.741,55.472-14.969c17.572-3.018,35.499-2.19,53.04,4.127
		c24.547,8.841,45.806,22.099,64.292,40.501c17.441,17.363,35.701,33.907,53.666,50.741c5.531,5.183,11.438,9.97,16.859,15.261
		c2.999,2.926,6.315,3.139,10.058,2.962c16.229-0.769,32.455-1.807,48.693-2.072c21.634-0.353,43.278-0.006,64.919-0.093
		c24.982-0.1,49.98,0.117,74.94-0.722c12.254-0.412,23.105,2.902,33.103,8.997c6.138,3.741,11.162,9.293,16.74,13.968
		c5.064,4.241,10.353,8.225,15.268,12.625c6.935,6.208,14.285,12.13,20.272,19.181c13.276,15.636,26.1,31.722,35.438,50.156
		c2.517,4.968,4.366,10.33,6.022,15.666c8.465,27.263,22.824,51.438,37.891,75.452c11.772,18.765,21.888,38.59,32.336,58.159
		c5.626,10.535,10.18,21.639,15.702,32.234c1.725,3.309,4.615,6.382,7.685,8.557c27.099,19.189,54.026,38.548,79.601,59.81
		c18.382,15.282,37.727,29.42,56.859,43.779c13.264,9.954,26.863,19.464,40.399,29.049c2.4,1.699,5.097,3.19,7.878,4.103
		c19,6.237,37.221,14.396,54.158,24.834c12.934,7.971,25.277,17.209,36.721,27.213c14.491,12.666,27.867,26.616,41.577,40.16
		c2.803,2.767,4.672,6.475,7.467,9.251c8.438,8.387,17.234,16.414,25.686,24.789c21.898,21.702,34.101,48.113,36.183,78.747
		c1.465,21.549,1.519,43.195,2.112,64.8c0.383,13.949-4.208,26.413-13.521,36.503c-16.687,18.077-33.838,35.742-51.239,53.135
		c-4.86,4.86-10.979,8.698-17.037,12.079c-16.49,9.201-32.631,19.155-50.714,25.193c-17.6,5.876-35.081,12.118-52.748,17.785
		c-19.581,6.281-39.359,11.948-58.951,18.203c-5.316,1.698-10.263,4.558-15.994,7.165c-1.395,7.782-2.83,15.789-4.429,24.718
		c12.3-3.856,23.298-7.256,34.265-10.75c21.466-6.84,42.606-14.654,65.123-17.938c12.409-1.81,24.517-5.634,36.816-8.282
		c11.977-2.579,24.034-4.774,36.041-7.215c16.227-3.301,32.36-7.123,48.675-9.896c17.61-2.994,35.399-4.922,53.079-7.521
		c16.397-2.411,32.755-5.088,49.129-7.663c1.63-0.257,3.244-0.899,4.862-0.89c22.643,0.133,45.284,0.418,67.927,0.501
		c6.573,0.024,13.148-0.686,19.724-0.69c21.236-0.016,42.674-1.676,63.657,0.666c29.919,3.339,59.541,9.46,89.215,14.807
		c12.715,2.292,25.254,5.582,37.853,8.501c13.76,3.188,25.97,9.921,38.214,16.652c9.872,5.427,20.193,10.043,29.983,15.603
		c13.252,7.522,26.836,14.709,39.117,23.637c22.542,16.385,44.786,33.281,66.126,51.191c20.081,16.854,39.808,34.25,56.352,54.9
		c14.314,17.869,29.754,34.85,43.785,52.931c17.693,22.801,35.459,45.66,51.362,69.702c17.926,27.097,34.311,55.257,50.43,83.489
		c12.169,21.313,23.552,43.143,34.043,65.331c11.76,24.874,22.306,50.332,32.968,75.708c2.673,6.36,3.488,13.475,5.642,20.085
		c9.249,28.395,18.963,56.64,27.955,85.115c6.998,22.156,14.279,44.32,19.427,66.938c5.59,24.571,9.244,49.558,9.004,75.035
		c-0.137,14.547,2.378,29.1,2.938,43.679c0.651,16.964,0.364,33.962,0.683,50.942c0.287,15.266,0.292,30.565,1.393,45.78
		c2.453,33.89,4.376,67.827,2.092,101.724c-1.538,22.803-5.408,45.451-8.283,68.162c-1.417,11.188-3.069,22.348-4.316,33.554
		c-0.225,2.016,0.492,4.543,1.645,6.245c18.251,26.954,37.796,52.886,59.668,77.076c7.994,8.841,14.939,18.698,21.785,28.495
		c8.904,12.742,17.58,25.676,25.694,38.931c5.87,9.59,10.902,19.724,15.797,29.859c1.522,3.151,1.568,7.09,1.931,10.705
		c0.298,2.969-0.222,6.024,0.112,8.987c2.812,24.955-6.521,46.983-16.459,68.867c-1.1,2.419-2.95,4.562-3.706,7.059
		c-4.595,15.193-15.688,25.941-27.548,34.548c-9.627,6.985-13.408,17.74-21.899,25.153c-8.181,7.144-16.138,15.228-21.853,24.362
		c-10.171,16.256-22.544,30.441-36.456,43.259c-9.731,8.966-19.954,17.962-31.4,24.368c-15.281,8.553-31.77,15.188-50.071,14.586
		c-7.657-0.252-15.358-0.46-22.988,0.065c-9.126,0.63-16.303-3.118-22.349-9.123c-7.545-7.491-14.446-15.627-21.822-23.293
		c-4.606-4.788-9.523-9.284-14.4-13.805c-7.804-7.234-16-14.075-23.451-21.651c-7.424-7.549-14.136-15.8-21.288-23.887
		c-15.752,2.565-31.661,2.234-47.498,1.066c-13.989-1.031-27.151-5.929-40.077-11.086c-5.822-2.323-11.145-5.881-16.754-8.76
		c-16.858-8.653-29.062-23.05-43.188-35.059c-4.534-3.853-8.313-8.594-12.509-13.002c-8.293,6.415-15.543,12.708-23.485,17.953
		c-6.608,4.364-13.773,8.155-21.145,11.047c-19.124,7.505-37.805,16.347-58.282,20.014c-29.97,5.366-60.08,6.333-90.361,3.602
		c-6.618-0.598-13.255-1.089-19.895-1.334c-17.006-0.63-31.854-8.737-47.516-13.855c-12.87-4.204-25.594-9.313-37.626-15.493
		c-14.397-7.394-28.007-16.324-41.917-24.657C3108.448,2465.097,3105.81,2463.106,3101.786,2460.369z"/>
</g>
</svg>
