<?xml version="1.0" encoding="utf-8"?>
<!-- Generator: Adobe Illustrator 16.0.2, SVG Export Plug-In . SVG Version: 6.00 Build 0)  -->
<!DOCTYPE svg PUBLIC "-//W3C//DTD SVG 1.1 Tiny//EN" "http://www.w3.org/Graphics/SVG/1.1/DTD/svg11-tiny.dtd">
<svg version="1.1" baseProfile="tiny" id="Layer_1" xmlns="http://www.w3.org/2000/svg" xmlns:xlink="http://www.w3.org/1999/xlink"
	 x="0px" y="0px" width="3197.6px" height="3420.572px" viewBox="0 0 3197.6 3420.572" xml:space="preserve">
<g>
	<path fill-rule="evenodd" fill="#FFFFFF" d="M2,3423.571C2,2283.048,2,1142.524,2,2.001C1068.532,2,2135.064,2,3201.598,2
		c0.001,1140.523,0.001,2281.046,0.001,3421.569C2135.066,3423.57,1068.533,3423.57,2,3423.571z M1440.449,3259.07
		c6.587,2.125,12.714,5.093,19.132,5.999c26.222,3.703,51.677-2.751,76.48-9.301c15.436-4.076,30.449-6.085,46.064-5.722
		c2.737,0.063,5.825,1.143,8.085,2.712c8.697,6.037,16.738,13.094,25.737,18.605c14.923,9.141,31.107,14.892,49.001,14.58
		c9.33-0.162,18.68,0.303,27.992-0.12c9.234-0.42,18.466-1.36,27.63-2.588c2.751-0.368,5.347-2.327,7.885-3.78
		c13.188-7.544,23.703-18.257,33.958-29.193c3.483-3.717,7.204-5.003,12.26-5.124c28.897-0.691,57.765,0.854,86.726-1.479
		c28.136-2.268,56.533-1.688,84.814-1.641c39.614,0.064,79.228,0.984,118.843,1.143c15.277,0.061,30.603-0.433,45.827-1.654
		c13.496-1.083,26.879-3.561,40.323-5.335c2.297-0.304,4.677-0.424,6.975-0.191c8.245,0.835,16.45,2.331,24.709,2.706
		c14.951,0.676,30.371,3.111,44.79,0.451c19.389-3.577,38.035-2.59,55.789,3.777c28.177,10.104,55.761,13.327,84.307,2.454
		c13.593-5.179,27.798-8.795,41.258-14.271c21.485-8.738,42.617-18.354,63.83-27.758c13.332-5.909,26.908-11.414,39.724-18.315
		c27.678-14.904,54.945-30.571,82.359-45.964c11.801-6.627,23.561-13.331,35.322-20.027c10.633-6.054,21.434-11.843,31.822-18.291
		c17.45-10.832,34.593-22.157,51.942-33.153c8.646-5.479,18.082-9.9,26.082-16.177c19.344-15.175,37.968-31.262,57.046-46.779
		c13.631-11.085,27.584-21.775,41.277-32.784c4.138-3.327,8.053-6.971,11.794-10.743c12.895-12.997,26.013-25.799,38.394-39.273
		c13.232-14.399,25.597-29.593,38.57-44.234c18.766-21.176,37.029-42.619,48.367-69.039c4.055-9.447,9.241-18.403,13.727-27.674
		c8.532-17.642,18.34-34.83,25.065-53.145c10.734-29.227,19.379-59.222,28.911-88.891c7.118-22.148,12.131-44.747,14.628-67.894
		c2.738-25.387,5.741-50.745,8.24-76.155c2.013-20.471,4.762-40.991,4.876-61.502c0.283-50.563,1.892-101.179-2.995-151.664
		c-2.525-26.1-4.115-52.295-6.853-78.371c-1.867-17.794-4.148-35.632-7.783-53.132c-3.5-16.858-9.253-33.237-13.521-49.951
		c-7.459-29.213-14.229-58.603-21.855-87.769c-10.438-39.922-22.88-79.033-47.241-113.256c-6.101-8.569-10.439-18.372-15.894-27.425
		c-5.621-9.33-10.83-19.079-17.682-27.447c-6.082-7.43-12.424-14.376-17.13-22.958c-10.967-20.003-22.212-39.898-34.353-59.202
		c-10.379-16.502-20.903-33.209-33.606-47.882c-21.107-24.382-43.909-47.305-66.267-70.585c-3.63-3.78-4.954-7.589-4.509-12.47
		c1.751-19.173,3.252-38.373,5.274-57.518c1.951-18.463,5.746-36.823,6.398-55.311c1.268-35.872,3.057-71.82-1.327-107.68
		c-0.898-7.343-3.6-13.645-8.532-18.595c-7.017-7.043-14.363-13.942-22.422-19.709c-8.87-6.35-18.511-11.717-28.167-16.853
		c-14.181-7.542-28.84-13.041-45.609-11.617c-7.74,0.657-15.713-1.477-23.585-2.304c-4.941-0.52-9.883-1.221-14.84-1.387
		c-10.996-0.368-21.861-1.319-32.297-5.149c-4.003-1.469-7.957-3.436-12.104-4.084c-8.506-1.329-17.124-2.64-25.7-2.666
		c-17.615-0.052-35.252,0.392-52.841,1.356c-8.18,0.449-16.462,1.658-23.851,6.105c-3.683,2.217-7.624,4.506-11.743,5.393
		c-9.893,2.128-17.405,8.165-24.938,14.105c-14.276,11.259-22.515,25.799-23.333,44.333c-0.247,5.599-1.407,11.208-2.649,16.701
		c-2.188,9.682-4.26,19.436-7.277,28.873c-6.131,19.178-7.48,39.074-9.608,58.852c-0.462,4.291-2.238,6.072-6.012,7.909
		c-7.994,3.889-16.486,7.641-23.046,13.414c-14.712,12.949-28.146,27.254-38.562,44.129c-10.878,17.623-20.094,35.875-24.608,56.297
		c-3.636,16.446-7.776,32.78-11.973,50.337c-3.905,0-8.517-0.247-13.094,0.054c-8.608,0.565-17.601,0.074-25.716,2.46
		c-22.865,6.723-45.9,13.406-67.831,22.581c-16.06,6.72-31.42,16.092-45.427,26.518c-24.841,18.491-48.174,39.188-67.009,63.861
		c-14.447,18.926-26.544,39.678-39.235,59.9c-12.928,20.602-23.318,42.462-30.601,65.74c-0.662,2.116-1.996,4.021-3.296,6.567
		c-50.745-1.376-100.698-7.58-150.821-14.128c-0.342-1.718-0.804-2.981-0.813-4.248c-0.088-12.502-5.585-22.501-14.753-30.442
		c-6.731-5.83-14.204-10.795-21.079-16.47c-14.322-11.821-30.508-18.464-49.208-18.521c-9.97-0.03-19.94-0.005-27.808-0.005
		c-6.967-7.816-12.156-14.287-18.023-20.071c-9.466-9.331-19.494-18.092-29.058-27.329c-5.257-5.077-9.986-10.699-15.069-15.961
		c-6.514-6.743-14.44-10.496-23.902-10.712c-7.989-0.183-15.981-0.502-23.969-0.41c-6.415,0.073-12.445,0.082-17.358-5.307
		c-1.848-2.027-5.189-3.239-8.036-3.719c-15.02-2.531-30.033-5.466-45.177-6.777c-12.901-1.118-25.988-0.573-38.972-0.133
		c-14.006,0.476-26.762,4.256-36.149,15.827c-5.223,6.438-11.824,11.89-16.314,18.759c-7.199,11.014-14.826,21.896-16.119,35.931
		c-0.711,7.721-3.951,15.208-6.203,23.35c-8.684,0-16.694,0.593-24.586-0.129c-14.018-1.282-24.978,5.218-35.822,12.541
		c-14.953,10.099-28.234,22.094-40.612,35.175c-1.958,2.069-4.667,4.099-7.353,4.701c-21.922,4.918-43.954,9.345-65.885,14.227
		c-13.882,3.091-27.625,6.803-41.476,10.039c-6.581,1.537-13.27,2.614-18.925,3.71c-4.901-12.87-8.933-24.426-13.697-35.669
		c-3.886-9.169-8.705-17.939-13.011-26.935c-8.604-17.97-18.086-35.504-30.092-51.384c-8.198-10.845-17.754-20.688-26.997-30.709
		c-12.184-13.211-25.182-25.702-36.876-39.32c-17.262-20.103-37.505-36.683-59.179-51.473
		c-16.671-11.376-34.544-20.971-51.534-31.901c-21.164-13.618-43.965-21.716-69.183-22.953c-6.207-0.305-12.377-1.315-18.974-2.047
		c-0.19-1.959-0.587-3.583-0.465-5.164c1.149-14.908-3.948-28.323-11.079-40.75c-10.438-18.19-23.956-34.142-38.404-49.371
		c-15.64-16.484-34.726-28.488-51.823-41.362c-2.4-18.803-4.235-36.938-7.157-54.897c-2.446-15.027-6.093-29.862-9.384-44.744
		c-0.625-2.826-1.338-6.26-3.269-8.066c-10.587-9.899-18.89-22.165-32.841-28.659c-6.488-3.02-13.132-4.093-19.621-6.29
		c-10.573-3.581-21.316-5.061-32.36-4.475c-23,1.22-45.637-1.893-68.327-5.004c-14.439-1.98-28.995-3.282-43.54-4.292
		c-29.843-2.072-58.591,4.878-87.333,11.457c-4.17,0.954-8.203,2.69-12.148,4.41c-8.187,3.572-16.203,7.535-24.413,11.051
		c-14.982,6.415-27.371,16.11-37.439,28.858c-2.674,3.386-5.128,6.983-8.087,10.104c-6.068,6.398-8.815,14.002-8.721,22.636
		c0.391,35.616,0.569,71.238,1.49,106.84c0.411,15.893,2.541,31.735,3.52,47.623c0.164,2.662-0.841,6.053-2.54,8.062
		c-8.142,9.625-16.779,18.827-25.11,28.295c-15.342,17.437-32.175,33.642-44.154,53.864c-3.706,6.256-7.807,12.308-12.115,18.168
		c-6.89,9.372-14.485,18.242-21.097,27.798c-11.505,16.629-22.515,33.602-33.68,50.465c-7.133,10.774-14.581,21.368-21.171,32.469
		c-16.134,27.174-27.992,56.406-39.991,85.53c-9.855,23.92-19.629,47.828-26.576,72.893c-6.377,23.009-15.552,45.243-21.902,68.258
		c-6.777,24.565-12.177,49.546-17.282,74.526c-5.646,27.632-11.539,55.314-14.998,83.263c-3.583,28.952-4.525,58.239-6.336,87.397
		c-1.01,16.252-1.436,32.539-2.128,48.81c-0.311,7.311-0.744,14.617-0.918,21.931c-0.371,15.624-1.244,31.272-0.738,46.874
		c0.59,18.233,2.293,36.438,3.765,54.634c1.471,18.182,2.63,36.423,5.063,54.484c2.691,19.977,6.979,39.732,10.008,59.67
		c3.085,20.307,5.502,40.715,8.173,61.084c0.732,5.578,0.834,11.287,2.075,16.742c3.968,17.436,8.361,34.773,12.542,52.16
		c5.141,21.383,13.213,41.731,22.697,61.456c7.884,16.398,16.997,32.202,25.355,48.378c19.351,37.447,38.343,75.137,64.88,108.228
		c14.535,18.126,29.544,35.888,44.836,53.382c13.786,15.771,28.007,31.182,42.481,46.327c13.349,13.969,26.562,28.213,41.129,40.84
		c24.567,21.293,48.076,43.913,75.301,62.046c20.086,13.378,39.489,27.797,59.75,40.896c21.4,13.837,43.061,27.37,65.334,39.727
		c21.981,12.192,44.628,23.271,67.443,33.843c16.231,7.521,33.219,13.413,49.881,19.999c11.998,4.742,23.965,9.572,36.062,14.049
		c3.023,1.119,6.499,1.472,9.756,1.426c23.618-0.334,47.234-0.803,70.848-1.34c35.884-0.815,71.767-1.717,107.65-2.594
		c4.039-0.099,7.491,0.618,11.153,3.076c6.539,4.389,13.574,10.021,20.889,10.854c14.471,1.645,29.891,4.01,42.385-7.904
		c2.369-2.26,6.396-3.651,9.754-3.857c16.544-1.013,33.115-1.689,49.686-2.112c24.611-0.627,49.233-0.851,73.846-1.413
		c23.606-0.541,47.203-1.505,70.811-1.903c27.313-0.46,54.633-0.432,81.948-0.805c4.38-0.061,7.276,1.746,10.549,4.412
		c5.617,4.581,11.527,9.21,18.056,12.193c23.188,10.59,47.037,10.145,70.789,1.927
		C1424.227,3266.698,1432.55,3262.479,1440.449,3259.07z M1598.844,247.64c-3.944-4.777-8.222-9.398-11.859-14.478
		c-9.786-13.667-18.967-27.777-29.016-41.243c-9.266-12.417-18.882-24.639-29.176-36.207
		c-16.779-18.857-34.276-37.075-51.393-55.634c-11.541-12.513-26.193-19.024-42.574-21.891c-8.155-1.427-16.604-1.255-24.714-2.848
		c-27.588-5.421-55.433-6.315-83.405-5.683c-3.33,0.076-6.922-0.703-9.947,0.283c-13.838,4.508-28.063,4.338-42.318,4.458
		c-2.933,0.024-5.898,0.778-8.78,1.476c-4.46,1.08-8.795,2.952-13.304,3.52c-13.414,1.685-26.592,4.003-39.742,7.475
		c-11.785,3.109-23.479,6.333-34.723,10.863c-23.885,9.62-49.009,16.076-71.905,28.212c-3.785,2.006-7.545,4.639-11.616,5.417
		c-11.648,2.228-20.809,9.544-31.215,14.259c-17.676,8.007-35.284,16.187-52.691,24.758c-11.539,5.682-23.032,11.609-33.923,18.423
		c-18.776,11.746-37.06,24.278-55.562,36.461c-6.591,4.34-13.317,8.481-19.8,12.973c-8.931,6.188-17.492,12.924-26.573,18.873
		c-11.335,7.426-23.874,13.252-34.341,21.693c-10.111,8.154-20.723,15.259-31.631,22.139c-5.562,3.507-10.955,7.424-15.882,11.769
		c-14.192,12.512-28.29,25.143-42.038,38.136c-5.222,4.935-10.209,10.497-13.854,16.634c-6.216,10.463-11.768,21.396-16.677,32.537
		c-3.438,7.804-7.035,16.182-7.539,24.486c-0.801,13.172,0.816,26.505,1.646,39.756c0.245,3.918,1.653,7.766,1.884,11.684
		c0.731,12.406,3.217,24.176,9.952,34.917c2.963,4.728,5.38,9.9,7.353,15.131c6.318,16.76,13.6,32.952,24.672,47.233
		c2.827,3.647,5.663,7.525,7.379,11.75c5.58,13.743,10.599,27.714,15.935,41.558c1.531,3.974,2.77,8.282,5.232,11.638
		c11.185,15.238,22.513,30.386,34.252,45.199c15.65,19.748,32.878,38.35,47.315,58.926c15.762,22.466,33.604,42.896,52.901,62.139
		c11.285,11.252,23.677,21.391,35.506,32.101c11.388,10.313,23.703,19.178,37.925,25.236c2.051,0.874,4.103,2.102,5.695,3.642
		c19.383,18.733,38.605,37.633,58.034,56.32c9.588,9.221,19.218,18.44,29.349,27.048c20.755,17.634,41.708,35.045,62.874,52.184
		c15.721,12.729,31.613,25.287,47.961,37.189c16.893,12.297,34.345,23.835,51.707,35.474c18.982,12.726,37.863,25.638,57.306,37.628
		c16.625,10.252,33.927,19.417,51.028,28.882c19.393,10.733,38.82,21.411,58.381,31.833c12.582,6.705,25.279,13.232,38.199,19.25
		c16.515,7.692,33.218,15.003,50.004,22.09c18.017,7.605,36.038,15.271,54.4,21.971c18.622,6.796,37.615,12.591,56.53,18.558
		c19.846,6.262,39.626,12.841,59.736,18.13c24.99,6.571,50.213,12.323,75.479,17.749c21.68,4.655,43.47,8.976,65.384,12.31
		c26.542,4.039,53.277,6.796,79.909,10.268c41.2,5.372,82.663,7.2,124.109,9.104c17.289,0.795,34.626,0.706,51.941,0.715
		c15.983,0.008,31.966-0.378,47.948-0.623c4.038-0.063,7.571,0.314,11.032,3.307c2.428,2.099,6.438,3.001,9.829,3.252
		c27.388,2.025,54.324-3.169,81.439-5.492c13.548-1.16,27.041-2.947,40.567-4.384c21.449-2.279,43.075-3.472,64.32-6.979
		c36.662-6.051,73.467-11.661,109.436-21.275c17.29-4.622,34.551-9.516,51.459-15.348c17.533-6.048,34.534-13.627,51.939-20.076
		c13.91-5.154,24.489-14.586,34.024-25.337c4.402-4.964,7.458-10.823,7.523-18.008c0.119-12.948,1.036-25.893,0.968-38.836
		c-0.018-3.358-1.63-7.49-3.937-9.906c-7.054-7.387-13.071-16.111-23.036-20.215c-7.034-2.897-14.026-5.909-21.127-8.634
		c-16.352-6.275-32.549-13.051-49.194-18.431c-19.532-6.313-39.479-11.342-59.232-16.973c-8.598-2.45-17.507-4.201-25.686-7.659
		c-37.285-15.77-74.347-32.115-109.72-51.885c-16.207-9.059-32.021-18.941-47.344-29.428
		c-16.411-11.231-32.082-23.549-47.984-35.515c-11.146-8.387-22.139-16.978-33.199-25.479c-4.661-3.584-7.04-8.37-8.686-14.027
		c-7.117-24.467-13.982-49.038-22.179-73.149c-7.423-21.836-13.839-43.562-12.55-66.993c0.34-6.177-0.428-12.671-2.046-18.652
		c-4.572-16.903-8.451-34.213-15.296-50.211c-5.375-12.563-14.111-23.904-22.508-34.909c-13.394-17.552-30.767-31.067-48.374-44.144
		c-13.846-10.283-27.916-20.263-41.907-30.349c-18.296-13.189-35.849-27.634-55.165-39.106
		c-15.087-8.961-30.345-17.38-44.165-28.299c-3.757-2.969-8.818-4.234-13.086-6.629c-2.805-1.574-6.464-3.218-7.65-5.794
		c-3.72-8.078-7.083-16.441-9.404-25.013c-2.844-10.505-4.136-21.422-6.744-32.002c-4.511-18.301-9.596-36.46-14.293-54.717
		c-3.285-12.772-5.856-25.744-9.587-38.379c-4.875-16.519-13.291-31.517-21.354-46.666c-6.287-11.812-12.866-23.302-23.277-31.977
		c-8.61-7.174-16.35-15.436-27.47-19.358c-7.39-2.607-14.176-6.907-21.284-10.339c-8.024-3.875-15.665-8.362-24.783-9.998
		c-6.646-1.193-13.374-3.833-19.173-7.315c-5.89-3.536-11.767-5.835-18.502-6.544c-9.187-0.966-18.353-2.126-27.512-3.327
		c-5.888-0.771-11.723-2.276-17.622-2.539C1618.397,247.326,1608.725,247.64,1598.844,247.64z"/>
	<path fill-rule="evenodd" d="M1440.449,3259.07c-7.899,3.408-16.223,7.628-24.959,10.65c-23.752,8.218-47.602,8.663-70.789-1.927
		c-6.529-2.983-12.439-7.612-18.056-12.193c-3.272-2.666-6.168-4.473-10.549-4.412c-27.315,0.373-54.635,0.345-81.948,0.805
		c-23.607,0.398-47.204,1.362-70.811,1.903c-24.613,0.563-49.235,0.786-73.846,1.413c-16.571,0.423-33.142,1.1-49.686,2.112
		c-3.359,0.206-7.386,1.598-9.754,3.857c-12.495,11.914-27.915,9.549-42.385,7.904c-7.315-0.832-14.35-6.465-20.889-10.854
		c-3.662-2.458-7.114-3.175-11.153-3.076c-35.883,0.877-71.766,1.778-107.65,2.594c-23.614,0.537-47.23,1.006-70.848,1.34
		c-3.257,0.046-6.733-0.307-9.756-1.426c-12.097-4.477-24.064-9.307-36.062-14.049c-16.663-6.586-33.65-12.478-49.881-19.999
		c-22.814-10.572-45.462-21.65-67.443-33.843c-22.273-12.356-43.935-25.89-65.334-39.727c-20.26-13.1-39.663-27.519-59.75-40.896
		c-27.225-18.133-50.733-40.753-75.301-62.046c-14.567-12.627-27.78-26.871-41.129-40.84
		c-14.474-15.146-28.695-30.556-42.481-46.327c-15.292-17.494-30.302-35.256-44.836-53.382
		c-26.537-33.091-45.529-70.78-64.88-108.228c-8.358-16.176-17.471-31.979-25.355-48.378c-9.484-19.725-17.556-40.073-22.697-61.456
		c-4.181-17.387-8.574-34.725-12.542-52.16c-1.241-5.455-1.343-11.164-2.075-16.742c-2.671-20.369-5.088-40.777-8.173-61.084
		c-3.029-19.938-7.316-39.693-10.008-59.67c-2.433-18.062-3.593-36.303-5.063-54.484c-1.472-18.196-3.175-36.4-3.765-54.634
		c-0.506-15.602,0.367-31.25,0.738-46.874c0.174-7.313,0.607-14.62,0.918-21.931c0.692-16.271,1.118-32.558,2.128-48.81
		c1.811-29.158,2.752-58.445,6.336-87.397c3.459-27.948,9.352-55.631,14.998-83.263c5.104-24.98,10.505-49.961,17.282-74.526
		c6.35-23.015,15.524-45.249,21.902-68.258c6.947-25.064,16.721-48.973,26.576-72.893c12-29.124,23.857-58.356,39.991-85.53
		c6.591-11.101,14.038-21.694,21.171-32.469c11.166-16.863,22.175-33.836,33.68-50.465c6.611-9.556,14.207-18.426,21.097-27.798
		c4.308-5.86,8.409-11.913,12.115-18.168c11.979-20.222,28.812-36.427,44.154-53.864c8.331-9.469,16.968-18.67,25.11-28.295
		c1.699-2.008,2.704-5.399,2.54-8.062c-0.979-15.888-3.109-31.73-3.52-47.623c-0.921-35.602-1.1-71.224-1.49-106.84
		c-0.095-8.634,2.653-16.237,8.721-22.636c2.958-3.12,5.413-6.717,8.087-10.104c10.069-12.748,22.457-22.443,37.439-28.858
		c8.21-3.516,16.227-7.479,24.413-11.051c3.945-1.72,7.978-3.457,12.148-4.41c28.742-6.579,57.49-13.529,87.333-11.457
		c14.545,1.009,29.101,2.311,43.54,4.292c22.689,3.111,45.327,6.224,68.327,5.004c11.043-0.586,21.787,0.895,32.36,4.475
		c6.489,2.197,13.132,3.27,19.621,6.29c13.951,6.494,22.253,18.76,32.841,28.659c1.931,1.807,2.644,5.241,3.269,8.066
		c3.291,14.882,6.938,29.717,9.384,44.744c2.922,17.959,4.757,36.094,7.157,54.897c17.097,12.875,36.183,24.878,51.823,41.362
		c14.448,15.229,27.966,31.181,38.404,49.371c7.131,12.427,12.228,25.842,11.079,40.75c-0.122,1.582,0.274,3.205,0.465,5.164
		c6.597,0.731,12.768,1.742,18.974,2.047c25.217,1.237,48.019,9.335,69.183,22.953c16.989,10.93,34.863,20.525,51.534,31.901
		c21.674,14.79,41.917,31.371,59.179,51.473c11.694,13.618,24.692,26.109,36.876,39.32c9.242,10.021,18.798,19.864,26.997,30.709
		c12.006,15.88,21.489,33.414,30.092,51.384c4.306,8.995,9.125,17.766,13.011,26.935c4.764,11.243,8.796,22.799,13.697,35.669
		c5.655-1.096,12.344-2.173,18.925-3.71c13.852-3.236,27.594-6.948,41.476-10.039c21.931-4.882,43.963-9.309,65.885-14.227
		c2.686-0.603,5.395-2.632,7.353-4.701c12.378-13.081,25.659-25.076,40.612-35.175c10.844-7.323,21.804-13.823,35.822-12.541
		c7.892,0.722,15.902,0.129,24.586,0.129c2.252-8.142,5.492-15.629,6.203-23.35c1.293-14.035,8.92-24.917,16.119-35.931
		c4.491-6.869,11.091-12.32,16.314-18.759c9.387-11.571,22.144-15.352,36.149-15.827c12.984-0.44,26.07-0.985,38.972,0.133
		c15.144,1.312,30.157,4.246,45.177,6.777c2.847,0.479,6.188,1.691,8.036,3.719c4.913,5.389,10.943,5.38,17.358,5.307
		c7.987-0.092,15.979,0.228,23.969,0.41c9.462,0.216,17.389,3.969,23.902,10.712c5.083,5.262,9.813,10.884,15.069,15.961
		c9.563,9.237,19.592,17.998,29.058,27.329c5.867,5.784,11.057,12.255,18.023,20.071c7.867,0,17.838-0.025,27.808,0.005
		c18.7,0.058,34.886,6.7,49.208,18.521c6.875,5.675,14.348,10.64,21.079,16.47c9.168,7.941,14.665,17.94,14.753,30.442
		c0.01,1.267,0.472,2.53,0.813,4.248c50.123,6.548,100.076,12.752,150.821,14.128c1.3-2.546,2.634-4.451,3.296-6.567
		c7.282-23.278,17.673-45.139,30.601-65.74c12.691-20.223,24.788-40.975,39.235-59.9c18.835-24.673,42.168-45.37,67.009-63.861
		c14.007-10.426,29.367-19.798,45.427-26.518c21.931-9.175,44.966-15.858,67.831-22.581c8.115-2.386,17.107-1.895,25.716-2.46
		c4.577-0.301,9.188-0.054,13.094-0.054c4.196-17.558,8.337-33.891,11.973-50.337c4.515-20.422,13.73-38.674,24.608-56.297
		c10.416-16.875,23.85-31.181,38.562-44.129c6.56-5.773,15.052-9.525,23.046-13.414c3.773-1.837,5.55-3.619,6.012-7.909
		c2.128-19.778,3.478-39.674,9.608-58.852c3.018-9.437,5.089-19.191,7.277-28.873c1.242-5.492,2.402-11.102,2.649-16.701
		c0.818-18.535,9.057-33.074,23.333-44.333c7.533-5.94,15.046-11.977,24.938-14.105c4.119-0.887,8.061-3.176,11.743-5.393
		c7.389-4.448,15.671-5.656,23.851-6.105c17.589-0.965,35.226-1.408,52.841-1.356c8.576,0.025,17.194,1.337,25.7,2.666
		c4.146,0.648,8.101,2.615,12.104,4.084c10.436,3.83,21.301,4.781,32.297,5.149c4.957,0.166,9.898,0.867,14.84,1.387
		c7.872,0.827,15.845,2.961,23.585,2.304c16.77-1.424,31.429,4.075,45.609,11.617c9.656,5.135,19.297,10.503,28.167,16.853
		c8.059,5.768,15.405,12.667,22.422,19.709c4.933,4.951,7.634,11.252,8.532,18.595c4.384,35.86,2.595,71.808,1.327,107.68
		c-0.652,18.487-4.447,36.847-6.398,55.311c-2.022,19.145-3.523,38.345-5.274,57.518c-0.445,4.881,0.879,8.69,4.509,12.47
		c22.357,23.28,45.159,46.203,66.267,70.585c12.703,14.673,23.228,31.38,33.606,47.882c12.141,19.304,23.386,39.199,34.353,59.202
		c4.706,8.582,11.048,15.528,17.13,22.958c6.852,8.368,12.061,18.117,17.682,27.447c5.454,9.053,9.793,18.855,15.894,27.425
		c24.361,34.223,36.803,73.334,47.241,113.256c7.627,29.166,14.396,58.556,21.855,87.769c4.269,16.714,10.021,33.093,13.521,49.951
		c3.635,17.5,5.916,35.338,7.783,53.132c2.737,26.076,4.327,52.271,6.853,78.371c4.887,50.485,3.278,101.102,2.995,151.664
		c-0.114,20.511-2.863,41.031-4.876,61.502c-2.499,25.41-5.502,50.769-8.24,76.155c-2.497,23.146-7.51,45.745-14.628,67.894
		c-9.532,29.669-18.177,59.664-28.911,88.891c-6.726,18.314-16.533,35.503-25.065,53.145c-4.485,9.271-9.672,18.227-13.727,27.674
		c-11.338,26.42-29.602,47.863-48.367,69.039c-12.974,14.642-25.338,29.835-38.57,44.234
		c-12.381,13.475-25.499,26.276-38.394,39.273c-3.741,3.772-7.656,7.416-11.794,10.743c-13.693,11.009-27.646,21.699-41.277,32.784
		c-19.078,15.518-37.702,31.604-57.046,46.779c-8,6.276-17.436,10.697-26.082,16.177c-17.35,10.996-34.492,22.321-51.942,33.153
		c-10.389,6.448-21.189,12.237-31.822,18.291c-11.762,6.696-23.521,13.4-35.322,20.027c-27.414,15.393-54.682,31.06-82.359,45.964
		c-12.815,6.901-26.392,12.406-39.724,18.315c-21.213,9.403-42.345,19.02-63.83,27.758c-13.46,5.476-27.665,9.092-41.258,14.271
		c-28.546,10.873-56.13,7.65-84.307-2.454c-17.754-6.367-36.4-7.354-55.789-3.777c-14.419,2.66-29.839,0.225-44.79-0.451
		c-8.259-0.375-16.464-1.871-24.709-2.706c-2.298-0.232-4.678-0.112-6.975,0.191c-13.444,1.774-26.827,4.252-40.323,5.335
		c-15.225,1.222-30.55,1.715-45.827,1.654c-39.615-0.158-79.229-1.078-118.843-1.143c-28.281-0.047-56.679-0.627-84.814,1.641
		c-28.961,2.332-57.828,0.787-86.726,1.479c-5.056,0.121-8.776,1.407-12.26,5.124c-10.255,10.937-20.771,21.649-33.958,29.193
		c-2.538,1.453-5.134,3.412-7.885,3.78c-9.164,1.228-18.396,2.168-27.63,2.588c-9.313,0.423-18.662-0.042-27.992,0.12
		c-17.894,0.312-34.078-5.439-49.001-14.58c-8.999-5.512-17.04-12.568-25.737-18.605c-2.26-1.569-5.348-2.648-8.085-2.712
		c-15.615-0.363-30.629,1.646-46.064,5.722c-24.803,6.55-50.258,13.004-76.48,9.301
		C1453.164,3264.163,1447.037,3261.195,1440.449,3259.07z"/>
	<path fill-rule="evenodd" d="M1598.844,247.64c9.881,0,19.554-0.313,29.193,0.117c5.899,0.263,11.734,1.768,17.622,2.539
		c9.159,1.2,18.325,2.361,27.512,3.327c6.735,0.709,12.612,3.008,18.502,6.544c5.799,3.482,12.526,6.123,19.173,7.315
		c9.118,1.636,16.759,6.123,24.783,9.998c7.108,3.432,13.895,7.732,21.284,10.339c11.12,3.922,18.859,12.184,27.47,19.358
		c10.411,8.675,16.99,20.165,23.277,31.977c8.063,15.149,16.479,30.147,21.354,46.666c3.73,12.635,6.302,25.607,9.587,38.379
		c4.697,18.256,9.782,36.416,14.293,54.717c2.608,10.58,3.9,21.497,6.744,32.002c2.321,8.572,5.685,16.935,9.404,25.013
		c1.187,2.576,4.846,4.221,7.65,5.794c4.268,2.395,9.329,3.66,13.086,6.629c13.82,10.919,29.078,19.338,44.165,28.299
		c19.316,11.472,36.869,25.917,55.165,39.106c13.991,10.086,28.062,20.066,41.907,30.349c17.607,13.077,34.98,26.592,48.374,44.144
		c8.396,11.004,17.133,22.346,22.508,34.909c6.845,15.998,10.724,33.308,15.296,50.211c1.618,5.981,2.386,12.475,2.046,18.652
		c-1.289,23.431,5.127,45.157,12.55,66.993c8.196,24.111,15.062,48.682,22.179,73.149c1.646,5.657,4.024,10.442,8.686,14.027
		c11.061,8.501,22.054,17.092,33.199,25.479c15.902,11.966,31.573,24.284,47.984,35.515c15.322,10.487,31.137,20.37,47.344,29.428
		c35.373,19.77,72.435,36.115,109.72,51.885c8.179,3.458,17.088,5.209,25.686,7.659c19.753,5.63,39.7,10.66,59.232,16.973
		c16.646,5.38,32.843,12.156,49.194,18.431c7.101,2.725,14.093,5.737,21.127,8.634c9.965,4.104,15.982,12.829,23.036,20.215
		c2.307,2.416,3.919,6.548,3.937,9.906c0.068,12.943-0.849,25.888-0.968,38.836c-0.065,7.185-3.121,13.043-7.523,18.008
		c-9.535,10.751-20.114,20.184-34.024,25.337c-17.405,6.448-34.406,14.027-51.939,20.076c-16.908,5.832-34.169,10.726-51.459,15.348
		c-35.969,9.614-72.773,15.224-109.436,21.275c-21.245,3.506-42.871,4.699-64.32,6.979c-13.526,1.437-27.02,3.224-40.567,4.384
		c-27.115,2.323-54.052,7.518-81.439,5.492c-3.391-0.251-7.401-1.154-9.829-3.252c-3.461-2.993-6.994-3.37-11.032-3.307
		c-15.982,0.245-31.965,0.631-47.948,0.623c-17.315-0.009-34.652,0.08-51.941-0.715c-41.446-1.903-82.909-3.732-124.109-9.104
		c-26.632-3.472-53.367-6.229-79.909-10.268c-21.914-3.334-43.704-7.655-65.384-12.31c-25.267-5.425-50.489-11.177-75.479-17.749
		c-20.11-5.289-39.891-11.868-59.736-18.13c-18.915-5.967-37.909-11.762-56.53-18.558c-18.362-6.7-36.383-14.365-54.4-21.971
		c-16.786-7.087-33.489-14.398-50.004-22.09c-12.919-6.018-25.617-12.545-38.199-19.25c-19.561-10.422-38.988-21.1-58.381-31.833
		c-17.101-9.465-34.403-18.629-51.028-28.882c-19.443-11.991-38.324-24.902-57.306-37.628
		c-17.362-11.639-34.814-23.177-51.707-35.474c-16.348-11.902-32.241-24.46-47.961-37.189
		c-21.166-17.139-42.119-34.55-62.874-52.184c-10.131-8.608-19.761-17.827-29.349-27.048c-19.428-18.688-38.65-37.587-58.034-56.32
		c-1.592-1.54-3.644-2.769-5.695-3.642c-14.222-6.058-26.538-14.924-37.925-25.236c-11.829-10.71-24.221-20.849-35.506-32.101
		c-19.297-19.243-37.139-39.673-52.901-62.139c-14.438-20.577-31.665-39.179-47.315-58.926
		c-11.74-14.813-23.067-29.96-34.252-45.199c-2.462-3.356-3.701-7.664-5.232-11.638c-5.336-13.844-10.355-27.815-15.935-41.558
		c-1.716-4.225-4.552-8.104-7.379-11.75c-11.072-14.282-18.354-30.474-24.672-47.233c-1.973-5.231-4.389-10.403-7.353-15.131
		c-6.735-10.742-9.221-22.512-9.952-34.917c-0.231-3.918-1.639-7.766-1.884-11.684c-0.83-13.25-2.447-26.583-1.646-39.756
		c0.504-8.305,4.101-16.683,7.539-24.486c4.909-11.141,10.46-22.073,16.677-32.537c3.645-6.137,8.633-11.699,13.854-16.634
		c13.749-12.993,27.846-25.624,42.038-38.136c4.928-4.345,10.321-8.262,15.882-11.769c10.908-6.88,21.52-13.985,31.631-22.139
		c10.467-8.441,23.006-14.268,34.341-21.693c9.081-5.948,17.642-12.685,26.573-18.873c6.483-4.492,13.209-8.633,19.8-12.973
		c18.502-12.183,36.786-24.715,55.562-36.461c10.891-6.814,22.384-12.741,33.923-18.423c17.408-8.571,35.015-16.751,52.691-24.758
		c10.406-4.715,19.567-12.032,31.215-14.259c4.071-0.778,7.831-3.411,11.616-5.417c22.896-12.136,48.021-18.593,71.905-28.212
		c11.244-4.53,22.938-7.754,34.723-10.863c13.15-3.472,26.329-5.79,39.742-7.475c4.509-0.567,8.843-2.439,13.304-3.52
		c2.882-0.698,5.847-1.452,8.78-1.476c14.255-0.12,28.48,0.05,42.318-4.458c3.025-0.986,6.617-0.207,9.947-0.283
		c27.973-0.632,55.817,0.262,83.405,5.683c8.11,1.593,16.559,1.421,24.714,2.848c16.381,2.867,31.033,9.378,42.574,21.891
		c17.117,18.559,34.614,36.777,51.393,55.634c10.293,11.568,19.91,23.79,29.176,36.207c10.049,13.466,19.23,27.576,29.016,41.243
		C1590.622,238.242,1594.9,242.862,1598.844,247.64z"/>
</g>
</svg>
