<?xml version="1.0" encoding="utf-8"?>
<!-- Generator: Adobe Illustrator 16.0.2, SVG Export Plug-In . SVG Version: 6.00 Build 0)  -->
<!DOCTYPE svg PUBLIC "-//W3C//DTD SVG 1.1 Tiny//EN" "http://www.w3.org/Graphics/SVG/1.1/DTD/svg11-tiny.dtd">
<svg version="1.1" baseProfile="tiny" id="Layer_1" xmlns="http://www.w3.org/2000/svg" xmlns:xlink="http://www.w3.org/1999/xlink"
	 x="0px" y="0px" width="4411.448px" height="2694.663px" viewBox="0 0 4411.448 2694.663" xml:space="preserve">
<g>
	<path fill-rule="evenodd" fill="#FFFFFF" d="M2,2697.662C2,1799.108,2,900.554,2,2c1471.149,0,2942.299,0,4413.447,0
		c0,898.554,0,1797.108,0,2695.662C2944.299,2697.662,1473.149,2697.662,2,2697.662z M1634.118,2406.219
		c10.783-11.255,21.302-21.83,31.349-32.838c9.565-10.481,17.372-21.879,14.708-37.337c-0.391-2.266-0.165-4.663-0.036-6.988
		c0.915-16.586-5.679-30.861-15.781-42.943c-10.165-12.155-22.291-22.673-33.553-33.911c-10.761-10.74-24.571-16.328-38.713-19.492
		c-23.728-5.308-48.067-6.298-72.401-5.196c-2.602,0.118-5.415,0.673-7.698,1.856c-11.888,6.165-25.112,5.738-37.792,7.93
		c-3.563,0.616-7.046,0.453-10.112-2.627c-10.098-10.146-20.672-19.824-30.699-30.038c-11.186-11.396-22.153-23.02-32.893-34.84
		c-16.094-17.715-32.02-35.584-47.801-53.578c-14.904-16.992-29.541-34.219-44.27-51.362
		c-11.044-12.856-22.144-25.669-33.051-38.643c-13.889-16.519-27.539-33.239-41.421-49.765
		c-13.46-16.022-26.793-32.168-40.729-47.771c-11.74-13.146-23.768-26.118-36.565-38.217c-15.19-14.36-31.427-27.609-47.055-41.514
		c-25.028-22.27-48.177-46.73-76.298-65.383c-3.617-2.398-5.089-5.332-5.26-9.881c-0.449-11.94-1.259-23.904-2.781-35.75
		c-0.651-5.073-2.846-10.191-5.341-14.742c-8.774-15.999-22.517-27.832-34.846-40.896c-15.079-15.978-32.709-26.854-54.415-31.155
		c-5.47-1.084-10.955-3.125-15.871-5.771c-12.975-6.979-26.691-11.938-40.943-15.133c-9.649-2.162-19.616-3.597-29.488-3.929
		c-18.217-0.613-36.468-0.176-55.365-0.176c-0.15-0.872-0.699-2.442-0.645-3.991c0.565-15.934,1.862-31.875,1.587-47.79
		c-0.133-7.634,0.816-14.626,4.199-21.144c4.1-7.896,5.792-16.199,6.083-24.918c0.521-15.544,3.48-30.122,13.55-42.836
		c4.475-5.652,7.524-12.54,10.625-19.146c3.483-7.423,8.271-13.684,14.642-18.688c15.397-12.092,30.782-24.204,46.403-36.002
		c13.873-10.475,28.978-18.923,45.675-23.942c26.704-8.027,53.595-15.428,80.327-23.362c19.732-5.856,39.106-13.073,60.063-13.563
		c11.902-0.279,23.813-1.618,35.688-1.308c29.76,0.779,58.588,7.604,87.215,15.097c10.241,2.681,20.343,6.143,30.166,10.1
		c10.423,4.199,20.357,9.596,30.659,14.117c7.593,3.333,16.314,4.838,22.929,9.455c7.477,5.217,14.902,6.506,23.354,5.979
		c3.32-0.206,6.675,0.146,9.994-0.071c5.761-0.379,10.211,1.769,14.146,5.928c2.933,3.1,6.215,6.039,9.813,8.301
		c7.437,4.676,17.271,4.097,23.986,10.634c0.576,0.562,1.925,0.509,2.899,0.452c17.394-1.012,35.362,3.527,51.954-5.422
		c1.711-0.924,3.808-1.565,5.735-1.59c16.408-0.21,30.909-7.212,45.918-12.516c19.089-6.744,38.23-13.35,57.465-19.662
		c12.302-4.038,25.109-6.664,37.164-11.295c20.805-7.991,41.853-14.979,63.447-20.509c17.359-4.446,34.556-9.563,51.719-14.734
		c15.269-4.6,30.413-9.62,45.564-14.598c3.432-1.127,6.714-2.752,9.985-4.316c5.473-2.618,10.881-5.372,16.827-8.32
		c0.902,2.145,1.408,3.627,2.123,5.001c4.132,7.935,7.486,16.444,12.688,23.609c6.605,9.097,14.842,16.994,22.146,25.603
		c5.36,6.318,10.166,13.109,15.55,19.407c11.658,13.634,24.753,26.314,32.849,42.488c10.198,20.373,25.126,36.631,41.474,51.92
		c2.189,2.048,4.395,4.108,6.342,6.379c4.108,4.787,8.071,9.7,12.053,14.594c3.341,4.107,6.266,8.622,9.994,12.334
		c18.156,18.071,36.323,36.14,54.871,53.805c14.44,13.751,29.222,27.164,44.252,40.268c20.52,17.887,41.097,35.755,65.285,48.784
		c18.486,9.958,37.541,18.669,57.727,24.44c9.191,2.628,18.861,4.172,28.407,4.82c11.944,0.811,23.987,0.408,35.98,0.135
		c12.066-0.273,24.053-2.251,34.701-7.929c11.658-6.219,23.923-10.006,36.754-11.973c14.858-2.277,29.242-5.964,43.121-11.703
		c18.372-7.598,35.931-17.167,55.583-21.633c11.08-2.517,20.55-8.992,30.644-14.033c21.095-10.534,40.938-23.021,60.907-35.388
		c14.078-8.719,28.195-17.388,42.538-25.659c11.192-6.455,23.069-11.755,34.089-18.474c18.697-11.398,36.936-23.548,55.409-35.313
		c21.246-13.533,42.558-26.966,63.8-40.504c5.598-3.566,10.869-7.676,16.6-11.002c23.876-13.857,46.593-29.361,67.925-46.891
		c3.326-2.732,6.643-5.482,10.072-8.082c9.997-7.581,20.585-14.483,29.961-22.761c16.449-14.521,32.36-29.671,48.082-44.983
		c4.823-4.698,9.476-6.416,15.993-4.984c21.742,4.774,43.6,9.029,65.314,13.919c14.219,3.202,28.395,6.731,42.347,10.921
		c9.833,2.952,19.144,7.6,28.892,10.887c18.533,6.249,37.227,12.02,55.809,18.127c2.142,0.704,4.1,2.141,5.958,3.489
		c7.196,5.224,15.077,8.215,24.081,8.089c7.997-0.111,16.021,0.362,23.989-0.118c10.246-0.617,20.512-1.515,30.654-3.045
		c13.792-2.08,27.424-5.203,41.214-7.282c22.611-3.408,45.313-6.211,67.942-9.513c13.478-1.967,26.817-5.042,40.341-6.475
		c22.102-2.342,44.273-4.591,66.468-5.36c35.918-1.247,71.894-1.118,107.105,7.755c11.827,2.98,23.844,5.136,34.382,12.504
		c20.091,14.048,40.872,27.106,61.193,40.834c3.19,2.155,5.653,5.516,8.128,8.581c11.484,14.226,22.878,28.525,34.258,42.835
		c9.751,12.261,18.147,25.245,23.217,40.284c5.574,16.538,9.368,33.212,8.002,50.843c-0.296,3.833,1.027,7.784,1.554,11.688
		c0.861,6.398,1.681,12.804,2.629,20.055c-3.844-0.578-6.232-0.551-8.333-1.313c-18.558-6.744-37.825-6.91-57.159-6.264
		c-6.945,0.232-14.06,0.231-20.771,1.763c-23.831,5.436-46.799,13.31-65.433,29.95c-13.359,11.931-26.43,24.151-35.357,40.218
		c-8.116,14.602-14.915,29.598-19.034,45.797c-1.838,7.23-5.322,12.948-11.966,17.366c-11.043,7.344-21.615,15.484-31.836,23.952
		c-18.398,15.243-36.389,30.98-54.556,46.503c-7.58,6.477-15.037,13.105-22.796,19.362c-22.436,18.092-45.791,35.14-67.278,54.288
		c-20.59,18.348-39.669,38.458-58.737,58.436c-27.562,28.873-54.795,58.071-81.634,87.617c-19.43,21.39-38.012,43.55-56.927,65.406
		c-6.305,7.283-12.438,14.714-18.706,22.029c-9.292,10.845-18.614,21.663-27.958,32.463c-7.832,9.048-15.543,18.207-23.605,27.047
		c-15.012,16.462-30.713,32.295-43.476,50.715c-3.708,5.351-8.606,9.878-13.188,15.041c-5.665-6.026-11.437-10.291-19.333-10.693
		c-1.561-0.079-3.274-0.941-4.564-1.912c-7.999-6.016-17.216-6.022-26.646-6.264c-13.766-0.351-27.196,1.276-40.52,4.502
		c-11.082,2.684-21.739,5.966-29.219,15.533c-2.444,3.127-5.954,5.43-8.354,8.583c-6.21,8.157-12.863,16.127-17.916,24.983
		c-11.985,21.004-12.97,44.297-12.188,67.744c0.651,19.563,8.679,35.823,22.488,49.446c5.889,5.811,11.676,11.726,17.674,17.759
		c-1.675,3.6-3.51,6.449-4.361,9.568c-3.662,13.396-7.995,26.719-10.193,40.373c-1.622,10.069-0.274,20.611-0.333,30.943
		c-0.046,8.201,2.287,15.674,6.289,22.774c5.866,10.409,15.451,17.258,23.623,25.502c5.153,5.2,10.766,8.887,17.825,10.142
		c6.863,1.221,13.812,2.669,20.732,2.726c20.647,0.168,41.31,0.017,61.947-0.618c16.029-0.493,30.6-5.502,42.721-16.557
		c2.384-2.175,5.173-3.905,8.379-6.289c5.593,4.196,10.832,8.186,16.139,12.085c2.906,2.138,5.729,4.51,8.923,6.115
		c17.188,8.645,35.224,13.197,54.713,12.983c13.804-0.151,27.079-0.475,39.334-7.992c7.93-4.864,16.419-8.772,22.554-16.155
		c1.896-2.281,4.342-4.108,6.567-6.107c11.113-9.986,22.42-19.769,33.276-30.026c4.984-4.708,7.143-11.009,6.977-18.073
		c-0.193-8.328,0.395-16.692-0.152-24.988c-0.745-11.31-2.965-22.421-8.565-32.47c-4.991-8.952-10.362-17.69-15.087-25.711
		c5.58-6.034,10.469-11.474,15.523-16.753c11.041-11.53,22.41-22.755,33.197-34.516c14.383-15.678,27.868-32.201,42.616-47.516
		c14.302-14.852,29.272-29.136,44.76-42.748c16.181-14.224,33.243-27.452,50.085-40.91c8.789-7.022,18.967-12.602,26.696-20.594
		c15.459-15.986,36.192-24.563,51.248-39.455c12.037,5.817,22.857,11.698,34.178,16.364c17.498,7.213,35.078,14.426,53.108,20.095
		c17.663,5.555,35.785,9.944,53.972,13.473c26.229,5.089,52.921,4.64,79.545,4.63c29.73-0.01,59.106-2.957,87.775-10.824
		c30.353-8.329,61.217-15.797,85.837-37.497c1.595,0.703,3.528,0.975,4.527,2.085c10.196,11.345,23.762,18.061,36.021,26.569
		c3.538,2.457,6.483,6.082,10.319,7.747c19.73,8.564,39.127,18.03,60.839,21.155c21.86,3.146,43.692,4.307,65.542,0.813
		c5.935-0.948,9.767,0.687,14.094,4.631c11.036,10.061,21.95,20.541,34.269,28.842c15.449,10.412,30.88,20.567,44.731,33.184
		c8.625,7.854,18.821,13.125,31.479,12.712c18.229-0.594,36.07-1.363,54.238-5.412c20.869-4.652,38.4-14.825,55.254-26.108
		c13.09-8.764,23.621-21.355,35.252-32.288c3.139-2.951,5.904-6.341,9.234-9.043c12.091-9.812,25.011-18.649,34.691-31.196
		c1.478-1.915,4.38-2.878,6.779-3.916c13.269-5.741,23.223-15.759,31.537-26.882c8.111-10.849,14.734-22.924,21.025-34.975
		c3.46-6.628,6.004-14.172,6.952-21.562c1.179-9.181,0.817-18.671,0.068-27.942c-0.408-5.053-2.523-10.155-4.741-14.819
		c-1.973-4.146-4.998-7.837-7.822-11.527c-14.975-19.563-30.654-38.505-48.657-55.429c-7.767-7.301-14.634-15.652-22.878-22.331
		c-19.188-15.545-36.28-33.179-53.461-50.794c-3.799-3.896-4.572-7.701-3.567-12.571c2.006-9.713,4.192-19.403,5.736-29.192
		c2.376-15.071,5.165-30.159,6.153-45.347c1.294-19.891,2.308-39.966,1.077-59.814c-1.599-25.777-5.206-51.361-3.858-77.366
		c0.754-14.526-0.848-29.201-1.775-43.784c-1.094-17.178-2.484-34.341-3.959-51.492c-3.158-36.726-17.272-70.088-32.001-103.238
		c-7.952-17.9-16.191-35.674-23.97-53.647c-2.898-6.697-4.59-13.906-7.283-20.703c-11.83-29.847-29.342-56.558-46.954-83.11
		c-13.942-21.019-28.714-41.512-43.718-61.792c-8.683-11.735-18.422-22.701-27.919-33.814
		c-15.325-17.931-30.452-36.056-46.375-53.447c-22.487-24.562-47.999-46.011-72.304-68.708
		c-16.308-15.229-32.62-30.417-51.199-42.775c-14.625-9.727-30.043-18.261-45.05-27.42c-24.669-15.057-49.169-30.438-76.018-41.474
		c-11.937-4.908-24.275-8.892-36.022-14.199c-22.207-10.034-44.877-18.403-69.057-22.11c-24.266-3.72-48.538-7.412-72.85-10.828
		c-32.243-4.529-64.541-8.779-97.204-8.198c-17.276,0.307-34.538,1.658-51.813,1.797c-23.98,0.191-47.967-0.512-71.948-0.408
		c-7.931,0.033-15.88,1.182-23.777,2.167c-14.156,1.764-28.249,5.081-42.424,5.421c-25.688,0.618-50.867,3.831-76.134,8.378
		c-35.899,6.461-72.106,11.234-108.218,16.489c-33.545,4.881-66.573,12.221-99.444,20.348c-9.13,2.259-18.204,4.747-27.667,7.225
		c0.211-11.535,0.186-11.61,8.624-14.478c18.268-6.209,37.072-10.114,55.921-14.201c31.457-6.821,62.693-14.892,93.616-23.84
		c16.527-4.783,32.42-12.018,48.202-19.038c14.285-6.354,27.294-14.802,38.758-25.822c11.67-11.217,24.359-21.383,36.703-31.889
		c9.595-8.165,13.591-18.962,13.486-30.99c-0.178-20.606-0.882-41.227-2.123-61.795c-0.367-6.084-2.607-12.324-5.188-17.941
		c-3.73-8.117-8.152-15.989-12.994-23.506c-9.52-14.779-22.563-26.503-37.254-35.498c-8.638-5.29-16.438-11.001-23.656-17.901
		c-11.033-10.545-22.29-20.823-35.951-28.056c-3.807-2.017-7.138-4.917-10.901-7.028c-14.442-8.104-28.473-17.204-43.601-23.752
		c-17.007-7.362-35.052-12.316-52.607-18.427c-6.888-2.397-14.083-4.336-20.426-7.792c-18.365-10.004-36.376-20.661-54.514-31.083
		c-24.17-13.888-48.33-27.793-72.491-41.695c-13.514-7.775-26.924-15.738-40.575-23.266c-7.238-3.991-15.069-6.907-22.297-10.915
		c-5.126-2.843-10.837-5.816-14.273-10.281c-7.885-10.248-15.105-21.117-21.565-32.328c-10.887-18.895-26.078-34.333-39.515-51.179
		c-12.032-15.087-23.916-30.108-31.407-48.284c-5.558-13.484-13.092-26.102-23.5-36.639c-11.478-11.618-23.002-23.189-34.685-34.6
		c-2.543-2.484-5.779-4.292-8.802-6.247c-8.89-5.75-17.951-11.241-26.729-17.156c-14.646-9.869-30.18-16.462-48.335-15.836
		c-21.605,0.744-43.228,1.179-64.845,1.312c-11.281,0.069-22.571-1.217-33.852-1.149c-20.618,0.122-41.231,0.85-61.849,1.222
		c-16.982,0.307-34.04-0.398-50.928,0.993c-11.339,0.935-19.862-3.654-28.095-9.597c-16.914-12.21-33.331-25.108-50.204-37.377
		c-11.274-8.198-22.897-15.929-34.518-23.638c-14.025-9.305-30.231-13.506-45.772-19.323c-25.17-9.421-50.974-8.616-76.785-4.9
		c-12.403,1.786-24.499,5.78-36.685,8.959c-8.013,2.09-15.979,4.385-23.896,6.817c-8.569,2.632-16.908,6.208-25.623,8.12
		c-8.607,1.889-16.298,5.125-23.888,9.509c-8.287,4.786-17.471,7.997-25.891,12.579c-8.403,4.573-17.382,8.897-24.203,15.345
		c-7.134,6.744-14.118,10.568-23.827,9.235c-2.626-0.36-5.324-0.173-7.966-0.455c-34.725-3.697-69.502-6.254-104.468-5.623
		c-14.992,0.271-30-0.215-44.99,0.128c-11.946,0.272-24.038,0.28-35.771,2.205c-15.658,2.569-31.228,5.875-45.191,14.589
		c-13.513,8.432-27.716,15.76-41.631,23.547c-6.66,3.727-13.6,7.017-19.994,11.152c-31.566,20.416-60.436,44.457-89.37,68.281
		c-31.15,25.65-58.212,55.595-84.591,86.051c-13.265,15.314-26.042,31.063-38.721,46.871c-9.969,12.432-19.541,25.187-29.119,37.927
		c-11.183,14.874-21.983,30.041-33.311,44.802c-15.61,20.342-29.869,41.491-41.875,64.204c-5.405,10.226-11.078,20.644-18.49,29.401
		c-12.451,14.708-26.081,28.468-39.783,42.052c-14.86,14.731-26.299,32.036-35.01,50.549c-8.002,17.007-18.906,32.023-28.137,48.13
		c-6.301,10.995-10.844,21.814-10.329,34.642c0.388,9.65,0.452,19.345-0.016,28.987c-0.631,13.025,2.978,24.338,12.116,33.652
		c3.725,3.797,5.205,8.015,5.67,13.311c0.856,9.755,3.728,18.804,12.278,25.069c2.486,1.822,4.261,4.616,7.452,8.184
		c-4.076,0-6.325,0.149-8.551-0.024c-15.55-1.212-31.092-3.525-46.641-3.563c-54.199-0.134-108.454-1.986-162.457,5.382
		c-26.289,3.586-52.917,4.755-79.151,8.643c-24.9,3.689-49.735,8.511-74.133,14.674c-20.886,5.276-41.183,12.951-61.606,19.958
		c-13.19,4.526-25.982,10.229-39.225,14.58c-24.695,8.113-48.567,17.899-71.132,30.931c-23.923,13.815-47.254,28.39-68.104,46.688
		c-12.216,10.722-24.554,21.327-37.205,31.528c-16.517,13.318-34.051,25.441-49.963,39.426
		c-22.23,19.539-43.49,40.196-64.938,60.612c-21.006,19.996-38.853,42.818-57.047,65.282c-13.998,17.283-27.137,35.26-41.032,52.629
		c-16.671,20.839-30.099,43.758-43.431,66.724c-8.997,15.495-17.348,31.373-25.723,47.22c-7.128,13.485-14.772,26.799-20.603,40.846
		c-10.948,26.379-21.418,53.001-30.823,79.962c-7.649,21.928-13.953,44.367-19.92,66.827c-4.939,18.591-8.934,37.464-12.508,56.371
		c-1.651,8.738-1.355,17.851-1.856,26.798c-1.113,19.889-2.616,39.768-3.142,59.673c-0.677,25.638-0.394,51.297-0.819,76.943
		c-0.475,28.665,1.541,57.107,7.293,85.202c0.77,3.758-0.625,5.486-2.894,7.615c-10.676,10.021-21.734,19.686-31.814,30.277
		c-21.781,22.892-43.153,46.177-64.392,69.573c-2.723,3.001-4.935,7.549-5.175,11.514c-0.663,10.953-0.95,22.055,0.135,32.947
		c0.906,9.086-0.218,18.698,4.947,27.161c4.508,7.388,6.867,15.607,9.239,23.932c1.583,5.561,5.113,10.883,8.842,15.436
		c4.615,5.634,9.969,10.82,15.655,15.388c13.459,10.812,26.759,21.739,39.317,33.632c7.413,7.019,16.017,12.788,24.158,19.024
		c7.601,5.823,15.397,11.393,22.924,17.306c9.66,7.588,18.8,15.878,28.776,23.01c12.406,8.87,25.3,17.084,38.243,25.164
		c8.865,5.534,18.7,8.36,29.308,8.127c4.992-0.11,10.252-0.901,14.938,0.335c13.181,3.479,26.501,2.114,39.765,2.174
		c6.25,0.027,13.212,0.269,18.6-2.258c8.843-4.144,16.73-10.374,24.892-15.912c3.265-2.215,6.098-5.054,9.286-7.394
		c10.433-7.657,21.599-14.509,29.776-24.765c8.532-10.699,18.315-17.127,32.567-12.258c0.897,0.307,1.988,0.019,2.986,0.061
		c25.288,1.077,50.587,1.829,75.715-2.063c24.815-3.846,49.112-9.146,67.559-28.319c0.639-0.663,1.736-0.886,1.878-0.954
		c9.775,5.344,18.713,11.14,28.365,15.271c11.548,4.943,23.445,9.679,35.665,12.299c15.843,3.398,32.117,4.947,48.269,6.704
		c24.066,2.621,48.148,5.487,72.302,6.785c15.865,0.853,31.922-0.241,47.796-1.586c25.79-2.184,51.538-4.981,77.229-8.127
		c13.13-1.608,26.426-3.415,39.07-7.109c24.526-7.166,48.637-15.779,71.757-26.82c8.271-3.949,16.231-8.551,24.64-13.017
		c5.824,5.556,11.575,10.615,16.835,16.143c13.991,14.701,27.751,29.621,41.644,44.416c6.149,6.55,12.281,13.121,18.621,19.485
		c13.637,13.688,27.14,27.528,41.188,40.787c16.42,15.499,33.164,30.67,50.136,45.563c14.723,12.92,29.522,25.832,45.132,37.634
		c9.699,7.334,16.796,16.603,24.744,25.015c-7.551,12.823-12.888,25.775-13.826,39.853c-0.863,12.941-0.164,25.984-0.189,38.981
		c-0.015,8.215,2.026,16.001,6.646,22.646c4.693,6.751,9.813,13.398,15.732,19.061c15.832,15.147,33.514,26.328,56.99,23.406
		c5.251-0.654,10.657,0.038,15.983-0.151c2.952-0.105,5.883-0.755,8.824-1.154c5.233-0.712,10.452-1.882,15.701-2.041
		c14.914-0.451,29.84-0.488,46.533-0.715c2.297,1.776,6.09,5.015,10.18,7.818c13.491,9.248,27.552,17.117,44.16,19.546
		c20.157,2.948,40.384,3.823,60.702,3.153c6.939-0.229,12.808-3.213,17.954-7.741c13.705-12.063,27.409-24.129,41.12-36.186
		c8.641-7.598,13.856-16.884,14.403-28.586c0.247-5.292,0.805-10.571,1.168-15.859
		C1651.667,2461.577,1650.002,2432.283,1634.118,2406.219z"/>
	<path fill-rule="evenodd" d="M1634.118,2406.219c15.885,26.064,17.549,55.358,15.487,85.31c-0.364,5.288-0.921,10.567-1.168,15.859
		c-0.547,11.702-5.762,20.988-14.403,28.586c-13.711,12.057-27.415,24.122-41.12,36.186c-5.146,4.528-11.014,7.512-17.954,7.741
		c-20.318,0.67-40.545-0.205-60.702-3.153c-16.607-2.429-30.669-10.298-44.16-19.546c-4.09-2.804-7.883-6.042-10.18-7.818
		c-16.693,0.227-31.619,0.264-46.533,0.715c-5.25,0.159-10.468,1.329-15.701,2.041c-2.941,0.399-5.872,1.049-8.824,1.154
		c-5.326,0.189-10.732-0.503-15.983,0.151c-23.476,2.922-41.158-8.259-56.99-23.406c-5.919-5.662-11.04-12.31-15.732-19.061
		c-4.62-6.645-6.66-14.431-6.646-22.646c0.025-12.997-0.674-26.04,0.189-38.981c0.938-14.077,6.275-27.029,13.826-39.853
		c-7.948-8.412-15.045-17.681-24.744-25.015c-15.609-11.802-30.409-24.714-45.132-37.634
		c-16.973-14.893-33.716-30.063-50.136-45.563c-14.047-13.259-27.55-27.099-41.188-40.787c-6.34-6.364-12.472-12.936-18.621-19.485
		c-13.893-14.795-27.653-29.715-41.644-44.416c-5.26-5.527-11.011-10.587-16.835-16.143c-8.408,4.466-16.369,9.067-24.64,13.017
		c-23.12,11.041-47.231,19.654-71.757,26.82c-12.644,3.694-25.94,5.501-39.07,7.109c-25.691,3.146-51.439,5.943-77.229,8.127
		c-15.875,1.345-31.931,2.438-47.796,1.586c-24.153-1.298-48.235-4.164-72.302-6.785c-16.152-1.757-32.426-3.306-48.269-6.704
		c-12.219-2.62-24.116-7.355-35.665-12.299c-9.651-4.131-18.589-9.927-28.365-15.271c-0.142,0.068-1.239,0.291-1.878,0.954
		c-18.447,19.174-42.743,24.474-67.559,28.319c-25.128,3.893-50.427,3.141-75.715,2.063c-0.998-0.042-2.088,0.246-2.986-0.061
		c-14.252-4.869-24.035,1.559-32.567,12.258c-8.178,10.256-19.344,17.107-29.776,24.765c-3.188,2.34-6.021,5.179-9.286,7.394
		c-8.162,5.538-16.049,11.769-24.892,15.912c-5.388,2.526-12.35,2.285-18.6,2.258c-13.263-0.06-26.584,1.305-39.765-2.174
		c-4.685-1.236-9.945-0.445-14.938-0.335c-10.608,0.233-20.443-2.593-29.308-8.127c-12.943-8.08-25.837-16.294-38.243-25.164
		c-9.976-7.132-19.116-15.422-28.776-23.01c-7.527-5.913-15.324-11.482-22.924-17.306c-8.141-6.236-16.745-12.006-24.158-19.024
		c-12.558-11.893-25.858-22.82-39.317-33.632c-5.687-4.567-11.04-9.754-15.655-15.388c-3.729-4.553-7.259-9.875-8.842-15.436
		c-2.372-8.324-4.731-16.544-9.239-23.932c-5.165-8.463-4.041-18.075-4.947-27.161c-1.084-10.893-0.797-21.994-0.135-32.947
		c0.24-3.965,2.452-8.513,5.175-11.514c21.239-23.396,42.611-46.682,64.392-69.573c10.08-10.592,21.138-20.257,31.814-30.277
		c2.269-2.129,3.664-3.857,2.894-7.615c-5.752-28.095-7.768-56.537-7.293-85.202c0.425-25.646,0.142-51.306,0.819-76.943
		c0.526-19.905,2.029-39.784,3.142-59.673c0.501-8.947,0.205-18.06,1.856-26.798c3.575-18.907,7.569-37.78,12.508-56.371
		c5.967-22.46,12.271-44.899,19.92-66.827c9.405-26.961,19.875-53.583,30.823-79.962c5.83-14.047,13.475-27.36,20.603-40.846
		c8.375-15.847,16.726-31.725,25.723-47.22c13.332-22.966,26.76-45.885,43.431-66.724c13.895-17.369,27.034-35.346,41.032-52.629
		c18.194-22.464,36.041-45.286,57.047-65.282c21.448-20.417,42.708-41.073,64.938-60.612c15.912-13.985,33.447-26.107,49.963-39.426
		c12.651-10.201,24.988-20.806,37.205-31.528c20.849-18.299,44.18-32.873,68.104-46.688c22.565-13.032,46.437-22.818,71.132-30.931
		c13.243-4.35,26.035-10.054,39.225-14.58c20.423-7.008,40.72-14.683,61.606-19.958c24.398-6.163,49.233-10.985,74.133-14.674
		c26.234-3.887,52.863-5.056,79.151-8.643c54.003-7.368,108.258-5.516,162.457-5.382c15.549,0.038,31.091,2.351,46.641,3.563
		c2.226,0.174,4.475,0.024,8.551,0.024c-3.191-3.568-4.966-6.362-7.452-8.184c-8.55-6.265-11.421-15.314-12.278-25.069
		c-0.465-5.296-1.945-9.513-5.67-13.311c-9.138-9.314-12.747-20.627-12.116-33.652c0.468-9.642,0.403-19.337,0.016-28.987
		c-0.516-12.828,4.028-23.647,10.329-34.642c9.231-16.106,20.135-31.123,28.137-48.13c8.711-18.513,20.15-35.818,35.01-50.549
		c13.703-13.584,27.333-27.344,39.783-42.052c7.412-8.757,13.084-19.175,18.49-29.401c12.006-22.713,26.265-43.862,41.875-64.204
		c11.328-14.762,22.127-29.928,33.311-44.802c9.579-12.74,19.15-25.495,29.119-37.927c12.678-15.809,25.456-31.557,38.721-46.871
		c26.379-30.456,53.441-60.401,84.591-86.051c28.934-23.824,57.803-47.865,89.37-68.281c6.394-4.135,13.333-7.425,19.994-11.152
		c13.915-7.787,28.119-15.115,41.631-23.547c13.963-8.713,29.533-12.02,45.191-14.589c11.733-1.924,23.825-1.932,35.771-2.205
		c14.99-0.343,29.998,0.143,44.99-0.128c34.966-0.631,69.743,1.926,104.468,5.623c2.642,0.282,5.339,0.095,7.966,0.455
		c9.709,1.333,16.693-2.492,23.827-9.235c6.821-6.447,15.8-10.772,24.203-15.345c8.42-4.582,17.604-7.793,25.891-12.579
		c7.59-4.384,15.28-7.62,23.888-9.509c8.715-1.912,17.054-5.488,25.623-8.12c7.917-2.432,15.883-4.727,23.896-6.817
		c12.186-3.179,24.282-7.173,36.685-8.959c25.811-3.716,51.615-4.521,76.785,4.9c15.541,5.816,31.747,10.018,45.772,19.323
		c11.62,7.709,23.243,15.439,34.518,23.638c16.873,12.269,33.29,25.167,50.204,37.377c8.232,5.943,16.756,10.531,28.095,9.597
		c16.888-1.392,33.945-0.687,50.928-0.993c20.617-0.372,41.23-1.1,61.849-1.222c11.28-0.067,22.57,1.219,33.852,1.149
		c21.617-0.133,43.239-0.567,64.845-1.312c18.155-0.626,33.688,5.967,48.335,15.836c8.777,5.916,17.839,11.406,26.729,17.156
		c3.022,1.955,6.259,3.763,8.802,6.247c11.683,11.41,23.207,22.981,34.685,34.6c10.408,10.537,17.942,23.154,23.5,36.639
		c7.491,18.176,19.375,33.197,31.407,48.284c13.437,16.846,28.628,32.284,39.515,51.179c6.46,11.21,13.681,22.08,21.565,32.328
		c3.437,4.465,9.147,7.438,14.273,10.281c7.228,4.007,15.059,6.924,22.297,10.915c13.651,7.527,27.062,15.49,40.575,23.266
		c24.161,13.902,48.321,27.807,72.491,41.695c18.138,10.422,36.148,21.079,54.514,31.083c6.343,3.456,13.538,5.395,20.426,7.792
		c17.556,6.111,35.601,11.064,52.607,18.427c15.128,6.548,29.158,15.648,43.601,23.752c3.764,2.112,7.095,5.012,10.901,7.028
		c13.661,7.232,24.918,17.51,35.951,28.056c7.219,6.9,15.019,12.612,23.656,17.901c14.69,8.994,27.734,20.718,37.254,35.498
		c4.842,7.517,9.264,15.389,12.994,23.506c2.58,5.617,4.82,11.857,5.188,17.941c1.241,20.568,1.945,41.188,2.123,61.795
		c0.104,12.028-3.892,22.826-13.486,30.99c-12.344,10.506-25.033,20.671-36.703,31.889c-11.464,11.021-24.473,19.468-38.758,25.822
		c-15.782,7.02-31.675,14.255-48.202,19.038c-30.923,8.948-62.159,17.019-93.616,23.84c-18.849,4.087-37.653,7.992-55.921,14.201
		c-8.438,2.868-8.413,2.943-8.624,14.478c9.463-2.478,18.537-4.966,27.667-7.225c32.871-8.127,65.899-15.467,99.444-20.348
		c36.111-5.255,72.318-10.028,108.218-16.489c25.267-4.547,50.445-7.76,76.134-8.378c14.175-0.341,28.268-3.658,42.424-5.421
		c7.897-0.984,15.847-2.133,23.777-2.167c23.981-0.104,47.968,0.6,71.948,0.408c17.274-0.139,34.536-1.49,51.813-1.797
		c32.663-0.581,64.961,3.669,97.204,8.198c24.312,3.416,48.584,7.107,72.85,10.828c24.18,3.707,46.85,12.076,69.057,22.11
		c11.747,5.308,24.086,9.292,36.022,14.199c26.849,11.036,51.349,26.417,76.018,41.474c15.007,9.159,30.425,17.693,45.05,27.42
		c18.579,12.358,34.892,27.546,51.199,42.775c24.305,22.696,49.816,44.146,72.304,68.708c15.923,17.391,31.05,35.516,46.375,53.447
		c9.497,11.113,19.236,22.079,27.919,33.814c15.004,20.281,29.775,40.773,43.718,61.792c17.612,26.552,35.124,53.263,46.954,83.11
		c2.693,6.797,4.385,14.006,7.283,20.703c7.778,17.974,16.018,35.747,23.97,53.647c14.729,33.15,28.843,66.513,32.001,103.238
		c1.475,17.151,2.865,34.314,3.959,51.492c0.928,14.583,2.529,29.258,1.775,43.784c-1.348,26.005,2.26,51.589,3.858,77.366
		c1.23,19.849,0.217,39.924-1.077,59.814c-0.988,15.188-3.777,30.275-6.153,45.347c-1.544,9.789-3.73,19.479-5.736,29.192
		c-1.005,4.87-0.231,8.676,3.567,12.571c17.181,17.615,34.273,35.249,53.461,50.794c8.244,6.679,15.111,15.03,22.878,22.331
		c18.003,16.924,33.683,35.865,48.657,55.429c2.824,3.69,5.85,7.381,7.822,11.527c2.218,4.664,4.333,9.767,4.741,14.819
		c0.749,9.271,1.11,18.762-0.068,27.942c-0.948,7.39-3.492,14.934-6.952,21.562c-6.291,12.051-12.914,24.126-21.025,34.975
		c-8.314,11.123-18.269,21.141-31.537,26.882c-2.399,1.038-5.302,2.001-6.779,3.916c-9.681,12.547-22.601,21.385-34.691,31.196
		c-3.33,2.702-6.096,6.092-9.234,9.043c-11.631,10.933-22.162,23.524-35.252,32.288c-16.854,11.283-34.385,21.456-55.254,26.108
		c-18.168,4.049-36.01,4.818-54.238,5.412c-12.657,0.413-22.854-4.857-31.479-12.712c-13.852-12.616-29.282-22.771-44.731-33.184
		c-12.318-8.301-23.232-18.781-34.269-28.842c-4.327-3.944-8.159-5.579-14.094-4.631c-21.85,3.493-43.682,2.333-65.542-0.813
		c-21.712-3.125-41.108-12.591-60.839-21.155c-3.836-1.665-6.781-5.29-10.319-7.747c-12.259-8.509-25.824-15.225-36.021-26.569
		c-0.999-1.11-2.933-1.382-4.527-2.085c-24.62,21.7-55.484,29.168-85.837,37.497c-28.669,7.867-58.045,10.814-87.775,10.824
		c-26.624,0.01-53.316,0.459-79.545-4.63c-18.187-3.528-36.309-7.918-53.972-13.473c-18.03-5.669-35.61-12.882-53.108-20.095
		c-11.32-4.666-22.141-10.547-34.178-16.364c-15.056,14.893-35.789,23.469-51.248,39.455c-7.729,7.992-17.907,13.571-26.696,20.594
		c-16.842,13.458-33.904,26.687-50.085,40.91c-15.487,13.612-30.458,27.896-44.76,42.748
		c-14.748,15.314-28.233,31.838-42.616,47.516c-10.787,11.761-22.156,22.985-33.197,34.516c-5.055,5.279-9.943,10.719-15.523,16.753
		c4.725,8.021,10.096,16.759,15.087,25.711c5.601,10.049,7.82,21.16,8.565,32.47c0.547,8.296-0.041,16.66,0.152,24.988
		c0.166,7.064-1.992,13.365-6.977,18.073c-10.856,10.258-22.163,20.04-33.276,30.026c-2.226,1.999-4.672,3.826-6.567,6.107
		c-6.135,7.383-14.624,11.291-22.554,16.155c-12.255,7.518-25.53,7.841-39.334,7.992c-19.489,0.214-37.524-4.339-54.713-12.983
		c-3.193-1.605-6.017-3.978-8.923-6.115c-5.307-3.899-10.546-7.889-16.139-12.085c-3.206,2.384-5.995,4.114-8.379,6.289
		c-12.121,11.055-26.691,16.063-42.721,16.557c-20.638,0.635-41.3,0.786-61.947,0.618c-6.921-0.057-13.869-1.505-20.732-2.726
		c-7.06-1.255-12.672-4.941-17.825-10.142c-8.172-8.244-17.757-15.093-23.623-25.502c-4.002-7.101-6.335-14.573-6.289-22.774
		c0.059-10.332-1.289-20.874,0.333-30.943c2.198-13.654,6.531-26.977,10.193-40.373c0.852-3.119,2.687-5.969,4.361-9.568
		c-5.998-6.033-11.785-11.948-17.674-17.759c-13.81-13.623-21.837-29.883-22.488-49.446c-0.782-23.447,0.202-46.74,12.188-67.744
		c5.053-8.856,11.706-16.826,17.916-24.983c2.4-3.153,5.91-5.456,8.354-8.583c7.479-9.567,18.137-12.85,29.219-15.533
		c13.323-3.226,26.754-4.853,40.52-4.502c9.43,0.241,18.646,0.248,26.646,6.264c1.29,0.971,3.004,1.833,4.564,1.912
		c7.896,0.402,13.668,4.667,19.333,10.693c4.581-5.163,9.479-9.69,13.188-15.041c12.763-18.42,28.464-34.253,43.476-50.715
		c8.063-8.84,15.773-17.999,23.605-27.047c9.344-10.8,18.666-21.618,27.958-32.463c6.268-7.315,12.401-14.746,18.706-22.029
		c18.915-21.856,37.497-44.017,56.927-65.406c26.839-29.546,54.072-58.744,81.634-87.617c19.068-19.978,38.147-40.088,58.737-58.436
		c21.487-19.148,44.843-36.196,67.278-54.288c7.759-6.257,15.216-12.886,22.796-19.362c18.167-15.522,36.157-31.26,54.556-46.503
		c10.221-8.468,20.793-16.608,31.836-23.952c6.644-4.418,10.128-10.136,11.966-17.366c4.119-16.199,10.918-31.195,19.034-45.797
		c8.928-16.066,21.998-28.287,35.357-40.218c18.634-16.641,41.602-24.515,65.433-29.95c6.711-1.531,13.825-1.53,20.771-1.763
		c19.334-0.646,38.602-0.48,57.159,6.264c2.101,0.763,4.489,0.735,8.333,1.313c-0.948-7.251-1.768-13.656-2.629-20.055
		c-0.526-3.904-1.85-7.855-1.554-11.688c1.366-17.631-2.428-34.305-8.002-50.843c-5.069-15.039-13.466-28.023-23.217-40.284
		c-11.38-14.31-22.773-28.609-34.258-42.835c-2.475-3.065-4.938-6.426-8.128-8.581c-20.321-13.728-41.103-26.786-61.193-40.834
		c-10.538-7.368-22.555-9.523-34.382-12.504c-35.212-8.873-71.188-9.002-107.105-7.755c-22.194,0.77-44.366,3.019-66.468,5.36
		c-13.523,1.433-26.863,4.508-40.341,6.475c-22.629,3.302-45.331,6.104-67.942,9.513c-13.79,2.079-27.422,5.202-41.214,7.282
		c-10.143,1.53-20.408,2.428-30.654,3.045c-7.969,0.48-15.992,0.007-23.989,0.118c-9.004,0.126-16.885-2.865-24.081-8.089
		c-1.858-1.349-3.816-2.785-5.958-3.489c-18.582-6.107-37.275-11.878-55.809-18.127c-9.748-3.287-19.059-7.935-28.892-10.887
		c-13.952-4.189-28.128-7.719-42.347-10.921c-21.715-4.89-43.572-9.145-65.314-13.919c-6.518-1.432-11.17,0.286-15.993,4.984
		c-15.722,15.313-31.633,30.463-48.082,44.983c-9.376,8.277-19.964,15.18-29.961,22.761c-3.43,2.6-6.746,5.35-10.072,8.082
		c-21.332,17.529-44.049,33.033-67.925,46.891c-5.73,3.326-11.002,7.436-16.6,11.002c-21.242,13.538-42.554,26.971-63.8,40.504
		c-18.474,11.766-36.712,23.915-55.409,35.313c-11.02,6.719-22.896,12.019-34.089,18.474c-14.343,8.271-28.46,16.94-42.538,25.659
		c-19.97,12.367-39.813,24.854-60.907,35.388c-10.094,5.041-19.563,11.517-30.644,14.033c-19.652,4.466-37.211,14.035-55.583,21.633
		c-13.879,5.739-28.263,9.426-43.121,11.703c-12.831,1.967-25.096,5.754-36.754,11.973c-10.647,5.678-22.635,7.655-34.701,7.929
		c-11.993,0.273-24.036,0.676-35.98-0.135c-9.546-0.648-19.216-2.192-28.407-4.82c-20.186-5.771-39.24-14.482-57.727-24.44
		c-24.188-13.029-44.765-30.897-65.285-48.784c-15.03-13.104-29.813-26.517-44.252-40.268
		c-18.548-17.665-36.715-35.733-54.871-53.805c-3.728-3.712-6.652-8.227-9.994-12.334c-3.982-4.894-7.945-9.807-12.053-14.594
		c-1.947-2.271-4.153-4.331-6.342-6.379c-16.348-15.289-31.275-31.547-41.474-51.92c-8.096-16.174-21.191-28.854-32.849-42.488
		c-5.384-6.298-10.189-13.089-15.55-19.407c-7.304-8.608-15.541-16.506-22.146-25.603c-5.201-7.166-8.555-15.675-12.688-23.609
		c-0.715-1.374-1.221-2.856-2.123-5.001c-5.945,2.949-11.354,5.702-16.827,8.32c-3.271,1.564-6.553,3.189-9.985,4.316
		c-15.151,4.978-30.296,9.998-45.564,14.598c-17.163,5.171-34.36,10.288-51.719,14.734c-21.595,5.53-42.642,12.518-63.447,20.509
		c-12.055,4.631-24.862,7.257-37.164,11.295c-19.235,6.313-38.376,12.918-57.465,19.662c-15.009,5.304-29.51,12.306-45.918,12.516
		c-1.927,0.024-4.024,0.666-5.735,1.59c-16.592,8.949-34.56,4.41-51.954,5.422c-0.974,0.057-2.323,0.109-2.899-0.452
		c-6.715-6.537-16.55-5.958-23.986-10.634c-3.597-2.262-6.88-5.201-9.813-8.301c-3.935-4.159-8.384-6.307-14.146-5.928
		c-3.319,0.218-6.674-0.135-9.994,0.071c-8.452,0.526-15.878-0.763-23.354-5.979c-6.615-4.617-15.336-6.122-22.929-9.455
		c-10.302-4.521-20.236-9.918-30.659-14.117c-9.823-3.957-19.925-7.419-30.166-10.1c-28.626-7.493-57.455-14.317-87.215-15.097
		c-11.875-0.311-23.786,1.028-35.688,1.308c-20.957,0.49-40.331,7.707-60.063,13.563c-26.732,7.935-53.623,15.335-80.327,23.362
		c-16.697,5.02-31.803,13.468-45.675,23.942c-15.621,11.798-31.006,23.91-46.403,36.002c-6.371,5.004-11.159,11.265-14.642,18.688
		c-3.1,6.606-6.15,13.494-10.625,19.146c-10.07,12.714-13.03,27.292-13.55,42.836c-0.291,8.719-1.984,17.022-6.083,24.918
		c-3.383,6.518-4.332,13.51-4.199,21.144c0.275,15.915-1.021,31.856-1.587,47.79c-0.055,1.549,0.494,3.119,0.645,3.991
		c18.897,0,37.148-0.438,55.365,0.176c9.873,0.332,19.839,1.767,29.488,3.929c14.252,3.194,27.968,8.153,40.943,15.133
		c4.916,2.646,10.401,4.687,15.871,5.771c21.706,4.302,39.336,15.178,54.415,31.155c12.329,13.063,26.072,24.896,34.846,40.896
		c2.495,4.551,4.69,9.669,5.341,14.742c1.522,11.846,2.332,23.81,2.781,35.75c0.171,4.549,1.643,7.482,5.26,9.881
		c28.122,18.652,51.27,43.113,76.298,65.383c15.628,13.904,31.864,27.153,47.055,41.514c12.798,12.099,24.826,25.07,36.565,38.217
		c13.935,15.604,27.268,31.749,40.729,47.771c13.883,16.525,27.533,33.246,41.421,49.765c10.907,12.974,22.006,25.786,33.051,38.643
		c14.729,17.144,29.366,34.37,44.27,51.362c15.781,17.994,31.708,35.863,47.801,53.578c10.739,11.82,21.707,23.443,32.893,34.84
		c10.027,10.214,20.601,19.892,30.699,30.038c3.066,3.08,6.549,3.243,10.112,2.627c12.679-2.191,25.903-1.765,37.792-7.93
		c2.284-1.184,5.097-1.738,7.698-1.856c24.333-1.102,48.673-0.111,72.401,5.196c14.142,3.164,27.952,8.752,38.713,19.492
		c11.262,11.238,23.388,21.756,33.553,33.911c10.102,12.082,16.696,26.357,15.781,42.943c-0.129,2.325-0.354,4.723,0.036,6.988
		c2.665,15.458-5.142,26.855-14.708,37.337C1655.42,2384.389,1644.901,2394.964,1634.118,2406.219z"/>
</g>
</svg>
