<?xml version="1.0" encoding="utf-8"?>
<!-- Generator: Adobe Illustrator 16.0.2, SVG Export Plug-In . SVG Version: 6.00 Build 0)  -->
<!DOCTYPE svg PUBLIC "-//W3C//DTD SVG 1.1 Tiny//EN" "http://www.w3.org/Graphics/SVG/1.1/DTD/svg11-tiny.dtd">
<svg version="1.1" baseProfile="tiny" id="Layer_1" xmlns="http://www.w3.org/2000/svg" xmlns:xlink="http://www.w3.org/1999/xlink"
	 x="0px" y="0px" width="4389.451px" height="2790.651px" viewBox="0 0 4389.451 2790.651" xml:space="preserve">
<g>
	<path fill-rule="evenodd" fill="#FFFFFF" d="M2,2793.65C2,1863.1,2,932.55,2,2c1463.817,0,2927.634,0,4391.45,0
		c0,930.55,0,1861.1,0,2791.65C2929.634,2793.65,1465.817,2793.65,2,2793.65z M663.547,2287.526
		c4.12,2.782,7.354,5.079,10.698,7.204c14.412,9.159,29.573,17.092,46.339,20.439c40.414,8.066,80.999,15.283,122.501,14.199
		c15.617-0.408,31.266-0.416,46.838-1.492c15.224-1.053,30.399-3.001,45.538-4.988c13.81-1.812,27.963-2.774,41.211-6.673
		c20.037-5.897,39.713-13.316,58.984-21.416c15.231-6.401,29.624-14.799,44.937-22.588c1.489,1.566,3.387,3.375,5.07,5.365
		c15.88,18.796,31.979,37.415,47.518,56.488c23.795,29.207,49.437,56.671,76.447,82.893c1.912,1.856,3.713,3.826,5.597,5.712
		c13.163,13.182,26.142,26.555,39.559,39.476c13.86,13.347,29.55,24.819,40.909,40.71c2.835,3.967,6.329,7.463,9.192,10.794
		c-2.014,4.114-3.92,6.961-4.854,10.098c-4.633,15.555-10.537,30.853-8.635,47.683c0.706,6.252,0.4,12.666,0.062,18.98
		c-1.191,22.228,7.147,40.02,23.958,54.416c13.852,11.863,28.627,19.731,47.802,18.808c12.3-0.593,24.38-2.393,36.56-3.349
		c15.149-1.188,30.46-0.285,46.299-0.285c4.151,3.334,8.843,7.628,14.045,11.176c12.406,8.457,25.113,16.774,40.645,17.763
		c18.899,1.202,37.85,2.076,56.777,2.064c4.78-0.003,10.372-2.964,14.184-6.216c11.126-9.491,21.287-20.105,32.292-29.748
		c17.113-14.991,23.878-33.664,22.232-56.097c-0.73-9.945-0.356-19.993-0.061-29.983c0.329-11.132-1.25-21.928-4.921-32.374
		c-3.384-9.632-7.182-19.118-11.119-29.517c9.08-8.818,18.984-16.903,27.016-26.547c18.722-22.479,18.775-22.792,18.154-49.343
		c-0.482-20.662-8.757-38.776-22.052-54.29c-7.784-9.083-16.787-17.13-25.336-25.548c-9.43-9.288-20.65-16.26-33.256-19.461
		c-23.671-6.011-48.006-6.696-72.346-5.748c-2.265,0.088-4.712,0.616-6.709,1.647c-12.764,6.597-26.883,6.238-40.695,8.809
		c-19.411-22.383-39.221-43.955-57.604-66.681c-42.482-52.515-83.89-105.865-123.484-160.631
		c-23.972-33.157-49.043-65.528-74.03-97.938c-8.506-11.031-17.877-21.469-27.535-31.522
		c-15.695-16.341-32.506-31.635-47.846-48.289c-24.153-26.223-48.995-51.626-76.824-74.004c-2.009-1.616-3.612-4.729-3.899-7.313
		c-1.062-9.56-1.925-19.182-2.068-28.793c-0.295-19.645-7.789-36.102-20.975-50.259c-9.978-10.712-20.108-21.284-29.973-32.1
		c-7.349-8.055-16.212-13.58-26.268-17.587c-14.479-5.771-28.853-11.808-43.222-17.848c-14.144-5.945-28.363-11.812-43.949-12.252
		c-15.907-0.45-31.832-0.258-47.748-0.339c-3.534-0.018-7.068-0.003-11.156-0.003c0-3.609-0.086-6.558,0.014-9.498
		c0.576-16.937,1.081-33.878,1.87-50.805c0.242-5.213,0.488-10.666,2.149-15.525c4.229-12.371,7.507-24.911,7.435-37.979
		c-0.07-12.829,4.426-23.874,10.595-34.757c5.564-9.816,9.996-20.271,15.369-30.205c2.802-5.182,5.835-10.605,10.02-14.604
		c12.016-11.477,24.426-22.576,37.138-33.281c17.434-14.682,36.475-26.451,58.683-33.104c24.204-7.251,48.393-14.85,71.897-24.062
		c26.329-10.319,53.739-12.211,81.224-12.776c30.55-0.628,59.829,7.616,88.623,17.189c12.021,3.997,23.432,9.229,34.284,15.947
		c7.004,4.337,14.988,7.108,22.589,10.454c7.865,3.461,16.457,5.403,22.731,12.055c1.337,1.416,4.15,1.784,6.34,1.973
		c3.638,0.314,7.369,0.464,10.982,0.026c10.108-1.224,17.978,2.018,24.497,9.998c8.198,10.036,20.679,13.992,32.235,14.785
		c16.239,1.113,33.354,4.202,49.084-4.2c1.092-0.583,2.64-0.236,3.919-0.554c6.426-1.592,13.098-2.601,19.198-5.032
		c17.282-6.889,34.118-14.933,51.524-21.469c18.96-7.121,38.625-12.387,57.51-19.685c24.196-9.35,48.301-18.669,73.3-25.889
		c26.162-7.555,51.749-17.12,77.523-25.99c4.051-1.395,7.781-3.734,11.634-5.687c5.38-2.727,10.736-5.5,17.543-8.993
		c2.153,21.321,16.109,34.81,27.297,49.978c9.277,12.576,17.59,25.896,27.336,38.085c11.266,14.088,21.456,28.599,29.689,44.777
		c5.974,11.737,13.75,22.901,22.427,32.83c10.091,11.546,20.195,22.925,28.543,35.842c3.414,5.282,7.299,10.432,11.768,14.831
		c16.146,15.898,31.641,32.348,45.923,49.965c5.015,6.186,10.709,11.865,16.43,17.43c16.705,16.244,33.213,32.722,50.501,48.327
		c14.779,13.341,29.498,26.974,47.772,35.771c4.791,2.306,9.448,4.914,14.038,7.603c29.352,17.193,61.396,21.102,94.464,18.187
		c12.481-1.1,25.043-3.818,35.976-10.904c8.827-5.721,18.61-8.728,28.904-10.3c19.613-2.995,37.991-9.314,55.149-19.441
		c6.546-3.864,13.776-6.609,20.809-9.599c12.53-5.326,25.854-9.215,37.572-15.931c20.747-11.892,40.761-25.119,60.669-38.403
		c20.724-13.828,39.466-30.511,61.947-41.877c9.132-4.617,17.313-11.162,25.763-17.065c8.726-6.094,17.249-12.474,25.864-18.724
		c12.385-8.984,24.771-17.966,37.159-26.945c5.119-3.712,10.055-7.717,15.398-11.073c28.774-18.077,56.087-38.181,82.559-59.434
		c8.551-6.864,16.313-14.71,24.875-21.558c28.41-22.723,54.021-48.362,78.619-75.045c3.378-3.665,6.452-5.098,11.257-4.024
		c11.669,2.609,23.577,4.296,35.08,7.478c25.285,6.995,50.555,14.143,75.491,22.269c17.992,5.864,35.512,13.222,53.099,20.272
		c9.491,3.806,19.371,6.704,27.712,13.308c3.708,2.936,9.116,5.103,13.792,5.181c15.266,0.255,30.733,0.721,45.788-1.347
		c25.299-3.476,50.318-8.948,75.493-13.372c21.581-3.791,43.154-7.715,64.843-10.786c18.719-2.652,37.585-4.277,56.402-6.198
		c38.953-3.975,77.675-3.667,115.908,6.223c13.899,3.595,27.479,7.578,39.107,16.636c12.856,10.014,26.58,18.97,38.945,29.533
		c7.689,6.569,13.796,15.08,20.175,23.069c4.97,6.228,9.197,13.042,13.869,19.513c11.279,15.626,23.499,30.644,31.395,48.452
		c9.082,20.484,16.358,41.206,15.469,64.333c-0.479,12.479,2.087,25.074,3.271,37.617c0.15,1.585,0.258,3.173,0.467,5.767
		c-3.556-0.833-6.422-1.251-9.111-2.177c-12.126-4.181-24.56-5.65-37.347-5.026c-6.65,0.325-13.333-0.104-19.991,0.117
		c-4.303,0.143-8.777,0.204-12.847,1.409c-23.05,6.824-45.073,15.115-63.267,32.267c-19.536,18.416-35.368,38.786-43.848,64.425
		c-2.815,8.516-5.464,17.095-7.873,25.733c-2.484,8.911-7.336,15.794-14.349,22.021c-23.625,20.973-46.744,42.517-70.003,63.902
		c-17.384,15.986-34.365,32.424-52.097,48.013c-23.775,20.902-46.978,42.399-67.853,66.179
		c-26.759,30.482-53.043,61.395-79.008,92.559c-19.16,22.994-37.867,46.392-56.089,70.138
		c-27.552,35.903-54.199,72.504-81.823,108.353c-18.258,23.695-38.21,46.089-54.41,71.363c-1.146,1.788-3.151,3.022-4.614,4.382
		c-13.811-8.238-31.463-19.632-50.28-16.941c-2.939,0.419-5.997-0.068-8.989,0.08c-21.773,1.08-41.305,5.9-57.026,23.523
		c-19.727,22.11-31.861,46.346-31.143,76.366c0.216,8.994,0.435,18.018-0.051,26.989c-0.981,18.162,6.107,33.057,17.786,46.214
		c6.58,7.41,13.374,14.628,19.85,21.692c-10.835,24.7-14.963,47.499-15.738,74.283c-0.639,22.049,6.466,39.493,22.364,55.285
		c12.436,12.353,26.27,17.594,42.637,18.104c16.98,0.529,33.993-0.095,50.985,0.174c20.022,0.315,37.12-6.229,51.222-20.515
		c1.138-1.152,2.554-2.028,4.294-3.388c3.988,3.289,8.062,6.179,11.573,9.638c8.521,8.395,18.826,13.263,30.004,17.102
		c12.579,4.321,25.475,3.78,38.393,4.728c14.575,1.068,26.723-3.754,38.247-11.499c3.563-2.396,6.883-5.249,9.964-8.251
		c8.596-8.369,17.017-16.918,25.489-25.412c23.687-23.746,24.143-19.867,23.581-57.546c-0.205-13.819-3.813-26.959-9.711-39.394
		c-4.5-9.486-9.466-18.751-14.319-28.299c1.83-1.928,3.727-3.789,5.471-5.783c16.409-18.769,32.937-37.438,49.132-56.392
		c10.359-12.122,19.915-24.935,30.377-36.962c12.875-14.801,26.07-29.342,39.589-43.555c12.841-13.498,25.657-27.133,39.612-39.426
		c16.224-14.291,33.301-27.597,48.209-43.367c2.711-2.867,6.294-4.895,9.371-7.437c7.93-6.55,15.796-13.175,23.698-19.757
		c1.217-1.013,2.495-1.951,3.924-3.063c8.559,5.256,16.49,10.808,25.007,15.232c32.636,16.957,67.686,27.462,102.822,37.667
		c1.589,0.461,3.222,0.826,4.857,1.057c32.721,4.614,65.521,5.193,98.463,2.605c32.115-2.522,62.886-10.439,92.698-22.215
		c10.464-4.133,20.692-9.068,30.495-14.585c5.64-3.174,10.211-8.244,15.292-12.485c11.024,8.822,21.918,17.502,32.771,26.235
		c39.424,31.729,84.678,41.365,134.008,35.136c4.514-0.569,7.446,0.512,10.543,3.642c8.43,8.516,16.628,17.399,25.922,24.892
		c18.384,14.821,37.397,28.771,54.103,45.686c4.724,4.784,12.792,7.872,19.653,8.579c11.473,1.183,23.29,0.565,34.807-0.701
		c9.138-1.005,17.99-4.375,27.066-6.216c8.615-1.748,16.492-4.956,23.904-9.625c15.261-9.61,29.763-20.079,42.129-33.395
		c15.578-16.773,30.639-34.025,47.886-49.242c6.849-6.043,11.407-14.49,20.794-17.884c3.213-1.162,5.522-4.691,8.394-6.949
		c12.748-10.022,19.22-24.457,26.747-38.104c9.935-18.011,17.046-36.774,14.253-57.983c-0.432-3.277,0.104-6.67-0.133-9.986
		c-0.163-2.27-0.396-4.773-1.457-6.698c-3.854-6.984-7.726-14.006-12.213-20.588c-17.477-25.638-37.64-49.092-59.452-71.096
		c-19.905-20.083-40.006-39.933-56.377-63.182c-2.291-3.254-3.561-6.226-3.016-10.07c1.725-12.161,2.627-24.503,5.273-36.459
		c7.697-34.773,8.33-69.932,6.777-105.227c-0.568-12.912-2.551-25.756-3.374-38.664c-0.988-15.517-0.354-31.083-0.474-46.601
		c-0.261-33.538-2.628-67.065-4.365-100.586c-0.307-5.933-1.506-11.854-2.692-17.702c-5.836-28.766-15.102-56.477-25.807-83.761
		c-10.321-26.303-20.869-52.535-30.344-79.146c-6.83-19.185-14.414-37.953-24.548-55.574c-13.764-23.933-27.74-47.756-42.158-71.301
		c-21.912-35.782-46.831-69.493-72.734-102.444c-26.793-34.083-58.408-63.775-88.132-95.182
		c-23.185-24.498-48.669-46.227-77.515-64.034c-18.1-11.173-34.681-24.931-53.212-35.252
		c-22.606-12.592-46.566-22.751-69.899-34.047c-16.827-8.146-34.079-15.198-52.554-18.441c-29.112-5.112-58.339-9.558-87.459-14.616
		c-29.946-5.201-60.081-6.932-90.413-5.938c-13.284,0.436-26.568,1.263-39.85,1.231c-16.284-0.038-32.584-1.456-48.844-1.026
		c-13.545,0.358-27.049,2.471-40.559,3.919c-3.955,0.424-7.847,1.414-11.801,1.835c-17.151,1.83-34.371,3.132-51.458,5.423
		c-16.428,2.203-32.739,5.3-49.074,8.16c-27.44,4.805-55.362,6.451-82.443,13.833c-15.324,4.177-31.405,5.507-46.874,9.247
		c-22.597,5.462-44.926,12.027-67.422,17.917c-5.606,1.468-11.173,4.083-18.143,2.581c1.16-5.903,2.225-11.325,3.305-16.823
		c2.761-1.145,5.133-2.428,7.666-3.129c23.695-6.562,47.268-13.665,71.17-19.368c39.318-9.381,77.527-21.666,113.365-40.532
		c8.767-4.615,17.504-9.883,24.888-16.4c15.46-13.644,29.813-28.534,45.008-42.492c9.549-8.771,13.571-19.356,13.44-32.016
		c-0.139-13.33,0.319-26.673-0.122-39.989c-0.518-15.602-2.276-30.862-8.176-45.788c-9.704-24.555-26.601-42.602-47.373-57.81
		c-5.333-3.905-11.043-7.638-15.356-12.529c-13.079-14.837-28.283-27.006-43.947-38.976c-24.905-19.032-52.023-33.437-81.668-43.126
		c-18.435-6.025-35.768-13.887-52.171-24.414c-54.619-35.054-107.491-72.865-164.284-104.511c-2.709-1.51-5.184-4.224-6.7-6.967
		c-18.06-32.672-38.416-63.793-61.069-93.489c-11.917-15.62-22.174-32.347-29.118-50.971c-2.77-7.426-5.981-15.033-10.629-21.354
		c-18.968-25.792-38.865-50.809-67.612-66.783c-2.016-1.12-4.092-2.407-5.617-4.091c-14.08-15.549-32.351-20.349-52.343-20.06
		c-24.265,0.352-48.519,1.397-72.783,1.838c-6.941,0.125-13.905-1.236-20.852-1.162c-15.953,0.169-31.9,0.811-47.851,1.244
		c-19.275,0.524-38.553,1.104-57.832,1.443c-2.128,0.038-4.37-1.148-6.409-2.091c-12.271-5.679-21.749-15.047-31.945-23.622
		c-16.011-13.464-33.05-25.696-49.295-38.892c-29.654-24.087-62.632-38.664-101.599-36.793c-10.272,0.493-21.2-0.721-30.652,2.404
		c-20.125,6.653-41.868,8.008-60.747,18.815c-4.786,2.74-10.647,3.712-16.108,5.137c-9.453,2.463-18.25,6.064-25.878,12.396
		c-3.025,2.511-6.419,5.032-10.077,6.245c-15.568,5.164-28.582,14.25-39.735,25.883c-4.875,5.085-9.879,5.263-16.125,4.7
		c-23.471-2.117-46.954-4.693-70.483-5.39c-30.967-0.918-61.983-0.165-92.977-0.247c-19.689-0.052-38.623,3.692-55.52,13.786
		c-23.701,14.156-47.301,28.614-69.913,44.416c-15.198,10.62-28.632,23.767-42.822,35.822
		c-24.888,21.145-48.792,43.379-70.314,67.932c-16.869,19.242-32.648,39.443-48.771,59.333
		c-25.41,31.349-47.325,65.15-69.146,99.012c-21.988,34.119-46.273,66.879-62.453,104.443c-7.612,17.67-18.854,32.519-31.85,46.616
		c-18.949,20.556-36.979,42.06-48.47,67.992c-8.369,18.886-17.709,37.191-28.356,54.923c-6.319,10.525-11.337,22.121-12.093,34.575
		c-0.805,13.263-0.886,26.666,0.06,39.912c0.835,11.727,4.874,22.653,13.385,31.542c1.871,1.955,2.645,5.208,3.315,8.009
		c1.157,4.841,1.92,9.784,2.695,14.707c0.861,5.47,3.458,9.744,7.409,13.694c5.363,5.358,10.062,11.383,14.291,16.254
		c-15.818-1.352-33.465-3.545-51.17-4.205c-23.958-0.893-47.965-1.038-71.94-0.701c-19.93,0.28-39.914,0.974-59.749,2.825
		c-27.417,2.558-54.722,6.333-82.065,9.663c-32.383,3.943-64.207,10.292-95.296,20.499c-38.614,12.678-75.963,28.537-113.287,44.399
		c-38.04,16.166-71.657,39.305-101.334,68.151c-12.647,12.292-25.334,24.563-38.452,36.345
		c-27.217,24.444-55.566,47.653-80.013,75.064c-15.936,17.867-33.509,34.453-47.941,53.442
		c-26.771,35.226-52.567,71.261-77.314,107.94c-28.002,41.5-48.885,87.012-69.226,132.587
		c-9.593,21.493-16.112,44.342-24.408,66.433c-13.351,35.553-23.737,71.911-32.513,108.869
		c-7.625,32.114-13.656,64.324-14.789,97.317c-0.958,27.925-1.504,55.866-2.032,83.804c-0.284,14.991-0.153,29.99-0.197,44.985
		c-0.035,11.978-0.76,24.005,0.084,35.921c1.383,19.518,3.514,38.998,5.917,58.421c0.85,6.87-0.557,11.683-5.699,16.617
		c-32.507,31.19-59.688,67.034-88.081,101.815c-2.897,3.549-4.185,7.354-4.1,11.919c0.168,8.994-0.102,17.998,0.083,26.992
		c0.253,12.313,0.86,24.519,6.988,35.806c2.175,4.006,3.224,8.732,4.202,13.258c2.685,12.427,8.472,23.025,17.729,31.728
		c10.893,10.239,22.25,20.032,32.589,30.804c15.032,15.662,32.302,28.743,48.159,43.392c22.773,21.039,45.815,41.604,72.023,58.27
		c5.187,3.297,11.298,5.986,17.308,6.965c12.723,2.068,25.635,3.347,38.518,3.958c11.283,0.535,22.632-0.219,33.948-0.564
		c2.251-0.068,4.941-0.219,6.639-1.435c8.101-5.799,16.34-11.511,23.77-18.111c17.147-15.234,33.854-30.965,51.364-47.068
		c12.229,0.848,25.458,1.979,38.709,2.631c17.676,0.871,35.387-0.406,52.553-4.182
		C623.529,2312.156,646.67,2307.207,663.547,2287.526z"/>
	<path fill-rule="evenodd" d="M663.547,2287.526c-16.877,19.681-40.018,24.63-62.691,29.615
		c-17.166,3.775-34.876,5.053-52.553,4.182c-13.251-0.652-26.479-1.783-38.709-2.631c-17.51,16.104-34.217,31.834-51.364,47.068
		c-7.429,6.601-15.669,12.313-23.77,18.111c-1.698,1.216-4.388,1.366-6.639,1.435c-11.316,0.346-22.665,1.1-33.948,0.564
		c-12.882-0.611-25.794-1.89-38.518-3.958c-6.01-0.979-12.122-3.668-17.308-6.965c-26.208-16.665-49.25-37.23-72.023-58.27
		c-15.857-14.648-33.127-27.729-48.159-43.392c-10.338-10.771-21.696-20.564-32.589-30.804
		c-9.257-8.702-15.044-19.301-17.729-31.728c-0.978-4.525-2.027-9.252-4.202-13.258c-6.128-11.287-6.735-23.493-6.988-35.806
		c-0.186-8.994,0.085-17.998-0.083-26.992c-0.085-4.564,1.203-8.37,4.1-11.919c28.393-34.781,55.573-70.625,88.081-101.815
		c5.143-4.935,6.549-9.747,5.699-16.617c-2.403-19.423-4.534-38.903-5.917-58.421c-0.844-11.916-0.119-23.943-0.084-35.921
		c0.044-14.995-0.087-29.994,0.197-44.985c0.528-27.938,1.074-55.879,2.032-83.804c1.133-32.993,7.163-65.203,14.789-97.317
		c8.776-36.958,19.163-73.316,32.513-108.869c8.296-22.091,14.815-44.939,24.408-66.433c20.341-45.575,41.223-91.087,69.226-132.587
		c24.747-36.679,50.543-72.714,77.314-107.94c14.433-18.99,32.006-35.576,47.941-53.442c24.447-27.411,52.796-50.62,80.013-75.064
		c13.118-11.782,25.805-24.053,38.452-36.345c29.677-28.847,63.295-51.985,101.334-68.151
		c37.324-15.862,74.673-31.721,113.287-44.399c31.089-10.208,62.913-16.556,95.296-20.499c27.343-3.33,54.647-7.105,82.065-9.663
		c19.834-1.851,39.818-2.544,59.749-2.825c23.975-0.337,47.982-0.192,71.94,0.701c17.705,0.66,35.352,2.854,51.17,4.205
		c-4.229-4.871-8.928-10.896-14.291-16.254c-3.952-3.95-6.548-8.224-7.409-13.694c-0.775-4.923-1.538-9.866-2.695-14.707
		c-0.67-2.8-1.444-6.054-3.315-8.009c-8.511-8.889-12.549-19.815-13.385-31.542c-0.945-13.247-0.864-26.649-0.06-39.912
		c0.756-12.454,5.774-24.05,12.093-34.575c10.647-17.732,19.987-36.037,28.356-54.923c11.491-25.932,29.521-47.437,48.47-67.992
		c12.995-14.097,24.237-28.946,31.85-46.616c16.18-37.564,40.465-70.324,62.453-104.443c21.821-33.862,43.736-67.663,69.146-99.012
		c16.122-19.889,31.901-40.091,48.771-59.333c21.522-24.553,45.427-46.787,70.314-67.932c14.189-12.055,27.624-25.203,42.822-35.822
		c22.612-15.802,46.212-30.259,69.913-44.416c16.897-10.094,35.831-13.837,55.52-13.786c30.994,0.082,62.01-0.671,92.977,0.247
		c23.529,0.697,47.013,3.273,70.483,5.39c6.245,0.563,11.25,0.386,16.125-4.7c11.153-11.633,24.167-20.72,39.735-25.883
		c3.658-1.213,7.052-3.734,10.077-6.245c7.629-6.331,16.425-9.932,25.878-12.396c5.461-1.425,11.323-2.397,16.108-5.137
		c18.879-10.807,40.622-12.162,60.747-18.815c9.452-3.125,20.379-1.911,30.652-2.404c38.967-1.871,71.945,12.707,101.599,36.793
		c16.245,13.196,33.285,25.427,49.295,38.892c10.196,8.575,19.674,17.943,31.945,23.622c2.039,0.943,4.281,2.129,6.409,2.091
		c19.279-0.339,38.557-0.919,57.832-1.443c15.95-0.433,31.897-1.075,47.851-1.244c6.946-0.074,13.91,1.288,20.852,1.162
		c24.265-0.44,48.519-1.486,72.783-1.838c19.992-0.289,38.263,4.511,52.343,20.06c1.525,1.685,3.602,2.971,5.617,4.091
		c28.747,15.974,48.645,40.991,67.612,66.783c4.647,6.32,7.859,13.928,10.629,21.354c6.944,18.624,17.201,35.351,29.118,50.971
		c22.653,29.696,43.01,60.817,61.069,93.489c1.517,2.743,3.991,5.458,6.7,6.967c56.793,31.646,109.665,69.457,164.284,104.511
		c16.403,10.527,33.736,18.388,52.171,24.414c29.645,9.689,56.763,24.094,81.668,43.126c15.664,11.97,30.868,24.138,43.947,38.976
		c4.313,4.892,10.023,8.625,15.356,12.529c20.772,15.208,37.669,33.255,47.373,57.81c5.899,14.926,7.658,30.187,8.176,45.788
		c0.441,13.316-0.017,26.66,0.122,39.989c0.131,12.66-3.892,23.245-13.44,32.016c-15.194,13.958-29.548,28.848-45.008,42.492
		c-7.384,6.517-16.121,11.786-24.888,16.4c-35.838,18.867-74.047,31.151-113.365,40.532c-23.902,5.703-47.475,12.806-71.17,19.368
		c-2.533,0.701-4.905,1.985-7.666,3.129c-1.08,5.499-2.145,10.92-3.305,16.823c6.97,1.501,12.536-1.113,18.143-2.581
		c22.496-5.891,44.825-12.455,67.422-17.917c15.469-3.74,31.55-5.07,46.874-9.247c27.081-7.382,55.003-9.028,82.443-13.833
		c16.335-2.86,32.646-5.958,49.074-8.16c17.087-2.292,34.307-3.593,51.458-5.423c3.954-0.422,7.846-1.412,11.801-1.835
		c13.51-1.448,27.014-3.561,40.559-3.919c16.26-0.43,32.56,0.988,48.844,1.026c13.281,0.031,26.565-0.796,39.85-1.231
		c30.332-0.994,60.467,0.736,90.413,5.938c29.12,5.058,58.347,9.504,87.459,14.616c18.475,3.243,35.727,10.295,52.554,18.441
		c23.333,11.296,47.293,21.455,69.899,34.047c18.531,10.321,35.112,24.079,53.212,35.252c28.846,17.808,54.33,39.536,77.515,64.034
		c29.724,31.406,61.339,61.099,88.132,95.182c25.903,32.951,50.822,66.662,72.734,102.444
		c14.418,23.545,28.395,47.368,42.158,71.301c10.134,17.621,17.718,36.39,24.548,55.574c9.475,26.61,20.022,52.843,30.344,79.146
		c10.705,27.284,19.971,54.995,25.807,83.761c1.187,5.848,2.386,11.77,2.692,17.702c1.737,33.521,4.104,67.048,4.365,100.586
		c0.12,15.518-0.515,31.084,0.474,46.601c0.823,12.908,2.806,25.752,3.374,38.664c1.553,35.295,0.92,70.453-6.777,105.227
		c-2.646,11.956-3.549,24.298-5.273,36.459c-0.545,3.845,0.725,6.816,3.016,10.07c16.371,23.249,36.472,43.099,56.377,63.182
		c21.813,22.004,41.976,45.458,59.452,71.096c4.487,6.582,8.358,13.604,12.213,20.588c1.062,1.925,1.294,4.429,1.457,6.698
		c0.237,3.316-0.299,6.709,0.133,9.986c2.793,21.209-4.318,39.973-14.253,57.983c-7.527,13.646-13.999,28.081-26.747,38.104
		c-2.871,2.258-5.181,5.787-8.394,6.949c-9.387,3.394-13.945,11.841-20.794,17.884c-17.247,15.217-32.308,32.469-47.886,49.242
		c-12.366,13.315-26.868,23.784-42.129,33.395c-7.412,4.669-15.289,7.877-23.904,9.625c-9.076,1.841-17.929,5.211-27.066,6.216
		c-11.517,1.267-23.334,1.884-34.807,0.701c-6.861-0.707-14.93-3.795-19.653-8.579c-16.705-16.914-35.719-30.864-54.103-45.686
		c-9.294-7.492-17.492-16.376-25.922-24.892c-3.097-3.13-6.029-4.211-10.543-3.642c-49.33,6.229-94.584-3.407-134.008-35.136
		c-10.853-8.733-21.746-17.413-32.771-26.235c-5.081,4.241-9.652,9.312-15.292,12.485c-9.803,5.517-20.031,10.452-30.495,14.585
		c-29.813,11.775-60.583,19.692-92.698,22.215c-32.942,2.588-65.742,2.009-98.463-2.605c-1.636-0.23-3.269-0.596-4.857-1.057
		c-35.137-10.205-70.187-20.71-102.822-37.667c-8.517-4.425-16.448-9.977-25.007-15.232c-1.429,1.111-2.707,2.05-3.924,3.063
		c-7.902,6.582-15.769,13.207-23.698,19.757c-3.077,2.542-6.66,4.569-9.371,7.437c-14.908,15.771-31.985,29.076-48.209,43.367
		c-13.955,12.293-26.771,25.928-39.612,39.426c-13.519,14.213-26.714,28.754-39.589,43.555
		c-10.462,12.027-20.018,24.84-30.377,36.962c-16.195,18.953-32.723,37.623-49.132,56.392c-1.744,1.994-3.641,3.855-5.471,5.783
		c4.854,9.548,9.819,18.813,14.319,28.299c5.897,12.435,9.506,25.574,9.711,39.394c0.562,37.679,0.105,33.8-23.581,57.546
		c-8.473,8.494-16.894,17.043-25.489,25.412c-3.081,3.002-6.4,5.854-9.964,8.251c-11.524,7.745-23.672,12.567-38.247,11.499
		c-12.918-0.947-25.813-0.406-38.393-4.728c-11.178-3.839-21.482-8.707-30.004-17.102c-3.512-3.459-7.585-6.349-11.573-9.638
		c-1.74,1.359-3.156,2.235-4.294,3.388c-14.102,14.285-31.199,20.83-51.222,20.515c-16.992-0.269-34.005,0.355-50.985-0.174
		c-16.367-0.51-30.201-5.751-42.637-18.104c-15.898-15.792-23.003-33.236-22.364-55.285c0.775-26.784,4.903-49.583,15.738-74.283
		c-6.476-7.064-13.27-14.282-19.85-21.692c-11.679-13.157-18.768-28.052-17.786-46.214c0.485-8.972,0.267-17.995,0.051-26.989
		c-0.719-30.021,11.416-54.256,31.143-76.366c15.722-17.623,35.253-22.443,57.026-23.523c2.992-0.148,6.05,0.339,8.989-0.08
		c18.817-2.69,36.47,8.703,50.28,16.941c1.463-1.359,3.469-2.594,4.614-4.382c16.2-25.274,36.152-47.668,54.41-71.363
		c27.624-35.849,54.271-72.449,81.823-108.353c18.222-23.746,36.929-47.144,56.089-70.138
		c25.965-31.164,52.249-62.076,79.008-92.559c20.875-23.779,44.077-45.276,67.853-66.179c17.731-15.589,34.713-32.026,52.097-48.013
		c23.259-21.386,46.378-42.93,70.003-63.902c7.013-6.227,11.864-13.109,14.349-22.021c2.409-8.639,5.058-17.218,7.873-25.733
		c8.479-25.639,24.312-46.009,43.848-64.425c18.193-17.151,40.217-25.442,63.267-32.267c4.069-1.205,8.544-1.267,12.847-1.409
		c6.658-0.222,13.341,0.208,19.991-0.117c12.787-0.624,25.221,0.846,37.347,5.026c2.689,0.926,5.556,1.344,9.111,2.177
		c-0.209-2.594-0.316-4.182-0.467-5.767c-1.185-12.543-3.751-25.139-3.271-37.617c0.89-23.127-6.387-43.849-15.469-64.333
		c-7.896-17.809-20.115-32.826-31.395-48.452c-4.672-6.471-8.899-13.285-13.869-19.513c-6.379-7.989-12.485-16.5-20.175-23.069
		c-12.365-10.563-26.089-19.52-38.945-29.533c-11.628-9.058-25.208-13.041-39.107-16.636c-38.233-9.89-76.955-10.197-115.908-6.223
		c-18.817,1.921-37.684,3.546-56.402,6.198c-21.688,3.071-43.262,6.995-64.843,10.786c-25.175,4.424-50.194,9.896-75.493,13.372
		c-15.055,2.067-30.522,1.602-45.788,1.347c-4.676-0.078-10.084-2.245-13.792-5.181c-8.341-6.604-18.221-9.502-27.712-13.308
		c-17.587-7.051-35.106-14.408-53.099-20.272c-24.937-8.125-50.206-15.274-75.491-22.269c-11.503-3.181-23.411-4.868-35.08-7.478
		c-4.805-1.074-7.879,0.359-11.257,4.024c-24.598,26.683-50.209,52.323-78.619,75.045c-8.562,6.848-16.324,14.693-24.875,21.558
		c-26.472,21.253-53.784,41.356-82.559,59.434c-5.344,3.356-10.279,7.361-15.398,11.073c-12.389,8.979-24.774,17.961-37.159,26.945
		c-8.615,6.25-17.139,12.63-25.864,18.724c-8.45,5.903-16.631,12.448-25.763,17.065c-22.481,11.366-41.224,28.049-61.947,41.877
		c-19.908,13.284-39.922,26.512-60.669,38.403c-11.718,6.716-25.042,10.604-37.572,15.931c-7.032,2.989-14.263,5.734-20.809,9.599
		c-17.158,10.127-35.536,16.446-55.149,19.441c-10.294,1.572-20.077,4.579-28.904,10.3c-10.933,7.086-23.495,9.805-35.976,10.904
		c-33.068,2.915-65.113-0.993-94.464-18.187c-4.589-2.688-9.247-5.297-14.038-7.603c-18.275-8.797-32.994-22.43-47.772-35.771
		c-17.289-15.605-33.796-32.083-50.501-48.327c-5.721-5.564-11.415-11.244-16.43-17.43c-14.282-17.617-29.776-34.066-45.923-49.965
		c-4.469-4.399-8.354-9.549-11.768-14.831c-8.348-12.917-18.452-24.296-28.543-35.842c-8.678-9.929-16.453-21.093-22.427-32.83
		c-8.233-16.179-18.423-30.689-29.689-44.777c-9.746-12.188-18.059-25.509-27.336-38.085
		c-11.188-15.167-25.145-28.656-27.297-49.978c-6.807,3.493-12.163,6.267-17.543,8.993c-3.853,1.953-7.583,4.292-11.634,5.687
		c-25.775,8.87-51.361,18.435-77.523,25.99c-25,7.22-49.104,16.539-73.3,25.889c-18.885,7.298-38.55,12.563-57.51,19.685
		c-17.406,6.536-34.242,14.58-51.524,21.469c-6.1,2.432-12.772,3.44-19.198,5.032c-1.279,0.317-2.828-0.029-3.919,0.554
		c-15.729,8.402-32.845,5.313-49.084,4.2c-11.556-0.793-24.037-4.749-32.235-14.785c-6.519-7.98-14.389-11.222-24.497-9.998
		c-3.613,0.438-7.344,0.288-10.982-0.026c-2.19-0.188-5.003-0.557-6.34-1.973c-6.274-6.651-14.866-8.594-22.731-12.055
		c-7.601-3.346-15.585-6.117-22.589-10.454c-10.852-6.719-22.263-11.95-34.284-15.947c-28.794-9.573-58.073-17.817-88.623-17.189
		c-27.485,0.564-54.896,2.457-81.224,12.776c-23.504,9.212-47.693,16.811-71.897,24.062c-22.208,6.653-41.249,18.423-58.683,33.104
		c-12.712,10.705-25.122,21.805-37.138,33.281c-4.185,3.999-7.218,9.423-10.02,14.604c-5.374,9.934-9.805,20.389-15.369,30.205
		c-6.169,10.883-10.666,21.928-10.595,34.757c0.072,13.068-3.206,25.608-7.435,37.979c-1.661,4.859-1.907,10.313-2.149,15.525
		c-0.789,16.927-1.294,33.868-1.87,50.805c-0.1,2.94-0.014,5.889-0.014,9.498c4.088,0,7.622-0.015,11.156,0.003
		c15.916,0.081,31.841-0.111,47.748,0.339c15.586,0.44,29.805,6.307,43.949,12.252c14.369,6.04,28.743,12.077,43.222,17.848
		c10.056,4.007,18.919,9.532,26.268,17.587c9.865,10.815,19.996,21.388,29.973,32.1c13.186,14.157,20.68,30.614,20.975,50.259
		c0.144,9.611,1.007,19.233,2.068,28.793c0.287,2.584,1.89,5.697,3.899,7.313c27.829,22.378,52.671,47.781,76.824,74.004
		c15.34,16.654,32.15,31.948,47.846,48.289c9.658,10.054,19.029,20.491,27.535,31.522c24.987,32.409,50.058,64.78,74.03,97.938
		c39.595,54.766,81.002,108.116,123.484,160.631c18.383,22.726,38.193,44.298,57.604,66.681c13.812-2.57,27.931-2.212,40.695-8.809
		c1.997-1.031,4.444-1.56,6.709-1.647c24.34-0.948,48.675-0.263,72.346,5.748c12.606,3.201,23.826,10.173,33.256,19.461
		c8.549,8.418,17.552,16.465,25.336,25.548c13.295,15.514,21.569,33.628,22.052,54.29c0.621,26.551,0.568,26.864-18.154,49.343
		c-8.032,9.644-17.937,17.729-27.016,26.547c3.937,10.398,7.734,19.885,11.119,29.517c3.671,10.446,5.25,21.242,4.921,32.374
		c-0.295,9.99-0.669,20.038,0.061,29.983c1.646,22.433-5.119,41.105-22.232,56.097c-11.005,9.643-21.166,20.257-32.292,29.748
		c-3.812,3.252-9.404,6.213-14.184,6.216c-18.927,0.012-37.878-0.862-56.777-2.064c-15.531-0.988-28.239-9.306-40.645-17.763
		c-5.202-3.548-9.894-7.842-14.045-11.176c-15.839,0-31.15-0.903-46.299,0.285c-12.18,0.956-24.259,2.756-36.56,3.349
		c-19.174,0.924-33.95-6.944-47.802-18.808c-16.811-14.396-25.149-32.188-23.958-54.416c0.339-6.314,0.645-12.729-0.062-18.98
		c-1.902-16.83,4.001-32.128,8.635-47.683c0.934-3.137,2.84-5.983,4.854-10.098c-2.863-3.331-6.357-6.827-9.192-10.794
		c-11.359-15.891-27.048-27.363-40.909-40.71c-13.417-12.921-26.396-26.294-39.559-39.476c-1.884-1.886-3.685-3.855-5.597-5.712
		c-27.01-26.222-52.652-53.686-76.447-82.893c-15.539-19.073-31.638-37.692-47.518-56.488c-1.683-1.99-3.581-3.799-5.07-5.365
		c-15.313,7.789-29.705,16.187-44.937,22.588c-19.271,8.1-38.947,15.519-58.984,21.416c-13.248,3.898-27.401,4.861-41.211,6.673
		c-15.139,1.987-30.314,3.936-45.538,4.988c-15.572,1.076-31.221,1.084-46.838,1.492c-41.502,1.084-82.087-6.133-122.501-14.199
		c-16.767-3.348-31.928-11.28-46.339-20.439C670.9,2292.605,667.667,2290.309,663.547,2287.526z"/>
</g>
</svg>
