<?xml version="1.0" encoding="utf-8"?>
<!-- Generator: Adobe Illustrator 16.0.2, SVG Export Plug-In . SVG Version: 6.00 Build 0)  -->
<!DOCTYPE svg PUBLIC "-//W3C//DTD SVG 1.1 Tiny//EN" "http://www.w3.org/Graphics/SVG/1.1/DTD/svg11-tiny.dtd">
<svg version="1.1" baseProfile="tiny" id="Layer_1" xmlns="http://www.w3.org/2000/svg" xmlns:xlink="http://www.w3.org/1999/xlink"
	 x="0px" y="0px" width="3873.516px" height="3201.6px" viewBox="0 0 3873.516 3201.6" xml:space="preserve">
<g>
	<path fill-rule="evenodd" fill="#FFFFFF" d="M3877.516,3205.6c-1291.839,0-2583.677,0-3875.516,0C2,2137.732,2,1069.866,2,2
		c1291.838,0,2583.677,0,3875.516,0C3877.516,1069.866,3877.516,2137.732,3877.516,3205.6z M1530.625,2637.455
		c12.043,14.758,24.313,29.146,35.862,44.094c18.082,23.397,36.29,46.74,53.303,70.91c16.268,23.112,30.356,47.762,46.715,70.805
		c19.628,27.647,40.897,54.123,60.991,81.448c21.819,29.672,47.355,55.65,75.484,79.304c27.531,23.15,57.438,42.041,92.008,52.668
		c10.12,3.111,20.636,6.121,31.104,6.678c24.248,1.291,48.602,1.896,72.864,1.158c17.573-0.534,35.004-3.856,50.3-13.842
		c2.201-1.438,4.65-3.475,7.005-3.501c5.412-0.061,8.44-3.377,11.704-6.69c5.99-6.082,11.356-12.981,18.073-18.111
		c37.511-28.646,75.717-56.39,112.984-85.344c50.393-39.149,100.288-78.942,150.14-118.781
		c40.827-32.629,80.054-67.083,116.63-104.491c8.821-9.022,18.275-17.428,28.36-26.991c2.152,0.745,5.979,1.76,9.542,3.36
		c17.278,7.76,34.239,16.284,51.778,23.393c25.877,10.487,52.329,19.56,78.18,30.111c14.47,5.907,29.543,8.399,44.669,8.88
		c23.259,0.74,46.633,0.275,69.866-1.166c36.818-2.283,73.422-6.923,109.716-13.685c46.123-8.593,92.035-18.132,137.152-31.168
		c73.903-21.353,145.849-48.057,216.261-78.972c24.448-10.735,47.924-23.011,68.701-40.108
		c13.092-10.772,26.776-20.827,40.179-31.227c28.909-22.433,57.262-45.502,82.818-71.812c16.701-17.191,33.57-34.221,50.284-51.4
		c2.3-2.365,4.245-5.104,6.168-7.803c2.251-3.16,3.864-6.878,6.501-9.643c18.836-19.758,37.993-39.209,56.749-59.042
		c5.874-6.211,12.033-12.468,13.434-21.721c0.369-2.437,2.295-4.772,3.883-6.87c19.134-25.256,35.47-52.313,50.915-79.897
		c14.788-26.41,28.991-53.148,43.484-79.724c19.102-35.024,39.092-69.596,57.158-105.145
		c28.85-56.762,43.245-117.774,47.226-180.998c1.73-27.483-0.397-55.214-0.926-82.83c-0.492-25.758-5.085-50.965-12.536-75.479
		c-10.436-34.33-20.506-68.896-33.482-102.294c-14.348-36.926-35.256-70.596-57.724-103.355
		c-21.354-31.133-45.063-60.089-71.931-86.47c-18.512-18.175-37.519-35.852-56.538-53.501c-4.248-3.943-6.03-8.369-6.416-13.89
		c-1.018-14.558-2.71-29.084-3.235-43.656c-0.864-23.967-9.109-45.631-20.537-66.061c-9.732-17.4-21.403-33.704-31.53-50.897
		c-20.54-34.873-44.647-66.938-73.239-95.602c-15.984-16.025-31.845-32.18-48.076-47.954c-10.245-9.957-21.153-19.229-31.621-28.962
		c-15.559-14.467-32.845-27.159-45.639-44.479c-6.914-9.36-14.009-18.586-20.996-27.893c-18.975-25.27-38.268-50.309-56.818-75.884
		c-25.039-34.523-46.2-71.529-67.655-108.314c-14.435-24.748-29.508-49.011-48.045-70.981
		c-18.657-22.113-21.812-23.656-50.022-22.517c-15.512,0.625-32.164,14.185-37.032,28.905c-4.547,13.757-3.89,27.894-2.428,41.549
		c4.743,44.325,14.718,87.645,27.703,130.315c5.696,18.72,10.36,37.78,14.78,56.851c1.31,5.648,1.42,12.181-0.036,17.756
		c-4.694,17.973-10.259,35.723-15.755,53.476c-1.425,4.603-3.827,8.903-6.231,14.365c-2.758-3.182-4.831-5.298-6.591-7.65
		c-11.962-15.985-24.09-31.854-35.724-48.075c-22.483-31.352-44.541-63.008-67.032-94.354
		c-18.447-25.708-38.422-50.214-60.548-72.859c-19.77-20.231-39.849-40.164-60.006-60.011
		c-10.901-10.735-22.901-20.416-33.259-31.631c-19.845-21.485-38.995-43.62-58.203-65.686
		c-18.768-21.561-36.783-43.793-55.977-64.963c-22.626-24.956-43.594-51.069-61.879-79.381
		c-14.34-22.203-32.092-41.588-51.112-59.849c-4.527-4.345-9.622-6.926-16.063-6.768c-6.994,0.172-14.002-0.129-20.994,0.076
		c-19.018,0.56-32.353,11.511-40.206,27.008c-6.797,13.411-10.362,28.725-13.684,43.572c-5.651,25.27-9.826,50.866-14.921,76.265
		c-6.088,30.352-9.687,61-10.456,91.906c-0.404,16.259,0.752,32.556,1.156,48.835c0.692,27.938,1.984,55.881,1.786,83.813
		c-0.122,17.214-2.399,34.423-4.014,51.607c-0.479,5.089-1.992,10.081-3.355,16.689c-4.478-4.411-8.081-7.369-10.977-10.906
		c-18.954-23.145-38.509-45.848-56.444-69.764c-34.556-46.077-65.749-94.512-96.334-143.27
		c-23.856-38.031-45.798-77.26-63.145-118.782c-15.246-36.496-29.77-73.278-50.22-107.338
		c-10.631-17.705-21.611-34.97-35.895-50.202c-8.955-9.552-18.244-14.695-31.329-12.665c-6.516,1.011-13.556,0.134-19.623,2.235
		c-13.354,4.628-23.36,13.455-28.03,27.436c-0.825,2.476-2.306,4.838-3.904,6.933c-13.641,17.877-23.318,37.937-32.396,58.341
		c-0.847,1.903-2.055,3.646-4.342,7.645c-4.453-19.687-10.692-36.561-10.942-54.569c-0.379-27.324,0.206-54.662-0.217-81.984
		c-0.241-15.6-1.231-31.223-2.688-46.759c-1.373-14.636-4.64-29.089-12.51-41.685c-5.783-9.254-13.306-17.406-19.7-26.304
		c-2.842-3.957-5.519-8.305-7.045-12.884c-4.441-13.327-6.191-27.116-6.057-41.213c0.053-5.537,0.622-12.534-2.309-16.371
		c-10.791-14.125-21.603-29.599-43.505-24.762c-1.271,0.281-2.663,0.105-3.991,0.025c-9.891-0.592-18.459,3.036-25.498,9.456
		c-7.604,6.936-15.176,14.159-21.416,22.29c-21.061,27.446-41.933,55.057-62.12,83.149c-28.384,39.499-59.183,77.089-92.892,111.971
		c-21.866,22.628-47.155,41.962-71.106,62.545c-2.63,2.26-6.438,3.43-9.898,4.398c-26.893,7.524-54.05,14.184-80.679,22.535
		c-16.068,5.04-31.913,11.522-46.828,19.326c-21.499,11.248-42.01,24.375-63.036,36.54c-34.647,20.047-67.864,42.083-97.688,68.969
		c-5.902,5.32-11.724,11.092-18.546,14.953c-18.516,10.482-37.751,19.69-56.329,30.071c-24.967,13.95-50.002,27.856-74.252,42.993
		c-35.228,21.988-64.752,50.925-94.241,79.868c-28.586,28.056-51.316,60.18-69.303,95.821c-1.431,2.834-3.032,5.584-5.446,10.007
		c-0.709-3.181-1.073-4.353-1.221-5.552c-3.85-31.253-7.811-62.494-11.475-93.77c-4.981-42.52-9.045-85.158-14.817-127.566
		c-4.201-30.868-10.238-61.501-16.003-92.135c-4.23-22.479-9.225-44.817-14.1-67.171c-5.019-23.005-9.825-46.073-15.651-68.878
		c-3.609-14.125-8.862-27.836-13.539-41.679c-2.641-7.819-4.077-16.64-8.735-23.066c-11.188-15.438-23.669-30.241-46.423-25.131
		c-1.586,0.356-3.324,0.013-4.988,0.06c-16.593,0.466-37.417,17.961-37.973,35.088c-0.494,15.24-0.832,30.8,1.62,45.75
		c3.805,23.202,9.752,46.076,15.357,68.951c2.951,12.04,4.561,24.141,3.21,36.353c-1.53,13.835-3.822,27.612-6.37,41.305
		c-7.758,41.694-22.176,81.072-46.576,115.777c-20.625,29.333-42.914,57.614-65.989,85.079
		c-38.266,45.546-77.811,90.015-116.703,135.036c-17.812,20.617-35.023,41.762-53.118,62.125
		c-17.006,19.139-35.366,37.087-52.16,56.403c-34.564,39.757-65.622,82.161-91.634,128.04
		c-29.637,52.272-52.254,107.611-70.576,164.779c-23.005,71.782-37.25,145.457-46.426,220.083
		c-4.776,38.84-6.934,78.001-10.271,117.018c-0.679,7.937-1.681,15.863-1.941,23.814c-0.48,14.64-0.436,29.296-0.82,43.938
		c-0.076,2.905-0.892,5.845-1.717,8.666c-5.877,20.089-12.447,39.997-17.638,60.259c-7.2,28.105-11.062,56.769-10.531,85.868
		c0.51,27.936,0.372,55.924,2.185,83.781c2.299,35.317,11.305,69.477,22.014,103.091c13.001,40.81,33.255,78.288,54.083,115.482
		c19.992,35.7,39.859,71.472,59.594,107.314c18.303,33.243,37.296,66.037,59.969,96.563c1.954,2.63,4.036,5.543,4.766,8.63
		c2.105,8.899,7.83,15.352,13.78,21.585c19.077,19.988,38.365,39.775,57.539,59.673c1.591,1.652,3.034,3.476,4.366,5.346
		c3.027,4.256,5.419,9.095,8.995,12.804c12.943,13.421,26.602,26.158,39.373,39.736c21.216,22.557,43.503,43.866,68.075,62.776
		c24.508,18.861,48.585,38.289,73.288,56.889c10.033,7.553,20.734,14.547,31.959,20.132
		c55.771,27.743,113.949,49.688,172.751,69.988c56.35,19.452,113.776,34.984,172.264,46.646
		c68.308,13.619,136.987,23.509,206.878,21.995c18.995-0.411,37.774-2.242,55.501-10.074c7.291-3.221,14.838-5.895,22.368-8.534
		c27.329-9.58,54.329-19.898,80.237-32.976c22.08-11.146,45.263-18.817,69.829-22.89c13.682-2.269,26.977-7.08,40.308-11.195
		C1512.647,2644.399,1521.247,2640.871,1530.625,2637.455z"/>
	<path fill-rule="evenodd" d="M1530.625,2637.455c-9.378,3.416-17.978,6.944-26.825,9.677c-13.331,4.115-26.625,8.927-40.308,11.195
		c-24.566,4.072-47.749,11.744-69.829,22.89c-25.908,13.077-52.908,23.396-80.237,32.976c-7.529,2.64-15.077,5.313-22.368,8.534
		c-17.727,7.832-36.507,9.663-55.501,10.074c-69.891,1.514-138.57-8.376-206.878-21.995
		c-58.488-11.662-115.914-27.194-172.264-46.646c-58.802-20.301-116.979-42.245-172.751-69.988
		c-11.225-5.585-21.926-12.579-31.959-20.132c-24.702-18.6-48.78-38.027-73.288-56.889c-24.571-18.91-46.858-40.22-68.075-62.776
		c-12.771-13.578-26.43-26.315-39.373-39.736c-3.576-3.709-5.968-8.548-8.995-12.804c-1.332-1.87-2.774-3.693-4.366-5.346
		c-19.173-19.897-38.462-39.685-57.539-59.673c-5.95-6.233-11.675-12.686-13.78-21.585c-0.73-3.087-2.812-6-4.766-8.63
		c-22.673-30.526-41.666-63.32-59.969-96.563c-19.735-35.843-39.603-71.614-59.594-107.314
		c-20.828-37.194-41.082-74.673-54.083-115.482c-10.709-33.614-19.715-67.773-22.014-103.091
		c-1.813-27.857-1.675-55.846-2.185-83.781c-0.531-29.1,3.332-57.763,10.531-85.868c5.191-20.262,11.761-40.17,17.638-60.259
		c0.825-2.821,1.641-5.761,1.717-8.666c0.384-14.643,0.339-29.299,0.82-43.938c0.261-7.951,1.262-15.878,1.941-23.814
		c3.337-39.017,5.495-78.178,10.271-117.018c9.177-74.626,23.421-148.301,46.426-220.083
		c18.322-57.168,40.939-112.507,70.576-164.779c26.012-45.879,57.07-88.283,91.634-128.04c16.794-19.316,35.153-37.264,52.16-56.403
		c18.094-20.363,35.306-41.508,53.118-62.125c38.893-45.021,78.438-89.49,116.703-135.036
		c23.075-27.465,45.364-55.746,65.989-85.079c24.4-34.706,38.818-74.083,46.576-115.777c2.548-13.693,4.84-27.469,6.37-41.305
		c1.351-12.211-0.26-24.313-3.21-36.353c-5.605-22.875-11.552-45.749-15.357-68.951c-2.452-14.95-2.114-30.51-1.62-45.75
		c0.557-17.127,21.38-34.623,37.973-35.088c1.665-0.047,3.402,0.297,4.988-0.06c22.754-5.11,35.235,9.692,46.423,25.131
		c4.658,6.427,6.094,15.247,8.735,23.066c4.676,13.843,9.93,27.554,13.539,41.679c5.826,22.805,10.632,45.873,15.651,68.878
		c4.875,22.354,9.87,44.692,14.1,67.171c5.765,30.634,11.802,61.267,16.003,92.135c5.772,42.408,9.836,85.047,14.817,127.566
		c3.665,31.275,7.625,62.517,11.475,93.77c0.147,1.199,0.512,2.371,1.221,5.552c2.414-4.423,4.015-7.173,5.446-10.007
		c17.987-35.641,40.716-67.765,69.303-95.821c29.489-28.943,59.013-57.88,94.241-79.868c24.25-15.137,49.286-29.042,74.252-42.993
		c18.578-10.38,37.813-19.588,56.329-30.071c6.822-3.861,12.644-9.633,18.546-14.953c29.824-26.885,63.042-48.921,97.688-68.969
		c21.026-12.166,41.537-25.292,63.036-36.54c14.916-7.804,30.76-14.287,46.828-19.326c26.629-8.352,53.786-15.011,80.679-22.535
		c3.459-0.968,7.268-2.138,9.898-4.398c23.951-20.583,49.24-39.917,71.106-62.545c33.708-34.882,64.507-72.472,92.892-111.971
		c20.187-28.092,41.06-55.703,62.12-83.149c6.24-8.131,13.812-15.354,21.416-22.29c7.038-6.419,15.606-10.047,25.498-9.456
		c1.328,0.08,2.72,0.255,3.991-0.025c21.903-4.836,32.715,10.637,43.505,24.762c2.931,3.837,2.362,10.834,2.309,16.371
		c-0.134,14.098,1.616,27.886,6.057,41.213c1.526,4.58,4.203,8.928,7.045,12.884c6.394,8.898,13.917,17.05,19.7,26.304
		c7.87,12.595,11.137,27.048,12.51,41.685c1.457,15.536,2.447,31.159,2.688,46.759c0.423,27.322-0.162,54.66,0.217,81.984
		c0.25,18.008,6.489,34.882,10.942,54.569c2.287-3.999,3.495-5.742,4.342-7.645c9.077-20.404,18.755-40.463,32.396-58.341
		c1.599-2.095,3.079-4.458,3.904-6.933c4.67-13.981,14.677-22.808,28.03-27.436c6.067-2.101,13.107-1.224,19.623-2.235
		c13.085-2.031,22.374,3.113,31.329,12.665c14.283,15.231,25.264,32.497,35.895,50.202c20.45,34.06,34.974,70.842,50.22,107.338
		c17.347,41.522,39.288,80.751,63.145,118.782c30.585,48.758,61.778,97.193,96.334,143.27c17.936,23.916,37.49,46.619,56.444,69.764
		c2.896,3.537,6.499,6.496,10.977,10.906c1.363-6.609,2.877-11.601,3.355-16.689c1.614-17.184,3.892-34.393,4.014-51.607
		c0.198-27.932-1.094-55.875-1.786-83.813c-0.404-16.28-1.561-32.577-1.156-48.835c0.77-30.906,4.368-61.554,10.456-91.906
		c5.095-25.399,9.27-50.995,14.921-76.265c3.321-14.847,6.887-30.161,13.684-43.572c7.854-15.497,21.188-26.449,40.206-27.008
		c6.992-0.205,14,0.096,20.994-0.076c6.441-0.158,11.536,2.423,16.063,6.768c19.021,18.261,36.772,37.646,51.112,59.849
		c18.285,28.312,39.253,54.425,61.879,79.381c19.193,21.17,37.209,43.403,55.977,64.963c19.208,22.066,38.358,44.201,58.203,65.686
		c10.357,11.215,22.357,20.896,33.259,31.631c20.157,19.847,40.236,39.78,60.006,60.011c22.126,22.645,42.101,47.15,60.548,72.859
		c22.491,31.346,44.549,63.002,67.032,94.354c11.634,16.222,23.762,32.09,35.724,48.075c1.76,2.352,3.833,4.468,6.591,7.65
		c2.404-5.461,4.807-9.762,6.231-14.365c5.496-17.752,11.061-35.503,15.755-53.476c1.456-5.575,1.346-12.108,0.036-17.756
		c-4.42-19.071-9.084-38.13-14.78-56.851c-12.985-42.67-22.96-85.99-27.703-130.315c-1.462-13.655-2.119-27.792,2.428-41.549
		c4.868-14.721,21.521-28.28,37.032-28.905c28.211-1.14,31.365,0.404,50.022,22.517c18.537,21.971,33.61,46.233,48.045,70.981
		c21.455,36.785,42.616,73.792,67.655,108.314c18.551,25.576,37.844,50.615,56.818,75.884c6.987,9.306,14.082,18.533,20.996,27.893
		c12.794,17.32,30.08,30.012,45.639,44.479c10.468,9.734,21.376,19.005,31.621,28.962c16.231,15.773,32.092,31.928,48.076,47.954
		c28.592,28.664,52.699,60.729,73.239,95.602c10.127,17.193,21.798,33.497,31.53,50.897c11.428,20.43,19.673,42.094,20.537,66.061
		c0.525,14.571,2.218,29.098,3.235,43.656c0.386,5.521,2.168,9.947,6.416,13.89c19.02,17.649,38.026,35.326,56.538,53.501
		c26.867,26.381,50.577,55.337,71.931,86.47c22.468,32.76,43.376,66.429,57.724,103.355c12.977,33.397,23.047,67.964,33.482,102.294
		c7.451,24.514,12.044,49.721,12.536,75.479c0.528,27.616,2.656,55.347,0.926,82.83c-3.98,63.224-18.376,124.236-47.226,180.998
		c-18.066,35.549-38.057,70.12-57.158,105.145c-14.493,26.575-28.696,53.313-43.484,79.724
		c-15.445,27.584-31.781,54.642-50.915,79.897c-1.588,2.098-3.514,4.434-3.883,6.87c-1.4,9.253-7.56,15.51-13.434,21.721
		c-18.756,19.833-37.913,39.284-56.749,59.042c-2.637,2.765-4.25,6.482-6.501,9.643c-1.923,2.699-3.868,5.438-6.168,7.803
		c-16.714,17.18-33.583,34.209-50.284,51.4c-25.557,26.31-53.909,49.379-82.818,71.812c-13.402,10.399-27.087,20.454-40.179,31.227
		c-20.777,17.098-44.253,29.373-68.701,40.108c-70.412,30.915-142.357,57.619-216.261,78.972
		c-45.117,13.036-91.029,22.575-137.152,31.168c-36.294,6.762-72.897,11.401-109.716,13.685
		c-23.233,1.441-46.607,1.906-69.866,1.166c-15.126-0.48-30.199-2.973-44.669-8.88c-25.851-10.552-52.303-19.624-78.18-30.111
		c-17.539-7.108-34.5-15.633-51.778-23.393c-3.563-1.601-7.39-2.615-9.542-3.36c-10.085,9.563-19.539,17.969-28.36,26.991
		c-36.576,37.408-75.803,71.862-116.63,104.491c-49.852,39.839-99.747,79.632-150.14,118.781
		c-37.268,28.954-75.474,56.698-112.984,85.344c-6.717,5.13-12.083,12.029-18.073,18.111c-3.264,3.313-6.292,6.63-11.704,6.69
		c-2.354,0.026-4.804,2.063-7.005,3.501c-15.296,9.985-32.727,13.308-50.3,13.842c-24.262,0.738-48.616,0.133-72.864-1.158
		c-10.468-0.557-20.984-3.566-31.104-6.678c-34.57-10.627-64.478-29.518-92.008-52.668c-28.129-23.653-53.665-49.632-75.484-79.304
		c-20.093-27.325-41.362-53.801-60.991-81.448c-16.358-23.043-30.447-47.692-46.715-70.805
		c-17.013-24.17-35.221-47.513-53.303-70.91C1554.938,2666.602,1542.668,2652.213,1530.625,2637.455z"/>
</g>
</svg>
