<?xml version="1.0" encoding="utf-8"?>
<!-- Generator: Adobe Illustrator 16.0.2, SVG Export Plug-In . SVG Version: 6.00 Build 0)  -->
<!DOCTYPE svg PUBLIC "-//W3C//DTD SVG 1.1 Tiny//EN" "http://www.w3.org/Graphics/SVG/1.1/DTD/svg11-tiny.dtd">
<svg version="1.1" baseProfile="tiny" id="Layer_1" xmlns="http://www.w3.org/2000/svg" xmlns:xlink="http://www.w3.org/1999/xlink"
	 x="0px" y="0px" width="3789.526px" height="3117.61px" viewBox="0 0 3789.526 3117.61" xml:space="preserve">
<g>
	<path fill-rule="evenodd" fill="#FFFFFF" d="M3793.524,3121.609c-1263.841,0-2527.682,0-3791.523,0
		c0-1039.869,0-2079.738-0.001-3119.607c1263.841-0.001,2527.682-0.001,3791.522-0.001
		C3793.523,1041.87,3793.523,2081.739,3793.524,3121.609z M857.922,809.066c-0.7-0.095-1.399-0.19-2.099-0.285
		c-4.111-35.894-8.157-71.796-12.348-107.68c-4.542-38.89-8.564-77.855-14.04-116.614c-4.405-31.18-10.35-62.156-16.157-93.12
		c-4.156-22.153-9.035-44.178-13.92-66.188c-5.606-25.256-10.92-50.609-17.615-75.583c-4.544-16.956-11.629-33.216-16.781-50.032
		c-1.834-5.986-4.616-10.83-8.761-15.21c-17.517-18.509-17.509-18.516-42.802-18.331c-1.333,0.01-2.67-0.059-3.999,0.026
		c-14.402,0.918-31.817,13.963-35.547,27.963c-4.521,16.967-3.588,34.53-0.797,51.502c3.493,21.239,8.873,42.204,14.188,63.095
		c4.125,16.21,6.777,32.496,4.841,49.113c-1.421,12.184-4.057,24.233-6.337,36.308c-7.425,39.317-20.459,76.863-43.069,109.796
		c-21.599,31.464-45.366,61.579-69.861,90.881c-37.724,45.129-77.055,88.909-115.367,133.551
		c-24.028,27.997-46.553,57.259-72.839,83.33c-13.672,13.56-26.484,28.064-38.899,42.804
		c-45.206,53.667-84.583,111.143-113.687,175.313c-24.365,53.721-44.368,108.925-58.76,166.175
		c-10.784,42.902-19.936,86.116-25.574,129.995c-4.354,33.892-8.144,67.863-11.694,101.851c-1.483,14.189-1,28.594-2.658,42.754
		c-2.245,19.179-4.115,38.374-3.519,57.642c0.46,14.893-2.361,28.787-7.087,42.843c-11.035,32.816-20.225,66.341-22.028,101.009
		c-1.933,37.191-2.646,74.51,0.884,111.743c3.375,35.592,11.622,70.124,22.473,104.044c12.946,40.468,32.996,77.681,53.707,114.559
		c19.222,34.225,38.574,68.383,57.3,102.88c19.065,35.121,38.977,69.668,62.813,101.828c1.758,2.371,3.681,4.987,4.311,7.765
		c2.182,9.626,8.522,16.42,14.962,23.139c18.89,19.707,37.905,39.294,56.853,58.946c1.374,1.426,2.71,2.917,3.862,4.521
		c3.424,4.771,6.202,10.135,10.214,14.327c12.433,12.984,25.625,25.245,37.964,38.315c21.94,23.238,44.896,45.257,70.445,64.59
		c23.864,18.059,46.991,37.089,70.847,55.158c9.756,7.391,20.059,14.423,30.996,19.834c57.319,28.361,117.009,51.011,177.436,71.711
		c55.443,18.992,111.943,34.158,169.456,45.586c67.656,13.443,135.67,23.22,204.891,21.933c20.057-0.373,39.759-2.382,58.375-10.737
		c6.358-2.853,13.011-5.067,19.59-7.403c27.598-9.793,54.974-20.069,81.191-33.286c19.63-9.896,39.987-18.049,61.899-21.463
		c17.498-2.726,34.499-7.15,50.98-13.685c7.958-3.154,16.135-5.76,24.529-8.726c12.508,15.255,25.096,29.85,36.835,45.097
		c18.455,23.968,36.903,47.979,54.294,72.717c15.49,22.032,28.812,45.595,44.415,67.541c19.646,27.635,40.893,54.126,60.982,81.454
		c22.014,29.946,47.775,56.179,76.187,80.012c27.291,22.892,56.904,41.665,91.187,52.115c10.439,3.184,21.269,6.261,32.062,6.873
		c23.575,1.336,47.259,1.771,70.866,1.211c18.317-0.435,36.33-3.813,52.213-14.183c2.187-1.428,4.691-3.244,7.084-3.298
		c5.028-0.114,7.822-3.194,10.843-6.282c5.973-6.104,11.18-13.286,18.036-18.143c42.072-29.802,82.936-61.164,123.236-93.3
		c46.775-37.298,93.94-74.105,140.668-111.462c40.562-32.427,79.54-66.658,115.884-103.828c9.046-9.252,18.681-17.928,28.605-27.404
		c2.676,0.947,6.53,2.014,10.132,3.641c16.961,7.662,33.592,16.121,50.828,23.089c26.192,10.591,52.999,19.676,79.13,30.406
		c14.505,5.956,29.58,8.102,44.705,8.761c32.257,1.406,64.58,0.459,96.645-3.604c31.632-4.006,63.246-8.387,94.658-13.821
		c42.954-7.43,85.424-17.21,127.323-29.371c69.713-20.234,137.76-45.085,204.218-74.212c18.845-8.259,38.493-16.005,55.111-27.753
		c34.715-24.54,68.545-50.536,101.039-77.951c24.601-20.755,46.884-44.321,69.58-67.25c12.493-12.622,27.486-23.19,35.342-39.974
		c0.266-0.568,0.915-0.956,1.379-1.436c18.968-19.633,38.021-39.184,56.854-58.942c6.613-6.939,13.622-13.714,15.282-24.013
		c0.392-2.428,2.42-4.709,4.023-6.807c18.638-24.386,34.399-50.634,49.435-77.295c15.357-27.233,30.01-54.866,44.979-82.32
		c19.257-35.319,39.489-70.147,57.558-106.063c28.447-56.545,42.736-117.261,46.539-180.169c1.661-27.491-0.379-55.216-0.971-82.831
		c-0.545-25.405-5.019-50.298-12.381-74.496c-10.444-34.331-20.416-68.934-33.4-102.326
		c-14.354-36.915-35.192-70.636-57.658-103.398c-21.347-31.13-45.012-60.128-71.881-86.511
		c-18.511-18.175-37.496-35.877-56.549-53.486c-4.553-4.208-6.409-8.827-6.781-14.77c-0.893-14.23-2.678-28.42-3.16-42.658
		c-0.836-24.68-9.161-47.042-21.39-67.812c-16.2-27.511-33.392-54.459-50.797-81.233c-7.408-11.396-16.113-22.006-24.792-32.508
		c-22.937-27.756-48.402-53.127-74.649-77.719c-11.159-10.456-22.616-20.593-33.813-31.01
		c-15.311-14.245-32.283-26.785-44.923-43.786c-7.141-9.606-14.469-19.072-21.653-28.645
		c-18.969-25.274-38.234-50.335-56.772-75.921c-24.826-34.264-45.854-70.963-67.11-107.478
		c-14.584-25.052-29.854-49.592-48.579-71.82c-18.39-21.83-20.989-22.995-49.266-22.072c-0.333,0.011-0.667-0.008-1,0.009
		c-14.907,0.764-31.696,14.463-36.358,28.464c-4.572,13.731-4.097,27.888-2.521,41.522c2.816,24.336,6.774,48.68,12.382,72.521
		c7.372,31.343,16.624,62.252,25.41,93.251c5.359,18.904,7.928,37.641,0.641,56.638c-1.421,3.708-1.989,7.736-3.287,11.5
		c-4.42,12.816-8.988,25.58-14.26,40.516c-5.468-6.865-9.739-11.834-13.579-17.117c-22.291-30.672-44.472-61.423-66.705-92.137
		c-16.586-22.913-32.69-46.196-49.921-68.614c-21.106-27.462-44.759-52.757-69.669-76.821
		c-20.82-20.114-42.701-39.197-62.657-60.125c-23.156-24.282-44.828-49.988-66.946-75.249
		c-17.52-20.007-34.609-40.389-52.129-60.395c-17.76-20.279-34.86-41.003-50.163-63.273c-11.844-17.238-24.573-33.934-37.806-50.136
		c-22.882-28.015-26.849-29.58-57.821-28.522c-0.666,0.022-1.336-0.006-1.998,0.044c-18.457,1.376-31.455,12.22-38.906,27.479
		c-6.748,13.817-10.243,29.448-13.646,44.621c-5.593,24.944-9.86,50.183-14.854,75.264c-6.11,30.686-9.898,61.671-10.305,92.924
		c-0.336,25.936,0.739,51.888,1.199,77.833c0.018,0.997,0.166,1.991,0.201,2.989c0.594,16.609,1.979,33.241,1.548,49.825
		c-0.456,17.558-2.504,35.083-4.162,52.595c-0.466,4.924-2.008,9.745-3.057,14.613c-0.942,0.383-1.886,0.766-2.829,1.148
		c-2.682-3.382-5.325-6.794-8.053-10.14c-18.063-22.151-36.892-43.728-54.066-66.548c-35.438-47.086-67.332-96.646-98.746-146.462
		c-22.533-35.734-43.112-72.675-59.998-111.452c-16.978-38.98-31.683-78.975-53.86-115.537
		c-10.187-16.794-20.701-33.175-33.876-47.993c-9.971-11.214-20.826-16.689-35.626-14.39c-2.603,0.405-5.341-0.139-7.986,0.1
		c-15.925,1.433-26.646,10.853-34.889,23.536c-3.949,6.074-6.971,12.748-10.47,19.118c-7.999,14.559-16.098,29.063-24.019,43.666
		c-2.471,4.554-4.501,9.346-6.667,13.891c-1.079-0.314-1.63-0.336-1.685-0.512c-5.299-17.101-10.554-34.306-10.953-52.332
		c-0.501-22.653,0.148-45.329-0.206-67.986c-0.286-18.273-0.9-36.563-2.135-54.796c-1.708-25.231-9.513-48.263-27.475-66.855
		c-7.864-8.14-13.202-17.343-14.936-28.582c-0.556-3.602-1.683-7.142-1.965-10.754c-0.802-10.262-1.208-20.554-1.985-30.818
		c-0.192-2.552-0.475-5.617-1.946-7.47c-11.473-14.436-23.049-28.998-44.948-24.135c-0.636,0.141-1.333,0.062-1.996,0.012
		c-9.897-0.753-18.512,2.842-25.591,9.176c-7.665,6.859-15.235,14.099-21.474,22.226c-21.269,27.707-42.316,55.6-62.734,83.935
		c-28.435,39.46-59.29,76.986-92.941,111.936c-20.677,21.475-44.563,39.884-67.293,59.337c-3.885,3.325-8.956,5.837-13.901,7.257
		c-26.838,7.708-54.029,14.254-80.652,22.623c-16.063,5.049-31.88,11.602-46.795,19.414c-21.2,11.102-41.399,24.103-62.149,36.079
		c-34.963,20.178-68.421,42.449-98.514,69.528c-5.662,5.095-11.158,10.766-17.708,14.412c-22.664,12.619-46.069,23.916-68.61,36.743
		c-25.419,14.466-50.819,29.128-75.125,45.357c-34.495,23.033-63.563,52.563-92.322,82.191
		c-19.082,19.66-35.023,41.808-48.212,65.873C867.692,791.094,862.816,800.085,857.922,809.066z"/>
	<path fill-rule="evenodd" d="M857.922,809.066c4.894-8.98,9.771-17.972,14.686-26.941c13.189-24.065,29.13-46.213,48.212-65.873
		c28.759-29.629,57.828-59.158,92.322-82.191c24.306-16.229,49.705-30.891,75.125-45.357c22.541-12.827,45.946-24.124,68.61-36.743
		c6.551-3.646,12.046-9.317,17.708-14.412c30.093-27.08,63.551-49.35,98.514-69.528c20.75-11.976,40.95-24.977,62.149-36.079
		c14.915-7.812,30.731-14.364,46.795-19.414c26.623-8.369,53.813-14.915,80.652-22.623c4.945-1.42,10.016-3.932,13.901-7.257
		c22.73-19.454,46.616-37.862,67.293-59.337c33.652-34.95,64.506-72.476,92.941-111.936c20.418-28.335,41.465-56.229,62.734-83.935
		c6.238-8.126,13.809-15.366,21.474-22.226c7.079-6.334,15.693-9.929,25.591-9.176c0.663,0.05,1.36,0.129,1.996-0.012
		c21.898-4.863,33.475,9.7,44.948,24.135c1.471,1.853,1.753,4.917,1.946,7.47c0.777,10.264,1.184,20.556,1.985,30.818
		c0.282,3.612,1.41,7.152,1.965,10.754c1.733,11.239,7.071,20.442,14.936,28.582c17.962,18.592,25.768,41.624,27.475,66.855
		c1.234,18.232,1.849,36.523,2.135,54.796c0.354,22.657-0.295,45.333,0.206,67.986c0.398,18.026,5.653,35.231,10.953,52.332
		c0.055,0.176,0.606,0.197,1.685,0.512c2.166-4.544,4.197-9.336,6.667-13.891c7.921-14.602,16.02-29.107,24.019-43.666
		c3.5-6.37,6.521-13.043,10.47-19.118c8.242-12.683,18.964-22.103,34.889-23.536c2.646-0.238,5.384,0.306,7.986-0.1
		c14.8-2.299,25.655,3.175,35.626,14.39c13.175,14.818,23.689,31.199,33.876,47.993c22.178,36.562,36.883,76.557,53.86,115.537
		c16.886,38.777,37.465,75.718,59.998,111.452c31.414,49.816,63.309,99.376,98.746,146.462
		c17.175,22.821,36.003,44.397,54.066,66.548c2.728,3.346,5.371,6.758,8.053,10.14c0.943-0.383,1.887-0.766,2.829-1.148
		c1.049-4.869,2.591-9.689,3.057-14.613c1.658-17.512,3.706-35.038,4.162-52.595c0.432-16.583-0.954-33.215-1.548-49.825
		c-0.035-0.998-0.184-1.992-0.201-2.989c-0.46-25.945-1.535-51.898-1.199-77.833c0.406-31.252,4.194-62.238,10.305-92.924
		c4.994-25.081,9.262-50.32,14.854-75.264c3.402-15.173,6.897-30.804,13.646-44.621c7.451-15.259,20.449-26.103,38.906-27.479
		c0.662-0.05,1.332-0.021,1.998-0.044c30.973-1.058,34.939,0.507,57.821,28.522c13.232,16.202,25.962,32.898,37.806,50.136
		c15.303,22.271,32.403,42.995,50.163,63.273c17.52,20.005,34.609,40.388,52.129,60.395c22.118,25.261,43.79,50.966,66.946,75.249
		c19.956,20.927,41.837,40.011,62.657,60.125c24.91,24.064,48.563,49.359,69.669,76.821c17.23,22.418,33.335,45.701,49.921,68.614
		c22.233,30.714,44.414,61.465,66.705,92.137c3.84,5.283,8.111,10.251,13.579,17.117c5.271-14.937,9.84-27.7,14.26-40.516
		c1.298-3.764,1.866-7.792,3.287-11.5c7.287-18.997,4.719-37.733-0.641-56.638c-8.786-30.999-18.038-61.908-25.41-93.251
		c-5.607-23.841-9.565-48.185-12.382-72.521c-1.576-13.634-2.052-27.792,2.521-41.522c4.662-14.001,21.451-27.7,36.358-28.464
		c0.333-0.017,0.667,0.002,1-0.009c28.276-0.923,30.876,0.243,49.266,22.072c18.726,22.228,33.995,46.768,48.579,71.82
		c21.257,36.515,42.284,73.214,67.11,107.478c18.538,25.586,37.804,50.647,56.772,75.921c7.185,9.573,14.513,19.039,21.653,28.645
		c12.64,17.001,29.612,29.541,44.923,43.786c11.197,10.417,22.654,20.554,33.813,31.01c26.247,24.592,51.713,49.962,74.649,77.719
		c8.679,10.501,17.384,21.112,24.792,32.508c17.405,26.774,34.597,53.722,50.797,81.233c12.229,20.77,20.554,43.132,21.39,67.812
		c0.482,14.237,2.268,28.427,3.16,42.658c0.372,5.942,2.229,10.562,6.781,14.77c19.053,17.609,38.038,35.311,56.549,53.486
		c26.869,26.383,50.534,55.381,71.881,86.511c22.466,32.763,43.304,66.483,57.658,103.398c12.984,33.393,22.956,67.995,33.4,102.326
		c7.362,24.198,11.836,49.091,12.381,74.496c0.592,27.615,2.632,55.34,0.971,82.831c-3.803,62.908-18.092,123.624-46.539,180.169
		c-18.068,35.916-38.301,70.744-57.558,106.063c-14.969,27.454-29.621,55.087-44.979,82.32
		c-15.035,26.661-30.797,52.909-49.435,77.295c-1.604,2.098-3.632,4.379-4.023,6.807c-1.66,10.299-8.669,17.073-15.282,24.013
		c-18.833,19.759-37.886,39.31-56.854,58.942c-0.464,0.479-1.113,0.867-1.379,1.436c-7.855,16.783-22.849,27.352-35.342,39.974
		c-22.696,22.929-44.979,46.495-69.58,67.25c-32.494,27.415-66.324,53.411-101.039,77.951
		c-16.618,11.748-36.267,19.494-55.111,27.753c-66.458,29.127-134.505,53.978-204.218,74.212
		c-41.899,12.161-84.369,21.941-127.323,29.371c-31.412,5.435-63.026,9.815-94.658,13.821c-32.064,4.063-64.388,5.01-96.645,3.604
		c-15.125-0.659-30.2-2.805-44.705-8.761c-26.131-10.73-52.938-19.815-79.13-30.406c-17.236-6.968-33.867-15.427-50.828-23.089
		c-3.602-1.627-7.456-2.693-10.132-3.641c-9.925,9.477-19.56,18.152-28.605,27.404c-36.344,37.17-75.322,71.401-115.884,103.828
		c-46.728,37.356-93.893,74.164-140.668,111.462c-40.301,32.136-81.164,63.498-123.236,93.3
		c-6.856,4.856-12.063,12.039-18.036,18.143c-3.021,3.088-5.814,6.168-10.843,6.282c-2.393,0.054-4.897,1.87-7.084,3.298
		c-15.883,10.37-33.896,13.748-52.213,14.183c-23.607,0.56-47.291,0.125-70.866-1.211c-10.792-0.612-21.622-3.689-32.062-6.873
		c-34.283-10.45-63.896-29.224-91.187-52.115c-28.412-23.833-54.173-50.065-76.187-80.012
		c-20.089-27.328-41.336-53.819-60.982-81.454c-15.603-21.946-28.924-45.509-44.415-67.541
		c-17.391-24.737-35.839-48.749-54.294-72.717c-11.74-15.247-24.327-29.842-36.835-45.097c-8.394,2.966-16.571,5.571-24.529,8.726
		c-16.481,6.534-33.482,10.959-50.98,13.685c-21.913,3.414-42.269,11.567-61.899,21.463c-26.218,13.217-53.593,23.493-81.191,33.286
		c-6.579,2.336-13.232,4.551-19.59,7.403c-18.617,8.355-38.318,10.364-58.375,10.737c-69.221,1.287-137.235-8.489-204.891-21.933
		c-57.512-11.428-114.012-26.594-169.456-45.586c-60.427-20.7-120.117-43.35-177.436-71.711
		c-10.937-5.411-21.24-12.443-30.996-19.834c-23.855-18.069-46.982-37.1-70.847-55.158c-25.549-19.333-48.505-41.352-70.445-64.59
		c-12.339-13.07-25.532-25.331-37.964-38.315c-4.013-4.192-6.79-9.557-10.214-14.327c-1.152-1.604-2.488-3.096-3.862-4.521
		c-18.948-19.652-37.963-39.239-56.853-58.946c-6.44-6.719-12.781-13.513-14.962-23.139c-0.629-2.777-2.553-5.394-4.311-7.765
		c-23.836-32.16-43.748-66.707-62.813-101.828c-18.726-34.497-38.079-68.655-57.3-102.88
		c-20.711-36.878-40.761-74.091-53.707-114.559c-10.852-33.92-19.099-68.452-22.473-104.044
		c-3.53-37.233-2.817-74.552-0.884-111.743c1.803-34.668,10.993-68.192,22.028-101.009c4.726-14.056,7.547-27.95,7.087-42.843
		c-0.597-19.268,1.273-38.463,3.519-57.642c1.657-14.161,1.175-28.565,2.658-42.754c3.551-33.987,7.34-67.958,11.694-101.851
		c5.638-43.878,14.79-87.093,25.574-129.995c14.392-57.25,34.395-112.455,58.76-166.175
		c29.104-64.17,68.481-121.646,113.687-175.313c12.415-14.74,25.227-29.244,38.899-42.804c26.287-26.071,48.811-55.333,72.839-83.33
		c38.313-44.642,77.644-88.422,115.367-133.551c24.495-29.303,48.263-59.417,69.861-90.881
		c22.61-32.933,35.644-70.479,43.069-109.796c2.28-12.075,4.917-24.124,6.337-36.308c1.936-16.617-0.717-32.903-4.841-49.113
		c-5.315-20.892-10.695-41.856-14.188-63.095c-2.791-16.973-3.724-34.535,0.797-51.502c3.73-14,21.145-27.045,35.547-27.963
		c1.328-0.085,2.665-0.017,3.999-0.026c25.293-0.186,25.285-0.179,42.802,18.331c4.145,4.38,6.927,9.224,8.761,15.21
		c5.152,16.815,12.237,33.076,16.781,50.032c6.694,24.975,12.008,50.327,17.615,75.583c4.885,22.01,9.765,44.035,13.92,66.188
		c5.808,30.964,11.752,61.94,16.157,93.12c5.476,38.759,9.499,77.725,14.04,116.614c4.191,35.884,8.237,71.786,12.348,107.68
		C856.523,808.875,857.222,808.971,857.922,809.066z"/>
</g>
</svg>
