<?xml version="1.0" encoding="utf-8"?>
<!-- Generator: Adobe Illustrator 16.0.2, SVG Export Plug-In . SVG Version: 6.00 Build 0)  -->
<!DOCTYPE svg PUBLIC "-//W3C//DTD SVG 1.1 Tiny//EN" "http://www.w3.org/Graphics/SVG/1.1/DTD/svg11-tiny.dtd">
<svg version="1.1" baseProfile="tiny" id="Layer_1" xmlns="http://www.w3.org/2000/svg" xmlns:xlink="http://www.w3.org/1999/xlink"
	 x="0px" y="0px" width="3921.51px" height="3201.6px" viewBox="0 0 3921.51 3201.6" xml:space="preserve">
<g>
	<path fill-rule="evenodd" fill="#FFFFFF" d="M2,2c1307.836,0,2615.673,0,3923.509,0c0,1067.866,0,2135.732,0,3203.6
		c-1307.836,0-2615.673,0-3923.509,0C2,2137.732,2,1069.866,2,2z M1583.062,2652.132c1.25,1.681,2.053,2.702,2.795,3.767
		c17.494,25.097,34.898,50.257,52.498,75.278c12.241,17.402,26.183,33.787,36.789,52.116c14.849,25.661,33.394,47.944,54.006,68.885
		c12.837,13.04,25.604,26.185,37.756,39.855c15.515,17.45,29.447,35.984,37.872,58.236c2.779,7.34,7.248,14.305,12.091,20.553
		c21.204,27.351,46.357,50.103,76.732,67.314c20.936,11.862,42.989,19.805,66.58,22.494c16.129,1.84,32.636,1.692,48.89,0.836
		c29.576-1.561,58.517-8.098,83.53-24.021c31.396-19.982,61.657-41.888,91.342-64.369c19.561-14.814,37.115-32.258,55.793-48.261
		c34.622-29.663,68.548-60.081,100.468-92.656c25.759-26.288,54.456-48.947,85.444-68.575
		c34.811-22.048,66.816-47.235,93.793-78.522c2.936-3.403,5.902-4.615,10.47-3.137c27.672,8.955,56.209,13.014,85.128,15.504
		c32.807,2.823,65.572,5.751,98.544,5.445c17.329-0.161,34.661,0.068,51.99-0.078c6.637-0.056,13.329-1.41,19.891-0.876
		c15.202,1.237,31.327-4.863,45.465,5.359c0.253,0.183,0.645,0.286,0.956,0.258c13.329-1.193,27.3,3.905,39.965-4.335
		c2.024-1.317,5.06-1.355,7.651-1.484c27.888-1.395,55.801-2.362,83.664-4.107c25.236-1.579,50.331-4.673,74.858-11.139
		c56.774-14.97,111.23-35.703,163.556-62.637c51.661-26.592,100.129-58.124,147.515-91.365
		c42.565-29.859,80.653-65.215,117.43-101.846c24.757-24.66,48.789-50.064,72.656-75.594c27.082-28.968,51.184-60.322,71.769-94.258
		c11.036-18.191,21.556-36.7,32.165-55.147c8.119-14.12,17.346-27.797,23.746-42.674c15.88-36.91,31.635-73.963,45.181-111.768
		c14.941-41.693,22.698-85.282,27.771-129.274c1.251-10.85,1.82-21.802,3.599-32.56c1.564-9.468,4.084-18.813,6.702-28.065
		c6.567-23.201,9.103-46.873,9.108-70.901c0.002-3.987-0.293-8.161,0.727-11.931c5.998-22.165,5.615-44.786,5.166-67.395
		c-0.197-9.939-0.598-19.958-2.076-29.764c-1.623-10.761-2.627-22.195-9.934-30.943c-6.896-8.255-10.147-17.681-12.392-27.821
		c-1.577-7.129-3.665-14.144-5.304-21.26c-6.242-27.096-18.5-51.378-35.701-72.949c-26.524-33.262-53.274-66.367-80.809-98.791
		c-19.575-23.051-40.537-44.927-61.002-67.216c-12.53-13.649-27.373-24.206-44.132-32.108c-2.878-1.357-5.576-3.088-8.764-4.874
		c8.8-18.538,7.146-37.483,5.719-55.871c-1.572-20.281-10.249-38.366-24.224-53.606c-10.239-11.167-17.875-23.711-22.08-38.55
		c-2.037-7.189-5.574-14.531-10.284-20.288c-20.683-25.282-39.714-51.618-56.065-79.938c-8.466-14.661-18.81-28.282-26.708-43.217
		c-8.15-15.41-17.667-29.617-28.764-42.97c-20.29-24.412-38.16-50.32-49.742-80.224c-8.438-21.788-19.747-42.086-33.095-61.335
		c-18.188-26.229-35.802-52.857-53.709-79.283c-4.288-6.33-8.57-12.679-13.186-18.769c-18.902-24.942-39.418-48.475-60.957-71.203
		c-21.797-23.001-44.52-44.698-69.995-63.762c-13.026-9.748-25.793-14.478-41.969-13.45c-21.081,1.339-14.511-2.291-30.114,13.017
		c-6.093,5.978-9.452,13.205-10.725,21.886c-2.788,19.012-0.475,37.86,1.12,56.679c2.334,27.543,9.154,54.299,16.165,80.961
		c9.664,36.748,15.061,74.116,17.01,112.048c0.732,14.248,1.78,28.526,3.672,42.659c2.599,19.414,6.173,38.695,9.206,58.053
		c0.263,1.671-0.392,3.487-0.86,7.071c-10.258-8.252-19.677-15.006-28.125-22.81c-14.18-13.1-27.613-27.002-41.602-40.314
		c-12.526-11.918-26.313-22.646-37.895-35.396c-25.916-28.528-51.339-57.547-75.945-87.211
		c-19.729-23.783-37.714-49.003-56.917-73.234c-24.36-30.743-49.272-61.047-73.76-91.692
		c-24.283-30.391-48.582-60.775-72.421-91.513c-29.951-38.619-59.803-77.33-93.433-112.854
		c-13.703-14.476-28.306-28.225-43.491-41.135c-13.898-11.816-29.739-20.165-49.236-17.151c-3.581,0.553-7.352,0.385-10.979,0.009
		c-5.792-0.6-10.131,1.661-14.315,5.43c-13.243,11.927-22.12,25.591-24.735,44.053c-3.997,28.222-11.332,55.889-13.163,84.549
		c-1.926,30.145-6.347,60.126-5.435,90.456c0.18,5.968-0.368,11.965-0.708,17.942c-1.265,22.218-3.776,44.443-3.59,66.646
		c0.254,30.209,2.54,60.402,3.984,90.6c0.539,11.271,1.261,22.534,1.707,33.809c0.23,5.807,0.041,11.63,0.041,19.741
		c-4.7-4.441-8.197-7.271-11.133-10.596c-19.133-21.675-38.215-43.395-57.177-65.219c-22.194-25.546-39.179-54.483-53.933-84.738
		c-17.352-35.582-34.174-71.419-51.233-107.143c-14.905-31.209-28.914-62.788-40.021-95.593
		c-13.312-39.319-26.782-78.585-40.067-117.913c-3.067-9.08-5.539-18.361-8.548-27.462c-0.801-2.424-2.352-4.698-3.935-6.75
		c-8.903-11.533-19.916-18.384-35.246-15.803c-2.917,0.491-6.017,0.343-8.979,0.014c-5.842-0.648-9.949,1.896-14.153,5.728
		c-18.078,16.479-29.541,36.836-34.704,60.445c-6.339,28.98-14.511,57.373-24.343,85.322c-0.685,1.944-1.646,3.791-2.479,5.683
		c-4.707-12.034-7.878-23.884-10.061-35.913c-3.141-17.312-4.948-34.88-8.471-52.105c-3.348-16.377-5.049-32.701-5.002-49.422
		c0.055-19.266-0.798-38.56-1.989-57.795c-0.97-15.65-3.384-31.361-11.549-45.009c-6.77-11.317-10.05-23.689-14.439-35.816
		c-6.325-17.473-9.328-35.371-8.415-53.808c0.864-17.453-3.781-32.195-18.393-42.738c-3.136-2.262-6.55-4.887-10.17-5.568
		c-6.802-1.281-13.917-0.82-20.778-1.882c-14.961-2.313-26.507,2.775-35.326,14.844c-1.94,2.655-5.01,4.694-6.289,7.58
		c-2.8,6.314-5.214,12.875-7.001,19.546c-2.688,10.034-8.358,17.859-15.646,25.01c-10.215,10.026-20.391,20.146-29.856,30.867
		c-13.061,14.794-22.218,32.226-32.044,49.24c-10.992,19.032-23.538,36.887-41.59,50.424
		c-26.067,19.547-51.422,40.041-77.336,59.795c-26.214,19.983-53.182,38.873-82.367,54.4c-13.505,7.186-26.956,14.11-42.095,17.72
		c-22.1,5.27-42.814,14.349-62.364,25.982c-23.166,13.785-46.252,27.704-69.5,41.35c-24.172,14.188-47.128,30.077-68.594,48.1
		c-8.146,6.838-15.91,14.163-24.346,20.617c-22.456,17.184-45.076,34.158-67.829,50.948c-27.622,20.384-53.792,42.421-77.691,67.087
		c-15.053,15.536-29.662,31.511-44.952,46.808c-35.09,35.109-70.477,69.924-105.742,104.858c-0.237,0.235-0.446,0.506-0.711,0.702
		c-1.703,1.265-3.417,2.515-6.165,4.531c-0.907-13.217-1.989-25.032-2.459-36.872c-0.556-13.969-0.228-27.976-0.922-41.935
		c-0.958-19.212-3.467-38.389-3.599-57.593c-0.213-30.948-0.398-61.878-5.708-92.423c-4.374-25.156-7.762-50.798-15.451-74.997
		c-15.688-49.37-33.991-97.908-51.166-146.807c-0.867-2.467-1.719-5.09-1.784-7.661c-0.215-8.513-2.581-16.39-6.606-23.759
		c-3.205-5.867-6.484-11.51-5.682-18.683c0.228-2.033-0.863-4.807-2.308-6.336c-8.84-9.361-16.875-18.239-32.633-16.895
		c-22.522,1.92-17.762-0.72-33.761,14.633c-5.676,5.447-8.581,11.75-8.397,19.488c0.386,16.287,0.962,32.569,1.264,48.856
		c0.092,4.945-0.045,9.965-0.791,14.84c-3.615,23.611-8.605,46.974-9.51,71.027c-0.404,10.741-3.523,21.559-6.61,31.986
		c-9.261,31.282-26.191,58.713-43.562,86.015c-14.471,22.742-32.545,41.714-52.893,59.243c-20.37,17.548-39.167,36.93-58.504,55.663
		c-17.192,16.655-34.273,33.429-51.229,50.325c-15.543,15.487-31.318,30.78-46.159,46.924
		c-22.076,24.013-40.883,50.659-60.01,77.029c-30.063,41.448-61.205,82.061-88.779,125.352
		c-26.485,41.58-52.075,83.518-72.179,128.573c-16.106,36.097-34.453,71.276-44.959,109.71
		c-5.788,21.172-13.448,41.881-18.317,63.243c-6.264,27.478-10.63,55.39-15.703,83.135c-2.806,15.346-6.515,30.635-7.85,46.119
		c-3.535,41.032,0.915,81.615,8.647,121.966c5.508,28.74,11.835,57.233,20.043,85.342c2.726,9.333,5.209,18.645,10.981,26.495
		c3.716,5.055,3.806,9.871,2.873,15.797c-4.803,30.514-8.462,61.19-8.604,92.124c-0.094,20.276,0.888,40.556,1.2,60.836
		c0.498,32.334,4.988,64.257,11.006,95.893c8.706,45.771,21.333,90.585,38.109,134.058c23.512,60.924,51.167,119.872,86.116,175.247
		c35.817,56.749,76.757,109.397,123.931,157.15c15.666,15.858,31.38,31.673,47.313,47.26c12.843,12.565,25.773,25.067,39.151,37.054
		c30.993,27.769,63.642,53.484,97.5,77.692c54.569,39.014,112.206,72.83,173.27,100.482c72.04,32.622,146.804,57.193,224.701,71.636
		c29.792,5.523,59.769,9.286,90.181,9.04c32.325-0.262,64.669,0.524,96.976-0.266c21.226-0.519,42.408-2.958,63.598-4.675
		c6.339-0.514,12.328-1.777,16.851-7.229c1.745-2.104,5.106-2.938,7.817-4.155c21.541-9.669,43.411-18.67,64.557-29.132
		c15.838-7.836,31.73-14.776,49.075-18.602c14.915-3.29,29.64-7.531,44.294-11.87
		C1564.963,2659.197,1573.583,2655.577,1583.062,2652.132z"/>
	<path fill-rule="evenodd" d="M1583.062,2652.132c-9.479,3.445-18.099,7.065-27.009,9.704c-14.654,4.339-29.379,8.58-44.294,11.87
		c-17.345,3.825-33.237,10.766-49.075,18.602c-21.146,10.462-43.016,19.463-64.557,29.132c-2.711,1.217-6.073,2.052-7.817,4.155
		c-4.523,5.452-10.511,6.716-16.851,7.229c-21.189,1.717-42.372,4.156-63.598,4.675c-32.307,0.79-64.651,0.004-96.976,0.266
		c-30.412,0.246-60.389-3.517-90.181-9.04c-77.897-14.442-152.661-39.014-224.701-71.636
		c-61.063-27.652-118.7-61.469-173.27-100.482c-33.859-24.208-66.507-49.924-97.5-77.692
		c-13.378-11.986-26.308-24.488-39.151-37.054c-15.933-15.587-31.647-31.401-47.313-47.26
		c-47.174-47.753-88.114-100.401-123.931-157.15c-34.95-55.375-62.604-114.323-86.116-175.247
		c-16.776-43.473-29.403-88.286-38.109-134.058c-6.018-31.636-10.508-63.559-11.006-95.893c-0.312-20.28-1.294-40.56-1.2-60.836
		c0.143-30.934,3.802-61.61,8.604-92.124c0.933-5.926,0.844-10.742-2.873-15.797c-5.771-7.851-8.255-17.162-10.981-26.495
		c-8.208-28.109-14.536-56.602-20.043-85.342c-7.733-40.352-12.182-80.935-8.647-121.966c1.334-15.484,5.043-30.773,7.85-46.119
		c5.073-27.746,9.439-55.657,15.703-83.135c4.869-21.362,12.53-42.071,18.317-63.243c10.507-38.434,28.853-73.613,44.959-109.71
		c20.104-45.055,45.694-86.993,72.179-128.573c27.575-43.291,58.716-83.903,88.779-125.352
		c19.127-26.371,37.934-53.017,60.01-77.029c14.841-16.144,30.616-31.437,46.159-46.924c16.956-16.896,34.037-33.67,51.229-50.325
		c19.337-18.733,38.135-38.115,58.504-55.663c20.347-17.529,38.422-36.5,52.893-59.243c17.371-27.301,34.301-54.732,43.562-86.015
		c3.087-10.427,6.206-21.245,6.61-31.986c0.905-24.053,5.896-47.416,9.51-71.027c0.746-4.875,0.883-9.896,0.791-14.84
		c-0.302-16.287-0.878-32.569-1.264-48.856c-0.184-7.738,2.722-14.041,8.397-19.488c15.999-15.353,11.239-12.712,33.761-14.633
		c15.758-1.345,23.793,7.533,32.633,16.895c1.444,1.529,2.535,4.303,2.308,6.336c-0.803,7.173,2.477,12.816,5.682,18.683
		c4.026,7.369,6.392,15.246,6.606,23.759c0.065,2.571,0.917,5.194,1.784,7.661c17.175,48.899,35.478,97.437,51.166,146.807
		c7.689,24.199,11.078,49.841,15.451,74.997c5.31,30.545,5.496,61.475,5.708,92.423c0.132,19.204,2.641,38.38,3.599,57.593
		c0.695,13.959,0.367,27.966,0.922,41.935c0.47,11.839,1.552,23.654,2.459,36.872c2.748-2.016,4.462-3.266,6.165-4.531
		c0.265-0.196,0.474-0.467,0.711-0.702c35.265-34.934,70.651-69.749,105.742-104.858c15.29-15.297,29.899-31.271,44.952-46.808
		c23.899-24.666,50.069-46.703,77.691-67.087c22.752-16.79,45.373-33.764,67.829-50.948c8.436-6.454,16.2-13.778,24.346-20.617
		c21.466-18.023,44.422-33.912,68.594-48.1c23.248-13.646,46.334-27.565,69.5-41.35c19.55-11.633,40.265-20.712,62.364-25.982
		c15.139-3.61,28.589-10.535,42.095-17.72c29.185-15.527,56.153-34.417,82.367-54.4c25.914-19.754,51.269-40.248,77.336-59.795
		c18.052-13.538,30.599-31.393,41.59-50.424c9.826-17.015,18.983-34.446,32.044-49.24c9.466-10.721,19.641-20.841,29.856-30.867
		c7.287-7.15,12.958-14.976,15.646-25.01c1.787-6.671,4.202-13.231,7.001-19.546c1.279-2.886,4.349-4.925,6.289-7.58
		c8.818-12.069,20.365-17.157,35.326-14.844c6.861,1.062,13.976,0.601,20.778,1.882c3.621,0.681,7.034,3.306,10.17,5.568
		c14.612,10.542,19.257,25.285,18.393,42.738c-0.913,18.437,2.09,36.334,8.415,53.808c4.389,12.127,7.669,24.499,14.439,35.816
		c8.165,13.647,10.579,29.358,11.549,45.009c1.191,19.236,2.044,38.529,1.989,57.795c-0.047,16.722,1.654,33.045,5.002,49.422
		c3.522,17.225,5.33,34.793,8.471,52.105c2.183,12.029,5.354,23.879,10.061,35.913c0.833-1.893,1.795-3.739,2.479-5.683
		c9.832-27.95,18.004-56.342,24.343-85.322c5.163-23.609,16.626-43.966,34.704-60.445c4.204-3.833,8.312-6.376,14.153-5.728
		c2.963,0.329,6.063,0.478,8.979-0.014c15.33-2.582,26.343,4.27,35.246,15.803c1.583,2.052,3.134,4.326,3.935,6.75
		c3.009,9.102,5.48,18.383,8.548,27.462c13.285,39.328,26.756,78.594,40.067,117.913c11.106,32.805,25.115,64.384,40.021,95.593
		c17.06,35.723,33.882,71.561,51.233,107.143c14.754,30.254,31.738,59.192,53.933,84.738c18.962,21.824,38.044,43.544,57.177,65.219
		c2.936,3.326,6.433,6.155,11.133,10.596c0-8.11,0.189-13.934-0.041-19.741c-0.446-11.275-1.168-22.538-1.707-33.809
		c-1.444-30.198-3.73-60.391-3.984-90.6c-0.187-22.203,2.325-44.428,3.59-66.646c0.34-5.977,0.888-11.974,0.708-17.942
		c-0.912-30.33,3.509-60.311,5.435-90.456c1.831-28.66,9.166-56.327,13.163-84.549c2.615-18.462,11.492-32.126,24.735-44.053
		c4.185-3.769,8.523-6.03,14.315-5.43c3.628,0.376,7.398,0.544,10.979-0.009c19.497-3.013,35.338,5.335,49.236,17.151
		c15.186,12.91,29.788,26.66,43.491,41.135c33.63,35.524,63.481,74.235,93.433,112.854c23.839,30.738,48.138,61.123,72.421,91.513
		c24.487,30.645,49.399,60.949,73.76,91.692c19.203,24.231,37.188,49.451,56.917,73.234c24.606,29.664,50.029,58.683,75.945,87.211
		c11.582,12.75,25.368,23.478,37.895,35.396c13.988,13.312,27.422,27.214,41.602,40.314c8.448,7.804,17.867,14.558,28.125,22.81
		c0.469-3.584,1.123-5.4,0.86-7.071c-3.033-19.358-6.607-38.64-9.206-58.053c-1.892-14.133-2.939-28.411-3.672-42.659
		c-1.949-37.932-7.346-75.3-17.01-112.048c-7.011-26.662-13.831-53.417-16.165-80.961c-1.595-18.819-3.908-37.667-1.12-56.679
		c1.272-8.682,4.632-15.908,10.725-21.886c15.604-15.308,9.033-11.677,30.114-13.017c16.176-1.027,28.942,3.703,41.969,13.45
		c25.476,19.064,48.198,40.761,69.995,63.762c21.539,22.729,42.055,46.261,60.957,71.203c4.615,6.09,8.897,12.439,13.186,18.769
		c17.907,26.425,35.521,53.054,53.709,79.283c13.348,19.249,24.657,39.548,33.095,61.335c11.582,29.904,29.452,55.812,49.742,80.224
		c11.097,13.353,20.613,27.56,28.764,42.97c7.898,14.936,18.242,28.556,26.708,43.217c16.352,28.32,35.383,54.655,56.065,79.938
		c4.71,5.757,8.247,13.099,10.284,20.288c4.205,14.839,11.841,27.383,22.08,38.55c13.975,15.24,22.651,33.326,24.224,53.606
		c1.427,18.387,3.081,37.333-5.719,55.871c3.188,1.785,5.886,3.517,8.764,4.874c16.759,7.902,31.602,18.459,44.132,32.108
		c20.465,22.289,41.427,44.166,61.002,67.216c27.534,32.424,54.284,65.529,80.809,98.791c17.201,21.57,29.459,45.853,35.701,72.949
		c1.639,7.116,3.727,14.131,5.304,21.26c2.244,10.141,5.496,19.566,12.392,27.821c7.307,8.748,8.311,20.183,9.934,30.943
		c1.479,9.806,1.879,19.824,2.076,29.764c0.449,22.608,0.832,45.229-5.166,67.395c-1.02,3.77-0.725,7.943-0.727,11.931
		c-0.006,24.028-2.541,47.7-9.108,70.901c-2.618,9.252-5.138,18.598-6.702,28.065c-1.778,10.758-2.348,21.71-3.599,32.56
		c-5.072,43.992-12.829,87.581-27.771,129.274c-13.546,37.805-29.301,74.857-45.181,111.768
		c-6.4,14.877-15.627,28.554-23.746,42.674c-10.609,18.447-21.129,36.956-32.165,55.147c-20.585,33.936-44.687,65.29-71.769,94.258
		c-23.867,25.529-47.899,50.934-72.656,75.594c-36.776,36.631-74.864,71.986-117.43,101.846
		c-47.386,33.241-95.854,64.773-147.515,91.365c-52.325,26.934-106.781,47.667-163.556,62.637
		c-24.527,6.466-49.622,9.56-74.858,11.139c-27.863,1.745-55.776,2.713-83.664,4.107c-2.592,0.129-5.627,0.167-7.651,1.484
		c-12.665,8.24-26.636,3.142-39.965,4.335c-0.312,0.028-0.703-0.075-0.956-0.258c-14.138-10.223-30.263-4.122-45.465-5.359
		c-6.562-0.534-13.254,0.82-19.891,0.876c-17.329,0.146-34.661-0.083-51.99,0.078c-32.972,0.306-65.737-2.622-98.544-5.445
		c-28.919-2.49-57.456-6.549-85.128-15.504c-4.567-1.479-7.534-0.267-10.47,3.137c-26.977,31.287-58.982,56.475-93.793,78.522
		c-30.988,19.628-59.686,42.287-85.444,68.575c-31.92,32.575-65.846,62.993-100.468,92.656
		c-18.678,16.003-36.232,33.446-55.793,48.261c-29.685,22.481-59.946,44.387-91.342,64.369
		c-25.014,15.923-53.954,22.46-83.53,24.021c-16.254,0.856-32.761,1.004-48.89-0.836c-23.591-2.689-45.644-10.632-66.58-22.494
		c-30.375-17.212-55.528-39.964-76.732-67.314c-4.843-6.248-9.313-13.213-12.091-20.553c-8.425-22.252-22.357-40.786-37.872-58.236
		c-12.152-13.671-24.918-26.815-37.756-39.855c-20.612-20.94-39.157-43.224-54.006-68.885
		c-10.606-18.329-24.548-34.714-36.789-52.116c-17.6-25.021-35.004-50.182-52.498-75.278
		C1585.115,2654.834,1584.312,2653.813,1583.062,2652.132z"/>
</g>
</svg>
